# Blender 5.1.2
# www.blender.org
mtllib Cardbox_C2.mtl
o Cardbox_C2
v 0.249680 0.002877 -0.250377
v 0.250715 0.007671 -0.251776
v 0.249029 0.007735 -0.255281
v 0.250242 0.007771 -0.254262
v 0.254398 0.008186 -0.251771
v 0.255184 0.008091 -0.251263
v 0.247805 0.001918 -0.253304
v 0.249112 0.002257 -0.252478
v 0.248057 -0.000170 -0.246892
v 0.254043 0.002266 -0.248725
v 0.252413 0.002489 -0.250191
v 0.250054 0.001296 -0.250077
v 0.249057 0.007735 0.254411
v 0.248057 -0.000127 0.248328
v 0.256622 0.008091 0.250590
v 0.250270 0.007771 0.253392
v 0.250914 0.007671 0.251408
v 0.250652 0.002877 0.250685
v 0.250033 0.001908 0.252118
v 0.250802 0.001296 0.251232
v 0.253239 0.002489 0.251138
v 0.255408 0.008186 0.251834
v 0.248726 0.001568 0.252944
v 0.254869 0.002266 0.249671
v 0.249029 0.250968 -0.255281
v 0.249433 0.258356 -0.246892
v -0.249433 0.258356 -0.246892
v 0.254121 0.253552 -0.250172
v 0.250242 0.250932 -0.254262
v 0.250602 0.251032 -0.251519
v 0.250352 0.253291 -0.249933
v 0.250602 0.254957 -0.252792
v 0.253887 0.250517 -0.251305
v 0.249295 0.255296 -0.253618
v 0.250391 0.254197 -0.246924
v 0.248746 0.253003 0.254624
v 0.253178 0.253093 0.252074
v 0.249646 0.252692 0.253938
v 0.250317 0.252688 0.253112
v 0.248726 0.253254 0.252671
v 0.252537 0.252463 0.252866
v 0.249438 0.253385 0.251893
v 0.254162 0.253828 -0.246935
v 0.254426 0.250365 -0.250254
v 0.249223 0.259520 0.252094
v 0.250474 0.257355 -0.246898
v 0.249781 0.258601 0.252028
v 0.249271 0.258605 0.252838
v 0.254463 0.252866 -0.249642
v 0.254486 0.253183 -0.246998
v 0.253753 0.252572 0.252584
v 0.252672 0.251908 0.253315
v 0.250599 0.251988 0.253502
v 0.249960 0.252123 0.254262
v 0.248747 0.252233 0.255281
v 0.081649 0.258667 0.247246
v 0.082233 0.257935 0.247758
v 0.081090 0.257987 0.252744
v 0.081440 0.252505 0.254052
v 0.168177 0.259519 0.246267
v 0.167770 0.257866 0.247083
v 0.164696 0.256268 0.249465
v 0.164614 0.256304 0.254126
v 0.170028 0.259520 0.251814
v 0.169601 0.258983 0.252386
v 0.167589 0.253243 0.252079
v 0.167685 0.253211 0.253740
v 0.084637 0.256592 0.249336
v 0.084532 0.255795 0.254109
v 0.081132 0.252197 0.252579
v 0.080591 0.258667 0.252133
v -0.250242 0.007771 -0.254262
v -0.250715 0.007671 -0.251776
v -0.249680 0.002877 -0.250377
v -0.249112 0.002257 -0.252478
v -0.250054 0.001296 -0.250077
v -0.252413 0.002489 -0.250191
v -0.254398 0.008186 -0.251771
v -0.249029 0.007735 -0.255281
v -0.247805 0.001918 -0.253304
v -0.248057 -0.000170 -0.246892
v -0.254043 0.002266 -0.248725
v -0.254869 0.002266 0.249671
v -0.248057 -0.000127 0.248328
v -0.255184 0.008091 -0.251263
v -0.250270 0.007771 0.253392
v -0.250033 0.001908 0.252118
v -0.250653 0.002877 0.250685
v -0.250914 0.007671 0.251408
v -0.250802 0.001296 0.251232
v -0.253239 0.002489 0.251138
v -0.255408 0.008186 0.251834
v -0.248726 0.001568 0.252944
v -0.249057 0.007735 0.254411
v -0.256622 0.008091 0.250590
v -0.249029 0.250968 -0.255281
v -0.254426 0.250365 -0.250254
v -0.254463 0.252866 -0.249642
v -0.254486 0.253183 -0.246998
v -0.250242 0.250932 -0.254262
v -0.250602 0.254957 -0.252792
v -0.250352 0.253291 -0.249933
v -0.250602 0.251032 -0.251519
v -0.250702 0.257821 -0.246898
v -0.249295 0.255296 -0.253618
v -0.250391 0.254197 -0.246924
v -0.254162 0.253828 -0.246935
v -0.254121 0.253552 -0.250172
v -0.253887 0.250517 -0.251305
v -0.248746 0.252895 0.254910
v -0.167612 0.253059 0.253891
v -0.248747 0.252233 0.255281
v -0.081649 0.258970 0.247246
v -0.168177 0.259519 0.246267
v -0.253753 0.252572 0.252584
v -0.249646 0.252692 0.253938
v -0.250317 0.252688 0.253112
v -0.249438 0.253385 0.251893
v -0.248726 0.253254 0.252671
v -0.252537 0.252463 0.252866
v -0.253178 0.253093 0.252074
v -0.167517 0.253128 0.252079
v -0.249960 0.252123 0.254262
v -0.250599 0.251988 0.253502
v -0.249223 0.259520 0.252094
v -0.170028 0.259520 0.251814
v -0.169601 0.258983 0.252386
v -0.249271 0.258605 0.252838
v -0.252672 0.251908 0.253315
v -0.249781 0.258601 0.252028
v -0.080591 0.258971 0.252133
v -0.081090 0.257987 0.252744
v -0.082233 0.257954 0.247758
v -0.081132 0.252197 0.252579
v -0.167770 0.257866 0.247083
v -0.084637 0.256592 0.249336
v -0.164696 0.256268 0.249465
v -0.084532 0.255913 0.254072
v -0.164614 0.256326 0.253997
v -0.081440 0.252388 0.253866
v 0.167485 0.252817 0.254265
v 0.164612 0.255949 0.254658
v 0.084647 0.255260 0.254569
v 0.081660 0.251908 0.254347
v -0.081873 0.251693 0.254414
v -0.084809 0.255457 0.254339
v -0.164415 0.256060 0.254510
v -0.167310 0.252549 0.254265
v 0.249364 0.257859 -0.250635
v 0.250538 0.256915 -0.250225
v -0.250652 0.257148 -0.250225
v -0.249364 0.257859 -0.250635
vn 0.9480 -0.2563 -0.1886
vn 0.9488 -0.2571 -0.1836
vn 0.9477 -0.2559 -0.1909
vn 0.0418 -0.1767 -0.9834
vn 0.0305 -0.2832 -0.9586
vn 0.0364 -0.2814 -0.9589
vn 0.0406 -0.2801 -0.9591
vn 0.3764 -0.9265 -0.0006
vn 0.3319 -0.9433 0.0001
vn 0.3315 -0.9435 0.0001
vn 0.5698 -0.3674 -0.7351
vn 0.6004 -0.3570 -0.7156
vn 0.6077 -0.3544 -0.7107
vn 0.2304 -0.9130 -0.3366
vn 0.3437 -0.8482 -0.4030
vn 0.4932 -0.7234 -0.4832
vn 0.3365 -0.8652 -0.3718
vn 0.3180 -0.9025 -0.2904
vn 0.3646 -0.7706 -0.5226
vn 0.5655 -0.4160 -0.7122
vn 0.4901 -0.3915 -0.7788
vn 0.5749 -0.4189 -0.7028
vn 0.9388 0.1647 -0.3024
vn -0.0000 -1.0000 0.0001
vn 0.9387 -0.1077 0.3273
vn 0.9433 -0.1011 0.3161
vn 0.9372 -0.1098 0.3309
vn -0.1176 0.3148 0.9419
vn -0.1135 -0.1024 0.9882
vn -0.1444 -0.1159 0.9827
vn -0.0840 -0.0893 0.9925
vn -0.0000 -0.2314 0.9729
vn -0.0000 -0.9387 0.3448
vn 0.9579 -0.2871 -0.0016
vn 0.9810 -0.1940 -0.0028
vn 0.9811 -0.1934 -0.0028
vn 0.6230 -0.1938 0.7578
vn 0.5726 -0.2154 0.7911
vn 0.6350 -0.1884 0.7491
vn 0.2048 -0.9029 0.3780
vn 0.1777 -0.9026 0.3920
vn -0.0948 -0.8556 0.5088
vn 0.3446 -0.8674 0.3590
vn 0.3125 -0.9182 0.2435
vn 0.2937 -0.9384 0.1822
vn 0.6198 -0.3184 0.7173
vn 0.6569 -0.3107 0.6870
vn 0.6089 -0.3205 0.7256
vn 0.8107 0.2584 0.5253
vn 0.9999 -0.0129 -0.0072
vn 1.0000 -0.0016 -0.0053
vn 0.9995 -0.0098 -0.0304
vn 0.9908 -0.0416 -0.1285
vn 0.6563 0.7471 -0.1053
vn 0.6784 0.7292 -0.0903
vn 0.6904 0.7188 -0.0818
vn -0.0007 0.9845 -0.1755
vn 0.0176 0.9800 -0.1980
vn 0.0924 0.9531 -0.2882
vn 0.9914 -0.0000 -0.1305
vn 0.9824 0.0007 -0.1867
vn 0.9915 -0.0000 -0.1302
vn 0.6931 0.7208 -0.0008
vn 0.8544 0.5196 -0.0009
vn 0.6929 0.7210 -0.0008
vn 0.0018 0.0019 -1.0000
vn 0.0645 0.0011 -0.9979
vn 0.0012 0.0019 -1.0000
vn 0.6433 -0.0000 -0.7656
vn 0.6155 0.2442 -0.7494
vn 0.5769 0.2404 -0.7806
vn 0.5624 0.2389 -0.7916
vn -0.0125 -0.0036 0.9999
vn -0.0071 1.0000 -0.0030
vn 0.0037 1.0000 -0.0033
vn 0.0059 1.0000 -0.0027
vn 0.2566 0.9290 0.2666
vn 0.2417 0.9199 0.3089
vn 0.2733 0.9372 0.2169
vn 0.1078 0.7888 0.6051
vn 0.0625 0.8592 0.5078
vn 0.1481 0.7122 0.6862
vn 0.0011 0.9921 0.1258
vn -0.0003 0.9998 0.0208
vn 0.0011 0.9919 0.1272
vn 0.9509 -0.0014 0.3096
vn 0.7664 -0.0013 0.6424
vn 0.7652 -0.0013 0.6438
vn -0.0004 0.7289 0.6847
vn -0.0027 0.6317 0.7752
vn -0.0027 0.6310 0.7758
vn 0.0973 0.9953 0.0018
vn 0.0778 0.9970 0.0016
vn 0.0777 0.9970 0.0016
vn -0.0926 -0.0086 0.9957
vn 0.0875 -0.0051 0.9962
vn -0.0935 -0.0087 0.9956
vn 0.6433 -0.0019 0.7656
vn 0.6431 -0.0019 0.7658
vn 0.7155 0.0038 0.6986
vn 0.5609 -0.0002 0.8279
vn 0.7160 0.0038 0.6981
vn 0.4001 0.9095 0.1125
vn 0.0235 0.4455 -0.8949
vn 0.0007 0.4706 -0.8824
vn -0.0911 0.5653 -0.8198
vn 1.0000 -0.0032 -0.0007
vn 0.9999 0.0116 0.0013
vn 1.0000 0.0093 0.0001
vn 0.5442 0.0052 -0.8389
vn 0.8894 0.0028 -0.4571
vn 0.5430 0.0052 -0.8397
vn 0.7647 0.4304 0.4795
vn 0.9992 -0.0394 0.0120
vn 0.9992 -0.0387 0.0126
vn 0.9994 -0.0265 0.0226
vn 0.9979 -0.0654 0.0016
vn 0.9996 -0.0266 0.0019
vn 0.9978 -0.0656 0.0016
vn -0.0059 -0.0313 0.9995
vn -0.0072 -0.0502 0.9987
vn -0.0073 -0.0509 0.9987
vn 0.8326 -0.0727 0.5491
vn 0.7542 -0.0935 0.6500
vn 0.8439 -0.0692 0.5320
vn 0.8909 0.0960 -0.4440
vn 0.8898 0.0975 -0.4458
vn 0.8912 0.0954 -0.4434
vn 0.9061 0.4203 -0.0488
vn 0.8936 0.4450 -0.0590
vn 0.8898 0.4522 -0.0620
vn 0.6708 0.7416 0.0019
vn 0.8938 0.4484 0.0024
vn 0.8940 0.4481 0.0024
vn 0.0971 0.7134 0.6940
vn 0.1084 0.6766 0.7283
vn 0.1184 0.6414 0.7580
vn 0.1054 0.6157 0.7809
vn 0.1366 0.5478 0.8254
vn 0.0938 0.6394 0.7631
vn 0.6526 0.5871 0.4790
vn 0.6514 0.5767 0.4931
vn 0.6479 0.5532 0.5236
vn 0.5811 0.5567 0.5937
vn 0.5894 0.5820 0.5602
vn 0.6003 0.6191 0.5064
vn 0.7218 0.6738 0.1582
vn 0.7171 0.6794 0.1555
vn 0.7165 0.6801 0.1551
vn -0.0000 -0.0285 0.9996
vn 0.0036 0.5736 0.8191
vn 0.0074 0.4422 0.8969
vn 0.0036 0.5748 0.8183
vn 0.0056 0.7668 0.6418
vn 0.0026 0.8270 0.5622
vn 0.0057 0.7659 0.6429
vn -0.0059 0.9874 0.1583
vn 0.0037 1.0000 -0.0013
vn 0.0041 1.0000 -0.0078
vn -0.7550 0.6414 0.1362
vn -0.8752 0.3946 0.2798
vn -0.7208 0.6853 0.1045
vn -0.9175 0.3079 0.2519
vn 0.7133 0.7007 -0.0113
vn 0.7167 0.6973 -0.0012
vn 0.7078 0.7059 -0.0270
vn 0.0008 1.0000 -0.0005
vn -0.0000 1.0000 -0.0007
vn -0.0062 1.0000 -0.0033
vn 0.1468 0.7234 0.6747
vn 0.4394 0.8936 0.0913
vn -0.7362 0.6751 0.0479
vn -0.7413 0.6664 0.0798
vn -0.7434 0.6622 0.0942
vn 0.0016 -0.0686 0.9976
vn 0.0001 -0.1217 0.9926
vn -0.0000 -0.1244 0.9922
vn -0.0005 0.9891 -0.1471
vn -0.0000 0.9789 -0.2044
vn -0.0000 0.9788 -0.2047
vn 0.6895 -0.0156 0.7241
vn -0.0000 0.6680 0.7442
vn 0.0010 0.5278 0.8493
vn -0.0000 0.6684 0.7438
vn -0.0000 1.0000 -0.0001
vn -0.9488 -0.2572 -0.1835
vn -0.9480 -0.2563 -0.1886
vn -0.9477 -0.2559 -0.1909
vn -0.0418 -0.1767 -0.9834
vn -0.0364 -0.2814 -0.9589
vn -0.0305 -0.2832 -0.9586
vn -0.0406 -0.2801 -0.9591
vn -0.0000 -0.3218 -0.9468
vn -0.0000 -0.9509 -0.3096
vn -0.3764 -0.9265 -0.0006
vn -0.3319 -0.9433 0.0001
vn -0.3768 -0.9263 -0.0006
vn -0.6004 -0.3570 -0.7156
vn -0.5698 -0.3674 -0.7351
vn -0.6077 -0.3544 -0.7107
vn -0.3437 -0.8482 -0.4030
vn -0.2304 -0.9130 -0.3366
vn -0.4932 -0.7234 -0.4832
vn -0.3365 -0.8652 -0.3718
vn -0.3180 -0.9025 -0.2904
vn -0.3040 -0.9234 -0.2343
vn -0.5655 -0.4160 -0.7122
vn -0.4901 -0.3915 -0.7788
vn -0.4678 -0.3838 -0.7961
vn -0.9388 0.1648 -0.3024
vn -0.9387 -0.1077 0.3273
vn -0.9433 -0.1011 0.3161
vn -0.9451 -0.0985 0.3116
vn 0.1176 0.3148 0.9418
vn 0.1444 -0.1159 0.9827
vn 0.1135 -0.1024 0.9882
vn 0.0840 -0.0893 0.9925
vn -0.9579 -0.2871 -0.0016
vn -0.9810 -0.1940 -0.0028
vn -0.9577 -0.2879 -0.0016
vn -0.5726 -0.2154 0.7911
vn -0.6230 -0.1938 0.7578
vn -0.6350 -0.1884 0.7492
vn -0.2048 -0.9029 0.3780
vn -0.1777 -0.9026 0.3920
vn -0.3960 -0.8790 0.2655
vn -0.3446 -0.8674 0.3590
vn -0.3125 -0.9182 0.2435
vn -0.3862 -0.7458 0.5428
vn -0.6569 -0.3107 0.6870
vn -0.6198 -0.3184 0.7173
vn -0.6089 -0.3205 0.7256
vn -0.8107 0.2584 0.5253
vn -0.0000 -0.0000 -1.0000
vn -0.9999 -0.0129 -0.0072
vn -0.9995 -0.0098 -0.0304
vn -1.0000 -0.0016 -0.0053
vn -0.9908 -0.0416 -0.1285
vn -0.4827 0.8650 -0.1368
vn -0.4156 0.8932 -0.1716
vn -0.5093 0.8519 -0.1223
vn 0.0007 0.9845 -0.1755
vn -0.0176 0.9800 -0.1980
vn 0.0741 0.9937 -0.0839
vn -0.0000 0.3587 -0.9334
vn -0.9824 0.0007 -0.1867
vn -0.9914 -0.0000 -0.1305
vn -0.9915 -0.0000 -0.1302
vn -0.0000 0.9913 -0.1314
vn -0.3887 0.9214 -0.0007
vn -0.8541 0.5201 -0.0009
vn -0.8546 0.5192 -0.0009
vn -0.0645 0.0011 -0.9979
vn -0.0018 0.0019 -1.0000
vn -0.0012 0.0019 -1.0000
vn -0.6433 -0.0000 -0.7657
vn -0.6433 -0.0000 -0.7656
vn -0.6155 0.2442 -0.7494
vn -0.5769 0.2404 -0.7807
vn -0.6279 0.2453 -0.7386
vn 0.0100 0.4891 0.8722
vn 0.0077 0.5944 0.8042
vn 0.0100 0.4886 0.8725
vn -0.0005 1.0000 -0.0006
vn -0.2417 0.9199 0.3089
vn -0.2566 0.9290 0.2666
vn -0.2733 0.9372 0.2169
vn -0.0625 0.8592 0.5078
vn -0.1078 0.7888 0.6051
vn -0.1481 0.7122 0.6862
vn -0.0000 0.9877 0.1564
vn 0.0018 0.9992 0.0402
vn 0.0018 0.9993 0.0382
vn -0.7664 -0.0013 0.6424
vn -0.9509 -0.0014 0.3095
vn -0.7652 -0.0013 0.6438
vn 0.0027 0.6317 0.7752
vn 0.0004 0.7289 0.6847
vn 0.0027 0.6310 0.7758
vn -0.0778 0.9970 0.0016
vn -0.0973 0.9953 0.0018
vn -0.0777 0.9970 0.0016
vn 0.0926 -0.0086 0.9957
vn -0.0875 -0.0051 0.9962
vn -0.0897 -0.0050 0.9960
vn -0.6431 -0.0019 0.7658
vn -0.6433 -0.0019 0.7656
vn -0.7155 0.0038 0.6986
vn -0.5609 -0.0002 0.8279
vn -0.5604 -0.0002 0.8283
vn -0.3633 0.9205 0.1441
vn -0.0235 0.4456 -0.8949
vn -0.0007 0.4706 -0.8824
vn -0.1140 0.3397 -0.9336
vn -1.0000 0.0092 0.0002
vn -1.0000 -0.0062 -0.0073
vn -1.0000 -0.0037 -0.0062
vn -0.5442 0.0052 -0.8389
vn -0.8894 0.0028 -0.4571
vn -0.8899 0.0028 -0.4561
vn -0.7647 0.4304 0.4795
vn -0.9966 -0.0817 0.0057
vn -0.9968 -0.0793 0.0022
vn -0.9960 -0.0892 0.0040
vn -0.9978 -0.0657 0.0019
vn -0.9978 -0.0656 0.0019
vn 0.0072 -0.0491 0.9988
vn 0.0059 -0.0313 0.9995
vn 0.0072 -0.0498 0.9987
vn -0.8326 -0.0727 0.5491
vn -0.7542 -0.0935 0.6500
vn -0.7425 -0.0962 0.6629
vn -0.8909 0.0960 -0.4440
vn -0.8898 0.0975 -0.4458
vn -0.8894 0.0980 -0.4464
vn -0.9061 0.4203 -0.0488
vn -0.8936 0.4450 -0.0590
vn -0.9082 0.4159 -0.0470
vn -0.6708 0.7416 0.0019
vn -0.8938 0.4484 0.0024
vn -0.6706 0.7418 0.0019
vn -0.0971 0.7134 0.6940
vn -0.1084 0.6766 0.7283
vn -0.0870 0.7442 0.6622
vn -0.1366 0.5478 0.8254
vn -0.1054 0.6157 0.7809
vn -0.0938 0.6394 0.7631
vn -0.6526 0.5871 0.4790
vn -0.6514 0.5767 0.4931
vn -0.6549 0.6127 0.4424
vn -0.6264 0.4510 0.6358
vn -0.6377 0.5472 0.5421
vn -0.6135 0.3864 0.6887
vn -0.8143 0.5527 0.1773
vn -0.8234 0.5367 0.1844
vn -0.8126 0.5556 0.1760
vn -0.0072 0.4528 0.8916
vn -0.0075 0.4412 0.8974
vn -0.0075 0.4411 0.8974
vn -0.0059 0.7624 0.6470
vn -0.0026 0.8269 0.5624
vn -0.0025 0.8290 0.5593
vn -0.0037 1.0000 -0.0070
vn 0.0046 0.9907 0.1362
vn -0.0041 0.9999 -0.0128
vn 0.7550 0.6414 0.1362
vn 0.8752 0.3946 0.2798
vn 0.8837 0.3635 0.2947
vn 0.9162 0.3129 0.2504
vn -0.7390 0.6737 -0.0051
vn -0.7405 0.6720 0.0002
vn -0.7419 0.6705 0.0047
vn -0.1595 0.7123 0.6836
vn -0.4427 0.8916 0.0956
vn 0.7511 0.6556 0.0781
vn 0.7514 0.6550 0.0802
vn 0.7510 0.6558 0.0773
vn 0.0021 0.0173 0.9998
vn -0.0023 -0.0656 0.9978
vn -0.0024 -0.0674 0.9977
vn -0.6895 -0.0156 0.7241
vn 0.0019 1.0000 0.0004
vn 0.0019 1.0000 -0.0004
vn -0.0066 0.6494 0.7604
vn -0.0018 0.7993 0.6010
vn -0.0018 0.8002 0.5998
vn -0.0015 0.0010 1.0000
vn 0.0007 0.0007 1.0000
vn 0.0008 0.0009 1.0000
vn 0.6274 0.5057 0.5922
vn 0.6686 0.6058 0.4313
vn 0.6219 0.4944 0.6073
vn -0.0077 0.8303 0.5572
vn -0.0043 0.6528 0.7576
vn -0.0078 0.8312 0.5560
vn -0.5201 0.4716 0.7121
vn -0.4016 0.3053 0.8634
vn -0.3897 0.2894 0.8743
vn -0.0013 0.4444 0.8958
vn -0.0005 0.6194 0.7851
vn -0.0005 0.6197 0.7848
vn -0.0014 0.0008 1.0000
vn -0.0017 0.0012 1.0000
vn 0.4428 0.3595 0.8214
vn 0.3889 0.2922 0.8737
vn 0.4473 0.3651 0.8165
vn 0.0018 0.5060 0.8625
vn 0.0077 0.8872 0.4613
vn 0.0077 0.8885 0.4587
vn -0.6197 0.5433 0.5664
vn -0.4816 0.3471 0.8047
vn -0.4664 0.3273 0.8218
vn 0.0125 -0.0036 0.9999
vn 0.0009 0.0009 1.0000
vn 0.5521 0.6360 -0.5391
vn 0.6141 0.6224 -0.4852
vn 0.6498 0.6120 -0.4508
vn -0.5281 0.6399 -0.5582
vn -0.5240 0.6406 -0.5614
vn -0.5304 0.6396 -0.5565
vn -0.0000 0.7584 -0.6518
vn -0.0000 0.7584 -0.6517
vn 0.9971 -0.0464 0.0601
vn -0.9963 -0.0743 0.0438
vn 0.9492 -0.2576 -0.1807
vn 0.0247 -0.2850 -0.9582
vn 0.3768 -0.9263 -0.0006
vn 0.5631 -0.3696 -0.7391
vn 0.1882 -0.9317 -0.3107
vn 0.3040 -0.9234 -0.2343
vn 0.4678 -0.3838 -0.7961
vn 0.9451 -0.0985 0.3116
vn -0.1904 -0.1360 0.9722
vn 0.9577 -0.2879 -0.0016
vn 0.5614 -0.2199 0.7978
vn 0.3960 -0.8790 0.2655
vn 0.3862 -0.7458 0.5428
vn 0.6692 -0.3079 0.6763
vn 0.9936 0.0348 0.1072
vn 0.6463 0.7549 -0.1120
vn -0.0741 0.9937 -0.0839
vn 0.9823 0.0007 -0.1871
vn 0.8546 0.5192 -0.0009
vn 0.0651 0.0011 -0.9979
vn 0.6279 0.2453 -0.7386
vn 0.2237 0.9068 0.3572
vn 0.0460 0.8811 0.4707
vn -0.0003 0.9998 0.0192
vn 0.9512 -0.0014 0.3087
vn -0.0004 0.7295 0.6840
vn 0.0974 0.9952 0.0018
vn 0.0897 -0.0050 0.9960
vn 0.5604 -0.0002 0.8283
vn 0.1140 0.3397 -0.9336
vn 1.0000 0.0031 -0.0029
vn 0.9997 -0.0228 0.0014
vn 0.8899 0.0028 -0.4561
vn 0.9987 -0.0511 0.0023
vn 0.9997 -0.0263 0.0019
vn -0.0058 -0.0305 0.9995
vn 0.7425 -0.0962 0.6629
vn 0.8895 0.0980 -0.4464
vn 0.9082 0.4159 -0.0470
vn 0.6706 0.7418 0.0019
vn 0.0870 0.7442 0.6622
vn 0.1460 0.5261 0.8378
vn 0.6548 0.6127 0.4424
vn 0.5723 0.5322 0.6239
vn 0.7224 0.6731 0.1585
vn 0.0074 0.4411 0.8974
vn 0.0025 0.8290 0.5593
vn -0.0063 0.9864 0.1645
vn -0.8837 0.3635 0.2947
vn 0.7195 0.6944 0.0071
vn -0.7288 0.6847 0.0090
vn 0.0017 -0.0676 0.9977
vn -0.0005 0.9892 -0.1468
vn 0.0010 0.5271 0.8498
vn -0.9492 -0.2577 -0.1806
vn -0.0247 -0.2850 -0.9582
vn -0.3315 -0.9435 0.0001
vn -0.5631 -0.3696 -0.7391
vn -0.1882 -0.9317 -0.3107
vn -0.3646 -0.7706 -0.5226
vn -0.5749 -0.4189 -0.7029
vn -0.9372 -0.1098 0.3310
vn 0.1904 -0.1360 0.9722
vn -0.9811 -0.1934 -0.0028
vn -0.5614 -0.2199 0.7978
vn 0.0948 -0.8556 0.5088
vn -0.2937 -0.9384 0.1822
vn -0.6692 -0.3079 0.6763
vn -0.9936 0.0348 0.1072
vn -0.3803 0.9054 -0.1889
vn -0.0924 0.9531 -0.2882
vn -0.9823 0.0007 -0.1871
vn -0.3880 0.9217 -0.0007
vn -0.0651 0.0011 -0.9979
vn -0.5624 0.2389 -0.7916
vn 0.0077 0.5948 0.8038
vn -0.2237 0.9068 0.3572
vn -0.0460 0.8811 0.4707
vn -0.0000 0.9874 0.1581
vn -0.9512 -0.0014 0.3087
vn 0.0004 0.7295 0.6840
vn -0.0974 0.9952 0.0018
vn 0.0935 -0.0087 0.9956
vn -0.7160 0.0038 0.6981
vn 0.0911 0.5653 -0.8198
vn -1.0000 0.0031 -0.0029
vn -0.9999 0.0117 0.0015
vn -0.5430 0.0052 -0.8397
vn -0.9970 -0.0769 0.0101
vn 0.0058 -0.0305 0.9995
vn -0.8439 -0.0692 0.5320
vn -0.8912 0.0954 -0.4434
vn -0.8898 0.4522 -0.0620
vn -0.8940 0.4481 0.0024
vn -0.1184 0.6414 0.7580
vn -0.1460 0.5261 0.8378
vn -0.6479 0.5531 0.5236
vn -0.6385 0.6152 0.4626
vn -0.8250 0.5338 0.1856
vn -0.0072 0.4529 0.8915
vn -0.0059 0.7614 0.6482
vn 0.0050 0.9899 0.1417
vn 0.7208 0.6853 0.1045
vn -0.7366 0.6762 -0.0129
vn 0.7517 0.6544 0.0826
vn 0.0023 0.0216 0.9998
vn -0.0066 0.6486 0.7611
vn 0.6714 0.6147 0.4140
vn -0.0043 0.6518 0.7584
vn -0.5289 0.4849 0.6965
vn -0.0013 0.4436 0.8962
vn 0.3815 0.2831 0.8799
vn 0.0018 0.5044 0.8635
vn -0.6306 0.5611 0.5362
vn 0.5221 0.6408 -0.5628
vn -0.5221 0.6408 -0.5628
vt 0.015975 0.486248
vt 0.010155 0.482649
vt 0.016112 0.483840
vt 0.986700 0.971296
vt 0.985062 0.973541
vt 0.984281 0.971031
vt 0.978720 0.975810
vt 0.978151 0.972356
vt 0.989958 0.967413
vt 0.983284 0.496601
vt 0.990115 0.497838
vt 0.016101 0.482333
vt 0.007748 0.483588
vt 0.010291 0.481187
vt 0.983835 0.969108
vt 0.978225 0.971475
vt 0.009660 0.484596
vt 0.474544 0.964723
vt 0.004064 0.495148
vt 0.474299 0.494994
vt 0.991597 0.482349
vt 0.986181 0.480965
vt 0.992228 0.480635
vt 0.986246 0.494405
vt 0.983724 0.494739
vt 0.984292 0.492285
vt 0.978076 0.489898
vt 0.977485 0.494140
vt 0.992197 0.479161
vt 0.986039 0.007380
vt 0.992042 0.007679
vt 0.996859 0.478536
vt 0.977543 0.495776
vt 0.986194 0.479466
vt 0.993268 0.481342
vt 0.748399 0.970770
vt 0.746366 0.970114
vt 0.745731 0.967710
vt 0.251351 0.483526
vt 0.246986 0.486248
vt 0.246792 0.483526
vt 0.254724 0.483402
vt 0.258370 0.481950
vt 0.258344 0.483297
vt 0.745047 0.967657
vt 0.743624 0.972238
vt 0.741466 0.967684
vt 0.731743 0.481318
vt 0.748232 0.971881
vt 0.246766 0.481969
vt 0.251122 0.482069
vt 0.753814 0.402495
vt 0.754596 0.479605
vt 0.726963 0.322194
vt 0.258368 0.008534
vt 0.726781 0.167987
vt 0.754049 0.482149
vt 0.752507 0.481543
vt 0.754035 0.481138
vt 0.744896 0.493488
vt 0.745512 0.490583
vt 0.745738 0.492731
vt 0.751769 0.479584
vt 0.753192 0.402699
vt 0.753636 0.479605
vt 0.754842 0.482048
vt 0.754709 0.481106
vt 0.731472 0.405628
vt 0.732823 0.480400
vt 0.731769 0.480307
vt 0.741466 0.494631
vt 0.745023 0.494466
vt 0.746300 0.490766
vt 0.746385 0.492738
vt 0.753708 0.480065
vt 0.745887 0.970638
vt 0.747640 0.974978
vt 0.745759 0.493979
vt 0.258283 0.486248
vt 0.731584 0.486248
vt 0.737876 0.479992
vt 0.732216 0.405230
vt 0.737668 0.403359
vt 0.737656 0.481088
vt 0.011815 0.978961
vt 0.016201 0.978014
vt 0.016557 0.978961
vt 0.738010 0.168495
vt 0.732461 0.321678
vt 0.732515 0.168520
vt 0.727813 0.322742
vt 0.726197 0.403852
vt 0.729795 0.325002
vt 0.727943 0.403466
vt 0.746109 0.323851
vt 0.750217 0.399777
vt 0.745797 0.399831
vt 0.075027 0.978388
vt 0.077516 0.973807
vt 0.075690 0.978915
vt 0.081465 0.978915
vt 0.125249 0.976687
vt 0.122804 0.972921
vt 0.126143 0.975386
vt 0.081480 0.974235
vt 0.011351 0.978090
vt 0.015219 0.975169
vt 0.090920 0.976530
vt 0.094257 0.972921
vt 0.097074 0.976546
vt 0.751368 0.323893
vt 0.750824 0.399760
vt 0.752526 0.166552
vt 0.753916 0.320827
vt 0.752488 0.320536
vt 0.009491 0.972921
vt 0.731595 0.321205
vt 0.010161 0.007503
vt 0.015987 0.003906
vt 0.016123 0.006314
vt 0.487268 0.976541
vt 0.489686 0.976275
vt 0.488906 0.978785
vt 0.495248 0.981051
vt 0.495816 0.977596
vt 0.010297 0.008965
vt 0.003906 0.481445
vt 0.003906 0.008707
vt 0.484009 0.972661
vt 0.490597 0.501696
vt 0.490132 0.974351
vt 0.016112 0.007821
vt 0.007754 0.006564
vt 0.495741 0.976716
vt 0.009669 0.005557
vt 0.991440 0.004492
vt 0.986024 0.005880
vt 0.986147 0.003906
vt 0.487634 0.499499
vt 0.489588 0.497380
vt 0.490155 0.499834
vt 0.495805 0.494994
vt 0.496395 0.499237
vt 0.496337 0.500871
vt 0.992072 0.006205
vt 0.996706 0.008300
vt 0.993111 0.005498
vt 0.246769 0.008271
vt 0.725523 0.975924
vt 0.728193 0.972860
vt 0.727557 0.975266
vt 0.246999 0.003906
vt 0.251375 0.006764
vt 0.246799 0.006682
vt 0.254789 0.007187
vt 0.254817 0.008410
vt 0.728876 0.972809
vt 0.730300 0.977388
vt 0.728037 0.975790
vt 0.251122 0.008263
vt 0.254819 0.482005
vt 0.731581 0.008838
vt 0.731652 0.009852
vt 0.725692 0.977034
vt 0.754387 0.007444
vt 0.753308 0.084431
vt 0.753666 0.007444
vt 0.725995 0.086324
vt 0.752295 0.005479
vt 0.753845 0.004894
vt 0.753823 0.005905
vt 0.728408 0.495696
vt 0.729027 0.498602
vt 0.728185 0.497845
vt 0.751517 0.007471
vt 0.751589 0.084527
vt 0.754632 0.005001
vt 0.754499 0.005943
vt 0.732767 0.009813
vt 0.731262 0.084585
vt 0.732457 0.499746
vt 0.728899 0.499581
vt 0.727621 0.495879
vt 0.727536 0.497853
vt 0.728162 0.499094
vt 0.753686 0.007182
vt 0.726286 0.980132
vt 0.732701 0.008948
vt 0.258261 0.003906
vt 0.258344 0.007261
vt 0.731458 0.003906
vt 0.732005 0.084989
vt 0.737839 0.010326
vt 0.737556 0.086978
vt 0.737754 0.009305
vt 0.026810 0.972963
vt 0.027194 0.977483
vt 0.025598 0.973017
vt 0.727861 0.167435
vt 0.727742 0.086705
vt 0.729847 0.165171
vt 0.730450 0.089611
vt 0.750030 0.087272
vt 0.745995 0.163206
vt 0.745732 0.087208
vt 0.060440 0.979480
vt 0.065374 0.977796
vt 0.065985 0.979480
vt 0.060032 0.978738
vt 0.061024 0.972921
vt 0.044458 0.977397
vt 0.044224 0.972921
vt 0.048203 0.974545
vt 0.050991 0.977397
vt 0.029827 0.972921
vt 0.028387 0.977552
vt 0.110962 0.977446
vt 0.106129 0.976236
vt 0.111314 0.972921
vt 0.754598 0.165843
vt 0.750575 0.087471
vt 0.753910 0.084725
vt 0.033880 0.977552
vt 0.731418 0.168990
vt 0.754547 0.321038
vt 0.753761 0.166260
vt 0.751033 0.163029
vt 0.252492 0.486248
vt 0.252719 0.003906
vt 0.003906 0.964723
vt 0.986305 0.482940
vt 0.752539 0.482555
vt 0.744071 0.489942
vt 0.751616 0.402607
vt 0.737954 0.321736
vt 0.730641 0.400554
vt 0.750700 0.323773
vt 0.075960 0.972921
vt 0.120569 0.976736
vt 0.090578 0.975113
vt 0.483764 0.502932
vt 0.732457 0.972835
vt 0.752343 0.004467
vt 0.729848 0.495054
vt 0.750533 0.163295
vt 0.042815 0.976884
vt 0.106512 0.977446
s 1
usemtl Cardboard_C2.001
f 2/1/1 8/2/2 4/3/3
f 12/4/4 1/5/4 11/6/4
f 11/6/5 2/7/6 5/8/7
f 9/9/8 24/10/9 14/11/10
f 8/2/11 3/12/12 4/3/13
f 12/13/14 7/14/15 8/2/16
f 10/15/17 12/4/18 11/6/19
f 11/6/20 6/16/21 10/15/22
f 12/13/23 8/2/23 1/17/23
f 81/18/24 14/19/24 84/20/24
f 18/21/25 16/22/26 19/23/27
f 20/24/28 21/25/28 18/26/28
f 17/27/29 21/25/30 22/28/31
f 23/29/32 94/30/32 93/31/32
f 93/31/33 14/32/33 23/29/33
f 15/33/34 10/15/35 6/16/36
f 13/34/37 19/23/38 16/22/39
f 19/23/40 14/32/41 20/35/42
f 24/10/43 20/24/44 14/11/45
f 24/10/46 22/28/47 21/25/48
f 20/35/49 18/21/49 19/23/49
f 44/36/50 49/37/50 50/38/50
f 32/39/51 30/40/52 29/41/53
f 150/42/54 26/43/55 46/44/56
f 43/45/57 31/46/58 35/47/59
f 30/40/60 4/3/61 29/41/62
f 26/43/63 47/48/64 46/44/65
f 2/7/66 33/49/67 5/8/68
f 29/41/69 3/12/69 25/50/69
f 29/41/70 34/51/71 32/39/72
f 141/52/73 13/34/73 55/53/73
f 56/54/74 27/55/75 113/56/76
f 39/57/77 40/58/78 38/59/79
f 37/60/80 39/61/81 41/62/82
f 40/63/83 67/64/84 36/65/85
f 16/22/86 53/66/87 54/67/88
f 64/68/89 48/69/90 45/70/91
f 43/45/92 42/71/93 37/72/94
f 22/28/95 53/73/96 17/27/97
f 13/34/98 54/67/99 55/53/99
f 15/33/100 52/74/101 22/28/102
f 38/59/103 40/58/103 36/75/103
f 28/76/104 30/77/105 31/46/106
f 44/36/107 51/78/108 15/33/109
f 5/8/110 44/36/111 6/16/112
f 45/70/113 48/69/113 47/48/113
f 35/79/114 150/42/115 46/44/116
f 42/80/117 46/44/118 47/48/119
f 40/81/120 65/82/121 66/83/122
f 48/69/123 42/84/124 47/48/125
f 33/49/126 49/37/127 44/36/128
f 49/37/129 43/45/130 50/38/131
f 37/72/132 50/38/133 43/45/134
f 51/78/135 41/62/136 52/74/137
f 41/62/138 53/73/139 52/74/140
f 38/59/141 53/66/142 39/57/143
f 36/75/144 54/67/145 38/59/146
f 71/85/147 57/86/148 56/87/149
f 134/88/150 58/89/150 132/90/150
f 57/91/151 60/92/152 56/54/153
f 68/93/154 61/94/155 57/91/156
f 68/95/157 63/96/158 62/97/159
f 64/98/160 61/99/161 65/100/162
f 65/100/163 61/99/163 66/101/163
f 66/102/164 63/103/165 67/104/166
f 60/92/167 45/70/168 26/43/169
f 61/99/170 62/105/170 66/101/170
f 57/86/171 58/106/171 68/107/171
f 70/108/172 69/109/173 68/110/174
f 143/111/175 141/52/176 142/112/177
f 134/113/178 59/114/179 70/115/180
f 68/107/181 58/106/181 70/116/181
f 71/117/182 132/90/183 58/89/184
f 60/92/167 64/68/185 45/70/168
f 75/118/186 73/119/187 72/120/188
f 76/121/189 77/122/189 74/123/189
f 73/124/190 77/122/191 78/125/192
f 80/126/193 3/12/193 7/14/193
f 80/126/194 9/127/194 81/128/194
f 81/129/195 83/130/196 82/131/197
f 79/132/198 75/118/199 72/120/200
f 80/126/201 76/133/202 75/118/203
f 82/131/204 76/121/205 81/129/206
f 77/122/207 85/134/208 78/125/209
f 76/133/210 74/135/210 75/118/210
f 88/136/211 86/137/212 89/138/213
f 90/139/214 88/140/214 91/141/214
f 91/141/215 89/142/216 92/143/217
f 95/144/218 82/131/219 83/130/220
f 87/145/221 94/30/222 86/137/223
f 87/145/224 84/146/225 93/31/226
f 83/130/227 90/139/228 91/141/229
f 92/143/230 83/130/231 91/141/232
f 90/147/233 87/145/233 88/136/233
f 3/12/234 96/148/234 25/50/234
f 97/149/235 99/150/235 98/151/235
f 103/152/236 101/153/237 100/154/238
f 151/155/239 27/55/240 152/156/241
f 107/157/242 102/158/243 108/159/244
f 105/160/245 25/50/245 96/148/245
f 72/120/246 103/152/247 100/154/248
f 149/161/249 27/55/249 26/43/249
f 27/55/250 130/162/251 125/163/252
f 109/164/253 73/124/254 78/125/255
f 79/132/256 100/154/257 96/148/257
f 100/154/258 105/160/259 96/148/260
f 112/165/261 111/166/262 110/167/263
f 113/56/76 27/55/75 114/168/264
f 119/169/265 117/170/266 116/171/267
f 117/172/268 121/173/269 120/174/270
f 119/175/271 111/166/272 122/176/273
f 124/177/274 86/137/275 123/178/276
f 128/179/277 126/180/278 125/163/279
f 118/181/280 107/157/281 121/182/282
f 92/143/283 124/183/284 129/184/285
f 123/178/286 94/30/287 112/165/286
f 95/144/288 129/184/289 115/185/290
f 116/171/291 110/186/291 119/169/291
f 108/159/292 103/187/293 109/164/294
f 95/144/295 99/150/296 97/149/297
f 78/125/298 97/149/299 109/164/300
f 125/163/301 130/188/301 128/179/301
f 151/155/302 106/189/303 104/190/304
f 104/190/304 118/191/305 130/162/306
f 127/192/307 119/193/308 122/194/309
f 128/179/310 118/195/311 119/193/312
f 109/164/313 98/151/314 108/159/315
f 98/151/316 107/157/317 108/159/318
f 121/182/319 99/150/320 115/185/321
f 115/185/322 120/174/323 121/173/324
f 124/183/325 120/174/326 129/184/327
f 116/171/328 124/177/329 123/178/330
f 110/186/331 123/178/332 112/165/333
f 133/196/334 131/197/335 113/198/336
f 133/199/337 114/168/338 135/200/339
f 136/201/340 135/200/341 137/202/342
f 139/203/343 136/204/344 137/205/345
f 126/206/346 135/207/347 114/208/348
f 127/209/349 122/210/349 135/207/349
f 122/211/350 139/212/351 137/213/352
f 114/168/264 27/55/75 125/163/168
f 135/214/353 122/211/353 137/213/353
f 133/196/354 136/215/354 132/216/354
f 138/217/355 134/218/356 136/219/357
f 145/220/358 147/221/359 148/222/360
f 136/215/361 134/223/361 132/216/361
f 114/168/264 125/163/168 126/180/185
f 71/117/362 113/56/76 131/224/363
f 55/53/364 67/64/365 141/52/366
f 145/220/367 13/34/368 144/225/369
f 67/64/370 142/112/371 141/52/372
f 63/96/373 143/111/374 142/112/375
f 143/111/376 59/114/377 144/225/378
f 144/225/379 140/226/380 145/220/381
f 94/30/382 145/220/367 148/222/383
f 140/226/384 146/227/385 145/220/386
f 146/227/387 139/203/388 147/221/389
f 147/221/390 111/166/391 148/222/392
f 112/165/393 94/30/393 148/222/393
f 56/54/74 60/92/167 26/43/169
f 13/34/368 141/52/394 144/225/369
f 32/39/395 149/161/396 150/42/397
f 152/156/398 101/153/399 151/155/400
f 105/160/401 149/161/402 34/51/402
f 31/228/403 32/39/403 150/42/403
f 151/155/404 101/153/404 102/229/404
f 2/1/1 1/17/405 8/2/2
f 11/6/5 1/5/406 2/7/6
f 9/9/8 10/15/407 24/10/9
f 8/2/11 7/14/408 3/12/12
f 12/13/14 9/127/409 7/14/15
f 10/15/17 9/9/410 12/4/18
f 11/6/20 5/8/411 6/16/21
f 81/18/24 9/230/24 14/19/24
f 18/21/25 17/231/412 16/22/26
f 17/27/29 18/26/413 21/25/30
f 23/29/32 13/34/32 94/30/32
f 93/31/33 84/146/33 14/32/33
f 15/33/34 24/10/414 10/15/35
f 13/34/37 23/29/415 19/23/38
f 19/23/40 23/29/416 14/32/41
f 24/10/43 21/25/417 20/24/44
f 24/10/46 15/33/418 22/28/47
f 32/39/51 31/228/419 30/40/52
f 150/42/54 149/161/420 26/43/55
f 43/45/57 28/76/421 31/46/58
f 30/40/60 2/1/422 4/3/61
f 26/43/63 45/70/423 47/48/64
f 2/7/66 30/77/424 33/49/67
f 29/41/69 4/3/69 3/12/69
f 29/41/70 25/50/425 34/51/71
f 56/54/74 26/43/169 27/55/75
f 39/57/77 42/232/426 40/58/78
f 37/60/80 42/233/427 39/61/81
f 40/63/83 66/234/428 67/64/84
f 16/22/86 17/231/429 53/66/87
f 64/68/89 65/82/430 48/69/90
f 43/45/92 35/47/431 42/71/93
f 22/28/95 52/74/432 53/73/96
f 13/34/98 16/22/98 54/67/99
f 15/33/100 51/78/433 52/74/101
f 28/76/104 33/49/434 30/77/105
f 15/33/109 6/16/435 44/36/107
f 44/36/107 50/38/436 51/78/108
f 5/8/110 33/49/437 44/36/111
f 35/79/114 31/228/438 150/42/115
f 42/80/117 35/79/439 46/44/118
f 40/81/120 48/69/440 65/82/121
f 48/69/123 40/81/441 42/84/124
f 33/49/126 28/76/442 49/37/127
f 49/37/129 28/76/443 43/45/130
f 37/72/132 51/78/444 50/38/133
f 51/78/135 37/60/445 41/62/136
f 41/62/138 39/61/446 53/73/139
f 38/59/141 54/67/447 53/66/142
f 36/75/144 55/53/448 54/67/145
f 71/85/147 58/106/449 57/86/148
f 134/88/150 70/235/150 58/89/150
f 57/91/151 61/94/450 60/92/152
f 68/93/154 62/236/451 61/94/155
f 68/95/157 69/237/452 63/96/158
f 64/98/160 60/238/453 61/99/161
f 66/102/164 62/239/454 63/103/165
f 70/108/172 59/240/455 69/109/173
f 143/111/175 144/225/456 141/52/176
f 134/113/178 140/226/457 59/114/179
f 71/117/182 131/224/458 132/90/183
f 75/118/186 74/135/459 73/119/187
f 73/124/190 74/123/460 77/122/191
f 80/126/193 79/132/193 3/12/193
f 80/126/194 7/14/194 9/127/194
f 81/129/195 84/241/461 83/130/196
f 79/132/198 80/126/462 75/118/199
f 80/126/201 81/128/463 76/133/202
f 82/131/204 77/122/464 76/121/205
f 77/122/207 82/131/465 85/134/208
f 88/136/211 87/145/466 86/137/212
f 91/141/215 88/140/467 89/142/216
f 95/144/218 85/134/468 82/131/219
f 87/145/221 93/31/469 94/30/222
f 87/145/224 90/147/470 84/146/225
f 83/130/227 84/241/471 90/139/228
f 92/143/230 95/144/472 83/130/231
f 3/12/234 79/132/234 96/148/234
f 103/152/236 102/229/473 101/153/237
f 151/155/239 104/190/474 27/55/240
f 107/157/242 106/242/475 102/158/243
f 105/160/245 34/51/245 25/50/245
f 72/120/246 73/119/476 103/152/247
f 149/161/249 152/156/249 27/55/249
f 27/55/250 104/190/477 130/162/251
f 109/164/253 103/187/478 73/124/254
f 79/132/256 72/120/256 100/154/257
f 100/154/258 101/153/479 105/160/259
f 112/165/261 148/222/480 111/166/262
f 119/169/265 118/243/481 117/170/266
f 117/172/268 118/244/482 121/173/269
f 119/175/271 110/167/483 111/166/272
f 124/177/274 89/138/484 86/137/275
f 128/179/277 127/192/485 126/180/278
f 118/181/280 106/242/486 107/157/281
f 92/143/283 89/142/487 124/183/284
f 123/178/286 86/137/287 94/30/287
f 95/144/288 92/143/488 129/184/289
f 108/159/292 102/158/489 103/187/293
f 97/149/297 85/134/490 95/144/295
f 95/144/295 115/185/491 99/150/296
f 78/125/298 85/134/492 97/149/299
f 151/155/302 102/229/493 106/189/303
f 104/190/304 106/189/303 118/191/305
f 127/192/307 128/179/494 119/193/308
f 128/179/310 130/188/495 118/195/311
f 109/164/313 97/149/496 98/151/314
f 98/151/316 99/150/497 107/157/317
f 121/182/319 107/157/498 99/150/320
f 115/185/322 129/184/499 120/174/323
f 124/183/325 117/172/500 120/174/326
f 116/171/328 117/170/501 124/177/329
f 110/186/331 116/171/502 123/178/332
f 133/196/334 132/216/503 131/197/335
f 133/199/337 113/56/504 114/168/338
f 136/201/340 133/199/505 135/200/341
f 139/203/343 138/245/506 136/204/344
f 126/206/346 127/209/507 135/207/347
f 122/211/350 111/246/508 139/212/351
f 138/217/355 140/247/509 134/218/356
f 145/220/358 146/227/510 147/221/359
f 71/117/362 56/54/74 113/56/76
f 55/53/364 36/65/511 67/64/365
f 145/220/367 94/30/382 13/34/368
f 67/64/370 63/96/512 142/112/371
f 63/96/373 69/237/513 143/111/374
f 143/111/376 69/237/514 59/114/377
f 144/225/379 59/114/515 140/226/380
f 140/226/384 138/245/516 146/227/385
f 146/227/387 138/245/517 139/203/388
f 147/221/390 139/203/518 111/166/391
f 32/39/395 34/51/519 149/161/396
f 152/156/398 105/160/520 101/153/399
f 105/160/401 152/156/401 149/161/402
