# Exported from USD for MuJoCo with source material subsets
v -11.6645984 -6.62968632 0.656898254
v -11.6645987 -7.63948627 0.656898254
v -11.1629987 -7.14448639 0.656898374
v -11.1629988 -7.61968656 0.656898374
v -11.1629985 -6.6494865 0.656898374
v -11.1629985 -6.62968632 0.656898374
v -11.1629988 -7.63948627 0.656898374
v -11.1629987 -7.12468668 0.656898374
vt 0.456 -0.458999991
vt 0.456 0.458999991
vt 0 0.00899999961
vt 0 0.00899999961
vt 0.456 0.458999991
vt 0 0.441000015
vt 0 -0.441000015
vt 0 -0.458999991
vt 0.456 -0.458999991
vt 0 0.458999991
vt 0 0.441000015
vt 0.456 0.458999991
vt 0 0.00899999961
vt 0 -0.00899999961
vt 0.456 -0.458999991
vt 0.456 -0.458999991
vt 0 -0.00899999961
vt 0 -0.441000015
f 1/1 2/2 3/3
f 3/4 2/5 4/6
f 5/7 6/8 1/9
f 7/10 4/11 2/12
f 3/13 8/14 1/15
f 1/16 8/17 5/18
