# Exported from USD for MuJoCo with source material subsets
v 5.06793853 -7.64014572 0.148368478
v 5.12393853 -7.64014572 0.148368478
v 5.06793853 -7.64014572 0.112368464
v 5.12393853 -7.64014572 0.112368464
v 5.06793853 -7.71714538 0.112368464
v 5.06793853 -7.71714538 0.148368478
v 5.12393853 -7.71714538 0.112368464
v 5.12393853 -7.71714538 0.148368478
v 4.67593857 -6.88114589 0.148368359
v 4.61993858 -6.88114589 0.148368359
v 4.67593857 -6.88114589 0.112368345
v 4.61993858 -6.88114589 0.112368345
v 4.67593857 -6.80414623 0.148368359
v 4.67593857 -6.80414623 0.112368345
v 4.61993858 -6.80414623 0.148368359
v 4.61993858 -6.80414623 0.112368345
v 5.12393853 -6.88114589 0.148368478
v 5.06793853 -6.88114589 0.148368478
v 5.12393853 -6.88114589 0.112368464
v 5.06793853 -6.88114589 0.112368464
v 5.06793853 -6.80414623 0.112368464
v 5.06793853 -6.80414623 0.148368478
v 5.12393853 -6.80414623 0.112368464
v 5.12393853 -6.80414623 0.148368478
vt -0.148368001 -0.195999995
vt -0.148368001 -0.252000004
vt -0.112368003 -0.195999995
vt -0.112368003 -0.195999995
vt -0.148368001 -0.252000004
vt -0.112368003 -0.252000004
vt 0.439451009 0.112368003
vt 0.516451001 0.112368003
vt 0.439451009 0.148368001
vt 0.439451009 0.148368001
vt 0.516451001 0.112368003
vt 0.516451001 0.148368001
vt 0.112368003 -0.195999995
vt 0.112368003 -0.252000004
vt 0.148368001 -0.195999995
vt 0.148368001 -0.195999995
vt 0.112368003 -0.252000004
vt 0.148368001 -0.252000004
vt -0.516451001 0.112368003
vt -0.439451009 0.112368003
vt -0.516451001 0.148368001
vt -0.516451001 0.148368001
vt -0.439451009 0.112368003
vt -0.439451009 0.148368001
vt 0.148368001 0.195999995
vt 0.148368001 0.252000004
vt 0.112368003 0.195999995
vt 0.112368003 0.195999995
vt 0.148368001 0.252000004
vt 0.112368003 0.252000004
vt 0.396548986 0.148368001
vt 0.319548994 0.148368001
vt 0.396548986 0.112368003
vt 0.396548986 0.112368003
vt 0.319548994 0.148368001
vt 0.319548994 0.112368003
vt -0.148368001 0.252000004
vt -0.148368001 0.195999995
vt -0.112368003 0.252000004
vt -0.112368003 0.252000004
vt -0.148368001 0.195999995
vt -0.112368003 0.195999995
vt 0.148368001 -0.252000004
vt 0.148368001 -0.195999995
vt 0.112368003 -0.252000004
vt 0.112368003 -0.252000004
vt 0.148368001 -0.195999995
vt 0.112368003 -0.195999995
vt -0.396548986 0.112368003
vt -0.319548994 0.112368003
vt -0.396548986 0.148368001
vt -0.396548986 0.148368001
vt -0.319548994 0.112368003
vt -0.319548994 0.148368001
vt -0.112368003 -0.252000004
vt -0.112368003 -0.195999995
vt -0.148368001 -0.252000004
vt -0.148368001 -0.252000004
vt -0.112368003 -0.195999995
vt -0.148368001 -0.195999995
vt 0.319548994 0.112368003
vt 0.396548986 0.112368003
vt 0.319548994 0.148368001
vt 0.319548994 0.148368001
vt 0.396548986 0.112368003
vt 0.396548986 0.148368001
f 1/1 2/2 3/3
f 3/4 2/5 4/6
f 3/7 5/8 1/9
f 1/10 5/11 6/12
f 5/13 7/14 6/15
f 6/16 7/17 8/18
f 7/19 4/20 8/21
f 8/22 4/23 2/24
f 9/25 10/26 11/27
f 11/28 10/29 12/30
f 13/31 9/32 14/33
f 14/34 9/35 11/36
f 15/37 13/38 16/39
f 16/40 13/41 14/42
f 17/43 18/44 19/45
f 19/46 18/47 20/48
f 21/49 20/50 22/51
f 22/52 20/53 18/54
f 23/55 21/56 24/57
f 24/58 21/59 22/60
f 19/61 23/62 17/63
f 17/64 23/65 24/66
