# Exported from USD for MuJoCo with source material subsets
v -5.55487214 -5.3035729 1.96204841
v -5.55487214 -5.3035729 1.97367739
v -5.89882299 -5.30357242 1.96204829
v -5.92337111 -5.30357242 1.98514825
v -5.89882299 -5.30357242 1.9532482
v -5.90027109 -5.30357242 1.93014824
v -5.55487214 -5.30346323 1.93014836
v -5.55487214 -5.3035729 1.95324832
v -5.90027079 -5.30357242 1.11568181
v -5.90027079 -5.30357242 1.0606818
v -5.89962885 -5.30357242 1.08378177
v -4.47027078 -5.3035729 1.06068231
v -4.47045812 -5.3035729 1.08378226
v -4.44717083 -5.3035729 1.11300493
v -4.47045812 -5.3035729 1.09258232
v -5.5548719 -5.3035729 1.11300456
v -5.89962885 -5.30357242 1.09258183
v -5.5548719 -5.30346323 1.11568193
v -5.92337057 -5.30357242 0.0711481515
v -5.90027055 -5.30357242 0.126148218
v -4.47027061 -5.3035729 0.126148695
v -4.47063187 -5.3035729 0.103048557
v -4.44717053 -5.3035729 0.0711487475
v -4.47063187 -5.3035729 0.0942486468
v -5.90026865 -5.30357242 0.09424817
v -5.90026865 -5.30357242 0.103048319
v -4.447171 -5.3035729 1.98514872
v -4.447171 -5.3035729 1.97367781
v -5.58254396 -5.63408542 1.00629942
v -5.52754398 -5.63408542 1.06129936
v -5.58254373 -5.3035729 1.00629942
v -5.52754377 -5.3035729 1.06129936
v -4.64754394 -5.6340859 1.0612996
v -4.59254393 -5.6340859 1.00629973
v -5.58254393 -5.63408542 0.830577308
v -4.59254387 -5.6340859 0.830577606
v -4.64754382 -5.3035729 1.0612996
v -4.59254381 -5.3035729 1.00629973
v -4.59254369 -5.3035729 0.830577606
v -5.93217054 -5.30357242 0.0711481515
v -5.9552705 -5.30357242 0.0711481515
v -5.93217054 -5.30247284 0.0711481515
v -5.95417056 -5.28047252 0.0711481515
v -5.92337057 -5.30247284 0.0711481515
v -5.95417056 -5.27167249 0.0711481515
v -5.95516047 -5.24857212 0.0711481515
v -5.9552705 -5.27167249 0.0711481515
v -5.9552705 -5.28047252 0.0711481515
v -5.5825437 -5.3035729 0.830577308
v -4.73741678 -4.5886829 1.92959868
v -4.7143167 -4.5886829 1.92959868
v -4.73741648 -4.5886829 1.11623222
v -4.71431652 -4.5886829 1.11623222
v -4.7693167 -4.5886829 1.92959868
v -4.74621669 -4.5886829 1.92959868
v -4.76931653 -4.5886829 1.11623222
v -4.74621645 -4.5886829 1.11623222
v -5.96989706 -4.69868231 0.566758627
v -5.96538708 -4.69868231 0.574833507
v -5.96718034 -4.69868231 0.579673881
v -5.96275774 -4.69868231 0.583262855
v -5.95846042 -4.69868231 0.574833507
v -5.95846042 -4.69868231 0.583262855
v -5.97124812 -4.69815541 0.560670728
v -5.9634504 -4.69538236 0.571533496
v -5.97238949 -4.69538236 0.555527979
v -5.97287718 -4.69815541 0.561280722
v -5.97040972 -4.69538236 0.580353076
v -5.97539482 -4.69538236 0.556653494
v -5.97238949 -4.68438221 0.555527979
v -5.97539482 -4.68438221 0.556653494
v -5.9634504 -4.68438221 0.571533496
v -5.97040972 -4.68438221 0.580353076
v -5.97287718 -4.6816094 0.561280722
v -5.96718034 -4.68108249 0.579673881
v -5.96989706 -4.68108249 0.566758627
v -5.97124812 -4.6816094 0.560670728
v -5.96538708 -4.68108249 0.574833507
v -5.96768508 -4.69538236 0.584815079
v -5.96275774 -4.69538236 0.586562866
v -5.96768508 -4.68438221 0.584815079
v -5.96275774 -4.68438221 0.586562866
v -5.96275774 -4.68108249 0.583262855
v -5.95846042 -4.68108249 0.574833507
v -5.95846042 -4.68108249 0.583262855
v -5.95846042 -4.69538236 0.571533496
v -5.95845953 -4.69536734 0.586562866
v -5.95516035 -4.69626666 0.586562866
v -5.95516035 -4.7019825 0.583262855
v -5.95516035 -4.7019825 0.574833507
v -5.95846042 -4.68438221 0.571533496
v -5.95516035 -4.69626666 0.571533496
v -5.95516035 -4.68349839 0.571533496
v -5.95516035 -4.67778254 0.574833507
v -5.95516035 -4.67778254 0.583262855
v -5.95516035 -4.68349839 0.586562866
v -5.95845953 -4.68439746 0.586562866
v -5.64191203 -4.58868266 1.92959845
v -5.61776142 -4.58868266 1.92959845
v -5.64162255 -4.58868266 1.11623198
v -5.61776118 -4.58868266 1.11623198
v -5.24923687 -5.31347299 1.38750493
v -5.24923699 -5.31347299 1.81708103
v -5.24923687 -5.31457258 1.38750493
v -5.24923699 -5.31457258 1.81708103
v -4.56607858 -5.31347299 1.38750505
v -4.56607858 -5.31457306 1.38750505
v -5.93217108 -5.30357242 1.98514825
v -5.95527104 -5.30357242 1.98514825
v -4.56607869 -5.31347299 1.81708109
v -4.56607869 -5.31457306 1.81708109
v -5.95516065 -4.8322742 1.61184856
v -5.95516065 -4.8322742 1.44251213
v -5.96066067 -4.8322742 1.61184856
v -5.96066067 -4.8322742 1.44251213
v -5.95516083 -5.08045984 1.61184856
v -5.96066085 -5.08045984 1.61184856
v -5.95516083 -5.08045984 1.44251213
v -5.96066085 -5.08045984 1.44251213
v -5.93217012 -4.58857251 0.0711481515
v -5.93217012 -4.58967233 0.0711481515
v -5.95527008 -4.58857251 0.0711481515
v -5.95417008 -4.61167241 0.0711481515
v -5.95527008 -4.61167241 0.0711481515
v -5.92337009 -4.58967233 0.0711481515
v -5.95417008 -4.62047244 0.0711481515
v -5.9552525 -4.64357257 0.0711481515
v -5.95527008 -4.62047244 0.0711481515
v -4.41527108 -5.3035729 1.98514872
v -4.43837103 -5.3035729 1.98514872
v -4.41527108 -5.3035729 1.97367781
v -4.43837103 -5.3035729 1.97367781
v -5.92337009 -4.58857251 0.0711481515
v -4.44717005 -4.58857346 0.0711487475
v -4.44717005 -4.58967329 0.0711487475
v -4.44717053 -5.30247379 0.0711487475
v -4.43837008 -4.58967329 0.0711487475
v -4.4383705 -5.30247379 0.0711487475
v -4.41527012 -4.58857346 0.0711487475
v -4.41527048 -5.3035729 0.0711487475
v -4.4383705 -5.3035729 0.0711487475
v -4.43837008 -4.58857346 0.0711487475
v -5.58662254 -4.58868266 1.11623198
v -5.6089612 -4.58868266 1.11623198
v -5.58691199 -4.58868266 1.92959845
v -5.60896144 -4.58868266 1.92959845
v -4.41527066 -4.58857346 1.98514872
v -4.43837062 -4.58857346 1.98514872
v -5.95516041 -4.64357257 1.07178521
v -5.95527062 -4.62047244 1.98514825
v -5.95527038 -4.64357257 1.1267852
v -5.95527062 -4.64357257 1.93014824
v -5.95527062 -4.64396859 1.9532482
v -5.95527098 -5.24857212 1.93014824
v -5.95527098 -5.24944377 1.9532482
v -5.95527104 -5.27167249 1.98514825
v -5.95527098 -5.24944377 1.96204829
v -5.95527062 -4.64396859 1.96204829
v -5.95527074 -5.24857212 1.1267852
v -5.95527074 -5.24944377 1.1036851
v -5.95527074 -5.24944377 1.09488518
v -5.95516083 -5.24857212 1.07178521
v -5.95527038 -4.64396859 1.09488518
v -5.95527038 -4.64396859 1.1036851
v -5.93217066 -4.58857251 1.98514825
v -5.95527062 -4.58857251 1.98514825
v -4.41527078 -5.3035729 1.11300493
v -4.41527078 -5.31457306 1.11300493
v -4.41527108 -5.31457306 1.97367781
v -5.95527062 -4.61167241 1.98514825
v -4.4383708 -5.3035729 1.11300493
v -5.95527104 -5.28047252 1.98514825
v -5.92337069 -4.58857251 1.98514825
v -4.44717059 -4.58857346 1.98514872
v -5.89882258 -4.58857251 1.96204829
v -4.47063199 -4.58857346 1.96204876
v -4.47063199 -4.58857346 1.95324867
v -4.47027067 -4.58868337 1.93014872
v -5.89882258 -4.58857251 1.9532482
v -5.90027061 -4.58868266 1.93014824
v -5.90027037 -4.58868266 1.11568181
v -5.90027037 -4.58857251 1.0606818
v -5.89962843 -4.58857251 1.09258183
v -5.89962843 -4.58857251 1.08378177
v -4.47027043 -4.58857346 1.06068231
v -4.47045765 -4.58857346 1.08378226
v -4.47027043 -4.58868337 1.1156823
v -4.47045765 -4.58857346 1.09258232
v -5.90027014 -4.58857251 0.126148218
v -5.90026823 -4.58857251 0.103048319
v -4.47063139 -4.58857346 0.103048557
v -4.47027013 -4.58857346 0.126148695
v -4.47063139 -4.58857346 0.0942486468
v -5.90026823 -4.58857251 0.09424817
v -5.96055082 -4.87386251 1.48201775
v -5.96055088 -5.04468656 1.48201775
v -5.96055088 -5.04468656 1.57997953
v -5.96055082 -4.87386251 1.57997953
vt -1.78050005 -0.309549987
vt -1.79107201 -0.309549987
vt -1.78050005 -0.622232974
vt -1.78050005 -0.622232974
vt -1.79107201 -0.309549987
vt -1.80149996 -0.644549012
vt -1.78050005 -0.622232974
vt -1.80149996 -0.644549012
vt -1.77250004 -0.622232974
vt -1.77250004 -0.622232974
vt -1.80149996 -0.644549012
vt -1.75150001 -0.623548985
vt -1.77250004 -0.622232974
vt -1.75150001 -0.623548985
vt -1.77250004 -0.622232974
vt -1.77250004 -0.622232974
vt -1.75150001 -0.623548985
vt -1.75150001 -0.309549987
vt -1.77250004 -0.622232974
vt -1.75150001 -0.309549987
vt -1.77250004 -0.309549987
vt -1.75150001 -0.623548985
vt -1.80149996 -0.644549012
vt -1.01107597 -0.623548985
vt -1.01107597 -0.623548985
vt -1.80149996 -0.644549012
vt -0.961076021 -0.623548985
vt -1.01107597 -0.623548985
vt -0.961076021 -0.623548985
vt -0.982075989 -0.622965991
vt -0.982075989 -0.622965991
vt -0.961076021 -0.623548985
vt -0.961076021 0.676451027
vt -0.982075989 -0.622965991
vt -0.961076021 0.676451027
vt -0.982075989 0.676280975
vt -0.982075989 0.676280975
vt -0.961076021 0.676451027
vt -1.00864196 0.697450995
vt -0.982075989 0.676280975
vt -1.00864196 0.697450995
vt -0.990076005 0.676280975
vt -0.990076005 0.676280975
vt -1.00864196 0.697450995
vt -1.00864196 -0.309549987
vt -0.990076005 0.676280975
vt -1.00864196 -0.309549987
vt -0.990076005 -0.622965991
vt -0.990076005 -0.622965991
vt -1.00864196 -0.309549987
vt -1.01107597 -0.623548985
vt -0.990076005 -0.622965991
vt -1.01107597 -0.623548985
vt -0.982075989 -0.622965991
vt -1.01107597 -0.309549987
vt -1.01107597 -0.623548985
vt -1.00864196 -0.309549987
vt -1.80149996 -0.644549012
vt -0.0615000017 -0.644549012
vt -0.961076021 -0.623548985
vt -0.961076021 -0.623548985
vt -0.0615000017 -0.644549012
vt -0.111500002 -0.623548985
vt -0.961076021 -0.623548985
vt -0.111500002 -0.623548985
vt -0.111500002 0.676451027
vt -0.111500002 0.676451027
vt -0.111500002 -0.623548985
vt -0.0904999971 0.67612201
vt -0.111500002 0.676451027
vt -0.0904999971 0.67612201
vt -0.0615000017 0.697450995
vt -0.0615000017 0.697450995
vt -0.0904999971 0.67612201
vt -0.0825000033 0.67612201
vt -0.0615000017 0.697450995
vt -0.0825000033 0.67612201
vt -0.0615000017 -0.644549012
vt -0.0615000017 -0.644549012
vt -0.0825000033 0.67612201
vt -0.0825000033 -0.623547018
vt -0.0615000017 -0.644549012
vt -0.0825000033 -0.623547018
vt -0.0615000017 -0.644549012
vt -0.0615000017 -0.644549012
vt -0.0825000033 -0.623547018
vt -0.0904999971 -0.623547018
vt -0.0615000017 -0.644549012
vt -0.0904999971 -0.623547018
vt -0.111500002 -0.623548985
vt -0.111500002 -0.623548985
vt -0.0904999971 -0.623547018
vt -0.0904999971 0.67612201
vt -0.0615000017 0.697450995
vt -1.00864196 0.697450995
vt -0.111500002 0.676451027
vt -0.111500002 0.676451027
vt -1.00864196 0.697450995
vt -0.961076021 0.676451027
vt -0.111500002 0.676451027
vt -0.961076021 0.676451027
vt -0.961076021 -0.623548985
vt -1.80149996 -0.644549012
vt -1.79107201 -0.309549987
vt -1.80149996 0.697450995
vt -1.80149996 0.697450995
vt -1.79107201 -0.309549987
vt -1.79107201 0.697450995
vt 0.475232989 0.911637008
vt 0.475232989 0.96163702
vt 0.174767002 0.911637008
vt 0.174767002 0.911637008
vt 0.475232989 0.96163702
vt 0.174767002 0.96163702
vt -0.96163702 -0.284705997
vt -0.911637008 -0.334706008
vt -0.96163702 0.515294015
vt -0.96163702 0.515294015
vt -0.911637008 -0.334706008
vt -0.911637008 -0.334706008
vt -0.96163702 0.515294015
vt -0.911637008 -0.334706008
vt -0.911637008 0.565294027
vt -0.911637008 0.565294027
vt -0.911637008 -0.334706008
vt -0.751890004 -0.334706008
vt -0.911637008 0.565294027
vt -0.751890004 -0.334706008
vt -0.751890004 0.565294027
vt 0.475232989 -0.284705997
vt 0.475232989 0.515294015
vt 0.174767002 -0.284705997
vt 0.174767002 -0.284705997
vt 0.475232989 0.515294015
vt 0.174767002 0.515294015
vt -0.174767002 0.96163702
vt -0.475232989 0.96163702
vt -0.174767002 0.911637008
vt -0.174767002 0.911637008
vt -0.475232989 0.96163702
vt -0.475232989 0.911637008
vt -0.174767002 0.911637008
vt -0.475232989 0.911637008
vt -0.174767002 0.751890004
vt -0.174767002 0.751890004
vt -0.475232989 0.911637008
vt -0.475232989 0.751890004
vt -0.174767002 -0.652549028
vt -0.174767002 -0.673548996
vt -0.173767 -0.652549028
vt -0.173767 -0.652549028
vt -0.174767002 -0.673548996
vt -0.153767005 -0.672549009
vt -0.173767 -0.652549028
vt -0.153767005 -0.672549009
vt -0.173767 -0.644549012
vt -0.173767 -0.644549012
vt -0.153767005 -0.672549009
vt -0.145767003 -0.672549009
vt -0.173767 -0.644549012
vt -0.145767003 -0.672549009
vt -0.124766998 -0.67344898
vt -0.124766998 -0.67344898
vt -0.145767003 -0.672549009
vt -0.145767003 -0.673548996
vt -0.153767005 -0.673548996
vt -0.153767005 -0.672549009
vt -0.174767002 -0.673548996
vt 0.174767002 0.911637008
vt 0.174767002 0.751890004
vt 0.475232989 0.911637008
vt 0.475232989 0.911637008
vt 0.174767002 0.751890004
vt 0.475232989 0.751890004
vt 1.75100005 0.433591008
vt 1.75100005 0.454591006
vt 1.01157606 0.433591008
vt 1.01157606 0.433591008
vt 1.75100005 0.454591006
vt 1.01157606 0.454591006
vt 1.75100005 0.404590994
vt 1.75100005 0.425590992
vt 1.01157606 0.404590994
vt 1.01157606 0.404590994
vt 1.75100005 0.425590992
vt 1.01157606 0.425590992
vt -0.51205498 -0.686846018
vt -0.519396007 -0.682745993
vt -0.523796022 -0.684376001
vt -0.523796022 -0.684376001
vt -0.519396007 -0.682745993
vt -0.519396007 -0.682745993
vt -0.523796022 -0.684376001
vt -0.519396007 -0.682745993
vt -0.527059019 -0.680356026
vt -0.527059019 -0.680356026
vt -0.519396007 -0.682745993
vt -0.519396007 -0.676449001
vt -0.527059019 -0.680356026
vt -0.519396007 -0.676449001
vt -0.527059019 -0.676449001
vt -0.51205498 -0.686846018
vt -0.506519973 -0.688073993
vt -0.519396007 -0.682745993
vt -0.519396007 -0.682745993
vt -0.506519973 -0.688073993
vt -0.506519973 -0.688073993
vt -0.519396007 -0.682745993
vt -0.506519973 -0.688073993
vt -0.516395986 -0.680985987
vt 0.378132999 0.516395986
vt 0.375611991 0.506519973
vt 0.378132999 0.501845002
vt -0.51205498 -0.686846018
vt -0.523796022 -0.684376001
vt -0.507075012 -0.689554989
vt -0.507075012 -0.689554989
vt -0.523796022 -0.684376001
vt -0.52441299 -0.687312007
vt -0.375611991 0.507075012
vt -0.378132999 0.52441299
vt -0.378132999 0.502867997
vt -0.51205498 -0.686846018
vt -0.507075012 -0.689554989
vt -0.506519973 -0.688073993
vt -0.506519973 -0.688073993
vt -0.507075012 -0.689554989
vt -0.502867997 -0.691843987
vt -0.506519973 -0.688073993
vt -0.502867997 -0.691843987
vt -0.501845002 -0.689112008
vt 0.378132999 -0.689112008
vt 0.378132999 -0.691843987
vt 0.388132989 -0.689112008
vt 0.388132989 -0.689112008
vt 0.378132999 -0.691843987
vt 0.388132989 -0.691843987
vt 0.378132999 0.501845002
vt 0.388132989 0.501845002
vt 0.378132999 0.516395986
vt 0.378132999 0.516395986
vt 0.388132989 0.501845002
vt 0.388132989 0.516395986
vt -0.378132999 0.52441299
vt -0.388132989 0.52441299
vt -0.378132999 0.502867997
vt -0.378132999 0.502867997
vt -0.388132989 0.52441299
vt -0.388132989 0.502867997
vt -0.388132989 0.502867997
vt -0.388132989 0.52441299
vt -0.390653998 0.507075012
vt 0.507075012 -0.689554989
vt 0.52441299 -0.687312007
vt 0.523796022 -0.684376001
vt 0.507075012 -0.689554989
vt 0.523796022 -0.684376001
vt 0.51205498 -0.686846018
vt 0.502867997 -0.691843987
vt 0.507075012 -0.689554989
vt 0.501845002 -0.689112008
vt -0.501845002 -0.689112008
vt -0.507075012 -0.689554989
vt -0.507075012 -0.689554989
vt 0.501845002 -0.689112008
vt 0.507075012 -0.689554989
vt 0.506519973 -0.688073993
vt 0.506519973 -0.688073993
vt 0.507075012 -0.689554989
vt 0.51205498 -0.686846018
vt 0.388132989 0.501845002
vt 0.390653998 0.506519973
vt 0.388132989 0.516395986
vt 0.516395986 -0.680985987
vt 0.506519973 -0.688073993
vt 0.51205498 -0.686846018
vt 0.516395986 -0.680985987
vt 0.51205498 -0.686846018
vt 0.519396007 -0.682745993
vt -0.52441299 -0.687312007
vt -0.523796022 -0.684376001
vt -0.52846998 -0.684835017
vt -0.52846998 -0.684835017
vt -0.523796022 -0.684376001
vt -0.527059019 -0.680356026
vt -0.52846998 -0.684835017
vt -0.527059019 -0.680356026
vt -0.53005898 -0.680356026
vt -0.378132999 0.52441299
vt -0.378132999 0.52846998
vt -0.388132989 0.52441299
vt -0.52441299 -0.687312007
vt -0.52846998 -0.684835017
vt -0.52846998 -0.684835017
vt -0.388132989 0.52441299
vt -0.378132999 0.52846998
vt -0.388132989 0.52846998
vt -0.388132989 -0.684835017
vt -0.378132999 -0.684835017
vt -0.378132999 -0.680356026
vt -0.388132989 -0.684835017
vt -0.378132999 -0.680356026
vt -0.388132989 -0.680356026
vt 0.52441299 -0.687312007
vt 0.52846998 -0.684835017
vt 0.523796022 -0.684376001
vt -0.523796022 -0.684376001
vt -0.52846998 -0.684835017
vt -0.52846998 -0.684835017
vt 0.523796022 -0.684376001
vt 0.52846998 -0.684835017
vt 0.527059019 -0.680356026
vt 0.527059019 -0.680356026
vt 0.52846998 -0.684835017
vt 0.53005898 -0.680356026
vt 0.51205498 -0.686846018
vt 0.523796022 -0.684376001
vt 0.519396007 -0.682745993
vt 0.519396007 -0.682745993
vt 0.523796022 -0.684376001
vt 0.527059019 -0.680356026
vt 0.519396007 -0.682745993
vt 0.527059019 -0.680356026
vt 0.519396007 -0.676449001
vt 0.519396007 -0.676449001
vt 0.527059019 -0.680356026
vt 0.527059019 -0.676449001
vt -0.519396007 -0.682745993
vt -0.516395986 -0.680985987
vt -0.519396007 -0.676449001
vt -0.519396007 -0.676449001
vt -0.516395986 -0.680985987
vt -0.516395986 -0.676449001
vt -0.53005898 -0.680356026
vt -0.527059019 -0.680356026
vt -0.53005898 -0.676449001
vt -0.378147006 -0.676449001
vt -0.375133008 -0.680356026
vt -0.375133008 -0.676449001
vt -0.378147006 -0.676449001
vt -0.375133008 -0.676449001
vt -0.377328992 -0.67344898
vt -0.377328992 -0.67344898
vt -0.375133008 -0.676449001
vt -0.372132987 -0.67344898
vt -0.527059019 -0.676449001
vt -0.519396007 -0.676449001
vt -0.527059019 -0.67344898
vt -0.527059019 -0.67344898
vt -0.519396007 -0.676449001
vt -0.519396007 -0.67344898
vt 0.519396007 -0.682745993
vt 0.519396007 -0.676449001
vt 0.516395986 -0.680985987
vt 0.516395986 -0.680985987
vt 0.519396007 -0.676449001
vt 0.516395986 -0.676449001
vt 0.378132999 -0.680985987
vt 0.388132989 -0.680985987
vt 0.378132999 -0.676449001
vt 0.378132999 -0.676449001
vt 0.388132989 -0.680985987
vt 0.388132989 -0.676449001
vt 0.378132999 -0.676449001
vt 0.388132989 -0.676449001
vt 0.377328992 -0.67344898
vt 0.377328992 -0.67344898
vt 0.388132989 -0.676449001
vt 0.388936996 -0.67344898
vt -0.516395986 -0.676449001
vt -0.516395986 -0.67344898
vt -0.519396007 -0.676449001
vt 0.375133008 -0.676449001
vt 0.377328992 -0.67344898
vt 0.372132987 -0.67344898
vt 0.516395986 -0.676449001
vt 0.519396007 -0.676449001
vt 0.516395986 -0.67344898
vt 0.388936996 -0.67344898
vt 0.39113301 -0.676449001
vt 0.394133002 -0.67344898
vt 0.519396007 -0.676449001
vt 0.527059019 -0.676449001
vt 0.519396007 -0.67344898
vt 0.519396007 -0.67344898
vt 0.527059019 -0.676449001
vt 0.527059019 -0.67344898
vt -0.394133002 -0.67344898
vt -0.39113301 -0.676449001
vt -0.388936996 -0.67344898
vt -0.388936996 -0.67344898
vt -0.39113301 -0.676449001
vt -0.388119996 -0.676449001
vt -0.377328992 -0.67344898
vt -0.388936996 -0.67344898
vt -0.378147006 -0.676449001
vt -0.378147006 -0.676449001
vt -0.388936996 -0.67344898
vt -0.388119996 -0.676449001
vt -0.378147006 -0.676449001
vt -0.388119996 -0.676449001
vt -0.378132999 -0.680356026
vt -0.378132999 -0.680356026
vt -0.388119996 -0.676449001
vt -0.388132989 -0.680356026
vt 0.527059019 -0.680356026
vt 0.53005898 -0.680356026
vt 0.527059019 -0.676449001
vt -0.39113301 -0.676449001
vt -0.388132989 -0.680356026
vt -0.388119996 -0.676449001
vt 1.75100005 -0.388678014
vt 1.75100005 -0.366723001
vt 1.01157606 -0.388415009
vt 1.01157606 -0.388415009
vt 1.75100005 -0.366723001
vt 1.01157606 -0.366723001
vt -0.183767006 1.25818801
vt -0.183767006 1.64871097
vt -0.184766993 1.25818801
vt -0.184766993 1.25818801
vt -0.183767006 1.64871097
vt -0.184766993 1.64871097
vt 0.183767006 -0.0317000002
vt 0.184766993 -0.0317000002
vt 0.183767006 0.589353025
vt 0.183767006 0.589353025
vt 0.184766993 -0.0317000002
vt 0.184766993 0.589353025
vt -1.80149996 -0.652549028
vt -1.80149996 -0.673548996
vt -0.0615000017 -0.652549028
vt -0.0615000017 -0.652549028
vt -1.80149996 -0.673548996
vt -0.0615000017 -0.673548996
vt 0.183767006 1.64871097
vt 0.183767006 1.25818801
vt 0.184766993 1.64871097
vt 0.184766993 1.64871097
vt 0.183767006 1.25818801
vt 0.184766993 1.25818801
vt -0.183767006 0.589353025
vt -0.184766993 0.589353025
vt -0.183767006 -0.0317000002
vt -0.183767006 -0.0317000002
vt -0.184766993 0.589353025
vt -0.184766993 -0.0317000002
vt 1.46213698 -0.67344898
vt 1.30819499 -0.67344898
vt 1.46213698 -0.678448975
vt 1.46213698 -0.678448975
vt 1.30819499 -0.67344898
vt 1.30819499 -0.678448975
vt -0.253686011 -0.67344898
vt -0.253686011 -0.678448975
vt -0.0280629992 -0.67344898
vt -0.0280629992 -0.67344898
vt -0.253686011 -0.678448975
vt -0.0280629992 -0.678448975
vt -1.30819499 -0.67344898
vt -1.46213698 -0.67344898
vt -1.30819499 -0.678448975
vt -1.30819499 -0.678448975
vt -1.46213698 -0.67344898
vt -1.46213698 -0.678448975
vt 0.0280629992 -0.67344898
vt 0.0280629992 -0.678448975
vt 0.253686011 -0.67344898
vt 0.253686011 -0.67344898
vt 0.0280629992 -0.678448975
vt 0.253686011 -0.678448975
vt 0.475232989 -0.652549028
vt 0.474233001 -0.652549028
vt 0.475232989 -0.673548996
vt 0.475232989 -0.673548996
vt 0.474233001 -0.652549028
vt 0.454232991 -0.672549009
vt 0.475232989 -0.673548996
vt 0.454232991 -0.672549009
vt 0.454232991 -0.673548996
vt 0.474233001 -0.652549028
vt 0.474233001 -0.644549012
vt 0.454232991 -0.672549009
vt -0.0615000017 -0.672549009
vt -0.0615000017 -0.644549012
vt -0.0615000017 -0.644549012
vt 0.454232991 -0.672549009
vt 0.474233001 -0.644549012
vt 0.446233004 -0.672549009
vt 0.446233004 -0.672549009
vt 0.474233001 -0.644549012
vt 0.425233006 -0.673533022
vt 0.446233004 -0.672549009
vt 0.425233006 -0.673533022
vt 0.446233004 -0.673548996
vt -1.80149996 0.72645098
vt -1.80149996 0.705451012
vt -1.79107201 0.72645098
vt -1.79107201 0.72645098
vt -1.80149996 0.705451012
vt -1.79107201 0.705451012
vt 0.475232989 -0.644549012
vt 0.475232989 0.697450995
vt 0.474233001 -0.644549012
vt 0.474233001 -0.644549012
vt 0.475232989 0.697450995
vt 0.474233001 0.697450995
vt 0.474233001 -0.644549012
vt 0.474233001 0.697450995
vt 0.425233006 -0.673533022
vt -0.0615000017 -0.673533022
vt -0.0615000017 0.697450995
vt -0.0615000017 0.697450995
vt 0.425233006 -0.673533022
vt 0.474233001 0.697450995
vt -0.124766998 -0.67344898
vt -0.124766998 -0.67344898
vt 0.474233001 0.697450995
vt -0.173767 0.697450995
vt -0.124766998 -0.67344898
vt -0.173767 0.697450995
vt -0.173767 -0.644549012
vt -0.0615000017 -0.644549012
vt -0.0615000017 0.697450995
vt -0.0615000017 0.697450995
vt -0.173767 -0.644549012
vt -0.173767 0.697450995
vt -0.174767002 -0.644549012
vt -0.174767002 -0.644549012
vt -0.173767 0.697450995
vt -0.174767002 0.697450995
vt 0.474233001 0.697450995
vt 0.474233001 0.705451012
vt -0.173767 0.697450995
vt -0.0615000017 0.697450995
vt -0.0615000017 0.705451012
vt -0.0615000017 0.705451012
vt -0.173767 0.697450995
vt 0.474233001 0.705451012
vt -0.173767 0.705451012
vt -0.173767 0.705451012
vt 0.474233001 0.705451012
vt 0.475232989 0.72645098
vt -0.0615000017 0.705451012
vt -0.0615000017 0.72645098
vt -0.0615000017 0.705451012
vt -0.173767 0.705451012
vt 0.475232989 0.72645098
vt -0.174767002 0.72645098
vt -0.173767 0.705451012
vt -0.174767002 0.72645098
vt -0.174767002 0.705451012
vt 0.475232989 0.705451012
vt 0.475232989 0.72645098
vt 0.474233001 0.705451012
vt 1.01157606 -0.338414997
vt 1.01157606 -0.358723015
vt 1.75100005 -0.338678002
vt 1.75100005 -0.338678002
vt 1.01157606 -0.358723015
vt 1.75100005 -0.358723015
vt 0.0615000017 0.72645098
vt 0.0615000017 0.705451012
vt 1.80149996 0.72645098
vt 1.80149996 0.72645098
vt 0.0615000017 0.705451012
vt 1.80149996 0.705451012
vt -0.425233006 0.0615000017
vt -0.425233006 0.971170008
vt -0.446233004 0.0615000017
vt -0.0615000017 -0.673548996
vt -0.971170008 -0.67344898
vt -0.971170008 -0.67344898
vt -0.446233004 0.0615000017
vt -0.425233006 0.971170008
vt -0.446233004 1.80149996
vt -0.446233004 1.80149996
vt -0.425233006 0.971170008
vt -0.425233006 1.02117002
vt -1.80149996 -0.673548996
vt -1.02117002 -0.673548996
vt -1.80149996 -0.673548996
vt -0.446233004 1.80149996
vt -0.425233006 1.02117002
vt -0.425233006 1.75150001
vt -0.446233004 1.80149996
vt -0.425233006 1.75150001
vt -0.424872994 1.77250004
vt -0.424872994 1.77250004
vt -0.425233006 1.75150001
vt 0.124766998 1.75150001
vt -0.424872994 1.77250004
vt 0.124766998 1.75150001
vt 0.125559002 1.77250004
vt 0.125559002 1.77250004
vt 0.124766998 1.75150001
vt 0.145767003 1.80149996
vt 0.125559002 1.77250004
vt 0.145767003 1.80149996
vt 0.125559002 1.78050005
vt -1.78050005 -0.673548996
vt -1.80149996 -0.673548996
vt -1.80149996 -0.673548996
vt 0.125559002 1.78050005
vt 0.145767003 1.80149996
vt -0.424872994 1.78050005
vt -0.424872994 1.78050005
vt 0.145767003 1.80149996
vt -0.446233004 1.80149996
vt -0.424872994 1.78050005
vt -0.446233004 1.80149996
vt -0.424872994 1.77250004
vt 0.124766998 1.75150001
vt 0.124766998 1.02117002
vt 0.145767003 1.80149996
vt 0.145767003 1.80149996
vt 0.124766998 1.02117002
vt 0.125559002 1.00016999
vt -1.80149996 -0.673548996
vt -1.00016999 -0.673548996
vt -1.80149996 -0.673548996
vt 0.145767003 1.80149996
vt 0.125559002 1.00016999
vt 0.125559002 0.992169976
vt 0.145767003 1.80149996
vt 0.125559002 0.992169976
vt 0.145767003 0.0615000017
vt 0.145767003 0.0615000017
vt 0.125559002 0.992169976
vt 0.124766998 0.971170008
vt 0.145767003 0.0615000017
vt 0.124766998 0.971170008
vt 0.124766998 0.0615000017
vt 0.125559002 0.992169976
vt -0.424872994 0.992169976
vt 0.124766998 0.971170008
vt -0.971170008 -0.67344898
vt -0.992169976 -0.673548996
vt -0.992169976 -0.673548996
vt 0.124766998 0.971170008
vt -0.424872994 0.992169976
vt -0.425233006 0.971170008
vt -0.425233006 0.971170008
vt -0.424872994 0.992169976
vt -0.424872994 1.00016999
vt -0.425233006 0.971170008
vt -0.424872994 1.00016999
vt -0.425233006 1.02117002
vt -1.02117002 -0.673548996
vt -1.00016999 -0.673548996
vt -1.00016999 -0.673548996
vt -0.425233006 1.02117002
vt -0.424872994 1.00016999
vt 0.124766998 1.02117002
vt 0.124766998 1.02117002
vt -0.424872994 1.00016999
vt 0.125559002 1.00016999
vt 0.0615000017 -0.652549028
vt 0.0615000017 -0.673548996
vt 1.80149996 -0.652549028
vt 1.80149996 -0.652549028
vt 0.0615000017 -0.673548996
vt 1.80149996 -0.673548996
vt -0.174767002 0.0615000017
vt 0.475232989 0.0615000017
vt -0.174767002 1.00864196
vt -0.174767002 1.00864196
vt 0.475232989 0.0615000017
vt 0.475232989 1.80149996
vt -0.174767002 1.00864196
vt 0.475232989 1.80149996
vt -0.174767002 1.79107201
vt -0.174767002 1.79107201
vt 0.475232989 1.80149996
vt -0.174767002 1.80149996
vt -0.174767002 1.00864196
vt -0.174767002 1.79107201
vt -0.184766993 1.00864196
vt -0.184766993 1.00864196
vt -0.174767002 1.79107201
vt -0.184766993 1.79107201
vt -0.454232991 0.0615000017
vt -0.454232991 1.80149996
vt -0.475232989 0.0615000017
vt -0.475232989 0.0615000017
vt -0.454232991 1.80149996
vt -0.475232989 1.80149996
vt -0.0615000017 0.705451012
vt -0.0615000017 0.72645098
vt -1.00864196 0.705451012
vt -1.00864196 0.705451012
vt -0.0615000017 0.72645098
vt -1.00864196 0.72645098
vt 0.153767005 1.80149996
vt 0.153767005 0.0615000017
vt 0.174767002 1.80149996
vt 0.174767002 1.80149996
vt 0.153767005 0.0615000017
vt 0.174767002 0.0615000017
vt 1.80149996 -0.644549012
vt 1.80149996 0.697450995
vt 1.78050005 -0.622232974
vt -1.78050005 -0.622232974
vt -1.80149996 0.697450995
vt -1.80149996 0.697450995
vt 1.78050005 -0.622232974
vt 1.80149996 0.697450995
vt 1.78050005 0.67612201
vt -1.78050005 0.67612201
vt -1.80149996 0.697450995
vt -1.80149996 0.697450995
vt 1.78050005 0.67612201
vt 1.80149996 0.697450995
vt 1.77250004 0.67612201
vt 1.77250004 0.67612201
vt 1.80149996 0.697450995
vt 1.75150001 0.676451027
vt 1.77250004 0.67612201
vt 1.75150001 0.676451027
vt 1.77250004 -0.622232974
vt 1.77250004 -0.622232974
vt 1.75150001 0.676451027
vt 1.75150001 -0.623548985
vt 1.77250004 -0.622232974
vt 1.75150001 -0.623548985
vt 1.80149996 -0.644549012
vt 1.80149996 -0.644549012
vt 1.75150001 -0.623548985
vt 1.01107597 -0.623548985
vt 1.80149996 -0.644549012
vt 1.01107597 -0.623548985
vt 0.961076021 -0.623548985
vt 0.961076021 -0.623548985
vt 1.01107597 -0.623548985
vt 0.990076005 -0.622965991
vt -0.961076021 -0.623548985
vt -0.990076005 -0.622965991
vt -0.961076021 -0.623548985
vt 0.961076021 -0.623548985
vt 0.990076005 -0.622965991
vt 0.982075989 -0.622965991
vt 0.961076021 -0.623548985
vt 0.982075989 -0.622965991
vt 0.961076021 0.676451027
vt 0.961076021 0.676451027
vt 0.982075989 -0.622965991
vt 0.982075989 0.676280975
vt 0.961076021 0.676451027
vt 0.982075989 0.676280975
vt 1.01107597 0.676451027
vt 1.01107597 0.676451027
vt 0.982075989 0.676280975
vt 0.990076005 0.676280975
vt -1.01107597 0.676451027
vt -0.990076005 0.676280975
vt -1.01107597 0.676451027
vt 1.01107597 0.676451027
vt 0.990076005 0.676280975
vt 0.990076005 -0.622965991
vt 1.01107597 0.676451027
vt 0.990076005 -0.622965991
vt 1.01107597 -0.623548985
vt 1.77250004 -0.622232974
vt 1.80149996 -0.644549012
vt 1.78050005 -0.622232974
vt 1.80149996 -0.644549012
vt 0.961076021 -0.623548985
vt 0.0615000017 -0.644549012
vt 0.0615000017 -0.644549012
vt 0.961076021 -0.623548985
vt 0.111500002 -0.623548985
vt 0.0615000017 -0.644549012
vt 0.111500002 -0.623548985
vt 0.0904999971 -0.623547018
vt -0.0904999971 -0.623547018
vt -0.111500002 -0.623548985
vt -0.111500002 -0.623548985
vt 0.0904999971 -0.623547018
vt 0.111500002 -0.623548985
vt 0.0904999971 0.67612201
vt 0.0904999971 0.67612201
vt 0.111500002 -0.623548985
vt 0.111500002 0.676451027
vt 0.0904999971 0.67612201
vt 0.111500002 0.676451027
vt 0.0615000017 0.697450995
vt 0.0615000017 0.697450995
vt 0.111500002 0.676451027
vt 0.961076021 0.676451027
vt 0.0615000017 0.697450995
vt 0.961076021 0.676451027
vt 1.80149996 0.697450995
vt 1.80149996 0.697450995
vt 0.961076021 0.676451027
vt 1.01107597 0.676451027
vt 1.80149996 0.697450995
vt 1.01107597 0.676451027
vt 1.75150001 0.676451027
vt 0.961076021 0.676451027
vt 0.111500002 0.676451027
vt 0.961076021 -0.623548985
vt 0.961076021 -0.623548985
vt 0.111500002 0.676451027
vt 0.111500002 -0.623548985
vt 0.0904999971 0.67612201
vt 0.0615000017 0.697450995
vt 0.0825000033 0.67612201
vt 0.0825000033 0.67612201
vt 0.0615000017 0.697450995
vt 0.0615000017 -0.644549012
vt 0.0825000033 0.67612201
vt 0.0615000017 -0.644549012
vt 0.0825000033 -0.623547018
vt 0.0825000033 -0.623547018
vt 0.0615000017 -0.644549012
vt 0.0904999971 -0.623547018
vt -0.215878993 1.34410906
vt -0.0280629992 1.30819499
vt -0.0605840012 1.34410906
vt -0.0605840012 1.34410906
vt -0.0280629992 1.30819499
vt -0.0280629992 1.46213698
vt -0.0605840012 1.34410906
vt -0.0280629992 1.46213698
vt -0.0605840012 1.43316495
vt -1.43316495 -0.678349018
vt -1.46213698 -0.678448975
vt -1.46213698 -0.678448975
vt -0.0605840012 1.43316495
vt -0.0280629992 1.46213698
vt -0.215878993 1.43316495
vt -0.215878993 1.43316495
vt -0.0280629992 1.46213698
vt -0.253686011 1.46213698
vt -0.215878993 1.43316495
vt -0.253686011 1.46213698
vt -0.215878993 1.34410906
vt -0.215878993 1.34410906
vt -0.253686011 1.46213698
vt -0.253686011 1.30819499
vt -0.215878993 1.34410906
vt -0.253686011 1.30819499
vt -0.0280629992 1.30819499
f 1/1 2/2 3/3
f 3/4 2/5 4/6
f 3/7 4/8 5/9
f 5/10 4/11 6/12
f 5/13 6/14 5/15
f 5/16 6/17 7/18
f 5/19 7/20 8/21
f 6/22 4/23 9/24
f 9/25 4/26 10/27
f 9/28 10/29 11/30
f 11/31 10/32 12/33
f 11/34 12/35 13/36
f 13/37 12/38 14/39
f 13/40 14/41 15/42
f 15/43 14/44 16/45
f 15/46 16/47 17/48
f 17/49 16/50 9/51
f 17/52 9/53 11/54
f 18/55 9/56 16/57
f 4/58 19/59 10/60
f 10/61 19/62 20/63
f 10/64 20/65 21/66
f 21/67 20/68 22/69
f 21/70 22/71 23/72
f 23/73 22/74 24/75
f 23/76 24/77 19/78
f 19/79 24/80 25/81
f 19/82 25/83 19/84
f 19/85 25/86 26/87
f 19/88 26/89 20/90
f 20/91 26/92 22/93
f 23/94 14/95 21/96
f 21/97 14/98 12/99
f 21/100 12/101 10/102
f 4/103 2/104 27/105
f 27/106 2/107 28/108
f 29/109 30/110 31/111
f 31/112 30/113 32/114
f 30/115 29/116 33/117
f 33/118 29/119 29/120
f 33/121 29/122 34/123
f 34/124 29/125 35/126
f 34/127 35/128 36/129
f 30/130 33/131 32/132
f 32/133 33/134 37/135
f 37/136 33/137 38/138
f 38/139 33/140 34/141
f 38/142 34/143 39/144
f 39/145 34/146 36/147
f 40/148 41/149 42/150
f 42/151 41/152 43/153
f 42/154 43/155 44/156
f 44/157 43/158 45/159
f 44/160 45/161 46/162
f 46/163 45/164 47/165
f 48/166 43/167 41/168
f 31/169 49/170 29/171
f 29/172 49/173 35/174
f 50/175 51/176 52/177
f 52/178 51/179 53/180
f 54/181 55/182 56/183
f 56/184 55/185 57/186
f 58/187 59/188 60/189
f 60/190 59/191 59/192
f 60/193 59/194 61/195
f 61/196 59/197 62/198
f 61/199 62/200 63/201
f 58/202 64/203 59/204
f 59/205 64/206 64/207
f 59/208 64/209 65/210
f 65/211 64/212 66/213
f 58/214 60/215 67/216
f 67/217 60/218 68/219
f 67/220 68/221 69/222
f 58/223 67/224 64/225
f 64/226 67/227 69/228
f 64/229 69/230 66/231
f 66/232 69/233 70/234
f 70/235 69/236 71/237
f 66/238 70/239 65/240
f 65/241 70/242 72/243
f 68/244 73/245 69/246
f 69/247 73/248 71/249
f 71/250 73/251 74/252
f 74/253 73/254 75/255
f 74/256 75/257 76/258
f 71/259 74/260 70/261
f 70/262 74/263 74/264
f 70/265 74/266 77/267
f 77/268 74/269 76/270
f 70/271 77/272 72/273
f 72/274 77/275 76/276
f 72/277 76/278 78/279
f 68/280 60/281 79/282
f 79/283 60/284 61/285
f 79/286 61/287 80/288
f 68/289 79/290 73/291
f 73/292 79/293 79/294
f 73/295 79/296 81/297
f 81/298 79/299 80/300
f 81/301 80/302 82/303
f 73/304 81/305 75/306
f 75/307 81/308 81/309
f 75/310 81/311 83/312
f 83/313 81/314 82/315
f 76/316 75/317 78/318
f 78/319 75/320 83/321
f 78/322 83/323 84/324
f 84/325 83/326 85/327
f 59/328 65/329 62/330
f 62/331 65/332 86/333
f 80/334 61/335 87/336
f 87/337 61/338 63/339
f 87/340 63/341 88/342
f 88/343 63/344 89/345
f 63/346 62/347 89/348
f 89/349 62/350 90/351
f 78/352 84/353 72/354
f 72/355 84/356 91/357
f 65/358 72/359 86/360
f 86/361 72/362 91/363
f 86/364 91/365 92/366
f 92/367 91/368 93/369
f 86/370 92/371 62/372
f 62/373 92/374 90/375
f 91/376 84/377 93/378
f 93/379 84/380 94/381
f 84/382 85/383 94/384
f 94/385 85/386 95/387
f 95/388 85/389 96/390
f 96/391 85/392 97/393
f 88/394 96/395 87/396
f 87/397 96/398 97/399
f 87/400 97/401 80/402
f 80/403 97/404 82/405
f 83/406 82/407 85/408
f 85/409 82/410 97/411
f 98/412 99/413 100/414
f 100/415 99/416 101/417
f 102/418 103/419 104/420
f 104/421 103/422 105/423
f 102/424 104/425 106/426
f 106/427 104/428 107/429
f 108/430 109/431 40/432
f 40/433 109/434 41/435
f 110/436 106/437 111/438
f 111/439 106/440 107/441
f 110/442 111/443 103/444
f 103/445 111/446 105/447
f 112/448 113/449 114/450
f 114/451 113/452 115/453
f 112/454 114/455 116/456
f 116/457 114/458 117/459
f 118/460 116/461 119/462
f 119/463 116/464 117/465
f 118/466 119/467 113/468
f 113/469 119/470 115/471
f 120/472 121/473 122/474
f 122/475 121/476 123/477
f 122/478 123/479 124/480
f 121/481 125/482 123/483
f 123/484 125/485 125/486
f 123/487 125/488 126/489
f 126/490 125/491 127/492
f 126/493 127/494 128/495
f 129/496 130/497 131/498
f 131/499 130/500 132/501
f 133/502 134/503 125/504
f 125/505 134/506 135/507
f 125/508 135/509 127/510
f 127/511 135/512 135/513
f 127/514 135/515 46/516
f 46/517 135/518 136/519
f 46/520 136/521 44/522
f 44/523 136/524 136/525
f 44/526 136/527 19/528
f 19/529 136/530 23/531
f 135/532 137/533 136/534
f 136/535 137/536 137/537
f 136/538 137/539 138/540
f 138/541 137/542 139/543
f 138/544 139/545 138/546
f 138/547 139/548 140/549
f 138/550 140/551 141/552
f 142/553 139/554 137/555
f 143/556 144/557 145/558
f 145/559 144/560 146/561
f 139/562 142/563 147/564
f 147/565 142/566 148/567
f 127/568 149/569 128/570
f 128/571 149/572 149/573
f 128/574 149/575 150/576
f 150/577 149/578 151/579
f 150/580 151/581 150/582
f 150/583 151/584 152/585
f 150/586 152/587 153/588
f 153/589 152/590 154/591
f 153/592 154/593 155/594
f 155/595 154/596 156/597
f 155/598 156/599 157/600
f 157/601 156/602 156/603
f 157/604 156/605 158/606
f 158/607 156/608 150/609
f 158/610 150/611 153/612
f 154/613 159/614 156/615
f 156/616 159/617 160/618
f 156/619 160/620 156/621
f 156/622 160/623 161/624
f 156/625 161/626 47/627
f 47/628 161/629 162/630
f 47/631 162/632 46/633
f 161/634 163/635 162/636
f 162/637 163/638 163/639
f 162/640 163/641 149/642
f 149/643 163/644 164/645
f 149/646 164/647 151/648
f 151/649 164/650 164/651
f 151/652 164/653 159/654
f 159/655 164/656 160/657
f 120/658 122/659 165/660
f 165/661 122/662 166/663
f 140/664 139/665 167/666
f 167/667 139/668 147/669
f 167/670 147/671 131/672
f 131/673 147/674 129/675
f 167/676 131/677 168/678
f 168/679 131/680 169/681
f 124/682 170/683 122/684
f 122/685 170/686 166/687
f 141/688 140/689 171/690
f 171/691 140/692 167/693
f 172/694 48/695 109/696
f 109/697 48/698 41/699
f 173/700 174/701 175/702
f 175/703 174/704 174/705
f 175/706 174/707 176/708
f 176/709 174/710 174/711
f 176/712 174/713 177/714
f 177/715 174/716 178/717
f 177/718 178/719 179/720
f 179/721 178/722 180/723
f 179/724 180/725 173/726
f 173/727 180/728 181/729
f 173/730 181/731 182/732
f 182/733 181/734 183/735
f 182/736 183/737 182/738
f 182/739 183/740 184/741
f 182/742 184/743 185/744
f 185/745 184/746 186/747
f 185/748 186/749 187/750
f 187/751 186/752 188/753
f 187/754 188/755 187/756
f 187/757 188/758 183/759
f 187/760 183/761 181/762
f 179/763 173/764 175/765
f 173/766 182/767 133/768
f 133/769 182/770 189/771
f 133/772 189/773 190/774
f 190/775 189/776 189/777
f 190/778 189/779 191/780
f 191/781 189/782 192/783
f 191/784 192/785 134/786
f 134/787 192/788 185/789
f 134/790 185/791 174/792
f 174/793 185/794 187/795
f 174/796 187/797 178/798
f 185/799 192/800 182/801
f 182/802 192/803 189/804
f 191/805 134/806 193/807
f 193/808 134/809 133/810
f 193/811 133/812 194/813
f 194/814 133/815 190/816
f 195/817 119/818 196/819
f 196/820 119/821 117/822
f 196/823 117/824 197/825
f 197/826 117/827 117/828
f 197/829 117/830 198/831
f 198/832 117/833 114/834
f 198/835 114/836 195/837
f 195/838 114/839 115/840
f 195/841 115/842 119/843
