# Exported from USD for MuJoCo with source material subsets
v 11.3453666 -6.90003239 0.215633941
v 10.4562571 -6.90003239 0.215633702
v 11.3453666 -6.89203201 0.215633941
v 10.4562571 -6.89203201 0.215633702
v 10.4562571 -6.89203201 0.256154251
v 10.4562571 -6.90003239 0.256154251
v 11.3453666 -6.89203201 0.256154728
v 11.3453666 -6.90003239 0.256154728
vt -0.444555998 0.619997978
vt 0.444554001 0.619997978
vt -0.444555998 0.627997994
vt -0.444555998 0.627997994
vt 0.444554001 0.619997978
vt 0.444554001 0.627997994
vt -0.444554001 0.627997994
vt -0.444554001 0.619997978
vt 0.444555998 0.627997994
vt 0.444555998 0.627997994
vt -0.444554001 0.619997978
vt 0.444555998 0.619997978
f 1/1 2/2 3/3
f 3/4 2/5 4/6
f 5/7 6/8 7/9
f 7/10 6/11 8/12
