# Exported from USD for MuJoCo with source material subsets
v 5.56957206 4.55385262 0.90702416
v 5.569572 4.66385227 0.90702416
v 5.56603655 4.55385262 0.9105597
v 5.56603649 4.66385227 0.9105597
v 5.56957229 4.19385296 0.90702416
v 5.56957218 4.30385262 0.90702416
v 5.56603679 4.19385296 0.9105597
v 5.56603667 4.30385262 0.9105597
v 5.55896583 3.93385321 0.90348865
v 5.62967655 3.93385321 0.83277794
v 5.55896589 3.84385306 0.90348865
v 5.6296766 3.84385306 0.83277794
v 5.5144684 3.93385225 0.71756995
v 5.4861842 3.93385225 0.71756995
v 5.46350648 3.93385225 0.73024756
v 5.48118421 3.93385225 0.71256995
v 5.51446852 3.84385258 0.71756995
v 5.4861842 3.84385258 0.71756995
v 5.4635066 3.84385258 0.73024756
v 5.48118421 3.84385258 0.71256995
v 5.44083449 3.84385258 0.78351698
v 5.44125601 3.84385258 0.78530273
v 5.44108548 3.84385258 0.78169933
v 5.44229337 3.84385258 0.78681603
v 5.45876321 3.84385258 0.72866638
v 5.45876309 3.93385225 0.72866638
v 5.46704211 3.83385235 0.71964087
v 5.44582888 3.83385235 0.78328052
v 5.46229872 3.83385235 0.71805981
v 5.44108548 3.83385235 0.78169933
v 5.44083449 3.83385235 0.78351698
v 5.44125601 3.83385235 0.78530273
v 5.44229337 3.83385235 0.78681603
v 5.56603702 3.83385283 0.9105597
v 5.56957247 3.83385283 0.90702416
v 5.46704211 3.83885246 0.71964087
v 5.46704199 3.93885237 0.71964087
v 5.4622986 3.94385248 0.71805981
v 5.46704199 3.94385248 0.71964087
v 5.44582888 3.83885246 0.78328052
v 5.56603702 3.83885294 0.90348865
v 5.5660369 3.93885285 0.90348865
v 5.56957247 3.94385296 0.90702416
v 5.44582882 3.94385248 0.78328052
v 5.44582882 3.93885237 0.78328052
v 5.63674768 3.83885294 0.83277794
v 5.5165396 3.83885294 0.71256995
v 5.48825529 3.83885246 0.71256995
v 5.48118421 3.83885246 0.70549877
v 5.63674762 3.93885285 0.83277794
v 5.5165396 3.93885237 0.71256995
v 5.48825529 3.93885237 0.71256995
v 5.48118421 3.93885237 0.70549877
v 5.44108542 3.93385225 0.78169933
v 5.44229331 3.93385225 0.78681603
v 5.44125601 3.93385225 0.78530273
v 5.44083443 3.93385225 0.78351698
v 5.5660369 3.94385296 0.9105597
v 5.55896612 3.57385308 0.90348865
v 5.62967675 3.57385308 0.83277794
v 5.55896618 3.48385292 0.90348865
v 5.62967681 3.48385292 0.83277794
v 5.51446863 3.57385308 0.71756995
v 5.48618438 3.57385308 0.71756995
v 5.46350672 3.57385308 0.73024756
v 5.48118439 3.57385308 0.71256995
v 5.51446869 3.48385292 0.71756995
v 5.4861845 3.48385292 0.71756995
v 5.46350678 3.48385292 0.73024756
v 5.48118451 3.48385292 0.71256995
v 5.45876339 3.48385292 0.72866638
v 5.45876333 3.57385308 0.72866638
v 5.44108572 3.48385292 0.78169933
v 5.44229361 3.48385292 0.78681603
v 5.44125625 3.48385292 0.78530273
v 5.44083473 3.48385292 0.78351698
v 5.55896565 4.29385239 0.90348865
v 5.62967634 4.29385287 0.83277794
v 5.55896565 4.20385224 0.90348865
v 5.62967637 4.20385319 0.83277794
v 5.46704229 3.47385317 0.71964087
v 5.46704229 3.47885281 0.71964087
v 5.44582912 3.47385317 0.78328052
v 5.44582912 3.47885281 0.78328052
v 5.56957271 3.47385317 0.90702416
v 5.5660372 3.47385317 0.9105597
v 5.44229361 3.47385317 0.78681603
v 5.44125625 3.47385317 0.78530273
v 5.44083473 3.47385317 0.78351698
v 5.44108572 3.47385317 0.78169933
v 5.46229889 3.47385317 0.71805981
v 5.5660372 3.47885281 0.90348865
v 5.56603714 3.57885319 0.90348865
v 5.56957265 3.58385283 0.90702416
v 5.445829 3.58385235 0.78328052
v 5.445829 3.57885224 0.78328052
v 5.63674789 3.47885281 0.83277794
v 5.51653978 3.47885281 0.71256995
v 5.48825553 3.47885281 0.71256995
v 5.48118451 3.47885281 0.70549877
v 5.63674783 3.57885319 0.83277794
v 5.51653978 3.57885224 0.71256995
v 5.48825547 3.57885224 0.71256995
v 5.46704229 3.57885224 0.71964087
v 5.48118439 3.57885224 0.70549877
v 5.4410856 3.57385308 0.78169933
v 5.44229349 3.57385308 0.78681603
v 5.44125619 3.57385308 0.78530273
v 5.44083461 3.57385308 0.78351698
v 5.46704181 4.30385262 0.71964087
v 5.46704181 4.2988525 0.71964087
v 5.46229842 4.30385262 0.71805981
v 5.46229848 4.19385248 0.71805981
v 5.46704187 4.1988526 0.71964087
v 5.46704187 4.19385248 0.71964087
v 5.46704229 3.58385235 0.71964087
v 5.46229883 3.58385235 0.71805981
v 5.56603714 3.58385283 0.9105597
v 5.55896636 3.21385294 0.90348865
v 5.62967699 3.21385294 0.83277794
v 5.55896636 3.12385279 0.90348865
v 5.62967705 3.12385279 0.83277794
v 5.51446887 3.21385294 0.71756995
v 5.48618468 3.21385294 0.71756995
v 5.46350702 3.21385294 0.73024756
v 5.48118463 3.21385294 0.71256995
v 5.51446893 3.12385279 0.71756995
v 5.48618468 3.12385279 0.71756995
v 5.46350702 3.12385279 0.73024756
v 5.48118469 3.12385279 0.71256995
v 5.4408349 3.12385279 0.78351698
v 5.44125649 3.12385279 0.78530273
v 5.44108596 3.12385279 0.78169933
v 5.44229385 3.12385279 0.78681603
v 5.45876362 3.12385279 0.72866638
v 5.45876362 3.21385294 0.72866638
v 5.46704259 3.11385304 0.71964087
v 5.44582942 3.11385304 0.78328052
v 5.46229913 3.11385304 0.71805981
v 5.44108596 3.11385304 0.78169933
v 5.4408349 3.11385304 0.78351698
v 5.44125649 3.11385304 0.78530273
v 5.44229385 3.11385304 0.78681603
v 5.56603744 3.11385304 0.9105597
v 5.56957295 3.11385304 0.90702416
v 5.46704259 3.11885315 0.71964087
v 5.46704247 3.21885306 0.71964087
v 5.46229907 3.22385317 0.71805981
v 5.46704247 3.22385317 0.71964087
v 5.44582942 3.11885315 0.78328052
v 5.56603744 3.11885315 0.90348865
v 5.56603738 3.21885306 0.90348865
v 5.56957289 3.22385317 0.90702416
v 5.44582924 3.22385317 0.78328052
v 5.44582924 3.21885306 0.78328052
v 5.63674813 3.11885315 0.83277794
v 5.51654007 3.11885315 0.71256995
v 5.48825576 3.11885315 0.71256995
v 5.48118469 3.11885315 0.70549877
v 5.63674807 3.21885306 0.83277794
v 5.51654002 3.21885306 0.71256995
v 5.4882557 3.21885306 0.71256995
v 5.48118463 3.21885306 0.70549877
v 5.44108584 3.21385294 0.78169933
v 5.44229373 3.21385294 0.78681603
v 5.44125643 3.21385294 0.78530273
v 5.44083484 3.21385294 0.78351698
v 5.56603738 3.22385317 0.9105597
v 5.44083419 4.29385239 0.78351698
v 5.44108524 4.29385239 0.78169933
v 5.44125577 4.29385239 0.78530273
v 5.44229307 4.29385239 0.78681603
v 5.46350631 4.29385239 0.73024756
v 5.48618403 4.29385239 0.71756995
v 5.48118397 4.29385239 0.71256995
v 5.45876291 4.29385239 0.72866638
v 5.51446822 4.29385239 0.71756995
v 5.45876297 4.20385224 0.72866638
v 5.46350643 4.20385224 0.73024756
v 5.48118391 4.2988525 0.70549877
v 5.48825505 4.2988525 0.71256995
v 5.44582858 4.2988525 0.78328052
v 5.51653936 4.2988525 0.71256995
v 5.56603667 4.2988525 0.90348865
v 5.63674738 4.29885298 0.83277794
v 5.48118397 4.1988526 0.70549877
v 5.48825511 4.1988526 0.71256995
v 5.44582864 4.1988526 0.78328052
v 5.51653936 4.1988526 0.71256995
v 5.56603679 4.1988526 0.90348865
v 5.63674747 4.19885308 0.83277794
v 5.44582864 4.19385248 0.78328052
v 5.44582858 4.30385262 0.78328052
v 5.44229307 4.19385248 0.78681603
v 5.44125577 4.19385248 0.78530273
v 5.44083425 4.19385248 0.78351698
v 5.44108524 4.19385248 0.78169933
v 5.44108524 4.20385224 0.78169933
v 5.48618403 4.20385224 0.71756995
v 5.51446828 4.20385224 0.71756995
v 5.48118397 4.20385224 0.71256995
v 5.44229307 4.20385224 0.78681603
v 5.44125577 4.20385224 0.78530273
v 5.44083425 4.20385224 0.78351698
v 5.44229349 3.58385235 0.78681603
v 5.44125619 3.58385235 0.78530273
v 5.44083461 3.58385235 0.78351698
v 5.4410856 3.58385235 0.78169933
v 5.44229307 4.30385262 0.78681603
v 5.44125577 4.30385262 0.78530273
v 5.44083413 4.30385262 0.78351698
v 5.44108518 4.30385262 0.78169933
v 5.44229373 3.22385317 0.78681603
v 5.44125643 3.22385317 0.78530273
v 5.44083484 3.22385317 0.78351698
v 5.44108584 3.22385317 0.78169933
v 5.44229331 3.94385248 0.78681603
v 5.44125601 3.94385248 0.78530273
v 5.44083443 3.94385248 0.78351698
v 5.44108542 3.94385248 0.78169933
v 5.44229289 4.66385227 0.78681603
v 5.44125547 4.66385227 0.78530273
v 5.44229289 4.65385252 0.78681603
v 5.44125547 4.65385252 0.78530273
v 5.44083395 4.66385227 0.78351698
v 5.44083395 4.65385252 0.78351698
v 5.44108501 4.66385227 0.78169933
v 5.44108501 4.65385252 0.78169933
v 5.4458284 4.55385262 0.78328052
v 5.44229289 4.55385262 0.78681603
v 5.44125559 4.55385262 0.78530273
v 5.44083401 4.55385262 0.78351698
v 5.44108501 4.55385262 0.78169933
v 5.46229824 4.55385262 0.71805981
v 5.46704164 4.55385262 0.71964087
v 5.46704158 4.66385227 0.71964087
v 5.46704158 4.65885264 0.71964087
v 5.46229818 4.66385227 0.71805981
v 5.46704164 4.55885225 0.71964087
v 5.4458284 4.55885225 0.78328052
v 5.4458284 4.65885264 0.78328052
v 5.4458284 4.66385227 0.78328052
v 5.56603649 4.65885264 0.90348865
v 5.56603655 4.55885225 0.90348865
v 5.63674715 4.65885264 0.83277794
v 5.63674721 4.55885225 0.83277794
v 5.51653912 4.65885264 0.71256995
v 5.51653912 4.55885225 0.71256995
v 5.48118373 4.55885225 0.70549877
v 5.48825487 4.55885225 0.71256995
v 5.48825481 4.65885264 0.71256995
v 5.48118373 4.65885264 0.70549877
v 5.44229289 4.56385237 0.78681603
v 5.44125559 4.56385237 0.78530273
v 5.44083401 4.56385237 0.78351698
v 5.44108501 4.56385237 0.78169933
v 5.55896553 4.56385237 0.90348865
v 5.55896541 4.65385252 0.90348865
v 5.45876273 4.56385237 0.72866638
v 5.45876267 4.65385252 0.72866638
v 5.6296761 4.65385252 0.83277794
v 5.62967616 4.56385237 0.83277794
v 5.51446804 4.56385237 0.71756995
v 5.51446798 4.65385252 0.71756995
v 5.48618379 4.56385237 0.71756995
v 5.48618373 4.65385252 0.71756995
v 5.46350613 4.56385237 0.73024756
v 5.48118373 4.56385237 0.71256995
v 5.48118373 4.65385252 0.71256995
v 5.46350613 4.65385252 0.73024756
vt -0.620000005 0.400047004
vt -0.730000019 0.400047004
vt -0.620000005 0.396510988
vt -0.620000005 0.396510988
vt -0.730000019 0.400047004
vt -0.730000019 0.396510988
vt -0.25999999 0.400047004
vt -0.370000005 0.400047004
vt -0.25999999 0.396510988
vt -0.25999999 0.396510988
vt -0.370000005 0.400047004
vt -0.370000005 0.396510988
vt 0 0.38944
vt 0 0.460150987
vt -0.0900000036 0.38944
vt -0.0900000036 0.38944
vt 0 0.460150987
vt -0.0900000036 0.460150987
vt -1.53277802 0.460150987
vt -1.60348904 0.38944
vt -1.41756999 0.344942987
vt -1.41756999 0.344942987
vt -1.60348904 0.38944
vt -1.60348904 0.38944
vt -1.41756999 0.344942987
vt -1.60348904 0.38944
vt -1.41756999 0.31665799
vt -1.41756999 0.31665799
vt -1.60348904 0.38944
vt -1.43024802 0.293980986
vt -1.41756999 0.31665799
vt -1.43024802 0.293980986
vt -1.41257 0.311657995
vt 0 1.53277802
vt 0 1.41756999
vt 0.0900000036 1.53277802
vt 0.0900000036 1.53277802
vt 0 1.41756999
vt 0.0900000036 1.41756999
vt 1.53277802 0.460150987
vt 1.41756999 0.344942987
vt 1.60348904 0.38944
vt 1.60348904 0.38944
vt 1.41756999 0.344942987
vt 1.41756999 0.31665799
vt 1.60348904 0.38944
vt 1.41756999 0.31665799
vt 1.43024802 0.293980986
vt 1.43024802 0.293980986
vt 1.41756999 0.31665799
vt 1.41257 0.311657995
vt 0 0.344942987
vt 0 0.31665799
vt 0.0900000036 0.344942987
vt 0.0900000036 0.344942987
vt 0 0.31665799
vt 0.0900000036 0.31665799
vt 0 0.31665799
vt 0 0.311657995
vt 0.0900000036 0.31665799
vt 0.0900000036 0.31665799
vt 0 0.311657995
vt 0.0900000036 0.311657995
vt 0 1.41257
vt 0 1.43024802
vt -0.0900000036 1.41257
vt -0.0900000036 1.41257
vt 0 1.43024802
vt -0.0900000036 1.43024802
vt 1.48351705 0.271308988
vt 1.48530304 0.271730006
vt 1.48169994 0.271560013
vt 1.48169994 0.271560013
vt 1.48530304 0.271730006
vt 1.48681605 0.272767007
vt -1.48169994 0.271560013
vt -1.48681605 0.272767007
vt -1.48169994 0.271560013
vt 1.48169994 0.271560013
vt 1.48681605 0.272767007
vt 1.60348904 0.38944
vt -1.48169994 0.271560013
vt -1.60348904 0.38944
vt -1.48169994 0.271560013
vt 1.48169994 0.271560013
vt 1.60348904 0.38944
vt 1.43024802 0.293980986
vt 1.48169994 0.271560013
vt 1.43024802 0.293980986
vt 1.428666 0.289236993
vt 0.0900000036 0.293980986
vt 0 0.293980986
vt 0.0900000036 0.289236993
vt 0.0900000036 0.289236993
vt 0 0.293980986
vt 0 0.289236993
vt -1.41964102 0.297515988
vt -1.48328102 0.276302993
vt -1.41805995 0.292773008
vt -1.41805995 0.292773008
vt -1.48328102 0.276302993
vt -1.48328102 0.276302993
vt -1.41805995 0.292773008
vt -1.48328102 0.276302993
vt -1.48169994 0.271560013
vt -1.48169994 0.271560013
vt -1.48328102 0.276302993
vt -1.48328102 0.276302993
vt -1.48169994 0.271560013
vt -1.48328102 0.276302993
vt -1.48351705 0.271308988
vt -1.48351705 0.271308988
vt -1.48328102 0.276302993
vt -1.48328102 0.276302993
vt -1.48351705 0.271308988
vt -1.48328102 0.276302993
vt -1.48530304 0.271730006
vt -1.48530304 0.271730006
vt -1.48328102 0.276302993
vt -1.48328102 0.276302993
vt -1.48530304 0.271730006
vt -1.48328102 0.276302993
vt -1.48681605 0.272767007
vt -1.48681605 0.272767007
vt -1.48328102 0.276302993
vt -1.48328102 0.276302993
vt -1.48681605 0.272767007
vt -1.48328102 0.276302993
vt -1.61056006 0.396510988
vt -1.61056006 0.396510988
vt -1.48328102 0.276302993
vt -1.60702395 0.400047004
vt -0.100000001 0.297515988
vt -0.100000001 0.292773008
vt -0.0949999988 0.297515988
vt -1.41964102 0.297515988
vt -1.41805995 0.292773008
vt -1.41805995 0.292773008
vt -0.0949999988 0.297515988
vt -0.100000001 0.292773008
vt 0.00499999989 0.297515988
vt 0.00499999989 0.297515988
vt -0.100000001 0.292773008
vt 0.00999999978 0.292773008
vt 0.00499999989 0.297515988
vt 0.00999999978 0.292773008
vt 0.00999999978 0.297515988
vt -0.100000001 1.41964102
vt -0.0949999988 1.41964102
vt -0.100000001 1.48328102
vt -0.100000001 1.48328102
vt -0.0949999988 1.41964102
vt -0.0949999988 1.48328102
vt -0.0949999988 0.276302993
vt -0.0949999988 0.396510988
vt -0.100000001 0.276302993
vt -1.48328102 0.276302993
vt -1.60348904 0.396510988
vt -1.60348904 0.396510988
vt -0.100000001 1.48328102
vt -0.0949999988 1.60348904
vt -0.100000001 1.60702395
vt -0.100000001 1.60702395
vt -0.0949999988 1.60348904
vt 0.00499999989 1.60348904
vt -0.100000001 1.60702395
vt 0.00499999989 1.60348904
vt 0.00999999978 1.60702395
vt -1.60702395 0.400047004
vt -1.60348904 0.396510988
vt -1.60348904 0.396510988
vt 0.00999999978 1.60702395
vt 0.00499999989 1.60348904
vt 0.00999999978 1.48328102
vt 0.00999999978 0.276302993
vt 0.00499999989 0.396510988
vt 0.00499999989 0.276302993
vt -1.53277802 0.467222005
vt -1.60348904 0.396510988
vt -1.41257 0.34701401
vt -1.41257 0.34701401
vt -1.60348904 0.396510988
vt -1.48328102 0.276302993
vt -1.41257 0.34701401
vt -1.48328102 0.276302993
vt -1.41257 0.318729013
vt -1.41257 0.318729013
vt -1.48328102 0.276302993
vt -1.41964102 0.297515988
vt -1.41257 0.318729013
vt -1.41964102 0.297515988
vt -1.40549898 0.311657995
vt 0.0949999988 0.396510988
vt 0.0949999988 0.467222005
vt -0.00499999989 0.396510988
vt -0.00499999989 0.396510988
vt 0.0949999988 0.467222005
vt -0.00499999989 0.467222005
vt -0.0949999988 0.467222005
vt -0.0949999988 0.34701401
vt 0.00499999989 0.467222005
vt 0.00499999989 1.53277802
vt -0.0949999988 1.41257
vt 0.00499999989 1.41257
vt 1.53277802 0.467222005
vt 1.41257 0.34701401
vt 1.60348904 0.396510988
vt -1.60348904 0.396510988
vt -1.41257 0.34701401
vt -1.41257 0.34701401
vt 1.60348904 0.396510988
vt 1.41257 0.34701401
vt 1.48328102 0.276302993
vt 1.48328102 0.276302993
vt 1.41257 0.34701401
vt 1.41257 0.318729013
vt 1.48328102 0.276302993
vt 1.41257 0.318729013
vt 1.41964102 0.297515988
vt 1.41964102 0.297515988
vt 1.41257 0.318729013
vt 1.40549898 0.311657995
vt -0.0949999988 0.297515988
vt 0.00499999989 0.297515988
vt -0.0949999988 0.311657995
vt -0.0949999988 0.311657995
vt 0.00499999989 0.297515988
vt 0.00499999989 0.311657995
vt 0.00499999989 1.41964102
vt 0.00999999978 1.41964102
vt 0.00499999989 1.48328102
vt 0.00499999989 1.48328102
vt 0.00999999978 1.41964102
vt 0.00999999978 1.48328102
vt -1.428666 0.289236993
vt -1.43024802 0.293980986
vt -1.48169994 0.271560013
vt -1.48169994 0.271560013
vt -1.43024802 0.293980986
vt -1.60348904 0.38944
vt -1.48169994 0.271560013
vt -1.60348904 0.38944
vt -1.48169994 0.271560013
vt -1.48169994 0.271560013
vt -1.60348904 0.38944
vt -1.48681605 0.272767007
vt -1.48169994 0.271560013
vt -1.48681605 0.272767007
vt -1.48169994 0.271560013
vt -1.48169994 0.271560013
vt -1.48681605 0.272767007
vt -1.48530304 0.271730006
vt -1.48169994 0.271560013
vt -1.48530304 0.271730006
vt -1.48351705 0.271308988
vt -0.00999999978 0.396510988
vt 0.100000001 0.396510988
vt -0.00999999978 0.400047004
vt -0.00999999978 0.400047004
vt 0.100000001 0.396510988
vt 0.100000001 0.400047004
vt -0.360000014 0.38944
vt -0.360000014 0.460150987
vt -0.449999988 0.38944
vt -0.449999988 0.38944
vt -0.360000014 0.460150987
vt -0.449999988 0.460150987
vt -1.53277802 0.460150987
vt -1.60348904 0.38944
vt -1.41756999 0.344942987
vt -1.41756999 0.344942987
vt -1.60348904 0.38944
vt -1.60348904 0.38944
vt -1.41756999 0.344942987
vt -1.60348904 0.38944
vt -1.41756999 0.31665799
vt -1.41756999 0.31665799
vt -1.60348904 0.38944
vt -1.43024802 0.293980986
vt -1.41756999 0.31665799
vt -1.43024802 0.293980986
vt -1.41257 0.311657995
vt 0.360000014 1.53277802
vt 0.360000014 1.41756999
vt 0.449999988 1.53277802
vt 0.449999988 1.53277802
vt 0.360000014 1.41756999
vt 0.449999988 1.41756999
vt 1.53277802 0.460150987
vt 1.41756999 0.344942987
vt 1.60348904 0.38944
vt 1.60348904 0.38944
vt 1.41756999 0.344942987
vt 1.41756999 0.31665799
vt 1.60348904 0.38944
vt 1.41756999 0.31665799
vt 1.43024802 0.293980986
vt 1.43024802 0.293980986
vt 1.41756999 0.31665799
vt 1.41257 0.311657995
vt 0.360000014 0.344942987
vt 0.360000014 0.31665799
vt 0.449999988 0.344942987
vt 0.449999988 0.344942987
vt 0.360000014 0.31665799
vt 0.449999988 0.31665799
vt 0.360000014 0.31665799
vt 0.360000014 0.311657995
vt 0.449999988 0.31665799
vt 0.449999988 0.31665799
vt 0.360000014 0.311657995
vt 0.449999988 0.311657995
vt -0.360000014 1.41257
vt -0.360000014 1.43024802
vt -0.449999988 1.41257
vt -0.449999988 1.41257
vt -0.360000014 1.43024802
vt -0.449999988 1.43024802
vt 0.449999988 0.293980986
vt 0.360000014 0.293980986
vt 0.449999988 0.289236993
vt 0.449999988 0.289236993
vt 0.360000014 0.293980986
vt 0.360000014 0.289236993
vt 1.428666 0.289236993
vt 1.48169994 0.271560013
vt 1.43024802 0.293980986
vt -1.43024802 0.293980986
vt -1.48169994 0.271560013
vt -1.48169994 0.271560013
vt 1.43024802 0.293980986
vt 1.48169994 0.271560013
vt 1.60348904 0.38944
vt -1.60348904 0.38944
vt -1.48169994 0.271560013
vt -1.48169994 0.271560013
vt 1.60348904 0.38944
vt 1.48169994 0.271560013
vt 1.48681605 0.272767007
vt -1.48681605 0.272767007
vt -1.48169994 0.271560013
vt -1.48169994 0.271560013
vt 1.48681605 0.272767007
vt 1.48169994 0.271560013
vt 1.48530304 0.271730006
vt 1.48530304 0.271730006
vt 1.48169994 0.271560013
vt 1.48351705 0.271308988
vt 0.360000014 0.38944
vt 0.360000014 0.460150987
vt 0.270000011 0.38944
vt 0.270000011 0.38944
vt 0.360000014 0.460150987
vt 0.270000011 0.460150987
vt -0.460000008 1.41964102
vt -0.455000013 1.41964102
vt -0.460000008 1.48328102
vt -0.460000008 1.48328102
vt -0.455000013 1.41964102
vt -0.455000013 1.48328102
vt -1.60702395 0.400047004
vt -1.61056006 0.396510988
vt -1.48328102 0.276302993
vt -1.48328102 0.276302993
vt -1.61056006 0.396510988
vt -1.48681605 0.272767007
vt -1.48328102 0.276302993
vt -1.48681605 0.272767007
vt -1.48328102 0.276302993
vt -1.48328102 0.276302993
vt -1.48681605 0.272767007
vt -1.48530304 0.271730006
vt -1.48328102 0.276302993
vt -1.48530304 0.271730006
vt -1.48328102 0.276302993
vt -1.48328102 0.276302993
vt -1.48530304 0.271730006
vt -1.48351705 0.271308988
vt -1.48328102 0.276302993
vt -1.48351705 0.271308988
vt -1.48328102 0.276302993
vt -1.48328102 0.276302993
vt -1.48351705 0.271308988
vt -1.48169994 0.271560013
vt -1.48328102 0.276302993
vt -1.48169994 0.271560013
vt -1.48328102 0.276302993
vt -1.48328102 0.276302993
vt -1.48169994 0.271560013
vt -1.41805995 0.292773008
vt -1.48328102 0.276302993
vt -1.41805995 0.292773008
vt -1.41964102 0.297515988
vt -0.455000013 0.276302993
vt -0.455000013 0.396510988
vt -0.460000008 0.276302993
vt -1.48328102 0.276302993
vt -1.60348904 0.396510988
vt -1.60348904 0.396510988
vt -0.460000008 1.48328102
vt -0.455000013 1.60348904
vt -0.460000008 1.60702395
vt -0.460000008 1.60702395
vt -0.455000013 1.60348904
vt -0.354999989 1.60348904
vt -0.460000008 1.60702395
vt -0.354999989 1.60348904
vt -0.349999994 1.60702395
vt -1.60702395 0.400047004
vt -1.60348904 0.396510988
vt -1.60348904 0.396510988
vt -0.349999994 1.60702395
vt -0.354999989 1.60348904
vt -0.349999994 1.48328102
vt -0.349999994 0.276302993
vt -0.354999989 0.396510988
vt -0.354999989 0.276302993
vt -1.53277802 0.467222005
vt -1.60348904 0.396510988
vt -1.41257 0.34701401
vt -1.41257 0.34701401
vt -1.60348904 0.396510988
vt -1.48328102 0.276302993
vt -1.41257 0.34701401
vt -1.48328102 0.276302993
vt -1.41257 0.318729013
vt -1.41257 0.318729013
vt -1.48328102 0.276302993
vt -1.41964102 0.297515988
vt -1.41257 0.318729013
vt -1.41964102 0.297515988
vt -1.40549898 0.311657995
vt 0.455000013 0.396510988
vt 0.455000013 0.467222005
vt 0.354999989 0.396510988
vt 0.354999989 0.396510988
vt 0.455000013 0.467222005
vt 0.354999989 0.467222005
vt -0.455000013 1.53277802
vt -0.455000013 1.41257
vt -0.354999989 1.53277802
vt -0.354999989 1.53277802
vt -0.455000013 1.41257
vt -0.354999989 1.41257
vt 1.53277802 0.467222005
vt 1.41257 0.34701401
vt 1.60348904 0.396510988
vt -1.60348904 0.396510988
vt -1.41257 0.34701401
vt -1.41257 0.34701401
vt 1.60348904 0.396510988
vt 1.41257 0.34701401
vt 1.48328102 0.276302993
vt 1.48328102 0.276302993
vt 1.41257 0.34701401
vt 1.41257 0.318729013
vt 1.48328102 0.276302993
vt 1.41257 0.318729013
vt 1.41964102 0.297515988
vt 1.41964102 0.297515988
vt 1.41257 0.318729013
vt 1.40549898 0.311657995
vt -0.455000013 0.297515988
vt -0.354999989 0.297515988
vt -0.455000013 0.311657995
vt -0.455000013 0.311657995
vt -0.354999989 0.297515988
vt -0.354999989 0.311657995
vt -1.428666 0.289236993
vt -1.43024802 0.293980986
vt -1.48169994 0.271560013
vt -1.48169994 0.271560013
vt -1.43024802 0.293980986
vt -1.60348904 0.38944
vt -1.48169994 0.271560013
vt -1.60348904 0.38944
vt -1.48169994 0.271560013
vt -1.48169994 0.271560013
vt -1.60348904 0.38944
vt -1.48681605 0.272767007
vt -1.48169994 0.271560013
vt -1.48681605 0.272767007
vt -1.48169994 0.271560013
vt -1.48169994 0.271560013
vt -1.48681605 0.272767007
vt -1.48530304 0.271730006
vt -1.48169994 0.271560013
vt -1.48530304 0.271730006
vt -1.48351705 0.271308988
vt 0.370000005 0.297515988
vt 0.36500001 0.297515988
vt 0.370000005 0.292773008
vt -1.41805995 0.292773008
vt -1.41964102 0.297515988
vt -1.41964102 0.297515988
vt 0.370000005 0.292773008
vt 0.36500001 0.297515988
vt 0.25999999 0.292773008
vt 0.25999999 0.292773008
vt 0.36500001 0.297515988
vt 0.264999986 0.297515988
vt 0.25999999 0.292773008
vt 0.264999986 0.297515988
vt 0.25999999 0.297515988
vt -0.349999994 0.297515988
vt -0.354999989 0.297515988
vt -0.349999994 0.292773008
vt -1.41805995 0.292773008
vt -1.41964102 0.297515988
vt -1.41964102 0.297515988
vt -0.349999994 0.292773008
vt -0.354999989 0.297515988
vt -0.460000008 0.292773008
vt -0.460000008 0.292773008
vt -0.354999989 0.297515988
vt -0.455000013 0.297515988
vt -0.460000008 0.292773008
vt -0.455000013 0.297515988
vt -0.460000008 0.297515988
vt 0.349999994 0.396510988
vt 0.460000008 0.396510988
vt 0.349999994 0.400047004
vt 0.349999994 0.400047004
vt 0.460000008 0.396510988
vt 0.460000008 0.400047004
vt -0.720000029 0.38944
vt -0.720000029 0.460150987
vt -0.810000002 0.38944
vt -0.810000002 0.38944
vt -0.720000029 0.460150987
vt -0.810000002 0.460150987
vt -1.53277802 0.460150987
vt -1.60348904 0.38944
vt -1.41756999 0.344942987
vt -1.41756999 0.344942987
vt -1.60348904 0.38944
vt -1.60348904 0.38944
vt -1.41756999 0.344942987
vt -1.60348904 0.38944
vt -1.41756999 0.31665799
vt -1.41756999 0.31665799
vt -1.60348904 0.38944
vt -1.43024802 0.293980986
vt -1.41756999 0.31665799
vt -1.43024802 0.293980986
vt -1.41257 0.311657995
vt 0.720000029 1.53277802
vt 0.720000029 1.41756999
vt 0.810000002 1.53277802
vt 0.810000002 1.53277802
vt 0.720000029 1.41756999
vt 0.810000002 1.41756999
vt 1.53277802 0.460150987
vt 1.41756999 0.344942987
vt 1.60348904 0.38944
vt 1.60348904 0.38944
vt 1.41756999 0.344942987
vt 1.41756999 0.31665799
vt 1.60348904 0.38944
vt 1.41756999 0.31665799
vt 1.43024802 0.293980986
vt 1.43024802 0.293980986
vt 1.41756999 0.31665799
vt 1.41257 0.311657995
vt 0.720000029 0.344942987
vt 0.720000029 0.31665799
vt 0.810000002 0.344942987
vt 0.810000002 0.344942987
vt 0.720000029 0.31665799
vt 0.810000002 0.31665799
vt 0.720000029 0.31665799
vt 0.720000029 0.311657995
vt 0.810000002 0.31665799
vt 0.810000002 1.41756999
vt 0.720000029 1.41257
vt 0.810000002 1.41257
vt -0.720000029 1.41257
vt -0.720000029 1.43024802
vt -0.810000002 1.41257
vt -0.810000002 1.41257
vt -0.720000029 1.43024802
vt -0.810000002 1.43024802
vt 1.48351705 0.271308988
vt 1.48530304 0.271730006
vt 1.48169994 0.271560013
vt 1.48169994 0.271560013
vt 1.48530304 0.271730006
vt 1.48681605 0.272767007
vt -1.48169994 0.271560013
vt -1.48681605 0.272767007
vt -1.48169994 0.271560013
vt 1.48169994 0.271560013
vt 1.48681605 0.272767007
vt 1.60348904 0.38944
vt -1.48169994 0.271560013
vt -1.60348904 0.38944
vt -1.48169994 0.271560013
vt 1.48169994 0.271560013
vt 1.60348904 0.38944
vt 1.43024802 0.293980986
vt 1.48169994 0.271560013
vt 1.43024802 0.293980986
vt 1.428666 0.289236993
vt 0.810000002 0.293980986
vt 0.720000029 0.293980986
vt 0.810000002 0.289236993
vt 0.810000002 0.289236993
vt 0.720000029 0.293980986
vt 0.720000029 0.289236993
vt -1.41964102 0.297515988
vt -1.48328102 0.276302993
vt -1.41805995 0.292773008
vt -1.41805995 0.292773008
vt -1.48328102 0.276302993
vt -1.48328102 0.276302993
vt -1.41805995 0.292773008
vt -1.48328102 0.276302993
vt -1.48169994 0.271560013
vt -1.48169994 0.271560013
vt -1.48328102 0.276302993
vt -1.48328102 0.276302993
vt -1.48169994 0.271560013
vt -1.48328102 0.276302993
vt -1.48351705 0.271308988
vt -1.48351705 0.271308988
vt -1.48328102 0.276302993
vt -1.48328102 0.276302993
vt -1.48351705 0.271308988
vt -1.48328102 0.276302993
vt -1.48530304 0.271730006
vt -1.48530304 0.271730006
vt -1.48328102 0.276302993
vt -1.48328102 0.276302993
vt -1.48530304 0.271730006
vt -1.48328102 0.276302993
vt -1.48681605 0.272767007
vt -1.48681605 0.272767007
vt -1.48328102 0.276302993
vt -1.48328102 0.276302993
vt -1.48681605 0.272767007
vt -1.48328102 0.276302993
vt -1.61056006 0.396510988
vt -1.61056006 0.396510988
vt -1.48328102 0.276302993
vt -1.60702395 0.400047004
vt -0.819999993 0.297515988
vt -0.819999993 0.292773008
vt -0.814999998 0.297515988
vt -1.41964102 0.297515988
vt -1.41805995 0.292773008
vt -1.41805995 0.292773008
vt -0.814999998 0.297515988
vt -0.819999993 0.292773008
vt -0.714999974 0.297515988
vt -0.714999974 0.297515988
vt -0.819999993 0.292773008
vt -0.709999979 0.292773008
vt -0.714999974 0.297515988
vt -0.709999979 0.292773008
vt -0.709999979 0.297515988
vt -0.819999993 1.41964102
vt -0.814999998 1.41964102
vt -0.819999993 1.48328102
vt -0.819999993 1.48328102
vt -0.814999998 1.41964102
vt -0.814999998 1.48328102
vt -0.814999998 0.276302993
vt -0.814999998 0.396510988
vt -0.819999993 0.276302993
vt -1.48328102 0.276302993
vt -1.60348904 0.396510988
vt -1.60348904 0.396510988
vt -0.819999993 1.48328102
vt -0.814999998 1.60348904
vt -0.819999993 1.60702395
vt -0.819999993 1.60702395
vt -0.814999998 1.60348904
vt -0.714999974 1.60348904
vt -0.819999993 1.60702395
vt -0.714999974 1.60348904
vt -0.709999979 1.60702395
vt -1.60702395 0.400047004
vt -1.60348904 0.396510988
vt -1.60348904 0.396510988
vt -0.709999979 1.60702395
vt -0.714999974 1.60348904
vt -0.709999979 1.48328102
vt -0.709999979 0.276302993
vt -0.714999974 0.396510988
vt -0.714999974 0.276302993
vt -1.53277802 0.467222005
vt -1.60348904 0.396510988
vt -1.41257 0.34701401
vt -1.41257 0.34701401
vt -1.60348904 0.396510988
vt -1.48328102 0.276302993
vt -1.41257 0.34701401
vt -1.48328102 0.276302993
vt -1.41257 0.318729013
vt -1.41257 0.318729013
vt -1.48328102 0.276302993
vt -1.41964102 0.297515988
vt -1.41257 0.318729013
vt -1.41964102 0.297515988
vt -1.40549898 0.311657995
vt 0.814999998 0.396510988
vt 0.814999998 0.467222005
vt 0.714999974 0.396510988
vt 0.714999974 0.396510988
vt 0.814999998 0.467222005
vt 0.714999974 0.467222005
vt -0.814999998 0.467222005
vt -0.814999998 0.34701401
vt -0.714999974 0.467222005
vt -0.714999974 1.53277802
vt -0.814999998 1.41257
vt -0.714999974 1.41257
vt 1.53277802 0.467222005
vt 1.41257 0.34701401
vt 1.60348904 0.396510988
vt -1.60348904 0.396510988
vt -1.41257 0.34701401
vt -1.41257 0.34701401
vt 1.60348904 0.396510988
vt 1.41257 0.34701401
vt 1.48328102 0.276302993
vt 1.48328102 0.276302993
vt 1.41257 0.34701401
vt 1.41257 0.318729013
vt 1.48328102 0.276302993
vt 1.41257 0.318729013
vt 1.41964102 0.297515988
vt 1.41964102 0.297515988
vt 1.41257 0.318729013
vt 1.40549898 0.311657995
vt -0.814999998 0.34701401
vt -0.814999998 0.318729013
vt -0.714999974 0.34701401
vt -0.714999974 0.34701401
vt -0.814999998 0.318729013
vt -0.714999974 0.318729013
vt -0.814999998 0.297515988
vt -0.714999974 0.297515988
vt -0.814999998 0.311657995
vt -0.814999998 0.311657995
vt -0.714999974 0.297515988
vt -0.714999974 0.311657995
vt -1.428666 0.289236993
vt -1.43024802 0.293980986
vt -1.48169994 0.271560013
vt -1.48169994 0.271560013
vt -1.43024802 0.293980986
vt -1.60348904 0.38944
vt -1.48169994 0.271560013
vt -1.60348904 0.38944
vt -1.48169994 0.271560013
vt -1.48169994 0.271560013
vt -1.60348904 0.38944
vt -1.48681605 0.272767007
vt -1.48169994 0.271560013
vt -1.48681605 0.272767007
vt -1.48169994 0.271560013
vt -1.48169994 0.271560013
vt -1.48681605 0.272767007
vt -1.48530304 0.271730006
vt -1.48169994 0.271560013
vt -1.48530304 0.271730006
vt -1.48351705 0.271308988
vt 0.709999979 0.396510988
vt 0.819999993 0.396510988
vt 0.709999979 0.400047004
vt 0.709999979 0.400047004
vt 0.819999993 0.396510988
vt 0.819999993 0.400047004
vt -1.48351705 0.271308988
vt -1.48169994 0.271560013
vt -1.48530304 0.271730006
vt -1.48530304 0.271730006
vt -1.48169994 0.271560013
vt -1.48169994 0.271560013
vt -1.48530304 0.271730006
vt -1.48169994 0.271560013
vt -1.48681605 0.272767007
vt -1.48681605 0.272767007
vt -1.48169994 0.271560013
vt -1.48169994 0.271560013
vt -1.48681605 0.272767007
vt -1.48169994 0.271560013
vt -1.60348904 0.38944
vt -1.60348904 0.38944
vt -1.48169994 0.271560013
vt -1.43024802 0.293980986
vt -1.60348904 0.38944
vt -1.43024802 0.293980986
vt -1.41756999 0.31665799
vt -1.41756999 0.31665799
vt -1.43024802 0.293980986
vt -1.41257 0.311657995
vt -1.48169994 0.271560013
vt -1.428666 0.289236993
vt -1.43024802 0.293980986
vt -1.41756999 0.31665799
vt -1.41756999 0.344942987
vt -1.60348904 0.38944
vt -1.60348904 0.38944
vt -1.41756999 0.344942987
vt -1.53277802 0.460150987
vt -0.360000014 0.289236993
vt -0.270000011 0.289236993
vt -0.360000014 0.293980986
vt -0.360000014 0.293980986
vt -0.270000011 0.289236993
vt -0.270000011 0.293980986
vt 1.40549898 0.311657995
vt 1.41964102 0.297515988
vt 1.41257 0.318729013
vt 1.41257 0.318729013
vt 1.41964102 0.297515988
vt 1.48328102 0.276302993
vt 1.41257 0.318729013
vt 1.48328102 0.276302993
vt 1.41257 0.34701401
vt 1.41257 0.34701401
vt 1.48328102 0.276302993
vt 1.60348904 0.396510988
vt 1.41257 0.34701401
vt 1.60348904 0.396510988
vt 1.53277802 0.467222005
vt 0.36500001 0.311657995
vt 0.264999986 0.311657995
vt 0.36500001 0.297515988
vt 0.36500001 0.297515988
vt 0.264999986 0.311657995
vt 0.264999986 0.297515988
vt -1.40549898 0.311657995
vt -1.41257 0.318729013
vt -1.41964102 0.297515988
vt -1.41964102 0.297515988
vt -1.41257 0.318729013
vt -1.41257 0.318729013
vt -1.41964102 0.297515988
vt -1.41257 0.318729013
vt -1.48328102 0.276302993
vt -1.48328102 0.276302993
vt -1.41257 0.318729013
vt -1.41257 0.34701401
vt -1.48328102 0.276302993
vt -1.41257 0.34701401
vt -1.60348904 0.396510988
vt -1.60348904 0.396510988
vt -1.41257 0.34701401
vt -1.53277802 0.467222005
vt 0.36500001 1.41257
vt 0.36500001 1.53277802
vt 0.264999986 1.41257
vt 0.264999986 0.34701401
vt 0.36500001 0.467222005
vt 0.264999986 0.467222005
vt -0.36500001 0.467222005
vt -0.36500001 0.396510988
vt -0.264999986 0.467222005
vt -0.264999986 0.467222005
vt -0.36500001 0.396510988
vt -0.264999986 0.396510988
vt 0.264999986 0.276302993
vt 0.264999986 0.396510988
vt 0.25999999 0.276302993
vt -1.48328102 0.276302993
vt -1.60348904 0.396510988
vt -1.60348904 0.396510988
vt 0.25999999 1.48328102
vt 0.264999986 1.60348904
vt 0.25999999 1.60702395
vt 0.25999999 1.60702395
vt 0.264999986 1.60348904
vt 0.36500001 1.60348904
vt 0.25999999 1.60702395
vt 0.36500001 1.60348904
vt 0.370000005 1.60702395
vt -1.60702395 0.400047004
vt -1.60348904 0.396510988
vt -1.60348904 0.396510988
vt 0.370000005 1.60702395
vt 0.36500001 1.60348904
vt 0.370000005 1.48328102
vt 0.370000005 0.276302993
vt 0.36500001 0.396510988
vt 0.36500001 0.276302993
vt 0.264999986 1.48328102
vt 0.25999999 1.48328102
vt 0.264999986 1.41964102
vt 0.264999986 1.41964102
vt 0.25999999 1.48328102
vt 0.25999999 1.41964102
vt -1.60702395 0.400047004
vt -1.61056006 0.396510988
vt -1.48328102 0.276302993
vt -1.48328102 0.276302993
vt -1.61056006 0.396510988
vt -1.48681605 0.272767007
vt -1.48328102 0.276302993
vt -1.48681605 0.272767007
vt -1.48328102 0.276302993
vt -1.48328102 0.276302993
vt -1.48681605 0.272767007
vt -1.48530304 0.271730006
vt -1.48328102 0.276302993
vt -1.48530304 0.271730006
vt -1.48328102 0.276302993
vt -1.48328102 0.276302993
vt -1.48530304 0.271730006
vt -1.48351705 0.271308988
vt -1.48328102 0.276302993
vt -1.48351705 0.271308988
vt -1.48328102 0.276302993
vt -1.48328102 0.276302993
vt -1.48351705 0.271308988
vt -1.48169994 0.271560013
vt -1.48328102 0.276302993
vt -1.48169994 0.271560013
vt -1.48328102 0.276302993
vt -1.48328102 0.276302993
vt -1.48169994 0.271560013
vt -1.41805995 0.292773008
vt -1.48328102 0.276302993
vt -1.41805995 0.292773008
vt -1.41964102 0.297515988
vt 1.428666 0.289236993
vt 1.48169994 0.271560013
vt 1.43024802 0.293980986
vt 1.43024802 0.293980986
vt 1.48169994 0.271560013
vt 1.60348904 0.38944
vt 1.43024802 0.293980986
vt 1.60348904 0.38944
vt 1.41756999 0.31665799
vt -1.41756999 0.31665799
vt -1.60348904 0.38944
vt -1.60348904 0.38944
vt 1.41756999 0.31665799
vt 1.60348904 0.38944
vt 1.41756999 0.344942987
vt 1.41756999 0.344942987
vt 1.60348904 0.38944
vt 1.53277802 0.460150987
vt 1.43024802 0.293980986
vt 1.41756999 0.31665799
vt 1.41257 0.311657995
vt 1.60348904 0.38944
vt 1.48169994 0.271560013
vt 1.48681605 0.272767007
vt -1.48681605 0.272767007
vt -1.48169994 0.271560013
vt -1.48169994 0.271560013
vt 1.48681605 0.272767007
vt 1.48169994 0.271560013
vt 1.48530304 0.271730006
vt 1.48530304 0.271730006
vt 1.48169994 0.271560013
vt 1.48351705 0.271308988
vt 0.270000011 1.43024802
vt 0.270000011 1.41257
vt 0.360000014 1.43024802
vt 0.360000014 1.43024802
vt 0.270000011 1.41257
vt 0.360000014 1.41257
vt -0.270000011 1.41257
vt -0.270000011 1.41756999
vt -0.360000014 1.41257
vt -0.360000014 0.311657995
vt -0.270000011 0.31665799
vt -0.360000014 0.31665799
vt -0.270000011 0.31665799
vt -0.270000011 0.344942987
vt -0.360000014 0.31665799
vt -0.360000014 0.31665799
vt -0.270000011 0.344942987
vt -0.360000014 0.344942987
vt -0.270000011 1.41756999
vt -0.270000011 1.53277802
vt -0.360000014 1.41756999
vt -0.360000014 1.41756999
vt -0.270000011 1.53277802
vt -0.360000014 1.53277802
vt 0.360000014 0.38944
vt 0.349999994 0.272767007
vt 0.360000014 0.272767007
vt 0.360000014 1.48681605
vt 0.349999994 1.48681605
vt 0.349999994 1.48530304
vt 0.360000014 1.48681605
vt 0.349999994 1.48530304
vt 0.360000014 1.48530304
vt 0.360000014 1.48530304
vt 0.349999994 1.48530304
vt 0.349999994 1.48351705
vt 0.360000014 1.48530304
vt 0.349999994 1.48351705
vt 0.360000014 1.48351705
vt 0.360000014 1.48351705
vt 0.349999994 1.48351705
vt 0.349999994 1.48169994
vt 0.360000014 1.48351705
vt 0.349999994 1.48169994
vt 0.360000014 1.48169994
vt -1.48169994 0.271560013
vt -1.48169994 0.271560013
vt -1.48169994 0.271560013
vt 0.360000014 1.48169994
vt 0.349999994 1.48169994
vt 0.360000014 1.428666
vt 0.360000014 1.428666
vt 0.349999994 1.48169994
vt 0.349999994 1.41805995
vt -1.428666 0.289236993
vt -1.41805995 0.292773008
vt -1.428666 0.289236993
vt 0.360000014 1.428666
vt 0.349999994 1.41805995
vt 0.460000008 1.41805995
vt 0.360000014 1.428666
vt 0.460000008 1.41805995
vt 0.449999988 1.428666
vt 0.449999988 1.428666
vt 0.460000008 1.41805995
vt 0.460000008 1.48169994
vt 0.449999988 1.428666
vt 0.460000008 1.48169994
vt 0.449999988 1.48169994
vt 0.449999988 1.48169994
vt 0.460000008 1.48169994
vt 0.460000008 1.48351705
vt 0.449999988 1.48169994
vt 0.460000008 1.48351705
vt 0.449999988 1.48351705
vt 0.449999988 1.48351705
vt 0.460000008 1.48351705
vt 0.460000008 1.48530304
vt 0.449999988 1.48351705
vt 0.460000008 1.48530304
vt 0.449999988 1.48530304
vt 0.449999988 1.48530304
vt 0.460000008 1.48530304
vt 0.460000008 1.48681605
vt 0.449999988 1.48530304
vt 0.460000008 1.48681605
vt 0.449999988 1.48681605
vt -1.48681605 0.272767007
vt -1.48681605 0.272767007
vt -1.48681605 0.272767007
vt 0.449999988 0.272767007
vt 0.460000008 0.272767007
vt 0.449999988 0.38944
vt 0.449999988 1.60348904
vt 0.460000008 1.48681605
vt 0.460000008 1.61056006
vt 0.449999988 1.60348904
vt 0.460000008 1.61056006
vt 0.360000014 1.60348904
vt 0.360000014 1.60348904
vt 0.460000008 1.61056006
vt 0.349999994 1.61056006
vt 0.360000014 1.60348904
vt 0.349999994 1.61056006
vt 0.349999994 1.48681605
vt -0.270000011 1.60348904
vt -0.25999999 1.61056006
vt -0.360000014 1.60348904
vt -0.360000014 1.60348904
vt -0.25999999 1.61056006
vt -0.370000005 1.61056006
vt -1.60348904 0.38944
vt -1.61056006 0.396510988
vt -1.60348904 0.38944
vt -0.360000014 1.60348904
vt -0.370000005 1.61056006
vt -0.370000005 1.48681605
vt -0.360000014 0.38944
vt -0.370000005 0.272767007
vt -0.360000014 0.272767007
vt -0.360000014 1.48681605
vt -0.370000005 1.48681605
vt -0.370000005 1.48530304
vt -0.360000014 1.48681605
vt -0.370000005 1.48530304
vt -0.360000014 1.48530304
vt -0.360000014 1.48530304
vt -0.370000005 1.48530304
vt -0.370000005 1.48351705
vt -0.360000014 1.48530304
vt -0.370000005 1.48351705
vt -0.360000014 1.48351705
vt -0.360000014 1.48351705
vt -0.370000005 1.48351705
vt -0.370000005 1.48169994
vt -0.360000014 1.48351705
vt -0.370000005 1.48169994
vt -0.360000014 1.48169994
vt -1.48169994 0.271560013
vt -1.48169994 0.271560013
vt -1.48169994 0.271560013
vt -0.360000014 1.48169994
vt -0.370000005 1.48169994
vt -0.360000014 1.428666
vt -0.360000014 1.428666
vt -0.370000005 1.48169994
vt -0.370000005 1.41805995
vt -1.428666 0.289236993
vt -1.41805995 0.292773008
vt -1.428666 0.289236993
vt -0.360000014 1.428666
vt -0.370000005 1.41805995
vt -0.25999999 1.41805995
vt -0.360000014 1.428666
vt -0.25999999 1.41805995
vt -0.270000011 1.428666
vt -0.270000011 1.428666
vt -0.25999999 1.41805995
vt -0.25999999 1.48169994
vt -0.270000011 1.428666
vt -0.25999999 1.48169994
vt -0.270000011 1.48169994
vt -0.270000011 1.48169994
vt -0.25999999 1.48169994
vt -0.25999999 1.48351705
vt -0.270000011 1.48169994
vt -0.25999999 1.48351705
vt -0.270000011 1.48351705
vt -0.270000011 1.48351705
vt -0.25999999 1.48351705
vt -0.25999999 1.48530304
vt -0.270000011 1.48351705
vt -0.25999999 1.48530304
vt -0.270000011 1.48530304
vt -0.270000011 1.48530304
vt -0.25999999 1.48530304
vt -0.25999999 1.48681605
vt -0.270000011 1.48530304
vt -0.25999999 1.48681605
vt -0.270000011 1.48681605
vt -1.48681605 0.272767007
vt -1.48681605 0.272767007
vt -1.48681605 0.272767007
vt -0.270000011 0.272767007
vt -0.25999999 0.272767007
vt -0.270000011 0.38944
vt -0.270000011 1.60348904
vt -0.25999999 1.48681605
vt -0.25999999 1.61056006
vt 0.709999979 1.61056006
vt 0.709999979 1.48681605
vt 0.720000029 1.60348904
vt -1.60348904 0.38944
vt -1.48681605 0.272767007
vt -1.48681605 0.272767007
vt 0.720000029 0.38944
vt 0.709999979 0.272767007
vt 0.720000029 0.272767007
vt 0.720000029 1.48681605
vt 0.709999979 1.48681605
vt 0.709999979 1.48530304
vt 0.720000029 1.48681605
vt 0.709999979 1.48530304
vt 0.720000029 1.48530304
vt 0.720000029 1.48530304
vt 0.709999979 1.48530304
vt 0.709999979 1.48351705
vt 0.720000029 1.48530304
vt 0.709999979 1.48351705
vt 0.720000029 1.48351705
vt 0.720000029 1.48351705
vt 0.709999979 1.48351705
vt 0.709999979 1.48169994
vt 0.720000029 1.48351705
vt 0.709999979 1.48169994
vt 0.720000029 1.48169994
vt -1.48169994 0.271560013
vt -1.48169994 0.271560013
vt -1.48169994 0.271560013
vt 0.720000029 1.48169994
vt 0.709999979 1.48169994
vt 0.720000029 1.428666
vt 0.720000029 1.428666
vt 0.709999979 1.48169994
vt 0.709999979 1.41805995
vt -1.428666 0.289236993
vt -1.41805995 0.292773008
vt -1.428666 0.289236993
vt 0.720000029 1.428666
vt 0.709999979 1.41805995
vt 0.819999993 1.41805995
vt 0.720000029 1.428666
vt 0.819999993 1.41805995
vt 0.810000002 1.428666
vt 0.810000002 1.428666
vt 0.819999993 1.41805995
vt 0.819999993 1.48169994
vt 0.810000002 1.428666
vt 0.819999993 1.48169994
vt 0.810000002 1.48169994
vt 0.810000002 1.48169994
vt 0.819999993 1.48169994
vt 0.819999993 1.48351705
vt 0.810000002 1.48169994
vt 0.819999993 1.48351705
vt 0.810000002 1.48351705
vt 0.810000002 1.48351705
vt 0.819999993 1.48351705
vt 0.819999993 1.48530304
vt 0.810000002 1.48351705
vt 0.819999993 1.48530304
vt 0.810000002 1.48530304
vt 0.810000002 1.48530304
vt 0.819999993 1.48530304
vt 0.819999993 1.48681605
vt 0.810000002 1.48530304
vt 0.819999993 1.48681605
vt 0.810000002 1.48681605
vt -1.48681605 0.272767007
vt -1.48681605 0.272767007
vt -1.48681605 0.272767007
vt 0.810000002 0.272767007
vt 0.819999993 0.272767007
vt 0.810000002 0.38944
vt 0.810000002 0.38944
vt 0.819999993 0.272767007
vt 0.819999993 0.396510988
vt 0.810000002 1.60348904
vt 0.819999993 1.61056006
vt 0.720000029 1.60348904
vt 0.720000029 1.60348904
vt 0.819999993 1.61056006
vt 0.709999979 1.61056006
vt -0.00999999978 1.61056006
vt -0.00999999978 1.48681605
vt 0 1.60348904
vt -1.60348904 0.38944
vt -1.48681605 0.272767007
vt -1.48681605 0.272767007
vt 0 0.38944
vt -0.00999999978 0.272767007
vt 0 0.272767007
vt 0 1.48681605
vt -0.00999999978 1.48681605
vt -0.00999999978 1.48530304
vt 0 1.48681605
vt -0.00999999978 1.48530304
vt 0 1.48530304
vt 0 1.48530304
vt -0.00999999978 1.48530304
vt -0.00999999978 1.48351705
vt 0 1.48530304
vt -0.00999999978 1.48351705
vt 0 1.48351705
vt 0 1.48351705
vt -0.00999999978 1.48351705
vt -0.00999999978 1.48169994
vt 0 1.48351705
vt -0.00999999978 1.48169994
vt 0 1.48169994
vt -1.48169994 0.271560013
vt -1.48169994 0.271560013
vt -1.48169994 0.271560013
vt 0 1.48169994
vt -0.00999999978 1.48169994
vt 0 1.428666
vt 0 1.428666
vt -0.00999999978 1.48169994
vt -0.00999999978 1.41805995
vt -1.428666 0.289236993
vt -1.41805995 0.292773008
vt -1.428666 0.289236993
vt 0 1.428666
vt -0.00999999978 1.41805995
vt 0.100000001 1.41805995
vt 0 1.428666
vt 0.100000001 1.41805995
vt 0.0900000036 1.428666
vt 0.0900000036 1.428666
vt 0.100000001 1.41805995
vt 0.100000001 1.48169994
vt 0.0900000036 1.428666
vt 0.100000001 1.48169994
vt 0.0900000036 1.48169994
vt 0.0900000036 1.48169994
vt 0.100000001 1.48169994
vt 0.100000001 1.48351705
vt 0.0900000036 1.48169994
vt 0.100000001 1.48351705
vt 0.0900000036 1.48351705
vt 0.0900000036 1.48351705
vt 0.100000001 1.48351705
vt 0.100000001 1.48530304
vt 0.0900000036 1.48351705
vt 0.100000001 1.48530304
vt 0.0900000036 1.48530304
vt 0.0900000036 1.48530304
vt 0.100000001 1.48530304
vt 0.100000001 1.48681605
vt 0.0900000036 1.48530304
vt 0.100000001 1.48681605
vt 0.0900000036 1.48681605
vt -1.48681605 0.272767007
vt -1.48681605 0.272767007
vt -1.48681605 0.272767007
vt 0.0900000036 0.272767007
vt 0.100000001 0.272767007
vt 0.0900000036 0.38944
vt 0.0900000036 1.60348904
vt 0.100000001 1.48681605
vt 0.100000001 1.61056006
vt 0.0900000036 1.60348904
vt 0.100000001 1.61056006
vt 0 1.60348904
vt 0 1.60348904
vt 0.100000001 1.61056006
vt -0.00999999978 1.61056006
vt -0.730000019 1.48681605
vt -0.730000019 1.48530304
vt -0.720000029 1.48681605
vt -1.48681605 0.272767007
vt -1.48530304 0.271730006
vt -1.48530304 0.271730006
vt -0.720000029 1.48681605
vt -0.730000019 1.48530304
vt -0.720000029 1.48530304
vt -0.720000029 1.48530304
vt -0.730000019 1.48530304
vt -0.730000019 1.48351705
vt -0.720000029 1.48530304
vt -0.730000019 1.48351705
vt -0.720000029 1.48351705
vt -0.720000029 1.48351705
vt -0.730000019 1.48351705
vt -0.730000019 1.48169994
vt -0.720000029 1.48351705
vt -0.730000019 1.48169994
vt -0.720000029 1.48169994
vt -1.60702395 0.400047004
vt -1.61056006 0.396510988
vt -1.48328102 0.276302993
vt -1.48328102 0.276302993
vt -1.61056006 0.396510988
vt -1.48681605 0.272767007
vt -1.48328102 0.276302993
vt -1.48681605 0.272767007
vt -1.48328102 0.276302993
vt -1.48328102 0.276302993
vt -1.48681605 0.272767007
vt -1.48530304 0.271730006
vt -1.48328102 0.276302993
vt -1.48530304 0.271730006
vt -1.48328102 0.276302993
vt -1.48328102 0.276302993
vt -1.48530304 0.271730006
vt -1.48351705 0.271308988
vt -1.48328102 0.276302993
vt -1.48351705 0.271308988
vt -1.48328102 0.276302993
vt -1.48328102 0.276302993
vt -1.48351705 0.271308988
vt -1.48169994 0.271560013
vt -1.48328102 0.276302993
vt -1.48169994 0.271560013
vt -1.48328102 0.276302993
vt -1.48328102 0.276302993
vt -1.48169994 0.271560013
vt -1.41805995 0.292773008
vt -1.48328102 0.276302993
vt -1.41805995 0.292773008
vt -1.41964102 0.297515988
vt 0.730000019 0.297515988
vt 0.725000024 0.297515988
vt 0.730000019 0.292773008
vt -1.41805995 0.292773008
vt -1.41964102 0.297515988
vt -1.41964102 0.297515988
vt 0.730000019 0.292773008
vt 0.725000024 0.297515988
vt 0.620000005 0.292773008
vt 0.620000005 0.292773008
vt 0.725000024 0.297515988
vt 0.625 0.297515988
vt 0.620000005 0.292773008
vt 0.625 0.297515988
vt 0.620000005 0.297515988
vt 0.620000005 1.41964102
vt 0.625 1.41964102
vt 0.620000005 1.48328102
vt 0.620000005 1.48328102
vt 0.625 1.41964102
vt 0.625 1.48328102
vt 0.725000024 0.276302993
vt 0.730000019 0.276302993
vt 0.725000024 0.396510988
vt 0.725000024 1.60348904
vt 0.730000019 1.48328102
vt 0.730000019 1.60702395
vt -1.60348904 0.396510988
vt -1.60702395 0.400047004
vt -1.60348904 0.396510988
vt 0.725000024 1.60348904
vt 0.730000019 1.60702395
vt 0.620000005 1.60702395
vt 0.725000024 1.60348904
vt 0.620000005 1.60702395
vt 0.625 1.60348904
vt 0.625 1.60348904
vt 0.620000005 1.60702395
vt 0.620000005 1.48328102
vt 0.625 0.396510988
vt 0.620000005 0.276302993
vt 0.625 0.276302993
vt -0.725000024 0.467222005
vt -0.725000024 0.396510988
vt -0.625 0.467222005
vt -0.625 0.467222005
vt -0.725000024 0.396510988
vt -0.625 0.396510988
vt 0.725000024 1.41257
vt 0.725000024 1.53277802
vt 0.625 1.41257
vt 0.625 0.34701401
vt 0.725000024 0.467222005
vt 0.625 0.467222005
vt -1.40549898 0.311657995
vt -1.41257 0.318729013
vt -1.41964102 0.297515988
vt -1.41964102 0.297515988
vt -1.41257 0.318729013
vt -1.41257 0.318729013
vt -1.41964102 0.297515988
vt -1.41257 0.318729013
vt -1.48328102 0.276302993
vt -1.48328102 0.276302993
vt -1.41257 0.318729013
vt -1.41257 0.34701401
vt -1.48328102 0.276302993
vt -1.41257 0.34701401
vt -1.60348904 0.396510988
vt -1.60348904 0.396510988
vt -1.41257 0.34701401
vt -1.53277802 0.467222005
vt 1.53277802 0.467222005
vt 1.41257 0.34701401
vt 1.60348904 0.396510988
vt -1.60348904 0.396510988
vt -1.41257 0.34701401
vt -1.41257 0.34701401
vt 1.60348904 0.396510988
vt 1.41257 0.34701401
vt 1.48328102 0.276302993
vt 1.48328102 0.276302993
vt 1.41257 0.34701401
vt 1.41257 0.318729013
vt 1.48328102 0.276302993
vt 1.41257 0.318729013
vt 1.41964102 0.297515988
vt 1.41964102 0.297515988
vt 1.41257 0.318729013
vt 1.40549898 0.311657995
vt 0.625 0.34701401
vt 0.625 0.318729013
vt 0.725000024 0.34701401
vt 0.725000024 0.34701401
vt 0.625 0.318729013
vt 0.725000024 0.318729013
vt 0.625 0.297515988
vt 0.725000024 0.297515988
vt 0.625 0.311657995
vt 0.625 0.311657995
vt 0.725000024 0.297515988
vt 0.725000024 0.311657995
vt -0.629999995 1.48681605
vt -0.629999995 1.48530304
vt -0.620000005 1.48681605
vt -1.48681605 0.272767007
vt -1.48530304 0.271730006
vt -1.48530304 0.271730006
vt -0.620000005 1.48681605
vt -0.629999995 1.48530304
vt -0.620000005 1.48530304
vt -0.620000005 1.48530304
vt -0.629999995 1.48530304
vt -0.629999995 1.48351705
vt -0.620000005 1.48530304
vt -0.629999995 1.48351705
vt -0.620000005 1.48351705
vt -0.620000005 1.48351705
vt -0.629999995 1.48351705
vt -0.629999995 1.48169994
vt -0.620000005 1.48351705
vt -0.629999995 1.48169994
vt -0.620000005 1.48169994
vt -0.629999995 0.272767007
vt -0.620000005 0.272767007
vt -0.629999995 0.38944
vt -0.629999995 1.60348904
vt -0.620000005 1.48681605
vt -0.620000005 1.61056006
vt -0.629999995 1.60348904
vt -0.620000005 1.61056006
vt -0.720000029 1.60348904
vt -0.720000029 1.60348904
vt -0.620000005 1.61056006
vt -0.730000019 1.61056006
vt -1.60348904 0.38944
vt -1.61056006 0.396510988
vt -1.60348904 0.38944
vt -0.720000029 1.60348904
vt -0.730000019 1.61056006
vt -0.730000019 1.48681605
vt -0.720000029 0.38944
vt -0.730000019 0.272767007
vt -0.720000029 0.272767007
vt -0.629999995 1.48169994
vt -0.629999995 1.428666
vt -0.620000005 1.48169994
vt -1.48169994 0.271560013
vt -1.428666 0.289236993
vt -1.428666 0.289236993
vt -0.620000005 1.48169994
vt -0.629999995 1.428666
vt -0.620000005 1.41805995
vt -0.620000005 1.41805995
vt -0.629999995 1.428666
vt -0.720000029 1.428666
vt -0.620000005 1.41805995
vt -0.720000029 1.428666
vt -0.730000019 1.41805995
vt -1.41805995 0.292773008
vt -1.428666 0.289236993
vt -1.428666 0.289236993
vt -0.730000019 1.41805995
vt -0.720000029 1.428666
vt -0.730000019 1.48169994
vt -0.730000019 1.48169994
vt -0.720000029 1.428666
vt -0.720000029 1.48169994
vt 0.720000029 0.38944
vt 0.720000029 0.460150987
vt 0.629999995 0.38944
vt 0.629999995 0.38944
vt 0.720000029 0.460150987
vt 0.629999995 0.460150987
vt -0.629999995 1.41756999
vt -0.629999995 1.53277802
vt -0.720000029 1.41756999
vt -0.720000029 1.41756999
vt -0.629999995 1.53277802
vt -0.720000029 1.53277802
vt -0.629999995 0.31665799
vt -0.629999995 0.344942987
vt -0.720000029 0.31665799
vt -0.720000029 0.31665799
vt -0.629999995 0.344942987
vt -0.720000029 0.344942987
vt 1.428666 0.289236993
vt 1.48169994 0.271560013
vt 1.43024802 0.293980986
vt 1.43024802 0.293980986
vt 1.48169994 0.271560013
vt 1.60348904 0.38944
vt 1.43024802 0.293980986
vt 1.60348904 0.38944
vt 1.41756999 0.31665799
vt -1.41756999 0.31665799
vt -1.60348904 0.38944
vt -1.60348904 0.38944
vt 1.41756999 0.31665799
vt 1.60348904 0.38944
vt 1.41756999 0.344942987
vt 1.41756999 0.344942987
vt 1.60348904 0.38944
vt 1.53277802 0.460150987
vt 1.43024802 0.293980986
vt 1.41756999 0.31665799
vt 1.41257 0.311657995
vt 1.60348904 0.38944
vt 1.48169994 0.271560013
vt 1.48681605 0.272767007
vt -1.48681605 0.272767007
vt -1.48169994 0.271560013
vt -1.48169994 0.271560013
vt 1.48681605 0.272767007
vt 1.48169994 0.271560013
vt 1.48530304 0.271730006
vt 1.48530304 0.271730006
vt 1.48169994 0.271560013
vt 1.48351705 0.271308988
vt -1.41257 0.311657995
vt -1.41756999 0.31665799
vt -1.43024802 0.293980986
vt -1.43024802 0.293980986
vt -1.41756999 0.31665799
vt -1.60348904 0.38944
vt -1.43024802 0.293980986
vt -1.60348904 0.38944
vt -1.48169994 0.271560013
vt -1.48169994 0.271560013
vt -1.60348904 0.38944
vt -1.48681605 0.272767007
vt -1.48169994 0.271560013
vt -1.48681605 0.272767007
vt -1.48169994 0.271560013
vt -1.48169994 0.271560013
vt -1.48681605 0.272767007
vt -1.48530304 0.271730006
vt -1.48169994 0.271560013
vt -1.48530304 0.271730006
vt -1.48351705 0.271308988
vt -1.48169994 0.271560013
vt -1.428666 0.289236993
vt -1.43024802 0.293980986
vt -1.41756999 0.31665799
vt -1.41756999 0.344942987
vt -1.60348904 0.38944
vt -1.60348904 0.38944
vt -1.41756999 0.344942987
vt -1.53277802 0.460150987
vt -0.720000029 0.31665799
vt -0.720000029 0.311657995
vt -0.629999995 0.31665799
vt -0.629999995 0.31665799
vt -0.720000029 0.311657995
vt -0.629999995 0.311657995
vt 0.720000029 1.41257
vt 0.720000029 1.43024802
vt 0.629999995 1.41257
vt 0.629999995 1.41257
vt 0.720000029 1.43024802
vt 0.629999995 1.43024802
vt -0.720000029 0.289236993
vt -0.629999995 0.289236993
vt -0.720000029 0.293980986
vt -0.720000029 0.293980986
vt -0.629999995 0.289236993
vt -0.629999995 0.293980986
f 1/1 2/2 3/3
f 3/4 2/5 4/6
f 5/7 6/8 7/9
f 7/10 6/11 8/12
f 9/13 10/14 11/15
f 11/16 10/17 12/18
f 10/19 9/20 13/21
f 13/22 9/23 9/24
f 13/25 9/26 14/27
f 14/28 9/29 15/30
f 14/31 15/32 16/33
f 10/34 13/35 12/36
f 12/37 13/38 17/39
f 12/40 17/41 11/42
f 11/43 17/44 18/45
f 11/46 18/47 19/48
f 19/49 18/50 20/51
f 13/52 14/53 17/54
f 17/55 14/56 18/57
f 14/58 16/59 18/60
f 18/61 16/62 20/63
f 16/64 15/65 20/66
f 20/67 15/68 19/69
f 21/70 22/71 23/72
f 23/73 22/74 24/75
f 23/76 24/77 23/78
f 23/79 24/80 11/81
f 23/82 11/83 23/84
f 23/85 11/86 19/87
f 23/88 19/89 25/90
f 19/91 15/92 25/93
f 25/94 15/95 26/96
f 27/97 28/98 29/99
f 29/100 28/101 28/102
f 29/103 28/104 30/105
f 30/106 28/107 28/108
f 30/109 28/110 31/111
f 31/112 28/113 28/114
f 31/115 28/116 32/117
f 32/118 28/119 28/120
f 32/121 28/122 33/123
f 33/124 28/125 28/126
f 33/127 28/128 34/129
f 34/130 28/131 35/132
f 27/133 29/134 36/135
f 36/136 29/137 29/138
f 36/139 29/140 37/141
f 37/142 29/143 38/144
f 37/145 38/146 39/147
f 27/148 36/149 28/150
f 28/151 36/152 40/153
f 40/154 41/155 28/156
f 28/157 41/158 41/159
f 28/160 41/161 35/162
f 35/163 41/164 42/165
f 35/166 42/167 43/168
f 43/169 42/170 42/171
f 43/172 42/173 44/174
f 44/175 42/176 45/177
f 46/178 41/179 47/180
f 47/181 41/182 40/183
f 47/184 40/185 48/186
f 48/187 40/188 36/189
f 48/190 36/191 49/192
f 41/193 46/194 42/195
f 42/196 46/197 50/198
f 46/199 47/200 50/201
f 50/202 47/203 51/204
f 50/205 51/206 42/207
f 42/208 51/209 51/210
f 42/211 51/212 45/213
f 45/214 51/215 52/216
f 45/217 52/218 37/219
f 37/220 52/221 53/222
f 36/223 37/224 49/225
f 49/226 37/227 53/228
f 37/229 39/230 45/231
f 45/232 39/233 44/234
f 26/235 15/236 54/237
f 54/238 15/239 9/240
f 54/241 9/242 54/243
f 54/244 9/245 55/246
f 54/247 55/248 54/249
f 54/250 55/251 56/252
f 54/253 56/254 57/255
f 58/256 34/257 43/258
f 43/259 34/260 35/261
f 59/262 60/263 61/264
f 61/265 60/266 62/267
f 60/268 59/269 63/270
f 63/271 59/272 59/273
f 63/274 59/275 64/276
f 64/277 59/278 65/279
f 64/280 65/281 66/282
f 60/283 63/284 62/285
f 62/286 63/287 67/288
f 62/289 67/290 61/291
f 61/292 67/293 68/294
f 61/295 68/296 69/297
f 69/298 68/299 70/300
f 63/301 64/302 67/303
f 67/304 64/305 68/306
f 64/307 66/308 68/309
f 68/310 66/311 70/312
f 66/313 65/314 70/315
f 70/316 65/317 69/318
f 69/319 65/320 71/321
f 71/322 65/323 72/324
f 71/325 73/326 69/327
f 69/328 73/329 73/330
f 69/331 73/332 61/333
f 61/334 73/335 73/336
f 61/337 73/338 74/339
f 74/340 73/341 73/342
f 74/343 73/344 75/345
f 75/346 73/347 76/348
f 77/349 78/350 79/351
f 79/352 78/353 80/354
f 81/355 82/356 83/357
f 83/358 82/359 84/360
f 85/361 86/362 83/363
f 83/364 86/365 87/366
f 83/367 87/368 83/369
f 83/370 87/371 88/372
f 83/373 88/374 83/375
f 83/376 88/377 89/378
f 83/379 89/380 83/381
f 83/382 89/383 90/384
f 83/385 90/386 83/387
f 83/388 90/389 91/390
f 83/391 91/392 81/393
f 84/394 92/395 83/396
f 83/397 92/398 92/399
f 83/400 92/401 85/402
f 85/403 92/404 93/405
f 85/406 93/407 94/408
f 94/409 93/410 93/411
f 94/412 93/413 95/414
f 95/415 93/416 96/417
f 97/418 92/419 98/420
f 98/421 92/422 84/423
f 98/424 84/425 99/426
f 99/427 84/428 82/429
f 99/430 82/431 100/432
f 92/433 97/434 93/435
f 93/436 97/437 101/438
f 97/439 98/440 101/441
f 101/442 98/443 102/444
f 101/445 102/446 93/447
f 93/448 102/449 102/450
f 93/451 102/452 96/453
f 96/454 102/455 103/456
f 96/457 103/458 104/459
f 104/460 103/461 105/462
f 82/463 104/464 100/465
f 100/466 104/467 105/468
f 72/469 65/470 106/471
f 106/472 65/473 59/474
f 106/475 59/476 106/477
f 106/478 59/479 107/480
f 106/481 107/482 106/483
f 106/484 107/485 108/486
f 106/487 108/488 109/489
f 110/490 111/491 112/492
f 112/493 111/494 111/495
f 112/496 111/497 113/498
f 113/499 111/500 114/501
f 113/502 114/503 115/504
f 116/505 104/506 117/507
f 117/508 104/509 104/510
f 117/511 104/512 91/513
f 91/514 104/515 82/516
f 91/517 82/518 81/519
f 118/520 86/521 94/522
f 94/523 86/524 85/525
f 119/526 120/527 121/528
f 121/529 120/530 122/531
f 120/532 119/533 123/534
f 123/535 119/536 119/537
f 123/538 119/539 124/540
f 124/541 119/542 125/543
f 124/544 125/545 126/546
f 120/547 123/548 122/549
f 122/550 123/551 127/552
f 122/553 127/554 121/555
f 121/556 127/557 128/558
f 121/559 128/560 129/561
f 129/562 128/563 130/564
f 123/565 124/566 127/567
f 127/568 124/569 128/570
f 124/571 126/572 128/573
f 128/574 126/575 130/576
f 126/577 125/578 130/579
f 130/580 125/581 129/582
f 131/583 132/584 133/585
f 133/586 132/587 134/588
f 133/589 134/590 133/591
f 133/592 134/593 121/594
f 133/595 121/596 133/597
f 133/598 121/599 129/600
f 133/601 129/602 135/603
f 129/604 125/605 135/606
f 135/607 125/608 136/609
f 137/610 138/611 139/612
f 139/613 138/614 138/615
f 139/616 138/617 140/618
f 140/619 138/620 138/621
f 140/622 138/623 141/624
f 141/625 138/626 138/627
f 141/628 138/629 142/630
f 142/631 138/632 138/633
f 142/634 138/635 143/636
f 143/637 138/638 138/639
f 143/640 138/641 144/642
f 144/643 138/644 145/645
f 137/646 139/647 146/648
f 146/649 139/650 139/651
f 146/652 139/653 147/654
f 147/655 139/656 148/657
f 147/658 148/659 149/660
f 137/661 146/662 138/663
f 138/664 146/665 150/666
f 150/667 151/668 138/669
f 138/670 151/671 151/672
f 138/673 151/674 145/675
f 145/676 151/677 152/678
f 145/679 152/680 153/681
f 153/682 152/683 152/684
f 153/685 152/686 154/687
f 154/688 152/689 155/690
f 156/691 151/692 157/693
f 157/694 151/695 150/696
f 157/697 150/698 158/699
f 158/700 150/701 146/702
f 158/703 146/704 159/705
f 151/706 156/707 152/708
f 152/709 156/710 160/711
f 156/712 157/713 160/714
f 160/715 157/716 161/717
f 160/718 161/719 152/720
f 152/721 161/722 161/723
f 152/724 161/725 155/726
f 155/727 161/728 162/729
f 155/730 162/731 147/732
f 147/733 162/734 163/735
f 157/736 158/737 161/738
f 161/739 158/740 162/741
f 146/742 147/743 159/744
f 159/745 147/746 163/747
f 136/748 125/749 164/750
f 164/751 125/752 119/753
f 164/754 119/755 164/756
f 164/757 119/758 165/759
f 164/760 165/761 164/762
f 164/763 165/764 166/765
f 164/766 166/767 167/768
f 168/769 144/770 153/771
f 153/772 144/773 145/774
f 169/775 170/776 171/777
f 171/778 170/779 170/780
f 171/781 170/782 172/783
f 172/784 170/785 170/786
f 172/787 170/788 77/789
f 77/790 170/791 173/792
f 77/793 173/794 174/795
f 174/796 173/797 175/798
f 170/799 176/800 173/801
f 174/802 177/803 77/804
f 77/805 177/806 78/807
f 176/808 178/809 173/810
f 173/811 178/812 179/813
f 180/814 111/815 181/816
f 181/817 111/818 182/819
f 181/820 182/821 183/822
f 183/823 182/824 184/825
f 183/826 184/827 185/828
f 180/829 186/830 111/831
f 111/832 186/833 114/834
f 186/835 187/836 114/837
f 114/838 187/839 187/840
f 114/841 187/842 188/843
f 188/844 187/845 189/846
f 188/847 189/848 190/849
f 190/850 189/851 191/852
f 183/853 185/854 189/855
f 189/856 185/857 191/858
f 185/859 184/860 191/861
f 191/862 184/863 190/864
f 188/865 190/866 192/867
f 192/868 190/869 190/870
f 192/871 190/872 5/873
f 5/874 190/875 184/876
f 5/877 184/878 6/879
f 6/880 184/881 184/882
f 6/883 184/884 193/885
f 193/886 184/887 182/888
f 188/889 192/890 114/891
f 114/892 192/893 115/894
f 5/895 7/896 192/897
f 192/898 7/899 194/900
f 192/901 194/902 192/903
f 192/904 194/905 195/906
f 192/907 195/908 192/909
f 192/910 195/911 196/912
f 192/913 196/914 192/915
f 192/916 196/917 197/918
f 192/919 197/920 192/921
f 192/922 197/923 113/924
f 192/925 113/926 115/927
f 178/928 198/929 179/930
f 179/931 198/932 79/933
f 179/934 79/935 199/936
f 199/937 79/938 79/939
f 199/940 79/941 200/942
f 200/943 79/944 80/945
f 179/946 199/947 201/948
f 79/949 198/950 202/951
f 202/952 198/953 198/954
f 202/955 198/956 203/957
f 203/958 198/959 204/960
f 179/961 201/962 173/963
f 173/964 201/965 175/966
f 201/967 199/968 175/969
f 175/970 199/971 174/972
f 199/973 200/974 174/975
f 174/976 200/977 177/978
f 200/979 80/980 177/981
f 177/982 80/983 78/984
f 59/985 205/986 107/987
f 107/988 205/989 206/990
f 107/991 206/992 108/993
f 108/994 206/995 207/996
f 108/997 207/998 109/999
f 109/1000 207/1001 208/1002
f 109/1003 208/1004 106/1005
f 106/1006 208/1007 208/1008
f 106/1009 208/1010 72/1011
f 72/1012 208/1013 117/1014
f 72/1015 117/1016 72/1017
f 72/1018 117/1019 91/1020
f 72/1021 91/1022 71/1023
f 71/1024 91/1025 90/1026
f 71/1027 90/1028 73/1029
f 73/1030 90/1031 89/1032
f 73/1033 89/1034 76/1035
f 76/1036 89/1037 88/1038
f 76/1039 88/1040 75/1041
f 75/1042 88/1043 87/1044
f 75/1045 87/1046 74/1047
f 74/1048 87/1049 87/1050
f 74/1051 87/1052 61/1053
f 61/1054 87/1055 86/1056
f 61/1057 86/1058 59/1059
f 59/1060 86/1061 118/1062
f 59/1063 118/1064 205/1065
f 79/1066 7/1067 77/1068
f 77/1069 7/1070 8/1071
f 77/1072 8/1073 77/1074
f 77/1075 8/1076 209/1077
f 77/1078 209/1079 172/1080
f 172/1081 209/1082 210/1083
f 172/1084 210/1085 171/1086
f 171/1087 210/1088 211/1089
f 171/1090 211/1091 169/1092
f 169/1093 211/1094 212/1095
f 169/1096 212/1097 170/1098
f 170/1099 212/1100 212/1101
f 170/1102 212/1103 176/1104
f 176/1105 212/1106 112/1107
f 176/1108 112/1109 176/1110
f 176/1111 112/1112 113/1113
f 176/1114 113/1115 178/1116
f 178/1117 113/1118 197/1119
f 178/1120 197/1121 198/1122
f 198/1123 197/1124 196/1125
f 198/1126 196/1127 204/1128
f 204/1129 196/1130 195/1131
f 204/1132 195/1133 203/1134
f 203/1135 195/1136 194/1137
f 203/1138 194/1139 202/1140
f 202/1141 194/1142 194/1143
f 202/1144 194/1145 79/1146
f 79/1147 194/1148 7/1149
f 168/1150 213/1151 119/1152
f 119/1153 213/1154 213/1155
f 119/1156 213/1157 165/1158
f 165/1159 213/1160 214/1161
f 165/1162 214/1163 166/1164
f 166/1165 214/1166 215/1167
f 166/1168 215/1169 167/1170
f 167/1171 215/1172 216/1173
f 167/1174 216/1175 164/1176
f 164/1177 216/1178 216/1179
f 164/1180 216/1181 136/1182
f 136/1183 216/1184 148/1185
f 136/1186 148/1187 136/1188
f 136/1189 148/1190 139/1191
f 136/1192 139/1193 135/1194
f 135/1195 139/1196 140/1197
f 135/1198 140/1199 133/1200
f 133/1201 140/1202 141/1203
f 133/1204 141/1205 131/1206
f 131/1207 141/1208 142/1209
f 131/1210 142/1211 132/1212
f 132/1213 142/1214 143/1215
f 132/1216 143/1217 134/1218
f 134/1219 143/1220 143/1221
f 134/1222 143/1223 121/1224
f 121/1225 143/1226 144/1227
f 121/1228 144/1229 119/1230
f 119/1231 144/1232 168/1233
f 58/1234 217/1235 9/1236
f 9/1237 217/1238 217/1239
f 9/1240 217/1241 55/1242
f 55/1243 217/1244 218/1245
f 55/1246 218/1247 56/1248
f 56/1249 218/1250 219/1251
f 56/1252 219/1253 57/1254
f 57/1255 219/1256 220/1257
f 57/1258 220/1259 54/1260
f 54/1261 220/1262 220/1263
f 54/1264 220/1265 26/1266
f 26/1267 220/1268 38/1269
f 26/1270 38/1271 26/1272
f 26/1273 38/1274 29/1275
f 26/1276 29/1277 25/1278
f 25/1279 29/1280 30/1281
f 25/1282 30/1283 23/1284
f 23/1285 30/1286 31/1287
f 23/1288 31/1289 21/1290
f 21/1291 31/1292 32/1293
f 21/1294 32/1295 22/1296
f 22/1297 32/1298 33/1299
f 22/1300 33/1301 24/1302
f 24/1303 33/1304 33/1305
f 24/1306 33/1307 11/1308
f 11/1309 33/1310 34/1311
f 11/1312 34/1313 9/1314
f 9/1315 34/1316 58/1317
f 221/1318 222/1319 223/1320
f 223/1321 222/1322 222/1323
f 223/1324 222/1325 224/1326
f 224/1327 222/1328 225/1329
f 224/1330 225/1331 226/1332
f 226/1333 225/1334 227/1335
f 226/1336 227/1337 228/1338
f 1/1339 3/1340 229/1341
f 229/1342 3/1343 230/1344
f 229/1345 230/1346 229/1347
f 229/1348 230/1349 231/1350
f 229/1351 231/1352 229/1353
f 229/1354 231/1355 232/1356
f 229/1357 232/1358 229/1359
f 229/1360 232/1361 233/1362
f 229/1363 233/1364 229/1365
f 229/1366 233/1367 234/1368
f 229/1369 234/1370 235/1371
f 236/1372 237/1373 238/1374
f 238/1375 237/1376 237/1377
f 238/1378 237/1379 234/1380
f 234/1381 237/1382 239/1383
f 234/1384 239/1385 235/1386
f 235/1387 239/1388 229/1389
f 229/1390 239/1391 240/1392
f 241/1393 242/1394 243/1395
f 243/1396 242/1397 2/1398
f 243/1399 2/1400 243/1401
f 243/1402 2/1403 1/1404
f 243/1405 1/1406 244/1407
f 244/1408 1/1409 229/1410
f 244/1411 229/1412 240/1413
f 245/1414 243/1415 246/1416
f 246/1417 243/1418 244/1419
f 247/1420 245/1421 248/1422
f 248/1423 245/1424 246/1425
f 249/1426 250/1427 239/1428
f 239/1429 250/1430 250/1431
f 239/1432 250/1433 240/1434
f 240/1435 250/1436 248/1437
f 240/1438 248/1439 244/1440
f 244/1441 248/1442 246/1443
f 245/1444 247/1445 243/1446
f 243/1447 247/1448 247/1449
f 243/1450 247/1451 241/1452
f 241/1453 247/1454 251/1455
f 241/1456 251/1457 237/1458
f 237/1459 251/1460 252/1461
f 248/1462 250/1463 247/1464
f 247/1465 250/1466 251/1467
f 239/1468 237/1469 249/1470
f 249/1471 237/1472 252/1473
f 253/1474 254/1475 230/1476
f 230/1477 254/1478 254/1479
f 230/1480 254/1481 231/1482
f 231/1483 254/1484 255/1485
f 231/1486 255/1487 232/1488
f 232/1489 255/1490 256/1491
f 232/1492 256/1493 233/1494
f 253/1495 230/1496 257/1497
f 257/1498 230/1499 3/1500
f 257/1501 3/1502 258/1503
f 258/1504 3/1505 4/1506
f 258/1507 4/1508 258/1509
f 258/1510 4/1511 221/1512
f 258/1513 221/1514 223/1515
f 256/1516 259/1517 233/1518
f 233/1519 259/1520 259/1521
f 233/1522 259/1523 234/1524
f 234/1525 259/1526 260/1527
f 234/1528 260/1529 238/1530
f 238/1531 260/1532 260/1533
f 238/1534 260/1535 227/1536
f 227/1537 260/1538 228/1539
f 258/1540 261/1541 257/1542
f 257/1543 261/1544 262/1545
f 263/1546 262/1547 264/1548
f 264/1549 262/1550 261/1551
f 265/1552 263/1553 266/1554
f 266/1555 263/1556 264/1557
f 259/1558 256/1559 267/1560
f 267/1561 256/1562 257/1563
f 267/1564 257/1565 265/1566
f 265/1567 257/1568 257/1569
f 265/1570 257/1571 263/1572
f 263/1573 257/1574 262/1575
f 267/1576 265/1577 268/1578
f 257/1579 256/1580 253/1581
f 253/1582 256/1583 256/1584
f 253/1585 256/1586 254/1587
f 254/1588 256/1589 255/1590
f 269/1591 266/1592 270/1593
f 270/1594 266/1595 258/1596
f 270/1597 258/1598 228/1599
f 228/1600 258/1601 223/1602
f 228/1603 223/1604 228/1605
f 228/1606 223/1607 224/1608
f 228/1609 224/1610 226/1611
f 228/1612 260/1613 270/1614
f 266/1615 264/1616 258/1617
f 258/1618 264/1619 261/1620
f 266/1621 269/1622 265/1623
f 265/1624 269/1625 268/1626
f 269/1627 270/1628 268/1629
f 268/1630 270/1631 267/1632
f 260/1633 259/1634 270/1635
f 270/1636 259/1637 267/1638
