# Exported from USD for MuJoCo with source material subsets
v -14.2738166 3.60630434 0.968941832
v -14.2738385 3.60630816 1.03494182
v -14.3171458 3.61408632 0.968941832
v -14.3171458 3.61408632 1.03494182
v -14.0206359 3.90491741 0.971141899
v -14.2048295 3.9379999 0.971141899
v -14.0979432 3.47449272 0.971141899
v -14.2821369 3.50757521 0.971141839
v -14.2315525 3.84161871 1.03494182
v -14.2315525 3.84161871 0.968941832
v -14.2748815 3.84940069 1.03494182
v -14.2748815 3.84940069 0.968941832
v -14.2871899 3.53197258 1.06223589
v -14.2175319 3.91980761 1.06223589
v -14.2134085 3.94276589 1.03494182
v -14.2134086 3.94276589 1.36494193
v -14.217532 3.91980761 1.34214933
v -14.2911912 3.5096957 1.36494193
v -14.28719 3.53197258 1.34214933
v -14.291191 3.5096957 1.03494182
v -15.03422 2.29328268 0.977451155
v -14.983661 2.28228229 0.935027206
v -14.9752345 2.29328244 0.927956456
v -14.9752346 2.19428247 0.927956456
v -14.9836611 2.20528238 0.935027206
v -15.0257935 2.20528262 0.970380479
v -15.0342201 2.19428271 0.977451155
v -15.0257934 2.28228276 0.970380479
vt -0.880856991 1.22532701
vt -0.940856993 1.22530699
vt -0.880856991 1.18593705
vt -0.880856991 1.18593705
vt -0.940856993 1.22530699
vt -0.940856993 1.18593705
vt -0.760123014 1.45549095
vt -0.790198028 1.28804195
vt -0.368827999 1.38521194
vt -0.368827999 1.38521194
vt -0.790198028 1.28804195
vt -0.398901999 1.21776295
vt 0.940856993 1.263749
vt 0.880856991 1.263749
vt 0.940856993 1.22435796
vt 0.940856993 1.22435796
vt 0.880856991 1.263749
vt 0.880856991 1.22435796
vt 0.488660008 0.940856993
vt 0.702578008 0.940856993
vt 0.42108199 0.96566999
vt -0.96566999 1.21316898
vt -0.940856993 1.263749
vt -0.940856993 1.263749
vt 0.42108199 0.96566999
vt 0.702578008 0.940856993
vt 0.773658991 0.96566999
vt 0.773658991 0.96566999
vt 0.702578008 0.940856993
vt 0.794530988 0.940856993
vt -0.96566999 1.27649498
vt -0.940856993 1.28024304
vt -0.96566999 1.27649498
vt 0.773658991 0.96566999
vt 0.794530988 0.940856993
vt 0.794530988 1.24085701
vt 0.773658991 0.96566999
vt 0.794530988 1.24085701
vt 0.773658991 1.220137
vt 0.773658991 1.220137
vt 0.794530988 1.24085701
vt 0.400831014 1.24085701
vt 0.773658991 1.220137
vt 0.400831014 1.24085701
vt 0.42108199 1.220137
vt -1.220137 1.21316898
vt -1.24085701 1.20953202
vt -1.24085701 1.20953202
vt 0.42108199 1.220137
vt 0.400831014 1.24085701
vt 0.42108199 0.96566999
vt 0.42108199 0.96566999
vt 0.400831014 1.24085701
vt 0.400831014 0.940856993
vt 0.42108199 0.96566999
vt 0.400831014 0.940856993
vt 0.488660008 0.940856993
vt 0.704999983 0.534052014
vt 0.714999974 0.58001399
vt 0.704999983 0.587674975
vt -0.843598008 0.587674975
vt -0.850026011 0.58001399
vt -0.850026011 0.58001399
vt 0.704999983 0.587674975
vt 0.714999974 0.58001399
vt 0.795000017 0.587674975
vt 0.795000017 0.587674975
vt 0.714999974 0.58001399
vt 0.785000026 0.58001399
vt -0.843598008 0.587674975
vt -0.850026011 0.58001399
vt -0.843598008 0.587674975
vt 0.795000017 0.587674975
vt 0.785000026 0.58001399
vt 0.785000026 0.541711986
vt 0.795000017 0.587674975
vt 0.785000026 0.541711986
vt 0.795000017 0.534052014
vt -0.888593018 0.534052014
vt -0.882165015 0.541711986
vt -0.882165015 0.541711986
vt 0.795000017 0.534052014
vt 0.785000026 0.541711986
vt 0.704999983 0.534052014
vt 0.704999983 0.534052014
vt 0.785000026 0.541711986
vt 0.714999974 0.541711986
vt 0.704999983 0.534052014
vt 0.714999974 0.541711986
vt 0.714999974 0.58001399
f 1/1 2/2 3/3
f 3/4 2/5 4/6
f 5/7 6/8 7/9
f 7/10 6/11 8/12
f 9/13 10/14 11/15
f 11/16 10/17 12/18
f 2/19 9/20 13/21
f 13/22 9/23 9/24
f 13/25 9/26 14/27
f 14/28 9/29 15/30
f 14/31 15/32 14/33
f 14/34 15/35 16/36
f 14/37 16/38 17/39
f 17/40 16/41 18/42
f 17/43 18/44 19/45
f 19/46 18/47 18/48
f 19/49 18/50 13/51
f 13/52 18/53 20/54
f 13/55 20/56 2/57
f 21/58 22/59 23/60
f 23/61 22/62 22/63
f 23/64 22/65 24/66
f 24/67 22/68 25/69
f 24/70 25/71 24/72
f 24/73 25/74 26/75
f 24/76 26/77 27/78
f 27/79 26/80 26/81
f 27/82 26/83 21/84
f 21/85 26/86 28/87
f 21/88 28/89 22/90
