# Exported from USD for MuJoCo with source material subsets
v 8.70170656 1.62744249 0.0500001431
v 9.84562835 1.61191167 0.0500006199
v 8.64562896 1.61191072 0.0500001431
v 8.70170608 2.24637879 0.0500001431
v 8.64562824 2.26191033 0.0500001431
v 9.84562781 2.26191129 0.0500006199
v 9.8306283 1.66191162 0.0500006199
v 8.66062894 1.66191067 0.0500001431
v 9.89562681 3.1269113 0.700000238
v 9.94562676 3.1269113 0.800000262
v 9.97562676 3.1269113 0.700000238
v 9.89562657 3.31691135 0.800000262
v 9.89562675 3.1269113 0.800000262
v 9.89562657 3.31691135 0.900000107
v 9.97562685 3.02691115 0.800000262
v 9.94562688 3.02691115 0.800000262
v 9.97562688 3.02691115 0.700000238
v 10.3256263 3.43460096 0.777829778
v 10.3256264 3.3769113 0.745537829
v 10.3256263 3.43608584 0.773750377
v 10.3556266 3.02691139 0.800000381
v 10.2856267 3.02691139 0.800000381
v 10.3056267 3.02691139 0.700000358
v 9.36562744 2.48691095 1.74999962
v 9.36683348 2.48007049 1.74999962
v 9.36562744 2.48691095 1.75699962
v 9.70562717 2.48691119 1.75699962
v 9.69683328 2.49375166 1.75699962
v 9.69562718 2.48691119 1.75699962
v 9.89562687 3.02691115 0.700000238
v 9.89562687 3.02691115 0.800000262
v 9.97562673 3.1269113 0.800000262
v 9.89562729 2.53691138 0.800000262
v 9.89562723 2.53691138 0.900000107
v 9.36683336 2.49375142 1.75699962
v 9.69562718 2.48691119 1.74999962
v 9.69683328 2.48007073 1.74999962
v 10.3256255 4.25691046 0.965000254
v 10.3256259 3.8769113 0.878750277
v 10.3256255 4.29691137 0.925000322
v 10.3256259 3.8769113 0.925000322
v 10.3256258 3.91691126 0.965000254
v 10.325626 3.80691113 0.767500353
v 10.325626 3.7554871 0.623780322
v 10.325626 3.83135714 0.567698729
v 10.3256255 4.29691137 0.878750277
v 10.3256259 3.8769113 0.800000381
v 10.3256258 4.29691137 0.0500007391
v 10.3556265 3.1269113 0.800000381
v 10.3556266 3.1269113 0.700000358
v 10.3056266 3.1269113 0.700000358
v 10.3556267 3.02691139 0.700000358
v 10.3256261 3.8769113 0.0500007391
v 10.325626 3.8769113 0.542885435
v 10.2856267 3.02691139 0.700000358
v 10.2856266 3.1269113 0.700000358
v 10.2856266 3.1269113 0.800000381
v 10.3256261 3.62694515 0.767500353
v 10.3256262 3.58368601 0.700630498
v 10.3256261 3.67235674 0.668398571
v 9.70623025 2.48349108 1.75699962
v 8.66062847 2.21191038 0.0500001431
v 8.66273919 2.22388114 0.0500001431
v 8.66881683 2.23440804 0.0500001431
v 8.67812827 2.24222125 0.0500001431
v 8.68955055 2.24637879 0.0500001431
v 10.3256255 4.294953 0.937360954
v 10.3256255 4.28927149 0.948511732
v 10.3256255 4.26927151 0.963042539
v 10.3256255 4.28042234 0.957360965
v 10.325626 3.69692816 0.800000381
v 10.325626 3.76691116 0.792500389
v 10.325626 3.76263632 0.791746449
v 10.325626 3.75887646 0.789575887
v 10.325626 3.75608601 0.786250365
v 10.325626 3.75460114 0.782170963
v 10.325626 3.75460114 0.777829778
v 10.325626 3.75608601 0.773750377
v 10.3256261 3.69759716 0.656457019
v 10.325626 3.75887646 0.770424795
v 10.325626 3.76263632 0.768254173
v 10.325626 3.76691116 0.767500353
v 10.325626 3.77118601 0.768254173
v 10.325626 3.77494587 0.770424795
v 10.325626 3.79887642 0.770424795
v 10.325626 3.79608597 0.773750377
v 10.325626 3.77773632 0.773750377
v 10.325626 3.7946011 0.777829778
v 10.325626 3.77922119 0.777829778
v 10.325626 3.7946011 0.782170963
v 10.325626 3.77922119 0.782170963
v 10.325626 3.77773632 0.786250365
v 10.325626 3.79608597 0.786250365
v 10.325626 3.77494587 0.789575887
v 10.325626 3.79887642 0.789575887
v 10.325626 3.8026358 0.791746449
v 10.325626 3.77118601 0.791746449
v 10.325626 3.80691113 0.792500389
v 10.3256259 3.81118645 0.791746449
v 10.3256259 3.81494583 0.789575887
v 10.3256259 3.81773628 0.786250365
v 10.3256259 3.81922115 0.782170963
v 10.3256259 3.81922115 0.777829778
v 10.3256259 3.81773628 0.773750377
v 10.3256259 3.81494583 0.770424795
v 10.3256259 3.81118645 0.768254173
v 10.325626 3.8026358 0.768254173
v 10.3256261 3.63925518 0.777829778
v 10.3256261 3.63777126 0.773750377
v 10.3256261 3.63498034 0.770424795
v 10.3256261 3.63122048 0.768254173
v 10.3256261 3.63925518 0.782170963
v 10.3256261 3.63777126 0.786250365
v 10.3256261 3.63498034 0.789575887
v 10.3256261 3.63122048 0.791746449
v 10.3256261 3.62694515 0.792500389
v 10.3256263 3.39691128 0.800000381
v 9.36683336 2.49375142 1.74999962
v 9.3703064 2.49976648 1.75699962
v 9.3703064 2.49976648 1.74999962
v 9.37562719 2.50423135 1.75699962
v 9.37562719 2.50423135 1.74999962
v 9.38215425 2.50660695 1.75699962
v 9.38215425 2.50660695 1.74999962
v 9.38910034 2.50660695 1.75699962
v 9.38910034 2.50660695 1.74999962
v 9.39562717 2.50423135 1.75699962
v 9.39562717 2.50423135 1.74999962
v 9.40094819 2.49976648 1.75699962
v 9.40094819 2.49976648 1.74999962
v 9.40442124 2.49375142 1.75699962
v 9.40442124 2.49375142 1.74999962
v 9.40562716 2.48691095 1.75699962
v 9.40562716 2.48691095 1.74999962
v 9.40442124 2.48007049 1.75699962
v 9.40442124 2.48007049 1.74999962
v 9.40094819 2.47405519 1.75699962
v 9.40094819 2.47405519 1.74999962
v 9.39562741 2.46959032 1.75699962
v 9.39562741 2.46959032 1.74999962
v 9.38910034 2.46721472 1.75699962
v 9.38910034 2.46721472 1.74999962
v 9.38215425 2.46721472 1.75699962
v 9.38215425 2.46721472 1.74999962
v 9.37562743 2.46959032 1.75699962
v 9.37562743 2.46959032 1.74999962
v 9.3703064 2.47405519 1.75699962
v 9.3703064 2.47405519 1.74999962
v 9.36683348 2.48007049 1.75699962
v 10.3256258 3.90455021 0.963042539
v 10.3256258 3.89339985 0.957360965
v 10.3256258 3.88455023 0.948511732
v 10.3256259 3.87886871 0.937360954
v 10.3256264 3.3909017 0.726462018
v 10.3256263 3.39713539 0.725539041
v 10.3256264 3.38526453 0.729278755
v 10.3256264 3.38078369 0.733709645
v 10.325626 3.87593235 0.549065721
v 10.325626 3.87309136 0.55464108
v 10.325626 3.86866726 0.559065711
v 10.325626 3.86309113 0.561906588
v 10.325626 3.85691132 0.562885416
v 10.325626 3.84437145 0.562885416
v 10.325626 3.83969177 0.563440573
v 10.325626 3.83527197 0.56507529
v 10.3256263 3.49130882 0.719809604
v 10.3256261 3.61463512 0.777829778
v 10.3256261 3.61612 0.773750377
v 10.3256261 3.61891045 0.770424795
v 10.3256261 3.62267031 0.768254173
v 10.3256263 3.43460096 0.782170963
v 10.3256263 3.43608584 0.786250365
v 10.3256263 3.43887629 0.789575887
v 10.3256263 3.44263615 0.791746449
v 10.3256263 3.44691099 0.792500389
v 10.3256262 3.48263563 0.791746449
v 10.3256262 3.47887673 0.789575887
v 10.3256263 3.45118631 0.791746449
v 10.3256263 3.45494618 0.789575887
v 10.3256262 3.4760858 0.786250365
v 10.3256263 3.45773663 0.786250365
v 10.3256262 3.4746014 0.782170963
v 10.3256263 3.45922102 0.782170963
v 10.3256262 3.4746014 0.777829778
v 10.3256263 3.45922102 0.777829778
v 10.3256262 3.4760858 0.773750377
v 10.3256262 3.47887673 0.770424795
v 10.3256262 3.48263563 0.768254173
v 10.3256263 3.45773663 0.773750377
v 10.3256263 3.45494618 0.770424795
v 10.3256262 3.48691143 0.767500353
v 10.3256262 3.48691143 0.792500389
v 10.3256261 3.61612 0.786250365
v 10.3256261 3.61891045 0.789575887
v 10.3256261 3.62267031 0.791746449
v 10.3256261 3.61463512 0.782170963
v 10.3256262 3.49118628 0.791746449
v 10.3256262 3.49494614 0.789575887
v 10.3256262 3.49773611 0.786250365
v 10.3256262 3.49922098 0.782170963
v 10.3256262 3.49922098 0.777829778
v 10.3256262 3.49773611 0.773750377
v 10.3256262 3.49494614 0.770424795
v 10.3256262 3.49118628 0.768254173
v 10.3256264 3.37790407 0.739314806
v 10.3256263 3.43887629 0.770424795
v 10.3256263 3.44263615 0.768254173
v 10.3256263 3.44691099 0.767500353
v 10.3256263 3.45118631 0.768254173
v 10.3256263 3.3769113 0.780000281
v 10.3256263 3.37789024 0.786180687
v 10.3256263 3.38073124 0.791756046
v 10.3256263 3.38515581 0.796180677
v 10.3256263 3.39073099 0.799021494
v 10.3206264 3.37779202 0.740537775
v 10.3206264 3.3769113 0.745537829
v 9.85562655 3.37779154 0.740537655
v 9.85562655 3.3769113 0.745537651
v 9.85562613 3.87691082 0.740537655
v 9.85562613 3.87691082 0.745537651
v 10.3206259 3.8769113 0.745537829
v 10.3206261 3.69692816 0.745537829
v 9.70623025 2.49033155 1.75699962
v 9.70030626 2.49976672 1.75699962
v 9.70796671 2.4933392 1.75699962
v 9.71062711 2.49557151 1.75699962
v 9.70562711 2.50423159 1.75699962
v 9.71215418 2.50660743 1.75699962
v 9.71389064 2.49675931 1.75699962
v 9.71736362 2.49675931 1.75699962
v 9.71910009 2.50660743 1.75699962
v 9.72562709 2.50423159 1.75699962
v 9.7206271 2.49557151 1.75699962
v 9.73094806 2.49976672 1.75699977
v 9.72328761 2.4933392 1.75699962
v 9.72502407 2.49033155 1.75699962
v 9.73442098 2.49375166 1.75699977
v 9.72562721 2.48691119 1.75699962
v 9.73562708 2.48691119 1.75699977
v 9.72502407 2.48349108 1.75699962
v 9.73442098 2.48007073 1.75699977
v 9.72328761 2.48048343 1.75699962
v 9.73094806 2.47405542 1.75699977
v 9.72062722 2.47825111 1.75699962
v 9.72562721 2.4695908 1.75699962
v 9.71736362 2.47706307 1.75699962
v 9.71910015 2.4672152 1.75699962
v 9.71389064 2.47706307 1.75699962
v 9.71215418 2.4672152 1.75699962
v 9.71062723 2.47825111 1.75699962
v 9.70562717 2.4695908 1.75699962
v 9.70030632 2.47405542 1.75699962
v 9.70796671 2.48048343 1.75699962
v 9.69683328 2.48007073 1.75699962
v 10.3206259 3.8769113 0.740537775
v 9.69683328 2.49375166 1.74999962
v 9.70030626 2.49976672 1.74999962
v 9.70562711 2.50423159 1.74999962
v 9.71215418 2.50660743 1.74999962
v 9.71910009 2.50660743 1.74999962
v 9.72562709 2.50423159 1.74999962
v 9.73094806 2.49976672 1.74999977
v 9.73442098 2.49375166 1.74999977
v 9.73562708 2.48691119 1.74999977
v 9.73442098 2.48007073 1.74999977
v 9.73094806 2.47405542 1.74999977
v 9.72562721 2.4695908 1.74999962
v 9.71910015 2.4672152 1.74999962
v 9.71215418 2.4672152 1.74999962
v 9.70562717 2.4695908 1.74999962
v 9.70030632 2.47405542 1.74999962
v 8.66273966 1.67388119 0.0500001431
v 8.66273978 1.64993991 0.0500001431
v 8.66881743 1.63941325 0.0500001431
v 8.67812899 1.6315998 0.0500001431
v 8.68955114 1.62744249 0.0500001431
v 9.82851752 1.64994086 0.0500006199
v 9.82243988 1.63941421 0.0500006199
v 9.81312832 1.63160075 0.0500005007
v 9.80170598 1.62744345 0.0500005007
v 9.78955069 1.62744345 0.0500005007
v 8.72851816 1.64993991 0.0500001431
v 9.77812835 1.63160075 0.0500005007
v 9.7688168 1.63941421 0.0500005007
v 9.76273903 1.64994086 0.0500005007
v 9.76062831 1.66191162 0.0500005007
v 9.76273903 1.67388238 0.0500005007
v 9.76881674 1.68440928 0.0500005007
v 9.77812835 1.69222273 0.0500005007
v 8.73062876 1.66191067 0.0500001431
v 9.78955063 1.6963798 0.0500005007
v 8.72851816 1.67388119 0.0500001431
v 9.81312784 2.1816007 0.0500005007
v 9.80170557 2.17744316 0.0500005007
v 9.78955021 2.17744316 0.0500005007
v 8.72244003 2.18941273 0.0500001431
v 8.72851756 2.19993986 0.0500001431
v 9.77812782 2.1816007 0.0500005007
v 9.76881632 2.18941368 0.0500005007
v 9.76273861 2.19994082 0.0500005007
v 9.76062783 2.21191134 0.0500005007
v 8.73062852 2.21191038 0.0500001431
v 8.72851756 2.22388114 0.0500001431
v 9.76273855 2.22388209 0.0500005007
v 9.76881632 2.23440899 0.0500005007
v 9.77812782 2.2422222 0.0500005007
v 9.78955015 2.24637951 0.0500005007
v 9.80170551 2.24637951 0.0500005007
v 9.81312784 2.2422222 0.0500005007
v 9.82243934 2.23440899 0.0500006199
v 9.82851705 2.22388209 0.0500006199
v 9.83062783 2.21191134 0.0500006199
v 8.72243991 2.23440804 0.0500001431
v 8.71312824 2.24222125 0.0500001431
v 8.71312836 2.18159951 0.0500001431
v 8.72244027 1.68440808 0.0500001431
v 8.71312871 1.69222178 0.0500001431
v 8.70170656 1.69637884 0.0500001431
v 8.70170608 2.17744221 0.0500001431
v 8.68955067 2.17744221 0.0500001431
v 8.68955102 1.69637884 0.0500001431
v 8.67812875 1.69222178 0.0500001431
v 8.67812851 2.18159951 0.0500001431
v 8.66881695 2.18941273 0.0500001431
v 8.6627393 2.19993986 0.0500001431
v 8.66881731 1.68440808 0.0500001431
v 9.80170598 1.6963798 0.0500005007
v 9.82243934 2.18941368 0.0500006199
v 9.81312832 1.69222273 0.0500005007
v 9.82851705 2.19994082 0.0500006199
v 8.72244051 1.63941325 0.0500001431
v 8.71312883 1.6315998 0.0500001431
v 9.82851752 1.67388238 0.0500006199
v 9.82243988 1.68440928 0.0500006199
v 9.38562718 2.48691095 1.75699962
v 8.64562776 2.26191033 1.74999939
v 8.64562848 1.61191072 1.74999939
v 9.84562734 2.26191129 1.74999977
v 9.84562781 1.61191167 1.74999977
v 8.64562824 2.26191033 0.609999967
v 9.84562757 2.26191129 0.610000324
v 8.66562798 2.26191033 1.72999941
v 8.66562798 2.26191033 1.43999963
v 9.82562741 2.26191129 1.44
v 9.22220471 2.26191081 1.36999976
v 9.79562762 2.26191129 0.860000086
v 9.84562757 2.26191129 0.660000277
v 9.30562773 2.26191129 0.860000026
v 9.27562776 2.26191081 0.860000026
v 8.69562819 2.26191033 0.89999975
v 9.18562785 2.26191081 0.899999928
v 8.69562819 2.26191033 0.859999788
v 8.64562824 2.26191033 0.659999919
v 9.18562785 2.26191081 0.859999967
v 9.26562765 2.26191081 1.36999976
v 9.26562765 2.26191081 1.11999987
v 9.22220495 2.26191081 1.11999987
v 9.77562752 2.26191129 1.12000011
v 9.82562753 2.26191129 1.02000005
v 8.66562822 2.26191033 1.01999975
v 9.21562782 2.26191081 0.899999928
v 9.27562776 2.26191081 0.899999928
v 9.21562782 2.26191081 0.860000026
v 9.30562773 2.26191129 0.899999928
v 9.79562762 2.26191129 0.900000048
v 8.71562806 2.26191033 1.11999975
v 9.82562759 2.26191129 0.860000086
v 9.82562759 2.26191129 0.900000048
v 8.71562806 2.26191033 1.36999963
v 9.7756274 2.26191129 1.37
v 9.82562735 2.26191129 1.72999976
v 8.66562822 2.26191033 0.859999788
v 8.66562822 2.26191033 0.89999975
vt -0.811420023 1.73196697
vt 0.332502007 1.74749899
vt -0.867497981 1.74749899
vt -0.811420023 1.11303103
vt -0.867497981 1.09749901
vt 0.332502007 1.09749901
vt 0.332502007 1.09749901
vt 0.332502007 1.74749899
vt 0.317501992 1.69749904
vt -0.852497995 1.69749904
vt -0.867497981 1.74749899
vt -0.867497981 1.09749901
vt -0.38250199 0.699999988
vt -0.432502002 0.800000012
vt -0.462502003 0.699999988
vt -0.800000012 0.0424989983
vt -0.800000012 0.232499003
vt -0.899999976 0.0424989983
vt 0.462502003 0.800000012
vt 0.432502002 0.800000012
vt 0.462502003 0.699999988
vt 0.777828991 -0.0751909986
vt 0.745536983 -0.0175010003
vt 0.773750007 -0.0766760036
vt 0.842501998 0.800000012
vt 0.772502005 0.800000012
vt 0.792501986 0.699999988
vt -1.75 0.872498989
vt -1.75 0.87933898
vt -1.75699997 0.872498989
vt -0.192502007 0.872498989
vt -0.183707997 0.865658998
vt -0.182502002 0.872498989
vt -0.699999988 0.332498997
vt -0.800000012 0.332498997
vt -0.800000012 0.232499003
vt 0.38250199 0.699999988
vt 0.432502002 0.800000012
vt 0.38250199 0.800000012
vt -0.462502003 0.699999988
vt -0.432502002 0.800000012
vt -0.462502003 0.800000012
vt -0.800000012 0.822498977
vt -0.899999976 0.822498977
vt -0.800000012 0.332498997
vt -1.75699997 0.865658998
vt -1.75 0.872498989
vt -1.75699997 0.872498989
vt -1.75 0.872498989
vt -1.75 0.87933898
vt -1.75699997 0.872498989
vt 0.964999974 -0.897500992
vt 0.878750026 -0.517500997
vt 0.925000012 -0.937501013
vt 0.925000012 -0.517500997
vt 0.878750026 -0.517500997
vt 0.964999974 -0.557501018
vt 0.767499983 -0.447501004
vt 0.623780012 -0.396077007
vt 0.567698002 -0.471947014
vt -0.699999988 0.332498997
vt -0.800000012 0.232499003
vt -0.699999988 0.232499003
vt 0.38250199 0.699999988
vt 0.462502003 0.699999988
vt 0.432502002 0.800000012
vt -0.38250199 0.699999988
vt -0.38250199 0.800000012
vt -0.432502002 0.800000012
vt 0.878750026 -0.937501013
vt 0.800000012 -0.517500997
vt 0.0500000007 -0.937501013
vt -0.899999976 0.822498977
vt -0.899999976 0.0424989983
vt -0.800000012 0.332498997
vt -0.899999976 0.0424989983
vt -0.800000012 0.232499003
vt -0.800000012 0.332498997
vt -0.842501998 0.800000012
vt -0.842501998 0.699999988
vt -0.792501986 0.699999988
vt 0.842501998 0.699999988
vt 0.842501998 0.800000012
vt 0.792501986 0.699999988
vt 0.0500000007 -0.517500997
vt 0.0500000007 -0.937501013
vt 0.542885005 -0.517500997
vt 0.792501986 0.699999988
vt 0.772502005 0.800000012
vt 0.772502005 0.699999988
vt -0.772502005 0.699999988
vt -0.772502005 0.800000012
vt -0.792501986 0.699999988
vt -0.772502005 0.800000012
vt -0.842501998 0.800000012
vt -0.792501986 0.699999988
vt 0.767499983 -0.267535001
vt 0.700630009 -0.224276006
vt 0.668398023 -0.312947005
vt -1.75699997 0.872498989
vt -1.75699997 0.865658998
vt -1.75 0.872498989
vt -0.193104997 0.875918984
vt -0.192502007 0.872498989
vt -0.182502002 0.872498989
vt 0.964999974 -0.557501018
vt 0.878750026 -0.517500997
vt 0.964999974 -0.897500992
vt -0.852497995 1.14749897
vt -0.867497981 1.09749901
vt -0.850386977 1.13552797
vt -0.0500000007 1.13552797
vt -0.0500000007 1.09749901
vt -0.0500000007 1.09749901
vt -0.850386977 1.13552797
vt -0.867497981 1.09749901
vt -0.844309986 1.12500203
vt -0.0500000007 1.12500203
vt -0.0500000007 1.09749901
vt -0.0500000007 1.09749901
vt -0.844309986 1.12500203
vt -0.867497981 1.09749901
vt -0.834998012 1.11718798
vt -0.0500000007 1.11718798
vt -0.0500000007 1.09749901
vt -0.0500000007 1.09749901
vt -0.834998012 1.11718798
vt -0.867497981 1.09749901
vt -0.823575974 1.11303103
vt -0.823575974 1.11303103
vt -0.867497981 1.09749901
vt -0.811420023 1.11303103
vt 0.925000012 -0.937501013
vt 0.937361002 -0.935543001
vt 0.964999974 -0.897500992
vt 0.964999974 -0.897500992
vt 0.937361002 -0.935543001
vt 0.948511004 -0.929862022
vt 0.964999974 -0.897500992
vt 0.948511004 -0.929862022
vt 0.963042021 -0.909861982
vt 0.963042021 -0.909861982
vt 0.948511004 -0.929862022
vt 0.957360983 -0.921011984
vt 0.800000012 -0.517500997
vt 0.800000012 -0.337518007
vt 0.792500019 -0.407501012
vt -0.792500019 -0.407501012
vt -0.800000012 -0.337518007
vt -0.800000012 -0.337518007
vt 0.792500019 -0.407501012
vt 0.800000012 -0.337518007
vt 0.79174602 -0.403225988
vt -0.79174602 -0.403225988
vt -0.800000012 -0.337518007
vt -0.800000012 -0.337518007
vt 0.79174602 -0.403225988
vt 0.800000012 -0.337518007
vt 0.789575994 -0.399466008
vt -0.789575994 -0.399466008
vt -0.800000012 -0.337518007
vt -0.800000012 -0.337518007
vt 0.789575994 -0.399466008
vt 0.800000012 -0.337518007
vt 0.786249995 -0.396676004
vt -0.786249995 -0.396676004
vt -0.800000012 -0.337518007
vt -0.800000012 -0.337518007
vt 0.786249995 -0.396676004
vt 0.800000012 -0.337518007
vt 0.782171011 -0.395191014
vt -0.782171011 -0.395191014
vt -0.800000012 -0.337518007
vt -0.800000012 -0.337518007
vt 0.782171011 -0.395191014
vt 0.800000012 -0.337518007
vt 0.777828991 -0.395191014
vt -0.777828991 -0.395191014
vt -0.800000012 -0.337518007
vt -0.800000012 -0.337518007
vt 0.777828991 -0.395191014
vt 0.800000012 -0.337518007
vt 0.773750007 -0.396676004
vt 0.773750007 -0.396676004
vt 0.800000012 -0.337518007
vt 0.656457007 -0.338187009
vt 0.773750007 -0.396676004
vt 0.656457007 -0.338187009
vt 0.770424008 -0.399466008
vt -0.770424008 -0.399466008
vt -0.656457007 -0.338187009
vt -0.656457007 -0.338187009
vt 0.770424008 -0.399466008
vt 0.656457007 -0.338187009
vt 0.768253982 -0.403225988
vt 0.768253982 -0.403225988
vt 0.656457007 -0.338187009
vt 0.623780012 -0.396077007
vt 0.768253982 -0.403225988
vt 0.623780012 -0.396077007
vt 0.767499983 -0.407501012
vt -0.767499983 -0.407501012
vt -0.623780012 -0.396077007
vt -0.623780012 -0.396077007
vt 0.767499983 -0.407501012
vt 0.623780012 -0.396077007
vt 0.768253982 -0.411776006
vt -0.768253982 -0.411776006
vt -0.623780012 -0.396077007
vt -0.623780012 -0.396077007
vt 0.768253982 -0.411776006
vt 0.623780012 -0.396077007
vt 0.770424008 -0.415535986
vt 0.770424008 -0.415535986
vt 0.623780012 -0.396077007
vt 0.770424008 -0.439466
vt -0.770424008 -0.415535986
vt -0.770424008 -0.439466
vt -0.770424008 -0.415535986
vt 0.770424008 -0.415535986
vt 0.770424008 -0.439466
vt 0.773750007 -0.436675996
vt 0.770424008 -0.415535986
vt 0.773750007 -0.436675996
vt 0.773750007 -0.41832599
vt 0.773750007 -0.41832599
vt 0.773750007 -0.436675996
vt 0.777828991 -0.435191005
vt 0.773750007 -0.41832599
vt 0.777828991 -0.435191005
vt 0.777828991 -0.41981101
vt 0.777828991 -0.41981101
vt 0.777828991 -0.435191005
vt 0.782171011 -0.435191005
vt 0.777828991 -0.41981101
vt 0.782171011 -0.435191005
vt 0.782171011 -0.41981101
vt -0.782171011 -0.41981101
vt -0.782171011 -0.435191005
vt -0.782171011 -0.435191005
vt 0.782171011 -0.41981101
vt 0.782171011 -0.435191005
vt 0.786249995 -0.41832599
vt 0.786249995 -0.41832599
vt 0.782171011 -0.435191005
vt 0.786249995 -0.436675996
vt 0.786249995 -0.41832599
vt 0.786249995 -0.436675996
vt 0.789575994 -0.415535986
vt 0.789575994 -0.415535986
vt 0.786249995 -0.436675996
vt 0.789575994 -0.439466
vt -0.789575994 -0.415535986
vt -0.789575994 -0.439466
vt -0.789575994 -0.415535986
vt 0.789575994 -0.415535986
vt 0.789575994 -0.439466
vt 0.79174602 -0.44322601
vt 0.789575994 -0.415535986
vt 0.79174602 -0.44322601
vt 0.79174602 -0.411776006
vt -0.79174602 -0.411776006
vt -0.79174602 -0.44322601
vt -0.79174602 -0.44322601
vt 0.79174602 -0.411776006
vt 0.79174602 -0.44322601
vt 0.792500019 -0.407501012
vt 0.792500019 -0.407501012
vt 0.79174602 -0.44322601
vt 0.792500019 -0.447501004
vt 0.792500019 -0.407501012
vt 0.792500019 -0.447501004
vt 0.800000012 -0.517500997
vt 0.800000012 -0.517500997
vt 0.792500019 -0.447501004
vt 0.79174602 -0.451775998
vt -0.800000012 -0.517500997
vt -0.79174602 -0.451775998
vt -0.800000012 -0.517500997
vt 0.800000012 -0.517500997
vt 0.79174602 -0.451775998
vt 0.789575994 -0.455536008
vt -0.800000012 -0.517500997
vt -0.789575994 -0.455536008
vt -0.800000012 -0.517500997
vt 0.800000012 -0.517500997
vt 0.789575994 -0.455536008
vt 0.786249995 -0.458326012
vt -0.800000012 -0.517500997
vt -0.786249995 -0.458326012
vt -0.800000012 -0.517500997
vt 0.800000012 -0.517500997
vt 0.786249995 -0.458326012
vt 0.782171011 -0.459811002
vt -0.800000012 -0.517500997
vt -0.782171011 -0.459811002
vt -0.800000012 -0.517500997
vt 0.800000012 -0.517500997
vt 0.782171011 -0.459811002
vt 0.777828991 -0.459811002
vt 0.800000012 -0.517500997
vt 0.777828991 -0.459811002
vt 0.567698002 -0.471947014
vt 0.567698002 -0.471947014
vt 0.777828991 -0.459811002
vt 0.773750007 -0.458326012
vt -0.567698002 -0.471947014
vt -0.773750007 -0.458326012
vt -0.567698002 -0.471947014
vt 0.567698002 -0.471947014
vt 0.773750007 -0.458326012
vt 0.770424008 -0.455536008
vt -0.567698002 -0.471947014
vt -0.770424008 -0.455536008
vt -0.567698002 -0.471947014
vt 0.567698002 -0.471947014
vt 0.770424008 -0.455536008
vt 0.768253982 -0.451775998
vt 0.567698002 -0.471947014
vt 0.768253982 -0.451775998
vt 0.767499983 -0.447501004
vt 0.770424008 -0.439466
vt 0.623780012 -0.396077007
vt 0.768253982 -0.44322601
vt 0.768253982 -0.44322601
vt 0.623780012 -0.396077007
vt 0.767499983 -0.447501004
vt 0.656457007 -0.338187009
vt 0.800000012 -0.337518007
vt 0.668398023 -0.312947005
vt 0.668398023 -0.312947005
vt 0.800000012 -0.337518007
vt 0.777828991 -0.279844999
vt -0.668398023 -0.312947005
vt -0.777828991 -0.279844999
vt -0.668398023 -0.312947005
vt 0.668398023 -0.312947005
vt 0.777828991 -0.279844999
vt 0.773750007 -0.278360993
vt -0.668398023 -0.312947005
vt -0.773750007 -0.278360993
vt -0.668398023 -0.312947005
vt 0.668398023 -0.312947005
vt 0.773750007 -0.278360993
vt 0.770424008 -0.275570005
vt -0.668398023 -0.312947005
vt -0.770424008 -0.275570005
vt -0.668398023 -0.312947005
vt 0.668398023 -0.312947005
vt 0.770424008 -0.275570005
vt 0.768253982 -0.271809995
vt 0.668398023 -0.312947005
vt 0.768253982 -0.271809995
vt 0.767499983 -0.267535001
vt 0.777828991 -0.279844999
vt 0.800000012 -0.337518007
vt 0.782171011 -0.279844999
vt -0.782171011 -0.279844999
vt -0.800000012 -0.337518007
vt -0.800000012 -0.337518007
vt 0.782171011 -0.279844999
vt 0.800000012 -0.337518007
vt 0.786249995 -0.278360993
vt -0.786249995 -0.278360993
vt -0.800000012 -0.337518007
vt -0.800000012 -0.337518007
vt 0.786249995 -0.278360993
vt 0.800000012 -0.337518007
vt 0.789575994 -0.275570005
vt -0.789575994 -0.275570005
vt -0.800000012 -0.337518007
vt -0.800000012 -0.337518007
vt 0.789575994 -0.275570005
vt 0.800000012 -0.337518007
vt 0.79174602 -0.271809995
vt -0.79174602 -0.271809995
vt -0.800000012 -0.337518007
vt -0.800000012 -0.337518007
vt 0.79174602 -0.271809995
vt 0.800000012 -0.337518007
vt 0.792500019 -0.267535001
vt 0.792500019 -0.267535001
vt 0.800000012 -0.337518007
vt 0.800000012 -0.0375009999
vt -1.75 0.872498989
vt -1.75699997 0.865658998
vt -1.75 0.865658998
vt -1.75 0.865658998
vt -1.75699997 0.865658998
vt -1.75699997 0.859642982
vt -1.75 0.865658998
vt -1.75699997 0.859642982
vt -1.75 0.859642982
vt 0.142819002 1.75
vt 0.142819002 1.75699997
vt 0.137498006 1.75699997
vt 0.142819002 1.75
vt 0.137498006 1.75699997
vt 0.137498006 1.75
vt 0.137498006 1.75
vt 0.137498006 1.75699997
vt 0.130971 1.75699997
vt 0.137498006 1.75
vt 0.130971 1.75699997
vt 0.130971 1.75
vt 0.130971 1.75
vt 0.130971 1.75699997
vt 0.124025002 1.75699997
vt 0.130971 1.75
vt 0.124025002 1.75699997
vt 0.124025002 1.75
vt 0.124025002 1.75
vt 0.124025002 1.75699997
vt 0.117498003 1.75699997
vt 0.124025002 1.75
vt 0.117498003 1.75699997
vt 0.117498003 1.75
vt 0.117498003 1.75
vt 0.117498003 1.75699997
vt 0.112176999 1.75699997
vt 0.117498003 1.75
vt 0.112176999 1.75699997
vt 0.112176999 1.75
vt 1.75 0.859642982
vt 1.75699997 0.859642982
vt 1.75699997 0.865658998
vt 1.75 0.859642982
vt 1.75699997 0.865658998
vt 1.75 0.865658998
vt 1.75 0.865658998
vt 1.75699997 0.865658998
vt 1.75699997 0.872498989
vt 1.75 0.865658998
vt 1.75699997 0.872498989
vt 1.75 0.872498989
vt 1.75 0.872498989
vt 1.75699997 0.872498989
vt 1.75699997 0.87933898
vt 1.75 0.872498989
vt 1.75699997 0.87933898
vt 1.75 0.87933898
vt 1.75 0.87933898
vt 1.75699997 0.87933898
vt 1.75699997 0.885354996
vt 1.75 0.87933898
vt 1.75699997 0.885354996
vt 1.75 0.885354996
vt -0.112176999 1.75
vt -0.112176999 1.75699997
vt -0.117498003 1.75699997
vt -0.112176999 1.75
vt -0.117498003 1.75699997
vt -0.117498003 1.75
vt -0.117498003 1.75
vt -0.117498003 1.75699997
vt -0.124025002 1.75699997
vt -0.117498003 1.75
vt -0.124025002 1.75699997
vt -0.124025002 1.75
vt -0.124025002 1.75
vt -0.124025002 1.75699997
vt -0.130971 1.75699997
vt -0.124025002 1.75
vt -0.130971 1.75699997
vt -0.130971 1.75
vt -0.130971 1.75
vt -0.130971 1.75699997
vt -0.137498006 1.75699997
vt -0.130971 1.75
vt -0.137498006 1.75699997
vt -0.137498006 1.75
vt -0.137498006 1.75
vt -0.137498006 1.75699997
vt -0.142819002 1.75699997
vt -0.137498006 1.75
vt -0.142819002 1.75699997
vt -0.142819002 1.75
vt -1.75 0.885354996
vt -1.75699997 0.885354996
vt -1.75699997 0.87933898
vt -1.75 0.885354996
vt -1.75699997 0.87933898
vt -1.75 0.87933898
vt -1.75 0.87933898
vt -1.75699997 0.87933898
vt -1.75699997 0.872498989
vt 0.963042021 -0.545140028
vt 0.957360983 -0.533989012
vt 0.964999974 -0.557501018
vt 0.964999974 -0.557501018
vt 0.957360983 -0.533989012
vt 0.948511004 -0.525139987
vt -0.964999974 -0.557501018
vt -0.948511004 -0.525139987
vt -0.964999974 -0.557501018
vt 0.964999974 -0.557501018
vt 0.948511004 -0.525139987
vt 0.937361002 -0.519459009
vt 0.964999974 -0.557501018
vt 0.937361002 -0.519459009
vt 0.925000012 -0.517500997
vt 0.726462007 -0.0314910002
vt 0.725539029 -0.0377250016
vt 0.729278028 -0.0258540008
vt 0.729278028 -0.0258540008
vt 0.725539029 -0.0377250016
vt 0.733708978 -0.021373
vt 0.542885005 -0.517500997
vt 0.0500000007 -0.937501013
vt 0.549064994 -0.51652199
vt 0.549064994 -0.51652199
vt 0.0500000007 -0.937501013
vt 0.800000012 -0.517500997
vt 0.549064994 -0.51652199
vt 0.800000012 -0.517500997
vt 0.554641008 -0.513680995
vt -0.554641008 -0.513680995
vt -0.800000012 -0.517500997
vt -0.800000012 -0.517500997
vt 0.554641008 -0.513680995
vt 0.800000012 -0.517500997
vt 0.559064984 -0.509257019
vt -0.559064984 -0.509257019
vt -0.800000012 -0.517500997
vt -0.800000012 -0.517500997
vt 0.559064984 -0.509257019
vt 0.800000012 -0.517500997
vt 0.56190598 -0.503681004
vt -0.56190598 -0.503681004
vt -0.800000012 -0.517500997
vt -0.800000012 -0.517500997
vt 0.56190598 -0.503681004
vt 0.800000012 -0.517500997
vt 0.562884986 -0.497500986
vt -0.562884986 -0.497500986
vt -0.800000012 -0.517500997
vt -0.800000012 -0.517500997
vt 0.562884986 -0.497500986
vt 0.800000012 -0.517500997
vt 0.562884986 -0.484961003
vt -0.562884986 -0.484961003
vt -0.800000012 -0.517500997
vt -0.800000012 -0.517500997
vt 0.562884986 -0.484961003
vt 0.800000012 -0.517500997
vt 0.563440025 -0.480282009
vt -0.563440025 -0.480282009
vt -0.800000012 -0.517500997
vt -0.800000012 -0.517500997
vt 0.563440025 -0.480282009
vt 0.800000012 -0.517500997
vt 0.56507498 -0.475861996
vt 0.56507498 -0.475861996
vt 0.800000012 -0.517500997
vt 0.567698002 -0.471947014
vt 0.725539029 -0.0377250016
vt 0.719808996 -0.131898001
vt 0.777828991 -0.255225003
vt -0.777828991 -0.255225003
vt -0.719808996 -0.131898001
vt -0.719808996 -0.131898001
vt 0.777828991 -0.255225003
vt 0.719808996 -0.131898001
vt 0.773750007 -0.256709993
vt -0.773750007 -0.256709993
vt -0.719808996 -0.131898001
vt -0.719808996 -0.131898001
vt 0.773750007 -0.256709993
vt 0.719808996 -0.131898001
vt 0.770424008 -0.259499997
vt 0.770424008 -0.259499997
vt 0.719808996 -0.131898001
vt 0.700630009 -0.224276006
vt 0.770424008 -0.259499997
vt 0.700630009 -0.224276006
vt 0.768253982 -0.263260007
vt 0.768253982 -0.263260007
vt 0.700630009 -0.224276006
vt 0.767499983 -0.267535001
vt 0.782171011 -0.0751909986
vt 0.786249995 -0.0766760036
vt 0.800000012 -0.0375009999
vt 0.800000012 -0.0375009999
vt 0.786249995 -0.0766760036
vt 0.789575994 -0.0794660002
vt -0.800000012 -0.0375009999
vt -0.789575994 -0.0794660002
vt -0.800000012 -0.0375009999
vt 0.800000012 -0.0375009999
vt 0.789575994 -0.0794660002
vt 0.79174602 -0.0832260028
vt -0.800000012 -0.0375009999
vt -0.79174602 -0.0832260028
vt -0.800000012 -0.0375009999
vt 0.800000012 -0.0375009999
vt 0.79174602 -0.0832260028
vt 0.792500019 -0.0875009969
vt 0.800000012 -0.0375009999
vt 0.792500019 -0.0875009969
vt 0.79174602 -0.123226002
vt -0.79174602 -0.123226002
vt -0.792500019 -0.0875009969
vt -0.792500019 -0.0875009969
vt 0.79174602 -0.123226002
vt 0.792500019 -0.0875009969
vt 0.789575994 -0.119465999
vt 0.789575994 -0.119465999
vt 0.792500019 -0.0875009969
vt 0.79174602 -0.0917759985
vt -0.789575994 -0.119465999
vt -0.79174602 -0.0917759985
vt -0.789575994 -0.119465999
vt 0.789575994 -0.119465999
vt 0.79174602 -0.0917759985
vt 0.789575994 -0.095536001
vt 0.789575994 -0.119465999
vt 0.789575994 -0.095536001
vt 0.786249995 -0.116676003
vt 0.786249995 -0.116676003
vt 0.789575994 -0.095536001
vt 0.786249995 -0.0983259976
vt 0.786249995 -0.116676003
vt 0.786249995 -0.0983259976
vt 0.782171011 -0.115190998
vt 0.782171011 -0.115190998
vt 0.786249995 -0.0983259976
vt 0.782171011 -0.0998110026
vt 0.782171011 -0.115190998
vt 0.782171011 -0.0998110026
vt 0.777828991 -0.115190998
vt 0.777828991 -0.115190998
vt 0.782171011 -0.0998110026
vt 0.777828991 -0.0998110026
vt 0.777828991 -0.115190998
vt 0.777828991 -0.0998110026
vt 0.773750007 -0.116676003
vt -0.773750007 -0.116676003
vt -0.777828991 -0.0998110026
vt -0.777828991 -0.0998110026
vt 0.773750007 -0.116676003
vt 0.777828991 -0.0998110026
vt 0.770424008 -0.119465999
vt -0.770424008 -0.119465999
vt -0.777828991 -0.0998110026
vt -0.777828991 -0.0998110026
vt 0.770424008 -0.119465999
vt 0.777828991 -0.0998110026
vt 0.768253982 -0.123226002
vt 0.768253982 -0.123226002
vt 0.777828991 -0.0998110026
vt 0.773750007 -0.0983259976
vt -0.768253982 -0.123226002
vt -0.773750007 -0.0983259976
vt -0.768253982 -0.123226002
vt 0.768253982 -0.123226002
vt 0.773750007 -0.0983259976
vt 0.770424008 -0.095536001
vt 0.768253982 -0.123226002
vt 0.770424008 -0.095536001
vt 0.767499983 -0.127500996
vt 0.79174602 -0.123226002
vt 0.792500019 -0.127500996
vt 0.800000012 -0.0375009999
vt 0.800000012 -0.0375009999
vt 0.792500019 -0.127500996
vt 0.786249995 -0.256709993
vt -0.800000012 -0.0375009999
vt -0.786249995 -0.256709993
vt -0.800000012 -0.0375009999
vt 0.800000012 -0.0375009999
vt 0.786249995 -0.256709993
vt 0.789575994 -0.259499997
vt -0.800000012 -0.0375009999
vt -0.789575994 -0.259499997
vt -0.800000012 -0.0375009999
vt 0.800000012 -0.0375009999
vt 0.789575994 -0.259499997
vt 0.79174602 -0.263260007
vt 0.800000012 -0.0375009999
vt 0.79174602 -0.263260007
vt 0.792500019 -0.267535001
vt 0.786249995 -0.256709993
vt 0.792500019 -0.127500996
vt 0.782171011 -0.255225003
vt 0.782171011 -0.255225003
vt 0.792500019 -0.127500996
vt 0.79174602 -0.131776005
vt -0.782171011 -0.255225003
vt -0.79174602 -0.131776005
vt -0.782171011 -0.255225003
vt 0.782171011 -0.255225003
vt 0.79174602 -0.131776005
vt 0.789575994 -0.135536
vt -0.782171011 -0.255225003
vt -0.789575994 -0.135536
vt -0.782171011 -0.255225003
vt 0.782171011 -0.255225003
vt 0.789575994 -0.135536
vt 0.786249995 -0.138326004
vt -0.782171011 -0.255225003
vt -0.786249995 -0.138326004
vt -0.782171011 -0.255225003
vt 0.782171011 -0.255225003
vt 0.786249995 -0.138326004
vt 0.782171011 -0.139810994
vt 0.782171011 -0.255225003
vt 0.782171011 -0.139810994
vt 0.777828991 -0.255225003
vt 0.777828991 -0.255225003
vt 0.782171011 -0.139810994
vt 0.777828991 -0.139810994
vt -0.777828991 -0.255225003
vt -0.777828991 -0.139810994
vt -0.777828991 -0.255225003
vt 0.777828991 -0.255225003
vt 0.777828991 -0.139810994
vt 0.773750007 -0.138326004
vt -0.777828991 -0.255225003
vt -0.773750007 -0.138326004
vt -0.777828991 -0.255225003
vt 0.777828991 -0.255225003
vt 0.773750007 -0.138326004
vt 0.770424008 -0.135536
vt -0.777828991 -0.255225003
vt -0.770424008 -0.135536
vt -0.777828991 -0.255225003
vt 0.777828991 -0.255225003
vt 0.770424008 -0.135536
vt 0.768253982 -0.131776005
vt 0.777828991 -0.255225003
vt 0.768253982 -0.131776005
vt 0.733708978 -0.021373
vt 0.733708978 -0.021373
vt 0.768253982 -0.131776005
vt 0.767499983 -0.127500996
vt 0.733708978 -0.021373
vt 0.725539029 -0.0377250016
vt 0.777828991 -0.255225003
vt -0.699999988 0.332498997
vt -0.800000012 0.332498997
vt -0.699999988 0.232499003
vt -0.699999988 0.232499003
vt -0.800000012 0.332498997
vt -0.800000012 0.232499003
vt -0.842501998 0.332498997
vt -0.842501998 0.232499003
vt -0.772502005 0.332498997
vt -0.772502005 0.332498997
vt -0.842501998 0.232499003
vt -0.772502005 0.232499003
vt 0.842501998 0.232499003
vt 0.842501998 0.332498997
vt 0.792501986 0.232499003
vt 0.792501986 0.232499003
vt 0.842501998 0.332498997
vt 0.792501986 0.332498997
vt 0.745536983 -0.0175010003
vt 0.73931402 -0.0184940007
vt 0.773750007 -0.0766760036
vt 0.773750007 -0.0766760036
vt 0.73931402 -0.0184940007
vt 0.733708978 -0.021373
vt 0.773750007 -0.0766760036
vt 0.733708978 -0.021373
vt 0.770424008 -0.0794660002
vt -0.770424008 -0.0794660002
vt -0.733708978 -0.021373
vt -0.733708978 -0.021373
vt 0.770424008 -0.0794660002
vt 0.733708978 -0.021373
vt 0.768253982 -0.0832260028
vt -0.768253982 -0.0832260028
vt -0.733708978 -0.021373
vt -0.733708978 -0.021373
vt 0.768253982 -0.0832260028
vt 0.733708978 -0.021373
vt 0.767499983 -0.0875009969
vt -0.767499983 -0.0875009969
vt -0.733708978 -0.021373
vt -0.733708978 -0.021373
vt 0.767499983 -0.0875009969
vt 0.733708978 -0.021373
vt 0.768253982 -0.0917759985
vt 0.768253982 -0.0917759985
vt 0.733708978 -0.021373
vt 0.767499983 -0.127500996
vt 0.768253982 -0.0917759985
vt 0.767499983 -0.127500996
vt 0.770424008 -0.095536001
vt 0.745536983 -0.0175010003
vt 0.777828991 -0.0751909986
vt 0.779999971 -0.0175010003
vt -0.779999971 -0.0175010003
vt -0.777828991 -0.0751909986
vt -0.777828991 -0.0751909986
vt 0.779999971 -0.0175010003
vt 0.777828991 -0.0751909986
vt 0.786180019 -0.0184799992
vt -0.786180019 -0.0184799992
vt -0.777828991 -0.0751909986
vt -0.777828991 -0.0751909986
vt 0.786180019 -0.0184799992
vt 0.777828991 -0.0751909986
vt 0.791755974 -0.0213210005
vt 0.791755974 -0.0213210005
vt 0.777828991 -0.0751909986
vt 0.782171011 -0.0751909986
vt 0.791755974 -0.0213210005
vt 0.782171011 -0.0751909986
vt 0.79618001 -0.0257450007
vt -0.79618001 -0.0257450007
vt -0.782171011 -0.0751909986
vt -0.782171011 -0.0751909986
vt 0.79618001 -0.0257450007
vt 0.782171011 -0.0751909986
vt 0.799021006 -0.0313210003
vt 0.799021006 -0.0313210003
vt 0.782171011 -0.0751909986
vt 0.800000012 -0.0375009999
vt 0.800000012 0.332498997
vt 0.699999988 0.332498997
vt 0.800000012 0.232499003
vt 0.800000012 0.232499003
vt 0.699999988 0.332498997
vt 0.699999988 0.232499003
vt -0.432502002 0.232499003
vt -0.432502002 0.332498997
vt -0.462502003 0.232499003
vt -0.462502003 0.232499003
vt -0.432502002 0.332498997
vt -0.462502003 0.332498997
vt 0.462502003 0.232499003
vt 0.462502003 0.332498997
vt 0.38250199 0.232499003
vt 0.38250199 0.232499003
vt 0.462502003 0.332498997
vt 0.38250199 0.332498997
vt 0.807501972 0.740536988
vt 0.807501972 0.745536983
vt 0.342501998 0.740536988
vt 0.342501998 0.740536988
vt 0.807501972 0.745536983
vt 0.342501998 0.745536983
vt -0.740536988 -0.517500997
vt -0.740536988 -0.0183809996
vt -0.745536983 -0.517500997
vt -0.745536983 -0.517500997
vt -0.740536988 -0.0183809996
vt -0.745536983 -0.0175010003
vt -0.807501972 -0.517500997
vt -0.342501998 -0.517500997
vt -0.807501972 -0.337518007
vt -0.807501972 -0.337518007
vt -0.342501998 -0.517500997
vt -0.342501998 -0.0175010003
vt -0.807501972 -0.337518007
vt -0.342501998 -0.0175010003
vt -0.807501972 -0.0175010003
vt -0.192502007 0.872498989
vt -0.193104997 0.869078994
vt -0.183707997 0.865658998
vt -1.75699997 0.865658998
vt -1.75699997 0.869078994
vt -1.75699997 0.869078994
vt -0.183707997 0.865658998
vt -0.193104997 0.869078994
vt -0.187180996 0.859642982
vt -0.187180996 0.859642982
vt -0.193104997 0.869078994
vt -0.194840997 0.866070986
vt -1.75699997 0.859642982
vt -1.75699997 0.866070986
vt -1.75699997 0.859642982
vt -0.187180996 0.859642982
vt -0.194840997 0.866070986
vt -0.197502002 0.863838971
vt -0.187180996 0.859642982
vt -0.197502002 0.863838971
vt -0.192502007 0.855177999
vt -1.75699997 0.855177999
vt -1.75699997 0.863838971
vt -1.75699997 0.863838971
vt -0.192502007 0.855177999
vt -0.197502002 0.863838971
vt -0.199028999 0.852802992
vt -0.199028999 0.852802992
vt -0.197502002 0.863838971
vt -0.200764999 0.86265099
vt -1.75699997 0.852802992
vt -1.75699997 0.86265099
vt -1.75699997 0.852802992
vt -0.199028999 0.852802992
vt -0.200764999 0.86265099
vt -0.204237998 0.86265099
vt -0.199028999 0.852802992
vt -0.204237998 0.86265099
vt -0.205974996 0.852802992
vt -1.75699997 0.852802992
vt -1.75699997 0.86265099
vt -1.75699997 0.86265099
vt -0.205974996 0.852802992
vt -0.204237998 0.86265099
vt -0.212502003 0.855177999
vt -0.212502003 0.855177999
vt -0.204237998 0.86265099
vt -0.207501993 0.863838971
vt -0.212502003 0.855177999
vt -0.207501993 0.863838971
vt -0.217822999 0.859642982
vt -0.217822999 0.859642982
vt -0.207501993 0.863838971
vt -0.210161999 0.866070986
vt -1.75699997 0.859642982
vt -1.75699997 0.866070986
vt -1.75699997 0.859642982
vt -0.217822999 0.859642982
vt -0.210161999 0.866070986
vt -0.211898997 0.869078994
vt -0.217822999 0.859642982
vt -0.211898997 0.869078994
vt -0.221295998 0.865658998
vt -0.221295998 0.865658998
vt -0.211898997 0.869078994
vt -0.212502003 0.872498989
vt -0.221295998 0.865658998
vt -0.212502003 0.872498989
vt -0.222501993 0.872498989
vt -0.222501993 0.872498989
vt -0.212502003 0.872498989
vt -0.211898997 0.875918984
vt -0.222501993 0.872498989
vt -0.211898997 0.875918984
vt -0.221295998 0.87933898
vt -0.221295998 0.87933898
vt -0.211898997 0.875918984
vt -0.210161999 0.878926992
vt -0.221295998 0.87933898
vt -0.210161999 0.878926992
vt -0.217822999 0.885354996
vt -0.217822999 0.885354996
vt -0.210161999 0.878926992
vt -0.207501993 0.881159008
vt -0.217822999 0.885354996
vt -0.207501993 0.881159008
vt -0.212502003 0.88981998
vt -0.212502003 0.88981998
vt -0.207501993 0.881159008
vt -0.204237998 0.882346988
vt -0.212502003 0.88981998
vt -0.204237998 0.882346988
vt -0.205974996 0.892194986
vt -0.205974996 0.892194986
vt -0.204237998 0.882346988
vt -0.200764999 0.882346988
vt -0.205974996 0.892194986
vt -0.200764999 0.882346988
vt -0.199028999 0.892194986
vt -0.199028999 0.892194986
vt -0.200764999 0.882346988
vt -0.197502002 0.881159008
vt -0.199028999 0.892194986
vt -0.197502002 0.881159008
vt -0.192502007 0.88981998
vt -1.75699997 0.88981998
vt -1.75699997 0.881159008
vt -1.75699997 0.881159008
vt -0.192502007 0.88981998
vt -0.197502002 0.881159008
vt -0.187180996 0.885354996
vt -0.187180996 0.885354996
vt -0.197502002 0.881159008
vt -0.194840997 0.878926992
vt -1.75699997 0.885354996
vt -1.75699997 0.878926992
vt -1.75699997 0.885354996
vt -0.187180996 0.885354996
vt -0.194840997 0.878926992
vt -0.193104997 0.875918984
vt -0.187180996 0.885354996
vt -0.193104997 0.875918984
vt -0.183707997 0.87933898
vt -0.183707997 0.87933898
vt -0.193104997 0.875918984
vt -0.182502002 0.872498989
vt 0.699999988 0.232499003
vt 0.800000012 0.232499003
vt 0.699999988 0.332498997
vt 0.699999988 0.332498997
vt 0.800000012 0.232499003
vt 0.800000012 0.332498997
vt 0.807501972 -0.517500997
vt 0.807501972 -0.0183809996
vt 0.342501998 -0.517500997
vt 0.342501998 -0.517500997
vt 0.807501972 -0.0183809996
vt 0.342501998 -0.0183809996
vt -1.75 0.872498989
vt -1.75699997 0.865658998
vt -1.75 0.865658998
vt -1.75 0.865658998
vt -1.75699997 0.865658998
vt -1.75699997 0.859642982
vt -1.75 0.865658998
vt -1.75699997 0.859642982
vt -1.75 0.859642982
vt -0.187180996 1.75
vt -0.187180996 1.75699997
vt -0.192502007 1.75699997
vt -0.187180996 1.75
vt -0.192502007 1.75699997
vt -0.192502007 1.75
vt -0.192502007 1.75
vt -0.192502007 1.75699997
vt -0.199028999 1.75699997
vt -0.192502007 1.75
vt -0.199028999 1.75699997
vt -0.199028999 1.75
vt -0.199028999 1.75
vt -0.199028999 1.75699997
vt -0.205974996 1.75699997
vt -0.199028999 1.75
vt -0.205974996 1.75699997
vt -0.205974996 1.75
vt -0.205974996 1.75
vt -0.205974996 1.75699997
vt -0.212502003 1.75699997
vt -0.205974996 1.75
vt -0.212502003 1.75699997
vt -0.212502003 1.75
vt -0.212502003 1.75
vt -0.212502003 1.75699997
vt -0.217822999 1.75699997
vt -0.212502003 1.75
vt -0.217822999 1.75699997
vt -0.217822999 1.75
vt 1.75 0.859642982
vt 1.75699997 0.859642982
vt 1.75699997 0.865658998
vt 1.75 0.859642982
vt 1.75699997 0.865658998
vt 1.75 0.865658998
vt 1.75 0.865658998
vt 1.75699997 0.865658998
vt 1.75699997 0.872498989
vt 1.75 0.865658998
vt 1.75699997 0.872498989
vt 1.75 0.872498989
vt 1.75 0.872498989
vt 1.75699997 0.872498989
vt 1.75699997 0.87933898
vt 1.75 0.872498989
vt 1.75699997 0.87933898
vt 1.75 0.87933898
vt 1.75 0.87933898
vt 1.75699997 0.87933898
vt 1.75699997 0.885354996
vt 1.75 0.87933898
vt 1.75699997 0.885354996
vt 1.75 0.885354996
vt 0.217822999 1.75
vt 0.217822999 1.75699997
vt 0.212502003 1.75699997
vt 0.217822999 1.75
vt 0.212502003 1.75699997
vt 0.212502003 1.75
vt 0.212502003 1.75
vt 0.212502003 1.75699997
vt 0.205974996 1.75699997
vt 0.212502003 1.75
vt 0.205974996 1.75699997
vt 0.205974996 1.75
vt 0.205974996 1.75
vt 0.205974996 1.75699997
vt 0.199028999 1.75699997
vt 0.205974996 1.75
vt 0.199028999 1.75699997
vt 0.199028999 1.75
vt 0.199028999 1.75
vt 0.199028999 1.75699997
vt 0.192502007 1.75699997
vt 0.199028999 1.75
vt 0.192502007 1.75699997
vt 0.192502007 1.75
vt 0.192502007 1.75
vt 0.192502007 1.75699997
vt 0.187180996 1.75699997
vt 0.192502007 1.75
vt 0.187180996 1.75699997
vt 0.187180996 1.75
vt -1.75 0.885354996
vt -1.75699997 0.885354996
vt -1.75699997 0.87933898
vt -1.75 0.885354996
vt -1.75699997 0.87933898
vt -1.75 0.87933898
vt -1.75 0.87933898
vt -1.75699997 0.87933898
vt -1.75699997 0.872498989
vt 0.925000012 -0.937501013
vt 0.878750026 -0.517500997
vt 0.878750026 -0.937501013
vt 0.878750026 -0.937501013
vt 0.878750026 -0.517500997
vt 0.800000012 -0.517500997
vt -0.852497995 1.69749904
vt -0.867497981 1.09749901
vt -0.850386977 1.68552804
vt -0.850386977 1.68552804
vt -0.867497981 1.09749901
vt -0.852497995 1.14749897
vt -0.852497995 1.69749904
vt -0.850386977 1.70947003
vt -0.867497981 1.74749899
vt -0.867497981 1.74749899
vt -0.850386977 1.70947003
vt -0.844309986 1.71999705
vt -0.0500000007 1.74749899
vt -0.0500000007 1.71999705
vt -0.0500000007 1.74749899
vt -0.867497981 1.74749899
vt -0.844309986 1.71999705
vt -0.834998012 1.72781003
vt -0.0500000007 1.74749899
vt -0.0500000007 1.72781003
vt -0.0500000007 1.74749899
vt -0.867497981 1.74749899
vt -0.834998012 1.72781003
vt -0.823575974 1.73196697
vt -0.867497981 1.74749899
vt -0.823575974 1.73196697
vt -0.811420023 1.73196697
vt 0.317501992 1.69749904
vt 0.332502007 1.74749899
vt 0.315391004 1.70947003
vt -0.0500000007 1.70947003
vt -0.0500000007 1.74749899
vt -0.0500000007 1.74749899
vt 0.315391004 1.70947003
vt 0.332502007 1.74749899
vt 0.309312999 1.71999705
vt -0.0500000007 1.71999705
vt -0.0500000007 1.74749899
vt -0.0500000007 1.74749899
vt 0.309312999 1.71999705
vt 0.332502007 1.74749899
vt 0.300002009 1.72781003
vt -0.0500000007 1.72781003
vt -0.0500000007 1.74749899
vt -0.0500000007 1.74749899
vt 0.300002009 1.72781003
vt 0.332502007 1.74749899
vt 0.28858 1.73196697
vt -0.0500000007 1.73196697
vt -0.0500000007 1.74749899
vt -0.0500000007 1.74749899
vt 0.28858 1.73196697
vt 0.332502007 1.74749899
vt 0.276423991 1.73196697
vt 0.276423991 1.73196697
vt 0.332502007 1.74749899
vt -0.78460902 1.70947003
vt 0.276423991 1.73196697
vt -0.78460902 1.70947003
vt 0.265002012 1.72781003
vt -0.0500000007 1.72781003
vt -0.0500000007 1.70947003
vt -0.0500000007 1.70947003
vt 0.265002012 1.72781003
vt -0.78460902 1.70947003
vt 0.255690008 1.71999705
vt -0.0500000007 1.71999705
vt -0.0500000007 1.70947003
vt -0.0500000007 1.70947003
vt 0.255690008 1.71999705
vt -0.78460902 1.70947003
vt 0.249613002 1.70947003
vt -0.0500000007 1.70947003
vt -0.0500000007 1.70947003
vt -0.0500000007 1.70947003
vt 0.249613002 1.70947003
vt -0.78460902 1.70947003
vt 0.247501999 1.69749904
vt -0.0500000007 1.69749904
vt -0.0500000007 1.70947003
vt -0.0500000007 1.70947003
vt 0.247501999 1.69749904
vt -0.78460902 1.70947003
vt 0.249613002 1.68552804
vt -0.0500000007 1.68552804
vt -0.0500000007 1.70947003
vt -0.0500000007 1.70947003
vt 0.249613002 1.68552804
vt -0.78460902 1.70947003
vt 0.255690008 1.67500198
vt -0.0500000007 1.67500198
vt -0.0500000007 1.70947003
vt -0.0500000007 1.70947003
vt 0.255690008 1.67500198
vt -0.78460902 1.70947003
vt 0.265002012 1.66718805
vt 0.265002012 1.66718805
vt -0.78460902 1.70947003
vt -0.782498002 1.69749904
vt 0.265002012 1.66718805
vt -0.782498002 1.69749904
vt 0.276423991 1.66303098
vt 0.276423991 1.66303098
vt -0.782498002 1.69749904
vt -0.78460902 1.68552804
vt 0.276423991 1.66303098
vt -0.78460902 1.68552804
vt 0.300002009 1.17780995
vt -0.0500000007 1.17780995
vt -0.0500000007 1.68552804
vt -0.0500000007 1.68552804
vt 0.300002009 1.17780995
vt -0.78460902 1.68552804
vt 0.28858 1.18196702
vt -0.0500000007 1.18196702
vt -0.0500000007 1.68552804
vt -0.0500000007 1.68552804
vt 0.28858 1.18196702
vt -0.78460902 1.68552804
vt 0.276423991 1.18196702
vt 0.276423991 1.18196702
vt -0.78460902 1.68552804
vt -0.790687025 1.16999698
vt -0.0500000007 1.18196702
vt -0.0500000007 1.16999698
vt -0.0500000007 1.18196702
vt 0.276423991 1.18196702
vt -0.790687025 1.16999698
vt -0.78460902 1.15946996
vt 0.276423991 1.18196702
vt -0.78460902 1.15946996
vt 0.265002012 1.17780995
vt -0.0500000007 1.17780995
vt -0.0500000007 1.15946996
vt -0.0500000007 1.15946996
vt 0.265002012 1.17780995
vt -0.78460902 1.15946996
vt 0.255690008 1.16999698
vt -0.0500000007 1.16999698
vt -0.0500000007 1.15946996
vt -0.0500000007 1.15946996
vt 0.255690008 1.16999698
vt -0.78460902 1.15946996
vt 0.249613002 1.15946996
vt -0.0500000007 1.15946996
vt -0.0500000007 1.15946996
vt -0.0500000007 1.15946996
vt 0.249613002 1.15946996
vt -0.78460902 1.15946996
vt 0.247501999 1.14749897
vt 0.247501999 1.14749897
vt -0.78460902 1.15946996
vt -0.782498002 1.14749897
vt -0.0500000007 1.14749897
vt -0.0500000007 1.14749897
vt -0.0500000007 1.14749897
vt 0.247501999 1.14749897
vt -0.782498002 1.14749897
vt -0.78460902 1.13552797
vt 0.247501999 1.14749897
vt -0.78460902 1.13552797
vt 0.249613002 1.13552797
vt -0.0500000007 1.13552797
vt -0.0500000007 1.13552797
vt -0.0500000007 1.13552797
vt 0.249613002 1.13552797
vt -0.78460902 1.13552797
vt 0.255690008 1.12500203
vt -0.0500000007 1.12500203
vt -0.0500000007 1.13552797
vt -0.0500000007 1.13552797
vt 0.255690008 1.12500203
vt -0.78460902 1.13552797
vt 0.265002012 1.11718798
vt -0.0500000007 1.11718798
vt -0.0500000007 1.13552797
vt -0.0500000007 1.13552797
vt 0.265002012 1.11718798
vt -0.78460902 1.13552797
vt 0.276423991 1.11303103
vt 0.276423991 1.11303103
vt -0.78460902 1.13552797
vt 0.332502007 1.09749901
vt 0.276423991 1.11303103
vt 0.332502007 1.09749901
vt 0.28858 1.11303103
vt -0.0500000007 1.11303103
vt -0.0500000007 1.09749901
vt -0.0500000007 1.09749901
vt 0.28858 1.11303103
vt 0.332502007 1.09749901
vt 0.300002009 1.11718798
vt -0.0500000007 1.11718798
vt -0.0500000007 1.09749901
vt -0.0500000007 1.09749901
vt 0.300002009 1.11718798
vt 0.332502007 1.09749901
vt 0.309312999 1.12500203
vt -0.0500000007 1.12500203
vt -0.0500000007 1.09749901
vt -0.0500000007 1.09749901
vt 0.309312999 1.12500203
vt 0.332502007 1.09749901
vt 0.315391004 1.13552797
vt 0.315391004 1.13552797
vt 0.332502007 1.09749901
vt 0.317501992 1.14749897
vt -0.78460902 1.13552797
vt -0.790687025 1.12500203
vt 0.332502007 1.09749901
vt 0.332502007 1.09749901
vt -0.790687025 1.12500203
vt -0.799997985 1.11718798
vt 0.332502007 1.09749901
vt -0.799997985 1.11718798
vt -0.811420023 1.11303103
vt -0.790687025 1.16999698
vt -0.78460902 1.68552804
vt -0.799997985 1.17780995
vt -0.799997985 1.17780995
vt -0.78460902 1.68552804
vt -0.790687025 1.67500198
vt -0.0500000007 1.17780995
vt -0.0500000007 1.67500198
vt -0.0500000007 1.17780995
vt -0.799997985 1.17780995
vt -0.790687025 1.67500198
vt -0.799997985 1.66718805
vt -0.0500000007 1.17780995
vt -0.0500000007 1.66718805
vt -0.0500000007 1.17780995
vt -0.799997985 1.17780995
vt -0.799997985 1.66718805
vt -0.811420023 1.66303098
vt -0.799997985 1.17780995
vt -0.811420023 1.66303098
vt -0.811420023 1.18196702
vt -0.0500000007 1.18196702
vt -0.0500000007 1.66303098
vt -0.0500000007 1.66303098
vt -0.811420023 1.18196702
vt -0.811420023 1.66303098
vt -0.823575974 1.18196702
vt -0.823575974 1.18196702
vt -0.811420023 1.66303098
vt -0.823575974 1.66303098
vt -0.0500000007 1.18196702
vt -0.0500000007 1.66303098
vt -0.0500000007 1.18196702
vt -0.823575974 1.18196702
vt -0.823575974 1.66303098
vt -0.834998012 1.66718805
vt -0.823575974 1.18196702
vt -0.834998012 1.66718805
vt -0.834998012 1.17780995
vt -0.0500000007 1.17780995
vt -0.0500000007 1.66718805
vt -0.0500000007 1.66718805
vt -0.834998012 1.17780995
vt -0.834998012 1.66718805
vt -0.844309986 1.16999698
vt -0.0500000007 1.16999698
vt -0.0500000007 1.66718805
vt -0.0500000007 1.66718805
vt -0.844309986 1.16999698
vt -0.834998012 1.66718805
vt -0.850386977 1.15946996
vt -0.850386977 1.15946996
vt -0.834998012 1.66718805
vt -0.844309986 1.67500198
vt -0.0500000007 1.15946996
vt -0.0500000007 1.67500198
vt -0.0500000007 1.15946996
vt -0.850386977 1.15946996
vt -0.844309986 1.67500198
vt -0.850386977 1.68552804
vt -0.850386977 1.15946996
vt -0.850386977 1.68552804
vt -0.852497995 1.14749897
vt 0.276423991 1.66303098
vt 0.300002009 1.17780995
vt 0.28858 1.66303098
vt 0.28858 1.66303098
vt 0.300002009 1.17780995
vt 0.309312999 1.16999698
vt 0.28858 1.66303098
vt 0.309312999 1.16999698
vt 0.300002009 1.66718805
vt 0.300002009 1.66718805
vt 0.309312999 1.16999698
vt 0.315391004 1.15946996
vt 0.300002009 1.66718805
vt 0.315391004 1.15946996
vt 0.317501992 1.14749897
vt -0.78460902 1.70947003
vt 0.332502007 1.74749899
vt -0.790687025 1.71999705
vt -0.0500000007 1.71999705
vt -0.0500000007 1.74749899
vt -0.0500000007 1.74749899
vt -0.790687025 1.71999705
vt 0.332502007 1.74749899
vt -0.799997985 1.72781003
vt -0.799997985 1.72781003
vt 0.332502007 1.74749899
vt -0.811420023 1.73196697
vt 0.317501992 1.69749904
vt 0.315391004 1.68552804
vt 0.332502007 1.09749901
vt 0.332502007 1.09749901
vt 0.315391004 1.68552804
vt 0.309312999 1.67500198
vt -0.0500000007 1.09749901
vt -0.0500000007 1.67500198
vt -0.0500000007 1.09749901
vt 0.332502007 1.09749901
vt 0.309312999 1.67500198
vt 0.300002009 1.66718805
vt 0.332502007 1.09749901
vt 0.300002009 1.66718805
vt 0.317501992 1.14749897
vt 0.146292001 0.865658998
vt 0.147497997 0.872498989
vt 0.127498001 0.872498989
vt 0.127498001 0.872498989
vt 0.147497997 0.872498989
vt 0.146292001 0.87933898
vt -1.75699997 0.872498989
vt -1.75699997 0.87933898
vt -1.75699997 0.872498989
vt 0.127498001 0.872498989
vt 0.146292001 0.87933898
vt 0.142819002 0.885354996
vt -1.75699997 0.872498989
vt -1.75699997 0.885354996
vt -1.75699997 0.872498989
vt 0.127498001 0.872498989
vt 0.142819002 0.885354996
vt 0.137498006 0.88981998
vt -1.75699997 0.872498989
vt -1.75699997 0.88981998
vt -1.75699997 0.872498989
vt 0.127498001 0.872498989
vt 0.137498006 0.88981998
vt 0.130971 0.892194986
vt -1.75699997 0.872498989
vt -1.75699997 0.892194986
vt -1.75699997 0.872498989
vt 0.127498001 0.872498989
vt 0.130971 0.892194986
vt 0.124025002 0.892194986
vt -1.75699997 0.872498989
vt -1.75699997 0.892194986
vt -1.75699997 0.872498989
vt 0.127498001 0.872498989
vt 0.124025002 0.892194986
vt 0.117498003 0.88981998
vt -1.75699997 0.872498989
vt -1.75699997 0.88981998
vt -1.75699997 0.872498989
vt 0.127498001 0.872498989
vt 0.117498003 0.88981998
vt 0.112176999 0.885354996
vt -1.75699997 0.872498989
vt -1.75699997 0.885354996
vt -1.75699997 0.872498989
vt 0.127498001 0.872498989
vt 0.112176999 0.885354996
vt 0.108704001 0.87933898
vt -1.75699997 0.872498989
vt -1.75699997 0.87933898
vt -1.75699997 0.872498989
vt 0.127498001 0.872498989
vt 0.108704001 0.87933898
vt 0.107497998 0.872498989
vt -1.75699997 0.872498989
vt -1.75699997 0.872498989
vt -1.75699997 0.872498989
vt 0.127498001 0.872498989
vt 0.107497998 0.872498989
vt 0.108704001 0.865658998
vt -1.75699997 0.872498989
vt -1.75699997 0.865658998
vt -1.75699997 0.872498989
vt 0.127498001 0.872498989
vt 0.108704001 0.865658998
vt 0.112176999 0.859642982
vt -1.75699997 0.872498989
vt -1.75699997 0.859642982
vt -1.75699997 0.872498989
vt 0.127498001 0.872498989
vt 0.112176999 0.859642982
vt 0.117498003 0.855177999
vt -1.75699997 0.872498989
vt -1.75699997 0.855177999
vt -1.75699997 0.872498989
vt 0.127498001 0.872498989
vt 0.117498003 0.855177999
vt 0.124025002 0.852802992
vt -1.75699997 0.872498989
vt -1.75699997 0.852802992
vt -1.75699997 0.872498989
vt 0.127498001 0.872498989
vt 0.124025002 0.852802992
vt 0.130971 0.852802992
vt -1.75699997 0.872498989
vt -1.75699997 0.852802992
vt -1.75699997 0.872498989
vt 0.127498001 0.872498989
vt 0.130971 0.852802992
vt 0.137498006 0.855177999
vt -1.75699997 0.872498989
vt -1.75699997 0.855177999
vt -1.75699997 0.872498989
vt 0.127498001 0.872498989
vt 0.137498006 0.855177999
vt 0.142819002 0.859642982
vt 0.127498001 0.872498989
vt 0.142819002 0.859642982
vt 0.146292001 0.865658998
vt 0.867497981 1.09749901
vt 0.867497981 1.74749899
vt -0.332502007 1.09749901
vt -0.332502007 1.09749901
vt 0.867497981 1.74749899
vt -0.332502007 1.74749899
vt -0.867497981 0.0500000007
vt 0.332502007 0.0500000007
vt -0.867497981 1.75
vt -0.867497981 1.75
vt 0.332502007 0.0500000007
vt 0.332502007 1.75
vt 0.867497981 0.610000014
vt -0.332502007 0.610000014
vt 0.867497981 0.0500000007
vt 0.867497981 0.0500000007
vt -0.332502007 0.610000014
vt -0.332502007 0.0500000007
vt 0.867497981 1.75
vt 0.847498 1.73000002
vt 0.847498 1.44000006
vt 0.847498 1.44000006
vt -0.312501997 1.44000006
vt 0.290921003 1.37
vt -0.282501996 0.860000014
vt -0.332502007 0.660000026
vt 0.207497999 0.860000014
vt 0.207497999 0.860000014
vt -0.332502007 0.660000026
vt 0.237498 0.860000014
vt 0.867497981 1.75
vt -0.332502007 1.75
vt 0.847498 1.73000002
vt 0.817498028 0.899999976
vt 0.327497989 0.899999976
vt 0.817498028 0.860000014
vt 0.867497981 1.75
vt 0.847498 1.44000006
vt 0.867497981 0.660000026
vt 0.327497989 0.899999976
vt 0.327497989 0.860000014
vt 0.817498028 0.860000014
vt 0.247498006 1.37
vt 0.247498006 1.12
vt 0.290921003 1.12
vt 0.817498028 0.860000014
vt 0.327497989 0.860000014
vt 0.867497981 0.660000026
vt 0.247498006 1.12
vt -0.262502015 1.12
vt -0.312501997 1.01999998
vt 0.290921003 1.12
vt -0.312501997 1.01999998
vt 0.847498 1.01999998
vt 0.297497988 0.899999976
vt 0.237498 0.899999976
vt 0.297497988 0.860000014
vt 0.327497989 0.860000014
vt 0.297497988 0.860000014
vt 0.867497981 0.660000026
vt 0.297497988 0.860000014
vt 0.237498 0.860000014
vt 0.867497981 0.660000026
vt 0.237498 0.899999976
vt 0.237498 0.860000014
vt 0.297497988 0.860000014
vt 0.237498 0.860000014
vt -0.332502007 0.660000026
vt 0.867497981 0.660000026
vt 0.207497999 0.899999976
vt -0.282501996 0.899999976
vt 0.207497999 0.860000014
vt -0.332502007 1.75
vt -0.332502007 0.660000026
vt -0.312501997 1.44000006
vt -0.282501996 0.899999976
vt -0.282501996 0.860000014
vt 0.207497999 0.860000014
vt 0.247498006 1.12
vt -0.312501997 1.01999998
vt 0.290921003 1.12
vt 0.290921003 1.37
vt 0.247498006 1.37
vt 0.290921003 1.12
vt 0.290921003 1.37
vt -0.312501997 1.44000006
vt 0.247498006 1.37
vt 0.797497988 1.12
vt 0.290921003 1.12
vt 0.847498 1.01999998
vt -0.282501996 0.860000014
vt -0.312501997 0.860000014
vt -0.332502007 0.660000026
vt -0.332502007 0.660000026
vt -0.312501997 0.860000014
vt -0.312501997 0.899999976
vt -0.332502007 0.660000026
vt -0.312501997 0.899999976
vt -0.312501997 1.01999998
vt 0.797497988 1.12
vt 0.847498 1.01999998
vt 0.847498 1.44000006
vt 0.847498 1.44000006
vt 0.847498 1.01999998
vt 0.867497981 0.660000026
vt 0.797497988 1.12
vt 0.847498 1.44000006
vt 0.797497988 1.37
vt 0.797497988 1.37
vt 0.847498 1.44000006
vt 0.290921003 1.37
vt 0.247498006 1.37
vt -0.312501997 1.44000006
vt -0.262502015 1.37
vt -0.262502015 1.37
vt -0.312501997 1.44000006
vt -0.262502015 1.12
vt 0.847498 1.73000002
vt -0.332502007 1.75
vt -0.312501997 1.73000002
vt -0.312501997 1.73000002
vt -0.332502007 1.75
vt -0.312501997 1.44000006
vt -0.332502007 0.660000026
vt -0.312501997 1.01999998
vt -0.312501997 1.44000006
vt -0.312501997 1.44000006
vt -0.312501997 1.01999998
vt -0.262502015 1.12
vt 0.817498028 0.860000014
vt 0.867497981 0.660000026
vt 0.847498 0.860000014
vt -0.860000014 1.09749901
vt -0.660000026 1.09749901
vt -0.660000026 1.09749901
vt 0.847498 0.860000014
vt 0.867497981 0.660000026
vt 0.847498 0.899999976
vt 0.847498 0.899999976
vt 0.867497981 0.660000026
vt 0.847498 1.01999998
f 1/1 2/2 3/3
f 4/4 5/5 6/6
f 6/7 2/8 7/9
f 8/10 3/11 5/12
f 9/13 10/14 11/15
f 12/16 13/17 14/18
f 15/19 16/20 17/21
f 18/22 19/23 20/24
f 21/25 22/26 23/27
f 24/28 25/29 26/30
f 27/31 28/32 29/33
f 30/34 31/35 13/36
f 30/37 16/38 31/39
f 11/40 10/41 32/42
f 33/43 34/44 31/45
f 35/46 24/47 26/48
f 36/49 37/50 29/51
f 38/52 39/53 40/54
f 41/55 39/56 42/57
f 43/58 44/59 45/60
f 30/61 13/62 9/63
f 30/64 17/65 16/66
f 9/67 13/68 10/69
f 46/70 47/71 48/72
f 34/73 14/74 31/75
f 14/76 13/77 31/78
f 49/79 50/80 51/81
f 52/82 21/83 23/84
f 53/85 48/86 54/87
f 23/88 22/89 55/90
f 56/91 57/92 51/93
f 57/94 49/95 51/96
f 58/97 59/98 60/99
f 29/100 28/101 36/102
f 61/103 27/104 29/105
f 42/106 39/107 38/108
f 62/109 5/110 63/111
f 63/112 5/113 5/114
f 63/115 5/116 64/117
f 64/118 5/119 5/120
f 64/121 5/122 65/123
f 65/124 5/125 5/126
f 65/127 5/128 66/129
f 66/130 5/131 4/132
f 40/133 67/134 38/135
f 38/136 67/137 68/138
f 38/139 68/140 69/141
f 69/142 68/143 70/144
f 47/145 71/146 72/147
f 72/148 71/149 71/150
f 72/151 71/152 73/153
f 73/154 71/155 71/156
f 73/157 71/158 74/159
f 74/160 71/161 71/162
f 74/163 71/164 75/165
f 75/166 71/167 71/168
f 75/169 71/170 76/171
f 76/172 71/173 71/174
f 76/175 71/176 77/177
f 77/178 71/179 71/180
f 77/181 71/182 78/183
f 78/184 71/185 79/186
f 78/187 79/188 80/189
f 80/190 79/191 79/192
f 80/193 79/194 81/195
f 81/196 79/197 44/198
f 81/199 44/200 82/201
f 82/202 44/203 44/204
f 82/205 44/206 83/207
f 83/208 44/209 44/210
f 83/211 44/212 84/213
f 84/214 44/215 85/216
f 84/217 85/218 84/219
f 84/220 85/221 86/222
f 84/223 86/224 87/225
f 87/226 86/227 88/228
f 87/229 88/230 89/231
f 89/232 88/233 90/234
f 89/235 90/236 91/237
f 91/238 90/239 90/240
f 91/241 90/242 92/243
f 92/244 90/245 93/246
f 92/247 93/248 94/249
f 94/250 93/251 95/252
f 94/253 95/254 94/255
f 94/256 95/257 96/258
f 94/259 96/260 97/261
f 97/262 96/263 96/264
f 97/265 96/266 72/267
f 72/268 96/269 98/270
f 72/271 98/272 47/273
f 47/274 98/275 99/276
f 47/277 99/278 47/279
f 47/280 99/281 100/282
f 47/283 100/284 47/285
f 47/286 100/287 101/288
f 47/289 101/290 47/291
f 47/292 101/293 102/294
f 47/295 102/296 47/297
f 47/298 102/299 103/300
f 47/301 103/302 45/303
f 45/304 103/305 104/306
f 45/307 104/308 45/309
f 45/310 104/311 105/312
f 45/313 105/314 45/315
f 45/316 105/317 106/318
f 45/319 106/320 43/321
f 85/322 44/323 107/324
f 107/325 44/326 43/327
f 79/328 71/329 60/330
f 60/331 71/332 108/333
f 60/334 108/335 60/336
f 60/337 108/338 109/339
f 60/340 109/341 60/342
f 60/343 109/344 110/345
f 60/346 110/347 60/348
f 60/349 110/350 111/351
f 60/352 111/353 58/354
f 108/355 71/356 112/357
f 112/358 71/359 71/360
f 112/361 71/362 113/363
f 113/364 71/365 71/366
f 113/367 71/368 114/369
f 114/370 71/371 71/372
f 114/373 71/374 115/375
f 115/376 71/377 71/378
f 115/379 71/380 116/381
f 116/382 71/383 117/384
f 24/385 35/386 118/387
f 118/388 35/389 119/390
f 118/391 119/392 120/393
f 120/394 119/395 121/396
f 120/397 121/398 122/399
f 122/400 121/401 123/402
f 122/403 123/404 124/405
f 124/406 123/407 125/408
f 124/409 125/410 126/411
f 126/412 125/413 127/414
f 126/415 127/416 128/417
f 128/418 127/419 129/420
f 128/421 129/422 130/423
f 130/424 129/425 131/426
f 130/427 131/428 132/429
f 132/430 131/431 133/432
f 132/433 133/434 134/435
f 134/436 133/437 135/438
f 134/439 135/440 136/441
f 136/442 135/443 137/444
f 136/445 137/446 138/447
f 138/448 137/449 139/450
f 138/451 139/452 140/453
f 140/454 139/455 141/456
f 140/457 141/458 142/459
f 142/460 141/461 143/462
f 142/463 143/464 144/465
f 144/466 143/467 145/468
f 144/469 145/470 146/471
f 146/472 145/473 147/474
f 146/475 147/476 148/477
f 148/478 147/479 149/480
f 148/481 149/482 25/483
f 25/484 149/485 26/486
f 150/487 151/488 42/489
f 42/490 151/491 152/492
f 42/493 152/494 42/495
f 42/496 152/497 153/498
f 42/499 153/500 41/501
f 154/502 155/503 156/504
f 156/505 155/506 157/507
f 54/508 48/509 158/510
f 158/511 48/512 47/513
f 158/514 47/515 159/516
f 159/517 47/518 47/519
f 159/520 47/521 160/522
f 160/523 47/524 47/525
f 160/526 47/527 161/528
f 161/529 47/530 47/531
f 161/532 47/533 162/534
f 162/535 47/536 47/537
f 162/538 47/539 163/540
f 163/541 47/542 47/543
f 163/544 47/545 164/546
f 164/547 47/548 47/549
f 164/550 47/551 165/552
f 165/553 47/554 45/555
f 155/556 166/557 167/558
f 167/559 166/560 166/561
f 167/562 166/563 168/564
f 168/565 166/566 166/567
f 168/568 166/569 169/570
f 169/571 166/572 59/573
f 169/574 59/575 170/576
f 170/577 59/578 58/579
f 171/580 172/581 117/582
f 117/583 172/584 173/585
f 117/586 173/587 117/588
f 117/589 173/590 174/591
f 117/592 174/593 117/594
f 117/595 174/596 175/597
f 117/598 175/599 176/600
f 176/601 175/602 175/603
f 176/604 175/605 177/606
f 177/607 175/608 178/609
f 177/610 178/611 177/612
f 177/613 178/614 179/615
f 177/616 179/617 180/618
f 180/619 179/620 181/621
f 180/622 181/623 182/624
f 182/625 181/626 183/627
f 182/628 183/629 184/630
f 184/631 183/632 185/633
f 184/634 185/635 186/636
f 186/637 185/638 185/639
f 186/640 185/641 187/642
f 187/643 185/644 185/645
f 187/646 185/647 188/648
f 188/649 185/650 189/651
f 188/652 189/653 188/654
f 188/655 189/656 190/657
f 188/658 190/659 191/660
f 176/661 192/662 117/663
f 117/664 192/665 193/666
f 117/667 193/668 117/669
f 117/670 193/671 194/672
f 117/673 194/674 117/675
f 117/676 194/677 195/678
f 117/679 195/680 116/681
f 193/682 192/683 196/684
f 196/685 192/686 197/687
f 196/688 197/689 196/690
f 196/691 197/692 198/693
f 196/694 198/695 196/696
f 196/697 198/698 199/699
f 196/700 199/701 196/702
f 196/703 199/704 200/705
f 196/706 200/707 167/708
f 167/709 200/710 201/711
f 167/712 201/713 167/714
f 167/715 201/716 202/717
f 167/718 202/719 167/720
f 167/721 202/722 203/723
f 167/724 203/725 167/726
f 167/727 203/728 204/729
f 167/730 204/731 157/732
f 157/733 204/734 191/735
f 157/736 155/737 167/738
f 55/739 22/740 56/741
f 56/742 22/743 57/744
f 21/745 49/746 22/747
f 22/748 49/749 57/750
f 50/751 52/752 51/753
f 51/754 52/755 23/756
f 19/757 205/758 20/759
f 20/760 205/761 157/762
f 20/763 157/764 206/765
f 206/766 157/767 157/768
f 206/769 157/770 207/771
f 207/772 157/773 157/774
f 207/775 157/776 208/777
f 208/778 157/779 157/780
f 208/781 157/782 209/783
f 209/784 157/785 191/786
f 209/787 191/788 190/789
f 19/790 18/791 210/792
f 210/793 18/794 18/795
f 210/796 18/797 211/798
f 211/799 18/800 18/801
f 211/802 18/803 212/804
f 212/805 18/806 171/807
f 212/808 171/809 213/810
f 213/811 171/812 171/813
f 213/814 171/815 214/816
f 214/817 171/818 117/819
f 15/820 17/821 32/822
f 32/823 17/824 11/825
f 10/826 16/827 32/828
f 32/829 16/830 15/831
f 11/832 17/833 9/834
f 9/835 17/836 30/837
f 215/838 216/839 217/840
f 217/841 216/842 218/843
f 219/844 217/845 220/846
f 220/847 217/848 218/849
f 221/850 220/851 222/852
f 222/853 220/854 218/855
f 222/856 218/857 216/858
f 27/859 223/860 28/861
f 28/862 223/863 223/864
f 28/865 223/866 224/867
f 224/868 223/869 225/870
f 224/871 225/872 224/873
f 224/874 225/875 226/876
f 224/877 226/878 227/879
f 227/880 226/881 226/882
f 227/883 226/884 228/885
f 228/886 226/887 229/888
f 228/889 229/890 228/891
f 228/892 229/893 230/894
f 228/895 230/896 231/897
f 231/898 230/899 230/900
f 231/901 230/902 232/903
f 232/904 230/905 233/906
f 232/907 233/908 234/909
f 234/910 233/911 235/912
f 234/913 235/914 234/915
f 234/916 235/917 236/918
f 234/919 236/920 237/921
f 237/922 236/923 238/924
f 237/925 238/926 239/927
f 239/928 238/929 240/930
f 239/931 240/932 241/933
f 241/934 240/935 242/936
f 241/937 242/938 243/939
f 243/940 242/941 244/942
f 243/943 244/944 245/945
f 245/946 244/947 246/948
f 245/949 246/950 247/951
f 247/952 246/953 248/954
f 247/955 248/956 249/957
f 249/958 248/959 250/960
f 249/961 250/962 251/963
f 251/964 250/965 250/966
f 251/967 250/968 252/969
f 252/970 250/971 253/972
f 252/973 253/974 252/975
f 252/976 253/977 61/978
f 252/979 61/980 254/981
f 254/982 61/983 29/984
f 50/985 49/986 52/987
f 52/988 49/989 21/990
f 255/991 215/992 219/993
f 219/994 215/995 217/996
f 36/997 28/998 256/999
f 256/1000 28/1001 224/1002
f 256/1003 224/1004 257/1005
f 257/1006 224/1007 227/1008
f 257/1009 227/1010 258/1011
f 258/1012 227/1013 228/1014
f 258/1015 228/1016 259/1017
f 259/1018 228/1019 231/1020
f 259/1021 231/1022 260/1023
f 260/1024 231/1025 232/1026
f 260/1027 232/1028 261/1029
f 261/1030 232/1031 234/1032
f 261/1033 234/1034 262/1035
f 262/1036 234/1037 237/1038
f 262/1039 237/1040 263/1041
f 263/1042 237/1043 239/1044
f 263/1045 239/1046 264/1047
f 264/1048 239/1049 241/1050
f 264/1051 241/1052 265/1053
f 265/1054 241/1055 243/1056
f 265/1057 243/1058 266/1059
f 266/1060 243/1061 245/1062
f 266/1063 245/1064 267/1065
f 267/1066 245/1067 247/1068
f 267/1069 247/1070 268/1071
f 268/1072 247/1073 249/1074
f 268/1075 249/1076 269/1077
f 269/1078 249/1079 251/1080
f 269/1081 251/1082 270/1083
f 270/1084 251/1085 252/1086
f 270/1087 252/1088 271/1089
f 271/1090 252/1091 254/1092
f 271/1093 254/1094 37/1095
f 37/1096 254/1097 29/1098
f 40/1099 39/1100 46/1101
f 46/1102 39/1103 47/1104
f 8/1105 5/1106 272/1107
f 272/1108 5/1109 62/1110
f 8/1111 273/1112 3/1113
f 3/1114 273/1115 274/1116
f 3/1117 274/1118 3/1119
f 3/1120 274/1121 275/1122
f 3/1123 275/1124 3/1125
f 3/1126 275/1127 276/1128
f 3/1129 276/1130 1/1131
f 7/1132 2/1133 277/1134
f 277/1135 2/1136 2/1137
f 277/1138 2/1139 278/1140
f 278/1141 2/1142 2/1143
f 278/1144 2/1145 279/1146
f 279/1147 2/1148 2/1149
f 279/1150 2/1151 280/1152
f 280/1153 2/1154 2/1155
f 280/1156 2/1157 281/1158
f 281/1159 2/1160 282/1161
f 281/1162 282/1163 283/1164
f 283/1165 282/1166 282/1167
f 283/1168 282/1169 284/1170
f 284/1171 282/1172 282/1173
f 284/1174 282/1175 285/1176
f 285/1177 282/1178 282/1179
f 285/1180 282/1181 286/1182
f 286/1183 282/1184 282/1185
f 286/1186 282/1187 287/1188
f 287/1189 282/1190 282/1191
f 287/1192 282/1193 288/1194
f 288/1195 282/1196 282/1197
f 288/1198 282/1199 289/1200
f 289/1201 282/1202 290/1203
f 289/1204 290/1205 291/1206
f 291/1207 290/1208 292/1209
f 291/1210 292/1211 293/1212
f 293/1213 292/1214 292/1215
f 293/1216 292/1217 294/1218
f 294/1219 292/1220 292/1221
f 294/1222 292/1223 295/1224
f 295/1225 292/1226 296/1227
f 295/1228 296/1229 295/1230
f 295/1231 296/1232 297/1233
f 295/1234 297/1235 298/1236
f 298/1237 297/1238 297/1239
f 298/1240 297/1241 299/1242
f 299/1243 297/1244 297/1245
f 299/1246 297/1247 300/1248
f 300/1249 297/1250 297/1251
f 300/1252 297/1253 301/1254
f 301/1255 297/1256 302/1257
f 301/1258 302/1259 301/1260
f 301/1261 302/1262 303/1263
f 301/1264 303/1265 304/1266
f 304/1267 303/1268 303/1269
f 304/1270 303/1271 305/1272
f 305/1273 303/1274 303/1275
f 305/1276 303/1277 306/1278
f 306/1279 303/1280 303/1281
f 306/1282 303/1283 307/1284
f 307/1285 303/1286 6/1287
f 307/1288 6/1289 308/1290
f 308/1291 6/1292 6/1293
f 308/1294 6/1295 309/1296
f 309/1297 6/1298 6/1299
f 309/1300 6/1301 310/1302
f 310/1303 6/1304 6/1305
f 310/1306 6/1307 311/1308
f 311/1309 6/1310 312/1311
f 303/1312 313/1313 6/1314
f 6/1315 313/1316 314/1317
f 6/1318 314/1319 4/1320
f 296/1321 292/1322 315/1323
f 315/1324 292/1325 316/1326
f 315/1327 316/1328 315/1329
f 315/1330 316/1331 317/1332
f 315/1333 317/1334 315/1335
f 315/1336 317/1337 318/1338
f 315/1339 318/1340 319/1341
f 319/1342 318/1343 318/1344
f 319/1345 318/1346 320/1347
f 320/1348 318/1349 321/1350
f 320/1351 321/1352 320/1353
f 320/1354 321/1355 322/1356
f 320/1357 322/1358 323/1359
f 323/1360 322/1361 322/1362
f 323/1363 322/1364 324/1365
f 324/1366 322/1367 322/1368
f 324/1369 322/1370 325/1371
f 325/1372 322/1373 326/1374
f 325/1375 326/1376 325/1377
f 325/1378 326/1379 272/1380
f 325/1381 272/1382 62/1383
f 291/1384 293/1385 327/1386
f 327/1387 293/1388 328/1389
f 327/1390 328/1391 329/1392
f 329/1393 328/1394 330/1395
f 329/1396 330/1397 312/1398
f 282/1399 2/1400 331/1401
f 331/1402 2/1403 2/1404
f 331/1405 2/1406 332/1407
f 332/1408 2/1409 1/1410
f 7/1411 333/1412 6/1413
f 6/1414 333/1415 334/1416
f 6/1417 334/1418 6/1419
f 6/1420 334/1421 329/1422
f 6/1423 329/1424 312/1425
f 35/1426 26/1427 335/1428
f 335/1429 26/1430 149/1431
f 335/1432 149/1433 335/1434
f 335/1435 149/1436 147/1437
f 335/1438 147/1439 335/1440
f 335/1441 147/1442 145/1443
f 335/1444 145/1445 335/1446
f 335/1447 145/1448 143/1449
f 335/1450 143/1451 335/1452
f 335/1453 143/1454 141/1455
f 335/1456 141/1457 335/1458
f 335/1459 141/1460 139/1461
f 335/1462 139/1463 335/1464
f 335/1465 139/1466 137/1467
f 335/1468 137/1469 335/1470
f 335/1471 137/1472 135/1473
f 335/1474 135/1475 335/1476
f 335/1477 135/1478 133/1479
f 335/1480 133/1481 335/1482
f 335/1483 133/1484 131/1485
f 335/1486 131/1487 335/1488
f 335/1489 131/1490 129/1491
f 335/1492 129/1493 335/1494
f 335/1495 129/1496 127/1497
f 335/1498 127/1499 335/1500
f 335/1501 127/1502 125/1503
f 335/1504 125/1505 335/1506
f 335/1507 125/1508 123/1509
f 335/1510 123/1511 335/1512
f 335/1513 123/1514 121/1515
f 335/1516 121/1517 335/1518
f 335/1519 121/1520 119/1521
f 335/1522 119/1523 35/1524
f 336/1525 337/1526 338/1527
f 338/1528 337/1529 339/1530
f 3/1531 2/1532 337/1533
f 337/1534 2/1535 339/1536
f 340/1537 341/1538 5/1539
f 5/1540 341/1541 6/1542
f 336/1543 342/1544 343/1545
f 343/1546 344/1547 345/1548
f 346/1549 347/1550 348/1551
f 348/1552 347/1553 349/1554
f 336/1555 338/1556 342/1557
f 350/1558 351/1559 352/1560
f 336/1561 343/1562 353/1563
f 351/1564 354/1565 352/1566
f 355/1567 356/1568 357/1569
f 352/1570 354/1571 353/1572
f 356/1573 358/1574 359/1575
f 357/1576 359/1577 360/1578
f 361/1579 362/1580 363/1581
f 354/1582 363/1583 353/1584
f 363/1585 349/1586 353/1587
f 362/1588 349/1589 363/1590
f 349/1591 347/1592 353/1593
f 364/1594 365/1595 348/1596
f 338/1597 347/1598 344/1599
f 365/1600 346/1601 348/1602
f 356/1603 359/1604 357/1605
f 345/1606 355/1607 357/1608
f 345/1609 344/1610 355/1611
f 366/1612 357/1613 360/1614
f 346/1615 367/1616 347/1617
f 347/1618 367/1619 368/1620
f 347/1621 368/1622 359/1623
f 366/1624 360/1625 343/1626
f 343/1627 360/1628 353/1629
f 366/1630 343/1631 369/1632
f 369/1633 343/1634 345/1635
f 355/1636 344/1637 370/1638
f 370/1639 344/1640 358/1641
f 342/1642 338/1643 371/1644
f 371/1645 338/1646 344/1647
f 347/1648 359/1649 344/1650
f 344/1651 359/1652 358/1653
f 352/1654 353/1655 372/1656
f 372/1657 353/1658 353/1659
f 372/1660 353/1661 373/1662
f 373/1663 353/1664 360/1665
