# Exported from USD for MuJoCo with source material subsets
v -16.3548531 -0.109734183 0.46789127
v -16.3548532 -0.175734227 0.46789127
v -16.3548531 -0.109734183 0.401891285
v -16.3548532 -0.175734227 0.401891285
v -16.4126161 -0.120185023 1.53646257
v -16.4126161 -0.116015916 1.53353556
v -16.4131535 -0.131102388 1.51647832
v -16.4126161 -0.112599199 1.52975115
v -16.4126161 -0.110107308 1.5252968
v -16.4126161 -0.108672505 1.52040851
v -16.4126161 -0.108360594 1.51531803
v -16.4126161 -0.109189277 1.51028385
v -16.4126161 -0.111115461 1.50556671
v -16.4126161 -0.114046281 1.5013909
v -16.4126161 -0.117831355 1.49797329
v -16.4126161 -0.122279113 1.49548563
v -16.4126161 -0.127175932 1.49404764
v -16.4126161 -0.132263368 1.49373614
v -16.4126161 -0.137292927 1.4945645
v -16.4126161 -0.142019873 1.49649405
v -16.4059576 -0.118057614 1.54035672
v -16.4059576 -0.113893872 1.53755459
v -16.4059576 -0.110315686 1.53403532
v -16.4059576 -0.10744447 1.52991825
v -16.4059576 -0.105378275 1.52534329
v -16.4059576 -0.104187494 1.52046599
v -16.4059576 -0.103913074 1.51545184
v -16.4059576 -0.10456503 1.51047161
v -16.4059576 -0.106121605 1.5056945
v -16.4059576 -0.108528858 1.50128704
v -16.4059576 -0.111703043 1.49739935
v -16.4059576 -0.115537589 1.49416094
v -16.4059577 -0.11990208 1.49168157
v -16.4059577 -0.124648397 1.49004605
v -16.4059577 -0.129615312 1.48931035
v -16.4059577 -0.134633964 1.4894998
v -16.4059577 -0.139533525 1.49060869
v -16.4059577 -0.144147222 1.4925999
v -16.3581535 -0.123344486 1.53067913
v -16.3581535 -0.119337504 1.52758818
v -16.3581535 -0.116480952 1.52340996
v -16.3581535 -0.115054672 1.51855328
v -16.3581535 -0.115198856 1.51349309
v -16.3581535 -0.116899674 1.50872453
v -16.3581535 -0.119991189 1.50471463
v -16.3581535 -0.124170785 1.5018565
v -16.3581535 -0.129029398 1.50042998
v -16.3581535 -0.134091204 1.500575
v -16.3581535 -0.13886041 1.50227749
v -16.4059577 -0.122671252 1.54234793
v -16.4126161 -0.124912029 1.53839212
v -16.4059577 -0.127570813 1.54345682
v -16.4126161 -0.129941469 1.53922051
v -16.4059577 -0.132589465 1.54364627
v -16.4126161 -0.135028844 1.53890898
v -16.4059577 -0.137556379 1.54291057
v -16.4126161 -0.139925724 1.53747099
v -16.4059577 -0.142302697 1.54127508
v -16.4126161 -0.144373482 1.53498333
v -16.4059577 -0.146667307 1.5387957
v -16.4059577 -0.150501733 1.53555729
v -16.4126161 -0.148158496 1.53156572
v -16.4059577 -0.153675979 1.53166985
v -16.4126161 -0.151089316 1.52738994
v -16.4059577 -0.156083172 1.52726212
v -16.4126161 -0.153015559 1.52267277
v -16.4059577 -0.157639747 1.52248528
v -16.4126161 -0.153844183 1.51763859
v -16.4059577 -0.158291703 1.51750492
v -16.4059577 -0.158017283 1.51249065
v -16.4126161 -0.153532272 1.51254814
v -16.4059577 -0.156826621 1.50761333
v -16.4126161 -0.152097528 1.50765982
v -16.4059577 -0.154760306 1.50303837
v -16.4126161 -0.149605577 1.5032055
v -16.4059577 -0.151889151 1.4989213
v -16.4126161 -0.14618892 1.4994212
v -16.4059577 -0.148310905 1.49540203
v -16.3581535 -0.128113692 1.53238165
v -16.3581535 -0.133175438 1.53252679
v -16.3581535 -0.138034111 1.53110015
v -16.3581535 -0.142213707 1.52824199
v -16.3581535 -0.145305222 1.52423223
v -16.3581535 -0.1470061 1.51946353
v -16.3581535 -0.147150224 1.51440337
v -16.3581535 -0.145724004 1.50954666
v -16.3581535 -0.142867392 1.50536844
v -16.3856533 -0.142507856 0.421789819
v -16.3856533 -0.135187572 0.431612903
v -16.3581532 -0.142507916 0.421789819
v -16.3581532 -0.135187572 0.431612903
v -16.3581532 -0.150280719 0.431612903
v -16.3856533 -0.1502806 0.431612903
v -16.3856533 -0.1502806 0.467016751
v -16.3856533 -0.145269578 0.467793697
v -16.3856533 -0.140198713 0.467793697
v -16.3856533 -0.135187572 0.467016751
v -16.3746532 -0.1502806 0.467016751
v -16.3746532 -0.1502806 0.461335534
v -16.3581532 -0.150280719 0.461335534
v -16.3746532 -0.155531173 0.465308899
v -16.3746532 -0.15500403 0.459502215
v -16.3746532 -0.160423582 0.462749535
v -16.3746532 -0.159311121 0.456833238
v -16.3746532 -0.164820617 0.459410304
v -16.3746532 -0.163055306 0.453419203
v -16.3746532 -0.168599492 0.455384726
v -16.3746532 -0.166109806 0.449375981
v -16.3746532 -0.171654289 0.450785452
v -16.3746532 -0.168370669 0.444840485
v -16.3746532 -0.173899477 0.445741171
v -16.3746532 -0.169760948 0.439966673
v -16.3746532 -0.175272172 0.440393204
v -16.3746532 -0.17023242 0.434891278
v -16.3746532 -0.175734108 0.434891278
v -16.3746532 -0.175284033 0.429459626
v -16.3746532 -0.169769292 0.429857904
v -16.3746532 -0.173946088 0.42417621
v -16.3746532 -0.168385988 0.424984092
v -16.3746532 -0.17175669 0.419184977
v -16.3746532 -0.166127091 0.420435959
v -16.3746532 -0.168775623 0.414622242
v -16.3746532 -0.163070684 0.416381294
v -16.3746532 -0.165084308 0.410612339
v -16.3746532 -0.159320181 0.412956828
v -16.3746532 -0.160783296 0.407264823
v -16.3746532 -0.155008023 0.410283023
v -16.3746532 -0.155989831 0.404670829
v -16.3746532 -0.150278097 0.408446962
v -16.3746532 -0.150834923 0.402901167
v -16.3746532 -0.145291214 0.407511169
v -16.3746532 -0.145459121 0.402004117
v -16.3746532 -0.140216833 0.407507593
v -16.3746532 -0.140008812 0.402004177
v -16.3746532 -0.134633069 0.402901286
v -16.3746532 -0.135227745 0.408436591
v -16.3746532 -0.129478102 0.404671067
v -16.3746532 -0.130494063 0.410266692
v -16.3746532 -0.124684875 0.407265061
v -16.3746532 -0.12617678 0.412935907
v -16.3746532 -0.120383924 0.410612637
v -16.3746532 -0.122423118 0.416353578
v -16.3746532 -0.116692727 0.41462248
v -16.3746532 -0.119361108 0.420403534
v -16.3746532 -0.11371172 0.419185216
v -16.3746532 -0.117095595 0.424948329
v -16.3746532 -0.111522441 0.424176568
v -16.3746532 -0.115703946 0.42983293
v -16.3746532 -0.110184913 0.429454977
v -16.3746532 -0.115234082 0.434891278
v -16.3746532 -0.10973454 0.434891278
v -16.3746532 -0.110196476 0.440393323
v -16.3746532 -0.115701383 0.439938659
v -16.3746532 -0.111569171 0.44574129
v -16.3746532 -0.11708731 0.444814855
v -16.3746532 -0.1138143 0.450785572
v -16.3746532 -0.119345015 0.449354345
v -16.3746532 -0.116869097 0.455384726
v -16.3746532 -0.122398501 0.45340299
v -16.3746532 -0.120647912 0.459410304
v -16.3746532 -0.126144474 0.456822926
v -16.3746532 -0.125044947 0.462749535
v -16.3746532 -0.130456095 0.459497625
v -16.3746532 -0.129936581 0.46530872
v -16.3746532 -0.135187572 0.461335534
v -16.3746532 -0.135187572 0.467016751
v -16.3581532 -0.155012196 0.459497625
v -16.3581532 -0.159323817 0.456822926
v -16.3581532 -0.16306979 0.45340299
v -16.3581532 -0.166123276 0.449354345
v -16.3581532 -0.168380981 0.444814855
v -16.3581532 -0.169766908 0.439938659
v -16.3581532 -0.170234209 0.434891278
v -16.3581532 -0.169764286 0.42983293
v -16.3581532 -0.168372636 0.424948329
v -16.3581532 -0.166107183 0.420403534
v -16.3581532 -0.163045173 0.416353578
v -16.3581532 -0.159291511 0.412935907
v -16.3581532 -0.154974227 0.410266692
v -16.3581532 -0.150240486 0.408436591
v -16.3581532 -0.145251458 0.407507593
v -16.3581532 -0.140177076 0.407511169
v -16.3581532 -0.135190194 0.408446962
v -16.3581532 -0.130460268 0.410283023
v -16.3581532 -0.12614805 0.412956828
v -16.3581532 -0.122397547 0.416381294
v -16.3581532 -0.11934114 0.420435959
v -16.3581532 -0.117082303 0.424984092
v -16.3581532 -0.115698998 0.429857904
v -16.3581532 -0.11523587 0.434891278
v -16.3581532 -0.115707283 0.439966673
v -16.3581532 -0.117097621 0.444840485
v -16.3581532 -0.119358485 0.449375981
v -16.3581532 -0.122412985 0.453419203
v -16.3581532 -0.126157229 0.456833238
v -16.3581532 -0.130464321 0.459502215
v -16.3581532 -0.135187572 0.461335534
v -16.3581532 -0.109734183 0.46789127
v -16.3581532 -0.142734175 0.467889303
v -16.3581532 -0.175734227 0.46789127
v -16.3581532 -0.175734227 0.434891278
v -16.3581532 -0.175734227 0.401891285
v -16.3581532 -0.142734175 0.401893252
v -16.3581532 -0.109734183 0.401891285
v -16.3581532 -0.137543385 0.402303154
v -16.3581532 -0.132511085 0.40351581
v -16.3581532 -0.127730673 0.405500287
v -16.3581532 -0.123319512 0.408207709
v -16.3581532 -0.119386321 0.411571318
v -16.3581532 -0.116027599 0.415508086
v -16.3581532 -0.113325661 0.419921393
v -16.3581532 -0.111346965 0.4247024
v -16.3581532 -0.11014021 0.429729992
v -16.3581532 -0.109734183 0.434891278
v -16.3581532 -0.1478805 0.402294988
v -16.3581532 -0.1529038 0.403498823
v -16.3581532 -0.157693332 0.405477578
v -16.3581532 -0.162112539 0.408181304
v -16.3581532 -0.166054373 0.411543602
v -16.3581532 -0.169421618 0.415481741
v -16.3581532 -0.172131126 0.419898624
v -16.3581532 -0.174115961 0.424685473
v -16.3581532 -0.175326889 0.429724509
v -16.3581532 -0.175328081 0.440052504
v -16.3581532 -0.174121325 0.445080096
v -16.3581532 -0.17214257 0.449861104
v -16.3581532 -0.169440692 0.454274351
v -16.3581532 -0.16608203 0.458211178
v -16.3581532 -0.162148779 0.461574728
v -16.3581532 -0.157737678 0.464282149
v -16.3581532 -0.152957206 0.466266686
v -16.3581532 -0.147924905 0.467479402
v -16.3581532 -0.137587791 0.467487508
v -16.3581532 -0.13256449 0.466283614
v -16.3581532 -0.127775019 0.464304859
v -16.3581532 -0.123355751 0.461601073
v -16.3581532 -0.119413918 0.458238894
v -16.3581532 -0.116046672 0.454300815
v -16.3581532 -0.113337224 0.449883873
v -16.3581532 -0.11135233 0.445096964
v -16.3581532 -0.110141402 0.440057987
vt -0.0358659998 0.42217499
vt -0.0958660021 0.42217499
vt -0.0358659998 0.362174988
vt -0.0358659998 0.362174988
vt -0.0958660021 0.42217499
vt -0.0958660021 0.362174988
vt 0.0453669988 1.39360297
vt 0.0415770002 1.39094198
vt 0.0552919991 1.37543595
vt 0.0552919991 1.37543595
vt 0.0415770002 1.39094198
vt 0.0384709984 1.38750196
vt -1.37543595 -0.726449013
vt -1.38750196 -0.72596103
vt -1.37543595 -0.726449013
vt 0.0552919991 1.37543595
vt 0.0384709984 1.38750196
vt 0.0362050012 1.38345206
vt -1.37543595 -0.726449013
vt -1.38345206 -0.72596103
vt -1.37543595 -0.726449013
vt 0.0552919991 1.37543595
vt 0.0362050012 1.38345206
vt 0.0349010006 1.37900805
vt -1.37543595 -0.726449013
vt -1.37900805 -0.72596103
vt -1.37543595 -0.726449013
vt 0.0552919991 1.37543595
vt 0.0349010006 1.37900805
vt 0.0346169993 1.37438095
vt -1.37543595 -0.726449013
vt -1.37438095 -0.72596103
vt -1.37543595 -0.726449013
vt 0.0552919991 1.37543595
vt 0.0346169993 1.37438095
vt 0.0353710018 1.36980402
vt -1.37543595 -0.726449013
vt -1.36980402 -0.72596103
vt -1.37543595 -0.726449013
vt 0.0552919991 1.37543595
vt 0.0353710018 1.36980402
vt 0.037122 1.36551595
vt -1.37543595 -0.726449013
vt -1.36551595 -0.72596103
vt -1.37543595 -0.726449013
vt 0.0552919991 1.37543595
vt 0.037122 1.36551595
vt 0.0397859998 1.36171997
vt -1.37543595 -0.726449013
vt -1.36171997 -0.72596103
vt -1.37543595 -0.726449013
vt 0.0552919991 1.37543595
vt 0.0397859998 1.36171997
vt 0.0432269983 1.35861301
vt -1.37543595 -0.726449013
vt -1.35861301 -0.72596103
vt -1.37543595 -0.726449013
vt 0.0552919991 1.37543595
vt 0.0432269983 1.35861301
vt 0.0472709984 1.35635102
vt -1.37543595 -0.726449013
vt -1.35635102 -0.72596103
vt -1.37543595 -0.726449013
vt 0.0552919991 1.37543595
vt 0.0472709984 1.35635102
vt 0.0517220013 1.35504401
vt -1.37543595 -0.726449013
vt -1.35504401 -0.72596103
vt -1.37543595 -0.726449013
vt 0.0552919991 1.37543595
vt 0.0517220013 1.35504401
vt 0.0563470013 1.354761
vt -1.37543595 -0.726449013
vt -1.354761 -0.72596103
vt -1.37543595 -0.726449013
vt 0.0552919991 1.37543595
vt 0.0563470013 1.354761
vt 0.0609190017 1.35551405
vt 0.0552919991 1.37543595
vt 0.0609190017 1.35551405
vt 0.0652170032 1.35726798
vt 0.0434329994 -0.719907999
vt 0.0396480002 -0.719907999
vt 0.0453669988 -0.72596103
vt -1.39360297 -0.72596103
vt -1.39459598 -0.719907999
vt -1.39459598 -0.719907999
vt 0.0453669988 -0.72596103
vt 0.0396480002 -0.719907999
vt 0.0415770002 -0.72596103
vt 0.0415770002 -0.72596103
vt 0.0396480002 -0.719907999
vt 0.0363949984 -0.719907999
vt 1.39094198 -0.72596103
vt 1.39139605 -0.719907999
vt 1.38750196 -0.72596103
vt 1.38750196 -0.72596103
vt 1.39139605 -0.719907999
vt 1.38765395 -0.719907999
vt 1.38750196 -0.72596103
vt 1.38765395 -0.719907999
vt 1.38345206 -0.72596103
vt 1.38345206 -0.72596103
vt 1.38765395 -0.719907999
vt 1.38349497 -0.719907999
vt 1.38345206 -0.72596103
vt 1.38349497 -0.719907999
vt 1.37900805 -0.72596103
vt 1.37900805 -0.72596103
vt 1.38349497 -0.719907999
vt 1.37906098 -0.719907999
vt 1.37900805 -0.72596103
vt 1.37906098 -0.719907999
vt 1.37438095 -0.72596103
vt 1.37438095 -0.72596103
vt 1.37906098 -0.719907999
vt 1.37450194 -0.719907999
vt -1.37438095 -0.72596103
vt -1.37450194 -0.719907999
vt -1.37438095 -0.72596103
vt 1.37438095 -0.72596103
vt 1.37450194 -0.719907999
vt 1.36997497 -0.719907999
vt 1.37438095 -0.72596103
vt 1.36997497 -0.719907999
vt 1.36980402 -0.72596103
vt 1.36980402 -0.72596103
vt 1.36997497 -0.719907999
vt 1.36563206 -0.719907999
vt 1.36980402 -0.72596103
vt 1.36563206 -0.719907999
vt 1.36551595 -0.72596103
vt 1.36551595 -0.72596103
vt 1.36563206 -0.719907999
vt 1.36162496 -0.719907999
vt 1.36551595 -0.72596103
vt 1.36162496 -0.719907999
vt 1.36171997 -0.72596103
vt 1.36171997 -0.72596103
vt 1.36162496 -0.719907999
vt 1.358091 -0.719907999
vt -0.0397859998 -0.72596103
vt -0.0376560017 -0.719907999
vt -0.0432269983 -0.72596103
vt -0.0432269983 -0.72596103
vt -0.0376560017 -0.719907999
vt -0.0411420017 -0.719907999
vt -1.35861301 -0.72596103
vt -1.355147 -0.719907999
vt -1.35861301 -0.72596103
vt -0.0432269983 -0.72596103
vt -0.0411420017 -0.719907999
vt -0.0451099984 -0.719907999
vt -0.0432269983 -0.72596103
vt -0.0451099984 -0.719907999
vt -0.0472709984 -0.72596103
vt -0.0472709984 -0.72596103
vt -0.0451099984 -0.719907999
vt -0.0494249985 -0.719907999
vt -0.0472709984 -0.72596103
vt -0.0494249985 -0.719907999
vt -0.0517220013 -0.72596103
vt -0.0517220013 -0.72596103
vt -0.0494249985 -0.719907999
vt -0.0539399981 -0.719907999
vt -0.0517220013 -0.72596103
vt -0.0539399981 -0.719907999
vt -0.0563470013 -0.72596103
vt -0.0563470013 -0.72596103
vt -0.0539399981 -0.719907999
vt -0.0585019998 -0.719907999
vt -0.0563470013 -0.72596103
vt -0.0585019998 -0.719907999
vt -0.0609190017 -0.72596103
vt -0.0609190017 -0.72596103
vt -0.0585019998 -0.719907999
vt -0.0629559979 -0.719907999
vt -0.0609190017 -0.72596103
vt -0.0629559979 -0.719907999
vt -0.0652170032 -0.72596103
vt -0.0652170032 -0.72596103
vt -0.0629559979 -0.719907999
vt -0.0671510026 -0.719907999
vt 0.0434329994 -0.719907999
vt 0.0482390001 -0.676449001
vt 0.0396480002 -0.719907999
vt 0.0396480002 -0.719907999
vt 0.0482390001 -0.676449001
vt 0.0445960015 -0.676449001
vt 0.0396480002 -0.719907999
vt 0.0445960015 -0.676449001
vt 0.0363949984 -0.719907999
vt -1.39139605 -0.719907999
vt -1.385535 -0.676449001
vt -1.385535 -0.676449001
vt 1.39139605 -0.719907999
vt 1.385535 -0.676449001
vt 1.38765395 -0.719907999
vt 1.38765395 -0.719907999
vt 1.385535 -0.676449001
vt 1.38173699 -0.676449001
vt 1.38765395 -0.719907999
vt 1.38173699 -0.676449001
vt 1.38349497 -0.719907999
vt 1.38349497 -0.719907999
vt 1.38173699 -0.676449001
vt 1.37732196 -0.676449001
vt 1.38349497 -0.719907999
vt 1.37732196 -0.676449001
vt 1.37906098 -0.719907999
vt -1.37906098 -0.719907999
vt -1.37732196 -0.676449001
vt -1.37732196 -0.676449001
vt 1.37906098 -0.719907999
vt 1.37732196 -0.676449001
vt 1.37450194 -0.719907999
vt 1.37450194 -0.719907999
vt 1.37732196 -0.676449001
vt 1.37272203 -0.676449001
vt 1.37450194 -0.719907999
vt 1.37272203 -0.676449001
vt 1.36997497 -0.719907999
vt -1.36997497 -0.719907999
vt -1.37272203 -0.676449001
vt -1.37272203 -0.676449001
vt 1.36997497 -0.719907999
vt 1.37272203 -0.676449001
vt 1.36563206 -0.719907999
vt 1.36563206 -0.719907999
vt 1.37272203 -0.676449001
vt 1.36838698 -0.676449001
vt 1.36563206 -0.719907999
vt 1.36838698 -0.676449001
vt 1.36162496 -0.719907999
vt 1.36162496 -0.719907999
vt 1.36838698 -0.676449001
vt 1.36474097 -0.676449001
vt 1.36162496 -0.719907999
vt 1.36474097 -0.676449001
vt 1.358091 -0.719907999
vt -1.358091 -0.719907999
vt -1.36474097 -0.676449001
vt -1.36474097 -0.676449001
vt -0.0376560017 -0.719907999
vt -0.0451910011 -0.676449001
vt -0.0411420017 -0.719907999
vt -0.0411420017 -0.719907999
vt -0.0451910011 -0.676449001
vt -0.04899 -0.676449001
vt -0.0411420017 -0.719907999
vt -0.04899 -0.676449001
vt -0.0451099984 -0.719907999
vt -1.35289299 -0.719907999
vt -1.36214304 -0.676449001
vt -1.36214304 -0.676449001
vt -0.0451099984 -0.719907999
vt -0.04899 -0.676449001
vt -0.0494249985 -0.719907999
vt -0.0494249985 -0.719907999
vt -0.04899 -0.676449001
vt -0.0534069985 -0.676449001
vt -0.0494249985 -0.719907999
vt -0.0534069985 -0.676449001
vt -0.0539399981 -0.719907999
vt -0.0539399981 -0.719907999
vt -0.0534069985 -0.676449001
vt -0.0580089986 -0.676449001
vt -0.0539399981 -0.719907999
vt -0.0580089986 -0.676449001
vt -0.0585019998 -0.719907999
vt -1.35090995 -0.719907999
vt -1.36097801 -0.676449001
vt -1.36097801 -0.676449001
vt -0.0585019998 -0.719907999
vt -0.0580089986 -0.676449001
vt -0.0629559979 -0.719907999
vt -0.0629559979 -0.719907999
vt -0.0580089986 -0.676449001
vt -0.0623439997 -0.676449001
vt -0.0629559979 -0.719907999
vt -0.0623439997 -0.676449001
vt -0.0671510026 -0.719907999
vt 0.0434329994 -0.719907999
vt 0.0453669988 -0.72596103
vt 0.0476269983 -0.719907999
vt 0.0476269983 -0.719907999
vt 0.0453669988 -0.72596103
vt 0.0496639982 -0.72596103
vt 0.0476269983 -0.719907999
vt 0.0496639982 -0.72596103
vt 0.0520810001 -0.719907999
vt 0.0520810001 -0.719907999
vt 0.0496639982 -0.72596103
vt 0.0542359985 -0.72596103
vt 0.0520810001 -0.719907999
vt 0.0542359985 -0.72596103
vt 0.0566440001 -0.719907999
vt 0.0566440001 -0.719907999
vt 0.0542359985 -0.72596103
vt 0.0588609986 -0.72596103
vt 0.0566440001 -0.719907999
vt 0.0588609986 -0.72596103
vt 0.0611589998 -0.719907999
vt 0.0611589998 -0.719907999
vt 0.0588609986 -0.72596103
vt 0.0633129999 -0.72596103
vt 0.0611589998 -0.719907999
vt 0.0633129999 -0.72596103
vt 0.0654740036 -0.719907999
vt 0.0654740036 -0.719907999
vt 0.0633129999 -0.72596103
vt 0.0673559979 -0.72596103
vt 0.0654740036 -0.719907999
vt 0.0673559979 -0.72596103
vt 0.0694419965 -0.719907999
vt -1.39572406 -0.719907999
vt -1.39225805 -0.72596103
vt -1.39225805 -0.72596103
vt 0.0694419965 -0.719907999
vt 0.0673559979 -0.72596103
vt 0.0729279965 -0.719907999
vt 0.0729279965 -0.719907999
vt 0.0673559979 -0.72596103
vt 0.0707969964 -0.72596103
vt -1.39277995 -0.719907999
vt -1.38915098 -0.72596103
vt -1.38924599 -0.719907999
vt -1.38924599 -0.719907999
vt -1.38915098 -0.72596103
vt -1.385355 -0.72596103
vt -1.38924599 -0.719907999
vt -1.385355 -0.72596103
vt -1.38523901 -0.719907999
vt -1.38523901 -0.719907999
vt -1.385355 -0.72596103
vt -1.38106704 -0.72596103
vt -1.38523901 -0.719907999
vt -1.38106704 -0.72596103
vt -1.38089597 -0.719907999
vt -1.38089597 -0.719907999
vt -1.38106704 -0.72596103
vt -1.37649 -0.72596103
vt -1.38089597 -0.719907999
vt -1.37649 -0.72596103
vt -1.376369 -0.719907999
vt -1.376369 -0.719907999
vt -1.37649 -0.72596103
vt -1.37649 -0.72596103
vt -1.376369 -0.719907999
vt -1.37649 -0.72596103
vt -1.37180996 -0.719907999
vt -1.37180996 -0.719907999
vt -1.37649 -0.72596103
vt -1.37186301 -0.72596103
vt -1.37180996 -0.719907999
vt -1.37186301 -0.72596103
vt -1.36737597 -0.719907999
vt -1.36737597 -0.719907999
vt -1.37186301 -0.72596103
vt -1.367419 -0.72596103
vt -1.36737597 -0.719907999
vt -1.367419 -0.72596103
vt -1.363217 -0.719907999
vt -1.363217 -0.719907999
vt -1.367419 -0.72596103
vt -1.36336899 -0.72596103
vt -1.363217 -0.719907999
vt -1.36336899 -0.72596103
vt -1.35947502 -0.719907999
vt -1.35947502 -0.719907999
vt -1.36336899 -0.72596103
vt -1.35992897 -0.72596103
vt -0.0741889998 -0.719907999
vt -0.0690070018 -0.72596103
vt -0.0709360018 -0.719907999
vt -0.0709360018 -0.719907999
vt -0.0690070018 -0.72596103
vt -0.0652170032 -0.72596103
vt -0.0709360018 -0.719907999
vt -0.0652170032 -0.72596103
vt -0.0671510026 -0.719907999
vt 0.0434329994 -0.719907999
vt 0.0476269983 -0.719907999
vt 0.0482390001 -0.676449001
vt -1.388345 -0.676449001
vt -1.39895296 -0.719907999
vt -1.39895296 -0.719907999
vt 0.0482390001 -0.676449001
vt 0.0476269983 -0.719907999
vt 0.0525749996 -0.676449001
vt 0.0525749996 -0.676449001
vt 0.0476269983 -0.719907999
vt 0.0520810001 -0.719907999
vt -1.38989305 -0.676449001
vt -1.39996099 -0.719907999
vt -1.38989305 -0.676449001
vt 0.0525749996 -0.676449001
vt 0.0520810001 -0.719907999
vt 0.0566440001 -0.719907999
vt 0.0525749996 -0.676449001
vt 0.0566440001 -0.719907999
vt 0.0571760014 -0.676449001
vt 0.0571760014 -0.676449001
vt 0.0566440001 -0.719907999
vt 0.0611589998 -0.719907999
vt 0.0571760014 -0.676449001
vt 0.0611589998 -0.719907999
vt 0.0615929998 -0.676449001
vt 0.0615929998 -0.676449001
vt 0.0611589998 -0.719907999
vt 0.0654740036 -0.719907999
vt -1.38872802 -0.676449001
vt -1.39797795 -0.719907999
vt -1.38872802 -0.676449001
vt 0.0615929998 -0.676449001
vt 0.0654740036 -0.719907999
vt 0.0694419965 -0.719907999
vt 0.0615929998 -0.676449001
vt 0.0694419965 -0.719907999
vt 0.0653930008 -0.676449001
vt 0.0653930008 -0.676449001
vt 0.0694419965 -0.719907999
vt 0.0729279965 -0.719907999
vt -1.38612998 -0.676449001
vt -1.39277995 -0.719907999
vt -1.38612998 -0.676449001
vt -1.38612998 -0.676449001
vt -1.39277995 -0.719907999
vt -1.38924599 -0.719907999
vt -1.38612998 -0.676449001
vt -1.38924599 -0.719907999
vt -1.38248396 -0.676449001
vt -1.38248396 -0.676449001
vt -1.38924599 -0.719907999
vt -1.38523901 -0.719907999
vt -1.38248396 -0.676449001
vt -1.38523901 -0.719907999
vt -1.37814903 -0.676449001
vt -1.37814903 -0.676449001
vt -1.38523901 -0.719907999
vt -1.38089597 -0.719907999
vt -1.37814903 -0.676449001
vt -1.38089597 -0.719907999
vt -1.37814903 -0.676449001
vt -1.37814903 -0.676449001
vt -1.38089597 -0.719907999
vt -1.376369 -0.719907999
vt -1.37814903 -0.676449001
vt -1.376369 -0.719907999
vt -1.37354898 -0.676449001
vt -1.37354898 -0.676449001
vt -1.376369 -0.719907999
vt -1.37180996 -0.719907999
vt -1.37354898 -0.676449001
vt -1.37180996 -0.719907999
vt -1.37354898 -0.676449001
vt -1.37354898 -0.676449001
vt -1.37180996 -0.719907999
vt -1.36737597 -0.719907999
vt -1.37354898 -0.676449001
vt -1.36737597 -0.719907999
vt -1.36913395 -0.676449001
vt -1.36913395 -0.676449001
vt -1.36737597 -0.719907999
vt -1.363217 -0.719907999
vt -1.36913395 -0.676449001
vt -1.363217 -0.719907999
vt -1.36533594 -0.676449001
vt -1.36533594 -0.676449001
vt -1.363217 -0.719907999
vt -1.35947502 -0.719907999
vt -1.36533594 -0.676449001
vt -1.35947502 -0.719907999
vt -1.36533594 -0.676449001
vt -0.0659869984 -0.676449001
vt -0.0741889998 -0.719907999
vt -0.0709360018 -0.719907999
vt -0.0659869984 -0.676449001
vt -0.0709360018 -0.719907999
vt -0.0623439997 -0.676449001
vt -0.0623439997 -0.676449001
vt -0.0709360018 -0.719907999
vt -0.0671510026 -0.719907999
vt 0.0453669988 1.39360297
vt 0.0552919991 1.37543595
vt 0.0496639982 1.39535701
vt -1.39535701 -0.72596103
vt -1.37543595 -0.726449013
vt -1.37543595 -0.726449013
vt 0.0496639982 1.39535701
vt 0.0552919991 1.37543595
vt 0.0542359985 1.39611006
vt -1.39611006 -0.72596103
vt -1.37543595 -0.726449013
vt -1.37543595 -0.726449013
vt 0.0542359985 1.39611006
vt 0.0552919991 1.37543595
vt 0.0588609986 1.39582705
vt -1.39582705 -0.72596103
vt -1.37543595 -0.726449013
vt -1.37543595 -0.726449013
vt 0.0588609986 1.39582705
vt 0.0552919991 1.37543595
vt 0.0633129999 1.39452004
vt -1.39452004 -0.72596103
vt -1.37543595 -0.726449013
vt -1.37543595 -0.726449013
vt 0.0633129999 1.39452004
vt 0.0552919991 1.37543595
vt 0.0673559979 1.39225805
vt -1.39225805 -0.72596103
vt -1.37543595 -0.726449013
vt -1.37543595 -0.726449013
vt 0.0673559979 1.39225805
vt 0.0552919991 1.37543595
vt 0.0707969964 1.38915098
vt -1.38915098 -0.72596103
vt -1.37543595 -0.726449013
vt -1.37543595 -0.726449013
vt 0.0707969964 1.38915098
vt 0.0552919991 1.37543595
vt 0.073462002 1.385355
vt -1.385355 -0.72596103
vt -1.37543595 -0.726449013
vt -1.37543595 -0.726449013
vt 0.073462002 1.385355
vt 0.0552919991 1.37543595
vt 0.0752130002 1.38106704
vt -1.38106704 -0.72596103
vt -1.37543595 -0.726449013
vt -1.37543595 -0.726449013
vt 0.0752130002 1.38106704
vt 0.0552919991 1.37543595
vt 0.0759660006 1.37649
vt -1.37649 -0.72596103
vt -1.37543595 -0.726449013
vt -1.37543595 -0.726449013
vt 0.0759660006 1.37649
vt 0.0552919991 1.37543595
vt 0.0756829977 1.37186301
vt -1.37186301 -0.72596103
vt -1.37543595 -0.726449013
vt -1.37543595 -0.726449013
vt 0.0756829977 1.37186301
vt 0.0552919991 1.37543595
vt 0.0743779987 1.367419
vt -1.367419 -0.72596103
vt -1.37543595 -0.726449013
vt -1.37543595 -0.726449013
vt 0.0743779987 1.367419
vt 0.0552919991 1.37543595
vt 0.0721129999 1.36336899
vt -1.36336899 -0.72596103
vt -1.37543595 -0.726449013
vt -1.37543595 -0.726449013
vt 0.0721129999 1.36336899
vt 0.0552919991 1.37543595
vt 0.0690070018 1.35992897
vt 0.0690070018 1.35992897
vt 0.0552919991 1.37543595
vt 0.0652170032 1.35726798
vt 0.380264014 -0.701448977
vt 0.389194012 -0.701448977
vt 0.380264014 -0.676449001
vt 0.380264014 -0.676449001
vt 0.389194012 -0.701448977
vt 0.389194012 -0.676449001
vt -0.380264014 -0.676449001
vt -0.389194012 -0.676449001
vt -0.380264014 -0.701448977
vt -0.380264014 -0.701448977
vt -0.389194012 -0.676449001
vt -0.389194012 -0.701448977
vt 0.0727270022 0.421380013
vt 0.068171002 0.422086
vt 0.0727270022 0.389194012
vt -0.389194012 -0.701448977
vt -0.422086 -0.701448977
vt -0.422086 -0.701448977
vt 0.0727270022 0.389194012
vt 0.068171002 0.422086
vt 0.0656599998 0.380264014
vt 0.0656599998 0.380264014
vt 0.068171002 0.422086
vt 0.0635609999 0.422086
vt 0.0656599998 0.380264014
vt 0.0635609999 0.422086
vt 0.0590060018 0.389194012
vt 0.0590060018 0.389194012
vt 0.0635609999 0.422086
vt 0.0590060018 0.421380013
vt -0.421380013 -0.691448987
vt -0.421380013 -0.701448977
vt -0.416215003 -0.691448987
vt -0.416215003 -0.691448987
vt -0.421380013 -0.701448977
vt -0.389194012 -0.701448977
vt -0.416215003 -0.691448987
vt -0.389194012 -0.701448977
vt -0.416215003 -0.691448987
vt -0.416215003 -0.691448987
vt -0.389194012 -0.701448977
vt -0.389194012 -0.676449001
vt -0.416215003 -0.691448987
vt -0.389194012 -0.676449001
vt -0.416215003 -0.676449001
vt 0.0727270022 0.421380013
vt 0.0727270022 0.416215003
vt 0.0775000006 0.419827014
vt 0.0775000006 0.419827014
vt 0.0727270022 0.416215003
vt 0.0770199969 0.41454801
vt 0.0775000006 0.419827014
vt 0.0770199969 0.41454801
vt 0.0819469988 0.417499989
vt 0.0819469988 0.417499989
vt 0.0770199969 0.41454801
vt 0.0809359998 0.412122011
vt 0.0819469988 0.417499989
vt 0.0809359998 0.412122011
vt 0.0859450027 0.41446501
vt 0.0859450027 0.41446501
vt 0.0809359998 0.412122011
vt 0.0843399987 0.40901801
vt 0.0859450027 0.41446501
vt 0.0843399987 0.40901801
vt 0.0893800035 0.410804987
vt 0.0893800035 0.410804987
vt 0.0843399987 0.40901801
vt 0.0871170014 0.405342013
vt 0.0893800035 0.410804987
vt 0.0871170014 0.405342013
vt 0.0921569988 0.406623989
vt 0.0921569988 0.406623989
vt 0.0871170014 0.405342013
vt 0.0891719982 0.40121901
vt 0.0921569988 0.406623989
vt 0.0891719982 0.40121901
vt 0.0941980034 0.402038008
vt 0.0941980034 0.402038008
vt 0.0891719982 0.40121901
vt 0.0904359967 0.396789014
vt 0.0941980034 0.402038008
vt 0.0904359967 0.396789014
vt 0.095445998 0.397175997
vt 0.095445998 0.397175997
vt 0.0904359967 0.396789014
vt 0.0908640027 0.392174989
vt 0.095445998 0.397175997
vt 0.0908640027 0.392174989
vt 0.0958660021 0.392174989
vt -0.392174989 -0.691448987
vt -0.392174989 -0.691448987
vt -0.392174989 -0.691448987
vt 0.0958660021 0.392174989
vt 0.0908640027 0.392174989
vt 0.0954570025 0.387237012
vt 0.0954570025 0.387237012
vt 0.0908640027 0.392174989
vt 0.0904430002 0.387598991
vt 0.0954570025 0.387237012
vt 0.0904430002 0.387598991
vt 0.0942410007 0.382434011
vt 0.0942410007 0.382434011
vt 0.0904430002 0.387598991
vt 0.0891859978 0.383168012
vt 0.0942410007 0.382434011
vt 0.0891859978 0.383168012
vt 0.092249997 0.377896011
vt 0.092249997 0.377896011
vt 0.0891859978 0.383168012
vt 0.0871319994 0.379032999
vt 0.092249997 0.377896011
vt 0.0871319994 0.379032999
vt 0.0895399973 0.373748004
vt 0.0895399973 0.373748004
vt 0.0871319994 0.379032999
vt 0.0843539983 0.375346988
vt 0.0895399973 0.373748004
vt 0.0843539983 0.375346988
vt 0.0861840025 0.370103002
vt 0.0861840025 0.370103002
vt 0.0843539983 0.375346988
vt 0.0809440017 0.372233987
vt 0.0861840025 0.370103002
vt 0.0809440017 0.372233987
vt 0.0822739974 0.367060006
vt 0.0822739974 0.367060006
vt 0.0809440017 0.372233987
vt 0.0770239979 0.369803011
vt 0.0822739974 0.367060006
vt 0.0770239979 0.369803011
vt 0.0779170021 0.364701003
vt 0.0779170021 0.364701003
vt 0.0770239979 0.369803011
vt 0.0727239996 0.368133992
vt 0.0779170021 0.364701003
vt 0.0727239996 0.368133992
vt 0.0732299984 0.363092989
vt 0.0732299984 0.363092989
vt 0.0727239996 0.368133992
vt 0.0681909993 0.367284
vt 0.0732299984 0.363092989
vt 0.0681909993 0.367284
vt 0.0683429986 0.362277001
vt 0.0683429986 0.362277001
vt 0.0681909993 0.367284
vt 0.0635780022 0.367280006
vt 0.0683429986 0.362277001
vt 0.0635780022 0.367280006
vt 0.0633890033 0.362277001
vt -0.362277001 -0.691448987
vt -0.367280006 -0.691448987
vt -0.367280006 -0.691448987
vt 0.0633890033 0.362277001
vt 0.0635780022 0.367280006
vt 0.0585010014 0.363092989
vt 0.0585010014 0.363092989
vt 0.0635780022 0.367280006
vt 0.0590419993 0.368124992
vt 0.0585010014 0.363092989
vt 0.0590419993 0.368124992
vt 0.0538149998 0.364701986
vt 0.0538149998 0.364701986
vt 0.0590419993 0.368124992
vt 0.0547389984 0.369789004
vt 0.0538149998 0.364701986
vt 0.0547389984 0.369789004
vt 0.0494580008 0.367060006
vt 0.0494580008 0.367060006
vt 0.0547389984 0.369789004
vt 0.050813999 0.372215003
vt 0.0494580008 0.367060006
vt 0.050813999 0.372215003
vt 0.0455479994 0.370103002
vt 0.0455479994 0.370103002
vt 0.050813999 0.372215003
vt 0.0474009998 0.375322014
vt 0.0455479994 0.370103002
vt 0.0474009998 0.375322014
vt 0.0421920009 0.373748004
vt 0.0421920009 0.373748004
vt 0.0474009998 0.375322014
vt 0.0446179993 0.379004002
vt 0.0421920009 0.373748004
vt 0.0446179993 0.379004002
vt 0.0394820012 0.377896011
vt 0.0394820012 0.377896011
vt 0.0446179993 0.379004002
vt 0.0425579995 0.383134991
vt 0.0394820012 0.377896011
vt 0.0425579995 0.383134991
vt 0.0374919996 0.382434011
vt 0.0374919996 0.382434011
vt 0.0425579995 0.383134991
vt 0.0412929989 0.387576014
vt 0.0374919996 0.382434011
vt 0.0412929989 0.387576014
vt 0.0362760015 0.387232989
vt 0.0362760015 0.387232989
vt 0.0412929989 0.387576014
vt 0.0408659987 0.392174989
vt 0.0362760015 0.387232989
vt 0.0408659987 0.392174989
vt 0.0358659998 0.392174989
vt -0.392174989 -0.691448987
vt -0.392174989 -0.691448987
vt -0.392174989 -0.691448987
vt 0.0358659998 0.392174989
vt 0.0408659987 0.392174989
vt 0.0362860002 0.397177011
vt 0.0362860002 0.397177011
vt 0.0408659987 0.392174989
vt 0.0412909985 0.396762997
vt 0.0362860002 0.397177011
vt 0.0412909985 0.396762997
vt 0.0375339985 0.402038008
vt 0.0375339985 0.402038008
vt 0.0412909985 0.396762997
vt 0.0425509997 0.401196003
vt 0.0375339985 0.402038008
vt 0.0425509997 0.401196003
vt 0.0395749994 0.406623989
vt 0.0395749994 0.406623989
vt 0.0425509997 0.401196003
vt 0.0446030013 0.405322999
vt 0.0395749994 0.406623989
vt 0.0446030013 0.405322999
vt 0.0423519984 0.410804987
vt 0.0423519984 0.410804987
vt 0.0446030013 0.405322999
vt 0.0473789982 0.40900299
vt 0.0423519984 0.410804987
vt 0.0473789982 0.40900299
vt 0.0457880013 0.41446501
vt 0.0457880013 0.41446501
vt 0.0473789982 0.40900299
vt 0.0507839993 0.412111998
vt 0.0457880013 0.41446501
vt 0.0507839993 0.412111998
vt 0.0497849993 0.417499989
vt 0.0497849993 0.417499989
vt 0.0507839993 0.412111998
vt 0.0547039993 0.414543986
vt 0.0497849993 0.417499989
vt 0.0547039993 0.414543986
vt 0.0542320013 0.419827014
vt 0.0542320013 0.419827014
vt 0.0547039993 0.414543986
vt 0.0590060018 0.416215003
vt 0.0542320013 0.419827014
vt 0.0590060018 0.416215003
vt 0.0590060018 0.421380013
vt -0.0727270022 -0.691448987
vt -0.0727270022 -0.676449001
vt -0.0770199969 -0.691448987
vt -0.0770199969 -0.691448987
vt -0.0727270022 -0.676449001
vt -0.0770279989 -0.676449001
vt -0.0770199969 -0.691448987
vt -0.0770279989 -0.676449001
vt -0.0809359998 -0.691448987
vt -0.0809359998 -0.691448987
vt -0.0770279989 -0.676449001
vt -0.0809480026 -0.676449001
vt -0.0809359998 -0.691448987
vt -0.0809480026 -0.676449001
vt -0.0843399987 -0.691448987
vt -0.0843399987 -0.691448987
vt -0.0809480026 -0.676449001
vt -0.0843529999 -0.676449001
vt 0.40901801 -0.691448987
vt 0.40900299 -0.676449001
vt 0.405342013 -0.691448987
vt 0.405342013 -0.691448987
vt 0.40900299 -0.676449001
vt 0.405322999 -0.676449001
vt 0.405342013 -0.691448987
vt 0.405322999 -0.676449001
vt 0.40121901 -0.691448987
vt 0.40121901 -0.691448987
vt 0.405322999 -0.676449001
vt 0.401196003 -0.676449001
vt 0.40121901 -0.691448987
vt 0.401196003 -0.676449001
vt 0.396789014 -0.691448987
vt 0.396789014 -0.691448987
vt 0.401196003 -0.676449001
vt 0.396762997 -0.676449001
vt 0.396789014 -0.691448987
vt 0.396762997 -0.676449001
vt 0.392174989 -0.691448987
vt 0.392174989 -0.691448987
vt 0.396762997 -0.676449001
vt 0.392174989 -0.676449001
vt 0.0727270022 0.416215003
vt 0.0727270022 0.389194012
vt 0.0770279989 0.414543986
vt -0.414543986 -0.676449001
vt -0.389194012 -0.676449001
vt -0.389194012 -0.676449001
vt 0.0770279989 0.414543986
vt 0.0727270022 0.389194012
vt 0.0809480026 0.412111998
vt -0.412111998 -0.676449001
vt -0.389194012 -0.676449001
vt -0.389194012 -0.676449001
vt 0.0809480026 0.412111998
vt 0.0727270022 0.389194012
vt 0.0843529999 0.40900299
vt -0.40900299 -0.676449001
vt -0.389194012 -0.676449001
vt -0.389194012 -0.676449001
vt 0.0843529999 0.40900299
vt 0.0727270022 0.389194012
vt 0.0871289968 0.405322999
vt -0.405322999 -0.676449001
vt -0.389194012 -0.676449001
vt -0.389194012 -0.676449001
vt 0.0871289968 0.405322999
vt 0.0727270022 0.389194012
vt 0.0891809985 0.401196003
vt -0.401196003 -0.676449001
vt -0.389194012 -0.676449001
vt -0.389194012 -0.676449001
vt 0.0891809985 0.401196003
vt 0.0727270022 0.389194012
vt 0.0904410034 0.396762997
vt -0.396762997 -0.676449001
vt -0.389194012 -0.676449001
vt -0.389194012 -0.676449001
vt 0.0904410034 0.396762997
vt 0.0727270022 0.389194012
vt 0.0908659995 0.392174989
vt -0.392174989 -0.676449001
vt -0.389194012 -0.676449001
vt -0.389194012 -0.676449001
vt 0.0908659995 0.392174989
vt 0.0727270022 0.389194012
vt 0.0904389992 0.387576014
vt -0.387576014 -0.676449001
vt -0.389194012 -0.676449001
vt -0.389194012 -0.676449001
vt 0.0904389992 0.387576014
vt 0.0727270022 0.389194012
vt 0.0891740024 0.383134991
vt -0.383134991 -0.676449001
vt -0.389194012 -0.676449001
vt -0.389194012 -0.676449001
vt 0.0891740024 0.383134991
vt 0.0727270022 0.389194012
vt 0.0871139988 0.379004002
vt -0.379004002 -0.676449001
vt -0.389194012 -0.676449001
vt -0.389194012 -0.676449001
vt 0.0871139988 0.379004002
vt 0.0727270022 0.389194012
vt 0.0843309984 0.375322014
vt -0.375322014 -0.676449001
vt -0.389194012 -0.676449001
vt -0.389194012 -0.676449001
vt 0.0843309984 0.375322014
vt 0.0727270022 0.389194012
vt 0.0809179991 0.372215003
vt 0.0809179991 0.372215003
vt 0.0727270022 0.389194012
vt 0.0656599998 0.380264014
vt 0.0809179991 0.372215003
vt 0.0656599998 0.380264014
vt 0.0769930035 0.369789004
vt -0.369789004 -0.676449001
vt -0.380264014 -0.676449001
vt -0.380264014 -0.676449001
vt 0.0769930035 0.369789004
vt 0.0656599998 0.380264014
vt 0.0726900026 0.368124992
vt -0.368124992 -0.676449001
vt -0.380264014 -0.676449001
vt -0.380264014 -0.676449001
vt 0.0726900026 0.368124992
vt 0.0656599998 0.380264014
vt 0.0681539997 0.367280006
vt -0.367280006 -0.676449001
vt -0.380264014 -0.676449001
vt -0.380264014 -0.676449001
vt 0.0681539997 0.367280006
vt 0.0656599998 0.380264014
vt 0.0635410026 0.367284
vt -0.367284 -0.676449001
vt -0.380264014 -0.676449001
vt -0.380264014 -0.676449001
vt 0.0635410026 0.367284
vt 0.0656599998 0.380264014
vt 0.0590079986 0.368133992
vt -0.368133992 -0.676449001
vt -0.380264014 -0.676449001
vt -0.380264014 -0.676449001
vt 0.0590079986 0.368133992
vt 0.0656599998 0.380264014
vt 0.0547080003 0.369803011
vt -0.369803011 -0.676449001
vt -0.380264014 -0.676449001
vt -0.380264014 -0.676449001
vt 0.0547080003 0.369803011
vt 0.0656599998 0.380264014
vt 0.0507880002 0.372233987
vt 0.0507880002 0.372233987
vt 0.0656599998 0.380264014
vt 0.0590060018 0.389194012
vt 0.0507880002 0.372233987
vt 0.0590060018 0.389194012
vt 0.0473779999 0.375346988
vt -0.375346988 -0.676449001
vt -0.389194012 -0.676449001
vt -0.389194012 -0.676449001
vt 0.0473779999 0.375346988
vt 0.0590060018 0.389194012
vt 0.0445999987 0.379032999
vt -0.379032999 -0.676449001
vt -0.389194012 -0.676449001
vt -0.389194012 -0.676449001
vt 0.0445999987 0.379032999
vt 0.0590060018 0.389194012
vt 0.0425460003 0.383168012
vt -0.383168012 -0.676449001
vt -0.389194012 -0.676449001
vt -0.389194012 -0.676449001
vt 0.0425460003 0.383168012
vt 0.0590060018 0.389194012
vt 0.0412890017 0.387598991
vt -0.387598991 -0.676449001
vt -0.389194012 -0.676449001
vt -0.389194012 -0.676449001
vt 0.0412890017 0.387598991
vt 0.0590060018 0.389194012
vt 0.0408679992 0.392174989
vt -0.392174989 -0.676449001
vt -0.389194012 -0.676449001
vt -0.389194012 -0.676449001
vt 0.0408679992 0.392174989
vt 0.0590060018 0.389194012
vt 0.0412960015 0.396789014
vt -0.396789014 -0.676449001
vt -0.389194012 -0.676449001
vt -0.389194012 -0.676449001
vt 0.0412960015 0.396789014
vt 0.0590060018 0.389194012
vt 0.04256 0.40121901
vt -0.40121901 -0.676449001
vt -0.389194012 -0.676449001
vt -0.389194012 -0.676449001
vt 0.04256 0.40121901
vt 0.0590060018 0.389194012
vt 0.0446150005 0.405342013
vt -0.405342013 -0.676449001
vt -0.389194012 -0.676449001
vt -0.389194012 -0.676449001
vt 0.0446150005 0.405342013
vt 0.0590060018 0.389194012
vt 0.0473919995 0.40901801
vt -0.40901801 -0.676449001
vt -0.389194012 -0.676449001
vt -0.389194012 -0.676449001
vt 0.0473919995 0.40901801
vt 0.0590060018 0.389194012
vt 0.0507959984 0.412122011
vt -0.412122011 -0.676449001
vt -0.389194012 -0.676449001
vt -0.389194012 -0.676449001
vt 0.0507959984 0.412122011
vt 0.0590060018 0.389194012
vt 0.0547120012 0.41454801
vt 0.0547120012 0.41454801
vt 0.0590060018 0.389194012
vt 0.0590060018 0.416215003
vt 0.392174989 -0.691448987
vt 0.392174989 -0.676449001
vt 0.387598991 -0.691448987
vt 0.387598991 -0.691448987
vt 0.392174989 -0.676449001
vt 0.387576014 -0.676449001
vt 0.387598991 -0.691448987
vt 0.387576014 -0.676449001
vt 0.383168012 -0.691448987
vt 0.383168012 -0.691448987
vt 0.387576014 -0.676449001
vt 0.383134991 -0.676449001
vt 0.383168012 -0.691448987
vt 0.383134991 -0.676449001
vt 0.379032999 -0.691448987
vt 0.379032999 -0.691448987
vt 0.383134991 -0.676449001
vt 0.379004002 -0.676449001
vt 0.379032999 -0.691448987
vt 0.379004002 -0.676449001
vt 0.375346988 -0.691448987
vt 0.375346988 -0.691448987
vt 0.379004002 -0.676449001
vt 0.375322014 -0.676449001
vt 0.0843539983 -0.691448987
vt 0.0843309984 -0.676449001
vt 0.0809440017 -0.691448987
vt 0.0809440017 -0.691448987
vt 0.0843309984 -0.676449001
vt 0.0809179991 -0.676449001
vt 0.0809440017 -0.691448987
vt 0.0809179991 -0.676449001
vt 0.0770239979 -0.691448987
vt 0.0770239979 -0.691448987
vt 0.0809179991 -0.676449001
vt 0.0769930035 -0.676449001
vt 0.0770239979 -0.691448987
vt 0.0769930035 -0.676449001
vt 0.0727239996 -0.691448987
vt 0.0727239996 -0.691448987
vt 0.0769930035 -0.676449001
vt 0.0726900026 -0.676449001
vt 0.0727239996 -0.691448987
vt 0.0726900026 -0.676449001
vt 0.0681909993 -0.691448987
vt 0.0681909993 -0.691448987
vt 0.0726900026 -0.676449001
vt 0.0681539997 -0.676449001
vt 0.0681909993 -0.691448987
vt 0.0681539997 -0.676449001
vt 0.0635780022 -0.691448987
vt 0.0635780022 -0.691448987
vt 0.0681539997 -0.676449001
vt 0.0635410026 -0.676449001
vt 0.0635780022 -0.691448987
vt 0.0635410026 -0.676449001
vt 0.0590419993 -0.691448987
vt 0.0590419993 -0.691448987
vt 0.0635410026 -0.676449001
vt 0.0590079986 -0.676449001
vt 0.0590419993 -0.691448987
vt 0.0590079986 -0.676449001
vt 0.0547389984 -0.691448987
vt 0.0547389984 -0.691448987
vt 0.0590079986 -0.676449001
vt 0.0547080003 -0.676449001
vt 0.0547389984 -0.691448987
vt 0.0547080003 -0.676449001
vt 0.050813999 -0.691448987
vt 0.050813999 -0.691448987
vt 0.0547080003 -0.676449001
vt 0.0507880002 -0.676449001
vt 0.050813999 -0.691448987
vt 0.0507880002 -0.676449001
vt 0.0474009998 -0.691448987
vt 0.0474009998 -0.691448987
vt 0.0507880002 -0.676449001
vt 0.0473779999 -0.676449001
vt -0.375322014 -0.691448987
vt -0.375346988 -0.676449001
vt -0.379004002 -0.691448987
vt -0.379004002 -0.691448987
vt -0.375346988 -0.676449001
vt -0.379032999 -0.676449001
vt -0.379004002 -0.691448987
vt -0.379032999 -0.676449001
vt -0.383134991 -0.691448987
vt -0.383134991 -0.691448987
vt -0.379032999 -0.676449001
vt -0.383168012 -0.676449001
vt -0.383134991 -0.691448987
vt -0.383168012 -0.676449001
vt -0.387576014 -0.691448987
vt -0.387576014 -0.691448987
vt -0.383168012 -0.676449001
vt -0.387598991 -0.676449001
vt -0.387576014 -0.691448987
vt -0.387598991 -0.676449001
vt -0.392174989 -0.691448987
vt -0.392174989 -0.691448987
vt -0.387598991 -0.676449001
vt -0.392174989 -0.676449001
vt 0.416215003 -0.676449001
vt 0.389194012 -0.676449001
vt 0.416215003 -0.691448987
vt 0.416215003 -0.691448987
vt 0.389194012 -0.676449001
vt 0.389194012 -0.701448977
vt -0.416215003 -0.691448987
vt -0.389194012 -0.701448977
vt -0.416215003 -0.691448987
vt 0.416215003 -0.691448987
vt 0.389194012 -0.701448977
vt 0.421380013 -0.701448977
vt 0.416215003 -0.691448987
vt 0.421380013 -0.701448977
vt 0.421380013 -0.691448987
vt -0.0590060018 -0.676449001
vt -0.0590060018 -0.691448987
vt -0.0547120012 -0.676449001
vt -0.0547120012 -0.676449001
vt -0.0590060018 -0.691448987
vt -0.0547039993 -0.691448987
vt -0.0547120012 -0.676449001
vt -0.0547039993 -0.691448987
vt -0.0507959984 -0.676449001
vt -0.0507959984 -0.676449001
vt -0.0547039993 -0.691448987
vt -0.0507839993 -0.691448987
vt -0.0507959984 -0.676449001
vt -0.0507839993 -0.691448987
vt -0.0473919995 -0.676449001
vt -0.0473919995 -0.676449001
vt -0.0507839993 -0.691448987
vt -0.0473789982 -0.691448987
vt -0.40901801 -0.676449001
vt -0.40900299 -0.691448987
vt -0.405342013 -0.676449001
vt -0.405342013 -0.676449001
vt -0.40900299 -0.691448987
vt -0.405322999 -0.691448987
vt -0.405342013 -0.676449001
vt -0.405322999 -0.691448987
vt -0.40121901 -0.676449001
vt -0.40121901 -0.676449001
vt -0.405322999 -0.691448987
vt -0.401196003 -0.691448987
vt -0.40121901 -0.676449001
vt -0.401196003 -0.691448987
vt -0.396789014 -0.676449001
vt -0.396789014 -0.676449001
vt -0.401196003 -0.691448987
vt -0.396762997 -0.691448987
vt -0.396789014 -0.676449001
vt -0.396762997 -0.691448987
vt -0.392174989 -0.676449001
vt -0.392174989 -0.676449001
vt -0.396762997 -0.691448987
vt -0.392174989 -0.691448987
vt 0.0358659998 -0.676449001
vt 0.065866001 -0.676449001
vt 0.0358659998 -0.67344898
vt -0.42217499 -0.67344898
vt -0.422172993 -0.676449001
vt -0.422172993 -0.676449001
vt 0.0358659998 -0.67344898
vt 0.065866001 -0.676449001
vt 0.0958660021 -0.67344898
vt 0.0958660021 -0.67344898
vt 0.065866001 -0.676449001
vt 0.0958660021 -0.676449001
vt -0.42217499 -0.676449001
vt -0.392174989 -0.676449001
vt -0.42217499 -0.67344898
vt -0.42217499 -0.67344898
vt -0.392174989 -0.676449001
vt -0.392174989 -0.676449001
vt -0.42217499 -0.67344898
vt -0.392174989 -0.676449001
vt -0.362174988 -0.67344898
vt -0.362174988 -0.67344898
vt -0.392174989 -0.676449001
vt -0.362174988 -0.676449001
vt -0.0958660021 -0.676449001
vt -0.065866001 -0.676449001
vt -0.0958660021 -0.67344898
vt -0.362174988 -0.67344898
vt -0.362176001 -0.676449001
vt -0.362176001 -0.676449001
vt -0.0958660021 -0.67344898
vt -0.065866001 -0.676449001
vt -0.0358659998 -0.67344898
vt -0.0358659998 -0.67344898
vt -0.065866001 -0.676449001
vt -0.0358659998 -0.676449001
vt 0.065866001 0.362176001
vt 0.0611470006 0.362549007
vt 0.0358659998 0.362174988
vt 0.0358659998 0.362174988
vt 0.0611470006 0.362549007
vt 0.0565720014 0.363651007
vt -0.362174988 -0.676449001
vt -0.363651007 -0.676449001
vt -0.362174988 -0.676449001
vt 0.0358659998 0.362174988
vt 0.0565720014 0.363651007
vt 0.0522270016 0.365456015
vt -0.362174988 -0.676449001
vt -0.365456015 -0.676449001
vt -0.362174988 -0.676449001
vt 0.0358659998 0.362174988
vt 0.0522270016 0.365456015
vt 0.0482160002 0.367917001
vt -0.362174988 -0.676449001
vt -0.367917001 -0.676449001
vt -0.362174988 -0.676449001
vt 0.0358659998 0.362174988
vt 0.0482160002 0.367917001
vt 0.0446409993 0.370974988
vt -0.362174988 -0.676449001
vt -0.370974988 -0.676449001
vt -0.362174988 -0.676449001
vt 0.0358659998 0.362174988
vt 0.0446409993 0.370974988
vt 0.0415869989 0.374554008
vt -0.362174988 -0.676449001
vt -0.374554008 -0.676449001
vt -0.362174988 -0.676449001
vt 0.0358659998 0.362174988
vt 0.0415869989 0.374554008
vt 0.0391310006 0.378565997
vt -0.362174988 -0.676449001
vt -0.378565997 -0.676449001
vt -0.362174988 -0.676449001
vt 0.0358659998 0.362174988
vt 0.0391310006 0.378565997
vt 0.0373319983 0.38291201
vt -0.362174988 -0.676449001
vt -0.38291201 -0.676449001
vt -0.362174988 -0.676449001
vt 0.0358659998 0.362174988
vt 0.0373319983 0.38291201
vt 0.0362350009 0.387483001
vt 0.0358659998 0.362174988
vt 0.0362350009 0.387483001
vt 0.0358659998 0.392174989
vt 0.065866001 0.362176001
vt 0.0958660021 0.362174988
vt 0.0705450028 0.362542003
vt -0.362542003 -0.676449001
vt -0.362174988 -0.676449001
vt -0.362174988 -0.676449001
vt 0.0705450028 0.362542003
vt 0.0958660021 0.362174988
vt 0.0751110017 0.363635987
vt -0.363635987 -0.676449001
vt -0.362174988 -0.676449001
vt -0.362174988 -0.676449001
vt 0.0751110017 0.363635987
vt 0.0958660021 0.362174988
vt 0.0794650018 0.365435004
vt -0.365435004 -0.676449001
vt -0.362174988 -0.676449001
vt -0.362174988 -0.676449001
vt 0.0794650018 0.365435004
vt 0.0958660021 0.362174988
vt 0.0834830031 0.36789301
vt -0.36789301 -0.676449001
vt -0.362174988 -0.676449001
vt -0.362174988 -0.676449001
vt 0.0834830031 0.36789301
vt 0.0958660021 0.362174988
vt 0.0870660022 0.370949
vt -0.370949 -0.676449001
vt -0.362174988 -0.676449001
vt -0.362174988 -0.676449001
vt 0.0870660022 0.370949
vt 0.0958660021 0.362174988
vt 0.0901269987 0.374529988
vt -0.374529988 -0.676449001
vt -0.362174988 -0.676449001
vt -0.362174988 -0.676449001
vt 0.0901269987 0.374529988
vt 0.0958660021 0.362174988
vt 0.0925910026 0.378544986
vt -0.378544986 -0.676449001
vt -0.362174988 -0.676449001
vt -0.362174988 -0.676449001
vt 0.0925910026 0.378544986
vt 0.0958660021 0.362174988
vt 0.0943949968 0.38289699
vt -0.38289699 -0.676449001
vt -0.362174988 -0.676449001
vt -0.362174988 -0.676449001
vt 0.0943949968 0.38289699
vt 0.0958660021 0.362174988
vt 0.0954959989 0.38747701
vt 0.0954959989 0.38747701
vt 0.0958660021 0.362174988
vt 0.0958660021 0.392174989
vt 0.0958660021 0.392174989
vt 0.0958660021 0.42217499
vt 0.0954969972 0.396867007
vt -0.396867007 -0.676449001
vt -0.42217499 -0.676449001
vt -0.42217499 -0.676449001
vt 0.0954969972 0.396867007
vt 0.0958660021 0.42217499
vt 0.0944000036 0.401437014
vt -0.401437014 -0.676449001
vt -0.42217499 -0.676449001
vt -0.42217499 -0.676449001
vt 0.0944000036 0.401437014
vt 0.0958660021 0.42217499
vt 0.0926010013 0.405784011
vt -0.405784011 -0.676449001
vt -0.42217499 -0.676449001
vt -0.42217499 -0.676449001
vt 0.0926010013 0.405784011
vt 0.0958660021 0.42217499
vt 0.0901449993 0.409796
vt -0.409796 -0.676449001
vt -0.42217499 -0.676449001
vt -0.42217499 -0.676449001
vt 0.0901449993 0.409796
vt 0.0958660021 0.42217499
vt 0.0870909989 0.41337499
vt -0.41337499 -0.676449001
vt -0.42217499 -0.676449001
vt -0.42217499 -0.676449001
vt 0.0870909989 0.41337499
vt 0.0958660021 0.42217499
vt 0.0835160017 0.416431993
vt -0.416431993 -0.676449001
vt -0.42217499 -0.676449001
vt -0.42217499 -0.676449001
vt 0.0835160017 0.416431993
vt 0.0958660021 0.42217499
vt 0.0795060024 0.418893993
vt -0.418893993 -0.676449001
vt -0.42217499 -0.676449001
vt -0.42217499 -0.676449001
vt 0.0795060024 0.418893993
vt 0.0958660021 0.42217499
vt 0.0751599967 0.420697987
vt -0.420697987 -0.676449001
vt -0.42217499 -0.676449001
vt -0.42217499 -0.676449001
vt 0.0751599967 0.420697987
vt 0.0958660021 0.42217499
vt 0.0705849975 0.421799988
vt 0.0705849975 0.421799988
vt 0.0958660021 0.42217499
vt 0.065866001 0.422172993
vt 0.065866001 0.422172993
vt 0.0358659998 0.42217499
vt 0.0611880012 0.421806991
vt -0.421806991 -0.676449001
vt -0.42217499 -0.676449001
vt -0.42217499 -0.676449001
vt 0.0611880012 0.421806991
vt 0.0358659998 0.42217499
vt 0.0566210002 0.420713007
vt -0.420713007 -0.676449001
vt -0.42217499 -0.676449001
vt -0.42217499 -0.676449001
vt 0.0566210002 0.420713007
vt 0.0358659998 0.42217499
vt 0.0522670001 0.41891399
vt -0.41891399 -0.676449001
vt -0.42217499 -0.676449001
vt -0.42217499 -0.676449001
vt 0.0522670001 0.41891399
vt 0.0358659998 0.42217499
vt 0.0482489988 0.416456014
vt -0.416456014 -0.676449001
vt -0.42217499 -0.676449001
vt -0.42217499 -0.676449001
vt 0.0482489988 0.416456014
vt 0.0358659998 0.42217499
vt 0.0446659997 0.413399994
vt -0.413399994 -0.676449001
vt -0.42217499 -0.676449001
vt -0.42217499 -0.676449001
vt 0.0446659997 0.413399994
vt 0.0358659998 0.42217499
vt 0.0416049995 0.40981999
vt -0.40981999 -0.676449001
vt -0.42217499 -0.676449001
vt -0.42217499 -0.676449001
vt 0.0416049995 0.40981999
vt 0.0358659998 0.42217499
vt 0.0391420014 0.405804008
vt -0.405804008 -0.676449001
vt -0.42217499 -0.676449001
vt -0.42217499 -0.676449001
vt 0.0391420014 0.405804008
vt 0.0358659998 0.42217499
vt 0.0373370014 0.401452988
vt -0.401452988 -0.676449001
vt -0.42217499 -0.676449001
vt -0.42217499 -0.676449001
vt 0.0373370014 0.401452988
vt 0.0358659998 0.42217499
vt 0.0362359993 0.396872014
vt 0.0362359993 0.396872014
vt 0.0358659998 0.42217499
vt 0.0358659998 0.392174989
vt 0.362174988 -0.676449001
vt 0.392174989 -0.676449001
vt 0.362174988 -0.67344898
vt -0.362174988 -0.67344898
vt -0.392174989 -0.676449001
vt -0.392174989 -0.676449001
vt 0.362174988 -0.67344898
vt 0.392174989 -0.676449001
vt 0.42217499 -0.67344898
vt 0.42217499 -0.67344898
vt 0.392174989 -0.676449001
vt 0.42217499 -0.676449001
f 1/1 2/2 3/3
f 3/4 2/5 4/6
f 5/7 6/8 7/9
f 7/10 6/11 8/12
f 7/13 8/14 7/15
f 7/16 8/17 9/18
f 7/19 9/20 7/21
f 7/22 9/23 10/24
f 7/25 10/26 7/27
f 7/28 10/29 11/30
f 7/31 11/32 7/33
f 7/34 11/35 12/36
f 7/37 12/38 7/39
f 7/40 12/41 13/42
f 7/43 13/44 7/45
f 7/46 13/47 14/48
f 7/49 14/50 7/51
f 7/52 14/53 15/54
f 7/55 15/56 7/57
f 7/58 15/59 16/60
f 7/61 16/62 7/63
f 7/64 16/65 17/66
f 7/67 17/68 7/69
f 7/70 17/71 18/72
f 7/73 18/74 7/75
f 7/76 18/77 19/78
f 7/79 19/80 20/81
f 21/82 22/83 5/84
f 5/85 22/86 22/87
f 5/88 22/89 6/90
f 6/91 22/92 23/93
f 6/94 23/95 8/96
f 8/97 23/98 24/99
f 8/100 24/101 9/102
f 9/103 24/104 25/105
f 9/106 25/107 10/108
f 10/109 25/110 26/111
f 10/112 26/113 11/114
f 11/115 26/116 27/117
f 11/118 27/119 11/120
f 11/121 27/122 28/123
f 11/124 28/125 12/126
f 12/127 28/128 29/129
f 12/130 29/131 13/132
f 13/133 29/134 30/135
f 13/136 30/137 14/138
f 14/139 30/140 31/141
f 14/142 31/143 15/144
f 15/145 31/146 32/147
f 15/148 32/149 15/150
f 15/151 32/152 33/153
f 15/154 33/155 16/156
f 16/157 33/158 34/159
f 16/160 34/161 17/162
f 17/163 34/164 35/165
f 17/166 35/167 18/168
f 18/169 35/170 36/171
f 18/172 36/173 19/174
f 19/175 36/176 37/177
f 19/178 37/179 20/180
f 20/181 37/182 38/183
f 21/184 39/185 22/186
f 22/187 39/188 40/189
f 22/190 40/191 23/192
f 23/193 40/194 40/195
f 23/196 40/197 24/198
f 24/199 40/200 41/201
f 24/202 41/203 25/204
f 25/205 41/206 42/207
f 25/208 42/209 26/210
f 26/211 42/212 42/213
f 26/214 42/215 27/216
f 27/217 42/218 43/219
f 27/220 43/221 28/222
f 28/223 43/224 43/225
f 28/226 43/227 29/228
f 29/229 43/230 44/231
f 29/232 44/233 30/234
f 30/235 44/236 45/237
f 30/238 45/239 31/240
f 31/241 45/242 45/243
f 31/244 45/245 32/246
f 32/247 45/248 46/249
f 32/250 46/251 33/252
f 33/253 46/254 46/255
f 33/256 46/257 34/258
f 34/259 46/260 47/261
f 34/262 47/263 35/264
f 35/265 47/266 48/267
f 35/268 48/269 36/270
f 36/271 48/272 48/273
f 36/274 48/275 37/276
f 37/277 48/278 49/279
f 37/280 49/281 38/282
f 21/283 5/284 50/285
f 50/286 5/287 51/288
f 50/289 51/290 52/291
f 52/292 51/293 53/294
f 52/295 53/296 54/297
f 54/298 53/299 55/300
f 54/301 55/302 56/303
f 56/304 55/305 57/306
f 56/307 57/308 58/309
f 58/310 57/311 59/312
f 58/313 59/314 60/315
f 60/316 59/317 59/318
f 60/319 59/320 61/321
f 61/322 59/323 62/324
f 61/325 62/326 63/327
f 63/328 62/329 64/330
f 63/331 64/332 65/333
f 65/334 64/335 66/336
f 65/337 66/338 67/339
f 67/340 66/341 68/342
f 67/343 68/344 69/345
f 69/346 68/347 68/348
f 69/349 68/350 70/351
f 70/352 68/353 71/354
f 70/355 71/356 72/357
f 72/358 71/359 73/360
f 72/361 73/362 74/363
f 74/364 73/365 75/366
f 74/367 75/368 76/369
f 76/370 75/371 77/372
f 76/373 77/374 78/375
f 78/376 77/377 20/378
f 78/379 20/380 38/381
f 21/382 50/383 39/384
f 39/385 50/386 50/387
f 39/388 50/389 79/390
f 79/391 50/392 52/393
f 79/394 52/395 79/396
f 79/397 52/398 54/399
f 79/400 54/401 80/402
f 80/403 54/404 56/405
f 80/406 56/407 81/408
f 81/409 56/410 58/411
f 81/412 58/413 81/414
f 81/415 58/416 60/417
f 81/418 60/419 82/420
f 82/421 60/422 61/423
f 82/424 61/425 82/426
f 82/427 61/428 63/429
f 82/430 63/431 83/432
f 83/433 63/434 65/435
f 83/436 65/437 84/438
f 84/439 65/440 67/441
f 84/442 67/443 84/444
f 84/445 67/446 69/447
f 84/448 69/449 85/450
f 85/451 69/452 70/453
f 85/454 70/455 85/456
f 85/457 70/458 72/459
f 85/460 72/461 86/462
f 86/463 72/464 74/465
f 86/466 74/467 87/468
f 87/469 74/470 76/471
f 87/472 76/473 87/474
f 87/475 76/476 78/477
f 87/478 78/479 49/480
f 49/481 78/482 38/483
f 5/484 7/485 51/486
f 51/487 7/488 7/489
f 51/490 7/491 53/492
f 53/493 7/494 7/495
f 53/496 7/497 55/498
f 55/499 7/500 7/501
f 55/502 7/503 57/504
f 57/505 7/506 7/507
f 57/508 7/509 59/510
f 59/511 7/512 7/513
f 59/514 7/515 62/516
f 62/517 7/518 7/519
f 62/520 7/521 64/522
f 64/523 7/524 7/525
f 64/526 7/527 66/528
f 66/529 7/530 7/531
f 66/532 7/533 68/534
f 68/535 7/536 7/537
f 68/538 7/539 71/540
f 71/541 7/542 7/543
f 71/544 7/545 73/546
f 73/547 7/548 7/549
f 73/550 7/551 75/552
f 75/553 7/554 7/555
f 75/556 7/557 77/558
f 77/559 7/560 20/561
f 88/562 89/563 90/564
f 90/565 89/566 91/567
f 90/568 92/569 88/570
f 88/571 92/572 93/573
f 94/574 95/575 93/576
f 93/577 95/578 95/579
f 93/580 95/581 88/582
f 88/583 95/584 96/585
f 88/586 96/587 89/588
f 89/589 96/590 97/591
f 98/592 94/593 99/594
f 99/595 94/596 93/597
f 99/598 93/599 99/600
f 99/601 93/602 92/603
f 99/604 92/605 100/606
f 98/607 99/608 101/609
f 101/610 99/611 102/612
f 101/613 102/614 103/615
f 103/616 102/617 104/618
f 103/619 104/620 105/621
f 105/622 104/623 106/624
f 105/625 106/626 107/627
f 107/628 106/629 108/630
f 107/631 108/632 109/633
f 109/634 108/635 110/636
f 109/637 110/638 111/639
f 111/640 110/641 112/642
f 111/643 112/644 113/645
f 113/646 112/647 114/648
f 113/649 114/650 115/651
f 115/652 114/653 114/654
f 115/655 114/656 116/657
f 116/658 114/659 117/660
f 116/661 117/662 118/663
f 118/664 117/665 119/666
f 118/667 119/668 120/669
f 120/670 119/671 121/672
f 120/673 121/674 122/675
f 122/676 121/677 123/678
f 122/679 123/680 124/681
f 124/682 123/683 125/684
f 124/685 125/686 126/687
f 126/688 125/689 127/690
f 126/691 127/692 128/693
f 128/694 127/695 129/696
f 128/697 129/698 130/699
f 130/700 129/701 131/702
f 130/703 131/704 132/705
f 132/706 131/707 133/708
f 132/709 133/710 134/711
f 134/712 133/713 133/714
f 134/715 133/716 135/717
f 135/718 133/719 136/720
f 135/721 136/722 137/723
f 137/724 136/725 138/726
f 137/727 138/728 139/729
f 139/730 138/731 140/732
f 139/733 140/734 141/735
f 141/736 140/737 142/738
f 141/739 142/740 143/741
f 143/742 142/743 144/744
f 143/745 144/746 145/747
f 145/748 144/749 146/750
f 145/751 146/752 147/753
f 147/754 146/755 148/756
f 147/757 148/758 149/759
f 149/760 148/761 150/762
f 149/763 150/764 151/765
f 151/766 150/767 150/768
f 151/769 150/770 152/771
f 152/772 150/773 153/774
f 152/775 153/776 154/777
f 154/778 153/779 155/780
f 154/781 155/782 156/783
f 156/784 155/785 157/786
f 156/787 157/788 158/789
f 158/790 157/791 159/792
f 158/793 159/794 160/795
f 160/796 159/797 161/798
f 160/799 161/800 162/801
f 162/802 161/803 163/804
f 162/805 163/806 164/807
f 164/808 163/809 165/810
f 164/811 165/812 166/813
f 99/814 100/815 102/816
f 102/817 100/818 167/819
f 102/820 167/821 104/822
f 104/823 167/824 168/825
f 104/826 168/827 106/828
f 106/829 168/830 169/831
f 106/832 169/833 108/834
f 108/835 169/836 170/837
f 108/838 170/839 110/840
f 110/841 170/842 171/843
f 110/844 171/845 112/846
f 112/847 171/848 172/849
f 112/850 172/851 114/852
f 114/853 172/854 173/855
f 100/856 92/857 167/858
f 167/859 92/860 92/861
f 167/862 92/863 168/864
f 168/865 92/866 92/867
f 168/868 92/869 169/870
f 169/871 92/872 92/873
f 169/874 92/875 170/876
f 170/877 92/878 92/879
f 170/880 92/881 171/882
f 171/883 92/884 92/885
f 171/886 92/887 172/888
f 172/889 92/890 92/891
f 172/892 92/893 173/894
f 173/895 92/896 92/897
f 173/898 92/899 174/900
f 174/901 92/902 92/903
f 174/904 92/905 175/906
f 175/907 92/908 92/909
f 175/910 92/911 176/912
f 176/913 92/914 92/915
f 176/916 92/917 177/918
f 177/919 92/920 92/921
f 177/922 92/923 178/924
f 178/925 92/926 90/927
f 178/928 90/929 179/930
f 179/931 90/932 90/933
f 179/934 90/935 180/936
f 180/937 90/938 90/939
f 180/940 90/941 181/942
f 181/943 90/944 90/945
f 181/946 90/947 182/948
f 182/949 90/950 90/951
f 182/952 90/953 183/954
f 183/955 90/956 90/957
f 183/958 90/959 184/960
f 184/961 90/962 90/963
f 184/964 90/965 185/966
f 185/967 90/968 91/969
f 185/970 91/971 186/972
f 186/973 91/974 91/975
f 186/976 91/977 187/978
f 187/979 91/980 91/981
f 187/982 91/983 188/984
f 188/985 91/986 91/987
f 188/988 91/989 189/990
f 189/991 91/992 91/993
f 189/994 91/995 190/996
f 190/997 91/998 91/999
f 190/1000 91/1001 191/1002
f 191/1003 91/1004 91/1005
f 191/1006 91/1007 192/1008
f 192/1009 91/1010 91/1011
f 192/1012 91/1013 193/1014
f 193/1015 91/1016 91/1017
f 193/1018 91/1019 194/1020
f 194/1021 91/1022 91/1023
f 194/1024 91/1025 195/1026
f 195/1027 91/1028 91/1029
f 195/1030 91/1031 196/1032
f 196/1033 91/1034 197/1035
f 114/1036 173/1037 117/1038
f 117/1039 173/1040 174/1041
f 117/1042 174/1043 119/1044
f 119/1045 174/1046 175/1047
f 119/1048 175/1049 121/1050
f 121/1051 175/1052 176/1053
f 121/1054 176/1055 123/1056
f 123/1057 176/1058 177/1059
f 123/1060 177/1061 125/1062
f 125/1063 177/1064 178/1065
f 125/1066 178/1067 127/1068
f 127/1069 178/1070 179/1071
f 127/1072 179/1073 129/1074
f 129/1075 179/1076 180/1077
f 129/1078 180/1079 131/1080
f 131/1081 180/1082 181/1083
f 131/1084 181/1085 133/1086
f 133/1087 181/1088 182/1089
f 133/1090 182/1091 136/1092
f 136/1093 182/1094 183/1095
f 136/1096 183/1097 138/1098
f 138/1099 183/1100 184/1101
f 138/1102 184/1103 140/1104
f 140/1105 184/1106 185/1107
f 140/1108 185/1109 142/1110
f 142/1111 185/1112 186/1113
f 142/1114 186/1115 144/1116
f 144/1117 186/1118 187/1119
f 144/1120 187/1121 146/1122
f 146/1123 187/1124 188/1125
f 146/1126 188/1127 148/1128
f 148/1129 188/1130 189/1131
f 148/1132 189/1133 150/1134
f 150/1135 189/1136 190/1137
f 197/1138 91/1139 165/1140
f 165/1141 91/1142 89/1143
f 165/1144 89/1145 165/1146
f 165/1147 89/1148 97/1149
f 165/1150 97/1151 166/1152
f 197/1153 165/1154 196/1155
f 196/1156 165/1157 163/1158
f 196/1159 163/1160 195/1161
f 195/1162 163/1163 161/1164
f 195/1165 161/1166 194/1167
f 194/1168 161/1169 159/1170
f 194/1171 159/1172 193/1173
f 193/1174 159/1175 157/1176
f 193/1177 157/1178 192/1179
f 192/1180 157/1181 155/1182
f 192/1183 155/1184 191/1185
f 191/1186 155/1187 153/1188
f 191/1189 153/1190 190/1191
f 190/1192 153/1193 150/1194
f 198/1195 199/1196 1/1197
f 1/1198 199/1199 199/1200
f 1/1201 199/1202 2/1203
f 2/1204 199/1205 200/1206
f 200/1207 201/1208 2/1209
f 2/1210 201/1211 201/1212
f 2/1213 201/1214 4/1215
f 4/1216 201/1217 202/1218
f 202/1219 203/1220 4/1221
f 4/1222 203/1223 203/1224
f 4/1225 203/1226 3/1227
f 3/1228 203/1229 204/1230
f 203/1231 205/1232 204/1233
f 204/1234 205/1235 206/1236
f 204/1237 206/1238 204/1239
f 204/1240 206/1241 207/1242
f 204/1243 207/1244 204/1245
f 204/1246 207/1247 208/1248
f 204/1249 208/1250 204/1251
f 204/1252 208/1253 209/1254
f 204/1255 209/1256 204/1257
f 204/1258 209/1259 210/1260
f 204/1261 210/1262 204/1263
f 204/1264 210/1265 211/1266
f 204/1267 211/1268 204/1269
f 204/1270 211/1271 212/1272
f 204/1273 212/1274 204/1275
f 204/1276 212/1277 213/1278
f 204/1279 213/1280 214/1281
f 203/1282 202/1283 215/1284
f 215/1285 202/1286 202/1287
f 215/1288 202/1289 216/1290
f 216/1291 202/1292 202/1293
f 216/1294 202/1295 217/1296
f 217/1297 202/1298 202/1299
f 217/1300 202/1301 218/1302
f 218/1303 202/1304 202/1305
f 218/1306 202/1307 219/1308
f 219/1309 202/1310 202/1311
f 219/1312 202/1313 220/1314
f 220/1315 202/1316 202/1317
f 220/1318 202/1319 221/1320
f 221/1321 202/1322 202/1323
f 221/1324 202/1325 222/1326
f 222/1327 202/1328 202/1329
f 222/1330 202/1331 223/1332
f 223/1333 202/1334 201/1335
f 201/1336 200/1337 224/1338
f 224/1339 200/1340 200/1341
f 224/1342 200/1343 225/1344
f 225/1345 200/1346 200/1347
f 225/1348 200/1349 226/1350
f 226/1351 200/1352 200/1353
f 226/1354 200/1355 227/1356
f 227/1357 200/1358 200/1359
f 227/1360 200/1361 228/1362
f 228/1363 200/1364 200/1365
f 228/1366 200/1367 229/1368
f 229/1369 200/1370 200/1371
f 229/1372 200/1373 230/1374
f 230/1375 200/1376 200/1377
f 230/1378 200/1379 231/1380
f 231/1381 200/1382 200/1383
f 231/1384 200/1385 232/1386
f 232/1387 200/1388 199/1389
f 199/1390 198/1391 233/1392
f 233/1393 198/1394 198/1395
f 233/1396 198/1397 234/1398
f 234/1399 198/1400 198/1401
f 234/1402 198/1403 235/1404
f 235/1405 198/1406 198/1407
f 235/1408 198/1409 236/1410
f 236/1411 198/1412 198/1413
f 236/1414 198/1415 237/1416
f 237/1417 198/1418 198/1419
f 237/1420 198/1421 238/1422
f 238/1423 198/1424 198/1425
f 238/1426 198/1427 239/1428
f 239/1429 198/1430 198/1431
f 239/1432 198/1433 240/1434
f 240/1435 198/1436 198/1437
f 240/1438 198/1439 241/1440
f 241/1441 198/1442 214/1443
f 204/1444 214/1445 3/1446
f 3/1447 214/1448 214/1449
f 3/1450 214/1451 1/1452
f 1/1453 214/1454 198/1455
