# Exported from USD for MuJoCo with source material subsets
v -11.8494508 -3.77861639 1.13390227
v -11.8497572 -3.77722164 1.14102421
v -11.8526722 -3.77933093 1.13390361
v -11.8529796 -3.77793356 1.14103361
v -11.8503133 -3.77470179 1.14781474
v -11.8535365 -3.77541014 1.14782817
v -11.8511041 -3.77112504 1.15408854
v -11.854328 -3.77183052 1.15410295
v -11.8521083 -3.76658817 1.15967534
v -11.8553323 -3.76729246 1.15968754
v -11.8532988 -3.76121374 1.16442253
v -11.8565221 -3.76192041 1.16443034
v -11.8546427 -3.75514789 1.1682
v -11.857865 -3.75585981 1.1682028
v -11.8561024 -3.74856182 1.17090129
v -11.8593255 -3.74927088 1.17090385
v -11.8576385 -3.74163409 1.17245463
v -11.8608627 -3.74233671 1.1724572
v -11.8592096 -3.73455044 1.17281938
v -11.8624344 -3.73524996 1.17281987
v -11.8607728 -3.72750374 1.17198491
v -11.8639979 -3.7282035 1.17198332
v -11.8622859 -3.72068568 1.16997343
v -11.8655104 -3.72138878 1.16997075
v -11.8637079 -3.71428176 1.16683879
v -11.8669308 -3.71499129 1.16683733
v -11.8649984 -3.70847007 1.16266728
v -11.8682208 -3.70918246 1.1626663
v -11.8661227 -3.70341178 1.15757634
v -11.8693456 -3.70412012 1.15756938
v -11.8670501 -3.69924017 1.15170182
v -11.8702733 -3.69994756 1.15169023
v -11.8677562 -3.69606872 1.14520317
v -11.870979 -3.69677754 1.14518974
v -11.8682213 -3.69398447 1.13825676
v -11.8714437 -3.69469591 1.13824467
v -11.8684327 -3.69304438 1.13105144
v -11.8716547 -3.69375797 1.13104435
v -11.8683845 -3.69327541 1.12378313
v -11.8716061 -3.69398995 1.12378447
v -9.47374937 -2.43574401 1.1089069
v -9.47343466 -2.43717535 1.10179252
v -9.47697101 -2.43645855 1.10890825
v -9.47665593 -2.43789264 1.1017858
v -9.47287068 -2.43973001 1.09501591
v -9.47609088 -2.44045075 1.09500481
v -9.47207293 -2.44333907 1.08876115
v -9.47529266 -2.44406255 1.08874943
v -9.47106216 -2.44790455 1.0831989
v -9.47428176 -2.44862934 1.08318938
v -9.46986685 -2.45330306 1.07848076
v -9.47308645 -2.45402594 1.07847551
v -9.46851835 -2.45938822 1.07473613
v -9.47173962 -2.4601055 1.07473564
v -9.46705553 -2.46598836 1.07207024
v -9.47027597 -2.4667085 1.07207012
v -9.46551773 -2.47292384 1.07055412
v -9.46873674 -2.47365042 1.07055412
v -9.46394644 -2.48000904 1.07022745
v -9.46716473 -2.48073884 1.07022966
v -9.46238384 -2.48705145 1.07110002
v -9.46560225 -2.48778089 1.07110416
v -9.46087286 -2.49385913 1.07314801
v -9.46409223 -2.49458524 1.07315336
v -9.45945499 -2.50024684 1.0763173
v -9.46267543 -2.50096651 1.07632109
v -9.45816884 -2.50603732 1.08051982
v -9.46138999 -2.50675412 1.08052337
v -9.45705066 -2.51106914 1.08563798
v -9.46027109 -2.51179 1.08564764
v -9.45612965 -2.51521035 1.09153497
v -9.45934973 -2.5159324 1.091549
v -9.45543096 -2.51834854 1.09805045
v -9.45865152 -2.5190688 1.09806656
v -9.45497403 -2.52039715 1.10500798
v -9.45819495 -2.52111503 1.10502263
v -9.45477066 -2.5213004 1.11221818
v -9.45799229 -2.52201565 1.11222795
v -9.45482728 -2.52103217 1.11948515
v -9.45804891 -2.52174683 1.1194865
v -9.47702799 -2.43618973 1.11616679
v -9.473806 -2.43547579 1.11617387
v -9.47682497 -2.43709036 1.12337199
v -9.47360263 -2.43637892 1.12338408
v -9.47636852 -2.43913659 1.13032817
v -9.47314558 -2.43842765 1.1303416
v -9.47567031 -2.4422731 1.13684563
v -9.47244689 -2.44156571 1.13685722
v -9.47474906 -2.44641527 1.14274711
v -9.471526 -2.44570704 1.14275407
v -9.47363005 -2.45145126 1.14787126
v -9.47040782 -2.45073887 1.14787224
v -9.47234461 -2.45723875 1.15207329
v -9.46912167 -2.45652946 1.15207487
v -9.47092781 -2.46362015 1.15524125
v -9.46770367 -2.46291705 1.15524406
v -9.46941779 -2.47042449 1.15729057
v -9.4661927 -2.46972485 1.15729228
v -9.46785531 -2.47746654 1.15816508
v -9.46463022 -2.47676714 1.15816459
v -9.4662833 -2.48455485 1.1578405
v -9.46305904 -2.48385235 1.15783794
v -9.46474395 -2.49149676 1.15632451
v -9.46152112 -2.49078794 1.15632182
v -9.46328041 -2.49809976 1.1536591
v -9.46005819 -2.49738785 1.15365605
v -9.46193347 -2.50417956 1.14991923
v -9.45870981 -2.50347312 1.1499113
v -9.4607384 -2.50957616 1.14520525
v -9.45751426 -2.50887164 1.14519316
v -9.45972762 -2.51414271 1.13964518
v -9.45650384 -2.51343711 1.1396309
v -9.4589288 -2.51775452 1.13338994
v -9.45570586 -2.51704605 1.13337626
v -9.4583641 -2.52031275 1.12660893
v -9.455142 -2.51960083 1.12659953
v -11.868078 -3.69467016 1.11666118
v -11.8712989 -3.69538732 1.11665446
v -11.8675216 -3.69719001 1.10987089
v -11.8707421 -3.69791051 1.10985991
v -11.8667305 -3.70076676 1.10359685
v -11.8699503 -3.70149012 1.10358525
v -11.8657264 -3.70530387 1.09801004
v -11.8689462 -3.70602818 1.09800065
v -11.8645365 -3.71067806 1.0932631
v -11.8677562 -3.71140071 1.09325762
v -11.8631925 -3.71674391 1.08948552
v -11.8664134 -3.71746131 1.08948515
v -11.8617325 -3.72332998 1.08678436
v -11.864953 -3.72405024 1.0867841
v -11.8601966 -3.73025771 1.08523088
v -11.8634156 -3.73098441 1.08523088
v -11.8586256 -3.73734136 1.08486625
v -11.8618436 -3.73807093 1.08486808
v -11.8570621 -3.74438783 1.08570048
v -11.8602804 -3.74511739 1.08570475
v -11.8555492 -3.75120588 1.08771207
v -11.8587682 -3.7519321 1.08771745
v -11.8541273 -3.75760981 1.09084685
v -11.8573478 -3.75832983 1.09085075
v -11.8528363 -3.76342173 1.09501835
v -11.8560577 -3.7641389 1.0950219
v -11.8517126 -3.76848002 1.10010917
v -11.8549326 -3.76920124 1.10011871
v -11.850785 -3.77265163 1.10598369
v -11.854005 -3.77337356 1.10599773
v -11.850079 -3.77582308 1.11248247
v -11.8532992 -3.77654334 1.11249834
v -11.8496136 -3.77790709 1.11942863
v -11.8528348 -3.77862521 1.1194434
v -11.8494025 -3.77884742 1.12663395
v -11.8526236 -3.77956291 1.12664372
v -11.8649418 -3.72400876 1.13847538
v -11.8654541 -3.72170802 1.1339965
v -11.8656417 -3.72087022 1.1290081
v -11.8654864 -3.72157856 1.12399797
v -11.8650034 -3.7237639 1.11945659
v -11.8642401 -3.72721239 1.11582902
v -11.8632709 -3.73158689 1.11347038
v -11.8621905 -3.73645898 1.11261198
v -11.8611048 -3.74135157 1.11333794
v -11.8601205 -3.7457852 1.11557768
v -11.8593341 -3.74932404 1.11910893
v -11.8588218 -3.75162502 1.12358781
v -11.8586341 -3.75246235 1.12857634
v -11.8587894 -3.75175401 1.13358647
v -11.8592723 -3.74956914 1.13812773
v -11.8600358 -3.74612041 1.14175541
v -11.861005 -3.74174615 1.14411406
v -11.8620853 -3.73687406 1.14497233
v -11.863171 -3.73198124 1.14424638
v -11.8641554 -3.72754737 1.14200676
v -9.46653435 -2.46828433 1.10180424
v -9.46725604 -2.46502515 1.10560881
v -9.4676871 -2.46307238 1.11025895
v -9.46778581 -2.46261795 1.11529985
v -9.46754262 -2.46370633 1.1202382
v -9.46698055 -2.46623155 1.12459062
v -9.46615515 -2.46994682 1.12793034
v -9.46514711 -2.47448798 1.12993059
v -9.46405504 -2.47941085 1.13039518
v -9.46298597 -2.4842331 1.12927824
v -9.46204505 -2.48847958 1.12669133
v -9.46132359 -2.49173888 1.12288701
v -9.46089218 -2.49369152 1.11823686
v -9.46079335 -2.49414607 1.11319585
v -9.46103666 -2.49305757 1.10825761
v -9.46159873 -2.49053236 1.1039052
v -9.4624239 -2.48681708 1.10056535
v -9.46343217 -2.48227592 1.09856499
v -9.46452424 -2.47735306 1.09810063
v -9.46559355 -2.4725308 1.09921745
vt -1.07607996 1.13445497
vt -1.07635796 1.14103496
vt -1.07900798 1.134377
vt 0.746011019 1.134377
vt 0.744894981 1.14103496
vt 0.744894981 1.14103496
vt -1.07900798 1.134377
vt -1.07635796 1.14103496
vt -1.07928801 1.14096498
vt -1.07928801 1.14096498
vt -1.07635796 1.14103496
vt -1.076864 1.14744103
vt -1.07928801 1.14096498
vt -1.076864 1.14744103
vt -1.07979405 1.14737499
vt -1.07979405 1.14737499
vt -1.076864 1.14744103
vt -1.07758296 1.15349805
vt -1.07979405 1.14737499
vt -1.07758296 1.15349805
vt -1.08051395 1.15343297
vt -1.08051395 1.15343297
vt -1.07758296 1.15349805
vt -1.07849598 1.15904105
vt -1.08051395 1.15343297
vt -1.07849598 1.15904105
vt -1.08142698 1.15897405
vt -1.08142698 1.15897405
vt -1.07849598 1.15904105
vt -1.07957804 1.16391897
vt -1.08142698 1.15897405
vt -1.07957804 1.16391897
vt -1.08250797 1.16384804
vt -1.08250797 -0.733677983
vt -1.07957804 -0.733039021
vt -1.08080006 -0.727984011
vt -1.08250797 -0.733677983
vt -1.08080006 -0.727984011
vt -1.08372903 -0.728626013
vt -1.08372903 -0.728626013
vt -1.08080006 -0.727984011
vt -1.08212698 -0.722339988
vt -1.08372903 -0.728626013
vt -1.08212698 -0.722339988
vt -1.08505702 -0.722980022
vt -1.08505702 -0.722980022
vt -1.08212698 -0.722339988
vt -1.08352304 -0.716260016
vt -1.08505702 -0.722980022
vt -1.08352304 -0.716260016
vt -1.08645403 -0.716894984
vt -1.08645403 -0.716894984
vt -1.08352304 -0.716260016
vt -1.08495104 -0.709909022
vt -1.08645403 -0.716894984
vt -1.08495104 -0.709909022
vt -1.087883 -0.710539997
vt -1.087883 -0.710539997
vt -1.08495104 -0.709909022
vt -1.08637297 -0.703458011
vt -1.087883 -0.710539997
vt -1.08637297 -0.703458011
vt -1.08930397 -0.704088986
vt -1.08930397 -0.704088986
vt -1.08637297 -0.703458011
vt -1.08774805 -0.697082996
vt -1.08930397 -0.704088986
vt -1.08774805 -0.697082996
vt -1.09068 -0.697718024
vt -1.09068 -0.697718024
vt -1.08774805 -0.697082996
vt -1.08904099 -0.690958023
vt -1.09068 -0.697718024
vt -1.08904099 -0.690958023
vt -1.09197104 -0.691597998
vt -1.09197104 -0.691597998
vt -1.08904099 -0.690958023
vt -1.09021401 -0.685252011
vt -1.09197104 -0.691597998
vt -1.09021401 -0.685252011
vt -1.09314406 -0.685895026
vt -1.09314406 -0.685895026
vt -1.09021401 -0.685252011
vt -1.091236 -0.680124998
vt -1.09314406 -0.685895026
vt -1.091236 -0.680124998
vt -1.09416604 -0.680763006
vt 1.09416604 1.16405201
vt 1.091236 1.16413701
vt 1.09207904 1.15929699
vt 1.09416604 1.16405201
vt 1.09207904 1.15929699
vt 1.09501004 1.15920901
vt 1.09501004 1.15920901
vt 1.09207904 1.15929699
vt 1.09272099 1.15378404
vt 1.09501004 1.15920901
vt 1.09272099 1.15378404
vt 1.09565103 1.15369403
vt 1.09565103 1.15369403
vt 1.09272099 1.15378404
vt 1.09314406 1.14774704
vt 1.09565103 1.15369403
vt 1.09314406 1.14774704
vt 1.09607399 1.14765704
vt 1.09607399 1.14765704
vt 1.09314406 1.14774704
vt 1.09333599 1.14134896
vt 1.09607399 1.14765704
vt 1.09333599 1.14134896
vt 1.09626496 1.14126396
vt 1.09626496 1.14126396
vt 1.09333599 1.14134896
vt 1.093292 1.13476503
vt 1.09626496 1.14126396
vt 1.093292 1.13476503
vt 1.09622097 1.13468802
vt -1.08364797 1.26046503
vt -1.08393395 1.25388706
vt -1.08071899 1.26038694
vt -0.468474001 1.26038694
vt -0.468614995 1.25388706
vt -0.468614995 1.25388706
vt -1.08071899 1.26038694
vt -1.08393395 1.25388706
vt -1.08100498 1.25380194
vt -1.08100498 1.25380194
vt -1.08393395 1.25388706
vt -1.08444595 1.24749005
vt -1.08100498 1.25380194
vt -1.08444595 1.24749005
vt -1.08151901 1.24740005
vt -1.08151901 1.24740005
vt -1.08444595 1.24749005
vt -1.08517206 1.24144602
vt -1.08151901 1.24740005
vt -1.08517206 1.24144602
vt -1.08224499 1.24135602
vt -1.08224499 1.24135602
vt -1.08517206 1.24144602
vt -1.08608997 1.23592198
vt -1.08224499 1.24135602
vt -1.08608997 1.23592198
vt -1.08316398 1.235834
vt -1.08316398 1.235834
vt -1.08608997 1.23592198
vt -1.08717704 1.23106802
vt -1.08316398 1.235834
vt -1.08717704 1.23106802
vt -1.08424997 1.23098302
vt -1.08424997 0.455989003
vt -1.08717704 0.456640989
vt -1.08840299 0.451564014
vt -1.08424997 0.455989003
vt -1.08840299 0.451564014
vt -1.08547497 0.450917006
vt -1.08547497 0.450917006
vt -1.08840299 0.451564014
vt -1.089733 0.445903987
vt -1.08547497 0.450917006
vt -1.089733 0.445903987
vt -1.08680499 0.445253998
vt -1.08680499 0.445253998
vt -1.089733 0.445903987
vt -1.09113097 0.439812988
vt -1.08680499 0.445253998
vt -1.09113097 0.439812988
vt -1.08820498 0.439157993
vt -1.08820498 0.439157993
vt -1.09113097 0.439812988
vt -1.09255898 0.433456004
vt -1.08820498 0.439157993
vt -1.09255898 0.433456004
vt -1.08963394 0.432797998
vt -1.08963394 0.432797998
vt -1.09255898 0.433456004
vt -1.09397995 0.427004993
vt -1.08963394 0.432797998
vt -1.09397995 0.427004993
vt -1.09105396 0.426346987
vt -1.09105396 0.426346987
vt -1.09397995 0.427004993
vt -1.09535301 0.420635998
vt -1.09105396 0.426346987
vt -1.09535301 0.420635998
vt -1.09242702 0.41997999
vt -1.09242702 0.41997999
vt -1.09535301 0.420635998
vt -1.09664297 0.414521009
vt -1.09242702 0.41997999
vt -1.09664297 0.414521009
vt -1.09371495 0.41387099
vt -1.09371495 0.41387099
vt -1.09664297 0.414521009
vt -1.09781206 0.408831
vt -1.09371495 0.41387099
vt -1.09781206 0.408831
vt -1.09488297 0.408183992
vt -1.09488297 0.408183992
vt -1.09781206 0.408831
vt -1.09882796 0.403724998
vt -1.09488297 0.408183992
vt -1.09882796 0.403724998
vt -1.09590101 0.403073013
vt 1.09590101 1.23106396
vt 1.09882796 1.23113501
vt 1.09966505 1.23599803
vt 1.09590101 1.23106396
vt 1.09966505 1.23599803
vt 1.09673798 1.23593104
vt 1.09673798 1.23593104
vt 1.09966505 1.23599803
vt 1.10030103 1.24152994
vt 1.09673798 1.23593104
vt 1.10030103 1.24152994
vt 1.09737301 1.24146497
vt 1.09737301 1.24146497
vt 1.10030103 1.24152994
vt 1.10071599 1.24758101
vt 1.09737301 1.24146497
vt 1.10071599 1.24758101
vt 1.09778798 1.24751496
vt 1.09778798 1.24751496
vt 1.10071599 1.24758101
vt 1.10090101 1.25398803
vt 1.09778798 1.24751496
vt 1.10090101 1.25398803
vt 1.09797204 1.25391698
vt 1.09797204 1.25391698
vt 1.10090101 1.25398803
vt 1.10084999 1.26057398
vt 1.09797204 1.25391698
vt 1.10084999 1.26057398
vt 1.09792101 1.26049602
vt -1.08071899 1.26038694
vt -1.08066702 1.26696599
vt -1.08364797 1.26046503
vt -0.469119012 1.26046503
vt -0.467913985 1.26696599
vt -0.467913985 1.26696599
vt -1.08364797 1.26046503
vt -1.08066702 1.26696599
vt -1.08359599 1.26705205
vt -1.08359599 1.26705205
vt -1.08066702 1.26696599
vt -1.08085096 1.273368
vt -1.08359599 1.26705205
vt -1.08085096 1.273368
vt -1.083781 1.273458
vt -1.083781 1.273458
vt -1.08085096 1.273368
vt -1.081267 1.27941895
vt -1.083781 1.273458
vt -1.081267 1.27941895
vt -1.08419597 1.27950895
vt -1.08419597 1.27950895
vt -1.081267 1.27941895
vt -1.08190095 1.284953
vt -1.08419597 1.27950895
vt -1.08190095 1.284953
vt -1.08483195 1.28504097
vt -1.08483195 1.28504097
vt -1.08190095 1.284953
vt -1.082739 1.289819
vt -1.08483195 1.28504097
vt -1.082739 1.289819
vt -1.08566904 1.289904
vt 1.08566904 0.456384003
vt 1.082739 0.455745995
vt 1.08375597 0.450634986
vt 1.08566904 0.456384003
vt 1.08375597 0.450634986
vt 1.08668494 0.451278001
vt 1.08668494 0.451278001
vt 1.08375597 0.450634986
vt 1.08492506 0.444947988
vt 1.08668494 0.451278001
vt 1.08492506 0.444947988
vt 1.08785498 0.445587993
vt 1.08785498 0.445587993
vt 1.08492506 0.444947988
vt 1.08621299 0.438838989
vt 1.08785498 0.445587993
vt 1.08621299 0.438838989
vt 1.08914399 0.439473003
vt 1.08914399 0.439473003
vt 1.08621299 0.438838989
vt 1.08758497 0.432473004
vt 1.08914399 0.439473003
vt 1.08758497 0.432473004
vt 1.09051704 0.433104008
vt 1.09051704 0.433104008
vt 1.08758497 0.432473004
vt 1.08900595 0.426021993
vt 1.09051704 0.433104008
vt 1.08900595 0.426021993
vt 1.09193802 0.426652998
vt 1.09193802 0.426652998
vt 1.08900595 0.426021993
vt 1.09043503 0.419661999
vt 1.09193802 0.426652998
vt 1.09043503 0.419661999
vt 1.09336603 0.420296013
vt 1.09336603 0.420296013
vt 1.09043503 0.419661999
vt 1.09183395 0.41356501
vt 1.09336603 0.420296013
vt 1.09183395 0.41356501
vt 1.09476399 0.414205015
vt 1.09476399 0.414205015
vt 1.09183395 0.41356501
vt 1.09316504 0.407902002
vt 1.09476399 0.414205015
vt 1.09316504 0.407902002
vt 1.09609401 0.408544987
vt 1.09609401 0.408544987
vt 1.09316504 0.407902002
vt 1.09438896 0.402830005
vt 1.09609401 0.408544987
vt 1.09438896 0.402830005
vt 1.09731996 0.403468013
vt 1.09731996 1.28997195
vt 1.09438896 1.28990102
vt 1.09547603 1.28505003
vt 1.09731996 1.28997195
vt 1.09547603 1.28505003
vt 1.09840703 1.28511703
vt 1.09840703 1.28511703
vt 1.09547603 1.28505003
vt 1.09639502 1.27952802
vt 1.09840703 1.28511703
vt 1.09639502 1.27952802
vt 1.09932494 1.27959299
vt 1.09932494 1.27959299
vt 1.09639502 1.27952802
vt 1.097121 1.27348399
vt 1.09932494 1.27959299
vt 1.097121 1.27348399
vt 1.10005105 1.27355003
vt 1.10005105 1.27355003
vt 1.097121 1.27348399
vt 1.09763396 1.26708198
vt 1.10005105 1.27355003
vt 1.09763396 1.26708198
vt 1.10056305 1.26715195
vt 1.10056305 1.26715195
vt 1.09763396 1.26708198
vt 1.09792101 1.26049602
vt 1.10056305 1.26715195
vt 1.09792101 1.26049602
vt 1.10084999 1.26057398
vt -0.402830005 1.28990102
vt -0.407902002 1.29394805
vt -0.398481995 1.28505003
vt -0.398481995 1.28505003
vt -0.407902002 1.29394805
vt -0.407902002 1.29394805
vt -0.398481995 1.28505003
vt -0.407902002 1.29394805
vt -0.394977003 1.27952802
vt -0.394977003 1.27952802
vt -0.407902002 1.29394805
vt -0.41356501 1.29708302
vt -0.394977003 1.27952802
vt -0.41356501 1.29708302
vt -0.39241001 1.27348399
vt -0.39241001 1.27348399
vt -0.41356501 1.29708302
vt -0.419661999 1.29921901
vt -0.39241001 1.27348399
vt -0.419661999 1.29921901
vt -0.390850991 1.26708198
vt -0.390850991 1.26708198
vt -0.419661999 1.29921901
vt -0.426021993 1.30029595
vt -0.390850991 1.26708198
vt -0.426021993 1.30029595
vt -0.390345007 1.26049602
vt -0.390345007 1.26049602
vt -0.426021993 1.30029595
vt -0.432473004 1.30028605
vt -0.390345007 1.26049602
vt -0.432473004 1.30028605
vt -0.390906006 1.25391698
vt -0.390906006 1.25391698
vt -0.432473004 1.30028605
vt -0.438838989 1.29919004
vt -0.390906006 1.25391698
vt -0.438838989 1.29919004
vt -0.392515987 1.24751496
vt -0.392515987 1.24751496
vt -0.438838989 1.29919004
vt -0.444947988 1.29703701
vt -0.392515987 1.24751496
vt -0.444947988 1.29703701
vt -0.395130992 1.24146497
vt -0.395130992 1.24146497
vt -0.444947988 1.29703701
vt -0.450634986 1.29388595
vt -0.395130992 1.24146497
vt -0.450634986 1.29388595
vt -0.398683012 1.23593104
vt -0.398683012 1.23593104
vt -0.450634986 1.29388595
vt -0.455745995 1.289819
vt -0.398683012 1.23593104
vt -0.455745995 1.289819
vt -0.403073013 1.23106396
vt -0.403073013 1.23106396
vt -0.455745995 1.289819
vt -0.46013701 1.284953
vt -0.403073013 1.23106396
vt -0.46013701 1.284953
vt -0.408183992 1.22699797
vt -0.408183992 1.22699797
vt -0.46013701 1.284953
vt -0.463687986 1.27941895
vt -0.408183992 1.22699797
vt -0.463687986 1.27941895
vt -0.41387099 1.22384596
vt -0.41387099 1.22384596
vt -0.463687986 1.27941895
vt -0.466304004 1.273368
vt -0.41387099 1.22384596
vt -0.466304004 1.273368
vt -0.41997999 1.22169399
vt -0.41997999 1.22169399
vt -0.466304004 1.273368
vt -0.467913985 1.26696599
vt -0.41997999 1.22169399
vt -0.467913985 1.26696599
vt -0.426346987 1.22059703
vt -0.426346987 1.22059703
vt -0.467913985 1.26696599
vt -0.468474001 1.26038694
vt -0.426346987 1.22059703
vt -0.468474001 1.26038694
vt -0.432797998 1.22058702
vt -0.432797998 1.22058702
vt -0.468474001 1.26038694
vt -0.467967987 1.25380194
vt -0.432797998 1.22058702
vt -0.467967987 1.25380194
vt -0.439157993 1.22166395
vt -0.439157993 1.22166395
vt -0.467967987 1.25380194
vt -0.466410011 1.24740005
vt -0.439157993 1.22166395
vt -0.466410011 1.24740005
vt -0.445253998 1.22379994
vt -0.445253998 1.22379994
vt -0.466410011 1.24740005
vt -0.463842988 1.24135602
vt -0.445253998 1.22379994
vt -0.463842988 1.24135602
vt -0.450917006 1.22693598
vt -0.450917006 1.22693598
vt -0.463842988 1.24135602
vt -0.460337013 1.235834
vt -0.450917006 1.22693598
vt -0.460337013 1.235834
vt -0.455989003 1.23098302
vt 1.093292 1.13476503
vt 1.093014 1.12818503
vt 1.09622097 1.13468802
vt 0.667885005 1.13468802
vt 0.66771102 1.12818503
vt 0.66771102 1.12818503
vt 1.09622097 1.13468802
vt 1.093014 1.12818503
vt 1.09594202 1.12809896
vt 1.09594202 1.12809896
vt 1.093014 1.12818503
vt 1.09250796 1.12177896
vt 1.09594202 1.12809896
vt 1.09250796 1.12177896
vt 1.09543598 1.12168896
vt 1.09543598 1.12168896
vt 1.09250796 1.12177896
vt 1.09178901 1.11572194
vt 1.09543598 1.12168896
vt 1.09178901 1.11572194
vt 1.09471595 1.11563098
vt 1.09471595 1.11563098
vt 1.09178901 1.11572194
vt 1.09087598 1.11017895
vt 1.09471595 1.11563098
vt 1.09087598 1.11017895
vt 1.09380305 1.11009002
vt 1.09380305 1.11009002
vt 1.09087598 1.11017895
vt 1.08979404 1.10530102
vt 1.09380305 1.11009002
vt 1.08979404 1.10530102
vt 1.09272099 1.10521603
vt 1.09272099 -0.680217981
vt 1.08979404 -0.679566979
vt 1.08857203 -0.68462199
vt 1.09272099 -0.680217981
vt 1.08857203 -0.68462199
vt 1.091501 -0.685268998
vt 1.091501 -0.685268998
vt 1.08857203 -0.68462199
vt 1.08724499 -0.690266013
vt 1.091501 -0.685268998
vt 1.08724499 -0.690266013
vt 1.09017301 -0.690916002
vt 1.09017301 -0.690916002
vt 1.08724499 -0.690266013
vt 1.08584905 -0.696344972
vt 1.09017301 -0.690916002
vt 1.08584905 -0.696344972
vt 1.08877504 -0.69700098
vt 1.08877504 -0.69700098
vt 1.08584905 -0.696344972
vt 1.08442104 -0.702696979
vt 1.08877504 -0.69700098
vt 1.08442104 -0.702696979
vt 1.08734596 -0.703355014
vt 1.08734596 -0.703355014
vt 1.08442104 -0.702696979
vt 1.08299899 -0.70914799
vt 1.08734596 -0.703355014
vt 1.08299899 -0.70914799
vt 1.08592498 -0.709806025
vt 1.08592498 -0.709806025
vt 1.08299899 -0.70914799
vt 1.08162403 -0.715521991
vt 1.08592498 -0.709806025
vt 1.08162403 -0.715521991
vt 1.08455002 -0.716178
vt 1.08455002 -0.716178
vt 1.08162403 -0.715521991
vt 1.08033097 -0.721647024
vt 1.08455002 -0.716178
vt 1.08033097 -0.721647024
vt 1.08325899 -0.722297013
vt 1.08325899 -0.722297013
vt 1.08033097 -0.721647024
vt 1.07915795 -0.727352977
vt 1.08325899 -0.722297013
vt 1.07915795 -0.727352977
vt 1.08208597 -0.728000998
vt 1.08208597 -0.728000998
vt 1.07915795 -0.727352977
vt 1.07813597 -0.732481003
vt 1.08208597 -0.728000998
vt 1.07813597 -0.732481003
vt 1.08106399 -0.733132005
vt -1.08106399 1.10501206
vt -1.07813597 1.10508299
vt -1.07729304 1.10992301
vt -1.08106399 1.10501206
vt -1.07729304 1.10992301
vt -1.08021998 1.10985601
vt -1.08021998 1.10985601
vt -1.07729304 1.10992301
vt -1.07665098 1.11543596
vt -1.08021998 1.10985601
vt -1.07665098 1.11543596
vt -1.07957804 1.11537099
vt -1.07957804 1.11537099
vt -1.07665098 1.11543596
vt -1.07622802 1.12147295
vt -1.07957804 1.11537099
vt -1.07622802 1.12147295
vt -1.07915604 1.12140703
vt -1.07915604 1.12140703
vt -1.07622802 1.12147295
vt -1.07603598 1.12787104
vt -1.07915604 1.12140703
vt -1.07603598 1.12787104
vt -1.07896399 1.12779999
vt -1.07896399 1.12779999
vt -1.07603598 1.12787104
vt -1.07607996 1.13445497
vt -1.07896399 1.12779999
vt -1.07607996 1.13445497
vt -1.07900798 1.134377
vt -0.732481003 1.10508299
vt -0.727352977 1.10104895
vt -0.736895025 1.10992301
vt 0.736895025 1.10992301
vt 0.727352977 1.10104895
vt 0.727352977 1.10104895
vt -0.736895025 1.10992301
vt -0.727352977 1.10104895
vt -0.740474999 1.11543596
vt -0.740474999 1.11543596
vt -0.727352977 1.10104895
vt -0.721647024 1.09792805
vt -0.740474999 1.11543596
vt -0.721647024 1.09792805
vt -0.743125021 1.12147295
vt -0.743125021 1.12147295
vt -0.721647024 1.09792805
vt -0.715521991 1.09580803
vt -0.743125021 1.12147295
vt -0.715521991 1.09580803
vt -0.74476999 1.12787104
vt -0.74476999 1.12787104
vt -0.715521991 1.09580803
vt -0.70914799 1.09474695
vt -0.74476999 1.12787104
vt -0.70914799 1.09474695
vt -0.745365977 1.13445497
vt -0.745365977 1.13445497
vt -0.70914799 1.09474695
vt -0.702696979 1.09477401
vt -0.745365977 1.13445497
vt -0.702696979 1.09477401
vt -0.744894981 1.14103496
vt -0.744894981 1.14103496
vt -0.702696979 1.09477401
vt -0.696344972 1.09588695
vt -0.744894981 1.14103496
vt -0.696344972 1.09588695
vt -0.743372977 1.14744103
vt -0.743372977 1.14744103
vt -0.696344972 1.09588695
vt -0.690266013 1.09805501
vt -0.743372977 1.14744103
vt -0.690266013 1.09805501
vt -0.740839005 1.15349805
vt -0.740839005 1.15349805
vt -0.690266013 1.09805501
vt -0.68462199 1.10122097
vt -0.740839005 1.15349805
vt -0.68462199 1.10122097
vt -0.737362981 1.15904105
vt -0.737362981 1.15904105
vt -0.68462199 1.10122097
vt -0.679566979 1.10530102
vt -0.737362981 1.15904105
vt -0.679566979 1.10530102
vt -0.733039021 1.16391897
vt -0.733039021 1.16391897
vt -0.679566979 1.10530102
vt -0.675242007 1.11017895
vt -0.733039021 1.16391897
vt -0.675242007 1.11017895
vt -0.727984011 1.16799903
vt -0.727984011 1.16799903
vt -0.675242007 1.11017895
vt -0.671766996 1.11572194
vt -0.727984011 1.16799903
vt -0.671766996 1.11572194
vt -0.722339988 1.17116499
vt -0.722339988 1.17116499
vt -0.671766996 1.11572194
vt -0.669233024 1.12177896
vt -0.722339988 1.17116499
vt -0.669233024 1.12177896
vt -0.716260016 1.17333305
vt -0.716260016 1.17333305
vt -0.669233024 1.12177896
vt -0.66771102 1.12818503
vt -0.716260016 1.17333305
vt -0.66771102 1.12818503
vt -0.709909022 1.17444599
vt -0.709909022 1.17444599
vt -0.66771102 1.12818503
vt -0.667240024 1.13476503
vt -0.709909022 1.17444599
vt -0.667240024 1.13476503
vt -0.703458011 1.17447305
vt -0.703458011 1.17447305
vt -0.667240024 1.13476503
vt -0.66783601 1.14134896
vt -0.703458011 1.17447305
vt -0.66783601 1.14134896
vt -0.697082996 1.17341197
vt -0.697082996 1.17341197
vt -0.66783601 1.14134896
vt -0.669480979 1.14774704
vt -0.697082996 1.17341197
vt -0.669480979 1.14774704
vt -0.690958023 1.17129195
vt -0.690958023 1.17129195
vt -0.669480979 1.14774704
vt -0.672131002 1.15378404
vt -0.690958023 1.17129195
vt -0.672131002 1.15378404
vt -0.685252011 1.16817105
vt -0.685252011 1.16817105
vt -0.672131002 1.15378404
vt -0.675710976 1.15929699
vt -0.685252011 1.16817105
vt -0.675710976 1.15929699
vt -0.680124998 1.16413701
vt 0.680763006 1.16405201
vt 0.676347971 1.15920901
vt 0.69659698 1.14462304
vt 0.69659698 1.14462304
vt 0.676347971 1.15920901
vt 0.676347971 1.15920901
vt 0.69659698 1.14462304
vt 0.676347971 1.15920901
vt 0.694025993 1.140836
vt 0.694025993 1.140836
vt 0.676347971 1.15920901
vt 0.67276901 1.15369403
vt 0.694025993 1.140836
vt 0.67276901 1.15369403
vt 0.694025993 1.140836
vt 0.694025993 1.140836
vt 0.67276901 1.15369403
vt 0.670122027 1.14765704
vt 0.694025993 1.140836
vt 0.670122027 1.14765704
vt 0.692718029 1.13642704
vt 0.692718029 1.13642704
vt 0.670122027 1.14765704
vt 0.668479025 1.14126396
vt 0.692718029 1.13642704
vt 0.668479025 1.14126396
vt 0.692718029 1.13642704
vt 0.692718029 1.13642704
vt 0.668479025 1.14126396
vt 0.667885005 1.13468802
vt 0.692718029 1.13642704
vt 0.667885005 1.13468802
vt 0.692803025 1.13182795
vt 0.692803025 1.13182795
vt 0.667885005 1.13468802
vt 0.668357015 1.12809896
vt 0.692803025 1.13182795
vt 0.668357015 1.12809896
vt 0.692803025 1.13182795
vt 0.692803025 1.13182795
vt 0.668357015 1.12809896
vt 0.669881999 1.12168896
vt 0.692803025 1.13182795
vt 0.669881999 1.12168896
vt 0.694271982 1.12748802
vt 0.694271982 1.12748802
vt 0.669881999 1.12168896
vt 0.672417998 1.11563098
vt 0.694271982 1.12748802
vt 0.672417998 1.11563098
vt 0.694271982 1.12748802
vt 0.694271982 1.12748802
vt 0.672417998 1.11563098
vt 0.675894976 1.11009002
vt 0.694271982 1.12748802
vt 0.675894976 1.11009002
vt 0.69698298 1.12383401
vt 0.69698298 1.12383401
vt 0.675894976 1.11009002
vt 0.680217981 1.10521603
vt 0.69698298 1.12383401
vt 0.680217981 1.10521603
vt 0.69698298 1.12383401
vt 0.69698298 1.12383401
vt 0.680217981 1.10521603
vt 0.685268998 1.10114098
vt 0.69698298 1.12383401
vt 0.685268998 1.10114098
vt 0.700668991 1.12122095
vt 0.700668991 1.12122095
vt 0.685268998 1.10114098
vt 0.690916002 1.09797502
vt 0.700668991 1.12122095
vt 0.690916002 1.09797502
vt 0.700668991 1.12122095
vt 0.700668991 1.12122095
vt 0.690916002 1.09797502
vt 0.69700098 1.095806
vt 0.700668991 1.12122095
vt 0.69700098 1.095806
vt 0.704970002 1.11990798
vt 0.704970002 1.11990798
vt 0.69700098 1.095806
vt 0.703355014 1.09469497
vt 0.704970002 1.11990798
vt 0.703355014 1.09469497
vt 0.704970002 1.11990798
vt 0.704970002 1.11990798
vt 0.703355014 1.09469497
vt 0.709806025 1.09467101
vt 0.704970002 1.11990798
vt 0.709806025 1.09467101
vt 0.709465027 1.12002206
vt 0.709465027 1.12002206
vt 0.709806025 1.09467101
vt 0.716178 1.09573305
vt 0.709465027 1.12002206
vt 0.716178 1.09573305
vt 0.709465027 1.12002206
vt 0.709465027 1.12002206
vt 0.716178 1.09573305
vt 0.722297013 1.09785199
vt 0.709465027 1.12002206
vt 0.722297013 1.09785199
vt 0.713714004 1.12155199
vt 0.713714004 1.12155199
vt 0.722297013 1.09785199
vt 0.728000998 1.10097301
vt 0.713714004 1.12155199
vt 0.728000998 1.10097301
vt 0.717297018 1.12434697
vt 0.717297018 1.12434697
vt 0.728000998 1.10097301
vt 0.733132005 1.10501206
vt 0.717297018 1.12434697
vt 0.733132005 1.10501206
vt 0.717297018 1.12434697
vt 0.717297018 1.12434697
vt 0.733132005 1.10501206
vt 0.737547994 1.10985601
vt 0.717297018 1.12434697
vt 0.737547994 1.10985601
vt 0.719869018 1.12813401
vt 0.719869018 1.12813401
vt 0.737547994 1.10985601
vt 0.741127014 1.11537099
vt 0.719869018 1.12813401
vt 0.741127014 1.11537099
vt 0.719869018 1.12813401
vt 0.719869018 1.12813401
vt 0.741127014 1.11537099
vt 0.743773997 1.12140703
vt 0.719869018 1.12813401
vt 0.743773997 1.12140703
vt 0.721176982 1.13254201
vt 0.721176982 1.13254201
vt 0.743773997 1.12140703
vt 0.745416999 1.12779999
vt 0.721176982 1.13254201
vt 0.745416999 1.12779999
vt 0.721176982 1.13254201
vt 0.721176982 1.13254201
vt 0.745416999 1.12779999
vt 0.746011019 1.134377
vt 0.721176982 1.13254201
vt 0.746011019 1.134377
vt 0.721091986 1.13714194
vt 0.721091986 1.13714194
vt 0.746011019 1.134377
vt 0.74553901 1.14096498
vt 0.721091986 1.13714194
vt 0.74553901 1.14096498
vt 0.721091986 1.13714194
vt 0.721091986 1.13714194
vt 0.74553901 1.14096498
vt 0.744013011 1.14737499
vt 0.721091986 1.13714194
vt 0.744013011 1.14737499
vt 0.719623029 1.14148104
vt 0.719623029 1.14148104
vt 0.744013011 1.14737499
vt 0.741477013 1.15343297
vt 0.719623029 1.14148104
vt 0.741477013 1.15343297
vt 0.719623029 1.14148104
vt 0.719623029 1.14148104
vt 0.741477013 1.15343297
vt 0.738000989 1.15897405
vt 0.719623029 1.14148104
vt 0.738000989 1.15897405
vt 0.716911972 1.145136
vt 0.716911972 1.145136
vt 0.738000989 1.15897405
vt 0.733677983 1.16384804
vt 0.716911972 1.145136
vt 0.733677983 1.16384804
vt 0.716911972 1.145136
vt 0.716911972 1.145136
vt 0.733677983 1.16384804
vt 0.728626013 1.16792297
vt 0.716911972 1.145136
vt 0.728626013 1.16792297
vt 0.71322602 1.14774799
vt 0.71322602 1.14774799
vt 0.728626013 1.16792297
vt 0.722980022 1.17108905
vt 0.71322602 1.14774799
vt 0.722980022 1.17108905
vt 0.71322602 1.14774799
vt 0.71322602 1.14774799
vt 0.722980022 1.17108905
vt 0.716894984 1.17325795
vt 0.71322602 1.14774799
vt 0.716894984 1.17325795
vt 0.708925009 1.14906204
vt 0.708925009 1.14906204
vt 0.716894984 1.17325795
vt 0.710539997 1.17436898
vt 0.708925009 1.14906204
vt 0.710539997 1.17436898
vt 0.708925009 1.14906204
vt 0.708925009 1.14906204
vt 0.710539997 1.17436898
vt 0.704088986 1.17439401
vt 0.708925009 1.14906204
vt 0.704088986 1.17439401
vt 0.704429984 1.14894795
vt 0.704429984 1.14894795
vt 0.704088986 1.17439401
vt 0.697718024 1.17333198
vt 0.704429984 1.14894795
vt 0.697718024 1.17333198
vt 0.704429984 1.14894795
vt 0.704429984 1.14894795
vt 0.697718024 1.17333198
vt 0.691597998 1.17121196
vt 0.704429984 1.14894795
vt 0.691597998 1.17121196
vt 0.700181007 1.14741695
vt 0.700181007 1.14741695
vt 0.691597998 1.17121196
vt 0.685895026 1.16809106
vt 0.700181007 1.14741695
vt 0.685895026 1.16809106
vt 0.69659698 1.14462304
vt 0.69659698 1.14462304
vt 0.685895026 1.16809106
vt 0.680763006 1.16405201
vt 0.456640989 1.23106802
vt 0.460990012 1.23592198
vt 0.440542996 1.25045598
vt -0.440542996 1.25045598
vt -0.460990012 1.23592198
vt -0.460990012 1.23592198
vt 0.440542996 1.25045598
vt 0.460990012 1.23592198
vt 0.443062991 1.25424898
vt 0.443062991 1.25424898
vt 0.460990012 1.23592198
vt 0.46449399 1.24144602
vt -0.443062991 1.25424898
vt -0.46449399 1.24144602
vt -0.443062991 1.25424898
vt 0.443062991 1.25424898
vt 0.46449399 1.24144602
vt 0.467058986 1.24749005
vt 0.443062991 1.25424898
vt 0.467058986 1.24749005
vt 0.444310009 1.25866199
vt 0.444310009 1.25866199
vt 0.467058986 1.24749005
vt 0.468614995 1.25388706
vt -0.444310009 1.25866199
vt -0.468614995 1.25388706
vt -0.444310009 1.25866199
vt 0.444310009 1.25866199
vt 0.468614995 1.25388706
vt 0.469119012 1.26046503
vt 0.444310009 1.25866199
vt 0.469119012 1.26046503
vt 0.444162995 1.26326001
vt 0.444162995 1.26326001
vt 0.469119012 1.26046503
vt 0.468557 1.26705205
vt -0.444162995 1.26326001
vt -0.468557 1.26705205
vt -0.444162995 1.26326001
vt 0.444162995 1.26326001
vt 0.468557 1.26705205
vt 0.466944009 1.273458
vt 0.444162995 1.26326001
vt 0.466944009 1.273458
vt 0.442633986 1.26759601
vt 0.442633986 1.26759601
vt 0.466944009 1.273458
vt 0.464325994 1.27950895
vt -0.442633986 1.26759601
vt -0.464325994 1.27950895
vt -0.442633986 1.26759601
vt 0.442633986 1.26759601
vt 0.464325994 1.27950895
vt 0.460774004 1.28504097
vt 0.442633986 1.26759601
vt 0.460774004 1.28504097
vt 0.439873993 1.27124405
vt 0.439873993 1.27124405
vt 0.460774004 1.28504097
vt 0.456384003 1.289904
vt -0.439873993 1.27124405
vt -0.456384003 1.289904
vt -0.439873993 1.27124405
vt 0.439873993 1.27124405
vt 0.456384003 1.289904
vt 0.451278001 1.29396605
vt 0.439873993 1.27124405
vt 0.451278001 1.29396605
vt 0.436152011 1.27384698
vt 0.436152011 1.27384698
vt 0.451278001 1.29396605
vt 0.445587993 1.29711699
vt -0.436152011 1.27384698
vt -0.445587993 1.29711699
vt -0.436152011 1.27384698
vt 0.436152011 1.27384698
vt 0.445587993 1.29711699
vt 0.439473003 1.29927003
vt 0.436152011 1.27384698
vt 0.439473003 1.29927003
vt 0.431832999 1.27514899
vt 0.431832999 1.27514899
vt 0.439473003 1.29927003
vt 0.433104008 1.30036497
vt -0.431832999 1.27514899
vt -0.433104008 1.30036497
vt -0.431832999 1.27514899
vt 0.431832999 1.27514899
vt 0.433104008 1.30036497
vt 0.426652998 1.30037296
vt 0.431832999 1.27514899
vt 0.426652998 1.30037296
vt 0.427340001 1.27502406
vt 0.427340001 1.27502406
vt 0.426652998 1.30037296
vt 0.420296013 1.29929495
vt -0.427340001 1.27502406
vt -0.420296013 1.29929495
vt -0.427340001 1.27502406
vt 0.427340001 1.27502406
vt 0.420296013 1.29929495
vt 0.414205015 1.29715896
vt 0.427340001 1.27502406
vt 0.414205015 1.29715896
vt 0.423112005 1.27348197
vt 0.423112005 1.27348197
vt 0.414205015 1.29715896
vt 0.408544987 1.29402399
vt 0.423112005 1.27348197
vt 0.408544987 1.29402399
vt 0.419566005 1.27067804
vt 0.419566005 1.27067804
vt 0.408544987 1.29402399
vt 0.403468013 1.28997195
vt -0.419566005 1.27067804
vt -0.403468013 1.28997195
vt -0.419566005 1.27067804
vt 0.419566005 1.27067804
vt 0.403468013 1.28997195
vt 0.39911899 1.28511703
vt 0.419566005 1.27067804
vt 0.39911899 1.28511703
vt 0.41704601 1.26688504
vt 0.41704601 1.26688504
vt 0.39911899 1.28511703
vt 0.395615011 1.27959299
vt -0.41704601 1.26688504
vt -0.395615011 1.27959299
vt -0.41704601 1.26688504
vt 0.41704601 1.26688504
vt 0.395615011 1.27959299
vt 0.393049985 1.27355003
vt 0.41704601 1.26688504
vt 0.393049985 1.27355003
vt 0.415798992 1.26247299
vt 0.415798992 1.26247299
vt 0.393049985 1.27355003
vt 0.391494989 1.26715195
vt -0.415798992 1.26247299
vt -0.391494989 1.26715195
vt -0.415798992 1.26247299
vt 0.415798992 1.26247299
vt 0.391494989 1.26715195
vt 0.390989989 1.26057398
vt 0.415798992 1.26247299
vt 0.390989989 1.26057398
vt 0.415946007 1.25787401
vt 0.415946007 1.25787401
vt 0.390989989 1.26057398
vt 0.391552001 1.25398803
vt -0.415946007 1.25787401
vt -0.391552001 1.25398803
vt -0.415946007 1.25787401
vt 0.415946007 1.25787401
vt 0.391552001 1.25398803
vt 0.393164992 1.24758101
vt 0.415946007 1.25787401
vt 0.393164992 1.24758101
vt 0.417474985 1.25353801
vt 0.417474985 1.25353801
vt 0.393164992 1.24758101
vt 0.395783007 1.24152994
vt -0.417474985 1.25353801
vt -0.395783007 1.24152994
vt -0.417474985 1.25353801
vt 0.417474985 1.25353801
vt 0.395783007 1.24152994
vt 0.39933601 1.23599803
vt 0.417474985 1.25353801
vt 0.39933601 1.23599803
vt 0.420235008 1.24988997
vt 0.420235008 1.24988997
vt 0.39933601 1.23599803
vt 0.403724998 1.23113501
vt -0.420235008 1.24988997
vt -0.403724998 1.23113501
vt -0.420235008 1.24988997
vt 0.420235008 1.24988997
vt 0.403724998 1.23113501
vt 0.408831 1.22707403
vt 0.420235008 1.24988997
vt 0.408831 1.22707403
vt 0.42395699 1.24728799
vt 0.42395699 1.24728799
vt 0.408831 1.22707403
vt 0.414521009 1.22392201
vt -0.42395699 1.24728799
vt -0.414521009 1.22392201
vt -0.42395699 1.24728799
vt 0.42395699 1.24728799
vt 0.414521009 1.22392201
vt 0.420635998 1.22176898
vt 0.42395699 1.24728799
vt 0.420635998 1.22176898
vt 0.428276002 1.24598503
vt 0.428276002 1.24598503
vt 0.420635998 1.22176898
vt 0.427004993 1.22067404
vt -0.428276002 1.24598503
vt -0.427004993 1.22067404
vt -0.428276002 1.24598503
vt 0.428276002 1.24598503
vt 0.427004993 1.22067404
vt 0.433456004 1.22066605
vt 0.428276002 1.24598503
vt 0.433456004 1.22066605
vt 0.432769001 1.24611104
vt 0.432769001 1.24611104
vt 0.433456004 1.22066605
vt 0.439812988 1.22174501
vt -0.432769001 1.24611104
vt -0.439812988 1.22174501
vt -0.432769001 1.24611104
vt 0.432769001 1.24611104
vt 0.439812988 1.22174501
vt 0.445903987 1.22388005
vt 0.432769001 1.24611104
vt 0.445903987 1.22388005
vt 0.436996996 1.24765205
vt 0.436996996 1.24765205
vt 0.445903987 1.22388005
vt 0.451564014 1.22701597
vt 0.436996996 1.24765205
vt 0.451564014 1.22701597
vt 0.440542996 1.25045598
vt 0.440542996 1.25045598
vt 0.451564014 1.22701597
vt 0.456640989 1.23106802
f 1/1 2/2 3/3
f 3/4 2/5 2/6
f 3/7 2/8 4/9
f 4/10 2/11 5/12
f 4/13 5/14 6/15
f 6/16 5/17 7/18
f 6/19 7/20 8/21
f 8/22 7/23 9/24
f 8/25 9/26 10/27
f 10/28 9/29 11/30
f 10/31 11/32 12/33
f 12/34 11/35 13/36
f 12/37 13/38 14/39
f 14/40 13/41 15/42
f 14/43 15/44 16/45
f 16/46 15/47 17/48
f 16/49 17/50 18/51
f 18/52 17/53 19/54
f 18/55 19/56 20/57
f 20/58 19/59 21/60
f 20/61 21/62 22/63
f 22/64 21/65 23/66
f 22/67 23/68 24/69
f 24/70 23/71 25/72
f 24/73 25/74 26/75
f 26/76 25/77 27/78
f 26/79 27/80 28/81
f 28/82 27/83 29/84
f 28/85 29/86 30/87
f 30/88 29/89 31/90
f 30/91 31/92 32/93
f 32/94 31/95 33/96
f 32/97 33/98 34/99
f 34/100 33/101 35/102
f 34/103 35/104 36/105
f 36/106 35/107 37/108
f 36/109 37/110 38/111
f 38/112 37/113 39/114
f 38/115 39/116 40/117
f 41/118 42/119 43/120
f 43/121 42/122 42/123
f 43/124 42/125 44/126
f 44/127 42/128 45/129
f 44/130 45/131 46/132
f 46/133 45/134 47/135
f 46/136 47/137 48/138
f 48/139 47/140 49/141
f 48/142 49/143 50/144
f 50/145 49/146 51/147
f 50/148 51/149 52/150
f 52/151 51/152 53/153
f 52/154 53/155 54/156
f 54/157 53/158 55/159
f 54/160 55/161 56/162
f 56/163 55/164 57/165
f 56/166 57/167 58/168
f 58/169 57/170 59/171
f 58/172 59/173 60/174
f 60/175 59/176 61/177
f 60/178 61/179 62/180
f 62/181 61/182 63/183
f 62/184 63/185 64/186
f 64/187 63/188 65/189
f 64/190 65/191 66/192
f 66/193 65/194 67/195
f 66/196 67/197 68/198
f 68/199 67/200 69/201
f 68/202 69/203 70/204
f 70/205 69/206 71/207
f 70/208 71/209 72/210
f 72/211 71/212 73/213
f 72/214 73/215 74/216
f 74/217 73/218 75/219
f 74/220 75/221 76/222
f 76/223 75/224 77/225
f 76/226 77/227 78/228
f 78/229 77/230 79/231
f 78/232 79/233 80/234
f 43/235 81/236 41/237
f 41/238 81/239 81/240
f 41/241 81/242 82/243
f 82/244 81/245 83/246
f 82/247 83/248 84/249
f 84/250 83/251 85/252
f 84/253 85/254 86/255
f 86/256 85/257 87/258
f 86/259 87/260 88/261
f 88/262 87/263 89/264
f 88/265 89/266 90/267
f 90/268 89/269 91/270
f 90/271 91/272 92/273
f 92/274 91/275 93/276
f 92/277 93/278 94/279
f 94/280 93/281 95/282
f 94/283 95/284 96/285
f 96/286 95/287 97/288
f 96/289 97/290 98/291
f 98/292 97/293 99/294
f 98/295 99/296 100/297
f 100/298 99/299 101/300
f 100/301 101/302 102/303
f 102/304 101/305 103/306
f 102/307 103/308 104/309
f 104/310 103/311 105/312
f 104/313 105/314 106/315
f 106/316 105/317 107/318
f 106/319 107/320 108/321
f 108/322 107/323 109/324
f 108/325 109/326 110/327
f 110/328 109/329 111/330
f 110/331 111/332 112/333
f 112/334 111/335 113/336
f 112/337 113/338 114/339
f 114/340 113/341 115/342
f 114/343 115/344 116/345
f 116/346 115/347 80/348
f 116/349 80/350 79/351
f 107/352 105/353 109/354
f 109/355 105/356 105/357
f 109/358 105/359 111/360
f 111/361 105/362 103/363
f 111/364 103/365 113/366
f 113/367 103/368 101/369
f 113/370 101/371 115/372
f 115/373 101/374 99/375
f 115/376 99/377 80/378
f 80/379 99/380 97/381
f 80/382 97/383 78/384
f 78/385 97/386 95/387
f 78/388 95/389 76/390
f 76/391 95/392 93/393
f 76/394 93/395 74/396
f 74/397 93/398 91/399
f 74/400 91/401 72/402
f 72/403 91/404 89/405
f 72/406 89/407 70/408
f 70/409 89/410 87/411
f 70/412 87/413 68/414
f 68/415 87/416 85/417
f 68/418 85/419 66/420
f 66/421 85/422 83/423
f 66/424 83/425 64/426
f 64/427 83/428 81/429
f 64/430 81/431 62/432
f 62/433 81/434 43/435
f 62/436 43/437 60/438
f 60/439 43/440 44/441
f 60/442 44/443 58/444
f 58/445 44/446 46/447
f 58/448 46/449 56/450
f 56/451 46/452 48/453
f 56/454 48/455 54/456
f 54/457 48/458 50/459
f 54/460 50/461 52/462
f 39/463 117/464 40/465
f 40/466 117/467 117/468
f 40/469 117/470 118/471
f 118/472 117/473 119/474
f 118/475 119/476 120/477
f 120/478 119/479 121/480
f 120/481 121/482 122/483
f 122/484 121/485 123/486
f 122/487 123/488 124/489
f 124/490 123/491 125/492
f 124/493 125/494 126/495
f 126/496 125/497 127/498
f 126/499 127/500 128/501
f 128/502 127/503 129/504
f 128/505 129/506 130/507
f 130/508 129/509 131/510
f 130/511 131/512 132/513
f 132/514 131/515 133/516
f 132/517 133/518 134/519
f 134/520 133/521 135/522
f 134/523 135/524 136/525
f 136/526 135/527 137/528
f 136/529 137/530 138/531
f 138/532 137/533 139/534
f 138/535 139/536 140/537
f 140/538 139/539 141/540
f 140/541 141/542 142/543
f 142/544 141/545 143/546
f 142/547 143/548 144/549
f 144/550 143/551 145/552
f 144/553 145/554 146/555
f 146/556 145/557 147/558
f 146/559 147/560 148/561
f 148/562 147/563 149/564
f 148/565 149/566 150/567
f 150/568 149/569 151/570
f 150/571 151/572 152/573
f 152/574 151/575 1/576
f 152/577 1/578 3/579
f 143/580 141/581 145/582
f 145/583 141/584 141/585
f 145/586 141/587 147/588
f 147/589 141/590 139/591
f 147/592 139/593 149/594
f 149/595 139/596 137/597
f 149/598 137/599 151/600
f 151/601 137/602 135/603
f 151/604 135/605 1/606
f 1/607 135/608 133/609
f 1/610 133/611 2/612
f 2/613 133/614 131/615
f 2/616 131/617 5/618
f 5/619 131/620 129/621
f 5/622 129/623 7/624
f 7/625 129/626 127/627
f 7/628 127/629 9/630
f 9/631 127/632 125/633
f 9/634 125/635 11/636
f 11/637 125/638 123/639
f 11/640 123/641 13/642
f 13/643 123/644 121/645
f 13/646 121/647 15/648
f 15/649 121/650 119/651
f 15/652 119/653 17/654
f 17/655 119/656 117/657
f 17/658 117/659 19/660
f 19/661 117/662 39/663
f 19/664 39/665 21/666
f 21/667 39/668 37/669
f 21/670 37/671 23/672
f 23/673 37/674 35/675
f 23/676 35/677 25/678
f 25/679 35/680 33/681
f 25/682 33/683 27/684
f 27/685 33/686 31/687
f 27/688 31/689 29/690
f 30/691 32/692 153/693
f 153/694 32/695 32/696
f 153/697 32/698 154/699
f 154/700 32/701 34/702
f 154/703 34/704 154/705
f 154/706 34/707 36/708
f 154/709 36/710 155/711
f 155/712 36/713 38/714
f 155/715 38/716 155/717
f 155/718 38/719 40/720
f 155/721 40/722 156/723
f 156/724 40/725 118/726
f 156/727 118/728 156/729
f 156/730 118/731 120/732
f 156/733 120/734 157/735
f 157/736 120/737 122/738
f 157/739 122/740 157/741
f 157/742 122/743 124/744
f 157/745 124/746 158/747
f 158/748 124/749 126/750
f 158/751 126/752 158/753
f 158/754 126/755 128/756
f 158/757 128/758 159/759
f 159/760 128/761 130/762
f 159/763 130/764 159/765
f 159/766 130/767 132/768
f 159/769 132/770 160/771
f 160/772 132/773 134/774
f 160/775 134/776 160/777
f 160/778 134/779 136/780
f 160/781 136/782 161/783
f 161/784 136/785 138/786
f 161/787 138/788 161/789
f 161/790 138/791 140/792
f 161/793 140/794 162/795
f 162/796 140/797 142/798
f 162/799 142/800 163/801
f 163/802 142/803 144/804
f 163/805 144/806 163/807
f 163/808 144/809 146/810
f 163/811 146/812 164/813
f 164/814 146/815 148/816
f 164/817 148/818 164/819
f 164/820 148/821 150/822
f 164/823 150/824 165/825
f 165/826 150/827 152/828
f 165/829 152/830 165/831
f 165/832 152/833 3/834
f 165/835 3/836 166/837
f 166/838 3/839 4/840
f 166/841 4/842 166/843
f 166/844 4/845 6/846
f 166/847 6/848 167/849
f 167/850 6/851 8/852
f 167/853 8/854 167/855
f 167/856 8/857 10/858
f 167/859 10/860 168/861
f 168/862 10/863 12/864
f 168/865 12/866 168/867
f 168/868 12/869 14/870
f 168/871 14/872 169/873
f 169/874 14/875 16/876
f 169/877 16/878 169/879
f 169/880 16/881 18/882
f 169/883 18/884 170/885
f 170/886 18/887 20/888
f 170/889 20/890 170/891
f 170/892 20/893 22/894
f 170/895 22/896 171/897
f 171/898 22/899 24/900
f 171/901 24/902 171/903
f 171/904 24/905 26/906
f 171/907 26/908 172/909
f 172/910 26/911 28/912
f 172/913 28/914 153/915
f 153/916 28/917 30/918
f 51/919 49/920 173/921
f 173/922 49/923 49/924
f 173/925 49/926 174/927
f 174/928 49/929 47/930
f 174/931 47/932 174/933
f 174/934 47/935 45/936
f 174/937 45/938 175/939
f 175/940 45/941 42/942
f 175/943 42/944 175/945
f 175/946 42/947 41/948
f 175/949 41/950 176/951
f 176/952 41/953 82/954
f 176/955 82/956 176/957
f 176/958 82/959 84/960
f 176/961 84/962 177/963
f 177/964 84/965 86/966
f 177/967 86/968 177/969
f 177/970 86/971 88/972
f 177/973 88/974 178/975
f 178/976 88/977 90/978
f 178/979 90/980 178/981
f 178/982 90/983 92/984
f 178/985 92/986 179/987
f 179/988 92/989 94/990
f 179/991 94/992 179/993
f 179/994 94/995 96/996
f 179/997 96/998 180/999
f 180/1000 96/1001 98/1002
f 180/1003 98/1004 180/1005
f 180/1006 98/1007 100/1008
f 180/1009 100/1010 181/1011
f 181/1012 100/1013 102/1014
f 181/1015 102/1016 181/1017
f 181/1018 102/1019 104/1020
f 181/1021 104/1022 182/1023
f 182/1024 104/1025 106/1026
f 182/1027 106/1028 183/1029
f 183/1030 106/1031 108/1032
f 183/1033 108/1034 183/1035
f 183/1036 108/1037 110/1038
f 183/1039 110/1040 184/1041
f 184/1042 110/1043 112/1044
f 184/1045 112/1046 184/1047
f 184/1048 112/1049 114/1050
f 184/1051 114/1052 185/1053
f 185/1054 114/1055 116/1056
f 185/1057 116/1058 185/1059
f 185/1060 116/1061 79/1062
f 185/1063 79/1064 186/1065
f 186/1066 79/1067 77/1068
f 186/1069 77/1070 186/1071
f 186/1072 77/1073 75/1074
f 186/1075 75/1076 187/1077
f 187/1078 75/1079 73/1080
f 187/1081 73/1082 187/1083
f 187/1084 73/1085 71/1086
f 187/1087 71/1088 188/1089
f 188/1090 71/1091 69/1092
f 188/1093 69/1094 188/1095
f 188/1096 69/1097 67/1098
f 188/1099 67/1100 189/1101
f 189/1102 67/1103 65/1104
f 189/1105 65/1106 189/1107
f 189/1108 65/1109 63/1110
f 189/1111 63/1112 190/1113
f 190/1114 63/1115 61/1116
f 190/1117 61/1118 190/1119
f 190/1120 61/1121 59/1122
f 190/1123 59/1124 191/1125
f 191/1126 59/1127 57/1128
f 191/1129 57/1130 191/1131
f 191/1132 57/1133 55/1134
f 191/1135 55/1136 192/1137
f 192/1138 55/1139 53/1140
f 192/1141 53/1142 173/1143
f 173/1144 53/1145 51/1146
