# Exported from USD for MuJoCo with source material subsets
v -11.3842587 -3.94356771 0.535693223
v -9.78405366 -3.94356819 0.53569358
v -11.3842587 -3.94432755 0.112800831
v -9.78405354 -3.94432803 0.112801069
v -9.78405414 -5.59136721 0.538654679
v -11.3842593 -5.59136625 0.538654322
v -9.78405402 -5.59212681 0.115762347
v -11.3842592 -5.59212633 0.11576187
vt 0.725085974 0.759967983
vt -0.729645014 0.759967983
vt 0.725085974 0.378293991
vt 0.725085974 0.378293991
vt -0.729645014 0.759967983
vt -0.729645014 0.378293991
vt 0.729645014 0.580340981
vt -0.725085974 0.580340981
vt 0.729645014 0.198667005
vt 0.729645014 0.198667005
vt -0.725085974 0.580340981
vt -0.725085974 0.198667005
f 1/1 2/2 3/3
f 3/4 2/5 4/6
f 5/7 6/8 7/9
f 7/10 6/11 8/12
