# Exported from USD for MuJoCo with source material subsets
v -16.3581532 -0.109734183 0.434891278
v -16.3746532 -0.10973454 0.434891278
v -16.3581532 -0.110141402 0.440057987
v -16.3746532 -0.110196476 0.440393323
v -16.3581532 -0.11135233 0.445096964
v -16.3746532 -0.111569171 0.44574129
v -16.3581532 -0.113337224 0.449883873
v -16.3746532 -0.1138143 0.450785572
v -16.3581532 -0.116046672 0.454300815
v -16.3746532 -0.116869097 0.455384726
v -16.3581532 -0.119413918 0.458238894
v -16.3746532 -0.120647912 0.459410304
v -16.3581532 -0.123355751 0.461601073
v -16.3746532 -0.125044947 0.462749535
v -16.3581532 -0.127775019 0.464304859
v -16.3746532 -0.129936581 0.46530872
v -16.3581532 -0.13256449 0.466283614
v -16.3746532 -0.135187572 0.467016751
v -16.3581532 -0.137587791 0.467487508
v -16.3856533 -0.135187572 0.467016751
v -16.3856533 -0.140198713 0.467793697
v -16.3581532 -0.142734175 0.467889303
v -16.3856533 -0.145269578 0.467793697
v -16.3581532 -0.147924905 0.467479402
v -16.3856533 -0.1502806 0.467016751
v -16.3746532 -0.1502806 0.467016751
v -16.3581532 -0.152957206 0.466266686
v -16.3746532 -0.155531173 0.465308899
v -16.3581532 -0.157737678 0.464282149
v -16.3746532 -0.160423582 0.462749535
v -16.3581532 -0.162148779 0.461574728
v -16.3746532 -0.164820617 0.459410304
v -16.3581532 -0.16608203 0.458211178
v -16.3746532 -0.168599492 0.455384726
v -16.3581532 -0.169440692 0.454274351
v -16.3746532 -0.171654289 0.450785452
v -16.3581532 -0.17214257 0.449861104
v -16.3746532 -0.173899477 0.445741171
v -16.3581532 -0.174121325 0.445080096
v -16.3746532 -0.175272172 0.440393204
v -16.3581532 -0.175328081 0.440052504
v -16.3746532 -0.175734108 0.434891278
v -16.3581532 -0.175734227 0.434891278
v -16.3581532 -0.175326889 0.429724509
v -16.3746532 -0.175284033 0.429459626
v -16.3581532 -0.174115961 0.424685473
v -16.3746532 -0.173946088 0.42417621
v -16.3581532 -0.172131126 0.419898624
v -16.3746532 -0.17175669 0.419184977
v -16.3581532 -0.169421618 0.415481741
v -16.3746532 -0.168775623 0.414622242
v -16.3581532 -0.166054373 0.411543602
v -16.3746532 -0.165084308 0.410612339
v -16.3581532 -0.162112539 0.408181304
v -16.3746532 -0.160783296 0.407264823
v -16.3581532 -0.157693332 0.405477578
v -16.3746532 -0.155989831 0.404670829
v -16.3581532 -0.1529038 0.403498823
v -16.3746532 -0.150834923 0.402901167
v -16.3581532 -0.1478805 0.402294988
v -16.3746532 -0.145459121 0.402004117
v -16.3581532 -0.142734175 0.401893252
v -16.3746532 -0.140008812 0.402004177
v -16.3581532 -0.137543385 0.402303154
v -16.3746532 -0.134633069 0.402901286
v -16.3581532 -0.132511085 0.40351581
v -16.3746532 -0.129478102 0.404671067
v -16.3581532 -0.127730673 0.405500287
v -16.3746532 -0.124684875 0.407265061
v -16.3581532 -0.123319512 0.408207709
v -16.3746532 -0.120383924 0.410612637
v -16.3581532 -0.119386321 0.411571318
v -16.3746532 -0.116692727 0.41462248
v -16.3581532 -0.116027599 0.415508086
v -16.3746532 -0.11371172 0.419185216
v -16.3581532 -0.113325661 0.419921393
v -16.3746532 -0.111522441 0.424176568
v -16.3581532 -0.111346965 0.4247024
v -16.3746532 -0.110184913 0.429454977
v -16.3581532 -0.11014021 0.429729992
vt 0.392174989 -0.676449001
vt 0.392174989 -0.691448987
vt 0.396872014 -0.676449001
vt 0.396872014 -0.676449001
vt 0.392174989 -0.691448987
vt 0.397177011 -0.691448987
vt 0.396872014 -0.676449001
vt 0.397177011 -0.691448987
vt 0.401452988 -0.676449001
vt 0.401452988 -0.676449001
vt 0.397177011 -0.691448987
vt 0.402038008 -0.691448987
vt 0.401452988 -0.676449001
vt 0.402038008 -0.691448987
vt 0.405804008 -0.676449001
vt 0.405804008 -0.676449001
vt 0.402038008 -0.691448987
vt 0.406623989 -0.691448987
vt 0.405804008 -0.676449001
vt 0.406623989 -0.691448987
vt 0.40981999 -0.676449001
vt 0.40981999 -0.676449001
vt 0.406623989 -0.691448987
vt 0.410804987 -0.691448987
vt 0.40981999 -0.676449001
vt 0.410804987 -0.691448987
vt 0.413399994 -0.676449001
vt 0.413399994 -0.676449001
vt 0.410804987 -0.691448987
vt 0.41446501 -0.691448987
vt 0.0446659997 -0.676449001
vt 0.0457880013 -0.691448987
vt 0.0482489988 -0.676449001
vt 0.0482489988 -0.676449001
vt 0.0457880013 -0.691448987
vt 0.0497849993 -0.691448987
vt 0.0482489988 -0.676449001
vt 0.0497849993 -0.691448987
vt 0.0522670001 -0.676449001
vt 0.0522670001 -0.676449001
vt 0.0497849993 -0.691448987
vt 0.0542320013 -0.691448987
vt 0.0522670001 -0.676449001
vt 0.0542320013 -0.691448987
vt 0.0566210002 -0.676449001
vt 0.0566210002 -0.676449001
vt 0.0542320013 -0.691448987
vt 0.0590060018 -0.691448987
vt 0.0566210002 -0.676449001
vt 0.0590060018 -0.691448987
vt 0.0611880012 -0.676449001
vt 0.0611880012 -0.676449001
vt 0.0590060018 -0.691448987
vt 0.0590060018 -0.701448977
vt -0.421806991 -0.676449001
vt -0.421380013 -0.701448977
vt -0.421806991 -0.676449001
vt 0.0611880012 -0.676449001
vt 0.0590060018 -0.701448977
vt 0.0635609999 -0.701448977
vt 0.0611880012 -0.676449001
vt 0.0635609999 -0.701448977
vt 0.065866001 -0.676449001
vt 0.065866001 -0.676449001
vt 0.0635609999 -0.701448977
vt 0.068171002 -0.701448977
vt 0.065866001 -0.676449001
vt 0.068171002 -0.701448977
vt 0.0705849975 -0.676449001
vt 0.0705849975 -0.676449001
vt 0.068171002 -0.701448977
vt 0.0727270022 -0.701448977
vt -0.421799988 -0.676449001
vt -0.421380013 -0.701448977
vt -0.421799988 -0.676449001
vt 0.0705849975 -0.676449001
vt 0.0727270022 -0.701448977
vt 0.0727270022 -0.691448987
vt 0.0705849975 -0.676449001
vt 0.0727270022 -0.691448987
vt 0.0751599967 -0.676449001
vt 0.0751599967 -0.676449001
vt 0.0727270022 -0.691448987
vt 0.0775000006 -0.691448987
vt 0.0751599967 -0.676449001
vt 0.0775000006 -0.691448987
vt 0.0795060024 -0.676449001
vt 0.0795060024 -0.676449001
vt 0.0775000006 -0.691448987
vt 0.0819469988 -0.691448987
vt 0.0795060024 -0.676449001
vt 0.0819469988 -0.691448987
vt 0.0835160017 -0.676449001
vt 0.0835160017 -0.676449001
vt 0.0819469988 -0.691448987
vt 0.0859450027 -0.691448987
vt 0.0835160017 -0.676449001
vt 0.0859450027 -0.691448987
vt 0.0870909989 -0.676449001
vt -0.41337499 -0.676449001
vt -0.41446501 -0.691448987
vt -0.410804987 -0.691448987
vt -0.41337499 -0.676449001
vt -0.410804987 -0.691448987
vt -0.409796 -0.676449001
vt -0.409796 -0.676449001
vt -0.410804987 -0.691448987
vt -0.406623989 -0.691448987
vt -0.409796 -0.676449001
vt -0.406623989 -0.691448987
vt -0.405784011 -0.676449001
vt -0.405784011 -0.676449001
vt -0.406623989 -0.691448987
vt -0.402038008 -0.691448987
vt -0.405784011 -0.676449001
vt -0.402038008 -0.691448987
vt -0.401437014 -0.676449001
vt -0.401437014 -0.676449001
vt -0.402038008 -0.691448987
vt -0.397175997 -0.691448987
vt -0.401437014 -0.676449001
vt -0.397175997 -0.691448987
vt -0.396867007 -0.676449001
vt -0.396867007 -0.676449001
vt -0.397175997 -0.691448987
vt -0.392174989 -0.691448987
vt -0.396867007 -0.676449001
vt -0.392174989 -0.691448987
vt -0.392174989 -0.676449001
vt -0.392174989 -0.676449001
vt -0.392174989 -0.691448987
vt -0.38747701 -0.676449001
vt -0.38747701 -0.676449001
vt -0.392174989 -0.691448987
vt -0.387237012 -0.691448987
vt -0.38747701 -0.676449001
vt -0.387237012 -0.691448987
vt -0.38289699 -0.676449001
vt -0.38289699 -0.676449001
vt -0.387237012 -0.691448987
vt -0.382434011 -0.691448987
vt -0.38289699 -0.676449001
vt -0.382434011 -0.691448987
vt -0.378544986 -0.676449001
vt -0.378544986 -0.676449001
vt -0.382434011 -0.691448987
vt -0.377896011 -0.691448987
vt -0.378544986 -0.676449001
vt -0.377896011 -0.691448987
vt -0.374529988 -0.676449001
vt -0.374529988 -0.676449001
vt -0.377896011 -0.691448987
vt -0.373748004 -0.691448987
vt -0.374529988 -0.676449001
vt -0.373748004 -0.691448987
vt -0.370949 -0.676449001
vt -0.370949 -0.676449001
vt -0.373748004 -0.691448987
vt -0.370103002 -0.691448987
vt -0.0870660022 -0.676449001
vt -0.0861840025 -0.691448987
vt -0.0834830031 -0.676449001
vt -0.0834830031 -0.676449001
vt -0.0861840025 -0.691448987
vt -0.0822739974 -0.691448987
vt -0.0834830031 -0.676449001
vt -0.0822739974 -0.691448987
vt -0.0794650018 -0.676449001
vt -0.0794650018 -0.676449001
vt -0.0822739974 -0.691448987
vt -0.0779170021 -0.691448987
vt -0.0794650018 -0.676449001
vt -0.0779170021 -0.691448987
vt -0.0751110017 -0.676449001
vt -0.0751110017 -0.676449001
vt -0.0779170021 -0.691448987
vt -0.0732299984 -0.691448987
vt -0.0751110017 -0.676449001
vt -0.0732299984 -0.691448987
vt -0.0705450028 -0.676449001
vt -0.0705450028 -0.676449001
vt -0.0732299984 -0.691448987
vt -0.0683429986 -0.691448987
vt -0.0705450028 -0.676449001
vt -0.0683429986 -0.691448987
vt -0.065866001 -0.676449001
vt -0.065866001 -0.676449001
vt -0.0683429986 -0.691448987
vt -0.0633890033 -0.691448987
vt -0.065866001 -0.676449001
vt -0.0633890033 -0.691448987
vt -0.0611470006 -0.676449001
vt -0.0611470006 -0.676449001
vt -0.0633890033 -0.691448987
vt -0.0585010014 -0.691448987
vt -0.0611470006 -0.676449001
vt -0.0585010014 -0.691448987
vt -0.0565720014 -0.676449001
vt -0.0565720014 -0.676449001
vt -0.0585010014 -0.691448987
vt -0.0538149998 -0.691448987
vt -0.0565720014 -0.676449001
vt -0.0538149998 -0.691448987
vt -0.0522270016 -0.676449001
vt -0.0522270016 -0.676449001
vt -0.0538149998 -0.691448987
vt -0.0494580008 -0.691448987
vt -0.0522270016 -0.676449001
vt -0.0494580008 -0.691448987
vt -0.0482160002 -0.676449001
vt -0.0482160002 -0.676449001
vt -0.0494580008 -0.691448987
vt -0.0455479994 -0.691448987
vt -0.0482160002 -0.676449001
vt -0.0455479994 -0.691448987
vt -0.0446409993 -0.676449001
vt 0.370974988 -0.676449001
vt 0.370103002 -0.691448987
vt 0.373748004 -0.691448987
vt 0.370974988 -0.676449001
vt 0.373748004 -0.691448987
vt 0.374554008 -0.676449001
vt 0.374554008 -0.676449001
vt 0.373748004 -0.691448987
vt 0.377896011 -0.691448987
vt 0.374554008 -0.676449001
vt 0.377896011 -0.691448987
vt 0.378565997 -0.676449001
vt 0.378565997 -0.676449001
vt 0.377896011 -0.691448987
vt 0.382434011 -0.691448987
vt 0.378565997 -0.676449001
vt 0.382434011 -0.691448987
vt 0.38291201 -0.676449001
vt 0.38291201 -0.676449001
vt 0.382434011 -0.691448987
vt 0.387232989 -0.691448987
vt 0.38291201 -0.676449001
vt 0.387232989 -0.691448987
vt 0.387483001 -0.676449001
vt 0.387483001 -0.676449001
vt 0.387232989 -0.691448987
vt 0.392174989 -0.691448987
vt 0.387483001 -0.676449001
vt 0.392174989 -0.691448987
vt 0.392174989 -0.676449001
f 1/1 2/2 3/3
f 3/4 2/5 4/6
f 3/7 4/8 5/9
f 5/10 4/11 6/12
f 5/13 6/14 7/15
f 7/16 6/17 8/18
f 7/19 8/20 9/21
f 9/22 8/23 10/24
f 9/25 10/26 11/27
f 11/28 10/29 12/30
f 11/31 12/32 13/33
f 13/34 12/35 14/36
f 13/37 14/38 15/39
f 15/40 14/41 16/42
f 15/43 16/44 17/45
f 17/46 16/47 18/48
f 17/49 18/50 19/51
f 19/52 18/53 20/54
f 19/55 20/56 19/57
f 19/58 20/59 21/60
f 19/61 21/62 22/63
f 22/64 21/65 23/66
f 22/67 23/68 24/69
f 24/70 23/71 25/72
f 24/73 25/74 24/75
f 24/76 25/77 26/78
f 24/79 26/80 27/81
f 27/82 26/83 28/84
f 27/85 28/86 29/87
f 29/88 28/89 30/90
f 29/91 30/92 31/93
f 31/94 30/95 32/96
f 31/97 32/98 33/99
f 33/100 32/101 34/102
f 33/103 34/104 35/105
f 35/106 34/107 36/108
f 35/109 36/110 37/111
f 37/112 36/113 38/114
f 37/115 38/116 39/117
f 39/118 38/119 40/120
f 39/121 40/122 41/123
f 41/124 40/125 42/126
f 41/127 42/128 43/129
f 43/130 42/131 44/132
f 44/133 42/134 45/135
f 44/136 45/137 46/138
f 46/139 45/140 47/141
f 46/142 47/143 48/144
f 48/145 47/146 49/147
f 48/148 49/149 50/150
f 50/151 49/152 51/153
f 50/154 51/155 52/156
f 52/157 51/158 53/159
f 52/160 53/161 54/162
f 54/163 53/164 55/165
f 54/166 55/167 56/168
f 56/169 55/170 57/171
f 56/172 57/173 58/174
f 58/175 57/176 59/177
f 58/178 59/179 60/180
f 60/181 59/182 61/183
f 60/184 61/185 62/186
f 62/187 61/188 63/189
f 62/190 63/191 64/192
f 64/193 63/194 65/195
f 64/196 65/197 66/198
f 66/199 65/200 67/201
f 66/202 67/203 68/204
f 68/205 67/206 69/207
f 68/208 69/209 70/210
f 70/211 69/212 71/213
f 70/214 71/215 72/216
f 72/217 71/218 73/219
f 72/220 73/221 74/222
f 74/223 73/224 75/225
f 74/226 75/227 76/228
f 76/229 75/230 77/231
f 76/232 77/233 78/234
f 78/235 77/236 79/237
f 78/238 79/239 80/240
f 80/241 79/242 2/243
f 80/244 2/245 1/246
