# Exported from USD for MuJoCo with source material subsets
v 10.9415856 0.46184291 1.54000037
v 10.9415856 0.46184291 1.69000023
v 10.9077242 0.463665977 1.54000037
v 10.8319244 2.03784193 0.815000606
v 11.1854331 2.03784169 0.815000725
v 11.1854331 2.03510608 0.815603745
v 10.8319244 2.04057826 0.815603685
v 10.8319244 2.03784193 0.855000627
v 11.1854331 2.03784169 0.855000687
v 11.1854331 2.03510608 0.855603766
v 10.8319244 2.04057826 0.855603707
v 10.975447 0.463665977 1.69000023
v 10.7466207 0.581842914 1.69000023
v 10.7890546 0.581842914 1.76000024
v 10.7982534 0.613946691 1.76000024
v 10.6304245 2.03784217 0.815000546
v 10.6304245 2.0405785 0.815603626
v 10.7864245 2.03784193 0.815000546
v 10.7583785 0.540807858 1.69000023
v 10.7864245 2.03784193 0.835000527
v 10.7864245 2.04057826 0.834397447
v 10.6304245 2.03784217 0.835000527
v 10.6304245 2.03784217 0.855000567
v 10.6304245 2.0405785 0.855603647
v 10.7864244 2.03784193 0.855000567
v 10.7864244 2.03784193 0.875000548
v 10.7864244 2.04057826 0.874397469
v 10.6304245 2.03784217 0.875000548
v 10.9754409 0.463687197 1.69000023
v 10.9077303 0.463687197 1.69000023
v 10.9090859 1.35784258 1.54000037
v 10.9260166 1.35875382 1.69000023
v 10.9090859 1.35784258 1.69000023
v 10.8921552 1.35875382 1.54000037
v 10.8319244 2.13046087 0.835000587
v 11.1854331 2.13046064 0.835000706
v 10.8319244 2.13507952 0.825000596
v 11.1854331 2.13507952 0.825000715
v 10.9260166 1.35875382 1.54000037
v 10.9578359 1.36588086 1.54000037
v 10.9578358 1.36588086 1.69000023
v 10.9837752 1.37927522 1.54000037
v 10.9837752 1.37927522 1.69000023
v 11.000706 1.39732112 1.54000037
v 11.0007059 1.39732112 1.69000023
v 11.0065859 1.41784228 1.54000037
v 11.0065859 1.41784228 1.69000023
v 11.000706 1.43836345 1.54000037
v 11.000706 1.43836345 1.69000023
v 10.9837753 1.45640959 1.54000037
v 10.9837752 1.45640959 1.69000023
v 10.9578359 1.46980394 1.54000037
v 10.9578359 1.46980394 1.69000023
v 10.9260167 1.47693099 1.54000037
v 10.9260166 1.47693099 1.69000023
v 10.8921553 1.47693099 1.54000037
v 10.8921552 1.47693099 1.69000023
v 10.860336 1.46980394 1.54000037
v 10.8603359 1.46980394 1.69000023
v 10.8343967 1.45640959 1.54000037
v 10.8343966 1.45640959 1.69000023
v 10.817466 1.43836345 1.54000037
v 10.817466 1.43836345 1.69000023
v 10.8115859 1.41784252 1.54000037
v 10.8115859 1.41784252 1.69000023
v 10.817466 1.39732112 1.54000037
v 10.8174659 1.39732112 1.69000023
v 10.8343967 1.37927522 1.54000037
v 10.8343966 1.37927522 1.69000023
v 10.8603359 1.36588086 1.54000037
v 10.8603359 1.36588086 1.69000023
v 10.8921552 1.35875382 1.69000023
v 10.6304245 2.13046087 0.815000546
v 10.6304245 2.13507952 0.825000536
v 10.7864245 2.13046087 0.815000546
v 10.7864245 2.13507952 0.825000536
v 10.6304245 2.12122311 0.815000546
v 10.7864245 2.12122311 0.815000546
v 10.6304245 2.11660446 0.825000536
v 10.7864245 2.11660446 0.825000536
v 10.6304245 2.12122311 0.835000527
v 10.7864245 2.12122311 0.835000527
v 10.7864245 2.13046087 0.835000527
v 10.6304245 2.13046087 0.835000527
v 11.1854331 2.13046064 0.815000725
v 10.8319245 2.13046087 0.815000606
v 11.1854331 2.12122311 0.815000725
v 10.8319245 2.12122311 0.815000606
v 11.039068 0.477938548 1.69000023
v 11.0390855 0.477919832 1.69000023
v 11.0909374 0.504722253 1.69000023
v 11.0909642 0.504708186 1.69000023
v 11.1247927 0.540807739 1.69000023
v 11.1248256 0.540800348 1.69000023
v 11.1365856 0.581842795 1.69000023
v 11.1365505 0.581842795 1.69000023
v 11.1248256 0.622885123 1.69000023
v 11.1247927 0.622877851 1.69000023
v 11.0909642 0.658977166 1.69000023
v 11.0909374 0.658963457 1.69000023
v 11.0390855 0.685765878 1.69000023
v 11.0390681 0.685747042 1.69000023
v 10.9754471 0.700019852 1.69000023
v 10.9754409 0.699998513 1.69000023
v 10.9077243 0.700019852 1.69000023
v 10.9077304 0.699998513 1.69000023
v 10.8440857 0.685765878 1.69000023
v 10.8441032 0.685747162 1.69000023
v 10.7922339 0.658963457 1.69000023
v 10.792207 0.658977285 1.69000023
v 10.7583786 0.622877851 1.69000023
v 10.7583457 0.622885242 1.69000023
v 10.7465857 0.581842914 1.69000023
v 10.7583456 0.540800348 1.69000023
v 10.7922338 0.504722253 1.69000023
v 10.792207 0.504708424 1.69000023
v 10.8441032 0.477938548 1.69000023
v 10.8440856 0.477919951 1.69000023
v 10.9077242 0.463665977 1.69000023
v 11.1854331 2.11660422 0.825000715
v 10.8319244 2.11660446 0.825000596
v 10.8319244 2.12122311 0.835000587
v 11.1854331 2.12122311 0.835000706
v 11.1854331 2.04057826 0.855603766
v 10.8319244 2.04298438 0.857340169
v 11.1854331 2.04298438 0.857340229
v 10.8319244 2.04477014 0.860000622
v 11.1854331 2.0447699 0.860000682
v 10.8319244 2.04572047 0.863264155
v 11.1854331 2.04572023 0.863264215
v 10.8319244 2.04572047 0.86673708
v 11.1854331 2.04572023 0.86673708
v 10.8319244 2.04477014 0.870000613
v 11.1854331 2.0447699 0.870000672
v 10.8319244 2.04298438 0.872661126
v 11.1854331 2.04298438 0.872661126
v 10.8319244 2.04057826 0.874397528
v 11.1854331 2.04057826 0.874397588
v 10.8319244 2.03784193 0.875000608
v 11.1854331 2.03784169 0.875000727
v 10.8319244 2.03510608 0.874397528
v 11.1854331 2.03510608 0.874397588
v 10.8319244 2.03269972 0.872661126
v 11.1854331 2.03269972 0.872661126
v 10.8319244 2.03091373 0.870000613
v 11.1854331 2.03091349 0.870000672
v 10.8319244 2.02996363 0.86673708
v 11.1854331 2.02996339 0.86673708
v 10.8319244 2.02996363 0.863264155
v 11.1854331 2.02996339 0.863264215
v 10.8319244 2.03091373 0.860000622
v 11.1854331 2.03091349 0.860000682
v 10.8319244 2.03269972 0.857340169
v 11.1854331 2.03269972 0.857340229
v 10.8319244 2.03510608 0.855603707
v 10.7982534 0.549739137 1.76000024
v 10.8247401 0.521507636 1.76000024
v 10.8653201 0.500553146 1.76000024
v 10.9150988 0.48940374 1.76000024
v 10.9680723 0.48940374 1.76000024
v 11.017851 0.500553146 1.76000024
v 11.0584311 0.521507397 1.76000024
v 11.0849178 0.549739018 1.76000024
v 11.0941165 0.581842795 1.76000024
v 11.0849178 0.613946453 1.76000024
v 11.0584311 0.642178193 1.76000024
v 11.0178511 0.663132444 1.76000024
v 10.9680723 0.67428197 1.76000024
v 10.9150988 0.67428197 1.76000024
v 10.8653202 0.663132444 1.76000024
v 10.8247401 0.642178193 1.76000024
v 10.6304245 2.0405785 0.834397447
v 10.7864245 2.04298438 0.832660985
v 10.6304245 2.04298438 0.832660985
v 10.7864245 2.04477014 0.830000532
v 10.6304245 2.04477061 0.830000532
v 10.7864245 2.04572047 0.826737058
v 10.6304245 2.04572071 0.826737058
v 10.7864245 2.04572047 0.823264074
v 10.6304245 2.04572071 0.823264074
v 10.7864245 2.04477014 0.820000541
v 10.6304245 2.04477061 0.820000541
v 10.7864245 2.04298438 0.817340088
v 10.6304245 2.04298438 0.817340088
v 10.7864245 2.04057826 0.815603626
v 11.1854331 2.04057826 0.815603745
v 10.8319244 2.04298438 0.817340147
v 11.1854331 2.04298438 0.817340207
v 10.8319244 2.04477014 0.820000601
v 11.1854331 2.0447699 0.82000072
v 10.8319244 2.04572047 0.823264134
v 11.1854331 2.04572023 0.823264194
v 10.8319244 2.04572047 0.826737118
v 11.1854331 2.04572023 0.826737177
v 10.8319244 2.04477014 0.830000591
v 11.1854331 2.0447699 0.83000071
v 10.8319244 2.04298438 0.832661104
v 11.1854331 2.04298438 0.832661104
v 10.8319244 2.04057826 0.834397507
v 11.1854331 2.04057826 0.834397626
v 10.8319244 2.03784193 0.835000587
v 11.1854331 2.03784169 0.835000706
v 10.8319244 2.03510608 0.834397507
v 11.1854331 2.03510608 0.834397626
v 10.8319244 2.03269972 0.832661104
v 11.1854331 2.03269972 0.832661104
v 10.8319244 2.03091373 0.830000591
v 11.1854331 2.03091349 0.83000071
v 10.8319244 2.02996363 0.826737118
v 11.1854331 2.02996339 0.826737177
v 10.8319244 2.02996363 0.823264134
v 11.1854331 2.02996339 0.823264194
v 10.8319244 2.03091373 0.820000601
v 11.1854331 2.03091349 0.82000072
v 10.8319244 2.03269972 0.817340147
v 11.1854331 2.03269972 0.817340207
v 10.8319244 2.03510608 0.815603685
v 10.6304245 2.03510608 0.834397447
v 10.7864245 2.03510608 0.834397447
v 10.6304245 2.03269972 0.832660985
v 10.7864245 2.03269972 0.832660985
v 10.6304245 2.0309142 0.830000532
v 10.7864245 2.03091373 0.830000532
v 10.6304245 2.02996387 0.826737058
v 10.7864245 2.02996363 0.826737058
v 10.6304245 2.02996387 0.823264074
v 10.7864245 2.02996363 0.823264074
v 10.6304245 2.0309142 0.820000541
v 10.7864245 2.03091373 0.820000541
v 10.6304245 2.03269972 0.817340088
v 10.7864245 2.03269972 0.817340088
v 10.6304245 2.03510608 0.815603626
v 10.7864245 2.03510608 0.815603626
v 10.6304245 2.0405785 0.874397469
v 10.7864244 2.04298438 0.872661006
v 10.6304245 2.04298438 0.872661006
v 10.7864244 2.04477014 0.870000553
v 10.6304245 2.04477061 0.870000553
v 10.7864244 2.04572047 0.86673702
v 10.6304245 2.04572071 0.86673702
v 10.7864244 2.04572047 0.863264096
v 10.6304245 2.04572071 0.863264096
v 10.7864244 2.04477014 0.860000563
v 10.6304245 2.04477061 0.860000563
v 10.7864244 2.04298438 0.857340109
v 10.6304245 2.04298438 0.857340109
v 10.7864244 2.04057826 0.855603647
v 10.7864244 2.03510608 0.855603647
v 10.6304245 2.03510608 0.855603647
v 10.7864244 2.03269972 0.857340109
v 10.6304245 2.03269972 0.857340109
v 10.7864244 2.03091373 0.860000563
v 10.6304245 2.0309142 0.860000563
v 10.7864244 2.02996363 0.863264096
v 10.6304245 2.02996387 0.863264096
v 10.7864244 2.02996363 0.86673702
v 10.6304245 2.02996387 0.86673702
v 10.7864244 2.03091373 0.870000553
v 10.6304245 2.0309142 0.870000553
v 10.7864244 2.03269972 0.872661006
v 10.6304245 2.03269972 0.872661006
v 10.7864244 2.03510608 0.874397469
v 10.6304245 2.03510608 0.874397469
v 10.975447 0.463665977 1.54000037
v 11.0390855 0.477919832 1.54000037
v 11.0909642 0.504708186 1.54000037
v 11.1248256 0.540800348 1.54000037
v 11.1365856 0.581842795 1.54000037
v 11.1248257 0.622885123 1.54000037
v 11.0909643 0.658977166 1.54000037
v 11.0390856 0.685765878 1.54000037
v 10.9754471 0.700019852 1.54000037
v 10.9077243 0.700019852 1.54000037
v 10.8440857 0.685765878 1.54000037
v 10.7922071 0.658977285 1.54000037
v 10.7583457 0.622885242 1.54000037
v 10.7465858 0.581842914 1.54000037
v 10.7583457 0.540800348 1.54000037
v 10.792207 0.504708424 1.54000037
v 10.8440857 0.477919951 1.54000037
v 10.9415856 0.581842795 1.76000024
v 10.9090859 1.41784228 1.69000023
v 10.8319236 -0.583420411 0.815603685
v 11.1854323 -0.586156741 0.815000725
v 10.8319236 -0.586156621 0.815000606
v 11.1854323 -0.588892832 0.815603745
v 11.1854323 -0.58342053 0.815603745
v 10.8319236 -0.58101429 0.817340147
v 11.1854323 -0.581014409 0.817340207
v 10.8319236 -0.579228505 0.820000601
v 11.1854323 -0.579228654 0.82000072
v 10.8319236 -0.578278199 0.823264134
v 11.1854323 -0.578278318 0.823264194
v 10.8319236 -0.578278199 0.826737118
v 11.1854323 -0.578278318 0.826737177
v 10.8319236 -0.579228505 0.830000591
v 11.1854323 -0.579228654 0.83000071
v 10.8319236 -0.58101429 0.832661104
v 11.1854323 -0.581014409 0.832661104
v 10.8319236 -0.583420411 0.834397507
v 11.1854323 -0.58342053 0.834397626
v 10.8319236 -0.586156621 0.835000587
v 11.1854323 -0.586156741 0.835000706
v 10.8319236 -0.588892713 0.834397507
v 11.1854323 -0.588892832 0.834397626
v 10.8319236 -0.591298953 0.832661104
v 11.1854323 -0.591299072 0.832661104
v 10.8319236 -0.593084827 0.830000591
v 11.1854323 -0.593084946 0.83000071
v 10.8319236 -0.594035044 0.826737118
v 11.1854323 -0.594035163 0.826737177
v 10.8319236 -0.594035044 0.823264134
v 11.1854323 -0.594035163 0.823264194
v 10.8319236 -0.593084827 0.820000601
v 11.1854323 -0.593084946 0.82000072
v 10.8319236 -0.591298953 0.817340147
v 11.1854323 -0.591299072 0.817340207
v 10.8319236 -0.588892713 0.815603685
v 10.6304237 -0.586156502 0.815000546
v 10.6304237 -0.583420291 0.815603626
v 10.7864236 -0.586156621 0.815000546
v 10.7864236 -0.586156621 0.835000527
v 10.7864236 -0.583420411 0.834397447
v 10.6304237 -0.586156502 0.835000527
v 10.6304237 -0.588892594 0.834397447
v 10.7864236 -0.588892713 0.834397447
v 10.6304237 -0.591298833 0.832660985
v 10.7864236 -0.591298953 0.832660985
v 10.6304237 -0.593084708 0.830000532
v 10.7864236 -0.593084827 0.830000532
v 10.6304237 -0.594034895 0.826737058
v 10.7864236 -0.594035044 0.826737058
v 10.6304237 -0.594034895 0.823264074
v 10.7864236 -0.594035044 0.823264074
v 10.6304237 -0.593084708 0.820000541
v 10.7864236 -0.593084827 0.820000541
v 10.6304237 -0.591298833 0.817340088
v 10.7864236 -0.591298953 0.817340088
v 10.6304237 -0.588892594 0.815603626
v 10.7864236 -0.588892713 0.815603626
v 10.6304237 -0.583420291 0.834397447
v 10.7864236 -0.58101429 0.832660985
v 10.6304237 -0.581014171 0.832660985
v 10.7864236 -0.579228505 0.830000532
v 10.6304237 -0.579228386 0.830000532
v 10.7864236 -0.578278199 0.826737058
v 10.6304237 -0.578278079 0.826737058
v 10.7864236 -0.578278199 0.823264074
v 10.6304237 -0.578278079 0.823264074
v 10.7864236 -0.579228505 0.820000541
v 10.6304237 -0.579228386 0.820000541
v 10.7864236 -0.58101429 0.817340088
v 10.6304237 -0.581014171 0.817340088
v 10.7864236 -0.583420411 0.815603626
v 10.8319236 -0.583420411 0.855603707
v 11.1854323 -0.586156741 0.855000687
v 10.8319236 -0.586156621 0.855000627
v 11.1854323 -0.588892832 0.855603766
v 11.1854323 -0.58342053 0.855603766
v 10.8319236 -0.58101429 0.857340169
v 11.1854323 -0.581014409 0.857340229
v 10.8319236 -0.579228505 0.860000622
v 11.1854323 -0.579228654 0.860000682
v 10.8319236 -0.578278199 0.863264155
v 11.1854323 -0.578278318 0.863264215
v 10.8319236 -0.578278199 0.86673708
v 11.1854323 -0.578278318 0.86673708
v 10.8319236 -0.579228505 0.870000613
v 11.1854323 -0.579228654 0.870000672
v 10.8319236 -0.58101429 0.872661126
v 11.1854323 -0.581014409 0.872661126
v 10.8319236 -0.583420411 0.874397528
v 11.1854323 -0.58342053 0.874397588
v 10.8319236 -0.586156621 0.875000608
v 11.1854323 -0.586156741 0.875000727
v 10.8319236 -0.588892713 0.874397528
v 11.1854323 -0.588892832 0.874397588
v 10.8319236 -0.591298953 0.872661126
v 11.1854323 -0.591299072 0.872661126
v 10.8319236 -0.593084827 0.870000613
v 11.1854323 -0.593084946 0.870000672
v 10.8319236 -0.594035044 0.86673708
v 11.1854323 -0.594035163 0.86673708
v 10.8319236 -0.594035044 0.863264155
v 11.1854323 -0.594035163 0.863264215
v 10.8319236 -0.593084827 0.860000622
v 11.1854323 -0.593084946 0.860000682
v 10.8319236 -0.591298953 0.857340169
v 11.1854323 -0.591299072 0.857340229
v 10.8319236 -0.588892713 0.855603707
v 10.7864236 -0.586156621 0.875000548
v 10.7864236 -0.583420411 0.874397469
v 10.6304237 -0.586156502 0.875000548
v 10.6304237 -0.586156502 0.855000567
v 10.6304237 -0.583420291 0.855603647
v 10.7864236 -0.586156621 0.855000567
v 10.6304237 -0.588892594 0.874397469
v 10.7864236 -0.588892713 0.874397469
v 10.6304237 -0.591298833 0.872661006
v 10.7864236 -0.591298953 0.872661006
v 10.6304237 -0.593084708 0.870000553
v 10.7864236 -0.593084827 0.870000553
v 10.6304237 -0.594034895 0.86673702
v 10.7864236 -0.594035044 0.86673702
v 10.6304237 -0.594034895 0.863264096
v 10.7864236 -0.594035044 0.863264096
v 10.6304237 -0.593084708 0.860000563
v 10.7864236 -0.593084827 0.860000563
v 10.6304237 -0.591298833 0.857340109
v 10.7864236 -0.591298953 0.857340109
v 10.6304237 -0.588892594 0.855603647
v 10.7864236 -0.588892713 0.855603647
v 10.7864236 -0.583420411 0.855603647
v 10.6304237 -0.581014171 0.857340109
v 10.7864236 -0.58101429 0.857340109
v 10.6304237 -0.579228386 0.860000563
v 10.7864236 -0.579228505 0.860000563
v 10.6304237 -0.578278079 0.863264096
v 10.7864236 -0.578278199 0.863264096
v 10.6304237 -0.578278079 0.86673702
v 10.7864236 -0.578278199 0.86673702
v 10.6304237 -0.579228386 0.870000553
v 10.7864236 -0.579228505 0.870000553
v 10.6304237 -0.581014171 0.872661006
v 10.7864236 -0.58101429 0.872661006
v 10.6304237 -0.583420291 0.874397469
v 10.8319236 -0.502775505 0.835000587
v 11.1854323 -0.502775624 0.835000706
v 10.8319236 -0.493537828 0.835000587
v 11.1854323 -0.493537947 0.835000706
v 10.8319236 -0.507394299 0.825000596
v 11.1854323 -0.507394388 0.825000715
v 10.8319236 -0.502775505 0.815000606
v 11.1854323 -0.502775624 0.815000725
v 10.8319236 -0.493537828 0.815000606
v 11.1854323 -0.493537947 0.815000725
v 10.8319236 -0.488919064 0.825000596
v 11.1854323 -0.488919213 0.825000715
v 10.7864237 -0.493537828 0.835000527
v 10.7864237 -0.488919064 0.825000536
v 10.6304237 -0.493537709 0.835000527
v 10.6304237 -0.488918945 0.825000536
v 10.6304237 -0.493537709 0.815000546
v 10.7864237 -0.493537828 0.815000546
v 10.6304237 -0.502775386 0.815000546
v 10.7864237 -0.502775505 0.815000546
v 10.6304237 -0.50739415 0.825000536
v 10.7864237 -0.507394299 0.825000536
v 10.6304237 -0.502775386 0.835000527
v 10.7864237 -0.502775505 0.835000527
vt 0.0132630002 1.53999996
vt 0.0132630002 1.69000006
vt -0.0205990002 1.53999996
vt -0.0963990018 -1.05600095
vt 0.25711 -1.05600095
vt 0.25711 -1.05326498
vt -0.0963990018 -1.05873704
vt 0.25711 -1.05600095
vt -0.0963990018 -1.05600095
vt -0.0963990018 -1.05600095
vt 0.25711 -1.05600095
vt 0.25711 -1.05326498
vt -0.0963990018 -1.05873704
vt 0.25711 -1.05600095
vt -0.0963990018 -1.05600095
vt 0.0132630002 1.53999996
vt 0.0471239984 1.69000006
vt 0.0132630002 1.69000006
vt -1.69000006 0.399998993
vt -1.75999999 0.399998993
vt -1.75999999 0.367895007
vt -0.297899008 -1.05600095
vt -0.297899008 -1.05873704
vt -0.141899005 -1.05600095
vt -1.69000006 0.399998993
vt -1.69000006 0.441033989
vt -1.75999999 0.399998993
vt 0.141899005 -1.05600095
vt 0.141899005 -1.05873704
vt 0.297899008 -1.05600095
vt -0.297899008 -1.05600095
vt -0.297899008 -1.05873704
vt -0.141899005 -1.05600095
vt 0.141899005 -1.05600095
vt 0.141899005 -1.05873704
vt 0.297899008 -1.05600095
vt -0.0471180007 0.518154979
vt 0.0205920003 0.518154979
vt -0.0132630002 0.519999027
vt -0.0192370005 1.53999996
vt -0.0023060001 1.69000006
vt -0.0192370005 1.69000006
vt -0.0192370005 1.53999996
vt -0.0192370005 1.69000006
vt -0.0361680016 1.53999996
vt 0.0963990018 0.834999979
vt -0.25711 0.834999979
vt 0.0963990018 0.824999988
vt 0.0963990018 0.824999988
vt -0.25711 0.834999979
vt -0.25711 0.824999988
vt -0.0192370005 1.53999996
vt -0.0023060001 1.53999996
vt -0.0023060001 1.69000006
vt -0.0023060001 1.69000006
vt -0.0023060001 1.53999996
vt 0.0295129996 1.53999996
vt -0.0023060001 1.69000006
vt 0.0295129996 1.53999996
vt 0.0295129996 1.69000006
vt 0.0295129996 1.69000006
vt 0.0295129996 1.53999996
vt 0.0554520003 1.53999996
vt 0.0295129996 1.69000006
vt 0.0554520003 1.53999996
vt 0.0554520003 1.69000006
vt 1.69000006 -0.397433996
vt 1.53999996 -0.397433996
vt 1.53999996 -0.415479988
vt 1.69000006 -0.397433996
vt 1.53999996 -0.415479988
vt 1.69000006 -0.415479988
vt 1.69000006 -0.415479988
vt 1.53999996 -0.415479988
vt 1.53999996 -0.436001003
vt 1.69000006 -0.415479988
vt 1.53999996 -0.436001003
vt 1.69000006 -0.436001003
vt 1.69000006 -0.436001003
vt 1.53999996 -0.436001003
vt 1.53999996 -0.456521988
vt 1.69000006 -0.436001003
vt 1.53999996 -0.456521988
vt 1.69000006 -0.456521988
vt 1.69000006 -0.456521988
vt 1.53999996 -0.456521988
vt 1.53999996 -0.474568009
vt 1.69000006 -0.456521988
vt 1.53999996 -0.474568009
vt 1.69000006 -0.474568009
vt -0.0554520003 1.69000006
vt -0.0554520003 1.53999996
vt -0.0295129996 1.53999996
vt -0.0554520003 1.69000006
vt -0.0295129996 1.53999996
vt -0.0295129996 1.69000006
vt -0.0295129996 1.69000006
vt -0.0295129996 1.53999996
vt 0.0023060001 1.53999996
vt -0.0295129996 1.69000006
vt 0.0023060001 1.53999996
vt 0.0023060001 1.69000006
vt 0.0023060001 1.69000006
vt 0.0023060001 1.53999996
vt 0.0361680016 1.53999996
vt 0.0023060001 1.69000006
vt 0.0361680016 1.53999996
vt 0.0361680016 1.69000006
vt 0.0361680016 1.69000006
vt 0.0361680016 1.53999996
vt 0.0679870024 1.53999996
vt 0.0361680016 1.69000006
vt 0.0679870024 1.53999996
vt 0.0679870024 1.69000006
vt 0.0679870024 1.69000006
vt 0.0679870024 1.53999996
vt 0.0939259976 1.53999996
vt 0.0679870024 1.69000006
vt 0.0939259976 1.53999996
vt 0.0939259976 1.69000006
vt -1.69000006 -0.474568009
vt -1.53999996 -0.474568009
vt -1.53999996 -0.456521988
vt -1.69000006 -0.474568009
vt -1.53999996 -0.456521988
vt -1.69000006 -0.456521988
vt -1.69000006 -0.456521988
vt -1.53999996 -0.456521988
vt -1.53999996 -0.436001003
vt -1.69000006 -0.456521988
vt -1.53999996 -0.436001003
vt -1.69000006 -0.436001003
vt -1.69000006 -0.436001003
vt -1.53999996 -0.436001003
vt -1.53999996 -0.415479988
vt -1.69000006 -0.436001003
vt -1.53999996 -0.415479988
vt -1.69000006 -0.415479988
vt -1.69000006 -0.415479988
vt -1.53999996 -0.415479988
vt -1.53999996 -0.397433996
vt -1.69000006 -0.415479988
vt -1.53999996 -0.397433996
vt -1.69000006 -0.397433996
vt -0.0939259976 1.69000006
vt -0.0939259976 1.53999996
vt -0.0679870024 1.53999996
vt -0.0939259976 1.69000006
vt -0.0679870024 1.53999996
vt -0.0679870024 1.69000006
vt -0.0679870024 1.69000006
vt -0.0679870024 1.53999996
vt -0.0361680016 1.53999996
vt -0.0679870024 1.69000006
vt -0.0361680016 1.53999996
vt -0.0361680016 1.69000006
vt -0.0361680016 1.69000006
vt -0.0361680016 1.53999996
vt -0.0192370005 1.69000006
vt 0.297899008 0.814999998
vt 0.297899008 0.824999988
vt 0.141899005 0.814999998
vt 0.141899005 0.814999998
vt 0.297899008 0.824999988
vt 0.141899005 0.824999988
vt -0.297899008 -1.139382
vt -0.297899008 -1.14862001
vt -0.141899005 -1.139382
vt -0.141899005 -1.139382
vt -0.297899008 -1.14862001
vt -0.141899005 -1.14862001
vt -0.297899008 0.824999988
vt -0.297899008 0.814999998
vt -0.141899005 0.824999988
vt -0.141899005 0.824999988
vt -0.297899008 0.814999998
vt -0.141899005 0.814999998
vt -0.297899008 0.834999979
vt -0.297899008 0.824999988
vt -0.141899005 0.834999979
vt -0.141899005 0.834999979
vt -0.297899008 0.824999988
vt -0.141899005 0.824999988
vt 0.141899005 0.834999979
vt 0.141899005 0.824999988
vt 0.297899008 0.834999979
vt 0.297899008 0.834999979
vt 0.141899005 0.824999988
vt 0.297899008 0.824999988
vt -0.25711 0.824999988
vt -0.25711 0.814999998
vt 0.0963990018 0.824999988
vt 0.0963990018 0.824999988
vt -0.25711 0.814999998
vt 0.0963990018 0.814999998
vt 0.25711 -1.14862001
vt 0.25711 -1.139382
vt -0.0963990018 -1.14862001
vt -0.0963990018 -1.14862001
vt 0.25711 -1.139382
vt -0.0963990018 -1.139382
vt -0.0132630002 0.519999027
vt -0.0471239984 0.518176019
vt -0.0471180007 0.518154979
vt -1.69000006 0.518154979
vt -1.69000006 0.518176019
vt -1.69000006 0.518176019
vt -0.0471180007 0.518154979
vt -0.0471239984 0.518176019
vt -0.110744998 0.503902972
vt -0.110744998 0.503902972
vt -0.0471239984 0.518176019
vt -0.110762998 0.503921986
vt -0.110744998 0.503902972
vt -0.110762998 0.503921986
vt -0.162615001 0.477120012
vt -0.162615001 0.477120012
vt -0.110762998 0.503921986
vt -0.162642002 0.477133006
vt -0.162615001 0.477120012
vt -0.162642002 0.477133006
vt -0.196470007 0.441033989
vt -0.196470007 0.441033989
vt -0.162642002 0.477133006
vt -0.196502998 0.441040993
vt -1.69000006 0.441033989
vt -1.69000006 0.441040993
vt -1.69000006 0.441033989
vt -0.196470007 0.441033989
vt -0.196502998 0.441040993
vt -0.208262995 0.399998993
vt -0.196470007 0.441033989
vt -0.208262995 0.399998993
vt -0.208228007 0.399998993
vt -0.208228007 0.399998993
vt -0.208262995 0.399998993
vt -0.196502998 0.358956993
vt -0.208228007 0.399998993
vt -0.196502998 0.358956993
vt -0.196470007 0.358963996
vt -0.196470007 0.358963996
vt -0.196502998 0.358956993
vt -0.162642002 0.322863996
vt -0.196470007 0.358963996
vt -0.162642002 0.322863996
vt -0.162615001 0.322878003
vt -0.162615001 0.322878003
vt -0.162642002 0.322863996
vt -0.110762998 0.296076
vt -0.162615001 0.322878003
vt -0.110762998 0.296076
vt -0.110744998 0.296095014
vt -0.110744998 0.296095014
vt -0.110762998 0.296076
vt -0.0471239984 0.281821996
vt -0.110744998 0.296095014
vt -0.0471239984 0.281821996
vt -0.0471180007 0.281843007
vt -0.0471180007 0.281843007
vt -0.0471239984 0.281821996
vt 0.0205990002 0.281821996
vt -0.0471180007 0.281843007
vt 0.0205990002 0.281821996
vt 0.0205920003 0.281843007
vt 0.0205920003 0.281843007
vt 0.0205990002 0.281821996
vt 0.0842370018 0.296076
vt 0.0205920003 0.281843007
vt 0.0842370018 0.296076
vt 0.0842199996 0.296095014
vt -1.69000006 0.296095014
vt -1.69000006 0.296076
vt -1.69000006 0.296076
vt 0.0842199996 0.296095014
vt 0.0842370018 0.296076
vt 0.136088997 0.322878003
vt 0.136088997 0.322878003
vt 0.0842370018 0.296076
vt 0.136115998 0.322863996
vt 0.136088997 0.322878003
vt 0.136115998 0.322863996
vt 0.169944003 0.358963996
vt 0.169944003 0.358963996
vt 0.136115998 0.322863996
vt 0.169976994 0.358956993
vt -1.69000006 0.358963996
vt -1.69000006 0.358956993
vt -1.69000006 0.358963996
vt 0.169944003 0.358963996
vt 0.169976994 0.358956993
vt 0.181737006 0.399998993
vt 0.169944003 0.358963996
vt 0.181737006 0.399998993
vt 0.181702003 0.399998993
vt -1.69000006 0.399998993
vt -1.69000006 0.399998993
vt -1.69000006 0.399998993
vt 0.181702003 0.399998993
vt 0.181737006 0.399998993
vt 0.169944003 0.441033989
vt 0.169944003 0.441033989
vt 0.181737006 0.399998993
vt 0.169976994 0.441040993
vt 0.169944003 0.441033989
vt 0.169976994 0.441040993
vt 0.136088997 0.477120012
vt 0.136088997 0.477120012
vt 0.169976994 0.441040993
vt 0.136115998 0.477133006
vt 0.136088997 0.477120012
vt 0.136115998 0.477133006
vt 0.0842199996 0.503902972
vt 0.0842199996 0.503902972
vt 0.136115998 0.477133006
vt 0.0842370018 0.503921986
vt 0.0842199996 0.503902972
vt 0.0842370018 0.503921986
vt 0.0205920003 0.518154979
vt 0.0205920003 0.518154979
vt 0.0842370018 0.503921986
vt 0.0205990002 0.518176019
vt 0.0205920003 0.518154979
vt 0.0205990002 0.518176019
vt -0.0132630002 0.519999027
vt 0.25711 0.814999998
vt 0.25711 0.824999988
vt -0.0963990018 0.814999998
vt -0.0963990018 0.814999998
vt 0.25711 0.824999988
vt -0.0963990018 0.824999988
vt 0.0963990018 -1.139382
vt -0.25711 -1.139382
vt 0.0963990018 -1.14862001
vt 0.0963990018 -1.14862001
vt -0.25711 -1.139382
vt -0.25711 -1.14862001
vt 0.25711 -1.05600095
vt -0.0963990018 -1.05873704
vt 0.25711 -1.05873704
vt 0.25711 -1.05873704
vt -0.0963990018 -1.05873704
vt -0.0963990018 -1.06114304
vt 0.25711 -1.05873704
vt -0.0963990018 -1.06114304
vt 0.25711 -1.06114304
vt -0.25711 0.857339978
vt 0.0963990018 0.857339978
vt 0.0963990018 0.860000014
vt -0.25711 0.857339978
vt 0.0963990018 0.860000014
vt -0.25711 0.860000014
vt -0.25711 0.860000014
vt 0.0963990018 0.860000014
vt 0.0963990018 0.863264024
vt -0.25711 0.860000014
vt 0.0963990018 0.863264024
vt -0.25711 0.863264024
vt -0.25711 0.863264024
vt 0.0963990018 0.863264024
vt 0.0963990018 0.866735995
vt -0.25711 0.863264024
vt 0.0963990018 0.866735995
vt -0.25711 0.866735995
vt -0.25711 0.866735995
vt 0.0963990018 0.866735995
vt 0.0963990018 0.870000005
vt -0.25711 0.866735995
vt 0.0963990018 0.870000005
vt -0.25711 0.870000005
vt -0.25711 0.870000005
vt 0.0963990018 0.870000005
vt 0.0963990018 0.872659981
vt -0.25711 0.870000005
vt 0.0963990018 0.872659981
vt -0.25711 0.872659981
vt -0.25711 -1.06114304
vt 0.0963990018 -1.06114304
vt 0.0963990018 -1.05873704
vt -0.25711 -1.06114304
vt 0.0963990018 -1.05873704
vt -0.25711 -1.05873704
vt -0.25711 -1.05873704
vt 0.0963990018 -1.05873704
vt 0.0963990018 -1.05600095
vt -0.25711 -1.05873704
vt 0.0963990018 -1.05600095
vt -0.25711 -1.05600095
vt -0.25711 -1.05600095
vt 0.0963990018 -1.05600095
vt 0.0963990018 -1.05326498
vt -0.25711 -1.05600095
vt 0.0963990018 -1.05326498
vt -0.25711 -1.05326498
vt -0.25711 -1.05326498
vt 0.0963990018 -1.05326498
vt 0.0963990018 -1.05085897
vt -0.25711 -1.05326498
vt 0.0963990018 -1.05085897
vt -0.25711 -1.05085897
vt 0.25711 0.872659981
vt -0.0963990018 0.872659981
vt -0.0963990018 0.870000005
vt 0.25711 0.872659981
vt -0.0963990018 0.870000005
vt 0.25711 0.870000005
vt 0.25711 0.870000005
vt -0.0963990018 0.870000005
vt -0.0963990018 0.866735995
vt 0.25711 0.870000005
vt -0.0963990018 0.866735995
vt 0.25711 0.866735995
vt 0.25711 0.866735995
vt -0.0963990018 0.866735995
vt -0.0963990018 0.863264024
vt 0.25711 0.866735995
vt -0.0963990018 0.863264024
vt 0.25711 0.863264024
vt 0.25711 0.863264024
vt -0.0963990018 0.863264024
vt -0.0963990018 0.860000014
vt 0.25711 0.863264024
vt -0.0963990018 0.860000014
vt 0.25711 0.860000014
vt 0.25711 0.860000014
vt -0.0963990018 0.860000014
vt -0.0963990018 0.857339978
vt 0.25711 0.860000014
vt -0.0963990018 0.857339978
vt 0.25711 0.857339978
vt 0.25711 -1.05085897
vt -0.0963990018 -1.05085897
vt -0.0963990018 -1.05326498
vt 0.25711 -1.05085897
vt -0.0963990018 -1.05326498
vt 0.25711 -1.05326498
vt 0.25711 -1.05326498
vt -0.0963990018 -1.05326498
vt -0.0963990018 -1.05600095
vt -1.75999999 0.399998993
vt -1.69000006 0.441033989
vt -1.75999999 0.432103008
vt -1.75999999 0.432103008
vt -1.69000006 0.441033989
vt -1.69000006 0.477120012
vt -1.75999999 0.432103008
vt -1.69000006 0.477120012
vt -1.75999999 0.460334003
vt -0.103583001 1.75999999
vt -0.136088997 1.69000006
vt -0.0842199996 1.69000006
vt -0.103583001 1.75999999
vt -0.0842199996 1.69000006
vt -0.0630030036 1.75999999
vt -0.0630030036 1.75999999
vt -0.0842199996 1.69000006
vt -0.0205920003 1.69000006
vt -0.0630030036 1.75999999
vt -0.0205920003 1.69000006
vt -0.0132240001 1.75999999
vt -0.0132240001 1.75999999
vt -0.0205920003 1.69000006
vt 0.0471180007 1.69000006
vt -0.0132240001 1.75999999
vt 0.0471180007 1.69000006
vt 0.0397499986 1.75999999
vt 0.0397499986 1.75999999
vt 0.0471180007 1.69000006
vt 0.110744998 1.69000006
vt 0.0397499986 1.75999999
vt 0.110744998 1.69000006
vt 0.0895280018 1.75999999
vt 0.0895280018 1.75999999
vt 0.110744998 1.69000006
vt 0.162615001 1.69000006
vt 0.0895280018 1.75999999
vt 0.162615001 1.69000006
vt 0.130107999 1.75999999
vt 1.75999999 0.460334003
vt 1.69000006 0.477120012
vt 1.69000006 0.441033989
vt 1.75999999 0.460334003
vt 1.69000006 0.441033989
vt 1.75999999 0.432103008
vt 1.75999999 0.432103008
vt 1.69000006 0.441033989
vt 1.69000006 0.399998993
vt 1.75999999 0.432103008
vt 1.69000006 0.399998993
vt 1.75999999 0.399998993
vt 1.75999999 0.399998993
vt 1.69000006 0.399998993
vt 1.69000006 0.358963996
vt 1.75999999 0.399998993
vt 1.69000006 0.358963996
vt 1.75999999 0.367895007
vt 1.75999999 0.367895007
vt 1.69000006 0.358963996
vt 1.69000006 0.322878003
vt 1.75999999 0.367895007
vt 1.69000006 0.322878003
vt 1.75999999 0.339662999
vt -0.130107999 1.75999999
vt -0.162615001 1.69000006
vt -0.110744998 1.69000006
vt -0.130107999 1.75999999
vt -0.110744998 1.69000006
vt -0.0895280018 1.75999999
vt -0.0895280018 1.75999999
vt -0.110744998 1.69000006
vt -0.0471180007 1.69000006
vt -0.0895280018 1.75999999
vt -0.0471180007 1.69000006
vt -0.0397499986 1.75999999
vt -0.0397499986 1.75999999
vt -0.0471180007 1.69000006
vt 0.0205920003 1.69000006
vt -0.0397499986 1.75999999
vt 0.0205920003 1.69000006
vt 0.0132240001 1.75999999
vt 0.0132240001 1.75999999
vt 0.0205920003 1.69000006
vt 0.0842199996 1.69000006
vt 0.0132240001 1.75999999
vt 0.0842199996 1.69000006
vt 0.0630030036 1.75999999
vt 0.0630030036 1.75999999
vt 0.0842199996 1.69000006
vt 0.136088997 1.69000006
vt 0.0630030036 1.75999999
vt 0.136088997 1.69000006
vt 0.103583001 1.75999999
vt -1.75999999 0.339662999
vt -1.69000006 0.322878003
vt -1.69000006 0.358963996
vt -1.75999999 0.339662999
vt -1.69000006 0.358963996
vt -1.75999999 0.367895007
vt -1.75999999 0.367895007
vt -1.69000006 0.358963996
vt -1.69000006 0.399998993
vt 0.297899008 -1.05600095
vt 0.141899005 -1.05873704
vt 0.297899008 -1.05873704
vt 0.297899008 -1.05873704
vt 0.141899005 -1.05873704
vt 0.141899005 -1.06114304
vt 0.297899008 -1.05873704
vt 0.141899005 -1.06114304
vt 0.297899008 -1.06114304
vt 0.297899008 0.832660019
vt 0.141899005 0.832660019
vt 0.141899005 0.829999983
vt 0.297899008 0.832660019
vt 0.141899005 0.829999983
vt 0.297899008 0.829999983
vt 0.297899008 0.829999983
vt 0.141899005 0.829999983
vt 0.141899005 0.826735973
vt 0.297899008 0.829999983
vt 0.141899005 0.826735973
vt 0.297899008 0.826735973
vt 0.297899008 0.826735973
vt 0.141899005 0.826735973
vt 0.141899005 0.823264003
vt 0.297899008 0.826735973
vt 0.141899005 0.823264003
vt 0.297899008 0.823264003
vt 0.297899008 0.823264003
vt 0.141899005 0.823264003
vt 0.141899005 0.819999993
vt 0.297899008 0.823264003
vt 0.141899005 0.819999993
vt 0.297899008 0.819999993
vt 0.297899008 0.819999993
vt 0.141899005 0.819999993
vt 0.141899005 0.817340016
vt 0.297899008 0.819999993
vt 0.141899005 0.817340016
vt 0.297899008 0.817340016
vt -0.297899008 -1.06114304
vt -0.141899005 -1.06114304
vt -0.141899005 -1.05873704
vt -0.297899008 -1.06114304
vt -0.141899005 -1.05873704
vt -0.297899008 -1.05873704
vt -0.297899008 -1.05873704
vt -0.141899005 -1.05873704
vt -0.141899005 -1.05600095
vt 0.25711 -1.05600095
vt -0.0963990018 -1.05873704
vt 0.25711 -1.05873704
vt 0.25711 -1.05873704
vt -0.0963990018 -1.05873704
vt -0.0963990018 -1.06114304
vt 0.25711 -1.05873704
vt -0.0963990018 -1.06114304
vt 0.25711 -1.06114304
vt -0.25711 0.817340016
vt 0.0963990018 0.817340016
vt 0.0963990018 0.819999993
vt -0.25711 0.817340016
vt 0.0963990018 0.819999993
vt -0.25711 0.819999993
vt -0.25711 0.819999993
vt 0.0963990018 0.819999993
vt 0.0963990018 0.823264003
vt -0.25711 0.819999993
vt 0.0963990018 0.823264003
vt -0.25711 0.823264003
vt -0.25711 0.823264003
vt 0.0963990018 0.823264003
vt 0.0963990018 0.826735973
vt -0.25711 0.823264003
vt 0.0963990018 0.826735973
vt -0.25711 0.826735973
vt -0.25711 0.826735973
vt 0.0963990018 0.826735973
vt 0.0963990018 0.829999983
vt -0.25711 0.826735973
vt 0.0963990018 0.829999983
vt -0.25711 0.829999983
vt -0.25711 0.829999983
vt 0.0963990018 0.829999983
vt 0.0963990018 0.832660019
vt -0.25711 0.829999983
vt 0.0963990018 0.832660019
vt -0.25711 0.832660019
vt -0.25711 -1.06114304
vt 0.0963990018 -1.06114304
vt 0.0963990018 -1.05873704
vt -0.25711 -1.06114304
vt 0.0963990018 -1.05873704
vt -0.25711 -1.05873704
vt -0.25711 -1.05873704
vt 0.0963990018 -1.05873704
vt 0.0963990018 -1.05600095
vt -0.25711 -1.05873704
vt 0.0963990018 -1.05600095
vt -0.25711 -1.05600095
vt -0.25711 -1.05600095
vt 0.0963990018 -1.05600095
vt 0.0963990018 -1.05326498
vt -0.25711 -1.05600095
vt 0.0963990018 -1.05326498
vt -0.25711 -1.05326498
vt -0.25711 -1.05326498
vt 0.0963990018 -1.05326498
vt 0.0963990018 -1.05085897
vt -0.25711 -1.05326498
vt 0.0963990018 -1.05085897
vt -0.25711 -1.05085897
vt 0.25711 0.832660019
vt -0.0963990018 0.832660019
vt -0.0963990018 0.829999983
vt 0.25711 0.832660019
vt -0.0963990018 0.829999983
vt 0.25711 0.829999983
vt 0.25711 0.829999983
vt -0.0963990018 0.829999983
vt -0.0963990018 0.826735973
vt 0.25711 0.829999983
vt -0.0963990018 0.826735973
vt 0.25711 0.826735973
vt 0.25711 0.826735973
vt -0.0963990018 0.826735973
vt -0.0963990018 0.823264003
vt 0.25711 0.826735973
vt -0.0963990018 0.823264003
vt 0.25711 0.823264003
vt 0.25711 0.823264003
vt -0.0963990018 0.823264003
vt -0.0963990018 0.819999993
vt 0.25711 0.823264003
vt -0.0963990018 0.819999993
vt 0.25711 0.819999993
vt 0.25711 0.819999993
vt -0.0963990018 0.819999993
vt -0.0963990018 0.817340016
vt 0.25711 0.819999993
vt -0.0963990018 0.817340016
vt 0.25711 0.817340016
vt 0.25711 -1.05085897
vt -0.0963990018 -1.05085897
vt -0.0963990018 -1.05326498
vt 0.25711 -1.05085897
vt -0.0963990018 -1.05326498
vt 0.25711 -1.05326498
vt 0.25711 -1.05326498
vt -0.0963990018 -1.05326498
vt -0.0963990018 -1.05600095
vt 0.297899008 -1.05600095
vt 0.297899008 -1.05326498
vt 0.141899005 -1.05600095
vt -0.834999979 -1.05600095
vt -0.834397018 -1.05326498
vt -0.834397018 -1.05326498
vt 0.141899005 -1.05600095
vt 0.297899008 -1.05326498
vt 0.141899005 -1.05326498
vt 0.141899005 -1.05326498
vt 0.297899008 -1.05326498
vt 0.297899008 -1.05085897
vt 0.141899005 -1.05326498
vt 0.297899008 -1.05085897
vt 0.141899005 -1.05085897
vt -0.141899005 0.832660019
vt -0.297899008 0.832660019
vt -0.297899008 0.829999983
vt -0.141899005 0.832660019
vt -0.297899008 0.829999983
vt -0.141899005 0.829999983
vt -0.141899005 0.829999983
vt -0.297899008 0.829999983
vt -0.297899008 0.826735973
vt -0.141899005 0.829999983
vt -0.297899008 0.826735973
vt -0.141899005 0.826735973
vt -0.141899005 0.826735973
vt -0.297899008 0.826735973
vt -0.297899008 0.823264003
vt -0.141899005 0.826735973
vt -0.297899008 0.823264003
vt -0.141899005 0.823264003
vt -0.141899005 0.823264003
vt -0.297899008 0.823264003
vt -0.297899008 0.819999993
vt -0.141899005 0.823264003
vt -0.297899008 0.819999993
vt -0.141899005 0.819999993
vt -0.141899005 0.819999993
vt -0.297899008 0.819999993
vt -0.297899008 0.817340016
vt -0.141899005 0.819999993
vt -0.297899008 0.817340016
vt -0.141899005 0.817340016
vt -0.141899005 -1.05085897
vt -0.297899008 -1.05085897
vt -0.297899008 -1.05326498
vt -0.141899005 -1.05085897
vt -0.297899008 -1.05326498
vt -0.141899005 -1.05326498
vt -0.141899005 -1.05326498
vt -0.297899008 -1.05326498
vt -0.297899008 -1.05600095
vt -0.141899005 -1.05326498
vt -0.297899008 -1.05600095
vt -0.141899005 -1.05600095
vt 0.297899008 -1.14862001
vt 0.297899008 -1.139382
vt 0.141899005 -1.14862001
vt 0.141899005 -1.14862001
vt 0.297899008 -1.139382
vt 0.141899005 -1.139382
vt -0.0963990018 0.824999988
vt 0.25711 0.824999988
vt -0.0963990018 0.834999979
vt -0.0963990018 0.834999979
vt 0.25711 0.824999988
vt 0.25711 0.834999979
vt 0.297899008 -1.05600095
vt 0.141899005 -1.05873704
vt 0.297899008 -1.05873704
vt 0.297899008 -1.05873704
vt 0.141899005 -1.05873704
vt 0.141899005 -1.06114304
vt 0.297899008 -1.05873704
vt 0.141899005 -1.06114304
vt 0.297899008 -1.06114304
vt 0.297899008 0.872659981
vt 0.141899005 0.872659981
vt 0.141899005 0.870000005
vt 0.297899008 0.872659981
vt 0.141899005 0.870000005
vt 0.297899008 0.870000005
vt 0.297899008 0.870000005
vt 0.141899005 0.870000005
vt 0.141899005 0.866735995
vt 0.297899008 0.870000005
vt 0.141899005 0.866735995
vt 0.297899008 0.866735995
vt 0.297899008 0.866735995
vt 0.141899005 0.866735995
vt 0.141899005 0.863264024
vt 0.297899008 0.866735995
vt 0.141899005 0.863264024
vt 0.297899008 0.863264024
vt 0.297899008 0.863264024
vt 0.141899005 0.863264024
vt 0.141899005 0.860000014
vt 0.297899008 0.863264024
vt 0.141899005 0.860000014
vt 0.297899008 0.860000014
vt 0.297899008 0.860000014
vt 0.141899005 0.860000014
vt 0.141899005 0.857339978
vt 0.297899008 0.860000014
vt 0.141899005 0.857339978
vt 0.297899008 0.857339978
vt -0.297899008 -1.06114304
vt -0.141899005 -1.06114304
vt -0.141899005 -1.05873704
vt -0.297899008 -1.06114304
vt -0.141899005 -1.05873704
vt -0.297899008 -1.05873704
vt -0.297899008 -1.05873704
vt -0.141899005 -1.05873704
vt -0.141899005 -1.05600095
vt -0.141899005 -1.05600095
vt -0.141899005 -1.05326498
vt -0.297899008 -1.05600095
vt -0.855000019 -1.05600095
vt -0.85560298 -1.05326498
vt -0.85560298 -1.05326498
vt -0.297899008 -1.05600095
vt -0.141899005 -1.05326498
vt -0.297899008 -1.05326498
vt -0.297899008 -1.05326498
vt -0.141899005 -1.05326498
vt -0.141899005 -1.05085897
vt -0.297899008 -1.05326498
vt -0.141899005 -1.05085897
vt -0.297899008 -1.05085897
vt -0.297899008 0.857339978
vt -0.141899005 0.857339978
vt -0.141899005 0.860000014
vt -0.297899008 0.857339978
vt -0.141899005 0.860000014
vt -0.297899008 0.860000014
vt -0.297899008 0.860000014
vt -0.141899005 0.860000014
vt -0.141899005 0.863264024
vt -0.297899008 0.860000014
vt -0.141899005 0.863264024
vt -0.297899008 0.863264024
vt -0.297899008 0.863264024
vt -0.141899005 0.863264024
vt -0.141899005 0.866735995
vt -0.297899008 0.863264024
vt -0.141899005 0.866735995
vt -0.297899008 0.866735995
vt -0.297899008 0.866735995
vt -0.141899005 0.866735995
vt -0.141899005 0.870000005
vt -0.297899008 0.866735995
vt -0.141899005 0.870000005
vt -0.297899008 0.870000005
vt -0.297899008 0.870000005
vt -0.141899005 0.870000005
vt -0.141899005 0.872659981
vt -0.297899008 0.870000005
vt -0.141899005 0.872659981
vt -0.297899008 0.872659981
vt 0.297899008 -1.05085897
vt 0.141899005 -1.05085897
vt 0.141899005 -1.05326498
vt 0.297899008 -1.05085897
vt 0.141899005 -1.05326498
vt 0.297899008 -1.05326498
vt 0.297899008 -1.05326498
vt 0.141899005 -1.05326498
vt 0.141899005 -1.05600095
vt 0.297899008 -1.05326498
vt 0.141899005 -1.05600095
vt 0.297899008 -1.05600095
vt 0.0132630002 1.53999996
vt 0.0471239984 1.53999996
vt 0.0471239984 1.69000006
vt 0.0471239984 1.69000006
vt 0.0471239984 1.53999996
vt 0.110762998 1.53999996
vt 0.0471239984 1.69000006
vt 0.110762998 1.53999996
vt 0.110762998 1.69000006
vt 0.110762998 1.69000006
vt 0.110762998 1.53999996
vt 0.162642002 1.53999996
vt 0.110762998 1.69000006
vt 0.162642002 1.53999996
vt 0.162642002 1.69000006
vt 1.69000006 0.477133006
vt 1.53999996 0.477133006
vt 1.53999996 0.441040993
vt 1.69000006 0.477133006
vt 1.53999996 0.441040993
vt 1.69000006 0.441040993
vt 1.69000006 0.441040993
vt 1.53999996 0.441040993
vt 1.53999996 0.399998993
vt 1.69000006 0.441040993
vt 1.53999996 0.399998993
vt 1.69000006 0.399998993
vt 1.69000006 0.399998993
vt 1.53999996 0.399998993
vt 1.53999996 0.358956993
vt 1.69000006 0.399998993
vt 1.53999996 0.358956993
vt 1.69000006 0.358956993
vt 1.69000006 0.358956993
vt 1.53999996 0.358956993
vt 1.53999996 0.322863996
vt 1.69000006 0.358956993
vt 1.53999996 0.322863996
vt 1.69000006 0.322863996
vt -0.162642002 1.69000006
vt -0.162642002 1.53999996
vt -0.110762998 1.53999996
vt -0.162642002 1.69000006
vt -0.110762998 1.53999996
vt -0.110762998 1.69000006
vt -0.110762998 1.69000006
vt -0.110762998 1.53999996
vt -0.0471239984 1.53999996
vt -0.110762998 1.69000006
vt -0.0471239984 1.53999996
vt -0.0471239984 1.69000006
vt -0.0471239984 1.69000006
vt -0.0471239984 1.53999996
vt 0.0205990002 1.53999996
vt -0.0471239984 1.69000006
vt 0.0205990002 1.53999996
vt 0.0205990002 1.69000006
vt 0.0205990002 1.69000006
vt 0.0205990002 1.53999996
vt 0.0842370018 1.53999996
vt 0.0205990002 1.69000006
vt 0.0842370018 1.53999996
vt 0.0842370018 1.69000006
vt 0.0842370018 1.69000006
vt 0.0842370018 1.53999996
vt 0.136115998 1.53999996
vt 0.0842370018 1.69000006
vt 0.136115998 1.53999996
vt 0.136115998 1.69000006
vt -1.69000006 0.322863996
vt -1.53999996 0.322863996
vt -1.53999996 0.358956993
vt -1.69000006 0.322863996
vt -1.53999996 0.358956993
vt -1.69000006 0.358956993
vt -1.69000006 0.358956993
vt -1.53999996 0.358956993
vt -1.53999996 0.399998993
vt -1.69000006 0.358956993
vt -1.53999996 0.399998993
vt -1.69000006 0.399998993
vt -1.69000006 0.399998993
vt -1.53999996 0.399998993
vt -1.53999996 0.441040993
vt -1.69000006 0.399998993
vt -1.53999996 0.441040993
vt -1.69000006 0.441040993
vt -1.69000006 0.441040993
vt -1.53999996 0.441040993
vt -1.53999996 0.477133006
vt -1.69000006 0.441040993
vt -1.53999996 0.477133006
vt -1.69000006 0.477133006
vt -0.136115998 1.69000006
vt -0.136115998 1.53999996
vt -0.0842370018 1.53999996
vt -0.136115998 1.69000006
vt -0.0842370018 1.53999996
vt -0.0842370018 1.69000006
vt -0.0842370018 1.69000006
vt -0.0842370018 1.53999996
vt -0.0205990002 1.53999996
vt -0.0842370018 1.69000006
vt -0.0205990002 1.53999996
vt -0.0205990002 1.69000006
vt -0.0205990002 1.69000006
vt -0.0205990002 1.53999996
vt 0.0132630002 1.69000006
vt -0.165794 0.399998993
vt -0.156595007 0.367895007
vt -0.0132630002 0.399998993
vt -0.0132630002 0.399998993
vt -0.156595007 0.367895007
vt -0.130107999 0.339662999
vt -1.75999999 0.399998993
vt -1.75999999 0.339662999
vt -1.75999999 0.399998993
vt -0.0132630002 0.399998993
vt -0.130107999 0.339662999
vt -0.0895280018 0.318708986
vt -1.75999999 0.399998993
vt -1.75999999 0.318708986
vt -1.75999999 0.399998993
vt -0.0132630002 0.399998993
vt -0.0895280018 0.318708986
vt -0.0397499986 0.307559997
vt -1.75999999 0.399998993
vt -1.75999999 0.307559997
vt -1.75999999 0.399998993
vt -0.0132630002 0.399998993
vt -0.0397499986 0.307559997
vt 0.0132240001 0.307559997
vt -1.75999999 0.399998993
vt -1.75999999 0.307559997
vt -1.75999999 0.399998993
vt -0.0132630002 0.399998993
vt 0.0132240001 0.307559997
vt 0.0630030036 0.318708986
vt -1.75999999 0.399998993
vt -1.75999999 0.318708986
vt -1.75999999 0.399998993
vt -0.0132630002 0.399998993
vt 0.0630030036 0.318708986
vt 0.103583001 0.339662999
vt -1.75999999 0.399998993
vt -1.75999999 0.339662999
vt -1.75999999 0.399998993
vt -0.0132630002 0.399998993
vt 0.103583001 0.339662999
vt 0.130069003 0.367895007
vt -1.75999999 0.399998993
vt -1.75999999 0.367895007
vt -1.75999999 0.399998993
vt -0.0132630002 0.399998993
vt 0.130069003 0.367895007
vt 0.139267996 0.399998993
vt -1.75999999 0.399998993
vt -1.75999999 0.399998993
vt -1.75999999 0.399998993
vt -0.0132630002 0.399998993
vt 0.139267996 0.399998993
vt 0.130069003 0.432103008
vt -1.75999999 0.399998993
vt -1.75999999 0.432103008
vt -1.75999999 0.399998993
vt -0.0132630002 0.399998993
vt 0.130069003 0.432103008
vt 0.103583001 0.460334003
vt -1.75999999 0.399998993
vt -1.75999999 0.460334003
vt -1.75999999 0.399998993
vt -0.0132630002 0.399998993
vt 0.103583001 0.460334003
vt 0.0630030036 0.481288999
vt -1.75999999 0.399998993
vt -1.75999999 0.481288999
vt -1.75999999 0.399998993
vt -0.0132630002 0.399998993
vt 0.0630030036 0.481288999
vt 0.0132240001 0.492437989
vt -1.75999999 0.399998993
vt -1.75999999 0.492437989
vt -1.75999999 0.399998993
vt -0.0132630002 0.399998993
vt 0.0132240001 0.492437989
vt -0.0397499986 0.492437989
vt -1.75999999 0.399998993
vt -1.75999999 0.492437989
vt -1.75999999 0.399998993
vt -0.0132630002 0.399998993
vt -0.0397499986 0.492437989
vt -0.0895280018 0.481288999
vt -1.75999999 0.399998993
vt -1.75999999 0.481288999
vt -1.75999999 0.399998993
vt -0.0132630002 0.399998993
vt -0.0895280018 0.481288999
vt -0.130107999 0.460334003
vt -1.75999999 0.399998993
vt -1.75999999 0.460334003
vt -1.75999999 0.399998993
vt -0.0132630002 0.399998993
vt -0.130107999 0.460334003
vt -0.156595007 0.432103008
vt -0.0132630002 0.399998993
vt -0.156595007 0.432103008
vt -0.165794 0.399998993
vt -0.0782629997 -0.436001003
vt -0.0723830014 -0.456521988
vt 0.0192370005 -0.436001003
vt 0.0192370005 -0.436001003
vt -0.0723830014 -0.456521988
vt -0.0554520003 -0.474568009
vt -1.69000006 -0.436001003
vt -1.69000006 -0.474568009
vt -1.69000006 -0.436001003
vt 0.0192370005 -0.436001003
vt -0.0554520003 -0.474568009
vt -0.0295129996 -0.487962991
vt -1.69000006 -0.436001003
vt -1.69000006 -0.487962991
vt -1.69000006 -0.436001003
vt 0.0192370005 -0.436001003
vt -0.0295129996 -0.487962991
vt 0.0023060001 -0.495090008
vt -1.69000006 -0.436001003
vt -1.69000006 -0.495090008
vt -1.69000006 -0.436001003
vt 0.0192370005 -0.436001003
vt 0.0023060001 -0.495090008
vt 0.0361680016 -0.495090008
vt -1.69000006 -0.436001003
vt -1.69000006 -0.495090008
vt -1.69000006 -0.436001003
vt 0.0192370005 -0.436001003
vt 0.0361680016 -0.495090008
vt 0.0679870024 -0.487962991
vt -1.69000006 -0.436001003
vt -1.69000006 -0.487962991
vt -1.69000006 -0.436001003
vt 0.0192370005 -0.436001003
vt 0.0679870024 -0.487962991
vt 0.0939259976 -0.474568009
vt -1.69000006 -0.436001003
vt -1.69000006 -0.474568009
vt -1.69000006 -0.436001003
vt 0.0192370005 -0.436001003
vt 0.0939259976 -0.474568009
vt 0.110857002 -0.456521988
vt -1.69000006 -0.436001003
vt -1.69000006 -0.456521988
vt -1.69000006 -0.436001003
vt 0.0192370005 -0.436001003
vt 0.110857002 -0.456521988
vt 0.116737001 -0.436001003
vt -1.69000006 -0.436001003
vt -1.69000006 -0.436001003
vt -1.69000006 -0.436001003
vt 0.0192370005 -0.436001003
vt 0.116737001 -0.436001003
vt 0.110857002 -0.415479988
vt -1.69000006 -0.436001003
vt -1.69000006 -0.415479988
vt -1.69000006 -0.436001003
vt 0.0192370005 -0.436001003
vt 0.110857002 -0.415479988
vt 0.0939259976 -0.397433996
vt -1.69000006 -0.436001003
vt -1.69000006 -0.397433996
vt -1.69000006 -0.436001003
vt 0.0192370005 -0.436001003
vt 0.0939259976 -0.397433996
vt 0.0679870024 -0.384039998
vt -1.69000006 -0.436001003
vt -1.69000006 -0.384039998
vt -1.69000006 -0.436001003
vt 0.0192370005 -0.436001003
vt 0.0679870024 -0.384039998
vt 0.0361680016 -0.376913011
vt -1.69000006 -0.436001003
vt -1.69000006 -0.376913011
vt -1.69000006 -0.436001003
vt 0.0192370005 -0.436001003
vt 0.0361680016 -0.376913011
vt 0.0192370005 -0.376001
vt -1.69000006 -0.436001003
vt -1.69000006 -0.376001
vt -1.69000006 -0.436001003
vt 0.0192370005 -0.436001003
vt 0.0192370005 -0.376001
vt 0.0023060001 -0.376913011
vt -1.69000006 -0.436001003
vt -1.69000006 -0.376913011
vt -1.69000006 -0.436001003
vt 0.0192370005 -0.436001003
vt 0.0023060001 -0.376913011
vt -0.0295129996 -0.384039998
vt -1.69000006 -0.436001003
vt -1.69000006 -0.384039998
vt -1.69000006 -0.436001003
vt 0.0192370005 -0.436001003
vt -0.0295129996 -0.384039998
vt -0.0554520003 -0.397433996
vt -1.69000006 -0.436001003
vt -1.69000006 -0.397433996
vt -1.69000006 -0.436001003
vt 0.0192370005 -0.436001003
vt -0.0554520003 -0.397433996
vt -0.0723830014 -0.415479988
vt 0.0192370005 -0.436001003
vt -0.0723830014 -0.415479988
vt -0.0782629997 -0.436001003
vt -0.0963990018 1.56526303
vt 0.25711 1.56799901
vt -0.0963990018 1.56799901
vt -0.0963990018 1.56799901
vt 0.25711 1.56799901
vt 0.25711 1.57073498
vt 0.25711 1.56799901
vt -0.0963990018 1.56526303
vt 0.25711 1.56526303
vt 0.25711 1.56526303
vt -0.0963990018 1.56526303
vt -0.0963990018 1.56285703
vt 0.25711 1.56526303
vt -0.0963990018 1.56285703
vt 0.25711 1.56285703
vt -0.25711 0.817340016
vt 0.0963990018 0.817340016
vt 0.0963990018 0.819999993
vt -0.25711 0.817340016
vt 0.0963990018 0.819999993
vt -0.25711 0.819999993
vt -0.25711 0.819999993
vt 0.0963990018 0.819999993
vt 0.0963990018 0.823264003
vt -0.25711 0.819999993
vt 0.0963990018 0.823264003
vt -0.25711 0.823264003
vt -0.25711 0.823264003
vt 0.0963990018 0.823264003
vt 0.0963990018 0.826735973
vt -0.25711 0.823264003
vt 0.0963990018 0.826735973
vt -0.25711 0.826735973
vt -0.25711 0.826735973
vt 0.0963990018 0.826735973
vt 0.0963990018 0.829999983
vt -0.25711 0.826735973
vt 0.0963990018 0.829999983
vt -0.25711 0.829999983
vt -0.25711 0.829999983
vt 0.0963990018 0.829999983
vt 0.0963990018 0.832660019
vt -0.25711 0.829999983
vt 0.0963990018 0.832660019
vt -0.25711 0.832660019
vt -0.25711 1.56285703
vt 0.0963990018 1.56285703
vt 0.0963990018 1.56526303
vt -0.25711 1.56285703
vt 0.0963990018 1.56526303
vt -0.25711 1.56526303
vt -0.25711 1.56526303
vt 0.0963990018 1.56526303
vt 0.0963990018 1.56799901
vt -0.25711 1.56526303
vt 0.0963990018 1.56799901
vt -0.25711 1.56799901
vt -0.25711 1.56799901
vt 0.0963990018 1.56799901
vt 0.0963990018 1.57073498
vt -0.25711 1.56799901
vt 0.0963990018 1.57073498
vt -0.25711 1.57073498
vt -0.25711 1.57073498
vt 0.0963990018 1.57073498
vt 0.0963990018 1.57314098
vt -0.25711 1.57073498
vt 0.0963990018 1.57314098
vt -0.25711 1.57314098
vt 0.25711 0.832660019
vt -0.0963990018 0.832660019
vt -0.0963990018 0.829999983
vt 0.25711 0.832660019
vt -0.0963990018 0.829999983
vt 0.25711 0.829999983
vt 0.25711 0.829999983
vt -0.0963990018 0.829999983
vt -0.0963990018 0.826735973
vt 0.25711 0.829999983
vt -0.0963990018 0.826735973
vt 0.25711 0.826735973
vt 0.25711 0.826735973
vt -0.0963990018 0.826735973
vt -0.0963990018 0.823264003
vt 0.25711 0.826735973
vt -0.0963990018 0.823264003
vt 0.25711 0.823264003
vt 0.25711 0.823264003
vt -0.0963990018 0.823264003
vt -0.0963990018 0.819999993
vt 0.25711 0.823264003
vt -0.0963990018 0.819999993
vt 0.25711 0.819999993
vt 0.25711 0.819999993
vt -0.0963990018 0.819999993
vt -0.0963990018 0.817340016
vt 0.25711 0.819999993
vt -0.0963990018 0.817340016
vt 0.25711 0.817340016
vt 0.25711 1.57314098
vt -0.0963990018 1.57314098
vt -0.0963990018 1.57073498
vt 0.25711 1.57314098
vt -0.0963990018 1.57073498
vt 0.25711 1.57073498
vt 0.25711 1.57073498
vt -0.0963990018 1.57073498
vt -0.0963990018 1.56799901
vt -0.297899008 1.56799901
vt -0.297899008 1.56526303
vt -0.141899005 1.56799901
vt 0.141899005 1.56799901
vt 0.141899005 1.56526303
vt 0.297899008 1.56799901
vt 0.297899008 1.56799901
vt 0.297899008 1.57073498
vt 0.141899005 1.56799901
vt -0.834999979 1.56799901
vt -0.834397018 1.57073498
vt -0.834397018 1.57073498
vt 0.141899005 1.56799901
vt 0.297899008 1.57073498
vt 0.141899005 1.57073498
vt 0.141899005 1.57073498
vt 0.297899008 1.57073498
vt 0.297899008 1.57314098
vt 0.141899005 1.57073498
vt 0.297899008 1.57314098
vt 0.141899005 1.57314098
vt -0.141899005 0.832660019
vt -0.297899008 0.832660019
vt -0.297899008 0.829999983
vt -0.141899005 0.832660019
vt -0.297899008 0.829999983
vt -0.141899005 0.829999983
vt -0.141899005 0.829999983
vt -0.297899008 0.829999983
vt -0.297899008 0.826735973
vt -0.141899005 0.829999983
vt -0.297899008 0.826735973
vt -0.141899005 0.826735973
vt -0.141899005 0.826735973
vt -0.297899008 0.826735973
vt -0.297899008 0.823264003
vt -0.141899005 0.826735973
vt -0.297899008 0.823264003
vt -0.141899005 0.823264003
vt -0.141899005 0.823264003
vt -0.297899008 0.823264003
vt -0.297899008 0.819999993
vt -0.141899005 0.823264003
vt -0.297899008 0.819999993
vt -0.141899005 0.819999993
vt -0.141899005 0.819999993
vt -0.297899008 0.819999993
vt -0.297899008 0.817340016
vt -0.141899005 0.819999993
vt -0.297899008 0.817340016
vt -0.141899005 0.817340016
vt -0.141899005 1.57314098
vt -0.297899008 1.57314098
vt -0.297899008 1.57073498
vt -0.141899005 1.57314098
vt -0.297899008 1.57073498
vt -0.141899005 1.57073498
vt -0.141899005 1.57073498
vt -0.297899008 1.57073498
vt -0.297899008 1.56799901
vt -0.141899005 1.57073498
vt -0.297899008 1.56799901
vt -0.141899005 1.56799901
vt 0.297899008 1.56799901
vt 0.141899005 1.56526303
vt 0.297899008 1.56526303
vt 0.297899008 1.56526303
vt 0.141899005 1.56526303
vt 0.141899005 1.56285703
vt 0.297899008 1.56526303
vt 0.141899005 1.56285703
vt 0.297899008 1.56285703
vt 0.297899008 0.832660019
vt 0.141899005 0.832660019
vt 0.141899005 0.829999983
vt 0.297899008 0.832660019
vt 0.141899005 0.829999983
vt 0.297899008 0.829999983
vt 0.297899008 0.829999983
vt 0.141899005 0.829999983
vt 0.141899005 0.826735973
vt 0.297899008 0.829999983
vt 0.141899005 0.826735973
vt 0.297899008 0.826735973
vt 0.297899008 0.826735973
vt 0.141899005 0.826735973
vt 0.141899005 0.823264003
vt 0.297899008 0.826735973
vt 0.141899005 0.823264003
vt 0.297899008 0.823264003
vt 0.297899008 0.823264003
vt 0.141899005 0.823264003
vt 0.141899005 0.819999993
vt 0.297899008 0.823264003
vt 0.141899005 0.819999993
vt 0.297899008 0.819999993
vt 0.297899008 0.819999993
vt 0.141899005 0.819999993
vt 0.141899005 0.817340016
vt 0.297899008 0.819999993
vt 0.141899005 0.817340016
vt 0.297899008 0.817340016
vt -0.297899008 1.56285703
vt -0.141899005 1.56285703
vt -0.141899005 1.56526303
vt -0.297899008 1.56285703
vt -0.141899005 1.56526303
vt -0.297899008 1.56526303
vt -0.297899008 1.56526303
vt -0.141899005 1.56526303
vt -0.141899005 1.56799901
vt -0.0963990018 1.56526303
vt 0.25711 1.56799901
vt -0.0963990018 1.56799901
vt -0.0963990018 1.56799901
vt 0.25711 1.56799901
vt 0.25711 1.57073498
vt 0.25711 1.56799901
vt -0.0963990018 1.56526303
vt 0.25711 1.56526303
vt 0.25711 1.56526303
vt -0.0963990018 1.56526303
vt -0.0963990018 1.56285703
vt 0.25711 1.56526303
vt -0.0963990018 1.56285703
vt 0.25711 1.56285703
vt -0.25711 0.857339978
vt 0.0963990018 0.857339978
vt 0.0963990018 0.860000014
vt -0.25711 0.857339978
vt 0.0963990018 0.860000014
vt -0.25711 0.860000014
vt -0.25711 0.860000014
vt 0.0963990018 0.860000014
vt 0.0963990018 0.863264024
vt -0.25711 0.860000014
vt 0.0963990018 0.863264024
vt -0.25711 0.863264024
vt -0.25711 0.863264024
vt 0.0963990018 0.863264024
vt 0.0963990018 0.866735995
vt -0.25711 0.863264024
vt 0.0963990018 0.866735995
vt -0.25711 0.866735995
vt -0.25711 0.866735995
vt 0.0963990018 0.866735995
vt 0.0963990018 0.870000005
vt -0.25711 0.866735995
vt 0.0963990018 0.870000005
vt -0.25711 0.870000005
vt -0.25711 0.870000005
vt 0.0963990018 0.870000005
vt 0.0963990018 0.872659981
vt -0.25711 0.870000005
vt 0.0963990018 0.872659981
vt -0.25711 0.872659981
vt -0.25711 1.56285703
vt 0.0963990018 1.56285703
vt 0.0963990018 1.56526303
vt -0.25711 1.56285703
vt 0.0963990018 1.56526303
vt -0.25711 1.56526303
vt -0.25711 1.56526303
vt 0.0963990018 1.56526303
vt 0.0963990018 1.56799901
vt -0.25711 1.56526303
vt 0.0963990018 1.56799901
vt -0.25711 1.56799901
vt -0.25711 1.56799901
vt 0.0963990018 1.56799901
vt 0.0963990018 1.57073498
vt -0.25711 1.56799901
vt 0.0963990018 1.57073498
vt -0.25711 1.57073498
vt -0.25711 1.57073498
vt 0.0963990018 1.57073498
vt 0.0963990018 1.57314098
vt -0.25711 1.57073498
vt 0.0963990018 1.57314098
vt -0.25711 1.57314098
vt 0.25711 0.872659981
vt -0.0963990018 0.872659981
vt -0.0963990018 0.870000005
vt 0.25711 0.872659981
vt -0.0963990018 0.870000005
vt 0.25711 0.870000005
vt 0.25711 0.870000005
vt -0.0963990018 0.870000005
vt -0.0963990018 0.866735995
vt 0.25711 0.870000005
vt -0.0963990018 0.866735995
vt 0.25711 0.866735995
vt 0.25711 0.866735995
vt -0.0963990018 0.866735995
vt -0.0963990018 0.863264024
vt 0.25711 0.866735995
vt -0.0963990018 0.863264024
vt 0.25711 0.863264024
vt 0.25711 0.863264024
vt -0.0963990018 0.863264024
vt -0.0963990018 0.860000014
vt 0.25711 0.863264024
vt -0.0963990018 0.860000014
vt 0.25711 0.860000014
vt 0.25711 0.860000014
vt -0.0963990018 0.860000014
vt -0.0963990018 0.857339978
vt 0.25711 0.860000014
vt -0.0963990018 0.857339978
vt 0.25711 0.857339978
vt 0.25711 1.57314098
vt -0.0963990018 1.57314098
vt -0.0963990018 1.57073498
vt 0.25711 1.57314098
vt -0.0963990018 1.57073498
vt 0.25711 1.57073498
vt 0.25711 1.57073498
vt -0.0963990018 1.57073498
vt -0.0963990018 1.56799901
vt 0.141899005 1.56799901
vt 0.141899005 1.56526303
vt 0.297899008 1.56799901
vt -0.297899008 1.56799901
vt -0.297899008 1.56526303
vt -0.141899005 1.56799901
vt 0.297899008 1.56799901
vt 0.297899008 1.57073498
vt 0.141899005 1.56799901
vt -0.875 1.56799901
vt -0.87439698 1.57073498
vt -0.87439698 1.57073498
vt 0.141899005 1.56799901
vt 0.297899008 1.57073498
vt 0.141899005 1.57073498
vt 0.141899005 1.57073498
vt 0.297899008 1.57073498
vt 0.297899008 1.57314098
vt 0.141899005 1.57073498
vt 0.297899008 1.57314098
vt 0.141899005 1.57314098
vt -0.141899005 0.872659981
vt -0.297899008 0.872659981
vt -0.297899008 0.870000005
vt -0.141899005 0.872659981
vt -0.297899008 0.870000005
vt -0.141899005 0.870000005
vt -0.141899005 0.870000005
vt -0.297899008 0.870000005
vt -0.297899008 0.866735995
vt -0.141899005 0.870000005
vt -0.297899008 0.866735995
vt -0.141899005 0.866735995
vt -0.141899005 0.866735995
vt -0.297899008 0.866735995
vt -0.297899008 0.863264024
vt -0.141899005 0.866735995
vt -0.297899008 0.863264024
vt -0.141899005 0.863264024
vt -0.141899005 0.863264024
vt -0.297899008 0.863264024
vt -0.297899008 0.860000014
vt -0.141899005 0.863264024
vt -0.297899008 0.860000014
vt -0.141899005 0.860000014
vt -0.141899005 0.860000014
vt -0.297899008 0.860000014
vt -0.297899008 0.857339978
vt -0.141899005 0.860000014
vt -0.297899008 0.857339978
vt -0.141899005 0.857339978
vt -0.141899005 1.57314098
vt -0.297899008 1.57314098
vt -0.297899008 1.57073498
vt -0.141899005 1.57314098
vt -0.297899008 1.57073498
vt -0.141899005 1.57073498
vt -0.141899005 1.57073498
vt -0.297899008 1.57073498
vt -0.297899008 1.56799901
vt -0.141899005 1.57073498
vt -0.297899008 1.56799901
vt -0.141899005 1.56799901
vt -0.141899005 1.56799901
vt -0.297899008 1.56526303
vt -0.141899005 1.56526303
vt -0.141899005 1.56526303
vt -0.297899008 1.56526303
vt -0.297899008 1.56285703
vt -0.141899005 1.56526303
vt -0.297899008 1.56285703
vt -0.141899005 1.56285703
vt 0.141899005 0.857339978
vt 0.297899008 0.857339978
vt 0.297899008 0.860000014
vt 0.141899005 0.857339978
vt 0.297899008 0.860000014
vt 0.141899005 0.860000014
vt 0.141899005 0.860000014
vt 0.297899008 0.860000014
vt 0.297899008 0.863264024
vt 0.141899005 0.860000014
vt 0.297899008 0.863264024
vt 0.141899005 0.863264024
vt 0.141899005 0.863264024
vt 0.297899008 0.863264024
vt 0.297899008 0.866735995
vt 0.141899005 0.863264024
vt 0.297899008 0.866735995
vt 0.141899005 0.866735995
vt 0.141899005 0.866735995
vt 0.297899008 0.866735995
vt 0.297899008 0.870000005
vt 0.141899005 0.866735995
vt 0.297899008 0.870000005
vt 0.141899005 0.870000005
vt 0.141899005 0.870000005
vt 0.297899008 0.870000005
vt 0.297899008 0.872659981
vt 0.141899005 0.870000005
vt 0.297899008 0.872659981
vt 0.141899005 0.872659981
vt 0.141899005 1.56285703
vt 0.297899008 1.56285703
vt 0.297899008 1.56526303
vt 0.141899005 1.56285703
vt 0.297899008 1.56526303
vt 0.141899005 1.56526303
vt 0.141899005 1.56526303
vt 0.297899008 1.56526303
vt 0.297899008 1.56799901
vt 0.0963990018 1.48461795
vt -0.25711 1.48461795
vt 0.0963990018 1.47537994
vt 0.0963990018 1.47537994
vt -0.25711 1.48461795
vt -0.25711 1.47537994
vt -0.0963990018 0.824999988
vt 0.25711 0.824999988
vt -0.0963990018 0.834999979
vt -0.0963990018 0.834999979
vt 0.25711 0.824999988
vt 0.25711 0.834999979
vt -0.0963990018 0.824999988
vt -0.0963990018 0.814999998
vt 0.25711 0.824999988
vt 0.25711 0.824999988
vt -0.0963990018 0.814999998
vt 0.25711 0.814999998
vt -0.0963990018 1.48461795
vt -0.0963990018 1.47537994
vt 0.25711 1.48461795
vt 0.25711 1.48461795
vt -0.0963990018 1.47537994
vt 0.25711 1.47537994
vt 0.0963990018 0.814999998
vt 0.0963990018 0.824999988
vt -0.25711 0.814999998
vt -0.25711 0.814999998
vt 0.0963990018 0.824999988
vt -0.25711 0.824999988
vt 0.0963990018 0.834999979
vt -0.25711 0.834999979
vt 0.0963990018 0.824999988
vt 0.0963990018 0.824999988
vt -0.25711 0.834999979
vt -0.25711 0.824999988
vt 0.141899005 0.834999979
vt 0.141899005 0.824999988
vt 0.297899008 0.834999979
vt 0.297899008 0.834999979
vt 0.141899005 0.824999988
vt 0.297899008 0.824999988
vt 0.297899008 0.814999998
vt 0.297899008 0.824999988
vt 0.141899005 0.814999998
vt 0.141899005 0.814999998
vt 0.297899008 0.824999988
vt 0.141899005 0.824999988
vt -0.297899008 1.48461795
vt -0.297899008 1.47537994
vt -0.141899005 1.48461795
vt -0.141899005 1.48461795
vt -0.297899008 1.47537994
vt -0.141899005 1.47537994
vt -0.297899008 0.824999988
vt -0.297899008 0.814999998
vt -0.141899005 0.824999988
vt -0.141899005 0.824999988
vt -0.297899008 0.814999998
vt -0.141899005 0.814999998
vt -0.297899008 0.834999979
vt -0.297899008 0.824999988
vt -0.141899005 0.834999979
vt -0.141899005 0.834999979
vt -0.297899008 0.824999988
vt -0.141899005 0.824999988
vt 0.297899008 1.47537994
vt 0.297899008 1.48461795
vt 0.141899005 1.47537994
vt 0.141899005 1.47537994
vt 0.297899008 1.48461795
vt 0.141899005 1.48461795
f 1/1 2/2 3/3
f 4/4 5/5 6/6
f 7/7 5/8 4/9
f 8/10 9/11 10/12
f 11/13 9/14 8/15
f 1/16 12/17 2/18
f 13/19 14/20 15/21
f 16/22 17/23 18/24
f 13/25 19/26 14/27
f 20/28 21/29 22/30
f 23/31 24/32 25/33
f 26/34 27/35 28/36
f 29/37 30/38 2/39
f 31/40 32/41 33/42
f 31/43 33/44 34/45
f 35/46 36/47 37/48
f 37/49 36/50 38/51
f 31/52 39/53 32/54
f 32/55 39/56 40/57
f 32/58 40/59 41/60
f 41/61 40/62 42/63
f 41/64 42/65 43/66
f 43/67 42/68 44/69
f 43/70 44/71 45/72
f 45/73 44/74 46/75
f 45/76 46/77 47/78
f 47/79 46/80 48/81
f 47/82 48/83 49/84
f 49/85 48/86 50/87
f 49/88 50/89 51/90
f 51/91 50/92 52/93
f 51/94 52/95 53/96
f 53/97 52/98 54/99
f 53/100 54/101 55/102
f 55/103 54/104 56/105
f 55/106 56/107 57/108
f 57/109 56/110 58/111
f 57/112 58/113 59/114
f 59/115 58/116 60/117
f 59/118 60/119 61/120
f 61/121 60/122 62/123
f 61/124 62/125 63/126
f 63/127 62/128 64/129
f 63/130 64/131 65/132
f 65/133 64/134 66/135
f 65/136 66/137 67/138
f 67/139 66/140 68/141
f 67/142 68/143 69/144
f 69/145 68/146 70/147
f 69/148 70/149 71/150
f 71/151 70/152 34/153
f 71/154 34/155 72/156
f 72/157 34/158 33/159
f 73/160 74/161 75/162
f 75/163 74/164 76/165
f 77/166 73/167 78/168
f 78/169 73/170 75/171
f 79/172 77/173 80/174
f 80/175 77/176 78/177
f 81/178 79/179 82/180
f 82/181 79/182 80/183
f 83/184 76/185 84/186
f 84/187 76/188 74/189
f 38/190 85/191 37/192
f 37/193 85/194 86/195
f 85/196 87/197 86/198
f 86/199 87/200 88/201
f 2/202 12/203 29/204
f 29/205 12/206 12/207
f 29/208 12/209 89/210
f 89/211 12/212 90/213
f 89/214 90/215 91/216
f 91/217 90/218 92/219
f 91/220 92/221 93/222
f 93/223 92/224 94/225
f 93/226 94/227 93/228
f 93/229 94/230 95/231
f 93/232 95/233 96/234
f 96/235 95/236 97/237
f 96/238 97/239 98/240
f 98/241 97/242 99/243
f 98/244 99/245 100/246
f 100/247 99/248 101/249
f 100/250 101/251 102/252
f 102/253 101/254 103/255
f 102/256 103/257 104/258
f 104/259 103/260 105/261
f 104/262 105/263 106/264
f 106/265 105/266 107/267
f 106/268 107/269 108/270
f 108/271 107/272 107/273
f 108/274 107/275 109/276
f 109/277 107/278 110/279
f 109/280 110/281 111/282
f 111/283 110/284 112/285
f 111/286 112/287 111/288
f 111/289 112/290 113/291
f 111/292 113/293 13/294
f 13/295 113/296 113/297
f 13/298 113/299 19/300
f 19/301 113/302 114/303
f 19/304 114/305 115/306
f 115/307 114/308 116/309
f 115/310 116/311 117/312
f 117/313 116/314 118/315
f 117/316 118/317 30/318
f 30/319 118/320 119/321
f 30/322 119/323 2/324
f 87/325 120/326 88/327
f 88/328 120/329 121/330
f 122/331 123/332 35/333
f 35/334 123/335 36/336
f 9/337 11/338 124/339
f 124/340 11/341 125/342
f 124/343 125/344 126/345
f 126/346 125/347 127/348
f 126/349 127/350 128/351
f 128/352 127/353 129/354
f 128/355 129/356 130/357
f 130/358 129/359 131/360
f 130/361 131/362 132/363
f 132/364 131/365 133/366
f 132/367 133/368 134/369
f 134/370 133/371 135/372
f 134/373 135/374 136/375
f 136/376 135/377 137/378
f 136/379 137/380 138/381
f 138/382 137/383 139/384
f 138/385 139/386 140/387
f 140/388 139/389 141/390
f 140/391 141/392 142/393
f 142/394 141/395 143/396
f 142/397 143/398 144/399
f 144/400 143/401 145/402
f 144/403 145/404 146/405
f 146/406 145/407 147/408
f 146/409 147/410 148/411
f 148/412 147/413 149/414
f 148/415 149/416 150/417
f 150/418 149/419 151/420
f 150/421 151/422 152/423
f 152/424 151/425 153/426
f 152/427 153/428 154/429
f 154/430 153/431 155/432
f 154/433 155/434 10/435
f 10/436 155/437 8/438
f 14/439 19/440 156/441
f 156/442 19/443 115/444
f 156/445 115/446 157/447
f 157/448 115/449 117/450
f 157/451 117/452 158/453
f 158/454 117/455 30/456
f 158/457 30/458 159/459
f 159/460 30/461 29/462
f 159/463 29/464 160/465
f 160/466 29/467 89/468
f 160/469 89/470 161/471
f 161/472 89/473 91/474
f 161/475 91/476 162/477
f 162/478 91/479 93/480
f 162/481 93/482 163/483
f 163/484 93/485 96/486
f 163/487 96/488 164/489
f 164/490 96/491 98/492
f 164/493 98/494 165/495
f 165/496 98/497 100/498
f 165/499 100/500 166/501
f 166/502 100/503 102/504
f 166/505 102/506 167/507
f 167/508 102/509 104/510
f 167/511 104/512 168/513
f 168/514 104/515 106/516
f 168/517 106/518 169/519
f 169/520 106/521 108/522
f 169/523 108/524 170/525
f 170/526 108/527 109/528
f 170/529 109/530 171/531
f 171/532 109/533 111/534
f 171/535 111/536 15/537
f 15/538 111/539 13/540
f 22/541 21/542 172/543
f 172/544 21/545 173/546
f 172/547 173/548 174/549
f 174/550 173/551 175/552
f 174/553 175/554 176/555
f 176/556 175/557 177/558
f 176/559 177/560 178/561
f 178/562 177/563 179/564
f 178/565 179/566 180/567
f 180/568 179/569 181/570
f 180/571 181/572 182/573
f 182/574 181/575 183/576
f 182/577 183/578 184/579
f 184/580 183/581 185/582
f 184/583 185/584 17/585
f 17/586 185/587 18/588
f 5/589 7/590 186/591
f 186/592 7/593 187/594
f 186/595 187/596 188/597
f 188/598 187/599 189/600
f 188/601 189/602 190/603
f 190/604 189/605 191/606
f 190/607 191/608 192/609
f 192/610 191/611 193/612
f 192/613 193/614 194/615
f 194/616 193/617 195/618
f 194/619 195/620 196/621
f 196/622 195/623 197/624
f 196/625 197/626 198/627
f 198/628 197/629 199/630
f 198/631 199/632 200/633
f 200/634 199/635 201/636
f 200/637 201/638 202/639
f 202/640 201/641 203/642
f 202/643 203/644 204/645
f 204/646 203/647 205/648
f 204/649 205/650 206/651
f 206/652 205/653 207/654
f 206/655 207/656 208/657
f 208/658 207/659 209/660
f 208/661 209/662 210/663
f 210/664 209/665 211/666
f 210/667 211/668 212/669
f 212/670 211/671 213/672
f 212/673 213/674 214/675
f 214/676 213/677 215/678
f 214/679 215/680 216/681
f 216/682 215/683 217/684
f 216/685 217/686 6/687
f 6/688 217/689 4/690
f 22/691 218/692 20/693
f 20/694 218/695 218/696
f 20/697 218/698 219/699
f 219/700 218/701 220/702
f 219/703 220/704 221/705
f 221/706 220/707 222/708
f 221/709 222/710 223/711
f 223/712 222/713 224/714
f 223/715 224/716 225/717
f 225/718 224/719 226/720
f 225/721 226/722 227/723
f 227/724 226/725 228/726
f 227/727 228/728 229/729
f 229/730 228/731 230/732
f 229/733 230/734 231/735
f 231/736 230/737 232/738
f 231/739 232/740 233/741
f 233/742 232/743 16/744
f 233/745 16/746 18/747
f 84/748 81/749 83/750
f 83/751 81/752 82/753
f 121/754 120/755 122/756
f 122/757 120/758 123/759
f 28/760 27/761 234/762
f 234/763 27/764 235/765
f 234/766 235/767 236/768
f 236/769 235/770 237/771
f 236/772 237/773 238/774
f 238/775 237/776 239/777
f 238/778 239/779 240/780
f 240/781 239/782 241/783
f 240/784 241/785 242/786
f 242/787 241/788 243/789
f 242/790 243/791 244/792
f 244/793 243/794 245/795
f 244/796 245/797 246/798
f 246/799 245/800 247/801
f 246/802 247/803 24/804
f 24/805 247/806 25/807
f 25/808 248/809 23/810
f 23/811 248/812 248/813
f 23/814 248/815 249/816
f 249/817 248/818 250/819
f 249/820 250/821 251/822
f 251/823 250/824 252/825
f 251/826 252/827 253/828
f 253/829 252/830 254/831
f 253/832 254/833 255/834
f 255/835 254/836 256/837
f 255/838 256/839 257/840
f 257/841 256/842 258/843
f 257/844 258/845 259/846
f 259/847 258/848 260/849
f 259/850 260/851 261/852
f 261/853 260/854 262/855
f 261/856 262/857 263/858
f 263/859 262/860 26/861
f 263/862 26/863 28/864
f 1/865 264/866 12/867
f 12/868 264/869 265/870
f 12/871 265/872 90/873
f 90/874 265/875 266/876
f 90/877 266/878 92/879
f 92/880 266/881 267/882
f 92/883 267/884 94/885
f 94/886 267/887 268/888
f 94/889 268/890 95/891
f 95/892 268/893 269/894
f 95/895 269/896 97/897
f 97/898 269/899 270/900
f 97/901 270/902 99/903
f 99/904 270/905 271/906
f 99/907 271/908 101/909
f 101/910 271/911 272/912
f 101/913 272/914 103/915
f 103/916 272/917 273/918
f 103/919 273/920 105/921
f 105/922 273/923 274/924
f 105/925 274/926 107/927
f 107/928 274/929 275/930
f 107/931 275/932 110/933
f 110/934 275/935 276/936
f 110/937 276/938 112/939
f 112/940 276/941 277/942
f 112/943 277/944 113/945
f 113/946 277/947 278/948
f 113/949 278/950 114/951
f 114/952 278/953 279/954
f 114/955 279/956 116/957
f 116/958 279/959 280/960
f 116/961 280/962 118/963
f 118/964 280/965 3/966
f 118/967 3/968 119/969
f 119/970 3/971 2/972
f 164/973 165/974 281/975
f 281/976 165/977 166/978
f 281/979 166/980 281/981
f 281/982 166/983 167/984
f 281/985 167/986 281/987
f 281/988 167/989 168/990
f 281/991 168/992 281/993
f 281/994 168/995 169/996
f 281/997 169/998 281/999
f 281/1000 169/1001 170/1002
f 281/1003 170/1004 281/1005
f 281/1006 170/1007 171/1008
f 281/1009 171/1010 281/1011
f 281/1012 171/1013 15/1014
f 281/1015 15/1016 281/1017
f 281/1018 15/1019 14/1020
f 281/1021 14/1022 281/1023
f 281/1024 14/1025 156/1026
f 281/1027 156/1028 281/1029
f 281/1030 156/1031 157/1032
f 281/1033 157/1034 281/1035
f 281/1036 157/1037 158/1038
f 281/1039 158/1040 281/1041
f 281/1042 158/1043 159/1044
f 281/1045 159/1046 281/1047
f 281/1048 159/1049 160/1050
f 281/1051 160/1052 281/1053
f 281/1054 160/1055 161/1056
f 281/1057 161/1058 281/1059
f 281/1060 161/1061 162/1062
f 281/1063 162/1064 281/1065
f 281/1066 162/1067 163/1068
f 281/1069 163/1070 164/1071
f 47/1072 49/1073 282/1074
f 282/1075 49/1076 51/1077
f 282/1078 51/1079 282/1080
f 282/1081 51/1082 53/1083
f 282/1084 53/1085 282/1086
f 282/1087 53/1088 55/1089
f 282/1090 55/1091 282/1092
f 282/1093 55/1094 57/1095
f 282/1096 57/1097 282/1098
f 282/1099 57/1100 59/1101
f 282/1102 59/1103 282/1104
f 282/1105 59/1106 61/1107
f 282/1108 61/1109 282/1110
f 282/1111 61/1112 63/1113
f 282/1114 63/1115 282/1116
f 282/1117 63/1118 65/1119
f 282/1120 65/1121 282/1122
f 282/1123 65/1124 67/1125
f 282/1126 67/1127 282/1128
f 282/1129 67/1130 69/1131
f 282/1132 69/1133 282/1134
f 282/1135 69/1136 71/1137
f 282/1138 71/1139 282/1140
f 282/1141 71/1142 72/1143
f 282/1144 72/1145 282/1146
f 282/1147 72/1148 33/1149
f 282/1150 33/1151 282/1152
f 282/1153 33/1154 32/1155
f 282/1156 32/1157 282/1158
f 282/1159 32/1160 41/1161
f 282/1162 41/1163 282/1164
f 282/1165 41/1166 43/1167
f 282/1168 43/1169 282/1170
f 282/1171 43/1172 45/1173
f 282/1174 45/1175 47/1176
f 283/1177 284/1178 285/1179
f 285/1180 284/1181 286/1182
f 284/1183 283/1184 287/1185
f 287/1186 283/1187 288/1188
f 287/1189 288/1190 289/1191
f 289/1192 288/1193 290/1194
f 289/1195 290/1196 291/1197
f 291/1198 290/1199 292/1200
f 291/1201 292/1202 293/1203
f 293/1204 292/1205 294/1206
f 293/1207 294/1208 295/1209
f 295/1210 294/1211 296/1212
f 295/1213 296/1214 297/1215
f 297/1216 296/1217 298/1218
f 297/1219 298/1220 299/1221
f 299/1222 298/1223 300/1224
f 299/1225 300/1226 301/1227
f 301/1228 300/1229 302/1230
f 301/1231 302/1232 303/1233
f 303/1234 302/1235 304/1236
f 303/1237 304/1238 305/1239
f 305/1240 304/1241 306/1242
f 305/1243 306/1244 307/1245
f 307/1246 306/1247 308/1248
f 307/1249 308/1250 309/1251
f 309/1252 308/1253 310/1254
f 309/1255 310/1256 311/1257
f 311/1258 310/1259 312/1260
f 311/1261 312/1262 313/1263
f 313/1264 312/1265 314/1266
f 313/1267 314/1268 315/1269
f 315/1270 314/1271 316/1272
f 315/1273 316/1274 317/1275
f 317/1276 316/1277 318/1278
f 317/1279 318/1280 286/1281
f 286/1282 318/1283 285/1284
f 319/1285 320/1286 321/1287
f 322/1288 323/1289 324/1290
f 324/1291 325/1292 322/1293
f 322/1294 325/1295 325/1296
f 322/1297 325/1298 326/1299
f 326/1300 325/1301 327/1302
f 326/1303 327/1304 328/1305
f 328/1306 327/1307 329/1308
f 328/1309 329/1310 330/1311
f 330/1312 329/1313 331/1314
f 330/1315 331/1316 332/1317
f 332/1318 331/1319 333/1320
f 332/1321 333/1322 334/1323
f 334/1324 333/1325 335/1326
f 334/1327 335/1328 336/1329
f 336/1330 335/1331 337/1332
f 336/1333 337/1334 338/1335
f 338/1336 337/1337 339/1338
f 338/1339 339/1340 340/1341
f 340/1342 339/1343 319/1344
f 340/1345 319/1346 321/1347
f 324/1348 323/1349 341/1350
f 341/1351 323/1352 342/1353
f 341/1354 342/1355 343/1356
f 343/1357 342/1358 344/1359
f 343/1360 344/1361 345/1362
f 345/1363 344/1364 346/1365
f 345/1366 346/1367 347/1368
f 347/1369 346/1370 348/1371
f 347/1372 348/1373 349/1374
f 349/1375 348/1376 350/1377
f 349/1378 350/1379 351/1380
f 351/1381 350/1382 352/1383
f 351/1384 352/1385 353/1386
f 353/1387 352/1388 354/1389
f 353/1390 354/1391 320/1392
f 320/1393 354/1394 321/1395
f 355/1396 356/1397 357/1398
f 357/1399 356/1400 358/1401
f 356/1402 355/1403 359/1404
f 359/1405 355/1406 360/1407
f 359/1408 360/1409 361/1410
f 361/1411 360/1412 362/1413
f 361/1414 362/1415 363/1416
f 363/1417 362/1418 364/1419
f 363/1420 364/1421 365/1422
f 365/1423 364/1424 366/1425
f 365/1426 366/1427 367/1428
f 367/1429 366/1430 368/1431
f 367/1432 368/1433 369/1434
f 369/1435 368/1436 370/1437
f 369/1438 370/1439 371/1440
f 371/1441 370/1442 372/1443
f 371/1444 372/1445 373/1446
f 373/1447 372/1448 374/1449
f 373/1450 374/1451 375/1452
f 375/1453 374/1454 376/1455
f 375/1456 376/1457 377/1458
f 377/1459 376/1460 378/1461
f 377/1462 378/1463 379/1464
f 379/1465 378/1466 380/1467
f 379/1468 380/1469 381/1470
f 381/1471 380/1472 382/1473
f 381/1474 382/1475 383/1476
f 383/1477 382/1478 384/1479
f 383/1480 384/1481 385/1482
f 385/1483 384/1484 386/1485
f 385/1486 386/1487 387/1488
f 387/1489 386/1490 388/1491
f 387/1492 388/1493 389/1494
f 389/1495 388/1496 390/1497
f 389/1498 390/1499 358/1500
f 358/1501 390/1502 357/1503
f 391/1504 392/1505 393/1506
f 394/1507 395/1508 396/1509
f 393/1510 397/1511 391/1512
f 391/1513 397/1514 397/1515
f 391/1516 397/1517 398/1518
f 398/1519 397/1520 399/1521
f 398/1522 399/1523 400/1524
f 400/1525 399/1526 401/1527
f 400/1528 401/1529 402/1530
f 402/1531 401/1532 403/1533
f 402/1534 403/1535 404/1536
f 404/1537 403/1538 405/1539
f 404/1540 405/1541 406/1542
f 406/1543 405/1544 407/1545
f 406/1546 407/1547 408/1548
f 408/1549 407/1550 409/1551
f 408/1552 409/1553 410/1554
f 410/1555 409/1556 411/1557
f 410/1558 411/1559 412/1560
f 412/1561 411/1562 394/1563
f 412/1564 394/1565 396/1566
f 396/1567 395/1568 413/1569
f 413/1570 395/1571 414/1572
f 413/1573 414/1574 415/1575
f 415/1576 414/1577 416/1578
f 415/1579 416/1580 417/1581
f 417/1582 416/1583 418/1584
f 417/1585 418/1586 419/1587
f 419/1588 418/1589 420/1590
f 419/1591 420/1592 421/1593
f 421/1594 420/1595 422/1596
f 421/1597 422/1598 423/1599
f 423/1600 422/1601 424/1602
f 423/1603 424/1604 425/1605
f 425/1606 424/1607 426/1608
f 425/1609 426/1610 392/1611
f 392/1612 426/1613 393/1614
f 427/1615 428/1616 429/1617
f 429/1618 428/1619 430/1620
f 431/1621 432/1622 427/1623
f 427/1624 432/1625 428/1626
f 431/1627 433/1628 432/1629
f 432/1630 433/1631 434/1632
f 433/1633 435/1634 434/1635
f 434/1636 435/1637 436/1638
f 435/1639 437/1640 436/1641
f 436/1642 437/1643 438/1644
f 429/1645 430/1646 437/1647
f 437/1648 430/1649 438/1650
f 439/1651 440/1652 441/1653
f 441/1654 440/1655 442/1656
f 443/1657 442/1658 444/1659
f 444/1660 442/1661 440/1662
f 445/1663 443/1664 446/1665
f 446/1666 443/1667 444/1668
f 447/1669 445/1670 448/1671
f 448/1672 445/1673 446/1674
f 449/1675 447/1676 450/1677
f 450/1678 447/1679 448/1680
f 441/1681 449/1682 439/1683
f 439/1684 449/1685 450/1686
