# Exported from USD for MuJoCo with source material subsets
v -11.1643186 -6.91449829 0.732996697
v -11.1643186 -6.91845842 0.732996697
v -11.1728986 -6.91449829 0.732996697
v -11.1728986 -6.91845842 0.732996697
v -11.1643188 -7.5674419 0.700559789
v -11.1643188 -7.56942173 0.703989262
v -11.1643188 -7.55315252 0.708809787
v -11.1643188 -7.55513235 0.71223926
v -11.1728988 -7.56942173 0.703989262
v -11.1728988 -7.5674419 0.700559789
v -11.1728987 -7.2187142 0.732996697
v -11.1728987 -7.2187142 0.7164967
v -11.1643187 -7.2187142 0.732996697
v -11.1643187 -7.2187142 0.7164967
v -11.1643186 -6.78693672 0.708809787
v -11.1643186 -6.8012261 0.700559789
v -11.1643186 -6.78891655 0.71223926
v -11.1643186 -6.80320593 0.703989262
v -11.1728985 -6.78891655 0.71223926
v -11.1728985 -6.78693672 0.708809787
v -11.1728985 -6.80320593 0.703989262
v -11.1728985 -6.8012261 0.700559789
v -11.1728988 -7.55513235 0.71223926
v -11.1728988 -7.55315252 0.708809787
v -11.1643186 -6.7800407 0.71223926
v -11.1643185 -6.76575085 0.703989262
v -11.1643186 -6.78202053 0.708809787
v -11.1643185 -6.76773067 0.700559789
v -11.1728985 -6.78202053 0.708809787
v -11.1728985 -6.7800407 0.71223926
v -11.1728985 -6.76773067 0.700559789
v -11.1728985 -6.76575085 0.703989262
v -11.1643188 -7.55267425 0.7164967
v -11.1643188 -7.55267425 0.732996697
v -11.1643188 -7.54871412 0.7164967
v -11.1643188 -7.54871412 0.732996697
v -11.1643186 -6.78645845 0.7164967
v -11.1643186 -6.78645845 0.732996697
v -11.1643186 -6.78249832 0.7164967
v -11.1643186 -6.78249832 0.732996697
v -11.1728985 -6.78249832 0.7164967
v -11.1728985 -6.78645845 0.7164967
v -11.1728985 -6.78249832 0.732996697
v -11.1728985 -6.78645845 0.732996697
v -11.1728988 -7.54871412 0.7164967
v -11.1728988 -7.55267425 0.7164967
v -11.1643186 -6.85293671 0.708809787
v -11.1643186 -6.86722608 0.700559789
v -11.1643186 -6.85491653 0.71223926
v -11.1643186 -6.86920591 0.703989262
v -11.1728986 -6.85491653 0.71223926
v -11.1728986 -6.85293671 0.708809787
v -11.1728986 -6.86920591 0.703989262
v -11.1728986 -6.86722608 0.700559789
v -11.1643188 -7.48025652 0.71223926
v -11.1643188 -7.48223635 0.708809787
v -11.1728988 -7.48025652 0.71223926
v -11.1728988 -7.48223635 0.708809787
v -11.1643186 -6.84604069 0.71223926
v -11.1643186 -6.83175083 0.703989262
v -11.1643186 -6.84802051 0.708809787
v -11.1643186 -6.83373066 0.700559789
v -11.1728986 -6.84802051 0.708809787
v -11.1728986 -6.84604069 0.71223926
v -11.1728985 -6.83373066 0.700559789
v -11.1728985 -6.83175083 0.703989262
v -11.1728988 -7.46596666 0.703989262
v -11.1728988 -7.46794697 0.700559789
v -11.1643188 -7.46596666 0.703989262
v -11.1643188 -7.46794697 0.700559789
v -11.1643186 -6.85245844 0.7164967
v -11.1643186 -6.85245844 0.732996697
v -11.1643186 -6.84849831 0.7164967
v -11.1643186 -6.84849831 0.732996697
v -11.1728986 -6.84849831 0.7164967
v -11.1728986 -6.85245844 0.7164967
v -11.1728986 -6.84849831 0.732996697
v -11.1728986 -6.85245844 0.732996697
v -11.1643188 -7.48913237 0.71223926
v -11.1643188 -7.48715254 0.708809787
v -11.1643188 -7.50342174 0.703989262
v -11.1643188 -7.50144192 0.700559789
v -11.1643186 -6.91893669 0.708809787
v -11.1643186 -6.93322607 0.700559789
v -11.1643186 -6.92091652 0.71223926
v -11.1643186 -6.9352059 0.703989262
v -11.1728986 -6.92091652 0.71223926
v -11.1728986 -6.91893669 0.708809787
v -11.1728986 -6.9352059 0.703989262
v -11.1728986 -6.93322607 0.700559789
v -11.1643186 -6.9869165 0.71223926
v -11.1728986 -6.9869165 0.71223926
v -11.1643186 -6.98493667 0.708809787
v -11.1728986 -6.98493667 0.708809787
v -11.1643186 -7.00120588 0.703989262
v -11.1643186 -6.99922605 0.700559789
v -11.1728987 -7.3546743 0.732996697
v -11.1728987 -7.35071417 0.732996697
v -11.1643187 -7.3546743 0.732996697
v -11.1643187 -7.35071417 0.732996697
v -11.1728987 -7.28867432 0.732996697
v -11.1643187 -7.28867432 0.732996697
v -11.1728987 -7.28867432 0.7164967
v -11.1643187 -7.28867432 0.7164967
v -11.1643187 -7.21823641 0.708809787
v -11.1643187 -7.20394703 0.700559789
v -11.1728987 -7.21823641 0.708809787
v -11.1728987 -7.20394703 0.700559789
v -11.1728987 -7.22513243 0.71223926
v -11.1728987 -7.22315212 0.708809787
v -11.1643187 -7.22513243 0.71223926
v -11.1643187 -7.22315212 0.708809787
v -11.1643187 -7.22267433 0.7164967
v -11.1728987 -7.22267433 0.7164967
v -11.1643187 -7.22267433 0.732996697
v -11.1643187 -7.3571324 0.71223926
v -11.1643187 -7.37142177 0.703989262
v -11.1728987 -7.3571324 0.71223926
v -11.1728987 -7.37142177 0.703989262
v -11.1643187 -7.28471418 0.7164967
v -11.1643187 -7.28471418 0.732996697
v -11.1643186 -6.91204067 0.71223926
v -11.1643186 -6.89775082 0.703989262
v -11.1643186 -6.9140205 0.708809787
v -11.1643186 -6.89973064 0.700559789
v -11.1643187 -7.3546743 0.7164967
v -11.1728987 -7.3546743 0.7164967
v -11.1728986 -6.89973064 0.700559789
v -11.1728986 -6.89775082 0.703989262
v -11.1728988 -7.48913237 0.71223926
v -11.1728988 -7.50342174 0.703989262
v -11.1728986 -6.91204067 0.71223926
v -11.1728986 -6.9140205 0.708809787
v -11.1728986 -7.00120588 0.703989262
v -11.1728988 -7.48271414 0.732996697
v -11.1728988 -7.48271414 0.7164967
v -11.1643188 -7.48271414 0.732996697
v -11.1643188 -7.48271414 0.7164967
v -11.1643188 -7.48667427 0.7164967
v -11.1728988 -7.48667427 0.7164967
v -11.1643188 -7.48667427 0.732996697
v -11.1728988 -7.48667427 0.732996697
v -11.1643187 -7.35071417 0.7164967
v -11.1643186 -6.91449829 0.7164967
v -11.1728986 -6.91449829 0.7164967
v -11.1643186 -6.91845842 0.7164967
v -11.1728986 -6.91845842 0.7164967
v -11.1728987 -7.28471418 0.732996697
v -11.1728986 -6.99922605 0.700559789
v -11.1728987 -7.35071417 0.7164967
v -11.1643187 -7.41623636 0.708809787
v -11.1643187 -7.41425653 0.71223926
v -11.1643187 -7.40194698 0.700559789
v -11.1643187 -7.39996668 0.703989262
v -11.1728988 -7.41425653 0.71223926
v -11.1728987 -7.39996668 0.703989262
v -11.1643186 -6.98002048 0.708809787
v -11.1728986 -6.98002048 0.708809787
v -11.1643186 -6.97804066 0.71223926
v -11.1728986 -6.97804066 0.71223926
v -11.1643186 -6.96573063 0.700559789
v -11.1728986 -6.96573063 0.700559789
v -11.1728987 -7.40194698 0.700559789
v -11.1643187 -7.23942181 0.703989262
v -11.1643187 -7.23744198 0.700559789
v -11.1728986 -6.9637508 0.703989262
v -11.1643186 -6.9637508 0.703989262
v -11.1728988 -7.41623636 0.708809787
v -11.1643187 -7.28423639 0.708809787
v -11.1643187 -7.28225609 0.71223926
v -11.1643187 -7.26994701 0.700559789
v -11.1643187 -7.26796671 0.703989262
v -11.1643186 -6.98445841 0.7164967
v -11.1643186 -6.98445841 0.732996697
v -11.1643186 -6.98049827 0.7164967
v -11.1643186 -6.98049827 0.732996697
v -11.1728986 -6.98049827 0.732996697
v -11.1728986 -6.98445841 0.732996697
v -11.1728986 -6.98445841 0.7164967
v -11.1728986 -6.98049827 0.7164967
v -11.1728987 -7.28225609 0.71223926
v -11.1728987 -7.26796671 0.703989262
v -11.1643187 -7.42115208 0.708809787
v -11.1643187 -7.42313238 0.71223926
v -11.1728988 -7.42115208 0.708809787
v -11.1728988 -7.42313238 0.71223926
v -11.1643186 -7.05291649 0.71223926
v -11.1728987 -7.05291649 0.71223926
v -11.1643186 -7.05093666 0.708809787
v -11.1728987 -7.05093666 0.708809787
v -11.1643187 -7.43544193 0.700559789
v -11.1643187 -7.43742176 0.703989262
v -11.1643187 -7.06720587 0.703989262
v -11.1728987 -7.06720587 0.703989262
v -11.1728987 -7.26994701 0.700559789
v -11.1728988 -7.43544193 0.700559789
v -11.1728987 -7.06522604 0.700559789
v -11.1643186 -7.06522604 0.700559789
v -11.1728987 -7.28471418 0.7164967
v -11.1643186 -7.04404064 0.71223926
v -11.1643186 -7.02975078 0.703989262
v -11.1643186 -7.04602047 0.708809787
v -11.1643186 -7.03173061 0.700559789
v -11.1728988 -7.43742176 0.703989262
v -11.1728987 -7.03173061 0.700559789
v -11.1728987 -7.02975078 0.703989262
v -11.1728987 -7.23744198 0.700559789
v -11.1728987 -7.04404064 0.71223926
v -11.1728987 -7.04602047 0.708809787
v -11.1643187 -7.42067428 0.7164967
v -11.1643187 -7.41671415 0.7164967
v -11.1728988 -7.42067428 0.7164967
v -11.1728988 -7.41671415 0.7164967
v -11.1643187 -7.42067428 0.732996697
v -11.1643187 -7.41671415 0.732996697
v -11.1643186 -7.04649874 0.7164967
v -11.1728987 -7.04649874 0.7164967
v -11.1643186 -7.05045839 0.7164967
v -11.1728987 -7.05045839 0.7164967
v -11.1643187 -7.2162561 0.71223926
v -11.1728987 -7.2162561 0.71223926
v -11.1643187 -7.04649874 0.732996697
v -11.1728987 -7.04649874 0.732996697
v -11.1728988 -7.41671415 0.732996697
v -11.1728988 -7.42067428 0.732996697
v -11.1728987 -7.28423639 0.708809787
v -11.1728987 -7.05045839 0.732996697
v -11.1643187 -7.05045839 0.732996697
v -11.1728987 -7.22267433 0.732996697
v -11.1643188 -7.54823633 0.708809787
v -11.1643188 -7.5462565 0.71223926
v -11.1643188 -7.53394695 0.700559789
v -11.1643188 -7.53196665 0.703989262
v -11.1728988 -7.5462565 0.71223926
v -11.1728988 -7.53196665 0.703989262
v -11.1643187 -7.28915211 0.708809787
v -11.1643187 -7.29113241 0.71223926
v -11.1728987 -7.28915211 0.708809787
v -11.1728987 -7.29113241 0.71223926
v -11.1728988 -7.53394695 0.700559789
v -11.1643187 -7.20196672 0.703989262
v -11.1643187 -7.34825607 0.71223926
v -11.1643187 -7.35023638 0.708809787
v -11.1728987 -7.34825607 0.71223926
v -11.1728987 -7.35023638 0.708809787
v -11.1728988 -7.54823633 0.708809787
v -11.1643187 -7.30344196 0.700559789
v -11.1643187 -7.30542179 0.703989262
v -11.1643187 -7.33396669 0.703989262
v -11.1643187 -7.335947 0.700559789
v -11.1728987 -7.23942181 0.703989262
v -11.1728987 -7.33396669 0.703989262
v -11.1728987 -7.30344196 0.700559789
v -11.1728987 -7.335947 0.700559789
v -11.1728988 -7.54871412 0.732996697
v -11.1728988 -7.55267425 0.732996697
v -11.1643187 -7.35515209 0.708809787
v -11.1643187 -7.36944195 0.700559789
v -11.1728987 -7.35515209 0.708809787
v -11.1728987 -7.36944195 0.700559789
v -11.1728987 -7.30542179 0.703989262
v -11.1728988 -7.48715254 0.708809787
v -11.1728988 -7.50144192 0.700559789
v -11.1728987 -7.20196672 0.703989262
v -11.1728985 -6.72045847 0.7164967
v -11.1728985 -6.72045847 0.732996697
v -11.1643185 -6.72045847 0.7164967
v -11.1643185 -6.72045847 0.732996697
v -11.1728985 -6.71649834 0.732996697
v -11.1643185 -6.71649834 0.732996697
v -11.1728985 -6.71649834 0.7164967
v -11.1643185 -6.71649834 0.7164967
v -11.1643185 -6.69975086 0.703989262
v -11.1643185 -6.71404072 0.71223926
v -11.1728985 -6.69975086 0.703989262
v -11.1728985 -6.71404072 0.71223926
v -11.1728985 -6.70173069 0.700559789
v -11.1643185 -6.70173069 0.700559789
v -11.1728985 -6.71602054 0.708809787
v -11.1643185 -6.71602054 0.708809787
v -11.1643185 -6.73522612 0.700559789
v -11.1643185 -6.72093674 0.708809787
v -11.1728985 -6.73522612 0.700559789
v -11.1728985 -6.72093674 0.708809787
v -11.1728985 -6.73720594 0.703989262
v -11.1643185 -6.73720594 0.703989262
v -11.1728985 -6.72291656 0.71223926
v -11.1643185 -6.72291656 0.71223926
vt -0.00120000006 -0.200080007
vt -0.00120000006 -0.196480006
vt -0.00899999961 -0.200080007
vt -0.00899999961 -0.200080007
vt -0.00120000006 -0.196480006
vt -0.00899999961 -0.196480006
vt -0.633692026 0.393505007
vt -0.636810005 0.395305008
vt -0.641192019 0.380515009
vt -0.641192019 0.380515009
vt -0.636810005 0.395305008
vt -0.644309998 0.38231501
vt 0.00120000006 0.636810005
vt 0.00120000006 0.633692026
vt 0.00899999961 0.636810005
vt 0.00899999961 0.636810005
vt 0.00120000006 0.633692026
vt 0.00899999961 0.633692026
vt -0.00899999961 0.663179994
vt -0.00899999961 0.648180008
vt -0.00120000006 0.663179994
vt -0.00120000006 0.663179994
vt -0.00899999961 0.648180008
vt -0.00120000006 0.648180008
vt -0.641192019 -0.316044986
vt -0.633692026 -0.303054988
vt -0.644309998 -0.314244986
vt -0.644309998 -0.314244986
vt -0.633692026 -0.303054988
vt -0.636810005 -0.301254988
vt -0.00120000006 0.644309998
vt -0.00899999961 0.644309998
vt -0.00120000006 0.641192019
vt -0.00120000006 0.641192019
vt -0.00899999961 0.644309998
vt -0.00899999961 0.641192019
vt -0.00120000006 -0.314244986
vt -0.00120000006 -0.301254988
vt -0.00899999961 -0.314244986
vt -0.00899999961 -0.314244986
vt -0.00120000006 -0.301254988
vt -0.00899999961 -0.301254988
vt 0.00120000006 0.636810005
vt 0.00120000006 0.633692026
vt 0.00899999961 0.636810005
vt 0.00899999961 0.636810005
vt 0.00120000006 0.633692026
vt 0.00899999961 0.633692026
vt -0.00899999961 0.644309998
vt -0.00899999961 0.641192019
vt -0.00120000006 0.644309998
vt -0.00120000006 0.644309998
vt -0.00899999961 0.641192019
vt -0.00120000006 0.641192019
vt 0.00899999961 -0.316044986
vt 0.00899999961 -0.303054988
vt 0.00120000006 -0.316044986
vt 0.00120000006 -0.316044986
vt 0.00899999961 -0.303054988
vt 0.00120000006 -0.303054988
vt -0.644309998 -0.322315007
vt -0.636810005 -0.335305005
vt -0.641192019 -0.320515007
vt -0.641192019 -0.320515007
vt -0.636810005 -0.335305005
vt -0.633692026 -0.333505005
vt 0.00120000006 0.641192019
vt 0.00899999961 0.641192019
vt 0.00120000006 0.644309998
vt 0.00120000006 0.644309998
vt 0.00899999961 0.641192019
vt 0.00899999961 0.644309998
vt 0.00120000006 -0.320515007
vt 0.00120000006 -0.333505005
vt 0.00899999961 -0.320515007
vt 0.00899999961 -0.320515007
vt 0.00120000006 -0.333505005
vt 0.00899999961 -0.333505005
vt -0.00120000006 0.633692026
vt -0.00120000006 0.636810005
vt -0.00899999961 0.633692026
vt -0.00899999961 0.633692026
vt -0.00120000006 0.636810005
vt -0.00899999961 0.636810005
vt -0.648180008 0.380080014
vt -0.663179994 0.380080014
vt -0.648180008 0.376480013
vt -0.648180008 0.376480013
vt -0.663179994 0.380080014
vt -0.663179994 0.376480013
vt -0.00899999961 -0.322315007
vt -0.00899999961 -0.335305005
vt -0.00120000006 -0.322315007
vt -0.00120000006 -0.322315007
vt -0.00899999961 -0.335305005
vt -0.00120000006 -0.335305005
vt -0.648180008 -0.316480011
vt -0.663179994 -0.316480011
vt -0.648180008 -0.320080012
vt -0.648180008 -0.320080012
vt -0.663179994 -0.316480011
vt -0.663179994 -0.320080012
vt 0.00120000006 -0.320080012
vt 0.00899999961 -0.320080012
vt 0.00120000006 -0.316480011
vt 0.00120000006 -0.316480011
vt 0.00899999961 -0.320080012
vt 0.00899999961 -0.316480011
vt -0.00120000006 0.648180008
vt -0.00120000006 0.663179994
vt -0.00899999961 0.648180008
vt -0.00899999961 0.648180008
vt -0.00120000006 0.663179994
vt -0.00899999961 0.663179994
vt -0.00120000006 -0.320080012
vt -0.00120000006 -0.316480011
vt -0.00899999961 -0.320080012
vt -0.00899999961 -0.320080012
vt -0.00120000006 -0.316480011
vt -0.00899999961 -0.316480011
vt 0.00899999961 0.376480013
vt 0.00899999961 0.380080014
vt 0.00120000006 0.376480013
vt 0.00120000006 0.376480013
vt 0.00899999961 0.380080014
vt 0.00120000006 0.380080014
vt 0.00899999961 0.648180008
vt 0.00899999961 0.663179994
vt 0.00120000006 0.648180008
vt 0.00120000006 0.648180008
vt 0.00899999961 0.663179994
vt 0.00120000006 0.663179994
vt -0.641192019 -0.256045014
vt -0.633692026 -0.243055001
vt -0.644309998 -0.254245013
vt -0.644309998 -0.254245013
vt -0.633692026 -0.243055001
vt -0.636810005 -0.241255
vt -0.00120000006 0.644309998
vt -0.00899999961 0.644309998
vt -0.00120000006 0.641192019
vt -0.00120000006 0.641192019
vt -0.00899999961 0.644309998
vt -0.00899999961 0.641192019
vt -0.00120000006 -0.254245013
vt -0.00120000006 -0.241255
vt -0.00899999961 -0.254245013
vt -0.00899999961 -0.254245013
vt -0.00120000006 -0.241255
vt -0.00899999961 -0.241255
vt 0.00120000006 0.636810005
vt 0.00120000006 0.633692026
vt 0.00899999961 0.636810005
vt 0.00899999961 0.636810005
vt 0.00120000006 0.633692026
vt 0.00899999961 0.633692026
vt 0.00120000006 0.644309998
vt 0.00120000006 0.641192019
vt 0.00899999961 0.644309998
vt 0.00899999961 0.644309998
vt 0.00120000006 0.641192019
vt 0.00899999961 0.641192019
vt 0.00899999961 -0.256045014
vt 0.00899999961 -0.243055001
vt 0.00120000006 -0.256045014
vt 0.00120000006 -0.256045014
vt 0.00899999961 -0.243055001
vt 0.00120000006 -0.243055001
vt -0.644309998 -0.262315005
vt -0.636810005 -0.275305003
vt -0.641192019 -0.260515004
vt -0.641192019 -0.260515004
vt -0.636810005 -0.275305003
vt -0.633692026 -0.273505002
vt 0.00120000006 0.641192019
vt 0.00899999961 0.641192019
vt 0.00120000006 0.644309998
vt 0.00120000006 0.644309998
vt 0.00899999961 0.641192019
vt 0.00899999961 0.644309998
vt 0.00120000006 -0.260515004
vt 0.00120000006 -0.273505002
vt 0.00899999961 -0.260515004
vt 0.00899999961 -0.260515004
vt 0.00120000006 -0.273505002
vt 0.00899999961 -0.273505002
vt -0.00120000006 0.633692026
vt -0.00120000006 0.636810005
vt -0.00899999961 0.633692026
vt -0.00899999961 0.633692026
vt -0.00120000006 0.636810005
vt -0.00899999961 0.636810005
vt -0.00899999961 0.636810005
vt -0.00899999961 0.633692026
vt -0.00120000006 0.636810005
vt -0.00120000006 0.636810005
vt -0.00899999961 0.633692026
vt -0.00120000006 0.633692026
vt -0.00899999961 -0.262315005
vt -0.00899999961 -0.275305003
vt -0.00120000006 -0.262315005
vt -0.00120000006 -0.262315005
vt -0.00899999961 -0.275305003
vt -0.00120000006 -0.275305003
vt -0.648180008 -0.256480008
vt -0.663179994 -0.256480008
vt -0.648180008 -0.26008001
vt -0.648180008 -0.26008001
vt -0.663179994 -0.256480008
vt -0.663179994 -0.26008001
vt 0.00120000006 -0.26008001
vt 0.00899999961 -0.26008001
vt 0.00120000006 -0.256480008
vt 0.00120000006 -0.256480008
vt 0.00899999961 -0.26008001
vt 0.00899999961 -0.256480008
vt -0.00120000006 0.648180008
vt -0.00120000006 0.663179994
vt -0.00899999961 0.648180008
vt -0.00899999961 0.648180008
vt -0.00120000006 0.663179994
vt -0.00899999961 0.663179994
vt -0.00120000006 -0.26008001
vt -0.00120000006 -0.256480008
vt -0.00899999961 -0.26008001
vt -0.00899999961 -0.26008001
vt -0.00120000006 -0.256480008
vt -0.00899999961 -0.256480008
vt -0.644309998 0.322315007
vt -0.641192019 0.320515007
vt -0.636810005 0.335305005
vt -0.636810005 0.335305005
vt -0.641192019 0.320515007
vt -0.633692026 0.333505005
vt 0.00899999961 0.648180008
vt 0.00899999961 0.663179994
vt 0.00120000006 0.648180008
vt 0.00120000006 0.648180008
vt 0.00899999961 0.663179994
vt 0.00120000006 0.663179994
vt -0.641192019 -0.196044996
vt -0.633692026 -0.183054999
vt -0.644309998 -0.194244996
vt -0.644309998 -0.194244996
vt -0.633692026 -0.183054999
vt -0.636810005 -0.181254998
vt -0.00120000006 0.644309998
vt -0.00899999961 0.644309998
vt -0.00120000006 0.641192019
vt -0.00120000006 0.641192019
vt -0.00899999961 0.644309998
vt -0.00899999961 0.641192019
vt -0.00120000006 -0.194244996
vt -0.00120000006 -0.181254998
vt -0.00899999961 -0.194244996
vt -0.00899999961 -0.194244996
vt -0.00120000006 -0.181254998
vt -0.00899999961 -0.181254998
vt 0.00120000006 0.636810005
vt 0.00120000006 0.633692026
vt 0.00899999961 0.636810005
vt 0.00899999961 0.636810005
vt 0.00120000006 0.633692026
vt 0.00899999961 0.633692026
vt -0.00120000006 0.644309998
vt -0.00899999961 0.644309998
vt -0.00120000006 0.641192019
vt -0.00120000006 0.641192019
vt -0.00899999961 0.644309998
vt -0.00899999961 0.641192019
vt -0.636810005 -0.121255003
vt -0.644309998 -0.134244993
vt -0.633692026 -0.123055004
vt -0.633692026 -0.123055004
vt -0.644309998 -0.134244993
vt -0.641192019 -0.136044994
vt -0.00899999961 0.200080007
vt -0.00899999961 0.196480006
vt -0.00120000006 0.200080007
vt -0.00120000006 0.200080007
vt -0.00899999961 0.196480006
vt -0.00120000006 0.196480006
vt 0.00899999961 0.663179994
vt 0.00120000006 0.663179994
vt 0.00899999961 0.648180008
vt 0.00899999961 0.648180008
vt 0.00120000006 0.663179994
vt 0.00120000006 0.648180008
vt 0.00120000006 0.0760449991
vt 0.00120000006 0.0630550012
vt 0.00899999961 0.0760449991
vt 0.00899999961 0.0760449991
vt 0.00120000006 0.0630550012
vt 0.00899999961 0.0630550012
vt -0.00899999961 0.644309998
vt -0.00899999961 0.641192019
vt -0.00120000006 0.644309998
vt -0.00120000006 0.644309998
vt -0.00899999961 0.641192019
vt -0.00120000006 0.641192019
vt 0.00120000006 0.0800800025
vt 0.00120000006 0.0764800012
vt 0.00899999961 0.0800800025
vt 0.00899999961 0.0800800025
vt 0.00120000006 0.0764800012
vt 0.00899999961 0.0764800012
vt -0.648180008 0.0800800025
vt -0.663179994 0.0800800025
vt -0.648180008 0.0764800012
vt -0.648180008 0.0764800012
vt -0.663179994 0.0800800025
vt -0.663179994 0.0764800012
vt -0.00120000006 0.202315003
vt -0.00120000006 0.215305001
vt -0.00899999961 0.202315003
vt -0.00899999961 0.202315003
vt -0.00120000006 0.215305001
vt -0.00899999961 0.215305001
vt 0.00899999961 -0.196044996
vt 0.00899999961 -0.183054999
vt 0.00120000006 -0.196044996
vt 0.00120000006 -0.196044996
vt 0.00899999961 -0.183054999
vt 0.00120000006 -0.183054999
vt -0.648180008 0.140080005
vt -0.663179994 0.140080005
vt -0.648180008 0.136480004
vt -0.648180008 0.136480004
vt -0.663179994 0.140080005
vt -0.663179994 0.136480004
vt -0.644309998 -0.202315003
vt -0.636810005 -0.215305001
vt -0.641192019 -0.200515002
vt -0.641192019 -0.200515002
vt -0.636810005 -0.215305001
vt -0.633692026 -0.213505
vt 0.00120000006 0.648180008
vt 0.00899999961 0.648180008
vt 0.00120000006 0.663179994
vt 0.00120000006 0.663179994
vt 0.00899999961 0.648180008
vt 0.00899999961 0.663179994
vt -0.00120000006 0.633692026
vt -0.00120000006 0.636810005
vt -0.00899999961 0.633692026
vt -0.00899999961 0.633692026
vt -0.00120000006 0.636810005
vt -0.00899999961 0.636810005
vt -0.00120000006 0.322315007
vt -0.00120000006 0.335305005
vt -0.00899999961 0.322315007
vt -0.00899999961 0.322315007
vt -0.00120000006 0.335305005
vt -0.00899999961 0.335305005
vt 0.00899999961 0.644309998
vt 0.00120000006 0.644309998
vt 0.00899999961 0.641192019
vt 0.00899999961 0.641192019
vt 0.00120000006 0.644309998
vt 0.00120000006 0.641192019
vt -0.00120000006 -0.134244993
vt -0.00120000006 -0.121255003
vt -0.00899999961 -0.134244993
vt -0.00899999961 -0.134244993
vt -0.00120000006 -0.121255003
vt -0.00899999961 -0.121255003
vt -0.00899999961 0.663179994
vt -0.00899999961 0.648180008
vt -0.00120000006 0.663179994
vt -0.00120000006 0.663179994
vt -0.00899999961 0.648180008
vt -0.00120000006 0.648180008
vt 0.00120000006 0.648180008
vt 0.00899999961 0.648180008
vt 0.00120000006 0.663179994
vt 0.00120000006 0.663179994
vt 0.00899999961 0.648180008
vt 0.00899999961 0.663179994
vt -0.00120000006 -0.215305001
vt -0.00120000006 -0.202315003
vt -0.00899999961 -0.215305001
vt -0.00899999961 -0.215305001
vt -0.00120000006 -0.202315003
vt -0.00899999961 -0.202315003
vt -0.663179994 0.196480006
vt -0.648180008 0.196480006
vt -0.663179994 0.200080007
vt -0.663179994 0.200080007
vt -0.648180008 0.196480006
vt -0.648180008 0.200080007
vt 0.00120000006 -0.200080007
vt 0.00899999961 -0.200080007
vt 0.00120000006 -0.196480006
vt 0.00120000006 -0.196480006
vt 0.00899999961 -0.200080007
vt 0.00899999961 -0.196480006
vt -0.663179994 0.316480011
vt -0.648180008 0.316480011
vt -0.663179994 0.320080012
vt -0.663179994 0.320080012
vt -0.648180008 0.316480011
vt -0.648180008 0.320080012
vt -0.00120000006 0.648180008
vt -0.00120000006 0.663179994
vt -0.00899999961 0.648180008
vt -0.00899999961 0.648180008
vt -0.00120000006 0.663179994
vt -0.00899999961 0.663179994
vt -0.00120000006 0.136480004
vt -0.00120000006 0.140080005
vt -0.00899999961 0.136480004
vt -0.00899999961 0.136480004
vt -0.00120000006 0.140080005
vt -0.00899999961 0.140080005
vt 0.00120000006 0.636810005
vt 0.00120000006 0.633692026
vt 0.00899999961 0.636810005
vt 0.00899999961 0.636810005
vt 0.00120000006 0.633692026
vt 0.00899999961 0.633692026
vt 0.00899999961 0.316480011
vt 0.00899999961 0.320080012
vt 0.00120000006 0.316480011
vt 0.00120000006 0.316480011
vt 0.00899999961 0.320080012
vt 0.00120000006 0.320080012
vt 0.00899999961 0.196480006
vt 0.00899999961 0.200080007
vt 0.00120000006 0.196480006
vt 0.00120000006 0.196480006
vt 0.00899999961 0.200080007
vt 0.00120000006 0.200080007
vt -0.641192019 0.256045014
vt -0.644309998 0.254245013
vt -0.633692026 0.243055001
vt -0.633692026 0.243055001
vt -0.644309998 0.254245013
vt -0.636810005 0.241255
vt -0.00120000006 0.254245013
vt -0.00899999961 0.254245013
vt -0.00120000006 0.241255
vt -0.00120000006 0.241255
vt -0.00899999961 0.254245013
vt -0.00899999961 0.241255
vt 0.00120000006 0.641192019
vt 0.00899999961 0.641192019
vt 0.00120000006 0.644309998
vt 0.00120000006 0.644309998
vt 0.00899999961 0.641192019
vt 0.00899999961 0.644309998
vt -0.00899999961 0.663179994
vt -0.00899999961 0.648180008
vt -0.00120000006 0.663179994
vt -0.00120000006 0.663179994
vt -0.00899999961 0.648180008
vt -0.00120000006 0.648180008
vt 0.00120000006 -0.140515
vt 0.00120000006 -0.153504997
vt 0.00899999961 -0.140515
vt 0.00899999961 -0.140515
vt 0.00120000006 -0.153504997
vt 0.00899999961 -0.153504997
vt -0.00120000006 0.633692026
vt -0.00120000006 0.636810005
vt -0.00899999961 0.633692026
vt -0.00899999961 0.633692026
vt -0.00120000006 0.636810005
vt -0.00899999961 0.636810005
vt -0.644309998 0.0823149979
vt -0.641192019 0.0805149972
vt -0.636810005 0.0953050032
vt -0.636810005 0.0953050032
vt -0.641192019 0.0805149972
vt -0.633692026 0.0935050026
vt -0.00899999961 0.636810005
vt -0.00899999961 0.633692026
vt -0.00120000006 0.636810005
vt -0.00120000006 0.636810005
vt -0.00899999961 0.633692026
vt -0.00120000006 0.633692026
vt 0.00899999961 -0.136044994
vt 0.00899999961 -0.123055004
vt 0.00120000006 -0.136044994
vt 0.00120000006 -0.136044994
vt 0.00899999961 -0.123055004
vt 0.00120000006 -0.123055004
vt 0.00120000006 0.644309998
vt 0.00120000006 0.641192019
vt 0.00899999961 0.644309998
vt 0.00899999961 0.644309998
vt 0.00120000006 0.641192019
vt 0.00899999961 0.641192019
vt -0.641192019 0.136044994
vt -0.644309998 0.134244993
vt -0.633692026 0.123055004
vt -0.633692026 0.123055004
vt -0.644309998 0.134244993
vt -0.636810005 0.121255003
vt -0.648180008 -0.136480004
vt -0.663179994 -0.136480004
vt -0.648180008 -0.140080005
vt -0.648180008 -0.140080005
vt -0.663179994 -0.136480004
vt -0.663179994 -0.140080005
vt -0.644309998 -0.142315
vt -0.636810005 -0.155304998
vt -0.641192019 -0.140515
vt -0.641192019 -0.140515
vt -0.636810005 -0.155304998
vt -0.633692026 -0.153504997
vt -0.00120000006 -0.140080005
vt -0.00120000006 -0.136480004
vt -0.00899999961 -0.140080005
vt -0.00899999961 -0.140080005
vt -0.00120000006 -0.136480004
vt -0.00899999961 -0.136480004
vt 0.00120000006 0.256045014
vt 0.00120000006 0.243055001
vt 0.00899999961 0.256045014
vt 0.00899999961 0.256045014
vt 0.00120000006 0.243055001
vt 0.00899999961 0.243055001
vt 0.00899999961 -0.136480004
vt 0.00120000006 -0.136480004
vt 0.00899999961 -0.140080005
vt 0.00899999961 -0.140080005
vt 0.00120000006 -0.136480004
vt 0.00120000006 -0.140080005
vt -0.00120000006 0.134244993
vt -0.00899999961 0.134244993
vt -0.00120000006 0.121255003
vt -0.00120000006 0.121255003
vt -0.00899999961 0.134244993
vt -0.00899999961 0.121255003
vt -0.00120000006 0.641192019
vt -0.00120000006 0.644309998
vt -0.00899999961 0.641192019
vt -0.00899999961 0.641192019
vt -0.00120000006 0.644309998
vt -0.00899999961 0.644309998
vt 0.00120000006 0.663179994
vt 0.00120000006 0.648180008
vt 0.00899999961 0.663179994
vt 0.00899999961 0.663179994
vt 0.00120000006 0.648180008
vt 0.00899999961 0.648180008
vt -0.00120000006 0.644309998
vt -0.00899999961 0.644309998
vt -0.00120000006 0.641192019
vt -0.00120000006 0.641192019
vt -0.00899999961 0.644309998
vt -0.00899999961 0.641192019
vt -0.633692026 0.273505002
vt -0.636810005 0.275305003
vt -0.641192019 0.260515004
vt -0.641192019 0.260515004
vt -0.636810005 0.275305003
vt -0.644309998 0.262315005
vt -0.00120000006 -0.0742449984
vt -0.00120000006 -0.0612550005
vt -0.00899999961 -0.0742449984
vt -0.00899999961 -0.0742449984
vt -0.00120000006 -0.0612550005
vt -0.00899999961 -0.0612550005
vt -0.00120000006 0.633692026
vt -0.00120000006 0.636810005
vt -0.00899999961 0.633692026
vt -0.00899999961 0.633692026
vt -0.00120000006 0.636810005
vt -0.00899999961 0.636810005
vt 0.00899999961 0.273505002
vt 0.00120000006 0.273505002
vt 0.00899999961 0.260515004
vt 0.00899999961 0.260515004
vt 0.00120000006 0.273505002
vt 0.00120000006 0.260515004
vt 0.00899999961 0.633692026
vt 0.00899999961 0.636810005
vt 0.00120000006 0.633692026
vt 0.00120000006 0.633692026
vt 0.00899999961 0.636810005
vt 0.00120000006 0.636810005
vt -0.00120000006 0.648180008
vt -0.00120000006 0.663179994
vt -0.00899999961 0.648180008
vt -0.00899999961 0.648180008
vt -0.00120000006 0.663179994
vt -0.00899999961 0.663179994
vt -0.644309998 -0.0823149979
vt -0.636810005 -0.0953050032
vt -0.641192019 -0.0805149972
vt -0.641192019 -0.0805149972
vt -0.636810005 -0.0953050032
vt -0.633692026 -0.0935050026
vt -0.00899999961 0.275305003
vt -0.00899999961 0.262315005
vt -0.00120000006 0.275305003
vt -0.00120000006 0.275305003
vt -0.00899999961 0.262315005
vt -0.00120000006 0.262315005
vt -0.00120000006 0.633692026
vt -0.00120000006 0.636810005
vt -0.00899999961 0.633692026
vt -0.00899999961 0.633692026
vt -0.00120000006 0.636810005
vt -0.00899999961 0.636810005
vt 0.00120000006 0.0805149972
vt 0.00899999961 0.0805149972
vt 0.00120000006 0.0935050026
vt 0.00120000006 0.0935050026
vt 0.00899999961 0.0805149972
vt 0.00899999961 0.0935050026
vt 0.00899999961 0.644309998
vt 0.00120000006 0.644309998
vt 0.00899999961 0.641192019
vt 0.00899999961 0.641192019
vt 0.00120000006 0.644309998
vt 0.00120000006 0.641192019
vt 0.00120000006 0.26008001
vt 0.00120000006 0.256480008
vt 0.00899999961 0.26008001
vt 0.00899999961 0.26008001
vt 0.00120000006 0.256480008
vt 0.00899999961 0.256480008
vt 0.00899999961 0.136480004
vt 0.00899999961 0.140080005
vt 0.00120000006 0.136480004
vt 0.00120000006 0.136480004
vt 0.00899999961 0.140080005
vt 0.00120000006 0.140080005
vt -0.00120000006 -0.0953050032
vt -0.00120000006 -0.0823149979
vt -0.00899999961 -0.0953050032
vt -0.00899999961 -0.0953050032
vt -0.00120000006 -0.0823149979
vt -0.00899999961 -0.0823149979
vt -0.648180008 0.26008001
vt -0.663179994 0.26008001
vt -0.648180008 0.256480008
vt -0.648180008 0.256480008
vt -0.663179994 0.26008001
vt -0.663179994 0.256480008
vt 0.00120000006 -0.0800800025
vt 0.00899999961 -0.0800800025
vt 0.00120000006 -0.0764800012
vt 0.00120000006 -0.0764800012
vt 0.00899999961 -0.0800800025
vt 0.00899999961 -0.0764800012
vt 0.00120000006 0.644309998
vt 0.00120000006 0.641192019
vt 0.00899999961 0.644309998
vt 0.00899999961 0.644309998
vt 0.00120000006 0.641192019
vt 0.00899999961 0.641192019
vt -0.00120000006 0.648180008
vt -0.00120000006 0.663179994
vt -0.00899999961 0.648180008
vt -0.00899999961 0.648180008
vt -0.00120000006 0.663179994
vt -0.00899999961 0.663179994
vt -0.00120000006 0.256480008
vt -0.00120000006 0.26008001
vt -0.00899999961 0.256480008
vt -0.00899999961 0.256480008
vt -0.00120000006 0.26008001
vt -0.00899999961 0.26008001
vt 0.00120000006 0.136044994
vt 0.00120000006 0.123055004
vt 0.00899999961 0.136044994
vt 0.00899999961 0.136044994
vt 0.00120000006 0.123055004
vt 0.00899999961 0.123055004
vt -0.00899999961 -0.0764800012
vt -0.00899999961 -0.0800800025
vt -0.00120000006 -0.0764800012
vt -0.00120000006 -0.0764800012
vt -0.00899999961 -0.0800800025
vt -0.00120000006 -0.0800800025
vt -0.00899999961 -0.142315
vt -0.00899999961 -0.155304998
vt -0.00120000006 -0.142315
vt -0.00120000006 -0.142315
vt -0.00899999961 -0.155304998
vt -0.00120000006 -0.155304998
vt 0.00120000006 0.648180008
vt 0.00899999961 0.648180008
vt 0.00120000006 0.663179994
vt 0.00120000006 0.663179994
vt 0.00899999961 0.648180008
vt 0.00899999961 0.663179994
vt -0.641192019 0.376044989
vt -0.644309998 0.374244988
vt -0.633692026 0.363054991
vt -0.633692026 0.363054991
vt -0.644309998 0.374244988
vt -0.636810005 0.36125499
vt -0.00120000006 0.374244988
vt -0.00899999961 0.374244988
vt -0.00120000006 0.36125499
vt -0.00120000006 0.36125499
vt -0.00899999961 0.374244988
vt -0.00899999961 0.36125499
vt -0.00120000006 0.641192019
vt -0.00120000006 0.644309998
vt -0.00899999961 0.641192019
vt -0.00899999961 0.641192019
vt -0.00120000006 0.644309998
vt -0.00899999961 0.644309998
vt -0.00120000006 0.633692026
vt -0.00120000006 0.636810005
vt -0.00899999961 0.633692026
vt -0.00899999961 0.633692026
vt -0.00120000006 0.636810005
vt -0.00899999961 0.636810005
vt -0.00120000006 0.648180008
vt -0.00120000006 0.663179994
vt -0.00899999961 0.648180008
vt -0.00899999961 0.648180008
vt -0.00120000006 0.663179994
vt -0.00899999961 0.663179994
vt -0.636810005 0.0612550005
vt -0.633692026 0.0630550012
vt -0.644309998 0.0742449984
vt -0.644309998 0.0742449984
vt -0.633692026 0.0630550012
vt -0.641192019 0.0760449991
vt 0.00120000006 0.644309998
vt 0.00120000006 0.641192019
vt 0.00899999961 0.644309998
vt 0.00899999961 0.644309998
vt 0.00120000006 0.641192019
vt 0.00899999961 0.641192019
vt 0.00120000006 0.376044989
vt 0.00120000006 0.363054991
vt 0.00899999961 0.376044989
vt 0.00899999961 0.376044989
vt 0.00120000006 0.363054991
vt 0.00899999961 0.363054991
vt -0.633692026 0.153504997
vt -0.636810005 0.155304998
vt -0.641192019 0.140515
vt -0.641192019 0.140515
vt -0.636810005 0.155304998
vt -0.644309998 0.142315
vt -0.636810005 0.181254998
vt -0.633692026 0.183054999
vt -0.644309998 0.194244996
vt -0.644309998 0.194244996
vt -0.633692026 0.183054999
vt -0.641192019 0.196044996
vt 0.00120000006 0.636810005
vt 0.00120000006 0.633692026
vt 0.00899999961 0.636810005
vt 0.00899999961 0.636810005
vt 0.00120000006 0.633692026
vt 0.00899999961 0.633692026
vt -0.00899999961 0.181254998
vt -0.00120000006 0.181254998
vt -0.00899999961 0.194244996
vt -0.00899999961 0.194244996
vt -0.00120000006 0.181254998
vt -0.00120000006 0.194244996
vt 0.00899999961 0.153504997
vt 0.00120000006 0.153504997
vt 0.00899999961 0.140515
vt 0.00899999961 0.140515
vt 0.00120000006 0.153504997
vt 0.00120000006 0.140515
vt -0.00120000006 0.648180008
vt -0.00120000006 0.663179994
vt -0.00899999961 0.648180008
vt -0.00899999961 0.648180008
vt -0.00120000006 0.663179994
vt -0.00899999961 0.663179994
vt 0.00120000006 0.644309998
vt 0.00120000006 0.641192019
vt 0.00899999961 0.644309998
vt 0.00899999961 0.644309998
vt 0.00120000006 0.641192019
vt 0.00899999961 0.641192019
vt 0.00899999961 0.183054999
vt 0.00899999961 0.196044996
vt 0.00120000006 0.183054999
vt 0.00120000006 0.183054999
vt 0.00899999961 0.196044996
vt 0.00120000006 0.196044996
vt -0.00120000006 0.376480013
vt -0.00120000006 0.380080014
vt -0.00899999961 0.376480013
vt -0.00899999961 0.376480013
vt -0.00120000006 0.380080014
vt -0.00899999961 0.380080014
vt -0.644309998 0.202315003
vt -0.641192019 0.200515002
vt -0.636810005 0.215305001
vt -0.636810005 0.215305001
vt -0.641192019 0.200515002
vt -0.633692026 0.213505
vt -0.00120000006 0.0823149979
vt -0.00120000006 0.0953050032
vt -0.00899999961 0.0823149979
vt -0.00899999961 0.0823149979
vt -0.00120000006 0.0953050032
vt -0.00899999961 0.0953050032
vt 0.00120000006 0.200515002
vt 0.00899999961 0.200515002
vt 0.00120000006 0.213505
vt 0.00120000006 0.213505
vt 0.00899999961 0.200515002
vt 0.00899999961 0.213505
vt -0.00899999961 0.155304998
vt -0.00899999961 0.142315
vt -0.00120000006 0.155304998
vt -0.00120000006 0.155304998
vt -0.00899999961 0.142315
vt -0.00120000006 0.142315
vt -0.636810005 0.301254988
vt -0.633692026 0.303054988
vt -0.644309998 0.314244986
vt -0.644309998 0.314244986
vt -0.633692026 0.303054988
vt -0.641192019 0.316044986
vt 0.00120000006 0.636810005
vt 0.00120000006 0.633692026
vt 0.00899999961 0.636810005
vt 0.00899999961 0.636810005
vt 0.00120000006 0.633692026
vt 0.00899999961 0.633692026
vt -0.00899999961 0.301254988
vt -0.00120000006 0.301254988
vt -0.00899999961 0.314244986
vt -0.00899999961 0.314244986
vt -0.00120000006 0.301254988
vt -0.00120000006 0.314244986
vt 0.00120000006 0.320515007
vt 0.00899999961 0.320515007
vt 0.00120000006 0.333505005
vt 0.00120000006 0.333505005
vt 0.00899999961 0.320515007
vt 0.00899999961 0.333505005
vt 0.00899999961 0.633692026
vt 0.00899999961 0.636810005
vt 0.00120000006 0.633692026
vt 0.00120000006 0.633692026
vt 0.00899999961 0.636810005
vt 0.00120000006 0.636810005
vt 0.00899999961 -0.213505
vt 0.00899999961 -0.200515002
vt 0.00120000006 -0.213505
vt 0.00120000006 -0.213505
vt 0.00899999961 -0.200515002
vt 0.00120000006 -0.200515002
vt -0.663179994 -0.200080007
vt -0.648180008 -0.200080007
vt -0.663179994 -0.196480006
vt -0.663179994 -0.196480006
vt -0.648180008 -0.200080007
vt -0.648180008 -0.196480006
vt -0.00899999961 0.320080012
vt -0.00899999961 0.316480011
vt -0.00120000006 0.320080012
vt -0.00120000006 0.320080012
vt -0.00899999961 0.316480011
vt -0.00120000006 0.316480011
vt 0.00120000006 0.663179994
vt 0.00120000006 0.648180008
vt 0.00899999961 0.663179994
vt 0.00899999961 0.663179994
vt 0.00120000006 0.648180008
vt 0.00899999961 0.648180008
vt -0.641192019 -0.0760449991
vt -0.633692026 -0.0630550012
vt -0.644309998 -0.0742449984
vt -0.644309998 -0.0742449984
vt -0.633692026 -0.0630550012
vt -0.636810005 -0.0612550005
vt 0.00120000006 0.636810005
vt 0.00120000006 0.633692026
vt 0.00899999961 0.636810005
vt 0.00899999961 0.636810005
vt 0.00120000006 0.633692026
vt 0.00899999961 0.633692026
vt 0.00899999961 -0.0760449991
vt 0.00899999961 -0.0630550012
vt 0.00120000006 -0.0760449991
vt 0.00120000006 -0.0760449991
vt 0.00899999961 -0.0630550012
vt 0.00120000006 -0.0630550012
vt 0.00120000006 -0.0805149972
vt 0.00120000006 -0.0935050026
vt 0.00899999961 -0.0805149972
vt 0.00899999961 -0.0805149972
vt 0.00120000006 -0.0935050026
vt 0.00899999961 -0.0935050026
vt 0.00120000006 0.648180008
vt 0.00899999961 0.648180008
vt 0.00120000006 0.663179994
vt 0.00120000006 0.663179994
vt 0.00899999961 0.648180008
vt 0.00899999961 0.663179994
vt -0.648180008 -0.0764800012
vt -0.663179994 -0.0764800012
vt -0.648180008 -0.0800800025
vt -0.648180008 -0.0800800025
vt -0.663179994 -0.0764800012
vt -0.663179994 -0.0800800025
vt 0.00899999961 0.648180008
vt 0.00899999961 0.663179994
vt 0.00120000006 0.648180008
vt 0.00120000006 0.648180008
vt 0.00899999961 0.663179994
vt 0.00120000006 0.663179994
vt 0.00120000006 0.644309998
vt 0.00120000006 0.641192019
vt 0.00899999961 0.644309998
vt 0.00899999961 0.644309998
vt 0.00120000006 0.641192019
vt 0.00899999961 0.641192019
vt 0.00120000006 0.380515009
vt 0.00899999961 0.380515009
vt 0.00120000006 0.393505007
vt 0.00120000006 0.393505007
vt 0.00899999961 0.380515009
vt 0.00899999961 0.393505007
vt -0.00120000006 0.633692026
vt -0.00120000006 0.636810005
vt -0.00899999961 0.633692026
vt -0.00899999961 0.633692026
vt -0.00120000006 0.636810005
vt -0.00899999961 0.636810005
vt -0.00899999961 0.636810005
vt -0.00899999961 0.633692026
vt -0.00120000006 0.636810005
vt -0.00120000006 0.636810005
vt -0.00899999961 0.633692026
vt -0.00120000006 0.633692026
vt -0.00120000006 0.38231501
vt -0.00120000006 0.395305008
vt -0.00899999961 0.38231501
vt -0.00899999961 0.38231501
vt -0.00120000006 0.395305008
vt -0.00899999961 0.395305008
vt -0.00899999961 0.0612550005
vt -0.00120000006 0.0612550005
vt -0.00899999961 0.0742449984
vt -0.00899999961 0.0742449984
vt -0.00120000006 0.0612550005
vt -0.00120000006 0.0742449984
vt -0.00899999961 0.0800800025
vt -0.00899999961 0.0764800012
vt -0.00120000006 0.0800800025
vt -0.00120000006 0.0800800025
vt -0.00899999961 0.0764800012
vt -0.00120000006 0.0764800012
vt 0.00899999961 0.303054988
vt 0.00899999961 0.316044986
vt 0.00120000006 0.303054988
vt 0.00120000006 0.303054988
vt 0.00899999961 0.316044986
vt 0.00120000006 0.316044986
vt -0.00899999961 0.644309998
vt -0.00899999961 0.641192019
vt -0.00120000006 0.644309998
vt -0.00120000006 0.644309998
vt -0.00899999961 0.641192019
vt -0.00120000006 0.641192019
vt -0.00120000006 0.641192019
vt -0.00120000006 0.644309998
vt -0.00899999961 0.641192019
vt -0.00899999961 0.641192019
vt -0.00120000006 0.644309998
vt -0.00899999961 0.644309998
vt 0.00120000006 0.636810005
vt 0.00120000006 0.633692026
vt 0.00899999961 0.636810005
vt 0.00899999961 0.636810005
vt 0.00120000006 0.633692026
vt 0.00899999961 0.633692026
vt 0.00120000006 0.648180008
vt 0.00899999961 0.648180008
vt 0.00120000006 0.663179994
vt 0.00120000006 0.663179994
vt 0.00899999961 0.648180008
vt 0.00899999961 0.663179994
vt -0.00899999961 0.663179994
vt -0.00899999961 0.648180008
vt -0.00120000006 0.663179994
vt -0.00120000006 0.663179994
vt -0.00899999961 0.648180008
vt -0.00120000006 0.648180008
vt 0.00899999961 0.648180008
vt 0.00899999961 0.663179994
vt 0.00120000006 0.648180008
vt 0.00120000006 0.648180008
vt 0.00899999961 0.663179994
vt 0.00120000006 0.663179994
vt -0.00899999961 -0.376480013
vt -0.00899999961 -0.380080014
vt -0.00120000006 -0.376480013
vt -0.00120000006 -0.376480013
vt -0.00899999961 -0.380080014
vt -0.00120000006 -0.380080014
vt -0.00899999961 0.663179994
vt -0.00899999961 0.648180008
vt -0.00120000006 0.663179994
vt -0.00120000006 0.663179994
vt -0.00899999961 0.648180008
vt -0.00120000006 0.648180008
vt 0.00899999961 -0.376480013
vt 0.00120000006 -0.376480013
vt 0.00899999961 -0.380080014
vt 0.00899999961 -0.380080014
vt 0.00120000006 -0.376480013
vt 0.00120000006 -0.380080014
vt -0.663179994 -0.380080014
vt -0.648180008 -0.380080014
vt -0.663179994 -0.376480013
vt -0.663179994 -0.376480013
vt -0.648180008 -0.380080014
vt -0.648180008 -0.376480013
vt -0.00120000006 -0.395305008
vt -0.00120000006 -0.38231501
vt -0.00899999961 -0.395305008
vt -0.00899999961 -0.395305008
vt -0.00120000006 -0.38231501
vt -0.00899999961 -0.38231501
vt -0.00899999961 0.636810005
vt -0.00899999961 0.633692026
vt -0.00120000006 0.636810005
vt -0.00120000006 0.636810005
vt -0.00899999961 0.633692026
vt -0.00120000006 0.633692026
vt 0.00899999961 -0.393505007
vt 0.00899999961 -0.380515009
vt 0.00120000006 -0.393505007
vt 0.00120000006 -0.393505007
vt 0.00899999961 -0.380515009
vt 0.00120000006 -0.380515009
vt 0.00899999961 0.644309998
vt 0.00120000006 0.644309998
vt 0.00899999961 0.641192019
vt 0.00899999961 0.641192019
vt 0.00120000006 0.644309998
vt 0.00120000006 0.641192019
vt -0.633692026 -0.393505007
vt -0.641192019 -0.380515009
vt -0.636810005 -0.395305008
vt -0.636810005 -0.395305008
vt -0.641192019 -0.380515009
vt -0.644309998 -0.38231501
vt 0.00120000006 -0.363054991
vt 0.00120000006 -0.376044989
vt 0.00899999961 -0.363054991
vt 0.00899999961 -0.363054991
vt 0.00120000006 -0.376044989
vt 0.00899999961 -0.376044989
vt 0.00899999961 0.633692026
vt 0.00899999961 0.636810005
vt 0.00120000006 0.633692026
vt 0.00120000006 0.633692026
vt 0.00899999961 0.636810005
vt 0.00120000006 0.636810005
vt -0.00899999961 -0.36125499
vt -0.00899999961 -0.374244988
vt -0.00120000006 -0.36125499
vt -0.00120000006 -0.36125499
vt -0.00899999961 -0.374244988
vt -0.00120000006 -0.374244988
vt -0.00899999961 0.641192019
vt -0.00120000006 0.641192019
vt -0.00899999961 0.644309998
vt -0.00899999961 0.644309998
vt -0.00120000006 0.641192019
vt -0.00120000006 0.644309998
vt -0.636810005 -0.36125499
vt -0.644309998 -0.374244988
vt -0.633692026 -0.363054991
vt -0.633692026 -0.363054991
vt -0.644309998 -0.374244988
vt -0.641192019 -0.376044989
f 1/1 2/2 3/3
f 3/4 2/5 4/6
f 5/7 6/8 7/9
f 7/10 6/11 8/12
f 6/13 5/14 9/15
f 9/16 5/17 10/18
f 11/19 12/20 13/21
f 13/22 12/23 14/24
f 15/25 16/26 17/27
f 17/28 16/29 18/30
f 17/31 19/32 15/33
f 15/34 19/35 20/36
f 17/37 18/38 19/39
f 19/40 18/41 21/42
f 18/43 16/44 21/45
f 21/46 16/47 22/48
f 23/49 24/50 8/51
f 8/52 24/53 7/54
f 20/55 22/56 15/57
f 15/58 22/59 16/60
f 25/61 26/62 27/63
f 27/64 26/65 28/66
f 27/67 29/68 25/69
f 25/70 29/71 30/72
f 27/73 28/74 29/75
f 29/76 28/77 31/78
f 28/79 26/80 31/81
f 31/82 26/83 32/84
f 33/85 34/86 35/87
f 35/88 34/89 36/90
f 30/91 32/92 25/93
f 25/94 32/95 26/96
f 37/97 38/98 39/99
f 39/100 38/101 40/102
f 39/103 41/104 37/105
f 37/106 41/107 42/108
f 39/109 40/110 41/111
f 41/112 40/113 43/114
f 40/115 38/116 43/117
f 43/118 38/119 44/120
f 45/121 46/122 35/123
f 35/124 46/125 33/126
f 42/127 44/128 37/129
f 37/130 44/131 38/132
f 47/133 48/134 49/135
f 49/136 48/137 50/138
f 49/139 51/140 47/141
f 47/142 51/143 52/144
f 49/145 50/146 51/147
f 51/148 50/149 53/150
f 50/151 48/152 53/153
f 53/154 48/155 54/156
f 55/157 56/158 57/159
f 57/160 56/161 58/162
f 52/163 54/164 47/165
f 47/166 54/167 48/168
f 59/169 60/170 61/171
f 61/172 60/173 62/174
f 61/175 63/176 59/177
f 59/178 63/179 64/180
f 61/181 62/182 63/183
f 63/184 62/185 65/186
f 62/187 60/188 65/189
f 65/190 60/191 66/192
f 67/193 68/194 69/195
f 69/196 68/197 70/198
f 64/199 66/200 59/201
f 59/202 66/203 60/204
f 71/205 72/206 73/207
f 73/208 72/209 74/210
f 73/211 75/212 71/213
f 71/214 75/215 76/216
f 73/217 74/218 75/219
f 75/220 74/221 77/222
f 74/223 72/224 77/225
f 77/226 72/227 78/228
f 79/229 80/230 81/231
f 81/232 80/233 82/234
f 76/235 78/236 71/237
f 71/238 78/239 72/240
f 83/241 84/242 85/243
f 85/244 84/245 86/246
f 85/247 87/248 83/249
f 83/250 87/251 88/252
f 85/253 86/254 87/255
f 87/256 86/257 89/258
f 86/259 84/260 89/261
f 89/262 84/263 90/264
f 91/265 92/266 93/267
f 93/268 92/269 94/270
f 95/271 91/272 96/273
f 96/274 91/275 93/276
f 97/277 98/278 99/279
f 99/280 98/281 100/282
f 101/283 102/284 103/285
f 103/286 102/287 104/288
f 105/289 106/290 107/291
f 107/292 106/293 108/294
f 109/295 110/296 111/297
f 111/298 110/299 112/300
f 113/301 14/302 114/303
f 114/304 14/305 12/306
f 113/307 115/308 14/309
f 14/310 115/311 13/312
f 116/313 117/314 118/315
f 118/316 117/317 119/318
f 88/319 90/320 83/321
f 83/322 90/323 84/324
f 104/325 102/326 120/327
f 120/328 102/329 121/330
f 122/331 123/332 124/333
f 124/334 123/335 125/336
f 126/337 127/338 99/339
f 99/340 127/341 97/342
f 125/343 123/344 128/345
f 128/346 123/347 129/348
f 79/349 81/350 130/351
f 130/352 81/353 131/354
f 132/355 122/356 133/357
f 133/358 122/359 124/360
f 91/361 95/362 92/363
f 92/364 95/365 134/366
f 135/367 136/368 137/369
f 137/370 136/371 138/372
f 139/373 140/374 141/375
f 141/376 140/377 142/378
f 123/379 122/380 129/381
f 129/382 122/383 132/384
f 100/385 143/386 99/387
f 99/388 143/389 126/390
f 144/391 145/392 146/393
f 146/394 145/395 147/396
f 137/397 138/398 141/399
f 141/400 138/401 139/402
f 144/403 1/404 145/405
f 145/406 1/407 3/408
f 121/409 102/410 148/411
f 148/412 102/413 101/414
f 95/415 96/416 134/417
f 134/418 96/419 149/420
f 136/421 140/422 138/423
f 138/424 140/425 139/426
f 150/427 127/428 143/429
f 143/430 127/431 126/432
f 151/433 152/434 153/435
f 153/436 152/437 154/438
f 152/439 155/440 154/441
f 154/442 155/443 156/444
f 157/445 158/446 159/447
f 159/448 158/449 160/450
f 98/451 150/452 100/453
f 100/454 150/455 143/456
f 157/457 161/458 158/459
f 158/460 161/461 162/462
f 153/463 154/464 163/465
f 163/466 154/467 156/468
f 111/469 112/470 164/471
f 164/472 112/473 165/474
f 166/475 162/476 167/477
f 167/478 162/479 161/480
f 94/481 149/482 93/483
f 93/484 149/485 96/486
f 152/487 151/488 155/489
f 155/490 151/491 168/492
f 169/493 170/494 171/495
f 171/496 170/497 172/498
f 173/499 174/500 175/501
f 175/502 174/503 176/504
f 159/505 167/506 157/507
f 157/508 167/509 161/510
f 176/511 174/512 177/513
f 177/514 174/515 178/516
f 151/517 153/518 168/519
f 168/520 153/521 163/522
f 179/523 173/524 180/525
f 180/526 173/527 175/528
f 170/529 181/530 172/531
f 172/532 181/533 182/534
f 183/535 184/536 185/537
f 185/538 184/539 186/540
f 174/541 173/542 178/543
f 178/544 173/545 179/546
f 187/547 188/548 189/549
f 189/550 188/551 190/552
f 191/553 192/554 183/555
f 183/556 192/557 184/558
f 187/559 193/560 188/561
f 188/562 193/563 194/564
f 171/565 172/566 195/567
f 195/568 172/569 182/570
f 196/571 191/572 185/573
f 185/574 191/575 183/576
f 197/577 194/578 198/579
f 198/580 194/581 193/582
f 120/583 121/584 199/585
f 199/586 121/587 148/588
f 200/589 201/590 202/591
f 202/592 201/593 203/594
f 204/595 186/596 192/597
f 192/598 186/599 184/600
f 203/601 201/602 205/603
f 205/604 201/605 206/606
f 112/607 110/608 165/609
f 165/610 110/611 207/612
f 208/613 200/614 209/615
f 209/616 200/617 202/618
f 210/619 211/620 212/621
f 212/622 211/623 213/624
f 199/625 103/626 120/627
f 120/628 103/629 104/630
f 201/631 200/632 206/633
f 206/634 200/635 208/636
f 210/637 214/638 211/639
f 211/640 214/641 215/642
f 216/643 217/644 218/645
f 218/646 217/647 219/648
f 220/649 105/650 221/651
f 221/652 105/653 107/654
f 216/655 222/656 217/657
f 217/658 222/659 223/660
f 215/661 214/662 224/663
f 224/664 214/665 225/666
f 169/667 171/668 226/669
f 226/670 171/671 195/672
f 227/673 223/674 228/675
f 228/676 223/677 222/678
f 160/679 166/680 159/681
f 159/682 166/683 167/684
f 113/685 114/686 115/687
f 115/688 114/689 229/690
f 230/691 231/692 232/693
f 232/694 231/695 233/696
f 231/697 234/698 233/699
f 233/700 234/701 235/702
f 236/703 237/704 238/705
f 238/706 237/707 239/708
f 232/709 233/710 240/711
f 240/712 233/713 235/714
f 211/715 215/716 213/717
f 213/718 215/719 224/720
f 241/721 106/722 220/723
f 220/724 106/725 105/726
f 242/727 243/728 244/729
f 244/730 243/731 245/732
f 230/733 232/734 246/735
f 246/736 232/737 240/738
f 247/739 248/740 236/741
f 236/742 248/743 237/744
f 249/745 250/746 242/747
f 242/748 250/749 243/750
f 164/751 165/752 251/753
f 251/754 165/755 207/756
f 252/757 249/758 244/759
f 244/760 249/761 242/762
f 253/763 247/764 238/765
f 238/766 247/767 236/768
f 175/769 176/770 180/771
f 180/772 176/773 177/774
f 170/775 169/776 181/777
f 181/778 169/779 226/780
f 254/781 245/782 250/783
f 250/784 245/785 243/786
f 36/787 34/788 255/789
f 255/790 34/791 256/792
f 116/793 257/794 117/795
f 117/796 257/797 258/798
f 111/799 164/800 109/801
f 109/802 164/803 251/804
f 257/805 259/806 258/807
f 258/808 259/809 260/810
f 261/811 239/812 248/813
f 248/814 239/815 237/816
f 69/817 70/818 55/819
f 55/820 70/821 56/822
f 117/823 258/824 119/825
f 119/826 258/827 260/828
f 67/829 69/830 57/831
f 57/832 69/833 55/834
f 80/835 262/836 82/837
f 82/838 262/839 263/840
f 263/841 131/842 82/843
f 82/844 131/845 81/846
f 128/847 133/848 125/849
f 125/850 133/851 124/852
f 1/853 144/854 2/855
f 2/856 144/857 146/858
f 142/859 135/860 141/861
f 141/862 135/863 137/864
f 2/865 146/866 4/867
f 4/868 146/869 147/870
f 189/871 198/872 187/873
f 187/874 198/875 193/876
f 192/877 191/878 204/879
f 204/880 191/881 196/882
f 190/883 197/884 189/885
f 189/886 197/887 198/888
f 202/889 203/890 209/891
f 209/892 203/893 205/894
f 210/895 212/896 214/897
f 214/898 212/899 225/900
f 218/901 228/902 216/903
f 216/904 228/905 222/906
f 219/907 227/908 218/909
f 218/910 227/911 228/912
f 231/913 230/914 234/915
f 234/916 230/917 246/918
f 7/919 24/920 5/921
f 5/922 24/923 10/924
f 106/925 241/926 108/927
f 108/928 241/929 264/930
f 252/931 254/932 249/933
f 249/934 254/935 250/936
f 8/937 6/938 23/939
f 23/940 6/941 9/942
f 264/943 241/944 221/945
f 221/946 241/947 220/948
f 229/949 11/950 115/951
f 115/952 11/953 13/954
f 68/955 58/956 70/957
f 70/958 58/959 56/960
f 118/961 259/962 116/963
f 116/964 259/965 257/966
f 80/967 79/968 262/969
f 262/970 79/971 130/972
f 248/973 247/974 261/975
f 261/976 247/977 253/978
f 33/979 46/980 34/981
f 34/982 46/983 256/984
f 255/985 45/986 36/987
f 36/988 45/989 35/990
f 265/991 266/992 267/993
f 267/994 266/995 268/996
f 266/997 269/998 268/999
f 268/1000 269/1001 270/1002
f 269/1003 271/1004 270/1005
f 270/1006 271/1007 272/1008
f 265/1009 267/1010 271/1011
f 271/1012 267/1013 272/1014
f 270/1015 272/1016 268/1017
f 268/1018 272/1019 267/1020
f 273/1021 274/1022 275/1023
f 275/1024 274/1025 276/1026
f 275/1027 277/1028 273/1029
f 273/1030 277/1031 278/1032
f 277/1033 279/1034 278/1035
f 278/1036 279/1037 280/1038
f 276/1039 274/1040 279/1041
f 279/1042 274/1043 280/1044
f 278/1045 280/1046 273/1047
f 273/1048 280/1049 274/1050
f 281/1051 282/1052 283/1053
f 283/1054 282/1055 284/1056
f 283/1057 285/1058 281/1059
f 281/1060 285/1061 286/1062
f 285/1063 287/1064 286/1065
f 286/1066 287/1067 288/1068
f 284/1069 282/1070 287/1071
f 287/1072 282/1073 288/1074
f 286/1075 288/1076 281/1077
f 281/1078 288/1079 282/1080
