# Exported from USD for MuJoCo with source material subsets
v -0.399504059 5.92959923 0.102500982
v -0.399172299 5.93148035 0.0145009825
v -0.399172359 5.93148035 0.102500982
v 0.829727984 5.03630299 0.102501518
v 0.830059863 5.03818363 0.0145015189
v 0.830059803 5.03818363 0.102501518
v 0.831051565 5.49667162 0.102501518
v 0.831383443 5.49855274 0.0145015189
v 0.831383354 5.49855274 0.102501518
v 0.00166914524 5.00256771 0.102501161
v 0.0020009047 5.00444884 0.0145011613
v 0.00200084509 5.00444884 0.102501161
v -0.000618510824 5.93131108 0.102501161
v -0.000286721569 5.9331922 0.0145011613
v -0.000286781174 5.9331922 0.102501161
v 0.829728044 5.04006523 0.0145015189
v -0.399503999 5.93336195 0.0145009825
v 0.831051624 5.50043339 0.0145015189
v 0.00166923465 5.00632996 0.0145011613
v -0.000618451219 5.93507332 0.0145011613
v -0.399504059 5.93336195 0.102500982
v -0.400459045 5.9350161 0.0145009825
v -0.400459104 5.9350161 0.102500982
v -0.401922279 5.93624348 0.0145009825
v -0.401922398 5.93624348 0.102500982
v -0.403717273 5.93689722 0.0145009825
v -0.403717392 5.93689722 0.102500922
v -0.405627363 5.93689722 0.0145009825
v -0.405627483 5.93689722 0.102500922
v -0.407422298 5.93624348 0.0145009825
v -0.407422357 5.93624348 0.102500922
v -0.408885592 5.9350161 0.0145009229
v -0.408885592 5.9350161 0.102500922
v -0.409840577 5.93336195 0.0145009229
v -0.409840637 5.93336195 0.102500922
v -0.410172277 5.93148035 0.0145009229
v -0.410172396 5.93148035 0.102500922
v -0.409840577 5.92959923 0.0145009229
v -0.409840637 5.92959923 0.102500922
v -0.408885592 5.92794556 0.0145009229
v -0.408885592 5.92794556 0.102500922
v -0.407422298 5.9267177 0.0145009825
v -0.407422357 5.9267177 0.102500922
v -0.405627363 5.92606396 0.0145009825
v -0.405627483 5.92606396 0.102500922
v -0.403717273 5.92606396 0.0145009825
v -0.403717392 5.92606396 0.102500922
v -0.401922279 5.9267177 0.0145009825
v -0.401922398 5.9267177 0.102500982
v -0.400459045 5.92794556 0.0145009825
v -0.400459104 5.92794556 0.102500982
v -0.399503999 5.92959923 0.0145009825
v -0.000618451219 5.93131108 0.0145011613
v -0.00157355605 5.9296574 0.102501161
v -0.00157352625 5.9296574 0.0145011613
v -0.00303676067 5.92842955 0.102501161
v -0.00303670106 5.92842955 0.0145011613
v -0.00483172474 5.9277758 0.102501161
v -0.00483166514 5.9277758 0.0145011613
v -0.0067418748 5.9277758 0.102501161
v -0.00674181519 5.9277758 0.0145011613
v -0.00853683887 5.92842955 0.102501161
v -0.00853677927 5.92842955 0.0145011613
v -0.0100000435 5.9296574 0.102501161
v -0.00999998389 5.9296574 0.0145011613
v -0.0109551185 5.93131108 0.102501161
v -0.0109550589 5.93131108 0.0145011613
v -0.0112868482 5.9331922 0.102501161
v -0.0112867588 5.9331922 0.0145011613
v -0.0109551185 5.93507332 0.102501161
v -0.0109550589 5.93507332 0.0145011613
v -0.0100000435 5.93672747 0.102501161
v -0.00999998389 5.93672747 0.0145011613
v -0.00853683887 5.93795532 0.102501161
v -0.00853677927 5.93795532 0.0145011613
v -0.0067418748 5.93860907 0.102501161
v -0.00674181519 5.93860907 0.0145011613
v -0.00483172474 5.93860907 0.102501161
v -0.00483166514 5.93860907 0.0145011613
v -0.00303676067 5.93795532 0.102501161
v -0.00303670106 5.93795532 0.0145011613
v -0.00157355605 5.93672747 0.102501161
v -0.00157352625 5.93672747 0.0145011613
v -0.000618510824 5.93507332 0.102501161
v 0.00166923465 5.00256771 0.0145011613
v 0.000714100021 5.00091356 0.102501161
v 0.000714159626 5.00091356 0.0145011613
v -0.000749164205 4.99968523 0.102501161
v -0.000749104601 4.99968523 0.0145011613
v -0.00254409848 4.99903244 0.102501161
v -0.00254403887 4.99903244 0.0145011613
v -0.00445418892 4.99903244 0.102501161
v -0.00445412932 4.99903244 0.0145011613
v -0.006249153 4.99968523 0.102501161
v -0.0062490934 4.99968523 0.0145011613
v -0.00771238742 5.00091356 0.102501161
v -0.00771232782 5.00091356 0.0145011613
v -0.00866746245 5.00256771 0.102501161
v -0.00866740285 5.00256771 0.0145011613
v -0.0089991623 5.00444884 0.102501161
v -0.00899910269 5.00444884 0.0145011613
v -0.00866746245 5.00632996 0.102501161
v -0.00866740285 5.00632996 0.0145011613
v -0.00771238742 5.00798458 0.102501161
v -0.00771232782 5.00798458 0.0145011613
v -0.006249153 5.00921196 0.102501161
v -0.0062490934 5.00921196 0.0145011613
v -0.00445418892 5.00986523 0.102501161
v -0.00445412932 5.00986523 0.0145011613
v -0.00254409848 5.00986523 0.102501161
v -0.00254403887 5.00986523 0.0145011613
v -0.000749164205 5.00921196 0.102501161
v -0.000749104601 5.00921196 0.0145011613
v 0.000714100021 5.00798458 0.102501161
v 0.000714159626 5.00798458 0.0145011613
v 0.00166914524 5.00632996 0.102501161
v 0.831051624 5.49667162 0.0145015189
v 0.830096639 5.49501747 0.102501518
v 0.830096669 5.49501747 0.0145015189
v 0.828633375 5.49378962 0.102501518
v 0.828633434 5.49378962 0.0145015189
v 0.826838381 5.49313635 0.102501518
v 0.82683844 5.49313635 0.0145015189
v 0.82492829 5.49313635 0.102501518
v 0.82492832 5.49313635 0.0145015189
v 0.823133356 5.49378962 0.102501518
v 0.823133416 5.49378962 0.0145015189
v 0.821670032 5.495017 0.102501518
v 0.821670092 5.495017 0.0145015189
v 0.820715017 5.49667162 0.102501518
v 0.820715076 5.49667162 0.0145015189
v 0.820383347 5.49855274 0.102501518
v 0.820383436 5.49855274 0.0145015189
v 0.820715017 5.50043339 0.102501518
v 0.820715076 5.50043339 0.0145015189
v 0.821670032 5.50208801 0.102501518
v 0.821670092 5.50208801 0.0145015189
v 0.823133356 5.50331587 0.102501518
v 0.823133416 5.50331587 0.0145015189
v 0.82492829 5.50396961 0.102501518
v 0.82492832 5.50396961 0.0145015189
v 0.826838381 5.50396961 0.102501518
v 0.82683844 5.50396961 0.0145015189
v 0.828633375 5.50331587 0.102501518
v 0.828633434 5.50331587 0.0145015189
v 0.830096639 5.50208801 0.102501518
v 0.830096669 5.50208801 0.0145015189
v 0.831051565 5.50043339 0.102501518
v 0.829728044 5.03630299 0.0145015189
v 0.828772998 5.03464836 0.102501518
v 0.828773058 5.03464836 0.0145015189
v 0.827309645 5.03342051 0.102501518
v 0.827309704 5.03342051 0.0145015189
v 0.82551477 5.03276724 0.102501518
v 0.82551483 5.03276724 0.0145015189
v 0.823604561 5.03276724 0.102501518
v 0.82360462 5.03276724 0.0145015189
v 0.821809626 5.03342051 0.102501518
v 0.821809686 5.03342051 0.0145015189
v 0.820346422 5.03464836 0.102501518
v 0.820346511 5.03464836 0.0145015189
v 0.819391317 5.03630299 0.102501518
v 0.819391376 5.03630299 0.0145015189
v 0.819059647 5.03818363 0.102501518
v 0.819059736 5.03818363 0.0145015189
v 0.819391317 5.04006523 0.102501518
v 0.819391376 5.04006523 0.0145015189
v 0.820346422 5.04171938 0.102501518
v 0.820346511 5.04171938 0.0145015189
v 0.821809626 5.04294676 0.102501518
v 0.821809686 5.04294676 0.0145015189
v 0.823604561 5.04360003 0.102501518
v 0.82360462 5.04360003 0.0145015189
v 0.82551477 5.04360003 0.102501518
v 0.82551483 5.04360003 0.0145015189
v 0.827309645 5.04294676 0.102501518
v 0.827309704 5.04294676 0.0145015189
v 0.828772998 5.04171938 0.102501518
v 0.828773058 5.04171938 0.0145015189
v 0.829727984 5.04006523 0.102501518
v -0.413760596 5.00632996 0.102500922
v -0.414715641 5.00798458 0.102500922
v -0.418928855 5.00444884 0.102500922
v -0.416178816 5.00921196 0.102500922
v -0.41797381 5.00986523 0.102500922
v -0.41988396 5.00986523 0.102500922
v -0.421678835 5.00921196 0.102500922
v -0.423142188 5.00798458 0.102500922
v -0.424097174 5.00632996 0.102500922
v -0.424428814 5.00444884 0.102500922
v -0.424097174 5.00256771 0.102500922
v -0.423142188 5.00091356 0.102500922
v -0.421678835 4.99968523 0.102500922
v -0.41988396 4.99903244 0.102500922
v -0.41797381 4.99903244 0.102500922
v -0.416178816 4.99968523 0.102500922
v -0.414715641 5.00091356 0.102500922
v -0.413760596 5.00256771 0.102500922
v -0.413428836 5.00444884 0.102500922
v -0.0034991437 5.00444884 0.102501161
v -0.404672318 5.93148035 0.0145009825
v 0.824559874 5.03818363 0.0145015189
v -0.404672378 5.93148035 0.102500922
v -0.00578676997 5.9331922 0.102501161
v 0.825883365 5.49855274 0.102501518
v -0.0034990841 5.00444884 0.0145011613
v 0.825883425 5.49855274 0.0145015189
v 0.824559814 5.03818363 0.102501518
v -0.00578671036 5.9331922 0.0145011613
v -0.414715582 5.00091356 0.0145009229
v -0.416178756 4.99968523 0.0145009229
v -0.418928795 5.00444884 0.0145009229
v -0.41797375 4.99903244 0.0145009229
v -0.4198839 4.99903244 0.0145009229
v -0.421678775 4.99968523 0.0145009229
v -0.423142069 5.00091356 0.0145009229
v -0.424097114 5.00256771 0.0145009229
v -0.424428754 5.00444884 0.0145009229
v -0.424097114 5.00632996 0.0145009229
v -0.423142069 5.00798458 0.0145009229
v -0.421678775 5.00921196 0.0145009229
v -0.4198839 5.00986523 0.0145009229
v -0.41797375 5.00986523 0.0145009229
v -0.416178756 5.00921196 0.0145009229
v -0.414715582 5.00798458 0.0145009229
v -0.413760477 5.00632996 0.0145009229
v -0.413428777 5.00444884 0.0145009229
v -0.413760477 5.00256771 0.0145009229
vt -0.0900000036 0.418889999
vt -0.00999999978 0.420599997
vt -0.0900000036 0.420599997
vt -0.0900000036 -0.393198013
vt -0.00999999978 -0.391487986
vt -0.0900000036 -0.391487986
vt -0.0900000036 0.0253190007
vt -0.00999999978 0.0270290002
vt -0.0900000036 0.0270290002
vt -0.0900000036 -0.423866004
vt -0.00999999978 -0.422156006
vt -0.0900000036 -0.422156006
vt -0.0900000036 0.420446008
vt -0.00999999978 0.422156006
vt -0.0900000036 0.422156006
vt -0.0900000036 -0.391487986
vt -0.00999999978 -0.391487986
vt -0.00999999978 -0.389777988
vt -0.0900000036 0.420599997
vt -0.00999999978 0.420599997
vt -0.00999999978 0.422309995
vt -0.0900000036 0.0270290002
vt -0.00999999978 0.0270290002
vt -0.00999999978 0.0287389997
vt -0.0900000036 -0.422156006
vt -0.00999999978 -0.422156006
vt -0.00999999978 -0.420446008
vt -0.0900000036 0.422156006
vt -0.00999999978 0.422156006
vt -0.00999999978 0.423866004
vt -0.0900000036 0.420599997
vt -0.00999999978 0.422309995
vt -0.0900000036 0.422309995
vt -0.0900000036 0.422309995
vt -0.00999999978 0.422309995
vt -0.00999999978 0.423813999
vt -0.0900000036 0.422309995
vt -0.00999999978 0.423813999
vt -0.0900000036 0.423813999
vt 0.644542992 0.0900000036
vt 0.644542992 0.00999999978
vt 0.64587301 0.00999999978
vt 0.644542992 0.0900000036
vt 0.64587301 0.00999999978
vt 0.64587301 0.0900000036
vt 0.64587301 0.0900000036
vt 0.64587301 0.00999999978
vt 0.647504985 0.00999999978
vt 0.64587301 0.0900000036
vt 0.647504985 0.00999999978
vt 0.647504985 0.0900000036
vt 0.647504985 0.0900000036
vt 0.647504985 0.00999999978
vt 0.649241984 0.00999999978
vt 0.647504985 0.0900000036
vt 0.649241984 0.00999999978
vt 0.649241984 0.0900000036
vt 0.649241984 0.0900000036
vt 0.649241984 0.00999999978
vt 0.650873005 0.00999999978
vt 0.649241984 0.0900000036
vt 0.650873005 0.00999999978
vt 0.650873005 0.0900000036
vt 0.650873005 0.0900000036
vt 0.650873005 0.00999999978
vt 0.652203977 0.00999999978
vt 0.650873005 0.0900000036
vt 0.652203977 0.00999999978
vt 0.652203977 0.0900000036
vt 0.0900000036 0.423813999
vt 0.00999999978 0.423813999
vt 0.00999999978 0.422309995
vt 0.0900000036 0.423813999
vt 0.00999999978 0.422309995
vt 0.0900000036 0.422309995
vt 0.0900000036 0.422309995
vt 0.00999999978 0.422309995
vt 0.00999999978 0.420599997
vt 0.0900000036 0.422309995
vt 0.00999999978 0.420599997
vt 0.0900000036 0.420599997
vt 0.0900000036 0.420599997
vt 0.00999999978 0.420599997
vt 0.00999999978 0.418889999
vt 0.0900000036 0.420599997
vt 0.00999999978 0.418889999
vt 0.0900000036 0.418889999
vt 0.0900000036 0.418889999
vt 0.00999999978 0.418889999
vt 0.00999999978 0.417385995
vt 0.0900000036 0.418889999
vt 0.00999999978 0.417385995
vt 0.0900000036 0.417385995
vt -0.652203977 0.0900000036
vt -0.652203977 0.00999999978
vt -0.650873005 0.00999999978
vt -0.652203977 0.0900000036
vt -0.650873005 0.00999999978
vt -0.650873005 0.0900000036
vt -0.650873005 0.0900000036
vt -0.650873005 0.00999999978
vt -0.649241984 0.00999999978
vt -0.650873005 0.0900000036
vt -0.649241984 0.00999999978
vt -0.649241984 0.0900000036
vt -0.649241984 0.0900000036
vt -0.649241984 0.00999999978
vt -0.647504985 0.00999999978
vt -0.649241984 0.0900000036
vt -0.647504985 0.00999999978
vt -0.647504985 0.0900000036
vt -0.647504985 0.0900000036
vt -0.647504985 0.00999999978
vt -0.64587301 0.00999999978
vt -0.647504985 0.0900000036
vt -0.64587301 0.00999999978
vt -0.64587301 0.0900000036
vt -0.64587301 0.0900000036
vt -0.64587301 0.00999999978
vt -0.644542992 0.00999999978
vt -0.64587301 0.0900000036
vt -0.644542992 0.00999999978
vt -0.644542992 0.0900000036
vt -0.0900000036 0.417385995
vt -0.00999999978 0.417385995
vt -0.00999999978 0.418889999
vt -0.0900000036 0.417385995
vt -0.00999999978 0.418889999
vt -0.0900000036 0.418889999
vt -0.0900000036 0.418889999
vt -0.00999999978 0.418889999
vt -0.00999999978 0.420599997
vt -0.00999999978 0.422156006
vt -0.0900000036 0.420446008
vt -0.00999999978 0.420446008
vt -0.00999999978 0.420446008
vt -0.0900000036 0.420446008
vt -0.0900000036 0.418942004
vt -0.00999999978 0.420446008
vt -0.0900000036 0.418942004
vt -0.00999999978 0.418942004
vt -0.281919986 0.00999999978
vt -0.281919986 0.0900000036
vt -0.283250004 0.0900000036
vt -0.281919986 0.00999999978
vt -0.283250004 0.0900000036
vt -0.283250004 0.00999999978
vt -0.283250004 0.00999999978
vt -0.283250004 0.0900000036
vt -0.284882009 0.0900000036
vt -0.283250004 0.00999999978
vt -0.284882009 0.0900000036
vt -0.284882009 0.00999999978
vt -0.284882009 0.00999999978
vt -0.284882009 0.0900000036
vt -0.286617994 0.0900000036
vt -0.284882009 0.00999999978
vt -0.286617994 0.0900000036
vt -0.286617994 0.00999999978
vt -0.286617994 0.00999999978
vt -0.286617994 0.0900000036
vt -0.288249999 0.0900000036
vt -0.286617994 0.00999999978
vt -0.288249999 0.0900000036
vt -0.288249999 0.00999999978
vt -0.288249999 0.00999999978
vt -0.288249999 0.0900000036
vt -0.289579988 0.0900000036
vt -0.288249999 0.00999999978
vt -0.289579988 0.0900000036
vt -0.289579988 0.00999999978
vt 0.00999999978 0.418942004
vt 0.0900000036 0.418942004
vt 0.0900000036 0.420446008
vt 0.00999999978 0.418942004
vt 0.0900000036 0.420446008
vt 0.00999999978 0.420446008
vt 0.00999999978 0.420446008
vt 0.0900000036 0.420446008
vt 0.0900000036 0.422156006
vt 0.00999999978 0.420446008
vt 0.0900000036 0.422156006
vt 0.00999999978 0.422156006
vt 0.00999999978 0.422156006
vt 0.0900000036 0.422156006
vt 0.0900000036 0.423866004
vt 0.00999999978 0.422156006
vt 0.0900000036 0.423866004
vt 0.00999999978 0.423866004
vt 0.00999999978 0.423866004
vt 0.0900000036 0.423866004
vt 0.0900000036 0.425370008
vt 0.00999999978 0.423866004
vt 0.0900000036 0.425370008
vt 0.00999999978 0.425370008
vt 0.289579988 0.00999999978
vt 0.289579988 0.0900000036
vt 0.288249999 0.0900000036
vt 0.289579988 0.00999999978
vt 0.288249999 0.0900000036
vt 0.288249999 0.00999999978
vt 0.288249999 0.00999999978
vt 0.288249999 0.0900000036
vt 0.286617994 0.0900000036
vt 0.288249999 0.00999999978
vt 0.286617994 0.0900000036
vt 0.286617994 0.00999999978
vt 0.286617994 0.00999999978
vt 0.286617994 0.0900000036
vt 0.284882009 0.0900000036
vt 0.286617994 0.00999999978
vt 0.284882009 0.0900000036
vt 0.284882009 0.00999999978
vt 0.284882009 0.00999999978
vt 0.284882009 0.0900000036
vt 0.283250004 0.0900000036
vt 0.284882009 0.00999999978
vt 0.283250004 0.0900000036
vt 0.283250004 0.00999999978
vt 0.283250004 0.00999999978
vt 0.283250004 0.0900000036
vt 0.281919986 0.0900000036
vt 0.283250004 0.00999999978
vt 0.281919986 0.0900000036
vt 0.281919986 0.00999999978
vt -0.00999999978 0.425370008
vt -0.0900000036 0.425370008
vt -0.0900000036 0.423866004
vt -0.00999999978 0.425370008
vt -0.0900000036 0.423866004
vt -0.00999999978 0.423866004
vt -0.00999999978 0.423866004
vt -0.0900000036 0.423866004
vt -0.0900000036 0.422156006
vt -0.00999999978 -0.422156006
vt -0.0900000036 -0.423866004
vt -0.00999999978 -0.423866004
vt -0.00999999978 -0.423866004
vt -0.0900000036 -0.423866004
vt -0.0900000036 -0.425370008
vt -0.00999999978 -0.423866004
vt -0.0900000036 -0.425370008
vt -0.00999999978 -0.425370008
vt -0.279841006 0.00999999978
vt -0.279841006 0.0900000036
vt -0.281170994 0.0900000036
vt -0.279841006 0.00999999978
vt -0.281170994 0.0900000036
vt -0.281170994 0.00999999978
vt -0.281170994 0.00999999978
vt -0.281170994 0.0900000036
vt -0.282802999 0.0900000036
vt -0.281170994 0.00999999978
vt -0.282802999 0.0900000036
vt -0.282802999 0.00999999978
vt -0.282802999 0.00999999978
vt -0.282802999 0.0900000036
vt -0.284539014 0.0900000036
vt -0.282802999 0.00999999978
vt -0.284539014 0.0900000036
vt -0.284539014 0.00999999978
vt -0.284539014 0.00999999978
vt -0.284539014 0.0900000036
vt -0.286170989 0.0900000036
vt -0.284539014 0.00999999978
vt -0.286170989 0.0900000036
vt -0.286170989 0.00999999978
vt -0.286170989 0.00999999978
vt -0.286170989 0.0900000036
vt -0.287501007 0.0900000036
vt -0.286170989 0.00999999978
vt -0.287501007 0.0900000036
vt -0.287501007 0.00999999978
vt 0.00999999978 -0.425370008
vt 0.0900000036 -0.425370008
vt 0.0900000036 -0.423866004
vt 0.00999999978 -0.425370008
vt 0.0900000036 -0.423866004
vt 0.00999999978 -0.423866004
vt 0.00999999978 -0.423866004
vt 0.0900000036 -0.423866004
vt 0.0900000036 -0.422156006
vt 0.00999999978 -0.423866004
vt 0.0900000036 -0.422156006
vt 0.00999999978 -0.422156006
vt 0.00999999978 -0.422156006
vt 0.0900000036 -0.422156006
vt 0.0900000036 -0.420446008
vt 0.00999999978 -0.422156006
vt 0.0900000036 -0.420446008
vt 0.00999999978 -0.420446008
vt 0.00999999978 -0.420446008
vt 0.0900000036 -0.420446008
vt 0.0900000036 -0.418942004
vt 0.00999999978 -0.420446008
vt 0.0900000036 -0.418942004
vt 0.00999999978 -0.418942004
vt 0.287501007 0.00999999978
vt 0.287501007 0.0900000036
vt 0.286170989 0.0900000036
vt 0.287501007 0.00999999978
vt 0.286170989 0.0900000036
vt 0.286170989 0.00999999978
vt 0.286170989 0.00999999978
vt 0.286170989 0.0900000036
vt 0.284539014 0.0900000036
vt 0.286170989 0.00999999978
vt 0.284539014 0.0900000036
vt 0.284539014 0.00999999978
vt 0.284539014 0.00999999978
vt 0.284539014 0.0900000036
vt 0.282802999 0.0900000036
vt 0.284539014 0.00999999978
vt 0.282802999 0.0900000036
vt 0.282802999 0.00999999978
vt 0.282802999 0.00999999978
vt 0.282802999 0.0900000036
vt 0.281170994 0.0900000036
vt 0.282802999 0.00999999978
vt 0.281170994 0.0900000036
vt 0.281170994 0.00999999978
vt 0.281170994 0.00999999978
vt 0.281170994 0.0900000036
vt 0.279841006 0.0900000036
vt 0.281170994 0.00999999978
vt 0.279841006 0.0900000036
vt 0.279841006 0.00999999978
vt -0.00999999978 -0.418942004
vt -0.0900000036 -0.418942004
vt -0.0900000036 -0.420446008
vt -0.00999999978 -0.418942004
vt -0.0900000036 -0.420446008
vt -0.00999999978 -0.420446008
vt -0.00999999978 -0.420446008
vt -0.0900000036 -0.420446008
vt -0.0900000036 -0.422156006
vt -0.00999999978 0.0270290002
vt -0.0900000036 0.0253190007
vt -0.00999999978 0.0253190007
vt -0.00999999978 0.0253190007
vt -0.0900000036 0.0253190007
vt -0.0900000036 0.0238150004
vt -0.00999999978 0.0253190007
vt -0.0900000036 0.0238150004
vt -0.00999999978 0.0238150004
vt 0.474144012 0.00999999978
vt 0.474144012 0.0900000036
vt 0.47281301 0.0900000036
vt 0.474144012 0.00999999978
vt 0.47281301 0.0900000036
vt 0.47281301 0.00999999978
vt 0.47281301 0.00999999978
vt 0.47281301 0.0900000036
vt 0.471181989 0.0900000036
vt 0.47281301 0.00999999978
vt 0.471181989 0.0900000036
vt 0.471181989 0.00999999978
vt 0.471181989 0.00999999978
vt 0.471181989 0.0900000036
vt 0.46944499 0.0900000036
vt 0.471181989 0.00999999978
vt 0.46944499 0.0900000036
vt 0.46944499 0.00999999978
vt 0.46944499 0.00999999978
vt 0.46944499 0.0900000036
vt 0.467812985 0.0900000036
vt 0.46944499 0.00999999978
vt 0.467812985 0.0900000036
vt 0.467812985 0.00999999978
vt 0.467812985 0.00999999978
vt 0.467812985 0.0900000036
vt 0.466482997 0.0900000036
vt 0.467812985 0.00999999978
vt 0.466482997 0.0900000036
vt 0.466482997 0.00999999978
vt 0.00999999978 0.0238150004
vt 0.0900000036 0.0238150004
vt 0.0900000036 0.0253190007
vt 0.00999999978 0.0238150004
vt 0.0900000036 0.0253190007
vt 0.00999999978 0.0253190007
vt 0.00999999978 0.0253190007
vt 0.0900000036 0.0253190007
vt 0.0900000036 0.0270290002
vt 0.00999999978 0.0253190007
vt 0.0900000036 0.0270290002
vt 0.00999999978 0.0270290002
vt 0.00999999978 0.0270290002
vt 0.0900000036 0.0270290002
vt 0.0900000036 0.0287389997
vt 0.00999999978 0.0270290002
vt 0.0900000036 0.0287389997
vt 0.00999999978 0.0287389997
vt 0.00999999978 0.0287389997
vt 0.0900000036 0.0287389997
vt 0.0900000036 0.030243
vt 0.00999999978 0.0287389997
vt 0.0900000036 0.030243
vt 0.00999999978 0.030243
vt -0.466482997 0.00999999978
vt -0.466482997 0.0900000036
vt -0.467812985 0.0900000036
vt -0.466482997 0.00999999978
vt -0.467812985 0.0900000036
vt -0.467812985 0.00999999978
vt -0.467812985 0.00999999978
vt -0.467812985 0.0900000036
vt -0.46944499 0.0900000036
vt -0.467812985 0.00999999978
vt -0.46944499 0.0900000036
vt -0.46944499 0.00999999978
vt -0.46944499 0.00999999978
vt -0.46944499 0.0900000036
vt -0.471181989 0.0900000036
vt -0.46944499 0.00999999978
vt -0.471181989 0.0900000036
vt -0.471181989 0.00999999978
vt -0.471181989 0.00999999978
vt -0.471181989 0.0900000036
vt -0.47281301 0.0900000036
vt -0.471181989 0.00999999978
vt -0.47281301 0.0900000036
vt -0.47281301 0.00999999978
vt -0.47281301 0.00999999978
vt -0.47281301 0.0900000036
vt -0.474144012 0.0900000036
vt -0.47281301 0.00999999978
vt -0.474144012 0.0900000036
vt -0.474144012 0.00999999978
vt -0.00999999978 0.030243
vt -0.0900000036 0.030243
vt -0.0900000036 0.0287389997
vt -0.00999999978 0.030243
vt -0.0900000036 0.0287389997
vt -0.00999999978 0.0287389997
vt -0.00999999978 0.0287389997
vt -0.0900000036 0.0287389997
vt -0.0900000036 0.0270290002
vt -0.00999999978 -0.391487986
vt -0.0900000036 -0.393198013
vt -0.00999999978 -0.393198013
vt -0.00999999978 -0.393198013
vt -0.0900000036 -0.393198013
vt -0.0900000036 -0.394701988
vt -0.00999999978 -0.393198013
vt -0.0900000036 -0.394701988
vt -0.00999999978 -0.394701988
vt 0.472939998 0.00999999978
vt 0.472939998 0.0900000036
vt 0.47161001 0.0900000036
vt 0.472939998 0.00999999978
vt 0.47161001 0.0900000036
vt 0.47161001 0.00999999978
vt 0.47161001 0.00999999978
vt 0.47161001 0.0900000036
vt 0.469978005 0.0900000036
vt 0.47161001 0.00999999978
vt 0.469978005 0.0900000036
vt 0.469978005 0.00999999978
vt 0.469978005 0.00999999978
vt 0.469978005 0.0900000036
vt 0.46824199 0.0900000036
vt 0.469978005 0.00999999978
vt 0.46824199 0.0900000036
vt 0.46824199 0.00999999978
vt 0.46824199 0.00999999978
vt 0.46824199 0.0900000036
vt 0.466610014 0.0900000036
vt 0.46824199 0.00999999978
vt 0.466610014 0.0900000036
vt 0.466610014 0.00999999978
vt 0.466610014 0.00999999978
vt 0.466610014 0.0900000036
vt 0.465279996 0.0900000036
vt 0.466610014 0.00999999978
vt 0.465279996 0.0900000036
vt 0.465279996 0.00999999978
vt 0.00999999978 -0.394701988
vt 0.0900000036 -0.394701988
vt 0.0900000036 -0.393198013
vt 0.00999999978 -0.394701988
vt 0.0900000036 -0.393198013
vt 0.00999999978 -0.393198013
vt 0.00999999978 -0.393198013
vt 0.0900000036 -0.393198013
vt 0.0900000036 -0.391487986
vt 0.00999999978 -0.393198013
vt 0.0900000036 -0.391487986
vt 0.00999999978 -0.391487986
vt 0.00999999978 -0.391487986
vt 0.0900000036 -0.391487986
vt 0.0900000036 -0.389777988
vt 0.00999999978 -0.391487986
vt 0.0900000036 -0.389777988
vt 0.00999999978 -0.389777988
vt 0.00999999978 -0.389777988
vt 0.0900000036 -0.389777988
vt 0.0900000036 -0.388274014
vt 0.00999999978 -0.389777988
vt 0.0900000036 -0.388274014
vt 0.00999999978 -0.388274014
vt -0.465279996 0.00999999978
vt -0.465279996 0.0900000036
vt -0.466610014 0.0900000036
vt -0.465279996 0.00999999978
vt -0.466610014 0.0900000036
vt -0.466610014 0.00999999978
vt -0.466610014 0.00999999978
vt -0.466610014 0.0900000036
vt -0.46824199 0.0900000036
vt -0.466610014 0.00999999978
vt -0.46824199 0.0900000036
vt -0.46824199 0.00999999978
vt -0.46824199 0.00999999978
vt -0.46824199 0.0900000036
vt -0.469978005 0.0900000036
vt -0.46824199 0.00999999978
vt -0.469978005 0.0900000036
vt -0.469978005 0.00999999978
vt -0.469978005 0.00999999978
vt -0.469978005 0.0900000036
vt -0.47161001 0.0900000036
vt -0.469978005 0.00999999978
vt -0.47161001 0.0900000036
vt -0.47161001 0.00999999978
vt -0.47161001 0.00999999978
vt -0.47161001 0.0900000036
vt -0.472939998 0.0900000036
vt -0.47161001 0.00999999978
vt -0.472939998 0.0900000036
vt -0.472939998 0.00999999978
vt -0.00999999978 -0.388274014
vt -0.0900000036 -0.388274014
vt -0.0900000036 -0.389777988
vt -0.00999999978 -0.388274014
vt -0.0900000036 -0.389777988
vt -0.00999999978 -0.389777988
vt -0.00999999978 -0.389777988
vt -0.0900000036 -0.389777988
vt -0.0900000036 -0.391487986
vt -0.656636 -0.420446008
vt -0.657504022 -0.418942004
vt -0.661333978 -0.422156006
vt -0.661333978 -0.422156006
vt -0.657504022 -0.418942004
vt -0.658833981 -0.417825997
vt -0.0900000036 -0.422156006
vt -0.0900000036 -0.417825997
vt -0.0900000036 -0.422156006
vt -0.661333978 -0.422156006
vt -0.658833981 -0.417825997
vt -0.660466015 -0.417232007
vt -0.0900000036 -0.422156006
vt -0.0900000036 -0.417232007
vt -0.0900000036 -0.422156006
vt -0.661333978 -0.422156006
vt -0.660466015 -0.417232007
vt -0.662202001 -0.417232007
vt -0.0900000036 -0.422156006
vt -0.0900000036 -0.417232007
vt -0.0900000036 -0.422156006
vt -0.661333978 -0.422156006
vt -0.662202001 -0.417232007
vt -0.663833976 -0.417825997
vt -0.0900000036 -0.422156006
vt -0.0900000036 -0.417825997
vt -0.0900000036 -0.422156006
vt -0.661333978 -0.422156006
vt -0.663833976 -0.417825997
vt -0.665163994 -0.418942004
vt -0.0900000036 -0.422156006
vt -0.0900000036 -0.418942004
vt -0.0900000036 -0.422156006
vt -0.661333978 -0.422156006
vt -0.665163994 -0.418942004
vt -0.66603303 -0.420446008
vt -0.0900000036 -0.422156006
vt -0.0900000036 -0.420446008
vt -0.0900000036 -0.422156006
vt -0.661333978 -0.422156006
vt -0.66603303 -0.420446008
vt -0.666333973 -0.422156006
vt -0.0900000036 -0.422156006
vt -0.0900000036 -0.422156006
vt -0.0900000036 -0.422156006
vt -0.661333978 -0.422156006
vt -0.666333973 -0.422156006
vt -0.66603303 -0.423866004
vt -0.0900000036 -0.422156006
vt -0.0900000036 -0.423866004
vt -0.0900000036 -0.422156006
vt -0.661333978 -0.422156006
vt -0.66603303 -0.423866004
vt -0.665163994 -0.425370008
vt -0.0900000036 -0.422156006
vt -0.0900000036 -0.425370008
vt -0.0900000036 -0.422156006
vt -0.661333978 -0.422156006
vt -0.665163994 -0.425370008
vt -0.663833976 -0.426485986
vt -0.0900000036 -0.422156006
vt -0.0900000036 -0.426485986
vt -0.0900000036 -0.422156006
vt -0.661333978 -0.422156006
vt -0.663833976 -0.426485986
vt -0.662202001 -0.427080005
vt -0.0900000036 -0.422156006
vt -0.0900000036 -0.427080005
vt -0.0900000036 -0.422156006
vt -0.661333978 -0.422156006
vt -0.662202001 -0.427080005
vt -0.660466015 -0.427080005
vt -0.0900000036 -0.422156006
vt -0.0900000036 -0.427080005
vt -0.0900000036 -0.422156006
vt -0.661333978 -0.422156006
vt -0.660466015 -0.427080005
vt -0.658833981 -0.426485986
vt -0.0900000036 -0.422156006
vt -0.0900000036 -0.426485986
vt -0.0900000036 -0.422156006
vt -0.661333978 -0.422156006
vt -0.658833981 -0.426485986
vt -0.657504022 -0.425370008
vt -0.0900000036 -0.422156006
vt -0.0900000036 -0.425370008
vt -0.0900000036 -0.422156006
vt -0.661333978 -0.422156006
vt -0.657504022 -0.425370008
vt -0.656636 -0.423866004
vt -0.0900000036 -0.422156006
vt -0.0900000036 -0.423866004
vt -0.0900000036 -0.422156006
vt -0.661333978 -0.422156006
vt -0.656636 -0.423866004
vt -0.656333983 -0.422156006
vt -0.661333978 -0.422156006
vt -0.656333983 -0.422156006
vt -0.656636 -0.420446008
vt -0.278972 -0.420446008
vt -0.279841006 -0.418942004
vt -0.283670992 -0.422156006
vt -0.283670992 -0.422156006
vt -0.279841006 -0.418942004
vt -0.281170994 -0.417825997
vt -0.0900000036 -0.422156006
vt -0.0900000036 -0.417825997
vt -0.0900000036 -0.422156006
vt -0.283670992 -0.422156006
vt -0.281170994 -0.417825997
vt -0.282802999 -0.417232007
vt -0.0900000036 -0.422156006
vt -0.0900000036 -0.417232007
vt -0.0900000036 -0.422156006
vt -0.283670992 -0.422156006
vt -0.282802999 -0.417232007
vt -0.284539014 -0.417232007
vt -0.0900000036 -0.422156006
vt -0.0900000036 -0.417232007
vt -0.0900000036 -0.422156006
vt -0.283670992 -0.422156006
vt -0.284539014 -0.417232007
vt -0.286170989 -0.417825997
vt -0.0900000036 -0.422156006
vt -0.0900000036 -0.417825997
vt -0.0900000036 -0.422156006
vt -0.283670992 -0.422156006
vt -0.286170989 -0.417825997
vt -0.287501007 -0.418942004
vt -0.0900000036 -0.422156006
vt -0.0900000036 -0.418942004
vt -0.0900000036 -0.422156006
vt -0.283670992 -0.422156006
vt -0.287501007 -0.418942004
vt -0.288369 -0.420446008
vt -0.0900000036 -0.422156006
vt -0.0900000036 -0.420446008
vt -0.0900000036 -0.422156006
vt -0.283670992 -0.422156006
vt -0.288369 -0.420446008
vt -0.288670987 -0.422156006
vt -0.0900000036 -0.422156006
vt -0.0900000036 -0.422156006
vt -0.0900000036 -0.422156006
vt -0.283670992 -0.422156006
vt -0.288670987 -0.422156006
vt -0.288369 -0.423866004
vt -0.0900000036 -0.422156006
vt -0.0900000036 -0.423866004
vt -0.0900000036 -0.422156006
vt -0.283670992 -0.422156006
vt -0.288369 -0.423866004
vt -0.287501007 -0.425370008
vt -0.0900000036 -0.422156006
vt -0.0900000036 -0.425370008
vt -0.0900000036 -0.422156006
vt -0.283670992 -0.422156006
vt -0.287501007 -0.425370008
vt -0.286170989 -0.426485986
vt -0.0900000036 -0.422156006
vt -0.0900000036 -0.426485986
vt -0.0900000036 -0.422156006
vt -0.283670992 -0.422156006
vt -0.286170989 -0.426485986
vt -0.284539014 -0.427080005
vt -0.0900000036 -0.422156006
vt -0.0900000036 -0.427080005
vt -0.0900000036 -0.422156006
vt -0.283670992 -0.422156006
vt -0.284539014 -0.427080005
vt -0.282802999 -0.427080005
vt -0.0900000036 -0.422156006
vt -0.0900000036 -0.427080005
vt -0.0900000036 -0.422156006
vt -0.283670992 -0.422156006
vt -0.282802999 -0.427080005
vt -0.281170994 -0.426485986
vt -0.0900000036 -0.422156006
vt -0.0900000036 -0.426485986
vt -0.0900000036 -0.422156006
vt -0.283670992 -0.422156006
vt -0.281170994 -0.426485986
vt -0.279841006 -0.425370008
vt -0.0900000036 -0.422156006
vt -0.0900000036 -0.425370008
vt -0.0900000036 -0.422156006
vt -0.283670992 -0.422156006
vt -0.279841006 -0.425370008
vt -0.278972 -0.423866004
vt -0.0900000036 -0.422156006
vt -0.0900000036 -0.423866004
vt -0.0900000036 -0.422156006
vt -0.283670992 -0.422156006
vt -0.278972 -0.423866004
vt -0.278670996 -0.422156006
vt -0.283670992 -0.422156006
vt -0.278670996 -0.422156006
vt -0.278972 -0.420446008
vt 0.644542992 0.423813999
vt 0.643675029 0.422309995
vt 0.648373008 0.420599997
vt 0.648373008 0.420599997
vt 0.643675029 0.422309995
vt 0.643373013 0.420599997
vt -0.00999999978 0.420599997
vt -0.00999999978 0.420599997
vt -0.00999999978 0.420599997
vt 0.648373008 0.420599997
vt 0.643373013 0.420599997
vt 0.643675029 0.418889999
vt -0.00999999978 0.420599997
vt -0.00999999978 0.418889999
vt -0.00999999978 0.420599997
vt 0.648373008 0.420599997
vt 0.643675029 0.418889999
vt 0.644542992 0.417385995
vt -0.00999999978 0.420599997
vt -0.00999999978 0.417385995
vt -0.00999999978 0.420599997
vt 0.648373008 0.420599997
vt 0.644542992 0.417385995
vt 0.64587301 0.416269988
vt -0.00999999978 0.420599997
vt -0.00999999978 0.416269988
vt -0.00999999978 0.420599997
vt 0.648373008 0.420599997
vt 0.64587301 0.416269988
vt 0.647504985 0.415675998
vt -0.00999999978 0.420599997
vt -0.00999999978 0.415675998
vt -0.00999999978 0.420599997
vt 0.648373008 0.420599997
vt 0.647504985 0.415675998
vt 0.649241984 0.415675998
vt -0.00999999978 0.420599997
vt -0.00999999978 0.415675998
vt -0.00999999978 0.420599997
vt 0.648373008 0.420599997
vt 0.649241984 0.415675998
vt 0.650873005 0.416269988
vt -0.00999999978 0.420599997
vt -0.00999999978 0.416269988
vt -0.00999999978 0.420599997
vt 0.648373008 0.420599997
vt 0.650873005 0.416269988
vt 0.652203977 0.417385995
vt -0.00999999978 0.420599997
vt -0.00999999978 0.417385995
vt -0.00999999978 0.420599997
vt 0.648373008 0.420599997
vt 0.652203977 0.417385995
vt 0.653072 0.418889999
vt -0.00999999978 0.420599997
vt -0.00999999978 0.418889999
vt -0.00999999978 0.420599997
vt 0.648373008 0.420599997
vt 0.653072 0.418889999
vt 0.653373003 0.420599997
vt -0.00999999978 0.420599997
vt -0.00999999978 0.420599997
vt -0.00999999978 0.420599997
vt 0.648373008 0.420599997
vt 0.653373003 0.420599997
vt 0.653072 0.422309995
vt -0.00999999978 0.420599997
vt -0.00999999978 0.422309995
vt -0.00999999978 0.420599997
vt 0.648373008 0.420599997
vt 0.653072 0.422309995
vt 0.652203977 0.423813999
vt -0.00999999978 0.420599997
vt -0.00999999978 0.423813999
vt -0.00999999978 0.420599997
vt 0.648373008 0.420599997
vt 0.652203977 0.423813999
vt 0.650873005 0.424930006
vt -0.00999999978 0.420599997
vt -0.00999999978 0.424930006
vt -0.00999999978 0.420599997
vt 0.648373008 0.420599997
vt 0.650873005 0.424930006
vt 0.649241984 0.425523996
vt -0.00999999978 0.420599997
vt -0.00999999978 0.425523996
vt -0.00999999978 0.420599997
vt 0.648373008 0.420599997
vt 0.649241984 0.425523996
vt 0.647504985 0.425523996
vt -0.00999999978 0.420599997
vt -0.00999999978 0.425523996
vt -0.00999999978 0.420599997
vt 0.648373008 0.420599997
vt 0.647504985 0.425523996
vt 0.64587301 0.424930006
vt 0.648373008 0.420599997
vt 0.64587301 0.424930006
vt 0.644542992 0.423813999
vt -0.473807991 -0.393198013
vt -0.472939998 -0.394701988
vt -0.469110012 -0.391487986
vt -0.469110012 -0.391487986
vt -0.472939998 -0.394701988
vt -0.47161001 -0.395819008
vt -0.00999999978 -0.391487986
vt -0.00999999978 -0.395819008
vt -0.00999999978 -0.391487986
vt -0.469110012 -0.391487986
vt -0.47161001 -0.395819008
vt -0.469978005 -0.396411985
vt -0.00999999978 -0.391487986
vt -0.00999999978 -0.396411985
vt -0.00999999978 -0.391487986
vt -0.469110012 -0.391487986
vt -0.469978005 -0.396411985
vt -0.46824199 -0.396411985
vt -0.00999999978 -0.391487986
vt -0.00999999978 -0.396411985
vt -0.00999999978 -0.391487986
vt -0.469110012 -0.391487986
vt -0.46824199 -0.396411985
vt -0.466610014 -0.395819008
vt -0.00999999978 -0.391487986
vt -0.00999999978 -0.395819008
vt -0.00999999978 -0.391487986
vt -0.469110012 -0.391487986
vt -0.466610014 -0.395819008
vt -0.465279996 -0.394701988
vt -0.00999999978 -0.391487986
vt -0.00999999978 -0.394701988
vt -0.00999999978 -0.391487986
vt -0.469110012 -0.391487986
vt -0.465279996 -0.394701988
vt -0.46441099 -0.393198013
vt -0.00999999978 -0.391487986
vt -0.00999999978 -0.393198013
vt -0.00999999978 -0.391487986
vt -0.469110012 -0.391487986
vt -0.46441099 -0.393198013
vt -0.464109987 -0.391487986
vt -0.00999999978 -0.391487986
vt -0.00999999978 -0.391487986
vt -0.00999999978 -0.391487986
vt -0.469110012 -0.391487986
vt -0.464109987 -0.391487986
vt -0.46441099 -0.389777988
vt -0.00999999978 -0.391487986
vt -0.00999999978 -0.389777988
vt -0.00999999978 -0.391487986
vt -0.469110012 -0.391487986
vt -0.46441099 -0.389777988
vt -0.465279996 -0.388274014
vt -0.00999999978 -0.391487986
vt -0.00999999978 -0.388274014
vt -0.00999999978 -0.391487986
vt -0.469110012 -0.391487986
vt -0.465279996 -0.388274014
vt -0.466610014 -0.387158006
vt -0.00999999978 -0.391487986
vt -0.00999999978 -0.387158006
vt -0.00999999978 -0.391487986
vt -0.469110012 -0.391487986
vt -0.466610014 -0.387158006
vt -0.46824199 -0.386563987
vt -0.00999999978 -0.391487986
vt -0.00999999978 -0.386563987
vt -0.00999999978 -0.391487986
vt -0.469110012 -0.391487986
vt -0.46824199 -0.386563987
vt -0.469978005 -0.386563987
vt -0.00999999978 -0.391487986
vt -0.00999999978 -0.386563987
vt -0.00999999978 -0.391487986
vt -0.469110012 -0.391487986
vt -0.469978005 -0.386563987
vt -0.47161001 -0.387158006
vt -0.00999999978 -0.391487986
vt -0.00999999978 -0.387158006
vt -0.00999999978 -0.391487986
vt -0.469110012 -0.391487986
vt -0.47161001 -0.387158006
vt -0.472939998 -0.388274014
vt -0.00999999978 -0.391487986
vt -0.00999999978 -0.388274014
vt -0.00999999978 -0.391487986
vt -0.469110012 -0.391487986
vt -0.472939998 -0.388274014
vt -0.473807991 -0.389777988
vt -0.00999999978 -0.391487986
vt -0.00999999978 -0.389777988
vt -0.00999999978 -0.391487986
vt -0.469110012 -0.391487986
vt -0.473807991 -0.389777988
vt -0.474110007 -0.391487986
vt -0.469110012 -0.391487986
vt -0.474110007 -0.391487986
vt -0.473807991 -0.393198013
vt -0.643373013 0.420599997
vt -0.643675029 0.422309995
vt -0.648373008 0.420599997
vt -0.648373008 0.420599997
vt -0.643675029 0.422309995
vt -0.644542992 0.423813999
vt -0.0900000036 0.420599997
vt -0.0900000036 0.423813999
vt -0.0900000036 0.420599997
vt -0.648373008 0.420599997
vt -0.644542992 0.423813999
vt -0.64587301 0.424930006
vt -0.0900000036 0.420599997
vt -0.0900000036 0.424930006
vt -0.0900000036 0.420599997
vt -0.648373008 0.420599997
vt -0.64587301 0.424930006
vt -0.647504985 0.425523996
vt -0.0900000036 0.420599997
vt -0.0900000036 0.425523996
vt -0.0900000036 0.420599997
vt -0.648373008 0.420599997
vt -0.647504985 0.425523996
vt -0.649241984 0.425523996
vt -0.0900000036 0.420599997
vt -0.0900000036 0.425523996
vt -0.0900000036 0.420599997
vt -0.648373008 0.420599997
vt -0.649241984 0.425523996
vt -0.650873005 0.424930006
vt -0.0900000036 0.420599997
vt -0.0900000036 0.424930006
vt -0.0900000036 0.420599997
vt -0.648373008 0.420599997
vt -0.650873005 0.424930006
vt -0.652203977 0.423813999
vt -0.0900000036 0.420599997
vt -0.0900000036 0.423813999
vt -0.0900000036 0.420599997
vt -0.648373008 0.420599997
vt -0.652203977 0.423813999
vt -0.653072 0.422309995
vt -0.0900000036 0.420599997
vt -0.0900000036 0.422309995
vt -0.0900000036 0.420599997
vt -0.648373008 0.420599997
vt -0.653072 0.422309995
vt -0.653373003 0.420599997
vt -0.0900000036 0.420599997
vt -0.0900000036 0.420599997
vt -0.0900000036 0.420599997
vt -0.648373008 0.420599997
vt -0.653373003 0.420599997
vt -0.653072 0.418889999
vt -0.0900000036 0.420599997
vt -0.0900000036 0.418889999
vt -0.0900000036 0.420599997
vt -0.648373008 0.420599997
vt -0.653072 0.418889999
vt -0.652203977 0.417385995
vt -0.0900000036 0.420599997
vt -0.0900000036 0.417385995
vt -0.0900000036 0.420599997
vt -0.648373008 0.420599997
vt -0.652203977 0.417385995
vt -0.650873005 0.416269988
vt -0.0900000036 0.420599997
vt -0.0900000036 0.416269988
vt -0.0900000036 0.420599997
vt -0.648373008 0.420599997
vt -0.650873005 0.416269988
vt -0.649241984 0.415675998
vt -0.0900000036 0.420599997
vt -0.0900000036 0.415675998
vt -0.0900000036 0.420599997
vt -0.648373008 0.420599997
vt -0.649241984 0.415675998
vt -0.647504985 0.415675998
vt -0.0900000036 0.420599997
vt -0.0900000036 0.415675998
vt -0.0900000036 0.420599997
vt -0.648373008 0.420599997
vt -0.647504985 0.415675998
vt -0.64587301 0.416269988
vt -0.0900000036 0.420599997
vt -0.0900000036 0.416269988
vt -0.0900000036 0.420599997
vt -0.648373008 0.420599997
vt -0.64587301 0.416269988
vt -0.644542992 0.417385995
vt -0.0900000036 0.420599997
vt -0.0900000036 0.417385995
vt -0.0900000036 0.420599997
vt -0.648373008 0.420599997
vt -0.644542992 0.417385995
vt -0.643675029 0.418889999
vt -0.648373008 0.420599997
vt -0.643675029 0.418889999
vt -0.643373013 0.420599997
vt -0.281919986 0.425370008
vt -0.283250004 0.426485986
vt -0.285750002 0.422156006
vt -0.285750002 0.422156006
vt -0.283250004 0.426485986
vt -0.284882009 0.427080005
vt -0.0900000036 0.422156006
vt -0.0900000036 0.427080005
vt -0.0900000036 0.422156006
vt -0.285750002 0.422156006
vt -0.284882009 0.427080005
vt -0.286617994 0.427080005
vt -0.0900000036 0.422156006
vt -0.0900000036 0.427080005
vt -0.0900000036 0.422156006
vt -0.285750002 0.422156006
vt -0.286617994 0.427080005
vt -0.288249999 0.426485986
vt -0.0900000036 0.422156006
vt -0.0900000036 0.426485986
vt -0.0900000036 0.422156006
vt -0.285750002 0.422156006
vt -0.288249999 0.426485986
vt -0.289579988 0.425370008
vt -0.0900000036 0.422156006
vt -0.0900000036 0.425370008
vt -0.0900000036 0.422156006
vt -0.285750002 0.422156006
vt -0.289579988 0.425370008
vt -0.290448993 0.423866004
vt -0.0900000036 0.422156006
vt -0.0900000036 0.423866004
vt -0.0900000036 0.422156006
vt -0.285750002 0.422156006
vt -0.290448993 0.423866004
vt -0.290749997 0.422156006
vt -0.0900000036 0.422156006
vt -0.0900000036 0.422156006
vt -0.0900000036 0.422156006
vt -0.285750002 0.422156006
vt -0.290749997 0.422156006
vt -0.290448993 0.420446008
vt -0.0900000036 0.422156006
vt -0.0900000036 0.420446008
vt -0.0900000036 0.422156006
vt -0.285750002 0.422156006
vt -0.290448993 0.420446008
vt -0.289579988 0.418942004
vt -0.0900000036 0.422156006
vt -0.0900000036 0.418942004
vt -0.0900000036 0.422156006
vt -0.285750002 0.422156006
vt -0.289579988 0.418942004
vt -0.288249999 0.417825997
vt -0.0900000036 0.422156006
vt -0.0900000036 0.417825997
vt -0.0900000036 0.422156006
vt -0.285750002 0.422156006
vt -0.288249999 0.417825997
vt -0.286617994 0.417232007
vt -0.0900000036 0.422156006
vt -0.0900000036 0.417232007
vt -0.0900000036 0.422156006
vt -0.285750002 0.422156006
vt -0.286617994 0.417232007
vt -0.284882009 0.417232007
vt -0.0900000036 0.422156006
vt -0.0900000036 0.417232007
vt -0.0900000036 0.422156006
vt -0.285750002 0.422156006
vt -0.284882009 0.417232007
vt -0.283250004 0.417825997
vt -0.0900000036 0.422156006
vt -0.0900000036 0.417825997
vt -0.0900000036 0.422156006
vt -0.285750002 0.422156006
vt -0.283250004 0.417825997
vt -0.281919986 0.418942004
vt -0.0900000036 0.422156006
vt -0.0900000036 0.418942004
vt -0.0900000036 0.422156006
vt -0.285750002 0.422156006
vt -0.281919986 0.418942004
vt -0.281051993 0.420446008
vt -0.0900000036 0.422156006
vt -0.0900000036 0.420446008
vt -0.0900000036 0.422156006
vt -0.285750002 0.422156006
vt -0.281051993 0.420446008
vt -0.280750006 0.422156006
vt -0.0900000036 0.422156006
vt -0.0900000036 0.422156006
vt -0.0900000036 0.422156006
vt -0.285750002 0.422156006
vt -0.280750006 0.422156006
vt -0.281051993 0.423866004
vt -0.285750002 0.422156006
vt -0.281051993 0.423866004
vt -0.281919986 0.425370008
vt 0.474144012 0.030243
vt 0.47281301 0.0313589983
vt 0.470313013 0.0270290002
vt 0.470313013 0.0270290002
vt 0.47281301 0.0313589983
vt 0.471181989 0.0319529995
vt -0.0900000036 0.0270290002
vt -0.0900000036 0.0319529995
vt -0.0900000036 0.0270290002
vt 0.470313013 0.0270290002
vt 0.471181989 0.0319529995
vt 0.46944499 0.0319529995
vt -0.0900000036 0.0270290002
vt -0.0900000036 0.0319529995
vt -0.0900000036 0.0270290002
vt 0.470313013 0.0270290002
vt 0.46944499 0.0319529995
vt 0.467812985 0.0313589983
vt -0.0900000036 0.0270290002
vt -0.0900000036 0.0313589983
vt -0.0900000036 0.0270290002
vt 0.470313013 0.0270290002
vt 0.467812985 0.0313589983
vt 0.466482997 0.030243
vt -0.0900000036 0.0270290002
vt -0.0900000036 0.030243
vt -0.0900000036 0.0270290002
vt 0.470313013 0.0270290002
vt 0.466482997 0.030243
vt 0.465615004 0.0287389997
vt -0.0900000036 0.0270290002
vt -0.0900000036 0.0287389997
vt -0.0900000036 0.0270290002
vt 0.470313013 0.0270290002
vt 0.465615004 0.0287389997
vt 0.465312988 0.0270290002
vt -0.0900000036 0.0270290002
vt -0.0900000036 0.0270290002
vt -0.0900000036 0.0270290002
vt 0.470313013 0.0270290002
vt 0.465312988 0.0270290002
vt 0.465615004 0.0253190007
vt -0.0900000036 0.0270290002
vt -0.0900000036 0.0253190007
vt -0.0900000036 0.0270290002
vt 0.470313013 0.0270290002
vt 0.465615004 0.0253190007
vt 0.466482997 0.0238150004
vt -0.0900000036 0.0270290002
vt -0.0900000036 0.0238150004
vt -0.0900000036 0.0270290002
vt 0.470313013 0.0270290002
vt 0.466482997 0.0238150004
vt 0.467812985 0.0226990003
vt -0.0900000036 0.0270290002
vt -0.0900000036 0.0226990003
vt -0.0900000036 0.0270290002
vt 0.470313013 0.0270290002
vt 0.467812985 0.0226990003
vt 0.46944499 0.0221050009
vt -0.0900000036 0.0270290002
vt -0.0900000036 0.0221050009
vt -0.0900000036 0.0270290002
vt 0.470313013 0.0270290002
vt 0.46944499 0.0221050009
vt 0.471181989 0.0221050009
vt -0.0900000036 0.0270290002
vt -0.0900000036 0.0221050009
vt -0.0900000036 0.0270290002
vt 0.470313013 0.0270290002
vt 0.471181989 0.0221050009
vt 0.47281301 0.0226990003
vt -0.0900000036 0.0270290002
vt -0.0900000036 0.0226990003
vt -0.0900000036 0.0270290002
vt 0.470313013 0.0270290002
vt 0.47281301 0.0226990003
vt 0.474144012 0.0238150004
vt -0.0900000036 0.0270290002
vt -0.0900000036 0.0238150004
vt -0.0900000036 0.0270290002
vt 0.470313013 0.0270290002
vt 0.474144012 0.0238150004
vt 0.475012004 0.0253190007
vt -0.0900000036 0.0270290002
vt -0.0900000036 0.0253190007
vt -0.0900000036 0.0270290002
vt 0.470313013 0.0270290002
vt 0.475012004 0.0253190007
vt 0.475313008 0.0270290002
vt -0.0900000036 0.0270290002
vt -0.0900000036 0.0270290002
vt -0.0900000036 0.0270290002
vt 0.470313013 0.0270290002
vt 0.475313008 0.0270290002
vt 0.475012004 0.0287389997
vt 0.470313013 0.0270290002
vt 0.475012004 0.0287389997
vt 0.474144012 0.030243
vt 0.281170994 -0.417825997
vt 0.279841006 -0.418942004
vt 0.283670992 -0.422156006
vt 0.283670992 -0.422156006
vt 0.279841006 -0.418942004
vt 0.278972 -0.420446008
vt -0.00999999978 -0.422156006
vt -0.00999999978 -0.420446008
vt -0.00999999978 -0.422156006
vt 0.283670992 -0.422156006
vt 0.278972 -0.420446008
vt 0.278670996 -0.422156006
vt -0.00999999978 -0.422156006
vt -0.00999999978 -0.422156006
vt -0.00999999978 -0.422156006
vt 0.283670992 -0.422156006
vt 0.278670996 -0.422156006
vt 0.278972 -0.423866004
vt -0.00999999978 -0.422156006
vt -0.00999999978 -0.423866004
vt -0.00999999978 -0.422156006
vt 0.283670992 -0.422156006
vt 0.278972 -0.423866004
vt 0.279841006 -0.425370008
vt -0.00999999978 -0.422156006
vt -0.00999999978 -0.425370008
vt -0.00999999978 -0.422156006
vt 0.283670992 -0.422156006
vt 0.279841006 -0.425370008
vt 0.281170994 -0.426485986
vt -0.00999999978 -0.422156006
vt -0.00999999978 -0.426485986
vt -0.00999999978 -0.422156006
vt 0.283670992 -0.422156006
vt 0.281170994 -0.426485986
vt 0.282802999 -0.427080005
vt -0.00999999978 -0.422156006
vt -0.00999999978 -0.427080005
vt -0.00999999978 -0.422156006
vt 0.283670992 -0.422156006
vt 0.282802999 -0.427080005
vt 0.284539014 -0.427080005
vt -0.00999999978 -0.422156006
vt -0.00999999978 -0.427080005
vt -0.00999999978 -0.422156006
vt 0.283670992 -0.422156006
vt 0.284539014 -0.427080005
vt 0.286170989 -0.426485986
vt -0.00999999978 -0.422156006
vt -0.00999999978 -0.426485986
vt -0.00999999978 -0.422156006
vt 0.283670992 -0.422156006
vt 0.286170989 -0.426485986
vt 0.287501007 -0.425370008
vt -0.00999999978 -0.422156006
vt -0.00999999978 -0.425370008
vt -0.00999999978 -0.422156006
vt 0.283670992 -0.422156006
vt 0.287501007 -0.425370008
vt 0.288369 -0.423866004
vt -0.00999999978 -0.422156006
vt -0.00999999978 -0.423866004
vt -0.00999999978 -0.422156006
vt 0.283670992 -0.422156006
vt 0.288369 -0.423866004
vt 0.288670987 -0.422156006
vt -0.00999999978 -0.422156006
vt -0.00999999978 -0.422156006
vt -0.00999999978 -0.422156006
vt 0.283670992 -0.422156006
vt 0.288670987 -0.422156006
vt 0.288369 -0.420446008
vt -0.00999999978 -0.422156006
vt -0.00999999978 -0.420446008
vt -0.00999999978 -0.422156006
vt 0.283670992 -0.422156006
vt 0.288369 -0.420446008
vt 0.287501007 -0.418942004
vt -0.00999999978 -0.422156006
vt -0.00999999978 -0.418942004
vt -0.00999999978 -0.422156006
vt 0.283670992 -0.422156006
vt 0.287501007 -0.418942004
vt 0.286170989 -0.417825997
vt -0.00999999978 -0.422156006
vt -0.00999999978 -0.417825997
vt -0.00999999978 -0.422156006
vt 0.283670992 -0.422156006
vt 0.286170989 -0.417825997
vt 0.284539014 -0.417232007
vt -0.00999999978 -0.422156006
vt -0.00999999978 -0.417232007
vt -0.00999999978 -0.422156006
vt 0.283670992 -0.422156006
vt 0.284539014 -0.417232007
vt 0.282802999 -0.417232007
vt 0.283670992 -0.422156006
vt 0.282802999 -0.417232007
vt 0.281170994 -0.417825997
vt -0.47281301 0.0313589983
vt -0.474144012 0.030243
vt -0.470313013 0.0270290002
vt -0.470313013 0.0270290002
vt -0.474144012 0.030243
vt -0.475012004 0.0287389997
vt -0.00999999978 0.0270290002
vt -0.00999999978 0.0287389997
vt -0.00999999978 0.0270290002
vt -0.470313013 0.0270290002
vt -0.475012004 0.0287389997
vt -0.475313008 0.0270290002
vt -0.00999999978 0.0270290002
vt -0.00999999978 0.0270290002
vt -0.00999999978 0.0270290002
vt -0.470313013 0.0270290002
vt -0.475313008 0.0270290002
vt -0.475012004 0.0253190007
vt -0.00999999978 0.0270290002
vt -0.00999999978 0.0253190007
vt -0.00999999978 0.0270290002
vt -0.470313013 0.0270290002
vt -0.475012004 0.0253190007
vt -0.474144012 0.0238150004
vt -0.00999999978 0.0270290002
vt -0.00999999978 0.0238150004
vt -0.00999999978 0.0270290002
vt -0.470313013 0.0270290002
vt -0.474144012 0.0238150004
vt -0.47281301 0.0226990003
vt -0.00999999978 0.0270290002
vt -0.00999999978 0.0226990003
vt -0.00999999978 0.0270290002
vt -0.470313013 0.0270290002
vt -0.47281301 0.0226990003
vt -0.471181989 0.0221050009
vt -0.00999999978 0.0270290002
vt -0.00999999978 0.0221050009
vt -0.00999999978 0.0270290002
vt -0.470313013 0.0270290002
vt -0.471181989 0.0221050009
vt -0.46944499 0.0221050009
vt -0.00999999978 0.0270290002
vt -0.00999999978 0.0221050009
vt -0.00999999978 0.0270290002
vt -0.470313013 0.0270290002
vt -0.46944499 0.0221050009
vt -0.467812985 0.0226990003
vt -0.00999999978 0.0270290002
vt -0.00999999978 0.0226990003
vt -0.00999999978 0.0270290002
vt -0.470313013 0.0270290002
vt -0.467812985 0.0226990003
vt -0.466482997 0.0238150004
vt -0.00999999978 0.0270290002
vt -0.00999999978 0.0238150004
vt -0.00999999978 0.0270290002
vt -0.470313013 0.0270290002
vt -0.466482997 0.0238150004
vt -0.465615004 0.0253190007
vt -0.00999999978 0.0270290002
vt -0.00999999978 0.0253190007
vt -0.00999999978 0.0270290002
vt -0.470313013 0.0270290002
vt -0.465615004 0.0253190007
vt -0.465312988 0.0270290002
vt -0.00999999978 0.0270290002
vt -0.00999999978 0.0270290002
vt -0.00999999978 0.0270290002
vt -0.470313013 0.0270290002
vt -0.465312988 0.0270290002
vt -0.465615004 0.0287389997
vt -0.00999999978 0.0270290002
vt -0.00999999978 0.0287389997
vt -0.00999999978 0.0270290002
vt -0.470313013 0.0270290002
vt -0.465615004 0.0287389997
vt -0.466482997 0.030243
vt -0.00999999978 0.0270290002
vt -0.00999999978 0.030243
vt -0.00999999978 0.0270290002
vt -0.470313013 0.0270290002
vt -0.466482997 0.030243
vt -0.467812985 0.0313589983
vt -0.00999999978 0.0270290002
vt -0.00999999978 0.0313589983
vt -0.00999999978 0.0270290002
vt -0.470313013 0.0270290002
vt -0.467812985 0.0313589983
vt -0.46944499 0.0319529995
vt -0.00999999978 0.0270290002
vt -0.00999999978 0.0319529995
vt -0.00999999978 0.0270290002
vt -0.470313013 0.0270290002
vt -0.46944499 0.0319529995
vt -0.471181989 0.0319529995
vt -0.470313013 0.0270290002
vt -0.471181989 0.0319529995
vt -0.47281301 0.0313589983
vt 0.473807991 -0.389777988
vt 0.472939998 -0.388274014
vt 0.469110012 -0.391487986
vt 0.469110012 -0.391487986
vt 0.472939998 -0.388274014
vt 0.47161001 -0.387158006
vt -0.0900000036 -0.391487986
vt -0.0900000036 -0.387158006
vt -0.0900000036 -0.391487986
vt 0.469110012 -0.391487986
vt 0.47161001 -0.387158006
vt 0.469978005 -0.386563987
vt -0.0900000036 -0.391487986
vt -0.0900000036 -0.386563987
vt -0.0900000036 -0.391487986
vt 0.469110012 -0.391487986
vt 0.469978005 -0.386563987
vt 0.46824199 -0.386563987
vt -0.0900000036 -0.391487986
vt -0.0900000036 -0.386563987
vt -0.0900000036 -0.391487986
vt 0.469110012 -0.391487986
vt 0.46824199 -0.386563987
vt 0.466610014 -0.387158006
vt -0.0900000036 -0.391487986
vt -0.0900000036 -0.387158006
vt -0.0900000036 -0.391487986
vt 0.469110012 -0.391487986
vt 0.466610014 -0.387158006
vt 0.465279996 -0.388274014
vt -0.0900000036 -0.391487986
vt -0.0900000036 -0.388274014
vt -0.0900000036 -0.391487986
vt 0.469110012 -0.391487986
vt 0.465279996 -0.388274014
vt 0.46441099 -0.389777988
vt -0.0900000036 -0.391487986
vt -0.0900000036 -0.389777988
vt -0.0900000036 -0.391487986
vt 0.469110012 -0.391487986
vt 0.46441099 -0.389777988
vt 0.464109987 -0.391487986
vt -0.0900000036 -0.391487986
vt -0.0900000036 -0.391487986
vt -0.0900000036 -0.391487986
vt 0.469110012 -0.391487986
vt 0.464109987 -0.391487986
vt 0.46441099 -0.393198013
vt -0.0900000036 -0.391487986
vt -0.0900000036 -0.393198013
vt -0.0900000036 -0.391487986
vt 0.469110012 -0.391487986
vt 0.46441099 -0.393198013
vt 0.465279996 -0.394701988
vt -0.0900000036 -0.391487986
vt -0.0900000036 -0.394701988
vt -0.0900000036 -0.391487986
vt 0.469110012 -0.391487986
vt 0.465279996 -0.394701988
vt 0.466610014 -0.395819008
vt -0.0900000036 -0.391487986
vt -0.0900000036 -0.395819008
vt -0.0900000036 -0.391487986
vt 0.469110012 -0.391487986
vt 0.466610014 -0.395819008
vt 0.46824199 -0.396411985
vt -0.0900000036 -0.391487986
vt -0.0900000036 -0.396411985
vt -0.0900000036 -0.391487986
vt 0.469110012 -0.391487986
vt 0.46824199 -0.396411985
vt 0.469978005 -0.396411985
vt -0.0900000036 -0.391487986
vt -0.0900000036 -0.396411985
vt -0.0900000036 -0.391487986
vt 0.469110012 -0.391487986
vt 0.469978005 -0.396411985
vt 0.47161001 -0.395819008
vt -0.0900000036 -0.391487986
vt -0.0900000036 -0.395819008
vt -0.0900000036 -0.391487986
vt 0.469110012 -0.391487986
vt 0.47161001 -0.395819008
vt 0.472939998 -0.394701988
vt -0.0900000036 -0.391487986
vt -0.0900000036 -0.394701988
vt -0.0900000036 -0.391487986
vt 0.469110012 -0.391487986
vt 0.472939998 -0.394701988
vt 0.473807991 -0.393198013
vt -0.0900000036 -0.391487986
vt -0.0900000036 -0.393198013
vt -0.0900000036 -0.391487986
vt 0.469110012 -0.391487986
vt 0.473807991 -0.393198013
vt 0.474110007 -0.391487986
vt 0.469110012 -0.391487986
vt 0.474110007 -0.391487986
vt 0.473807991 -0.389777988
vt 0.283250004 0.426485986
vt 0.281919986 0.425370008
vt 0.285750002 0.422156006
vt 0.285750002 0.422156006
vt 0.281919986 0.425370008
vt 0.281051993 0.423866004
vt -0.00999999978 0.422156006
vt -0.00999999978 0.423866004
vt -0.00999999978 0.422156006
vt 0.285750002 0.422156006
vt 0.281051993 0.423866004
vt 0.280750006 0.422156006
vt -0.00999999978 0.422156006
vt -0.00999999978 0.422156006
vt -0.00999999978 0.422156006
vt 0.285750002 0.422156006
vt 0.280750006 0.422156006
vt 0.281051993 0.420446008
vt -0.00999999978 0.422156006
vt -0.00999999978 0.420446008
vt -0.00999999978 0.422156006
vt 0.285750002 0.422156006
vt 0.281051993 0.420446008
vt 0.281919986 0.418942004
vt -0.00999999978 0.422156006
vt -0.00999999978 0.418942004
vt -0.00999999978 0.422156006
vt 0.285750002 0.422156006
vt 0.281919986 0.418942004
vt 0.283250004 0.417825997
vt -0.00999999978 0.422156006
vt -0.00999999978 0.417825997
vt -0.00999999978 0.422156006
vt 0.285750002 0.422156006
vt 0.283250004 0.417825997
vt 0.284882009 0.417232007
vt -0.00999999978 0.422156006
vt -0.00999999978 0.417232007
vt -0.00999999978 0.422156006
vt 0.285750002 0.422156006
vt 0.284882009 0.417232007
vt 0.286617994 0.417232007
vt -0.00999999978 0.422156006
vt -0.00999999978 0.417232007
vt -0.00999999978 0.422156006
vt 0.285750002 0.422156006
vt 0.286617994 0.417232007
vt 0.288249999 0.417825997
vt -0.00999999978 0.422156006
vt -0.00999999978 0.417825997
vt -0.00999999978 0.422156006
vt 0.285750002 0.422156006
vt 0.288249999 0.417825997
vt 0.289579988 0.418942004
vt -0.00999999978 0.422156006
vt -0.00999999978 0.418942004
vt -0.00999999978 0.422156006
vt 0.285750002 0.422156006
vt 0.289579988 0.418942004
vt 0.290448993 0.420446008
vt -0.00999999978 0.422156006
vt -0.00999999978 0.420446008
vt -0.00999999978 0.422156006
vt 0.285750002 0.422156006
vt 0.290448993 0.420446008
vt 0.290749997 0.422156006
vt -0.00999999978 0.422156006
vt -0.00999999978 0.422156006
vt -0.00999999978 0.422156006
vt 0.285750002 0.422156006
vt 0.290749997 0.422156006
vt 0.290448993 0.423866004
vt -0.00999999978 0.422156006
vt -0.00999999978 0.423866004
vt -0.00999999978 0.422156006
vt 0.285750002 0.422156006
vt 0.290448993 0.423866004
vt 0.289579988 0.425370008
vt -0.00999999978 0.422156006
vt -0.00999999978 0.425370008
vt -0.00999999978 0.422156006
vt 0.285750002 0.422156006
vt 0.289579988 0.425370008
vt 0.288249999 0.426485986
vt -0.00999999978 0.422156006
vt -0.00999999978 0.426485986
vt -0.00999999978 0.422156006
vt 0.285750002 0.422156006
vt 0.288249999 0.426485986
vt 0.286617994 0.427080005
vt -0.00999999978 0.422156006
vt -0.00999999978 0.427080005
vt -0.00999999978 0.422156006
vt 0.285750002 0.422156006
vt 0.286617994 0.427080005
vt 0.284882009 0.427080005
vt 0.285750002 0.422156006
vt 0.284882009 0.427080005
vt 0.283250004 0.426485986
vt 0.657504022 -0.425370008
vt 0.658833981 -0.426485986
vt 0.661333978 -0.422156006
vt 0.661333978 -0.422156006
vt 0.658833981 -0.426485986
vt 0.660466015 -0.427080005
vt -0.00999999978 -0.422156006
vt -0.00999999978 -0.427080005
vt -0.00999999978 -0.422156006
vt 0.661333978 -0.422156006
vt 0.660466015 -0.427080005
vt 0.662202001 -0.427080005
vt -0.00999999978 -0.422156006
vt -0.00999999978 -0.427080005
vt -0.00999999978 -0.422156006
vt 0.661333978 -0.422156006
vt 0.662202001 -0.427080005
vt 0.663833976 -0.426485986
vt -0.00999999978 -0.422156006
vt -0.00999999978 -0.426485986
vt -0.00999999978 -0.422156006
vt 0.661333978 -0.422156006
vt 0.663833976 -0.426485986
vt 0.665163994 -0.425370008
vt -0.00999999978 -0.422156006
vt -0.00999999978 -0.425370008
vt -0.00999999978 -0.422156006
vt 0.661333978 -0.422156006
vt 0.665163994 -0.425370008
vt 0.66603303 -0.423866004
vt -0.00999999978 -0.422156006
vt -0.00999999978 -0.423866004
vt -0.00999999978 -0.422156006
vt 0.661333978 -0.422156006
vt 0.66603303 -0.423866004
vt 0.666333973 -0.422156006
vt -0.00999999978 -0.422156006
vt -0.00999999978 -0.422156006
vt -0.00999999978 -0.422156006
vt 0.661333978 -0.422156006
vt 0.666333973 -0.422156006
vt 0.66603303 -0.420446008
vt -0.00999999978 -0.422156006
vt -0.00999999978 -0.420446008
vt -0.00999999978 -0.422156006
vt 0.661333978 -0.422156006
vt 0.66603303 -0.420446008
vt 0.665163994 -0.418942004
vt -0.00999999978 -0.422156006
vt -0.00999999978 -0.418942004
vt -0.00999999978 -0.422156006
vt 0.661333978 -0.422156006
vt 0.665163994 -0.418942004
vt 0.663833976 -0.417825997
vt -0.00999999978 -0.422156006
vt -0.00999999978 -0.417825997
vt -0.00999999978 -0.422156006
vt 0.661333978 -0.422156006
vt 0.663833976 -0.417825997
vt 0.662202001 -0.417232007
vt -0.00999999978 -0.422156006
vt -0.00999999978 -0.417232007
vt -0.00999999978 -0.422156006
vt 0.661333978 -0.422156006
vt 0.662202001 -0.417232007
vt 0.660466015 -0.417232007
vt -0.00999999978 -0.422156006
vt -0.00999999978 -0.417232007
vt -0.00999999978 -0.422156006
vt 0.661333978 -0.422156006
vt 0.660466015 -0.417232007
vt 0.658833981 -0.417825997
vt -0.00999999978 -0.422156006
vt -0.00999999978 -0.417825997
vt -0.00999999978 -0.422156006
vt 0.661333978 -0.422156006
vt 0.658833981 -0.417825997
vt 0.657504022 -0.418942004
vt -0.00999999978 -0.422156006
vt -0.00999999978 -0.418942004
vt -0.00999999978 -0.422156006
vt 0.661333978 -0.422156006
vt 0.657504022 -0.418942004
vt 0.656636 -0.420446008
vt -0.00999999978 -0.422156006
vt -0.00999999978 -0.420446008
vt -0.00999999978 -0.422156006
vt 0.661333978 -0.422156006
vt 0.656636 -0.420446008
vt 0.656333983 -0.422156006
vt -0.00999999978 -0.422156006
vt -0.00999999978 -0.422156006
vt -0.00999999978 -0.422156006
vt 0.661333978 -0.422156006
vt 0.656333983 -0.422156006
vt 0.656636 -0.423866004
vt 0.661333978 -0.422156006
vt 0.656636 -0.423866004
vt 0.657504022 -0.425370008
vt -0.0900000036 -0.422156006
vt -0.00999999978 -0.422156006
vt -0.00999999978 -0.420446008
vt -0.0900000036 -0.423866004
vt -0.00999999978 -0.422156006
vt -0.0900000036 -0.422156006
vt -0.0900000036 -0.422156006
vt -0.00999999978 -0.420446008
vt -0.0900000036 -0.420446008
vt -0.0900000036 -0.420446008
vt -0.00999999978 -0.420446008
vt -0.00999999978 -0.418942004
vt -0.0900000036 -0.420446008
vt -0.00999999978 -0.418942004
vt -0.0900000036 -0.418942004
vt 0.657504022 0.0900000036
vt 0.657504022 0.00999999978
vt 0.658833981 0.00999999978
vt 0.657504022 0.0900000036
vt 0.658833981 0.00999999978
vt 0.658833981 0.0900000036
vt 0.658833981 0.0900000036
vt 0.658833981 0.00999999978
vt 0.660466015 0.00999999978
vt 0.658833981 0.0900000036
vt 0.660466015 0.00999999978
vt 0.660466015 0.0900000036
vt 0.660466015 0.0900000036
vt 0.660466015 0.00999999978
vt 0.662202001 0.00999999978
vt 0.660466015 0.0900000036
vt 0.662202001 0.00999999978
vt 0.662202001 0.0900000036
vt 0.662202001 0.0900000036
vt 0.662202001 0.00999999978
vt 0.663833976 0.00999999978
vt 0.662202001 0.0900000036
vt 0.663833976 0.00999999978
vt 0.663833976 0.0900000036
vt 0.663833976 0.0900000036
vt 0.663833976 0.00999999978
vt 0.665163994 0.00999999978
vt 0.663833976 0.0900000036
vt 0.665163994 0.00999999978
vt 0.665163994 0.0900000036
vt 0.0900000036 -0.418942004
vt 0.00999999978 -0.418942004
vt 0.00999999978 -0.420446008
vt 0.0900000036 -0.418942004
vt 0.00999999978 -0.420446008
vt 0.0900000036 -0.420446008
vt 0.0900000036 -0.420446008
vt 0.00999999978 -0.420446008
vt 0.00999999978 -0.422156006
vt 0.0900000036 -0.420446008
vt 0.00999999978 -0.422156006
vt 0.0900000036 -0.422156006
vt 0.0900000036 -0.422156006
vt 0.00999999978 -0.422156006
vt 0.00999999978 -0.423866004
vt 0.0900000036 -0.422156006
vt 0.00999999978 -0.423866004
vt 0.0900000036 -0.423866004
vt 0.0900000036 -0.423866004
vt 0.00999999978 -0.423866004
vt 0.00999999978 -0.425370008
vt 0.0900000036 -0.423866004
vt 0.00999999978 -0.425370008
vt 0.0900000036 -0.425370008
vt -0.665163994 0.0900000036
vt -0.665163994 0.00999999978
vt -0.663833976 0.00999999978
vt -0.665163994 0.0900000036
vt -0.663833976 0.00999999978
vt -0.663833976 0.0900000036
vt -0.663833976 0.0900000036
vt -0.663833976 0.00999999978
vt -0.662202001 0.00999999978
vt -0.663833976 0.0900000036
vt -0.662202001 0.00999999978
vt -0.662202001 0.0900000036
vt -0.662202001 0.0900000036
vt -0.662202001 0.00999999978
vt -0.660466015 0.00999999978
vt -0.662202001 0.0900000036
vt -0.660466015 0.00999999978
vt -0.660466015 0.0900000036
vt -0.660466015 0.0900000036
vt -0.660466015 0.00999999978
vt -0.658833981 0.00999999978
vt -0.660466015 0.0900000036
vt -0.658833981 0.00999999978
vt -0.658833981 0.0900000036
vt -0.658833981 0.0900000036
vt -0.658833981 0.00999999978
vt -0.657504022 0.00999999978
vt -0.658833981 0.0900000036
vt -0.657504022 0.00999999978
vt -0.657504022 0.0900000036
vt -0.0900000036 -0.425370008
vt -0.00999999978 -0.425370008
vt -0.00999999978 -0.423866004
vt -0.0900000036 -0.425370008
vt -0.00999999978 -0.423866004
vt -0.0900000036 -0.423866004
vt -0.0900000036 -0.423866004
vt -0.00999999978 -0.423866004
vt -0.00999999978 -0.422156006
f 1/1 2/2 3/3
f 4/4 5/5 6/6
f 7/7 8/8 9/9
f 10/10 11/11 12/12
f 13/13 14/14 15/15
f 6/16 5/17 16/18
f 3/19 2/20 17/21
f 9/22 8/23 18/24
f 12/25 11/26 19/27
f 15/28 14/29 20/30
f 3/31 17/32 21/33
f 21/34 17/35 22/36
f 21/37 22/38 23/39
f 23/40 22/41 24/42
f 23/43 24/44 25/45
f 25/46 24/47 26/48
f 25/49 26/50 27/51
f 27/52 26/53 28/54
f 27/55 28/56 29/57
f 29/58 28/59 30/60
f 29/61 30/62 31/63
f 31/64 30/65 32/66
f 31/67 32/68 33/69
f 33/70 32/71 34/72
f 33/73 34/74 35/75
f 35/76 34/77 36/78
f 35/79 36/80 37/81
f 37/82 36/83 38/84
f 37/85 38/86 39/87
f 39/88 38/89 40/90
f 39/91 40/92 41/93
f 41/94 40/95 42/96
f 41/97 42/98 43/99
f 43/100 42/101 44/102
f 43/103 44/104 45/105
f 45/106 44/107 46/108
f 45/109 46/110 47/111
f 47/112 46/113 48/114
f 47/115 48/116 49/117
f 49/118 48/119 50/120
f 49/121 50/122 51/123
f 51/124 50/125 52/126
f 51/127 52/128 1/129
f 1/130 52/131 2/132
f 14/133 13/134 53/135
f 53/136 13/137 54/138
f 53/139 54/140 55/141
f 55/142 54/143 56/144
f 55/145 56/146 57/147
f 57/148 56/149 58/150
f 57/151 58/152 59/153
f 59/154 58/155 60/156
f 59/157 60/158 61/159
f 61/160 60/161 62/162
f 61/163 62/164 63/165
f 63/166 62/167 64/168
f 63/169 64/170 65/171
f 65/172 64/173 66/174
f 65/175 66/176 67/177
f 67/178 66/179 68/180
f 67/181 68/182 69/183
f 69/184 68/185 70/186
f 69/187 70/188 71/189
f 71/190 70/191 72/192
f 71/193 72/194 73/195
f 73/196 72/197 74/198
f 73/199 74/200 75/201
f 75/202 74/203 76/204
f 75/205 76/206 77/207
f 77/208 76/209 78/210
f 77/211 78/212 79/213
f 79/214 78/215 80/216
f 79/217 80/218 81/219
f 81/220 80/221 82/222
f 81/223 82/224 83/225
f 83/226 82/227 84/228
f 83/229 84/230 20/231
f 20/232 84/233 15/234
f 11/235 10/236 85/237
f 85/238 10/239 86/240
f 85/241 86/242 87/243
f 87/244 86/245 88/246
f 87/247 88/248 89/249
f 89/250 88/251 90/252
f 89/253 90/254 91/255
f 91/256 90/257 92/258
f 91/259 92/260 93/261
f 93/262 92/263 94/264
f 93/265 94/266 95/267
f 95/268 94/269 96/270
f 95/271 96/272 97/273
f 97/274 96/275 98/276
f 97/277 98/278 99/279
f 99/280 98/281 100/282
f 99/283 100/284 101/285
f 101/286 100/287 102/288
f 101/289 102/290 103/291
f 103/292 102/293 104/294
f 103/295 104/296 105/297
f 105/298 104/299 106/300
f 105/301 106/302 107/303
f 107/304 106/305 108/306
f 107/307 108/308 109/309
f 109/310 108/311 110/312
f 109/313 110/314 111/315
f 111/316 110/317 112/318
f 111/319 112/320 113/321
f 113/322 112/323 114/324
f 113/325 114/326 115/327
f 115/328 114/329 116/330
f 115/331 116/332 19/333
f 19/334 116/335 12/336
f 8/337 7/338 117/339
f 117/340 7/341 118/342
f 117/343 118/344 119/345
f 119/346 118/347 120/348
f 119/349 120/350 121/351
f 121/352 120/353 122/354
f 121/355 122/356 123/357
f 123/358 122/359 124/360
f 123/361 124/362 125/363
f 125/364 124/365 126/366
f 125/367 126/368 127/369
f 127/370 126/371 128/372
f 127/373 128/374 129/375
f 129/376 128/377 130/378
f 129/379 130/380 131/381
f 131/382 130/383 132/384
f 131/385 132/386 133/387
f 133/388 132/389 134/390
f 133/391 134/392 135/393
f 135/394 134/395 136/396
f 135/397 136/398 137/399
f 137/400 136/401 138/402
f 137/403 138/404 139/405
f 139/406 138/407 140/408
f 139/409 140/410 141/411
f 141/412 140/413 142/414
f 141/415 142/416 143/417
f 143/418 142/419 144/420
f 143/421 144/422 145/423
f 145/424 144/425 146/426
f 145/427 146/428 147/429
f 147/430 146/431 148/432
f 147/433 148/434 18/435
f 18/436 148/437 9/438
f 5/439 4/440 149/441
f 149/442 4/443 150/444
f 149/445 150/446 151/447
f 151/448 150/449 152/450
f 151/451 152/452 153/453
f 153/454 152/455 154/456
f 153/457 154/458 155/459
f 155/460 154/461 156/462
f 155/463 156/464 157/465
f 157/466 156/467 158/468
f 157/469 158/470 159/471
f 159/472 158/473 160/474
f 159/475 160/476 161/477
f 161/478 160/479 162/480
f 161/481 162/482 163/483
f 163/484 162/485 164/486
f 163/487 164/488 165/489
f 165/490 164/491 166/492
f 165/493 166/494 167/495
f 167/496 166/497 168/498
f 167/499 168/500 169/501
f 169/502 168/503 170/504
f 169/505 170/506 171/507
f 171/508 170/509 172/510
f 171/511 172/512 173/513
f 173/514 172/515 174/516
f 173/517 174/518 175/519
f 175/520 174/521 176/522
f 175/523 176/524 177/525
f 177/526 176/527 178/528
f 177/529 178/530 179/531
f 179/532 178/533 180/534
f 179/535 180/536 16/537
f 16/538 180/539 6/540
f 181/541 182/542 183/543
f 183/544 182/545 184/546
f 183/547 184/548 183/549
f 183/550 184/551 185/552
f 183/553 185/554 183/555
f 183/556 185/557 186/558
f 183/559 186/560 183/561
f 183/562 186/563 187/564
f 183/565 187/566 183/567
f 183/568 187/569 188/570
f 183/571 188/572 183/573
f 183/574 188/575 189/576
f 183/577 189/578 183/579
f 183/580 189/581 190/582
f 183/583 190/584 183/585
f 183/586 190/587 191/588
f 183/589 191/590 183/591
f 183/592 191/593 192/594
f 183/595 192/596 183/597
f 183/598 192/599 193/600
f 183/601 193/602 183/603
f 183/604 193/605 194/606
f 183/607 194/608 183/609
f 183/610 194/611 195/612
f 183/613 195/614 183/615
f 183/616 195/617 196/618
f 183/619 196/620 183/621
f 183/622 196/623 197/624
f 183/625 197/626 183/627
f 183/628 197/629 198/630
f 183/631 198/632 183/633
f 183/634 198/635 199/636
f 183/637 199/638 181/639
f 116/640 114/641 200/642
f 200/643 114/644 112/645
f 200/646 112/647 200/648
f 200/649 112/650 110/651
f 200/652 110/653 200/654
f 200/655 110/656 108/657
f 200/658 108/659 200/660
f 200/661 108/662 106/663
f 200/664 106/665 200/666
f 200/667 106/668 104/669
f 200/670 104/671 200/672
f 200/673 104/674 102/675
f 200/676 102/677 200/678
f 200/679 102/680 100/681
f 200/682 100/683 200/684
f 200/685 100/686 98/687
f 200/688 98/689 200/690
f 200/691 98/692 96/693
f 200/694 96/695 200/696
f 200/697 96/698 94/699
f 200/700 94/701 200/702
f 200/703 94/704 92/705
f 200/706 92/707 200/708
f 200/709 92/710 90/711
f 200/712 90/713 200/714
f 200/715 90/716 88/717
f 200/718 88/719 200/720
f 200/721 88/722 86/723
f 200/724 86/725 200/726
f 200/727 86/728 10/729
f 200/730 10/731 200/732
f 200/733 10/734 12/735
f 200/736 12/737 116/738
f 22/739 17/740 201/741
f 201/742 17/743 2/744
f 201/745 2/746 201/747
f 201/748 2/749 52/750
f 201/751 52/752 201/753
f 201/754 52/755 50/756
f 201/757 50/758 201/759
f 201/760 50/761 48/762
f 201/763 48/764 201/765
f 201/766 48/767 46/768
f 201/769 46/770 201/771
f 201/772 46/773 44/774
f 201/775 44/776 201/777
f 201/778 44/779 42/780
f 201/781 42/782 201/783
f 201/784 42/785 40/786
f 201/787 40/788 201/789
f 201/790 40/791 38/792
f 201/793 38/794 201/795
f 201/796 38/797 36/798
f 201/799 36/800 201/801
f 201/802 36/803 34/804
f 201/805 34/806 201/807
f 201/808 34/809 32/810
f 201/811 32/812 201/813
f 201/814 32/815 30/816
f 201/817 30/818 201/819
f 201/820 30/821 28/822
f 201/823 28/824 201/825
f 201/826 28/827 26/828
f 201/829 26/830 201/831
f 201/832 26/833 24/834
f 201/835 24/836 22/837
f 149/838 151/839 202/840
f 202/841 151/842 153/843
f 202/844 153/845 202/846
f 202/847 153/848 155/849
f 202/850 155/851 202/852
f 202/853 155/854 157/855
f 202/856 157/857 202/858
f 202/859 157/860 159/861
f 202/862 159/863 202/864
f 202/865 159/866 161/867
f 202/868 161/869 202/870
f 202/871 161/872 163/873
f 202/874 163/875 202/876
f 202/877 163/878 165/879
f 202/880 165/881 202/882
f 202/883 165/884 167/885
f 202/886 167/887 202/888
f 202/889 167/890 169/891
f 202/892 169/893 202/894
f 202/895 169/896 171/897
f 202/898 171/899 202/900
f 202/901 171/902 173/903
f 202/904 173/905 202/906
f 202/907 173/908 175/909
f 202/910 175/911 202/912
f 202/913 175/914 177/915
f 202/916 177/917 202/918
f 202/919 177/920 179/921
f 202/922 179/923 202/924
f 202/925 179/926 16/927
f 202/928 16/929 202/930
f 202/931 16/932 5/933
f 202/934 5/935 149/936
f 3/937 21/938 203/939
f 203/940 21/941 23/942
f 203/943 23/944 203/945
f 203/946 23/947 25/948
f 203/949 25/950 203/951
f 203/952 25/953 27/954
f 203/955 27/956 203/957
f 203/958 27/959 29/960
f 203/961 29/962 203/963
f 203/964 29/965 31/966
f 203/967 31/968 203/969
f 203/970 31/971 33/972
f 203/973 33/974 203/975
f 203/976 33/977 35/978
f 203/979 35/980 203/981
f 203/982 35/983 37/984
f 203/985 37/986 203/987
f 203/988 37/989 39/990
f 203/991 39/992 203/993
f 203/994 39/995 41/996
f 203/997 41/998 203/999
f 203/1000 41/1001 43/1002
f 203/1003 43/1004 203/1005
f 203/1006 43/1007 45/1008
f 203/1009 45/1010 203/1011
f 203/1012 45/1013 47/1014
f 203/1015 47/1016 203/1017
f 203/1018 47/1019 49/1020
f 203/1021 49/1022 203/1023
f 203/1024 49/1025 51/1026
f 203/1027 51/1028 203/1029
f 203/1030 51/1031 1/1032
f 203/1033 1/1034 3/1035
f 82/1036 80/1037 204/1038
f 204/1039 80/1040 78/1041
f 204/1042 78/1043 204/1044
f 204/1045 78/1046 76/1047
f 204/1048 76/1049 204/1050
f 204/1051 76/1052 74/1053
f 204/1054 74/1055 204/1056
f 204/1057 74/1058 72/1059
f 204/1060 72/1061 204/1062
f 204/1063 72/1064 70/1065
f 204/1066 70/1067 204/1068
f 204/1069 70/1070 68/1071
f 204/1072 68/1073 204/1074
f 204/1075 68/1076 66/1077
f 204/1078 66/1079 204/1080
f 204/1081 66/1082 64/1083
f 204/1084 64/1085 204/1086
f 204/1087 64/1088 62/1089
f 204/1090 62/1091 204/1092
f 204/1093 62/1094 60/1095
f 204/1096 60/1097 204/1098
f 204/1099 60/1100 58/1101
f 204/1102 58/1103 204/1104
f 204/1105 58/1106 56/1107
f 204/1108 56/1109 204/1110
f 204/1111 56/1112 54/1113
f 204/1114 54/1115 204/1116
f 204/1117 54/1118 13/1119
f 204/1120 13/1121 204/1122
f 204/1123 13/1124 15/1125
f 204/1126 15/1127 204/1128
f 204/1129 15/1130 84/1131
f 204/1132 84/1133 82/1134
f 146/1135 144/1136 205/1137
f 205/1138 144/1139 142/1140
f 205/1141 142/1142 205/1143
f 205/1144 142/1145 140/1146
f 205/1147 140/1148 205/1149
f 205/1150 140/1151 138/1152
f 205/1153 138/1154 205/1155
f 205/1156 138/1157 136/1158
f 205/1159 136/1160 205/1161
f 205/1162 136/1163 134/1164
f 205/1165 134/1166 205/1167
f 205/1168 134/1169 132/1170
f 205/1171 132/1172 205/1173
f 205/1174 132/1175 130/1176
f 205/1177 130/1178 205/1179
f 205/1180 130/1181 128/1182
f 205/1183 128/1184 205/1185
f 205/1186 128/1187 126/1188
f 205/1189 126/1190 205/1191
f 205/1192 126/1193 124/1194
f 205/1195 124/1196 205/1197
f 205/1198 124/1199 122/1200
f 205/1201 122/1202 205/1203
f 205/1204 122/1205 120/1206
f 205/1207 120/1208 205/1209
f 205/1210 120/1211 118/1212
f 205/1213 118/1214 205/1215
f 205/1216 118/1217 7/1218
f 205/1219 7/1220 205/1221
f 205/1222 7/1223 9/1224
f 205/1225 9/1226 205/1227
f 205/1228 9/1229 148/1230
f 205/1231 148/1232 146/1233
f 113/1234 115/1235 206/1236
f 206/1237 115/1238 19/1239
f 206/1240 19/1241 206/1242
f 206/1243 19/1244 11/1245
f 206/1246 11/1247 206/1248
f 206/1249 11/1250 85/1251
f 206/1252 85/1253 206/1254
f 206/1255 85/1256 87/1257
f 206/1258 87/1259 206/1260
f 206/1261 87/1262 89/1263
f 206/1264 89/1265 206/1266
f 206/1267 89/1268 91/1269
f 206/1270 91/1271 206/1272
f 206/1273 91/1274 93/1275
f 206/1276 93/1277 206/1278
f 206/1279 93/1280 95/1281
f 206/1282 95/1283 206/1284
f 206/1285 95/1286 97/1287
f 206/1288 97/1289 206/1290
f 206/1291 97/1292 99/1293
f 206/1294 99/1295 206/1296
f 206/1297 99/1298 101/1299
f 206/1300 101/1301 206/1302
f 206/1303 101/1304 103/1305
f 206/1306 103/1307 206/1308
f 206/1309 103/1310 105/1311
f 206/1312 105/1313 206/1314
f 206/1315 105/1316 107/1317
f 206/1318 107/1319 206/1320
f 206/1321 107/1322 109/1323
f 206/1324 109/1325 206/1326
f 206/1327 109/1328 111/1329
f 206/1330 111/1331 113/1332
f 145/1333 147/1334 207/1335
f 207/1336 147/1337 18/1338
f 207/1339 18/1340 207/1341
f 207/1342 18/1343 8/1344
f 207/1345 8/1346 207/1347
f 207/1348 8/1349 117/1350
f 207/1351 117/1352 207/1353
f 207/1354 117/1355 119/1356
f 207/1357 119/1358 207/1359
f 207/1360 119/1361 121/1362
f 207/1363 121/1364 207/1365
f 207/1366 121/1367 123/1368
f 207/1369 123/1370 207/1371
f 207/1372 123/1373 125/1374
f 207/1375 125/1376 207/1377
f 207/1378 125/1379 127/1380
f 207/1381 127/1382 207/1383
f 207/1384 127/1385 129/1386
f 207/1387 129/1388 207/1389
f 207/1390 129/1391 131/1392
f 207/1393 131/1394 207/1395
f 207/1396 131/1397 133/1398
f 207/1399 133/1400 207/1401
f 207/1402 133/1403 135/1404
f 207/1405 135/1406 207/1407
f 207/1408 135/1409 137/1410
f 207/1411 137/1412 207/1413
f 207/1414 137/1415 139/1416
f 207/1417 139/1418 207/1419
f 207/1420 139/1421 141/1422
f 207/1423 141/1424 207/1425
f 207/1426 141/1427 143/1428
f 207/1429 143/1430 145/1431
f 180/1432 178/1433 208/1434
f 208/1435 178/1436 176/1437
f 208/1438 176/1439 208/1440
f 208/1441 176/1442 174/1443
f 208/1444 174/1445 208/1446
f 208/1447 174/1448 172/1449
f 208/1450 172/1451 208/1452
f 208/1453 172/1454 170/1455
f 208/1456 170/1457 208/1458
f 208/1459 170/1460 168/1461
f 208/1462 168/1463 208/1464
f 208/1465 168/1466 166/1467
f 208/1468 166/1469 208/1470
f 208/1471 166/1472 164/1473
f 208/1474 164/1475 208/1476
f 208/1477 164/1478 162/1479
f 208/1480 162/1481 208/1482
f 208/1483 162/1484 160/1485
f 208/1486 160/1487 208/1488
f 208/1489 160/1490 158/1491
f 208/1492 158/1493 208/1494
f 208/1495 158/1496 156/1497
f 208/1498 156/1499 208/1500
f 208/1501 156/1502 154/1503
f 208/1504 154/1505 208/1506
f 208/1507 154/1508 152/1509
f 208/1510 152/1511 208/1512
f 208/1513 152/1514 150/1515
f 208/1516 150/1517 208/1518
f 208/1519 150/1520 4/1521
f 208/1522 4/1523 208/1524
f 208/1525 4/1526 6/1527
f 208/1528 6/1529 180/1530
f 81/1531 83/1532 209/1533
f 209/1534 83/1535 20/1536
f 209/1537 20/1538 209/1539
f 209/1540 20/1541 14/1542
f 209/1543 14/1544 209/1545
f 209/1546 14/1547 53/1548
f 209/1549 53/1550 209/1551
f 209/1552 53/1553 55/1554
f 209/1555 55/1556 209/1557
f 209/1558 55/1559 57/1560
f 209/1561 57/1562 209/1563
f 209/1564 57/1565 59/1566
f 209/1567 59/1568 209/1569
f 209/1570 59/1571 61/1572
f 209/1573 61/1574 209/1575
f 209/1576 61/1577 63/1578
f 209/1579 63/1580 209/1581
f 209/1582 63/1583 65/1584
f 209/1585 65/1586 209/1587
f 209/1588 65/1589 67/1590
f 209/1591 67/1592 209/1593
f 209/1594 67/1595 69/1596
f 209/1597 69/1598 209/1599
f 209/1600 69/1601 71/1602
f 209/1603 71/1604 209/1605
f 209/1606 71/1607 73/1608
f 209/1609 73/1610 209/1611
f 209/1612 73/1613 75/1614
f 209/1615 75/1616 209/1617
f 209/1618 75/1619 77/1620
f 209/1621 77/1622 209/1623
f 209/1624 77/1625 79/1626
f 209/1627 79/1628 81/1629
f 210/1630 211/1631 212/1632
f 212/1633 211/1634 213/1635
f 212/1636 213/1637 212/1638
f 212/1639 213/1640 214/1641
f 212/1642 214/1643 212/1644
f 212/1645 214/1646 215/1647
f 212/1648 215/1649 212/1650
f 212/1651 215/1652 216/1653
f 212/1654 216/1655 212/1656
f 212/1657 216/1658 217/1659
f 212/1660 217/1661 212/1662
f 212/1663 217/1664 218/1665
f 212/1666 218/1667 212/1668
f 212/1669 218/1670 219/1671
f 212/1672 219/1673 212/1674
f 212/1675 219/1676 220/1677
f 212/1678 220/1679 212/1680
f 212/1681 220/1682 221/1683
f 212/1684 221/1685 212/1686
f 212/1687 221/1688 222/1689
f 212/1690 222/1691 212/1692
f 212/1693 222/1694 223/1695
f 212/1696 223/1697 212/1698
f 212/1699 223/1700 224/1701
f 212/1702 224/1703 212/1704
f 212/1705 224/1706 225/1707
f 212/1708 225/1709 212/1710
f 212/1711 225/1712 226/1713
f 212/1714 226/1715 212/1716
f 212/1717 226/1718 227/1719
f 212/1720 227/1721 212/1722
f 212/1723 227/1724 228/1725
f 212/1726 228/1727 210/1728
f 199/1729 227/1730 226/1731
f 198/1732 227/1733 199/1734
f 199/1735 226/1736 181/1737
f 181/1738 226/1739 225/1740
f 181/1741 225/1742 182/1743
f 182/1744 225/1745 224/1746
f 182/1747 224/1748 184/1749
f 184/1750 224/1751 223/1752
f 184/1753 223/1754 185/1755
f 185/1756 223/1757 222/1758
f 185/1759 222/1760 186/1761
f 186/1762 222/1763 221/1764
f 186/1765 221/1766 187/1767
f 187/1768 221/1769 220/1770
f 187/1771 220/1772 188/1773
f 188/1774 220/1775 219/1776
f 188/1777 219/1778 189/1779
f 189/1780 219/1781 218/1782
f 189/1783 218/1784 190/1785
f 190/1786 218/1787 217/1788
f 190/1789 217/1790 191/1791
f 191/1792 217/1793 216/1794
f 191/1795 216/1796 192/1797
f 192/1798 216/1799 215/1800
f 192/1801 215/1802 193/1803
f 193/1804 215/1805 214/1806
f 193/1807 214/1808 194/1809
f 194/1810 214/1811 213/1812
f 194/1813 213/1814 195/1815
f 195/1816 213/1817 211/1818
f 195/1819 211/1820 196/1821
f 196/1822 211/1823 210/1824
f 196/1825 210/1826 197/1827
f 197/1828 210/1829 228/1830
f 197/1831 228/1832 198/1833
f 198/1834 228/1835 227/1836
