# Exported from USD for MuJoCo with source material subsets
v 11.374674 1.4138421 0.540000868
v 10.4646745 1.41384257 0.540000629
v 11.231674 1.4138421 0.760000718
v 11.273924 1.4138421 0.760000777
v 11.335674 1.4138421 0.81000073
v 11.3746739 1.4138421 1.0400006
v 11.273924 1.4138421 0.81000073
v 11.270674 1.4138421 0.762500775
v 11.231674 1.4138421 0.762500715
v 11.270674 1.4138421 0.910000753
v 10.6076743 1.41384257 0.760000598
v 10.6076743 1.41384257 0.762500596
v 10.5654244 1.41384257 0.760000539
v 10.5686744 1.41384257 0.762500536
v 10.5686743 1.41384257 0.910000515
v 10.5036744 1.41384257 0.810000491
v 10.4646743 1.41384257 1.04000036
v 11.3746736 0.54984273 1.0400006
v 10.4646741 0.549842969 1.04000036
v 11.2706737 0.54984285 0.910000753
v 11.3356737 0.54984285 0.81000073
v 11.3746738 0.54984273 0.540000868
v 10.5654244 1.41384257 0.810000491
v 11.2706737 0.54984285 0.762500775
v 11.2316738 0.54984285 0.762500715
v 11.2739237 0.54984285 0.760000777
v 11.2316738 0.54984285 0.760000718
v 10.4646742 0.549842969 0.540000629
v 10.6076741 0.54984285 0.762500596
v 10.6076741 0.54984285 0.760000598
v 10.5654241 0.549842969 0.760000539
v 10.5654241 0.549842969 0.810000491
v 10.5036741 0.549842969 0.810000491
v 10.5686741 0.549842969 0.762500536
v 10.5686741 0.549842969 0.910000515
v 11.2394288 2.57944168 0.805000675
v 11.2361788 2.57944168 0.805000675
v 11.2394288 2.57384171 0.805000675
v 11.2394288 2.57944168 0.790000749
v 11.2394288 2.57384171 0.790000749
v 11.2361788 2.57944168 0.790000749
v 11.187429 2.57384171 0.790000749
v 11.187429 2.57384171 0.805000675
v 11.190679 2.57944168 0.805000675
v 11.187429 2.57944168 0.805000675
v 11.187429 2.57944168 0.790000749
v 11.190679 2.57944168 0.790000749
v 11.190679 2.58584179 0.790000749
v 11.2361788 2.58584179 0.805000675
v 11.190679 2.58584179 0.805000675
v 11.2361788 2.58584179 0.790000749
v 11.2739237 0.54984285 0.81000073
v 11.2394287 1.96824183 0.805000675
v 11.2394287 1.97384204 0.805000675
v 11.2361787 1.96824183 0.805000675
v 11.2394287 1.96824183 0.790000749
v 11.2361787 1.96824183 0.790000749
v 11.2394287 1.97384204 0.790000749
v 11.1906787 1.9682423 0.805000675
v 11.2361787 1.96184196 0.805000675
v 11.1874287 1.97384204 0.805000675
v 11.1906787 1.9682423 0.790000749
v 11.1874287 1.97384204 0.790000749
v 11.1874287 1.9682423 0.790000749
v 11.1874287 1.9682423 0.805000675
v 11.2361787 1.96184196 0.790000749
v 11.1906787 1.96184196 0.790000749
v 11.1906787 1.96184196 0.805000675
v 11.3746741 1.65384211 0.540000868
v 10.4646746 1.65384211 0.540000629
v 11.2094782 1.94805469 0.805000675
v 11.2173792 1.94805469 0.805000675
v 11.2020537 1.94971789 0.805000675
v 11.1960012 1.95284309 0.805000675
v 11.2248037 1.94971789 0.805000675
v 11.2308562 1.95284285 0.805000675
v 11.1920508 1.9570538 0.805000675
v 11.2348067 1.9570538 0.805000675
v 11.2094782 1.94805469 0.790000749
v 11.2020537 1.94971789 0.790000749
v 11.2173792 1.94805469 0.790000749
v 11.1960012 1.95284309 0.790000749
v 11.2248037 1.94971789 0.790000749
v 11.2308562 1.95284285 0.790000749
v 11.1920508 1.9570538 0.790000749
v 11.2348067 1.9570538 0.790000749
v 11.2248039 2.59796585 0.790000749
v 11.2308564 2.5948409 0.790000749
v 11.2173794 2.59962882 0.790000749
v 11.2094784 2.59962882 0.790000749
v 11.2020539 2.59796585 0.790000749
v 11.1960014 2.5948409 0.790000749
v 11.2348069 2.59062995 0.790000749
v 11.192051 2.59062995 0.790000749
v 11.2248039 2.59796585 0.805000675
v 11.2173794 2.59962882 0.805000675
v 11.2308564 2.5948409 0.805000675
v 11.2094784 2.59962882 0.805000675
v 11.2020539 2.59796585 0.805000675
v 11.1960014 2.5948409 0.805000675
v 11.2348069 2.59062995 0.805000675
v 11.192051 2.59062995 0.805000675
v 10.4646744 1.65384211 1.04000036
v 11.374674 1.65384211 1.0400006
v 10.4646741 0.309842959 0.540000629
v 10.464674 0.309842959 1.04000036
v 10.5036741 0.549842969 0.910000515
v 10.5036743 1.41384257 0.910000515
v 11.3356737 0.54984285 0.910000753
v 11.3746735 0.30984284 1.0400006
v 11.3746737 0.30984284 0.540000868
v 11.3356739 1.4138421 0.910000753
v 11.236178 -0.0445570199 0.805000675
v 11.239428 -0.0445570199 0.805000675
v 11.236178 -0.0445570199 0.790000749
v 11.239428 -0.0445570199 0.790000749
v 11.239428 -0.0501569955 0.790000749
v 11.239428 -0.0501569955 0.805000675
v 11.1874281 -0.0445570199 0.790000749
v 11.1874281 -0.0501569955 0.790000749
v 11.1874281 -0.0445570199 0.805000675
v 11.1874281 -0.0501569955 0.805000675
v 11.1906781 -0.0445570199 0.790000749
v 11.1906781 -0.0445570199 0.805000675
v 11.1906781 -0.0381569115 0.790000749
v 11.1906781 -0.0381569115 0.805000675
v 11.1920501 -0.033368632 0.805000675
v 11.1920501 -0.033368632 0.790000749
v 11.1960006 -0.0291579215 0.805000675
v 11.1960006 -0.0291579215 0.790000749
v 11.2020531 -0.0260326115 0.805000675
v 11.2020531 -0.0260326115 0.790000749
v 11.2094776 -0.0243695823 0.805000675
v 11.2094776 -0.0243695823 0.790000749
v 11.2173786 -0.0243695823 0.805000675
v 11.2173786 -0.0243695823 0.790000749
v 11.2248031 -0.0260326711 0.805000675
v 11.2248031 -0.0260326711 0.790000749
v 11.2308556 -0.0291579811 0.805000675
v 11.2308556 -0.0291579811 0.790000749
v 11.2348061 -0.0333686916 0.805000675
v 11.2348061 -0.0333686916 0.790000749
v 11.2361781 -0.0381569712 0.805000675
v 11.2361781 -0.0381569712 0.790000749
v 11.2394279 -0.655756697 0.790000749
v 11.2394279 -0.650156632 0.790000749
v 11.2394279 -0.655756697 0.805000675
v 11.2394279 -0.650156632 0.805000675
v 11.2361779 -0.655756697 0.805000675
v 11.2361779 -0.655756697 0.790000749
v 11.2361779 -0.662156746 0.790000749
v 11.2361779 -0.662156746 0.805000675
v 11.2348059 -0.666945085 0.805000675
v 11.2348059 -0.666945085 0.790000749
v 11.2308554 -0.671155765 0.805000675
v 11.2308554 -0.671155765 0.790000749
v 11.2248029 -0.674280986 0.805000675
v 11.2248029 -0.674280986 0.790000749
v 11.2173783 -0.675944105 0.805000675
v 11.2173783 -0.675944105 0.790000749
v 11.2094774 -0.675944105 0.805000675
v 11.2094774 -0.675944105 0.790000749
v 11.2020529 -0.674280986 0.805000675
v 11.2020529 -0.674280986 0.790000749
v 11.1960004 -0.671155765 0.805000675
v 11.1960004 -0.671155765 0.790000749
v 11.1920499 -0.666945085 0.805000675
v 11.1920499 -0.666945085 0.790000749
v 11.190678 -0.662156746 0.805000675
v 11.190678 -0.662156746 0.790000749
v 11.190678 -0.655756697 0.790000749
v 11.190678 -0.655756697 0.805000675
v 11.187428 -0.655756697 0.790000749
v 11.187428 -0.655756697 0.805000675
v 11.187428 -0.650156632 0.790000749
v 11.187428 -0.650156632 0.805000675
vt -0.446350992 0.540000021
vt 0.463649005 0.540000021
vt -0.303351015 0.75999999
vt -0.446350992 0.540000021
vt -0.303351015 0.75999999
vt -0.345600992 0.75999999
vt -0.446350992 0.540000021
vt -0.345600992 0.75999999
vt -0.407350987 0.810000002
vt -0.446350992 0.540000021
vt -0.407350987 0.810000002
vt -0.446350992 1.03999996
vt -0.345600992 0.75999999
vt -0.345600992 0.810000002
vt -0.407350987 0.810000002
vt -0.34235099 0.762499988
vt -0.303351015 0.762499988
vt -0.34235099 0.910000026
vt -0.303351015 0.762499988
vt -0.303351015 0.75999999
vt 0.320648998 0.75999999
vt -0.303351015 0.762499988
vt 0.320648998 0.75999999
vt -0.34235099 0.910000026
vt -0.303351015 0.75999999
vt 0.463649005 0.540000021
vt 0.320648998 0.75999999
vt -0.34235099 0.910000026
vt 0.320648998 0.75999999
vt 0.320648998 0.762499988
vt 0.320648998 0.75999999
vt 0.463649005 0.540000021
vt 0.362899005 0.75999999
vt 0.359649003 0.762499988
vt 0.359649003 0.910000026
vt 0.320648998 0.762499988
vt 0.362899005 0.75999999
vt 0.463649005 0.540000021
vt 0.424649 0.810000002
vt 0.463649005 0.540000021
vt 0.463649005 1.03999996
vt 0.424649 0.810000002
vt 0.359649003 0.910000026
vt 0.463649005 1.03999996
vt -0.446350992 1.03999996
vt 0.446350992 1.03999996
vt -0.463649005 1.03999996
vt 0.34235099 0.910000026
vt 0.446350992 1.03999996
vt 0.407350987 0.810000002
vt 0.446350992 0.540000021
vt 0.362899005 0.810000002
vt 0.362899005 0.75999999
vt 0.424649 0.810000002
vt 0.34235099 0.762499988
vt 0.34235099 0.910000026
vt 0.303351015 0.762499988
vt 0.407350987 0.810000002
vt 0.345600992 0.75999999
vt 0.446350992 0.540000021
vt 0.345600992 0.75999999
vt 0.303351015 0.75999999
vt 0.446350992 0.540000021
vt 0.446350992 0.540000021
vt 0.303351015 0.75999999
vt -0.463649005 0.540000021
vt 0.303351015 0.75999999
vt 0.303351015 0.762499988
vt -0.320648998 0.762499988
vt 0.303351015 0.75999999
vt -0.320648998 0.762499988
vt -0.320648998 0.75999999
vt 0.303351015 0.75999999
vt -0.320648998 0.75999999
vt -0.463649005 0.540000021
vt -0.320648998 0.75999999
vt -0.362899005 0.75999999
vt -0.463649005 0.540000021
vt -0.362899005 0.810000002
vt -0.424649 0.810000002
vt -0.362899005 0.75999999
vt -0.362899005 0.75999999
vt -0.424649 0.810000002
vt -0.463649005 0.540000021
vt -0.359649003 0.762499988
vt -0.320648998 0.762499988
vt -0.359649003 0.910000026
vt -0.424649 0.810000002
vt -0.463649005 1.03999996
vt -0.463649005 0.540000021
vt -0.311105013 -1.59760106
vt -0.30785501 -1.59760106
vt -0.311105013 -1.59200096
vt 0.311105013 -1.59760106
vt 0.311105013 -1.59200096
vt 0.30785501 -1.59760106
vt 0.311105013 -1.59200096
vt 0.259104997 -1.59200096
vt 0.30785501 -1.59760106
vt -0.311105013 -1.59200096
vt -0.30785501 -1.59760106
vt -0.259104997 -1.59200096
vt -0.259104997 -1.59200096
vt -0.30785501 -1.59760106
vt -0.262355 -1.59760106
vt -0.259104997 -1.59200096
vt -0.262355 -1.59760106
vt -0.259104997 -1.59760106
vt 0.259104997 -1.59760106
vt 0.262355 -1.59760106
vt 0.259104997 -1.59200096
vt 0.259104997 -1.59200096
vt 0.262355 -1.59760106
vt 0.30785501 -1.59760106
vt 0.262355 -1.59760106
vt 0.262355 -1.60400105
vt 0.30785501 -1.59760106
vt -0.262355 -1.59760106
vt -0.30785501 -1.59760106
vt -0.30785501 -1.60400105
vt -0.262355 -1.59760106
vt -0.30785501 -1.60400105
vt -0.262355 -1.60400105
vt 0.30785501 -1.59760106
vt 0.262355 -1.60400105
vt 0.30785501 -1.60400105
vt 0.345600992 0.810000002
vt 0.345600992 0.75999999
vt 0.407350987 0.810000002
vt -0.311105013 -0.986401021
vt -0.311105013 -0.992000997
vt -0.30785501 -0.986401021
vt 0.311105013 -0.986401021
vt 0.30785501 -0.986401021
vt 0.311105013 -0.992000997
vt -0.30785501 -0.986401021
vt -0.311105013 -0.992000997
vt -0.262355 -0.986401021
vt -0.30785501 -0.986401021
vt -0.262355 -0.986401021
vt -0.30785501 -0.980000973
vt -0.311105013 -0.992000997
vt -0.259104997 -0.992000997
vt -0.262355 -0.986401021
vt 0.311105013 -0.992000997
vt 0.30785501 -0.986401021
vt 0.262355 -0.986401021
vt 0.311105013 -0.992000997
vt 0.262355 -0.986401021
vt 0.259104997 -0.992000997
vt 0.259104997 -0.992000997
vt 0.262355 -0.986401021
vt 0.259104997 -0.986401021
vt -0.259104997 -0.992000997
vt -0.259104997 -0.986401021
vt -0.262355 -0.986401021
vt 0.30785501 -0.986401021
vt 0.30785501 -0.980000973
vt 0.262355 -0.986401021
vt 0.262355 -0.986401021
vt 0.30785501 -0.980000973
vt 0.262355 -0.980000973
vt -0.262355 -0.986401021
vt -0.262355 -0.980000973
vt -0.30785501 -0.980000973
vt -0.446350992 -0.432000995
vt -0.446350992 -0.672001004
vt 0.463649005 -0.432000995
vt 0.463649005 -0.432000995
vt -0.446350992 -0.672001004
vt 0.463649005 -0.672001004
vt -0.28115499 -0.966214001
vt -0.289056003 -0.966214001
vt -0.27373001 -0.967876971
vt -0.805000007 -0.967876971
vt -0.805000007 -0.966214001
vt -0.805000007 -0.966214001
vt -0.27373001 -0.967876971
vt -0.289056003 -0.966214001
vt -0.267677993 -0.971001983
vt -0.267677993 -0.971001983
vt -0.289056003 -0.966214001
vt -0.29648 -0.967876971
vt -0.805000007 -0.971001983
vt -0.805000007 -0.967876971
vt -0.805000007 -0.971001983
vt -0.267677993 -0.971001983
vt -0.29648 -0.967876971
vt -0.302533001 -0.971001983
vt -0.267677993 -0.971001983
vt -0.302533001 -0.971001983
vt -0.263727009 -0.975212991
vt -0.805000007 -0.975212991
vt -0.805000007 -0.971001983
vt -0.805000007 -0.971001983
vt -0.263727009 -0.975212991
vt -0.302533001 -0.971001983
vt -0.262355 -0.980000973
vt -0.262355 -0.980000973
vt -0.302533001 -0.971001983
vt -0.306483001 -0.975212991
vt -0.262355 -0.980000973
vt -0.306483001 -0.975212991
vt -0.30785501 -0.980000973
vt 0.28115499 -0.966214001
vt 0.27373001 -0.967876971
vt 0.289056003 -0.966214001
vt 0.289056003 -0.966214001
vt 0.27373001 -0.967876971
vt 0.267677993 -0.971001983
vt 0.289056003 -0.966214001
vt 0.267677993 -0.971001983
vt 0.29648 -0.967876971
vt -0.790000021 -0.967876971
vt -0.790000021 -0.971001983
vt -0.790000021 -0.971001983
vt 0.29648 -0.967876971
vt 0.267677993 -0.971001983
vt 0.302533001 -0.971001983
vt 0.302533001 -0.971001983
vt 0.267677993 -0.971001983
vt 0.263727009 -0.975212991
vt -0.790000021 -0.971001983
vt -0.790000021 -0.975212991
vt -0.790000021 -0.971001983
vt 0.302533001 -0.971001983
vt 0.263727009 -0.975212991
vt 0.262355 -0.980000973
vt 0.302533001 -0.971001983
vt 0.262355 -0.980000973
vt 0.306483001 -0.975212991
vt 0.306483001 -0.975212991
vt 0.262355 -0.980000973
vt 0.30785501 -0.980000973
vt -0.790000021 -0.980000973
vt -0.790000021 -0.975212991
vt -0.805000007 -0.980000973
vt -0.805000007 -0.980000973
vt -0.790000021 -0.975212991
vt -0.790000021 -0.975212991
vt -0.805000007 -0.980000973
vt -0.790000021 -0.975212991
vt -0.805000007 -0.975212991
vt -0.805000007 -0.975212991
vt -0.790000021 -0.975212991
vt -0.790000021 -0.971001983
vt -0.805000007 -0.975212991
vt -0.790000021 -0.971001983
vt -0.805000007 -0.971001983
vt 0.267677993 0.805000007
vt 0.267677993 0.790000021
vt 0.27373001 0.790000021
vt 0.267677993 0.805000007
vt 0.27373001 0.790000021
vt 0.27373001 0.805000007
vt 0.27373001 0.805000007
vt 0.27373001 0.790000021
vt 0.28115499 0.790000021
vt 0.27373001 0.805000007
vt 0.28115499 0.790000021
vt 0.28115499 0.805000007
vt 0.28115499 0.805000007
vt 0.28115499 0.790000021
vt 0.289056003 0.790000021
vt 0.28115499 0.805000007
vt 0.289056003 0.790000021
vt 0.289056003 0.805000007
vt 0.289056003 0.805000007
vt 0.289056003 0.790000021
vt 0.29648 0.790000021
vt 0.289056003 0.805000007
vt 0.29648 0.790000021
vt 0.29648 0.805000007
vt 0.29648 0.805000007
vt 0.29648 0.790000021
vt 0.302533001 0.790000021
vt 0.29648 0.805000007
vt 0.302533001 0.790000021
vt 0.302533001 0.805000007
vt 0.805000007 -0.971001983
vt 0.790000021 -0.971001983
vt 0.790000021 -0.975212991
vt 0.805000007 -0.971001983
vt 0.790000021 -0.975212991
vt 0.805000007 -0.975212991
vt 0.805000007 -0.975212991
vt 0.790000021 -0.975212991
vt 0.790000021 -0.980000973
vt 0.805000007 -0.975212991
vt 0.790000021 -0.980000973
vt 0.805000007 -0.980000973
vt 0.805000007 -0.980000973
vt 0.790000021 -0.980000973
vt 0.790000021 -0.986401021
vt 0.805000007 -0.980000973
vt 0.790000021 -0.986401021
vt 0.805000007 -0.986401021
vt -0.805000007 -0.980000973
vt -0.805000007 -0.986401021
vt -0.790000021 -0.980000973
vt -0.790000021 -0.980000973
vt -0.805000007 -0.986401021
vt -0.790000021 -0.986401021
vt 0.262355 0.805000007
vt 0.259104997 0.805000007
vt 0.262355 0.790000021
vt 0.262355 0.790000021
vt 0.259104997 0.805000007
vt 0.259104997 0.790000021
vt -0.805000007 -0.986401021
vt -0.805000007 -0.992000997
vt -0.790000021 -0.986401021
vt -0.790000021 -0.986401021
vt -0.805000007 -0.992000997
vt -0.790000021 -0.992000997
vt 0.805000007 -1.59760106
vt 0.805000007 -1.59200096
vt 0.790000021 -1.59760106
vt 0.790000021 -1.59760106
vt 0.805000007 -1.59200096
vt 0.790000021 -1.59200096
vt 0.30785501 0.790000021
vt 0.311105013 0.790000021
vt 0.30785501 0.805000007
vt 0.30785501 0.805000007
vt 0.311105013 0.790000021
vt 0.311105013 0.805000007
vt 0.805000007 -0.992000997
vt 0.805000007 -0.986401021
vt 0.790000021 -0.992000997
vt 0.790000021 -0.992000997
vt 0.805000007 -0.986401021
vt 0.790000021 -0.986401021
vt 0.29648 -1.61612499
vt 0.302533001 -1.61300004
vt 0.289056003 -1.61778796
vt -0.790000021 -1.61778796
vt -0.790000021 -1.61300004
vt -0.790000021 -1.61300004
vt 0.289056003 -1.61778796
vt 0.302533001 -1.61300004
vt 0.28115499 -1.61778796
vt -0.790000021 -1.61778796
vt -0.790000021 -1.61300004
vt -0.790000021 -1.61300004
vt 0.28115499 -1.61778796
vt 0.302533001 -1.61300004
vt 0.27373001 -1.61612499
vt -0.790000021 -1.61612499
vt -0.790000021 -1.61300004
vt -0.790000021 -1.61300004
vt 0.27373001 -1.61612499
vt 0.302533001 -1.61300004
vt 0.267677993 -1.61300004
vt 0.267677993 -1.61300004
vt 0.302533001 -1.61300004
vt 0.306483001 -1.60878897
vt -0.790000021 -1.61300004
vt -0.790000021 -1.60878897
vt -0.790000021 -1.61300004
vt 0.267677993 -1.61300004
vt 0.306483001 -1.60878897
vt 0.30785501 -1.60400105
vt 0.267677993 -1.61300004
vt 0.30785501 -1.60400105
vt 0.263727009 -1.60878897
vt 0.263727009 -1.60878897
vt 0.30785501 -1.60400105
vt 0.262355 -1.60400105
vt -0.29648 -1.61612499
vt -0.289056003 -1.61778796
vt -0.302533001 -1.61300004
vt -0.302533001 -1.61300004
vt -0.289056003 -1.61778796
vt -0.28115499 -1.61778796
vt -0.805000007 -1.61300004
vt -0.805000007 -1.61778796
vt -0.805000007 -1.61300004
vt -0.302533001 -1.61300004
vt -0.28115499 -1.61778796
vt -0.27373001 -1.61612499
vt -0.805000007 -1.61300004
vt -0.805000007 -1.61612499
vt -0.805000007 -1.61300004
vt -0.302533001 -1.61300004
vt -0.27373001 -1.61612499
vt -0.267677993 -1.61300004
vt -0.302533001 -1.61300004
vt -0.267677993 -1.61300004
vt -0.306483001 -1.60878897
vt -0.805000007 -1.60878897
vt -0.805000007 -1.61300004
vt -0.805000007 -1.61300004
vt -0.306483001 -1.60878897
vt -0.267677993 -1.61300004
vt -0.30785501 -1.60400105
vt -0.30785501 -1.60400105
vt -0.267677993 -1.61300004
vt -0.263727009 -1.60878897
vt -0.30785501 -1.60400105
vt -0.263727009 -1.60878897
vt -0.262355 -1.60400105
vt -0.463649005 -0.672001004
vt 0.446350992 -0.672001004
vt -0.463649005 -0.432000995
vt -0.463649005 -0.432000995
vt 0.446350992 -0.672001004
vt 0.446350992 -0.432000995
vt 0.790000021 -1.59760106
vt 0.790000021 -1.60400105
vt 0.805000007 -1.59760106
vt -0.805000007 -1.59760106
vt -0.790000021 -1.60400105
vt -0.790000021 -1.60400105
vt 0.805000007 -1.59760106
vt 0.790000021 -1.60400105
vt 0.805000007 -1.60400105
vt 0.805000007 -1.60400105
vt 0.790000021 -1.60400105
vt 0.790000021 -1.60878897
vt 0.805000007 -1.60400105
vt 0.790000021 -1.60878897
vt 0.805000007 -1.60878897
vt 0.805000007 -1.60878897
vt 0.790000021 -1.60878897
vt 0.790000021 -1.61300004
vt 0.805000007 -1.60878897
vt 0.790000021 -1.61300004
vt 0.805000007 -1.61300004
vt -0.302533001 0.805000007
vt -0.302533001 0.790000021
vt -0.29648 0.790000021
vt -0.302533001 0.805000007
vt -0.29648 0.790000021
vt -0.29648 0.805000007
vt -0.29648 0.805000007
vt -0.29648 0.790000021
vt -0.289056003 0.790000021
vt -0.29648 0.805000007
vt -0.289056003 0.790000021
vt -0.289056003 0.805000007
vt -0.289056003 0.805000007
vt -0.289056003 0.790000021
vt -0.28115499 0.790000021
vt -0.289056003 0.805000007
vt -0.28115499 0.790000021
vt -0.28115499 0.805000007
vt -0.28115499 0.805000007
vt -0.28115499 0.790000021
vt -0.27373001 0.790000021
vt -0.28115499 0.805000007
vt -0.27373001 0.790000021
vt -0.27373001 0.805000007
vt -0.27373001 0.805000007
vt -0.27373001 0.790000021
vt -0.267677993 0.790000021
vt -0.27373001 0.805000007
vt -0.267677993 0.790000021
vt -0.267677993 0.805000007
vt -0.805000007 -1.61300004
vt -0.790000021 -1.61300004
vt -0.790000021 -1.60878897
vt -0.805000007 -1.61300004
vt -0.790000021 -1.60878897
vt -0.805000007 -1.60878897
vt -0.805000007 -1.60878897
vt -0.790000021 -1.60878897
vt -0.790000021 -1.60400105
vt -0.805000007 -1.60878897
vt -0.790000021 -1.60400105
vt -0.805000007 -1.60400105
vt -0.805000007 -1.60400105
vt -0.790000021 -1.60400105
vt -0.790000021 -1.59760106
vt -0.805000007 -1.60400105
vt -0.790000021 -1.59760106
vt -0.805000007 -1.59760106
vt -0.262355 0.790000021
vt -0.259104997 0.790000021
vt -0.262355 0.805000007
vt -0.262355 0.805000007
vt -0.259104997 0.790000021
vt -0.259104997 0.805000007
vt -0.790000021 -1.59760106
vt -0.790000021 -1.59200096
vt -0.805000007 -1.59760106
vt -0.805000007 -1.59760106
vt -0.790000021 -1.59200096
vt -0.805000007 -1.59200096
vt 0.540000021 0.671998978
vt 0.540000021 0.431998998
vt 1.03999996 0.671998978
vt 1.03999996 0.671998978
vt 0.540000021 0.431998998
vt 1.03999996 0.431998998
vt -0.311105013 0.790000021
vt -0.30785501 0.790000021
vt -0.311105013 0.805000007
vt -0.311105013 0.805000007
vt -0.30785501 0.790000021
vt -0.30785501 0.805000007
vt -1.03999996 -0.672001004
vt -0.540000021 -0.672001004
vt -1.03999996 -0.432000995
vt -1.03999996 -0.432000995
vt -0.540000021 -0.672001004
vt -0.540000021 -0.432000995
vt -0.424649 0.810000002
vt -0.424649 0.910000026
vt -0.463649005 1.03999996
vt -0.463649005 1.03999996
vt -0.424649 0.910000026
vt -0.359649003 0.910000026
vt -0.320648998 0.762499988
vt 0.303351015 0.762499988
vt -0.359649003 0.910000026
vt -0.910000026 0.431998998
vt -0.762499988 0.431998998
vt -0.762499988 0.431998998
vt -0.359649003 0.910000026
vt 0.303351015 0.762499988
vt -0.463649005 1.03999996
vt -0.463649005 1.03999996
vt 0.303351015 0.762499988
vt 0.34235099 0.910000026
vt 0.424649 0.810000002
vt 0.463649005 1.03999996
vt 0.424649 0.910000026
vt 0.424649 0.910000026
vt 0.463649005 1.03999996
vt 0.359649003 0.910000026
vt 0.407350987 0.810000002
vt 0.446350992 1.03999996
vt 0.407350987 0.910000026
vt 0.407350987 0.910000026
vt 0.446350992 1.03999996
vt 0.34235099 0.910000026
vt -0.463649005 0.431998998
vt 0.446350992 0.431998998
vt -0.463649005 0.671998978
vt -0.463649005 0.671998978
vt 0.446350992 0.431998998
vt 0.446350992 0.671998978
vt -0.446350992 0.431998998
vt 0.463649005 0.431998998
vt -0.446350992 0.671998978
vt -0.446350992 0.671998978
vt 0.463649005 0.431998998
vt 0.463649005 0.671998978
vt -1.03999996 0.431998998
vt -0.540000021 0.431998998
vt -1.03999996 0.671998978
vt -1.03999996 0.671998978
vt -0.540000021 0.431998998
vt -0.540000021 0.671998978
vt 0.540000021 -0.672001004
vt 1.03999996 -0.672001004
vt 0.540000021 -0.432000995
vt 0.540000021 -0.432000995
vt 1.03999996 -0.672001004
vt 1.03999996 -0.432000995
vt 0.359649003 0.910000026
vt -0.446350992 1.03999996
vt 0.320648998 0.762499988
vt 0.320648998 0.762499988
vt -0.446350992 1.03999996
vt -0.34235099 0.910000026
vt -0.34235099 0.910000026
vt -0.446350992 1.03999996
vt -0.407350987 0.910000026
vt -0.407350987 0.910000026
vt -0.446350992 1.03999996
vt -0.407350987 0.810000002
vt -0.30785501 0.805000007
vt -0.311105013 0.805000007
vt -0.30785501 0.790000021
vt -0.30785501 0.790000021
vt -0.311105013 0.805000007
vt -0.311105013 0.790000021
vt 0.790000021 1.03199899
vt 0.790000021 1.02639902
vt 0.805000007 1.03199899
vt 0.805000007 1.03199899
vt 0.790000021 1.02639902
vt 0.805000007 1.02639902
vt -0.790000021 1.02639902
vt -0.790000021 1.03199899
vt -0.805000007 1.02639902
vt -0.805000007 1.02639902
vt -0.790000021 1.03199899
vt -0.805000007 1.03199899
vt -0.262355 0.790000021
vt -0.259104997 0.790000021
vt -0.262355 0.805000007
vt -0.262355 0.805000007
vt -0.259104997 0.790000021
vt -0.259104997 0.805000007
vt -0.790000021 1.01999903
vt -0.790000021 1.02639902
vt -0.805000007 1.01999903
vt -0.805000007 1.01999903
vt -0.790000021 1.02639902
vt -0.805000007 1.02639902
vt -0.805000007 1.01999903
vt -0.805000007 1.01521099
vt -0.790000021 1.01999903
vt -0.790000021 1.01999903
vt -0.805000007 1.01521099
vt -0.805000007 1.01521099
vt -0.790000021 1.01999903
vt -0.805000007 1.01521099
vt -0.790000021 1.01521099
vt -0.790000021 1.01521099
vt -0.805000007 1.01521099
vt -0.805000007 1.01100004
vt -0.790000021 1.01521099
vt -0.805000007 1.01100004
vt -0.790000021 1.01100004
vt -0.267677993 0.790000021
vt -0.267677993 0.805000007
vt -0.27373001 0.805000007
vt -0.267677993 0.790000021
vt -0.27373001 0.805000007
vt -0.27373001 0.790000021
vt -0.27373001 0.790000021
vt -0.27373001 0.805000007
vt -0.28115499 0.805000007
vt -0.27373001 0.790000021
vt -0.28115499 0.805000007
vt -0.28115499 0.790000021
vt -0.28115499 0.790000021
vt -0.28115499 0.805000007
vt -0.289056003 0.805000007
vt -0.28115499 0.790000021
vt -0.289056003 0.805000007
vt -0.289056003 0.790000021
vt -0.289056003 0.790000021
vt -0.289056003 0.805000007
vt -0.29648 0.805000007
vt -0.289056003 0.790000021
vt -0.29648 0.805000007
vt -0.29648 0.790000021
vt -0.29648 0.790000021
vt -0.29648 0.805000007
vt -0.302533001 0.805000007
vt -0.29648 0.790000021
vt -0.302533001 0.805000007
vt -0.302533001 0.790000021
vt 0.790000021 1.01100004
vt 0.805000007 1.01100004
vt 0.805000007 1.01521099
vt 0.790000021 1.01100004
vt 0.805000007 1.01521099
vt 0.790000021 1.01521099
vt 0.790000021 1.01521099
vt 0.805000007 1.01521099
vt 0.805000007 1.01999903
vt 0.790000021 1.01521099
vt 0.805000007 1.01999903
vt 0.790000021 1.01999903
vt 0.790000021 1.02639902
vt 0.790000021 1.01999903
vt 0.805000007 1.02639902
vt 0.805000007 1.02639902
vt 0.790000021 1.01999903
vt 0.805000007 1.01999903
vt -0.259104997 1.03199899
vt -0.30785501 1.02639902
vt -0.262355 1.02639902
vt -0.311105013 1.03199899
vt -0.30785501 1.02639902
vt -0.259104997 1.03199899
vt -0.311105013 1.02639902
vt -0.30785501 1.02639902
vt -0.311105013 1.03199899
vt -0.262355 1.02639902
vt -0.30785501 1.02639902
vt -0.30785501 1.01999903
vt -0.262355 1.02639902
vt -0.30785501 1.01999903
vt -0.262355 1.01999903
vt -0.259104997 1.03199899
vt -0.262355 1.02639902
vt -0.259104997 1.02639902
vt -0.262355 1.01999903
vt -0.30785501 1.01999903
vt -0.263727009 1.01521099
vt -0.805000007 1.01521099
vt -0.805000007 1.01999903
vt -0.805000007 1.01999903
vt -0.263727009 1.01521099
vt -0.30785501 1.01999903
vt -0.267677993 1.01100004
vt -0.267677993 1.01100004
vt -0.30785501 1.01999903
vt -0.306483001 1.01521099
vt -0.805000007 1.01100004
vt -0.805000007 1.01521099
vt -0.805000007 1.01100004
vt -0.267677993 1.01100004
vt -0.306483001 1.01521099
vt -0.302533001 1.01100004
vt -0.267677993 1.01100004
vt -0.302533001 1.01100004
vt -0.27373001 1.00787497
vt -0.805000007 1.00787497
vt -0.805000007 1.01100004
vt -0.805000007 1.01100004
vt -0.27373001 1.00787497
vt -0.302533001 1.01100004
vt -0.28115499 1.006212
vt -0.805000007 1.006212
vt -0.805000007 1.01100004
vt -0.805000007 1.01100004
vt -0.28115499 1.006212
vt -0.302533001 1.01100004
vt -0.289056003 1.006212
vt -0.289056003 1.006212
vt -0.302533001 1.01100004
vt -0.29648 1.00787497
vt 0.30785501 1.02639902
vt 0.262355 1.01999903
vt 0.30785501 1.01999903
vt 0.262355 1.02639902
vt 0.262355 1.01999903
vt 0.30785501 1.02639902
vt 0.311105013 1.03199899
vt 0.259104997 1.03199899
vt 0.30785501 1.02639902
vt 0.259104997 1.03199899
vt 0.262355 1.02639902
vt 0.30785501 1.02639902
vt 0.259104997 1.02639902
vt 0.262355 1.02639902
vt 0.259104997 1.03199899
vt 0.311105013 1.02639902
vt 0.311105013 1.03199899
vt 0.30785501 1.02639902
vt 0.262355 1.01999903
vt 0.263727009 1.01521099
vt 0.30785501 1.01999903
vt 0.30785501 1.01999903
vt 0.263727009 1.01521099
vt 0.267677993 1.01100004
vt 0.30785501 1.01999903
vt 0.267677993 1.01100004
vt 0.306483001 1.01521099
vt -0.790000021 1.01521099
vt -0.790000021 1.01100004
vt -0.790000021 1.01100004
vt 0.306483001 1.01521099
vt 0.267677993 1.01100004
vt 0.302533001 1.01100004
vt 0.302533001 1.01100004
vt 0.267677993 1.01100004
vt 0.27373001 1.00787497
vt -0.790000021 1.01100004
vt -0.790000021 1.00787497
vt -0.790000021 1.01100004
vt 0.302533001 1.01100004
vt 0.27373001 1.00787497
vt 0.28115499 1.006212
vt -0.790000021 1.01100004
vt -0.790000021 1.006212
vt -0.790000021 1.01100004
vt 0.302533001 1.01100004
vt 0.28115499 1.006212
vt 0.289056003 1.006212
vt 0.302533001 1.01100004
vt 0.289056003 1.006212
vt 0.29648 1.00787497
vt 0.790000021 1.63759899
vt 0.790000021 1.63199902
vt 0.805000007 1.63759899
vt 0.805000007 1.63759899
vt 0.790000021 1.63199902
vt 0.805000007 1.63199902
vt 0.311105013 0.805000007
vt 0.30785501 0.805000007
vt 0.311105013 0.790000021
vt 0.311105013 0.790000021
vt 0.30785501 0.805000007
vt 0.30785501 0.790000021
vt 0.790000021 1.64399898
vt 0.790000021 1.63759899
vt 0.805000007 1.64399898
vt 0.805000007 1.64399898
vt 0.790000021 1.63759899
vt 0.805000007 1.63759899
vt 0.805000007 1.64399898
vt 0.805000007 1.64878702
vt 0.790000021 1.64399898
vt -0.790000021 1.64399898
vt -0.805000007 1.64878702
vt -0.805000007 1.64878702
vt 0.790000021 1.64399898
vt 0.805000007 1.64878702
vt 0.790000021 1.64878702
vt 0.790000021 1.64878702
vt 0.805000007 1.64878702
vt 0.805000007 1.65299797
vt 0.790000021 1.64878702
vt 0.805000007 1.65299797
vt 0.790000021 1.65299797
vt 0.302533001 0.790000021
vt 0.302533001 0.805000007
vt 0.29648 0.805000007
vt 0.302533001 0.790000021
vt 0.29648 0.805000007
vt 0.29648 0.790000021
vt 0.29648 0.790000021
vt 0.29648 0.805000007
vt 0.289056003 0.805000007
vt 0.29648 0.790000021
vt 0.289056003 0.805000007
vt 0.289056003 0.790000021
vt 0.289056003 0.790000021
vt 0.289056003 0.805000007
vt 0.28115499 0.805000007
vt 0.289056003 0.790000021
vt 0.28115499 0.805000007
vt 0.28115499 0.790000021
vt 0.28115499 0.790000021
vt 0.28115499 0.805000007
vt 0.27373001 0.805000007
vt 0.28115499 0.790000021
vt 0.27373001 0.805000007
vt 0.27373001 0.790000021
vt 0.27373001 0.790000021
vt 0.27373001 0.805000007
vt 0.267677993 0.805000007
vt 0.27373001 0.790000021
vt 0.267677993 0.805000007
vt 0.267677993 0.790000021
vt -0.790000021 1.65299797
vt -0.805000007 1.65299797
vt -0.805000007 1.64878702
vt -0.790000021 1.65299797
vt -0.805000007 1.64878702
vt -0.790000021 1.64878702
vt -0.790000021 1.64878702
vt -0.805000007 1.64878702
vt -0.805000007 1.64399898
vt -0.790000021 1.64878702
vt -0.805000007 1.64399898
vt -0.790000021 1.64399898
vt -0.790000021 1.63759899
vt -0.790000021 1.64399898
vt -0.805000007 1.63759899
vt -0.805000007 1.63759899
vt -0.790000021 1.64399898
vt -0.805000007 1.64399898
vt 0.259104997 0.790000021
vt 0.262355 0.790000021
vt 0.259104997 0.805000007
vt 0.259104997 0.805000007
vt 0.262355 0.790000021
vt 0.262355 0.805000007
vt -0.790000021 1.63199902
vt -0.790000021 1.63759899
vt -0.805000007 1.63199902
vt -0.805000007 1.63199902
vt -0.790000021 1.63759899
vt -0.805000007 1.63759899
vt -0.30785501 1.63759899
vt -0.311105013 1.63199902
vt -0.262355 1.63759899
vt -0.311105013 1.63759899
vt -0.311105013 1.63199902
vt -0.30785501 1.63759899
vt -0.311105013 1.63199902
vt -0.259104997 1.63199902
vt -0.262355 1.63759899
vt -0.259104997 1.63199902
vt -0.259104997 1.63759899
vt -0.262355 1.63759899
vt -0.262355 1.63759899
vt -0.262355 1.64399898
vt -0.30785501 1.64399898
vt -0.30785501 1.63759899
vt -0.262355 1.63759899
vt -0.30785501 1.64399898
vt -0.30785501 1.64399898
vt -0.262355 1.64399898
vt -0.306483001 1.64878702
vt -0.805000007 1.64878702
vt -0.805000007 1.64399898
vt -0.805000007 1.64399898
vt -0.306483001 1.64878702
vt -0.262355 1.64399898
vt -0.302533001 1.65299797
vt -0.302533001 1.65299797
vt -0.262355 1.64399898
vt -0.263727009 1.64878702
vt -0.805000007 1.65299797
vt -0.805000007 1.64878702
vt -0.805000007 1.65299797
vt -0.302533001 1.65299797
vt -0.263727009 1.64878702
vt -0.267677993 1.65299797
vt -0.302533001 1.65299797
vt -0.267677993 1.65299797
vt -0.29648 1.65612304
vt -0.805000007 1.65612304
vt -0.805000007 1.65299797
vt -0.805000007 1.65299797
vt -0.29648 1.65612304
vt -0.267677993 1.65299797
vt -0.289056003 1.65778601
vt -0.289056003 1.65778601
vt -0.267677993 1.65299797
vt -0.27373001 1.65612304
vt -0.289056003 1.65778601
vt -0.27373001 1.65612304
vt -0.28115499 1.65778601
vt 0.262355 1.63759899
vt 0.30785501 1.64399898
vt 0.262355 1.64399898
vt 0.30785501 1.63759899
vt 0.30785501 1.64399898
vt 0.262355 1.63759899
vt 0.311105013 1.63759899
vt 0.30785501 1.63759899
vt 0.311105013 1.63199902
vt 0.259104997 1.63199902
vt 0.262355 1.63759899
vt 0.259104997 1.63759899
vt 0.311105013 1.63199902
vt 0.262355 1.63759899
vt 0.259104997 1.63199902
vt 0.311105013 1.63199902
vt 0.30785501 1.63759899
vt 0.262355 1.63759899
vt 0.30785501 1.64399898
vt 0.306483001 1.64878702
vt 0.262355 1.64399898
vt 0.262355 1.64399898
vt 0.306483001 1.64878702
vt 0.302533001 1.65299797
vt 0.262355 1.64399898
vt 0.302533001 1.65299797
vt 0.263727009 1.64878702
vt -0.790000021 1.64878702
vt -0.790000021 1.65299797
vt -0.790000021 1.65299797
vt 0.263727009 1.64878702
vt 0.302533001 1.65299797
vt 0.267677993 1.65299797
vt 0.267677993 1.65299797
vt 0.302533001 1.65299797
vt 0.29648 1.65612304
vt -0.790000021 1.65299797
vt -0.790000021 1.65612304
vt -0.790000021 1.65299797
vt 0.267677993 1.65299797
vt 0.29648 1.65612304
vt 0.289056003 1.65778601
vt 0.267677993 1.65299797
vt 0.289056003 1.65778601
vt 0.27373001 1.65612304
vt 0.27373001 1.65612304
vt 0.289056003 1.65778601
vt 0.28115499 1.65778601
f 1/1 2/2 3/3
f 1/4 3/5 4/6
f 1/7 4/8 5/9
f 1/10 5/11 6/12
f 4/13 7/14 5/15
f 8/16 9/17 10/18
f 9/19 3/20 11/21
f 9/22 11/23 10/24
f 3/25 2/26 11/27
f 10/28 11/29 12/30
f 11/31 2/32 13/33
f 14/34 15/35 12/36
f 13/37 2/38 16/39
f 2/40 17/41 16/42
f 15/43 17/44 6/45
f 18/46 19/47 20/48
f 18/49 21/50 22/51
f 23/52 13/53 16/54
f 24/55 20/56 25/57
f 21/58 26/59 22/60
f 26/61 27/62 22/63
f 22/64 27/65 28/66
f 27/67 25/68 29/69
f 27/70 29/71 30/72
f 27/73 30/74 28/75
f 30/76 31/77 28/78
f 32/79 33/80 31/81
f 31/82 33/83 28/84
f 34/85 29/86 35/87
f 33/88 19/89 28/90
f 36/91 37/92 38/93
f 39/94 40/95 41/96
f 40/97 42/98 41/99
f 38/100 37/101 43/102
f 43/103 37/104 44/105
f 43/106 44/107 45/108
f 46/109 47/110 42/111
f 42/112 47/113 41/114
f 47/115 48/116 41/117
f 44/118 37/119 49/120
f 44/121 49/122 50/123
f 41/124 48/125 51/126
f 52/127 26/128 21/129
f 53/130 54/131 55/132
f 56/133 57/134 58/135
f 55/136 54/137 59/138
f 55/139 59/140 60/141
f 54/142 61/143 59/144
f 58/145 57/146 62/147
f 58/148 62/149 63/150
f 63/151 62/152 64/153
f 61/154 65/155 59/156
f 57/157 66/158 62/159
f 62/160 66/161 67/162
f 59/163 68/164 60/165
f 1/166 69/167 2/168
f 2/169 69/170 70/171
f 71/172 72/173 73/174
f 73/175 72/176 72/177
f 73/178 72/179 74/180
f 74/181 72/182 75/183
f 74/184 75/185 74/186
f 74/187 75/188 76/189
f 74/190 76/191 77/192
f 77/193 76/194 76/195
f 77/196 76/197 68/198
f 68/199 76/200 78/201
f 68/202 78/203 60/204
f 79/205 80/206 81/207
f 81/208 80/209 82/210
f 81/211 82/212 83/213
f 83/214 82/215 82/216
f 83/217 82/218 84/219
f 84/220 82/221 85/222
f 84/223 85/224 84/225
f 84/226 85/227 67/228
f 84/229 67/230 86/231
f 86/232 67/233 66/234
f 67/235 85/236 68/237
f 68/238 85/239 85/240
f 68/241 85/242 77/243
f 77/244 85/245 82/246
f 77/247 82/248 74/249
f 74/250 82/251 80/252
f 74/253 80/254 73/255
f 73/256 80/257 79/258
f 73/259 79/260 71/261
f 71/262 79/263 81/264
f 71/265 81/266 72/267
f 72/268 81/269 83/270
f 72/271 83/272 75/273
f 75/274 83/275 84/276
f 75/277 84/278 76/279
f 76/280 84/281 86/282
f 76/283 86/284 78/285
f 78/286 86/287 66/288
f 78/289 66/290 60/291
f 60/292 66/293 57/294
f 60/295 57/296 55/297
f 68/298 59/299 67/300
f 67/301 59/302 62/303
f 59/304 65/305 62/306
f 62/307 65/308 64/309
f 65/310 61/311 64/312
f 64/313 61/314 63/315
f 36/316 38/317 39/318
f 39/319 38/320 40/321
f 57/322 56/323 55/324
f 55/325 56/326 53/327
f 54/328 53/329 58/330
f 58/331 53/332 56/333
f 87/334 88/335 89/336
f 89/337 88/338 88/339
f 89/340 88/341 90/342
f 90/343 88/344 88/345
f 90/346 88/347 91/348
f 91/349 88/350 88/351
f 91/352 88/353 92/354
f 92/355 88/356 93/357
f 92/358 93/359 92/360
f 92/361 93/362 51/363
f 92/364 51/365 94/366
f 94/367 51/368 48/369
f 95/370 96/371 97/372
f 97/373 96/374 98/375
f 97/376 98/377 97/378
f 97/379 98/380 99/381
f 97/382 99/383 97/384
f 97/385 99/386 100/387
f 97/388 100/389 101/390
f 101/391 100/392 100/393
f 101/394 100/395 49/396
f 49/397 100/398 102/399
f 49/400 102/401 50/402
f 103/403 104/404 17/405
f 17/406 104/407 6/408
f 41/409 51/410 37/411
f 37/412 51/413 51/414
f 37/415 51/416 49/417
f 49/418 51/419 93/420
f 49/421 93/422 101/423
f 101/424 93/425 88/426
f 101/427 88/428 97/429
f 97/430 88/431 87/432
f 97/433 87/434 95/435
f 95/436 87/437 89/438
f 95/439 89/440 96/441
f 96/442 89/443 90/444
f 96/445 90/446 98/447
f 98/448 90/449 91/450
f 98/451 91/452 99/453
f 99/454 91/455 92/456
f 99/457 92/458 100/459
f 100/460 92/461 94/462
f 100/463 94/464 102/465
f 102/466 94/467 48/468
f 102/469 48/470 50/471
f 50/472 48/473 47/474
f 50/475 47/476 44/477
f 47/478 46/479 44/480
f 44/481 46/482 45/483
f 46/484 42/485 45/486
f 45/487 42/488 43/489
f 105/490 28/491 106/492
f 106/493 28/494 19/495
f 39/496 41/497 36/498
f 36/499 41/500 37/501
f 104/502 69/503 6/504
f 6/505 69/506 1/507
f 33/508 107/509 19/510
f 19/511 107/512 35/513
f 29/514 25/515 35/516
f 35/517 25/518 25/519
f 35/520 25/521 19/522
f 19/523 25/524 20/525
f 16/526 17/527 108/528
f 108/529 17/530 15/531
f 21/532 18/533 109/534
f 109/535 18/536 20/537
f 19/538 18/539 106/540
f 106/541 18/542 110/543
f 22/544 28/545 111/546
f 111/547 28/548 105/549
f 18/550 22/551 110/552
f 110/553 22/554 111/555
f 70/556 103/557 2/558
f 2/559 103/560 17/561
f 15/562 6/563 12/564
f 12/565 6/566 10/567
f 10/568 6/569 112/570
f 112/571 6/572 5/573
f 113/574 114/575 115/576
f 115/577 114/578 116/579
f 117/580 116/581 118/582
f 118/583 116/584 114/585
f 119/586 120/587 121/588
f 121/589 120/590 122/591
f 123/592 119/593 124/594
f 124/595 119/596 121/597
f 125/598 123/599 126/600
f 126/601 123/602 124/603
f 126/604 127/605 125/606
f 125/607 127/608 127/609
f 125/610 127/611 128/612
f 128/613 127/614 129/615
f 128/616 129/617 130/618
f 130/619 129/620 131/621
f 130/622 131/623 132/624
f 132/625 131/626 133/627
f 132/628 133/629 134/630
f 134/631 133/632 135/633
f 134/634 135/635 136/636
f 136/637 135/638 137/639
f 136/640 137/641 138/642
f 138/643 137/644 139/645
f 138/646 139/647 140/648
f 140/649 139/650 141/651
f 140/652 141/653 142/654
f 142/655 141/656 143/657
f 142/658 143/659 144/660
f 115/661 144/662 113/663
f 113/664 144/665 143/666
f 122/667 113/668 124/669
f 118/670 113/671 122/672
f 114/673 113/674 118/675
f 124/676 113/677 143/678
f 124/679 143/680 126/681
f 122/682 124/683 121/684
f 126/685 143/686 127/687
f 127/688 143/689 143/690
f 127/691 143/692 129/693
f 129/694 143/695 141/696
f 129/697 141/698 129/699
f 129/700 141/701 139/702
f 129/703 139/704 131/705
f 131/706 139/707 139/708
f 131/709 139/710 133/711
f 133/712 139/713 139/714
f 133/715 139/716 135/717
f 135/718 139/719 137/720
f 115/721 125/722 144/723
f 123/724 125/725 115/726
f 117/727 120/728 115/729
f 120/730 123/731 115/732
f 119/733 123/734 120/735
f 116/736 117/737 115/738
f 125/739 128/740 144/741
f 144/742 128/743 130/744
f 144/745 130/746 142/747
f 142/748 130/749 130/750
f 142/751 130/752 140/753
f 140/754 130/755 132/756
f 140/757 132/758 140/759
f 140/760 132/761 134/762
f 140/763 134/764 140/765
f 140/766 134/767 136/768
f 140/769 136/770 138/771
f 145/772 146/773 147/774
f 147/775 146/776 148/777
f 147/778 149/779 145/780
f 145/781 149/782 150/783
f 151/784 150/785 152/786
f 152/787 150/788 149/789
f 152/790 153/791 151/792
f 151/793 153/794 153/795
f 151/796 153/797 154/798
f 154/799 153/800 155/801
f 154/802 155/803 156/804
f 156/805 155/806 157/807
f 156/808 157/809 158/810
f 158/811 157/812 159/813
f 158/814 159/815 160/816
f 160/817 159/818 161/819
f 160/820 161/821 162/822
f 162/823 161/824 163/825
f 162/826 163/827 164/828
f 164/829 163/830 165/831
f 164/832 165/833 166/834
f 166/835 165/836 167/837
f 166/838 167/839 168/840
f 168/841 167/842 169/843
f 168/844 169/845 170/846
f 171/847 170/848 172/849
f 172/850 170/851 169/852
f 173/853 171/854 174/855
f 174/856 171/857 172/858
f 175/859 173/860 176/861
f 176/862 173/863 174/864
f 149/865 148/866 172/867
f 147/868 148/869 149/870
f 148/871 176/872 172/873
f 176/874 174/875 172/876
f 172/877 169/878 152/879
f 149/880 172/881 152/882
f 152/883 169/884 153/885
f 153/886 169/887 169/888
f 153/889 169/890 155/891
f 155/892 169/893 167/894
f 155/895 167/896 155/897
f 155/898 167/899 165/900
f 155/901 165/902 157/903
f 157/904 165/905 165/906
f 157/907 165/908 159/909
f 159/910 165/911 163/912
f 159/913 163/914 161/915
f 171/916 151/917 170/918
f 150/919 151/920 171/921
f 145/922 150/923 146/924
f 175/925 171/926 173/927
f 146/928 171/929 175/930
f 146/931 150/932 171/933
f 151/934 154/935 170/936
f 170/937 154/938 156/939
f 170/940 156/941 168/942
f 168/943 156/944 156/945
f 168/946 156/947 166/948
f 166/949 156/950 158/951
f 166/952 158/953 166/954
f 166/955 158/956 160/957
f 166/958 160/959 164/960
f 164/961 160/962 162/963
