# Exported from USD for MuJoCo with source material subsets
v -11.4368986 -6.6310062 1.00867827
v -11.1629986 -6.6310062 1.00867833
v -11.2999486 -6.6310062 0.992081949
v -11.4368986 -6.63397642 1.00867827
v -11.1629989 -7.63816639 0.957198346
v -11.1629989 -7.63816639 1.00867833
v -11.1705268 -7.63816639 0.979057053
v -11.1629989 -7.6348662 0.957198346
v -11.1705268 -7.6348662 0.979057053
v -11.1629989 -7.6348662 1.00867833
v -11.4368989 -7.63816591 1.00867827
v -11.2999489 -7.63816639 0.992081949
v -11.4368989 -7.63519617 1.00867827
v -11.2999489 -7.6348662 0.992081949
v -11.4368989 -7.6348662 1.00867827
v -11.1705266 -7.13590618 0.979057053
v -11.1629987 -7.13590618 1.00867833
v -11.1629987 -7.13590618 0.957198346
v -11.1629987 -7.13920637 0.957198346
v -11.1629987 -7.13920637 1.00867833
v -11.1705266 -7.13920637 0.979057053
v -11.4368987 -7.13590618 1.00867827
v -11.2999487 -7.13590618 0.992081949
v -11.4368987 -7.1388764 1.00867827
v -11.2999487 -7.13920637 0.992081949
v -11.4368987 -7.13920637 1.00867827
v -11.2999487 -7.12996622 0.992081949
v -11.4368987 -7.12996622 1.00867827
v -11.1629987 -7.12996622 1.00867833
v -11.1629986 -6.63430687 0.957198346
v -11.1629986 -6.63430687 1.00867833
v -11.1705265 -6.63430687 0.979057053
v -11.1629986 -6.6310062 0.957198346
v -11.1705265 -6.6310062 0.979057053
v -11.2999486 -6.63430687 0.992081949
v -11.4368986 -6.63430687 1.00867827
v -11.2999487 -7.13326689 0.992081949
v -11.4368987 -7.13029619 1.00867827
v -11.4368987 -7.13326593 1.00867827
v -11.1629987 -7.13326689 1.00867833
v -11.1629987 -7.13326689 0.957198346
v -11.1705266 -7.13326689 0.979057053
v -11.1629987 -7.12996622 0.957198346
v -11.1705266 -7.12996622 0.979057053
v -11.1233985 -6.6494865 0.745515311
v -11.1233987 -7.12468668 0.745515311
v -11.1233985 -6.6494865 0.679515297
v -11.1233987 -7.12468668 0.679515297
v -11.1233987 -7.14448639 0.679515297
v -11.1233988 -7.61968656 0.679515297
v -11.1629987 -7.14448639 0.679515297
v -11.1629988 -7.61968656 0.679515297
v -11.1233987 -7.14448639 0.745515311
v -11.1233988 -7.61968656 0.745515311
v -11.188788 -7.13326689 0.992082009
v -11.188788 -7.12996622 0.992082009
v -11.1829001 -7.13326689 0.991162697
v -11.1775728 -7.13326689 0.988492111
v -11.1733131 -7.13326689 0.984324688
v -11.1829001 -7.12996622 0.991162697
v -11.1775728 -7.12996622 0.988492111
v -11.1733131 -7.12996622 0.984324688
v -11.1629987 -7.13029619 1.00867833
v -11.1629987 -7.14448639 0.745515311
v -11.1629986 -6.63397642 1.00867833
v -11.1887879 -6.6310062 0.992082009
v -11.1887879 -6.63430687 0.992082009
v -11.1829 -6.63430687 0.991162697
v -11.1775726 -6.63430687 0.988492111
v -11.1733129 -6.63430687 0.984324688
v -11.1829 -6.6310062 0.991162697
v -11.1775726 -6.6310062 0.988492111
v -11.1733129 -6.6310062 0.984324688
v -11.1629987 -7.1388764 1.00867833
v -11.188788 -7.13590618 0.992082009
v -11.188788 -7.13920637 0.992082009
v -11.1829001 -7.13920637 0.991162697
v -11.1829001 -7.13590618 0.991162697
v -11.1775728 -7.13920637 0.988492111
v -11.1775728 -7.13590618 0.988492111
v -11.1733131 -7.13920637 0.984324688
v -11.1733131 -7.13590618 0.984324688
v -11.1629988 -7.61968656 0.745515311
v -11.1887882 -7.6348662 0.992082009
v -11.1829003 -7.6348662 0.991162697
v -11.1775729 -7.6348662 0.988492111
v -11.1733133 -7.6348662 0.984324688
v -11.1887882 -7.63816639 0.992082009
v -11.1829003 -7.63816639 0.991162697
v -11.1775729 -7.63816639 0.988492111
v -11.1733133 -7.63816639 0.984324688
v -11.1629989 -7.63519617 1.00867833
v -11.1629987 -7.12468668 0.679515297
v -11.1629987 -7.12468668 0.745515311
v -11.1629985 -6.6494865 0.679515297
v -11.1629985 -6.6494865 0.745515311
vt 0.248999998 0.913800001
vt 0 0.913800001
vt 0.124499999 0.898712993
vt -0.248999998 -0.457800001
vt -0.124499999 -0.457800001
vt -0.248999998 -0.4551
vt 0 0.866999984
vt 0 0.913800001
vt -0.00684399996 0.886871994
vt 0 0.866999984
vt 0.00684399996 0.886871994
vt 0 0.913800001
vt 0 0.913800001
vt -0.248999998 0.913800001
vt -0.124499999 0.898712993
vt -0.248999998 0.457800001
vt -0.248999998 0.4551
vt -0.124499999 0.457800001
vt -0.124499999 0.457800001
vt -0.248999998 0.4551
vt -0.124499999 0.45480001
vt 0 0.913800001
vt 0.124499999 0.898712993
vt 0.248999998 0.913800001
vt -0.124499999 0.45480001
vt -0.248999998 0.4551
vt -0.248999998 0.45480001
vt 0.00684399996 0.886871994
vt 0 0.913800001
vt 0 0.866999984
vt 0 0.866999984
vt 0 0.913800001
vt -0.00684399996 0.886871994
vt 0.248999998 0.913800001
vt 0 0.913800001
vt 0.124499999 0.898712993
vt -0.248999998 0.00120000006
vt -0.124499999 0.00120000006
vt -0.248999998 0.00389999989
vt -0.124499999 0.00120000006
vt -0.124499999 0.00419999985
vt -0.248999998 0.00389999989
vt -0.248999998 0.00389999989
vt -0.124499999 0.00419999985
vt -0.248999998 0.00419999985
vt -0.248999998 0.913800001
vt -0.124499999 0.898712993
vt 0 0.913800001
vt 0.124499999 0.898712993
vt 0.248999998 0.913800001
vt 0 0.913800001
vt 0 0.866999984
vt 0 0.913800001
vt -0.00684399996 0.886871994
vt 0 0.866999984
vt 0.00684399996 0.886871994
vt 0 0.913800001
vt -0.124499999 -0.457800001
vt -0.124499999 -0.45480001
vt -0.248999998 -0.4551
vt -0.124499999 0.898712993
vt 0 0.913800001
vt -0.248999998 0.913800001
vt -0.124499999 -0.45480001
vt -0.248999998 -0.45480001
vt -0.248999998 -0.4551
vt -0.124499999 -0.00419999985
vt -0.124499999 -0.00120000006
vt -0.248999998 -0.00389999989
vt -0.124499999 -0.00419999985
vt -0.248999998 -0.00389999989
vt -0.248999998 -0.00419999985
vt -0.248999998 -0.00389999989
vt -0.124499999 -0.00120000006
vt -0.248999998 -0.00120000006
vt -0.248999998 0.913800001
vt -0.124499999 0.898712993
vt 0 0.913800001
vt 0 0.866999984
vt 0 0.913800001
vt -0.00684399996 0.886871994
vt 0 0.866999984
vt 0.00684399996 0.886871994
vt 0 0.913800001
vt 0.674561024 -0.441000015
vt 0.674561024 -0.00899999961
vt 0.614561021 -0.441000015
vt 0.614561021 -0.441000015
vt 0.674561024 -0.00899999961
vt 0.614561021 -0.00899999961
vt 0.0359999985 0.00899999961
vt 0.0359999985 0.441000015
vt 0 0.00899999961
vt 0 0.00899999961
vt 0.0359999985 0.441000015
vt 0 0.441000015
vt 0.614561021 0.00899999961
vt 0.674561024 0.00899999961
vt 0.614561021 0.441000015
vt 0.614561021 0.441000015
vt 0.674561024 0.00899999961
vt 0.674561024 0.441000015
vt -0.0234450009 -0.00120000006
vt -0.124499999 -0.00120000006
vt -0.0234450009 -0.00419999985
vt -0.0234450009 -0.00419999985
vt -0.124499999 -0.00120000006
vt -0.124499999 -0.00419999985
vt -0.124499999 0.898712993
vt -0.0234450009 0.898712993
vt 0 0.913800001
vt 0 0.913800001
vt -0.0234450009 0.898712993
vt -0.0180920009 0.897876978
vt -0.913800001 -0.00120000006
vt -0.897876978 -0.00120000006
vt -0.913800001 -0.00120000006
vt 0 0.913800001
vt -0.0180920009 0.897876978
vt -0.0132489996 0.895448983
vt -0.913800001 -0.00120000006
vt -0.895448983 -0.00120000006
vt -0.913800001 -0.00120000006
vt 0 0.913800001
vt -0.0132489996 0.895448983
vt -0.00937699992 0.891659975
vt 0 0.913800001
vt -0.00937699992 0.891659975
vt -0.00684399996 0.886871994
vt -0.0234450009 -0.00120000006
vt -0.0234450009 -0.00419999985
vt -0.0180920009 -0.00120000006
vt -0.0180920009 -0.00120000006
vt -0.0234450009 -0.00419999985
vt -0.0180920009 -0.00419999985
vt -0.0180920009 -0.00120000006
vt -0.0180920009 -0.00419999985
vt -0.0132489996 -0.00120000006
vt -0.0132489996 -0.00120000006
vt -0.0180920009 -0.00419999985
vt -0.0132489996 -0.00419999985
vt -0.0132489996 -0.00120000006
vt -0.0132489996 -0.00419999985
vt -0.00937699992 -0.00120000006
vt -0.00937699992 -0.00120000006
vt -0.0132489996 -0.00419999985
vt -0.00937699992 -0.00419999985
vt -0.891659975 -0.00120000006
vt -0.891659975 -0.00419999985
vt -0.886871994 -0.00120000006
vt -0.886871994 -0.00120000006
vt -0.891659975 -0.00419999985
vt -0.886871994 -0.00419999985
vt -0.886871994 -0.00120000006
vt -0.886871994 -0.00419999985
vt -0.886871994 -0.00120000006
vt -0.886871994 -0.00120000006
vt -0.886871994 -0.00419999985
vt -0.866999984 -0.00419999985
vt -0.886871994 -0.00120000006
vt -0.866999984 -0.00419999985
vt -0.866999984 -0.00120000006
vt 0.00684399996 0.886871994
vt 0.00937699992 0.891659975
vt 0 0.913800001
vt 0 0.913800001
vt 0.00937699992 0.891659975
vt 0.0132489996 0.895448983
vt -0.913800001 -0.00419999985
vt -0.895448983 -0.00419999985
vt -0.913800001 -0.00419999985
vt 0 0.913800001
vt 0.0132489996 0.895448983
vt 0.0180920009 0.897876978
vt -0.913800001 -0.00419999985
vt -0.897876978 -0.00419999985
vt -0.913800001 -0.00419999985
vt 0 0.913800001
vt 0.0180920009 0.897876978
vt 0.0234450009 0.898712993
vt 0 0.913800001
vt 0.0234450009 0.898712993
vt 0.124499999 0.898712993
vt 0 -0.00389999989
vt 0 -0.00419999985
vt 0.248999998 -0.00389999989
vt 0.248999998 -0.00389999989
vt 0 -0.00419999985
vt 0.248999998 -0.00419999985
vt -0.0359999985 0.674561024
vt -0.0359999985 0.614561021
vt 0 0.674561024
vt 0 0.674561024
vt -0.0359999985 0.614561021
vt 0 0.614561021
vt 0.248999998 -0.45480001
vt 0 -0.45480001
vt 0.248999998 -0.4551
vt 0.248999998 -0.4551
vt 0 -0.45480001
vt 0 -0.4551
vt -0.124499999 -0.457800001
vt -0.0234450009 -0.457800001
vt -0.124499999 -0.45480001
vt -0.124499999 -0.45480001
vt -0.0234450009 -0.457800001
vt -0.0234450009 -0.45480001
vt -0.124499999 0.898712993
vt -0.0234450009 0.898712993
vt 0 0.913800001
vt 0 0.913800001
vt -0.0234450009 0.898712993
vt -0.0180920009 0.897876978
vt -0.913800001 -0.45480001
vt -0.897876978 -0.45480001
vt -0.913800001 -0.45480001
vt 0 0.913800001
vt -0.0180920009 0.897876978
vt -0.0132489996 0.895448983
vt -0.913800001 -0.45480001
vt -0.895448983 -0.45480001
vt -0.913800001 -0.45480001
vt 0 0.913800001
vt -0.0132489996 0.895448983
vt -0.00937699992 0.891659975
vt 0 0.913800001
vt -0.00937699992 0.891659975
vt -0.00684399996 0.886871994
vt -0.0234450009 -0.45480001
vt -0.0234450009 -0.457800001
vt -0.0180920009 -0.45480001
vt -0.0180920009 -0.45480001
vt -0.0234450009 -0.457800001
vt -0.0180920009 -0.457800001
vt -0.0180920009 -0.45480001
vt -0.0180920009 -0.457800001
vt -0.0132489996 -0.45480001
vt -0.0132489996 -0.45480001
vt -0.0180920009 -0.457800001
vt -0.0132489996 -0.457800001
vt -0.0132489996 -0.45480001
vt -0.0132489996 -0.457800001
vt -0.00937699992 -0.45480001
vt -0.00937699992 -0.45480001
vt -0.0132489996 -0.457800001
vt -0.00937699992 -0.457800001
vt -0.891659975 -0.45480001
vt -0.891659975 -0.457800001
vt -0.886871994 -0.45480001
vt -0.886871994 -0.45480001
vt -0.891659975 -0.457800001
vt -0.886871994 -0.457800001
vt -0.886871994 -0.45480001
vt -0.886871994 -0.457800001
vt -0.886871994 -0.45480001
vt -0.886871994 -0.45480001
vt -0.886871994 -0.457800001
vt -0.866999984 -0.457800001
vt -0.886871994 -0.45480001
vt -0.866999984 -0.457800001
vt -0.866999984 -0.45480001
vt 0.124499999 0.898712993
vt 0 0.913800001
vt 0.0234450009 0.898712993
vt -0.898712993 -0.457800001
vt -0.913800001 -0.457800001
vt -0.913800001 -0.457800001
vt 0.0234450009 0.898712993
vt 0 0.913800001
vt 0.0180920009 0.897876978
vt -0.897876978 -0.457800001
vt -0.913800001 -0.457800001
vt -0.913800001 -0.457800001
vt 0.0180920009 0.897876978
vt 0 0.913800001
vt 0.0132489996 0.895448983
vt -0.895448983 -0.457800001
vt -0.913800001 -0.457800001
vt -0.913800001 -0.457800001
vt 0.0132489996 0.895448983
vt 0 0.913800001
vt 0.00937699992 0.891659975
vt 0.00937699992 0.891659975
vt 0 0.913800001
vt 0.00684399996 0.886871994
vt 0.248999998 0.00419999985
vt 0 0.00419999985
vt 0.248999998 0.00389999989
vt 0.248999998 0.00389999989
vt 0 0.00419999985
vt 0 0.00389999989
vt -0.124499999 0.00120000006
vt -0.0234450009 0.00120000006
vt -0.124499999 0.00419999985
vt -0.898712993 0.00419999985
vt -0.898712993 0.00120000006
vt -0.898712993 0.00120000006
vt -0.124499999 0.00419999985
vt -0.0234450009 0.00120000006
vt -0.0234450009 0.00419999985
vt -0.898712993 0.00419999985
vt -0.898712993 0.00120000006
vt -0.898712993 0.00120000006
vt -0.0234450009 0.00419999985
vt -0.0234450009 0.00120000006
vt -0.0180920009 0.00419999985
vt -0.0180920009 0.00419999985
vt -0.0234450009 0.00120000006
vt -0.0180920009 0.00120000006
vt -0.0180920009 0.00419999985
vt -0.0180920009 0.00120000006
vt -0.0132489996 0.00419999985
vt -0.0132489996 0.00419999985
vt -0.0180920009 0.00120000006
vt -0.0132489996 0.00120000006
vt -0.0132489996 0.00419999985
vt -0.0132489996 0.00120000006
vt -0.00937699992 0.00419999985
vt -0.00937699992 0.00419999985
vt -0.0132489996 0.00120000006
vt -0.00937699992 0.00120000006
vt -0.891659975 0.00419999985
vt -0.891659975 0.00120000006
vt -0.886871994 0.00419999985
vt -0.886871994 0.00419999985
vt -0.891659975 0.00120000006
vt -0.886871994 0.00120000006
vt -0.886871994 0.00419999985
vt -0.886871994 0.00120000006
vt -0.886871994 0.00419999985
vt -0.886871994 0.00419999985
vt -0.886871994 0.00120000006
vt -0.866999984 0.00120000006
vt -0.886871994 0.00419999985
vt -0.866999984 0.00120000006
vt -0.866999984 0.00419999985
vt 0.124499999 0.898712993
vt 0 0.913800001
vt 0.0234450009 0.898712993
vt -0.898712993 0.00120000006
vt -0.913800001 0.00120000006
vt -0.913800001 0.00120000006
vt 0.0234450009 0.898712993
vt 0 0.913800001
vt 0.0180920009 0.897876978
vt -0.897876978 0.00120000006
vt -0.913800001 0.00120000006
vt -0.913800001 0.00120000006
vt 0.0180920009 0.897876978
vt 0 0.913800001
vt 0.0132489996 0.895448983
vt -0.895448983 0.00120000006
vt -0.913800001 0.00120000006
vt -0.913800001 0.00120000006
vt 0.0132489996 0.895448983
vt 0 0.913800001
vt 0.00937699992 0.891659975
vt 0.00937699992 0.891659975
vt 0 0.913800001
vt 0.00684399996 0.886871994
vt -0.614561021 0.00899999961
vt -0.614561021 0.441000015
vt -0.674561024 0.00899999961
vt -0.674561024 0.00899999961
vt -0.614561021 0.441000015
vt -0.674561024 0.441000015
vt -0.00684399996 0.886871994
vt 0 0.913800001
vt -0.00937699992 0.891659975
vt -0.891659975 0.00419999985
vt -0.913800001 0.00419999985
vt -0.913800001 0.00419999985
vt -0.00937699992 0.891659975
vt 0 0.913800001
vt -0.0132489996 0.895448983
vt -0.895448983 0.00419999985
vt -0.913800001 0.00419999985
vt -0.913800001 0.00419999985
vt -0.0132489996 0.895448983
vt 0 0.913800001
vt -0.0180920009 0.897876978
vt -0.897876978 0.00419999985
vt -0.913800001 0.00419999985
vt -0.913800001 0.00419999985
vt -0.0180920009 0.897876978
vt 0 0.913800001
vt -0.0234450009 0.898712993
vt -0.0234450009 0.898712993
vt 0 0.913800001
vt -0.124499999 0.898712993
vt 0.124499999 0.898712993
vt 0 0.913800001
vt 0.0234450009 0.898712993
vt -0.898712993 0.45480001
vt -0.913800001 0.45480001
vt -0.913800001 0.45480001
vt 0.0234450009 0.898712993
vt 0 0.913800001
vt 0.0180920009 0.897876978
vt -0.897876978 0.45480001
vt -0.913800001 0.45480001
vt -0.913800001 0.45480001
vt 0.0180920009 0.897876978
vt 0 0.913800001
vt 0.0132489996 0.895448983
vt -0.895448983 0.45480001
vt -0.913800001 0.45480001
vt -0.913800001 0.45480001
vt 0.0132489996 0.895448983
vt 0 0.913800001
vt 0.00937699992 0.891659975
vt 0.00937699992 0.891659975
vt 0 0.913800001
vt 0.00684399996 0.886871994
vt -0.124499999 0.45480001
vt -0.0234450009 0.45480001
vt -0.124499999 0.457800001
vt -0.898712993 0.457800001
vt -0.898712993 0.45480001
vt -0.898712993 0.45480001
vt -0.124499999 0.457800001
vt -0.0234450009 0.45480001
vt -0.0234450009 0.457800001
vt -0.898712993 0.457800001
vt -0.898712993 0.45480001
vt -0.898712993 0.45480001
vt -0.0234450009 0.457800001
vt -0.0234450009 0.45480001
vt -0.0180920009 0.457800001
vt -0.0180920009 0.457800001
vt -0.0234450009 0.45480001
vt -0.0180920009 0.45480001
vt -0.0180920009 0.457800001
vt -0.0180920009 0.45480001
vt -0.0132489996 0.457800001
vt -0.0132489996 0.457800001
vt -0.0180920009 0.45480001
vt -0.0132489996 0.45480001
vt -0.0132489996 0.457800001
vt -0.0132489996 0.45480001
vt -0.00937699992 0.457800001
vt -0.00937699992 0.457800001
vt -0.0132489996 0.45480001
vt -0.00937699992 0.45480001
vt -0.891659975 0.457800001
vt -0.891659975 0.45480001
vt -0.886871994 0.457800001
vt -0.886871994 0.457800001
vt -0.891659975 0.45480001
vt -0.886871994 0.45480001
vt -0.886871994 0.457800001
vt -0.886871994 0.45480001
vt -0.886871994 0.457800001
vt -0.886871994 0.457800001
vt -0.886871994 0.45480001
vt -0.866999984 0.45480001
vt -0.886871994 0.457800001
vt -0.866999984 0.45480001
vt -0.866999984 0.457800001
vt -0.124499999 0.898712993
vt -0.0234450009 0.898712993
vt 0 0.913800001
vt 0 0.913800001
vt -0.0234450009 0.898712993
vt -0.0180920009 0.897876978
vt -0.913800001 0.457800001
vt -0.897876978 0.457800001
vt -0.913800001 0.457800001
vt 0 0.913800001
vt -0.0180920009 0.897876978
vt -0.0132489996 0.895448983
vt -0.913800001 0.457800001
vt -0.895448983 0.457800001
vt -0.913800001 0.457800001
vt 0 0.913800001
vt -0.0132489996 0.895448983
vt -0.00937699992 0.891659975
vt 0 0.913800001
vt -0.00937699992 0.891659975
vt -0.00684399996 0.886871994
vt 0 0.45480001
vt 0.248999998 0.45480001
vt 0 0.4551
vt 0 0.4551
vt 0.248999998 0.45480001
vt 0.248999998 0.4551
vt 0 0.00899999961
vt 0 0.441000015
vt -0.0359999985 0.00899999961
vt -0.0359999985 0.00899999961
vt 0 0.441000015
vt -0.0359999985 0.441000015
vt 0 0.674561024
vt 0 0.614561021
vt 0.0359999985 0.674561024
vt 0.0359999985 0.674561024
vt 0 0.614561021
vt 0.0359999985 0.614561021
vt -0.614561021 -0.00899999961
vt -0.674561024 -0.00899999961
vt -0.614561021 -0.441000015
vt -0.614561021 -0.441000015
vt -0.674561024 -0.00899999961
vt -0.674561024 -0.441000015
vt -0.0359999985 0.674561024
vt -0.0359999985 0.614561021
vt 0 0.674561024
vt 0 0.674561024
vt -0.0359999985 0.614561021
vt 0 0.614561021
vt 0.0359999985 -0.441000015
vt 0.0359999985 -0.00899999961
vt 0 -0.441000015
vt 0 -0.441000015
vt 0.0359999985 -0.00899999961
vt 0 -0.00899999961
vt 0.0359999985 0.614561021
vt 0.0359999985 0.674561024
vt 0 0.614561021
vt 0 0.614561021
vt 0.0359999985 0.674561024
vt 0 0.674561024
vt 0 -0.441000015
vt 0 -0.00899999961
vt -0.0359999985 -0.441000015
vt -0.0359999985 -0.441000015
vt 0 -0.00899999961
vt -0.0359999985 -0.00899999961
f 1/1 2/2 3/3
f 1/4 3/5 4/6
f 5/7 6/8 7/9
f 8/10 9/11 10/12
f 6/13 11/14 12/15
f 11/16 13/17 12/18
f 12/19 13/20 14/21
f 10/22 14/23 15/24
f 14/25 13/26 15/27
f 16/28 17/29 18/30
f 19/31 20/32 21/33
f 22/34 17/35 23/36
f 22/37 23/38 24/39
f 23/40 25/41 24/42
f 24/43 25/44 26/45
f 26/46 25/47 20/48
f 27/49 28/50 29/51
f 30/52 31/53 32/54
f 33/55 34/56 2/57
f 3/58 35/59 4/60
f 35/61 31/62 36/63
f 35/64 36/65 4/66
f 27/67 37/68 38/69
f 27/70 38/71 28/72
f 38/73 37/74 39/75
f 39/76 37/77 40/78
f 41/79 40/80 42/81
f 43/82 44/83 29/84
f 45/85 46/86 47/87
f 47/88 46/89 48/90
f 49/91 50/92 51/93
f 51/94 50/95 52/96
f 49/97 53/98 50/99
f 50/100 53/101 54/102
f 55/103 37/104 56/105
f 56/106 37/107 27/108
f 37/109 55/110 40/111
f 40/112 55/113 57/114
f 40/115 57/116 40/117
f 40/118 57/119 58/120
f 40/121 58/122 40/123
f 40/124 58/125 59/126
f 40/127 59/128 42/129
f 55/130 56/131 57/132
f 57/133 56/134 60/135
f 57/136 60/137 58/138
f 58/139 60/140 61/141
f 58/142 61/143 59/144
f 59/145 61/146 62/147
f 59/148 62/149 42/150
f 42/151 62/152 44/153
f 42/154 44/155 42/156
f 42/157 44/158 43/159
f 42/160 43/161 41/162
f 44/163 62/164 29/165
f 29/166 62/167 61/168
f 29/169 61/170 29/171
f 29/172 61/173 60/174
f 29/175 60/176 29/177
f 29/178 60/179 56/180
f 29/181 56/182 27/183
f 63/184 29/185 38/186
f 38/187 29/188 28/189
f 53/190 49/191 64/192
f 64/193 49/194 51/195
f 36/196 31/197 4/198
f 4/199 31/200 65/201
f 3/202 66/203 35/204
f 35/205 66/206 67/207
f 35/208 67/209 31/210
f 31/211 67/212 68/213
f 31/214 68/215 31/216
f 31/217 68/218 69/219
f 31/220 69/221 31/222
f 31/223 69/224 70/225
f 31/226 70/227 32/228
f 67/229 66/230 68/231
f 68/232 66/233 71/234
f 68/235 71/236 69/237
f 69/238 71/239 72/240
f 69/241 72/242 70/243
f 70/244 72/245 73/246
f 70/247 73/248 32/249
f 32/250 73/251 34/252
f 32/253 34/254 32/255
f 32/256 34/257 33/258
f 32/259 33/260 30/261
f 3/262 2/263 66/264
f 66/265 2/266 2/267
f 66/268 2/269 71/270
f 71/271 2/272 2/273
f 71/274 2/275 72/276
f 72/277 2/278 2/279
f 72/280 2/281 73/282
f 73/283 2/284 34/285
f 26/286 20/287 24/288
f 24/289 20/290 74/291
f 23/292 75/293 25/294
f 25/295 75/296 75/297
f 25/298 75/299 76/300
f 76/301 75/302 75/303
f 76/304 75/305 77/306
f 77/307 75/308 78/309
f 77/310 78/311 79/312
f 79/313 78/314 80/315
f 79/316 80/317 81/318
f 81/319 80/320 82/321
f 81/322 82/323 21/324
f 21/325 82/326 16/327
f 21/328 16/329 21/330
f 21/331 16/332 18/333
f 21/334 18/335 19/336
f 23/337 17/338 75/339
f 75/340 17/341 17/342
f 75/343 17/344 78/345
f 78/346 17/347 17/348
f 78/349 17/350 80/351
f 80/352 17/353 17/354
f 80/355 17/356 82/357
f 82/358 17/359 16/360
f 51/361 52/362 64/363
f 64/364 52/365 83/366
f 21/367 20/368 81/369
f 81/370 20/371 20/372
f 81/373 20/374 79/375
f 79/376 20/377 20/378
f 79/379 20/380 77/381
f 77/382 20/383 20/384
f 77/385 20/386 76/387
f 76/388 20/389 25/390
f 14/391 10/392 84/393
f 84/394 10/395 10/396
f 84/397 10/398 85/399
f 85/400 10/401 10/402
f 85/403 10/404 86/405
f 86/406 10/407 10/408
f 86/409 10/410 87/411
f 87/412 10/413 9/414
f 14/415 84/416 12/417
f 12/418 84/419 84/420
f 12/421 84/422 88/423
f 88/424 84/425 84/426
f 88/427 84/428 89/429
f 89/430 84/431 85/432
f 89/433 85/434 90/435
f 90/436 85/437 86/438
f 90/439 86/440 91/441
f 91/442 86/443 87/444
f 91/445 87/446 7/447
f 7/448 87/449 9/450
f 7/451 9/452 7/453
f 7/454 9/455 8/456
f 7/457 8/458 5/459
f 12/460 88/461 6/462
f 6/463 88/464 89/465
f 6/466 89/467 6/468
f 6/469 89/470 90/471
f 6/472 90/473 6/474
f 6/475 90/476 91/477
f 6/478 91/479 7/480
f 10/481 15/482 92/483
f 92/484 15/485 13/486
f 64/487 83/488 53/489
f 53/490 83/491 54/492
f 83/493 52/494 54/495
f 54/496 52/497 50/498
f 93/499 94/500 95/501
f 95/502 94/503 96/504
f 45/505 47/506 96/507
f 96/508 47/509 95/510
f 47/511 48/512 95/513
f 95/514 48/515 93/516
f 48/517 46/518 93/519
f 93/520 46/521 94/522
f 96/523 94/524 45/525
f 45/526 94/527 46/528
