# Exported from USD for MuJoCo with source material subsets
v -14.9989995 -3.87994868 0.971459771
v -14.9989995 -3.80294854 0.971459771
v -15.041132 -3.87994868 1.00681303
v -15.0411319 -3.80294854 1.00681303
v -15.943354 -3.18073804 1.35687443
v -15.943354 -3.18073804 1.65570354
v -15.9433541 -3.59181339 1.35687468
v -15.9433542 -3.59181339 1.65570378
vt 0.481599003 -0.460000992
vt 0.481599003 -0.390000999
vt 0.443295985 -0.460000992
vt 0.443295985 -0.460000992
vt 0.481599003 -0.390000999
vt 0.443295985 -0.390000999
vt 0.175644994 1.23034
vt 0.175644994 1.50200295
vt -0.198060006 1.23034
vt -0.198060006 1.23034
vt 0.175644994 1.50200295
vt -0.198060006 1.50200295
f 1/1 2/2 3/3
f 3/4 2/5 4/6
f 5/7 6/8 7/9
f 7/10 6/11 8/12
