# Exported from USD for MuJoCo with source material subsets
v 11.8416068 4.32238211 1.11519994
v 11.8416068 4.31019129 1.11519994
v 11.8411945 4.32238211 1.12053977
v 11.8411945 4.31019129 1.12053977
v 11.8399976 4.32238211 1.12535686
v 11.8399976 4.31019129 1.12535686
v 11.8381332 4.32238211 1.12917976
v 11.8381332 4.31019129 1.12917976
v 11.835784 4.32238211 1.13163422
v 11.835784 4.31019129 1.13163422
v 11.83318 4.32238211 1.13247995
v 11.83318 4.31019129 1.13247995
v 11.7208203 4.31019129 1.13247989
v 11.7208203 4.32238211 1.13247989
v 11.7182163 4.32238211 1.13163416
v 11.7182163 4.31019129 1.13163416
v 11.7158672 4.32238211 1.1291797
v 11.7158672 4.31019129 1.1291797
v 11.7140028 4.32238211 1.12535681
v 11.7140028 4.31019129 1.12535681
v 11.712806 4.32238211 1.12053971
v 11.712806 4.31019129 1.12053971
v 11.7123935 4.32238211 1.11519991
v 11.7123935 4.31019129 1.11519991
v 11.6994214 3.54523911 1.11045117
v 11.7006643 3.54523911 1.11299975
v 11.6986234 3.54523911 1.10723979
v 11.6983485 3.54523911 1.10367991
v 11.7022304 3.54523911 1.11463605
v 11.7039665 3.54523911 1.11519991
v 11.6983485 3.54523911 1.09215991
v 11.7067755 3.54523911 1.11519991
v 11.7123935 3.54523911 1.11519991
v 11.7072541 3.54523911 1.12265388
v 11.712806 3.54523911 1.12053971
v 11.7086571 3.54523911 1.12959988
v 11.7140028 3.54523911 1.12535681
v 11.7108892 3.54523911 1.13556458
v 11.7158672 3.54523911 1.1291797
v 11.713798 3.54523911 1.14014141
v 11.7182163 3.54523911 1.13163416
v 11.7171853 3.54523911 1.14301856
v 11.7208203 3.54523911 1.13247989
v 11.7208203 3.54523911 1.14399989
v 11.83318 3.54523911 1.14399995
v 11.83318 3.54523911 1.13247995
v 11.836815 3.54523911 1.14301862
v 11.835784 3.54523911 1.13163422
v 11.8402024 3.54523911 1.14014147
v 11.8381332 3.54523911 1.12917976
v 11.8431112 3.54523911 1.13556464
v 11.8399976 3.54523911 1.12535686
v 11.8453431 3.54523911 1.12959994
v 11.8411945 3.54523911 1.12053977
v 11.8467464 3.54523911 1.12265394
v 11.8416068 3.54523911 1.11519994
v 11.8472249 3.54523911 1.11519994
v 11.8556519 3.54523911 1.09215997
v 11.8556519 3.54523911 1.10368
v 11.8500338 3.54523911 1.11519994
v 11.85177 3.54523911 1.11463614
v 11.853336 3.54523911 1.11299984
v 11.8553769 3.54523911 1.10723985
v 11.8545789 3.54523911 1.11045123
v 11.6994214 3.53304876 1.11045117
v 11.6986234 3.53304876 1.10723979
v 11.7006643 3.53304876 1.11299975
v 11.6983485 3.53304876 1.10367991
v 11.7022304 3.53304876 1.11463605
v 11.7039665 3.53304876 1.11519991
v 11.6983485 3.53304876 1.09215991
v 11.7067755 3.53304876 1.11519991
v 11.7123935 3.53304876 1.11519991
v 11.7072541 3.53304876 1.12265388
v 11.712806 3.53304876 1.12053971
v 11.7086571 3.53304876 1.12959988
v 11.7140028 3.53304876 1.12535681
v 11.7108892 3.53304876 1.13556458
v 11.7158672 3.53304876 1.1291797
v 11.713798 3.53304876 1.14014141
v 11.7182163 3.53304876 1.13163416
v 11.7171853 3.53304876 1.14301856
v 11.7208203 3.53304876 1.13247989
v 11.7208203 3.53304876 1.14399989
v 11.83318 3.53304876 1.14399995
v 11.83318 3.53304876 1.13247995
v 11.836815 3.53304876 1.14301862
v 11.835784 3.53304876 1.13163422
v 11.8402024 3.53304876 1.14014147
v 11.8381332 3.53304876 1.12917976
v 11.8431112 3.53304876 1.13556464
v 11.8399976 3.53304876 1.12535686
v 11.8453431 3.53304876 1.12959994
v 11.8411945 3.53304876 1.12053977
v 11.8467464 3.53304876 1.12265394
v 11.8416068 3.53304876 1.11519994
v 11.8472249 3.53304876 1.11519994
v 11.8556519 3.53304876 1.09215997
v 11.8556519 3.53304876 1.10368
v 11.8500338 3.53304876 1.11519994
v 11.85177 3.53304876 1.11463614
v 11.853336 3.53304876 1.11299984
v 11.8553769 3.53304876 1.10723985
v 11.8545789 3.53304876 1.11045123
v 11.7006643 4.31019129 1.11299975
v 11.6994214 4.31019129 1.11045117
v 11.7022304 4.31019129 1.11463605
v 11.7039665 4.31019129 1.11519991
v 11.6986234 4.31019129 1.10723979
v 11.6983485 4.31019129 1.10367991
v 11.6983485 4.31019129 1.09215991
v 11.706565 4.31019129 1.11519991
v 11.7070436 4.31019129 1.12265388
v 11.7084466 4.31019129 1.12959988
v 11.7106786 4.31019129 1.13556458
v 11.7135874 4.31019129 1.14014141
v 11.7169748 4.31019129 1.14301856
v 11.7206099 4.31019129 1.14399989
v 11.8333904 4.31019129 1.14399995
v 11.8370256 4.31019129 1.14301862
v 11.8404129 4.31019129 1.14014147
v 11.8433217 4.31019129 1.13556464
v 11.8455537 4.31019129 1.12959994
v 11.8469568 4.31019129 1.12265394
v 11.8474353 4.31019129 1.11519994
v 11.8556519 4.31019129 1.09215997
v 11.8500338 4.31019129 1.11519994
v 11.8556519 4.31019129 1.10368
v 11.8553769 4.31019129 1.10723985
v 11.8545789 4.31019129 1.11045123
v 11.853336 4.31019129 1.11299984
v 11.85177 4.31019129 1.11463614
v 11.7006643 4.32238211 1.11299975
v 11.7022304 4.32238211 1.11463605
v 11.6994214 4.32238211 1.11045117
v 11.7039665 4.32238211 1.11519991
v 11.6986234 4.32238211 1.10723979
v 11.6983485 4.32238211 1.10367991
v 11.6983485 4.32238211 1.09215991
v 11.706565 4.32238211 1.11519991
v 11.7070436 4.32238211 1.12265388
v 11.7084466 4.32238211 1.12959988
v 11.7106786 4.32238211 1.13556458
v 11.7135874 4.32238211 1.14014141
v 11.7169748 4.32238211 1.14301856
v 11.7206099 4.32238211 1.14399989
v 11.8333904 4.32238211 1.14399995
v 11.8370256 4.32238211 1.14301862
v 11.8404129 4.32238211 1.14014147
v 11.8433217 4.32238211 1.13556464
v 11.8455537 4.32238211 1.12959994
v 11.8469568 4.32238211 1.12265394
v 11.8474353 4.32238211 1.11519994
v 11.8556519 4.32238211 1.09215997
v 11.8500338 4.32238211 1.11519994
v 11.8556519 4.32238211 1.10368
v 11.85177 4.32238211 1.11463614
v 11.853336 4.32238211 1.11299984
v 11.8545789 4.32238211 1.11045123
v 11.8553769 4.32238211 1.10723985
vt -0.399390012 0.115199998
vt -0.387199998 0.115199998
vt -0.399390012 0.12054
vt -0.399390012 0.12054
vt -0.387199998 0.115199998
vt -0.387199998 0.12054
vt -0.399390012 0.12054
vt -0.387199998 0.12054
vt -0.399390012 0.125357002
vt -0.399390012 0.125357002
vt -0.387199998 0.12054
vt -0.387199998 0.125357002
vt -0.399390012 0.125357002
vt -0.387199998 0.125357002
vt -0.399390012 0.129179999
vt -0.399390012 0.129179999
vt -0.387199998 0.125357002
vt -0.387199998 0.129179999
vt -0.399390012 0.129179999
vt -0.387199998 0.129179999
vt -0.399390012 0.131633997
vt -0.399390012 0.131633997
vt -0.387199998 0.129179999
vt -0.387199998 0.131633997
vt -0.399390012 -0.0531659983
vt -0.387199998 -0.0531659983
vt -0.399390012 -0.0505620018
vt -0.399390012 -0.0505620018
vt -0.387199998 -0.0531659983
vt -0.387199998 -0.0505620018
vt -0.132479995 -0.0505620018
vt -0.132479995 -0.0505620018
vt -0.132479995 -0.0505620018
vt -0.399390012 -0.0505620018
vt -0.387199998 -0.0505620018
vt -0.387199998 0.0617979988
vt -0.399390012 -0.0505620018
vt -0.387199998 0.0617979988
vt -0.399390012 0.0617979988
vt -0.132479995 0.0617979988
vt -0.132479995 0.0617979988
vt -0.132479995 0.0617979988
vt -0.399390012 0.0617979988
vt -0.387199998 0.0617979988
vt -0.399390012 0.0644019991
vt -0.399390012 0.0644019991
vt -0.387199998 0.0617979988
vt -0.387199998 0.0644019991
vt 0.399390012 0.131633997
vt 0.387199998 0.131633997
vt 0.399390012 0.129179999
vt 0.399390012 0.129179999
vt 0.387199998 0.131633997
vt 0.387199998 0.129179999
vt 0.399390012 0.129179999
vt 0.387199998 0.129179999
vt 0.399390012 0.125357002
vt 0.399390012 0.125357002
vt 0.387199998 0.129179999
vt 0.387199998 0.125357002
vt 0.399390012 0.125357002
vt 0.387199998 0.125357002
vt 0.399390012 0.12054
vt 0.399390012 0.12054
vt 0.387199998 0.125357002
vt 0.387199998 0.12054
vt 0.399390012 0.12054
vt 0.387199998 0.12054
vt 0.399390012 0.115199998
vt 0.399390012 0.115199998
vt 0.387199998 0.12054
vt 0.387199998 0.115199998
vt -0.110450998 0.0831969976
vt -0.112999998 0.0819540024
vt -0.107239999 0.0839949995
vt -0.107239999 0.0839949995
vt -0.112999998 0.0819540024
vt -0.112999998 0.0819540024
vt -0.107239999 0.0839949995
vt -0.112999998 0.0819540024
vt -0.10368 0.0842700005
vt -0.10368 0.0842700005
vt -0.112999998 0.0819540024
vt -0.114635997 0.0803880021
vt -0.10368 0.0842700005
vt -0.114635997 0.0803880021
vt -0.10368 0.0842700005
vt -0.10368 0.0842700005
vt -0.114635997 0.0803880021
vt -0.115199998 0.0786520019
vt -0.10368 0.0842700005
vt -0.115199998 0.0786520019
vt -0.0921600014 0.0842700005
vt -0.0921600014 0.0842700005
vt -0.115199998 0.0786520019
vt -0.115199998 0.0758429989
vt -0.0921600014 0.0842700005
vt -0.115199998 0.0758429989
vt -0.115199998 0.0702250004
vt -0.115199998 0.0702250004
vt -0.115199998 0.0758429989
vt -0.122653998 0.0753640011
vt -0.115199998 0.0702250004
vt -0.122653998 0.0753640011
vt -0.12054 0.0698119998
vt -0.12054 0.0698119998
vt -0.122653998 0.0753640011
vt -0.129600003 0.0739609972
vt -0.12054 0.0698119998
vt -0.129600003 0.0739609972
vt -0.125357002 0.068614997
vt -0.125357002 0.068614997
vt -0.129600003 0.0739609972
vt -0.135564998 0.0717289969
vt -0.125357002 0.068614997
vt -0.135564998 0.0717289969
vt -0.129179999 0.0667510033
vt -0.129179999 0.0667510033
vt -0.135564998 0.0717289969
vt -0.140141994 0.0688199997
vt -0.129179999 0.0667510033
vt -0.140141994 0.0688199997
vt -0.131633997 0.0644019991
vt -0.131633997 0.0644019991
vt -0.140141994 0.0688199997
vt -0.143019006 0.065433003
vt -0.131633997 0.0644019991
vt -0.143019006 0.065433003
vt -0.132479995 0.0617979988
vt -0.132479995 0.0617979988
vt -0.143019006 0.065433003
vt -0.143999994 0.0617979988
vt -0.132479995 0.0617979988
vt -0.143999994 0.0617979988
vt -0.132479995 0.0617979988
vt -0.132479995 0.0617979988
vt -0.143999994 0.0617979988
vt -0.143999994 -0.0505620018
vt -0.132479995 0.0617979988
vt -0.143999994 -0.0505620018
vt -0.132479995 -0.0505620018
vt -0.132479995 -0.0505620018
vt -0.143999994 -0.0505620018
vt -0.143019006 -0.0541969985
vt -0.132479995 -0.0505620018
vt -0.143019006 -0.0541969985
vt -0.131633997 -0.0531659983
vt -0.131633997 -0.0531659983
vt -0.143019006 -0.0541969985
vt -0.140141994 -0.0575839989
vt -0.131633997 -0.0531659983
vt -0.140141994 -0.0575839989
vt -0.129179999 -0.0555149987
vt -0.129179999 -0.0555149987
vt -0.140141994 -0.0575839989
vt -0.135564998 -0.0604929999
vt -0.129179999 -0.0555149987
vt -0.135564998 -0.0604929999
vt -0.125357002 -0.0573789999
vt -0.125357002 -0.0573789999
vt -0.135564998 -0.0604929999
vt -0.129600003 -0.0627250001
vt -0.125357002 -0.0573789999
vt -0.129600003 -0.0627250001
vt -0.12054 -0.058575999
vt -0.12054 -0.058575999
vt -0.129600003 -0.0627250001
vt -0.122653998 -0.0641279966
vt -0.12054 -0.058575999
vt -0.122653998 -0.0641279966
vt -0.115199998 -0.0589889996
vt -0.115199998 -0.0589889996
vt -0.122653998 -0.0641279966
vt -0.115199998 -0.0646070018
vt -0.115199998 -0.0589889996
vt -0.115199998 -0.0646070018
vt -0.0921600014 -0.0730340034
vt -0.0921600014 -0.0730340034
vt -0.115199998 -0.0646070018
vt -0.115199998 -0.0646070018
vt -0.0921600014 -0.0730340034
vt -0.115199998 -0.0646070018
vt -0.10368 -0.0730340034
vt -0.10368 -0.0730340034
vt -0.115199998 -0.0646070018
vt -0.115199998 -0.0674159974
vt -0.10368 -0.0730340034
vt -0.115199998 -0.0674159974
vt -0.10368 -0.0730340034
vt -0.10368 -0.0730340034
vt -0.115199998 -0.0674159974
vt -0.114635997 -0.0691519976
vt -0.10368 -0.0730340034
vt -0.114635997 -0.0691519976
vt -0.10368 -0.0730340034
vt -0.10368 -0.0730340034
vt -0.114635997 -0.0691519976
vt -0.112999998 -0.0707179978
vt -0.10368 -0.0730340034
vt -0.112999998 -0.0707179978
vt -0.107239999 -0.0727590024
vt -0.107239999 -0.0727590024
vt -0.112999998 -0.0707179978
vt -0.110450998 -0.0719610006
vt -0.0921600014 -0.0730340034
vt -0.0921600014 0.0842700005
vt -0.115199998 -0.0589889996
vt -0.115199998 -0.0589889996
vt -0.0921600014 0.0842700005
vt -0.115199998 0.0702250004
vt 0.110450998 0.0831969976
vt 0.107239999 0.0839949995
vt 0.112999998 0.0819540024
vt 0.112999998 0.0819540024
vt 0.107239999 0.0839949995
vt 0.10368 0.0842700005
vt 0.112999998 0.0819540024
vt 0.10368 0.0842700005
vt 0.114635997 0.0803880021
vt -0.114635997 0.0803880021
vt -0.10368 0.0842700005
vt -0.10368 0.0842700005
vt 0.114635997 0.0803880021
vt 0.10368 0.0842700005
vt 0.115199998 0.0786520019
vt 0.115199998 0.0786520019
vt 0.10368 0.0842700005
vt 0.0921600014 0.0842700005
vt 0.115199998 0.0786520019
vt 0.0921600014 0.0842700005
vt 0.115199998 0.0758429989
vt 0.115199998 0.0758429989
vt 0.0921600014 0.0842700005
vt 0.115199998 0.0702250004
vt 0.115199998 0.0758429989
vt 0.115199998 0.0702250004
vt 0.122653998 0.0753640011
vt 0.122653998 0.0753640011
vt 0.115199998 0.0702250004
vt 0.12054 0.0698119998
vt 0.122653998 0.0753640011
vt 0.12054 0.0698119998
vt 0.129600003 0.0739609972
vt 0.129600003 0.0739609972
vt 0.12054 0.0698119998
vt 0.125357002 0.068614997
vt 0.129600003 0.0739609972
vt 0.125357002 0.068614997
vt 0.135564998 0.0717289969
vt 0.135564998 0.0717289969
vt 0.125357002 0.068614997
vt 0.129179999 0.0667510033
vt 0.135564998 0.0717289969
vt 0.129179999 0.0667510033
vt 0.140141994 0.0688199997
vt 0.140141994 0.0688199997
vt 0.129179999 0.0667510033
vt 0.131633997 0.0644019991
vt 0.140141994 0.0688199997
vt 0.131633997 0.0644019991
vt 0.143019006 0.065433003
vt 0.143019006 0.065433003
vt 0.131633997 0.0644019991
vt 0.132479995 0.0617979988
vt 0.143019006 0.065433003
vt 0.132479995 0.0617979988
vt 0.143999994 0.0617979988
vt -0.143999994 0.0617979988
vt -0.132479995 0.0617979988
vt -0.132479995 0.0617979988
vt 0.143999994 0.0617979988
vt 0.132479995 0.0617979988
vt 0.143999994 -0.0505620018
vt 0.143999994 -0.0505620018
vt 0.132479995 0.0617979988
vt 0.132479995 -0.0505620018
vt 0.143999994 -0.0505620018
vt 0.132479995 -0.0505620018
vt 0.143019006 -0.0541969985
vt 0.143019006 -0.0541969985
vt 0.132479995 -0.0505620018
vt 0.131633997 -0.0531659983
vt 0.143019006 -0.0541969985
vt 0.131633997 -0.0531659983
vt 0.140141994 -0.0575839989
vt 0.140141994 -0.0575839989
vt 0.131633997 -0.0531659983
vt 0.129179999 -0.0555149987
vt 0.140141994 -0.0575839989
vt 0.129179999 -0.0555149987
vt 0.135564998 -0.0604929999
vt 0.135564998 -0.0604929999
vt 0.129179999 -0.0555149987
vt 0.125357002 -0.0573789999
vt 0.135564998 -0.0604929999
vt 0.125357002 -0.0573789999
vt 0.129600003 -0.0627250001
vt 0.129600003 -0.0627250001
vt 0.125357002 -0.0573789999
vt 0.12054 -0.058575999
vt 0.129600003 -0.0627250001
vt 0.12054 -0.058575999
vt 0.122653998 -0.0641279966
vt 0.122653998 -0.0641279966
vt 0.12054 -0.058575999
vt 0.115199998 -0.0589889996
vt 0.122653998 -0.0641279966
vt 0.115199998 -0.0589889996
vt 0.115199998 -0.0646070018
vt 0.115199998 -0.0646070018
vt 0.115199998 -0.0589889996
vt 0.0921600014 -0.0730340034
vt -0.115199998 -0.0646070018
vt -0.0921600014 -0.0730340034
vt -0.115199998 -0.0646070018
vt 0.115199998 -0.0646070018
vt 0.0921600014 -0.0730340034
vt 0.10368 -0.0730340034
vt 0.115199998 -0.0646070018
vt 0.10368 -0.0730340034
vt 0.115199998 -0.0674159974
vt -0.115199998 -0.0674159974
vt -0.10368 -0.0730340034
vt -0.10368 -0.0730340034
vt 0.115199998 -0.0674159974
vt 0.10368 -0.0730340034
vt 0.114635997 -0.0691519976
vt -0.114635997 -0.0691519976
vt -0.10368 -0.0730340034
vt -0.10368 -0.0730340034
vt 0.114635997 -0.0691519976
vt 0.10368 -0.0730340034
vt 0.112999998 -0.0707179978
vt 0.112999998 -0.0707179978
vt 0.10368 -0.0730340034
vt 0.107239999 -0.0727590024
vt 0.112999998 -0.0707179978
vt 0.107239999 -0.0727590024
vt 0.110450998 -0.0719610006
vt 0.0921600014 -0.0730340034
vt 0.115199998 -0.0589889996
vt 0.0921600014 0.0842700005
vt 0.0921600014 0.0842700005
vt 0.115199998 -0.0589889996
vt 0.115199998 0.0702250004
vt 0.389943004 0.10368
vt 0.389943004 0.107239999
vt 0.377752006 0.10368
vt -0.10368 0.0842700005
vt -0.107239999 0.0839949995
vt -0.107239999 0.0839949995
vt 0.377752006 0.10368
vt 0.389943004 0.107239999
vt 0.377752006 0.107239999
vt 0.377752006 0.107239999
vt 0.389943004 0.107239999
vt 0.389943004 0.110450998
vt 0.377752006 0.107239999
vt 0.389943004 0.110450998
vt 0.377752006 0.110450998
vt 0.377752006 0.110450998
vt 0.389943004 0.110450998
vt 0.389943004 0.112999998
vt 0.377752006 0.110450998
vt 0.389943004 0.112999998
vt 0.377752006 0.112999998
vt 0.377752006 0.112999998
vt 0.389943004 0.112999998
vt 0.389943004 0.114635997
vt 0.377752006 0.112999998
vt 0.389943004 0.114635997
vt 0.377752006 0.114635997
vt -0.377752006 0.0803880021
vt -0.389943004 0.0803880021
vt -0.389943004 0.0786520019
vt -0.377752006 0.0803880021
vt -0.389943004 0.0786520019
vt -0.377752006 0.0786520019
vt 0.377752006 0.10368
vt 0.377752006 0.0921600014
vt 0.389943004 0.10368
vt 0.389943004 0.10368
vt 0.377752006 0.0921600014
vt 0.389943004 0.0921600014
vt -0.389943004 0.0786520019
vt -0.389943004 0.0758429989
vt -0.377752006 0.0786520019
vt -0.377752006 0.0786520019
vt -0.389943004 0.0758429989
vt -0.377752006 0.0758429989
vt -0.389943004 0.0702250004
vt -0.389943004 -0.0589889996
vt -0.377752006 0.0702250004
vt -0.377752006 0.0702250004
vt -0.389943004 -0.0589889996
vt -0.377752006 -0.0589889996
vt 0.389943004 0.115199998
vt 0.389943004 0.122653998
vt 0.377752006 0.115199998
vt -0.115199998 0.0758429989
vt -0.122653998 0.0753640011
vt -0.122653998 0.0753640011
vt 0.377752006 0.115199998
vt 0.389943004 0.122653998
vt 0.377752006 0.122653998
vt 0.377752006 0.122653998
vt 0.389943004 0.122653998
vt 0.389943004 0.129600003
vt 0.377752006 0.122653998
vt 0.389943004 0.129600003
vt 0.377752006 0.129600003
vt 0.377752006 0.129600003
vt 0.389943004 0.129600003
vt 0.389943004 0.135564998
vt 0.377752006 0.129600003
vt 0.389943004 0.135564998
vt 0.377752006 0.135564998
vt 0.377752006 0.135564998
vt 0.389943004 0.135564998
vt 0.389943004 0.140141994
vt 0.377752006 0.135564998
vt 0.389943004 0.140141994
vt 0.377752006 0.140141994
vt -0.377752006 0.0688199997
vt -0.389943004 0.0688199997
vt -0.389943004 0.065433003
vt -0.377752006 0.0688199997
vt -0.389943004 0.065433003
vt -0.377752006 0.065433003
vt -0.377752006 0.065433003
vt -0.389943004 0.065433003
vt -0.389943004 0.0617979988
vt -0.377752006 0.065433003
vt -0.389943004 0.0617979988
vt -0.377752006 0.0617979988
vt -0.389943004 0.115199998
vt -0.377752006 0.115199998
vt -0.389943004 0.12054
vt -0.389943004 0.12054
vt -0.377752006 0.115199998
vt -0.377752006 0.12054
vt -0.389943004 0.12054
vt -0.377752006 0.12054
vt -0.389943004 0.125357002
vt -0.389943004 0.125357002
vt -0.377752006 0.12054
vt -0.377752006 0.125357002
vt -0.389943004 0.125357002
vt -0.377752006 0.125357002
vt -0.389943004 0.129179999
vt -0.389943004 0.129179999
vt -0.377752006 0.125357002
vt -0.377752006 0.129179999
vt -0.389943004 0.129179999
vt -0.377752006 0.129179999
vt -0.389943004 0.131633997
vt -0.389943004 0.131633997
vt -0.377752006 0.129179999
vt -0.377752006 0.131633997
vt 0.389943004 0.0644019991
vt 0.377752006 0.0644019991
vt 0.389943004 0.0617979988
vt 0.389943004 0.0617979988
vt 0.377752006 0.0644019991
vt 0.377752006 0.0617979988
vt -0.389943004 0.0617979988
vt -0.389943004 -0.0505620018
vt -0.377752006 0.0617979988
vt -0.377752006 0.0617979988
vt -0.389943004 -0.0505620018
vt -0.377752006 -0.0505620018
vt 0.377752006 0.0617979988
vt 0.377752006 -0.0505620018
vt 0.389943004 0.0617979988
vt 0.389943004 0.0617979988
vt 0.377752006 -0.0505620018
vt 0.389943004 -0.0505620018
vt 0.377752006 0.115199998
vt 0.389943004 0.115199998
vt 0.377752006 0.12054
vt 0.377752006 0.12054
vt 0.389943004 0.115199998
vt 0.389943004 0.12054
vt 0.377752006 0.12054
vt 0.389943004 0.12054
vt 0.377752006 0.125357002
vt 0.377752006 0.125357002
vt 0.389943004 0.12054
vt 0.389943004 0.125357002
vt 0.377752006 0.125357002
vt 0.389943004 0.125357002
vt 0.377752006 0.129179999
vt 0.377752006 0.129179999
vt 0.389943004 0.125357002
vt 0.389943004 0.129179999
vt 0.377752006 0.129179999
vt 0.389943004 0.129179999
vt 0.377752006 0.131633997
vt 0.377752006 0.131633997
vt 0.389943004 0.129179999
vt 0.389943004 0.131633997
vt 0.377752006 -0.0531659983
vt 0.389943004 -0.0531659983
vt 0.377752006 -0.0505620018
vt 0.377752006 -0.0505620018
vt 0.389943004 -0.0531659983
vt 0.389943004 -0.0505620018
vt -0.389943004 -0.0505620018
vt -0.389943004 -0.0541969985
vt -0.377752006 -0.0505620018
vt -0.143999994 -0.0505620018
vt -0.143019006 -0.0541969985
vt -0.143019006 -0.0541969985
vt -0.377752006 -0.0505620018
vt -0.389943004 -0.0541969985
vt -0.377752006 -0.0541969985
vt -0.377752006 -0.0541969985
vt -0.389943004 -0.0541969985
vt -0.389943004 -0.0575839989
vt -0.377752006 -0.0541969985
vt -0.389943004 -0.0575839989
vt -0.377752006 -0.0575839989
vt -0.377752006 0.140141994
vt -0.389943004 0.140141994
vt -0.389943004 0.135564998
vt -0.377752006 0.140141994
vt -0.389943004 0.135564998
vt -0.377752006 0.135564998
vt -0.377752006 0.135564998
vt -0.389943004 0.135564998
vt -0.389943004 0.129600003
vt -0.377752006 0.135564998
vt -0.389943004 0.129600003
vt -0.377752006 0.129600003
vt -0.377752006 0.129600003
vt -0.389943004 0.129600003
vt -0.389943004 0.122653998
vt -0.377752006 0.129600003
vt -0.389943004 0.122653998
vt -0.377752006 0.122653998
vt -0.377752006 0.122653998
vt -0.389943004 0.122653998
vt -0.389943004 0.115199998
vt -0.377752006 0.122653998
vt -0.389943004 0.115199998
vt -0.377752006 0.115199998
vt 0.377752006 0.0842700005
vt 0.377752006 -0.0730340034
vt 0.389943004 0.0842700005
vt 0.389943004 0.0842700005
vt 0.377752006 -0.0730340034
vt 0.389943004 -0.0730340034
vt -0.377752006 0.0921600014
vt -0.377752006 0.10368
vt -0.389943004 0.0921600014
vt -0.389943004 0.0921600014
vt -0.377752006 0.10368
vt -0.389943004 0.10368
vt -0.389943004 -0.0646070018
vt -0.389943004 -0.0674159974
vt -0.377752006 -0.0646070018
vt -0.377752006 -0.0646070018
vt -0.389943004 -0.0674159974
vt -0.377752006 -0.0674159974
vt -0.389943004 -0.0674159974
vt -0.389943004 -0.0691519976
vt -0.377752006 -0.0674159974
vt -0.115199998 -0.0674159974
vt -0.114635997 -0.0691519976
vt -0.114635997 -0.0691519976
vt -0.377752006 -0.0674159974
vt -0.389943004 -0.0691519976
vt -0.377752006 -0.0691519976
vt -0.377752006 0.114635997
vt -0.389943004 0.114635997
vt -0.389943004 0.112999998
vt -0.377752006 0.114635997
vt -0.389943004 0.112999998
vt -0.377752006 0.112999998
vt -0.377752006 0.112999998
vt -0.389943004 0.112999998
vt -0.389943004 0.110450998
vt -0.377752006 0.112999998
vt -0.389943004 0.110450998
vt -0.377752006 0.110450998
vt -0.377752006 0.110450998
vt -0.389943004 0.110450998
vt -0.389943004 0.107239999
vt -0.377752006 0.110450998
vt -0.389943004 0.107239999
vt -0.377752006 0.107239999
vt -0.377752006 0.107239999
vt -0.389943004 0.107239999
vt -0.389943004 0.10368
vt -0.377752006 0.107239999
vt -0.389943004 0.10368
vt -0.377752006 0.10368
vt 0.112999998 0.0819540024
vt 0.110450998 0.0831969976
vt 0.114635997 0.0803880021
vt -0.114635997 0.0803880021
vt -0.110450998 0.0831969976
vt -0.110450998 0.0831969976
vt 0.114635997 0.0803880021
vt 0.110450998 0.0831969976
vt 0.115199998 0.0786520019
vt 0.115199998 0.0786520019
vt 0.110450998 0.0831969976
vt 0.107239999 0.0839949995
vt -0.115199998 0.0786520019
vt -0.107239999 0.0839949995
vt -0.115199998 0.0786520019
vt 0.115199998 0.0786520019
vt 0.107239999 0.0839949995
vt 0.10368 0.0842700005
vt -0.115199998 0.0786520019
vt -0.10368 0.0842700005
vt -0.115199998 0.0786520019
vt 0.115199998 0.0786520019
vt 0.10368 0.0842700005
vt 0.0921600014 0.0842700005
vt 0.115199998 0.0786520019
vt 0.0921600014 0.0842700005
vt 0.115199998 0.076053001
vt 0.115199998 0.076053001
vt 0.0921600014 0.0842700005
vt 0.115199998 0.0702250004
vt 0.115199998 0.076053001
vt 0.115199998 0.0702250004
vt 0.122653998 0.0755750015
vt 0.122653998 0.0755750015
vt 0.115199998 0.0702250004
vt 0.12054 0.0698119998
vt 0.122653998 0.0755750015
vt 0.12054 0.0698119998
vt 0.129600003 0.0741719976
vt 0.129600003 0.0741719976
vt 0.12054 0.0698119998
vt 0.125357002 0.068614997
vt 0.129600003 0.0741719976
vt 0.125357002 0.068614997
vt 0.135564998 0.0719399974
vt 0.135564998 0.0719399974
vt 0.125357002 0.068614997
vt 0.129179999 0.0667510033
vt 0.135564998 0.0719399974
vt 0.129179999 0.0667510033
vt 0.140141994 0.0690310001
vt 0.140141994 0.0690310001
vt 0.129179999 0.0667510033
vt 0.131633997 0.0644019991
vt 0.140141994 0.0690310001
vt 0.131633997 0.0644019991
vt 0.143019006 0.0656429976
vt 0.143019006 0.0656429976
vt 0.131633997 0.0644019991
vt 0.132479995 0.0617979988
vt 0.143019006 0.0656429976
vt 0.132479995 0.0617979988
vt 0.143999994 0.0620080009
vt -0.143999994 0.0620080009
vt -0.132479995 0.0617979988
vt -0.132479995 0.0617979988
vt 0.143999994 0.0620080009
vt 0.132479995 0.0617979988
vt 0.143999994 -0.0507720001
vt 0.143999994 -0.0507720001
vt 0.132479995 0.0617979988
vt 0.132479995 -0.0505620018
vt 0.143999994 -0.0507720001
vt 0.132479995 -0.0505620018
vt 0.143019006 -0.0544070005
vt 0.143019006 -0.0544070005
vt 0.132479995 -0.0505620018
vt 0.131633997 -0.0531659983
vt 0.143019006 -0.0544070005
vt 0.131633997 -0.0531659983
vt 0.140141994 -0.0577949993
vt 0.140141994 -0.0577949993
vt 0.131633997 -0.0531659983
vt 0.129179999 -0.0555149987
vt 0.140141994 -0.0577949993
vt 0.129179999 -0.0555149987
vt 0.135564998 -0.0607040003
vt 0.135564998 -0.0607040003
vt 0.129179999 -0.0555149987
vt 0.125357002 -0.0573789999
vt 0.135564998 -0.0607040003
vt 0.125357002 -0.0573789999
vt 0.129600003 -0.0629360005
vt 0.129600003 -0.0629360005
vt 0.125357002 -0.0573789999
vt 0.12054 -0.058575999
vt 0.129600003 -0.0629360005
vt 0.12054 -0.058575999
vt 0.122653998 -0.064338997
vt 0.122653998 -0.064338997
vt 0.12054 -0.058575999
vt 0.115199998 -0.0589889996
vt 0.122653998 -0.064338997
vt 0.115199998 -0.0589889996
vt 0.115199998 -0.0648169965
vt 0.115199998 -0.0648169965
vt 0.115199998 -0.0589889996
vt 0.0921600014 -0.0730340034
vt 0.115199998 -0.0648169965
vt 0.0921600014 -0.0730340034
vt 0.115199998 -0.0674159974
vt 0.115199998 -0.0674159974
vt 0.0921600014 -0.0730340034
vt 0.10368 -0.0730340034
vt -0.115199998 -0.0674159974
vt -0.10368 -0.0730340034
vt -0.115199998 -0.0674159974
vt 0.115199998 -0.0674159974
vt 0.10368 -0.0730340034
vt 0.107239999 -0.0727590024
vt -0.115199998 -0.0674159974
vt -0.107239999 -0.0727590024
vt -0.115199998 -0.0674159974
vt 0.115199998 -0.0674159974
vt 0.107239999 -0.0727590024
vt 0.110450998 -0.0719610006
vt -0.115199998 -0.0674159974
vt -0.110450998 -0.0719610006
vt -0.115199998 -0.0674159974
vt 0.115199998 -0.0674159974
vt 0.110450998 -0.0719610006
vt 0.112999998 -0.0707179978
vt 0.115199998 -0.0674159974
vt 0.112999998 -0.0707179978
vt 0.114635997 -0.0691519976
vt 0.115199998 -0.0589889996
vt 0.115199998 0.0702250004
vt 0.0921600014 -0.0730340034
vt 0.0921600014 -0.0730340034
vt 0.115199998 0.0702250004
vt 0.0921600014 0.0842700005
vt -0.112999998 0.0819540024
vt -0.114635997 0.0803880021
vt -0.110450998 0.0831969976
vt -0.110450998 0.0831969976
vt -0.114635997 0.0803880021
vt -0.115199998 0.0786520019
vt -0.110450998 0.0831969976
vt -0.115199998 0.0786520019
vt -0.107239999 0.0839949995
vt -0.107239999 0.0839949995
vt -0.115199998 0.0786520019
vt -0.115199998 0.0786520019
vt -0.107239999 0.0839949995
vt -0.115199998 0.0786520019
vt -0.10368 0.0842700005
vt -0.10368 0.0842700005
vt -0.115199998 0.0786520019
vt -0.115199998 0.0786520019
vt -0.10368 0.0842700005
vt -0.115199998 0.0786520019
vt -0.0921600014 0.0842700005
vt -0.0921600014 0.0842700005
vt -0.115199998 0.0786520019
vt -0.115199998 0.076053001
vt -0.0921600014 0.0842700005
vt -0.115199998 0.076053001
vt -0.115199998 0.0702250004
vt -0.115199998 0.0702250004
vt -0.115199998 0.076053001
vt -0.122653998 0.0755750015
vt -0.115199998 0.0702250004
vt -0.122653998 0.0755750015
vt -0.12054 0.0698119998
vt -0.12054 0.0698119998
vt -0.122653998 0.0755750015
vt -0.129600003 0.0741719976
vt -0.12054 0.0698119998
vt -0.129600003 0.0741719976
vt -0.125357002 0.068614997
vt -0.125357002 0.068614997
vt -0.129600003 0.0741719976
vt -0.135564998 0.0719399974
vt -0.125357002 0.068614997
vt -0.135564998 0.0719399974
vt -0.129179999 0.0667510033
vt -0.129179999 0.0667510033
vt -0.135564998 0.0719399974
vt -0.140141994 0.0690310001
vt -0.129179999 0.0667510033
vt -0.140141994 0.0690310001
vt -0.131633997 0.0644019991
vt -0.131633997 0.0644019991
vt -0.140141994 0.0690310001
vt -0.143019006 0.0656429976
vt -0.131633997 0.0644019991
vt -0.143019006 0.0656429976
vt -0.132479995 0.0617979988
vt -0.132479995 0.0617979988
vt -0.143019006 0.0656429976
vt -0.143999994 0.0620080009
vt -0.132479995 0.0617979988
vt -0.143999994 0.0620080009
vt -0.132479995 0.0617979988
vt -0.132479995 0.0617979988
vt -0.143999994 0.0620080009
vt -0.143999994 -0.0507720001
vt -0.132479995 0.0617979988
vt -0.143999994 -0.0507720001
vt -0.132479995 -0.0505620018
vt -0.132479995 -0.0505620018
vt -0.143999994 -0.0507720001
vt -0.143019006 -0.0544070005
vt -0.132479995 -0.0505620018
vt -0.143019006 -0.0544070005
vt -0.131633997 -0.0531659983
vt -0.131633997 -0.0531659983
vt -0.143019006 -0.0544070005
vt -0.140141994 -0.0577949993
vt -0.131633997 -0.0531659983
vt -0.140141994 -0.0577949993
vt -0.129179999 -0.0555149987
vt -0.129179999 -0.0555149987
vt -0.140141994 -0.0577949993
vt -0.135564998 -0.0607040003
vt -0.129179999 -0.0555149987
vt -0.135564998 -0.0607040003
vt -0.125357002 -0.0573789999
vt -0.125357002 -0.0573789999
vt -0.135564998 -0.0607040003
vt -0.129600003 -0.0629360005
vt -0.125357002 -0.0573789999
vt -0.129600003 -0.0629360005
vt -0.12054 -0.058575999
vt -0.12054 -0.058575999
vt -0.129600003 -0.0629360005
vt -0.122653998 -0.064338997
vt -0.12054 -0.058575999
vt -0.122653998 -0.064338997
vt -0.115199998 -0.0589889996
vt -0.115199998 -0.0589889996
vt -0.122653998 -0.064338997
vt -0.115199998 -0.0648169965
vt -0.115199998 -0.0589889996
vt -0.115199998 -0.0648169965
vt -0.0921600014 -0.0730340034
vt -0.0921600014 -0.0730340034
vt -0.115199998 -0.0648169965
vt -0.115199998 -0.0674159974
vt -0.0921600014 -0.0730340034
vt -0.115199998 -0.0674159974
vt -0.10368 -0.0730340034
vt -0.10368 -0.0730340034
vt -0.115199998 -0.0674159974
vt -0.114635997 -0.0691519976
vt -0.10368 -0.0730340034
vt -0.114635997 -0.0691519976
vt -0.10368 -0.0730340034
vt -0.10368 -0.0730340034
vt -0.114635997 -0.0691519976
vt -0.112999998 -0.0707179978
vt -0.10368 -0.0730340034
vt -0.112999998 -0.0707179978
vt -0.10368 -0.0730340034
vt -0.10368 -0.0730340034
vt -0.112999998 -0.0707179978
vt -0.110450998 -0.0719610006
vt -0.10368 -0.0730340034
vt -0.110450998 -0.0719610006
vt -0.107239999 -0.0727590024
vt -0.115199998 -0.0589889996
vt -0.0921600014 -0.0730340034
vt -0.115199998 0.0702250004
vt -0.115199998 0.0702250004
vt -0.0921600014 -0.0730340034
vt -0.0921600014 0.0842700005
vt 0.399390012 0.0786520019
vt 0.399390012 0.0803880021
vt 0.387199998 0.0786520019
vt -0.115199998 0.0786520019
vt -0.114635997 0.0803880021
vt -0.114635997 0.0803880021
vt 0.387199998 0.0786520019
vt 0.399390012 0.0803880021
vt 0.387199998 0.0803880021
vt -0.387199998 0.114635997
vt -0.399390012 0.114635997
vt -0.399390012 0.112999998
vt -0.387199998 0.114635997
vt -0.399390012 0.112999998
vt -0.387199998 0.112999998
vt -0.387199998 0.112999998
vt -0.399390012 0.112999998
vt -0.399390012 0.110450998
vt -0.387199998 0.112999998
vt -0.399390012 0.110450998
vt -0.387199998 0.110450998
vt -0.387199998 0.110450998
vt -0.399390012 0.110450998
vt -0.399390012 0.107239999
vt -0.387199998 0.110450998
vt -0.399390012 0.107239999
vt -0.387199998 0.107239999
vt -0.387199998 0.107239999
vt -0.399390012 0.107239999
vt -0.399390012 0.10368
vt -0.387199998 0.107239999
vt -0.399390012 0.10368
vt -0.387199998 0.10368
vt -0.399390012 0.10368
vt -0.399390012 0.0921600014
vt -0.387199998 0.10368
vt -0.387199998 0.10368
vt -0.399390012 0.0921600014
vt -0.387199998 0.0921600014
vt -0.399390012 0.0842700005
vt -0.399390012 -0.0730340034
vt -0.387199998 0.0842700005
vt -0.387199998 0.0842700005
vt -0.399390012 -0.0730340034
vt -0.387199998 -0.0730340034
vt 0.399390012 0.0921600014
vt 0.399390012 0.10368
vt 0.387199998 0.0921600014
vt 0.387199998 0.0921600014
vt 0.399390012 0.10368
vt 0.387199998 0.10368
vt 0.399390012 0.10368
vt 0.399390012 0.107239999
vt 0.387199998 0.10368
vt -0.10368 -0.0730340034
vt -0.107239999 -0.0727590024
vt -0.107239999 -0.0727590024
vt 0.387199998 0.10368
vt 0.399390012 0.107239999
vt 0.387199998 0.107239999
vt 0.387199998 0.107239999
vt 0.399390012 0.107239999
vt 0.399390012 0.110450998
vt 0.387199998 0.107239999
vt 0.399390012 0.110450998
vt 0.387199998 0.110450998
vt 0.387199998 0.110450998
vt 0.399390012 0.110450998
vt 0.399390012 0.112999998
vt 0.387199998 0.110450998
vt 0.399390012 0.112999998
vt 0.387199998 0.112999998
vt 0.387199998 0.112999998
vt 0.399390012 0.112999998
vt 0.399390012 0.114635997
vt 0.387199998 0.112999998
vt 0.399390012 0.114635997
vt 0.387199998 0.114635997
vt 0.387199998 -0.0691519976
vt 0.399390012 -0.0691519976
vt 0.399390012 -0.0674159974
vt 0.387199998 -0.0691519976
vt 0.399390012 -0.0674159974
vt 0.387199998 -0.0674159974
vt 0.399390012 -0.0674159974
vt 0.399390012 -0.0648169965
vt 0.387199998 -0.0674159974
vt 0.387199998 -0.0674159974
vt 0.399390012 -0.0648169965
vt 0.387199998 -0.0648169965
vt 0.399390012 -0.0589889996
vt 0.399390012 0.0702250004
vt 0.387199998 -0.0589889996
vt 0.387199998 -0.0589889996
vt 0.399390012 0.0702250004
vt 0.387199998 0.0702250004
vt 0.387199998 0.0786520019
vt 0.387199998 0.076053001
vt 0.399390012 0.0786520019
vt 0.399390012 0.0786520019
vt 0.387199998 0.076053001
vt 0.399390012 0.076053001
vt -0.387199998 0.115199998
vt -0.387199998 0.122653998
vt -0.399390012 0.115199998
vt -0.115199998 0.076053001
vt -0.122653998 0.0755750015
vt -0.122653998 0.0755750015
vt -0.399390012 0.115199998
vt -0.387199998 0.122653998
vt -0.399390012 0.122653998
vt -0.399390012 0.122653998
vt -0.387199998 0.122653998
vt -0.387199998 0.129600003
vt -0.399390012 0.122653998
vt -0.387199998 0.129600003
vt -0.399390012 0.129600003
vt -0.399390012 0.129600003
vt -0.387199998 0.129600003
vt -0.387199998 0.135564998
vt -0.399390012 0.129600003
vt -0.387199998 0.135564998
vt -0.399390012 0.135564998
vt -0.399390012 0.135564998
vt -0.387199998 0.135564998
vt -0.387199998 0.140141994
vt -0.399390012 0.135564998
vt -0.387199998 0.140141994
vt -0.399390012 0.140141994
vt 0.399390012 0.0690310001
vt 0.387199998 0.0690310001
vt 0.387199998 0.0656429976
vt 0.399390012 0.0690310001
vt 0.387199998 0.0656429976
vt 0.399390012 0.0656429976
vt 0.399390012 0.0656429976
vt 0.387199998 0.0656429976
vt 0.387199998 0.0620080009
vt 0.399390012 0.0656429976
vt 0.387199998 0.0620080009
vt 0.399390012 0.0620080009
vt 0.387199998 0.0620080009
vt 0.387199998 -0.0507720001
vt 0.399390012 0.0620080009
vt 0.399390012 0.0620080009
vt 0.387199998 -0.0507720001
vt 0.399390012 -0.0507720001
vt 0.387199998 -0.0507720001
vt 0.387199998 -0.0544070005
vt 0.399390012 -0.0507720001
vt -0.143999994 -0.0507720001
vt -0.143019006 -0.0544070005
vt -0.143019006 -0.0544070005
vt 0.399390012 -0.0507720001
vt 0.387199998 -0.0544070005
vt 0.399390012 -0.0544070005
vt 0.399390012 -0.0544070005
vt 0.387199998 -0.0544070005
vt 0.387199998 -0.0577949993
vt 0.399390012 -0.0544070005
vt 0.387199998 -0.0577949993
vt 0.399390012 -0.0577949993
vt 0.399390012 0.140141994
vt 0.387199998 0.140141994
vt 0.387199998 0.135564998
vt 0.399390012 0.140141994
vt 0.387199998 0.135564998
vt 0.399390012 0.135564998
vt 0.399390012 0.135564998
vt 0.387199998 0.135564998
vt 0.387199998 0.129600003
vt 0.399390012 0.135564998
vt 0.387199998 0.129600003
vt 0.399390012 0.129600003
vt 0.399390012 0.129600003
vt 0.387199998 0.129600003
vt 0.387199998 0.122653998
vt 0.399390012 0.129600003
vt 0.387199998 0.122653998
vt 0.399390012 0.122653998
vt 0.399390012 0.122653998
vt 0.387199998 0.122653998
vt 0.387199998 0.115199998
vt 0.399390012 0.122653998
vt 0.387199998 0.115199998
vt 0.399390012 0.115199998
f 1/1 2/2 3/3
f 3/4 2/5 4/6
f 3/7 4/8 5/9
f 5/10 4/11 6/12
f 5/13 6/14 7/15
f 7/16 6/17 8/18
f 7/19 8/20 9/21
f 9/22 8/23 10/24
f 9/25 10/26 11/27
f 11/28 10/29 12/30
f 11/31 12/32 11/33
f 11/34 12/35 13/36
f 11/37 13/38 14/39
f 14/40 13/41 13/42
f 14/43 13/44 15/45
f 15/46 13/47 16/48
f 15/49 16/50 17/51
f 17/52 16/53 18/54
f 17/55 18/56 19/57
f 19/58 18/59 20/60
f 19/61 20/62 21/63
f 21/64 20/65 22/66
f 21/67 22/68 23/69
f 23/70 22/71 24/72
f 25/73 26/74 27/75
f 27/76 26/77 26/78
f 27/79 26/80 28/81
f 28/82 26/83 29/84
f 28/85 29/86 28/87
f 28/88 29/89 30/90
f 28/91 30/92 31/93
f 31/94 30/95 32/96
f 31/97 32/98 33/99
f 33/100 32/101 34/102
f 33/103 34/104 35/105
f 35/106 34/107 36/108
f 35/109 36/110 37/111
f 37/112 36/113 38/114
f 37/115 38/116 39/117
f 39/118 38/119 40/120
f 39/121 40/122 41/123
f 41/124 40/125 42/126
f 41/127 42/128 43/129
f 43/130 42/131 44/132
f 43/133 44/134 43/135
f 43/136 44/137 45/138
f 43/139 45/140 46/141
f 46/142 45/143 47/144
f 46/145 47/146 48/147
f 48/148 47/149 49/150
f 48/151 49/152 50/153
f 50/154 49/155 51/156
f 50/157 51/158 52/159
f 52/160 51/161 53/162
f 52/163 53/164 54/165
f 54/166 53/167 55/168
f 54/169 55/170 56/171
f 56/172 55/173 57/174
f 56/175 57/176 58/177
f 58/178 57/179 57/180
f 58/181 57/182 59/183
f 59/184 57/185 60/186
f 59/187 60/188 59/189
f 59/190 60/191 61/192
f 59/193 61/194 59/195
f 59/196 61/197 62/198
f 59/199 62/200 63/201
f 63/202 62/203 64/204
f 58/205 31/206 56/207
f 56/208 31/209 33/210
f 65/211 66/212 67/213
f 67/214 66/215 68/216
f 67/217 68/218 69/219
f 69/220 68/221 68/222
f 69/223 68/224 70/225
f 70/226 68/227 71/228
f 70/229 71/230 72/231
f 72/232 71/233 73/234
f 72/235 73/236 74/237
f 74/238 73/239 75/240
f 74/241 75/242 76/243
f 76/244 75/245 77/246
f 76/247 77/248 78/249
f 78/250 77/251 79/252
f 78/253 79/254 80/255
f 80/256 79/257 81/258
f 80/259 81/260 82/261
f 82/262 81/263 83/264
f 82/265 83/266 84/267
f 84/268 83/269 83/270
f 84/271 83/272 85/273
f 85/274 83/275 86/276
f 85/277 86/278 87/279
f 87/280 86/281 88/282
f 87/283 88/284 89/285
f 89/286 88/287 90/288
f 89/289 90/290 91/291
f 91/292 90/293 92/294
f 91/295 92/296 93/297
f 93/298 92/299 94/300
f 93/301 94/302 95/303
f 95/304 94/305 96/306
f 95/307 96/308 97/309
f 97/310 96/311 98/312
f 97/313 98/314 97/315
f 97/316 98/317 99/318
f 97/319 99/320 100/321
f 100/322 99/323 99/324
f 100/325 99/326 101/327
f 101/328 99/329 99/330
f 101/331 99/332 102/333
f 102/334 99/335 103/336
f 102/337 103/338 104/339
f 98/340 96/341 71/342
f 71/343 96/344 73/345
f 68/346 66/347 28/348
f 28/349 66/350 66/351
f 28/352 66/353 27/354
f 27/355 66/356 65/357
f 27/358 65/359 25/360
f 25/361 65/362 67/363
f 25/364 67/365 26/366
f 26/367 67/368 69/369
f 26/370 69/371 29/372
f 29/373 69/374 70/375
f 29/376 70/377 30/378
f 28/379 31/380 68/381
f 68/382 31/383 71/384
f 70/385 72/386 30/387
f 30/388 72/389 32/390
f 73/391 96/392 33/393
f 33/394 96/395 56/396
f 72/397 74/398 32/399
f 32/400 74/401 74/402
f 32/403 74/404 34/405
f 34/406 74/407 76/408
f 34/409 76/410 36/411
f 36/412 76/413 78/414
f 36/415 78/416 38/417
f 38/418 78/419 80/420
f 38/421 80/422 40/423
f 40/424 80/425 82/426
f 40/427 82/428 42/429
f 42/430 82/431 84/432
f 42/433 84/434 44/435
f 73/436 33/437 75/438
f 75/439 33/440 35/441
f 75/442 35/443 77/444
f 77/445 35/446 37/447
f 77/448 37/449 79/450
f 79/451 37/452 39/453
f 79/454 39/455 81/456
f 81/457 39/458 41/459
f 81/460 41/461 83/462
f 83/463 41/464 43/465
f 84/466 85/467 44/468
f 44/469 85/470 45/471
f 43/472 46/473 83/474
f 83/475 46/476 86/477
f 56/478 96/479 54/480
f 54/481 96/482 94/483
f 54/484 94/485 52/486
f 52/487 94/488 92/489
f 52/490 92/491 50/492
f 50/493 92/494 90/495
f 50/496 90/497 48/498
f 48/499 90/500 88/501
f 48/502 88/503 46/504
f 46/505 88/506 86/507
f 85/508 87/509 45/510
f 45/511 87/512 87/513
f 45/514 87/515 47/516
f 47/517 87/518 89/519
f 47/520 89/521 49/522
f 49/523 89/524 91/525
f 49/526 91/527 51/528
f 51/529 91/530 93/531
f 51/532 93/533 53/534
f 53/535 93/536 95/537
f 53/538 95/539 55/540
f 55/541 95/542 97/543
f 55/544 97/545 57/546
f 31/547 58/548 71/549
f 71/550 58/551 98/552
f 58/553 59/554 98/555
f 98/556 59/557 99/558
f 97/559 100/560 57/561
f 57/562 100/563 60/564
f 100/565 101/566 60/567
f 60/568 101/569 101/570
f 60/571 101/572 61/573
f 61/574 101/575 102/576
f 61/577 102/578 62/579
f 62/580 102/581 104/582
f 62/583 104/584 64/585
f 64/586 104/587 103/588
f 64/589 103/590 63/591
f 63/592 103/593 99/594
f 63/595 99/596 59/597
f 105/598 106/599 107/600
f 107/601 106/602 106/603
f 107/604 106/605 108/606
f 108/607 106/608 109/609
f 108/610 109/611 108/612
f 108/613 109/614 110/615
f 108/616 110/617 108/618
f 108/619 110/620 111/621
f 108/622 111/623 112/624
f 112/625 111/626 24/627
f 112/628 24/629 113/630
f 113/631 24/632 22/633
f 113/634 22/635 114/636
f 114/637 22/638 20/639
f 114/640 20/641 115/642
f 115/643 20/644 18/645
f 115/646 18/647 116/648
f 116/649 18/650 16/651
f 116/652 16/653 117/654
f 117/655 16/656 13/657
f 117/658 13/659 118/660
f 118/661 13/662 13/663
f 118/664 13/665 119/666
f 119/667 13/668 12/669
f 119/670 12/671 120/672
f 120/673 12/674 10/675
f 120/676 10/677 121/678
f 121/679 10/680 8/681
f 121/682 8/683 122/684
f 122/685 8/686 6/687
f 122/688 6/689 123/690
f 123/691 6/692 4/693
f 123/694 4/695 124/696
f 124/697 4/698 2/699
f 124/700 2/701 125/702
f 125/703 2/704 126/705
f 125/706 126/707 127/708
f 127/709 126/710 128/711
f 127/712 128/713 127/714
f 127/715 128/716 129/717
f 127/718 129/719 127/720
f 127/721 129/722 130/723
f 127/724 130/725 127/726
f 127/727 130/728 131/729
f 127/730 131/731 132/732
f 2/733 24/734 126/735
f 126/736 24/737 111/738
f 133/739 134/740 135/741
f 135/742 134/743 136/744
f 135/745 136/746 137/747
f 137/748 136/749 136/750
f 137/751 136/752 138/753
f 138/754 136/755 136/756
f 138/757 136/758 139/759
f 139/760 136/761 140/762
f 139/763 140/764 23/765
f 23/766 140/767 141/768
f 23/769 141/770 21/771
f 21/772 141/773 142/774
f 21/775 142/776 19/777
f 19/778 142/779 143/780
f 19/781 143/782 17/783
f 17/784 143/785 144/786
f 17/787 144/788 15/789
f 15/790 144/791 145/792
f 15/793 145/794 14/795
f 14/796 145/797 146/798
f 14/799 146/800 14/801
f 14/802 146/803 147/804
f 14/805 147/806 11/807
f 11/808 147/809 148/810
f 11/811 148/812 9/813
f 9/814 148/815 149/816
f 9/817 149/818 7/819
f 7/820 149/821 150/822
f 7/823 150/824 5/825
f 5/826 150/827 151/828
f 5/829 151/830 3/831
f 3/832 151/833 152/834
f 3/835 152/836 1/837
f 1/838 152/839 153/840
f 1/841 153/842 154/843
f 154/844 153/845 155/846
f 154/847 155/848 156/849
f 156/850 155/851 157/852
f 156/853 157/854 156/855
f 156/856 157/857 158/858
f 156/859 158/860 156/861
f 156/862 158/863 159/864
f 156/865 159/866 160/867
f 1/868 154/869 23/870
f 23/871 154/872 139/873
f 136/874 134/875 108/876
f 108/877 134/878 134/879
f 108/880 134/881 107/882
f 107/883 134/884 133/885
f 107/886 133/887 105/888
f 105/889 133/890 135/891
f 105/892 135/893 106/894
f 106/895 135/896 137/897
f 106/898 137/899 109/900
f 109/901 137/902 138/903
f 109/904 138/905 110/906
f 138/907 139/908 110/909
f 110/910 139/911 111/912
f 139/913 154/914 111/915
f 111/916 154/917 126/918
f 154/919 156/920 126/921
f 126/922 156/923 128/924
f 156/925 160/926 128/927
f 128/928 160/929 160/930
f 128/931 160/932 129/933
f 129/934 160/935 159/936
f 129/937 159/938 130/939
f 130/940 159/941 158/942
f 130/943 158/944 131/945
f 131/946 158/947 157/948
f 131/949 157/950 132/951
f 132/952 157/953 155/954
f 132/955 155/956 127/957
f 155/958 153/959 127/960
f 127/961 153/962 125/963
f 1/964 23/965 2/966
f 2/967 23/968 24/969
f 108/970 112/971 136/972
f 136/973 112/974 140/975
f 112/976 113/977 140/978
f 140/979 113/980 113/981
f 140/982 113/983 141/984
f 141/985 113/986 114/987
f 141/988 114/989 142/990
f 142/991 114/992 115/993
f 142/994 115/995 143/996
f 143/997 115/998 116/999
f 143/1000 116/1001 144/1002
f 144/1003 116/1004 117/1005
f 144/1006 117/1007 145/1008
f 145/1009 117/1010 118/1011
f 145/1012 118/1013 146/1014
f 118/1015 119/1016 146/1017
f 146/1018 119/1019 147/1020
f 119/1021 120/1022 147/1023
f 147/1024 120/1025 120/1026
f 147/1027 120/1028 148/1029
f 148/1030 120/1031 121/1032
f 148/1033 121/1034 149/1035
f 149/1036 121/1037 122/1038
f 149/1039 122/1040 150/1041
f 150/1042 122/1043 123/1044
f 150/1045 123/1046 151/1047
f 151/1048 123/1049 124/1050
f 151/1051 124/1052 152/1053
f 152/1054 124/1055 125/1056
f 152/1057 125/1058 153/1059
