# Exported from USD for MuJoCo with source material subsets
v -10.7148471 -0.713221705 1.9451059
v -10.715502 -0.708244925 1.9451059
v -10.7148471 -0.713221705 2.00010591
v -10.7155046 -0.708234673 2.00010591
v -10.717425 -0.703598743 1.9451059
v -10.7174283 -0.703593707 2.00010591
v -10.7204823 -0.699613547 1.9451059
v -10.7204877 -0.699607557 2.00010591
v -10.7244685 -0.696553027 1.9451059
v -10.724477 -0.696548423 2.00010591
v -10.7291129 -0.694628393 1.9451059
v -10.729116 -0.694627305 2.00010591
v -10.7340917 -0.693972027 1.9451059
v -10.7341025 -0.693972027 2.00010591
v -10.7390782 -0.694627305 1.9451059
v -10.7390814 -0.694628393 2.00010591
v -10.7437173 -0.696548423 1.9451059
v -10.7437257 -0.696553027 2.00010591
v -10.7477064 -0.699607557 1.9451059
v -10.747712 -0.699613547 2.00010591
v -10.7507659 -0.703593707 1.9451059
v -10.7507692 -0.703598743 2.00010591
v -10.7526896 -0.708234673 1.9451059
v -10.7526922 -0.708244925 2.00010591
v -10.7533471 -0.713221705 1.9451059
v -10.7533471 -0.713221705 2.00010591
v -10.7526922 -0.718198476 1.9451059
v -10.7526896 -0.718208698 2.00010591
v -10.7507692 -0.722844651 1.9451059
v -10.7507659 -0.722849687 2.00010591
v -10.747712 -0.726829817 1.9451059
v -10.7477064 -0.72683583 2.00010591
v -10.7437257 -0.729890397 1.9451059
v -10.7437173 -0.729894979 2.00010591
v -10.7390814 -0.731814993 1.9451059
v -10.7390782 -0.731816059 2.00010591
v -10.7341025 -0.73247136 1.9451059
v -10.7340917 -0.73247136 2.00010591
v -10.729116 -0.731816059 1.9451059
v -10.7291129 -0.731814993 2.00010591
v -10.724477 -0.729894979 1.9451059
v -10.7244685 -0.729890397 2.00010591
v -10.7204877 -0.72683583 1.9451059
v -10.7204823 -0.726829817 2.00010591
v -10.7174283 -0.722849687 1.9451059
v -10.717425 -0.722844651 2.00010591
v -10.7155046 -0.718208698 1.9451059
v -10.715502 -0.718198476 2.00010591
vt 1.76509702 -0.280099988
vt 1.76509702 -0.28462401
vt 1.81509697 -0.280099988
vt -1.81509697 -0.280099988
vt -1.76509702 -0.28462401
vt -1.76509702 -0.28462401
vt 1.81509697 -0.280099988
vt 1.76509702 -0.28462401
vt 1.81509697 -0.284633011
vt 1.81509697 -0.284633011
vt 1.76509702 -0.28462401
vt 1.76509702 -0.288848013
vt 1.81509697 -0.284633011
vt 1.76509702 -0.288848013
vt 1.81509697 -0.288852006
vt 1.81509697 -0.288852006
vt 1.76509702 -0.288848013
vt 1.76509702 -0.292470992
vt 1.81509697 -0.288852006
vt 1.76509702 -0.292470992
vt 1.81509697 -0.292475998
vt -0.283969998 1.81509697
vt -0.283975005 1.76509702
vt -0.280351013 1.76509702
vt -0.283969998 1.81509697
vt -0.280351013 1.76509702
vt -0.280344009 1.81509697
vt -0.280344009 1.81509697
vt -0.280351013 1.76509702
vt -0.276129007 1.76509702
vt -0.280344009 1.81509697
vt -0.276129007 1.76509702
vt -0.276125997 1.81509697
vt -0.276125997 1.81509697
vt -0.276129007 1.76509702
vt -0.271602988 1.76509702
vt -0.276125997 1.81509697
vt -0.271602988 1.76509702
vt -0.271593004 1.81509697
vt -0.271593004 1.81509697
vt -0.271602988 1.76509702
vt -0.267069995 1.76509702
vt -0.271593004 1.81509697
vt -0.267069995 1.76509702
vt -0.267066985 1.81509697
vt -0.267066985 1.81509697
vt -0.267069995 1.76509702
vt -0.262852013 1.76509702
vt -0.267066985 1.81509697
vt -0.262852013 1.76509702
vt -0.26284501 1.81509697
vt -0.26284501 1.81509697
vt -0.262852013 1.76509702
vt -0.259225994 1.76509702
vt -0.26284501 1.81509697
vt -0.259225994 1.76509702
vt -0.259220988 1.81509697
vt -1.81509697 -0.292470992
vt -1.76509702 -0.292475998
vt -1.76509702 -0.288852006
vt -1.81509697 -0.292470992
vt -1.76509702 -0.288852006
vt -1.81509697 -0.288848013
vt -1.81509697 -0.288848013
vt -1.76509702 -0.288852006
vt -1.76509702 -0.284633011
vt -1.81509697 -0.288848013
vt -1.76509702 -0.284633011
vt -1.81509697 -0.28462401
vt -1.81509697 -0.28462401
vt -1.76509702 -0.284633011
vt -1.76509702 -0.280099988
vt -1.81509697 -0.28462401
vt -1.76509702 -0.280099988
vt -1.81509697 -0.280099988
vt -1.76509702 -0.280099988
vt -1.76509702 -0.275575012
vt -1.81509697 -0.280099988
vt -1.81509697 -0.280099988
vt -1.76509702 -0.275575012
vt -1.76509702 -0.275575012
vt -1.81509697 -0.280099988
vt -1.76509702 -0.275575012
vt -1.81509697 -0.275566012
vt -1.81509697 -0.275566012
vt -1.76509702 -0.275575012
vt -1.76509702 -0.271351993
vt -1.81509697 -0.275566012
vt -1.76509702 -0.271351993
vt -1.81509697 -0.271346986
vt -1.81509697 -0.271346986
vt -1.76509702 -0.271351993
vt -1.76509702 -0.267729014
vt -1.81509697 -0.271346986
vt -1.76509702 -0.267729014
vt -1.81509697 -0.267722994
vt 0.259225994 1.81509697
vt 0.259220988 1.76509702
vt 0.26284501 1.76509702
vt 0.259225994 1.81509697
vt 0.26284501 1.76509702
vt 0.262852013 1.81509697
vt 0.262852013 1.81509697
vt 0.26284501 1.76509702
vt 0.267066985 1.76509702
vt 0.262852013 1.81509697
vt 0.267066985 1.76509702
vt 0.267069995 1.81509697
vt 0.267069995 1.81509697
vt 0.267066985 1.76509702
vt 0.271593004 1.76509702
vt 0.267069995 1.81509697
vt 0.271593004 1.76509702
vt 0.271602988 1.81509697
vt 0.271602988 1.81509697
vt 0.271593004 1.76509702
vt 0.276125997 1.76509702
vt 0.271602988 1.81509697
vt 0.276125997 1.76509702
vt 0.276129007 1.81509697
vt 0.276129007 1.81509697
vt 0.276125997 1.76509702
vt 0.280344009 1.76509702
vt 0.276129007 1.81509697
vt 0.280344009 1.76509702
vt 0.280351013 1.81509697
vt 0.280351013 1.81509697
vt 0.280344009 1.76509702
vt 0.283969998 1.76509702
vt 0.280351013 1.81509697
vt 0.283969998 1.76509702
vt 0.283975005 1.81509697
vt 1.81509697 -0.267729014
vt 1.76509702 -0.267722994
vt 1.76509702 -0.271346986
vt 1.81509697 -0.267729014
vt 1.76509702 -0.271346986
vt 1.81509697 -0.271351993
vt 1.81509697 -0.271351993
vt 1.76509702 -0.271346986
vt 1.76509702 -0.275566012
vt 1.81509697 -0.271351993
vt 1.76509702 -0.275566012
vt 1.81509697 -0.275575012
vt 1.81509697 -0.275575012
vt 1.76509702 -0.275566012
vt 1.76509702 -0.280099988
vt 1.81509697 -0.275575012
vt 1.76509702 -0.280099988
vt 1.81509697 -0.280099988
f 1/1 2/2 3/3
f 3/4 2/5 2/6
f 3/7 2/8 4/9
f 4/10 2/11 5/12
f 4/13 5/14 6/15
f 6/16 5/17 7/18
f 6/19 7/20 8/21
f 8/22 7/23 9/24
f 8/25 9/26 10/27
f 10/28 9/29 11/30
f 10/31 11/32 12/33
f 12/34 11/35 13/36
f 12/37 13/38 14/39
f 14/40 13/41 15/42
f 14/43 15/44 16/45
f 16/46 15/47 17/48
f 16/49 17/50 18/51
f 18/52 17/53 19/54
f 18/55 19/56 20/57
f 20/58 19/59 21/60
f 20/61 21/62 22/63
f 22/64 21/65 23/66
f 22/67 23/68 24/69
f 24/70 23/71 25/72
f 24/73 25/74 26/75
f 25/76 27/77 26/78
f 26/79 27/80 27/81
f 26/82 27/83 28/84
f 28/85 27/86 29/87
f 28/88 29/89 30/90
f 30/91 29/92 31/93
f 30/94 31/95 32/96
f 32/97 31/98 33/99
f 32/100 33/101 34/102
f 34/103 33/104 35/105
f 34/106 35/107 36/108
f 36/109 35/110 37/111
f 36/112 37/113 38/114
f 38/115 37/116 39/117
f 38/118 39/119 40/120
f 40/121 39/122 41/123
f 40/124 41/125 42/126
f 42/127 41/128 43/129
f 42/130 43/131 44/132
f 44/133 43/134 45/135
f 44/136 45/137 46/138
f 46/139 45/140 47/141
f 46/142 47/143 48/144
f 48/145 47/146 1/147
f 48/148 1/149 3/150
