# Exported from USD for MuJoCo with source material subsets
v -14.9482515 2.01212447 1.55394536
v -14.9489063 2.00714749 1.55393451
v -14.9473429 2.01212447 1.49895292
v -14.9479976 2.00714749 1.49894207
v -14.950829 2.00250118 1.55390274
v -14.9499204 2.00250118 1.49891033
v -14.9538859 1.99851602 1.55385234
v -14.9529772 1.99851602 1.49885979
v -14.9578716 1.99545568 1.55378642
v -14.9569629 1.99545568 1.49879386
v -14.9625153 1.99353069 1.55370977
v -14.9616067 1.99353069 1.49871721
v -14.9674935 1.99287456 1.55362737
v -14.9665848 1.99287456 1.49863493
v -14.9724793 1.99352973 1.55354511
v -14.9715707 1.99352973 1.49855267
v -14.9771177 1.99545091 1.55346843
v -14.9762091 1.99545091 1.49847599
v -14.9811063 1.99851006 1.55340251
v -14.9801977 1.99851006 1.49840995
v -14.9841654 2.00249618 1.55335196
v -14.9832568 2.00249618 1.49835953
v -14.9860889 2.00713723 1.55332022
v -14.9851802 2.00713723 1.49832767
v -14.9867462 2.01212447 1.55330926
v -14.9858376 2.01212447 1.49831682
v -14.9860915 2.01710098 1.55332022
v -14.9851828 2.01710098 1.49832767
v -14.9841688 2.02174705 1.55335184
v -14.98326 2.02174705 1.49835941
v -14.9811119 2.02573245 1.55340239
v -14.9802032 2.02573245 1.49840983
v -14.9771262 2.02879303 1.55346831
v -14.9762176 2.02879303 1.49847575
v -14.9724824 2.03071755 1.55354496
v -14.9715738 2.03071755 1.49855253
v -14.9675043 2.03137391 1.55362725
v -14.9665956 2.03137391 1.49863481
v -14.9625184 2.0307185 1.55370965
v -14.9616098 2.0307185 1.49871709
v -14.95788 2.02879732 1.5537863
v -14.9569713 2.02879732 1.49879375
v -14.9538914 2.02573841 1.55385222
v -14.9529828 2.02573841 1.49885967
v -14.9508323 2.02175229 1.55390262
v -14.9499237 2.02175229 1.49891021
v -14.9489089 2.01711148 1.55393451
v -14.9480002 2.01711148 1.49894207
vt 1.40949595 -0.253282011
vt 1.40948606 -0.248757005
vt 1.35950303 -0.253282011
vt -1.35950303 -0.253282011
vt -1.40948606 -0.248757005
vt -1.40948606 -0.248757005
vt 1.35950303 -0.253282011
vt 1.40948606 -0.248757005
vt 1.35949302 -0.248757005
vt 1.35949302 -0.248757005
vt 1.40948606 -0.248757005
vt 1.40945697 -0.244533002
vt 1.35949302 -0.248757005
vt 1.40945697 -0.244533002
vt 1.35946405 -0.244533002
vt 1.35946405 -0.244533002
vt 1.40945697 -0.244533002
vt 1.40941095 -0.240909994
vt 1.35946405 -0.244533002
vt 1.40941095 -0.240909994
vt 1.35941803 -0.240909994
vt 0.420643002 1.35941803
vt 0.419817001 1.40941095
vt 0.416193992 1.40935099
vt 0.420643002 1.35941803
vt 0.416193992 1.40935099
vt 0.417019993 1.35935795
vt 0.417019993 1.35935795
vt 0.416193992 1.40935099
vt 0.411971986 1.40928102
vt 0.417019993 1.35935795
vt 0.411971986 1.40928102
vt 0.412797987 1.35928798
vt 0.412797987 1.35928798
vt 0.411971986 1.40928102
vt 0.40744701 1.40920699
vt 0.412797987 1.35928798
vt 0.40744701 1.40920699
vt 0.408273011 1.35921299
vt 0.408273011 1.35921299
vt 0.40744701 1.40920699
vt 0.402913988 1.409132
vt 0.408273011 1.35921299
vt 0.402913988 1.409132
vt 0.403739989 1.35913897
vt 0.403739989 1.35913897
vt 0.402913988 1.409132
vt 0.398698002 1.40906203
vt 0.403739989 1.35913897
vt 0.398698002 1.40906203
vt 0.399524003 1.35906899
vt 0.399524003 1.35906899
vt 0.398698002 1.40906203
vt 0.395072013 1.40900195
vt 0.399524003 1.35906899
vt 0.395072013 1.40900195
vt 0.395898014 1.35900903
vt -1.35900903 -0.240905002
vt -1.40900195 -0.240905002
vt -1.40895605 -0.244528994
vt -1.35900903 -0.240905002
vt -1.40895605 -0.244528994
vt -1.35896301 -0.244528994
vt -1.35896301 -0.244528994
vt -1.40895605 -0.244528994
vt -1.40892696 -0.248748004
vt -1.35896301 -0.244528994
vt -1.40892696 -0.248748004
vt -1.35893404 -0.248748004
vt -1.35893404 -0.248748004
vt -1.40892696 -0.248748004
vt -1.40891695 -0.253282011
vt -1.35893404 -0.248748004
vt -1.40891695 -0.253282011
vt -1.35892403 -0.253282011
vt -1.40891695 -0.253282011
vt -1.40892696 -0.257806003
vt -1.35892403 -0.253282011
vt -1.35892403 -0.253282011
vt -1.40892696 -0.257806003
vt -1.40892696 -0.257806003
vt -1.35892403 -0.253282011
vt -1.40892696 -0.257806003
vt -1.35893404 -0.257806003
vt -1.35893404 -0.257806003
vt -1.40892696 -0.257806003
vt -1.40895605 -0.262030005
vt -1.35893404 -0.257806003
vt -1.40895605 -0.262030005
vt -1.35896301 -0.262030005
vt -1.35896301 -0.262030005
vt -1.40895605 -0.262030005
vt -1.40900195 -0.265653014
vt -1.35896301 -0.262030005
vt -1.40900195 -0.265653014
vt -1.35900903 -0.265653014
vt -0.395893008 1.35900903
vt -0.395067006 1.40900195
vt -0.398689985 1.40906203
vt -0.395893008 1.35900903
vt -0.398689985 1.40906203
vt -0.399515986 1.35906899
vt -0.399515986 1.35906899
vt -0.398689985 1.40906203
vt -0.402911007 1.409132
vt -0.399515986 1.35906899
vt -0.402911007 1.409132
vt -0.403737992 1.35913801
vt -0.403737992 1.35913801
vt -0.402911007 1.409132
vt -0.407436997 1.40920699
vt -0.403737992 1.35913801
vt -0.407436997 1.40920699
vt -0.408262998 1.35921299
vt -0.408262998 1.35921299
vt -0.407436997 1.40920699
vt -0.41196999 1.40928102
vt -0.408262998 1.35921299
vt -0.41196999 1.40928102
vt -0.412795991 1.35928798
vt -0.412795991 1.35928798
vt -0.41196999 1.40928102
vt -0.416186005 1.40935099
vt -0.412795991 1.35928798
vt -0.416186005 1.40935099
vt -0.417012006 1.35935795
vt -0.417012006 1.35935795
vt -0.416186005 1.40935099
vt -0.419811994 1.40941095
vt -0.417012006 1.35935795
vt -0.419811994 1.40941095
vt -0.420637995 1.35941803
vt 1.35941803 -0.265657991
vt 1.40941095 -0.265657991
vt 1.40945697 -0.262033999
vt 1.35941803 -0.265657991
vt 1.40945697 -0.262033999
vt 1.35946405 -0.262033999
vt 1.35946405 -0.262033999
vt 1.40945697 -0.262033999
vt 1.40948606 -0.257815003
vt 1.35946405 -0.262033999
vt 1.40948606 -0.257815003
vt 1.35949302 -0.257815003
vt 1.35949302 -0.257815003
vt 1.40948606 -0.257815003
vt 1.40949595 -0.253282011
vt 1.35949302 -0.257815003
vt 1.40949595 -0.253282011
vt 1.35950303 -0.253282011
f 1/1 2/2 3/3
f 3/4 2/5 2/6
f 3/7 2/8 4/9
f 4/10 2/11 5/12
f 4/13 5/14 6/15
f 6/16 5/17 7/18
f 6/19 7/20 8/21
f 8/22 7/23 9/24
f 8/25 9/26 10/27
f 10/28 9/29 11/30
f 10/31 11/32 12/33
f 12/34 11/35 13/36
f 12/37 13/38 14/39
f 14/40 13/41 15/42
f 14/43 15/44 16/45
f 16/46 15/47 17/48
f 16/49 17/50 18/51
f 18/52 17/53 19/54
f 18/55 19/56 20/57
f 20/58 19/59 21/60
f 20/61 21/62 22/63
f 22/64 21/65 23/66
f 22/67 23/68 24/69
f 24/70 23/71 25/72
f 24/73 25/74 26/75
f 25/76 27/77 26/78
f 26/79 27/80 27/81
f 26/82 27/83 28/84
f 28/85 27/86 29/87
f 28/88 29/89 30/90
f 30/91 29/92 31/93
f 30/94 31/95 32/96
f 32/97 31/98 33/99
f 32/100 33/101 34/102
f 34/103 33/104 35/105
f 34/106 35/107 36/108
f 36/109 35/110 37/111
f 36/112 37/113 38/114
f 38/115 37/116 39/117
f 38/118 39/119 40/120
f 40/121 39/122 41/123
f 40/124 41/125 42/126
f 42/127 41/128 43/129
f 42/130 43/131 44/132
f 44/133 43/134 45/135
f 44/136 45/137 46/138
f 46/139 45/140 47/141
f 46/142 47/143 48/144
f 48/145 47/146 1/147
f 48/148 1/149 3/150
