# Exported from USD for MuJoCo with source material subsets
v -14.9166643 0.360306913 2.45366156
v -14.9136037 0.356320674 2.45366156
v -14.9185888 0.364951307 2.45366156
v -14.9096184 0.353263433 2.45366156
v -14.9192452 0.369930083 2.45366156
v -14.9049723 0.351340348 2.45366156
v -14.9185899 0.374916608 2.45366156
v -14.8999955 0.350685651 2.45366156
v -14.9166688 0.379555757 2.45366156
v -14.8950085 0.351342971 2.45366156
v -14.9136096 0.383544857 2.45366156
v -14.8903676 0.353266651 2.45366156
v -14.9096235 0.386604363 2.45366156
v -14.8863814 0.356326158 2.45366156
v -14.9049824 0.388528044 2.45366156
v -14.8833222 0.360315258 2.45366156
v -14.8999954 0.389185602 2.45366156
v -14.8814012 0.364954407 2.45366156
v -14.8950187 0.388530666 2.45366156
v -14.8807458 0.369940931 2.45366156
v -14.8903725 0.386607701 2.45366156
v -14.8814021 0.374919707 2.45366156
v -14.8863873 0.383550341 2.45366156
v -14.8833268 0.379564101 2.45366156
v -14.8999954 0.389185602 2.39866149
v -14.9049824 0.388528044 2.39866149
v -14.9096235 0.386604363 2.39866149
v -14.9136096 0.383544857 2.39866149
v -14.9166688 0.379555757 2.39866149
v -14.9185899 0.374916608 2.39866149
v -14.9192452 0.369930083 2.39866149
v -14.9185888 0.364951307 2.39866149
v -14.9166643 0.360306913 2.39866149
v -14.9136037 0.356320674 2.39866149
v -14.9096184 0.353263433 2.39866149
v -14.9049723 0.351340348 2.39866149
v -14.8999955 0.350685651 2.39866149
v -14.8950187 0.388530666 2.39866149
v -14.8903725 0.386607701 2.39866149
v -14.8863873 0.383550341 2.39866149
v -14.8833268 0.379564101 2.39866149
v -14.8814021 0.374919707 2.39866149
v -14.8807458 0.369940931 2.39866149
v -14.8814012 0.364954407 2.39866149
v -14.8833222 0.360315258 2.39866149
v -14.8863814 0.356326158 2.39866149
v -14.8903676 0.353266651 2.39866149
v -14.8950085 0.351342971 2.39866149
vt -0.391445011 0.633994997
vt -0.387820989 0.636777997
vt -0.395666987 0.632246017
vt -0.395666987 0.632246017
vt -0.387820989 0.636777997
vt -0.385042012 0.640401006
vt -0.395666987 0.632246017
vt -0.385042012 0.640401006
vt -0.400193006 0.631649017
vt -0.400193006 0.631649017
vt -0.385042012 0.640401006
vt -0.383293003 0.644625008
vt -0.400193006 0.631649017
vt -0.383293003 0.644625008
vt -0.404725999 0.632245004
vt -0.404725999 0.632245004
vt -0.383293003 0.644625008
vt -0.382697999 0.649149001
vt -0.404725999 0.632245004
vt -0.382697999 0.649149001
vt -0.408944011 0.633991003
vt -0.408944011 0.633991003
vt -0.382697999 0.649149001
vt -0.383296013 0.653681993
vt -0.408944011 0.633991003
vt -0.383296013 0.653681993
vt -0.41257 0.636771977
vt -0.41257 0.636771977
vt -0.383296013 0.653681993
vt -0.385044992 0.657902002
vt -0.41257 0.636771977
vt -0.385044992 0.657902002
vt -0.415351987 0.640395999
vt -0.415351987 0.640395999
vt -0.385044992 0.657902002
vt -0.387825996 0.661525011
vt -0.415351987 0.640395999
vt -0.387825996 0.661525011
vt -0.417100012 0.644614995
vt -0.417100012 0.644614995
vt -0.387825996 0.661525011
vt -0.391452998 0.664305985
vt -0.417100012 0.644614995
vt -0.391452998 0.664305985
vt -0.417697996 0.649149001
vt -0.417697996 0.649149001
vt -0.391452998 0.664305985
vt -0.395669997 0.666052997
vt -0.417697996 0.649149001
vt -0.395669997 0.666052997
vt -0.417102993 0.653672993
vt -0.417102993 0.653672993
vt -0.395669997 0.666052997
vt -0.40020299 0.666648984
vt -0.417102993 0.653672993
vt -0.40020299 0.666648984
vt -0.415354997 0.657896996
vt -0.415354997 0.657896996
vt -0.40020299 0.666648984
vt -0.404729009 0.666051984
vt -0.415354997 0.657896996
vt -0.404729009 0.666051984
vt -0.412575006 0.661520004
vt -0.412575006 0.661520004
vt -0.404729009 0.666051984
vt -0.408951014 0.664301991
vt 2.1774199 0.649149001
vt 2.1774199 0.644614995
vt 2.22742009 0.649149001
vt -2.22742009 0.649149001
vt -2.1774199 0.644614995
vt -2.1774199 0.644614995
vt 2.22742009 0.649149001
vt 2.1774199 0.644614995
vt 2.22742009 0.644614995
vt 2.22742009 0.644614995
vt 2.1774199 0.644614995
vt 2.1774199 0.640395999
vt 2.22742009 0.644614995
vt 2.1774199 0.640395999
vt 2.22742009 0.640395999
vt 2.22742009 0.640395999
vt 2.1774199 0.640395999
vt 2.1774199 0.636771977
vt 2.22742009 0.640395999
vt 2.1774199 0.636771977
vt 2.22742009 0.636771977
vt -0.41257 2.22742009
vt -0.41257 2.1774199
vt -0.408944011 2.1774199
vt -0.41257 2.22742009
vt -0.408944011 2.1774199
vt -0.408944011 2.22742009
vt -0.408944011 2.22742009
vt -0.408944011 2.1774199
vt -0.404725999 2.1774199
vt -0.408944011 2.22742009
vt -0.404725999 2.1774199
vt -0.404725999 2.22742009
vt -0.404725999 2.22742009
vt -0.404725999 2.1774199
vt -0.400193006 2.1774199
vt -0.404725999 2.22742009
vt -0.400193006 2.1774199
vt -0.400193006 2.22742009
vt -0.400193006 2.22742009
vt -0.400193006 2.1774199
vt -0.395666987 2.1774199
vt -0.400193006 2.22742009
vt -0.395666987 2.1774199
vt -0.395666987 2.22742009
vt -0.395666987 2.22742009
vt -0.395666987 2.1774199
vt -0.391445011 2.1774199
vt -0.395666987 2.22742009
vt -0.391445011 2.1774199
vt -0.391445011 2.22742009
vt -0.391445011 2.22742009
vt -0.391445011 2.1774199
vt -0.387820989 2.1774199
vt -0.391445011 2.22742009
vt -0.387820989 2.1774199
vt -0.387820989 2.22742009
vt -2.22742009 0.636777997
vt -2.1774199 0.636777997
vt -2.1774199 0.640401006
vt -2.22742009 0.636777997
vt -2.1774199 0.640401006
vt -2.22742009 0.640401006
vt -2.22742009 0.640401006
vt -2.1774199 0.640401006
vt -2.1774199 0.644625008
vt -2.22742009 0.640401006
vt -2.1774199 0.644625008
vt -2.22742009 0.644625008
vt -2.22742009 0.644625008
vt -2.1774199 0.644625008
vt -2.1774199 0.649149001
vt -2.22742009 0.644625008
vt -2.1774199 0.649149001
vt -2.22742009 0.649149001
vt 2.22742009 0.649149001
vt 2.22742009 0.653672993
vt 2.1774199 0.649149001
vt -2.1774199 0.649149001
vt -2.22742009 0.653672993
vt -2.22742009 0.653672993
vt 2.1774199 0.649149001
vt 2.22742009 0.653672993
vt 2.1774199 0.653672993
vt 2.1774199 0.653672993
vt 2.22742009 0.653672993
vt 2.22742009 0.657896996
vt 2.1774199 0.653672993
vt 2.22742009 0.657896996
vt 2.1774199 0.657896996
vt 2.1774199 0.657896996
vt 2.22742009 0.657896996
vt 2.22742009 0.661520004
vt 2.1774199 0.657896996
vt 2.22742009 0.661520004
vt 2.1774199 0.661520004
vt 0.412575006 2.1774199
vt 0.412575006 2.22742009
vt 0.408951014 2.22742009
vt 0.412575006 2.1774199
vt 0.408951014 2.22742009
vt 0.408951014 2.1774199
vt 0.408951014 2.1774199
vt 0.408951014 2.22742009
vt 0.404729009 2.22742009
vt 0.408951014 2.1774199
vt 0.404729009 2.22742009
vt 0.404729009 2.1774199
vt 0.404729009 2.1774199
vt 0.404729009 2.22742009
vt 0.40020299 2.22742009
vt 0.404729009 2.1774199
vt 0.40020299 2.22742009
vt 0.40020299 2.1774199
vt 0.40020299 2.1774199
vt 0.40020299 2.22742009
vt 0.395669997 2.22742009
vt 0.40020299 2.1774199
vt 0.395669997 2.22742009
vt 0.395669997 2.1774199
vt 0.395669997 2.1774199
vt 0.395669997 2.22742009
vt 0.391452998 2.22742009
vt 0.395669997 2.1774199
vt 0.391452998 2.22742009
vt 0.391452998 2.1774199
vt 0.391452998 2.1774199
vt 0.391452998 2.22742009
vt 0.387825996 2.22742009
vt 0.391452998 2.1774199
vt 0.387825996 2.22742009
vt 0.387825996 2.1774199
vt -2.1774199 0.661525011
vt -2.22742009 0.661525011
vt -2.22742009 0.657902002
vt -2.1774199 0.661525011
vt -2.22742009 0.657902002
vt -2.1774199 0.657902002
vt -2.1774199 0.657902002
vt -2.22742009 0.657902002
vt -2.22742009 0.653681993
vt -2.1774199 0.657902002
vt -2.22742009 0.653681993
vt -2.1774199 0.653681993
vt -2.1774199 0.653681993
vt -2.22742009 0.653681993
vt -2.22742009 0.649149001
vt -2.1774199 0.653681993
vt -2.22742009 0.649149001
vt -2.1774199 0.649149001
f 1/1 2/2 3/3
f 3/4 2/5 4/6
f 3/7 4/8 5/9
f 5/10 4/11 6/12
f 5/13 6/14 7/15
f 7/16 6/17 8/18
f 7/19 8/20 9/21
f 9/22 8/23 10/24
f 9/25 10/26 11/27
f 11/28 10/29 12/30
f 11/31 12/32 13/33
f 13/34 12/35 14/36
f 13/37 14/38 15/39
f 15/40 14/41 16/42
f 15/43 16/44 17/45
f 17/46 16/47 18/48
f 17/49 18/50 19/51
f 19/52 18/53 20/54
f 19/55 20/56 21/57
f 21/58 20/59 22/60
f 21/61 22/62 23/63
f 23/64 22/65 24/66
f 25/67 26/68 17/69
f 17/70 26/71 26/72
f 17/73 26/74 15/75
f 15/76 26/77 27/78
f 15/79 27/80 13/81
f 13/82 27/83 28/84
f 13/85 28/86 11/87
f 11/88 28/89 29/90
f 11/91 29/92 9/93
f 9/94 29/95 30/96
f 9/97 30/98 7/99
f 7/100 30/101 31/102
f 7/103 31/104 5/105
f 5/106 31/107 32/108
f 5/109 32/110 3/111
f 3/112 32/113 33/114
f 3/115 33/116 1/117
f 1/118 33/119 34/120
f 1/121 34/122 2/123
f 2/124 34/125 35/126
f 2/127 35/128 4/129
f 4/130 35/131 36/132
f 4/133 36/134 6/135
f 6/136 36/137 37/138
f 6/139 37/140 8/141
f 17/142 19/143 25/144
f 25/145 19/146 19/147
f 25/148 19/149 38/150
f 38/151 19/152 21/153
f 38/154 21/155 39/156
f 39/157 21/158 23/159
f 39/160 23/161 40/162
f 40/163 23/164 24/165
f 40/166 24/167 41/168
f 41/169 24/170 22/171
f 41/172 22/173 42/174
f 42/175 22/176 20/177
f 42/178 20/179 43/180
f 43/181 20/182 18/183
f 43/184 18/185 44/186
f 44/187 18/188 16/189
f 44/190 16/191 45/192
f 45/193 16/194 14/195
f 45/196 14/197 46/198
f 46/199 14/200 12/201
f 46/202 12/203 47/204
f 47/205 12/206 10/207
f 47/208 10/209 48/210
f 48/211 10/212 8/213
f 48/214 8/215 37/216
