# Exported from USD for MuJoCo with source material subsets
v -10.1441566 -5.65778013 0.859481985
v -10.1441566 -5.65748402 1.02448186
v -11.0241569 -5.65778013 0.859481865
v -11.0241569 -5.65748402 1.0244816
v -11.4104912 -4.47071381 0.399477774
v -11.4235865 -4.47071381 0.399477774
v -11.4104914 -5.06471344 0.400545174
v -11.4235866 -5.06471344 0.400545174
v -11.4104912 -4.47074171 0.383889371
v -11.4104914 -5.0647411 0.384956831
v -9.79787598 -5.05670544 0.39690339
v -9.78478274 -5.05689951 0.396769935
v -9.78907881 -4.46277185 0.395488018
v -9.77598569 -4.46296616 0.395354504
v -9.79803548 -5.05674024 0.381315881
v -9.78923831 -4.46280666 0.379900569
v -11.0241564 -3.8757052 1.0212797
v -10.1441561 -3.8757052 1.02127996
v -11.0241564 -3.87600156 0.856279844
v -10.1441561 -3.8760018 0.856280083
vt 0.40227899 0.862487018
vt 0.40227899 1.01140404
vt -0.397720993 0.862487018
vt -0.397720993 0.862487018
vt 0.40227899 1.01140404
vt -0.397720993 1.01140404
vt -0.748933971 0.208425999
vt -0.760838985 0.208425999
vt -0.748933971 -0.327677995
vt -0.748933971 -0.327677995
vt -0.760838985 0.208425999
vt -0.760838985 -0.327677995
vt 0.210124999 0.564668
vt 0.208425999 0.57873702
vt -0.325978994 0.499915987
vt -0.325978994 0.499915987
vt 0.208425999 0.57873702
vt -0.327677995 0.513984978
vt 0.717079997 -0.320048988
vt 0.728981972 -0.320208997
vt 0.725076973 0.216033995
vt 0.725076973 0.216033995
vt 0.728981972 -0.320208997
vt 0.736980021 0.215873003
vt 0.318356007 0.497516006
vt 0.320048988 0.511584997
vt -0.217727005 0.561946988
vt -0.217727005 0.561946988
vt 0.320048988 0.511584997
vt -0.216033995 0.576016009
vt 0.397720993 1.20563698
vt -0.40227899 1.20563698
vt 0.397720993 1.05671895
vt 0.397720993 1.05671895
vt -0.40227899 1.20563698
vt -0.40227899 1.05671895
f 1/1 2/2 3/3
f 3/4 2/5 4/6
f 5/7 6/8 7/9
f 7/10 6/11 8/12
f 9/13 5/14 10/15
f 10/16 5/17 7/18
f 11/19 12/20 13/21
f 13/22 12/23 14/24
f 15/25 11/26 16/27
f 16/28 11/29 13/30
f 17/31 18/32 19/33
f 19/34 18/35 20/36
