# Exported from USD for MuJoCo with source material subsets
v -11.4633572 -2.2844884 0.535692269
v -9.86315212 -2.28448888 0.535692627
v -11.4633572 -2.28524836 0.112799758
v -9.863152 -2.28524896 0.112800116
v -9.86315266 -3.93228765 0.538653726
v -11.4633578 -3.93228718 0.538653368
v -9.8631526 -3.93304749 0.115761274
v -11.4633577 -3.93304678 0.115760917
vt 0.725085974 0.759967983
vt -0.729645014 0.759967983
vt 0.725085974 0.378293991
vt 0.725085974 0.378293991
vt -0.729645014 0.759967983
vt -0.729645014 0.378293991
vt 0.729645014 0.580340981
vt -0.725085974 0.580340981
vt 0.729645014 0.198667005
vt 0.729645014 0.198667005
vt -0.725085974 0.580340981
vt -0.725085974 0.198667005
f 1/1 2/2 3/3
f 3/4 2/5 4/6
f 5/7 6/8 7/9
f 7/10 6/11 8/12
