# Exported from USD for MuJoCo with source material subsets
v 6.75283613 -7.1507501 0.980000436
v 6.75283619 -6.99475044 0.980000436
v 5.55283638 -7.1507501 0.980000049
v 5.55283644 -6.99475044 0.980000049
v 5.55283698 -5.16825098 0.980000049
v 5.5528371 -5.01225036 0.980000049
v 5.5528371 -5.16825098 0.930000126
v 5.5528371 -5.01225036 0.930000126
v 6.75283679 -5.16825098 0.930000514
v 6.75283679 -5.16825098 0.980000436
v 6.75283691 -5.01225132 0.930000514
v 5.55283769 -3.0947513 0.980000049
v 5.55283758 -3.2507512 0.980000049
v 6.75283744 -3.09475201 0.980000436
v 6.75283738 -3.25075167 0.980000436
v 5.55283775 -3.0947513 0.930000126
v 6.7528375 -3.09475201 0.930000514
v 5.55283769 -3.2507512 0.930000126
v 6.75283744 -3.25075167 0.930000514
v 6.75283798 -1.36575258 0.980000436
v 6.75283804 -1.20975259 0.980000436
v 5.55283817 -1.36575219 0.980000049
v 5.55283829 -1.20975223 0.980000049
v 6.75283804 -1.36575258 0.930000514
v 6.7528381 -1.20975259 0.930000514
v 5.55283835 -1.20975223 0.930000126
v 5.55283829 -1.36575219 0.930000126
v 6.75283679 -5.01225132 0.980000436
v 6.75283631 -6.99475044 0.930000514
v 6.75283619 -7.1507501 0.930000514
v 5.5528365 -6.99475044 0.930000126
v 5.55283644 -7.1507501 0.930000126
vt -0.600000024 9.54529953
vt -0.600000024 9.30530071
vt 0.600000024 9.54529953
vt 0.600000024 9.54529953
vt -0.600000024 9.30530071
vt 0.600000024 9.30530071
vt -0.980000019 6.49530077
vt -0.980000019 6.255301
vt -0.930000007 6.49530077
vt -0.930000007 6.49530077
vt -0.980000019 6.255301
vt -0.930000007 6.255301
vt -0.600000024 0.930000007
vt 0.600000024 0.930000007
vt -0.600000024 0.980000019
vt -0.600000024 0.980000019
vt 0.600000024 0.930000007
vt 0.600000024 0.980000019
vt -0.600000024 6.49530077
vt -0.600000024 6.255301
vt 0.600000024 6.49530077
vt 0.600000024 6.49530077
vt -0.600000024 6.255301
vt 0.600000024 6.255301
vt 0.600000024 3.30530095
vt 0.600000024 3.54530001
vt -0.600000024 3.30530095
vt -0.600000024 3.30530095
vt 0.600000024 3.54530001
vt -0.600000024 3.54530001
vt 0.600000024 0.980000019
vt -0.600000024 0.980000019
vt 0.600000024 0.930000007
vt 0.600000024 0.930000007
vt -0.600000024 0.980000019
vt -0.600000024 0.930000007
vt -0.930000007 3.30530095
vt -0.930000007 3.54530001
vt -0.980000019 3.30530095
vt -0.980000019 3.30530095
vt -0.930000007 3.54530001
vt -0.980000019 3.54530001
vt -0.600000024 3.54530001
vt -0.600000024 3.30530095
vt 0.600000024 3.54530001
vt 0.600000024 3.54530001
vt -0.600000024 3.30530095
vt 0.600000024 3.30530095
vt -0.600000024 0.930000007
vt 0.600000024 0.930000007
vt -0.600000024 0.980000019
vt -0.600000024 0.980000019
vt 0.600000024 0.930000007
vt 0.600000024 0.980000019
vt 0.980000019 3.30530095
vt 0.980000019 3.54530001
vt 0.930000007 3.30530095
vt 0.930000007 3.30530095
vt 0.980000019 3.54530001
vt 0.930000007 3.54530001
vt -0.600000024 0.645300984
vt -0.600000024 0.405301005
vt 0.600000024 0.645300984
vt 0.600000024 0.645300984
vt -0.600000024 0.405301005
vt 0.600000024 0.405301005
vt 0.930000007 0.645300984
vt 0.930000007 0.405301005
vt 0.980000019 0.645300984
vt 0.980000019 0.645300984
vt 0.930000007 0.405301005
vt 0.980000019 0.405301005
vt 0.600000024 0.405301005
vt 0.600000024 0.645300984
vt -0.600000024 0.405301005
vt -0.600000024 0.405301005
vt 0.600000024 0.645300984
vt -0.600000024 0.645300984
vt -0.600000024 0.930000007
vt 0.600000024 0.930000007
vt -0.600000024 0.980000019
vt -0.600000024 0.980000019
vt 0.600000024 0.930000007
vt 0.600000024 0.980000019
vt -0.600000024 0.930000007
vt 0.600000024 0.930000007
vt -0.600000024 0.980000019
vt -0.600000024 0.980000019
vt 0.600000024 0.930000007
vt 0.600000024 0.980000019
vt -0.930000007 0.405301005
vt -0.930000007 0.645300984
vt -0.980000019 0.405301005
vt -0.980000019 0.405301005
vt -0.930000007 0.645300984
vt -0.980000019 0.645300984
vt 0.600000024 6.255301
vt 0.600000024 6.49530077
vt -0.600000024 6.255301
vt -0.600000024 6.255301
vt 0.600000024 6.49530077
vt -0.600000024 6.49530077
vt 0.600000024 0.980000019
vt -0.600000024 0.980000019
vt 0.600000024 0.930000007
vt 0.600000024 0.930000007
vt -0.600000024 0.980000019
vt -0.600000024 0.930000007
vt 0.930000007 6.49530077
vt 0.930000007 6.255301
vt 0.980000019 6.49530077
vt 0.980000019 6.49530077
vt 0.930000007 6.255301
vt 0.980000019 6.255301
vt 0.600000024 9.30530071
vt 0.600000024 9.54529953
vt -0.600000024 9.30530071
vt -0.600000024 9.30530071
vt 0.600000024 9.54529953
vt -0.600000024 9.54529953
vt 0.600000024 0.980000019
vt -0.600000024 0.980000019
vt 0.600000024 0.930000007
vt 0.600000024 0.930000007
vt -0.600000024 0.980000019
vt -0.600000024 0.930000007
vt -0.930000007 9.30530071
vt -0.930000007 9.54529953
vt -0.980000019 9.30530071
vt -0.980000019 9.30530071
vt -0.930000007 9.54529953
vt -0.980000019 9.54529953
vt -0.600000024 0.930000007
vt 0.600000024 0.930000007
vt -0.600000024 0.980000019
vt -0.600000024 0.980000019
vt 0.600000024 0.930000007
vt 0.600000024 0.980000019
vt 0.980000019 9.30530071
vt 0.980000019 9.54529953
vt 0.930000007 9.30530071
vt 0.930000007 9.30530071
vt 0.980000019 9.54529953
vt 0.930000007 9.54529953
f 1/1 2/2 3/3
f 3/4 2/5 4/6
f 5/7 6/8 7/9
f 7/10 6/11 8/12
f 7/13 9/14 5/15
f 5/16 9/17 10/18
f 7/19 8/20 9/21
f 9/22 8/23 11/24
f 12/25 13/26 14/27
f 14/28 13/29 15/30
f 12/31 14/32 16/33
f 16/34 14/35 17/36
f 16/37 18/38 12/39
f 12/40 18/41 13/42
f 18/43 16/44 19/45
f 19/46 16/47 17/48
f 18/49 19/50 13/51
f 13/52 19/53 15/54
f 14/55 15/56 17/57
f 17/58 15/59 19/60
f 20/61 21/62 22/63
f 22/64 21/65 23/66
f 24/67 25/68 20/69
f 20/70 25/71 21/72
f 25/73 24/74 26/75
f 26/76 24/77 27/78
f 25/79 26/80 21/81
f 21/82 26/83 23/84
f 27/85 24/86 22/87
f 22/88 24/89 20/90
f 26/91 27/92 23/93
f 23/94 27/95 22/96
f 6/97 5/98 28/99
f 28/100 5/101 10/102
f 6/103 28/104 8/105
f 8/106 28/107 11/108
f 9/109 11/110 10/111
f 10/112 11/113 28/114
f 29/115 30/116 31/117
f 31/118 30/119 32/120
f 4/121 2/122 31/123
f 31/124 2/125 29/126
f 31/127 32/128 4/129
f 4/130 32/131 3/132
f 32/133 30/134 3/135
f 3/136 30/137 1/138
f 2/139 1/140 29/141
f 29/142 1/143 30/144
