# Exported from USD for MuJoCo with source material subsets
v -16.1680856 -4.09868557 0.535693699
v -14.5678804 -4.09868604 0.535694117
v -16.1680855 -4.09944541 0.112801308
v -14.5678803 -4.09944588 0.112801546
v -14.5678809 -5.74648458 0.538655216
v -16.1680861 -5.74648458 0.538654799
v -14.5678809 -5.74724466 0.115762705
v -16.168086 -5.74724418 0.115762347
vt 0.725085974 0.759967983
vt -0.729645014 0.759967983
vt 0.725085974 0.378293991
vt 0.725085974 0.378293991
vt -0.729645014 0.759967983
vt -0.729645014 0.378293991
vt 0.729645014 0.580340981
vt -0.725085974 0.580340981
vt 0.729645014 0.198667005
vt 0.729645014 0.198667005
vt -0.725085974 0.580340981
vt -0.725085974 0.198667005
f 1/1 2/2 3/3
f 3/4 2/5 4/6
f 5/7 6/8 7/9
f 7/10 6/11 8/12
