# Exported from USD for MuJoCo with source material subsets
v -11.242191 3.86626581 1.43191461
v -11.2421917 2.76626615 1.4319152
v -11.1861774 3.86626581 1.45478801
v -11.1829122 2.76626615 1.45591422
v -11.1297742 3.86626581 1.47525992
v -11.1235082 2.76626615 1.47723966
v -11.0729812 3.86626581 1.49333012
v -11.0639784 2.76626615 1.49588897
v -11.0157883 3.86626581 1.50899711
v -11.0043136 2.76626591 1.51179569
v -10.9576729 3.86626581 1.52216204
v -10.9445013 2.76626591 1.52487027
v -10.8995328 3.86626581 1.53299406
v -10.8845893 2.76626591 1.53545427
v -10.8413679 3.86626581 1.5414932
v -10.8245774 2.76626591 1.54354777
v -10.7831711 3.86626581 1.5476481
v -10.7644213 2.76626591 1.54883208
v -10.7244521 3.86626581 1.55069354
v -10.7041444 2.76626591 1.551476
v -10.6660467 3.86626581 1.55193424
v -10.6438332 2.76626591 1.55209782
v -10.6079549 3.86626581 1.55137064
v -10.5834875 2.76626591 1.55069756
v -10.5501752 3.86626581 1.54899161
v -10.5230119 2.76626591 1.54659062
v -10.4925599 3.86626581 1.54370975
v -10.4625178 2.76626567 1.54057559
v -10.435359 3.86626581 1.53736504
v -10.4020888 2.76626567 1.5332514
v -10.3785724 3.86626581 1.52995744
v -10.341725 2.76626567 1.52461785
v -10.3221999 3.86626581 1.52148687
v -10.2814263 2.76626567 1.5146751
v -10.2662418 3.86626581 1.51195365
v -10.2211927 2.76626567 1.50342327
v -10.2106979 3.86626581 1.50135734
v -10.1610241 2.76626567 1.4908621
v -10.1555683 3.86626581 1.48969829
v -10.1009208 2.76626567 1.47699162
v -10.1009204 3.86626581 1.47699162
v -9.85017333 3.86626534 1.15664982
v -9.85147933 3.86626534 1.1859196
v -9.85017375 2.76626567 1.15664982
v -9.85148016 2.76626567 1.18592424
v -9.8553423 3.86626534 1.21480827
v -9.85534427 2.76626567 1.21481731
v -9.86177198 3.86626534 1.2433549
v -9.86177603 2.76626567 1.24336809
v -9.87067661 3.86626534 1.27113957
v -9.87068347 2.76626567 1.27115678
v -9.8820186 3.86626534 1.29807719
v -9.88202885 2.76626567 1.2980977
v -9.89569393 3.86626534 1.32388225
v -9.89570818 2.76626567 1.32390593
v -9.91158543 3.86626534 1.34837651
v -9.91160438 2.76626567 1.34840251
v -9.92960904 3.86626534 1.37138774
v -9.92963335 2.76626567 1.37141556
v -9.9495475 3.86626534 1.39268132
v -9.94957713 2.76626567 1.39270976
v -9.97135953 3.86626534 1.41217216
v -9.97139529 2.76626567 1.41220097
v -9.99471775 3.86626581 1.42960734
v -9.99475947 2.76626567 1.42963541
v -10.0196379 3.86626581 1.44496147
v -10.0196861 2.76626567 1.44498796
v -10.0456844 3.86626581 1.45800115
v -10.0457386 2.76626567 1.4580252
v -10.0727561 3.86626581 1.46867228
v -10.0728169 2.76626567 1.46869292
vt -0.725000024 -0.367579997
vt 0.275000006 -0.367579997
vt -0.725000024 -0.316659003
vt -0.725000024 -0.316659003
vt 0.275000006 -0.367579997
vt 0.275000006 -0.313690007
vt -0.725000024 -0.316659003
vt 0.275000006 -0.313690007
vt -0.725000024 -0.265383005
vt -0.725000024 -0.265383005
vt 0.275000006 -0.313690007
vt 0.275000006 -0.259685993
vt -0.725000024 -0.265383005
vt 0.275000006 -0.259685993
vt -0.725000024 -0.213753
vt -0.725000024 -0.213753
vt 0.275000006 -0.259685993
vt 0.275000006 -0.205568001
vt -0.725000024 -0.213753
vt 0.275000006 -0.205568001
vt -0.725000024 -0.161759004
vt -0.725000024 -0.161759004
vt 0.275000006 -0.205568001
vt 0.275000006 -0.151326999
vt -0.725000024 -0.161759004
vt 0.275000006 -0.151326999
vt -0.725000024 -0.108926997
vt -0.725000024 -0.108926997
vt 0.275000006 -0.151326999
vt 0.275000006 -0.0969529971
vt -0.725000024 -0.108926997
vt 0.275000006 -0.0969529971
vt -0.725000024 -0.0560729988
vt -0.725000024 -0.0560729988
vt 0.275000006 -0.0969529971
vt 0.275000006 -0.0424869992
vt -0.725000024 -0.0560729988
vt 0.275000006 -0.0424869992
vt -0.725000024 -0.00319500011
vt -0.725000024 -0.00319500011
vt 0.275000006 -0.0424869992
vt 0.275000006 0.0120689999
vt -0.725000024 -0.00319500011
vt 0.275000006 0.0120689999
vt -0.725000024 0.0497110002
vt -0.725000024 0.0497110002
vt 0.275000006 0.0120689999
vt 0.275000006 0.0667560026
vt -0.725000024 0.0497110002
vt 0.275000006 0.0667560026
vt -0.725000024 0.103092
vt -0.725000024 0.103092
vt 0.275000006 0.0667560026
vt 0.275000006 0.121554002
vt -0.725000024 0.103092
vt 0.275000006 0.121554002
vt -0.725000024 0.156187996
vt -0.725000024 0.156187996
vt 0.275000006 0.121554002
vt 0.275000006 0.176382005
vt -0.725000024 0.156187996
vt 0.275000006 0.176382005
vt -0.725000024 0.208997995
vt -0.725000024 0.208997995
vt 0.275000006 0.176382005
vt 0.275000006 0.231242001
vt -0.725000024 0.208997995
vt 0.275000006 0.231242001
vt -0.725000024 0.261525005
vt -0.725000024 0.261525005
vt 0.275000006 0.231242001
vt 0.275000006 0.286220014
vt -0.725000024 0.261525005
vt 0.275000006 0.286220014
vt -0.725000024 0.313903004
vt -0.725000024 0.313903004
vt 0.275000006 0.286220014
vt 0.275000006 0.341214001
vt -0.725000024 0.313903004
vt 0.275000006 0.341214001
vt -0.725000024 0.365904003
vt -0.725000024 0.365904003
vt 0.275000006 0.341214001
vt 0.275000006 0.396149993
vt -0.725000024 0.365904003
vt 0.275000006 0.396149993
vt -0.725000024 0.417528003
vt -0.725000024 0.417528003
vt 0.275000006 0.396149993
vt 0.275000006 0.451025993
vt -0.725000024 0.417528003
vt 0.275000006 0.451025993
vt -0.725000024 0.468775004
vt -0.725000024 0.468775004
vt 0.275000006 0.451025993
vt 0.275000006 0.505842984
vt -0.725000024 0.468775004
vt 0.275000006 0.505842984
vt -0.725000024 0.519645989
vt -0.725000024 0.519645989
vt 0.275000006 0.505842984
vt 0.275000006 0.560600996
vt -0.725000024 0.519645989
vt 0.275000006 0.560600996
vt -0.725000024 0.570141017
vt -0.725000024 0.570141017
vt 0.275000006 0.560600996
vt 0.275000006 0.615298986
vt -0.725000024 0.570141017
vt 0.275000006 0.615298986
vt -0.725000024 0.620258987
vt -0.725000024 0.620258987
vt 0.275000006 0.615298986
vt 0.275000006 0.669938982
vt -0.725000024 0.620258987
vt 0.275000006 0.669938982
vt -0.725000024 0.669938982
vt 0.725000024 1.05149996
vt 0.725000024 1.07810903
vt -0.275000006 1.05149996
vt -1.05149996 0.897889972
vt -1.07810903 0.896703005
vt -1.07810903 0.896703005
vt -0.275000006 1.05149996
vt 0.725000024 1.07810903
vt -0.275000006 1.07811296
vt -0.275000006 1.07811296
vt 0.725000024 1.07810903
vt 0.725000024 1.10437095
vt -0.275000006 1.07811296
vt 0.725000024 1.10437095
vt -0.275000006 1.10438001
vt -0.275000006 1.10438001
vt 0.725000024 1.10437095
vt 0.725000024 1.13032305
vt -0.275000006 1.10438001
vt 0.725000024 1.13032305
vt -0.275000006 1.13033497
vt -0.275000006 1.13033497
vt 0.725000024 1.13032305
vt 0.725000024 1.15558195
vt -0.275000006 1.13033497
vt 0.725000024 1.15558195
vt -0.275000006 1.15559697
vt -0.275000006 1.15559697
vt 0.725000024 1.15558195
vt 0.725000024 1.18007004
vt -0.275000006 1.15559697
vt 0.725000024 1.18007004
vt -0.275000006 1.180089
vt -0.275000006 1.180089
vt 0.725000024 1.18007004
vt 0.725000024 1.20352995
vt -0.275000006 1.180089
vt 0.725000024 1.20352995
vt -0.275000006 1.20355105
vt -0.275000006 1.20355105
vt 0.725000024 1.20352995
vt 0.725000024 1.22579706
vt -0.275000006 1.20355105
vt 0.725000024 1.22579706
vt -0.275000006 1.22582102
vt -0.275000006 1.22582102
vt 0.725000024 1.22579706
vt 0.725000024 1.24671602
vt -0.275000006 1.22582102
vt 0.725000024 1.24671602
vt -0.275000006 1.24674201
vt -0.275000006 1.24674201
vt 0.725000024 1.24671602
vt 0.725000024 1.26607394
vt -0.275000006 1.24674201
vt 0.725000024 1.26607394
vt -0.275000006 1.26610005
vt 0.275000006 0.807524025
vt -0.725000024 0.807550013
vt -0.725000024 0.787720978
vt 0.275000006 0.807524025
vt -0.725000024 0.787720978
vt 0.275000006 0.787688971
vt 0.275000006 0.787688971
vt -0.725000024 0.787720978
vt -0.725000024 0.766487002
vt 0.275000006 0.787688971
vt -0.725000024 0.766487002
vt 0.275000006 0.766448975
vt 0.275000006 0.766448975
vt -0.725000024 0.766487002
vt -0.725000024 0.743831992
vt 0.275000006 0.766448975
vt -0.725000024 0.743831992
vt 0.275000006 0.743788004
vt 0.275000006 0.743788004
vt -0.725000024 0.743831992
vt -0.725000024 0.720152974
vt 0.275000006 0.743788004
vt -0.725000024 0.720152974
vt 0.275000006 0.720103979
vt 0.275000006 0.720103979
vt -0.725000024 0.720152974
vt -0.725000024 0.695542991
vt 0.275000006 0.720103979
vt -0.725000024 0.695542991
vt 0.275000006 0.695487976
vt 0.275000006 0.695487976
vt -0.725000024 0.695542991
vt -0.725000024 0.669938982
vt 0.275000006 0.695487976
vt -0.725000024 0.669938982
vt 0.275000006 0.669938982
f 1/1 2/2 3/3
f 3/4 2/5 4/6
f 3/7 4/8 5/9
f 5/10 4/11 6/12
f 5/13 6/14 7/15
f 7/16 6/17 8/18
f 7/19 8/20 9/21
f 9/22 8/23 10/24
f 9/25 10/26 11/27
f 11/28 10/29 12/30
f 11/31 12/32 13/33
f 13/34 12/35 14/36
f 13/37 14/38 15/39
f 15/40 14/41 16/42
f 15/43 16/44 17/45
f 17/46 16/47 18/48
f 17/49 18/50 19/51
f 19/52 18/53 20/54
f 19/55 20/56 21/57
f 21/58 20/59 22/60
f 21/61 22/62 23/63
f 23/64 22/65 24/66
f 23/67 24/68 25/69
f 25/70 24/71 26/72
f 25/73 26/74 27/75
f 27/76 26/77 28/78
f 27/79 28/80 29/81
f 29/82 28/83 30/84
f 29/85 30/86 31/87
f 31/88 30/89 32/90
f 31/91 32/92 33/93
f 33/94 32/95 34/96
f 33/97 34/98 35/99
f 35/100 34/101 36/102
f 35/103 36/104 37/105
f 37/106 36/107 38/108
f 37/109 38/110 39/111
f 39/112 38/113 40/114
f 39/115 40/116 41/117
f 42/118 43/119 44/120
f 44/121 43/122 43/123
f 44/124 43/125 45/126
f 45/127 43/128 46/129
f 45/130 46/131 47/132
f 47/133 46/134 48/135
f 47/136 48/137 49/138
f 49/139 48/140 50/141
f 49/142 50/143 51/144
f 51/145 50/146 52/147
f 51/148 52/149 53/150
f 53/151 52/152 54/153
f 53/154 54/155 55/156
f 55/157 54/158 56/159
f 55/160 56/161 57/162
f 57/163 56/164 58/165
f 57/166 58/167 59/168
f 59/169 58/170 60/171
f 59/172 60/173 61/174
f 61/175 60/176 62/177
f 61/178 62/179 63/180
f 63/181 62/182 64/183
f 63/184 64/185 65/186
f 65/187 64/188 66/189
f 65/190 66/191 67/192
f 67/193 66/194 68/195
f 67/196 68/197 69/198
f 69/199 68/200 70/201
f 69/202 70/203 71/204
f 71/205 70/206 41/207
f 71/208 41/209 40/210
