# Exported from USD for MuJoCo with source material subsets
v -14.0598661 -4.47874505 1.75158113
v -14.0599447 -4.47892339 1.45460332
v -14.1393996 -4.12018186 1.75138688
v -14.1394784 -4.1203602 1.45440947
v -16.5923588 -5.74012882 1.456236
v -16.5904559 -5.74817449 1.75309854
v -16.6718576 -5.3817032 1.46645976
v -16.6699547 -5.38974888 1.76332229
vt 0.191560999 1.81505704
vt 0.224255994 1.54706395
vt 0.51512599 1.85455
vt 0.51512599 1.85455
vt 0.224255994 1.54706395
vt 0.547820985 1.58655798
vt 0.913953006 1.40900803
vt 0.954055011 1.67598701
vt 0.59166503 1.45788705
vt 0.59166503 1.45788705
vt 0.954055011 1.67598701
vt 0.631767988 1.72486603
f 1/1 2/2 3/3
f 3/4 2/5 4/6
f 5/7 6/8 7/9
f 7/10 6/11 8/12
