# Exported from USD for MuJoCo with source material subsets
v 19.5467607 7.24163319 0.601728079
v 19.5467607 7.24163319 0.761248794
v 19.5394383 7.22395552 0.761248794
v 19.5394383 7.22395552 0.601728079
v 19.5217607 7.2166332 0.761248794
v 19.5217607 7.2166332 0.601728079
v 19.504083 7.22395552 0.761248794
v 19.504083 7.22395552 0.601728079
v 19.4967606 7.24163319 0.761248794
v 19.4967606 7.24163319 0.601728079
v 19.504083 7.25931085 0.761248794
v 19.504083 7.25931085 0.601728079
v 19.5217607 7.26663319 0.761248794
v 19.5217607 7.26663319 0.601728079
v 19.5394383 7.25931085 0.761248794
v 19.5394383 7.25931085 0.601728079
vt 1 0.75
vt 1 1
vt 0.875 1
vt 1 0.75
vt 0.875 1
vt 0.875 0.75
vt 0.875 0.75
vt 0.875 1
vt 0.75 1
vt 0.875 0.75
vt 0.75 1
vt 0.75 0.75
vt 0.75 0.75
vt 0.75 1
vt 0.625 1
vt 0.75 0.75
vt 0.625 1
vt 0.625 0.75
vt 0.625 0.75
vt 0.625 1
vt 0.5 1
vt 0.625 0.75
vt 0.5 1
vt 0.5 0.75
vt 0.5 0.75
vt 0.5 1
vt 0.375 1
vt 0.5 0.75
vt 0.375 1
vt 0.375 0.75
vt 0.375 0.75
vt 0.375 1
vt 0.25 1
vt 0.375 0.75
vt 0.25 1
vt 0.25 0.75
vt 0.25 0.75
vt 0.25 1
vt 0.125 1
vt 0.25 0.75
vt 0.125 1
vt 0.125 0.75
vt 0.125 0.75
vt 0.125 1
vt 0 1
vt 0.125 0.75
vt 0 1
vt 0 0.75
f 1/1 2/2 3/3
f 1/4 3/5 4/6
f 4/7 3/8 5/9
f 4/10 5/11 6/12
f 6/13 5/14 7/15
f 6/16 7/17 8/18
f 8/19 7/20 9/21
f 8/22 9/23 10/24
f 10/25 9/26 11/27
f 10/28 11/29 12/30
f 12/31 11/32 13/33
f 12/34 13/35 14/36
f 14/37 13/38 15/39
f 14/40 15/41 16/42
f 16/43 15/44 2/45
f 16/46 2/47 1/48
