# Exported from USD for MuJoCo with source material subsets
v -16.2528496 -2.37190694 0.953403437
v -16.2528496 -2.3672877 0.955316329
v -16.2528496 -2.37587935 0.950357223
v -16.2528496 -2.37892587 0.946387971
v -16.2528496 -2.36232216 0.955968851
v -16.2528496 -2.38084144 0.941766703
v -16.2528496 -2.35736448 0.955315286
v -16.2528496 -2.38149614 0.936800772
v -16.2528496 -2.35273988 0.953398848
v -16.2528496 -2.38084394 0.931845093
v -16.2528496 -2.34877044 0.950351292
v -16.2528496 -2.3789292 0.92721861
v -16.2528496 -2.3457262 0.946382994
v -16.2528496 -2.37588496 0.923250223
v -16.2528496 -2.34381134 0.941756511
v -16.2528496 -2.37191552 0.920202667
v -16.2528496 -2.34315914 0.936800772
v -16.2528496 -2.3672908 0.918286288
v -16.2528496 -2.34381384 0.931834871
v -16.2528496 -2.362333 0.917632664
v -16.2528496 -2.34572954 0.927213604
v -16.2528496 -2.35736758 0.918285185
v -16.2528496 -2.34877605 0.923244381
v -16.2528496 -2.35274834 0.920198107
vt -0.863551021 0.296815991
vt -0.865289986 0.292616993
vt -0.860782027 0.30042699
vt -0.860782027 0.30042699
vt -0.865289986 0.292616993
vt -0.865289986 0.292616993
vt -0.860782027 0.30042699
vt -0.865289986 0.292616993
vt -0.857173026 0.303196996
vt -0.857173026 0.303196996
vt -0.865289986 0.292616993
vt -0.865882993 0.288103014
vt -0.857173026 0.303196996
vt -0.865882993 0.288103014
vt -0.852971971 0.304937989
vt -0.852971971 0.304937989
vt -0.865882993 0.288103014
vt -0.865288973 0.283596009
vt -0.852971971 0.304937989
vt -0.865288973 0.283596009
vt -0.848457992 0.305532992
vt -0.848457992 0.305532992
vt -0.865288973 0.283596009
vt -0.863547027 0.279390991
vt -0.848457992 0.305532992
vt -0.863547027 0.279390991
vt -0.843952 0.304940999
vt -0.843952 0.304940999
vt -0.863547027 0.279390991
vt -0.860776007 0.275783002
vt -0.843952 0.304940999
vt -0.860776007 0.275783002
vt -0.839747012 0.303200006
vt -0.839747012 0.303200006
vt -0.860776007 0.275783002
vt -0.857168972 0.273014992
vt -0.839747012 0.303200006
vt -0.857168972 0.273014992
vt -0.836139023 0.300431997
vt -0.836139023 0.300431997
vt -0.857168972 0.273014992
vt -0.852962971 0.271275014
vt -0.836139023 0.300431997
vt -0.852962971 0.271275014
vt -0.833368003 0.296824008
vt -0.833368003 0.296824008
vt -0.852962971 0.271275014
vt -0.848457992 0.270682007
vt -0.833368003 0.296824008
vt -0.848457992 0.270682007
vt -0.831625998 0.292620003
vt -0.831625998 0.292620003
vt -0.848457992 0.270682007
vt -0.843943 0.27127701
vt -0.831625998 0.292620003
vt -0.843943 0.27127701
vt -0.831031978 0.288112998
vt -0.831031978 0.288112998
vt -0.843943 0.27127701
vt -0.839742005 0.273018003
vt -0.831031978 0.288112998
vt -0.839742005 0.273018003
vt -0.831624985 0.283598989
vt -0.831624985 0.283598989
vt -0.839742005 0.273018003
vt -0.836134017 0.275788009
vt -0.831624985 0.283598989
vt -0.836134017 0.275788009
vt -0.83336401 0.279399008
f 1/1 2/2 3/3
f 3/4 2/5 2/6
f 3/7 2/8 4/9
f 4/10 2/11 5/12
f 4/13 5/14 6/15
f 6/16 5/17 7/18
f 6/19 7/20 8/21
f 8/22 7/23 9/24
f 8/25 9/26 10/27
f 10/28 9/29 11/30
f 10/31 11/32 12/33
f 12/34 11/35 13/36
f 12/37 13/38 14/39
f 14/40 13/41 15/42
f 14/43 15/44 16/45
f 16/46 15/47 17/48
f 16/49 17/50 18/51
f 18/52 17/53 19/54
f 18/55 19/56 20/57
f 20/58 19/59 21/60
f 20/61 21/62 22/63
f 22/64 21/65 23/66
f 22/67 23/68 24/69
