# Exported from USD for MuJoCo with source material subsets
v 10.9157965 -7.32403217 1.26000195
v 10.9157965 -7.32403217 1.23000195
v 10.9148928 -7.3158239 1.23000195
v 10.9138764 -8.09908138 1.25000195
v 10.9138764 -8.09908138 1.17000194
v 10.9129727 -8.09087311 1.17000194
v 10.9129726 -8.10728966 1.25000195
v 10.9364415 -8.12097059 1.17000194
v 10.9388514 -8.09908138 1.15000196
v 10.9388514 -8.09908138 1.17000194
v 10.9364415 -8.0771917 1.15000196
v 10.9148928 -7.33224092 1.26000195
v 10.9317477 -8.11823498 1.28000195
v 10.9338563 -8.09908138 1.25000195
v 10.9338563 -8.09908138 1.28000195
v 10.9317477 -8.07992826 1.25000195
v 10.9148928 -7.3158239 1.26000195
v 10.9122907 -7.30860554 1.23000195
v 10.9122907 -7.30860554 1.26000195
v 10.908304 -7.30324779 1.23000195
v 10.908304 -7.30324779 1.26000195
v 10.9034137 -7.30039678 1.23000195
v 10.9034137 -7.30039678 1.26000195
v 10.8982094 -7.30039678 1.23000195
v 10.8982094 -7.30039678 1.26000195
v 10.893319 -7.30324779 1.23000195
v 10.893319 -7.30324779 1.26000195
v 10.8893324 -7.30860554 1.23000195
v 10.8893324 -7.30860554 1.26000195
v 10.8867302 -7.3158239 1.23000195
v 10.8867302 -7.3158239 1.26000195
v 10.8858265 -7.32403217 1.23000195
v 10.8858265 -7.32403217 1.26000195
v 10.8867303 -7.33224092 1.23000195
v 10.8867302 -7.33224092 1.26000195
v 10.8893324 -7.33945881 1.23000195
v 10.8893324 -7.33945881 1.26000195
v 10.893319 -7.34481703 1.23000195
v 10.893319 -7.34481703 1.26000195
v 10.8982094 -7.34766756 1.23000195
v 10.8982094 -7.34766756 1.26000195
v 10.9034137 -7.34766756 1.23000195
v 10.9034137 -7.34766756 1.26000195
v 10.908304 -7.34481703 1.23000195
v 10.908304 -7.34481703 1.26000195
v 10.9122907 -7.33945881 1.23000195
v 10.9122907 -7.33945881 1.26000195
v 10.9148928 -7.33224092 1.23000195
v 10.9129726 -8.09087311 1.25000195
v 10.9103705 -8.08365475 1.25000195
v 10.925676 -8.06308542 1.25000195
v 10.9063838 -8.078297 1.25000195
v 10.9163738 -8.05058371 1.25000195
v 10.9049629 -8.0439323 1.25000195
v 10.9014935 -8.07544647 1.25000195
v 10.8928197 -8.0439323 1.25000195
v 10.8962892 -8.07544647 1.25000195
v 10.8913988 -8.078297 1.25000195
v 10.8814088 -8.05058371 1.25000195
v 10.8721066 -8.06308542 1.25000195
v 10.8874122 -8.08365475 1.25000195
v 10.866035 -8.07992826 1.25000195
v 10.8848101 -8.09087311 1.25000195
v 10.8639264 -8.09908138 1.25000195
v 10.8839064 -8.09908138 1.25000195
v 10.8848101 -8.10728966 1.25000195
v 10.866035 -8.11823498 1.25000195
v 10.8721066 -8.13507782 1.25000195
v 10.8874122 -8.11450849 1.25000195
v 10.8814089 -8.14757858 1.25000195
v 10.8913989 -8.11986624 1.25000195
v 10.8928198 -8.15423046 1.25000195
v 10.8962893 -8.12271677 1.25000195
v 10.904963 -8.15423046 1.25000195
v 10.9014935 -8.12271677 1.25000195
v 10.9063838 -8.11986624 1.25000195
v 10.9163738 -8.14757858 1.25000195
v 10.9256761 -8.13507782 1.25000195
v 10.9103705 -8.11450849 1.25000195
v 10.9317477 -8.11823498 1.25000195
v 10.9317476 -8.07992826 1.28000195
v 10.925676 -8.06308542 1.28000195
v 10.9163738 -8.05058371 1.28000195
v 10.9049629 -8.0439323 1.28000195
v 10.8928197 -8.0439323 1.28000195
v 10.8814088 -8.05058371 1.28000195
v 10.8721066 -8.06308542 1.28000195
v 10.866035 -8.07992826 1.28000195
v 10.8639264 -8.09908138 1.28000195
v 10.866035 -8.11823498 1.28000195
v 10.8721066 -8.13507782 1.28000195
v 10.8814088 -8.14757858 1.28000195
v 10.8928197 -8.15423046 1.28000195
v 10.904963 -8.15423046 1.28000195
v 10.9163738 -8.14757858 1.28000195
v 10.9256761 -8.13507782 1.28000195
v 10.9364415 -8.0771917 1.17000194
v 10.9103706 -8.08365475 1.17000194
v 10.9295025 -8.05794273 1.17000194
v 10.9063839 -8.078297 1.17000194
v 10.9188714 -8.04365574 1.17000194
v 10.9058304 -8.036054 1.17000194
v 10.9014935 -8.07544647 1.17000194
v 10.8919524 -8.036054 1.17000194
v 10.8962893 -8.07544647 1.17000194
v 10.8913989 -8.078297 1.17000194
v 10.8789114 -8.04365574 1.17000194
v 10.8682803 -8.05794273 1.17000194
v 10.8874122 -8.08365475 1.17000194
v 10.8613413 -8.0771917 1.17000194
v 10.8848101 -8.09087311 1.17000194
v 10.8589314 -8.09908138 1.17000194
v 10.8839064 -8.09908138 1.17000194
v 10.8613413 -8.12097059 1.17000194
v 10.8848101 -8.10728966 1.17000194
v 10.8682803 -8.14022003 1.17000194
v 10.8874122 -8.11450849 1.17000194
v 10.8789114 -8.15450703 1.17000194
v 10.8913989 -8.11986624 1.17000194
v 10.8919524 -8.16210876 1.17000194
v 10.8962893 -8.12271677 1.17000194
v 10.9058304 -8.16210876 1.17000194
v 10.9014935 -8.12271677 1.17000194
v 10.9063839 -8.11986624 1.17000194
v 10.9188714 -8.15450703 1.17000194
v 10.9295025 -8.14022003 1.17000194
v 10.9103706 -8.11450849 1.17000194
v 10.9129727 -8.10728966 1.17000194
v 10.9295025 -8.05794273 1.15000196
v 10.9188714 -8.04365574 1.15000196
v 10.9058304 -8.036054 1.15000196
v 10.8919524 -8.036054 1.15000196
v 10.8789114 -8.04365574 1.15000196
v 10.8682803 -8.05794273 1.15000196
v 10.8613413 -8.0771917 1.15000196
v 10.8589314 -8.09908138 1.15000196
v 10.8613413 -8.12097059 1.15000196
v 10.8682803 -8.14022003 1.15000196
v 10.8789114 -8.15450703 1.15000196
v 10.8919524 -8.16210876 1.15000196
v 10.9058304 -8.16210876 1.15000196
v 10.9188714 -8.15450703 1.15000196
v 10.9295025 -8.14022003 1.15000196
v 10.9364415 -8.12097059 1.15000196
v 10.9433441 -8.08835016 1.44000183
v 10.941849 -8.07785879 1.44000183
v 10.8988913 -8.09908138 1.44000183
v 10.9393943 -8.06784187 1.44000183
v 10.9360348 -8.05852257 1.44000183
v 10.9318456 -8.05010878 1.44000183
v 10.9269202 -8.0427898 1.44000183
v 10.9213687 -8.03672729 1.44000183
v 10.9153151 -8.03205858 1.44000183
v 10.9088947 -8.02888666 1.44000183
v 10.9022507 -8.02728258 1.44000183
v 10.8955317 -8.02728258 1.44000183
v 10.8888878 -8.02888666 1.44000183
v 10.8824674 -8.03205858 1.44000183
v 10.8764138 -8.03672729 1.44000183
v 10.8708623 -8.0427898 1.44000183
v 10.8659369 -8.05010878 1.44000183
v 10.8617477 -8.05852257 1.44000183
v 10.8583882 -8.06784187 1.44000183
v 10.8559335 -8.07785879 1.44000183
v 10.8544384 -8.08835016 1.44000183
v 10.8539363 -8.09908138 1.44000183
v 10.8544384 -8.1098126 1.44000183
v 10.8559335 -8.12030397 1.44000183
v 10.8583882 -8.13032089 1.44000183
v 10.8617477 -8.13964067 1.44000183
v 10.865937 -8.14805399 1.44000183
v 10.8708623 -8.15537344 1.44000183
v 10.8764138 -8.16143499 1.44000183
v 10.8824674 -8.16610466 1.44000183
v 10.8888879 -8.16927658 1.44000183
v 10.8955318 -8.17088018 1.44000183
v 10.9022508 -8.17088018 1.44000183
v 10.9088947 -8.16927658 1.44000183
v 10.9153152 -8.16610466 1.44000183
v 10.9213688 -8.16143499 1.44000183
v 10.9269203 -8.15537344 1.44000183
v 10.9318456 -8.14805399 1.44000183
v 10.9360348 -8.13964067 1.44000183
v 10.9393943 -8.13032089 1.44000183
v 10.941849 -8.12030397 1.44000183
v 10.9433441 -8.1098126 1.44000183
v 10.9438462 -8.09908138 1.44000183
v 10.9153151 -8.03205858 1.41500183
v 10.9213687 -8.03672729 1.41500183
v 10.8988913 -8.09908138 1.41500183
v 10.9269202 -8.0427898 1.41500183
v 10.9318456 -8.05010878 1.41500183
v 10.9360348 -8.05852257 1.41500183
v 10.9393943 -8.06784187 1.41500183
v 10.941849 -8.07785879 1.41500183
v 10.9433441 -8.08835016 1.41500183
v 10.9438463 -8.09908138 1.41500183
v 10.9433441 -8.1098126 1.41500183
v 10.941849 -8.12030397 1.41500183
v 10.9393943 -8.13032089 1.41500183
v 10.9360348 -8.13964067 1.41500183
v 10.9318456 -8.14805399 1.41500183
v 10.9269203 -8.15537344 1.41500183
v 10.9213688 -8.16143499 1.41500183
v 10.9153152 -8.16610466 1.41500183
v 10.9088947 -8.16927658 1.41500183
v 10.9022508 -8.17088018 1.41500183
v 10.8955318 -8.17088018 1.41500183
v 10.8888879 -8.16927658 1.41500183
v 10.8824674 -8.16610466 1.41500183
v 10.8764138 -8.16143499 1.41500183
v 10.8708623 -8.15537344 1.41500183
v 10.865937 -8.14805399 1.41500183
v 10.8617477 -8.13964067 1.41500183
v 10.8583882 -8.13032089 1.41500183
v 10.8559335 -8.12030397 1.41500183
v 10.8544384 -8.1098126 1.41500183
v 10.8539363 -8.09908138 1.41500183
v 10.8544384 -8.08835016 1.41500183
v 10.8559335 -8.07785879 1.41500183
v 10.8583882 -8.06784187 1.41500183
v 10.8617477 -8.05852257 1.41500183
v 10.8659369 -8.05010878 1.41500183
v 10.8708623 -8.0427898 1.41500183
v 10.8764138 -8.03672729 1.41500183
v 10.8824674 -8.03205858 1.41500183
v 10.8888878 -8.02888666 1.41500183
v 10.8955318 -8.02728258 1.41500183
v 10.9022507 -8.02728258 1.41500183
v 10.9088947 -8.02888666 1.41500183
vt -1.25999999 0.195997998
vt -1.23000002 0.195997998
vt -1.23000002 0.204206005
vt -1.25 -0.579051971
vt -1.16999996 -0.579051971
vt -1.16999996 -0.570842981
vt -1.16999996 -0.579051971
vt -1.25 -0.579051971
vt -1.25 -0.587260008
vt -1.16999996 -0.600941002
vt -1.14999998 -0.579051971
vt -1.16999996 -0.579051971
vt -1.14999998 -0.579051971
vt -1.14999998 -0.557161987
vt -1.16999996 -0.579051971
vt -1.25999999 0.187788993
vt -1.23000002 0.195997998
vt -1.25999999 0.195997998
vt -1.27999997 -0.59820497
vt -1.25 -0.579051971
vt -1.27999997 -0.579051971
vt -1.27999997 -0.579051971
vt -1.25 -0.579051971
vt -1.25 -0.559898973
vt -1.25999999 0.195997998
vt -1.23000002 0.204206005
vt -1.25999999 0.204206005
vt -1.25999999 0.204206005
vt -1.23000002 0.204206005
vt -1.23000002 0.211425006
vt -1.25999999 0.204206005
vt -1.23000002 0.211425006
vt -1.25999999 0.211425006
vt -1.25999999 0.211425006
vt -1.23000002 0.211425006
vt -1.23000002 0.216782004
vt -1.25999999 0.211425006
vt -1.23000002 0.216782004
vt -1.25999999 0.216782004
vt -0.00749300001 1.25999999
vt -0.00749300001 1.23000002
vt -0.00260300003 1.23000002
vt -0.00749300001 1.25999999
vt -0.00260300003 1.23000002
vt -0.00260300003 1.25999999
vt -0.00260300003 1.25999999
vt -0.00260300003 1.23000002
vt 0.00260100001 1.23000002
vt -0.00260300003 1.25999999
vt 0.00260100001 1.23000002
vt 0.00260100001 1.25999999
vt 0.00260100001 1.25999999
vt 0.00260100001 1.23000002
vt 0.00749199977 1.23000002
vt 0.00260100001 1.25999999
vt 0.00749199977 1.23000002
vt 0.00749199977 1.25999999
vt 1.25999999 0.216782004
vt 1.23000002 0.216782004
vt 1.23000002 0.211425006
vt 1.25999999 0.216782004
vt 1.23000002 0.211425006
vt 1.25999999 0.211425006
vt 1.25999999 0.211425006
vt 1.23000002 0.211425006
vt 1.23000002 0.204206005
vt 1.25999999 0.211425006
vt 1.23000002 0.204206005
vt 1.25999999 0.204206005
vt 1.25999999 0.204206005
vt 1.23000002 0.204206005
vt 1.23000002 0.195997998
vt 1.25999999 0.204206005
vt 1.23000002 0.195997998
vt 1.25999999 0.195997998
vt 1.25999999 0.195997998
vt 1.23000002 0.195997998
vt 1.23000002 0.187788993
vt 1.25999999 0.195997998
vt 1.23000002 0.187788993
vt 1.25999999 0.187788993
vt 1.25999999 0.187788993
vt 1.23000002 0.187788993
vt 1.23000002 0.180571005
vt 1.25999999 0.187788993
vt 1.23000002 0.180571005
vt 1.25999999 0.180571005
vt 1.25999999 0.180571005
vt 1.23000002 0.180571005
vt 1.23000002 0.175212994
vt 1.25999999 0.180571005
vt 1.23000002 0.175212994
vt 1.25999999 0.175212994
vt -0.00749199977 1.25999999
vt -0.00749199977 1.23000002
vt -0.00260100001 1.23000002
vt -0.00749199977 1.25999999
vt -0.00260100001 1.23000002
vt -0.00260100001 1.25999999
vt -0.00260100001 1.25999999
vt -0.00260100001 1.23000002
vt 0.00260300003 1.23000002
vt -0.00260100001 1.25999999
vt 0.00260300003 1.23000002
vt 0.00260300003 1.25999999
vt 0.00260300003 1.25999999
vt 0.00260300003 1.23000002
vt 0.00749300001 1.23000002
vt 0.00260300003 1.25999999
vt 0.00749300001 1.23000002
vt 0.00749300001 1.25999999
vt -1.25999999 0.175212994
vt -1.23000002 0.175212994
vt -1.23000002 0.180571005
vt -1.25999999 0.175212994
vt -1.23000002 0.180571005
vt -1.25999999 0.180571005
vt -1.25999999 0.180571005
vt -1.23000002 0.180571005
vt -1.23000002 0.187788993
vt -1.25999999 0.180571005
vt -1.23000002 0.187788993
vt -1.25999999 0.187788993
vt -1.25999999 0.187788993
vt -1.23000002 0.187788993
vt -1.23000002 0.195997998
vt -0.0330450013 -0.579051971
vt -0.0121619999 -0.570842981
vt -0.0309369992 -0.559898973
vt -0.0309369992 -0.559898973
vt -0.0121619999 -0.570842981
vt -0.00956000015 -0.563624978
vt -0.0309369992 -0.559898973
vt -0.00956000015 -0.563624978
vt -0.0248649996 -0.543056011
vt -0.0248649996 -0.543056011
vt -0.00956000015 -0.563624978
vt -0.00557299983 -0.558266997
vt -0.0248649996 -0.543056011
vt -0.00557299983 -0.558266997
vt -0.015563 -0.530553997
vt -1.25 -0.530553997
vt -1.25 -0.558266997
vt -1.25 -0.558266997
vt -0.015563 -0.530553997
vt -0.00557299983 -0.558266997
vt -0.00415199995 -0.523901999
vt -0.00415199995 -0.523901999
vt -0.00557299983 -0.558266997
vt -0.00068300002 -0.555415988
vt -0.00415199995 -0.523901999
vt -0.00068300002 -0.555415988
vt 0.00799100008 -0.523901999
vt 0.00799100008 -0.523901999
vt -0.00068300002 -0.555415988
vt 0.00452199997 -0.555415988
vt -1.25 -0.523901999
vt -1.25 -0.555415988
vt -1.25 -0.523901999
vt 0.00799100008 -0.523901999
vt 0.00452199997 -0.555415988
vt 0.00941199996 -0.558266997
vt 0.00799100008 -0.523901999
vt 0.00941199996 -0.558266997
vt 0.0194019992 -0.530553997
vt -1.25 -0.530553997
vt -1.25 -0.558266997
vt -1.25 -0.558266997
vt 0.0194019992 -0.530553997
vt 0.00941199996 -0.558266997
vt 0.0287040006 -0.543056011
vt 0.0287040006 -0.543056011
vt 0.00941199996 -0.558266997
vt 0.0133990003 -0.563624978
vt 0.0287040006 -0.543056011
vt 0.0133990003 -0.563624978
vt 0.0347759984 -0.559898973
vt 0.0347759984 -0.559898973
vt 0.0133990003 -0.563624978
vt 0.0160009991 -0.570842981
vt 0.0347759984 -0.559898973
vt 0.0160009991 -0.570842981
vt 0.0368850008 -0.579051971
vt 0.0368850008 -0.579051971
vt 0.0160009991 -0.570842981
vt 0.0169050004 -0.579051971
vt -1.25 -0.579051971
vt -1.25 -0.579051971
vt -1.25 -0.579051971
vt 0.0368850008 -0.579051971
vt 0.0169050004 -0.579051971
vt 0.0160009991 -0.587260008
vt 0.0368850008 -0.579051971
vt 0.0160009991 -0.587260008
vt 0.0347759984 -0.59820497
vt -1.25 -0.59820497
vt -1.25 -0.587260008
vt -1.25 -0.587260008
vt 0.0347759984 -0.59820497
vt 0.0160009991 -0.587260008
vt 0.0287040006 -0.615047991
vt 0.0287040006 -0.615047991
vt 0.0160009991 -0.587260008
vt 0.0133990003 -0.594479024
vt 0.0287040006 -0.615047991
vt 0.0133990003 -0.594479024
vt 0.0194019992 -0.627548993
vt 0.0194019992 -0.627548993
vt 0.0133990003 -0.594479024
vt 0.00941199996 -0.599835992
vt 0.0194019992 -0.627548993
vt 0.00941199996 -0.599835992
vt 0.00799100008 -0.63420099
vt 0.00799100008 -0.63420099
vt 0.00941199996 -0.599835992
vt 0.00452199997 -0.602687001
vt 0.00799100008 -0.63420099
vt 0.00452199997 -0.602687001
vt -0.00415199995 -0.63420099
vt -0.00415199995 -0.63420099
vt 0.00452199997 -0.602687001
vt -0.00068300002 -0.602687001
vt -1.25 -0.63420099
vt -1.25 -0.602687001
vt -1.25 -0.63420099
vt -0.00415199995 -0.63420099
vt -0.00068300002 -0.602687001
vt -0.00557299983 -0.599835992
vt -0.00415199995 -0.63420099
vt -0.00557299983 -0.599835992
vt -0.015563 -0.627548993
vt -1.25 -0.627548993
vt -1.25 -0.599835992
vt -1.25 -0.599835992
vt -0.015563 -0.627548993
vt -0.00557299983 -0.599835992
vt -0.0248649996 -0.615047991
vt -0.0248649996 -0.615047991
vt -0.00557299983 -0.599835992
vt -0.00956000015 -0.594479024
vt -0.0248649996 -0.615047991
vt -0.00956000015 -0.594479024
vt -0.0309369992 -0.59820497
vt -0.0309369992 -0.59820497
vt -0.00956000015 -0.594479024
vt -0.0121619999 -0.587260008
vt -0.0309369992 -0.59820497
vt -0.0121619999 -0.587260008
vt -0.0330450013 -0.579051971
vt -1.27999997 -0.579051971
vt -1.25 -0.559898973
vt -1.27999997 -0.559898973
vt -1.27999997 -0.559898973
vt -1.25 -0.559898973
vt -1.25 -0.543056011
vt -1.27999997 -0.559898973
vt -1.25 -0.543056011
vt -1.27999997 -0.543056011
vt -1.27999997 -0.543056011
vt -1.25 -0.543056011
vt -1.25 -0.530553997
vt -1.27999997 -0.543056011
vt -1.25 -0.530553997
vt -1.27999997 -0.530553997
vt -0.015563 1.27999997
vt -0.015563 1.25
vt -0.00415199995 1.25
vt -0.015563 1.27999997
vt -0.00415199995 1.25
vt -0.00415199995 1.27999997
vt -0.00415199995 1.27999997
vt -0.00415199995 1.25
vt 0.00799100008 1.25
vt -0.00415199995 1.27999997
vt 0.00799100008 1.25
vt 0.00799100008 1.27999997
vt 0.00799100008 1.27999997
vt 0.00799100008 1.25
vt 0.0194019992 1.25
vt 0.00799100008 1.27999997
vt 0.0194019992 1.25
vt 0.0194019992 1.27999997
vt 1.27999997 -0.530553997
vt 1.25 -0.530553997
vt 1.25 -0.543056011
vt 1.27999997 -0.530553997
vt 1.25 -0.543056011
vt 1.27999997 -0.543056011
vt 1.27999997 -0.543056011
vt 1.25 -0.543056011
vt 1.25 -0.559898973
vt 1.27999997 -0.543056011
vt 1.25 -0.559898973
vt 1.27999997 -0.559898973
vt 1.27999997 -0.559898973
vt 1.25 -0.559898973
vt 1.25 -0.579051971
vt 1.27999997 -0.559898973
vt 1.25 -0.579051971
vt 1.27999997 -0.579051971
vt 1.27999997 -0.579051971
vt 1.25 -0.579051971
vt 1.25 -0.59820497
vt 1.27999997 -0.579051971
vt 1.25 -0.59820497
vt 1.27999997 -0.59820497
vt 1.27999997 -0.59820497
vt 1.25 -0.59820497
vt 1.25 -0.615047991
vt 1.27999997 -0.59820497
vt 1.25 -0.615047991
vt 1.27999997 -0.615047991
vt 1.27999997 -0.615047991
vt 1.25 -0.615047991
vt 1.25 -0.627548993
vt 1.27999997 -0.615047991
vt 1.25 -0.627548993
vt 1.27999997 -0.627548993
vt -0.0194019992 1.27999997
vt -0.0194019992 1.25
vt -0.00799100008 1.25
vt -0.0194019992 1.27999997
vt -0.00799100008 1.25
vt -0.00799100008 1.27999997
vt -0.00799100008 1.27999997
vt -0.00799100008 1.25
vt 0.00415199995 1.25
vt -0.00799100008 1.27999997
vt 0.00415199995 1.25
vt 0.00415199995 1.27999997
vt 0.00415199995 1.27999997
vt 0.00415199995 1.25
vt 0.015563 1.25
vt 0.00415199995 1.27999997
vt 0.015563 1.25
vt 0.015563 1.27999997
vt -1.27999997 -0.627548993
vt -1.25 -0.627548993
vt -1.25 -0.615047991
vt -1.27999997 -0.627548993
vt -1.25 -0.615047991
vt -1.27999997 -0.615047991
vt -1.27999997 -0.615047991
vt -1.25 -0.615047991
vt -1.25 -0.59820497
vt -1.27999997 -0.615047991
vt -1.25 -0.59820497
vt -1.27999997 -0.59820497
vt -1.27999997 -0.59820497
vt -1.25 -0.59820497
vt -1.25 -0.579051971
vt 0.0380400009 -0.579051971
vt 0.035631001 -0.557161987
vt 0.0121619999 -0.570842981
vt -1.16999996 -0.570842981
vt -1.16999996 -0.557161987
vt -1.16999996 -0.557161987
vt 0.0121619999 -0.570842981
vt 0.035631001 -0.557161987
vt 0.00956000015 -0.563624978
vt 0.00956000015 -0.563624978
vt 0.035631001 -0.557161987
vt 0.0286919996 -0.537913024
vt 0.00956000015 -0.563624978
vt 0.0286919996 -0.537913024
vt 0.00557299983 -0.558266997
vt 0.00557299983 -0.558266997
vt 0.0286919996 -0.537913024
vt 0.0180600006 -0.523626029
vt -1.16999996 -0.558266997
vt -1.16999996 -0.523626029
vt -1.16999996 -0.558266997
vt 0.00557299983 -0.558266997
vt 0.0180600006 -0.523626029
vt 0.0050189998 -0.516023993
vt 0.00557299983 -0.558266997
vt 0.0050189998 -0.516023993
vt 0.00068300002 -0.555415988
vt 0.00068300002 -0.555415988
vt 0.0050189998 -0.516023993
vt -0.00885900017 -0.516023993
vt 0.00068300002 -0.555415988
vt -0.00885900017 -0.516023993
vt -0.00452199997 -0.555415988
vt -1.16999996 -0.555415988
vt -1.16999996 -0.516023993
vt -1.16999996 -0.516023993
vt -0.00452199997 -0.555415988
vt -0.00885900017 -0.516023993
vt -0.00941199996 -0.558266997
vt -0.00941199996 -0.558266997
vt -0.00885900017 -0.516023993
vt -0.0219000001 -0.523626029
vt -1.16999996 -0.558266997
vt -1.16999996 -0.523626029
vt -1.16999996 -0.558266997
vt -0.00941199996 -0.558266997
vt -0.0219000001 -0.523626029
vt -0.0325310007 -0.537913024
vt -0.00941199996 -0.558266997
vt -0.0325310007 -0.537913024
vt -0.0133990003 -0.563624978
vt -0.0133990003 -0.563624978
vt -0.0325310007 -0.537913024
vt -0.0394699983 -0.557161987
vt -0.0133990003 -0.563624978
vt -0.0394699983 -0.557161987
vt -0.0160009991 -0.570842981
vt -0.0160009991 -0.570842981
vt -0.0394699983 -0.557161987
vt -0.0418800004 -0.579051971
vt -0.0160009991 -0.570842981
vt -0.0418800004 -0.579051971
vt -0.0169050004 -0.579051971
vt -0.0169050004 -0.579051971
vt -0.0418800004 -0.579051971
vt -0.0394699983 -0.600941002
vt -0.0169050004 -0.579051971
vt -0.0394699983 -0.600941002
vt -0.0160009991 -0.587260008
vt -0.0160009991 -0.587260008
vt -0.0394699983 -0.600941002
vt -0.0325310007 -0.620190024
vt -0.0160009991 -0.587260008
vt -0.0325310007 -0.620190024
vt -0.0133990003 -0.594479024
vt -0.0133990003 -0.594479024
vt -0.0325310007 -0.620190024
vt -0.0219000001 -0.634477019
vt -0.0133990003 -0.594479024
vt -0.0219000001 -0.634477019
vt -0.00941199996 -0.599835992
vt -0.00941199996 -0.599835992
vt -0.0219000001 -0.634477019
vt -0.00885900017 -0.642078996
vt -0.00941199996 -0.599835992
vt -0.00885900017 -0.642078996
vt -0.00452199997 -0.602687001
vt -0.00452199997 -0.602687001
vt -0.00885900017 -0.642078996
vt 0.0050189998 -0.642078996
vt -0.00452199997 -0.602687001
vt 0.0050189998 -0.642078996
vt 0.00068300002 -0.602687001
vt -1.16999996 -0.602687001
vt -1.16999996 -0.642078996
vt -1.16999996 -0.642078996
vt 0.00068300002 -0.602687001
vt 0.0050189998 -0.642078996
vt 0.00557299983 -0.599835992
vt 0.00557299983 -0.599835992
vt 0.0050189998 -0.642078996
vt 0.0180600006 -0.634477019
vt -1.16999996 -0.599835992
vt -1.16999996 -0.634477019
vt -1.16999996 -0.599835992
vt 0.00557299983 -0.599835992
vt 0.0180600006 -0.634477019
vt 0.0286919996 -0.620190024
vt 0.00557299983 -0.599835992
vt 0.0286919996 -0.620190024
vt 0.00956000015 -0.594479024
vt 0.00956000015 -0.594479024
vt 0.0286919996 -0.620190024
vt 0.035631001 -0.600941002
vt 0.00956000015 -0.594479024
vt 0.035631001 -0.600941002
vt 0.0121619999 -0.587260008
vt 0.0121619999 -0.587260008
vt 0.035631001 -0.600941002
vt 0.0380400009 -0.579051971
vt -1.16999996 -0.579051971
vt -1.14999998 -0.557161987
vt -1.16999996 -0.557161987
vt -1.16999996 -0.557161987
vt -1.14999998 -0.557161987
vt -1.14999998 -0.537913024
vt -1.16999996 -0.557161987
vt -1.14999998 -0.537913024
vt -1.16999996 -0.537913024
vt -1.16999996 -0.537913024
vt -1.14999998 -0.537913024
vt -1.14999998 -0.523626029
vt -1.16999996 -0.537913024
vt -1.14999998 -0.523626029
vt -1.16999996 -0.523626029
vt -0.0180600006 1.16999996
vt -0.0180600006 1.14999998
vt -0.0050189998 1.14999998
vt -0.0180600006 1.16999996
vt -0.0050189998 1.14999998
vt -0.0050189998 1.16999996
vt -0.0050189998 1.16999996
vt -0.0050189998 1.14999998
vt 0.00885900017 1.14999998
vt -0.0050189998 1.16999996
vt 0.00885900017 1.14999998
vt 0.00885900017 1.16999996
vt 0.00885900017 1.16999996
vt 0.00885900017 1.14999998
vt 0.0219000001 1.14999998
vt 0.00885900017 1.16999996
vt 0.0219000001 1.14999998
vt 0.0219000001 1.16999996
vt 1.16999996 -0.523626029
vt 1.14999998 -0.523626029
vt 1.14999998 -0.537913024
vt 1.16999996 -0.523626029
vt 1.14999998 -0.537913024
vt 1.16999996 -0.537913024
vt 1.16999996 -0.537913024
vt 1.14999998 -0.537913024
vt 1.14999998 -0.557161987
vt 1.16999996 -0.537913024
vt 1.14999998 -0.557161987
vt 1.16999996 -0.557161987
vt 1.16999996 -0.557161987
vt 1.14999998 -0.557161987
vt 1.14999998 -0.579051971
vt 1.16999996 -0.557161987
vt 1.14999998 -0.579051971
vt 1.16999996 -0.579051971
vt 1.16999996 -0.579051971
vt 1.14999998 -0.579051971
vt 1.14999998 -0.600941002
vt 1.16999996 -0.579051971
vt 1.14999998 -0.600941002
vt 1.16999996 -0.600941002
vt 1.16999996 -0.600941002
vt 1.14999998 -0.600941002
vt 1.14999998 -0.620190024
vt 1.16999996 -0.600941002
vt 1.14999998 -0.620190024
vt 1.16999996 -0.620190024
vt 1.16999996 -0.620190024
vt 1.14999998 -0.620190024
vt 1.14999998 -0.634477019
vt 1.16999996 -0.620190024
vt 1.14999998 -0.634477019
vt 1.16999996 -0.634477019
vt -0.0219000001 1.16999996
vt -0.0219000001 1.14999998
vt -0.00885900017 1.14999998
vt -0.0219000001 1.16999996
vt -0.00885900017 1.14999998
vt -0.00885900017 1.16999996
vt -0.00885900017 1.16999996
vt -0.00885900017 1.14999998
vt 0.0050189998 1.14999998
vt -0.00885900017 1.16999996
vt 0.0050189998 1.14999998
vt 0.0050189998 1.16999996
vt 0.0050189998 1.16999996
vt 0.0050189998 1.14999998
vt 0.0180600006 1.14999998
vt 0.0050189998 1.16999996
vt 0.0180600006 1.14999998
vt 0.0180600006 1.16999996
vt -1.16999996 -0.634477019
vt -1.14999998 -0.634477019
vt -1.14999998 -0.620190024
vt -1.16999996 -0.634477019
vt -1.14999998 -0.620190024
vt -1.16999996 -0.620190024
vt -1.16999996 -0.620190024
vt -1.14999998 -0.620190024
vt -1.14999998 -0.600941002
vt -1.16999996 -0.620190024
vt -1.14999998 -0.600941002
vt -1.16999996 -0.600941002
vt -1.16999996 -0.600941002
vt -1.14999998 -0.600941002
vt -1.14999998 -0.579051971
vt -0.0121619999 -0.587260008
vt -0.0130650001 -0.579051971
vt -0.0330450013 -0.579051971
vt -0.0330450013 -0.579051971
vt -0.0130650001 -0.579051971
vt -0.0121619999 -0.570842981
vt -1.25 -0.579051971
vt -1.16999996 -0.570842981
vt -1.25 -0.570842981
vt -1.25 -0.570842981
vt -1.16999996 -0.570842981
vt -1.16999996 -0.563624978
vt -1.25 -0.570842981
vt -1.16999996 -0.563624978
vt -1.25 -0.563624978
vt -1.25 -0.563624978
vt -1.16999996 -0.563624978
vt -1.16999996 -0.558266997
vt -1.25 -0.563624978
vt -1.16999996 -0.558266997
vt -1.25 -0.558266997
vt -0.00557299983 1.25
vt -0.00557299983 1.16999996
vt -0.00068300002 1.16999996
vt -0.00557299983 1.25
vt -0.00068300002 1.16999996
vt -0.00068300002 1.25
vt -0.00068300002 1.25
vt -0.00068300002 1.16999996
vt 0.00452199997 1.16999996
vt -0.00068300002 1.25
vt 0.00452199997 1.16999996
vt 0.00452199997 1.25
vt 0.00452199997 1.25
vt 0.00452199997 1.16999996
vt 0.00941199996 1.16999996
vt 0.00452199997 1.25
vt 0.00941199996 1.16999996
vt 0.00941199996 1.25
vt 1.25 -0.558266997
vt 1.16999996 -0.558266997
vt 1.16999996 -0.563624978
vt 1.25 -0.558266997
vt 1.16999996 -0.563624978
vt 1.25 -0.563624978
vt 1.25 -0.563624978
vt 1.16999996 -0.563624978
vt 1.16999996 -0.570842981
vt 1.25 -0.563624978
vt 1.16999996 -0.570842981
vt 1.25 -0.570842981
vt 1.25 -0.570842981
vt 1.16999996 -0.570842981
vt 1.16999996 -0.579051971
vt 1.25 -0.570842981
vt 1.16999996 -0.579051971
vt 1.25 -0.579051971
vt 1.25 -0.579051971
vt 1.16999996 -0.579051971
vt 1.16999996 -0.587260008
vt 1.25 -0.579051971
vt 1.16999996 -0.587260008
vt 1.25 -0.587260008
vt 1.25 -0.587260008
vt 1.16999996 -0.587260008
vt 1.16999996 -0.594479024
vt 1.25 -0.587260008
vt 1.16999996 -0.594479024
vt 1.25 -0.594479024
vt 1.25 -0.594479024
vt 1.16999996 -0.594479024
vt 1.16999996 -0.599835992
vt 1.25 -0.594479024
vt 1.16999996 -0.599835992
vt 1.25 -0.599835992
vt -0.00941199996 1.25
vt -0.00941199996 1.16999996
vt -0.00452199997 1.16999996
vt -0.00941199996 1.25
vt -0.00452199997 1.16999996
vt -0.00452199997 1.25
vt -0.00452199997 1.25
vt -0.00452199997 1.16999996
vt 0.00068300002 1.16999996
vt -0.00452199997 1.25
vt 0.00068300002 1.16999996
vt 0.00068300002 1.25
vt 0.00068300002 1.25
vt 0.00068300002 1.16999996
vt 0.00557299983 1.16999996
vt 0.00068300002 1.25
vt 0.00557299983 1.16999996
vt 0.00557299983 1.25
vt -1.25 -0.599835992
vt -1.16999996 -0.599835992
vt -1.16999996 -0.594479024
vt -1.25 -0.599835992
vt -1.16999996 -0.594479024
vt -1.25 -0.594479024
vt -1.25 -0.594479024
vt -1.16999996 -0.594479024
vt -1.16999996 -0.587260008
vt -1.25 -0.594479024
vt -1.16999996 -0.587260008
vt -1.25 -0.587260008
vt -1.25 -0.587260008
vt -1.16999996 -0.587260008
vt -1.16999996 -0.579051971
vt 0.0121619999 -0.570842981
vt 0.0130650001 -0.579051971
vt 0.0380400009 -0.579051971
vt 0.0380400009 -0.579051971
vt 0.0130650001 -0.579051971
vt 0.0121619999 -0.587260008
vt 0.0425329991 -0.56832099
vt 0.0410379991 -0.557829022
vt -0.00191999995 -0.579051971
vt -0.00191999995 -0.579051971
vt 0.0410379991 -0.557829022
vt 0.0385829993 -0.547811985
vt -1.44000006 -0.579051971
vt -1.44000006 -0.547811985
vt -1.44000006 -0.579051971
vt -0.00191999995 -0.579051971
vt 0.0385829993 -0.547811985
vt 0.0352240019 -0.538492978
vt -1.44000006 -0.579051971
vt -1.44000006 -0.538492978
vt -1.44000006 -0.579051971
vt -0.00191999995 -0.579051971
vt 0.0352240019 -0.538492978
vt 0.0310350005 -0.530079007
vt -1.44000006 -0.579051971
vt -1.44000006 -0.530079007
vt -1.44000006 -0.579051971
vt -0.00191999995 -0.579051971
vt 0.0310350005 -0.530079007
vt 0.0261090007 -0.522759974
vt -1.44000006 -0.579051971
vt -1.44000006 -0.522759974
vt -1.44000006 -0.579051971
vt -0.00191999995 -0.579051971
vt 0.0261090007 -0.522759974
vt 0.0205579996 -0.516698003
vt -1.44000006 -0.579051971
vt -1.44000006 -0.516698003
vt -1.44000006 -0.579051971
vt -0.00191999995 -0.579051971
vt 0.0205579996 -0.516698003
vt 0.0145039996 -0.512028992
vt -1.44000006 -0.579051971
vt -1.44000006 -0.512028992
vt -1.44000006 -0.579051971
vt -0.00191999995 -0.579051971
vt 0.0145039996 -0.512028992
vt 0.00808400009 -0.508857012
vt -1.44000006 -0.579051971
vt -1.44000006 -0.508857012
vt -1.44000006 -0.579051971
vt -0.00191999995 -0.579051971
vt 0.00808400009 -0.508857012
vt 0.00144000002 -0.507252991
vt -1.44000006 -0.579051971
vt -1.44000006 -0.507252991
vt -1.44000006 -0.579051971
vt -0.00191999995 -0.579051971
vt 0.00144000002 -0.507252991
vt -0.00527899992 -0.507252991
vt -1.44000006 -0.579051971
vt -1.44000006 -0.507252991
vt -1.44000006 -0.579051971
vt -0.00191999995 -0.579051971
vt -0.00527899992 -0.507252991
vt -0.0119230002 -0.508857012
vt -1.44000006 -0.579051971
vt -1.44000006 -0.508857012
vt -1.44000006 -0.579051971
vt -0.00191999995 -0.579051971
vt -0.0119230002 -0.508857012
vt -0.018344 -0.512028992
vt -1.44000006 -0.579051971
vt -1.44000006 -0.512028992
vt -1.44000006 -0.579051971
vt -0.00191999995 -0.579051971
vt -0.018344 -0.512028992
vt -0.0243970007 -0.516698003
vt -1.44000006 -0.579051971
vt -1.44000006 -0.516698003
vt -1.44000006 -0.579051971
vt -0.00191999995 -0.579051971
vt -0.0243970007 -0.516698003
vt -0.0299490001 -0.522759974
vt -1.44000006 -0.579051971
vt -1.44000006 -0.522759974
vt -1.44000006 -0.579051971
vt -0.00191999995 -0.579051971
vt -0.0299490001 -0.522759974
vt -0.0348739997 -0.530079007
vt -1.44000006 -0.579051971
vt -1.44000006 -0.530079007
vt -1.44000006 -0.579051971
vt -0.00191999995 -0.579051971
vt -0.0348739997 -0.530079007
vt -0.0390629992 -0.538492978
vt -1.44000006 -0.579051971
vt -1.44000006 -0.538492978
vt -1.44000006 -0.579051971
vt -0.00191999995 -0.579051971
vt -0.0390629992 -0.538492978
vt -0.0424229987 -0.547811985
vt -1.44000006 -0.579051971
vt -1.44000006 -0.547811985
vt -1.44000006 -0.579051971
vt -0.00191999995 -0.579051971
vt -0.0424229987 -0.547811985
vt -0.0448770002 -0.557829022
vt -1.44000006 -0.579051971
vt -1.44000006 -0.557829022
vt -1.44000006 -0.579051971
vt -0.00191999995 -0.579051971
vt -0.0448770002 -0.557829022
vt -0.0463720001 -0.56832099
vt -1.44000006 -0.579051971
vt -1.44000006 -0.56832099
vt -1.44000006 -0.579051971
vt -0.00191999995 -0.579051971
vt -0.0463720001 -0.56832099
vt -0.046875 -0.579051971
vt -1.44000006 -0.579051971
vt -1.44000006 -0.579051971
vt -1.44000006 -0.579051971
vt -0.00191999995 -0.579051971
vt -0.046875 -0.579051971
vt -0.0463720001 -0.589783013
vt -1.44000006 -0.579051971
vt -1.44000006 -0.589783013
vt -1.44000006 -0.579051971
vt -0.00191999995 -0.579051971
vt -0.0463720001 -0.589783013
vt -0.0448770002 -0.600274026
vt -1.44000006 -0.579051971
vt -1.44000006 -0.600274026
vt -1.44000006 -0.579051971
vt -0.00191999995 -0.579051971
vt -0.0448770002 -0.600274026
vt -0.0424229987 -0.610291004
vt -1.44000006 -0.579051971
vt -1.44000006 -0.610291004
vt -1.44000006 -0.579051971
vt -0.00191999995 -0.579051971
vt -0.0424229987 -0.610291004
vt -0.0390629992 -0.619611025
vt -1.44000006 -0.579051971
vt -1.44000006 -0.619611025
vt -1.44000006 -0.579051971
vt -0.00191999995 -0.579051971
vt -0.0390629992 -0.619611025
vt -0.0348739997 -0.628023982
vt -1.44000006 -0.579051971
vt -1.44000006 -0.628023982
vt -1.44000006 -0.579051971
vt -0.00191999995 -0.579051971
vt -0.0348739997 -0.628023982
vt -0.0299490001 -0.635344028
vt -1.44000006 -0.579051971
vt -1.44000006 -0.635344028
vt -1.44000006 -0.579051971
vt -0.00191999995 -0.579051971
vt -0.0299490001 -0.635344028
vt -0.0243970007 -0.641406
vt -1.44000006 -0.579051971
vt -1.44000006 -0.641406
vt -1.44000006 -0.579051971
vt -0.00191999995 -0.579051971
vt -0.0243970007 -0.641406
vt -0.018344 -0.64607501
vt -1.44000006 -0.579051971
vt -1.44000006 -0.64607501
vt -1.44000006 -0.579051971
vt -0.00191999995 -0.579051971
vt -0.018344 -0.64607501
vt -0.0119230002 -0.649246991
vt -1.44000006 -0.579051971
vt -1.44000006 -0.649246991
vt -1.44000006 -0.579051971
vt -0.00191999995 -0.579051971
vt -0.0119230002 -0.649246991
vt -0.00527899992 -0.650851011
vt -1.44000006 -0.579051971
vt -1.44000006 -0.650851011
vt -1.44000006 -0.579051971
vt -0.00191999995 -0.579051971
vt -0.00527899992 -0.650851011
vt 0.00144000002 -0.650851011
vt -1.44000006 -0.579051971
vt -1.44000006 -0.650851011
vt -1.44000006 -0.579051971
vt -0.00191999995 -0.579051971
vt 0.00144000002 -0.650851011
vt 0.00808400009 -0.649246991
vt -1.44000006 -0.579051971
vt -1.44000006 -0.649246991
vt -1.44000006 -0.579051971
vt -0.00191999995 -0.579051971
vt 0.00808400009 -0.649246991
vt 0.0145039996 -0.64607501
vt -1.44000006 -0.579051971
vt -1.44000006 -0.64607501
vt -1.44000006 -0.579051971
vt -0.00191999995 -0.579051971
vt 0.0145039996 -0.64607501
vt 0.0205579996 -0.641406
vt -1.44000006 -0.579051971
vt -1.44000006 -0.641406
vt -1.44000006 -0.579051971
vt -0.00191999995 -0.579051971
vt 0.0205579996 -0.641406
vt 0.0261090007 -0.635344028
vt -1.44000006 -0.579051971
vt -1.44000006 -0.635344028
vt -1.44000006 -0.579051971
vt -0.00191999995 -0.579051971
vt 0.0261090007 -0.635344028
vt 0.0310350005 -0.628023982
vt -1.44000006 -0.579051971
vt -1.44000006 -0.628023982
vt -1.44000006 -0.579051971
vt -0.00191999995 -0.579051971
vt 0.0310350005 -0.628023982
vt 0.0352240019 -0.619611025
vt -1.44000006 -0.579051971
vt -1.44000006 -0.619611025
vt -1.44000006 -0.579051971
vt -0.00191999995 -0.579051971
vt 0.0352240019 -0.619611025
vt 0.0385829993 -0.610291004
vt -1.44000006 -0.579051971
vt -1.44000006 -0.610291004
vt -1.44000006 -0.579051971
vt -0.00191999995 -0.579051971
vt 0.0385829993 -0.610291004
vt 0.0410379991 -0.600274026
vt -1.44000006 -0.579051971
vt -1.44000006 -0.600274026
vt -1.44000006 -0.579051971
vt -0.00191999995 -0.579051971
vt 0.0410379991 -0.600274026
vt 0.0425329991 -0.589783013
vt -1.44000006 -0.579051971
vt -1.44000006 -0.589783013
vt -1.44000006 -0.579051971
vt -0.00191999995 -0.579051971
vt 0.0425329991 -0.589783013
vt 0.0430350006 -0.579051971
vt -0.00191999995 -0.579051971
vt 0.0430350006 -0.579051971
vt 0.0425329991 -0.56832099
vt -0.0145039996 -0.512028992
vt -0.0205579996 -0.516698003
vt 0.00191999995 -0.579051971
vt 0.00191999995 -0.579051971
vt -0.0205579996 -0.516698003
vt -0.0261090007 -0.522759974
vt -1.41499996 -0.579051971
vt -1.41499996 -0.522759974
vt -1.41499996 -0.579051971
vt 0.00191999995 -0.579051971
vt -0.0261090007 -0.522759974
vt -0.0310350005 -0.530079007
vt -1.41499996 -0.579051971
vt -1.41499996 -0.530079007
vt -1.41499996 -0.579051971
vt 0.00191999995 -0.579051971
vt -0.0310350005 -0.530079007
vt -0.0352240019 -0.538492978
vt -1.41499996 -0.579051971
vt -1.41499996 -0.538492978
vt -1.41499996 -0.579051971
vt 0.00191999995 -0.579051971
vt -0.0352240019 -0.538492978
vt -0.0385829993 -0.547811985
vt -1.41499996 -0.579051971
vt -1.41499996 -0.547811985
vt -1.41499996 -0.579051971
vt 0.00191999995 -0.579051971
vt -0.0385829993 -0.547811985
vt -0.0410379991 -0.557829022
vt -1.41499996 -0.579051971
vt -1.41499996 -0.557829022
vt -1.41499996 -0.579051971
vt 0.00191999995 -0.579051971
vt -0.0410379991 -0.557829022
vt -0.0425329991 -0.56832099
vt -1.41499996 -0.579051971
vt -1.41499996 -0.56832099
vt -1.41499996 -0.579051971
vt 0.00191999995 -0.579051971
vt -0.0425329991 -0.56832099
vt -0.0430350006 -0.579051971
vt -1.41499996 -0.579051971
vt -1.41499996 -0.579051971
vt -1.41499996 -0.579051971
vt 0.00191999995 -0.579051971
vt -0.0430350006 -0.579051971
vt -0.0425329991 -0.589783013
vt -1.41499996 -0.579051971
vt -1.41499996 -0.589783013
vt -1.41499996 -0.579051971
vt 0.00191999995 -0.579051971
vt -0.0425329991 -0.589783013
vt -0.0410379991 -0.600274026
vt -1.41499996 -0.579051971
vt -1.41499996 -0.600274026
vt -1.41499996 -0.579051971
vt 0.00191999995 -0.579051971
vt -0.0410379991 -0.600274026
vt -0.0385829993 -0.610291004
vt -1.41499996 -0.579051971
vt -1.41499996 -0.610291004
vt -1.41499996 -0.579051971
vt 0.00191999995 -0.579051971
vt -0.0385829993 -0.610291004
vt -0.0352240019 -0.619611025
vt -1.41499996 -0.579051971
vt -1.41499996 -0.619611025
vt -1.41499996 -0.579051971
vt 0.00191999995 -0.579051971
vt -0.0352240019 -0.619611025
vt -0.0310350005 -0.628023982
vt -1.41499996 -0.579051971
vt -1.41499996 -0.628023982
vt -1.41499996 -0.579051971
vt 0.00191999995 -0.579051971
vt -0.0310350005 -0.628023982
vt -0.0261090007 -0.635344028
vt -1.41499996 -0.579051971
vt -1.41499996 -0.635344028
vt -1.41499996 -0.579051971
vt 0.00191999995 -0.579051971
vt -0.0261090007 -0.635344028
vt -0.0205579996 -0.641406
vt -1.41499996 -0.579051971
vt -1.41499996 -0.641406
vt -1.41499996 -0.579051971
vt 0.00191999995 -0.579051971
vt -0.0205579996 -0.641406
vt -0.0145039996 -0.64607501
vt -1.41499996 -0.579051971
vt -1.41499996 -0.64607501
vt -1.41499996 -0.579051971
vt 0.00191999995 -0.579051971
vt -0.0145039996 -0.64607501
vt -0.00808400009 -0.649246991
vt -1.41499996 -0.579051971
vt -1.41499996 -0.649246991
vt -1.41499996 -0.579051971
vt 0.00191999995 -0.579051971
vt -0.00808400009 -0.649246991
vt -0.00144000002 -0.650851011
vt -1.41499996 -0.579051971
vt -1.41499996 -0.650851011
vt -1.41499996 -0.579051971
vt 0.00191999995 -0.579051971
vt -0.00144000002 -0.650851011
vt 0.00527899992 -0.650851011
vt -1.41499996 -0.579051971
vt -1.41499996 -0.650851011
vt -1.41499996 -0.579051971
vt 0.00191999995 -0.579051971
vt 0.00527899992 -0.650851011
vt 0.0119230002 -0.649246991
vt -1.41499996 -0.579051971
vt -1.41499996 -0.649246991
vt -1.41499996 -0.579051971
vt 0.00191999995 -0.579051971
vt 0.0119230002 -0.649246991
vt 0.018344 -0.64607501
vt -1.41499996 -0.579051971
vt -1.41499996 -0.64607501
vt -1.41499996 -0.579051971
vt 0.00191999995 -0.579051971
vt 0.018344 -0.64607501
vt 0.0243970007 -0.641406
vt -1.41499996 -0.579051971
vt -1.41499996 -0.641406
vt -1.41499996 -0.579051971
vt 0.00191999995 -0.579051971
vt 0.0243970007 -0.641406
vt 0.0299490001 -0.635344028
vt -1.41499996 -0.579051971
vt -1.41499996 -0.635344028
vt -1.41499996 -0.579051971
vt 0.00191999995 -0.579051971
vt 0.0299490001 -0.635344028
vt 0.0348739997 -0.628023982
vt -1.41499996 -0.579051971
vt -1.41499996 -0.628023982
vt -1.41499996 -0.579051971
vt 0.00191999995 -0.579051971
vt 0.0348739997 -0.628023982
vt 0.0390629992 -0.619611025
vt -1.41499996 -0.579051971
vt -1.41499996 -0.619611025
vt -1.41499996 -0.579051971
vt 0.00191999995 -0.579051971
vt 0.0390629992 -0.619611025
vt 0.0424229987 -0.610291004
vt -1.41499996 -0.579051971
vt -1.41499996 -0.610291004
vt -1.41499996 -0.579051971
vt 0.00191999995 -0.579051971
vt 0.0424229987 -0.610291004
vt 0.0448770002 -0.600274026
vt -1.41499996 -0.579051971
vt -1.41499996 -0.600274026
vt -1.41499996 -0.579051971
vt 0.00191999995 -0.579051971
vt 0.0448770002 -0.600274026
vt 0.0463720001 -0.589783013
vt -1.41499996 -0.579051971
vt -1.41499996 -0.589783013
vt -1.41499996 -0.579051971
vt 0.00191999995 -0.579051971
vt 0.0463720001 -0.589783013
vt 0.046875 -0.579051971
vt -1.41499996 -0.579051971
vt -1.41499996 -0.579051971
vt -1.41499996 -0.579051971
vt 0.00191999995 -0.579051971
vt 0.046875 -0.579051971
vt 0.0463720001 -0.56832099
vt -1.41499996 -0.579051971
vt -1.41499996 -0.56832099
vt -1.41499996 -0.579051971
vt 0.00191999995 -0.579051971
vt 0.0463720001 -0.56832099
vt 0.0448770002 -0.557829022
vt -1.41499996 -0.579051971
vt -1.41499996 -0.557829022
vt -1.41499996 -0.579051971
vt 0.00191999995 -0.579051971
vt 0.0448770002 -0.557829022
vt 0.0424229987 -0.547811985
vt -1.41499996 -0.579051971
vt -1.41499996 -0.547811985
vt -1.41499996 -0.579051971
vt 0.00191999995 -0.579051971
vt 0.0424229987 -0.547811985
vt 0.0390629992 -0.538492978
vt -1.41499996 -0.579051971
vt -1.41499996 -0.538492978
vt -1.41499996 -0.579051971
vt 0.00191999995 -0.579051971
vt 0.0390629992 -0.538492978
vt 0.0348739997 -0.530079007
vt -1.41499996 -0.579051971
vt -1.41499996 -0.530079007
vt -1.41499996 -0.579051971
vt 0.00191999995 -0.579051971
vt 0.0348739997 -0.530079007
vt 0.0299490001 -0.522759974
vt -1.41499996 -0.579051971
vt -1.41499996 -0.522759974
vt -1.41499996 -0.579051971
vt 0.00191999995 -0.579051971
vt 0.0299490001 -0.522759974
vt 0.0243970007 -0.516698003
vt -1.41499996 -0.579051971
vt -1.41499996 -0.516698003
vt -1.41499996 -0.579051971
vt 0.00191999995 -0.579051971
vt 0.0243970007 -0.516698003
vt 0.018344 -0.512028992
vt -1.41499996 -0.579051971
vt -1.41499996 -0.512028992
vt -1.41499996 -0.579051971
vt 0.00191999995 -0.579051971
vt 0.018344 -0.512028992
vt 0.0119230002 -0.508857012
vt -1.41499996 -0.579051971
vt -1.41499996 -0.508857012
vt -1.41499996 -0.579051971
vt 0.00191999995 -0.579051971
vt 0.0119230002 -0.508857012
vt 0.00527899992 -0.507252991
vt -1.41499996 -0.579051971
vt -1.41499996 -0.507252991
vt -1.41499996 -0.579051971
vt 0.00191999995 -0.579051971
vt 0.00527899992 -0.507252991
vt -0.00144000002 -0.507252991
vt -1.41499996 -0.579051971
vt -1.41499996 -0.507252991
vt -1.41499996 -0.579051971
vt 0.00191999995 -0.579051971
vt -0.00144000002 -0.507252991
vt -0.00808400009 -0.508857012
vt 0.00191999995 -0.579051971
vt -0.00808400009 -0.508857012
vt -0.0145039996 -0.512028992
vt -1.44000006 -0.589783013
vt -1.41499996 -0.579051971
vt -1.44000006 -0.579051971
vt -1.44000006 -0.579051971
vt -1.41499996 -0.579051971
vt -1.41499996 -0.56832099
vt -1.41499996 -0.579051971
vt -1.44000006 -0.589783013
vt -1.41499996 -0.589783013
vt -1.41499996 -0.589783013
vt -1.44000006 -0.589783013
vt -1.44000006 -0.600274026
vt -1.41499996 -0.589783013
vt -1.44000006 -0.600274026
vt -1.41499996 -0.600274026
vt -1.41499996 -0.600274026
vt -1.44000006 -0.600274026
vt -1.44000006 -0.610291004
vt -1.41499996 -0.600274026
vt -1.44000006 -0.610291004
vt -1.41499996 -0.610291004
vt -1.41499996 -0.610291004
vt -1.44000006 -0.610291004
vt -1.44000006 -0.619611025
vt -1.41499996 -0.610291004
vt -1.44000006 -0.619611025
vt -1.41499996 -0.619611025
vt -1.41499996 -0.619611025
vt -1.44000006 -0.619611025
vt -1.44000006 -0.628023982
vt -1.41499996 -0.619611025
vt -1.44000006 -0.628023982
vt -1.41499996 -0.628023982
vt -1.41499996 -0.628023982
vt -1.44000006 -0.628023982
vt -1.44000006 -0.635344028
vt -1.41499996 -0.628023982
vt -1.44000006 -0.635344028
vt -1.41499996 -0.635344028
vt -1.41499996 -0.635344028
vt -1.44000006 -0.635344028
vt -1.44000006 -0.641406
vt -1.41499996 -0.635344028
vt -1.44000006 -0.641406
vt -1.41499996 -0.641406
vt 0.0205579996 1.41499996
vt 0.0205579996 1.44000006
vt 0.0145039996 1.44000006
vt 0.0205579996 1.41499996
vt 0.0145039996 1.44000006
vt 0.0145039996 1.41499996
vt 0.0145039996 1.41499996
vt 0.0145039996 1.44000006
vt 0.00808400009 1.44000006
vt 0.0145039996 1.41499996
vt 0.00808400009 1.44000006
vt 0.00808400009 1.41499996
vt 0.00808400009 1.41499996
vt 0.00808400009 1.44000006
vt 0.00144000002 1.44000006
vt 0.00808400009 1.41499996
vt 0.00144000002 1.44000006
vt 0.00144000002 1.41499996
vt 0.00144000002 1.41499996
vt 0.00144000002 1.44000006
vt -0.00527899992 1.44000006
vt 0.00144000002 1.41499996
vt -0.00527899992 1.44000006
vt -0.00527899992 1.41499996
vt -0.00527899992 1.41499996
vt -0.00527899992 1.44000006
vt -0.0119230002 1.44000006
vt -0.00527899992 1.41499996
vt -0.0119230002 1.44000006
vt -0.0119230002 1.41499996
vt -0.0119230002 1.41499996
vt -0.0119230002 1.44000006
vt -0.018344 1.44000006
vt -0.0119230002 1.41499996
vt -0.018344 1.44000006
vt -0.018344 1.41499996
vt -0.018344 1.41499996
vt -0.018344 1.44000006
vt -0.0243970007 1.44000006
vt -0.018344 1.41499996
vt -0.0243970007 1.44000006
vt -0.0243970007 1.41499996
vt 1.41499996 -0.641406
vt 1.44000006 -0.641406
vt 1.44000006 -0.635344028
vt 1.41499996 -0.641406
vt 1.44000006 -0.635344028
vt 1.41499996 -0.635344028
vt 1.41499996 -0.635344028
vt 1.44000006 -0.635344028
vt 1.44000006 -0.628023982
vt 1.41499996 -0.635344028
vt 1.44000006 -0.628023982
vt 1.41499996 -0.628023982
vt 1.41499996 -0.628023982
vt 1.44000006 -0.628023982
vt 1.44000006 -0.619611025
vt 1.41499996 -0.628023982
vt 1.44000006 -0.619611025
vt 1.41499996 -0.619611025
vt 1.41499996 -0.619611025
vt 1.44000006 -0.619611025
vt 1.44000006 -0.610291004
vt 1.41499996 -0.619611025
vt 1.44000006 -0.610291004
vt 1.41499996 -0.610291004
vt 1.41499996 -0.610291004
vt 1.44000006 -0.610291004
vt 1.44000006 -0.600274026
vt 1.41499996 -0.610291004
vt 1.44000006 -0.600274026
vt 1.41499996 -0.600274026
vt 1.41499996 -0.600274026
vt 1.44000006 -0.600274026
vt 1.44000006 -0.589783013
vt 1.41499996 -0.600274026
vt 1.44000006 -0.589783013
vt 1.41499996 -0.589783013
vt 1.41499996 -0.589783013
vt 1.44000006 -0.589783013
vt 1.44000006 -0.579051971
vt 1.41499996 -0.589783013
vt 1.44000006 -0.579051971
vt 1.41499996 -0.579051971
vt 1.41499996 -0.579051971
vt 1.44000006 -0.579051971
vt 1.44000006 -0.56832099
vt 1.41499996 -0.579051971
vt 1.44000006 -0.56832099
vt 1.41499996 -0.56832099
vt 1.41499996 -0.56832099
vt 1.44000006 -0.56832099
vt 1.44000006 -0.557829022
vt 1.41499996 -0.56832099
vt 1.44000006 -0.557829022
vt 1.41499996 -0.557829022
vt 1.41499996 -0.557829022
vt 1.44000006 -0.557829022
vt 1.44000006 -0.547811985
vt 1.41499996 -0.557829022
vt 1.44000006 -0.547811985
vt 1.41499996 -0.547811985
vt 1.41499996 -0.547811985
vt 1.44000006 -0.547811985
vt 1.44000006 -0.538492978
vt 1.41499996 -0.547811985
vt 1.44000006 -0.538492978
vt 1.41499996 -0.538492978
vt 1.41499996 -0.538492978
vt 1.44000006 -0.538492978
vt 1.44000006 -0.530079007
vt 1.41499996 -0.538492978
vt 1.44000006 -0.530079007
vt 1.41499996 -0.530079007
vt 1.41499996 -0.530079007
vt 1.44000006 -0.530079007
vt 1.44000006 -0.522759974
vt 1.41499996 -0.530079007
vt 1.44000006 -0.522759974
vt 1.41499996 -0.522759974
vt 1.41499996 -0.522759974
vt 1.44000006 -0.522759974
vt 1.44000006 -0.516698003
vt 1.41499996 -0.522759974
vt 1.44000006 -0.516698003
vt 1.41499996 -0.516698003
vt 0.0243970007 1.41499996
vt 0.0243970007 1.44000006
vt 0.018344 1.44000006
vt 0.0243970007 1.41499996
vt 0.018344 1.44000006
vt 0.018344 1.41499996
vt 0.018344 1.41499996
vt 0.018344 1.44000006
vt 0.0119230002 1.44000006
vt 0.018344 1.41499996
vt 0.0119230002 1.44000006
vt 0.0119230002 1.41499996
vt 0.0119230002 1.41499996
vt 0.0119230002 1.44000006
vt 0.00527899992 1.44000006
vt 0.0119230002 1.41499996
vt 0.00527899992 1.44000006
vt 0.00527899992 1.41499996
vt 0.00527899992 1.41499996
vt 0.00527899992 1.44000006
vt -0.00144000002 1.44000006
vt 0.00527899992 1.41499996
vt -0.00144000002 1.44000006
vt -0.00144000002 1.41499996
vt -0.00144000002 1.41499996
vt -0.00144000002 1.44000006
vt -0.00808400009 1.44000006
vt -0.00144000002 1.41499996
vt -0.00808400009 1.44000006
vt -0.00808400009 1.41499996
vt -0.00808400009 1.41499996
vt -0.00808400009 1.44000006
vt -0.0145039996 1.44000006
vt -0.00808400009 1.41499996
vt -0.0145039996 1.44000006
vt -0.0145039996 1.41499996
vt -0.0145039996 1.41499996
vt -0.0145039996 1.44000006
vt -0.0205579996 1.44000006
vt -0.0145039996 1.41499996
vt -0.0205579996 1.44000006
vt -0.0205579996 1.41499996
vt -1.41499996 -0.516698003
vt -1.44000006 -0.516698003
vt -1.44000006 -0.522759974
vt -1.41499996 -0.516698003
vt -1.44000006 -0.522759974
vt -1.41499996 -0.522759974
vt -1.41499996 -0.522759974
vt -1.44000006 -0.522759974
vt -1.44000006 -0.530079007
vt -1.41499996 -0.522759974
vt -1.44000006 -0.530079007
vt -1.41499996 -0.530079007
vt -1.41499996 -0.530079007
vt -1.44000006 -0.530079007
vt -1.44000006 -0.538492978
vt -1.41499996 -0.530079007
vt -1.44000006 -0.538492978
vt -1.41499996 -0.538492978
vt -1.41499996 -0.538492978
vt -1.44000006 -0.538492978
vt -1.44000006 -0.547811985
vt -1.41499996 -0.538492978
vt -1.44000006 -0.547811985
vt -1.41499996 -0.547811985
vt -1.41499996 -0.547811985
vt -1.44000006 -0.547811985
vt -1.44000006 -0.557829022
vt -1.41499996 -0.547811985
vt -1.44000006 -0.557829022
vt -1.41499996 -0.557829022
vt -1.41499996 -0.557829022
vt -1.44000006 -0.557829022
vt -1.44000006 -0.56832099
vt -1.41499996 -0.557829022
vt -1.44000006 -0.56832099
vt -1.41499996 -0.56832099
vt -1.41499996 -0.56832099
vt -1.44000006 -0.56832099
vt -1.44000006 -0.579051971
f 1/1 2/2 3/3
f 4/4 5/5 6/6
f 5/7 4/8 7/9
f 8/10 9/11 10/12
f 9/13 11/14 10/15
f 12/16 2/17 1/18
f 13/19 14/20 15/21
f 15/22 14/23 16/24
f 1/25 3/26 17/27
f 17/28 3/29 18/30
f 17/31 18/32 19/33
f 19/34 18/35 20/36
f 19/37 20/38 21/39
f 21/40 20/41 22/42
f 21/43 22/44 23/45
f 23/46 22/47 24/48
f 23/49 24/50 25/51
f 25/52 24/53 26/54
f 25/55 26/56 27/57
f 27/58 26/59 28/60
f 27/61 28/62 29/63
f 29/64 28/65 30/66
f 29/67 30/68 31/69
f 31/70 30/71 32/72
f 31/73 32/74 33/75
f 33/76 32/77 34/78
f 33/79 34/80 35/81
f 35/82 34/83 36/84
f 35/85 36/86 37/87
f 37/88 36/89 38/90
f 37/91 38/92 39/93
f 39/94 38/95 40/96
f 39/97 40/98 41/99
f 41/100 40/101 42/102
f 41/103 42/104 43/105
f 43/106 42/107 44/108
f 43/109 44/110 45/111
f 45/112 44/113 46/114
f 45/115 46/116 47/117
f 47/118 46/119 48/120
f 47/121 48/122 12/123
f 12/124 48/125 2/126
f 14/127 49/128 16/129
f 16/130 49/131 50/132
f 16/133 50/134 51/135
f 51/136 50/137 52/138
f 51/139 52/140 53/141
f 53/142 52/143 52/144
f 53/145 52/146 54/147
f 54/148 52/149 55/150
f 54/151 55/152 56/153
f 56/154 55/155 57/156
f 56/157 57/158 56/159
f 56/160 57/161 58/162
f 56/163 58/164 59/165
f 59/166 58/167 58/168
f 59/169 58/170 60/171
f 60/172 58/173 61/174
f 60/175 61/176 62/177
f 62/178 61/179 63/180
f 62/181 63/182 64/183
f 64/184 63/185 65/186
f 64/187 65/188 64/189
f 64/190 65/191 66/192
f 64/193 66/194 67/195
f 67/196 66/197 66/198
f 67/199 66/200 68/201
f 68/202 66/203 69/204
f 68/205 69/206 70/207
f 70/208 69/209 71/210
f 70/211 71/212 72/213
f 72/214 71/215 73/216
f 72/217 73/218 74/219
f 74/220 73/221 75/222
f 74/223 75/224 74/225
f 74/226 75/227 76/228
f 74/229 76/230 77/231
f 77/232 76/233 76/234
f 77/235 76/236 78/237
f 78/238 76/239 79/240
f 78/241 79/242 80/243
f 80/244 79/245 7/246
f 80/247 7/248 14/249
f 15/250 16/251 81/252
f 81/253 16/254 51/255
f 81/256 51/257 82/258
f 82/259 51/260 53/261
f 82/262 53/263 83/264
f 83/265 53/266 54/267
f 83/268 54/269 84/270
f 84/271 54/272 56/273
f 84/274 56/275 85/276
f 85/277 56/278 59/279
f 85/280 59/281 86/282
f 86/283 59/284 60/285
f 86/286 60/287 87/288
f 87/289 60/290 62/291
f 87/292 62/293 88/294
f 88/295 62/296 64/297
f 88/298 64/299 89/300
f 89/301 64/302 67/303
f 89/304 67/305 90/306
f 90/307 67/308 68/309
f 90/310 68/311 91/312
f 91/313 68/314 70/315
f 91/316 70/317 92/318
f 92/319 70/320 72/321
f 92/322 72/323 93/324
f 93/325 72/326 74/327
f 93/328 74/329 94/330
f 94/331 74/332 77/333
f 94/334 77/335 95/336
f 95/337 77/338 78/339
f 95/340 78/341 96/342
f 96/343 78/344 80/345
f 96/346 80/347 13/348
f 13/349 80/350 14/351
f 10/352 97/353 6/354
f 6/355 97/356 97/357
f 6/358 97/359 98/360
f 98/361 97/362 99/363
f 98/364 99/365 100/366
f 100/367 99/368 101/369
f 100/370 101/371 100/372
f 100/373 101/374 102/375
f 100/376 102/377 103/378
f 103/379 102/380 104/381
f 103/382 104/383 105/384
f 105/385 104/386 104/387
f 105/388 104/389 106/390
f 106/391 104/392 107/393
f 106/394 107/395 106/396
f 106/397 107/398 108/399
f 106/400 108/401 109/402
f 109/403 108/404 110/405
f 109/406 110/407 111/408
f 111/409 110/410 112/411
f 111/412 112/413 113/414
f 113/415 112/416 114/417
f 113/418 114/419 115/420
f 115/421 114/422 116/423
f 115/424 116/425 117/426
f 117/427 116/428 118/429
f 117/430 118/431 119/432
f 119/433 118/434 120/435
f 119/436 120/437 121/438
f 121/439 120/440 122/441
f 121/442 122/443 123/444
f 123/445 122/446 122/447
f 123/448 122/449 124/450
f 124/451 122/452 125/453
f 124/454 125/455 124/456
f 124/457 125/458 126/459
f 124/460 126/461 127/462
f 127/463 126/464 8/465
f 127/466 8/467 128/468
f 128/469 8/470 10/471
f 10/472 11/473 97/474
f 97/475 11/476 129/477
f 97/478 129/479 99/480
f 99/481 129/482 130/483
f 99/484 130/485 101/486
f 101/487 130/488 131/489
f 101/490 131/491 102/492
f 102/493 131/494 132/495
f 102/496 132/497 104/498
f 104/499 132/500 133/501
f 104/502 133/503 107/504
f 107/505 133/506 134/507
f 107/508 134/509 108/510
f 108/511 134/512 135/513
f 108/514 135/515 110/516
f 110/517 135/518 136/519
f 110/520 136/521 112/522
f 112/523 136/524 137/525
f 112/526 137/527 114/528
f 114/529 137/530 138/531
f 114/532 138/533 116/534
f 116/535 138/536 139/537
f 116/538 139/539 118/540
f 118/541 139/542 140/543
f 118/544 140/545 120/546
f 120/547 140/548 141/549
f 120/550 141/551 122/552
f 122/553 141/554 142/555
f 122/556 142/557 125/558
f 125/559 142/560 143/561
f 125/562 143/563 126/564
f 126/565 143/566 144/567
f 126/568 144/569 8/570
f 8/571 144/572 9/573
f 7/574 4/575 14/576
f 14/577 4/578 49/579
f 4/580 6/581 49/582
f 49/583 6/584 98/585
f 49/586 98/587 50/588
f 50/589 98/590 100/591
f 50/592 100/593 52/594
f 52/595 100/596 103/597
f 52/598 103/599 55/600
f 55/601 103/602 105/603
f 55/604 105/605 57/606
f 57/607 105/608 106/609
f 57/610 106/611 58/612
f 58/613 106/614 109/615
f 58/616 109/617 61/618
f 61/619 109/620 111/621
f 61/622 111/623 63/624
f 63/625 111/626 113/627
f 63/628 113/629 65/630
f 65/631 113/632 115/633
f 65/634 115/635 66/636
f 66/637 115/638 117/639
f 66/640 117/641 69/642
f 69/643 117/644 119/645
f 69/646 119/647 71/648
f 71/649 119/650 121/651
f 71/652 121/653 73/654
f 73/655 121/656 123/657
f 73/658 123/659 75/660
f 75/661 123/662 124/663
f 75/664 124/665 76/666
f 76/667 124/668 127/669
f 76/670 127/671 79/672
f 79/673 127/674 128/675
f 79/676 128/677 7/678
f 7/679 128/680 5/681
f 6/682 5/683 10/684
f 10/685 5/686 128/687
f 145/688 146/689 147/690
f 147/691 146/692 148/693
f 147/694 148/695 147/696
f 147/697 148/698 149/699
f 147/700 149/701 147/702
f 147/703 149/704 150/705
f 147/706 150/707 147/708
f 147/709 150/710 151/711
f 147/712 151/713 147/714
f 147/715 151/716 152/717
f 147/718 152/719 147/720
f 147/721 152/722 153/723
f 147/724 153/725 147/726
f 147/727 153/728 154/729
f 147/730 154/731 147/732
f 147/733 154/734 155/735
f 147/736 155/737 147/738
f 147/739 155/740 156/741
f 147/742 156/743 147/744
f 147/745 156/746 157/747
f 147/748 157/749 147/750
f 147/751 157/752 158/753
f 147/754 158/755 147/756
f 147/757 158/758 159/759
f 147/760 159/761 147/762
f 147/763 159/764 160/765
f 147/766 160/767 147/768
f 147/769 160/770 161/771
f 147/772 161/773 147/774
f 147/775 161/776 162/777
f 147/778 162/779 147/780
f 147/781 162/782 163/783
f 147/784 163/785 147/786
f 147/787 163/788 164/789
f 147/790 164/791 147/792
f 147/793 164/794 165/795
f 147/796 165/797 147/798
f 147/799 165/800 166/801
f 147/802 166/803 147/804
f 147/805 166/806 167/807
f 147/808 167/809 147/810
f 147/811 167/812 168/813
f 147/814 168/815 147/816
f 147/817 168/818 169/819
f 147/820 169/821 147/822
f 147/823 169/824 170/825
f 147/826 170/827 147/828
f 147/829 170/830 171/831
f 147/832 171/833 147/834
f 147/835 171/836 172/837
f 147/838 172/839 147/840
f 147/841 172/842 173/843
f 147/844 173/845 147/846
f 147/847 173/848 174/849
f 147/850 174/851 147/852
f 147/853 174/854 175/855
f 147/856 175/857 147/858
f 147/859 175/860 176/861
f 147/862 176/863 147/864
f 147/865 176/866 177/867
f 147/868 177/869 147/870
f 147/871 177/872 178/873
f 147/874 178/875 147/876
f 147/877 178/878 179/879
f 147/880 179/881 147/882
f 147/883 179/884 180/885
f 147/886 180/887 147/888
f 147/889 180/890 181/891
f 147/892 181/893 147/894
f 147/895 181/896 182/897
f 147/898 182/899 147/900
f 147/901 182/902 183/903
f 147/904 183/905 147/906
f 147/907 183/908 184/909
f 147/910 184/911 147/912
f 147/913 184/914 185/915
f 147/916 185/917 147/918
f 147/919 185/920 186/921
f 147/922 186/923 147/924
f 147/925 186/926 187/927
f 147/928 187/929 145/930
f 188/931 189/932 190/933
f 190/934 189/935 191/936
f 190/937 191/938 190/939
f 190/940 191/941 192/942
f 190/943 192/944 190/945
f 190/946 192/947 193/948
f 190/949 193/950 190/951
f 190/952 193/953 194/954
f 190/955 194/956 190/957
f 190/958 194/959 195/960
f 190/961 195/962 190/963
f 190/964 195/965 196/966
f 190/967 196/968 190/969
f 190/970 196/971 197/972
f 190/973 197/974 190/975
f 190/976 197/977 198/978
f 190/979 198/980 190/981
f 190/982 198/983 199/984
f 190/985 199/986 190/987
f 190/988 199/989 200/990
f 190/991 200/992 190/993
f 190/994 200/995 201/996
f 190/997 201/998 190/999
f 190/1000 201/1001 202/1002
f 190/1003 202/1004 190/1005
f 190/1006 202/1007 203/1008
f 190/1009 203/1010 190/1011
f 190/1012 203/1013 204/1014
f 190/1015 204/1016 190/1017
f 190/1018 204/1019 205/1020
f 190/1021 205/1022 190/1023
f 190/1024 205/1025 206/1026
f 190/1027 206/1028 190/1029
f 190/1030 206/1031 207/1032
f 190/1033 207/1034 190/1035
f 190/1036 207/1037 208/1038
f 190/1039 208/1040 190/1041
f 190/1042 208/1043 209/1044
f 190/1045 209/1046 190/1047
f 190/1048 209/1049 210/1050
f 190/1051 210/1052 190/1053
f 190/1054 210/1055 211/1056
f 190/1057 211/1058 190/1059
f 190/1060 211/1061 212/1062
f 190/1063 212/1064 190/1065
f 190/1066 212/1067 213/1068
f 190/1069 213/1070 190/1071
f 190/1072 213/1073 214/1074
f 190/1075 214/1076 190/1077
f 190/1078 214/1079 215/1080
f 190/1081 215/1082 190/1083
f 190/1084 215/1085 216/1086
f 190/1087 216/1088 190/1089
f 190/1090 216/1091 217/1092
f 190/1093 217/1094 190/1095
f 190/1096 217/1097 218/1098
f 190/1099 218/1100 190/1101
f 190/1102 218/1103 219/1104
f 190/1105 219/1106 190/1107
f 190/1108 219/1109 220/1110
f 190/1111 220/1112 190/1113
f 190/1114 220/1115 221/1116
f 190/1117 221/1118 190/1119
f 190/1120 221/1121 222/1122
f 190/1123 222/1124 190/1125
f 190/1126 222/1127 223/1128
f 190/1129 223/1130 190/1131
f 190/1132 223/1133 224/1134
f 190/1135 224/1136 190/1137
f 190/1138 224/1139 225/1140
f 190/1141 225/1142 190/1143
f 190/1144 225/1145 226/1146
f 190/1147 226/1148 190/1149
f 190/1150 226/1151 227/1152
f 190/1153 227/1154 190/1155
f 190/1156 227/1157 228/1158
f 190/1159 228/1160 190/1161
f 190/1162 228/1163 229/1164
f 190/1165 229/1166 190/1167
f 190/1168 229/1169 230/1170
f 190/1171 230/1172 188/1173
f 186/1174 197/1175 187/1176
f 187/1177 197/1178 196/1179
f 197/1180 186/1181 198/1182
f 198/1183 186/1184 185/1185
f 198/1186 185/1187 199/1188
f 199/1189 185/1190 184/1191
f 199/1192 184/1193 200/1194
f 200/1195 184/1196 183/1197
f 200/1198 183/1199 201/1200
f 201/1201 183/1202 182/1203
f 201/1204 182/1205 202/1206
f 202/1207 182/1208 181/1209
f 202/1210 181/1211 203/1212
f 203/1213 181/1214 180/1215
f 203/1216 180/1217 204/1218
f 204/1219 180/1220 179/1221
f 204/1222 179/1223 205/1224
f 205/1225 179/1226 178/1227
f 205/1228 178/1229 206/1230
f 206/1231 178/1232 177/1233
f 206/1234 177/1235 207/1236
f 207/1237 177/1238 176/1239
f 207/1240 176/1241 208/1242
f 208/1243 176/1244 175/1245
f 208/1246 175/1247 209/1248
f 209/1249 175/1250 174/1251
f 209/1252 174/1253 210/1254
f 210/1255 174/1256 173/1257
f 210/1258 173/1259 211/1260
f 211/1261 173/1262 172/1263
f 211/1264 172/1265 212/1266
f 212/1267 172/1268 171/1269
f 212/1270 171/1271 213/1272
f 213/1273 171/1274 170/1275
f 213/1276 170/1277 214/1278
f 214/1279 170/1280 169/1281
f 214/1282 169/1283 215/1284
f 215/1285 169/1286 168/1287
f 215/1288 168/1289 216/1290
f 216/1291 168/1292 167/1293
f 216/1294 167/1295 217/1296
f 217/1297 167/1298 166/1299
f 217/1300 166/1301 218/1302
f 218/1303 166/1304 165/1305
f 218/1306 165/1307 219/1308
f 219/1309 165/1310 164/1311
f 219/1312 164/1313 220/1314
f 220/1315 164/1316 163/1317
f 220/1318 163/1319 221/1320
f 221/1321 163/1322 162/1323
f 221/1324 162/1325 222/1326
f 222/1327 162/1328 161/1329
f 222/1330 161/1331 223/1332
f 223/1333 161/1334 160/1335
f 223/1336 160/1337 224/1338
f 224/1339 160/1340 159/1341
f 224/1342 159/1343 225/1344
f 225/1345 159/1346 158/1347
f 225/1348 158/1349 226/1350
f 226/1351 158/1352 157/1353
f 226/1354 157/1355 227/1356
f 227/1357 157/1358 156/1359
f 227/1360 156/1361 228/1362
f 228/1363 156/1364 155/1365
f 228/1366 155/1367 229/1368
f 229/1369 155/1370 154/1371
f 229/1372 154/1373 230/1374
f 230/1375 154/1376 153/1377
f 230/1378 153/1379 188/1380
f 188/1381 153/1382 152/1383
f 188/1384 152/1385 189/1386
f 189/1387 152/1388 151/1389
f 189/1390 151/1391 191/1392
f 191/1393 151/1394 150/1395
f 191/1396 150/1397 192/1398
f 192/1399 150/1400 149/1401
f 192/1402 149/1403 193/1404
f 193/1405 149/1406 148/1407
f 193/1408 148/1409 194/1410
f 194/1411 148/1412 146/1413
f 194/1414 146/1415 195/1416
f 195/1417 146/1418 145/1419
f 195/1420 145/1421 196/1422
f 196/1423 145/1424 187/1425
