# Exported from USD for MuJoCo with source material subsets
v 5.58112651 1.28004056 0.355000257
v 5.37612655 1.28004056 0.355000257
v 5.58112651 1.28004056 0.455000222
v 5.37612637 0.630040824 0.355000257
v 5.5811263 0.630040705 0.455000222
v 5.37612619 0.630040824 1.0775
v 5.58112624 0.630040705 0.624483109
v 5.54612609 0.630040824 1.20500024
v 5.58112606 0.630040705 1.20500024
v 5.54612627 1.28004056 1.20500024
v 5.58112624 1.28004056 1.20500024
v 5.58112642 1.28004056 0.624483109
v 6.71112623 1.28004008 0.59948349
v 6.68112638 1.28004008 0.455000579
v 6.6811262 0.630040347 0.455000579
v 6.71112605 0.630040347 0.59948349
v 6.71112605 0.630040347 0.624483466
v 6.71112623 1.28004008 0.624483466
v 6.7661263 1.28004008 0.355000615
v 6.68112638 1.28004008 0.355000615
v 6.6811262 0.630040347 0.355000615
v 6.76612612 0.630040347 0.355000615
v 5.58612638 1.28004056 0.965000123
v 5.70612639 1.28004056 0.965000182
v 5.70612651 1.28004056 0.685000241
v 5.70612621 0.630040705 0.965000182
v 5.5861262 0.630040705 0.965000123
v 5.70612627 0.630040705 0.685000241
v 6.71612623 1.28004008 0.685000539
v 6.71612623 1.28004008 0.629483521
v 6.71612605 0.630040347 0.629483521
v 6.71612605 0.630040347 0.685000539
v 6.766126 0.630040347 0.935000509
v 5.5811263 0.630040705 0.355000257
v 6.71612623 1.28004008 0.935000509
v 6.76612618 1.28004008 0.935000509
v 6.76612606 0.630040347 0.604483485
v 6.76612624 1.28004008 0.604483485
v 6.71612605 0.630040347 0.604483485
v 6.71612623 1.28004008 0.604483485
v 6.62612637 1.28004008 0.690000474
v 6.71112617 1.28004008 0.940000504
v 6.71112623 1.28004008 0.690000534
v 6.71112605 0.630040347 0.690000534
v 6.71112599 0.630040347 0.940000504
v 6.62612608 0.630040347 0.690000474
v 6.76612594 0.630040347 1.03500037
v 6.766126 0.630040347 0.940000504
v 6.76612612 1.28004008 1.03500037
v 6.76612618 1.28004008 0.940000504
v 5.34612622 0.630040824 1.05500001
v 5.3711262 0.630040824 1.07375012
v 5.34612628 0.951790511 1.05500001
v 5.3711265 0.951790511 0.355000257
v 5.37112632 0.951790511 1.05500001
v 5.37112638 0.630040824 0.355000257
v 5.37112632 0.958290517 1.05500001
v 5.37112638 1.28004056 1.07375012
v 5.34612628 0.958290517 1.05500001
v 5.37112656 1.28004056 0.355000257
v 5.3461264 1.28004056 1.05500001
v 5.3711265 0.958290517 0.355000257
v 6.71612599 0.630040347 0.935000509
v 5.44112673 1.26704055 0.0828210115
v 5.44112661 1.26704055 0.127820969
v 6.70112642 1.26704007 0.0828213692
v 6.70112642 1.26704007 0.127821445
v 5.44112649 0.688540756 0.0828210115
v 6.70112624 0.688540279 0.0828213692
v 5.44112649 0.643040835 0.0828210115
v 6.70112624 0.643040359 0.0828213692
v 5.44112643 0.688540756 0.127820969
v 6.70112618 0.688540279 0.127821445
v 5.44112643 0.643040835 0.127820969
v 6.70112618 0.643040359 0.127821445
v 6.70112624 0.643040359 0.0350005627
v 6.70112624 0.688540279 0.0350005627
v 6.77112624 0.643040359 0.0350005627
v 6.77112624 0.68854016 0.0350005627
v 6.70112612 0.688540279 0.355000615
v 6.70112612 0.643040359 0.355000615
v 6.77112612 0.643040359 0.355000615
v 6.77112612 0.68854016 0.355000615
v 5.44112649 0.643040835 0.035000205
v 5.3711265 0.643040835 0.035000205
v 5.44112649 0.688540756 0.035000205
v 5.3711265 0.688540756 0.035000205
v 5.37112638 0.643040835 0.355000257
v 5.44112637 0.643040835 0.355000257
v 5.44112637 0.688540756 0.355000257
v 5.37112638 0.688540756 0.355000257
v 6.77112641 1.22154003 0.0350005627
v 6.77112641 1.26704007 0.0350005627
v 6.77112629 1.22154003 0.355000615
v 6.77112629 1.26704007 0.355000615
v 6.70112642 1.22154003 0.0350005627
v 6.70112642 1.26704007 0.0350005627
v 6.7011263 1.22154003 0.355000615
v 6.7011263 1.26704007 0.355000615
v 5.44112673 1.22154051 0.035000205
v 5.37112668 1.22154051 0.035000205
v 5.44112673 1.26704055 0.035000205
v 5.37112668 1.26704055 0.035000205
v 5.44112655 1.22154051 0.355000257
v 5.44112655 1.26704055 0.355000257
v 5.37112656 1.22154051 0.355000257
v 5.37112656 1.26704055 0.355000257
v 6.77112624 0.958290159 0.355000615
v 6.77112606 0.958290159 1.03500037
v 6.77112629 1.28004008 0.355000615
v 6.77112612 1.28004008 1.03500037
v 6.79612621 0.958290159 0.355000615
v 6.79612627 1.28004008 0.355000615
v 6.79612597 0.958290159 1.03500037
v 6.79612609 1.28004008 1.03500037
v 6.79612597 0.951790154 1.03500037
v 6.79612591 0.630040347 1.03500037
v 6.79612621 0.951790154 0.355000615
v 6.79612609 0.630040347 0.355000615
v 6.77112606 0.951790154 1.03500037
v 6.77112624 0.951790154 0.355000615
v 6.77112594 0.630040347 1.03500037
v 6.77112612 0.630040347 0.355000615
v 6.79612609 1.28004008 1.04500037
v 6.79612609 1.28004008 1.08500049
v 6.79612591 0.630040347 1.04500037
v 6.79612591 0.630040347 1.08500049
v 5.70612615 0.630040705 1.04500012
v 5.70612636 1.28004056 1.04500012
v 5.70612612 0.630040705 1.20000025
v 5.70612633 1.28004056 1.20000025
v 5.70112612 0.630040705 1.20000025
v 5.70112633 1.28004056 1.20000025
v 5.70112621 0.630040705 0.970000178
v 5.70112639 1.28004056 0.970000178
v 5.5861262 0.630040705 0.970000118
v 5.58612638 1.28004056 0.970000118
v 5.58612608 0.630040705 1.20500024
v 5.58612626 1.28004056 1.20500024
v 5.34612658 1.28004056 0.355000257
v 5.34612652 0.958290517 0.355000257
v 5.34612652 0.951790511 0.355000257
v 5.3461264 0.630040824 0.355000257
v 6.62612602 0.630040347 1.03500037
v 6.62612625 1.28004008 1.03500037
v 5.58612626 0.630040705 0.629483163
v 5.58612644 1.28004056 0.629483163
v 6.76612624 1.28004008 0.59948349
v 6.76612606 0.630040347 0.59948349
v 5.37612637 1.28004056 1.0775
v 6.70112642 1.22154003 0.0828213692
v 6.70112642 1.22154003 0.127821445
v 5.44112673 1.22154051 0.0828210115
v 5.44112661 1.22154051 0.127820969
vt 0.571712971 0.354999989
vt 0.776713014 0.354999989
vt 0.571712971 0.455000013
vt -0.776713014 0.354999989
vt -0.571712971 0.455000013
vt -0.776713014 1.07749999
vt -0.776713014 1.07749999
vt -0.571712971 0.455000013
vt -0.571712971 0.624482989
vt -0.776713014 1.07749999
vt -0.571712971 0.624482989
vt -0.606712997 1.20500004
vt -0.606712997 1.20500004
vt -0.571712971 0.624482989
vt -0.571712971 1.20500004
vt 0.606712997 1.20500004
vt 0.571712971 1.20500004
vt 0.571712971 0.624482989
vt 0.571712971 0.455000013
vt -0.558287024 0.599483013
vt -0.528286994 0.455000013
vt -0.571712971 0.455000013
vt 0.528286994 0.455000013
vt -0.571712971 0.624482989
vt -0.571712971 0.624482989
vt 0.528286994 0.455000013
vt 0.558287024 0.599483013
vt -0.571712971 0.624482989
vt 0.558287024 0.599483013
vt 0.558287024 0.624482989
vt 0.571712971 0.624482989
vt -0.558287024 0.624482989
vt -0.558287024 0.599483013
vt -0.613286972 0.354999989
vt -0.528286994 0.354999989
vt -0.528286994 0.455000013
vt 0.528286994 0.354999989
vt 0.613286972 0.354999989
vt 0.528286994 0.455000013
vt 0.566712976 0.964999974
vt 0.446713001 0.964999974
vt 0.446713001 0.685000002
vt -0.446713001 0.964999974
vt -0.566712976 0.964999974
vt -0.446713001 0.685000002
vt 0.446713001 0.685000002
vt -0.56328702 0.685000002
vt -0.56328702 0.629482985
vt -0.446713001 0.685000002
vt 0.56328702 0.629482985
vt 0.56328702 0.685000002
vt 0.56328702 0.685000002
vt 0.56328702 0.629482985
vt 0.613286972 0.935000002
vt -0.571712971 0.354999989
vt -0.571712971 0.455000013
vt -0.776713014 0.354999989
vt -0.56328702 0.935000002
vt -0.613286972 0.935000002
vt -0.56328702 0.685000002
vt 0.613286972 0.935000002
vt 0.56328702 0.629482985
vt 0.613286972 0.604483008
vt -0.613286972 0.935000002
vt -0.613286972 0.604483008
vt -0.56328702 0.685000002
vt -0.56328702 0.685000002
vt -0.613286972 0.604483008
vt -0.56328702 0.629482985
vt 0.613286972 0.604483008
vt 0.56328702 0.629482985
vt 0.56328702 0.604483008
vt -0.613286972 0.604483008
vt -0.56328702 0.604483008
vt -0.56328702 0.629482985
vt -0.473286986 0.689999998
vt -0.558287024 0.939999998
vt -0.558287024 0.689999998
vt 0.558287024 0.689999998
vt 0.558287024 0.939999998
vt 0.473286986 0.689999998
vt 0.613286972 1.03499997
vt 0.558287024 0.939999998
vt 0.613286972 0.939999998
vt -0.613286972 1.03499997
vt -0.613286972 0.939999998
vt -0.558287024 0.939999998
vt 0.806712985 -2.42515111
vt 0.781713009 -2.42515111
vt 0.806712985 -2.920151
vt 0.354999989 -2.920151
vt 1.05499995 -2.920151
vt 0.354999989 -2.42515111
vt 1.05499995 -2.920151
vt 1.05499995 -2.93015099
vt 1.07375002 -3.42515111
vt 0.806712985 -2.920151
vt 0.781713009 -2.42515111
vt 0.806712985 -2.93015099
vt 0.781713009 -2.42515111
vt 0.781713009 -3.42515111
vt 0.806712985 -2.93015099
vt 1.07375002 -3.42515111
vt 1.05499995 -2.93015099
vt 0.354999989 -3.42515111
vt 0.781713009 -3.42515111
vt 0.806712985 -3.42515111
vt 0.806712985 -2.93015099
vt 1.05499995 -2.93015099
vt 0.354999989 -2.93015099
vt 0.354999989 -3.42515111
vt 0.56328702 0.685000002
vt 0.613286972 0.935000002
vt 0.56328702 0.935000002
vt -0.571712971 -2.42515111
vt -0.776713014 -2.42515111
vt -0.571712971 -3.42515111
vt -0.571712971 -3.42515111
vt -0.776713014 -2.42515111
vt -0.776713014 -3.42515111
vt 0.711713016 0.0828209966
vt 0.711713016 0.127820998
vt -0.548286974 0.0828209966
vt -0.548286974 0.0828209966
vt 0.711713016 0.127820998
vt -0.548286974 0.127820998
vt -0.711713016 -2.51515102
vt 0.548286974 -2.51515102
vt -0.711713016 -2.44515109
vt -0.711713016 -2.44515109
vt 0.548286974 -2.51515102
vt 0.548286974 -2.44515109
vt 0.711713016 0.0828209966
vt 0.711713016 0.127820998
vt -0.548286974 0.0828209966
vt -0.548286974 0.0828209966
vt 0.711713016 0.127820998
vt -0.548286974 0.127820998
vt -0.0828209966 -2.44515109
vt -0.127820998 -2.44515109
vt -0.0828209966 -2.51515102
vt -0.0828209966 -2.51515102
vt -0.127820998 -2.44515109
vt -0.127820998 -2.51515102
vt -0.711713016 0.127820998
vt -0.711713016 0.0828209966
vt 0.548286974 0.127820998
vt 0.548286974 0.127820998
vt -0.711713016 0.0828209966
vt 0.548286974 0.0828209966
vt 0.711713016 -2.44515109
vt -0.548286974 -2.44515109
vt 0.711713016 -2.51515102
vt 0.711713016 -2.51515102
vt -0.548286974 -2.44515109
vt -0.548286974 -2.51515102
vt 0.127820998 -2.44515109
vt 0.0828209966 -2.44515109
vt 0.127820998 -2.51515102
vt 0.127820998 -2.51515102
vt 0.0828209966 -2.44515109
vt 0.0828209966 -2.51515102
vt 0.548286974 -2.44515109
vt 0.548286974 -2.51515102
vt 0.618287027 -2.44515109
vt 0.618287027 -2.44515109
vt 0.548286974 -2.51515102
vt 0.618287027 -2.51515102
vt -0.0350000001 -2.51515102
vt -0.0350000001 -2.44515109
vt -0.354999989 -2.51515102
vt -0.354999989 -2.51515102
vt -0.0350000001 -2.44515109
vt -0.354999989 -2.44515109
vt 0.548286974 0.0350000001
vt 0.618287027 0.0350000001
vt 0.548286974 0.354999989
vt 0.548286974 0.354999989
vt 0.618287027 0.0350000001
vt 0.618287027 0.354999989
vt -0.548286974 -2.44515109
vt -0.618287027 -2.44515109
vt -0.548286974 -2.51515102
vt -0.548286974 -2.51515102
vt -0.618287027 -2.44515109
vt -0.618287027 -2.51515102
vt -0.548286974 0.354999989
vt -0.618287027 0.354999989
vt -0.548286974 0.0350000001
vt -0.548286974 0.0350000001
vt -0.618287027 0.354999989
vt -0.618287027 0.0350000001
vt 0.0350000001 -2.44515109
vt 0.0350000001 -2.51515102
vt 0.354999989 -2.44515109
vt 0.354999989 -2.44515109
vt 0.0350000001 -2.51515102
vt 0.354999989 -2.51515102
vt -0.711713016 -2.44515109
vt -0.781713009 -2.44515109
vt -0.711713016 -2.51515102
vt -0.711713016 -2.51515102
vt -0.781713009 -2.44515109
vt -0.781713009 -2.51515102
vt -0.781713009 0.0350000001
vt -0.711713016 0.0350000001
vt -0.781713009 0.354999989
vt -0.781713009 0.354999989
vt -0.711713016 0.0350000001
vt -0.711713016 0.354999989
vt 0.0350000001 -2.44515109
vt 0.0350000001 -2.51515102
vt 0.354999989 -2.44515109
vt 0.354999989 -2.44515109
vt 0.0350000001 -2.51515102
vt 0.354999989 -2.51515102
vt 0.711713016 -2.44515109
vt 0.711713016 -2.51515102
vt 0.781713009 -2.44515109
vt 0.781713009 -2.44515109
vt 0.711713016 -2.51515102
vt 0.781713009 -2.51515102
vt -0.354999989 -2.44515109
vt -0.354999989 -2.51515102
vt -0.0350000001 -2.44515109
vt -0.0350000001 -2.44515109
vt -0.354999989 -2.51515102
vt -0.0350000001 -2.51515102
vt 0.711713016 0.0350000001
vt 0.781713009 0.0350000001
vt 0.711713016 0.354999989
vt 0.711713016 0.354999989
vt 0.781713009 0.0350000001
vt 0.781713009 0.354999989
vt 0.0350000001 -3.33515096
vt 0.0350000001 -3.40515089
vt 0.354999989 -3.33515096
vt 0.354999989 -3.33515096
vt 0.0350000001 -3.40515089
vt 0.354999989 -3.40515089
vt 0.618287027 -3.33515096
vt 0.548286974 -3.33515096
vt 0.618287027 -3.40515089
vt 0.618287027 -3.40515089
vt 0.548286974 -3.33515096
vt 0.548286974 -3.40515089
vt 0.618287027 0.354999989
vt 0.548286974 0.354999989
vt 0.618287027 0.0350000001
vt 0.618287027 0.0350000001
vt 0.548286974 0.354999989
vt 0.548286974 0.0350000001
vt -0.548286974 -3.33515096
vt -0.618287027 -3.33515096
vt -0.548286974 -3.40515089
vt -0.548286974 -3.40515089
vt -0.618287027 -3.33515096
vt -0.618287027 -3.40515089
vt -0.354999989 -3.33515096
vt -0.354999989 -3.40515089
vt -0.0350000001 -3.33515096
vt -0.0350000001 -3.33515096
vt -0.354999989 -3.40515089
vt -0.0350000001 -3.40515089
vt -0.548286974 0.354999989
vt -0.618287027 0.354999989
vt -0.548286974 0.0350000001
vt -0.548286974 0.0350000001
vt -0.618287027 0.354999989
vt -0.618287027 0.0350000001
vt -0.711713016 -3.33515096
vt -0.781713009 -3.33515096
vt -0.711713016 -3.40515089
vt -0.711713016 -3.40515089
vt -0.781713009 -3.33515096
vt -0.781713009 -3.40515089
vt 0.0350000001 -3.33515096
vt 0.0350000001 -3.40515089
vt 0.354999989 -3.33515096
vt 0.354999989 -3.33515096
vt 0.0350000001 -3.40515089
vt 0.354999989 -3.40515089
vt -0.711713016 0.354999989
vt -0.781713009 0.354999989
vt -0.711713016 0.0350000001
vt -0.711713016 0.0350000001
vt -0.781713009 0.354999989
vt -0.781713009 0.0350000001
vt 0.781713009 -3.33515096
vt 0.711713016 -3.33515096
vt 0.781713009 -3.40515089
vt 0.781713009 -3.40515089
vt 0.711713016 -3.33515096
vt 0.711713016 -3.40515089
vt -0.354999989 -3.33515096
vt -0.354999989 -3.40515089
vt -0.0350000001 -3.33515096
vt -0.0350000001 -3.33515096
vt -0.354999989 -3.40515089
vt -0.0350000001 -3.40515089
vt 0.711713016 0.0350000001
vt 0.781713009 0.0350000001
vt 0.711713016 0.354999989
vt 0.711713016 0.354999989
vt 0.781713009 0.0350000001
vt 0.781713009 0.354999989
vt -0.354999989 -2.93015099
vt -1.03499997 -2.93015099
vt -0.354999989 -3.42515111
vt -0.354999989 -3.42515111
vt -1.03499997 -2.93015099
vt -1.03499997 -3.42515111
vt 0.618287027 -2.93015099
vt 0.618287027 -3.42515111
vt 0.643287003 -2.93015099
vt 0.643287003 -2.93015099
vt 0.618287027 -3.42515111
vt 0.643287003 -3.42515111
vt 0.618287027 0.354999989
vt 0.643287003 0.354999989
vt 0.618287027 1.03499997
vt 0.618287027 1.03499997
vt 0.643287003 0.354999989
vt 0.643287003 1.03499997
vt 0.354999989 -2.93015099
vt 0.354999989 -3.42515111
vt 1.03499997 -2.93015099
vt 1.03499997 -2.93015099
vt 0.354999989 -3.42515111
vt 1.03499997 -3.42515111
vt -0.618287027 -2.93015099
vt -0.643287003 -2.93015099
vt -0.618287027 -3.42515111
vt -0.618287027 -3.42515111
vt -0.643287003 -2.93015099
vt -0.643287003 -3.42515111
vt -0.618287027 0.354999989
vt -0.618287027 1.03499997
vt -0.643287003 0.354999989
vt -0.643287003 0.354999989
vt -0.618287027 1.03499997
vt -0.643287003 1.03499997
vt 1.03499997 -2.920151
vt 1.03499997 -2.42515111
vt 0.354999989 -2.920151
vt 0.354999989 -2.920151
vt 1.03499997 -2.42515111
vt 0.354999989 -2.42515111
vt -0.643287003 1.03499997
vt -0.643287003 0.354999989
vt -0.618287027 1.03499997
vt -0.618287027 1.03499997
vt -0.643287003 0.354999989
vt -0.618287027 0.354999989
vt -0.643287003 -2.920151
vt -0.618287027 -2.920151
vt -0.643287003 -2.42515111
vt -0.643287003 -2.42515111
vt -0.618287027 -2.920151
vt -0.618287027 -2.42515111
vt -1.03499997 -2.920151
vt -0.354999989 -2.920151
vt -1.03499997 -2.42515111
vt -1.03499997 -2.42515111
vt -0.354999989 -2.920151
vt -0.354999989 -2.42515111
vt 0.618287027 -2.920151
vt 0.643287003 -2.920151
vt 0.618287027 -2.42515111
vt 0.618287027 -2.42515111
vt 0.643287003 -2.920151
vt 0.643287003 -2.42515111
vt 0.618287027 1.03499997
vt 0.618287027 0.354999989
vt 0.643287003 1.03499997
vt 0.643287003 1.03499997
vt 0.618287027 0.354999989
vt 0.643287003 0.354999989
vt 1.04499996 -3.42515111
vt 1.08500004 -3.42515111
vt 1.04499996 -2.42515111
vt 1.04499996 -2.42515111
vt 1.08500004 -3.42515111
vt 1.08500004 -2.42515111
vt 0.643287003 -2.42515111
vt -0.446713001 -2.42515111
vt 0.643287003 -3.42515111
vt 0.643287003 -3.42515111
vt -0.446713001 -2.42515111
vt -0.446713001 -3.42515111
vt -1.04499996 -2.42515111
vt -1.20000005 -2.42515111
vt -1.04499996 -3.42515111
vt -1.04499996 -3.42515111
vt -1.20000005 -2.42515111
vt -1.20000005 -3.42515111
vt -0.446713001 -2.42515111
vt -0.451712996 -2.42515111
vt -0.446713001 -3.42515111
vt -0.446713001 -3.42515111
vt -0.451712996 -2.42515111
vt -0.451712996 -3.42515111
vt 1.20000005 -2.42515111
vt 0.970000029 -2.42515111
vt 1.20000005 -3.42515111
vt 1.20000005 -3.42515111
vt 0.970000029 -2.42515111
vt 0.970000029 -3.42515111
vt -0.451712996 -2.42515111
vt -0.566712976 -2.42515111
vt -0.451712996 -3.42515111
vt -0.451712996 -3.42515111
vt -0.566712976 -2.42515111
vt -0.566712976 -3.42515111
vt -0.970000029 -2.42515111
vt -1.20500004 -2.42515111
vt -0.970000029 -3.42515111
vt -0.970000029 -3.42515111
vt -1.20500004 -2.42515111
vt -1.20500004 -3.42515111
vt 0.806712985 0.354999989
vt 0.806712985 1.05499995
vt 0.781713009 0.354999989
vt 0.781713009 0.354999989
vt 0.806712985 1.05499995
vt 0.781713009 1.07375002
vt -0.806712985 -3.42515111
vt -0.781713009 -3.42515111
vt -0.806712985 -2.93015099
vt -0.806712985 -2.93015099
vt -0.781713009 -3.42515111
vt -0.781713009 -2.93015099
vt -0.354999989 -3.42515111
vt -0.354999989 -2.93015099
vt -1.05499995 -3.42515111
vt -1.05499995 -3.42515111
vt -0.354999989 -2.93015099
vt -1.05499995 -2.93015099
vt -0.806712985 0.354999989
vt -0.781713009 0.354999989
vt -0.806712985 1.05499995
vt -0.806712985 1.05499995
vt -0.781713009 0.354999989
vt -0.781713009 1.05499995
vt -0.806712985 -2.93015099
vt -0.781713009 -2.93015099
vt -0.806712985 -2.920151
vt -0.806712985 -2.920151
vt -0.781713009 -2.93015099
vt -0.781713009 -2.920151
vt 1.07375002 -3.42515111
vt 1.07375002 -2.42515111
vt 1.05499995 -2.920151
vt 1.05499995 -2.920151
vt 1.07375002 -2.42515111
vt 0.354999989 -2.42515111
vt 0.781713009 1.05499995
vt 0.781713009 0.354999989
vt 0.806712985 1.05499995
vt 0.806712985 1.05499995
vt 0.781713009 0.354999989
vt 0.806712985 0.354999989
vt -0.781713009 -2.920151
vt -0.781713009 -2.42515111
vt -0.806712985 -2.920151
vt -0.806712985 -2.920151
vt -0.781713009 -2.42515111
vt -0.806712985 -2.42515111
vt -0.781713009 1.07375002
vt -0.806712985 1.05499995
vt -0.781713009 0.354999989
vt -0.781713009 0.354999989
vt -0.806712985 1.05499995
vt -0.806712985 0.354999989
vt -0.354999989 -2.42515111
vt -1.05499995 -2.42515111
vt -0.354999989 -2.920151
vt -0.354999989 -2.920151
vt -1.05499995 -2.42515111
vt -1.05499995 -2.920151
vt 0.558287024 -3.42515111
vt 0.613286972 -3.42515111
vt 0.558287024 -2.42515111
vt 0.558287024 -2.42515111
vt 0.613286972 -3.42515111
vt 0.613286972 -2.42515111
vt 0.939999998 -3.42515111
vt 1.03499997 -3.42515111
vt 0.939999998 -2.42515111
vt 0.939999998 -2.42515111
vt 1.03499997 -3.42515111
vt 1.03499997 -2.42515111
vt -0.613286972 -2.42515111
vt -0.613286972 -3.42515111
vt -0.473286986 -2.42515111
vt -0.473286986 -2.42515111
vt -0.613286972 -3.42515111
vt -0.473286986 -3.42515111
vt 0.613286972 1.03499997
vt 0.473286986 1.03499997
vt 0.558287024 0.939999998
vt 0.558287024 0.939999998
vt 0.473286986 1.03499997
vt 0.473286986 0.689999998
vt -0.613286972 1.03499997
vt -0.558287024 0.939999998
vt -0.473286986 1.03499997
vt -0.473286986 1.03499997
vt -0.558287024 0.939999998
vt -0.473286986 0.689999998
vt -1.03499997 -2.42515111
vt -1.03499997 -3.42515111
vt -0.689999998 -2.42515111
vt -0.689999998 -2.42515111
vt -1.03499997 -3.42515111
vt -0.689999998 -3.42515111
vt 0.939999998 -2.42515111
vt 0.689999998 -2.42515111
vt 0.939999998 -3.42515111
vt 0.939999998 -3.42515111
vt 0.689999998 -2.42515111
vt 0.689999998 -3.42515111
vt 0.473286986 -3.42515111
vt 0.558287024 -3.42515111
vt 0.473286986 -2.42515111
vt 0.473286986 -2.42515111
vt 0.558287024 -3.42515111
vt 0.558287024 -2.42515111
vt -0.629482985 -3.42515111
vt -0.604483008 -3.42515111
vt -0.629482985 -2.42515111
vt -0.629482985 -2.42515111
vt -0.604483008 -3.42515111
vt -0.604483008 -2.42515111
vt 0.56328702 -3.42515111
vt 0.613286972 -3.42515111
vt 0.56328702 -2.42515111
vt 0.56328702 -2.42515111
vt 0.613286972 -3.42515111
vt 0.613286972 -2.42515111
vt 0.604483008 -3.42515111
vt 0.935000002 -3.42515111
vt 0.604483008 -2.42515111
vt 0.604483008 -2.42515111
vt 0.935000002 -3.42515111
vt 0.935000002 -2.42515111
vt -0.613286972 -3.42515111
vt -0.56328702 -3.42515111
vt -0.613286972 -2.42515111
vt -0.613286972 -2.42515111
vt -0.56328702 -3.42515111
vt -0.56328702 -2.42515111
vt -0.935000002 -3.42515111
vt -0.685000002 -3.42515111
vt -0.935000002 -2.42515111
vt -0.935000002 -2.42515111
vt -0.685000002 -3.42515111
vt -0.685000002 -2.42515111
vt -0.56328702 -2.42515111
vt -0.56328702 -3.42515111
vt 0.446713001 -2.42515111
vt 0.446713001 -2.42515111
vt -0.56328702 -3.42515111
vt 0.446713001 -3.42515111
vt 0.56328702 0.629482985
vt -0.446713001 0.685000002
vt -0.566712976 0.629482985
vt -0.566712976 0.629482985
vt -0.446713001 0.685000002
vt -0.566712976 0.964999974
vt 0.56328702 -2.42515111
vt -0.566712976 -2.42515111
vt 0.56328702 -3.42515111
vt 0.56328702 -3.42515111
vt -0.566712976 -2.42515111
vt -0.566712976 -3.42515111
vt -0.56328702 0.629482985
vt 0.566712976 0.629482985
vt 0.446713001 0.685000002
vt 0.446713001 0.685000002
vt 0.566712976 0.629482985
vt 0.566712976 0.964999974
vt -0.629482985 -3.42515111
vt -0.629482985 -2.42515111
vt -0.964999974 -3.42515111
vt -0.964999974 -3.42515111
vt -0.629482985 -2.42515111
vt -0.964999974 -2.42515111
vt 0.685000002 -2.42515111
vt 0.685000002 -3.42515111
vt 0.964999974 -2.42515111
vt 0.964999974 -2.42515111
vt 0.685000002 -3.42515111
vt 0.964999974 -3.42515111
vt 0.566712976 -2.42515111
vt 0.446713001 -2.42515111
vt 0.566712976 -3.42515111
vt 0.566712976 -3.42515111
vt 0.446713001 -2.42515111
vt 0.446713001 -3.42515111
vt -0.354999989 -2.42515111
vt -0.455000013 -2.42515111
vt -0.354999989 -3.42515111
vt -0.354999989 -3.42515111
vt -0.455000013 -2.42515111
vt -0.455000013 -3.42515111
vt 0.528286994 -2.42515111
vt 0.528286994 -3.42515111
vt 0.613286972 -2.42515111
vt 0.613286972 -2.42515111
vt 0.528286994 -3.42515111
vt 0.613286972 -3.42515111
vt -0.613286972 0.354999989
vt -0.528286994 0.455000013
vt -0.613286972 0.599483013
vt -0.613286972 0.599483013
vt -0.528286994 0.455000013
vt -0.558287024 0.599483013
vt 0.354999989 -3.42515111
vt 0.599483013 -3.42515111
vt 0.354999989 -2.42515111
vt 0.354999989 -2.42515111
vt 0.599483013 -3.42515111
vt 0.599483013 -2.42515111
vt 0.613286972 0.354999989
vt 0.613286972 0.599483013
vt 0.528286994 0.455000013
vt 0.528286994 0.455000013
vt 0.613286972 0.599483013
vt 0.558287024 0.599483013
vt -0.613286972 -3.42515111
vt -0.558287024 -3.42515111
vt -0.613286972 -2.42515111
vt -0.613286972 -2.42515111
vt -0.558287024 -3.42515111
vt -0.558287024 -2.42515111
vt 0.599483013 -3.42515111
vt 0.624482989 -3.42515111
vt 0.599483013 -2.42515111
vt 0.599483013 -2.42515111
vt 0.624482989 -3.42515111
vt 0.624482989 -2.42515111
vt -0.558287024 -3.42515111
vt 0.571712971 -3.42515111
vt -0.558287024 -2.42515111
vt -0.558287024 -2.42515111
vt 0.571712971 -3.42515111
vt 0.571712971 -2.42515111
vt 0.528286994 -2.42515111
vt -0.571712971 -2.42515111
vt 0.528286994 -3.42515111
vt 0.528286994 -3.42515111
vt -0.571712971 -2.42515111
vt -0.571712971 -3.42515111
vt -0.558287024 0.599483013
vt 0.571712971 0.455000013
vt 0.571712971 0.624482989
vt 0.571712971 0.624482989
vt 0.571712971 0.455000013
vt 0.776713014 0.354999989
vt 0.624482989 -3.42515111
vt 1.20500004 -3.42515111
vt 0.624482989 -2.42515111
vt 0.624482989 -2.42515111
vt 1.20500004 -3.42515111
vt 1.20500004 -2.42515111
vt 0.571712971 -3.42515111
vt 0.606712997 -3.42515111
vt 0.571712971 -2.42515111
vt 0.571712971 -2.42515111
vt 0.606712997 -3.42515111
vt 0.606712997 -2.42515111
vt 0.606712997 -2.42515111
vt 0.606712997 -3.42515111
vt 0.776713014 -2.42515111
vt 0.776713014 -2.42515111
vt 0.606712997 -3.42515111
vt 0.776713014 -3.42515111
vt 0.606712997 1.20500004
vt 0.571712971 0.624482989
vt 0.776713014 1.07749999
vt 0.776713014 1.07749999
vt 0.571712971 0.624482989
vt 0.776713014 0.354999989
vt -1.07749999 -2.42515111
vt -1.07749999 -3.42515111
vt -0.354999989 -2.42515111
vt -0.354999989 -2.42515111
vt -1.07749999 -3.42515111
vt -0.354999989 -3.42515111
vt 0.455000013 -2.42515111
vt 0.354999989 -2.42515111
vt 0.455000013 -3.42515111
vt 0.455000013 -3.42515111
vt 0.354999989 -2.42515111
vt 0.354999989 -3.42515111
vt 0.548286974 0.0828209966
vt 0.548286974 0.127820998
vt -0.711713016 0.0828209966
vt -0.711713016 0.0828209966
vt 0.548286974 0.127820998
vt -0.711713016 0.127820998
vt -0.548286974 -3.40515089
vt 0.711713016 -3.40515089
vt -0.548286974 -3.33515096
vt -0.548286974 -3.33515096
vt 0.711713016 -3.40515089
vt 0.711713016 -3.33515096
vt 0.127820998 -3.33515096
vt 0.0828209966 -3.33515096
vt 0.127820998 -3.40515089
vt 0.127820998 -3.40515089
vt 0.0828209966 -3.33515096
vt 0.0828209966 -3.40515089
vt 0.548286974 -3.33515096
vt -0.711713016 -3.33515096
vt 0.548286974 -3.40515089
vt 0.548286974 -3.40515089
vt -0.711713016 -3.33515096
vt -0.711713016 -3.40515089
vt -0.127820998 -3.40515089
vt -0.0828209966 -3.40515089
vt -0.127820998 -3.33515096
vt -0.127820998 -3.33515096
vt -0.0828209966 -3.40515089
vt -0.0828209966 -3.33515096
f 1/1 2/2 3/3
f 4/4 5/5 6/6
f 6/7 5/8 7/9
f 6/10 7/11 8/12
f 8/13 7/14 9/15
f 10/16 11/17 12/18
f 3/19 13/20 14/21
f 5/22 15/23 7/24
f 7/25 15/26 16/27
f 7/28 16/29 17/30
f 12/31 18/32 13/33
f 19/34 20/35 14/36
f 21/37 22/38 15/39
f 23/40 24/41 25/42
f 26/43 27/44 28/45
f 25/46 29/47 30/48
f 28/49 31/50 32/51
f 32/52 31/53 33/54
f 34/55 5/56 4/57
f 35/58 36/59 29/60
f 33/61 31/62 37/63
f 36/64 38/65 29/66
f 29/67 38/68 30/69
f 37/70 31/71 39/72
f 38/73 40/74 30/75
f 41/76 42/77 43/78
f 44/79 45/80 46/81
f 47/82 45/83 48/84
f 49/85 50/86 42/87
f 51/88 52/89 53/90
f 54/91 55/92 56/93
f 55/94 57/95 58/96
f 53/97 52/98 59/99
f 52/100 58/101 59/102
f 58/103 57/104 60/105
f 58/106 61/107 59/108
f 57/109 62/110 60/111
f 32/112 33/113 63/114
f 34/115 4/116 1/117
f 1/118 4/119 2/120
f 64/121 65/122 66/123
f 66/124 65/125 67/126
f 68/127 69/128 70/129
f 70/130 69/131 71/132
f 68/133 72/134 69/135
f 69/136 72/137 73/138
f 70/139 74/140 68/141
f 68/142 74/143 72/144
f 74/145 70/146 75/147
f 75/148 70/149 71/150
f 74/151 75/152 72/153
f 72/154 75/155 73/156
f 75/157 71/158 73/159
f 73/160 71/161 69/162
f 76/163 77/164 78/165
f 78/166 77/167 79/168
f 77/169 76/170 80/171
f 80/172 76/173 81/174
f 76/175 78/176 81/177
f 81/178 78/179 82/180
f 81/181 82/182 80/183
f 80/184 82/185 83/186
f 80/187 83/188 77/189
f 77/190 83/191 79/192
f 78/193 79/194 82/195
f 82/196 79/197 83/198
f 84/199 85/200 86/201
f 86/202 85/203 87/204
f 85/205 84/206 88/207
f 88/208 84/209 89/210
f 84/211 86/212 89/213
f 89/214 86/215 90/216
f 89/217 90/218 88/219
f 88/220 90/221 91/222
f 88/223 91/224 85/225
f 85/226 91/227 87/228
f 86/229 87/230 90/231
f 90/232 87/233 91/234
f 92/235 93/236 94/237
f 94/238 93/239 95/240
f 92/241 96/242 93/243
f 93/244 96/245 97/246
f 94/247 98/248 92/249
f 92/250 98/251 96/252
f 98/253 94/254 99/255
f 99/256 94/257 95/258
f 98/259 99/260 96/261
f 96/262 99/263 97/264
f 99/265 95/266 97/267
f 97/268 95/269 93/270
f 100/271 101/272 102/273
f 102/274 101/275 103/276
f 100/277 102/278 104/279
f 104/280 102/281 105/282
f 104/283 106/284 100/285
f 100/286 106/287 101/288
f 106/289 104/290 107/291
f 107/292 104/293 105/294
f 106/295 107/296 101/297
f 101/298 107/299 103/300
f 102/301 103/302 105/303
f 105/304 103/305 107/306
f 108/307 109/308 110/309
f 110/310 109/311 111/312
f 108/313 110/314 112/315
f 112/316 110/317 113/318
f 108/319 112/320 109/321
f 109/322 112/323 114/324
f 112/325 113/326 114/327
f 114/328 113/329 115/330
f 109/331 114/332 111/333
f 111/334 114/335 115/336
f 110/337 111/338 113/339
f 113/340 111/341 115/342
f 116/343 117/344 118/345
f 118/346 117/347 119/348
f 116/349 118/350 120/351
f 120/352 118/353 121/354
f 116/355 120/356 117/357
f 117/358 120/359 122/360
f 120/361 121/362 122/363
f 122/364 121/365 123/366
f 121/367 118/368 123/369
f 123/370 118/371 119/372
f 122/373 123/374 117/375
f 117/376 123/377 119/378
f 124/379 125/380 126/381
f 126/382 125/383 127/384
f 126/385 128/386 124/387
f 124/388 128/389 129/390
f 128/391 130/392 129/393
f 129/394 130/395 131/396
f 130/397 132/398 131/399
f 131/400 132/401 133/402
f 132/403 134/404 133/405
f 133/406 134/407 135/408
f 134/409 136/410 135/411
f 135/412 136/413 137/414
f 136/415 138/416 137/417
f 137/418 138/419 139/420
f 140/421 61/422 60/423
f 60/424 61/425 58/426
f 140/427 60/428 141/429
f 141/430 60/431 62/432
f 140/433 141/434 61/435
f 61/436 141/437 59/438
f 141/439 62/440 59/441
f 59/442 62/443 57/444
f 59/445 57/446 53/447
f 53/448 57/449 55/450
f 58/451 52/452 55/453
f 55/454 52/455 56/456
f 55/457 54/458 53/459
f 53/460 54/461 142/462
f 54/463 56/464 142/465
f 142/466 56/467 143/468
f 52/469 51/470 56/471
f 56/472 51/473 143/474
f 143/475 51/476 142/477
f 142/478 51/479 53/480
f 42/481 50/482 45/483
f 45/484 50/485 48/486
f 50/487 49/488 48/489
f 48/490 49/491 47/492
f 47/493 49/494 144/495
f 144/496 49/497 145/498
f 47/499 144/500 45/501
f 45/502 144/503 46/504
f 49/505 42/506 145/507
f 145/508 42/509 41/510
f 144/511 145/512 46/513
f 46/514 145/515 41/516
f 45/517 44/518 42/519
f 42/520 44/521 43/522
f 41/523 43/524 46/525
f 46/526 43/527 44/528
f 30/529 40/530 31/531
f 31/532 40/533 39/534
f 40/535 38/536 39/537
f 39/538 38/539 37/540
f 38/541 36/542 37/543
f 37/544 36/545 33/546
f 36/547 35/548 33/549
f 33/550 35/551 63/552
f 35/553 29/554 63/555
f 63/556 29/557 32/558
f 32/559 29/560 28/561
f 28/562 29/563 25/564
f 31/565 28/566 146/567
f 146/568 28/569 27/570
f 31/571 146/572 30/573
f 30/574 146/575 147/576
f 30/577 147/578 25/579
f 25/580 147/581 23/582
f 147/583 146/584 23/585
f 23/586 146/587 27/588
f 28/589 25/590 26/591
f 26/592 25/593 24/594
f 27/595 26/596 23/597
f 23/598 26/599 24/600
f 21/601 15/602 20/603
f 20/604 15/605 14/606
f 21/607 20/608 22/609
f 22/610 20/611 19/612
f 19/613 14/614 148/615
f 148/616 14/617 13/618
f 19/619 148/620 22/621
f 22/622 148/623 149/624
f 22/625 149/626 15/627
f 15/628 149/629 16/630
f 148/631 13/632 149/633
f 149/634 13/635 16/636
f 13/637 18/638 16/639
f 16/640 18/641 17/642
f 18/643 12/644 17/645
f 17/646 12/647 7/648
f 15/649 5/650 14/651
f 14/652 5/653 3/654
f 13/655 3/656 12/657
f 12/658 3/659 2/660
f 12/661 11/662 7/663
f 7/664 11/665 9/666
f 11/667 10/668 9/669
f 9/670 10/671 8/672
f 8/673 10/674 6/675
f 6/676 10/677 150/678
f 10/679 12/680 150/681
f 150/682 12/683 2/684
f 6/685 150/686 4/687
f 4/688 150/689 2/690
f 5/691 34/692 3/693
f 3/694 34/695 1/696
f 151/697 152/698 153/699
f 153/700 152/701 154/702
f 67/703 65/704 152/705
f 152/706 65/707 154/708
f 152/709 151/710 67/711
f 67/712 151/713 66/714
f 151/715 153/716 66/717
f 66/718 153/719 64/720
f 65/721 64/722 154/723
f 154/724 64/725 153/726
