# Exported from USD for MuJoCo with source material subsets
v -0.416871958 -6.78482824 0.656900562
v -0.416872316 -7.79462772 0.656900562
v 0.0847277707 -7.29962784 0.656900681
v 0.0847276217 -7.77482801 0.656900681
v 0.0847279197 -6.80462795 0.656900681
v 0.0847279197 -6.78482824 0.656900681
v 0.0847276217 -7.79462772 0.656900681
v 0.0847277707 -7.27982813 0.656900681
vt 0.456 -0.458999991
vt 0.456 0.458999991
vt 0 0.00899999961
vt 0 0.00899999961
vt 0.456 0.458999991
vt 0 0.441000015
vt 0 -0.441000015
vt 0 -0.458999991
vt 0.456 -0.458999991
vt 0 0.458999991
vt 0 0.441000015
vt 0.456 0.458999991
vt 0 0.00899999961
vt 0 -0.00899999961
vt 0.456 -0.458999991
vt 0.456 -0.458999991
vt 0 -0.00899999961
vt 0 -0.441000015
f 1/1 2/2 3/3
f 3/4 2/5 4/6
f 5/7 6/8 1/9
f 7/10 4/11 2/12
f 3/13 8/14 1/15
f 1/16 8/17 5/18
