# Exported from USD for MuJoCo with source material subsets
v 1.74219716 3.53234667 1.06223918
v 1.81185508 3.9201817 1.06223918
v 1.74219692 3.53234667 1.34215263
v 1.81185485 3.9201817 1.34215263
v 1.00434501 2.28226752 0.968698535
v 1.00434495 2.20526761 0.968698535
v 1.0464775 2.28226752 0.933345204
v 1.0464775 2.20526761 0.933345204
vt 0.421434999 0.96566999
vt 0.774012983 0.96566999
vt 0.421434999 1.220137
vt 0.421434999 1.220137
vt 0.774012983 0.96566999
vt 0.774012983 1.220137
vt 0.714999974 0.540427029
vt 0.785000026 0.540427029
vt 0.714999974 0.578728974
vt 0.714999974 0.578728974
vt 0.785000026 0.540427029
vt 0.785000026 0.578728974
f 1/1 2/2 3/3
f 3/4 2/5 4/6
f 5/7 6/8 7/9
f 7/10 6/11 8/12
