# Exported from USD for MuJoCo with source material subsets
v 0.435932432 -4.61332637 1.49836702
v 0.431946226 -4.61638695 1.49836702
v 0.440576826 -4.61140185 1.49836702
v 0.428888929 -4.62037211 1.49836702
v 0.445555649 -4.61074549 1.49836702
v 0.426965927 -4.62501841 1.49836702
v 0.450542159 -4.6114009 1.49836702
v 0.426311065 -4.62999516 1.49836702
v 0.45518121 -4.61332184 1.49836702
v 0.426968535 -4.63498216 1.49836702
v 0.459170393 -4.61638075 1.49836702
v 0.428892241 -4.63962298 1.49836702
v 0.462229888 -4.62036711 1.49836702
v 0.431951719 -4.64360934 1.49836702
v 0.464153594 -4.62500792 1.49836702
v 0.435940902 -4.64666849 1.49836702
v 0.464811063 -4.62999516 1.49836702
v 0.440579941 -4.64858919 1.49836702
v 0.464156172 -4.63497191 1.49836702
v 0.445566467 -4.64924484 1.49836702
v 0.462233185 -4.63961821 1.49836702
v 0.450545288 -4.64858847 1.49836702
v 0.459175888 -4.64360338 1.49836702
v 0.455189682 -4.64666372 1.49836702
v 0.464811078 -4.62999516 1.44336701
v 0.464153609 -4.62500792 1.44336701
v 0.462229903 -4.62036711 1.44336701
v 0.459170411 -4.61638099 1.44336701
v 0.455181229 -4.61332184 1.44336701
v 0.450542173 -4.6114009 1.44336701
v 0.445555664 -4.61074549 1.44336701
v 0.440576841 -4.61140185 1.44336701
v 0.435932447 -4.61332637 1.44336701
v 0.431946241 -4.61638695 1.44336701
v 0.428888946 -4.62037211 1.44336701
v 0.426965942 -4.62501841 1.44336701
v 0.42631108 -4.62999516 1.44336701
v 0.464156187 -4.63497191 1.44336701
v 0.4622332 -4.63961821 1.44336701
v 0.459175902 -4.64360338 1.44336701
v 0.455189697 -4.64666372 1.44336701
v 0.450545303 -4.64858847 1.44336701
v 0.445566478 -4.64924484 1.44336701
v 0.440579956 -4.64858919 1.44336701
v 0.435940917 -4.64666849 1.44336701
v 0.431951734 -4.64360934 1.44336701
v 0.428892258 -4.63962298 1.44336701
v 0.426968549 -4.63498216 1.44336701
vt -0.193265006 0.577395022
vt -0.196888 0.574612975
vt -0.189043 0.579144001
vt -0.189043 0.579144001
vt -0.196888 0.574612975
vt -0.199668005 0.570990026
vt -0.189043 0.579144001
vt -0.199668005 0.570990026
vt -0.184515998 0.579741001
vt -0.184515998 0.579741001
vt -0.199668005 0.570990026
vt -0.201416001 0.566766024
vt -0.184515998 0.579741001
vt -0.201416001 0.566766024
vt -0.179983005 0.579145014
vt -0.179983005 0.579145014
vt -0.201416001 0.566766024
vt -0.202011004 0.562241018
vt -0.179983005 0.579145014
vt -0.202011004 0.562241018
vt -0.175766006 0.577399015
vt -0.175766006 0.577399015
vt -0.202011004 0.562241018
vt -0.201414004 0.557708025
vt -0.175766006 0.577399015
vt -0.201414004 0.557708025
vt -0.172139004 0.574617982
vt -0.172139004 0.574617982
vt -0.201414004 0.557708025
vt -0.199664995 0.553489029
vt -0.172139004 0.574617982
vt -0.199664995 0.553489029
vt -0.169358 0.57099402
vt -0.169358 0.57099402
vt -0.199664995 0.553489029
vt -0.196882993 0.549865007
vt -0.169358 0.57099402
vt -0.196882993 0.549865007
vt -0.167609006 0.566775024
vt -0.167609006 0.566775024
vt -0.196882993 0.549865007
vt -0.193257004 0.547083974
vt -0.167609006 0.566775024
vt -0.193257004 0.547083974
vt -0.167010993 0.562241018
vt -0.167010993 0.562241018
vt -0.193257004 0.547083974
vt -0.189040005 0.545337975
vt -0.167010993 0.562241018
vt -0.189040005 0.545337975
vt -0.167606995 0.557717025
vt -0.167606995 0.557717025
vt -0.189040005 0.545337975
vt -0.184505999 0.544741988
vt -0.167606995 0.557717025
vt -0.184505999 0.544741988
vt -0.169355005 0.553493023
vt -0.169355005 0.553493023
vt -0.184505999 0.544741988
vt -0.179979995 0.545338988
vt -0.169355005 0.553493023
vt -0.179979995 0.545338988
vt -0.172133997 0.549870014
vt -0.172133997 0.549870014
vt -0.179979995 0.545338988
vt -0.175758004 0.547088027
vt 0.562241018 1.30896902
vt 0.566775024 1.30896902
vt 0.562241018 1.35896897
vt -0.562241018 1.35896897
vt -0.566775024 1.30896902
vt -0.566775024 1.30896902
vt 0.562241018 1.35896897
vt 0.566775024 1.30896902
vt 0.566775024 1.35896897
vt 0.566775024 1.35896897
vt 0.566775024 1.30896902
vt 0.57099402 1.30896902
vt 0.566775024 1.35896897
vt 0.57099402 1.30896902
vt 0.57099402 1.35896897
vt 0.57099402 1.35896897
vt 0.57099402 1.30896902
vt 0.574617982 1.30896902
vt 0.57099402 1.35896897
vt 0.574617982 1.30896902
vt 0.574617982 1.35896897
vt 0.172139004 1.35896897
vt 0.172139004 1.30896902
vt 0.175766006 1.30896902
vt 0.172139004 1.35896897
vt 0.175766006 1.30896902
vt 0.175766006 1.35896897
vt 0.175766006 1.35896897
vt 0.175766006 1.30896902
vt 0.179983005 1.30896902
vt 0.175766006 1.35896897
vt 0.179983005 1.30896902
vt 0.179983005 1.35896897
vt 0.179983005 1.35896897
vt 0.179983005 1.30896902
vt 0.184515998 1.30896902
vt 0.179983005 1.35896897
vt 0.184515998 1.30896902
vt 0.184515998 1.35896897
vt 0.184515998 1.35896897
vt 0.184515998 1.30896902
vt 0.189043 1.30896902
vt 0.184515998 1.35896897
vt 0.189043 1.30896902
vt 0.189043 1.35896897
vt 0.189043 1.35896897
vt 0.189043 1.30896902
vt 0.193265006 1.30896902
vt 0.189043 1.35896897
vt 0.193265006 1.30896902
vt 0.193265006 1.35896897
vt 0.193265006 1.35896897
vt 0.193265006 1.30896902
vt 0.196888 1.30896902
vt 0.193265006 1.35896897
vt 0.196888 1.30896902
vt 0.196888 1.35896897
vt -0.574612975 1.35896897
vt -0.574612975 1.30896902
vt -0.570990026 1.30896902
vt -0.574612975 1.35896897
vt -0.570990026 1.30896902
vt -0.570990026 1.35896897
vt -0.570990026 1.35896897
vt -0.570990026 1.30896902
vt -0.566766024 1.30896902
vt -0.570990026 1.35896897
vt -0.566766024 1.30896902
vt -0.566766024 1.35896897
vt -0.566766024 1.35896897
vt -0.566766024 1.30896902
vt -0.562241018 1.30896902
vt -0.566766024 1.35896897
vt -0.562241018 1.30896902
vt -0.562241018 1.35896897
vt 0.562241018 1.35896897
vt 0.557717025 1.35896897
vt 0.562241018 1.30896902
vt -0.562241018 1.30896902
vt -0.557717025 1.35896897
vt -0.557717025 1.35896897
vt 0.562241018 1.30896902
vt 0.557717025 1.35896897
vt 0.557717025 1.30896902
vt 0.557717025 1.30896902
vt 0.557717025 1.35896897
vt 0.553493023 1.35896897
vt 0.557717025 1.30896902
vt 0.553493023 1.35896897
vt 0.553493023 1.30896902
vt 0.553493023 1.30896902
vt 0.553493023 1.35896897
vt 0.549870014 1.35896897
vt 0.553493023 1.30896902
vt 0.549870014 1.35896897
vt 0.549870014 1.30896902
vt -0.172133997 1.30896902
vt -0.172133997 1.35896897
vt -0.175758004 1.35896897
vt -0.172133997 1.30896902
vt -0.175758004 1.35896897
vt -0.175758004 1.30896902
vt -0.175758004 1.30896902
vt -0.175758004 1.35896897
vt -0.179979995 1.35896897
vt -0.175758004 1.30896902
vt -0.179979995 1.35896897
vt -0.179979995 1.30896902
vt -0.179979995 1.30896902
vt -0.179979995 1.35896897
vt -0.184505999 1.35896897
vt -0.179979995 1.30896902
vt -0.184505999 1.35896897
vt -0.184505999 1.30896902
vt -0.184505999 1.30896902
vt -0.184505999 1.35896897
vt -0.189040005 1.35896897
vt -0.184505999 1.30896902
vt -0.189040005 1.35896897
vt -0.189040005 1.30896902
vt -0.189040005 1.30896902
vt -0.189040005 1.35896897
vt -0.193257004 1.35896897
vt -0.189040005 1.30896902
vt -0.193257004 1.35896897
vt -0.193257004 1.30896902
vt -0.193257004 1.30896902
vt -0.193257004 1.35896897
vt -0.196882993 1.35896897
vt -0.193257004 1.30896902
vt -0.196882993 1.35896897
vt -0.196882993 1.30896902
vt -0.549865007 1.30896902
vt -0.549865007 1.35896897
vt -0.553489029 1.35896897
vt -0.549865007 1.30896902
vt -0.553489029 1.35896897
vt -0.553489029 1.30896902
vt -0.553489029 1.30896902
vt -0.553489029 1.35896897
vt -0.557708025 1.35896897
vt -0.553489029 1.30896902
vt -0.557708025 1.35896897
vt -0.557708025 1.30896902
vt -0.557708025 1.30896902
vt -0.557708025 1.35896897
vt -0.562241018 1.35896897
vt -0.557708025 1.30896902
vt -0.562241018 1.35896897
vt -0.562241018 1.30896902
f 1/1 2/2 3/3
f 3/4 2/5 4/6
f 3/7 4/8 5/9
f 5/10 4/11 6/12
f 5/13 6/14 7/15
f 7/16 6/17 8/18
f 7/19 8/20 9/21
f 9/22 8/23 10/24
f 9/25 10/26 11/27
f 11/28 10/29 12/30
f 11/31 12/32 13/33
f 13/34 12/35 14/36
f 13/37 14/38 15/39
f 15/40 14/41 16/42
f 15/43 16/44 17/45
f 17/46 16/47 18/48
f 17/49 18/50 19/51
f 19/52 18/53 20/54
f 19/55 20/56 21/57
f 21/58 20/59 22/60
f 21/61 22/62 23/63
f 23/64 22/65 24/66
f 25/67 26/68 17/69
f 17/70 26/71 26/72
f 17/73 26/74 15/75
f 15/76 26/77 27/78
f 15/79 27/80 13/81
f 13/82 27/83 28/84
f 13/85 28/86 11/87
f 11/88 28/89 29/90
f 11/91 29/92 9/93
f 9/94 29/95 30/96
f 9/97 30/98 7/99
f 7/100 30/101 31/102
f 7/103 31/104 5/105
f 5/106 31/107 32/108
f 5/109 32/110 3/111
f 3/112 32/113 33/114
f 3/115 33/116 1/117
f 1/118 33/119 34/120
f 1/121 34/122 2/123
f 2/124 34/125 35/126
f 2/127 35/128 4/129
f 4/130 35/131 36/132
f 4/133 36/134 6/135
f 6/136 36/137 37/138
f 6/139 37/140 8/141
f 17/142 19/143 25/144
f 25/145 19/146 19/147
f 25/148 19/149 38/150
f 38/151 19/152 21/153
f 38/154 21/155 39/156
f 39/157 21/158 23/159
f 39/160 23/161 40/162
f 40/163 23/164 24/165
f 40/166 24/167 41/168
f 41/169 24/170 22/171
f 41/172 22/173 42/174
f 42/175 22/176 20/177
f 42/178 20/179 43/180
f 43/181 20/182 18/183
f 43/184 18/185 44/186
f 44/187 18/188 16/189
f 44/190 16/191 45/192
f 45/193 16/194 14/195
f 45/196 14/197 46/198
f 46/199 14/200 12/201
f 46/202 12/203 47/204
f 47/205 12/206 10/207
f 47/208 10/209 48/210
f 48/211 10/212 8/213
f 48/214 8/215 37/216
