# Exported from USD for MuJoCo with source material subsets
v 8.66062847 2.21191038 0.0500001431
v 8.66273919 2.22388114 0.0500001431
v 8.66062847 2.21191038 1.90734863e-07
v 8.6627393 2.19993986 1.90734863e-07
v 8.6627393 2.19993986 0.0500001431
v 8.66881695 2.18941273 1.90734863e-07
v 8.66881695 2.18941273 0.0500001431
v 8.67812851 2.18159951 1.90734863e-07
v 8.67812851 2.18159951 0.0500001431
v 8.68955067 2.17744221 1.90734863e-07
v 8.68955067 2.17744221 0.0500001431
v 8.70170608 2.17744221 1.90734863e-07
v 8.70170608 2.17744221 0.0500001431
v 8.71312836 2.18159951 1.90734863e-07
v 8.71312836 2.18159951 0.0500001431
v 8.72244003 2.18941273 1.90734863e-07
v 8.72244003 2.18941273 0.0500001431
v 8.72851756 2.19993986 1.90734863e-07
v 8.72851756 2.19993986 0.0500001431
v 8.73062852 2.21191038 1.90734863e-07
v 8.73062852 2.21191038 0.0500001431
v 8.72851756 2.22388114 1.90734863e-07
v 8.72851756 2.22388114 0.0500001431
v 8.72243991 2.23440804 1.90734863e-07
v 8.72243991 2.23440804 0.0500001431
v 8.71312824 2.24222125 1.90734863e-07
v 8.71312824 2.24222125 0.0500001431
v 8.70170608 2.24637879 1.90734863e-07
v 8.70170608 2.24637879 0.0500001431
v 8.68955055 2.24637879 1.90734863e-07
v 8.68955055 2.24637879 0.0500001431
v 8.67812827 2.24222125 1.90734863e-07
v 8.67812827 2.24222125 0.0500001431
v 8.66881683 2.23440804 1.90734863e-07
v 8.66881683 2.23440804 0.0500001431
v 8.66273919 2.22388114 1.90734863e-07
v 8.69562855 2.21191038 1.90734863e-07
v 9.83062783 2.21191134 0.0500006199
v 9.82851705 2.19994082 0.0500006199
v 9.83062783 2.21191134 5.48362732e-07
v 9.82851705 2.22388209 5.48362732e-07
v 9.82851705 2.19994082 5.48362732e-07
v 9.82243934 2.18941368 0.0500006199
v 9.82243934 2.18941368 5.48362732e-07
v 9.81312784 2.1816007 0.0500005007
v 9.81312784 2.1816007 5.48362732e-07
v 9.80170557 2.17744316 0.0500005007
v 9.80170557 2.17744316 5.48362732e-07
v 9.78955021 2.17744316 0.0500005007
v 9.78955021 2.17744316 5.48362732e-07
v 9.77812782 2.1816007 0.0500005007
v 9.77812782 2.1816007 5.48362732e-07
v 9.76881632 2.18941368 0.0500005007
v 9.76881632 2.18941368 5.48362732e-07
v 9.76273861 2.19994082 0.0500005007
v 9.76273861 2.19994082 5.48362732e-07
v 9.76062783 2.21191134 0.0500005007
v 9.76062783 2.21191134 5.48362732e-07
v 9.76273855 2.22388209 0.0500005007
v 9.76273855 2.22388209 5.48362732e-07
v 9.76881632 2.23440899 0.0500005007
v 9.76881632 2.23440899 5.48362732e-07
v 9.77812782 2.2422222 0.0500005007
v 9.77812782 2.2422222 5.48362732e-07
v 9.78955015 2.24637951 0.0500005007
v 9.78955015 2.24637951 5.48362732e-07
v 9.80170551 2.24637951 0.0500005007
v 9.80170551 2.24637951 5.48362732e-07
v 9.81312784 2.2422222 0.0500005007
v 9.81312784 2.2422222 5.48362732e-07
v 9.82243934 2.23440899 0.0500006199
v 9.82243934 2.23440899 5.48362732e-07
v 9.82851705 2.22388209 0.0500006199
v 9.79562786 2.21191134 5.48362732e-07
v 9.76062831 1.66191162 0.0500005007
v 9.76062831 1.66191162 5.48362732e-07
v 9.76273909 1.64994086 5.48362732e-07
v 9.76273903 1.67388238 0.0500005007
v 9.76273903 1.64994086 0.0500005007
v 9.7688168 1.63941421 5.48362732e-07
v 9.7688168 1.63941421 0.0500005007
v 9.77812835 1.63160075 5.48362732e-07
v 9.77812835 1.63160075 0.0500005007
v 9.78955069 1.62744345 5.48362732e-07
v 9.78955069 1.62744345 0.0500005007
v 9.80170598 1.62744345 5.48362732e-07
v 9.80170598 1.62744345 0.0500005007
v 9.81312832 1.63160075 5.48362732e-07
v 9.81312832 1.63160075 0.0500005007
v 9.82243988 1.63941421 5.48362732e-07
v 9.82243988 1.63941421 0.0500006199
v 9.82851752 1.64994086 5.48362732e-07
v 9.82851752 1.64994086 0.0500006199
v 9.8306283 1.66191162 5.48362732e-07
v 9.8306283 1.66191162 0.0500006199
v 9.82851752 1.67388238 5.48362732e-07
v 9.82851752 1.67388238 0.0500006199
v 9.82243988 1.68440928 5.48362732e-07
v 9.82243988 1.68440928 0.0500006199
v 9.81312832 1.69222273 5.48362732e-07
v 9.81312832 1.69222273 0.0500005007
v 9.80170598 1.6963798 5.48362732e-07
v 9.80170598 1.6963798 0.0500005007
v 9.78955063 1.6963798 5.48362732e-07
v 9.78955063 1.6963798 0.0500005007
v 9.77812835 1.69222273 5.48362732e-07
v 9.77812835 1.69222273 0.0500005007
v 9.7688168 1.68440928 5.48362732e-07
v 9.76881674 1.68440928 0.0500005007
v 9.76273903 1.67388238 5.48362732e-07
v 9.79562834 1.66191162 5.48362732e-07
v 8.66062894 1.66191067 0.0500001431
v 8.66062894 1.66191067 1.90734863e-07
v 8.66273978 1.64993991 1.90734863e-07
v 8.66273966 1.67388119 0.0500001431
v 8.66273978 1.64993991 0.0500001431
v 8.66881743 1.63941325 1.90734863e-07
v 8.66881743 1.63941325 0.0500001431
v 8.67812899 1.6315998 1.90734863e-07
v 8.67812899 1.6315998 0.0500001431
v 8.68955114 1.62744249 1.90734863e-07
v 8.68955114 1.62744249 0.0500001431
v 8.70170656 1.62744249 1.90734863e-07
v 8.70170656 1.62744249 0.0500001431
v 8.71312883 1.6315998 1.90734863e-07
v 8.71312883 1.6315998 0.0500001431
v 8.72244051 1.63941325 1.90734863e-07
v 8.72244051 1.63941325 0.0500001431
v 8.72851816 1.64993991 1.90734863e-07
v 8.72851816 1.64993991 0.0500001431
v 8.73062876 1.66191067 1.90734863e-07
v 8.73062876 1.66191067 0.0500001431
v 8.72851816 1.67388119 1.90734863e-07
v 8.72851816 1.67388119 0.0500001431
v 8.72244027 1.68440808 1.90734863e-07
v 8.72244027 1.68440808 0.0500001431
v 8.71312871 1.69222178 1.90734863e-07
v 8.71312871 1.69222178 0.0500001431
v 8.70170656 1.69637884 1.90734863e-07
v 8.70170656 1.69637884 0.0500001431
v 8.68955102 1.69637884 1.90734863e-07
v 8.68955102 1.69637884 0.0500001431
v 8.67812875 1.69222178 1.90734863e-07
v 8.67812875 1.69222178 0.0500001431
v 8.66881731 1.68440808 1.90734863e-07
v 8.66881731 1.68440808 0.0500001431
v 8.66273966 1.67388119 1.90734863e-07
v 8.69562903 1.66191067 1.90734863e-07
vt -0.0500000007 1.14749897
vt -0.0500000007 1.13552797
vt 0 1.14749897
vt 0 1.15946996
vt -0.0500000007 1.14749897
vt 0 1.14749897
vt -0.0500000007 1.14749897
vt 0 1.15946996
vt -0.0500000007 1.15946996
vt -0.0500000007 1.15946996
vt 0 1.15946996
vt 0 1.16999698
vt -0.0500000007 1.15946996
vt 0 1.16999698
vt -0.0500000007 1.16999698
vt -0.844309986 0.0500000007
vt -0.844309986 0
vt -0.834998012 0
vt -0.844309986 0.0500000007
vt -0.834998012 0
vt -0.834998012 0.0500000007
vt -0.834998012 0.0500000007
vt -0.834998012 0
vt -0.823575974 0
vt -0.834998012 0.0500000007
vt -0.823575974 0
vt -0.823575974 0.0500000007
vt -0.823575974 0.0500000007
vt -0.823575974 0
vt -0.811420023 0
vt -0.823575974 0.0500000007
vt -0.811420023 0
vt -0.811420023 0.0500000007
vt -0.811420023 0.0500000007
vt -0.811420023 0
vt -0.799997985 0
vt -0.811420023 0.0500000007
vt -0.799997985 0
vt -0.799997985 0.0500000007
vt -0.799997985 0.0500000007
vt -0.799997985 0
vt -0.790687025 0
vt -0.799997985 0.0500000007
vt -0.790687025 0
vt -0.790687025 0.0500000007
vt 0.0500000007 1.16999698
vt 0 1.16999698
vt 0 1.15946996
vt 0.0500000007 1.16999698
vt 0 1.15946996
vt 0.0500000007 1.15946996
vt 0.0500000007 1.15946996
vt 0 1.15946996
vt 0 1.14749897
vt 0.0500000007 1.15946996
vt 0 1.14749897
vt 0.0500000007 1.14749897
vt 0.0500000007 1.14749897
vt 0 1.14749897
vt 0 1.13552797
vt 0.0500000007 1.14749897
vt 0 1.13552797
vt 0.0500000007 1.13552797
vt 0.0500000007 1.13552797
vt 0 1.13552797
vt 0 1.12500203
vt 0.0500000007 1.13552797
vt 0 1.12500203
vt 0.0500000007 1.12500203
vt 0.790687025 0.0500000007
vt 0.790687025 0
vt 0.799997985 0
vt 0.790687025 0.0500000007
vt 0.799997985 0
vt 0.799997985 0.0500000007
vt 0.799997985 0.0500000007
vt 0.799997985 0
vt 0.811420023 0
vt 0.799997985 0.0500000007
vt 0.811420023 0
vt 0.811420023 0.0500000007
vt 0.811420023 0.0500000007
vt 0.811420023 0
vt 0.823575974 0
vt 0.811420023 0.0500000007
vt 0.823575974 0
vt 0.823575974 0.0500000007
vt 0.823575974 0.0500000007
vt 0.823575974 0
vt 0.834998012 0
vt 0.823575974 0.0500000007
vt 0.834998012 0
vt 0.834998012 0.0500000007
vt 0.834998012 0.0500000007
vt 0.834998012 0
vt 0.844309986 0
vt 0.834998012 0.0500000007
vt 0.844309986 0
vt 0.844309986 0.0500000007
vt -0.0500000007 1.12500203
vt 0 1.12500203
vt 0 1.13552797
vt -0.0500000007 1.12500203
vt 0 1.13552797
vt -0.0500000007 1.13552797
vt -0.0500000007 1.13552797
vt 0 1.13552797
vt 0 1.14749897
vt -0.811420023 1.11303103
vt -0.799997985 1.11718798
vt -0.817498028 1.14749897
vt -0.817498028 1.14749897
vt -0.799997985 1.11718798
vt -0.790687025 1.12500203
vt 0 1.14749897
vt 0 1.12500203
vt 0 1.14749897
vt -0.817498028 1.14749897
vt -0.790687025 1.12500203
vt -0.78460902 1.13552797
vt 0 1.14749897
vt 0 1.13552797
vt 0 1.14749897
vt -0.817498028 1.14749897
vt -0.78460902 1.13552797
vt -0.782498002 1.14749897
vt 0 1.14749897
vt 0 1.14749897
vt 0 1.14749897
vt -0.817498028 1.14749897
vt -0.782498002 1.14749897
vt -0.78460902 1.15946996
vt 0 1.14749897
vt 0 1.15946996
vt 0 1.14749897
vt -0.817498028 1.14749897
vt -0.78460902 1.15946996
vt -0.790687025 1.16999698
vt 0 1.14749897
vt 0 1.16999698
vt 0 1.14749897
vt -0.817498028 1.14749897
vt -0.790687025 1.16999698
vt -0.799997985 1.17780995
vt 0 1.14749897
vt 0 1.17780995
vt 0 1.14749897
vt -0.817498028 1.14749897
vt -0.799997985 1.17780995
vt -0.811420023 1.18196702
vt 0 1.14749897
vt 0 1.18196702
vt 0 1.14749897
vt -0.817498028 1.14749897
vt -0.811420023 1.18196702
vt -0.823575974 1.18196702
vt 0 1.14749897
vt 0 1.18196702
vt 0 1.14749897
vt -0.817498028 1.14749897
vt -0.823575974 1.18196702
vt -0.834998012 1.17780995
vt 0 1.14749897
vt 0 1.17780995
vt 0 1.14749897
vt -0.817498028 1.14749897
vt -0.834998012 1.17780995
vt -0.844309986 1.16999698
vt 0 1.14749897
vt 0 1.16999698
vt 0 1.14749897
vt -0.817498028 1.14749897
vt -0.844309986 1.16999698
vt -0.850386977 1.15946996
vt 0 1.14749897
vt 0 1.15946996
vt 0 1.14749897
vt -0.817498028 1.14749897
vt -0.850386977 1.15946996
vt -0.852497995 1.14749897
vt 0 1.14749897
vt 0 1.14749897
vt 0 1.14749897
vt -0.817498028 1.14749897
vt -0.852497995 1.14749897
vt -0.850386977 1.13552797
vt 0 1.14749897
vt 0 1.13552797
vt 0 1.14749897
vt -0.817498028 1.14749897
vt -0.850386977 1.13552797
vt -0.844309986 1.12500203
vt 0 1.14749897
vt 0 1.12500203
vt 0 1.14749897
vt -0.817498028 1.14749897
vt -0.844309986 1.12500203
vt -0.834998012 1.11718798
vt 0 1.14749897
vt 0 1.11718798
vt 0 1.14749897
vt -0.817498028 1.14749897
vt -0.834998012 1.11718798
vt -0.823575974 1.11303103
vt -0.817498028 1.14749897
vt -0.823575974 1.11303103
vt -0.811420023 1.11303103
vt 0.0500000007 1.14749897
vt 0.0500000007 1.15946996
vt 0 1.14749897
vt 0 1.13552797
vt 0.0500000007 1.14749897
vt 0 1.14749897
vt 0 1.14749897
vt 0.0500000007 1.15946996
vt 0 1.15946996
vt 0 1.15946996
vt 0.0500000007 1.15946996
vt 0.0500000007 1.16999698
vt 0 1.15946996
vt 0.0500000007 1.16999698
vt 0 1.16999698
vt 0.309312999 0
vt 0.309312999 0.0500000007
vt 0.300002009 0.0500000007
vt 0.309312999 0
vt 0.300002009 0.0500000007
vt 0.300002009 0
vt 0.300002009 0
vt 0.300002009 0.0500000007
vt 0.28858 0.0500000007
vt 0.300002009 0
vt 0.28858 0.0500000007
vt 0.28858 0
vt 0.28858 0
vt 0.28858 0.0500000007
vt 0.276423991 0.0500000007
vt 0.28858 0
vt 0.276423991 0.0500000007
vt 0.276423991 0
vt 0.276423991 0
vt 0.276423991 0.0500000007
vt 0.265002012 0.0500000007
vt 0.276423991 0
vt 0.265002012 0.0500000007
vt 0.265002012 0
vt 0.265002012 0
vt 0.265002012 0.0500000007
vt 0.255690008 0.0500000007
vt 0.265002012 0
vt 0.255690008 0.0500000007
vt 0.255690008 0
vt 0 1.16999698
vt -0.0500000007 1.16999698
vt -0.0500000007 1.15946996
vt 0 1.16999698
vt -0.0500000007 1.15946996
vt 0 1.15946996
vt 0 1.15946996
vt -0.0500000007 1.15946996
vt -0.0500000007 1.14749897
vt 0 1.15946996
vt -0.0500000007 1.14749897
vt 0 1.14749897
vt 0 1.14749897
vt -0.0500000007 1.14749897
vt -0.0500000007 1.13552797
vt 0 1.14749897
vt -0.0500000007 1.13552797
vt 0 1.13552797
vt 0 1.13552797
vt -0.0500000007 1.13552797
vt -0.0500000007 1.12500203
vt 0 1.13552797
vt -0.0500000007 1.12500203
vt 0 1.12500203
vt -0.255690008 0
vt -0.255690008 0.0500000007
vt -0.265002012 0.0500000007
vt -0.255690008 0
vt -0.265002012 0.0500000007
vt -0.265002012 0
vt -0.265002012 0
vt -0.265002012 0.0500000007
vt -0.276423991 0.0500000007
vt -0.265002012 0
vt -0.276423991 0.0500000007
vt -0.276423991 0
vt -0.276423991 0
vt -0.276423991 0.0500000007
vt -0.28858 0.0500000007
vt -0.276423991 0
vt -0.28858 0.0500000007
vt -0.28858 0
vt -0.28858 0
vt -0.28858 0.0500000007
vt -0.300002009 0.0500000007
vt -0.28858 0
vt -0.300002009 0.0500000007
vt -0.300002009 0
vt -0.300002009 0
vt -0.300002009 0.0500000007
vt -0.309312999 0.0500000007
vt -0.300002009 0
vt -0.309312999 0.0500000007
vt -0.309312999 0
vt 0 1.12500203
vt 0.0500000007 1.12500203
vt 0.0500000007 1.13552797
vt 0 1.12500203
vt 0.0500000007 1.13552797
vt 0 1.13552797
vt 0 1.13552797
vt 0.0500000007 1.13552797
vt 0.0500000007 1.14749897
vt 0.276423991 1.18196702
vt 0.265002012 1.17780995
vt 0.282501996 1.14749897
vt 0.282501996 1.14749897
vt 0.265002012 1.17780995
vt 0.255690008 1.16999698
vt 0 1.14749897
vt 0 1.16999698
vt 0 1.14749897
vt 0.282501996 1.14749897
vt 0.255690008 1.16999698
vt 0.249613002 1.15946996
vt 0 1.14749897
vt 0 1.15946996
vt 0 1.14749897
vt 0.282501996 1.14749897
vt 0.249613002 1.15946996
vt 0.247501999 1.14749897
vt 0 1.14749897
vt 0 1.14749897
vt 0 1.14749897
vt 0.282501996 1.14749897
vt 0.247501999 1.14749897
vt 0.249613002 1.13552797
vt 0 1.14749897
vt 0 1.13552797
vt 0 1.14749897
vt 0.282501996 1.14749897
vt 0.249613002 1.13552797
vt 0.255690008 1.12500203
vt 0 1.14749897
vt 0 1.12500203
vt 0 1.14749897
vt 0.282501996 1.14749897
vt 0.255690008 1.12500203
vt 0.265002012 1.11718798
vt 0 1.14749897
vt 0 1.11718798
vt 0 1.14749897
vt 0.282501996 1.14749897
vt 0.265002012 1.11718798
vt 0.276423991 1.11303103
vt 0 1.14749897
vt 0 1.11303103
vt 0 1.14749897
vt 0.282501996 1.14749897
vt 0.276423991 1.11303103
vt 0.28858 1.11303103
vt 0 1.14749897
vt 0 1.11303103
vt 0 1.14749897
vt 0.282501996 1.14749897
vt 0.28858 1.11303103
vt 0.300002009 1.11718798
vt 0 1.14749897
vt 0 1.11718798
vt 0 1.14749897
vt 0.282501996 1.14749897
vt 0.300002009 1.11718798
vt 0.309312999 1.12500203
vt 0 1.14749897
vt 0 1.12500203
vt 0 1.14749897
vt 0.282501996 1.14749897
vt 0.309312999 1.12500203
vt 0.315391004 1.13552797
vt 0 1.14749897
vt 0 1.13552797
vt 0 1.14749897
vt 0.282501996 1.14749897
vt 0.315391004 1.13552797
vt 0.317501992 1.14749897
vt 0 1.14749897
vt 0 1.14749897
vt 0 1.14749897
vt 0.282501996 1.14749897
vt 0.317501992 1.14749897
vt 0.315391004 1.15946996
vt 0 1.14749897
vt 0 1.15946996
vt 0 1.14749897
vt 0.282501996 1.14749897
vt 0.315391004 1.15946996
vt 0.309312999 1.16999698
vt 0 1.14749897
vt 0 1.16999698
vt 0 1.14749897
vt 0.282501996 1.14749897
vt 0.309312999 1.16999698
vt 0.300002009 1.17780995
vt 0 1.14749897
vt 0 1.17780995
vt 0 1.14749897
vt 0.282501996 1.14749897
vt 0.300002009 1.17780995
vt 0.28858 1.18196702
vt 0.282501996 1.14749897
vt 0.28858 1.18196702
vt 0.276423991 1.18196702
vt -0.0500000007 1.69749904
vt 0 1.69749904
vt 0 1.70947003
vt -0.0500000007 1.69749904
vt -0.0500000007 1.68552804
vt 0 1.69749904
vt -0.0500000007 1.69749904
vt 0 1.70947003
vt -0.0500000007 1.70947003
vt -0.0500000007 1.70947003
vt 0 1.70947003
vt 0 1.71999705
vt -0.0500000007 1.70947003
vt 0 1.71999705
vt -0.0500000007 1.71999705
vt 0.255690008 0.0500000007
vt 0.255690008 0
vt 0.265002012 0
vt 0.255690008 0.0500000007
vt 0.265002012 0
vt 0.265002012 0.0500000007
vt 0.265002012 0.0500000007
vt 0.265002012 0
vt 0.276423991 0
vt 0.265002012 0.0500000007
vt 0.276423991 0
vt 0.276423991 0.0500000007
vt 0.276423991 0.0500000007
vt 0.276423991 0
vt 0.28858 0
vt 0.276423991 0.0500000007
vt 0.28858 0
vt 0.28858 0.0500000007
vt 0.28858 0.0500000007
vt 0.28858 0
vt 0.300002009 0
vt 0.28858 0.0500000007
vt 0.300002009 0
vt 0.300002009 0.0500000007
vt 0.300002009 0.0500000007
vt 0.300002009 0
vt 0.309312999 0
vt 0.300002009 0.0500000007
vt 0.309312999 0
vt 0.309312999 0.0500000007
vt 0.0500000007 1.71999705
vt 0 1.71999705
vt 0 1.70947003
vt 0.0500000007 1.71999705
vt 0 1.70947003
vt 0.0500000007 1.70947003
vt 0.0500000007 1.70947003
vt 0 1.70947003
vt 0 1.69749904
vt 0.0500000007 1.70947003
vt 0 1.69749904
vt 0.0500000007 1.69749904
vt 0.0500000007 1.69749904
vt 0 1.69749904
vt 0 1.68552804
vt 0.0500000007 1.69749904
vt 0 1.68552804
vt 0.0500000007 1.68552804
vt 0.0500000007 1.68552804
vt 0 1.68552804
vt 0 1.67500198
vt 0.0500000007 1.68552804
vt 0 1.67500198
vt 0.0500000007 1.67500198
vt -0.309312999 0.0500000007
vt -0.309312999 0
vt -0.300002009 0
vt -0.309312999 0.0500000007
vt -0.300002009 0
vt -0.300002009 0.0500000007
vt -0.300002009 0.0500000007
vt -0.300002009 0
vt -0.28858 0
vt -0.300002009 0.0500000007
vt -0.28858 0
vt -0.28858 0.0500000007
vt -0.28858 0.0500000007
vt -0.28858 0
vt -0.276423991 0
vt -0.28858 0.0500000007
vt -0.276423991 0
vt -0.276423991 0.0500000007
vt -0.276423991 0.0500000007
vt -0.276423991 0
vt -0.265002012 0
vt -0.276423991 0.0500000007
vt -0.265002012 0
vt -0.265002012 0.0500000007
vt -0.265002012 0.0500000007
vt -0.265002012 0
vt -0.255690008 0
vt -0.265002012 0.0500000007
vt -0.255690008 0
vt -0.255690008 0.0500000007
vt -0.0500000007 1.67500198
vt 0 1.67500198
vt 0 1.68552804
vt -0.0500000007 1.67500198
vt 0 1.68552804
vt -0.0500000007 1.68552804
vt -0.0500000007 1.68552804
vt 0 1.68552804
vt 0 1.69749904
vt 0.249613002 1.70947003
vt 0.247501999 1.69749904
vt 0.282501996 1.69749904
vt 0.282501996 1.69749904
vt 0.247501999 1.69749904
vt 0.249613002 1.68552804
vt 0 1.69749904
vt 0 1.68552804
vt 0 1.69749904
vt 0.282501996 1.69749904
vt 0.249613002 1.68552804
vt 0.255690008 1.67500198
vt 0 1.69749904
vt 0 1.67500198
vt 0 1.69749904
vt 0.282501996 1.69749904
vt 0.255690008 1.67500198
vt 0.265002012 1.66718805
vt 0 1.69749904
vt 0 1.66718805
vt 0 1.69749904
vt 0.282501996 1.69749904
vt 0.265002012 1.66718805
vt 0.276423991 1.66303098
vt 0 1.69749904
vt 0 1.66303098
vt 0 1.69749904
vt 0.282501996 1.69749904
vt 0.276423991 1.66303098
vt 0.28858 1.66303098
vt 0 1.69749904
vt 0 1.66303098
vt 0 1.69749904
vt 0.282501996 1.69749904
vt 0.28858 1.66303098
vt 0.300002009 1.66718805
vt 0 1.69749904
vt 0 1.66718805
vt 0 1.69749904
vt 0.282501996 1.69749904
vt 0.300002009 1.66718805
vt 0.309312999 1.67500198
vt 0 1.69749904
vt 0 1.67500198
vt 0 1.69749904
vt 0.282501996 1.69749904
vt 0.309312999 1.67500198
vt 0.315391004 1.68552804
vt 0 1.69749904
vt 0 1.68552804
vt 0 1.69749904
vt 0.282501996 1.69749904
vt 0.315391004 1.68552804
vt 0.317501992 1.69749904
vt 0 1.69749904
vt 0 1.69749904
vt 0 1.69749904
vt 0.282501996 1.69749904
vt 0.317501992 1.69749904
vt 0.315391004 1.70947003
vt 0 1.69749904
vt 0 1.70947003
vt 0 1.69749904
vt 0.282501996 1.69749904
vt 0.315391004 1.70947003
vt 0.309312999 1.71999705
vt 0 1.69749904
vt 0 1.71999705
vt 0 1.69749904
vt 0.282501996 1.69749904
vt 0.309312999 1.71999705
vt 0.300002009 1.72781003
vt 0 1.69749904
vt 0 1.72781003
vt 0 1.69749904
vt 0.282501996 1.69749904
vt 0.300002009 1.72781003
vt 0.28858 1.73196697
vt 0 1.69749904
vt 0 1.73196697
vt 0 1.69749904
vt 0.282501996 1.69749904
vt 0.28858 1.73196697
vt 0.276423991 1.73196697
vt 0 1.69749904
vt 0 1.73196697
vt 0 1.69749904
vt 0.282501996 1.69749904
vt 0.276423991 1.73196697
vt 0.265002012 1.72781003
vt 0 1.69749904
vt 0 1.72781003
vt 0 1.69749904
vt 0.282501996 1.69749904
vt 0.265002012 1.72781003
vt 0.255690008 1.71999705
vt 0.282501996 1.69749904
vt 0.255690008 1.71999705
vt 0.249613002 1.70947003
vt -0.0500000007 1.69749904
vt 0 1.69749904
vt 0 1.70947003
vt -0.0500000007 1.69749904
vt -0.0500000007 1.68552804
vt 0 1.69749904
vt -0.0500000007 1.69749904
vt 0 1.70947003
vt -0.0500000007 1.70947003
vt -0.0500000007 1.70947003
vt 0 1.70947003
vt 0 1.71999705
vt -0.0500000007 1.70947003
vt 0 1.71999705
vt -0.0500000007 1.71999705
vt -0.844309986 0.0500000007
vt -0.844309986 0
vt -0.834998012 0
vt -0.844309986 0.0500000007
vt -0.834998012 0
vt -0.834998012 0.0500000007
vt -0.834998012 0.0500000007
vt -0.834998012 0
vt -0.823575974 0
vt -0.834998012 0.0500000007
vt -0.823575974 0
vt -0.823575974 0.0500000007
vt -0.823575974 0.0500000007
vt -0.823575974 0
vt -0.811420023 0
vt -0.823575974 0.0500000007
vt -0.811420023 0
vt -0.811420023 0.0500000007
vt -0.811420023 0.0500000007
vt -0.811420023 0
vt -0.799997985 0
vt -0.811420023 0.0500000007
vt -0.799997985 0
vt -0.799997985 0.0500000007
vt -0.799997985 0.0500000007
vt -0.799997985 0
vt -0.790687025 0
vt -0.799997985 0.0500000007
vt -0.790687025 0
vt -0.790687025 0.0500000007
vt 0.0500000007 1.71999705
vt 0 1.71999705
vt 0 1.70947003
vt 0.0500000007 1.71999705
vt 0 1.70947003
vt 0.0500000007 1.70947003
vt 0.0500000007 1.70947003
vt 0 1.70947003
vt 0 1.69749904
vt 0.0500000007 1.70947003
vt 0 1.69749904
vt 0.0500000007 1.69749904
vt 0.0500000007 1.69749904
vt 0 1.69749904
vt 0 1.68552804
vt 0.0500000007 1.69749904
vt 0 1.68552804
vt 0.0500000007 1.68552804
vt 0.0500000007 1.68552804
vt 0 1.68552804
vt 0 1.67500198
vt 0.0500000007 1.68552804
vt 0 1.67500198
vt 0.0500000007 1.67500198
vt 0.790687025 0.0500000007
vt 0.790687025 0
vt 0.799997985 0
vt 0.790687025 0.0500000007
vt 0.799997985 0
vt 0.799997985 0.0500000007
vt 0.799997985 0.0500000007
vt 0.799997985 0
vt 0.811420023 0
vt 0.799997985 0.0500000007
vt 0.811420023 0
vt 0.811420023 0.0500000007
vt 0.811420023 0.0500000007
vt 0.811420023 0
vt 0.823575974 0
vt 0.811420023 0.0500000007
vt 0.823575974 0
vt 0.823575974 0.0500000007
vt 0.823575974 0.0500000007
vt 0.823575974 0
vt 0.834998012 0
vt 0.823575974 0.0500000007
vt 0.834998012 0
vt 0.834998012 0.0500000007
vt 0.834998012 0.0500000007
vt 0.834998012 0
vt 0.844309986 0
vt 0.834998012 0.0500000007
vt 0.844309986 0
vt 0.844309986 0.0500000007
vt -0.0500000007 1.67500198
vt 0 1.67500198
vt 0 1.68552804
vt -0.0500000007 1.67500198
vt 0 1.68552804
vt -0.0500000007 1.68552804
vt -0.0500000007 1.68552804
vt 0 1.68552804
vt 0 1.69749904
vt -0.823575974 1.66303098
vt -0.811420023 1.66303098
vt -0.817498028 1.69749904
vt -0.817498028 1.69749904
vt -0.811420023 1.66303098
vt -0.799997985 1.66718805
vt 0 1.69749904
vt 0 1.66718805
vt 0 1.69749904
vt -0.817498028 1.69749904
vt -0.799997985 1.66718805
vt -0.790687025 1.67500198
vt 0 1.69749904
vt 0 1.67500198
vt 0 1.69749904
vt -0.817498028 1.69749904
vt -0.790687025 1.67500198
vt -0.78460902 1.68552804
vt 0 1.69749904
vt 0 1.68552804
vt 0 1.69749904
vt -0.817498028 1.69749904
vt -0.78460902 1.68552804
vt -0.782498002 1.69749904
vt 0 1.69749904
vt 0 1.69749904
vt 0 1.69749904
vt -0.817498028 1.69749904
vt -0.782498002 1.69749904
vt -0.78460902 1.70947003
vt 0 1.69749904
vt 0 1.70947003
vt 0 1.69749904
vt -0.817498028 1.69749904
vt -0.78460902 1.70947003
vt -0.790687025 1.71999705
vt 0 1.69749904
vt 0 1.71999705
vt 0 1.69749904
vt -0.817498028 1.69749904
vt -0.790687025 1.71999705
vt -0.799997985 1.72781003
vt 0 1.69749904
vt 0 1.72781003
vt 0 1.69749904
vt -0.817498028 1.69749904
vt -0.799997985 1.72781003
vt -0.811420023 1.73196697
vt 0 1.69749904
vt 0 1.73196697
vt 0 1.69749904
vt -0.817498028 1.69749904
vt -0.811420023 1.73196697
vt -0.823575974 1.73196697
vt 0 1.69749904
vt 0 1.73196697
vt 0 1.69749904
vt -0.817498028 1.69749904
vt -0.823575974 1.73196697
vt -0.834998012 1.72781003
vt 0 1.69749904
vt 0 1.72781003
vt 0 1.69749904
vt -0.817498028 1.69749904
vt -0.834998012 1.72781003
vt -0.844309986 1.71999705
vt 0 1.69749904
vt 0 1.71999705
vt 0 1.69749904
vt -0.817498028 1.69749904
vt -0.844309986 1.71999705
vt -0.850386977 1.70947003
vt 0 1.69749904
vt 0 1.70947003
vt 0 1.69749904
vt -0.817498028 1.69749904
vt -0.850386977 1.70947003
vt -0.852497995 1.69749904
vt 0 1.69749904
vt 0 1.69749904
vt 0 1.69749904
vt -0.817498028 1.69749904
vt -0.852497995 1.69749904
vt -0.850386977 1.68552804
vt 0 1.69749904
vt 0 1.68552804
vt 0 1.69749904
vt -0.817498028 1.69749904
vt -0.850386977 1.68552804
vt -0.844309986 1.67500198
vt 0 1.69749904
vt 0 1.67500198
vt 0 1.69749904
vt -0.817498028 1.69749904
vt -0.844309986 1.67500198
vt -0.834998012 1.66718805
vt -0.817498028 1.69749904
vt -0.834998012 1.66718805
vt -0.823575974 1.66303098
f 1/1 2/2 3/3
f 4/4 1/5 3/6
f 1/7 4/8 5/9
f 5/10 4/11 6/12
f 5/13 6/14 7/15
f 7/16 6/17 8/18
f 7/19 8/20 9/21
f 9/22 8/23 10/24
f 9/25 10/26 11/27
f 11/28 10/29 12/30
f 11/31 12/32 13/33
f 13/34 12/35 14/36
f 13/37 14/38 15/39
f 15/40 14/41 16/42
f 15/43 16/44 17/45
f 17/46 16/47 18/48
f 17/49 18/50 19/51
f 19/52 18/53 20/54
f 19/55 20/56 21/57
f 21/58 20/59 22/60
f 21/61 22/62 23/63
f 23/64 22/65 24/66
f 23/67 24/68 25/69
f 25/70 24/71 26/72
f 25/73 26/74 27/75
f 27/76 26/77 28/78
f 27/79 28/80 29/81
f 29/82 28/83 30/84
f 29/85 30/86 31/87
f 31/88 30/89 32/90
f 31/91 32/92 33/93
f 33/94 32/95 34/96
f 33/97 34/98 35/99
f 35/100 34/101 36/102
f 35/103 36/104 2/105
f 2/106 36/107 3/108
f 28/109 26/110 37/111
f 37/112 26/113 24/114
f 37/115 24/116 37/117
f 37/118 24/119 22/120
f 37/121 22/122 37/123
f 37/124 22/125 20/126
f 37/127 20/128 37/129
f 37/130 20/131 18/132
f 37/133 18/134 37/135
f 37/136 18/137 16/138
f 37/139 16/140 37/141
f 37/142 16/143 14/144
f 37/145 14/146 37/147
f 37/148 14/149 12/150
f 37/151 12/152 37/153
f 37/154 12/155 10/156
f 37/157 10/158 37/159
f 37/160 10/161 8/162
f 37/163 8/164 37/165
f 37/166 8/167 6/168
f 37/169 6/170 37/171
f 37/172 6/173 4/174
f 37/175 4/176 37/177
f 37/178 4/179 3/180
f 37/181 3/182 37/183
f 37/184 3/185 36/186
f 37/187 36/188 37/189
f 37/190 36/191 34/192
f 37/193 34/194 37/195
f 37/196 34/197 32/198
f 37/199 32/200 37/201
f 37/202 32/203 30/204
f 37/205 30/206 28/207
f 38/208 39/209 40/210
f 41/211 38/212 40/213
f 40/214 39/215 42/216
f 42/217 39/218 43/219
f 42/220 43/221 44/222
f 44/223 43/224 45/225
f 44/226 45/227 46/228
f 46/229 45/230 47/231
f 46/232 47/233 48/234
f 48/235 47/236 49/237
f 48/238 49/239 50/240
f 50/241 49/242 51/243
f 50/244 51/245 52/246
f 52/247 51/248 53/249
f 52/250 53/251 54/252
f 54/253 53/254 55/255
f 54/256 55/257 56/258
f 56/259 55/260 57/261
f 56/262 57/263 58/264
f 58/265 57/266 59/267
f 58/268 59/269 60/270
f 60/271 59/272 61/273
f 60/274 61/275 62/276
f 62/277 61/278 63/279
f 62/280 63/281 64/282
f 64/283 63/284 65/285
f 64/286 65/287 66/288
f 66/289 65/290 67/291
f 66/292 67/293 68/294
f 68/295 67/296 69/297
f 68/298 69/299 70/300
f 70/301 69/302 71/303
f 70/304 71/305 72/306
f 72/307 71/308 73/309
f 72/310 73/311 41/312
f 41/313 73/314 38/315
f 50/316 52/317 74/318
f 74/319 52/320 54/321
f 74/322 54/323 74/324
f 74/325 54/326 56/327
f 74/328 56/329 74/330
f 74/331 56/332 58/333
f 74/334 58/335 74/336
f 74/337 58/338 60/339
f 74/340 60/341 74/342
f 74/343 60/344 62/345
f 74/346 62/347 74/348
f 74/349 62/350 64/351
f 74/352 64/353 74/354
f 74/355 64/356 66/357
f 74/358 66/359 74/360
f 74/361 66/362 68/363
f 74/364 68/365 74/366
f 74/367 68/368 70/369
f 74/370 70/371 74/372
f 74/373 70/374 72/375
f 74/376 72/377 74/378
f 74/379 72/380 41/381
f 74/382 41/383 74/384
f 74/385 41/386 40/387
f 74/388 40/389 74/390
f 74/391 40/392 42/393
f 74/394 42/395 74/396
f 74/397 42/398 44/399
f 74/400 44/401 74/402
f 74/403 44/404 46/405
f 74/406 46/407 74/408
f 74/409 46/410 48/411
f 74/412 48/413 50/414
f 75/415 76/416 77/417
f 75/418 78/419 76/420
f 75/421 77/422 79/423
f 79/424 77/425 80/426
f 79/427 80/428 81/429
f 81/430 80/431 82/432
f 81/433 82/434 83/435
f 83/436 82/437 84/438
f 83/439 84/440 85/441
f 85/442 84/443 86/444
f 85/445 86/446 87/447
f 87/448 86/449 88/450
f 87/451 88/452 89/453
f 89/454 88/455 90/456
f 89/457 90/458 91/459
f 91/460 90/461 92/462
f 91/463 92/464 93/465
f 93/466 92/467 94/468
f 93/469 94/470 95/471
f 95/472 94/473 96/474
f 95/475 96/476 97/477
f 97/478 96/479 98/480
f 97/481 98/482 99/483
f 99/484 98/485 100/486
f 99/487 100/488 101/489
f 101/490 100/491 102/492
f 101/493 102/494 103/495
f 103/496 102/497 104/498
f 103/499 104/500 105/501
f 105/502 104/503 106/504
f 105/505 106/506 107/507
f 107/508 106/509 108/510
f 107/511 108/512 109/513
f 109/514 108/515 110/516
f 109/517 110/518 78/519
f 78/520 110/521 76/522
f 77/523 76/524 111/525
f 111/526 76/527 110/528
f 111/529 110/530 111/531
f 111/532 110/533 108/534
f 111/535 108/536 111/537
f 111/538 108/539 106/540
f 111/541 106/542 111/543
f 111/544 106/545 104/546
f 111/547 104/548 111/549
f 111/550 104/551 102/552
f 111/553 102/554 111/555
f 111/556 102/557 100/558
f 111/559 100/560 111/561
f 111/562 100/563 98/564
f 111/565 98/566 111/567
f 111/568 98/569 96/570
f 111/571 96/572 111/573
f 111/574 96/575 94/576
f 111/577 94/578 111/579
f 111/580 94/581 92/582
f 111/583 92/584 111/585
f 111/586 92/587 90/588
f 111/589 90/590 111/591
f 111/592 90/593 88/594
f 111/595 88/596 111/597
f 111/598 88/599 86/600
f 111/601 86/602 111/603
f 111/604 86/605 84/606
f 111/607 84/608 111/609
f 111/610 84/611 82/612
f 111/613 82/614 111/615
f 111/616 82/617 80/618
f 111/619 80/620 77/621
f 112/622 113/623 114/624
f 112/625 115/626 113/627
f 112/628 114/629 116/630
f 116/631 114/632 117/633
f 116/634 117/635 118/636
f 118/637 117/638 119/639
f 118/640 119/641 120/642
f 120/643 119/644 121/645
f 120/646 121/647 122/648
f 122/649 121/650 123/651
f 122/652 123/653 124/654
f 124/655 123/656 125/657
f 124/658 125/659 126/660
f 126/661 125/662 127/663
f 126/664 127/665 128/666
f 128/667 127/668 129/669
f 128/670 129/671 130/672
f 130/673 129/674 131/675
f 130/676 131/677 132/678
f 132/679 131/680 133/681
f 132/682 133/683 134/684
f 134/685 133/686 135/687
f 134/688 135/689 136/690
f 136/691 135/692 137/693
f 136/694 137/695 138/696
f 138/697 137/698 139/699
f 138/700 139/701 140/702
f 140/703 139/704 141/705
f 140/706 141/707 142/708
f 142/709 141/710 143/711
f 142/712 143/713 144/714
f 144/715 143/716 145/717
f 144/718 145/719 146/720
f 146/721 145/722 147/723
f 146/724 147/725 115/726
f 115/727 147/728 113/729
f 141/730 139/731 148/732
f 148/733 139/734 137/735
f 148/736 137/737 148/738
f 148/739 137/740 135/741
f 148/742 135/743 148/744
f 148/745 135/746 133/747
f 148/748 133/749 148/750
f 148/751 133/752 131/753
f 148/754 131/755 148/756
f 148/757 131/758 129/759
f 148/760 129/761 148/762
f 148/763 129/764 127/765
f 148/766 127/767 148/768
f 148/769 127/770 125/771
f 148/772 125/773 148/774
f 148/775 125/776 123/777
f 148/778 123/779 148/780
f 148/781 123/782 121/783
f 148/784 121/785 148/786
f 148/787 121/788 119/789
f 148/790 119/791 148/792
f 148/793 119/794 117/795
f 148/796 117/797 148/798
f 148/799 117/800 114/801
f 148/802 114/803 148/804
f 148/805 114/806 113/807
f 148/808 113/809 148/810
f 148/811 113/812 147/813
f 148/814 147/815 148/816
f 148/817 147/818 145/819
f 148/820 145/821 148/822
f 148/823 145/824 143/825
f 148/826 143/827 141/828
