# Exported from USD for MuJoCo with source material subsets
v 10.8140331 5.42764057 1.26000146
v 10.815238 5.43858542 1.26000146
v 10.8199318 5.43584932 1.26000146
v 10.8225339 5.44306721 1.26000146
v 10.8187075 5.44821037 1.26000146
v 10.8265205 5.44842543 1.26000146
v 10.824023 5.45535339 1.26000146
v 10.8314109 5.45127596 1.26000146
v 10.8305435 5.45915426 1.26000146
v 10.8366151 5.45127596 1.26000146
v 10.8374825 5.45915426 1.26000146
v 10.844003 5.45535339 1.26000146
v 10.8415055 5.44842543 1.26000146
v 10.8493186 5.44821037 1.26000146
v 10.8454922 5.44306721 1.26000146
v 10.8527881 5.43858542 1.26000146
v 10.8480943 5.43584932 1.26000146
v 10.853993 5.42764057 1.26000146
v 10.848998 5.42764057 1.26000146
v 10.8527881 5.41669573 1.26000146
v 10.8480943 5.4194323 1.26000146
v 10.8493186 5.40707125 1.26000146
v 10.8454922 5.41221394 1.26000146
v 10.8415055 5.40685619 1.26000146
v 10.844003 5.39992775 1.26000146
v 10.8366151 5.40400518 1.26000146
v 10.8374825 5.3961264 1.26000146
v 10.8305435 5.3961264 1.26000146
v 10.8314109 5.40400518 1.26000146
v 10.8265205 5.40685619 1.26000146
v 10.824023 5.39992775 1.26000146
v 10.8187075 5.40707125 1.26000146
v 10.8225338 5.41221394 1.26000146
v 10.8199317 5.4194323 1.26000146
v 10.815238 5.41669573 1.26000146
v 10.8106163 5.42764057 1.26060448
v 10.8120273 5.41482414 1.26060448
v 10.8076116 5.42764057 1.26234106
v 10.8092038 5.4131781 1.26234106
v 10.8053814 5.42764057 1.26500146
v 10.8071082 5.41195644 1.26500146
v 10.8041948 5.42764057 1.2682649
v 10.8059931 5.41130652 1.2682649
v 10.8041948 5.42764057 1.27173792
v 10.8059931 5.41130652 1.27173792
v 10.8053814 5.42764057 1.27500146
v 10.8071082 5.41195644 1.27500146
v 10.8076116 5.42764057 1.27766199
v 10.8092038 5.4131781 1.27766199
v 10.8106163 5.42764057 1.27939832
v 10.8120273 5.41482414 1.27939832
v 10.8140331 5.42764057 1.28000146
v 10.8160901 5.40355362 1.26060448
v 10.8137884 5.40046038 1.26234106
v 10.81208 5.39816441 1.26500146
v 10.8111709 5.39694275 1.2682649
v 10.8111709 5.39694275 1.27173792
v 10.81208 5.39816441 1.27500146
v 10.8137884 5.40046038 1.27766199
v 10.8160901 5.40355362 1.27939832
v 10.815238 5.41669573 1.28000146
v 10.8187075 5.40707125 1.28000146
v 10.8223146 5.39518847 1.27939832
v 10.824023 5.39992775 1.28000146
v 10.8299502 5.39073719 1.27939832
v 10.8305435 5.3961264 1.28000146
v 10.8380758 5.39073719 1.27939832
v 10.8374825 5.3961264 1.28000146
v 10.8457114 5.39518847 1.27939832
v 10.844003 5.39992775 1.28000146
v 10.851936 5.40355362 1.27939832
v 10.8493186 5.40707125 1.28000146
v 10.8559988 5.41482414 1.27939832
v 10.8527881 5.41669573 1.28000146
v 10.8574098 5.42764057 1.27939832
v 10.853993 5.42764057 1.28000146
v 10.8559988 5.440457 1.27939832
v 10.8527881 5.43858542 1.28000146
v 10.851936 5.45172705 1.27939832
v 10.8493186 5.44821037 1.28000146
v 10.8457114 5.4600922 1.27939832
v 10.844003 5.45535339 1.28000146
v 10.8380758 5.46454348 1.27939832
v 10.8374825 5.45915426 1.28000146
v 10.8299502 5.46454348 1.27939832
v 10.8305435 5.45915426 1.28000146
v 10.8223147 5.4600922 1.27939832
v 10.824023 5.45535339 1.28000146
v 10.8160901 5.45172705 1.27939832
v 10.8187075 5.44821037 1.28000146
v 10.8120273 5.440457 1.27939832
v 10.815238 5.43858542 1.28000146
v 10.8092038 5.44210257 1.27766199
v 10.8071082 5.44332422 1.27500146
v 10.8059931 5.44397463 1.27173792
v 10.8059931 5.44397463 1.2682649
v 10.8071082 5.44332422 1.26500146
v 10.8092038 5.44210257 1.26234106
v 10.8120273 5.440457 1.26060448
v 10.8137884 5.45482077 1.27766199
v 10.81208 5.45711674 1.27500146
v 10.811171 5.45833792 1.27173792
v 10.811171 5.45833792 1.2682649
v 10.81208 5.45711674 1.26500146
v 10.8137884 5.45482077 1.26234106
v 10.8160901 5.45172705 1.26060448
v 10.8223147 5.4600922 1.26060448
v 10.8299502 5.46454348 1.26060448
v 10.8380758 5.46454348 1.26060448
v 10.8457114 5.4600922 1.26060448
v 10.851936 5.45172705 1.26060448
v 10.8559988 5.440457 1.26060448
v 10.8574098 5.42764057 1.26060448
v 10.8559988 5.41482414 1.26060448
v 10.851936 5.40355362 1.26060448
v 10.8457114 5.39518847 1.26060448
v 10.8380758 5.39073719 1.26060448
v 10.8299502 5.39073719 1.26060448
v 10.8223146 5.39518847 1.26060448
v 10.8208123 5.39102139 1.26234106
v 10.8196972 5.38792767 1.26500146
v 10.8191039 5.38628162 1.2682649
v 10.8191039 5.38628162 1.27173792
v 10.8196972 5.38792767 1.27500146
v 10.8208123 5.39102139 1.27766199
v 10.8294285 5.38599838 1.27766199
v 10.8385976 5.38599838 1.27766199
v 10.8472137 5.39102139 1.27766199
v 10.8542377 5.40046038 1.27766199
v 10.8588223 5.4131781 1.27766199
v 10.8604145 5.42764057 1.27766199
v 10.8588223 5.44210257 1.27766199
v 10.8542377 5.45482077 1.27766199
v 10.8472137 5.46426024 1.27766199
v 10.8385976 5.46928276 1.27766199
v 10.8294285 5.46928276 1.27766199
v 10.8208123 5.46426024 1.27766199
v 10.8196973 5.46735348 1.27500146
v 10.819104 5.46899904 1.27173792
v 10.819104 5.46899904 1.2682649
v 10.8196973 5.46735348 1.26500146
v 10.8208123 5.46426024 1.26234106
v 10.8294285 5.46928276 1.26234106
v 10.8385976 5.46928276 1.26234106
v 10.8472138 5.46426024 1.26234106
v 10.8542377 5.45482077 1.26234106
v 10.8588223 5.44210257 1.26234106
v 10.8604145 5.42764057 1.26234106
v 10.8588223 5.4131781 1.26234106
v 10.8542377 5.40046038 1.26234106
v 10.8472137 5.39102139 1.26234106
v 10.8385976 5.38599838 1.26234106
v 10.8294285 5.38599838 1.26234106
v 10.8290412 5.38248123 1.26500146
v 10.8288352 5.38060917 1.2682649
v 10.8288352 5.38060917 1.27173792
v 10.8290412 5.38248123 1.27500146
v 10.8389848 5.38248123 1.27500146
v 10.8483288 5.38792767 1.27500146
v 10.8559461 5.39816441 1.27500146
v 10.8609179 5.41195644 1.27500146
v 10.8626446 5.42764057 1.27500146
v 10.8609179 5.44332422 1.27500146
v 10.8559461 5.45711674 1.27500146
v 10.8483288 5.46735348 1.27500146
v 10.8389849 5.47280039 1.27500146
v 10.8290412 5.47280039 1.27500146
v 10.8288352 5.47467197 1.27173792
v 10.8288352 5.47467197 1.2682649
v 10.8290412 5.47280039 1.26500146
v 10.8389849 5.47280039 1.26500146
v 10.8483288 5.46735348 1.26500146
v 10.8559461 5.45711674 1.26500146
v 10.8609179 5.44332422 1.26500146
v 10.8626446 5.42764057 1.26500146
v 10.8609179 5.41195644 1.26500146
v 10.8559461 5.39816441 1.26500146
v 10.8483288 5.38792767 1.26500146
v 10.8389848 5.38248123 1.26500146
v 10.8391909 5.38060917 1.2682649
v 10.8391909 5.38060917 1.27173792
v 10.8489221 5.38628162 1.27173792
v 10.8568551 5.39694275 1.27173792
v 10.862033 5.41130652 1.27173792
v 10.8638312 5.42764057 1.27173792
v 10.862033 5.44397415 1.27173792
v 10.8568551 5.45833792 1.27173792
v 10.8489222 5.46899904 1.27173792
v 10.8391909 5.47467197 1.27173792
v 10.8391909 5.47467197 1.2682649
v 10.8489222 5.46899904 1.2682649
v 10.8568551 5.45833792 1.2682649
v 10.862033 5.44397415 1.2682649
v 10.8638312 5.42764057 1.2682649
v 10.862033 5.41130652 1.2682649
v 10.8568551 5.39694275 1.2682649
v 10.8489221 5.38628162 1.2682649
v 10.819028 5.42764057 1.26000146
v 10.834013 5.42764057 1.28000146
v 10.7915322 6.21395315 1.34500134
v 10.793179 6.224939 1.34500134
v 10.8359337 6.20268978 1.34500134
v 10.7958785 6.23537697 1.34500134
v 10.7995643 6.24501003 1.34500134
v 10.8041457 6.25360169 1.34500134
v 10.8095098 6.26093926 1.34500134
v 10.8155246 6.26684202 1.34500134
v 10.8220418 6.27116598 1.34500134
v 10.8289012 6.27380337 1.34500134
v 10.8359337 6.27468981 1.34500134
v 10.8429662 6.27380337 1.34500134
v 10.8498255 6.27116598 1.34500134
v 10.8563428 6.26684202 1.34500134
v 10.8623576 6.26093926 1.34500134
v 10.8677216 6.25360169 1.34500134
v 10.872303 6.24501003 1.34500134
v 10.8759889 6.23537697 1.34500134
v 10.8786884 6.224939 1.34500134
v 10.8803352 6.21395315 1.34500134
v 10.8808886 6.20268978 1.34500134
v 10.8803352 6.19142689 1.34500134
v 10.8786884 6.18044104 1.34500134
v 10.8759888 6.17000212 1.34500134
v 10.872303 6.16036905 1.34500134
v 10.8677216 6.15177836 1.34500134
v 10.8623575 6.14444031 1.34500134
v 10.8563428 6.13853754 1.34500134
v 10.8498255 6.13421406 1.34500134
v 10.8429662 6.1315762 1.34500134
v 10.8359337 6.13068976 1.34500134
v 10.8289011 6.1315762 1.34500134
v 10.8220418 6.13421406 1.34500134
v 10.8155245 6.13853754 1.34500134
v 10.8095098 6.14444031 1.34500134
v 10.8041457 6.15177836 1.34500134
v 10.7995643 6.16036905 1.34500134
v 10.7958785 6.17000212 1.34500134
v 10.7931789 6.18044104 1.34500134
v 10.7915322 6.19142689 1.34500134
v 10.7909787 6.20268978 1.34500134
v 10.8155245 6.26684202 1.41500134
v 10.8095098 6.26093926 1.41500134
v 10.8359337 6.20268978 1.41500134
v 10.8041457 6.25360169 1.41500134
v 10.7995643 6.24501003 1.41500134
v 10.7958785 6.23537697 1.41500134
v 10.7931789 6.224939 1.41500134
v 10.7915321 6.21395315 1.41500134
v 10.7909787 6.20268978 1.41500134
v 10.7915321 6.19142689 1.41500134
v 10.7931789 6.18044104 1.41500134
v 10.7958784 6.17000212 1.41500134
v 10.7995643 6.16036905 1.41500134
v 10.8041457 6.15177836 1.41500134
v 10.8095098 6.14444031 1.41500134
v 10.8155245 6.13853754 1.41500134
v 10.8220418 6.13421406 1.41500134
v 10.8289011 6.1315762 1.41500134
v 10.8359336 6.13068976 1.41500134
v 10.8429661 6.1315762 1.41500134
v 10.8498255 6.13421406 1.41500134
v 10.8563428 6.13853754 1.41500134
v 10.8623575 6.14444031 1.41500134
v 10.8677216 6.15177836 1.41500134
v 10.8723029 6.16036905 1.41500134
v 10.8759888 6.17000212 1.41500134
v 10.8786884 6.18044104 1.41500134
v 10.8803351 6.19142689 1.41500134
v 10.8808886 6.20268978 1.41500134
v 10.8803351 6.21395315 1.41500134
v 10.8786884 6.224939 1.41500134
v 10.8759888 6.23537697 1.41500134
v 10.872303 6.24501003 1.41500134
v 10.8677216 6.25360169 1.41500134
v 10.8623576 6.26093926 1.41500134
v 10.8563428 6.26684202 1.41500134
v 10.8498255 6.27116598 1.41500134
v 10.8429662 6.27380337 1.41500134
v 10.8359337 6.27468981 1.41500134
v 10.8289012 6.27380337 1.41500134
v 10.8220418 6.27116598 1.41500134
vt -0.0199810006 0.195997998
vt -0.0187759995 0.185053006
vt -0.0140819997 0.187788993
vt -1.25999999 0.187788993
vt -1.25999999 0.185053006
vt -1.25999999 0.185053006
vt -0.0140819997 0.187788993
vt -0.0187759995 0.185053006
vt -0.0114799999 0.180571005
vt -0.0114799999 0.180571005
vt -0.0187759995 0.185053006
vt -0.0153059997 0.175428003
vt -0.0114799999 0.180571005
vt -0.0153059997 0.175428003
vt -0.00749300001 0.175212994
vt -0.00749300001 0.175212994
vt -0.0153059997 0.175428003
vt -0.00999100041 0.168284997
vt -0.00749300001 0.175212994
vt -0.00999100041 0.168284997
vt -0.00260300003 0.172362
vt -0.00260300003 0.172362
vt -0.00999100041 0.168284997
vt -0.00347000011 0.164483994
vt -0.00260300003 0.172362
vt -0.00347000011 0.164483994
vt 0.00260100001 0.172362
vt 0.00260100001 0.172362
vt -0.00347000011 0.164483994
vt 0.0034690001 0.164483994
vt -1.25999999 0.172362
vt -1.25999999 0.164483994
vt -1.25999999 0.172362
vt 0.00260100001 0.172362
vt 0.0034690001 0.164483994
vt 0.00998899993 0.168284997
vt 0.00260100001 0.172362
vt 0.00998899993 0.168284997
vt 0.00749199977 0.175212994
vt 0.00749199977 0.175212994
vt 0.00998899993 0.168284997
vt 0.0153050004 0.175428003
vt 0.00749199977 0.175212994
vt 0.0153050004 0.175428003
vt 0.0114780003 0.180571005
vt 0.0114780003 0.180571005
vt 0.0153050004 0.175428003
vt 0.0187740009 0.185053006
vt 0.0114780003 0.180571005
vt 0.0187740009 0.185053006
vt 0.0140800001 0.187788993
vt 0.0140800001 0.187788993
vt 0.0187740009 0.185053006
vt 0.0199790001 0.195997998
vt 0.0140800001 0.187788993
vt 0.0199790001 0.195997998
vt 0.0149839995 0.195997998
vt 0.0149839995 0.195997998
vt 0.0199790001 0.195997998
vt 0.0187740009 0.206942007
vt 0.0149839995 0.195997998
vt 0.0187740009 0.206942007
vt 0.0140800001 0.204206005
vt 0.0140800001 0.204206005
vt 0.0187740009 0.206942007
vt 0.0153050004 0.216566995
vt 0.0140800001 0.204206005
vt 0.0153050004 0.216566995
vt 0.0114780003 0.211425006
vt -1.25999999 0.211425006
vt -1.25999999 0.216566995
vt -1.25999999 0.216566995
vt 0.0114780003 0.211425006
vt 0.0153050004 0.216566995
vt 0.00749199977 0.216782004
vt 0.00749199977 0.216782004
vt 0.0153050004 0.216566995
vt 0.00998899993 0.223710001
vt 0.00749199977 0.216782004
vt 0.00998899993 0.223710001
vt 0.00260100001 0.219632998
vt 0.00260100001 0.219632998
vt 0.00998899993 0.223710001
vt 0.0034690001 0.227512002
vt -1.25999999 0.219632998
vt -1.25999999 0.227512002
vt -1.25999999 0.219632998
vt 0.00260100001 0.219632998
vt 0.0034690001 0.227512002
vt -0.00347000011 0.227512002
vt 0.00260100001 0.219632998
vt -0.00347000011 0.227512002
vt -0.00260300003 0.219632998
vt -1.25999999 0.219632998
vt -1.25999999 0.227512002
vt -1.25999999 0.227512002
vt -0.00260300003 0.219632998
vt -0.00347000011 0.227512002
vt -0.00749300001 0.216782004
vt -0.00749300001 0.216782004
vt -0.00347000011 0.227512002
vt -0.00999100041 0.223710001
vt -1.25999999 0.216782004
vt -1.25999999 0.223710001
vt -1.25999999 0.216782004
vt -0.00749300001 0.216782004
vt -0.00999100041 0.223710001
vt -0.0153059997 0.216566995
vt -0.00749300001 0.216782004
vt -0.0153059997 0.216566995
vt -0.0114799999 0.211425006
vt -1.25999999 0.211425006
vt -1.25999999 0.216566995
vt -1.25999999 0.216566995
vt -0.0114799999 0.211425006
vt -0.0153059997 0.216566995
vt -0.0140819997 0.204206005
vt -0.0140819997 0.204206005
vt -0.0153059997 0.216566995
vt -0.0187759995 0.206942007
vt -0.0140819997 0.204206005
vt -0.0187759995 0.206942007
vt -0.0199810006 0.195997998
vt -0.0199810006 0.195997998
vt -0.0187759995 0.206942007
vt -0.0233980007 0.195997998
vt -0.0233980007 0.195997998
vt -0.0187759995 0.206942007
vt -0.0219870005 0.208813995
vt -0.0233980007 0.195997998
vt -0.0219870005 0.208813995
vt -0.0264020003 0.195997998
vt -0.0264020003 0.195997998
vt -0.0219870005 0.208813995
vt -0.0248099994 0.210460007
vt -1.26233995 0.195997998
vt -1.26233995 0.210460007
vt -1.26499999 0.195997998
vt -1.26499999 0.195997998
vt -1.26233995 0.210460007
vt -1.26499999 0.211680993
vt -1.26499999 0.195997998
vt -1.26499999 0.211680993
vt -1.26826298 0.195997998
vt -1.26826298 0.195997998
vt -1.26499999 0.211680993
vt -1.26826298 0.212331995
vt -1.26826298 0.195997998
vt -1.26826298 0.212331995
vt -1.27173698 0.195997998
vt -1.27173698 0.195997998
vt -1.26826298 0.212331995
vt -1.27173698 0.212331995
vt -1.27173698 0.195997998
vt -1.27173698 0.212331995
vt -1.27499998 0.195997998
vt -1.27499998 0.195997998
vt -1.27173698 0.212331995
vt -1.27499998 0.211680993
vt -1.27499998 0.195997998
vt -1.27499998 0.211680993
vt -1.27766001 0.195997998
vt -1.27766001 0.195997998
vt -1.27499998 0.211680993
vt -1.27766001 0.210460007
vt 0.0264020003 0.195997998
vt 0.0248099994 0.210460007
vt 0.0233980007 0.195997998
vt 0.0233980007 0.195997998
vt 0.0248099994 0.210460007
vt 0.0219870005 0.208813995
vt 0.0233980007 0.195997998
vt 0.0219870005 0.208813995
vt 0.0199810006 0.195997998
vt -0.0187759995 0.206942007
vt -0.0153059997 0.216566995
vt -0.0219870005 0.208813995
vt -0.0219870005 0.208813995
vt -0.0153059997 0.216566995
vt -0.0179239996 0.220083997
vt -0.0219870005 0.208813995
vt -0.0179239996 0.220083997
vt -0.0248099994 0.210460007
vt -0.0248099994 0.210460007
vt -0.0179239996 0.220083997
vt -0.0202249996 0.223177999
vt -1.26233995 0.210460007
vt -1.26233995 0.223177999
vt -1.26499999 0.211680993
vt -1.26499999 0.211680993
vt -1.26233995 0.223177999
vt -1.26499999 0.225474
vt -1.26499999 0.211680993
vt -1.26499999 0.225474
vt -1.26826298 0.212331995
vt -1.26826298 0.212331995
vt -1.26499999 0.225474
vt -1.26826298 0.226695001
vt -1.26826298 0.212331995
vt -1.26826298 0.226695001
vt -1.27173698 0.212331995
vt -1.27173698 0.212331995
vt -1.26826298 0.226695001
vt -1.27173698 0.226695001
vt -1.27173698 0.212331995
vt -1.27173698 0.226695001
vt -1.27499998 0.211680993
vt -1.27499998 0.211680993
vt -1.27173698 0.226695001
vt -1.27499998 0.225474
vt -1.27499998 0.211680993
vt -1.27499998 0.225474
vt -1.27766001 0.210460007
vt -1.27766001 0.210460007
vt -1.27499998 0.225474
vt -1.27766001 0.223177999
vt 0.0248099994 0.210460007
vt 0.0202249996 0.223177999
vt 0.0219870005 0.208813995
vt 0.0219870005 0.208813995
vt 0.0202249996 0.223177999
vt 0.0179239996 0.220083997
vt 0.0219870005 0.208813995
vt 0.0179239996 0.220083997
vt 0.0187759995 0.206942007
vt -1.27999997 0.206942007
vt -1.27939701 0.220083997
vt -1.27939701 0.220083997
vt 0.0187759995 0.206942007
vt 0.0179239996 0.220083997
vt 0.0153059997 0.216566995
vt 0.0153059997 0.216566995
vt 0.0179239996 0.220083997
vt 0.0116990004 0.22845
vt 0.0153059997 0.216566995
vt 0.0116990004 0.22845
vt 0.00999100041 0.223710001
vt 0.00999100041 0.223710001
vt 0.0116990004 0.22845
vt 0.00406400021 0.232901007
vt 0.00999100041 0.223710001
vt 0.00406400021 0.232901007
vt 0.00347000011 0.227512002
vt 0.00347000011 0.227512002
vt 0.00406400021 0.232901007
vt -0.0040620002 0.232901007
vt 0.00347000011 0.227512002
vt -0.0040620002 0.232901007
vt -0.0034690001 0.227512002
vt -0.0034690001 0.227512002
vt -0.0040620002 0.232901007
vt -0.0116980001 0.22845
vt -0.0034690001 0.227512002
vt -0.0116980001 0.22845
vt -0.00998899993 0.223710001
vt -0.00998899993 0.223710001
vt -0.0116980001 0.22845
vt -0.0179219991 0.220083997
vt -0.00998899993 0.223710001
vt -0.0179219991 0.220083997
vt -0.0153050004 0.216566995
vt -0.0153050004 0.216566995
vt -0.0179219991 0.220083997
vt -0.021985 0.208813995
vt -0.0153050004 0.216566995
vt -0.021985 0.208813995
vt -0.0187740009 0.206942007
vt -0.0187740009 0.206942007
vt -0.021985 0.208813995
vt -0.0233960003 0.195997998
vt -0.0187740009 0.206942007
vt -0.0233960003 0.195997998
vt -0.0199790001 0.195997998
vt -0.0199790001 0.195997998
vt -0.0233960003 0.195997998
vt -0.021985 0.183181003
vt -0.0199790001 0.195997998
vt -0.021985 0.183181003
vt -0.0187740009 0.185053006
vt -0.0187740009 0.185053006
vt -0.021985 0.183181003
vt -0.0179219991 0.171911001
vt -0.0187740009 0.185053006
vt -0.0179219991 0.171911001
vt -0.0153050004 0.175428003
vt -0.0153050004 0.175428003
vt -0.0179219991 0.171911001
vt -0.0116980001 0.163545996
vt -0.0153050004 0.175428003
vt -0.0116980001 0.163545996
vt -0.00998899993 0.168284997
vt -0.00998899993 0.168284997
vt -0.0116980001 0.163545996
vt -0.0040620002 0.159095004
vt -0.00998899993 0.168284997
vt -0.0040620002 0.159095004
vt -0.0034690001 0.164483994
vt -0.0034690001 0.164483994
vt -0.0040620002 0.159095004
vt 0.00406400021 0.159095004
vt -0.0034690001 0.164483994
vt 0.00406400021 0.159095004
vt 0.00347000011 0.164483994
vt 0.00347000011 0.164483994
vt 0.00406400021 0.159095004
vt 0.0116990004 0.163545996
vt 0.00347000011 0.164483994
vt 0.0116990004 0.163545996
vt 0.00999100041 0.168284997
vt 0.00999100041 0.168284997
vt 0.0116990004 0.163545996
vt 0.0179239996 0.171911001
vt 0.00999100041 0.168284997
vt 0.0179239996 0.171911001
vt 0.0153059997 0.175428003
vt 0.0153059997 0.175428003
vt 0.0179239996 0.171911001
vt 0.0219870005 0.183181003
vt 0.0153059997 0.175428003
vt 0.0219870005 0.183181003
vt 0.0187759995 0.185053006
vt 0.0187759995 0.185053006
vt 0.0219870005 0.183181003
vt 0.0233980007 0.195997998
vt 0.0187759995 0.185053006
vt 0.0233980007 0.195997998
vt 0.0199810006 0.195997998
vt 0.0187759995 0.206942007
vt 0.0199810006 0.195997998
vt 0.0219870005 0.208813995
vt 0.0233980007 0.195997998
vt 0.0219870005 0.183181003
vt 0.0264020003 0.195997998
vt 0.0264020003 0.195997998
vt 0.0219870005 0.183181003
vt 0.0248099994 0.181535006
vt -1.27766001 0.195997998
vt -1.27766001 0.181535006
vt -1.27499998 0.195997998
vt -1.27499998 0.195997998
vt -1.27766001 0.181535006
vt -1.27499998 0.180314004
vt -1.27499998 0.195997998
vt -1.27499998 0.180314004
vt -1.27173698 0.195997998
vt -1.27173698 0.195997998
vt -1.27499998 0.180314004
vt -1.27173698 0.179664001
vt -1.27173698 0.195997998
vt -1.27173698 0.179664001
vt -1.26826298 0.195997998
vt -1.26826298 0.195997998
vt -1.27173698 0.179664001
vt -1.26826298 0.179664001
vt -1.26826298 0.195997998
vt -1.26826298 0.179664001
vt -1.26499999 0.195997998
vt -1.26499999 0.195997998
vt -1.26826298 0.179664001
vt -1.26499999 0.180314004
vt -1.26499999 0.195997998
vt -1.26499999 0.180314004
vt -1.26233995 0.195997998
vt -1.26233995 0.195997998
vt -1.26499999 0.180314004
vt -1.26233995 0.181535006
vt -0.0264020003 0.195997998
vt -0.0248099994 0.181535006
vt -0.0233980007 0.195997998
vt -0.0233980007 0.195997998
vt -0.0248099994 0.181535006
vt -0.0219870005 0.183181003
vt -0.0233980007 0.195997998
vt -0.0219870005 0.183181003
vt -0.0199810006 0.195997998
vt 0.0219870005 0.183181003
vt 0.0179239996 0.171911001
vt 0.0248099994 0.181535006
vt 0.0248099994 0.181535006
vt 0.0179239996 0.171911001
vt 0.0202249996 0.168817997
vt -1.27766001 0.181535006
vt -1.27766001 0.168817997
vt -1.27499998 0.180314004
vt -1.27499998 0.180314004
vt -1.27766001 0.168817997
vt -1.27499998 0.166521996
vt -1.27499998 0.180314004
vt -1.27499998 0.166521996
vt -1.27173698 0.179664001
vt -1.27173698 0.179664001
vt -1.27499998 0.166521996
vt -1.27173698 0.165299997
vt -1.27173698 0.179664001
vt -1.27173698 0.165299997
vt -1.26826298 0.179664001
vt -1.26826298 0.179664001
vt -1.27173698 0.165299997
vt -1.26826298 0.165299997
vt -1.26826298 0.179664001
vt -1.26826298 0.165299997
vt -1.26499999 0.180314004
vt -1.26499999 0.180314004
vt -1.26826298 0.165299997
vt -1.26499999 0.166521996
vt -1.26499999 0.180314004
vt -1.26499999 0.166521996
vt -1.26233995 0.181535006
vt -1.26233995 0.181535006
vt -1.26499999 0.166521996
vt -1.26233995 0.168817997
vt -0.0248099994 0.181535006
vt -0.0202249996 0.168817997
vt -0.0219870005 0.183181003
vt -0.0219870005 0.183181003
vt -0.0202249996 0.168817997
vt -0.0179239996 0.171911001
vt -0.0219870005 0.183181003
vt -0.0179239996 0.171911001
vt -0.0187759995 0.185053006
vt -1.25999999 0.185053006
vt -1.26060295 0.171911001
vt -1.26060295 0.171911001
vt -0.0187759995 0.185053006
vt -0.0179239996 0.171911001
vt -0.0153059997 0.175428003
vt -0.0153059997 0.175428003
vt -0.0179239996 0.171911001
vt -0.0116990004 0.163545996
vt -0.0153059997 0.175428003
vt -0.0116990004 0.163545996
vt -0.00999100041 0.168284997
vt -0.00999100041 0.168284997
vt -0.0116990004 0.163545996
vt -0.00406400021 0.159095004
vt -0.00999100041 0.168284997
vt -0.00406400021 0.159095004
vt -0.00347000011 0.164483994
vt -0.00347000011 0.164483994
vt -0.00406400021 0.159095004
vt 0.0040620002 0.159095004
vt -0.00347000011 0.164483994
vt 0.0040620002 0.159095004
vt 0.0034690001 0.164483994
vt 0.0034690001 0.164483994
vt 0.0040620002 0.159095004
vt 0.0116980001 0.163545996
vt 0.0034690001 0.164483994
vt 0.0116980001 0.163545996
vt 0.00998899993 0.168284997
vt 0.00998899993 0.168284997
vt 0.0116980001 0.163545996
vt 0.0179219991 0.171911001
vt 0.00998899993 0.168284997
vt 0.0179219991 0.171911001
vt 0.0153050004 0.175428003
vt 0.0153050004 0.175428003
vt 0.0179219991 0.171911001
vt 0.021985 0.183181003
vt 0.0153050004 0.175428003
vt 0.021985 0.183181003
vt 0.0187740009 0.185053006
vt 0.0187740009 0.185053006
vt 0.021985 0.183181003
vt 0.0233960003 0.195997998
vt 0.0187740009 0.185053006
vt 0.0233960003 0.195997998
vt 0.0199790001 0.195997998
vt 0.0199790001 0.195997998
vt 0.0233960003 0.195997998
vt 0.021985 0.208813995
vt 0.0199790001 0.195997998
vt 0.021985 0.208813995
vt 0.0187740009 0.206942007
vt 0.0187740009 0.206942007
vt 0.021985 0.208813995
vt 0.0179219991 0.220083997
vt 0.0187740009 0.206942007
vt 0.0179219991 0.220083997
vt 0.0153050004 0.216566995
vt 0.0153050004 0.216566995
vt 0.0179219991 0.220083997
vt 0.0116980001 0.22845
vt 0.0153050004 0.216566995
vt 0.0116980001 0.22845
vt 0.00998899993 0.223710001
vt 0.00998899993 0.223710001
vt 0.0116980001 0.22845
vt 0.0040620002 0.232901007
vt 0.00998899993 0.223710001
vt 0.0040620002 0.232901007
vt 0.0034690001 0.227512002
vt 0.0034690001 0.227512002
vt 0.0040620002 0.232901007
vt -0.00406400021 0.232901007
vt 0.0034690001 0.227512002
vt -0.00406400021 0.232901007
vt -0.00347000011 0.227512002
vt -0.00347000011 0.227512002
vt -0.00406400021 0.232901007
vt -0.0116990004 0.22845
vt -0.00347000011 0.227512002
vt -0.0116990004 0.22845
vt -0.00999100041 0.223710001
vt -0.00999100041 0.223710001
vt -0.0116990004 0.22845
vt -0.0179239996 0.220083997
vt -0.00999100041 0.223710001
vt -0.0179239996 0.220083997
vt -0.0153059997 0.216566995
vt -0.0187759995 0.185053006
vt -0.0199810006 0.195997998
vt -0.0219870005 0.183181003
vt -0.0179239996 0.220083997
vt -0.0116990004 0.22845
vt -0.0202249996 0.223177999
vt -0.0202249996 0.223177999
vt -0.0116990004 0.22845
vt -0.0132020004 0.232617006
vt -0.0202249996 0.223177999
vt -0.0132020004 0.232617006
vt -0.0219340008 0.225474
vt -0.0219340008 0.225474
vt -0.0132020004 0.232617006
vt -0.0143170003 0.235709995
vt -1.26499999 0.225474
vt -1.26499999 0.235709995
vt -1.26826298 0.226695001
vt -1.26826298 0.226695001
vt -1.26499999 0.235709995
vt -1.26826298 0.237356007
vt -1.26826298 0.226695001
vt -1.26826298 0.237356007
vt -1.27173698 0.226695001
vt -1.27173698 0.226695001
vt -1.26826298 0.237356007
vt -1.27173698 0.237356007
vt -1.27173698 0.226695001
vt -1.27173698 0.237356007
vt -1.27499998 0.225474
vt -1.27499998 0.225474
vt -1.27173698 0.237356007
vt -1.27499998 0.235709995
vt 0.0219340008 0.225474
vt 0.0143170003 0.235709995
vt 0.0202249996 0.223177999
vt 0.0202249996 0.223177999
vt 0.0143170003 0.235709995
vt 0.0132020004 0.232617006
vt 0.0202249996 0.223177999
vt 0.0132020004 0.232617006
vt 0.0179239996 0.220083997
vt -1.27939701 0.220083997
vt -1.27766001 0.232617006
vt -1.27766001 0.232617006
vt 0.0179239996 0.220083997
vt 0.0132020004 0.232617006
vt 0.0116990004 0.22845
vt 0.0116990004 0.22845
vt 0.0132020004 0.232617006
vt 0.00458500022 0.237639993
vt 0.0116990004 0.22845
vt 0.00458500022 0.237639993
vt 0.00406400021 0.232901007
vt 0.00406400021 0.232901007
vt 0.00458500022 0.237639993
vt -0.00458399998 0.237639993
vt 0.00406400021 0.232901007
vt -0.00458399998 0.237639993
vt -0.0040620002 0.232901007
vt -0.0040620002 0.232901007
vt -0.00458399998 0.237639993
vt -0.0131999999 0.232617006
vt -0.0040620002 0.232901007
vt -0.0131999999 0.232617006
vt -0.0116980001 0.22845
vt -0.0116980001 0.22845
vt -0.0131999999 0.232617006
vt -0.0202239994 0.223177999
vt -0.0116980001 0.22845
vt -0.0202239994 0.223177999
vt -0.0179219991 0.220083997
vt -0.0179219991 0.220083997
vt -0.0202239994 0.223177999
vt -0.0248080008 0.210460007
vt -0.0179219991 0.220083997
vt -0.0248080008 0.210460007
vt -0.021985 0.208813995
vt -0.021985 0.208813995
vt -0.0248080008 0.210460007
vt -0.0264010001 0.195997998
vt -0.021985 0.208813995
vt -0.0264010001 0.195997998
vt -0.0233960003 0.195997998
vt -0.0233960003 0.195997998
vt -0.0264010001 0.195997998
vt -0.0248080008 0.181535006
vt -0.0233960003 0.195997998
vt -0.0248080008 0.181535006
vt -0.021985 0.183181003
vt -0.021985 0.183181003
vt -0.0248080008 0.181535006
vt -0.0202239994 0.168817997
vt -0.021985 0.183181003
vt -0.0202239994 0.168817997
vt -0.0179219991 0.171911001
vt -0.0179219991 0.171911001
vt -0.0202239994 0.168817997
vt -0.0131999999 0.159378007
vt -0.0179219991 0.171911001
vt -0.0131999999 0.159378007
vt -0.0116980001 0.163545996
vt -0.0116980001 0.163545996
vt -0.0131999999 0.159378007
vt -0.00458399998 0.154355004
vt -0.0116980001 0.163545996
vt -0.00458399998 0.154355004
vt -0.0040620002 0.159095004
vt -0.0040620002 0.159095004
vt -0.00458399998 0.154355004
vt 0.00458500022 0.154355004
vt -0.0040620002 0.159095004
vt 0.00458500022 0.154355004
vt 0.00406400021 0.159095004
vt 0.00406400021 0.159095004
vt 0.00458500022 0.154355004
vt 0.0132020004 0.159378007
vt 0.00406400021 0.159095004
vt 0.0132020004 0.159378007
vt 0.0116990004 0.163545996
vt 0.0116990004 0.163545996
vt 0.0132020004 0.159378007
vt 0.0202249996 0.168817997
vt 0.0116990004 0.163545996
vt 0.0202249996 0.168817997
vt 0.0179239996 0.171911001
vt 0.0202249996 0.168817997
vt 0.0132020004 0.159378007
vt 0.0219340008 0.166521996
vt 0.0219340008 0.166521996
vt 0.0132020004 0.159378007
vt 0.0143170003 0.156285003
vt -1.27499998 0.166521996
vt -1.27499998 0.156285003
vt -1.27173698 0.165299997
vt -1.27173698 0.165299997
vt -1.27499998 0.156285003
vt -1.27173698 0.154639006
vt -1.27173698 0.165299997
vt -1.27173698 0.154639006
vt -1.26826298 0.165299997
vt -1.26826298 0.165299997
vt -1.27173698 0.154639006
vt -1.26826298 0.154639006
vt -1.26826298 0.165299997
vt -1.26826298 0.154639006
vt -1.26499999 0.166521996
vt -1.26499999 0.166521996
vt -1.26826298 0.154639006
vt -1.26499999 0.156285003
vt -0.0219340008 0.166521996
vt -0.0143170003 0.156285003
vt -0.0202249996 0.168817997
vt -0.0202249996 0.168817997
vt -0.0143170003 0.156285003
vt -0.0132020004 0.159378007
vt -0.0202249996 0.168817997
vt -0.0132020004 0.159378007
vt -0.0179239996 0.171911001
vt -1.26060295 0.171911001
vt -1.26233995 0.159378007
vt -1.26233995 0.159378007
vt -0.0179239996 0.171911001
vt -0.0132020004 0.159378007
vt -0.0116990004 0.163545996
vt -0.0116990004 0.163545996
vt -0.0132020004 0.159378007
vt -0.00458500022 0.154355004
vt -0.0116990004 0.163545996
vt -0.00458500022 0.154355004
vt -0.00406400021 0.159095004
vt -0.00406400021 0.159095004
vt -0.00458500022 0.154355004
vt 0.00458399998 0.154355004
vt -0.00406400021 0.159095004
vt 0.00458399998 0.154355004
vt 0.0040620002 0.159095004
vt 0.0040620002 0.159095004
vt 0.00458399998 0.154355004
vt 0.0131999999 0.159378007
vt 0.0040620002 0.159095004
vt 0.0131999999 0.159378007
vt 0.0116980001 0.163545996
vt 0.0116980001 0.163545996
vt 0.0131999999 0.159378007
vt 0.0202239994 0.168817997
vt 0.0116980001 0.163545996
vt 0.0202239994 0.168817997
vt 0.0179219991 0.171911001
vt 0.0179219991 0.171911001
vt 0.0202239994 0.168817997
vt 0.0248080008 0.181535006
vt 0.0179219991 0.171911001
vt 0.0248080008 0.181535006
vt 0.021985 0.183181003
vt 0.021985 0.183181003
vt 0.0248080008 0.181535006
vt 0.0264010001 0.195997998
vt 0.021985 0.183181003
vt 0.0264010001 0.195997998
vt 0.0233960003 0.195997998
vt 0.0233960003 0.195997998
vt 0.0264010001 0.195997998
vt 0.0248080008 0.210460007
vt 0.0233960003 0.195997998
vt 0.0248080008 0.210460007
vt 0.021985 0.208813995
vt 0.021985 0.208813995
vt 0.0248080008 0.210460007
vt 0.0202239994 0.223177999
vt 0.021985 0.208813995
vt 0.0202239994 0.223177999
vt 0.0179219991 0.220083997
vt 0.0179219991 0.220083997
vt 0.0202239994 0.223177999
vt 0.0131999999 0.232617006
vt 0.0179219991 0.220083997
vt 0.0131999999 0.232617006
vt 0.0116980001 0.22845
vt 0.0116980001 0.22845
vt 0.0131999999 0.232617006
vt 0.00458399998 0.237639993
vt 0.0116980001 0.22845
vt 0.00458399998 0.237639993
vt 0.0040620002 0.232901007
vt 0.0040620002 0.232901007
vt 0.00458399998 0.237639993
vt -0.00458500022 0.237639993
vt 0.0040620002 0.232901007
vt -0.00458500022 0.237639993
vt -0.00406400021 0.232901007
vt -0.00406400021 0.232901007
vt -0.00458500022 0.237639993
vt -0.0132020004 0.232617006
vt -0.00406400021 0.232901007
vt -0.0132020004 0.232617006
vt -0.0116990004 0.22845
vt -0.0132020004 0.232617006
vt -0.00458500022 0.237639993
vt -0.0143170003 0.235709995
vt -0.0143170003 0.235709995
vt -0.00458500022 0.237639993
vt -0.00497299992 0.241156995
vt -0.0143170003 1.26499999
vt -0.00497299992 1.26499999
vt -0.0149100004 1.26826298
vt -0.0149100004 1.26826298
vt -0.00497299992 1.26499999
vt -0.00517900009 1.26826298
vt -0.0149100004 1.26826298
vt -0.00517900009 1.26826298
vt -0.0149100004 1.27173698
vt -0.0149100004 1.27173698
vt -0.00517900009 1.26826298
vt -0.00517900009 1.27173698
vt -0.0149100004 1.27173698
vt -0.00517900009 1.27173698
vt -0.0143170003 1.27499998
vt -0.0143170003 1.27499998
vt -0.00517900009 1.27173698
vt -0.00497299992 1.27499998
vt 0.0143170003 0.235709995
vt 0.00497299992 0.241156995
vt 0.0132020004 0.232617006
vt -1.27766001 0.232617006
vt -1.27499998 0.241156995
vt -1.27499998 0.241156995
vt 0.0132020004 0.232617006
vt 0.00497299992 0.241156995
vt 0.00458500022 0.237639993
vt 0.00458500022 0.237639993
vt 0.00497299992 0.241156995
vt -0.0049709999 0.241156995
vt 0.00458500022 0.237639993
vt -0.0049709999 0.241156995
vt -0.00458399998 0.237639993
vt -0.00458399998 0.237639993
vt -0.0049709999 0.241156995
vt -0.0143149998 0.235709995
vt -0.00458399998 0.237639993
vt -0.0143149998 0.235709995
vt -0.0131999999 0.232617006
vt -0.0131999999 0.232617006
vt -0.0143149998 0.235709995
vt -0.0219320003 0.225474
vt -0.0131999999 0.232617006
vt -0.0219320003 0.225474
vt -0.0202239994 0.223177999
vt 1.27766001 0.223177999
vt 1.27499998 0.225474
vt 1.27499998 0.211680993
vt 1.27766001 0.223177999
vt 1.27499998 0.211680993
vt 1.27766001 0.210460007
vt 1.27766001 0.210460007
vt 1.27499998 0.211680993
vt 1.27499998 0.195997998
vt 1.27766001 0.210460007
vt 1.27499998 0.195997998
vt 1.27766001 0.195997998
vt 1.27766001 0.195997998
vt 1.27499998 0.195997998
vt 1.27499998 0.180314004
vt 1.27766001 0.195997998
vt 1.27499998 0.180314004
vt 1.27766001 0.181535006
vt 1.27766001 0.181535006
vt 1.27499998 0.180314004
vt 1.27499998 0.166521996
vt 1.27766001 0.181535006
vt 1.27499998 0.166521996
vt 1.27766001 0.168817997
vt -0.0202239994 0.168817997
vt -0.0219320003 0.166521996
vt -0.0143149998 0.156285003
vt -0.0202239994 0.168817997
vt -0.0143149998 0.156285003
vt -0.0131999999 0.159378007
vt -0.0131999999 0.159378007
vt -0.0143149998 0.156285003
vt -0.0049709999 0.150838003
vt -0.0131999999 0.159378007
vt -0.0049709999 0.150838003
vt -0.00458399998 0.154355004
vt -0.00458399998 0.154355004
vt -0.0049709999 0.150838003
vt 0.00497299992 0.150838003
vt -0.00458399998 0.154355004
vt 0.00497299992 0.150838003
vt 0.00458500022 0.154355004
vt 0.00458500022 0.154355004
vt 0.00497299992 0.150838003
vt 0.0143170003 0.156285003
vt 0.00458500022 0.154355004
vt 0.0143170003 0.156285003
vt 0.0132020004 0.159378007
vt 0.0143170003 1.27499998
vt 0.00497299992 1.27499998
vt 0.0149100004 1.27173698
vt 0.0149100004 1.27173698
vt 0.00497299992 1.27499998
vt 0.00517900009 1.27173698
vt 0.0149100004 1.27173698
vt 0.00517900009 1.27173698
vt 0.0149100004 1.26826298
vt 0.0149100004 1.26826298
vt 0.00517900009 1.27173698
vt 0.00517900009 1.26826298
vt 0.0149100004 1.26826298
vt 0.00517900009 1.26826298
vt 0.0143170003 1.26499999
vt 0.0143170003 1.26499999
vt 0.00517900009 1.26826298
vt 0.00497299992 1.26499999
vt -0.0143170003 0.156285003
vt -0.00497299992 0.150838003
vt -0.0132020004 0.159378007
vt -1.26233995 0.159378007
vt -1.26499999 0.150838003
vt -1.26499999 0.150838003
vt -0.0132020004 0.159378007
vt -0.00497299992 0.150838003
vt -0.00458500022 0.154355004
vt -0.00458500022 0.154355004
vt -0.00497299992 0.150838003
vt 0.0049709999 0.150838003
vt -0.00458500022 0.154355004
vt 0.0049709999 0.150838003
vt 0.00458399998 0.154355004
vt 0.00458399998 0.154355004
vt 0.0049709999 0.150838003
vt 0.0143149998 0.156285003
vt 0.00458399998 0.154355004
vt 0.0143149998 0.156285003
vt 0.0131999999 0.159378007
vt 0.0131999999 0.159378007
vt 0.0143149998 0.156285003
vt 0.0219320003 0.166521996
vt 0.0131999999 0.159378007
vt 0.0219320003 0.166521996
vt 0.0202239994 0.168817997
vt 1.26233995 0.168817997
vt 1.26499999 0.166521996
vt 1.26499999 0.180314004
vt 1.26233995 0.168817997
vt 1.26499999 0.180314004
vt 1.26233995 0.181535006
vt 1.26233995 0.181535006
vt 1.26499999 0.180314004
vt 1.26499999 0.195997998
vt 1.26233995 0.181535006
vt 1.26499999 0.195997998
vt 1.26233995 0.195997998
vt 1.26233995 0.195997998
vt 1.26499999 0.195997998
vt 1.26499999 0.211680993
vt 1.26233995 0.195997998
vt 1.26499999 0.211680993
vt 1.26233995 0.210460007
vt 1.26233995 0.210460007
vt 1.26499999 0.211680993
vt 1.26499999 0.225474
vt 1.26233995 0.210460007
vt 1.26499999 0.225474
vt 1.26233995 0.223177999
vt 0.0202239994 0.223177999
vt 0.0219320003 0.225474
vt 0.0143149998 0.235709995
vt 0.0202239994 0.223177999
vt 0.0143149998 0.235709995
vt 0.0131999999 0.232617006
vt 0.0131999999 0.232617006
vt 0.0143149998 0.235709995
vt 0.0049709999 0.241156995
vt 0.0131999999 0.232617006
vt 0.0049709999 0.241156995
vt 0.00458399998 0.237639993
vt 0.00458399998 0.237639993
vt 0.0049709999 0.241156995
vt -0.00497299992 0.241156995
vt 0.00458399998 0.237639993
vt -0.00497299992 0.241156995
vt -0.00458500022 0.237639993
vt -0.00497299992 1.26499999
vt 0.0049709999 1.26499999
vt -0.00517900009 1.26826298
vt -0.00517900009 1.26826298
vt 0.0049709999 1.26499999
vt 0.00517700007 1.26826298
vt -0.00517900009 1.26826298
vt 0.00517700007 1.26826298
vt -0.00517900009 1.27173698
vt -0.00517900009 1.27173698
vt 0.00517700007 1.26826298
vt 0.00517700007 1.27173698
vt -0.00517900009 1.27173698
vt 0.00517700007 1.27173698
vt -0.00497299992 1.27499998
vt -1.27499998 0.241156995
vt -1.27173698 0.243028998
vt -1.27173698 0.243028998
vt -0.00497299992 1.27499998
vt 0.00517700007 1.27173698
vt 0.0049709999 1.27499998
vt 0.0049709999 1.27499998
vt 0.00517700007 1.27173698
vt 0.0149079999 1.27173698
vt 0.0049709999 1.27499998
vt 0.0149079999 1.27173698
vt 0.0143149998 1.27499998
vt 1.27499998 0.235709995
vt 1.27173698 0.237356007
vt 1.27173698 0.226695001
vt 1.27499998 0.235709995
vt 1.27173698 0.226695001
vt 1.27499998 0.225474
vt 1.27499998 0.225474
vt 1.27173698 0.226695001
vt 1.27173698 0.212331995
vt 1.27499998 0.225474
vt 1.27173698 0.212331995
vt 1.27499998 0.211680993
vt 1.27499998 0.211680993
vt 1.27173698 0.212331995
vt 1.27173698 0.195997998
vt 1.27499998 0.211680993
vt 1.27173698 0.195997998
vt 1.27499998 0.195997998
vt 1.27499998 0.195997998
vt 1.27173698 0.195997998
vt 1.27173698 0.179664001
vt 1.27499998 0.195997998
vt 1.27173698 0.179664001
vt 1.27499998 0.180314004
vt 1.27499998 0.180314004
vt 1.27173698 0.179664001
vt 1.27173698 0.165299997
vt 1.27499998 0.180314004
vt 1.27173698 0.165299997
vt 1.27499998 0.166521996
vt 1.27499998 0.166521996
vt 1.27173698 0.165299997
vt 1.27173698 0.154639006
vt 1.27499998 0.166521996
vt 1.27173698 0.154639006
vt 1.27499998 0.156285003
vt -0.0143149998 1.27499998
vt -0.0149079999 1.27173698
vt -0.00517700007 1.27173698
vt -0.0143149998 1.27499998
vt -0.00517700007 1.27173698
vt -0.0049709999 1.27499998
vt -0.0049709999 1.27499998
vt -0.00517700007 1.27173698
vt 0.00517900009 1.27173698
vt -0.0049709999 1.27499998
vt 0.00517900009 1.27173698
vt 0.00497299992 1.27499998
vt 0.00517900009 1.27173698
vt -0.00517700007 1.27173698
vt 0.00517900009 1.26826298
vt 0.00517900009 1.26826298
vt -0.00517700007 1.27173698
vt -0.00517700007 1.26826298
vt 0.00517900009 1.26826298
vt -0.00517700007 1.26826298
vt 0.00497299992 1.26499999
vt -1.26499999 0.150838003
vt -1.26826298 0.148965999
vt -1.26826298 0.148965999
vt 0.00497299992 1.26499999
vt -0.00517700007 1.26826298
vt -0.0049709999 1.26499999
vt -0.0049709999 1.26499999
vt -0.00517700007 1.26826298
vt -0.0149079999 1.26826298
vt -0.0049709999 1.26499999
vt -0.0149079999 1.26826298
vt -0.0143149998 1.26499999
vt 1.26499999 0.156285003
vt 1.26826298 0.154639006
vt 1.26826298 0.165299997
vt 1.26499999 0.156285003
vt 1.26826298 0.165299997
vt 1.26499999 0.166521996
vt 1.26499999 0.166521996
vt 1.26826298 0.165299997
vt 1.26826298 0.179664001
vt 1.26499999 0.166521996
vt 1.26826298 0.179664001
vt 1.26499999 0.180314004
vt 1.26499999 0.180314004
vt 1.26826298 0.179664001
vt 1.26826298 0.195997998
vt 1.26499999 0.180314004
vt 1.26826298 0.195997998
vt 1.26499999 0.195997998
vt 1.26499999 0.195997998
vt 1.26826298 0.195997998
vt 1.26826298 0.212331995
vt 1.26499999 0.195997998
vt 1.26826298 0.212331995
vt 1.26499999 0.211680993
vt 1.26499999 0.211680993
vt 1.26826298 0.212331995
vt 1.26826298 0.226695001
vt 1.26499999 0.211680993
vt 1.26826298 0.226695001
vt 1.26499999 0.225474
vt 1.26499999 0.225474
vt 1.26826298 0.226695001
vt 1.26826298 0.237356007
vt 1.26499999 0.225474
vt 1.26826298 0.237356007
vt 1.26499999 0.235709995
vt 0.0143149998 1.26499999
vt 0.0149079999 1.26826298
vt 0.00517700007 1.26826298
vt 0.0143149998 1.26499999
vt 0.00517700007 1.26826298
vt 0.0049709999 1.26499999
vt 0.00517700007 1.26826298
vt 0.0149079999 1.26826298
vt 0.00517700007 1.27173698
vt -1.27173698 0.243028998
vt -1.26826298 0.237356007
vt -1.26826298 0.237356007
vt 0.00517700007 1.27173698
vt 0.0149079999 1.26826298
vt 0.0149079999 1.27173698
vt 1.27173698 0.237356007
vt 1.26826298 0.237356007
vt 1.26826298 0.226695001
vt 1.27173698 0.237356007
vt 1.26826298 0.226695001
vt 1.27173698 0.226695001
vt 1.27173698 0.226695001
vt 1.26826298 0.226695001
vt 1.26826298 0.212331995
vt 1.27173698 0.226695001
vt 1.26826298 0.212331995
vt 1.27173698 0.212331995
vt 1.27173698 0.212331995
vt 1.26826298 0.212331995
vt 1.26826298 0.195997998
vt 1.27173698 0.212331995
vt 1.26826298 0.195997998
vt 1.27173698 0.195997998
vt 1.27173698 0.195997998
vt 1.26826298 0.195997998
vt 1.26826298 0.179664001
vt 1.27173698 0.195997998
vt 1.26826298 0.179664001
vt 1.27173698 0.179664001
vt 1.27173698 0.179664001
vt 1.26826298 0.179664001
vt 1.26826298 0.165299997
vt 1.27173698 0.179664001
vt 1.26826298 0.165299997
vt 1.27173698 0.165299997
vt 1.27173698 0.165299997
vt 1.26826298 0.165299997
vt 1.26826298 0.154639006
vt 1.27173698 0.165299997
vt 1.26826298 0.154639006
vt 1.27173698 0.154639006
vt -0.0149079999 1.27173698
vt -0.0149079999 1.26826298
vt -0.00517700007 1.26826298
vt -0.0149079999 1.27173698
vt -0.00517700007 1.26826298
vt -0.00517700007 1.27173698
vt -0.0140819997 0.204206005
vt -0.0199810006 0.195997998
vt -0.014986 0.195997998
vt -0.014986 0.195997998
vt -0.0199810006 0.195997998
vt -0.0140819997 0.187788993
vt -0.0153050004 0.216566995
vt -0.0187740009 0.206942007
vt 9.99999997e-07 0.195997998
vt 9.99999997e-07 0.195997998
vt -0.0187740009 0.206942007
vt -0.0199790001 0.195997998
vt -1.27999997 0.195997998
vt -1.27999997 0.195997998
vt -1.27999997 0.195997998
vt 9.99999997e-07 0.195997998
vt -0.0199790001 0.195997998
vt -0.0187740009 0.185053006
vt -1.27999997 0.195997998
vt -1.27999997 0.185053006
vt -1.27999997 0.195997998
vt 9.99999997e-07 0.195997998
vt -0.0187740009 0.185053006
vt -0.0153050004 0.175428003
vt -1.27999997 0.195997998
vt -1.27999997 0.175428003
vt -1.27999997 0.195997998
vt 9.99999997e-07 0.195997998
vt -0.0153050004 0.175428003
vt -0.00998899993 0.168284997
vt -1.27999997 0.195997998
vt -1.27999997 0.168284997
vt -1.27999997 0.195997998
vt 9.99999997e-07 0.195997998
vt -0.00998899993 0.168284997
vt -0.0034690001 0.164483994
vt -1.27999997 0.195997998
vt -1.27999997 0.164483994
vt -1.27999997 0.195997998
vt 9.99999997e-07 0.195997998
vt -0.0034690001 0.164483994
vt 0.00347000011 0.164483994
vt -1.27999997 0.195997998
vt -1.27999997 0.164483994
vt -1.27999997 0.195997998
vt 9.99999997e-07 0.195997998
vt 0.00347000011 0.164483994
vt 0.00999100041 0.168284997
vt -1.27999997 0.195997998
vt -1.27999997 0.168284997
vt -1.27999997 0.195997998
vt 9.99999997e-07 0.195997998
vt 0.00999100041 0.168284997
vt 0.0153059997 0.175428003
vt -1.27999997 0.195997998
vt -1.27999997 0.175428003
vt -1.27999997 0.195997998
vt 9.99999997e-07 0.195997998
vt 0.0153059997 0.175428003
vt 0.0187759995 0.185053006
vt -1.27999997 0.195997998
vt -1.27999997 0.185053006
vt -1.27999997 0.195997998
vt 9.99999997e-07 0.195997998
vt 0.0187759995 0.185053006
vt 0.0199810006 0.195997998
vt -1.27999997 0.195997998
vt -1.27999997 0.195997998
vt -1.27999997 0.195997998
vt 9.99999997e-07 0.195997998
vt 0.0199810006 0.195997998
vt 0.0187759995 0.206942007
vt -1.27999997 0.195997998
vt -1.27999997 0.206942007
vt -1.27999997 0.195997998
vt 9.99999997e-07 0.195997998
vt 0.0187759995 0.206942007
vt 0.0153059997 0.216566995
vt -1.27999997 0.195997998
vt -1.27999997 0.216566995
vt -1.27999997 0.195997998
vt 9.99999997e-07 0.195997998
vt 0.0153059997 0.216566995
vt 0.00999100041 0.223710001
vt -1.27999997 0.195997998
vt -1.27999997 0.223710001
vt -1.27999997 0.195997998
vt 9.99999997e-07 0.195997998
vt 0.00999100041 0.223710001
vt 0.00347000011 0.227512002
vt -1.27999997 0.195997998
vt -1.27999997 0.227512002
vt -1.27999997 0.195997998
vt 9.99999997e-07 0.195997998
vt 0.00347000011 0.227512002
vt -0.0034690001 0.227512002
vt -1.27999997 0.195997998
vt -1.27999997 0.227512002
vt -1.27999997 0.195997998
vt 9.99999997e-07 0.195997998
vt -0.0034690001 0.227512002
vt -0.00998899993 0.223710001
vt 9.99999997e-07 0.195997998
vt -0.00998899993 0.223710001
vt -0.0153050004 0.216566995
vt -0.0424819998 -0.590314984
vt -0.0408350006 -0.601301014
vt 0.00191999995 -0.579051971
vt 0.00191999995 -0.579051971
vt -0.0408350006 -0.601301014
vt -0.0381360017 -0.61173898
vt -1.34500003 -0.579051971
vt -1.34500003 -0.61173898
vt -1.34500003 -0.579051971
vt 0.00191999995 -0.579051971
vt -0.0381360017 -0.61173898
vt -0.0344499983 -0.621371984
vt -1.34500003 -0.579051971
vt -1.34500003 -0.621371984
vt -1.34500003 -0.579051971
vt 0.00191999995 -0.579051971
vt -0.0344499983 -0.621371984
vt -0.0298679993 -0.629962981
vt -1.34500003 -0.579051971
vt -1.34500003 -0.629962981
vt -1.34500003 -0.579051971
vt 0.00191999995 -0.579051971
vt -0.0298679993 -0.629962981
vt -0.0245040003 -0.637301028
vt -1.34500003 -0.579051971
vt -1.34500003 -0.637301028
vt -1.34500003 -0.579051971
vt 0.00191999995 -0.579051971
vt -0.0245040003 -0.637301028
vt -0.0184899997 -0.643203974
vt -1.34500003 -0.579051971
vt -1.34500003 -0.643203974
vt -1.34500003 -0.579051971
vt 0.00191999995 -0.579051971
vt -0.0184899997 -0.643203974
vt -0.0119719999 -0.647527993
vt -1.34500003 -0.579051971
vt -1.34500003 -0.647527993
vt -1.34500003 -0.579051971
vt 0.00191999995 -0.579051971
vt -0.0119719999 -0.647527993
vt -0.00511300005 -0.650165021
vt -1.34500003 -0.579051971
vt -1.34500003 -0.650165021
vt -1.34500003 -0.579051971
vt 0.00191999995 -0.579051971
vt -0.00511300005 -0.650165021
vt 0.00191999995 -0.651051998
vt -1.34500003 -0.579051971
vt -1.34500003 -0.651051998
vt -1.34500003 -0.579051971
vt 0.00191999995 -0.579051971
vt 0.00191999995 -0.651051998
vt 0.00895200018 -0.650165021
vt -1.34500003 -0.579051971
vt -1.34500003 -0.650165021
vt -1.34500003 -0.579051971
vt 0.00191999995 -0.579051971
vt 0.00895200018 -0.650165021
vt 0.015811 -0.647527993
vt -1.34500003 -0.579051971
vt -1.34500003 -0.647527993
vt -1.34500003 -0.579051971
vt 0.00191999995 -0.579051971
vt 0.015811 -0.647527993
vt 0.0223290008 -0.643203974
vt -1.34500003 -0.579051971
vt -1.34500003 -0.643203974
vt -1.34500003 -0.579051971
vt 0.00191999995 -0.579051971
vt 0.0223290008 -0.643203974
vt 0.0283429995 -0.637301028
vt -1.34500003 -0.579051971
vt -1.34500003 -0.637301028
vt -1.34500003 -0.579051971
vt 0.00191999995 -0.579051971
vt 0.0283429995 -0.637301028
vt 0.0337079987 -0.629962981
vt -1.34500003 -0.579051971
vt -1.34500003 -0.629962981
vt -1.34500003 -0.579051971
vt 0.00191999995 -0.579051971
vt 0.0337079987 -0.629962981
vt 0.0382889993 -0.621371984
vt -1.34500003 -0.579051971
vt -1.34500003 -0.621371984
vt -1.34500003 -0.579051971
vt 0.00191999995 -0.579051971
vt 0.0382889993 -0.621371984
vt 0.041974999 -0.61173898
vt -1.34500003 -0.579051971
vt -1.34500003 -0.61173898
vt -1.34500003 -0.579051971
vt 0.00191999995 -0.579051971
vt 0.041974999 -0.61173898
vt 0.0446740016 -0.601301014
vt -1.34500003 -0.579051971
vt -1.34500003 -0.601301014
vt -1.34500003 -0.579051971
vt 0.00191999995 -0.579051971
vt 0.0446740016 -0.601301014
vt 0.0463210009 -0.590314984
vt -1.34500003 -0.579051971
vt -1.34500003 -0.590314984
vt -1.34500003 -0.579051971
vt 0.00191999995 -0.579051971
vt 0.0463210009 -0.590314984
vt 0.046875 -0.579051971
vt -1.34500003 -0.579051971
vt -1.34500003 -0.579051971
vt -1.34500003 -0.579051971
vt 0.00191999995 -0.579051971
vt 0.046875 -0.579051971
vt 0.0463210009 -0.567788005
vt -1.34500003 -0.579051971
vt -1.34500003 -0.567788005
vt -1.34500003 -0.579051971
vt 0.00191999995 -0.579051971
vt 0.0463210009 -0.567788005
vt 0.0446740016 -0.556802988
vt -1.34500003 -0.579051971
vt -1.34500003 -0.556802988
vt -1.34500003 -0.579051971
vt 0.00191999995 -0.579051971
vt 0.0446740016 -0.556802988
vt 0.041974999 -0.546364009
vt -1.34500003 -0.579051971
vt -1.34500003 -0.546364009
vt -1.34500003 -0.579051971
vt 0.00191999995 -0.579051971
vt 0.041974999 -0.546364009
vt 0.0382889993 -0.536731005
vt -1.34500003 -0.579051971
vt -1.34500003 -0.536731005
vt -1.34500003 -0.579051971
vt 0.00191999995 -0.579051971
vt 0.0382889993 -0.536731005
vt 0.0337079987 -0.528140008
vt -1.34500003 -0.579051971
vt -1.34500003 -0.528140008
vt -1.34500003 -0.579051971
vt 0.00191999995 -0.579051971
vt 0.0337079987 -0.528140008
vt 0.0283429995 -0.520802021
vt -1.34500003 -0.579051971
vt -1.34500003 -0.520802021
vt -1.34500003 -0.579051971
vt 0.00191999995 -0.579051971
vt 0.0283429995 -0.520802021
vt 0.0223290008 -0.514899015
vt -1.34500003 -0.579051971
vt -1.34500003 -0.514899015
vt -1.34500003 -0.579051971
vt 0.00191999995 -0.579051971
vt 0.0223290008 -0.514899015
vt 0.015811 -0.51057601
vt -1.34500003 -0.579051971
vt -1.34500003 -0.51057601
vt -1.34500003 -0.579051971
vt 0.00191999995 -0.579051971
vt 0.015811 -0.51057601
vt 0.00895200018 -0.507938027
vt -1.34500003 -0.579051971
vt -1.34500003 -0.507938027
vt -1.34500003 -0.579051971
vt 0.00191999995 -0.579051971
vt 0.00895200018 -0.507938027
vt 0.00191999995 -0.507052004
vt -1.34500003 -0.579051971
vt -1.34500003 -0.507052004
vt -1.34500003 -0.579051971
vt 0.00191999995 -0.579051971
vt 0.00191999995 -0.507052004
vt -0.00511300005 -0.507938027
vt -1.34500003 -0.579051971
vt -1.34500003 -0.507938027
vt -1.34500003 -0.579051971
vt 0.00191999995 -0.579051971
vt -0.00511300005 -0.507938027
vt -0.0119719999 -0.51057601
vt -1.34500003 -0.579051971
vt -1.34500003 -0.51057601
vt -1.34500003 -0.579051971
vt 0.00191999995 -0.579051971
vt -0.0119719999 -0.51057601
vt -0.0184899997 -0.514899015
vt -1.34500003 -0.579051971
vt -1.34500003 -0.514899015
vt -1.34500003 -0.579051971
vt 0.00191999995 -0.579051971
vt -0.0184899997 -0.514899015
vt -0.0245040003 -0.520802021
vt -1.34500003 -0.579051971
vt -1.34500003 -0.520802021
vt -1.34500003 -0.579051971
vt 0.00191999995 -0.579051971
vt -0.0245040003 -0.520802021
vt -0.0298679993 -0.528140008
vt -1.34500003 -0.579051971
vt -1.34500003 -0.528140008
vt -1.34500003 -0.579051971
vt 0.00191999995 -0.579051971
vt -0.0298679993 -0.528140008
vt -0.0344499983 -0.536731005
vt -1.34500003 -0.579051971
vt -1.34500003 -0.536731005
vt -1.34500003 -0.579051971
vt 0.00191999995 -0.579051971
vt -0.0344499983 -0.536731005
vt -0.0381360017 -0.546364009
vt -1.34500003 -0.579051971
vt -1.34500003 -0.546364009
vt -1.34500003 -0.579051971
vt 0.00191999995 -0.579051971
vt -0.0381360017 -0.546364009
vt -0.0408350006 -0.556802988
vt -1.34500003 -0.579051971
vt -1.34500003 -0.556802988
vt -1.34500003 -0.579051971
vt 0.00191999995 -0.579051971
vt -0.0408350006 -0.556802988
vt -0.0424819998 -0.567788005
vt -1.34500003 -0.579051971
vt -1.34500003 -0.567788005
vt -1.34500003 -0.579051971
vt 0.00191999995 -0.579051971
vt -0.0424819998 -0.567788005
vt -0.0430350006 -0.579051971
vt 0.00191999995 -0.579051971
vt -0.0430350006 -0.579051971
vt -0.0424819998 -0.590314984
vt 0.0184899997 -0.643203974
vt 0.0245040003 -0.637301028
vt -0.00191999995 -0.579051971
vt -0.00191999995 -0.579051971
vt 0.0245040003 -0.637301028
vt 0.0298679993 -0.629962981
vt -1.41499996 -0.579051971
vt -1.41499996 -0.629962981
vt -1.41499996 -0.579051971
vt -0.00191999995 -0.579051971
vt 0.0298679993 -0.629962981
vt 0.0344499983 -0.621371984
vt -1.41499996 -0.579051971
vt -1.41499996 -0.621371984
vt -1.41499996 -0.579051971
vt -0.00191999995 -0.579051971
vt 0.0344499983 -0.621371984
vt 0.0381360017 -0.61173898
vt -1.41499996 -0.579051971
vt -1.41499996 -0.61173898
vt -1.41499996 -0.579051971
vt -0.00191999995 -0.579051971
vt 0.0381360017 -0.61173898
vt 0.0408350006 -0.601301014
vt -1.41499996 -0.579051971
vt -1.41499996 -0.601301014
vt -1.41499996 -0.579051971
vt -0.00191999995 -0.579051971
vt 0.0408350006 -0.601301014
vt 0.0424819998 -0.590314984
vt -1.41499996 -0.579051971
vt -1.41499996 -0.590314984
vt -1.41499996 -0.579051971
vt -0.00191999995 -0.579051971
vt 0.0424819998 -0.590314984
vt 0.0430350006 -0.579051971
vt -1.41499996 -0.579051971
vt -1.41499996 -0.579051971
vt -1.41499996 -0.579051971
vt -0.00191999995 -0.579051971
vt 0.0430350006 -0.579051971
vt 0.0424819998 -0.567788005
vt -1.41499996 -0.579051971
vt -1.41499996 -0.567788005
vt -1.41499996 -0.579051971
vt -0.00191999995 -0.579051971
vt 0.0424819998 -0.567788005
vt 0.0408350006 -0.556802988
vt -1.41499996 -0.579051971
vt -1.41499996 -0.556802988
vt -1.41499996 -0.579051971
vt -0.00191999995 -0.579051971
vt 0.0408350006 -0.556802988
vt 0.0381360017 -0.546364009
vt -1.41499996 -0.579051971
vt -1.41499996 -0.546364009
vt -1.41499996 -0.579051971
vt -0.00191999995 -0.579051971
vt 0.0381360017 -0.546364009
vt 0.0344499983 -0.536731005
vt -1.41499996 -0.579051971
vt -1.41499996 -0.536731005
vt -1.41499996 -0.579051971
vt -0.00191999995 -0.579051971
vt 0.0344499983 -0.536731005
vt 0.0298679993 -0.528140008
vt -1.41499996 -0.579051971
vt -1.41499996 -0.528140008
vt -1.41499996 -0.579051971
vt -0.00191999995 -0.579051971
vt 0.0298679993 -0.528140008
vt 0.0245040003 -0.520802021
vt -1.41499996 -0.579051971
vt -1.41499996 -0.520802021
vt -1.41499996 -0.579051971
vt -0.00191999995 -0.579051971
vt 0.0245040003 -0.520802021
vt 0.0184899997 -0.514899015
vt -1.41499996 -0.579051971
vt -1.41499996 -0.514899015
vt -1.41499996 -0.579051971
vt -0.00191999995 -0.579051971
vt 0.0184899997 -0.514899015
vt 0.0119719999 -0.51057601
vt -1.41499996 -0.579051971
vt -1.41499996 -0.51057601
vt -1.41499996 -0.579051971
vt -0.00191999995 -0.579051971
vt 0.0119719999 -0.51057601
vt 0.00511300005 -0.507938027
vt -1.41499996 -0.579051971
vt -1.41499996 -0.507938027
vt -1.41499996 -0.579051971
vt -0.00191999995 -0.579051971
vt 0.00511300005 -0.507938027
vt -0.00191999995 -0.507052004
vt -1.41499996 -0.579051971
vt -1.41499996 -0.507052004
vt -1.41499996 -0.579051971
vt -0.00191999995 -0.579051971
vt -0.00191999995 -0.507052004
vt -0.00895200018 -0.507938027
vt -1.41499996 -0.579051971
vt -1.41499996 -0.507938027
vt -1.41499996 -0.579051971
vt -0.00191999995 -0.579051971
vt -0.00895200018 -0.507938027
vt -0.015811 -0.51057601
vt -1.41499996 -0.579051971
vt -1.41499996 -0.51057601
vt -1.41499996 -0.579051971
vt -0.00191999995 -0.579051971
vt -0.015811 -0.51057601
vt -0.0223290008 -0.514899015
vt -1.41499996 -0.579051971
vt -1.41499996 -0.514899015
vt -1.41499996 -0.579051971
vt -0.00191999995 -0.579051971
vt -0.0223290008 -0.514899015
vt -0.0283429995 -0.520802021
vt -1.41499996 -0.579051971
vt -1.41499996 -0.520802021
vt -1.41499996 -0.579051971
vt -0.00191999995 -0.579051971
vt -0.0283429995 -0.520802021
vt -0.0337079987 -0.528140008
vt -1.41499996 -0.579051971
vt -1.41499996 -0.528140008
vt -1.41499996 -0.579051971
vt -0.00191999995 -0.579051971
vt -0.0337079987 -0.528140008
vt -0.0382889993 -0.536731005
vt -1.41499996 -0.579051971
vt -1.41499996 -0.536731005
vt -1.41499996 -0.579051971
vt -0.00191999995 -0.579051971
vt -0.0382889993 -0.536731005
vt -0.041974999 -0.546364009
vt -1.41499996 -0.579051971
vt -1.41499996 -0.546364009
vt -1.41499996 -0.579051971
vt -0.00191999995 -0.579051971
vt -0.041974999 -0.546364009
vt -0.0446740016 -0.556802988
vt -1.41499996 -0.579051971
vt -1.41499996 -0.556802988
vt -1.41499996 -0.579051971
vt -0.00191999995 -0.579051971
vt -0.0446740016 -0.556802988
vt -0.0463210009 -0.567788005
vt -1.41499996 -0.579051971
vt -1.41499996 -0.567788005
vt -1.41499996 -0.579051971
vt -0.00191999995 -0.579051971
vt -0.0463210009 -0.567788005
vt -0.046875 -0.579051971
vt -1.41499996 -0.579051971
vt -1.41499996 -0.579051971
vt -1.41499996 -0.579051971
vt -0.00191999995 -0.579051971
vt -0.046875 -0.579051971
vt -0.0463210009 -0.590314984
vt -1.41499996 -0.579051971
vt -1.41499996 -0.590314984
vt -1.41499996 -0.579051971
vt -0.00191999995 -0.579051971
vt -0.0463210009 -0.590314984
vt -0.0446740016 -0.601301014
vt -1.41499996 -0.579051971
vt -1.41499996 -0.601301014
vt -1.41499996 -0.579051971
vt -0.00191999995 -0.579051971
vt -0.0446740016 -0.601301014
vt -0.041974999 -0.61173898
vt -1.41499996 -0.579051971
vt -1.41499996 -0.61173898
vt -1.41499996 -0.579051971
vt -0.00191999995 -0.579051971
vt -0.041974999 -0.61173898
vt -0.0382889993 -0.621371984
vt -1.41499996 -0.579051971
vt -1.41499996 -0.621371984
vt -1.41499996 -0.579051971
vt -0.00191999995 -0.579051971
vt -0.0382889993 -0.621371984
vt -0.0337079987 -0.629962981
vt -1.41499996 -0.579051971
vt -1.41499996 -0.629962981
vt -1.41499996 -0.579051971
vt -0.00191999995 -0.579051971
vt -0.0337079987 -0.629962981
vt -0.0283429995 -0.637301028
vt -1.41499996 -0.579051971
vt -1.41499996 -0.637301028
vt -1.41499996 -0.579051971
vt -0.00191999995 -0.579051971
vt -0.0283429995 -0.637301028
vt -0.0223290008 -0.643203974
vt -1.41499996 -0.579051971
vt -1.41499996 -0.643203974
vt -1.41499996 -0.579051971
vt -0.00191999995 -0.579051971
vt -0.0223290008 -0.643203974
vt -0.015811 -0.647527993
vt -1.41499996 -0.579051971
vt -1.41499996 -0.647527993
vt -1.41499996 -0.579051971
vt -0.00191999995 -0.579051971
vt -0.015811 -0.647527993
vt -0.00895200018 -0.650165021
vt -1.41499996 -0.579051971
vt -1.41499996 -0.650165021
vt -1.41499996 -0.579051971
vt -0.00191999995 -0.579051971
vt -0.00895200018 -0.650165021
vt -0.00191999995 -0.651051998
vt -1.41499996 -0.579051971
vt -1.41499996 -0.651051998
vt -1.41499996 -0.579051971
vt -0.00191999995 -0.579051971
vt -0.00191999995 -0.651051998
vt 0.00511300005 -0.650165021
vt -1.41499996 -0.579051971
vt -1.41499996 -0.650165021
vt -1.41499996 -0.579051971
vt -0.00191999995 -0.579051971
vt 0.00511300005 -0.650165021
vt 0.0119719999 -0.647527993
vt -0.00191999995 -0.579051971
vt 0.0119719999 -0.647527993
vt 0.0184899997 -0.643203974
vt -1.34500003 -0.567788005
vt -1.41499996 -0.579051971
vt -1.34500003 -0.579051971
vt -1.34500003 -0.579051971
vt -1.41499996 -0.579051971
vt -1.41499996 -0.590314984
vt -1.41499996 -0.579051971
vt -1.34500003 -0.567788005
vt -1.41499996 -0.567788005
vt -1.41499996 -0.567788005
vt -1.34500003 -0.567788005
vt -1.34500003 -0.556802988
vt -1.41499996 -0.567788005
vt -1.34500003 -0.556802988
vt -1.41499996 -0.556802988
vt -1.41499996 -0.556802988
vt -1.34500003 -0.556802988
vt -1.34500003 -0.546364009
vt -1.41499996 -0.556802988
vt -1.34500003 -0.546364009
vt -1.41499996 -0.546364009
vt -1.41499996 -0.546364009
vt -1.34500003 -0.546364009
vt -1.34500003 -0.536731005
vt -1.41499996 -0.546364009
vt -1.34500003 -0.536731005
vt -1.41499996 -0.536731005
vt -1.41499996 -0.536731005
vt -1.34500003 -0.536731005
vt -1.34500003 -0.528140008
vt -1.41499996 -0.536731005
vt -1.34500003 -0.528140008
vt -1.41499996 -0.528140008
vt -1.41499996 -0.528140008
vt -1.34500003 -0.528140008
vt -1.34500003 -0.520802021
vt -1.41499996 -0.528140008
vt -1.34500003 -0.520802021
vt -1.41499996 -0.520802021
vt -0.0245040003 1.41499996
vt -0.0245040003 1.34500003
vt -0.0184899997 1.34500003
vt -0.0245040003 1.41499996
vt -0.0184899997 1.34500003
vt -0.0184899997 1.41499996
vt -0.0184899997 1.41499996
vt -0.0184899997 1.34500003
vt -0.0119719999 1.34500003
vt -0.0184899997 1.41499996
vt -0.0119719999 1.34500003
vt -0.0119719999 1.41499996
vt -0.0119719999 1.41499996
vt -0.0119719999 1.34500003
vt -0.00511300005 1.34500003
vt -0.0119719999 1.41499996
vt -0.00511300005 1.34500003
vt -0.00511300005 1.41499996
vt -0.00511300005 1.41499996
vt -0.00511300005 1.34500003
vt 0.00191999995 1.34500003
vt -0.00511300005 1.41499996
vt 0.00191999995 1.34500003
vt 0.00191999995 1.41499996
vt 0.00191999995 1.41499996
vt 0.00191999995 1.34500003
vt 0.00895200018 1.34500003
vt 0.00191999995 1.41499996
vt 0.00895200018 1.34500003
vt 0.00895200018 1.41499996
vt 0.00895200018 1.41499996
vt 0.00895200018 1.34500003
vt 0.015811 1.34500003
vt 0.00895200018 1.41499996
vt 0.015811 1.34500003
vt 0.015811 1.41499996
vt 0.015811 1.41499996
vt 0.015811 1.34500003
vt 0.0223290008 1.34500003
vt 0.015811 1.41499996
vt 0.0223290008 1.34500003
vt 0.0223290008 1.41499996
vt 0.0223290008 1.41499996
vt 0.0223290008 1.34500003
vt 0.0283429995 1.34500003
vt 0.0223290008 1.41499996
vt 0.0283429995 1.34500003
vt 0.0283429995 1.41499996
vt 1.41499996 -0.520802021
vt 1.34500003 -0.520802021
vt 1.34500003 -0.528140008
vt 1.41499996 -0.520802021
vt 1.34500003 -0.528140008
vt 1.41499996 -0.528140008
vt 1.41499996 -0.528140008
vt 1.34500003 -0.528140008
vt 1.34500003 -0.536731005
vt 1.41499996 -0.528140008
vt 1.34500003 -0.536731005
vt 1.41499996 -0.536731005
vt 1.41499996 -0.536731005
vt 1.34500003 -0.536731005
vt 1.34500003 -0.546364009
vt 1.41499996 -0.536731005
vt 1.34500003 -0.546364009
vt 1.41499996 -0.546364009
vt 1.41499996 -0.546364009
vt 1.34500003 -0.546364009
vt 1.34500003 -0.556802988
vt 1.41499996 -0.546364009
vt 1.34500003 -0.556802988
vt 1.41499996 -0.556802988
vt 1.41499996 -0.556802988
vt 1.34500003 -0.556802988
vt 1.34500003 -0.567788005
vt 1.41499996 -0.556802988
vt 1.34500003 -0.567788005
vt 1.41499996 -0.567788005
vt 1.41499996 -0.567788005
vt 1.34500003 -0.567788005
vt 1.34500003 -0.579051971
vt 1.41499996 -0.567788005
vt 1.34500003 -0.579051971
vt 1.41499996 -0.579051971
vt 1.41499996 -0.579051971
vt 1.34500003 -0.579051971
vt 1.34500003 -0.590314984
vt 1.41499996 -0.579051971
vt 1.34500003 -0.590314984
vt 1.41499996 -0.590314984
vt 1.41499996 -0.590314984
vt 1.34500003 -0.590314984
vt 1.34500003 -0.601301014
vt 1.41499996 -0.590314984
vt 1.34500003 -0.601301014
vt 1.41499996 -0.601301014
vt 1.41499996 -0.601301014
vt 1.34500003 -0.601301014
vt 1.34500003 -0.61173898
vt 1.41499996 -0.601301014
vt 1.34500003 -0.61173898
vt 1.41499996 -0.61173898
vt 1.41499996 -0.61173898
vt 1.34500003 -0.61173898
vt 1.34500003 -0.621371984
vt 1.41499996 -0.61173898
vt 1.34500003 -0.621371984
vt 1.41499996 -0.621371984
vt 1.41499996 -0.621371984
vt 1.34500003 -0.621371984
vt 1.34500003 -0.629962981
vt 1.41499996 -0.621371984
vt 1.34500003 -0.629962981
vt 1.41499996 -0.629962981
vt 1.41499996 -0.629962981
vt 1.34500003 -0.629962981
vt 1.34500003 -0.637301028
vt 1.41499996 -0.629962981
vt 1.34500003 -0.637301028
vt 1.41499996 -0.637301028
vt -0.0283429995 1.41499996
vt -0.0283429995 1.34500003
vt -0.0223290008 1.34500003
vt -0.0283429995 1.41499996
vt -0.0223290008 1.34500003
vt -0.0223290008 1.41499996
vt -0.0223290008 1.41499996
vt -0.0223290008 1.34500003
vt -0.015811 1.34500003
vt -0.0223290008 1.41499996
vt -0.015811 1.34500003
vt -0.015811 1.41499996
vt -0.015811 1.41499996
vt -0.015811 1.34500003
vt -0.00895200018 1.34500003
vt -0.015811 1.41499996
vt -0.00895200018 1.34500003
vt -0.00895200018 1.41499996
vt -0.00895200018 1.41499996
vt -0.00895200018 1.34500003
vt -0.00191999995 1.34500003
vt -0.00895200018 1.41499996
vt -0.00191999995 1.34500003
vt -0.00191999995 1.41499996
vt -0.00191999995 1.41499996
vt -0.00191999995 1.34500003
vt 0.00511300005 1.34500003
vt -0.00191999995 1.41499996
vt 0.00511300005 1.34500003
vt 0.00511300005 1.41499996
vt 0.00511300005 1.41499996
vt 0.00511300005 1.34500003
vt 0.0119719999 1.34500003
vt 0.00511300005 1.41499996
vt 0.0119719999 1.34500003
vt 0.0119719999 1.41499996
vt 0.0119719999 1.41499996
vt 0.0119719999 1.34500003
vt 0.0184899997 1.34500003
vt 0.0119719999 1.41499996
vt 0.0184899997 1.34500003
vt 0.0184899997 1.41499996
vt 0.0184899997 1.41499996
vt 0.0184899997 1.34500003
vt 0.0245040003 1.34500003
vt 0.0184899997 1.41499996
vt 0.0245040003 1.34500003
vt 0.0245040003 1.41499996
vt -1.41499996 -0.637301028
vt -1.34500003 -0.637301028
vt -1.34500003 -0.629962981
vt -1.41499996 -0.637301028
vt -1.34500003 -0.629962981
vt -1.41499996 -0.629962981
vt -1.41499996 -0.629962981
vt -1.34500003 -0.629962981
vt -1.34500003 -0.621371984
vt -1.41499996 -0.629962981
vt -1.34500003 -0.621371984
vt -1.41499996 -0.621371984
vt -1.41499996 -0.621371984
vt -1.34500003 -0.621371984
vt -1.34500003 -0.61173898
vt -1.41499996 -0.621371984
vt -1.34500003 -0.61173898
vt -1.41499996 -0.61173898
vt -1.41499996 -0.61173898
vt -1.34500003 -0.61173898
vt -1.34500003 -0.601301014
vt -1.41499996 -0.61173898
vt -1.34500003 -0.601301014
vt -1.41499996 -0.601301014
vt -1.41499996 -0.601301014
vt -1.34500003 -0.601301014
vt -1.34500003 -0.590314984
vt -1.41499996 -0.601301014
vt -1.34500003 -0.590314984
vt -1.41499996 -0.590314984
vt -1.41499996 -0.590314984
vt -1.34500003 -0.590314984
vt -1.34500003 -0.579051971
f 1/1 2/2 3/3
f 3/4 2/5 2/6
f 3/7 2/8 4/9
f 4/10 2/11 5/12
f 4/13 5/14 6/15
f 6/16 5/17 7/18
f 6/19 7/20 8/21
f 8/22 7/23 9/24
f 8/25 9/26 10/27
f 10/28 9/29 11/30
f 10/31 11/32 10/33
f 10/34 11/35 12/36
f 10/37 12/38 13/39
f 13/40 12/41 14/42
f 13/43 14/44 15/45
f 15/46 14/47 16/48
f 15/49 16/50 17/51
f 17/52 16/53 18/54
f 17/55 18/56 19/57
f 19/58 18/59 20/60
f 19/61 20/62 21/63
f 21/64 20/65 22/66
f 21/67 22/68 23/69
f 23/70 22/71 22/72
f 23/73 22/74 24/75
f 24/76 22/77 25/78
f 24/79 25/80 26/81
f 26/82 25/83 27/84
f 26/85 27/86 26/87
f 26/88 27/89 28/90
f 26/91 28/92 29/93
f 29/94 28/95 28/96
f 29/97 28/98 30/99
f 30/100 28/101 31/102
f 30/103 31/104 30/105
f 30/106 31/107 32/108
f 30/109 32/110 33/111
f 33/112 32/113 32/114
f 33/115 32/116 34/117
f 34/118 32/119 35/120
f 34/121 35/122 1/123
f 1/124 35/125 36/126
f 36/127 35/128 37/129
f 36/130 37/131 38/132
f 38/133 37/134 39/135
f 38/136 39/137 40/138
f 40/139 39/140 41/141
f 40/142 41/143 42/144
f 42/145 41/146 43/147
f 42/148 43/149 44/150
f 44/151 43/152 45/153
f 44/154 45/155 46/156
f 46/157 45/158 47/159
f 46/160 47/161 48/162
f 48/163 47/164 49/165
f 48/166 49/167 50/168
f 50/169 49/170 51/171
f 50/172 51/173 52/174
f 35/175 32/176 37/177
f 37/178 32/179 53/180
f 37/181 53/182 39/183
f 39/184 53/185 54/186
f 39/187 54/188 41/189
f 41/190 54/191 55/192
f 41/193 55/194 43/195
f 43/196 55/197 56/198
f 43/199 56/200 45/201
f 45/202 56/203 57/204
f 45/205 57/206 47/207
f 47/208 57/209 58/210
f 47/211 58/212 49/213
f 49/214 58/215 59/216
f 49/217 59/218 51/219
f 51/220 59/221 60/222
f 51/223 60/224 61/225
f 61/226 60/227 60/228
f 61/229 60/230 62/231
f 62/232 60/233 63/234
f 62/235 63/236 64/237
f 64/238 63/239 65/240
f 64/241 65/242 66/243
f 66/244 65/245 67/246
f 66/247 67/248 68/249
f 68/250 67/251 69/252
f 68/253 69/254 70/255
f 70/256 69/257 71/258
f 70/259 71/260 72/261
f 72/262 71/263 73/264
f 72/265 73/266 74/267
f 74/268 73/269 75/270
f 74/271 75/272 76/273
f 76/274 75/275 77/276
f 76/277 77/278 78/279
f 78/280 77/281 79/282
f 78/283 79/284 80/285
f 80/286 79/287 81/288
f 80/289 81/290 82/291
f 82/292 81/293 83/294
f 82/295 83/296 84/297
f 84/298 83/299 85/300
f 84/301 85/302 86/303
f 86/304 85/305 87/306
f 86/307 87/308 88/309
f 88/310 87/311 89/312
f 88/313 89/314 90/315
f 90/316 89/317 91/318
f 90/319 91/320 92/321
f 92/322 91/323 50/324
f 92/325 50/326 52/327
f 61/328 52/329 51/330
f 50/331 91/332 48/333
f 48/334 91/335 93/336
f 48/337 93/338 46/339
f 46/340 93/341 94/342
f 46/343 94/344 44/345
f 44/346 94/347 95/348
f 44/349 95/350 42/351
f 42/352 95/353 96/354
f 42/355 96/356 40/357
f 40/358 96/359 97/360
f 40/361 97/362 38/363
f 38/364 97/365 98/366
f 38/367 98/368 36/369
f 36/370 98/371 99/372
f 36/373 99/374 1/375
f 91/376 89/377 93/378
f 93/379 89/380 100/381
f 93/382 100/383 94/384
f 94/385 100/386 101/387
f 94/388 101/389 95/390
f 95/391 101/392 102/393
f 95/394 102/395 96/396
f 96/397 102/398 103/399
f 96/400 103/401 97/402
f 97/403 103/404 104/405
f 97/406 104/407 98/408
f 98/409 104/410 105/411
f 98/412 105/413 99/414
f 99/415 105/416 106/417
f 99/418 106/419 2/420
f 2/421 106/422 106/423
f 2/424 106/425 5/426
f 5/427 106/428 107/429
f 5/430 107/431 7/432
f 7/433 107/434 108/435
f 7/436 108/437 9/438
f 9/439 108/440 109/441
f 9/442 109/443 11/444
f 11/445 109/446 110/447
f 11/448 110/449 12/450
f 12/451 110/452 111/453
f 12/454 111/455 14/456
f 14/457 111/458 112/459
f 14/460 112/461 16/462
f 16/463 112/464 113/465
f 16/466 113/467 18/468
f 18/469 113/470 114/471
f 18/472 114/473 20/474
f 20/475 114/476 115/477
f 20/478 115/479 22/480
f 22/481 115/482 116/483
f 22/484 116/485 25/486
f 25/487 116/488 117/489
f 25/490 117/491 27/492
f 27/493 117/494 118/495
f 27/496 118/497 28/498
f 28/499 118/500 119/501
f 28/502 119/503 31/504
f 31/505 119/506 53/507
f 31/508 53/509 32/510
f 2/511 1/512 99/513
f 53/514 119/515 54/516
f 54/517 119/518 120/519
f 54/520 120/521 55/522
f 55/523 120/524 121/525
f 55/526 121/527 56/528
f 56/529 121/530 122/531
f 56/532 122/533 57/534
f 57/535 122/536 123/537
f 57/538 123/539 58/540
f 58/541 123/542 124/543
f 58/544 124/545 59/546
f 59/547 124/548 125/549
f 59/550 125/551 60/552
f 60/553 125/554 125/555
f 60/556 125/557 63/558
f 63/559 125/560 126/561
f 63/562 126/563 65/564
f 65/565 126/566 127/567
f 65/568 127/569 67/570
f 67/571 127/572 128/573
f 67/574 128/575 69/576
f 69/577 128/578 129/579
f 69/580 129/581 71/582
f 71/583 129/584 130/585
f 71/586 130/587 73/588
f 73/589 130/590 131/591
f 73/592 131/593 75/594
f 75/595 131/596 132/597
f 75/598 132/599 77/600
f 77/601 132/602 133/603
f 77/604 133/605 79/606
f 79/607 133/608 134/609
f 79/610 134/611 81/612
f 81/613 134/614 135/615
f 81/616 135/617 83/618
f 83/619 135/620 136/621
f 83/622 136/623 85/624
f 85/625 136/626 137/627
f 85/628 137/629 87/630
f 87/631 137/632 100/633
f 87/634 100/635 89/636
f 100/637 137/638 101/639
f 101/640 137/641 138/642
f 101/643 138/644 102/645
f 102/646 138/647 139/648
f 102/649 139/650 103/651
f 103/652 139/653 140/654
f 103/655 140/656 104/657
f 104/658 140/659 141/660
f 104/661 141/662 105/663
f 105/664 141/665 142/666
f 105/667 142/668 106/669
f 106/670 142/671 142/672
f 106/673 142/674 107/675
f 107/676 142/677 143/678
f 107/679 143/680 108/681
f 108/682 143/683 144/684
f 108/685 144/686 109/687
f 109/688 144/689 145/690
f 109/691 145/692 110/693
f 110/694 145/695 146/696
f 110/697 146/698 111/699
f 111/700 146/701 147/702
f 111/703 147/704 112/705
f 112/706 147/707 148/708
f 112/709 148/710 113/711
f 113/712 148/713 149/714
f 113/715 149/716 114/717
f 114/718 149/719 150/720
f 114/721 150/722 115/723
f 115/724 150/725 151/726
f 115/727 151/728 116/729
f 116/730 151/731 152/732
f 116/733 152/734 117/735
f 117/736 152/737 153/738
f 117/739 153/740 118/741
f 118/742 153/743 120/744
f 118/745 120/746 119/747
f 120/748 153/749 121/750
f 121/751 153/752 154/753
f 121/754 154/755 122/756
f 122/757 154/758 155/759
f 122/760 155/761 123/762
f 123/763 155/764 156/765
f 123/766 156/767 124/768
f 124/769 156/770 157/771
f 124/772 157/773 125/774
f 125/775 157/776 157/777
f 125/778 157/779 126/780
f 126/781 157/782 158/783
f 126/784 158/785 127/786
f 127/787 158/788 159/789
f 127/790 159/791 128/792
f 128/793 159/794 160/795
f 128/796 160/797 129/798
f 129/799 160/800 161/801
f 129/802 161/803 130/804
f 130/805 161/806 162/807
f 130/808 162/809 131/810
f 131/811 162/812 163/813
f 131/814 163/815 132/816
f 132/817 163/818 164/819
f 132/820 164/821 133/822
f 133/823 164/824 165/825
f 133/826 165/827 134/828
f 134/829 165/830 166/831
f 134/832 166/833 135/834
f 135/835 166/836 167/837
f 135/838 167/839 136/840
f 136/841 167/842 138/843
f 136/844 138/845 137/846
f 138/847 167/848 139/849
f 139/850 167/851 168/852
f 139/853 168/854 140/855
f 140/856 168/857 169/858
f 140/859 169/860 141/861
f 141/862 169/863 170/864
f 141/865 170/866 142/867
f 142/868 170/869 170/870
f 142/871 170/872 143/873
f 143/874 170/875 171/876
f 143/877 171/878 144/879
f 144/880 171/881 172/882
f 144/883 172/884 145/885
f 145/886 172/887 173/888
f 145/889 173/890 146/891
f 146/892 173/893 174/894
f 146/895 174/896 147/897
f 147/898 174/899 175/900
f 147/901 175/902 148/903
f 148/904 175/905 176/906
f 148/907 176/908 149/909
f 149/910 176/911 177/912
f 149/913 177/914 150/915
f 150/916 177/917 178/918
f 150/919 178/920 151/921
f 151/922 178/923 179/924
f 151/925 179/926 152/927
f 152/928 179/929 154/930
f 152/931 154/932 153/933
f 154/934 179/935 155/936
f 155/937 179/938 180/939
f 155/940 180/941 156/942
f 156/943 180/944 181/945
f 156/946 181/947 157/948
f 157/949 181/950 181/951
f 157/952 181/953 158/954
f 158/955 181/956 182/957
f 158/958 182/959 159/960
f 159/961 182/962 183/963
f 159/964 183/965 160/966
f 160/967 183/968 184/969
f 160/970 184/971 161/972
f 161/973 184/974 185/975
f 161/976 185/977 162/978
f 162/979 185/980 186/981
f 162/982 186/983 163/984
f 163/985 186/986 187/987
f 163/988 187/989 164/990
f 164/991 187/992 188/993
f 164/994 188/995 165/996
f 165/997 188/998 189/999
f 165/1000 189/1001 166/1002
f 166/1003 189/1004 168/1005
f 166/1006 168/1007 167/1008
f 168/1009 189/1010 169/1011
f 169/1012 189/1013 190/1014
f 169/1015 190/1016 170/1017
f 170/1018 190/1019 190/1020
f 170/1021 190/1022 171/1023
f 171/1024 190/1025 191/1026
f 171/1027 191/1028 172/1029
f 172/1030 191/1031 192/1032
f 172/1033 192/1034 173/1035
f 173/1036 192/1037 193/1038
f 173/1039 193/1040 174/1041
f 174/1042 193/1043 194/1044
f 174/1045 194/1046 175/1047
f 175/1048 194/1049 195/1050
f 175/1051 195/1052 176/1053
f 176/1054 195/1055 196/1056
f 176/1057 196/1058 177/1059
f 177/1060 196/1061 197/1062
f 177/1063 197/1064 178/1065
f 178/1066 197/1067 180/1068
f 178/1069 180/1070 179/1071
f 180/1072 197/1073 181/1074
f 181/1075 197/1076 197/1077
f 181/1078 197/1079 182/1080
f 182/1081 197/1082 196/1083
f 182/1084 196/1085 183/1086
f 183/1087 196/1088 195/1089
f 183/1090 195/1091 184/1092
f 184/1093 195/1094 194/1095
f 184/1096 194/1097 185/1098
f 185/1099 194/1100 193/1101
f 185/1102 193/1103 186/1104
f 186/1105 193/1106 192/1107
f 186/1108 192/1109 187/1110
f 187/1111 192/1112 191/1113
f 187/1114 191/1115 188/1116
f 188/1117 191/1118 190/1119
f 188/1120 190/1121 189/1122
f 34/1123 1/1124 198/1125
f 198/1126 1/1127 3/1128
f 72/1129 74/1130 199/1131
f 199/1132 74/1133 76/1134
f 199/1135 76/1136 199/1137
f 199/1138 76/1139 78/1140
f 199/1141 78/1142 199/1143
f 199/1144 78/1145 80/1146
f 199/1147 80/1148 199/1149
f 199/1150 80/1151 82/1152
f 199/1153 82/1154 199/1155
f 199/1156 82/1157 84/1158
f 199/1159 84/1160 199/1161
f 199/1162 84/1163 86/1164
f 199/1165 86/1166 199/1167
f 199/1168 86/1169 88/1170
f 199/1171 88/1172 199/1173
f 199/1174 88/1175 90/1176
f 199/1177 90/1178 199/1179
f 199/1180 90/1181 92/1182
f 199/1183 92/1184 199/1185
f 199/1186 92/1187 52/1188
f 199/1189 52/1190 199/1191
f 199/1192 52/1193 61/1194
f 199/1195 61/1196 199/1197
f 199/1198 61/1199 62/1200
f 199/1201 62/1202 199/1203
f 199/1204 62/1205 64/1206
f 199/1207 64/1208 199/1209
f 199/1210 64/1211 66/1212
f 199/1213 66/1214 199/1215
f 199/1216 66/1217 68/1218
f 199/1219 68/1220 199/1221
f 199/1222 68/1223 70/1224
f 199/1225 70/1226 72/1227
f 200/1228 201/1229 202/1230
f 202/1231 201/1232 203/1233
f 202/1234 203/1235 202/1236
f 202/1237 203/1238 204/1239
f 202/1240 204/1241 202/1242
f 202/1243 204/1244 205/1245
f 202/1246 205/1247 202/1248
f 202/1249 205/1250 206/1251
f 202/1252 206/1253 202/1254
f 202/1255 206/1256 207/1257
f 202/1258 207/1259 202/1260
f 202/1261 207/1262 208/1263
f 202/1264 208/1265 202/1266
f 202/1267 208/1268 209/1269
f 202/1270 209/1271 202/1272
f 202/1273 209/1274 210/1275
f 202/1276 210/1277 202/1278
f 202/1279 210/1280 211/1281
f 202/1282 211/1283 202/1284
f 202/1285 211/1286 212/1287
f 202/1288 212/1289 202/1290
f 202/1291 212/1292 213/1293
f 202/1294 213/1295 202/1296
f 202/1297 213/1298 214/1299
f 202/1300 214/1301 202/1302
f 202/1303 214/1304 215/1305
f 202/1306 215/1307 202/1308
f 202/1309 215/1310 216/1311
f 202/1312 216/1313 202/1314
f 202/1315 216/1316 217/1317
f 202/1318 217/1319 202/1320
f 202/1321 217/1322 218/1323
f 202/1324 218/1325 202/1326
f 202/1327 218/1328 219/1329
f 202/1330 219/1331 202/1332
f 202/1333 219/1334 220/1335
f 202/1336 220/1337 202/1338
f 202/1339 220/1340 221/1341
f 202/1342 221/1343 202/1344
f 202/1345 221/1346 222/1347
f 202/1348 222/1349 202/1350
f 202/1351 222/1352 223/1353
f 202/1354 223/1355 202/1356
f 202/1357 223/1358 224/1359
f 202/1360 224/1361 202/1362
f 202/1363 224/1364 225/1365
f 202/1366 225/1367 202/1368
f 202/1369 225/1370 226/1371
f 202/1372 226/1373 202/1374
f 202/1375 226/1376 227/1377
f 202/1378 227/1379 202/1380
f 202/1381 227/1382 228/1383
f 202/1384 228/1385 202/1386
f 202/1387 228/1388 229/1389
f 202/1390 229/1391 202/1392
f 202/1393 229/1394 230/1395
f 202/1396 230/1397 202/1398
f 202/1399 230/1400 231/1401
f 202/1402 231/1403 202/1404
f 202/1405 231/1406 232/1407
f 202/1408 232/1409 202/1410
f 202/1411 232/1412 233/1413
f 202/1414 233/1415 202/1416
f 202/1417 233/1418 234/1419
f 202/1420 234/1421 202/1422
f 202/1423 234/1424 235/1425
f 202/1426 235/1427 202/1428
f 202/1429 235/1430 236/1431
f 202/1432 236/1433 202/1434
f 202/1435 236/1436 237/1437
f 202/1438 237/1439 202/1440
f 202/1441 237/1442 238/1443
f 202/1444 238/1445 202/1446
f 202/1447 238/1448 239/1449
f 202/1450 239/1451 202/1452
f 202/1453 239/1454 240/1455
f 202/1456 240/1457 200/1458
f 241/1459 242/1460 243/1461
f 243/1462 242/1463 244/1464
f 243/1465 244/1466 243/1467
f 243/1468 244/1469 245/1470
f 243/1471 245/1472 243/1473
f 243/1474 245/1475 246/1476
f 243/1477 246/1478 243/1479
f 243/1480 246/1481 247/1482
f 243/1483 247/1484 243/1485
f 243/1486 247/1487 248/1488
f 243/1489 248/1490 243/1491
f 243/1492 248/1493 249/1494
f 243/1495 249/1496 243/1497
f 243/1498 249/1499 250/1500
f 243/1501 250/1502 243/1503
f 243/1504 250/1505 251/1506
f 243/1507 251/1508 243/1509
f 243/1510 251/1511 252/1512
f 243/1513 252/1514 243/1515
f 243/1516 252/1517 253/1518
f 243/1519 253/1520 243/1521
f 243/1522 253/1523 254/1524
f 243/1525 254/1526 243/1527
f 243/1528 254/1529 255/1530
f 243/1531 255/1532 243/1533
f 243/1534 255/1535 256/1536
f 243/1537 256/1538 243/1539
f 243/1540 256/1541 257/1542
f 243/1543 257/1544 243/1545
f 243/1546 257/1547 258/1548
f 243/1549 258/1550 243/1551
f 243/1552 258/1553 259/1554
f 243/1555 259/1556 243/1557
f 243/1558 259/1559 260/1560
f 243/1561 260/1562 243/1563
f 243/1564 260/1565 261/1566
f 243/1567 261/1568 243/1569
f 243/1570 261/1571 262/1572
f 243/1573 262/1574 243/1575
f 243/1576 262/1577 263/1578
f 243/1579 263/1580 243/1581
f 243/1582 263/1583 264/1584
f 243/1585 264/1586 243/1587
f 243/1588 264/1589 265/1590
f 243/1591 265/1592 243/1593
f 243/1594 265/1595 266/1596
f 243/1597 266/1598 243/1599
f 243/1600 266/1601 267/1602
f 243/1603 267/1604 243/1605
f 243/1606 267/1607 268/1608
f 243/1609 268/1610 243/1611
f 243/1612 268/1613 269/1614
f 243/1615 269/1616 243/1617
f 243/1618 269/1619 270/1620
f 243/1621 270/1622 243/1623
f 243/1624 270/1625 271/1626
f 243/1627 271/1628 243/1629
f 243/1630 271/1631 272/1632
f 243/1633 272/1634 243/1635
f 243/1636 272/1637 273/1638
f 243/1639 273/1640 243/1641
f 243/1642 273/1643 274/1644
f 243/1645 274/1646 243/1647
f 243/1648 274/1649 275/1650
f 243/1651 275/1652 243/1653
f 243/1654 275/1655 276/1656
f 243/1657 276/1658 243/1659
f 243/1660 276/1661 277/1662
f 243/1663 277/1664 243/1665
f 243/1666 277/1667 278/1668
f 243/1669 278/1670 243/1671
f 243/1672 278/1673 279/1674
f 243/1675 279/1676 243/1677
f 243/1678 279/1679 280/1680
f 243/1681 280/1682 243/1683
f 243/1684 280/1685 281/1686
f 243/1687 281/1688 241/1689
f 239/1690 249/1691 240/1692
f 240/1693 249/1694 248/1695
f 249/1696 239/1697 250/1698
f 250/1699 239/1700 238/1701
f 250/1702 238/1703 251/1704
f 251/1705 238/1706 237/1707
f 251/1708 237/1709 252/1710
f 252/1711 237/1712 236/1713
f 252/1714 236/1715 253/1716
f 253/1717 236/1718 235/1719
f 253/1720 235/1721 254/1722
f 254/1723 235/1724 234/1725
f 254/1726 234/1727 255/1728
f 255/1729 234/1730 233/1731
f 255/1732 233/1733 256/1734
f 256/1735 233/1736 232/1737
f 256/1738 232/1739 257/1740
f 257/1741 232/1742 231/1743
f 257/1744 231/1745 258/1746
f 258/1747 231/1748 230/1749
f 258/1750 230/1751 259/1752
f 259/1753 230/1754 229/1755
f 259/1756 229/1757 260/1758
f 260/1759 229/1760 228/1761
f 260/1762 228/1763 261/1764
f 261/1765 228/1766 227/1767
f 261/1768 227/1769 262/1770
f 262/1771 227/1772 226/1773
f 262/1774 226/1775 263/1776
f 263/1777 226/1778 225/1779
f 263/1780 225/1781 264/1782
f 264/1783 225/1784 224/1785
f 264/1786 224/1787 265/1788
f 265/1789 224/1790 223/1791
f 265/1792 223/1793 266/1794
f 266/1795 223/1796 222/1797
f 266/1798 222/1799 267/1800
f 267/1801 222/1802 221/1803
f 267/1804 221/1805 268/1806
f 268/1807 221/1808 220/1809
f 268/1810 220/1811 269/1812
f 269/1813 220/1814 219/1815
f 269/1816 219/1817 270/1818
f 270/1819 219/1820 218/1821
f 270/1822 218/1823 271/1824
f 271/1825 218/1826 217/1827
f 271/1828 217/1829 272/1830
f 272/1831 217/1832 216/1833
f 272/1834 216/1835 273/1836
f 273/1837 216/1838 215/1839
f 273/1840 215/1841 274/1842
f 274/1843 215/1844 214/1845
f 274/1846 214/1847 275/1848
f 275/1849 214/1850 213/1851
f 275/1852 213/1853 276/1854
f 276/1855 213/1856 212/1857
f 276/1858 212/1859 277/1860
f 277/1861 212/1862 211/1863
f 277/1864 211/1865 278/1866
f 278/1867 211/1868 210/1869
f 278/1870 210/1871 279/1872
f 279/1873 210/1874 209/1875
f 279/1876 209/1877 280/1878
f 280/1879 209/1880 208/1881
f 280/1882 208/1883 281/1884
f 281/1885 208/1886 207/1887
f 281/1888 207/1889 241/1890
f 241/1891 207/1892 206/1893
f 241/1894 206/1895 242/1896
f 242/1897 206/1898 205/1899
f 242/1900 205/1901 244/1902
f 244/1903 205/1904 204/1905
f 244/1906 204/1907 245/1908
f 245/1909 204/1910 203/1911
f 245/1912 203/1913 246/1914
f 246/1915 203/1916 201/1917
f 246/1918 201/1919 247/1920
f 247/1921 201/1922 200/1923
f 247/1924 200/1925 248/1926
f 248/1927 200/1928 240/1929
