# Exported from USD for MuJoCo with source material subsets
v -14.2893553 3.5323612 1.06223589
v -14.2196973 3.92019671 1.06223589
v -14.2893555 3.5323612 1.34214933
v -14.2196974 3.92019671 1.34214933
v -15.0272076 2.28228276 0.968695218
v -15.0272077 2.20528262 0.968695218
v -14.9850751 2.28228229 0.933341915
v -14.9850752 2.20528238 0.933341915
vt 0.421434999 0.96566999
vt 0.774012983 0.96566999
vt 0.421434999 1.220137
vt 0.421434999 1.220137
vt 0.774012983 0.96566999
vt 0.774012983 1.220137
vt 0.714999974 0.540427029
vt 0.785000026 0.540427029
vt 0.714999974 0.578728974
vt 0.714999974 0.578728974
vt 0.785000026 0.540427029
vt 0.785000026 0.578728974
f 1/1 2/2 3/3
f 3/4 2/5 4/6
f 5/7 6/8 7/9
f 7/10 6/11 8/12
