# Exported from USD for MuJoCo with source material subsets
v -15.4449921 1.55339711 1.13043107
v -15.4402459 1.55628174 1.13050944
v -15.7527244 1.52846521 1.12534624
v -15.7527243 1.93845671 1.12534624
v -15.3078061 1.55531185 1.13269767
v -14.9923533 1.93845647 1.13790996
v -15.3023072 1.55531066 1.1327885
v -14.9923534 1.52846497 1.13790996
v -15.2995586 1.55054801 1.13283391
v -15.3023096 1.54578417 1.1327885
v -15.3078085 1.5457856 1.13269767
v -15.440248 1.54528349 1.13050932
v -15.4354078 1.5480048 1.13058928
v -15.3105571 1.55054801 1.13265227
v -15.4354062 1.55355781 1.13058928
v -15.4449921 1.54816836 1.13043107
vt 0.0266430005 0.163743004
vt 0.0223280005 0.161120996
vt 0.306398988 0.186408997
vt -1.01986003 0.186408997
vt -1.02455401 0.161120996
vt -1.02455401 0.161120996
vt 0.306398988 0.186408997
vt 0.0223280005 0.161120996
vt 0.306398988 -0.186311007
vt 0.306398988 -0.186311007
vt 0.0223280005 0.161120996
vt -0.0980719998 0.162002996
vt 0.306398988 -0.186311007
vt -0.0980719998 0.162002996
vt -0.384846985 -0.186311007
vt -0.384846985 -0.186311007
vt -0.0980719998 0.162002996
vt -0.103070997 0.162003994
vt -0.384846985 -0.186311007
vt -0.103070997 0.162003994
vt -0.384846985 0.186408997
vt -0.384846985 0.186408997
vt -0.103070997 0.162003994
vt -0.105570003 0.166333005
vt -1.03128195 0.186408997
vt -1.026667 0.166333005
vt -1.03128195 0.186408997
vt -0.384846985 0.186408997
vt -0.105570003 0.166333005
vt -0.103069 0.170663998
vt -1.03128195 0.186408997
vt -1.02662599 0.170663998
vt -1.03128195 0.186408997
vt -0.384846985 0.186408997
vt -0.103069 0.170663998
vt -0.0980700031 0.170662999
vt -0.384846985 0.186408997
vt -0.0980700031 0.170662999
vt 0.0223299991 0.171119004
vt -1.02455401 0.171119004
vt -1.02654302 0.170662999
vt -1.02654302 0.170662999
vt 0.0223299991 0.171119004
vt -0.0980700031 0.170662999
vt 0.0179299992 0.168645993
vt 0.0179299992 0.168645993
vt -0.0980700031 0.170662999
vt -0.0955709964 0.166333005
vt 0.0179299992 0.168645993
vt -0.0955709964 0.166333005
vt 0.0179280005 0.163597003
vt 0.0179280005 0.163597003
vt -0.0955709964 0.166333005
vt -0.0980719998 0.162002996
vt 0.0179280005 0.163597003
vt -0.0980719998 0.162002996
vt 0.0223280005 0.161120996
vt -0.384846985 0.186408997
vt 0.0223299991 0.171119004
vt 0.306398988 0.186408997
vt 0.306398988 0.186408997
vt 0.0223299991 0.171119004
vt 0.0266430005 0.168496996
vt 0.306398988 0.186408997
vt 0.0266430005 0.168496996
vt 0.0266430005 0.163743004
f 1/1 2/2 3/3
f 3/4 2/5 2/6
f 3/7 2/8 4/9
f 4/10 2/11 5/12
f 4/13 5/14 6/15
f 6/16 5/17 7/18
f 6/19 7/20 8/21
f 8/22 7/23 9/24
f 8/25 9/26 8/27
f 8/28 9/29 10/30
f 8/31 10/32 8/33
f 8/34 10/35 11/36
f 8/37 11/38 12/39
f 12/40 11/41 11/42
f 12/43 11/44 13/45
f 13/46 11/47 14/48
f 13/49 14/50 15/51
f 15/52 14/53 5/54
f 15/55 5/56 2/57
f 8/58 12/59 3/60
f 3/61 12/62 16/63
f 3/64 16/65 1/66
