# Exported from USD for MuJoCo with source material subsets
v 10.0956263 3.5019113 0.780000222
v 10.1256263 3.50168337 0.782605004
v 10.1256263 3.5019113 0.780000222
v 10.0956263 3.50168337 0.777395558
v 10.0956263 3.50168337 0.782605004
v 10.0956263 3.49990143 0.787500274
v 10.1256263 3.49990143 0.787500274
v 10.0956263 3.4965526 0.791490984
v 10.1256263 3.4965526 0.791490984
v 10.0956263 3.49204172 0.794095707
v 10.1256263 3.49204172 0.794095707
v 10.0956263 3.48691143 0.795000327
v 10.1256263 3.48691143 0.795000327
v 10.0956263 3.48178066 0.794095707
v 10.1256263 3.48178066 0.794095707
v 10.0956263 3.47726931 0.791490984
v 10.1256263 3.47726931 0.791490984
v 10.0956263 3.47392096 0.787500274
v 10.1256263 3.47392096 0.787500274
v 10.0956263 3.47213902 0.782605004
v 10.1256263 3.47213902 0.782605004
v 10.0956263 3.47213902 0.777395558
v 10.1256263 3.47213902 0.777395558
v 10.0956263 3.47392096 0.772500229
v 10.1256263 3.47392096 0.772500229
v 10.0956263 3.47726931 0.768509638
v 10.1256263 3.47726931 0.768509638
v 10.0956263 3.48178066 0.765904915
v 10.1256263 3.48178066 0.765904915
v 10.0956263 3.48691143 0.765000296
v 10.1256263 3.48691143 0.765000296
v 10.0956263 3.49204172 0.765904915
v 10.1256263 3.49204172 0.765904915
v 10.0956263 3.4965526 0.768509638
v 10.1256263 3.4965526 0.768509638
v 10.0956263 3.49990143 0.772500229
v 10.1256263 3.49990143 0.772500229
v 10.1256263 3.50168337 0.777395558
v 10.1256263 3.49922098 0.782170904
v 10.1256263 3.49922098 0.777829719
v 10.1256263 3.48691143 0.792500329
v 10.1256263 3.49118628 0.79174639
v 10.1256263 3.49494566 0.789575887
v 10.1256263 3.49773611 0.786250305
v 10.1256263 3.49773611 0.773750317
v 10.1256263 3.49494566 0.770424736
v 10.1256263 3.49118628 0.768254173
v 10.1256263 3.48691143 0.767500293
v 10.1256263 3.48263563 0.768254173
v 10.1256263 3.47887673 0.770424736
v 10.1256263 3.4760858 0.773750317
v 10.1256263 3.4746014 0.777829719
v 10.1256263 3.4746014 0.782170904
v 10.1256263 3.4760858 0.786250305
v 10.1256263 3.47887673 0.789575887
v 10.1256263 3.48263563 0.79174639
v 10.0956261 3.78191055 0.780000222
v 10.1256261 3.7816831 0.782605004
v 10.1256261 3.78191103 0.780000222
v 10.0956261 3.7816831 0.777395558
v 10.0956261 3.7816831 0.782605004
v 10.0956261 3.77990116 0.787500274
v 10.1256261 3.77990116 0.787500274
v 10.0956261 3.77655281 0.791490984
v 10.1256261 3.77655281 0.791490984
v 10.0956261 3.77204098 0.794095707
v 10.1256261 3.77204098 0.794095707
v 10.0956261 3.76691116 0.795000327
v 10.1256261 3.76691116 0.795000327
v 10.0956261 3.76178087 0.794095707
v 10.1256261 3.76178087 0.794095707
v 10.0956261 3.75726904 0.791490984
v 10.1256261 3.75726904 0.791490984
v 10.0956261 3.75392021 0.787500274
v 10.1256261 3.75392021 0.787500274
v 10.0956261 3.75213875 0.782605004
v 10.1256261 3.75213875 0.782605004
v 10.0956261 3.75213875 0.777395558
v 10.1256261 3.75213875 0.777395558
v 10.0956261 3.75392021 0.772500229
v 10.1256261 3.75392021 0.772500229
v 10.0956261 3.75726904 0.768509638
v 10.1256261 3.75726904 0.768509638
v 10.0956261 3.76178087 0.765904915
v 10.1256261 3.76178087 0.765904915
v 10.0956261 3.76691116 0.765000296
v 10.1256261 3.76691116 0.765000296
v 10.0956261 3.77204098 0.765904915
v 10.1256261 3.77204098 0.765904915
v 10.0956261 3.77655281 0.768509638
v 10.1256261 3.77655281 0.768509638
v 10.0956261 3.77990116 0.772500229
v 10.1256261 3.77990116 0.772500229
v 10.1256261 3.7816831 0.777395558
v 10.1256261 3.77922119 0.782170904
v 10.1256261 3.77922119 0.777829719
v 10.1256261 3.77773632 0.773750317
v 10.1256261 3.77494587 0.770424736
v 10.1256261 3.77118601 0.768254173
v 10.1256261 3.76691116 0.767500293
v 10.1256261 3.76263584 0.768254173
v 10.1256261 3.75887598 0.770424736
v 10.1256261 3.75608553 0.773750317
v 10.1256261 3.75460066 0.777829719
v 10.1256261 3.75460066 0.782170904
v 10.1256261 3.75608553 0.786250305
v 10.1256261 3.75887598 0.789575887
v 10.1256261 3.76263584 0.79174639
v 10.1256261 3.76691116 0.792500329
v 10.1256261 3.77118601 0.79174639
v 10.1256261 3.77494587 0.789575887
v 10.1256261 3.77773632 0.786250305
v 10.095626 3.82191052 0.780000222
v 10.125626 3.82168306 0.782605004
v 10.125626 3.82191052 0.780000222
v 10.095626 3.82168306 0.777395558
v 10.095626 3.82168306 0.782605004
v 10.095626 3.81990112 0.787500274
v 10.125626 3.81990112 0.787500274
v 10.095626 3.81655277 0.791490984
v 10.125626 3.81655277 0.791490984
v 10.095626 3.81204142 0.794095707
v 10.125626 3.81204142 0.794095707
v 10.0956261 3.80691065 0.795000327
v 10.1256261 3.80691065 0.795000327
v 10.0956261 3.80178083 0.794095707
v 10.1256261 3.80178083 0.794095707
v 10.0956261 3.797269 0.791490984
v 10.1256261 3.797269 0.791490984
v 10.0956261 3.79392017 0.787500274
v 10.1256261 3.79392017 0.787500274
v 10.0956261 3.79213871 0.782605004
v 10.1256261 3.79213871 0.782605004
v 10.0956261 3.79213871 0.777395558
v 10.1256261 3.79213871 0.777395558
v 10.0956261 3.79392017 0.772500229
v 10.1256261 3.79392017 0.772500229
v 10.0956261 3.797269 0.768509638
v 10.1256261 3.797269 0.768509638
v 10.0956261 3.80178083 0.765904915
v 10.1256261 3.80178083 0.765904915
v 10.0956261 3.80691065 0.765000296
v 10.1256261 3.80691065 0.765000296
v 10.095626 3.81204142 0.765904915
v 10.125626 3.81204142 0.765904915
v 10.095626 3.81655277 0.768509638
v 10.125626 3.81655277 0.768509638
v 10.095626 3.81990112 0.772500229
v 10.125626 3.81990112 0.772500229
v 10.125626 3.82168306 0.777395558
v 10.125626 3.81922115 0.782170904
v 10.125626 3.81922115 0.777829719
v 10.125626 3.81773628 0.786250305
v 10.125626 3.81494583 0.789575887
v 10.125626 3.81118597 0.79174639
v 10.1256261 3.80691065 0.792500329
v 10.1256261 3.8026358 0.79174639
v 10.1256261 3.79887642 0.789575887
v 10.1256261 3.79608549 0.786250305
v 10.1256261 3.7946011 0.782170904
v 10.1256261 3.7946011 0.777829719
v 10.1256261 3.79608549 0.773750317
v 10.1256261 3.79887642 0.770424736
v 10.1256261 3.8026358 0.768254173
v 10.1256261 3.80691065 0.767500293
v 10.125626 3.81118597 0.768254173
v 10.125626 3.81494583 0.770424736
v 10.125626 3.81773628 0.773750317
v 10.0956262 3.64194502 0.780000222
v 10.1256262 3.64194502 0.780000222
v 10.0956262 3.64171709 0.777395558
v 10.1256262 3.64171709 0.782605004
v 10.0956262 3.64171709 0.782605004
v 10.0956262 3.63993563 0.787500274
v 10.1256262 3.63993563 0.787500274
v 10.0956262 3.6365868 0.791490984
v 10.1256262 3.6365868 0.791490984
v 10.0956262 3.63207592 0.794095707
v 10.1256262 3.63207592 0.794095707
v 10.0956262 3.62694515 0.795000327
v 10.1256262 3.62694515 0.795000327
v 10.0956262 3.62181486 0.794095707
v 10.1256262 3.62181486 0.794095707
v 10.0956262 3.61730303 0.791490984
v 10.1256262 3.61730303 0.791490984
v 10.0956262 3.61395516 0.787500274
v 10.1256262 3.61395516 0.787500274
v 10.0956262 3.61217321 0.782605004
v 10.1256262 3.61217321 0.782605004
v 10.0956262 3.61217321 0.777395558
v 10.1256262 3.61217321 0.777395558
v 10.0956262 3.61395516 0.772500229
v 10.1256262 3.61395516 0.772500229
v 10.0956262 3.61730303 0.768509638
v 10.1256262 3.61730303 0.768509638
v 10.0956262 3.62181486 0.765904915
v 10.1256262 3.62181486 0.765904915
v 10.0956262 3.62694515 0.765000296
v 10.1256262 3.62694515 0.765000296
v 10.0956262 3.63207592 0.765904915
v 10.1256262 3.63207592 0.765904915
v 10.0956262 3.6365868 0.768509638
v 10.1256262 3.6365868 0.768509638
v 10.0956262 3.63993563 0.772500229
v 10.1256262 3.63993563 0.772500229
v 10.1256262 3.64171709 0.777395558
v 10.1256262 3.63925518 0.782170904
v 10.1256262 3.63925518 0.777829719
v 10.1256262 3.62694515 0.792500329
v 10.1256262 3.62266983 0.79174639
v 10.1256262 3.61891045 0.789575887
v 10.1256262 3.61612 0.786250305
v 10.1256262 3.61463512 0.782170904
v 10.1256262 3.61463512 0.777829719
v 10.1256262 3.61612 0.773750317
v 10.1256262 3.61891045 0.770424736
v 10.1256262 3.62266983 0.768254173
v 10.1256262 3.62694515 0.767500293
v 10.1256262 3.63122048 0.768254173
v 10.1256262 3.63498034 0.770424736
v 10.1256262 3.63777031 0.773750317
v 10.1256262 3.63777031 0.786250305
v 10.1256262 3.63498034 0.789575887
v 10.1256262 3.63122048 0.79174639
v 10.0956264 3.46191134 0.780000222
v 10.1256264 3.46191134 0.780000222
v 10.0956264 3.46168341 0.777395558
v 10.1256264 3.46168341 0.782605004
v 10.0956264 3.46168341 0.782605004
v 10.0956264 3.45990194 0.787500274
v 10.1256264 3.45990194 0.787500274
v 10.0956264 3.45655264 0.791490984
v 10.1256264 3.45655264 0.791490984
v 10.0956264 3.45204128 0.794095707
v 10.1256264 3.45204128 0.794095707
v 10.0956264 3.44691099 0.795000327
v 10.1256264 3.44691099 0.795000327
v 10.0956264 3.4417807 0.794095707
v 10.1256264 3.4417807 0.794095707
v 10.0956264 3.43726935 0.791490984
v 10.1256264 3.43726935 0.791490984
v 10.0956264 3.43392099 0.787500274
v 10.1256264 3.43392099 0.787500274
v 10.0956264 3.43213905 0.782605004
v 10.1256264 3.43213905 0.782605004
v 10.0956264 3.43213905 0.777395558
v 10.1256264 3.43213905 0.777395558
v 10.0956264 3.43392099 0.772500229
v 10.1256264 3.43392099 0.772500229
v 10.0956264 3.43726935 0.768509638
v 10.1256264 3.43726935 0.768509638
v 10.0956264 3.4417807 0.765904915
v 10.1256264 3.4417807 0.765904915
v 10.0956264 3.44691099 0.765000296
v 10.1256264 3.44691099 0.765000296
v 10.0956264 3.45204128 0.765904915
v 10.1256264 3.45204128 0.765904915
v 10.0956264 3.45655264 0.768509638
v 10.1256264 3.45655264 0.768509638
v 10.0956264 3.45990194 0.772500229
v 10.1256264 3.45990194 0.772500229
v 10.1256264 3.46168341 0.777395558
v 10.1256264 3.45922102 0.782170904
v 10.1256264 3.45922102 0.777829719
v 10.1256264 3.44691099 0.792500329
v 10.1256264 3.44263567 0.79174639
v 10.1256264 3.43887629 0.789575887
v 10.1256264 3.43608584 0.786250305
v 10.1256264 3.43460096 0.782170904
v 10.1256264 3.43460096 0.777829719
v 10.1256264 3.43608584 0.773750317
v 10.1256264 3.43887629 0.770424736
v 10.1256264 3.44263567 0.768254173
v 10.1256264 3.44691099 0.767500293
v 10.1256264 3.45118631 0.768254173
v 10.1256264 3.4549457 0.770424736
v 10.1256264 3.45773615 0.773750317
v 10.1256264 3.45773615 0.786250305
v 10.1256264 3.4549457 0.789575887
v 10.1256264 3.45118631 0.79174639
vt -0.582502007 0.779999971
vt -0.612501979 0.782604992
vt -0.612501979 0.779999971
vt -0.582502007 0.779999971
vt -0.612501979 0.779999971
vt -0.582502007 0.77739501
vt -0.582502007 0.779999971
vt -0.582502007 0.782604992
vt -0.612501979 0.782604992
vt -0.612501979 0.782604992
vt -0.582502007 0.782604992
vt -0.582502007 0.787500024
vt -0.612501979 0.782604992
vt -0.582502007 0.787500024
vt -0.612501979 0.787500024
vt -0.612501979 0.787500024
vt -0.582502007 0.787500024
vt -0.582502007 0.791490972
vt -0.612501979 0.787500024
vt -0.582502007 0.791490972
vt -0.612501979 0.791490972
vt -0.612501979 -0.137143001
vt -0.582502007 -0.137143001
vt -0.582502007 -0.132631004
vt -0.612501979 -0.137143001
vt -0.582502007 -0.132631004
vt -0.612501979 -0.132631004
vt -0.612501979 -0.132631004
vt -0.582502007 -0.132631004
vt -0.582502007 -0.127500996
vt -0.612501979 -0.132631004
vt -0.582502007 -0.127500996
vt -0.612501979 -0.127500996
vt -0.612501979 -0.127500996
vt -0.582502007 -0.127500996
vt -0.582502007 -0.122371003
vt -0.612501979 -0.127500996
vt -0.582502007 -0.122371003
vt -0.612501979 -0.122371003
vt -0.612501979 -0.122371003
vt -0.582502007 -0.122371003
vt -0.582502007 -0.117858998
vt -0.612501979 -0.122371003
vt -0.582502007 -0.117858998
vt -0.612501979 -0.117858998
vt 0.612501979 0.791490972
vt 0.582502007 0.791490972
vt 0.582502007 0.787500024
vt 0.612501979 0.791490972
vt 0.582502007 0.787500024
vt 0.612501979 0.787500024
vt 0.612501979 0.787500024
vt 0.582502007 0.787500024
vt 0.582502007 0.782604992
vt 0.612501979 0.787500024
vt 0.582502007 0.782604992
vt 0.612501979 0.782604992
vt 0.612501979 0.782604992
vt 0.582502007 0.782604992
vt 0.582502007 0.77739501
vt 0.612501979 0.782604992
vt 0.582502007 0.77739501
vt 0.612501979 0.77739501
vt 0.612501979 0.77739501
vt 0.582502007 0.77739501
vt 0.582502007 0.772499979
vt 0.612501979 0.77739501
vt 0.582502007 0.772499979
vt 0.612501979 0.772499979
vt 0.612501979 0.772499979
vt 0.582502007 0.772499979
vt 0.582502007 0.768508971
vt 0.612501979 0.772499979
vt 0.582502007 0.768508971
vt 0.612501979 0.768508971
vt 0.612501979 -0.117858998
vt 0.582502007 -0.117858998
vt 0.582502007 -0.122371003
vt 0.612501979 -0.117858998
vt 0.582502007 -0.122371003
vt 0.612501979 -0.122371003
vt 0.612501979 -0.122371003
vt 0.582502007 -0.122371003
vt 0.582502007 -0.127500996
vt 0.612501979 -0.122371003
vt 0.582502007 -0.127500996
vt 0.612501979 -0.127500996
vt 0.612501979 -0.127500996
vt 0.582502007 -0.127500996
vt 0.582502007 -0.132631004
vt 0.612501979 -0.127500996
vt 0.582502007 -0.132631004
vt 0.612501979 -0.132631004
vt 0.612501979 -0.132631004
vt 0.582502007 -0.132631004
vt 0.582502007 -0.137143001
vt 0.612501979 -0.132631004
vt 0.582502007 -0.137143001
vt 0.612501979 -0.137143001
vt -0.612501979 0.768508971
vt -0.582502007 0.768508971
vt -0.582502007 0.772499979
vt -0.612501979 0.768508971
vt -0.582502007 0.772499979
vt -0.612501979 0.772499979
vt -0.612501979 0.772499979
vt -0.582502007 0.772499979
vt -0.582502007 0.77739501
vt -0.612501979 0.772499979
vt -0.582502007 0.77739501
vt -0.612501979 0.77739501
vt -0.612501979 0.77739501
vt -0.582502007 0.77739501
vt -0.612501979 0.779999971
vt 0.782171011 -0.139810994
vt 0.777828991 -0.139810994
vt 0.779999971 -0.142500997
vt 0.792500019 -0.127500996
vt 0.79174602 -0.131776005
vt 0.79409498 -0.132631004
vt -0.79409498 -0.132631004
vt -0.79174602 -0.131776005
vt -0.79174602 -0.131776005
vt 0.79409498 -0.132631004
vt 0.79174602 -0.131776005
vt 0.791490972 -0.137143001
vt 0.791490972 -0.137143001
vt 0.79174602 -0.131776005
vt 0.789575994 -0.135536
vt -0.791490972 -0.137143001
vt -0.789575994 -0.135536
vt -0.791490972 -0.137143001
vt 0.791490972 -0.137143001
vt 0.789575994 -0.135536
vt 0.786249995 -0.138326004
vt 0.791490972 -0.137143001
vt 0.786249995 -0.138326004
vt 0.787500024 -0.140490994
vt 0.787500024 -0.140490994
vt 0.786249995 -0.138326004
vt 0.782171011 -0.139810994
vt 0.787500024 -0.140490994
vt 0.782171011 -0.139810994
vt 0.782604992 -0.142272994
vt 0.782604992 -0.142272994
vt 0.782171011 -0.139810994
vt 0.779999971 -0.142500997
vt 0.79409498 -0.122371003
vt 0.792500019 -0.127500996
vt 0.795000017 -0.127500996
vt 0.795000017 -0.127500996
vt 0.792500019 -0.127500996
vt 0.79409498 -0.132631004
vt 0.779999971 -0.142500997
vt 0.777828991 -0.139810994
vt 0.77739501 -0.142272994
vt -0.77739501 -0.142272994
vt -0.777828991 -0.139810994
vt -0.777828991 -0.139810994
vt 0.77739501 -0.142272994
vt 0.777828991 -0.139810994
vt 0.772499979 -0.140490994
vt 0.772499979 -0.140490994
vt 0.777828991 -0.139810994
vt 0.773750007 -0.138326004
vt 0.772499979 -0.140490994
vt 0.773750007 -0.138326004
vt 0.768508971 -0.137143001
vt 0.768508971 -0.137143001
vt 0.773750007 -0.138326004
vt 0.770424008 -0.135536
vt -0.768508971 -0.137143001
vt -0.770424008 -0.135536
vt -0.768508971 -0.137143001
vt 0.768508971 -0.137143001
vt 0.770424008 -0.135536
vt 0.768253982 -0.131776005
vt 0.768508971 -0.137143001
vt 0.768253982 -0.131776005
vt 0.765905023 -0.132631004
vt 0.765905023 -0.132631004
vt 0.768253982 -0.131776005
vt 0.767499983 -0.127500996
vt 0.765905023 -0.132631004
vt 0.767499983 -0.127500996
vt 0.764999986 -0.127500996
vt -0.764999986 -0.127500996
vt -0.767499983 -0.127500996
vt -0.767499983 -0.127500996
vt 0.764999986 -0.127500996
vt 0.767499983 -0.127500996
vt 0.765905023 -0.122371003
vt 0.765905023 -0.122371003
vt 0.767499983 -0.127500996
vt 0.768253982 -0.123226002
vt 0.765905023 -0.122371003
vt 0.768253982 -0.123226002
vt 0.768508971 -0.117858998
vt 0.768508971 -0.117858998
vt 0.768253982 -0.123226002
vt 0.770424008 -0.119465999
vt -0.768508971 -0.117858998
vt -0.770424008 -0.119465999
vt -0.768508971 -0.117858998
vt 0.768508971 -0.117858998
vt 0.770424008 -0.119465999
vt 0.773750007 -0.116676003
vt 0.768508971 -0.117858998
vt 0.773750007 -0.116676003
vt 0.772499979 -0.114510998
vt 0.772499979 -0.114510998
vt 0.773750007 -0.116676003
vt 0.777828991 -0.115190998
vt 0.772499979 -0.114510998
vt 0.777828991 -0.115190998
vt 0.77739501 -0.112728998
vt -0.77739501 -0.112728998
vt -0.777828991 -0.115190998
vt -0.777828991 -0.115190998
vt 0.77739501 -0.112728998
vt 0.777828991 -0.115190998
vt 0.782604992 -0.112728998
vt 0.782604992 -0.112728998
vt 0.777828991 -0.115190998
vt 0.782171011 -0.115190998
vt 0.782604992 -0.112728998
vt 0.782171011 -0.115190998
vt 0.787500024 -0.114510998
vt 0.787500024 -0.114510998
vt 0.782171011 -0.115190998
vt 0.786249995 -0.116676003
vt 0.787500024 -0.114510998
vt 0.786249995 -0.116676003
vt 0.791490972 -0.117858998
vt 0.791490972 -0.117858998
vt 0.786249995 -0.116676003
vt 0.789575994 -0.119465999
vt -0.791490972 -0.117858998
vt -0.789575994 -0.119465999
vt -0.791490972 -0.117858998
vt 0.791490972 -0.117858998
vt 0.789575994 -0.119465999
vt 0.79174602 -0.123226002
vt 0.791490972 -0.117858998
vt 0.79174602 -0.123226002
vt 0.79409498 -0.122371003
vt 0.79409498 -0.122371003
vt 0.79174602 -0.123226002
vt 0.792500019 -0.127500996
vt -0.582502007 0.779999971
vt -0.612501979 0.782604992
vt -0.612501979 0.779999971
vt -0.582502007 0.779999971
vt -0.612501979 0.779999971
vt -0.582502007 0.77739501
vt -0.582502007 0.779999971
vt -0.582502007 0.782604992
vt -0.612501979 0.782604992
vt -0.612501979 0.782604992
vt -0.582502007 0.782604992
vt -0.582502007 0.787500024
vt -0.612501979 0.782604992
vt -0.582502007 0.787500024
vt -0.612501979 0.787500024
vt -0.612501979 0.787500024
vt -0.582502007 0.787500024
vt -0.582502007 0.791490972
vt -0.612501979 0.787500024
vt -0.582502007 0.791490972
vt -0.612501979 0.791490972
vt -0.612501979 -0.417142987
vt -0.582502007 -0.417142987
vt -0.582502007 -0.412631005
vt -0.612501979 -0.417142987
vt -0.582502007 -0.412631005
vt -0.612501979 -0.412631005
vt -0.612501979 -0.412631005
vt -0.582502007 -0.412631005
vt -0.582502007 -0.407501012
vt -0.612501979 -0.412631005
vt -0.582502007 -0.407501012
vt -0.612501979 -0.407501012
vt -0.612501979 -0.407501012
vt -0.582502007 -0.407501012
vt -0.582502007 -0.402370989
vt -0.612501979 -0.407501012
vt -0.582502007 -0.402370989
vt -0.612501979 -0.402370989
vt -0.612501979 -0.402370989
vt -0.582502007 -0.402370989
vt -0.582502007 -0.397859007
vt -0.612501979 -0.402370989
vt -0.582502007 -0.397859007
vt -0.612501979 -0.397859007
vt 0.612501979 0.791490972
vt 0.582502007 0.791490972
vt 0.582502007 0.787500024
vt 0.612501979 0.791490972
vt 0.582502007 0.787500024
vt 0.612501979 0.787500024
vt 0.612501979 0.787500024
vt 0.582502007 0.787500024
vt 0.582502007 0.782604992
vt 0.612501979 0.787500024
vt 0.582502007 0.782604992
vt 0.612501979 0.782604992
vt 0.612501979 0.782604992
vt 0.582502007 0.782604992
vt 0.582502007 0.77739501
vt 0.612501979 0.782604992
vt 0.582502007 0.77739501
vt 0.612501979 0.77739501
vt 0.612501979 0.77739501
vt 0.582502007 0.77739501
vt 0.582502007 0.772499979
vt 0.612501979 0.77739501
vt 0.582502007 0.772499979
vt 0.612501979 0.772499979
vt 0.612501979 0.772499979
vt 0.582502007 0.772499979
vt 0.582502007 0.768508971
vt 0.612501979 0.772499979
vt 0.582502007 0.768508971
vt 0.612501979 0.768508971
vt 0.612501979 -0.397859007
vt 0.582502007 -0.397859007
vt 0.582502007 -0.402370989
vt 0.612501979 -0.397859007
vt 0.582502007 -0.402370989
vt 0.612501979 -0.402370989
vt 0.612501979 -0.402370989
vt 0.582502007 -0.402370989
vt 0.582502007 -0.407501012
vt 0.612501979 -0.402370989
vt 0.582502007 -0.407501012
vt 0.612501979 -0.407501012
vt 0.612501979 -0.407501012
vt 0.582502007 -0.407501012
vt 0.582502007 -0.412631005
vt 0.612501979 -0.407501012
vt 0.582502007 -0.412631005
vt 0.612501979 -0.412631005
vt 0.612501979 -0.412631005
vt 0.582502007 -0.412631005
vt 0.582502007 -0.417142987
vt 0.612501979 -0.412631005
vt 0.582502007 -0.417142987
vt 0.612501979 -0.417142987
vt -0.612501979 0.768508971
vt -0.582502007 0.768508971
vt -0.582502007 0.772499979
vt -0.612501979 0.768508971
vt -0.582502007 0.772499979
vt -0.612501979 0.772499979
vt -0.612501979 0.772499979
vt -0.582502007 0.772499979
vt -0.582502007 0.77739501
vt -0.612501979 0.772499979
vt -0.582502007 0.77739501
vt -0.612501979 0.77739501
vt -0.612501979 0.77739501
vt -0.582502007 0.77739501
vt -0.612501979 0.779999971
vt 0.782171011 -0.41981101
vt 0.777828991 -0.41981101
vt 0.779999971 -0.422500998
vt 0.779999971 -0.422500998
vt 0.777828991 -0.41981101
vt 0.77739501 -0.42227301
vt -0.77739501 -0.42227301
vt -0.777828991 -0.41981101
vt -0.777828991 -0.41981101
vt 0.77739501 -0.42227301
vt 0.777828991 -0.41981101
vt 0.772499979 -0.42049101
vt 0.772499979 -0.42049101
vt 0.777828991 -0.41981101
vt 0.773750007 -0.41832599
vt 0.772499979 -0.42049101
vt 0.773750007 -0.41832599
vt 0.768508971 -0.417142987
vt 0.768508971 -0.417142987
vt 0.773750007 -0.41832599
vt 0.770424008 -0.415535986
vt -0.768508971 -0.417142987
vt -0.770424008 -0.415535986
vt -0.768508971 -0.417142987
vt 0.768508971 -0.417142987
vt 0.770424008 -0.415535986
vt 0.768253982 -0.411776006
vt 0.768508971 -0.417142987
vt 0.768253982 -0.411776006
vt 0.765905023 -0.412631005
vt 0.765905023 -0.412631005
vt 0.768253982 -0.411776006
vt 0.767499983 -0.407501012
vt 0.765905023 -0.412631005
vt 0.767499983 -0.407501012
vt 0.764999986 -0.407501012
vt -0.764999986 -0.407501012
vt -0.767499983 -0.407501012
vt -0.767499983 -0.407501012
vt 0.764999986 -0.407501012
vt 0.767499983 -0.407501012
vt 0.765905023 -0.402370989
vt 0.765905023 -0.402370989
vt 0.767499983 -0.407501012
vt 0.768253982 -0.403225988
vt 0.765905023 -0.402370989
vt 0.768253982 -0.403225988
vt 0.768508971 -0.397859007
vt 0.768508971 -0.397859007
vt 0.768253982 -0.403225988
vt 0.770424008 -0.399466008
vt -0.768508971 -0.397859007
vt -0.770424008 -0.399466008
vt -0.768508971 -0.397859007
vt 0.768508971 -0.397859007
vt 0.770424008 -0.399466008
vt 0.773750007 -0.396676004
vt 0.768508971 -0.397859007
vt 0.773750007 -0.396676004
vt 0.772499979 -0.394511014
vt 0.772499979 -0.394511014
vt 0.773750007 -0.396676004
vt 0.777828991 -0.395191014
vt 0.772499979 -0.394511014
vt 0.777828991 -0.395191014
vt 0.77739501 -0.392729014
vt -0.77739501 -0.392729014
vt -0.777828991 -0.395191014
vt -0.777828991 -0.395191014
vt 0.77739501 -0.392729014
vt 0.777828991 -0.395191014
vt 0.782604992 -0.392729014
vt 0.782604992 -0.392729014
vt 0.777828991 -0.395191014
vt 0.782171011 -0.395191014
vt 0.782604992 -0.392729014
vt 0.782171011 -0.395191014
vt 0.787500024 -0.394511014
vt 0.787500024 -0.394511014
vt 0.782171011 -0.395191014
vt 0.786249995 -0.396676004
vt 0.787500024 -0.394511014
vt 0.786249995 -0.396676004
vt 0.791490972 -0.397859007
vt 0.791490972 -0.397859007
vt 0.786249995 -0.396676004
vt 0.789575994 -0.399466008
vt -0.791490972 -0.397859007
vt -0.789575994 -0.399466008
vt -0.791490972 -0.397859007
vt 0.791490972 -0.397859007
vt 0.789575994 -0.399466008
vt 0.79174602 -0.403225988
vt 0.791490972 -0.397859007
vt 0.79174602 -0.403225988
vt 0.79409498 -0.402370989
vt 0.79409498 -0.402370989
vt 0.79174602 -0.403225988
vt 0.792500019 -0.407501012
vt 0.792500019 -0.407501012
vt 0.79174602 -0.411776006
vt 0.79409498 -0.412631005
vt -0.79409498 -0.412631005
vt -0.79174602 -0.411776006
vt -0.79174602 -0.411776006
vt 0.79409498 -0.412631005
vt 0.79174602 -0.411776006
vt 0.791490972 -0.417142987
vt 0.791490972 -0.417142987
vt 0.79174602 -0.411776006
vt 0.789575994 -0.415535986
vt -0.791490972 -0.417142987
vt -0.789575994 -0.415535986
vt -0.791490972 -0.417142987
vt 0.791490972 -0.417142987
vt 0.789575994 -0.415535986
vt 0.786249995 -0.41832599
vt 0.791490972 -0.417142987
vt 0.786249995 -0.41832599
vt 0.787500024 -0.42049101
vt 0.787500024 -0.42049101
vt 0.786249995 -0.41832599
vt 0.782171011 -0.41981101
vt 0.787500024 -0.42049101
vt 0.782171011 -0.41981101
vt 0.782604992 -0.42227301
vt 0.782604992 -0.42227301
vt 0.782171011 -0.41981101
vt 0.779999971 -0.422500998
vt 0.79409498 -0.412631005
vt 0.795000017 -0.407501012
vt 0.792500019 -0.407501012
vt 0.792500019 -0.407501012
vt 0.795000017 -0.407501012
vt 0.79409498 -0.402370989
vt -0.582502007 0.779999971
vt -0.612501979 0.782604992
vt -0.612501979 0.779999971
vt -0.582502007 0.779999971
vt -0.612501979 0.779999971
vt -0.582502007 0.77739501
vt -0.582502007 0.779999971
vt -0.582502007 0.782604992
vt -0.612501979 0.782604992
vt -0.612501979 0.782604992
vt -0.582502007 0.782604992
vt -0.582502007 0.787500024
vt -0.612501979 0.782604992
vt -0.582502007 0.787500024
vt -0.612501979 0.787500024
vt -0.612501979 0.787500024
vt -0.582502007 0.787500024
vt -0.582502007 0.791490972
vt -0.612501979 0.787500024
vt -0.582502007 0.791490972
vt -0.612501979 0.791490972
vt -0.612501979 -0.457143009
vt -0.582502007 -0.457143009
vt -0.582502007 -0.452630997
vt -0.612501979 -0.457143009
vt -0.582502007 -0.452630997
vt -0.612501979 -0.452630997
vt -0.612501979 -0.452630997
vt -0.582502007 -0.452630997
vt -0.582502007 -0.447501004
vt -0.612501979 -0.452630997
vt -0.582502007 -0.447501004
vt -0.612501979 -0.447501004
vt -0.612501979 -0.447501004
vt -0.582502007 -0.447501004
vt -0.582502007 -0.442371011
vt -0.612501979 -0.447501004
vt -0.582502007 -0.442371011
vt -0.612501979 -0.442371011
vt -0.612501979 -0.442371011
vt -0.582502007 -0.442371011
vt -0.582502007 -0.437858999
vt -0.612501979 -0.442371011
vt -0.582502007 -0.437858999
vt -0.612501979 -0.437858999
vt 0.612501979 0.791490972
vt 0.582502007 0.791490972
vt 0.582502007 0.787500024
vt 0.612501979 0.791490972
vt 0.582502007 0.787500024
vt 0.612501979 0.787500024
vt 0.612501979 0.787500024
vt 0.582502007 0.787500024
vt 0.582502007 0.782604992
vt 0.612501979 0.787500024
vt 0.582502007 0.782604992
vt 0.612501979 0.782604992
vt 0.612501979 0.782604992
vt 0.582502007 0.782604992
vt 0.582502007 0.77739501
vt 0.612501979 0.782604992
vt 0.582502007 0.77739501
vt 0.612501979 0.77739501
vt 0.612501979 0.77739501
vt 0.582502007 0.77739501
vt 0.582502007 0.772499979
vt 0.612501979 0.77739501
vt 0.582502007 0.772499979
vt 0.612501979 0.772499979
vt 0.612501979 0.772499979
vt 0.582502007 0.772499979
vt 0.582502007 0.768508971
vt 0.612501979 0.772499979
vt 0.582502007 0.768508971
vt 0.612501979 0.768508971
vt 0.612501979 -0.437858999
vt 0.582502007 -0.437858999
vt 0.582502007 -0.442371011
vt 0.612501979 -0.437858999
vt 0.582502007 -0.442371011
vt 0.612501979 -0.442371011
vt 0.612501979 -0.442371011
vt 0.582502007 -0.442371011
vt 0.582502007 -0.447501004
vt 0.612501979 -0.442371011
vt 0.582502007 -0.447501004
vt 0.612501979 -0.447501004
vt 0.612501979 -0.447501004
vt 0.582502007 -0.447501004
vt 0.582502007 -0.452630997
vt 0.612501979 -0.447501004
vt 0.582502007 -0.452630997
vt 0.612501979 -0.452630997
vt 0.612501979 -0.452630997
vt 0.582502007 -0.452630997
vt 0.582502007 -0.457143009
vt 0.612501979 -0.452630997
vt 0.582502007 -0.457143009
vt 0.612501979 -0.457143009
vt -0.612501979 0.768508971
vt -0.582502007 0.768508971
vt -0.582502007 0.772499979
vt -0.612501979 0.768508971
vt -0.582502007 0.772499979
vt -0.612501979 0.772499979
vt -0.612501979 0.772499979
vt -0.582502007 0.772499979
vt -0.582502007 0.77739501
vt -0.612501979 0.772499979
vt -0.582502007 0.77739501
vt -0.612501979 0.77739501
vt -0.612501979 0.77739501
vt -0.582502007 0.77739501
vt -0.612501979 0.779999971
vt 0.782171011 -0.459811002
vt 0.777828991 -0.459811002
vt 0.779999971 -0.462500989
vt 0.779999971 -0.462500989
vt 0.782604992 -0.462273002
vt 0.782171011 -0.459811002
vt 0.782171011 -0.459811002
vt 0.782604992 -0.462273002
vt 0.787500024 -0.460491002
vt 0.782171011 -0.459811002
vt 0.787500024 -0.460491002
vt 0.786249995 -0.458326012
vt 0.786249995 -0.458326012
vt 0.787500024 -0.460491002
vt 0.791490972 -0.457143009
vt 0.786249995 -0.458326012
vt 0.791490972 -0.457143009
vt 0.789575994 -0.455536008
vt -0.789575994 -0.455536008
vt -0.791490972 -0.457143009
vt -0.791490972 -0.457143009
vt 0.789575994 -0.455536008
vt 0.791490972 -0.457143009
vt 0.79174602 -0.451775998
vt 0.79174602 -0.451775998
vt 0.791490972 -0.457143009
vt 0.79409498 -0.452630997
vt 0.79174602 -0.451775998
vt 0.79409498 -0.452630997
vt 0.792500019 -0.447501004
vt 0.79409498 -0.442371011
vt 0.792500019 -0.447501004
vt 0.795000017 -0.447501004
vt 0.795000017 -0.447501004
vt 0.792500019 -0.447501004
vt 0.79409498 -0.452630997
vt 0.792500019 -0.447501004
vt 0.79409498 -0.442371011
vt 0.79174602 -0.44322601
vt 0.79174602 -0.44322601
vt 0.79409498 -0.442371011
vt 0.791490972 -0.437858999
vt 0.79174602 -0.44322601
vt 0.791490972 -0.437858999
vt 0.789575994 -0.439466
vt -0.789575994 -0.439466
vt -0.791490972 -0.437858999
vt -0.791490972 -0.437858999
vt 0.789575994 -0.439466
vt 0.791490972 -0.437858999
vt 0.786249995 -0.436675996
vt 0.786249995 -0.436675996
vt 0.791490972 -0.437858999
vt 0.787500024 -0.434509993
vt 0.786249995 -0.436675996
vt 0.787500024 -0.434509993
vt 0.782171011 -0.435191005
vt 0.782171011 -0.435191005
vt 0.787500024 -0.434509993
vt 0.782604992 -0.432729006
vt 0.782171011 -0.435191005
vt 0.782604992 -0.432729006
vt 0.777828991 -0.435191005
vt 0.777828991 -0.435191005
vt 0.782604992 -0.432729006
vt 0.77739501 -0.432729006
vt -0.777828991 -0.435191005
vt -0.77739501 -0.432729006
vt -0.777828991 -0.435191005
vt 0.777828991 -0.435191005
vt 0.77739501 -0.432729006
vt 0.772499979 -0.434509993
vt 0.777828991 -0.435191005
vt 0.772499979 -0.434509993
vt 0.773750007 -0.436675996
vt 0.773750007 -0.436675996
vt 0.772499979 -0.434509993
vt 0.768508971 -0.437858999
vt 0.773750007 -0.436675996
vt 0.768508971 -0.437858999
vt 0.770424008 -0.439466
vt -0.770424008 -0.439466
vt -0.768508971 -0.437858999
vt -0.768508971 -0.437858999
vt 0.770424008 -0.439466
vt 0.768508971 -0.437858999
vt 0.768253982 -0.44322601
vt 0.768253982 -0.44322601
vt 0.768508971 -0.437858999
vt 0.765905023 -0.442371011
vt 0.768253982 -0.44322601
vt 0.765905023 -0.442371011
vt 0.767499983 -0.447501004
vt 0.767499983 -0.447501004
vt 0.765905023 -0.442371011
vt 0.764999986 -0.447501004
vt -0.767499983 -0.447501004
vt -0.764999986 -0.447501004
vt -0.767499983 -0.447501004
vt 0.767499983 -0.447501004
vt 0.764999986 -0.447501004
vt 0.765905023 -0.452630997
vt 0.767499983 -0.447501004
vt 0.765905023 -0.452630997
vt 0.768253982 -0.451775998
vt 0.768253982 -0.451775998
vt 0.765905023 -0.452630997
vt 0.768508971 -0.457143009
vt 0.768253982 -0.451775998
vt 0.768508971 -0.457143009
vt 0.770424008 -0.455536008
vt -0.770424008 -0.455536008
vt -0.768508971 -0.457143009
vt -0.768508971 -0.457143009
vt 0.770424008 -0.455536008
vt 0.768508971 -0.457143009
vt 0.773750007 -0.458326012
vt 0.773750007 -0.458326012
vt 0.768508971 -0.457143009
vt 0.772499979 -0.460491002
vt 0.773750007 -0.458326012
vt 0.772499979 -0.460491002
vt 0.777828991 -0.459811002
vt 0.777828991 -0.459811002
vt 0.772499979 -0.460491002
vt 0.77739501 -0.462273002
vt 0.777828991 -0.459811002
vt 0.77739501 -0.462273002
vt 0.779999971 -0.462500989
vt -0.582502007 0.779999971
vt -0.612501979 0.779999971
vt -0.582502007 0.77739501
vt -0.582502007 0.779999971
vt -0.612501979 0.782604992
vt -0.612501979 0.779999971
vt -0.582502007 0.779999971
vt -0.582502007 0.782604992
vt -0.612501979 0.782604992
vt -0.612501979 0.782604992
vt -0.582502007 0.782604992
vt -0.582502007 0.787500024
vt -0.612501979 0.782604992
vt -0.582502007 0.787500024
vt -0.612501979 0.787500024
vt -0.612501979 0.787500024
vt -0.582502007 0.787500024
vt -0.582502007 0.791490972
vt -0.612501979 0.787500024
vt -0.582502007 0.791490972
vt -0.612501979 0.791490972
vt -0.612501979 -0.277177006
vt -0.582502007 -0.277177006
vt -0.582502007 -0.272664994
vt -0.612501979 -0.277177006
vt -0.582502007 -0.272664994
vt -0.612501979 -0.272664994
vt -0.612501979 -0.272664994
vt -0.582502007 -0.272664994
vt -0.582502007 -0.267535001
vt -0.612501979 -0.272664994
vt -0.582502007 -0.267535001
vt -0.612501979 -0.267535001
vt -0.612501979 -0.267535001
vt -0.582502007 -0.267535001
vt -0.582502007 -0.262405008
vt -0.612501979 -0.267535001
vt -0.582502007 -0.262405008
vt -0.612501979 -0.262405008
vt -0.612501979 -0.262405008
vt -0.582502007 -0.262405008
vt -0.582502007 -0.257892996
vt -0.612501979 -0.262405008
vt -0.582502007 -0.257892996
vt -0.612501979 -0.257892996
vt 0.612501979 0.791490972
vt 0.582502007 0.791490972
vt 0.582502007 0.787500024
vt 0.612501979 0.791490972
vt 0.582502007 0.787500024
vt 0.612501979 0.787500024
vt 0.612501979 0.787500024
vt 0.582502007 0.787500024
vt 0.582502007 0.782604992
vt 0.612501979 0.787500024
vt 0.582502007 0.782604992
vt 0.612501979 0.782604992
vt 0.612501979 0.782604992
vt 0.582502007 0.782604992
vt 0.582502007 0.77739501
vt 0.612501979 0.782604992
vt 0.582502007 0.77739501
vt 0.612501979 0.77739501
vt 0.612501979 0.77739501
vt 0.582502007 0.77739501
vt 0.582502007 0.772499979
vt 0.612501979 0.77739501
vt 0.582502007 0.772499979
vt 0.612501979 0.772499979
vt 0.612501979 0.772499979
vt 0.582502007 0.772499979
vt 0.582502007 0.768508971
vt 0.612501979 0.772499979
vt 0.582502007 0.768508971
vt 0.612501979 0.768508971
vt 0.612501979 -0.257892996
vt 0.582502007 -0.257892996
vt 0.582502007 -0.262405008
vt 0.612501979 -0.257892996
vt 0.582502007 -0.262405008
vt 0.612501979 -0.262405008
vt 0.612501979 -0.262405008
vt 0.582502007 -0.262405008
vt 0.582502007 -0.267535001
vt 0.612501979 -0.262405008
vt 0.582502007 -0.267535001
vt 0.612501979 -0.267535001
vt 0.612501979 -0.267535001
vt 0.582502007 -0.267535001
vt 0.582502007 -0.272664994
vt 0.612501979 -0.267535001
vt 0.582502007 -0.272664994
vt 0.612501979 -0.272664994
vt 0.612501979 -0.272664994
vt 0.582502007 -0.272664994
vt 0.582502007 -0.277177006
vt 0.612501979 -0.272664994
vt 0.582502007 -0.277177006
vt 0.612501979 -0.277177006
vt -0.612501979 0.768508971
vt -0.582502007 0.768508971
vt -0.582502007 0.772499979
vt -0.612501979 0.768508971
vt -0.582502007 0.772499979
vt -0.612501979 0.772499979
vt -0.612501979 0.772499979
vt -0.582502007 0.772499979
vt -0.582502007 0.77739501
vt -0.612501979 0.772499979
vt -0.582502007 0.77739501
vt -0.612501979 0.77739501
vt -0.612501979 0.77739501
vt -0.582502007 0.77739501
vt -0.612501979 0.779999971
vt 0.782171011 -0.279844999
vt 0.777828991 -0.279844999
vt 0.779999971 -0.282534987
vt 0.792500019 -0.267535001
vt 0.79409498 -0.262405008
vt 0.79174602 -0.263260007
vt 0.79174602 -0.263260007
vt 0.79409498 -0.262405008
vt 0.791490972 -0.257892996
vt 0.79174602 -0.263260007
vt 0.791490972 -0.257892996
vt 0.789575994 -0.259499997
vt -0.789575994 -0.259499997
vt -0.791490972 -0.257892996
vt -0.791490972 -0.257892996
vt 0.789575994 -0.259499997
vt 0.791490972 -0.257892996
vt 0.786249995 -0.256709993
vt 0.786249995 -0.256709993
vt 0.791490972 -0.257892996
vt 0.787500024 -0.254545003
vt 0.786249995 -0.256709993
vt 0.787500024 -0.254545003
vt 0.782171011 -0.255225003
vt 0.782171011 -0.255225003
vt 0.787500024 -0.254545003
vt 0.782604992 -0.252763003
vt 0.782171011 -0.255225003
vt 0.782604992 -0.252763003
vt 0.777828991 -0.255225003
vt 0.777828991 -0.255225003
vt 0.782604992 -0.252763003
vt 0.77739501 -0.252763003
vt -0.777828991 -0.255225003
vt -0.77739501 -0.252763003
vt -0.777828991 -0.255225003
vt 0.777828991 -0.255225003
vt 0.77739501 -0.252763003
vt 0.772499979 -0.254545003
vt 0.777828991 -0.255225003
vt 0.772499979 -0.254545003
vt 0.773750007 -0.256709993
vt 0.773750007 -0.256709993
vt 0.772499979 -0.254545003
vt 0.768508971 -0.257892996
vt 0.773750007 -0.256709993
vt 0.768508971 -0.257892996
vt 0.770424008 -0.259499997
vt -0.770424008 -0.259499997
vt -0.768508971 -0.257892996
vt -0.768508971 -0.257892996
vt 0.770424008 -0.259499997
vt 0.768508971 -0.257892996
vt 0.768253982 -0.263260007
vt 0.768253982 -0.263260007
vt 0.768508971 -0.257892996
vt 0.765905023 -0.262405008
vt 0.768253982 -0.263260007
vt 0.765905023 -0.262405008
vt 0.767499983 -0.267535001
vt 0.767499983 -0.267535001
vt 0.765905023 -0.262405008
vt 0.764999986 -0.267535001
vt -0.767499983 -0.267535001
vt -0.764999986 -0.267535001
vt -0.767499983 -0.267535001
vt 0.767499983 -0.267535001
vt 0.764999986 -0.267535001
vt 0.765905023 -0.272664994
vt 0.767499983 -0.267535001
vt 0.765905023 -0.272664994
vt 0.768253982 -0.271809995
vt 0.768253982 -0.271809995
vt 0.765905023 -0.272664994
vt 0.768508971 -0.277177006
vt 0.768253982 -0.271809995
vt 0.768508971 -0.277177006
vt 0.770424008 -0.275570005
vt -0.770424008 -0.275570005
vt -0.768508971 -0.277177006
vt -0.768508971 -0.277177006
vt 0.770424008 -0.275570005
vt 0.768508971 -0.277177006
vt 0.773750007 -0.278360993
vt 0.773750007 -0.278360993
vt 0.768508971 -0.277177006
vt 0.772499979 -0.280526012
vt 0.773750007 -0.278360993
vt 0.772499979 -0.280526012
vt 0.777828991 -0.279844999
vt 0.777828991 -0.279844999
vt 0.772499979 -0.280526012
vt 0.77739501 -0.282306999
vt 0.777828991 -0.279844999
vt 0.77739501 -0.282306999
vt 0.779999971 -0.282534987
vt 0.79409498 -0.272664994
vt 0.795000017 -0.267535001
vt 0.792500019 -0.267535001
vt 0.792500019 -0.267535001
vt 0.795000017 -0.267535001
vt 0.79409498 -0.262405008
vt 0.779999971 -0.282534987
vt 0.782604992 -0.282306999
vt 0.782171011 -0.279844999
vt 0.782171011 -0.279844999
vt 0.782604992 -0.282306999
vt 0.787500024 -0.280526012
vt 0.782171011 -0.279844999
vt 0.787500024 -0.280526012
vt 0.786249995 -0.278360993
vt 0.786249995 -0.278360993
vt 0.787500024 -0.280526012
vt 0.791490972 -0.277177006
vt 0.786249995 -0.278360993
vt 0.791490972 -0.277177006
vt 0.789575994 -0.275570005
vt -0.789575994 -0.275570005
vt -0.791490972 -0.277177006
vt -0.791490972 -0.277177006
vt 0.789575994 -0.275570005
vt 0.791490972 -0.277177006
vt 0.79174602 -0.271809995
vt 0.79174602 -0.271809995
vt 0.791490972 -0.277177006
vt 0.79409498 -0.272664994
vt 0.79174602 -0.271809995
vt 0.79409498 -0.272664994
vt 0.792500019 -0.267535001
vt -0.582502007 0.779999971
vt -0.612501979 0.779999971
vt -0.582502007 0.77739501
vt -0.582502007 0.779999971
vt -0.612501979 0.782604992
vt -0.612501979 0.779999971
vt -0.582502007 0.779999971
vt -0.582502007 0.782604992
vt -0.612501979 0.782604992
vt -0.612501979 0.782604992
vt -0.582502007 0.782604992
vt -0.582502007 0.787500024
vt -0.612501979 0.782604992
vt -0.582502007 0.787500024
vt -0.612501979 0.787500024
vt -0.612501979 0.787500024
vt -0.582502007 0.787500024
vt -0.582502007 0.791490972
vt -0.612501979 0.787500024
vt -0.582502007 0.791490972
vt -0.612501979 0.791490972
vt -0.612501979 -0.0971430019
vt -0.582502007 -0.0971430019
vt -0.582502007 -0.0926309973
vt -0.612501979 -0.0971430019
vt -0.582502007 -0.0926309973
vt -0.612501979 -0.0926309973
vt -0.612501979 -0.0926309973
vt -0.582502007 -0.0926309973
vt -0.582502007 -0.0875009969
vt -0.612501979 -0.0926309973
vt -0.582502007 -0.0875009969
vt -0.612501979 -0.0875009969
vt -0.612501979 -0.0875009969
vt -0.582502007 -0.0875009969
vt -0.582502007 -0.0823709965
vt -0.612501979 -0.0875009969
vt -0.582502007 -0.0823709965
vt -0.612501979 -0.0823709965
vt -0.612501979 -0.0823709965
vt -0.582502007 -0.0823709965
vt -0.582502007 -0.0778589994
vt -0.612501979 -0.0823709965
vt -0.582502007 -0.0778589994
vt -0.612501979 -0.0778589994
vt 0.612501979 0.791490972
vt 0.582502007 0.791490972
vt 0.582502007 0.787500024
vt 0.612501979 0.791490972
vt 0.582502007 0.787500024
vt 0.612501979 0.787500024
vt 0.612501979 0.787500024
vt 0.582502007 0.787500024
vt 0.582502007 0.782604992
vt 0.612501979 0.787500024
vt 0.582502007 0.782604992
vt 0.612501979 0.782604992
vt 0.612501979 0.782604992
vt 0.582502007 0.782604992
vt 0.582502007 0.77739501
vt 0.612501979 0.782604992
vt 0.582502007 0.77739501
vt 0.612501979 0.77739501
vt 0.612501979 0.77739501
vt 0.582502007 0.77739501
vt 0.582502007 0.772499979
vt 0.612501979 0.77739501
vt 0.582502007 0.772499979
vt 0.612501979 0.772499979
vt 0.612501979 0.772499979
vt 0.582502007 0.772499979
vt 0.582502007 0.768508971
vt 0.612501979 0.772499979
vt 0.582502007 0.768508971
vt 0.612501979 0.768508971
vt 0.612501979 -0.0778589994
vt 0.582502007 -0.0778589994
vt 0.582502007 -0.0823709965
vt 0.612501979 -0.0778589994
vt 0.582502007 -0.0823709965
vt 0.612501979 -0.0823709965
vt 0.612501979 -0.0823709965
vt 0.582502007 -0.0823709965
vt 0.582502007 -0.0875009969
vt 0.612501979 -0.0823709965
vt 0.582502007 -0.0875009969
vt 0.612501979 -0.0875009969
vt 0.612501979 -0.0875009969
vt 0.582502007 -0.0875009969
vt 0.582502007 -0.0926309973
vt 0.612501979 -0.0875009969
vt 0.582502007 -0.0926309973
vt 0.612501979 -0.0926309973
vt 0.612501979 -0.0926309973
vt 0.582502007 -0.0926309973
vt 0.582502007 -0.0971430019
vt 0.612501979 -0.0926309973
vt 0.582502007 -0.0971430019
vt 0.612501979 -0.0971430019
vt -0.612501979 0.768508971
vt -0.582502007 0.768508971
vt -0.582502007 0.772499979
vt -0.612501979 0.768508971
vt -0.582502007 0.772499979
vt -0.612501979 0.772499979
vt -0.612501979 0.772499979
vt -0.582502007 0.772499979
vt -0.582502007 0.77739501
vt -0.612501979 0.772499979
vt -0.582502007 0.77739501
vt -0.612501979 0.77739501
vt -0.612501979 0.77739501
vt -0.582502007 0.77739501
vt -0.612501979 0.779999971
vt 0.782171011 -0.0998110026
vt 0.777828991 -0.0998110026
vt 0.779999971 -0.102500997
vt 0.792500019 -0.0875009969
vt 0.79409498 -0.0823709965
vt 0.79174602 -0.0832260028
vt 0.79174602 -0.0832260028
vt 0.79409498 -0.0823709965
vt 0.791490972 -0.0778589994
vt 0.79174602 -0.0832260028
vt 0.791490972 -0.0778589994
vt 0.789575994 -0.0794660002
vt -0.789575994 -0.0794660002
vt -0.791490972 -0.0778589994
vt -0.791490972 -0.0778589994
vt 0.789575994 -0.0794660002
vt 0.791490972 -0.0778589994
vt 0.786249995 -0.0766760036
vt 0.786249995 -0.0766760036
vt 0.791490972 -0.0778589994
vt 0.787500024 -0.074510999
vt 0.786249995 -0.0766760036
vt 0.787500024 -0.074510999
vt 0.782171011 -0.0751909986
vt 0.782171011 -0.0751909986
vt 0.787500024 -0.074510999
vt 0.782604992 -0.072728999
vt 0.782171011 -0.0751909986
vt 0.782604992 -0.072728999
vt 0.777828991 -0.0751909986
vt 0.777828991 -0.0751909986
vt 0.782604992 -0.072728999
vt 0.77739501 -0.072728999
vt -0.777828991 -0.0751909986
vt -0.77739501 -0.072728999
vt -0.777828991 -0.0751909986
vt 0.777828991 -0.0751909986
vt 0.77739501 -0.072728999
vt 0.772499979 -0.074510999
vt 0.777828991 -0.0751909986
vt 0.772499979 -0.074510999
vt 0.773750007 -0.0766760036
vt 0.773750007 -0.0766760036
vt 0.772499979 -0.074510999
vt 0.768508971 -0.0778589994
vt 0.773750007 -0.0766760036
vt 0.768508971 -0.0778589994
vt 0.770424008 -0.0794660002
vt -0.770424008 -0.0794660002
vt -0.768508971 -0.0778589994
vt -0.768508971 -0.0778589994
vt 0.770424008 -0.0794660002
vt 0.768508971 -0.0778589994
vt 0.768253982 -0.0832260028
vt 0.768253982 -0.0832260028
vt 0.768508971 -0.0778589994
vt 0.765905023 -0.0823709965
vt 0.768253982 -0.0832260028
vt 0.765905023 -0.0823709965
vt 0.767499983 -0.0875009969
vt 0.767499983 -0.0875009969
vt 0.765905023 -0.0823709965
vt 0.764999986 -0.0875009969
vt -0.767499983 -0.0875009969
vt -0.764999986 -0.0875009969
vt -0.767499983 -0.0875009969
vt 0.767499983 -0.0875009969
vt 0.764999986 -0.0875009969
vt 0.765905023 -0.0926309973
vt 0.767499983 -0.0875009969
vt 0.765905023 -0.0926309973
vt 0.768253982 -0.0917759985
vt 0.768253982 -0.0917759985
vt 0.765905023 -0.0926309973
vt 0.768508971 -0.0971430019
vt 0.768253982 -0.0917759985
vt 0.768508971 -0.0971430019
vt 0.770424008 -0.095536001
vt -0.770424008 -0.095536001
vt -0.768508971 -0.0971430019
vt -0.768508971 -0.0971430019
vt 0.770424008 -0.095536001
vt 0.768508971 -0.0971430019
vt 0.773750007 -0.0983259976
vt 0.773750007 -0.0983259976
vt 0.768508971 -0.0971430019
vt 0.772499979 -0.100491002
vt 0.773750007 -0.0983259976
vt 0.772499979 -0.100491002
vt 0.777828991 -0.0998110026
vt 0.777828991 -0.0998110026
vt 0.772499979 -0.100491002
vt 0.77739501 -0.102273002
vt 0.777828991 -0.0998110026
vt 0.77739501 -0.102273002
vt 0.779999971 -0.102500997
vt 0.779999971 -0.102500997
vt 0.782604992 -0.102273002
vt 0.782171011 -0.0998110026
vt 0.782171011 -0.0998110026
vt 0.782604992 -0.102273002
vt 0.787500024 -0.100491002
vt 0.782171011 -0.0998110026
vt 0.787500024 -0.100491002
vt 0.786249995 -0.0983259976
vt 0.786249995 -0.0983259976
vt 0.787500024 -0.100491002
vt 0.791490972 -0.0971430019
vt 0.786249995 -0.0983259976
vt 0.791490972 -0.0971430019
vt 0.789575994 -0.095536001
vt -0.789575994 -0.095536001
vt -0.791490972 -0.0971430019
vt -0.791490972 -0.0971430019
vt 0.789575994 -0.095536001
vt 0.791490972 -0.0971430019
vt 0.79174602 -0.0917759985
vt 0.79174602 -0.0917759985
vt 0.791490972 -0.0971430019
vt 0.79409498 -0.0926309973
vt 0.79174602 -0.0917759985
vt 0.79409498 -0.0926309973
vt 0.792500019 -0.0875009969
vt 0.79409498 -0.0823709965
vt 0.792500019 -0.0875009969
vt 0.795000017 -0.0875009969
vt 0.795000017 -0.0875009969
vt 0.792500019 -0.0875009969
vt 0.79409498 -0.0926309973
f 1/1 2/2 3/3
f 1/4 3/5 4/6
f 1/7 5/8 2/9
f 2/10 5/11 6/12
f 2/13 6/14 7/15
f 7/16 6/17 8/18
f 7/19 8/20 9/21
f 9/22 8/23 10/24
f 9/25 10/26 11/27
f 11/28 10/29 12/30
f 11/31 12/32 13/33
f 13/34 12/35 14/36
f 13/37 14/38 15/39
f 15/40 14/41 16/42
f 15/43 16/44 17/45
f 17/46 16/47 18/48
f 17/49 18/50 19/51
f 19/52 18/53 20/54
f 19/55 20/56 21/57
f 21/58 20/59 22/60
f 21/61 22/62 23/63
f 23/64 22/65 24/66
f 23/67 24/68 25/69
f 25/70 24/71 26/72
f 25/73 26/74 27/75
f 27/76 26/77 28/78
f 27/79 28/80 29/81
f 29/82 28/83 30/84
f 29/85 30/86 31/87
f 31/88 30/89 32/90
f 31/91 32/92 33/93
f 33/94 32/95 34/96
f 33/97 34/98 35/99
f 35/100 34/101 36/102
f 35/103 36/104 37/105
f 37/106 36/107 4/108
f 37/109 4/110 38/111
f 38/112 4/113 3/114
f 39/115 40/116 3/117
f 41/118 42/119 11/120
f 11/121 42/122 42/123
f 11/124 42/125 9/126
f 9/127 42/128 43/129
f 9/130 43/131 9/132
f 9/133 43/134 44/135
f 9/136 44/137 7/138
f 7/139 44/140 39/141
f 7/142 39/143 2/144
f 2/145 39/146 3/147
f 15/148 41/149 13/150
f 13/151 41/152 11/153
f 3/154 40/155 38/156
f 38/157 40/158 40/159
f 38/160 40/161 37/162
f 37/163 40/164 45/165
f 37/166 45/167 35/168
f 35/169 45/170 46/171
f 35/172 46/173 35/174
f 35/175 46/176 47/177
f 35/178 47/179 33/180
f 33/181 47/182 48/183
f 33/184 48/185 31/186
f 31/187 48/188 48/189
f 31/190 48/191 29/192
f 29/193 48/194 49/195
f 29/196 49/197 27/198
f 27/199 49/200 50/201
f 27/202 50/203 27/204
f 27/205 50/206 51/207
f 27/208 51/209 25/210
f 25/211 51/212 52/213
f 25/214 52/215 23/216
f 23/217 52/218 52/219
f 23/220 52/221 21/222
f 21/223 52/224 53/225
f 21/226 53/227 19/228
f 19/229 53/230 54/231
f 19/232 54/233 17/234
f 17/235 54/236 55/237
f 17/238 55/239 17/240
f 17/241 55/242 56/243
f 17/244 56/245 15/246
f 15/247 56/248 41/249
f 57/250 58/251 59/252
f 57/253 59/254 60/255
f 57/256 61/257 58/258
f 58/259 61/260 62/261
f 58/262 62/263 63/264
f 63/265 62/266 64/267
f 63/268 64/269 65/270
f 65/271 64/272 66/273
f 65/274 66/275 67/276
f 67/277 66/278 68/279
f 67/280 68/281 69/282
f 69/283 68/284 70/285
f 69/286 70/287 71/288
f 71/289 70/290 72/291
f 71/292 72/293 73/294
f 73/295 72/296 74/297
f 73/298 74/299 75/300
f 75/301 74/302 76/303
f 75/304 76/305 77/306
f 77/307 76/308 78/309
f 77/310 78/311 79/312
f 79/313 78/314 80/315
f 79/316 80/317 81/318
f 81/319 80/320 82/321
f 81/322 82/323 83/324
f 83/325 82/326 84/327
f 83/328 84/329 85/330
f 85/331 84/332 86/333
f 85/334 86/335 87/336
f 87/337 86/338 88/339
f 87/340 88/341 89/342
f 89/343 88/344 90/345
f 89/346 90/347 91/348
f 91/349 90/350 92/351
f 91/352 92/353 93/354
f 93/355 92/356 60/357
f 93/358 60/359 94/360
f 94/361 60/362 59/363
f 95/364 96/365 59/366
f 59/367 96/368 94/369
f 94/370 96/371 96/372
f 94/373 96/374 93/375
f 93/376 96/377 97/378
f 93/379 97/380 91/381
f 91/382 97/383 98/384
f 91/385 98/386 91/387
f 91/388 98/389 99/390
f 91/391 99/392 89/393
f 89/394 99/395 100/396
f 89/397 100/398 87/399
f 87/400 100/401 100/402
f 87/403 100/404 85/405
f 85/406 100/407 101/408
f 85/409 101/410 83/411
f 83/412 101/413 102/414
f 83/415 102/416 83/417
f 83/418 102/419 103/420
f 83/421 103/422 81/423
f 81/424 103/425 104/426
f 81/427 104/428 79/429
f 79/430 104/431 104/432
f 79/433 104/434 77/435
f 77/436 104/437 105/438
f 77/439 105/440 75/441
f 75/442 105/443 106/444
f 75/445 106/446 73/447
f 73/448 106/449 107/450
f 73/451 107/452 73/453
f 73/454 107/455 108/456
f 73/457 108/458 71/459
f 71/460 108/461 109/462
f 109/463 110/464 67/465
f 67/466 110/467 110/468
f 67/469 110/470 65/471
f 65/472 110/473 111/474
f 65/475 111/476 65/477
f 65/478 111/479 112/480
f 65/481 112/482 63/483
f 63/484 112/485 95/486
f 63/487 95/488 58/489
f 58/490 95/491 59/492
f 67/493 69/494 109/495
f 109/496 69/497 71/498
f 113/499 114/500 115/501
f 113/502 115/503 116/504
f 113/505 117/506 114/507
f 114/508 117/509 118/510
f 114/511 118/512 119/513
f 119/514 118/515 120/516
f 119/517 120/518 121/519
f 121/520 120/521 122/522
f 121/523 122/524 123/525
f 123/526 122/527 124/528
f 123/529 124/530 125/531
f 125/532 124/533 126/534
f 125/535 126/536 127/537
f 127/538 126/539 128/540
f 127/541 128/542 129/543
f 129/544 128/545 130/546
f 129/547 130/548 131/549
f 131/550 130/551 132/552
f 131/553 132/554 133/555
f 133/556 132/557 134/558
f 133/559 134/560 135/561
f 135/562 134/563 136/564
f 135/565 136/566 137/567
f 137/568 136/569 138/570
f 137/571 138/572 139/573
f 139/574 138/575 140/576
f 139/577 140/578 141/579
f 141/580 140/581 142/582
f 141/583 142/584 143/585
f 143/586 142/587 144/588
f 143/589 144/590 145/591
f 145/592 144/593 146/594
f 145/595 146/596 147/597
f 147/598 146/599 148/600
f 147/601 148/602 149/603
f 149/604 148/605 116/606
f 149/607 116/608 150/609
f 150/610 116/611 115/612
f 151/613 152/614 115/615
f 115/616 114/617 151/618
f 151/619 114/620 119/621
f 151/622 119/623 153/624
f 153/625 119/626 121/627
f 153/628 121/629 154/630
f 154/631 121/632 121/633
f 154/634 121/635 155/636
f 155/637 121/638 123/639
f 155/640 123/641 156/642
f 127/643 156/644 125/645
f 125/646 156/647 123/648
f 156/649 127/650 157/651
f 157/652 127/653 129/654
f 157/655 129/656 158/657
f 158/658 129/659 129/660
f 158/661 129/662 159/663
f 159/664 129/665 131/666
f 159/667 131/668 160/669
f 160/670 131/671 133/672
f 160/673 133/674 161/675
f 161/676 133/677 135/678
f 161/679 135/680 161/681
f 161/682 135/683 137/684
f 161/685 137/686 162/687
f 162/688 137/689 139/690
f 162/691 139/692 163/693
f 163/694 139/695 139/696
f 163/697 139/698 164/699
f 164/700 139/701 141/702
f 164/703 141/704 165/705
f 165/706 141/707 143/708
f 165/709 143/710 165/711
f 165/712 143/713 145/714
f 165/715 145/716 166/717
f 166/718 145/719 147/720
f 166/721 147/722 167/723
f 167/724 147/725 147/726
f 167/727 147/728 168/729
f 168/730 147/731 149/732
f 168/733 149/734 152/735
f 152/736 149/737 150/738
f 152/739 150/740 115/741
f 169/742 170/743 171/744
f 169/745 172/746 170/747
f 169/748 173/749 172/750
f 172/751 173/752 174/753
f 172/754 174/755 175/756
f 175/757 174/758 176/759
f 175/760 176/761 177/762
f 177/763 176/764 178/765
f 177/766 178/767 179/768
f 179/769 178/770 180/771
f 179/772 180/773 181/774
f 181/775 180/776 182/777
f 181/778 182/779 183/780
f 183/781 182/782 184/783
f 183/784 184/785 185/786
f 185/787 184/788 186/789
f 185/790 186/791 187/792
f 187/793 186/794 188/795
f 187/796 188/797 189/798
f 189/799 188/800 190/801
f 189/802 190/803 191/804
f 191/805 190/806 192/807
f 191/808 192/809 193/810
f 193/811 192/812 194/813
f 193/814 194/815 195/816
f 195/817 194/818 196/819
f 195/820 196/821 197/822
f 197/823 196/824 198/825
f 197/826 198/827 199/828
f 199/829 198/830 200/831
f 199/832 200/833 201/834
f 201/835 200/836 202/837
f 201/838 202/839 203/840
f 203/841 202/842 204/843
f 203/844 204/845 205/846
f 205/847 204/848 171/849
f 205/850 171/851 206/852
f 206/853 171/854 170/855
f 207/856 208/857 170/858
f 209/859 183/860 210/861
f 210/862 183/863 185/864
f 210/865 185/866 211/867
f 211/868 185/869 185/870
f 211/871 185/872 212/873
f 212/874 185/875 187/876
f 212/877 187/878 213/879
f 213/880 187/881 189/882
f 213/883 189/884 214/885
f 214/886 189/887 191/888
f 214/889 191/890 214/891
f 214/892 191/893 193/894
f 214/895 193/896 215/897
f 215/898 193/899 195/900
f 215/901 195/902 216/903
f 216/904 195/905 195/906
f 216/907 195/908 217/909
f 217/910 195/911 197/912
f 217/913 197/914 218/915
f 218/916 197/917 199/918
f 218/919 199/920 218/921
f 218/922 199/923 201/924
f 218/925 201/926 219/927
f 219/928 201/929 203/930
f 219/931 203/932 220/933
f 220/934 203/935 203/936
f 220/937 203/938 221/939
f 221/940 203/941 205/942
f 221/943 205/944 208/945
f 208/946 205/947 206/948
f 208/949 206/950 170/951
f 179/952 181/953 209/954
f 209/955 181/956 183/957
f 170/958 172/959 207/960
f 207/961 172/962 175/963
f 207/964 175/965 222/966
f 222/967 175/968 177/969
f 222/970 177/971 223/972
f 223/973 177/974 177/975
f 223/976 177/977 224/978
f 224/979 177/980 179/981
f 224/982 179/983 209/984
f 225/985 226/986 227/987
f 225/988 228/989 226/990
f 225/991 229/992 228/993
f 228/994 229/995 230/996
f 228/997 230/998 231/999
f 231/1000 230/1001 232/1002
f 231/1003 232/1004 233/1005
f 233/1006 232/1007 234/1008
f 233/1009 234/1010 235/1011
f 235/1012 234/1013 236/1014
f 235/1015 236/1016 237/1017
f 237/1018 236/1019 238/1020
f 237/1021 238/1022 239/1023
f 239/1024 238/1025 240/1026
f 239/1027 240/1028 241/1029
f 241/1030 240/1031 242/1032
f 241/1033 242/1034 243/1035
f 243/1036 242/1037 244/1038
f 243/1039 244/1040 245/1041
f 245/1042 244/1043 246/1044
f 245/1045 246/1046 247/1047
f 247/1048 246/1049 248/1050
f 247/1051 248/1052 249/1053
f 249/1054 248/1055 250/1056
f 249/1057 250/1058 251/1059
f 251/1060 250/1061 252/1062
f 251/1063 252/1064 253/1065
f 253/1066 252/1067 254/1068
f 253/1069 254/1070 255/1071
f 255/1072 254/1073 256/1074
f 255/1075 256/1076 257/1077
f 257/1078 256/1079 258/1080
f 257/1081 258/1082 259/1083
f 259/1084 258/1085 260/1086
f 259/1087 260/1088 261/1089
f 261/1090 260/1091 227/1092
f 261/1093 227/1094 262/1095
f 262/1096 227/1097 226/1098
f 263/1099 264/1100 226/1101
f 265/1102 239/1103 266/1104
f 266/1105 239/1106 241/1107
f 266/1108 241/1109 267/1110
f 267/1111 241/1112 241/1113
f 267/1114 241/1115 268/1116
f 268/1117 241/1118 243/1119
f 268/1120 243/1121 269/1122
f 269/1123 243/1124 245/1125
f 269/1126 245/1127 270/1128
f 270/1129 245/1130 247/1131
f 270/1132 247/1133 270/1134
f 270/1135 247/1136 249/1137
f 270/1138 249/1139 271/1140
f 271/1141 249/1142 251/1143
f 271/1144 251/1145 272/1146
f 272/1147 251/1148 251/1149
f 272/1150 251/1151 273/1152
f 273/1153 251/1154 253/1155
f 273/1156 253/1157 274/1158
f 274/1159 253/1160 255/1161
f 274/1162 255/1163 274/1164
f 274/1165 255/1166 257/1167
f 274/1168 257/1169 275/1170
f 275/1171 257/1172 259/1173
f 275/1174 259/1175 276/1176
f 276/1177 259/1178 259/1179
f 276/1180 259/1181 277/1182
f 277/1183 259/1184 261/1185
f 277/1186 261/1187 264/1188
f 264/1189 261/1190 262/1191
f 264/1192 262/1193 226/1194
f 226/1195 228/1196 263/1197
f 263/1198 228/1199 231/1200
f 263/1201 231/1202 278/1203
f 278/1204 231/1205 233/1206
f 278/1207 233/1208 279/1209
f 279/1210 233/1211 233/1212
f 279/1213 233/1214 280/1215
f 280/1216 233/1217 235/1218
f 280/1219 235/1220 265/1221
f 239/1222 265/1223 237/1224
f 237/1225 265/1226 235/1227
