# Exported from USD for MuJoCo with source material subsets
v -10.1161703 0.894209543 2.39811074
v -10.1111935 0.893554607 2.39811074
v -10.1161703 0.894209543 2.34311079
v -10.1111935 0.893554607 2.34311079
v -10.1065473 0.891631642 2.39811074
v -10.1065473 0.891631642 2.34311079
v -10.1025622 0.888574163 2.39811074
v -10.1025622 0.888574163 2.34311079
v -10.0995016 0.884588042 2.39811074
v -10.0995016 0.884588042 2.34311079
v -10.097577 0.879943648 2.39811074
v -10.097577 0.879943648 2.34311079
v -10.0969206 0.874964872 2.39811074
v -10.0969206 0.874964872 2.34311079
v -10.097576 0.869978348 2.39811074
v -10.097576 0.869978348 2.34311079
v -10.0994971 0.865339199 2.39811074
v -10.0994971 0.865339199 2.34311079
v -10.1025563 0.861350099 2.39811074
v -10.1025563 0.861350099 2.34311079
v -10.1065424 0.858290712 2.39811074
v -10.1065424 0.858290712 2.34311079
v -10.1111833 0.856367031 2.39811074
v -10.1111833 0.856367031 2.34311079
v -10.1161703 0.855709473 2.39811074
v -10.1161703 0.855709473 2.34311079
v -10.1211471 0.856364289 2.39811074
v -10.1211471 0.856364289 2.34311079
v -10.1257933 0.858287374 2.39811074
v -10.1257933 0.858287374 2.34311079
v -10.1297785 0.861344615 2.39811074
v -10.1297785 0.861344615 2.34311079
v -10.1328391 0.865330855 2.39811074
v -10.1328391 0.865330855 2.34311079
v -10.1347636 0.869975248 2.39811074
v -10.1347636 0.869975248 2.34311079
v -10.13542 0.874954024 2.39811074
v -10.13542 0.874954024 2.34311079
v -10.1347647 0.879940549 2.39811074
v -10.1347647 0.879940549 2.34311079
v -10.1328435 0.884579579 2.39811074
v -10.1328435 0.884579579 2.34311079
v -10.1297844 0.888568679 2.39811074
v -10.1297844 0.888568679 2.34311079
v -10.1257983 0.891628305 2.39811074
v -10.1257983 0.891628305 2.34311079
v -10.1211573 0.893551985 2.39811074
v -10.1211573 0.893551985 2.34311079
vt 2.17691994 0.649149001
vt 2.17691994 0.653672993
vt 2.12691998 0.649149001
vt -2.12691998 0.649149001
vt -2.17691994 0.653672993
vt -2.17691994 0.653672993
vt 2.12691998 0.649149001
vt 2.17691994 0.653672993
vt 2.12691998 0.653672993
vt 2.12691998 0.653672993
vt 2.17691994 0.653672993
vt 2.17691994 0.657896996
vt 2.12691998 0.653672993
vt 2.17691994 0.657896996
vt 2.12691998 0.657896996
vt 2.12691998 0.657896996
vt 2.17691994 0.657896996
vt 2.17691994 0.661520004
vt 2.12691998 0.657896996
vt 2.17691994 0.661520004
vt 2.12691998 0.661520004
vt 0.412575006 2.12691998
vt 0.412575006 2.17691994
vt 0.408951014 2.17691994
vt 0.412575006 2.12691998
vt 0.408951014 2.17691994
vt 0.408951014 2.12691998
vt 0.408951014 2.12691998
vt 0.408951014 2.17691994
vt 0.404729009 2.17691994
vt 0.408951014 2.12691998
vt 0.404729009 2.17691994
vt 0.404729009 2.12691998
vt 0.404729009 2.12691998
vt 0.404729009 2.17691994
vt 0.40020299 2.17691994
vt 0.404729009 2.12691998
vt 0.40020299 2.17691994
vt 0.40020299 2.12691998
vt 0.40020299 2.12691998
vt 0.40020299 2.17691994
vt 0.395669997 2.17691994
vt 0.40020299 2.12691998
vt 0.395669997 2.17691994
vt 0.395669997 2.12691998
vt 0.395669997 2.12691998
vt 0.395669997 2.17691994
vt 0.391452998 2.17691994
vt 0.395669997 2.12691998
vt 0.391452998 2.17691994
vt 0.391452998 2.12691998
vt 0.391452998 2.12691998
vt 0.391452998 2.17691994
vt 0.387825996 2.17691994
vt 0.391452998 2.12691998
vt 0.387825996 2.17691994
vt 0.387825996 2.12691998
vt -2.12691998 0.661525011
vt -2.17691994 0.661525011
vt -2.17691994 0.657902002
vt -2.12691998 0.661525011
vt -2.17691994 0.657902002
vt -2.12691998 0.657902002
vt -2.12691998 0.657902002
vt -2.17691994 0.657902002
vt -2.17691994 0.653681993
vt -2.12691998 0.657902002
vt -2.17691994 0.653681993
vt -2.12691998 0.653681993
vt -2.12691998 0.653681993
vt -2.17691994 0.653681993
vt -2.17691994 0.649149001
vt -2.12691998 0.653681993
vt -2.17691994 0.649149001
vt -2.12691998 0.649149001
vt -2.17691994 0.649149001
vt -2.17691994 0.644625008
vt -2.12691998 0.649149001
vt -2.12691998 0.649149001
vt -2.17691994 0.644625008
vt -2.17691994 0.644625008
vt -2.12691998 0.649149001
vt -2.17691994 0.644625008
vt -2.12691998 0.644625008
vt -2.12691998 0.644625008
vt -2.17691994 0.644625008
vt -2.17691994 0.640401006
vt -2.12691998 0.644625008
vt -2.17691994 0.640401006
vt -2.12691998 0.640401006
vt -2.12691998 0.640401006
vt -2.17691994 0.640401006
vt -2.17691994 0.636777997
vt -2.12691998 0.640401006
vt -2.17691994 0.636777997
vt -2.12691998 0.636777997
vt -0.387820989 2.12691998
vt -0.387820989 2.17691994
vt -0.391445011 2.17691994
vt -0.387820989 2.12691998
vt -0.391445011 2.17691994
vt -0.391445011 2.12691998
vt -0.391445011 2.12691998
vt -0.391445011 2.17691994
vt -0.395666987 2.17691994
vt -0.391445011 2.12691998
vt -0.395666987 2.17691994
vt -0.395666987 2.12691998
vt -0.395666987 2.12691998
vt -0.395666987 2.17691994
vt -0.400193006 2.17691994
vt -0.395666987 2.12691998
vt -0.400193006 2.17691994
vt -0.400193006 2.12691998
vt -0.400193006 2.12691998
vt -0.400193006 2.17691994
vt -0.404725999 2.17691994
vt -0.400193006 2.12691998
vt -0.404725999 2.17691994
vt -0.404725999 2.12691998
vt -0.404725999 2.12691998
vt -0.404725999 2.17691994
vt -0.408944011 2.17691994
vt -0.404725999 2.12691998
vt -0.408944011 2.17691994
vt -0.408944011 2.12691998
vt -0.408944011 2.12691998
vt -0.408944011 2.17691994
vt -0.41257 2.17691994
vt -0.408944011 2.12691998
vt -0.41257 2.17691994
vt -0.41257 2.12691998
vt 2.12691998 0.636771977
vt 2.17691994 0.636771977
vt 2.17691994 0.640395999
vt 2.12691998 0.636771977
vt 2.17691994 0.640395999
vt 2.12691998 0.640395999
vt 2.12691998 0.640395999
vt 2.17691994 0.640395999
vt 2.17691994 0.644614995
vt 2.12691998 0.640395999
vt 2.17691994 0.644614995
vt 2.12691998 0.644614995
vt 2.12691998 0.644614995
vt 2.17691994 0.644614995
vt 2.17691994 0.649149001
vt 2.12691998 0.644614995
vt 2.17691994 0.649149001
vt 2.12691998 0.649149001
f 1/1 2/2 3/3
f 3/4 2/5 2/6
f 3/7 2/8 4/9
f 4/10 2/11 5/12
f 4/13 5/14 6/15
f 6/16 5/17 7/18
f 6/19 7/20 8/21
f 8/22 7/23 9/24
f 8/25 9/26 10/27
f 10/28 9/29 11/30
f 10/31 11/32 12/33
f 12/34 11/35 13/36
f 12/37 13/38 14/39
f 14/40 13/41 15/42
f 14/43 15/44 16/45
f 16/46 15/47 17/48
f 16/49 17/50 18/51
f 18/52 17/53 19/54
f 18/55 19/56 20/57
f 20/58 19/59 21/60
f 20/61 21/62 22/63
f 22/64 21/65 23/66
f 22/67 23/68 24/69
f 24/70 23/71 25/72
f 24/73 25/74 26/75
f 25/76 27/77 26/78
f 26/79 27/80 27/81
f 26/82 27/83 28/84
f 28/85 27/86 29/87
f 28/88 29/89 30/90
f 30/91 29/92 31/93
f 30/94 31/95 32/96
f 32/97 31/98 33/99
f 32/100 33/101 34/102
f 34/103 33/104 35/105
f 34/106 35/107 36/108
f 36/109 35/110 37/111
f 36/112 37/113 38/114
f 38/115 37/116 39/117
f 38/118 39/119 40/120
f 40/121 39/122 41/123
f 40/124 41/125 42/126
f 42/127 41/128 43/129
f 42/130 43/131 44/132
f 44/133 43/134 45/135
f 44/136 45/137 46/138
f 46/139 45/140 47/141
f 46/142 47/143 48/144
f 48/145 47/146 1/147
f 48/148 1/149 3/150
