# Exported from USD for MuJoCo with source material subsets
v 11.2259624 -0.0473496167 0.750000727
v 11.2200975 -0.0494332163 0.750000727
v 11.2134281 -0.0381569115 0.750000727
v 11.213428 -0.0501569955 0.750000727
v 11.2067587 -0.0494332163 0.750000727
v 11.2008937 -0.0473496167 0.750000727
v 11.1965405 -0.0441570131 0.750000727
v 11.1942243 -0.0402406899 0.750000727
v 11.1942244 -0.0360730736 0.750000727
v 11.1965406 -0.0321569292 0.750000727
v 11.2008938 -0.0289643852 0.750000727
v 11.2067588 -0.026880726 0.750000727
v 11.2134281 -0.0261568872 0.750000727
v 11.2200975 -0.026880726 0.750000727
v 11.2259624 -0.0289645044 0.750000727
v 11.2303155 -0.0321569888 0.750000727
v 11.2326319 -0.0360731928 0.750000727
v 11.2329281 -0.0381569712 0.750000727
v 11.2326319 -0.0402408091 0.750000727
v 11.2303155 -0.0441570131 0.750000727
v 11.2326327 2.58375777 0.750000727
v 11.2303163 2.57984175 0.750000727
v 11.2134289 2.58584179 0.750000727
v 11.2259633 2.57664908 0.750000727
v 11.2200983 2.57456531 0.750000727
v 11.2134289 2.57384171 0.750000727
v 11.2067595 2.57456531 0.750000727
v 11.2008946 2.57664908 0.750000727
v 11.1965413 2.57984175 0.750000727
v 11.1942251 2.58375777 0.750000727
v 11.1942252 2.58792557 0.750000727
v 11.1965413 2.59184183 0.750000727
v 11.2008946 2.59503426 0.750000727
v 11.2067595 2.5971178 0.750000727
v 11.2134289 2.59784187 0.750000727
v 11.2200983 2.5971178 0.750000727
v 11.2259633 2.59503426 0.750000727
v 11.2303163 2.59184183 0.750000727
v 11.2326327 2.58792557 0.750000727
v 11.2329289 2.58584179 0.750000727
v 11.2326325 1.95975818 0.750000727
v 11.2303161 1.95584191 0.750000727
v 11.2134287 1.96184196 0.750000727
v 11.225963 1.95264949 0.750000727
v 11.220098 1.95056571 0.750000727
v 11.2134287 1.94984211 0.750000727
v 11.2067594 1.95056571 0.750000727
v 11.2008944 1.95264949 0.750000727
v 11.1965412 1.95584191 0.750000727
v 11.194225 1.95975818 0.750000727
v 11.194225 1.96392573 0.750000727
v 11.1965412 1.967842 0.750000727
v 11.2008944 1.97103466 0.750000727
v 11.2067594 1.97311844 0.750000727
v 11.2134287 1.97384204 0.750000727
v 11.220098 1.9731182 0.750000727
v 11.225963 1.97103442 0.750000727
v 11.2303161 1.967842 0.750000727
v 11.2326325 1.96392573 0.750000727
v 11.2329287 1.96184196 0.750000727
v 11.2326316 -0.664240613 0.750000727
v 11.2303154 -0.668156728 0.750000727
v 11.2134279 -0.662156746 0.750000727
v 11.2259622 -0.671349123 0.750000727
v 11.2200973 -0.673432991 0.750000727
v 11.2134279 -0.67415674 0.750000727
v 11.2067586 -0.673432991 0.750000727
v 11.2008936 -0.671349123 0.750000727
v 11.1965403 -0.668156728 0.750000727
v 11.1942241 -0.664240613 0.750000727
v 11.1942241 -0.660072997 0.750000727
v 11.1965403 -0.656156614 0.750000727
v 11.2008936 -0.652964219 0.750000727
v 11.2067586 -0.650880381 0.750000727
v 11.2134279 -0.650156632 0.750000727
v 11.2200973 -0.650880381 0.750000727
v 11.2259622 -0.652964219 0.750000727
v 11.2303154 -0.656156614 0.750000727
v 11.2326316 -0.660072997 0.750000727
v 11.2329279 -0.662156746 0.750000727
vt 0.297639996 1.02919102
vt 0.291774988 1.03127503
vt 0.28510499 1.01999903
vt 0.28510499 1.01999903
vt 0.291774988 1.03127503
vt 0.28510499 1.03199899
vt -0.75 1.01999903
vt -0.75 1.03199899
vt -0.75 1.01999903
vt 0.28510499 1.01999903
vt 0.28510499 1.03199899
vt 0.278436005 1.03127503
vt -0.75 1.01999903
vt -0.75 1.03127503
vt -0.75 1.01999903
vt 0.28510499 1.01999903
vt 0.278436005 1.03127503
vt 0.272570997 1.02919102
vt -0.75 1.01999903
vt -0.75 1.02919102
vt -0.75 1.01999903
vt 0.28510499 1.01999903
vt 0.272570997 1.02919102
vt 0.268218011 1.02599895
vt -0.75 1.01999903
vt -0.75 1.02599895
vt -0.75 1.01999903
vt 0.28510499 1.01999903
vt 0.268218011 1.02599895
vt 0.265902013 1.02208304
vt -0.75 1.01999903
vt -0.75 1.02208304
vt -0.75 1.01999903
vt 0.28510499 1.01999903
vt 0.265902013 1.02208304
vt 0.265902013 1.01791501
vt -0.75 1.01999903
vt -0.75 1.01791501
vt -0.75 1.01999903
vt 0.28510499 1.01999903
vt 0.265902013 1.01791501
vt 0.268218011 1.01399899
vt -0.75 1.01999903
vt -0.75 1.01399899
vt -0.75 1.01999903
vt 0.28510499 1.01999903
vt 0.268218011 1.01399899
vt 0.272570997 1.01080596
vt -0.75 1.01999903
vt -0.75 1.01080596
vt -0.75 1.01999903
vt 0.28510499 1.01999903
vt 0.272570997 1.01080596
vt 0.278436005 1.00872302
vt -0.75 1.01999903
vt -0.75 1.00872302
vt -0.75 1.01999903
vt 0.28510499 1.01999903
vt 0.278436005 1.00872302
vt 0.28510499 1.00799894
vt -0.75 1.01999903
vt -0.75 1.00799894
vt -0.75 1.01999903
vt 0.28510499 1.01999903
vt 0.28510499 1.00799894
vt 0.291774988 1.00872302
vt -0.75 1.01999903
vt -0.75 1.00872302
vt -0.75 1.01999903
vt 0.28510499 1.01999903
vt 0.291774988 1.00872302
vt 0.297639996 1.01080596
vt -0.75 1.01999903
vt -0.75 1.01080596
vt -0.75 1.01999903
vt 0.28510499 1.01999903
vt 0.297639996 1.01080596
vt 0.301993012 1.01399899
vt -0.75 1.01999903
vt -0.75 1.01399899
vt -0.75 1.01999903
vt 0.28510499 1.01999903
vt 0.301993012 1.01399899
vt 0.304309011 1.01791501
vt -0.75 1.01999903
vt -0.75 1.01791501
vt -0.75 1.01999903
vt 0.28510499 1.01999903
vt 0.304309011 1.01791501
vt 0.304605007 1.01999903
vt -0.75 1.01999903
vt -0.75 1.01999903
vt -0.75 1.01999903
vt 0.28510499 1.01999903
vt 0.304605007 1.01999903
vt 0.304309011 1.02208304
vt -0.75 1.01999903
vt -0.75 1.02208304
vt -0.75 1.01999903
vt 0.28510499 1.01999903
vt 0.304309011 1.02208304
vt 0.301993012 1.02599895
vt 0.28510499 1.01999903
vt 0.301993012 1.02599895
vt 0.297639996 1.02919102
vt 0.304309011 -1.60191703
vt 0.301993012 -1.598001
vt 0.28510499 -1.60400105
vt 0.28510499 -1.60400105
vt 0.301993012 -1.598001
vt 0.297639996 -1.59480798
vt -0.75 -1.60400105
vt -0.75 -1.59480798
vt -0.75 -1.60400105
vt 0.28510499 -1.60400105
vt 0.297639996 -1.59480798
vt 0.291774988 -1.59272504
vt -0.75 -1.60400105
vt -0.75 -1.59272504
vt -0.75 -1.60400105
vt 0.28510499 -1.60400105
vt 0.291774988 -1.59272504
vt 0.28510499 -1.59200096
vt -0.75 -1.60400105
vt -0.75 -1.59200096
vt -0.75 -1.60400105
vt 0.28510499 -1.60400105
vt 0.28510499 -1.59200096
vt 0.278436005 -1.59272504
vt -0.75 -1.60400105
vt -0.75 -1.59272504
vt -0.75 -1.60400105
vt 0.28510499 -1.60400105
vt 0.278436005 -1.59272504
vt 0.272570997 -1.59480798
vt -0.75 -1.60400105
vt -0.75 -1.59480798
vt -0.75 -1.60400105
vt 0.28510499 -1.60400105
vt 0.272570997 -1.59480798
vt 0.268218011 -1.598001
vt -0.75 -1.60400105
vt -0.75 -1.598001
vt -0.75 -1.60400105
vt 0.28510499 -1.60400105
vt 0.268218011 -1.598001
vt 0.265902013 -1.60191703
vt -0.75 -1.60400105
vt -0.75 -1.60191703
vt -0.75 -1.60400105
vt 0.28510499 -1.60400105
vt 0.265902013 -1.60191703
vt 0.265902013 -1.60608494
vt -0.75 -1.60400105
vt -0.75 -1.60608494
vt -0.75 -1.60400105
vt 0.28510499 -1.60400105
vt 0.265902013 -1.60608494
vt 0.268218011 -1.61000097
vt -0.75 -1.60400105
vt -0.75 -1.61000097
vt -0.75 -1.60400105
vt 0.28510499 -1.60400105
vt 0.268218011 -1.61000097
vt 0.272570997 -1.61319399
vt -0.75 -1.60400105
vt -0.75 -1.61319399
vt -0.75 -1.60400105
vt 0.28510499 -1.60400105
vt 0.272570997 -1.61319399
vt 0.278436005 -1.61527705
vt -0.75 -1.60400105
vt -0.75 -1.61527705
vt -0.75 -1.60400105
vt 0.28510499 -1.60400105
vt 0.278436005 -1.61527705
vt 0.28510499 -1.61600101
vt -0.75 -1.60400105
vt -0.75 -1.61600101
vt -0.75 -1.60400105
vt 0.28510499 -1.60400105
vt 0.28510499 -1.61600101
vt 0.291774988 -1.61527705
vt -0.75 -1.60400105
vt -0.75 -1.61527705
vt -0.75 -1.60400105
vt 0.28510499 -1.60400105
vt 0.291774988 -1.61527705
vt 0.297639996 -1.61319399
vt -0.75 -1.60400105
vt -0.75 -1.61319399
vt -0.75 -1.60400105
vt 0.28510499 -1.60400105
vt 0.297639996 -1.61319399
vt 0.301993012 -1.61000097
vt -0.75 -1.60400105
vt -0.75 -1.61000097
vt -0.75 -1.60400105
vt 0.28510499 -1.60400105
vt 0.301993012 -1.61000097
vt 0.304309011 -1.60608494
vt -0.75 -1.60400105
vt -0.75 -1.60608494
vt -0.75 -1.60400105
vt 0.28510499 -1.60400105
vt 0.304309011 -1.60608494
vt 0.304605007 -1.60400105
vt 0.28510499 -1.60400105
vt 0.304605007 -1.60400105
vt 0.304309011 -1.60191703
vt 0.304309011 -0.977917016
vt 0.301993012 -0.97400099
vt 0.28510499 -0.980000973
vt 0.28510499 -0.980000973
vt 0.301993012 -0.97400099
vt 0.297639996 -0.970808029
vt -0.75 -0.980000973
vt -0.75 -0.970808029
vt -0.75 -0.980000973
vt 0.28510499 -0.980000973
vt 0.297639996 -0.970808029
vt 0.291774988 -0.968725026
vt -0.75 -0.980000973
vt -0.75 -0.968725026
vt -0.75 -0.980000973
vt 0.28510499 -0.980000973
vt 0.291774988 -0.968725026
vt 0.28510499 -0.968001008
vt -0.75 -0.980000973
vt -0.75 -0.968001008
vt -0.75 -0.980000973
vt 0.28510499 -0.980000973
vt 0.28510499 -0.968001008
vt 0.278436005 -0.968725026
vt -0.75 -0.980000973
vt -0.75 -0.968725026
vt -0.75 -0.980000973
vt 0.28510499 -0.980000973
vt 0.278436005 -0.968725026
vt 0.272570997 -0.970808029
vt -0.75 -0.980000973
vt -0.75 -0.970808029
vt -0.75 -0.980000973
vt 0.28510499 -0.980000973
vt 0.272570997 -0.970808029
vt 0.268218011 -0.97400099
vt -0.75 -0.980000973
vt -0.75 -0.97400099
vt -0.75 -0.980000973
vt 0.28510499 -0.980000973
vt 0.268218011 -0.97400099
vt 0.265902013 -0.977917016
vt -0.75 -0.980000973
vt -0.75 -0.977917016
vt -0.75 -0.980000973
vt 0.28510499 -0.980000973
vt 0.265902013 -0.977917016
vt 0.265902013 -0.98208499
vt -0.75 -0.980000973
vt -0.75 -0.98208499
vt -0.75 -0.980000973
vt 0.28510499 -0.980000973
vt 0.265902013 -0.98208499
vt 0.268218011 -0.986001015
vt -0.75 -0.980000973
vt -0.75 -0.986001015
vt -0.75 -0.980000973
vt 0.28510499 -0.980000973
vt 0.268218011 -0.986001015
vt 0.272570997 -0.989193022
vt -0.75 -0.980000973
vt -0.75 -0.989193022
vt -0.75 -0.980000973
vt 0.28510499 -0.980000973
vt 0.272570997 -0.989193022
vt 0.278436005 -0.991276979
vt -0.75 -0.980000973
vt -0.75 -0.991276979
vt -0.75 -0.980000973
vt 0.28510499 -0.980000973
vt 0.278436005 -0.991276979
vt 0.28510499 -0.992000997
vt -0.75 -0.980000973
vt -0.75 -0.992000997
vt -0.75 -0.980000973
vt 0.28510499 -0.980000973
vt 0.28510499 -0.992000997
vt 0.291774988 -0.991276979
vt -0.75 -0.980000973
vt -0.75 -0.991276979
vt -0.75 -0.980000973
vt 0.28510499 -0.980000973
vt 0.291774988 -0.991276979
vt 0.297639996 -0.989193022
vt -0.75 -0.980000973
vt -0.75 -0.989193022
vt -0.75 -0.980000973
vt 0.28510499 -0.980000973
vt 0.297639996 -0.989193022
vt 0.301993012 -0.986001015
vt -0.75 -0.980000973
vt -0.75 -0.986001015
vt -0.75 -0.980000973
vt 0.28510499 -0.980000973
vt 0.301993012 -0.986001015
vt 0.304309011 -0.98208499
vt -0.75 -0.980000973
vt -0.75 -0.98208499
vt -0.75 -0.980000973
vt 0.28510499 -0.980000973
vt 0.304309011 -0.98208499
vt 0.304605007 -0.980000973
vt 0.28510499 -0.980000973
vt 0.304605007 -0.980000973
vt 0.304309011 -0.977917016
vt 0.304309011 1.646083
vt 0.301993012 1.64999902
vt 0.28510499 1.64399898
vt 0.28510499 1.64399898
vt 0.301993012 1.64999902
vt 0.297639996 1.65319097
vt -0.75 1.64399898
vt -0.75 1.65319097
vt -0.75 1.64399898
vt 0.28510499 1.64399898
vt 0.297639996 1.65319097
vt 0.291774988 1.65527499
vt -0.75 1.64399898
vt -0.75 1.65527499
vt -0.75 1.64399898
vt 0.28510499 1.64399898
vt 0.291774988 1.65527499
vt 0.28510499 1.65599895
vt -0.75 1.64399898
vt -0.75 1.65599895
vt -0.75 1.64399898
vt 0.28510499 1.64399898
vt 0.28510499 1.65599895
vt 0.278436005 1.65527499
vt -0.75 1.64399898
vt -0.75 1.65527499
vt -0.75 1.64399898
vt 0.28510499 1.64399898
vt 0.278436005 1.65527499
vt 0.272570997 1.65319097
vt -0.75 1.64399898
vt -0.75 1.65319097
vt -0.75 1.64399898
vt 0.28510499 1.64399898
vt 0.272570997 1.65319097
vt 0.268218011 1.64999902
vt -0.75 1.64399898
vt -0.75 1.64999902
vt -0.75 1.64399898
vt 0.28510499 1.64399898
vt 0.268218011 1.64999902
vt 0.265902013 1.646083
vt -0.75 1.64399898
vt -0.75 1.646083
vt -0.75 1.64399898
vt 0.28510499 1.64399898
vt 0.265902013 1.646083
vt 0.265902013 1.64191496
vt -0.75 1.64399898
vt -0.75 1.64191496
vt -0.75 1.64399898
vt 0.28510499 1.64399898
vt 0.265902013 1.64191496
vt 0.268218011 1.63799906
vt -0.75 1.64399898
vt -0.75 1.63799906
vt -0.75 1.64399898
vt 0.28510499 1.64399898
vt 0.268218011 1.63799906
vt 0.272570997 1.63480604
vt -0.75 1.64399898
vt -0.75 1.63480604
vt -0.75 1.64399898
vt 0.28510499 1.64399898
vt 0.272570997 1.63480604
vt 0.278436005 1.63272297
vt -0.75 1.64399898
vt -0.75 1.63272297
vt -0.75 1.64399898
vt 0.28510499 1.64399898
vt 0.278436005 1.63272297
vt 0.28510499 1.63199902
vt -0.75 1.64399898
vt -0.75 1.63199902
vt -0.75 1.64399898
vt 0.28510499 1.64399898
vt 0.28510499 1.63199902
vt 0.291774988 1.63272297
vt -0.75 1.64399898
vt -0.75 1.63272297
vt -0.75 1.64399898
vt 0.28510499 1.64399898
vt 0.291774988 1.63272297
vt 0.297639996 1.63480604
vt -0.75 1.64399898
vt -0.75 1.63480604
vt -0.75 1.64399898
vt 0.28510499 1.64399898
vt 0.297639996 1.63480604
vt 0.301993012 1.63799906
vt -0.75 1.64399898
vt -0.75 1.63799906
vt -0.75 1.64399898
vt 0.28510499 1.64399898
vt 0.301993012 1.63799906
vt 0.304309011 1.64191496
vt -0.75 1.64399898
vt -0.75 1.64191496
vt -0.75 1.64399898
vt 0.28510499 1.64399898
vt 0.304309011 1.64191496
vt 0.304605007 1.64399898
vt 0.28510499 1.64399898
vt 0.304605007 1.64399898
vt 0.304309011 1.646083
f 1/1 2/2 3/3
f 3/4 2/5 4/6
f 3/7 4/8 3/9
f 3/10 4/11 5/12
f 3/13 5/14 3/15
f 3/16 5/17 6/18
f 3/19 6/20 3/21
f 3/22 6/23 7/24
f 3/25 7/26 3/27
f 3/28 7/29 8/30
f 3/31 8/32 3/33
f 3/34 8/35 9/36
f 3/37 9/38 3/39
f 3/40 9/41 10/42
f 3/43 10/44 3/45
f 3/46 10/47 11/48
f 3/49 11/50 3/51
f 3/52 11/53 12/54
f 3/55 12/56 3/57
f 3/58 12/59 13/60
f 3/61 13/62 3/63
f 3/64 13/65 14/66
f 3/67 14/68 3/69
f 3/70 14/71 15/72
f 3/73 15/74 3/75
f 3/76 15/77 16/78
f 3/79 16/80 3/81
f 3/82 16/83 17/84
f 3/85 17/86 3/87
f 3/88 17/89 18/90
f 3/91 18/92 3/93
f 3/94 18/95 19/96
f 3/97 19/98 3/99
f 3/100 19/101 20/102
f 3/103 20/104 1/105
f 21/106 22/107 23/108
f 23/109 22/110 24/111
f 23/112 24/113 23/114
f 23/115 24/116 25/117
f 23/118 25/119 23/120
f 23/121 25/122 26/123
f 23/124 26/125 23/126
f 23/127 26/128 27/129
f 23/130 27/131 23/132
f 23/133 27/134 28/135
f 23/136 28/137 23/138
f 23/139 28/140 29/141
f 23/142 29/143 23/144
f 23/145 29/146 30/147
f 23/148 30/149 23/150
f 23/151 30/152 31/153
f 23/154 31/155 23/156
f 23/157 31/158 32/159
f 23/160 32/161 23/162
f 23/163 32/164 33/165
f 23/166 33/167 23/168
f 23/169 33/170 34/171
f 23/172 34/173 23/174
f 23/175 34/176 35/177
f 23/178 35/179 23/180
f 23/181 35/182 36/183
f 23/184 36/185 23/186
f 23/187 36/188 37/189
f 23/190 37/191 23/192
f 23/193 37/194 38/195
f 23/196 38/197 23/198
f 23/199 38/200 39/201
f 23/202 39/203 23/204
f 23/205 39/206 40/207
f 23/208 40/209 21/210
f 41/211 42/212 43/213
f 43/214 42/215 44/216
f 43/217 44/218 43/219
f 43/220 44/221 45/222
f 43/223 45/224 43/225
f 43/226 45/227 46/228
f 43/229 46/230 43/231
f 43/232 46/233 47/234
f 43/235 47/236 43/237
f 43/238 47/239 48/240
f 43/241 48/242 43/243
f 43/244 48/245 49/246
f 43/247 49/248 43/249
f 43/250 49/251 50/252
f 43/253 50/254 43/255
f 43/256 50/257 51/258
f 43/259 51/260 43/261
f 43/262 51/263 52/264
f 43/265 52/266 43/267
f 43/268 52/269 53/270
f 43/271 53/272 43/273
f 43/274 53/275 54/276
f 43/277 54/278 43/279
f 43/280 54/281 55/282
f 43/283 55/284 43/285
f 43/286 55/287 56/288
f 43/289 56/290 43/291
f 43/292 56/293 57/294
f 43/295 57/296 43/297
f 43/298 57/299 58/300
f 43/301 58/302 43/303
f 43/304 58/305 59/306
f 43/307 59/308 43/309
f 43/310 59/311 60/312
f 43/313 60/314 41/315
f 61/316 62/317 63/318
f 63/319 62/320 64/321
f 63/322 64/323 63/324
f 63/325 64/326 65/327
f 63/328 65/329 63/330
f 63/331 65/332 66/333
f 63/334 66/335 63/336
f 63/337 66/338 67/339
f 63/340 67/341 63/342
f 63/343 67/344 68/345
f 63/346 68/347 63/348
f 63/349 68/350 69/351
f 63/352 69/353 63/354
f 63/355 69/356 70/357
f 63/358 70/359 63/360
f 63/361 70/362 71/363
f 63/364 71/365 63/366
f 63/367 71/368 72/369
f 63/370 72/371 63/372
f 63/373 72/374 73/375
f 63/376 73/377 63/378
f 63/379 73/380 74/381
f 63/382 74/383 63/384
f 63/385 74/386 75/387
f 63/388 75/389 63/390
f 63/391 75/392 76/393
f 63/394 76/395 63/396
f 63/397 76/398 77/399
f 63/400 77/401 63/402
f 63/403 77/404 78/405
f 63/406 78/407 63/408
f 63/409 78/410 79/411
f 63/412 79/413 63/414
f 63/415 79/416 80/417
f 63/418 80/419 61/420
