# Exported from USD for MuJoCo with source material subsets
v 4.65993866 -7.72260612 0.0463962555
v 4.65993866 -7.7226457 0.04486835
v 4.65993866 -7.69514555 0.04486835
v 5.0839385 -6.82618421 0.0439572334
v 5.0839385 -6.82614559 0.0448783636
v 5.0839385 -6.79864544 0.0448783636
v 4.65993866 -6.79864544 0.04486835
v 4.65993866 -6.82614559 0.04486835
v 4.65993866 -6.82618421 0.0439469814
v 4.65993866 -7.69510692 0.0439469814
v 5.0839385 -6.79868549 0.0464061499
v 5.10793849 -6.79868549 0.0464061499
v 5.10793849 -6.82614559 0.0448783636
v 5.10793849 -6.79864544 0.0448783636
v 4.65993866 -6.79868549 0.0463962555
v 4.63593861 -6.79864544 0.04486835
v 4.63593861 -6.82614559 0.04486835
v 4.63593861 -6.79868549 0.0463962555
v 4.63593861 -6.82618421 0.0439469814
v 4.63593861 -7.69514555 0.04486835
v 4.63593861 -7.7226457 0.04486835
v 4.63593861 -7.72260612 0.0463962555
v 4.63593861 -7.69510692 0.0439469814
v 5.10793849 -6.82618421 0.0439572334
v 5.0839385 -6.82649082 0.0476249456
v 5.0839385 -6.79963344 0.0524628162
v 5.0839385 -6.80181879 0.0583010912
v 5.0839385 -6.82799572 0.0510891676
v 5.0839385 -6.80517858 0.0637533665
v 5.0839385 -6.83058685 0.0540927649
v 5.0839385 -6.80961603 0.0686626434
v 5.0839385 -6.81500381 0.0728876591
v 5.0839385 -6.83407253 0.0564130545
v 5.0839385 -6.82118696 0.0763069391
v 5.0839385 -6.82798761 0.0788218975
v 5.0839385 -6.83819383 0.0578776598
v 5.0839385 -6.83520979 0.080360651
v 5.0839385 -6.84264559 0.058378458
v 5.0839385 -6.84264559 0.080878377
v 5.0839385 -6.85008138 0.080360651
v 5.0839385 -6.84709734 0.0578776598
v 5.0839385 -6.85730356 0.0788218975
v 5.0839385 -6.85121864 0.0564130545
v 5.0839385 -6.86410469 0.0763069391
v 5.0839385 -6.87028784 0.0728876591
v 5.0839385 -6.8547048 0.0540927649
v 5.0839385 -6.87567514 0.0686626434
v 5.0839385 -6.88011259 0.0637533665
v 5.0839385 -6.85729593 0.0510891676
v 5.0839385 -6.88347238 0.0583010912
v 5.0839385 -6.85880083 0.0476249456
v 5.0839385 -6.88565821 0.0524628162
v 5.0839385 -6.88660568 0.0464061499
v 5.0839385 -6.85910744 0.0439572334
v 5.0839385 -6.88628954 0.0403058529
v 5.0839385 -6.85819286 0.0403574705
v 5.0839385 -6.88471645 0.0343368053
v 5.0839385 -6.88193458 0.0286710262
v 5.0839385 -6.85612577 0.0370930433
v 5.0839385 -6.87802166 0.0234715939
v 5.0839385 -6.87309068 0.0188879967
v 5.0839385 -6.85305876 0.0344061852
v 5.0839385 -6.86728472 0.0150519609
v 5.0839385 -6.84921926 0.0324959755
v 5.0839385 -6.86076969 0.0120741129
v 5.0839385 -6.853733 0.0100400448
v 5.0839385 -6.84489244 0.0315041542
v 5.0839385 -6.84637684 0.00900804996
v 5.0839385 -6.83891386 0.00900804996
v 5.0839385 -6.84039873 0.0315041542
v 5.0839385 -6.83155865 0.0100400448
v 5.0839385 -6.83607239 0.0324959755
v 5.0839385 -6.82452196 0.0120741129
v 5.0839385 -6.81800646 0.0150519609
v 5.0839385 -6.83223289 0.0344061852
v 5.0839385 -6.81220001 0.0188879967
v 5.0839385 -6.82916588 0.0370930433
v 5.0839385 -6.80726999 0.0234715939
v 5.0839385 -6.80335707 0.0286710262
v 5.0839385 -6.82709879 0.0403574705
v 5.0839385 -6.80057424 0.0343368053
v 5.0839385 -6.79900211 0.0403058529
v 5.10793849 -6.79900211 0.0403058529
v 5.10793849 -6.82709879 0.0403574705
v 5.10793849 -6.80057424 0.0343368053
v 5.10793849 -6.80335707 0.0286710262
v 5.10793849 -6.82916588 0.0370932817
v 5.10793849 -6.80726999 0.0234715939
v 5.10793849 -6.81220001 0.0188879967
v 5.10793849 -6.83223289 0.0344061852
v 5.10793849 -6.81800646 0.0150519609
v 5.10793849 -6.83607239 0.0324959755
v 5.10793849 -6.82452196 0.0120742321
v 5.10793849 -6.83155865 0.0100400448
v 5.10793849 -6.84039873 0.0315041542
v 5.10793849 -6.83891386 0.00900804996
v 5.10793849 -6.84637684 0.00900804996
v 5.10793849 -6.84489244 0.0315041542
v 5.10793849 -6.853733 0.0100400448
v 5.10793849 -6.84921926 0.0324959755
v 5.10793849 -6.86076969 0.0120742321
v 5.10793849 -6.86728472 0.0150519609
v 5.10793849 -6.85305876 0.0344061852
v 5.10793849 -6.87309068 0.0188879967
v 5.10793849 -6.85612577 0.0370932817
v 5.10793849 -6.87802166 0.0234715939
v 5.10793849 -6.88193458 0.0286710262
v 5.10793849 -6.85819286 0.0403574705
v 5.10793849 -6.88471645 0.0343368053
v 5.10793849 -6.88628954 0.0403058529
v 5.10793849 -6.85910744 0.0439572334
v 5.10793849 -6.88660568 0.0464061499
v 5.10793849 -6.85880083 0.0476249456
v 5.10793849 -6.88565821 0.0524629354
v 5.10793849 -6.88347238 0.0583013296
v 5.10793849 -6.85729593 0.0510891676
v 5.10793849 -6.88011259 0.0637533665
v 5.10793849 -6.8547048 0.0540928841
v 5.10793849 -6.87567514 0.0686626434
v 5.10793849 -6.87028784 0.0728876591
v 5.10793849 -6.85121864 0.0564130545
v 5.10793849 -6.86410469 0.0763069391
v 5.10793849 -6.85730356 0.0788220167
v 5.10793849 -6.84709734 0.057877779
v 5.10793849 -6.85008138 0.080360651
v 5.10793849 -6.84264559 0.058378458
v 5.10793849 -6.84264559 0.080878377
v 5.10793849 -6.83520979 0.080360651
v 5.10793849 -6.83819383 0.057877779
v 5.10793849 -6.82798761 0.0788220167
v 5.10793849 -6.83407253 0.0564130545
v 5.10793849 -6.82118696 0.0763069391
v 5.10793849 -6.81500381 0.0728876591
v 5.10793849 -6.83058685 0.0540928841
v 5.10793849 -6.80961603 0.0686626434
v 5.10793849 -6.80517858 0.0637533665
v 5.10793849 -6.82799572 0.0510891676
v 5.10793849 -6.80181879 0.0583013296
v 5.10793849 -6.82649082 0.0476249456
v 5.10793849 -6.79963344 0.0524629354
v 4.63593861 -7.72228903 0.0402957201
v 4.63593861 -7.69419283 0.0403474569
v 4.63593861 -7.72071642 0.0343266726
v 4.63593861 -7.71793455 0.0286610126
v 4.63593861 -7.69212574 0.037083149
v 4.63593861 -7.71402162 0.0234614611
v 4.63593861 -7.70909065 0.0188778639
v 4.63593861 -7.68905872 0.0343961716
v 4.63593861 -7.70328468 0.0150419474
v 4.63593861 -7.68521923 0.0324859619
v 4.63593861 -7.69676918 0.0120640993
v 4.63593861 -7.68973249 0.010029912
v 4.63593861 -7.68089193 0.0314940214
v 4.63593861 -7.6823768 0.00899803638
v 4.63593861 -7.67491382 0.00899803638
v 4.63593861 -7.67639869 0.0314940214
v 4.63593861 -7.66755861 0.010029912
v 4.63593861 -7.6720714 0.0324859619
v 4.63593861 -7.66052192 0.0120640993
v 4.63593861 -7.65400642 0.0150419474
v 4.63593861 -7.66823238 0.0343961716
v 4.63593861 -7.64819998 0.0188778639
v 4.63593861 -7.66516537 0.037083149
v 4.63593861 -7.64326948 0.0234614611
v 4.63593861 -7.63935703 0.0286610126
v 4.63593861 -7.66309828 0.0403474569
v 4.63593861 -7.63657421 0.0343266726
v 4.63593861 -7.63500208 0.0402957201
v 4.63593861 -7.66218418 0.0439469814
v 4.63593861 -7.63468498 0.0463962555
v 4.63593861 -7.66249079 0.0476150513
v 4.63593861 -7.63563341 0.0524528027
v 4.63593861 -7.63781828 0.0582910776
v 4.63593861 -7.66399568 0.051079154
v 4.63593861 -7.64117807 0.0637433529
v 4.63593861 -7.66658682 0.0540827513
v 4.63593861 -7.645616 0.0686526299
v 4.63593861 -7.65100378 0.0728776455
v 4.63593861 -7.67007202 0.0564030409
v 4.63593861 -7.65718693 0.0762969255
v 4.63593861 -7.6639871 0.0788118839
v 4.63593861 -7.6741938 0.0578676462
v 4.63593861 -7.67120975 0.0803505182
v 4.63593861 -7.67864555 0.0583683252
v 4.63593861 -7.67864555 0.0808682442
v 4.63593861 -7.68608183 0.0803505182
v 4.63593861 -7.6830973 0.0578676462
v 4.63593861 -7.69330353 0.0788118839
v 4.63593861 -7.68721861 0.0564030409
v 4.63593861 -7.70010418 0.0762969255
v 4.63593861 -7.70628732 0.0728776455
v 4.63593861 -7.69070429 0.0540827513
v 4.63593861 -7.71167511 0.0686526299
v 4.63593861 -7.71611255 0.0637433529
v 4.63593861 -7.6932959 0.051079154
v 4.63593861 -7.71947283 0.0582910776
v 4.63593861 -7.69480032 0.0476150513
v 4.63593861 -7.72165817 0.0524528027
v 4.65993866 -6.82649082 0.0476150513
v 4.65993866 -6.79963344 0.0524528027
v 4.65993866 -6.80181879 0.0582910776
v 4.65993866 -6.82799572 0.051079154
v 4.65993866 -6.80517858 0.0637433529
v 4.65993866 -6.83058685 0.0540827513
v 4.65993866 -6.80961603 0.0686526299
v 4.65993866 -6.81500381 0.0728776455
v 4.65993866 -6.83407253 0.0564030409
v 4.65993866 -6.82118696 0.0762969255
v 4.65993866 -6.82798761 0.0788118839
v 4.65993866 -6.83819383 0.0578676462
v 4.65993866 -6.83520979 0.0803505182
v 4.65993866 -6.84264559 0.0583683252
v 4.65993866 -6.84264559 0.0808682442
v 4.65993866 -6.85008138 0.0803505182
v 4.65993866 -6.84709734 0.0578676462
v 4.65993866 -6.85730356 0.0788118839
v 4.65993866 -6.85121864 0.0564030409
v 4.65993866 -6.86410469 0.0762969255
v 4.65993866 -6.87028784 0.0728776455
v 4.65993866 -6.8547048 0.0540827513
v 4.65993866 -6.87567514 0.0686526299
v 4.65993866 -6.88011259 0.0637433529
v 4.65993866 -6.85729593 0.051079154
v 4.65993866 -6.88347238 0.0582910776
v 4.65993866 -6.85880083 0.0476150513
v 4.65993866 -6.88565821 0.0524528027
v 4.65993866 -6.88660568 0.0463962555
v 4.65993866 -6.85910744 0.0439469814
v 4.65993866 -6.88628954 0.0402957201
v 4.65993866 -6.85819286 0.0403474569
v 4.65993866 -6.88471645 0.0343267918
v 4.65993866 -6.88193458 0.0286610126
v 4.65993866 -6.85612577 0.037083149
v 4.65993866 -6.87802166 0.0234614611
v 4.65993866 -6.87309068 0.0188778639
v 4.65993866 -6.85305876 0.0343961716
v 4.65993866 -6.86728472 0.0150419474
v 4.65993866 -6.84921926 0.0324859619
v 4.65993866 -6.86076969 0.0120640993
v 4.65993866 -6.853733 0.0100300312
v 4.65993866 -6.84489244 0.0314941406
v 4.65993866 -6.84637684 0.00899803638
v 4.65993866 -6.84039873 0.0314941406
v 4.65993866 -6.83891386 0.00899803638
v 4.65993866 -6.83155865 0.0100300312
v 4.65993866 -6.83607239 0.0324859619
v 4.65993866 -6.82452196 0.0120640993
v 4.65993866 -6.81800646 0.0150419474
v 4.65993866 -6.83223289 0.0343961716
v 4.65993866 -6.81220001 0.0188778639
v 4.65993866 -6.82916588 0.037083149
v 4.65993866 -6.80726999 0.0234614611
v 4.65993866 -6.80335707 0.0286610126
v 4.65993866 -6.82709879 0.0403474569
v 4.65993866 -6.80057424 0.0343267918
v 4.65993866 -6.79900211 0.0402957201
v 4.63593861 -6.79900211 0.0402957201
v 4.63593861 -6.82709879 0.0403474569
v 4.63593861 -6.80057424 0.0343266726
v 4.63593861 -6.80335707 0.0286610126
v 4.63593861 -6.82916588 0.037083149
v 4.63593861 -6.80726999 0.0234614611
v 4.63593861 -6.81220001 0.0188778639
v 4.63593861 -6.83223289 0.0343961716
v 4.63593861 -6.81800646 0.0150419474
v 4.63593861 -6.83607239 0.0324859619
v 4.63593861 -6.82452196 0.0120640993
v 4.63593861 -6.83155865 0.010029912
v 4.63593861 -6.84039873 0.0314940214
v 4.63593861 -6.83891386 0.00899803638
v 4.63593861 -6.84489244 0.0314940214
v 4.63593861 -6.84637684 0.00899803638
v 4.63593861 -6.853733 0.010029912
v 4.63593861 -6.84921926 0.0324859619
v 4.63593861 -6.86076969 0.0120640993
v 4.63593861 -6.86728472 0.0150419474
v 4.63593861 -6.85305876 0.0343961716
v 4.63593861 -6.87309068 0.0188778639
v 4.63593861 -6.85612577 0.037083149
v 4.63593861 -6.87802166 0.0234614611
v 4.63593861 -6.88193458 0.0286610126
v 4.63593861 -6.85819286 0.0403474569
v 4.63593861 -6.88471645 0.0343266726
v 4.63593861 -6.88628954 0.0402957201
v 4.63593861 -6.85910744 0.0439469814
v 4.63593861 -6.88660568 0.0463962555
v 4.63593861 -6.85880083 0.0476150513
v 4.63593861 -6.88565821 0.0524528027
v 4.63593861 -6.88347238 0.0582910776
v 4.63593861 -6.85729593 0.051079154
v 4.63593861 -6.88011259 0.0637433529
v 4.63593861 -6.8547048 0.0540827513
v 4.63593861 -6.87567514 0.0686526299
v 4.63593861 -6.87028784 0.0728776455
v 4.63593861 -6.85121864 0.0564030409
v 4.63593861 -6.86410469 0.0762969255
v 4.63593861 -6.85730356 0.0788118839
v 4.63593861 -6.84709734 0.0578676462
v 4.63593861 -6.85008138 0.0803505182
v 4.63593861 -6.84264559 0.0583683252
v 4.63593861 -6.84264559 0.0808682442
v 4.63593861 -6.83520979 0.0803505182
v 4.63593861 -6.83819383 0.0578676462
v 4.63593861 -6.82798761 0.0788118839
v 4.63593861 -6.83407253 0.0564030409
v 4.63593861 -6.82118696 0.0762969255
v 4.63593861 -6.81500381 0.0728776455
v 4.63593861 -6.83058685 0.0540827513
v 4.63593861 -6.80961603 0.0686526299
v 4.63593861 -6.80517858 0.0637433529
v 4.63593861 -6.82799572 0.051079154
v 4.63593861 -6.80181879 0.0582910776
v 4.63593861 -6.82649082 0.0476150513
v 4.63593861 -6.79963344 0.0524528027
v 4.65993866 -7.72228903 0.0402957201
v 4.65993866 -7.69419283 0.0403474569
v 4.65993866 -7.72071642 0.0343267918
v 4.65993866 -7.71793455 0.0286610126
v 4.65993866 -7.69212574 0.037083149
v 4.65993866 -7.71402162 0.0234614611
v 4.65993866 -7.70909065 0.0188778639
v 4.65993866 -7.68905872 0.0343961716
v 4.65993866 -7.70328468 0.0150419474
v 4.65993866 -7.68521923 0.0324859619
v 4.65993866 -7.69676918 0.0120640993
v 4.65993866 -7.68973249 0.0100300312
v 4.65993866 -7.68089193 0.0314941406
v 4.65993866 -7.6823768 0.00899803638
v 4.65993866 -7.67491382 0.00899803638
v 4.65993866 -7.67639869 0.0314941406
v 4.65993866 -7.66755861 0.0100300312
v 4.65993866 -7.6720714 0.0324859619
v 4.65993866 -7.66052192 0.0120640993
v 4.65993866 -7.65400642 0.0150419474
v 4.65993866 -7.66823238 0.0343961716
v 4.65993866 -7.64819998 0.0188778639
v 4.65993866 -7.66516537 0.037083149
v 4.65993866 -7.64326948 0.0234614611
v 4.65993866 -7.63935703 0.0286610126
v 4.65993866 -7.66309828 0.0403474569
v 4.65993866 -7.63657421 0.0343267918
v 4.65993866 -7.63500208 0.0402957201
v 4.65993866 -7.66218418 0.0439469814
v 4.65993866 -7.63468498 0.0463962555
v 4.65993866 -7.66249079 0.0476150513
v 4.65993866 -7.63563341 0.0524528027
v 4.65993866 -7.63781828 0.0582910776
v 4.65993866 -7.66399568 0.051079154
v 4.65993866 -7.64117807 0.0637433529
v 4.65993866 -7.66658682 0.0540827513
v 4.65993866 -7.645616 0.0686526299
v 4.65993866 -7.65100378 0.0728776455
v 4.65993866 -7.67007202 0.0564030409
v 4.65993866 -7.65718693 0.0762969255
v 4.65993866 -7.6639871 0.0788118839
v 4.65993866 -7.6741938 0.0578676462
v 4.65993866 -7.67120975 0.0803505182
v 4.65993866 -7.67864555 0.0583683252
v 4.65993866 -7.67864555 0.0808682442
v 4.65993866 -7.68608183 0.0803505182
v 4.65993866 -7.6830973 0.0578676462
v 4.65993866 -7.69330353 0.0788118839
v 4.65993866 -7.68721861 0.0564030409
v 4.65993866 -7.70010418 0.0762969255
v 4.65993866 -7.70628732 0.0728776455
v 4.65993866 -7.69070429 0.0540827513
v 4.65993866 -7.71167511 0.0686526299
v 4.65993866 -7.71611255 0.0637433529
v 4.65993866 -7.6932959 0.051079154
v 4.65993866 -7.71947283 0.0582910776
v 4.65993866 -7.69480032 0.0476150513
v 4.65993866 -7.72165817 0.0524528027
v 5.0839385 -7.7226457 0.0448684692
v 5.0839385 -7.69514555 0.0448684692
v 5.0839385 -7.69510692 0.0439473391
v 5.0839385 -7.72260612 0.0463964939
v 5.0839385 -7.72228903 0.0402959585
v 5.0839385 -7.69419283 0.0403476954
v 5.0839385 -7.72071642 0.034326911
v 5.0839385 -7.71793455 0.0286612511
v 5.0839385 -7.69212574 0.0370833874
v 5.0839385 -7.71402162 0.0234618187
v 5.0839385 -7.70909065 0.0188782215
v 5.0839385 -7.68905872 0.0343965292
v 5.0839385 -7.70328468 0.0150421858
v 5.0839385 -7.68521923 0.0324862003
v 5.0839385 -7.69676918 0.0120643377
v 5.0839385 -7.68973249 0.0100301504
v 5.0839385 -7.68089193 0.0314942598
v 5.0839385 -7.6823768 0.0089982748
v 5.0839385 -7.67639869 0.0314942598
v 5.0839385 -7.67491382 0.0089982748
v 5.0839385 -7.66755861 0.0100301504
v 5.0839385 -7.6720714 0.0324862003
v 5.0839385 -7.66052192 0.0120643377
v 5.0839385 -7.65400642 0.0150421858
v 5.0839385 -7.66823238 0.0343965292
v 5.0839385 -7.64819998 0.0188782215
v 5.0839385 -7.66516537 0.0370833874
v 5.0839385 -7.64326948 0.0234618187
v 5.0839385 -7.63935703 0.0286612511
v 5.0839385 -7.66309828 0.0403476954
v 5.0839385 -7.63657421 0.034326911
v 5.0839385 -7.63500208 0.0402959585
v 5.0839385 -7.66218418 0.0439473391
v 5.0839385 -7.63468498 0.0463964939
v 5.0839385 -7.66249079 0.0476151705
v 5.0839385 -7.63563341 0.0524530411
v 5.0839385 -7.63781828 0.0582914352
v 5.0839385 -7.66399568 0.0510795116
v 5.0839385 -7.64117807 0.0637437105
v 5.0839385 -7.66658682 0.0540829897
v 5.0839385 -7.645616 0.0686527491
v 5.0839385 -7.65100378 0.0728777647
v 5.0839385 -7.67007202 0.0564031601
v 5.0839385 -7.65718693 0.0762970448
v 5.0839385 -7.6639871 0.0788121223
v 5.0839385 -7.6741938 0.0578678846
v 5.0839385 -7.67120975 0.0803507566
v 5.0839385 -7.67864555 0.0583684444
v 5.0839385 -7.67864555 0.0808684826
v 5.0839385 -7.68608183 0.0803507566
v 5.0839385 -7.6830973 0.0578678846
v 5.0839385 -7.69330353 0.0788121223
v 5.0839385 -7.68721861 0.0564031601
v 5.0839385 -7.70010418 0.0762970448
v 5.0839385 -7.70628732 0.0728777647
v 5.0839385 -7.69070429 0.0540829897
v 5.0839385 -7.71167511 0.0686527491
v 5.0839385 -7.71611255 0.0637437105
v 5.0839385 -7.6932959 0.0510795116
v 5.0839385 -7.71947283 0.0582914352
v 5.0839385 -7.69480032 0.0476151705
v 5.0839385 -7.72165817 0.0524530411
v 5.10793849 -7.69514555 0.0448684692
v 5.10793849 -7.7226457 0.0448684692
v 5.10793849 -7.69510692 0.0439473391
v 5.10793849 -7.72260612 0.0463964939
v 5.10793849 -7.72228903 0.0402959585
v 5.10793849 -7.69419283 0.0403476954
v 5.10793849 -7.72071642 0.034326911
v 5.10793849 -7.71793455 0.0286612511
v 5.10793849 -7.69212574 0.0370833874
v 5.10793849 -7.71402162 0.0234618187
v 5.10793849 -7.70909065 0.0188782215
v 5.10793849 -7.68905872 0.0343965292
v 5.10793849 -7.70328468 0.0150421858
v 5.10793849 -7.68521923 0.0324862003
v 5.10793849 -7.69676918 0.0120643377
v 5.10793849 -7.68973249 0.0100301504
v 5.10793849 -7.68089193 0.0314942598
v 5.10793849 -7.6823768 0.0089982748
v 5.10793849 -7.67639869 0.0314942598
v 5.10793849 -7.67491382 0.0089982748
v 5.10793849 -7.66755861 0.0100301504
v 5.10793849 -7.6720714 0.0324862003
v 5.10793849 -7.66052192 0.0120643377
v 5.10793849 -7.65400642 0.0150421858
v 5.10793849 -7.66823238 0.0343965292
v 5.10793849 -7.64819998 0.0188782215
v 5.10793849 -7.66516537 0.0370833874
v 5.10793849 -7.64326948 0.0234618187
v 5.10793849 -7.63935703 0.0286612511
v 5.10793849 -7.66309828 0.0403476954
v 5.10793849 -7.63657421 0.034326911
v 5.10793849 -7.63500208 0.0402959585
v 5.10793849 -7.66218418 0.0439473391
v 5.10793849 -7.63468498 0.0463964939
v 5.10793849 -7.66249079 0.0476151705
v 5.10793849 -7.63563341 0.0524530411
v 5.10793849 -7.63781828 0.0582914352
v 5.10793849 -7.66399568 0.0510795116
v 5.10793849 -7.64117807 0.0637437105
v 5.10793849 -7.66658682 0.0540829897
v 5.10793849 -7.645616 0.0686527491
v 5.10793849 -7.65100378 0.0728777647
v 5.10793849 -7.67007202 0.0564031601
v 5.10793849 -7.65718693 0.0762970448
v 5.10793849 -7.6639871 0.0788121223
v 5.10793849 -7.6741938 0.0578678846
v 5.10793849 -7.67120975 0.0803507566
v 5.10793849 -7.67864555 0.0583684444
v 5.10793849 -7.67864555 0.0808684826
v 5.10793849 -7.68608183 0.0803507566
v 5.10793849 -7.6830973 0.0578678846
v 5.10793849 -7.69330353 0.0788121223
v 5.10793849 -7.68721861 0.0564031601
v 5.10793849 -7.70010418 0.0762970448
v 5.10793849 -7.70628732 0.0728777647
v 5.10793849 -7.69070429 0.0540829897
v 5.10793849 -7.71167511 0.0686527491
v 5.10793849 -7.71611255 0.0637437105
v 5.10793849 -7.6932959 0.0510795116
v 5.10793849 -7.71947283 0.0582914352
v 5.10793849 -7.69480032 0.0476151705
v 5.10793849 -7.72165817 0.0524530411
vt -0.521911979 0.0463959984
vt -0.52195102 0.0448679999
vt -0.494450986 0.0448679999
vt -0.37450999 0.0439569987
vt -0.374549001 0.0448779985
vt -0.402049005 0.0448779985
vt 0.402049005 0.0448679999
vt 0.374549001 0.0448679999
vt 0.37450999 0.0439470001
vt -0.494450986 0.0448679999
vt -0.52195102 0.0448679999
vt -0.494412988 0.0439470001
vt -0.402049005 0.0448779985
vt -0.374549001 0.0448779985
vt -0.40200901 0.0464060009
vt 0.40200901 0.0464060009
vt 0.374549001 0.0448779985
vt 0.402049005 0.0448779985
vt 0.40200901 0.0463959984
vt 0.374549001 0.0448679999
vt 0.402049005 0.0448679999
vt -0.402049005 0.0448679999
vt -0.374549001 0.0448679999
vt -0.40200901 0.0463959984
vt -0.37450999 0.0439470001
vt -0.374549001 0.0448679999
vt -0.402049005 0.0448679999
vt 0.494450986 0.0448679999
vt 0.52195102 0.0448679999
vt 0.521911979 0.0463959984
vt 0.494412988 0.0439470001
vt 0.52195102 0.0448679999
vt 0.494450986 0.0448679999
vt 0.402049005 0.0448779985
vt 0.374549001 0.0448779985
vt 0.37450999 0.0439569987
vt -0.374549001 0.0448779985
vt -0.37420401 0.0476239994
vt -0.40200901 0.0464060009
vt -0.0464060009 -0.211999997
vt -0.0476239994 -0.211999997
vt -0.0476239994 -0.211999997
vt -0.40200901 0.0464060009
vt -0.37420401 0.0476239994
vt -0.401060998 0.0524620004
vt -0.0524620004 -0.211999997
vt -0.0476239994 -0.211999997
vt -0.0476239994 -0.211999997
vt -0.401060998 0.0524620004
vt -0.37420401 0.0476239994
vt -0.398876011 0.0583010018
vt -0.398876011 0.0583010018
vt -0.37420401 0.0476239994
vt -0.372698992 0.051089
vt -0.398876011 0.0583010018
vt -0.372698992 0.051089
vt -0.395516008 0.0637530014
vt -0.395516008 0.0637530014
vt -0.372698992 0.051089
vt -0.370106995 0.0540920012
vt -0.395516008 0.0637530014
vt -0.370106995 0.0540920012
vt -0.391077995 0.0686620027
vt -0.0686620027 -0.211999997
vt -0.0540920012 -0.211999997
vt -0.0540920012 -0.211999997
vt -0.391077995 0.0686620027
vt -0.370106995 0.0540920012
vt -0.385690004 0.0728870034
vt -0.385690004 0.0728870034
vt -0.370106995 0.0540920012
vt -0.366622001 0.0564120002
vt -0.385690004 0.0728870034
vt -0.366622001 0.0564120002
vt -0.379507005 0.0763060004
vt -0.0763060004 -0.211999997
vt -0.0564120002 -0.211999997
vt -0.0564120002 -0.211999997
vt -0.379507005 0.0763060004
vt -0.366622001 0.0564120002
vt -0.372707009 0.0788210034
vt -0.372707009 0.0788210034
vt -0.366622001 0.0564120002
vt -0.362500012 0.0578770004
vt -0.372707009 0.0788210034
vt -0.362500012 0.0578770004
vt -0.365485013 0.0803600028
vt -0.365485013 0.0803600028
vt -0.362500012 0.0578770004
vt -0.358049005 0.0583779998
vt -0.365485013 0.0803600028
vt -0.358049005 0.0583779998
vt -0.358049005 0.080877997
vt -0.080877997 -0.211999997
vt -0.0583779998 -0.211999997
vt -0.0583779998 -0.211999997
vt -0.358049005 0.080877997
vt -0.358049005 0.0583779998
vt -0.350612998 0.0803600028
vt -0.350612998 0.0803600028
vt -0.358049005 0.0583779998
vt -0.353596985 0.0578770004
vt -0.350612998 0.0803600028
vt -0.353596985 0.0578770004
vt -0.343391001 0.0788210034
vt -0.343391001 0.0788210034
vt -0.353596985 0.0578770004
vt -0.34947601 0.0564120002
vt -0.343391001 0.0788210034
vt -0.34947601 0.0564120002
vt -0.336589992 0.0763060004
vt -0.0763060004 -0.211999997
vt -0.0564120002 -0.211999997
vt -0.0564120002 -0.211999997
vt -0.336589992 0.0763060004
vt -0.34947601 0.0564120002
vt -0.330406994 0.0728870034
vt -0.330406994 0.0728870034
vt -0.34947601 0.0564120002
vt -0.345990002 0.0540920012
vt -0.330406994 0.0728870034
vt -0.345990002 0.0540920012
vt -0.325019002 0.0686620027
vt -0.0686620027 -0.211999997
vt -0.0540920012 -0.211999997
vt -0.0540920012 -0.211999997
vt -0.325019002 0.0686620027
vt -0.345990002 0.0540920012
vt -0.320580989 0.0637530014
vt -0.320580989 0.0637530014
vt -0.345990002 0.0540920012
vt -0.343398988 0.051089
vt -0.320580989 0.0637530014
vt -0.343398988 0.051089
vt -0.317220986 0.0583010018
vt -0.317220986 0.0583010018
vt -0.343398988 0.051089
vt -0.341894001 0.0476239994
vt -0.317220986 0.0583010018
vt -0.341894001 0.0476239994
vt -0.315035999 0.0524620004
vt -0.0524620004 -0.211999997
vt -0.0476239994 -0.211999997
vt -0.0476239994 -0.211999997
vt -0.315035999 0.0524620004
vt -0.341894001 0.0476239994
vt -0.314087987 0.0464060009
vt -0.314087987 0.0464060009
vt -0.341894001 0.0476239994
vt -0.341587007 0.0439569987
vt -0.314087987 0.0464060009
vt -0.341587007 0.0439569987
vt -0.314404994 0.0403049998
vt -0.314404994 0.0403049998
vt -0.341587007 0.0439569987
vt -0.342501014 0.0403570011
vt -0.314404994 0.0403049998
vt -0.342501014 0.0403570011
vt -0.315977007 0.0343360007
vt -0.0343360007 -0.211999997
vt -0.0403570011 -0.211999997
vt -0.0403570011 -0.211999997
vt -0.315977007 0.0343360007
vt -0.342501014 0.0403570011
vt -0.318760008 0.0286699999
vt -0.318760008 0.0286699999
vt -0.342501014 0.0403570011
vt -0.344568998 0.0370929986
vt -0.318760008 0.0286699999
vt -0.344568998 0.0370929986
vt -0.322672993 0.0234709997
vt -0.0234709997 -0.211999997
vt -0.0370929986 -0.211999997
vt -0.0370929986 -0.211999997
vt -0.322672993 0.0234709997
vt -0.344568998 0.0370929986
vt -0.327603012 0.0188870002
vt -0.327603012 0.0188870002
vt -0.344568998 0.0370929986
vt -0.347636014 0.0344059989
vt -0.327603012 0.0188870002
vt -0.347636014 0.0344059989
vt -0.333409995 0.0150509998
vt -0.333409995 0.0150509998
vt -0.347636014 0.0344059989
vt -0.351475 0.0324949995
vt -0.333409995 0.0150509998
vt -0.351475 0.0324949995
vt -0.339924991 0.0120740002
vt -0.0120740002 -0.211999997
vt -0.0324949995 -0.211999997
vt -0.0324949995 -0.211999997
vt -0.339924991 0.0120740002
vt -0.351475 0.0324949995
vt -0.346962005 0.0100389998
vt -0.346962005 0.0100389998
vt -0.351475 0.0324949995
vt -0.355802 0.0315040015
vt -0.346962005 0.0100389998
vt -0.355802 0.0315040015
vt -0.354317009 0.00900700036
vt -0.00900700036 -0.211999997
vt -0.0315040015 -0.211999997
vt -0.0315040015 -0.211999997
vt -0.354317009 0.00900700036
vt -0.355802 0.0315040015
vt -0.361779988 0.00900700036
vt -0.361779988 0.00900700036
vt -0.355802 0.0315040015
vt -0.360294998 0.0315040015
vt -0.361779988 0.00900700036
vt -0.360294998 0.0315040015
vt -0.369136006 0.0100389998
vt -0.369136006 0.0100389998
vt -0.360294998 0.0315040015
vt -0.364621997 0.0324949995
vt -0.369136006 0.0100389998
vt -0.364621997 0.0324949995
vt -0.376172006 0.0120740002
vt -0.0120740002 -0.211999997
vt -0.0324949995 -0.211999997
vt -0.0324949995 -0.211999997
vt -0.376172006 0.0120740002
vt -0.364621997 0.0324949995
vt -0.382687986 0.0150509998
vt -0.382687986 0.0150509998
vt -0.364621997 0.0324949995
vt -0.368461996 0.0344059989
vt -0.382687986 0.0150509998
vt -0.368461996 0.0344059989
vt -0.388494015 0.0188870002
vt -0.388494015 0.0188870002
vt -0.368461996 0.0344059989
vt -0.371529013 0.0370929986
vt -0.388494015 0.0188870002
vt -0.371529013 0.0370929986
vt -0.393424988 0.0234709997
vt -0.0234709997 -0.211999997
vt -0.0370929986 -0.211999997
vt -0.0370929986 -0.211999997
vt -0.393424988 0.0234709997
vt -0.371529013 0.0370929986
vt -0.39733699 0.0286699999
vt -0.39733699 0.0286699999
vt -0.371529013 0.0370929986
vt -0.373596013 0.0403570011
vt -0.39733699 0.0286699999
vt -0.373596013 0.0403570011
vt -0.40011999 0.0343360007
vt -0.0343360007 -0.211999997
vt -0.0403570011 -0.211999997
vt -0.0403570011 -0.211999997
vt -0.40011999 0.0343360007
vt -0.373596013 0.0403570011
vt -0.401692003 0.0403049998
vt -0.401692003 0.0403049998
vt -0.373596013 0.0403570011
vt -0.37450999 0.0439569987
vt -0.401692003 0.0403049998
vt -0.37450999 0.0439569987
vt -0.402049005 0.0448779985
vt 0.402049005 0.0448779985
vt 0.37450999 0.0439569987
vt 0.401692003 0.0403049998
vt 0.401692003 0.0403049998
vt 0.37450999 0.0439569987
vt 0.373596013 0.0403570011
vt 0.401692003 0.0403049998
vt 0.373596013 0.0403570011
vt 0.40011999 0.0343360007
vt -0.0343360007 -0.236000001
vt -0.0403570011 -0.236000001
vt -0.0403570011 -0.236000001
vt 0.40011999 0.0343360007
vt 0.373596013 0.0403570011
vt 0.39733699 0.0286699999
vt 0.39733699 0.0286699999
vt 0.373596013 0.0403570011
vt 0.371529013 0.0370929986
vt 0.39733699 0.0286699999
vt 0.371529013 0.0370929986
vt 0.393424988 0.0234709997
vt -0.0234709997 -0.236000001
vt -0.0370929986 -0.236000001
vt -0.0370929986 -0.236000001
vt 0.393424988 0.0234709997
vt 0.371529013 0.0370929986
vt 0.388494015 0.0188870002
vt 0.388494015 0.0188870002
vt 0.371529013 0.0370929986
vt 0.368461996 0.0344059989
vt 0.388494015 0.0188870002
vt 0.368461996 0.0344059989
vt 0.382687986 0.0150509998
vt 0.382687986 0.0150509998
vt 0.368461996 0.0344059989
vt 0.364621997 0.0324949995
vt 0.382687986 0.0150509998
vt 0.364621997 0.0324949995
vt 0.376172006 0.0120740002
vt -0.0120740002 -0.236000001
vt -0.0324949995 -0.236000001
vt -0.0324949995 -0.236000001
vt 0.376172006 0.0120740002
vt 0.364621997 0.0324949995
vt 0.369136006 0.0100389998
vt 0.369136006 0.0100389998
vt 0.364621997 0.0324949995
vt 0.360294998 0.0315040015
vt 0.369136006 0.0100389998
vt 0.360294998 0.0315040015
vt 0.361779988 0.00900700036
vt -0.00900700036 -0.236000001
vt -0.0315040015 -0.236000001
vt -0.0315040015 -0.236000001
vt 0.361779988 0.00900700036
vt 0.360294998 0.0315040015
vt 0.354317009 0.00900700036
vt 0.354317009 0.00900700036
vt 0.360294998 0.0315040015
vt 0.355802 0.0315040015
vt 0.354317009 0.00900700036
vt 0.355802 0.0315040015
vt 0.346962005 0.0100389998
vt 0.346962005 0.0100389998
vt 0.355802 0.0315040015
vt 0.351475 0.0324949995
vt 0.346962005 0.0100389998
vt 0.351475 0.0324949995
vt 0.339924991 0.0120740002
vt -0.0120740002 -0.236000001
vt -0.0324949995 -0.236000001
vt -0.0324949995 -0.236000001
vt 0.339924991 0.0120740002
vt 0.351475 0.0324949995
vt 0.333409995 0.0150509998
vt 0.333409995 0.0150509998
vt 0.351475 0.0324949995
vt 0.347636014 0.0344059989
vt 0.333409995 0.0150509998
vt 0.347636014 0.0344059989
vt 0.327603012 0.0188870002
vt 0.327603012 0.0188870002
vt 0.347636014 0.0344059989
vt 0.344568998 0.0370929986
vt 0.327603012 0.0188870002
vt 0.344568998 0.0370929986
vt 0.322672993 0.0234709997
vt -0.0234709997 -0.236000001
vt -0.0370929986 -0.236000001
vt -0.0370929986 -0.236000001
vt 0.322672993 0.0234709997
vt 0.344568998 0.0370929986
vt 0.318760008 0.0286699999
vt 0.318760008 0.0286699999
vt 0.344568998 0.0370929986
vt 0.342501014 0.0403570011
vt 0.318760008 0.0286699999
vt 0.342501014 0.0403570011
vt 0.315977007 0.0343360007
vt -0.0343360007 -0.236000001
vt -0.0403570011 -0.236000001
vt -0.0403570011 -0.236000001
vt 0.315977007 0.0343360007
vt 0.342501014 0.0403570011
vt 0.314404994 0.0403049998
vt 0.314404994 0.0403049998
vt 0.342501014 0.0403570011
vt 0.341587007 0.0439569987
vt 0.314404994 0.0403049998
vt 0.341587007 0.0439569987
vt 0.314087987 0.0464060009
vt 0.314087987 0.0464060009
vt 0.341587007 0.0439569987
vt 0.341894001 0.0476239994
vt 0.314087987 0.0464060009
vt 0.341894001 0.0476239994
vt 0.315035999 0.0524620004
vt -0.0524620004 -0.236000001
vt -0.0476239994 -0.236000001
vt -0.0476239994 -0.236000001
vt 0.315035999 0.0524620004
vt 0.341894001 0.0476239994
vt 0.317220986 0.0583010018
vt 0.317220986 0.0583010018
vt 0.341894001 0.0476239994
vt 0.343398988 0.051089
vt 0.317220986 0.0583010018
vt 0.343398988 0.051089
vt 0.320580989 0.0637530014
vt 0.320580989 0.0637530014
vt 0.343398988 0.051089
vt 0.345990002 0.0540920012
vt 0.320580989 0.0637530014
vt 0.345990002 0.0540920012
vt 0.325019002 0.0686620027
vt -0.0686620027 -0.236000001
vt -0.0540920012 -0.236000001
vt -0.0540920012 -0.236000001
vt 0.325019002 0.0686620027
vt 0.345990002 0.0540920012
vt 0.330406994 0.0728870034
vt 0.330406994 0.0728870034
vt 0.345990002 0.0540920012
vt 0.34947601 0.0564120002
vt 0.330406994 0.0728870034
vt 0.34947601 0.0564120002
vt 0.336589992 0.0763060004
vt -0.0763060004 -0.236000001
vt -0.0564120002 -0.236000001
vt -0.0564120002 -0.236000001
vt 0.336589992 0.0763060004
vt 0.34947601 0.0564120002
vt 0.343391001 0.0788210034
vt 0.343391001 0.0788210034
vt 0.34947601 0.0564120002
vt 0.353596985 0.0578770004
vt 0.343391001 0.0788210034
vt 0.353596985 0.0578770004
vt 0.350612998 0.0803600028
vt 0.350612998 0.0803600028
vt 0.353596985 0.0578770004
vt 0.358049005 0.0583779998
vt 0.350612998 0.0803600028
vt 0.358049005 0.0583779998
vt 0.358049005 0.080877997
vt -0.080877997 -0.236000001
vt -0.0583779998 -0.236000001
vt -0.0583779998 -0.236000001
vt 0.358049005 0.080877997
vt 0.358049005 0.0583779998
vt 0.365485013 0.0803600028
vt 0.365485013 0.0803600028
vt 0.358049005 0.0583779998
vt 0.362500012 0.0578770004
vt 0.365485013 0.0803600028
vt 0.362500012 0.0578770004
vt 0.372707009 0.0788210034
vt 0.372707009 0.0788210034
vt 0.362500012 0.0578770004
vt 0.366622001 0.0564120002
vt 0.372707009 0.0788210034
vt 0.366622001 0.0564120002
vt 0.379507005 0.0763060004
vt -0.0763060004 -0.236000001
vt -0.0564120002 -0.236000001
vt -0.0564120002 -0.236000001
vt 0.379507005 0.0763060004
vt 0.366622001 0.0564120002
vt 0.385690004 0.0728870034
vt 0.385690004 0.0728870034
vt 0.366622001 0.0564120002
vt 0.370106995 0.0540920012
vt 0.385690004 0.0728870034
vt 0.370106995 0.0540920012
vt 0.391077995 0.0686620027
vt -0.0686620027 -0.236000001
vt -0.0540920012 -0.236000001
vt -0.0540920012 -0.236000001
vt 0.391077995 0.0686620027
vt 0.370106995 0.0540920012
vt 0.395516008 0.0637530014
vt 0.395516008 0.0637530014
vt 0.370106995 0.0540920012
vt 0.372698992 0.051089
vt 0.395516008 0.0637530014
vt 0.372698992 0.051089
vt 0.398876011 0.0583010018
vt 0.398876011 0.0583010018
vt 0.372698992 0.051089
vt 0.37420401 0.0476239994
vt 0.398876011 0.0583010018
vt 0.37420401 0.0476239994
vt 0.401060998 0.0524620004
vt -0.0524620004 -0.236000001
vt -0.0476239994 -0.236000001
vt -0.0476239994 -0.236000001
vt 0.401060998 0.0524620004
vt 0.37420401 0.0476239994
vt 0.40200901 0.0464060009
vt 0.40200901 0.0464060009
vt 0.37420401 0.0476239994
vt 0.374549001 0.0448779985
vt 0.52195102 0.0448679999
vt 0.494412988 0.0439470001
vt 0.521595001 0.0402950011
vt 0.521595001 0.0402950011
vt 0.494412988 0.0439470001
vt 0.493499011 0.0403469987
vt 0.521595001 0.0402950011
vt 0.493499011 0.0403469987
vt 0.520022988 0.0343259983
vt -0.0343259983 0.236000001
vt -0.0403469987 0.236000001
vt -0.0403469987 0.236000001
vt 0.520022988 0.0343259983
vt 0.493499011 0.0403469987
vt 0.517239988 0.0286609996
vt 0.517239988 0.0286609996
vt 0.493499011 0.0403469987
vt 0.491430998 0.0370829999
vt 0.517239988 0.0286609996
vt 0.491430998 0.0370829999
vt 0.513327003 0.0234609991
vt -0.0234609991 0.236000001
vt -0.0370829999 0.236000001
vt -0.0370829999 0.236000001
vt 0.513327003 0.0234609991
vt 0.491430998 0.0370829999
vt 0.508396983 0.0188779999
vt 0.508396983 0.0188779999
vt 0.491430998 0.0370829999
vt 0.488364011 0.0343960002
vt 0.508396983 0.0188779999
vt 0.488364011 0.0343960002
vt 0.502590001 0.0150420005
vt 0.502590001 0.0150420005
vt 0.488364011 0.0343960002
vt 0.484524995 0.0324859992
vt 0.502590001 0.0150420005
vt 0.484524995 0.0324859992
vt 0.496075004 0.0120639997
vt -0.0120639997 0.236000001
vt -0.0324859992 0.236000001
vt -0.0324859992 0.236000001
vt 0.496075004 0.0120639997
vt 0.484524995 0.0324859992
vt 0.489037991 0.0100299995
vt 0.489037991 0.0100299995
vt 0.484524995 0.0324859992
vt 0.480197996 0.0314939991
vt 0.489037991 0.0100299995
vt 0.480197996 0.0314939991
vt 0.481682986 0.00899800006
vt -0.00899800006 0.236000001
vt -0.0314939991 0.236000001
vt -0.0314939991 0.236000001
vt 0.481682986 0.00899800006
vt 0.480197996 0.0314939991
vt 0.474220008 0.00899800006
vt 0.474220008 0.00899800006
vt 0.480197996 0.0314939991
vt 0.475704998 0.0314939991
vt 0.474220008 0.00899800006
vt 0.475704998 0.0314939991
vt 0.46686399 0.0100299995
vt 0.46686399 0.0100299995
vt 0.475704998 0.0314939991
vt 0.471377999 0.0324859992
vt 0.46686399 0.0100299995
vt 0.471377999 0.0324859992
vt 0.459827989 0.0120639997
vt -0.0120639997 0.236000001
vt -0.0324859992 0.236000001
vt -0.0324859992 0.236000001
vt 0.459827989 0.0120639997
vt 0.471377999 0.0324859992
vt 0.45331201 0.0150420005
vt 0.45331201 0.0150420005
vt 0.471377999 0.0324859992
vt 0.467537999 0.0343960002
vt 0.45331201 0.0150420005
vt 0.467537999 0.0343960002
vt 0.447506011 0.0188779999
vt 0.447506011 0.0188779999
vt 0.467537999 0.0343960002
vt 0.464471012 0.0370829999
vt 0.447506011 0.0188779999
vt 0.464471012 0.0370829999
vt 0.442575008 0.0234609991
vt -0.0234609991 0.236000001
vt -0.0370829999 0.236000001
vt -0.0370829999 0.236000001
vt 0.442575008 0.0234609991
vt 0.464471012 0.0370829999
vt 0.438663006 0.0286609996
vt 0.438663006 0.0286609996
vt 0.464471012 0.0370829999
vt 0.462404013 0.0403469987
vt 0.438663006 0.0286609996
vt 0.462404013 0.0403469987
vt 0.435880005 0.0343259983
vt -0.0343259983 0.236000001
vt -0.0403469987 0.236000001
vt -0.0403469987 0.236000001
vt 0.435880005 0.0343259983
vt 0.462404013 0.0403469987
vt 0.434307992 0.0402950011
vt 0.434307992 0.0402950011
vt 0.462404013 0.0403469987
vt 0.461490005 0.0439470001
vt 0.434307992 0.0402950011
vt 0.461490005 0.0439470001
vt 0.433990985 0.0463959984
vt 0.433990985 0.0463959984
vt 0.461490005 0.0439470001
vt 0.461795986 0.0476149991
vt 0.433990985 0.0463959984
vt 0.461795986 0.0476149991
vt 0.434938997 0.0524520017
vt -0.0524520017 0.236000001
vt -0.0476149991 0.236000001
vt -0.0476149991 0.236000001
vt 0.434938997 0.0524520017
vt 0.461795986 0.0476149991
vt 0.437124014 0.0582909994
vt 0.437124014 0.0582909994
vt 0.461795986 0.0476149991
vt 0.463301003 0.0510790013
vt 0.437124014 0.0582909994
vt 0.463301003 0.0510790013
vt 0.440483987 0.0637430027
vt 0.440483987 0.0637430027
vt 0.463301003 0.0510790013
vt 0.465893 0.0540819988
vt 0.440483987 0.0637430027
vt 0.465893 0.0540819988
vt 0.444922 0.0686519966
vt -0.0686519966 0.236000001
vt -0.0540819988 0.236000001
vt -0.0540819988 0.236000001
vt 0.444922 0.0686519966
vt 0.465893 0.0540819988
vt 0.450309992 0.0728769973
vt 0.450309992 0.0728769973
vt 0.465893 0.0540819988
vt 0.469377995 0.0564029999
vt 0.450309992 0.0728769973
vt 0.469377995 0.0564029999
vt 0.45649299 0.0762960017
vt -0.0762960017 0.236000001
vt -0.0564029999 0.236000001
vt -0.0564029999 0.236000001
vt 0.45649299 0.0762960017
vt 0.469377995 0.0564029999
vt 0.463292986 0.0788120031
vt 0.463292986 0.0788120031
vt 0.469377995 0.0564029999
vt 0.473500013 0.0578670017
vt 0.463292986 0.0788120031
vt 0.473500013 0.0578670017
vt 0.470515013 0.0803499967
vt 0.470515013 0.0803499967
vt 0.473500013 0.0578670017
vt 0.47795099 0.0583680011
vt 0.470515013 0.0803499967
vt 0.47795099 0.0583680011
vt 0.47795099 0.0808679983
vt -0.0808679983 0.236000001
vt -0.0583680011 0.236000001
vt -0.0583680011 0.236000001
vt 0.47795099 0.0808679983
vt 0.47795099 0.0583680011
vt 0.485386997 0.0803499967
vt 0.485386997 0.0803499967
vt 0.47795099 0.0583680011
vt 0.48240301 0.0578670017
vt 0.485386997 0.0803499967
vt 0.48240301 0.0578670017
vt 0.492610008 0.0788120031
vt 0.492610008 0.0788120031
vt 0.48240301 0.0578670017
vt 0.486523986 0.0564029999
vt 0.492610008 0.0788120031
vt 0.486523986 0.0564029999
vt 0.499410003 0.0762960017
vt -0.0762960017 0.236000001
vt -0.0564029999 0.236000001
vt -0.0564029999 0.236000001
vt 0.499410003 0.0762960017
vt 0.486523986 0.0564029999
vt 0.505593002 0.0728769973
vt 0.505593002 0.0728769973
vt 0.486523986 0.0564029999
vt 0.490009993 0.0540819988
vt 0.505593002 0.0728769973
vt 0.490009993 0.0540819988
vt 0.510981023 0.0686519966
vt -0.0686519966 0.236000001
vt -0.0540819988 0.236000001
vt -0.0540819988 0.236000001
vt 0.510981023 0.0686519966
vt 0.490009993 0.0540819988
vt 0.515419006 0.0637430027
vt 0.515419006 0.0637430027
vt 0.490009993 0.0540819988
vt 0.492601007 0.0510790013
vt 0.515419006 0.0637430027
vt 0.492601007 0.0510790013
vt 0.518778026 0.0582909994
vt 0.518778026 0.0582909994
vt 0.492601007 0.0510790013
vt 0.494105995 0.0476149991
vt 0.518778026 0.0582909994
vt 0.494105995 0.0476149991
vt 0.520964026 0.0524520017
vt -0.0524520017 0.236000001
vt -0.0476149991 0.236000001
vt -0.0476149991 0.236000001
vt 0.520964026 0.0524520017
vt 0.494105995 0.0476149991
vt 0.521911979 0.0463959984
vt 0.521911979 0.0463959984
vt 0.494105995 0.0476149991
vt 0.494450986 0.0448679999
vt 0.374549001 0.0448679999
vt 0.40200901 0.0463959984
vt 0.37420401 0.0476149991
vt 0.37420401 0.0476149991
vt 0.40200901 0.0463959984
vt 0.401060998 0.0524520017
vt -0.0476149991 0.211999997
vt -0.0524520017 0.211999997
vt -0.0476149991 0.211999997
vt 0.37420401 0.0476149991
vt 0.401060998 0.0524520017
vt 0.398876011 0.0582909994
vt 0.37420401 0.0476149991
vt 0.398876011 0.0582909994
vt 0.372698992 0.0510790013
vt 0.372698992 0.0510790013
vt 0.398876011 0.0582909994
vt 0.395516008 0.0637430027
vt 0.372698992 0.0510790013
vt 0.395516008 0.0637430027
vt 0.370106995 0.0540819988
vt 0.370106995 0.0540819988
vt 0.395516008 0.0637430027
vt 0.391077995 0.0686519966
vt -0.0540819988 0.211999997
vt -0.0686519966 0.211999997
vt -0.0540819988 0.211999997
vt 0.370106995 0.0540819988
vt 0.391077995 0.0686519966
vt 0.385690004 0.0728769973
vt 0.370106995 0.0540819988
vt 0.385690004 0.0728769973
vt 0.366622001 0.0564029999
vt 0.366622001 0.0564029999
vt 0.385690004 0.0728769973
vt 0.379507005 0.0762960017
vt -0.0564029999 0.211999997
vt -0.0762960017 0.211999997
vt -0.0564029999 0.211999997
vt 0.366622001 0.0564029999
vt 0.379507005 0.0762960017
vt 0.372707009 0.0788120031
vt 0.366622001 0.0564029999
vt 0.372707009 0.0788120031
vt 0.362500012 0.0578670017
vt 0.362500012 0.0578670017
vt 0.372707009 0.0788120031
vt 0.365485013 0.0803499967
vt 0.362500012 0.0578670017
vt 0.365485013 0.0803499967
vt 0.358049005 0.0583680011
vt 0.358049005 0.0583680011
vt 0.365485013 0.0803499967
vt 0.358049005 0.0808679983
vt -0.0583680011 0.211999997
vt -0.0808679983 0.211999997
vt -0.0583680011 0.211999997
vt 0.358049005 0.0583680011
vt 0.358049005 0.0808679983
vt 0.350612998 0.0803499967
vt 0.358049005 0.0583680011
vt 0.350612998 0.0803499967
vt 0.353596985 0.0578670017
vt 0.353596985 0.0578670017
vt 0.350612998 0.0803499967
vt 0.343391001 0.0788120031
vt 0.353596985 0.0578670017
vt 0.343391001 0.0788120031
vt 0.34947601 0.0564029999
vt 0.34947601 0.0564029999
vt 0.343391001 0.0788120031
vt 0.336589992 0.0762960017
vt -0.0564029999 0.211999997
vt -0.0762960017 0.211999997
vt -0.0564029999 0.211999997
vt 0.34947601 0.0564029999
vt 0.336589992 0.0762960017
vt 0.330406994 0.0728769973
vt 0.34947601 0.0564029999
vt 0.330406994 0.0728769973
vt 0.345990002 0.0540819988
vt 0.345990002 0.0540819988
vt 0.330406994 0.0728769973
vt 0.325019002 0.0686519966
vt -0.0540819988 0.211999997
vt -0.0686519966 0.211999997
vt -0.0540819988 0.211999997
vt 0.345990002 0.0540819988
vt 0.325019002 0.0686519966
vt 0.320580989 0.0637430027
vt 0.345990002 0.0540819988
vt 0.320580989 0.0637430027
vt 0.343398988 0.0510790013
vt 0.343398988 0.0510790013
vt 0.320580989 0.0637430027
vt 0.317220986 0.0582909994
vt 0.343398988 0.0510790013
vt 0.317220986 0.0582909994
vt 0.341894001 0.0476149991
vt 0.341894001 0.0476149991
vt 0.317220986 0.0582909994
vt 0.315035999 0.0524520017
vt -0.0476149991 0.211999997
vt -0.0524520017 0.211999997
vt -0.0476149991 0.211999997
vt 0.341894001 0.0476149991
vt 0.315035999 0.0524520017
vt 0.314087987 0.0463959984
vt 0.341894001 0.0476149991
vt 0.314087987 0.0463959984
vt 0.341587007 0.0439470001
vt 0.341587007 0.0439470001
vt 0.314087987 0.0463959984
vt 0.314404994 0.0402950011
vt 0.341587007 0.0439470001
vt 0.314404994 0.0402950011
vt 0.342501014 0.0403469987
vt 0.342501014 0.0403469987
vt 0.314404994 0.0402950011
vt 0.315977007 0.0343259983
vt -0.0403469987 0.211999997
vt -0.0343259983 0.211999997
vt -0.0403469987 0.211999997
vt 0.342501014 0.0403469987
vt 0.315977007 0.0343259983
vt 0.318760008 0.0286609996
vt 0.342501014 0.0403469987
vt 0.318760008 0.0286609996
vt 0.344568998 0.0370829999
vt 0.344568998 0.0370829999
vt 0.318760008 0.0286609996
vt 0.322672993 0.0234609991
vt -0.0370829999 0.211999997
vt -0.0234609991 0.211999997
vt -0.0370829999 0.211999997
vt 0.344568998 0.0370829999
vt 0.322672993 0.0234609991
vt 0.327603012 0.0188779999
vt 0.344568998 0.0370829999
vt 0.327603012 0.0188779999
vt 0.347636014 0.0343960002
vt 0.347636014 0.0343960002
vt 0.327603012 0.0188779999
vt 0.333409995 0.0150420005
vt 0.347636014 0.0343960002
vt 0.333409995 0.0150420005
vt 0.351475 0.0324859992
vt 0.351475 0.0324859992
vt 0.333409995 0.0150420005
vt 0.339924991 0.0120639997
vt -0.0324859992 0.211999997
vt -0.0120639997 0.211999997
vt -0.0324859992 0.211999997
vt 0.351475 0.0324859992
vt 0.339924991 0.0120639997
vt 0.346962005 0.0100299995
vt 0.351475 0.0324859992
vt 0.346962005 0.0100299995
vt 0.355802 0.0314939991
vt 0.355802 0.0314939991
vt 0.346962005 0.0100299995
vt 0.354317009 0.00899800006
vt 0.355802 0.0314939991
vt 0.354317009 0.00899800006
vt 0.360294998 0.0314939991
vt 0.360294998 0.0314939991
vt 0.354317009 0.00899800006
vt 0.361779988 0.00899800006
vt -0.0314939991 0.211999997
vt -0.00899800006 0.211999997
vt -0.0314939991 0.211999997
vt 0.360294998 0.0314939991
vt 0.361779988 0.00899800006
vt 0.369136006 0.0100299995
vt 0.360294998 0.0314939991
vt 0.369136006 0.0100299995
vt 0.364621997 0.0324859992
vt 0.364621997 0.0324859992
vt 0.369136006 0.0100299995
vt 0.376172006 0.0120639997
vt -0.0324859992 0.211999997
vt -0.0120639997 0.211999997
vt -0.0324859992 0.211999997
vt 0.364621997 0.0324859992
vt 0.376172006 0.0120639997
vt 0.382687986 0.0150420005
vt 0.364621997 0.0324859992
vt 0.382687986 0.0150420005
vt 0.368461996 0.0343960002
vt 0.368461996 0.0343960002
vt 0.382687986 0.0150420005
vt 0.388494015 0.0188779999
vt 0.368461996 0.0343960002
vt 0.388494015 0.0188779999
vt 0.371529013 0.0370829999
vt 0.371529013 0.0370829999
vt 0.388494015 0.0188779999
vt 0.393424988 0.0234609991
vt -0.0370829999 0.211999997
vt -0.0234609991 0.211999997
vt -0.0370829999 0.211999997
vt 0.371529013 0.0370829999
vt 0.393424988 0.0234609991
vt 0.39733699 0.0286609996
vt 0.371529013 0.0370829999
vt 0.39733699 0.0286609996
vt 0.373596013 0.0403469987
vt 0.373596013 0.0403469987
vt 0.39733699 0.0286609996
vt 0.40011999 0.0343259983
vt -0.0403469987 0.211999997
vt -0.0343259983 0.211999997
vt -0.0403469987 0.211999997
vt 0.373596013 0.0403469987
vt 0.40011999 0.0343259983
vt 0.401692003 0.0402950011
vt 0.373596013 0.0403469987
vt 0.401692003 0.0402950011
vt 0.37450999 0.0439470001
vt 0.37450999 0.0439470001
vt 0.401692003 0.0402950011
vt 0.402049005 0.0448679999
vt -0.402049005 0.0448679999
vt -0.401692003 0.0402950011
vt -0.37450999 0.0439470001
vt -0.0439470001 0.236000001
vt -0.0402950011 0.236000001
vt -0.0402950011 0.236000001
vt -0.37450999 0.0439470001
vt -0.401692003 0.0402950011
vt -0.373596013 0.0403469987
vt -0.373596013 0.0403469987
vt -0.401692003 0.0402950011
vt -0.40011999 0.0343259983
vt -0.0403469987 0.236000001
vt -0.0343259983 0.236000001
vt -0.0403469987 0.236000001
vt -0.373596013 0.0403469987
vt -0.40011999 0.0343259983
vt -0.39733699 0.0286609996
vt -0.373596013 0.0403469987
vt -0.39733699 0.0286609996
vt -0.371529013 0.0370829999
vt -0.371529013 0.0370829999
vt -0.39733699 0.0286609996
vt -0.393424988 0.0234609991
vt -0.0370829999 0.236000001
vt -0.0234609991 0.236000001
vt -0.0370829999 0.236000001
vt -0.371529013 0.0370829999
vt -0.393424988 0.0234609991
vt -0.388494015 0.0188779999
vt -0.371529013 0.0370829999
vt -0.388494015 0.0188779999
vt -0.368461996 0.0343960002
vt -0.368461996 0.0343960002
vt -0.388494015 0.0188779999
vt -0.382687986 0.0150420005
vt -0.368461996 0.0343960002
vt -0.382687986 0.0150420005
vt -0.364621997 0.0324859992
vt -0.364621997 0.0324859992
vt -0.382687986 0.0150420005
vt -0.376172006 0.0120639997
vt -0.0324859992 0.236000001
vt -0.0120639997 0.236000001
vt -0.0324859992 0.236000001
vt -0.364621997 0.0324859992
vt -0.376172006 0.0120639997
vt -0.369136006 0.0100299995
vt -0.364621997 0.0324859992
vt -0.369136006 0.0100299995
vt -0.360294998 0.0314939991
vt -0.360294998 0.0314939991
vt -0.369136006 0.0100299995
vt -0.361779988 0.00899800006
vt -0.360294998 0.0314939991
vt -0.361779988 0.00899800006
vt -0.355802 0.0314939991
vt -0.355802 0.0314939991
vt -0.361779988 0.00899800006
vt -0.354317009 0.00899800006
vt -0.0314939991 0.236000001
vt -0.00899800006 0.236000001
vt -0.0314939991 0.236000001
vt -0.355802 0.0314939991
vt -0.354317009 0.00899800006
vt -0.346962005 0.0100299995
vt -0.355802 0.0314939991
vt -0.346962005 0.0100299995
vt -0.351475 0.0324859992
vt -0.351475 0.0324859992
vt -0.346962005 0.0100299995
vt -0.339924991 0.0120639997
vt -0.0324859992 0.236000001
vt -0.0120639997 0.236000001
vt -0.0324859992 0.236000001
vt -0.351475 0.0324859992
vt -0.339924991 0.0120639997
vt -0.333409995 0.0150420005
vt -0.351475 0.0324859992
vt -0.333409995 0.0150420005
vt -0.347636014 0.0343960002
vt -0.347636014 0.0343960002
vt -0.333409995 0.0150420005
vt -0.327603012 0.0188779999
vt -0.347636014 0.0343960002
vt -0.327603012 0.0188779999
vt -0.344568998 0.0370829999
vt -0.344568998 0.0370829999
vt -0.327603012 0.0188779999
vt -0.322672993 0.0234609991
vt -0.0370829999 0.236000001
vt -0.0234609991 0.236000001
vt -0.0370829999 0.236000001
vt -0.344568998 0.0370829999
vt -0.322672993 0.0234609991
vt -0.318760008 0.0286609996
vt -0.344568998 0.0370829999
vt -0.318760008 0.0286609996
vt -0.342501014 0.0403469987
vt -0.342501014 0.0403469987
vt -0.318760008 0.0286609996
vt -0.315977007 0.0343259983
vt -0.0403469987 0.236000001
vt -0.0343259983 0.236000001
vt -0.0403469987 0.236000001
vt -0.342501014 0.0403469987
vt -0.315977007 0.0343259983
vt -0.314404994 0.0402950011
vt -0.342501014 0.0403469987
vt -0.314404994 0.0402950011
vt -0.341587007 0.0439470001
vt -0.341587007 0.0439470001
vt -0.314404994 0.0402950011
vt -0.314087987 0.0463959984
vt -0.341587007 0.0439470001
vt -0.314087987 0.0463959984
vt -0.341894001 0.0476149991
vt -0.341894001 0.0476149991
vt -0.314087987 0.0463959984
vt -0.315035999 0.0524520017
vt -0.0476149991 0.236000001
vt -0.0524520017 0.236000001
vt -0.0476149991 0.236000001
vt -0.341894001 0.0476149991
vt -0.315035999 0.0524520017
vt -0.317220986 0.0582909994
vt -0.341894001 0.0476149991
vt -0.317220986 0.0582909994
vt -0.343398988 0.0510790013
vt -0.343398988 0.0510790013
vt -0.317220986 0.0582909994
vt -0.320580989 0.0637430027
vt -0.343398988 0.0510790013
vt -0.320580989 0.0637430027
vt -0.345990002 0.0540819988
vt -0.345990002 0.0540819988
vt -0.320580989 0.0637430027
vt -0.325019002 0.0686519966
vt -0.0540819988 0.236000001
vt -0.0686519966 0.236000001
vt -0.0540819988 0.236000001
vt -0.345990002 0.0540819988
vt -0.325019002 0.0686519966
vt -0.330406994 0.0728769973
vt -0.345990002 0.0540819988
vt -0.330406994 0.0728769973
vt -0.34947601 0.0564029999
vt -0.34947601 0.0564029999
vt -0.330406994 0.0728769973
vt -0.336589992 0.0762960017
vt -0.0564029999 0.236000001
vt -0.0762960017 0.236000001
vt -0.0564029999 0.236000001
vt -0.34947601 0.0564029999
vt -0.336589992 0.0762960017
vt -0.343391001 0.0788120031
vt -0.34947601 0.0564029999
vt -0.343391001 0.0788120031
vt -0.353596985 0.0578670017
vt -0.353596985 0.0578670017
vt -0.343391001 0.0788120031
vt -0.350612998 0.0803499967
vt -0.353596985 0.0578670017
vt -0.350612998 0.0803499967
vt -0.358049005 0.0583680011
vt -0.358049005 0.0583680011
vt -0.350612998 0.0803499967
vt -0.358049005 0.0808679983
vt -0.0583680011 0.236000001
vt -0.0808679983 0.236000001
vt -0.0583680011 0.236000001
vt -0.358049005 0.0583680011
vt -0.358049005 0.0808679983
vt -0.365485013 0.0803499967
vt -0.358049005 0.0583680011
vt -0.365485013 0.0803499967
vt -0.362500012 0.0578670017
vt -0.362500012 0.0578670017
vt -0.365485013 0.0803499967
vt -0.372707009 0.0788120031
vt -0.362500012 0.0578670017
vt -0.372707009 0.0788120031
vt -0.366622001 0.0564029999
vt -0.366622001 0.0564029999
vt -0.372707009 0.0788120031
vt -0.379507005 0.0762960017
vt -0.0564029999 0.236000001
vt -0.0762960017 0.236000001
vt -0.0564029999 0.236000001
vt -0.366622001 0.0564029999
vt -0.379507005 0.0762960017
vt -0.385690004 0.0728769973
vt -0.366622001 0.0564029999
vt -0.385690004 0.0728769973
vt -0.370106995 0.0540819988
vt -0.370106995 0.0540819988
vt -0.385690004 0.0728769973
vt -0.391077995 0.0686519966
vt -0.0540819988 0.236000001
vt -0.0686519966 0.236000001
vt -0.0540819988 0.236000001
vt -0.370106995 0.0540819988
vt -0.391077995 0.0686519966
vt -0.395516008 0.0637430027
vt -0.370106995 0.0540819988
vt -0.395516008 0.0637430027
vt -0.372698992 0.0510790013
vt -0.372698992 0.0510790013
vt -0.395516008 0.0637430027
vt -0.398876011 0.0582909994
vt -0.372698992 0.0510790013
vt -0.398876011 0.0582909994
vt -0.37420401 0.0476149991
vt -0.37420401 0.0476149991
vt -0.398876011 0.0582909994
vt -0.401060998 0.0524520017
vt -0.0476149991 0.236000001
vt -0.0524520017 0.236000001
vt -0.0476149991 0.236000001
vt -0.37420401 0.0476149991
vt -0.401060998 0.0524520017
vt -0.40200901 0.0463959984
vt -0.37420401 0.0476149991
vt -0.40200901 0.0463959984
vt -0.374549001 0.0448679999
vt -0.52195102 0.0448679999
vt -0.521595001 0.0402950011
vt -0.494412988 0.0439470001
vt -0.0439470001 0.211999997
vt -0.0402950011 0.211999997
vt -0.0402950011 0.211999997
vt -0.494412988 0.0439470001
vt -0.521595001 0.0402950011
vt -0.493499011 0.0403469987
vt -0.493499011 0.0403469987
vt -0.521595001 0.0402950011
vt -0.520022988 0.0343259983
vt -0.0403469987 0.211999997
vt -0.0343259983 0.211999997
vt -0.0403469987 0.211999997
vt -0.493499011 0.0403469987
vt -0.520022988 0.0343259983
vt -0.517239988 0.0286609996
vt -0.493499011 0.0403469987
vt -0.517239988 0.0286609996
vt -0.491430998 0.0370829999
vt -0.491430998 0.0370829999
vt -0.517239988 0.0286609996
vt -0.513327003 0.0234609991
vt -0.0370829999 0.211999997
vt -0.0234609991 0.211999997
vt -0.0370829999 0.211999997
vt -0.491430998 0.0370829999
vt -0.513327003 0.0234609991
vt -0.508396983 0.0188779999
vt -0.491430998 0.0370829999
vt -0.508396983 0.0188779999
vt -0.488364011 0.0343960002
vt -0.488364011 0.0343960002
vt -0.508396983 0.0188779999
vt -0.502590001 0.0150420005
vt -0.488364011 0.0343960002
vt -0.502590001 0.0150420005
vt -0.484524995 0.0324859992
vt -0.484524995 0.0324859992
vt -0.502590001 0.0150420005
vt -0.496075004 0.0120639997
vt -0.0324859992 0.211999997
vt -0.0120639997 0.211999997
vt -0.0324859992 0.211999997
vt -0.484524995 0.0324859992
vt -0.496075004 0.0120639997
vt -0.489037991 0.0100299995
vt -0.484524995 0.0324859992
vt -0.489037991 0.0100299995
vt -0.480197996 0.0314939991
vt -0.480197996 0.0314939991
vt -0.489037991 0.0100299995
vt -0.481682986 0.00899800006
vt -0.0314939991 0.211999997
vt -0.00899800006 0.211999997
vt -0.0314939991 0.211999997
vt -0.480197996 0.0314939991
vt -0.481682986 0.00899800006
vt -0.474220008 0.00899800006
vt -0.480197996 0.0314939991
vt -0.474220008 0.00899800006
vt -0.475704998 0.0314939991
vt -0.475704998 0.0314939991
vt -0.474220008 0.00899800006
vt -0.46686399 0.0100299995
vt -0.475704998 0.0314939991
vt -0.46686399 0.0100299995
vt -0.471377999 0.0324859992
vt -0.471377999 0.0324859992
vt -0.46686399 0.0100299995
vt -0.459827989 0.0120639997
vt -0.0324859992 0.211999997
vt -0.0120639997 0.211999997
vt -0.0324859992 0.211999997
vt -0.471377999 0.0324859992
vt -0.459827989 0.0120639997
vt -0.45331201 0.0150420005
vt -0.471377999 0.0324859992
vt -0.45331201 0.0150420005
vt -0.467537999 0.0343960002
vt -0.467537999 0.0343960002
vt -0.45331201 0.0150420005
vt -0.447506011 0.0188779999
vt -0.467537999 0.0343960002
vt -0.447506011 0.0188779999
vt -0.464471012 0.0370829999
vt -0.464471012 0.0370829999
vt -0.447506011 0.0188779999
vt -0.442575008 0.0234609991
vt -0.0370829999 0.211999997
vt -0.0234609991 0.211999997
vt -0.0370829999 0.211999997
vt -0.464471012 0.0370829999
vt -0.442575008 0.0234609991
vt -0.438663006 0.0286609996
vt -0.464471012 0.0370829999
vt -0.438663006 0.0286609996
vt -0.462404013 0.0403469987
vt -0.462404013 0.0403469987
vt -0.438663006 0.0286609996
vt -0.435880005 0.0343259983
vt -0.0403469987 0.211999997
vt -0.0343259983 0.211999997
vt -0.0403469987 0.211999997
vt -0.462404013 0.0403469987
vt -0.435880005 0.0343259983
vt -0.434307992 0.0402950011
vt -0.462404013 0.0403469987
vt -0.434307992 0.0402950011
vt -0.461490005 0.0439470001
vt -0.461490005 0.0439470001
vt -0.434307992 0.0402950011
vt -0.433990985 0.0463959984
vt -0.461490005 0.0439470001
vt -0.433990985 0.0463959984
vt -0.461795986 0.0476149991
vt -0.461795986 0.0476149991
vt -0.433990985 0.0463959984
vt -0.434938997 0.0524520017
vt -0.0476149991 0.211999997
vt -0.0524520017 0.211999997
vt -0.0476149991 0.211999997
vt -0.461795986 0.0476149991
vt -0.434938997 0.0524520017
vt -0.437124014 0.0582909994
vt -0.461795986 0.0476149991
vt -0.437124014 0.0582909994
vt -0.463301003 0.0510790013
vt -0.463301003 0.0510790013
vt -0.437124014 0.0582909994
vt -0.440483987 0.0637430027
vt -0.463301003 0.0510790013
vt -0.440483987 0.0637430027
vt -0.465893 0.0540819988
vt -0.465893 0.0540819988
vt -0.440483987 0.0637430027
vt -0.444922 0.0686519966
vt -0.0540819988 0.211999997
vt -0.0686519966 0.211999997
vt -0.0540819988 0.211999997
vt -0.465893 0.0540819988
vt -0.444922 0.0686519966
vt -0.450309992 0.0728769973
vt -0.465893 0.0540819988
vt -0.450309992 0.0728769973
vt -0.469377995 0.0564029999
vt -0.469377995 0.0564029999
vt -0.450309992 0.0728769973
vt -0.45649299 0.0762960017
vt -0.0564029999 0.211999997
vt -0.0762960017 0.211999997
vt -0.0564029999 0.211999997
vt -0.469377995 0.0564029999
vt -0.45649299 0.0762960017
vt -0.463292986 0.0788120031
vt -0.469377995 0.0564029999
vt -0.463292986 0.0788120031
vt -0.473500013 0.0578670017
vt -0.473500013 0.0578670017
vt -0.463292986 0.0788120031
vt -0.470515013 0.0803499967
vt -0.473500013 0.0578670017
vt -0.470515013 0.0803499967
vt -0.47795099 0.0583680011
vt -0.47795099 0.0583680011
vt -0.470515013 0.0803499967
vt -0.47795099 0.0808679983
vt -0.0583680011 0.211999997
vt -0.0808679983 0.211999997
vt -0.0583680011 0.211999997
vt -0.47795099 0.0583680011
vt -0.47795099 0.0808679983
vt -0.485386997 0.0803499967
vt -0.47795099 0.0583680011
vt -0.485386997 0.0803499967
vt -0.48240301 0.0578670017
vt -0.48240301 0.0578670017
vt -0.485386997 0.0803499967
vt -0.492610008 0.0788120031
vt -0.48240301 0.0578670017
vt -0.492610008 0.0788120031
vt -0.486523986 0.0564029999
vt -0.486523986 0.0564029999
vt -0.492610008 0.0788120031
vt -0.499410003 0.0762960017
vt -0.0564029999 0.211999997
vt -0.0762960017 0.211999997
vt -0.0564029999 0.211999997
vt -0.486523986 0.0564029999
vt -0.499410003 0.0762960017
vt -0.505593002 0.0728769973
vt -0.486523986 0.0564029999
vt -0.505593002 0.0728769973
vt -0.490009993 0.0540819988
vt -0.490009993 0.0540819988
vt -0.505593002 0.0728769973
vt -0.510981023 0.0686519966
vt -0.0540819988 0.211999997
vt -0.0686519966 0.211999997
vt -0.0540819988 0.211999997
vt -0.490009993 0.0540819988
vt -0.510981023 0.0686519966
vt -0.515419006 0.0637430027
vt -0.490009993 0.0540819988
vt -0.515419006 0.0637430027
vt -0.492601007 0.0510790013
vt -0.492601007 0.0510790013
vt -0.515419006 0.0637430027
vt -0.518778026 0.0582909994
vt -0.492601007 0.0510790013
vt -0.518778026 0.0582909994
vt -0.494105995 0.0476149991
vt -0.494105995 0.0476149991
vt -0.518778026 0.0582909994
vt -0.520964026 0.0524520017
vt -0.0476149991 0.211999997
vt -0.0524520017 0.211999997
vt -0.0476149991 0.211999997
vt -0.494105995 0.0476149991
vt -0.520964026 0.0524520017
vt -0.521911979 0.0463959984
vt -0.494105995 0.0476149991
vt -0.521911979 0.0463959984
vt -0.494450986 0.0448679999
vt 0.52195102 0.0448679999
vt 0.494450986 0.0448679999
vt 0.494412988 0.0439470001
vt 0.521911979 0.0463959984
vt 0.494450986 0.0448679999
vt 0.52195102 0.0448679999
vt 0.52195102 0.0448679999
vt 0.494412988 0.0439470001
vt 0.521595001 0.0402950011
vt 0.521595001 0.0402950011
vt 0.494412988 0.0439470001
vt 0.493499011 0.0403469987
vt 0.521595001 0.0402950011
vt 0.493499011 0.0403469987
vt 0.520022988 0.0343259983
vt -0.0343259983 -0.211999997
vt -0.0403469987 -0.211999997
vt -0.0403469987 -0.211999997
vt 0.520022988 0.0343259983
vt 0.493499011 0.0403469987
vt 0.517239988 0.0286609996
vt 0.517239988 0.0286609996
vt 0.493499011 0.0403469987
vt 0.491430998 0.0370829999
vt 0.517239988 0.0286609996
vt 0.491430998 0.0370829999
vt 0.513327003 0.0234609991
vt -0.0234609991 -0.211999997
vt -0.0370829999 -0.211999997
vt -0.0370829999 -0.211999997
vt 0.513327003 0.0234609991
vt 0.491430998 0.0370829999
vt 0.508396983 0.0188779999
vt 0.508396983 0.0188779999
vt 0.491430998 0.0370829999
vt 0.488364011 0.0343960002
vt 0.508396983 0.0188779999
vt 0.488364011 0.0343960002
vt 0.502590001 0.0150420005
vt 0.502590001 0.0150420005
vt 0.488364011 0.0343960002
vt 0.484524995 0.0324859992
vt 0.502590001 0.0150420005
vt 0.484524995 0.0324859992
vt 0.496075004 0.0120639997
vt -0.0120639997 -0.211999997
vt -0.0324859992 -0.211999997
vt -0.0324859992 -0.211999997
vt 0.496075004 0.0120639997
vt 0.484524995 0.0324859992
vt 0.489037991 0.0100299995
vt 0.489037991 0.0100299995
vt 0.484524995 0.0324859992
vt 0.480197996 0.0314939991
vt 0.489037991 0.0100299995
vt 0.480197996 0.0314939991
vt 0.481682986 0.00899800006
vt 0.481682986 0.00899800006
vt 0.480197996 0.0314939991
vt 0.475704998 0.0314939991
vt 0.481682986 0.00899800006
vt 0.475704998 0.0314939991
vt 0.474220008 0.00899800006
vt -0.00899800006 -0.211999997
vt -0.0314939991 -0.211999997
vt -0.0314939991 -0.211999997
vt 0.474220008 0.00899800006
vt 0.475704998 0.0314939991
vt 0.46686399 0.0100299995
vt 0.46686399 0.0100299995
vt 0.475704998 0.0314939991
vt 0.471377999 0.0324859992
vt 0.46686399 0.0100299995
vt 0.471377999 0.0324859992
vt 0.459827989 0.0120639997
vt -0.0120639997 -0.211999997
vt -0.0324859992 -0.211999997
vt -0.0324859992 -0.211999997
vt 0.459827989 0.0120639997
vt 0.471377999 0.0324859992
vt 0.45331201 0.0150420005
vt 0.45331201 0.0150420005
vt 0.471377999 0.0324859992
vt 0.467537999 0.0343960002
vt 0.45331201 0.0150420005
vt 0.467537999 0.0343960002
vt 0.447506011 0.0188779999
vt 0.447506011 0.0188779999
vt 0.467537999 0.0343960002
vt 0.464471012 0.0370829999
vt 0.447506011 0.0188779999
vt 0.464471012 0.0370829999
vt 0.442575008 0.0234609991
vt -0.0234609991 -0.211999997
vt -0.0370829999 -0.211999997
vt -0.0370829999 -0.211999997
vt 0.442575008 0.0234609991
vt 0.464471012 0.0370829999
vt 0.438663006 0.0286609996
vt 0.438663006 0.0286609996
vt 0.464471012 0.0370829999
vt 0.462404013 0.0403469987
vt 0.438663006 0.0286609996
vt 0.462404013 0.0403469987
vt 0.435880005 0.0343259983
vt -0.0343259983 -0.211999997
vt -0.0403469987 -0.211999997
vt -0.0403469987 -0.211999997
vt 0.435880005 0.0343259983
vt 0.462404013 0.0403469987
vt 0.434307992 0.0402950011
vt 0.434307992 0.0402950011
vt 0.462404013 0.0403469987
vt 0.461490005 0.0439470001
vt 0.434307992 0.0402950011
vt 0.461490005 0.0439470001
vt 0.433990985 0.0463959984
vt 0.433990985 0.0463959984
vt 0.461490005 0.0439470001
vt 0.461795986 0.0476149991
vt 0.433990985 0.0463959984
vt 0.461795986 0.0476149991
vt 0.434938997 0.0524520017
vt -0.0524520017 -0.211999997
vt -0.0476149991 -0.211999997
vt -0.0476149991 -0.211999997
vt 0.434938997 0.0524520017
vt 0.461795986 0.0476149991
vt 0.437124014 0.0582909994
vt 0.437124014 0.0582909994
vt 0.461795986 0.0476149991
vt 0.463301003 0.0510790013
vt 0.437124014 0.0582909994
vt 0.463301003 0.0510790013
vt 0.440483987 0.0637430027
vt 0.440483987 0.0637430027
vt 0.463301003 0.0510790013
vt 0.465893 0.0540819988
vt 0.440483987 0.0637430027
vt 0.465893 0.0540819988
vt 0.444922 0.0686519966
vt -0.0686519966 -0.211999997
vt -0.0540819988 -0.211999997
vt -0.0540819988 -0.211999997
vt 0.444922 0.0686519966
vt 0.465893 0.0540819988
vt 0.450309992 0.0728769973
vt 0.450309992 0.0728769973
vt 0.465893 0.0540819988
vt 0.469377995 0.0564029999
vt 0.450309992 0.0728769973
vt 0.469377995 0.0564029999
vt 0.45649299 0.0762960017
vt -0.0762960017 -0.211999997
vt -0.0564029999 -0.211999997
vt -0.0564029999 -0.211999997
vt 0.45649299 0.0762960017
vt 0.469377995 0.0564029999
vt 0.463292986 0.0788120031
vt 0.463292986 0.0788120031
vt 0.469377995 0.0564029999
vt 0.473500013 0.0578670017
vt 0.463292986 0.0788120031
vt 0.473500013 0.0578670017
vt 0.470515013 0.0803499967
vt 0.470515013 0.0803499967
vt 0.473500013 0.0578670017
vt 0.47795099 0.0583680011
vt 0.470515013 0.0803499967
vt 0.47795099 0.0583680011
vt 0.47795099 0.0808679983
vt -0.0808679983 -0.211999997
vt -0.0583680011 -0.211999997
vt -0.0583680011 -0.211999997
vt 0.47795099 0.0808679983
vt 0.47795099 0.0583680011
vt 0.485386997 0.0803499967
vt 0.485386997 0.0803499967
vt 0.47795099 0.0583680011
vt 0.48240301 0.0578670017
vt 0.485386997 0.0803499967
vt 0.48240301 0.0578670017
vt 0.492610008 0.0788120031
vt 0.492610008 0.0788120031
vt 0.48240301 0.0578670017
vt 0.486523986 0.0564029999
vt 0.492610008 0.0788120031
vt 0.486523986 0.0564029999
vt 0.499410003 0.0762960017
vt -0.0762960017 -0.211999997
vt -0.0564029999 -0.211999997
vt -0.0564029999 -0.211999997
vt 0.499410003 0.0762960017
vt 0.486523986 0.0564029999
vt 0.505593002 0.0728769973
vt 0.505593002 0.0728769973
vt 0.486523986 0.0564029999
vt 0.490009993 0.0540819988
vt 0.505593002 0.0728769973
vt 0.490009993 0.0540819988
vt 0.510981023 0.0686519966
vt -0.0686519966 -0.211999997
vt -0.0540819988 -0.211999997
vt -0.0540819988 -0.211999997
vt 0.510981023 0.0686519966
vt 0.490009993 0.0540819988
vt 0.515419006 0.0637430027
vt 0.515419006 0.0637430027
vt 0.490009993 0.0540819988
vt 0.492601007 0.0510790013
vt 0.515419006 0.0637430027
vt 0.492601007 0.0510790013
vt 0.518778026 0.0582909994
vt 0.518778026 0.0582909994
vt 0.492601007 0.0510790013
vt 0.494105995 0.0476149991
vt 0.518778026 0.0582909994
vt 0.494105995 0.0476149991
vt 0.520964026 0.0524520017
vt -0.0524520017 -0.211999997
vt -0.0476149991 -0.211999997
vt -0.0476149991 -0.211999997
vt 0.520964026 0.0524520017
vt 0.494105995 0.0476149991
vt 0.521911979 0.0463959984
vt 0.521911979 0.0463959984
vt 0.494105995 0.0476149991
vt 0.494450986 0.0448679999
vt -0.494450986 0.0448679999
vt -0.52195102 0.0448679999
vt -0.494412988 0.0439470001
vt -0.521911979 0.0463959984
vt -0.52195102 0.0448679999
vt -0.494450986 0.0448679999
vt -0.52195102 0.0448679999
vt -0.521595001 0.0402950011
vt -0.494412988 0.0439470001
vt -0.0439470001 -0.236000001
vt -0.0402950011 -0.236000001
vt -0.0402950011 -0.236000001
vt -0.494412988 0.0439470001
vt -0.521595001 0.0402950011
vt -0.493499011 0.0403469987
vt -0.493499011 0.0403469987
vt -0.521595001 0.0402950011
vt -0.520022988 0.0343259983
vt -0.0403469987 -0.236000001
vt -0.0343259983 -0.236000001
vt -0.0403469987 -0.236000001
vt -0.493499011 0.0403469987
vt -0.520022988 0.0343259983
vt -0.517239988 0.0286609996
vt -0.493499011 0.0403469987
vt -0.517239988 0.0286609996
vt -0.491430998 0.0370829999
vt -0.491430998 0.0370829999
vt -0.517239988 0.0286609996
vt -0.513327003 0.0234609991
vt -0.0370829999 -0.236000001
vt -0.0234609991 -0.236000001
vt -0.0370829999 -0.236000001
vt -0.491430998 0.0370829999
vt -0.513327003 0.0234609991
vt -0.508396983 0.0188779999
vt -0.491430998 0.0370829999
vt -0.508396983 0.0188779999
vt -0.488364011 0.0343960002
vt -0.488364011 0.0343960002
vt -0.508396983 0.0188779999
vt -0.502590001 0.0150420005
vt -0.488364011 0.0343960002
vt -0.502590001 0.0150420005
vt -0.484524995 0.0324859992
vt -0.484524995 0.0324859992
vt -0.502590001 0.0150420005
vt -0.496075004 0.0120639997
vt -0.0324859992 -0.236000001
vt -0.0120639997 -0.236000001
vt -0.0324859992 -0.236000001
vt -0.484524995 0.0324859992
vt -0.496075004 0.0120639997
vt -0.489037991 0.0100299995
vt -0.484524995 0.0324859992
vt -0.489037991 0.0100299995
vt -0.480197996 0.0314939991
vt -0.480197996 0.0314939991
vt -0.489037991 0.0100299995
vt -0.481682986 0.00899800006
vt -0.480197996 0.0314939991
vt -0.481682986 0.00899800006
vt -0.475704998 0.0314939991
vt -0.475704998 0.0314939991
vt -0.481682986 0.00899800006
vt -0.474220008 0.00899800006
vt -0.0314939991 -0.236000001
vt -0.00899800006 -0.236000001
vt -0.0314939991 -0.236000001
vt -0.475704998 0.0314939991
vt -0.474220008 0.00899800006
vt -0.46686399 0.0100299995
vt -0.475704998 0.0314939991
vt -0.46686399 0.0100299995
vt -0.471377999 0.0324859992
vt -0.471377999 0.0324859992
vt -0.46686399 0.0100299995
vt -0.459827989 0.0120639997
vt -0.0324859992 -0.236000001
vt -0.0120639997 -0.236000001
vt -0.0324859992 -0.236000001
vt -0.471377999 0.0324859992
vt -0.459827989 0.0120639997
vt -0.45331201 0.0150420005
vt -0.471377999 0.0324859992
vt -0.45331201 0.0150420005
vt -0.467537999 0.0343960002
vt -0.467537999 0.0343960002
vt -0.45331201 0.0150420005
vt -0.447506011 0.0188779999
vt -0.467537999 0.0343960002
vt -0.447506011 0.0188779999
vt -0.464471012 0.0370829999
vt -0.464471012 0.0370829999
vt -0.447506011 0.0188779999
vt -0.442575008 0.0234609991
vt -0.0370829999 -0.236000001
vt -0.0234609991 -0.236000001
vt -0.0370829999 -0.236000001
vt -0.464471012 0.0370829999
vt -0.442575008 0.0234609991
vt -0.438663006 0.0286609996
vt -0.464471012 0.0370829999
vt -0.438663006 0.0286609996
vt -0.462404013 0.0403469987
vt -0.462404013 0.0403469987
vt -0.438663006 0.0286609996
vt -0.435880005 0.0343259983
vt -0.0403469987 -0.236000001
vt -0.0343259983 -0.236000001
vt -0.0403469987 -0.236000001
vt -0.462404013 0.0403469987
vt -0.435880005 0.0343259983
vt -0.434307992 0.0402950011
vt -0.462404013 0.0403469987
vt -0.434307992 0.0402950011
vt -0.461490005 0.0439470001
vt -0.461490005 0.0439470001
vt -0.434307992 0.0402950011
vt -0.433990985 0.0463959984
vt -0.461490005 0.0439470001
vt -0.433990985 0.0463959984
vt -0.461795986 0.0476149991
vt -0.461795986 0.0476149991
vt -0.433990985 0.0463959984
vt -0.434938997 0.0524520017
vt -0.0476149991 -0.236000001
vt -0.0524520017 -0.236000001
vt -0.0476149991 -0.236000001
vt -0.461795986 0.0476149991
vt -0.434938997 0.0524520017
vt -0.437124014 0.0582909994
vt -0.461795986 0.0476149991
vt -0.437124014 0.0582909994
vt -0.463301003 0.0510790013
vt -0.463301003 0.0510790013
vt -0.437124014 0.0582909994
vt -0.440483987 0.0637430027
vt -0.463301003 0.0510790013
vt -0.440483987 0.0637430027
vt -0.465893 0.0540819988
vt -0.465893 0.0540819988
vt -0.440483987 0.0637430027
vt -0.444922 0.0686519966
vt -0.0540819988 -0.236000001
vt -0.0686519966 -0.236000001
vt -0.0540819988 -0.236000001
vt -0.465893 0.0540819988
vt -0.444922 0.0686519966
vt -0.450309992 0.0728769973
vt -0.465893 0.0540819988
vt -0.450309992 0.0728769973
vt -0.469377995 0.0564029999
vt -0.469377995 0.0564029999
vt -0.450309992 0.0728769973
vt -0.45649299 0.0762960017
vt -0.0564029999 -0.236000001
vt -0.0762960017 -0.236000001
vt -0.0564029999 -0.236000001
vt -0.469377995 0.0564029999
vt -0.45649299 0.0762960017
vt -0.463292986 0.0788120031
vt -0.469377995 0.0564029999
vt -0.463292986 0.0788120031
vt -0.473500013 0.0578670017
vt -0.473500013 0.0578670017
vt -0.463292986 0.0788120031
vt -0.470515013 0.0803499967
vt -0.473500013 0.0578670017
vt -0.470515013 0.0803499967
vt -0.47795099 0.0583680011
vt -0.47795099 0.0583680011
vt -0.470515013 0.0803499967
vt -0.47795099 0.0808679983
vt -0.0583680011 -0.236000001
vt -0.0808679983 -0.236000001
vt -0.0583680011 -0.236000001
vt -0.47795099 0.0583680011
vt -0.47795099 0.0808679983
vt -0.485386997 0.0803499967
vt -0.47795099 0.0583680011
vt -0.485386997 0.0803499967
vt -0.48240301 0.0578670017
vt -0.48240301 0.0578670017
vt -0.485386997 0.0803499967
vt -0.492610008 0.0788120031
vt -0.48240301 0.0578670017
vt -0.492610008 0.0788120031
vt -0.486523986 0.0564029999
vt -0.486523986 0.0564029999
vt -0.492610008 0.0788120031
vt -0.499410003 0.0762960017
vt -0.0564029999 -0.236000001
vt -0.0762960017 -0.236000001
vt -0.0564029999 -0.236000001
vt -0.486523986 0.0564029999
vt -0.499410003 0.0762960017
vt -0.505593002 0.0728769973
vt -0.486523986 0.0564029999
vt -0.505593002 0.0728769973
vt -0.490009993 0.0540819988
vt -0.490009993 0.0540819988
vt -0.505593002 0.0728769973
vt -0.510981023 0.0686519966
vt -0.0540819988 -0.236000001
vt -0.0686519966 -0.236000001
vt -0.0540819988 -0.236000001
vt -0.490009993 0.0540819988
vt -0.510981023 0.0686519966
vt -0.515419006 0.0637430027
vt -0.490009993 0.0540819988
vt -0.515419006 0.0637430027
vt -0.492601007 0.0510790013
vt -0.492601007 0.0510790013
vt -0.515419006 0.0637430027
vt -0.518778026 0.0582909994
vt -0.492601007 0.0510790013
vt -0.518778026 0.0582909994
vt -0.494105995 0.0476149991
vt -0.494105995 0.0476149991
vt -0.518778026 0.0582909994
vt -0.520964026 0.0524520017
vt -0.0476149991 -0.236000001
vt -0.0524520017 -0.236000001
vt -0.0476149991 -0.236000001
vt -0.494105995 0.0476149991
vt -0.520964026 0.0524520017
vt -0.521911979 0.0463959984
vt -0.494105995 0.0476149991
vt -0.521911979 0.0463959984
vt -0.494450986 0.0448679999
f 1/1 2/2 3/3
f 4/4 5/5 6/6
f 7/7 8/8 9/9
f 3/10 2/11 10/12
f 6/13 5/14 11/15
f 12/16 13/17 14/18
f 15/19 8/20 7/21
f 16/22 17/23 18/24
f 19/25 17/26 16/27
f 20/28 21/29 22/30
f 23/31 21/32 20/33
f 14/34 13/35 24/36
f 5/37 25/38 11/39
f 11/40 25/41 25/42
f 11/43 25/44 26/45
f 26/46 25/47 25/48
f 26/49 25/50 27/51
f 27/52 25/53 28/54
f 27/55 28/56 29/57
f 29/58 28/59 30/60
f 29/61 30/62 31/63
f 31/64 30/65 30/66
f 31/67 30/68 32/69
f 32/70 30/71 33/72
f 32/73 33/74 34/75
f 34/76 33/77 33/78
f 34/79 33/80 35/81
f 35/82 33/83 36/84
f 35/85 36/86 37/87
f 37/88 36/89 38/90
f 37/91 38/92 39/93
f 39/94 38/95 38/96
f 39/97 38/98 40/99
f 40/100 38/101 41/102
f 40/103 41/104 42/105
f 42/106 41/107 43/108
f 42/109 43/110 44/111
f 44/112 43/113 43/114
f 44/115 43/116 45/117
f 45/118 43/119 46/120
f 45/121 46/122 47/123
f 47/124 46/125 46/126
f 47/127 46/128 48/129
f 48/130 46/131 49/132
f 48/133 49/134 50/135
f 50/136 49/137 51/138
f 50/139 51/140 52/141
f 52/142 51/143 51/144
f 52/145 51/146 53/147
f 53/148 51/149 54/150
f 53/151 54/152 55/153
f 55/154 54/155 56/156
f 55/157 56/158 57/159
f 57/160 56/161 56/162
f 57/163 56/164 58/165
f 58/166 56/167 59/168
f 58/169 59/170 60/171
f 60/172 59/173 59/174
f 60/175 59/176 61/177
f 61/178 59/179 62/180
f 61/181 62/182 63/183
f 63/184 62/185 64/186
f 63/187 64/188 65/189
f 65/190 64/191 64/192
f 65/193 64/194 66/195
f 66/196 64/197 67/198
f 66/199 67/200 68/201
f 68/202 67/203 67/204
f 68/205 67/206 69/207
f 69/208 67/209 70/210
f 69/211 70/212 71/213
f 71/214 70/215 72/216
f 71/217 72/218 73/219
f 73/220 72/221 72/222
f 73/223 72/224 74/225
f 74/226 72/227 75/228
f 74/229 75/230 76/231
f 76/232 75/233 77/234
f 76/235 77/236 78/237
f 78/238 77/239 77/240
f 78/241 77/242 79/243
f 79/244 77/245 80/246
f 79/247 80/248 81/249
f 81/250 80/251 80/252
f 81/253 80/254 82/255
f 82/256 80/257 4/258
f 82/259 4/260 6/261
f 14/262 24/263 83/264
f 83/265 24/266 84/267
f 83/268 84/269 85/270
f 85/271 84/272 84/273
f 85/274 84/275 86/276
f 86/277 84/278 87/279
f 86/280 87/281 88/282
f 88/283 87/284 87/285
f 88/286 87/287 89/288
f 89/289 87/290 90/291
f 89/292 90/293 91/294
f 91/295 90/296 92/297
f 91/298 92/299 93/300
f 93/301 92/302 92/303
f 93/304 92/305 94/306
f 94/307 92/308 95/309
f 94/310 95/311 96/312
f 96/313 95/314 95/315
f 96/316 95/317 97/318
f 97/319 95/320 98/321
f 97/322 98/323 99/324
f 99/325 98/326 100/327
f 99/328 100/329 101/330
f 101/331 100/332 100/333
f 101/334 100/335 102/336
f 102/337 100/338 103/339
f 102/340 103/341 104/342
f 104/343 103/344 105/345
f 104/346 105/347 106/348
f 106/349 105/350 105/351
f 106/352 105/353 107/354
f 107/355 105/356 108/357
f 107/358 108/359 109/360
f 109/361 108/362 108/363
f 109/364 108/365 110/366
f 110/367 108/368 111/369
f 110/370 111/371 112/372
f 112/373 111/374 113/375
f 112/376 113/377 114/378
f 114/379 113/380 113/381
f 114/382 113/383 115/384
f 115/385 113/386 116/387
f 115/388 116/389 117/390
f 117/391 116/392 118/393
f 117/394 118/395 119/396
f 119/397 118/398 118/399
f 119/400 118/401 120/402
f 120/403 118/404 121/405
f 120/406 121/407 122/408
f 122/409 121/410 121/411
f 122/412 121/413 123/414
f 123/415 121/416 124/417
f 123/418 124/419 125/420
f 125/421 124/422 126/423
f 125/424 126/425 127/426
f 127/427 126/428 126/429
f 127/430 126/431 128/432
f 128/433 126/434 129/435
f 128/436 129/437 130/438
f 130/439 129/440 131/441
f 130/442 131/443 132/444
f 132/445 131/446 131/447
f 132/448 131/449 133/450
f 133/451 131/452 134/453
f 133/454 134/455 135/456
f 135/457 134/458 134/459
f 135/460 134/461 136/462
f 136/463 134/464 137/465
f 136/466 137/467 138/468
f 138/469 137/470 139/471
f 138/472 139/473 140/474
f 140/475 139/476 139/477
f 140/478 139/479 12/480
f 12/481 139/482 13/483
f 21/484 23/485 141/486
f 141/487 23/488 142/489
f 141/490 142/491 143/492
f 143/493 142/494 142/495
f 143/496 142/497 144/498
f 144/499 142/500 145/501
f 144/502 145/503 146/504
f 146/505 145/506 145/507
f 146/508 145/509 147/510
f 147/511 145/512 148/513
f 147/514 148/515 149/516
f 149/517 148/518 150/519
f 149/520 150/521 151/522
f 151/523 150/524 150/525
f 151/526 150/527 152/528
f 152/529 150/530 153/531
f 152/532 153/533 154/534
f 154/535 153/536 153/537
f 154/538 153/539 155/540
f 155/541 153/542 156/543
f 155/544 156/545 157/546
f 157/547 156/548 158/549
f 157/550 158/551 159/552
f 159/553 158/554 158/555
f 159/556 158/557 160/558
f 160/559 158/560 161/561
f 160/562 161/563 162/564
f 162/565 161/566 163/567
f 162/568 163/569 164/570
f 164/571 163/572 163/573
f 164/574 163/575 165/576
f 165/577 163/578 166/579
f 165/580 166/581 167/582
f 167/583 166/584 166/585
f 167/586 166/587 168/588
f 168/589 166/590 169/591
f 168/592 169/593 170/594
f 170/595 169/596 171/597
f 170/598 171/599 172/600
f 172/601 171/602 171/603
f 172/604 171/605 173/606
f 173/607 171/608 174/609
f 173/610 174/611 175/612
f 175/613 174/614 176/615
f 175/616 176/617 177/618
f 177/619 176/620 176/621
f 177/622 176/623 178/624
f 178/625 176/626 179/627
f 178/628 179/629 180/630
f 180/631 179/632 179/633
f 180/634 179/635 181/636
f 181/637 179/638 182/639
f 181/640 182/641 183/642
f 183/643 182/644 184/645
f 183/646 184/647 185/648
f 185/649 184/650 184/651
f 185/652 184/653 186/654
f 186/655 184/656 187/657
f 186/658 187/659 188/660
f 188/661 187/662 189/663
f 188/664 189/665 190/666
f 190/667 189/668 189/669
f 190/670 189/671 191/672
f 191/673 189/674 192/675
f 191/676 192/677 193/678
f 193/679 192/680 192/681
f 193/682 192/683 194/684
f 194/685 192/686 195/687
f 194/688 195/689 196/690
f 196/691 195/692 197/693
f 196/694 197/695 198/696
f 198/697 197/698 197/699
f 198/700 197/701 22/702
f 22/703 197/704 20/705
f 8/706 15/707 199/708
f 199/709 15/710 200/711
f 199/712 200/713 199/714
f 199/715 200/716 201/717
f 199/718 201/719 202/720
f 202/721 201/722 203/723
f 202/724 203/725 204/726
f 204/727 203/728 205/729
f 204/730 205/731 204/732
f 204/733 205/734 206/735
f 204/736 206/737 207/738
f 207/739 206/740 208/741
f 207/742 208/743 207/744
f 207/745 208/746 209/747
f 207/748 209/749 210/750
f 210/751 209/752 211/753
f 210/754 211/755 212/756
f 212/757 211/758 213/759
f 212/760 213/761 212/762
f 212/763 213/764 214/765
f 212/766 214/767 215/768
f 215/769 214/770 216/771
f 215/772 216/773 217/774
f 217/775 216/776 218/777
f 217/778 218/779 217/780
f 217/781 218/782 219/783
f 217/784 219/785 220/786
f 220/787 219/788 221/789
f 220/790 221/791 220/792
f 220/793 221/794 222/795
f 220/796 222/797 223/798
f 223/799 222/800 224/801
f 223/802 224/803 225/804
f 225/805 224/806 226/807
f 225/808 226/809 225/810
f 225/811 226/812 227/813
f 225/814 227/815 228/816
f 228/817 227/818 229/819
f 228/820 229/821 230/822
f 230/823 229/824 231/825
f 230/826 231/827 230/828
f 230/829 231/830 232/831
f 230/832 232/833 233/834
f 233/835 232/836 234/837
f 233/838 234/839 233/840
f 233/841 234/842 235/843
f 233/844 235/845 236/846
f 236/847 235/848 237/849
f 236/850 237/851 238/852
f 238/853 237/854 239/855
f 238/856 239/857 238/858
f 238/859 239/860 240/861
f 238/862 240/863 241/864
f 241/865 240/866 242/867
f 241/868 242/869 243/870
f 243/871 242/872 244/873
f 243/874 244/875 243/876
f 243/877 244/878 245/879
f 243/880 245/881 246/882
f 246/883 245/884 247/885
f 246/886 247/887 246/888
f 246/889 247/890 248/891
f 246/892 248/893 249/894
f 249/895 248/896 250/897
f 249/898 250/899 251/900
f 251/901 250/902 252/903
f 251/904 252/905 251/906
f 251/907 252/908 253/909
f 251/910 253/911 254/912
f 254/913 253/914 255/915
f 254/916 255/917 254/918
f 254/919 255/920 256/921
f 254/922 256/923 9/924
f 9/925 256/926 7/927
f 16/928 257/929 19/930
f 19/931 257/932 257/933
f 19/934 257/935 258/936
f 258/937 257/938 259/939
f 258/940 259/941 258/942
f 258/943 259/944 260/945
f 258/946 260/947 261/948
f 261/949 260/950 262/951
f 261/952 262/953 261/954
f 261/955 262/956 263/957
f 261/958 263/959 264/960
f 264/961 263/962 265/963
f 264/964 265/965 266/966
f 266/967 265/968 267/969
f 266/970 267/971 266/972
f 266/973 267/974 268/975
f 266/976 268/977 269/978
f 269/979 268/980 270/981
f 269/982 270/983 271/984
f 271/985 270/986 272/987
f 271/988 272/989 271/990
f 271/991 272/992 273/993
f 271/994 273/995 274/996
f 274/997 273/998 275/999
f 274/1000 275/1001 274/1002
f 274/1003 275/1004 276/1005
f 274/1006 276/1007 277/1008
f 277/1009 276/1010 278/1011
f 277/1012 278/1013 279/1014
f 279/1015 278/1016 280/1017
f 279/1018 280/1019 279/1020
f 279/1021 280/1022 281/1023
f 279/1024 281/1025 282/1026
f 282/1027 281/1028 283/1029
f 282/1030 283/1031 282/1032
f 282/1033 283/1034 284/1035
f 282/1036 284/1037 285/1038
f 285/1039 284/1040 286/1041
f 285/1042 286/1043 287/1044
f 287/1045 286/1046 288/1047
f 287/1048 288/1049 287/1050
f 287/1051 288/1052 289/1053
f 287/1054 289/1055 290/1056
f 290/1057 289/1058 291/1059
f 290/1060 291/1061 292/1062
f 292/1063 291/1064 293/1065
f 292/1066 293/1067 292/1068
f 292/1069 293/1070 294/1071
f 292/1072 294/1073 295/1074
f 295/1075 294/1076 296/1077
f 295/1078 296/1079 295/1080
f 295/1081 296/1082 297/1083
f 295/1084 297/1085 298/1086
f 298/1087 297/1088 299/1089
f 298/1090 299/1091 300/1092
f 300/1093 299/1094 301/1095
f 300/1096 301/1097 300/1098
f 300/1099 301/1100 302/1101
f 300/1102 302/1103 303/1104
f 303/1105 302/1106 304/1107
f 303/1108 304/1109 305/1110
f 305/1111 304/1112 306/1113
f 305/1114 306/1115 305/1116
f 305/1117 306/1118 307/1119
f 305/1120 307/1121 308/1122
f 308/1123 307/1124 309/1125
f 308/1126 309/1127 308/1128
f 308/1129 309/1130 310/1131
f 308/1132 310/1133 311/1134
f 311/1135 310/1136 312/1137
f 311/1138 312/1139 313/1140
f 313/1141 312/1142 314/1143
f 313/1144 314/1145 313/1146
f 313/1147 314/1148 18/1149
f 313/1150 18/1151 17/1152
f 2/1153 315/1154 10/1155
f 10/1156 315/1157 315/1158
f 10/1159 315/1160 316/1161
f 316/1162 315/1163 317/1164
f 316/1165 317/1166 316/1167
f 316/1168 317/1169 318/1170
f 316/1171 318/1172 319/1173
f 319/1174 318/1175 320/1176
f 319/1177 320/1178 319/1179
f 319/1180 320/1181 321/1182
f 319/1183 321/1184 322/1185
f 322/1186 321/1187 323/1188
f 322/1189 323/1190 324/1191
f 324/1192 323/1193 325/1194
f 324/1195 325/1196 324/1197
f 324/1198 325/1199 326/1200
f 324/1201 326/1202 327/1203
f 327/1204 326/1205 328/1206
f 327/1207 328/1208 327/1209
f 327/1210 328/1211 329/1212
f 327/1213 329/1214 330/1215
f 330/1216 329/1217 331/1218
f 330/1219 331/1220 332/1221
f 332/1222 331/1223 333/1224
f 332/1225 333/1226 332/1227
f 332/1228 333/1229 334/1230
f 332/1231 334/1232 335/1233
f 335/1234 334/1235 336/1236
f 335/1237 336/1238 337/1239
f 337/1240 336/1241 338/1242
f 337/1243 338/1244 337/1245
f 337/1246 338/1247 339/1248
f 337/1249 339/1250 340/1251
f 340/1252 339/1253 341/1254
f 340/1255 341/1256 340/1257
f 340/1258 341/1259 342/1260
f 340/1261 342/1262 343/1263
f 343/1264 342/1265 344/1266
f 343/1267 344/1268 345/1269
f 345/1270 344/1271 346/1272
f 345/1273 346/1274 345/1275
f 345/1276 346/1277 347/1278
f 345/1279 347/1280 348/1281
f 348/1282 347/1283 349/1284
f 348/1285 349/1286 350/1287
f 350/1288 349/1289 351/1290
f 350/1291 351/1292 350/1293
f 350/1294 351/1295 352/1296
f 350/1297 352/1298 353/1299
f 353/1300 352/1301 354/1302
f 353/1303 354/1304 353/1305
f 353/1306 354/1307 355/1308
f 353/1309 355/1310 356/1311
f 356/1312 355/1313 357/1314
f 356/1315 357/1316 358/1317
f 358/1318 357/1319 359/1320
f 358/1321 359/1322 358/1323
f 358/1324 359/1325 360/1326
f 358/1327 360/1328 361/1329
f 361/1330 360/1331 362/1332
f 361/1333 362/1334 363/1335
f 363/1336 362/1337 364/1338
f 363/1339 364/1340 363/1341
f 363/1342 364/1343 365/1344
f 363/1345 365/1346 366/1347
f 366/1348 365/1349 367/1350
f 366/1351 367/1352 366/1353
f 366/1354 367/1355 368/1356
f 366/1357 368/1358 369/1359
f 369/1360 368/1361 370/1362
f 369/1363 370/1364 371/1365
f 371/1366 370/1367 372/1368
f 371/1369 372/1370 371/1371
f 371/1372 372/1373 1/1374
f 371/1375 1/1376 3/1377
f 373/1378 374/1379 375/1380
f 376/1381 374/1382 373/1383
f 373/1384 375/1385 377/1386
f 377/1387 375/1388 378/1389
f 377/1390 378/1391 379/1392
f 379/1393 378/1394 378/1395
f 379/1396 378/1397 380/1398
f 380/1399 378/1400 381/1401
f 380/1402 381/1403 382/1404
f 382/1405 381/1406 381/1407
f 382/1408 381/1409 383/1410
f 383/1411 381/1412 384/1413
f 383/1414 384/1415 385/1416
f 385/1417 384/1418 386/1419
f 385/1420 386/1421 387/1422
f 387/1423 386/1424 386/1425
f 387/1426 386/1427 388/1428
f 388/1429 386/1430 389/1431
f 388/1432 389/1433 390/1434
f 390/1435 389/1436 391/1437
f 390/1438 391/1439 392/1440
f 392/1441 391/1442 391/1443
f 392/1444 391/1445 393/1446
f 393/1447 391/1448 394/1449
f 393/1450 394/1451 395/1452
f 395/1453 394/1454 394/1455
f 395/1456 394/1457 396/1458
f 396/1459 394/1460 397/1461
f 396/1462 397/1463 398/1464
f 398/1465 397/1466 399/1467
f 398/1468 399/1469 400/1470
f 400/1471 399/1472 399/1473
f 400/1474 399/1475 401/1476
f 401/1477 399/1478 402/1479
f 401/1480 402/1481 403/1482
f 403/1483 402/1484 402/1485
f 403/1486 402/1487 404/1488
f 404/1489 402/1490 405/1491
f 404/1492 405/1493 406/1494
f 406/1495 405/1496 407/1497
f 406/1498 407/1499 408/1500
f 408/1501 407/1502 407/1503
f 408/1504 407/1505 409/1506
f 409/1507 407/1508 410/1509
f 409/1510 410/1511 411/1512
f 411/1513 410/1514 412/1515
f 411/1516 412/1517 413/1518
f 413/1519 412/1520 412/1521
f 413/1522 412/1523 414/1524
f 414/1525 412/1526 415/1527
f 414/1528 415/1529 416/1530
f 416/1531 415/1532 415/1533
f 416/1534 415/1535 417/1536
f 417/1537 415/1538 418/1539
f 417/1540 418/1541 419/1542
f 419/1543 418/1544 420/1545
f 419/1546 420/1547 421/1548
f 421/1549 420/1550 420/1551
f 421/1552 420/1553 422/1554
f 422/1555 420/1556 423/1557
f 422/1558 423/1559 424/1560
f 424/1561 423/1562 425/1563
f 424/1564 425/1565 426/1566
f 426/1567 425/1568 425/1569
f 426/1570 425/1571 427/1572
f 427/1573 425/1574 428/1575
f 427/1576 428/1577 429/1578
f 429/1579 428/1580 428/1581
f 429/1582 428/1583 430/1584
f 430/1585 428/1586 431/1587
f 430/1588 431/1589 432/1590
f 432/1591 431/1592 433/1593
f 432/1594 433/1595 434/1596
f 434/1597 433/1598 433/1599
f 434/1600 433/1601 376/1602
f 376/1603 433/1604 374/1605
f 435/1606 436/1607 437/1608
f 438/1609 436/1610 435/1611
f 436/1612 439/1613 437/1614
f 437/1615 439/1616 439/1617
f 437/1618 439/1619 440/1620
f 440/1621 439/1622 441/1623
f 440/1624 441/1625 440/1626
f 440/1627 441/1628 442/1629
f 440/1630 442/1631 443/1632
f 443/1633 442/1634 444/1635
f 443/1636 444/1637 443/1638
f 443/1639 444/1640 445/1641
f 443/1642 445/1643 446/1644
f 446/1645 445/1646 447/1647
f 446/1648 447/1649 448/1650
f 448/1651 447/1652 449/1653
f 448/1654 449/1655 448/1656
f 448/1657 449/1658 450/1659
f 448/1660 450/1661 451/1662
f 451/1663 450/1664 452/1665
f 451/1666 452/1667 453/1668
f 453/1669 452/1670 454/1671
f 453/1672 454/1673 453/1674
f 453/1675 454/1676 455/1677
f 453/1678 455/1679 456/1680
f 456/1681 455/1682 457/1683
f 456/1684 457/1685 456/1686
f 456/1687 457/1688 458/1689
f 456/1690 458/1691 459/1692
f 459/1693 458/1694 460/1695
f 459/1696 460/1697 461/1698
f 461/1699 460/1700 462/1701
f 461/1702 462/1703 461/1704
f 461/1705 462/1706 463/1707
f 461/1708 463/1709 464/1710
f 464/1711 463/1712 465/1713
f 464/1714 465/1715 464/1716
f 464/1717 465/1718 466/1719
f 464/1720 466/1721 467/1722
f 467/1723 466/1724 468/1725
f 467/1726 468/1727 469/1728
f 469/1729 468/1730 470/1731
f 469/1732 470/1733 469/1734
f 469/1735 470/1736 471/1737
f 469/1738 471/1739 472/1740
f 472/1741 471/1742 473/1743
f 472/1744 473/1745 474/1746
f 474/1747 473/1748 475/1749
f 474/1750 475/1751 474/1752
f 474/1753 475/1754 476/1755
f 474/1756 476/1757 477/1758
f 477/1759 476/1760 478/1761
f 477/1762 478/1763 477/1764
f 477/1765 478/1766 479/1767
f 477/1768 479/1769 480/1770
f 480/1771 479/1772 481/1773
f 480/1774 481/1775 482/1776
f 482/1777 481/1778 483/1779
f 482/1780 483/1781 482/1782
f 482/1783 483/1784 484/1785
f 482/1786 484/1787 485/1788
f 485/1789 484/1790 486/1791
f 485/1792 486/1793 487/1794
f 487/1795 486/1796 488/1797
f 487/1798 488/1799 487/1800
f 487/1801 488/1802 489/1803
f 487/1804 489/1805 490/1806
f 490/1807 489/1808 491/1809
f 490/1810 491/1811 490/1812
f 490/1813 491/1814 492/1815
f 490/1816 492/1817 493/1818
f 493/1819 492/1820 494/1821
f 493/1822 494/1823 495/1824
f 495/1825 494/1826 496/1827
f 495/1828 496/1829 495/1830
f 495/1831 496/1832 438/1833
f 495/1834 438/1835 435/1836
