# Exported from USD for MuJoCo with source material subsets
v 10.4697645 -1.0725332 1.43000073
v 10.4697647 -1.37253319 1.05000086
v 10.4697645 -1.14253345 1.50000061
v 11.1789479 -1.0725332 1.4300011
v 10.4697647 -1.0725332 1.05000086
v 11.3597643 -1.0725332 1.05000134
v 11.3597643 -1.37253319 1.05000134
v 11.2079428 -1.37253319 1.50000098
v 10.4697645 -1.37253319 1.50000061
v 11.2079428 -1.14253345 1.50000098
v 11.4454043 -1.27253319 1.2625398
v 11.4454043 -1.14253345 1.2625398
v 11.4679429 -1.27253319 1.13000123
v 11.465688 -1.0725332 1.14326124
v 11.4679429 -1.0725332 1.13000123
v 11.5579429 -1.37253319 1.15000133
v 11.5579429 -1.27253319 1.15000133
v 11.557943 -1.27253319 0.800001514
v 11.467943 -1.27253319 0.800001454
v 11.557943 -1.37253319 0.800001514
v 11.3597644 -1.37253319 0.800001395
v 11.3597644 -1.0725332 0.800001395
v 11.467943 -1.0725332 0.800001454
v 10.4547652 -6.22253071 0.0700013161
v 10.4547646 -6.22253071 1.43000073
v 10.3369383 -6.22253071 1.43000073
v 10.4547652 -6.15253101 1.26361847e-06
v 10.4547645 -6.15253101 1.50000061
v 10.3369389 -6.22253071 0.0700011969
v 10.4547652 -5.93253075 1.26361847e-06
v 10.307944 -5.93253075 1.14440918e-06
v 10.4547645 -5.93253075 1.50000061
v 10.1579439 -5.93253075 0.150001121
v 10.1579433 -5.93253075 1.35000061
v 10.2279434 -6.22253071 1.32100574
v 10.2279439 -6.22253071 0.178996158
v 11.487943 -1.0725332 0.780001414
v 10.4697649 -1.0725332 0.780000877
v 10.4697649 -1.37253319 0.780000877
v 11.4879433 -1.0725332 0.228996706
v 11.3289485 -1.0725332 0.0700016737
v 10.4697652 -1.0725332 0.0700013161
v 10.4697652 -1.14253345 1.26361847e-06
v 11.557943 -1.14253345 0.780001473
v 11.557943 -1.37253319 0.780001473
v 11.5579433 -1.37253319 0.200001669
v 11.3579434 -1.37253319 1.74045563e-06
v 10.4697652 -1.37253319 1.26361847e-06
v 10.4547645 -1.37253319 1.50000061
v 10.3079433 -1.37253319 1.50000049
v 10.4547652 -1.37253319 1.26361847e-06
v 10.4547645 -1.14253345 1.50000061
v 10.307944 -1.37253319 1.14440918e-06
v 10.1579433 -1.37253319 1.35000061
v 10.1579439 -1.37253319 0.150001121
v 10.3369389 -1.0725332 0.0700011969
v 10.2279439 -1.0725332 0.178996158
v 10.4547652 -1.0725332 0.0700013161
v 10.3369383 -1.0725332 1.43000073
v 10.4547646 -1.0725332 1.43000073
v 11.5579429 -5.93253075 1.15000133
v 11.4454043 -6.0225309 1.2625398
v 11.5579429 -6.0225309 1.15000133
v 11.4679429 -6.0225309 1.13000123
v 11.557943 -6.0225309 0.800001514
v 11.467943 -6.0225309 0.800001454
v 11.557943 -5.93253075 0.800001514
v 11.3579431 -5.93253075 0.800001395
v 11.357943 -5.93253075 1.05000134
v 11.3579431 -6.22253071 0.800001395
v 11.467943 -6.22253071 0.800001454
v 11.357943 -6.22253071 1.05000134
v 11.4679429 -6.22253071 1.13000123
v 11.465688 -6.22253071 1.14326124
v 11.4454043 -6.15253101 1.2625398
v 11.2079428 -6.15253101 1.50000098
v 11.1789479 -6.22253071 1.4300011
v 10.4697647 -6.22253071 1.05000086
v 10.4697645 -6.22253071 1.43000073
v 10.4697645 -6.15253101 1.50000061
v 10.4697647 -5.93253075 1.05000086
v 11.2079428 -5.93253075 1.50000098
v 10.4697645 -5.93253075 1.50000061
v 11.487943 -6.22253071 0.780001414
v 11.4879433 -6.22253071 0.228996706
v 11.557943 -6.15253101 0.780001473
v 11.5579433 -6.15253101 0.200001669
v 10.3079433 -1.14253345 1.50000049
v 10.2279434 -1.0725332 1.32100574
v 10.1579433 -1.14253345 1.35000061
v 10.1579439 -1.14253345 0.150001121
v 10.4547652 -1.14253345 1.26361847e-06
v 10.307944 -1.14253345 1.14440918e-06
v 11.3579434 -1.14253345 1.74045563e-06
v 11.5579433 -1.14253345 0.200001669
v 10.1579439 -6.15253101 0.150001121
v 10.307944 -6.15253101 1.14440918e-06
v 10.1579433 -6.15253101 1.35000061
v 10.3079433 -6.15253101 1.50000049
v 10.3079433 -5.93253075 1.50000049
v 11.3579434 -6.15253101 1.74045563e-06
v 11.5579433 -5.93253075 0.200001669
v 11.3579434 -5.93253075 1.74045563e-06
v 11.557943 -5.93253075 0.780001473
v 11.3289485 -6.22253071 0.0700016737
v 11.3597644 -5.93253075 0.780001354
v 11.3597645 -5.93253075 0.530001473
v 10.469765 -5.93253075 0.530001056
v 10.4697652 -5.93253075 1.26361847e-06
v 11.3597644 -6.22253071 0.780001354
v 10.4697652 -6.15253101 1.26361847e-06
v 10.4697652 -6.22253071 0.0700013161
v 11.3597645 -6.22253071 0.530001473
v 10.469765 -6.22253071 0.530001056
vt -2.57500196 1.42999995
vt -2.275002 1.04999995
vt -2.50500202 1.5
vt -1.42999995 0.245679006
vt -1.42999995 -0.463505
vt -1.04999995 0.245679006
vt -2.57500196 1.42999995
vt -2.57500196 1.04999995
vt -2.275002 1.04999995
vt -1.04999995 0.245679006
vt -1.42999995 -0.463505
vt -1.04999995 -0.644321024
vt 1.04999995 0.245679006
vt 1.04999995 -0.644321024
vt 1.5 -0.492500007
vt 1.04999995 0.245679006
vt 1.5 -0.492500007
vt 1.5 0.245679006
vt -2.275002 1.04999995
vt -2.275002 1.5
vt -2.50500202 1.5
vt 2.50500202 1.5
vt 2.37500191 1.26253903
vt 2.50500202 1.26253903
vt 2.50500202 1.26253903
vt 2.37500191 1.26253903
vt 2.37500191 1.13
vt 2.50500202 1.26253903
vt 2.37500191 1.13
vt 2.57500196 1.14326
vt 2.57500196 1.14326
vt 2.37500191 1.13
vt 2.57500196 1.13
vt 2.37500191 -0.729960978
vt 2.275002 -0.842499971
vt 2.37500191 -0.842499971
vt -1.26253903 -0.729960978
vt -1.14999998 -0.842499971
vt -1.13 -0.752499998
vt -1.14999998 -0.842499971
vt -0.800000012 -0.842499971
vt -1.13 -0.752499998
vt -1.13 -0.752499998
vt -0.800000012 -0.842499971
vt -0.800000012 -0.752499998
vt -2.37500191 -0.842499971
vt -2.275002 -0.842499971
vt -2.37500191 -0.752499998
vt 0.800000012 -0.842499971
vt 1.04999995 -0.644321024
vt 0.800000012 -0.644321024
vt -2.37500191 -0.752499998
vt -2.57500196 -0.644321024
vt -2.57500196 -0.752499998
vt -0.800000012 -0.644321024
vt -1.04999995 -0.644321024
vt -0.800000012 -0.752499998
vt 0.0700000003 0.260679007
vt 1.42999995 0.260679007
vt 1.42999995 0.378504992
vt -2.5749979 1.42999995
vt -2.5749979 0.0700000003
vt -2.50499797 0
vt -2.5749979 1.42999995
vt -2.50499797 0
vt -2.50499797 1.5
vt 0.0700000003 0.260679007
vt 1.42999995 0.378504992
vt 0.0700000003 0.378504992
vt -2.50499797 0
vt -2.28499794 0
vt -2.50499797 1.5
vt 0 0.260679007
vt 0 0.407499999
vt -1.5 0.260679007
vt -2.28499794 0
vt -2.28499794 1.5
vt -2.50499797 1.5
vt 0 0.407499999
vt -0.150000006 0.557500005
vt -1.35000002 0.557500005
vt 1.42999995 0.378504992
vt 1.32100499 0.487500012
vt 0.0700000003 0.378504992
vt 1.32100499 0.487500012
vt 0.178994998 0.487500012
vt 0.0700000003 0.378504992
vt 2.57500196 -0.772499979
vt 2.57500196 0.245679006
vt 2.275002 0.245679006
vt -0.779999971 0.245679006
vt -0.779999971 -0.772499979
vt -0.228994995 -0.772499979
vt -0.779999971 0.245679006
vt -0.228994995 -0.772499979
vt -0.0700000003 -0.613505006
vt -0.779999971 0.245679006
vt -0.0700000003 -0.613505006
vt -0.0700000003 0.245679006
vt -2.57500196 0.779999971
vt -2.57500196 0.0700000003
vt -2.275002 0.779999971
vt -2.57500196 0.0700000003
vt -2.50500202 0
vt -2.275002 0.779999971
vt 2.50500202 -0.842499971
vt 2.57500196 -0.772499979
vt 2.275002 -0.842499971
vt 2.57500196 -0.772499979
vt 2.275002 0.245679006
vt 2.275002 -0.842499971
vt 0.779999971 -0.842499971
vt 0.779999971 0.245679006
vt 0.200000003 -0.842499971
vt 0.200000003 -0.842499971
vt 0.779999971 0.245679006
vt 0 -0.642499983
vt 0 -0.642499983
vt 0.779999971 0.245679006
vt 0 0.245679006
vt -2.275002 0
vt -2.275002 0.779999971
vt -2.50500202 0
vt 1.5 0.260679007
vt 1.5 0.407499999
vt 0 0.260679007
vt 2.275002 1.5
vt 2.275002 0
vt 2.50500202 1.5
vt 0 0.260679007
vt 1.5 0.407499999
vt 0 0.407499999
vt 1.5 0.407499999
vt 1.35000002 0.557500005
vt 0 0.407499999
vt 1.35000002 0.557500005
vt 0.150000006 0.557500005
vt 0 0.407499999
vt -0.0700000003 0.378504992
vt -0.178994998 0.487500012
vt -0.0700000003 0.260679007
vt -0.0700000003 0.260679007
vt -1.42999995 0.378504992
vt -1.42999995 0.260679007
vt 2.57500196 0.0700000003
vt 2.57500196 1.42999995
vt 2.50500202 1.5
vt -2.28499794 -0.842499971
vt -2.37499809 -0.729960978
vt -2.37499809 -0.842499971
vt 1.14999998 -0.842499971
vt 1.26253903 -0.729960978
vt 1.13 -0.752499998
vt 1.14999998 -0.842499971
vt 1.13 -0.752499998
vt 0.800000012 -0.842499971
vt 0.800000012 -0.842499971
vt 1.13 -0.752499998
vt 0.800000012 -0.752499998
vt 2.37499809 -0.842499971
vt 2.37499809 -0.752499998
vt 2.28499794 -0.842499971
vt -0.800000012 -0.842499971
vt -0.800000012 -0.642499983
vt -1.04999995 -0.642499983
vt 2.5749979 -0.642499983
vt 2.37499809 -0.752499998
vt 2.5749979 -0.752499998
vt 0.800000012 -0.642499983
vt 0.800000012 -0.752499998
vt 1.04999995 -0.642499983
vt -2.5749979 1.13
vt -2.37499809 1.13
vt -2.5749979 1.14326
vt -2.37499809 1.13
vt -2.37499809 1.26253903
vt -2.50499797 1.26253903
vt -2.37499809 1.13
vt -2.50499797 1.26253903
vt -2.5749979 1.14326
vt -2.50499797 1.26253903
vt -2.37499809 1.26253903
vt -2.50499797 1.5
vt 1.04999995 -0.642499983
vt 1.42999995 -0.463505
vt 1.04999995 0.245679006
vt 1.42999995 -0.463505
vt 1.42999995 0.245679006
vt 1.04999995 0.245679006
vt 2.5749979 1.42999995
vt 2.50499797 1.5
vt 2.28499794 1.04999995
vt 2.5749979 1.42999995
vt 2.28499794 1.04999995
vt 2.5749979 1.04999995
vt -1.04999995 -0.642499983
vt -1.04999995 0.245679006
vt -1.5 -0.492500007
vt 2.28499794 1.04999995
vt 2.50499797 1.5
vt 2.28499794 1.5
vt -1.04999995 0.245679006
vt -1.5 0.245679006
vt -1.5 -0.492500007
vt 2.57500196 0.245679006
vt 2.50500202 0.245679006
vt 2.57500196 -0.463505
vt 2.57500196 -0.463505
vt 2.50500202 0.245679006
vt 2.50500202 -0.492500007
vt 0.779999971 -0.772499979
vt 0.228994995 -0.772499979
vt 0.779999971 -0.842499971
vt 0.779999971 -0.842499971
vt 0.228994995 -0.772499979
vt 0.200000003 -0.842499971
vt -2.28499794 0.245679006
vt -2.50499797 0.245679006
vt -2.28499794 -0.492500007
vt -2.28499794 -0.492500007
vt -2.50499797 0.245679006
vt -2.50499797 -0.492500007
vt 2.28499794 0.245679006
vt 2.28499794 -0.642499983
vt 2.5749979 0.245679006
vt 2.5749979 0.245679006
vt 2.28499794 -0.642499983
vt 2.5749979 -0.642499983
vt 1.42999995 0.245679006
vt 1.42999995 -0.463505
vt 1.5 0.245679006
vt 1.5 0.245679006
vt 1.42999995 -0.463505
vt 1.5 -0.492500007
vt -2.50499797 1.5
vt -2.37499809 1.26253903
vt -2.28499794 1.5
vt -2.28499794 -0.492500007
vt -2.37499809 -0.729960978
vt -2.28499794 -0.842499971
vt 1.5 -0.492500007
vt 1.42999995 -0.463505
vt 1.26253903 -0.729960978
vt 1.26253903 -0.729960978
vt 1.42999995 -0.463505
vt 1.14326 -0.750244975
vt 1.42999995 -0.463505
vt 1.04999995 -0.642499983
vt 1.14326 -0.750244975
vt -1.14326 -0.750244975
vt -1.04999995 -0.642499983
vt -1.04999995 -0.642499983
vt 1.14326 -0.750244975
vt 1.04999995 -0.642499983
vt 1.13 -0.752499998
vt 1.13 -0.752499998
vt 1.04999995 -0.642499983
vt 0.800000012 -0.752499998
vt -2.5749979 1.13
vt -2.5749979 0.800000012
vt -2.37499809 1.13
vt -2.37499809 1.13
vt -2.5749979 0.800000012
vt -2.37499809 0.800000012
vt 2.28499794 1.04999995
vt 2.28499794 0.800000012
vt 2.5749979 1.04999995
vt 2.5749979 1.04999995
vt 2.28499794 0.800000012
vt 2.5749979 0.800000012
vt 2.5749979 -0.642499983
vt 2.28499794 -0.642499983
vt 2.37499809 -0.752499998
vt 2.37499809 -0.752499998
vt 2.28499794 -0.642499983
vt 2.28499794 -0.842499971
vt -1.5 -0.492500007
vt -1.14999998 -0.842499971
vt -1.04999995 -0.642499983
vt -1.04999995 -0.642499983
vt -1.14999998 -0.842499971
vt -0.800000012 -0.842499971
vt -2.28499794 0.800000012
vt -2.28499794 1.14999998
vt -2.37499809 0.800000012
vt -2.37499809 0.800000012
vt -2.28499794 1.14999998
vt -2.37499809 1.14999998
vt 2.57500196 0.260679007
vt 2.57500196 0.378504992
vt 2.50500202 0.260679007
vt 2.50500202 0.260679007
vt 2.57500196 0.378504992
vt 2.50500202 0.407499999
vt -1.42999995 0.378504992
vt -0.0700000003 0.260679007
vt -1.32100499 0.487500012
vt -1.32100499 0.487500012
vt -0.0700000003 0.260679007
vt -0.178994998 0.487500012
vt -1.32100499 0.487500012
vt -1.35000002 0.557500005
vt -1.42999995 0.378504992
vt -1.42999995 0.378504992
vt -1.35000002 0.557500005
vt -1.5 0.407499999
vt -2.57500196 1.32100499
vt -2.57500196 0.178994998
vt -2.50500202 1.35000002
vt -2.50500202 1.35000002
vt -2.57500196 0.178994998
vt -2.50500202 0.150000006
vt 2.57500196 0.0700000003
vt 2.50500202 1.5
vt 2.50500202 0
vt 2.50500202 0
vt 2.50500202 1.5
vt 2.275002 0
vt -2.57500196 0.260679007
vt -2.50500202 0.260679007
vt -2.57500196 0.378504992
vt -2.57500196 0.378504992
vt -2.50500202 0.260679007
vt -2.50500202 0.407499999
vt -0.178994998 0.487500012
vt -0.0700000003 0.378504992
vt -0.150000006 0.557500005
vt -0.150000006 0.557500005
vt -0.0700000003 0.378504992
vt 0 0.407499999
vt -2.50500202 0.557500005
vt -2.50500202 0.407499999
vt -2.275002 0.557500005
vt -2.275002 0.557500005
vt -2.50500202 0.407499999
vt -2.275002 0.407499999
vt -2.50500202 0.150000006
vt -2.275002 0.150000006
vt -2.50500202 1.35000002
vt -2.50500202 1.35000002
vt -2.275002 0.150000006
vt -2.275002 1.35000002
vt -2.50500202 0.407499999
vt -2.50500202 0.260679007
vt -2.275002 0.407499999
vt -2.275002 0.407499999
vt -2.50500202 0.260679007
vt -2.275002 0.260679007
vt 2.50500202 0.557500005
vt 2.275002 0.557500005
vt 2.50500202 0.407499999
vt 2.50500202 0.407499999
vt 2.275002 0.557500005
vt 2.275002 0.407499999
vt 2.50500202 0.407499999
vt 2.275002 0.407499999
vt 2.50500202 0.260679007
vt 2.50500202 0.260679007
vt 2.275002 0.407499999
vt 2.275002 0.260679007
vt -2.275002 0.245679006
vt -2.50500202 0.245679006
vt -2.275002 -0.642499983
vt -2.275002 -0.642499983
vt -2.50500202 0.245679006
vt -2.50500202 -0.642499983
vt -2.275002 -0.642499983
vt -2.50500202 -0.642499983
vt -2.275002 -0.842499971
vt -2.275002 -0.842499971
vt -2.50500202 -0.642499983
vt -2.50500202 -0.842499971
vt 2.275002 0.200000003
vt 2.50500202 0.200000003
vt 2.275002 0.779999971
vt 2.275002 0.779999971
vt 2.50500202 0.200000003
vt 2.50500202 0.779999971
vt 2.50500202 0.200000003
vt 2.57500196 0.228994995
vt 2.50500202 0.779999971
vt 2.50500202 0.779999971
vt 2.57500196 0.228994995
vt 2.57500196 0.779999971
vt -2.50500202 -0.642499983
vt -2.50500202 0.245679006
vt -2.57500196 -0.613505006
vt -2.57500196 -0.613505006
vt -2.50500202 0.245679006
vt -2.57500196 0.245679006
vt 0 -0.642499983
vt -0.0700000003 -0.613505006
vt -0.200000003 -0.842499971
vt -0.200000003 -0.842499971
vt -0.0700000003 -0.613505006
vt -0.228994995 -0.772499979
vt 0.178994998 0.487500012
vt 0.150000006 0.557500005
vt 0.0700000003 0.378504992
vt 0.0700000003 0.378504992
vt 0.150000006 0.557500005
vt 0 0.407499999
vt 0.178994998 0.487500012
vt 1.32100499 0.487500012
vt 0.150000006 0.557500005
vt 0.150000006 0.557500005
vt 1.32100499 0.487500012
vt 1.35000002 0.557500005
vt 1.32100499 0.487500012
vt 1.42999995 0.378504992
vt 1.35000002 0.557500005
vt 1.35000002 0.557500005
vt 1.42999995 0.378504992
vt 1.5 0.407499999
vt 2.50499797 1.35000002
vt 2.28499794 1.35000002
vt 2.50499797 0.150000006
vt 2.50499797 0.150000006
vt 2.28499794 1.35000002
vt 2.28499794 0.150000006
vt 2.50499797 0.557500005
vt 2.28499794 0.557500005
vt 2.50499797 0.407499999
vt 2.50499797 0.407499999
vt 2.28499794 0.557500005
vt 2.28499794 0.407499999
vt -2.50499797 0.557500005
vt -2.50499797 0.407499999
vt -2.28499794 0.557500005
vt -2.28499794 0.557500005
vt -2.50499797 0.407499999
vt -2.28499794 0.407499999
vt -1.35000002 0.557500005
vt -1.5 0.407499999
vt 0 0.407499999
vt 0 0.407499999
vt -1.5 0.407499999
vt -1.5 0.260679007
vt 1.5 0.407499999
vt 1.42999995 0.378504992
vt 1.5 0.260679007
vt 1.5 0.260679007
vt 1.42999995 0.378504992
vt 1.42999995 0.260679007
vt -2.50499797 0.407499999
vt -2.50499797 0.260679007
vt -2.28499794 0.407499999
vt -2.28499794 0.407499999
vt -2.50499797 0.260679007
vt -2.28499794 0.260679007
vt 2.28499794 0.260679007
vt 2.50499797 0.260679007
vt 2.28499794 0.407499999
vt 2.28499794 0.407499999
vt 2.50499797 0.260679007
vt 2.50499797 0.407499999
vt 0 0.407499999
vt 0 0.260679007
vt 0.0700000003 0.378504992
vt 0.0700000003 0.378504992
vt 0 0.260679007
vt 0.0700000003 0.260679007
vt -2.57500196 -0.644321024
vt -2.37500191 -0.752499998
vt -2.275002 -0.644321024
vt -2.275002 -0.644321024
vt -2.37500191 -0.752499998
vt -2.275002 -0.842499971
vt -2.57500196 0.800000012
vt -2.275002 0.800000012
vt -2.57500196 1.04999995
vt -2.57500196 1.04999995
vt -2.275002 0.800000012
vt -2.275002 1.04999995
vt 0.800000012 -0.842499971
vt 1.14999998 -0.842499971
vt 1.04999995 -0.644321024
vt 1.04999995 -0.644321024
vt 1.14999998 -0.842499971
vt 1.5 -0.492500007
vt 2.275002 0.800000012
vt 2.37500191 0.800000012
vt 2.275002 1.14999998
vt 2.275002 1.14999998
vt 2.37500191 0.800000012
vt 2.37500191 1.14999998
vt 2.37500191 0.800000012
vt 2.57500196 0.800000012
vt 2.37500191 1.13
vt 2.37500191 1.13
vt 2.57500196 0.800000012
vt 2.57500196 1.13
vt -0.800000012 -0.752499998
vt -1.04999995 -0.644321024
vt -1.13 -0.752499998
vt -1.13 -0.752499998
vt -1.04999995 -0.644321024
vt -1.04999995 -0.644321024
vt -1.13 -0.752499998
vt -1.04999995 -0.644321024
vt -1.14326 -0.750244975
vt -1.14326 -0.750244975
vt -1.04999995 -0.644321024
vt -1.42999995 -0.463505
vt -1.14326 -0.750244975
vt -1.42999995 -0.463505
vt -1.26253903 -0.729960978
vt -1.26253903 -0.729960978
vt -1.42999995 -0.463505
vt -1.5 -0.492500007
vt 2.275002 -0.842499971
vt 2.37500191 -0.729960978
vt 2.275002 -0.492500007
vt 2.275002 1.5
vt 2.37500191 1.26253903
vt 2.50500202 1.5
vt 2.50500202 -0.492500007
vt 2.50500202 0.245679006
vt 2.275002 -0.492500007
vt 2.275002 -0.492500007
vt 2.50500202 0.245679006
vt 2.275002 0.245679006
vt -2.275002 0.245679006
vt -2.57500196 0.245679006
vt -2.275002 -0.644321024
vt -2.275002 -0.644321024
vt -2.57500196 0.245679006
vt -2.57500196 -0.644321024
vt 2.50499797 -0.842499971
vt 2.50499797 -0.642499983
vt 2.28499794 -0.842499971
vt 2.28499794 -0.842499971
vt 2.50499797 -0.642499983
vt 2.28499794 -0.642499983
vt -2.28499794 0.779999971
vt -2.50499797 0.779999971
vt -2.28499794 0.200000003
vt -2.28499794 0.200000003
vt -2.50499797 0.779999971
vt -2.50499797 0.200000003
vt 0.228994995 -0.772499979
vt 0.0700000003 -0.613505006
vt 0.200000003 -0.842499971
vt 0.200000003 -0.842499971
vt 0.0700000003 -0.613505006
vt 0 -0.642499983
vt -0.779999971 -0.644321024
vt -0.779999971 -0.842499971
vt -0.529999971 -0.644321024
vt -0.529999971 -0.644321024
vt 0 -0.642499983
vt -0.529999971 0.245679006
vt 0 -0.642499983
vt 0 0.245679006
vt -0.529999971 0.245679006
vt -0.779999971 -0.842499971
vt -0.200000003 -0.842499971
vt -0.529999971 -0.644321024
vt -0.529999971 -0.644321024
vt -0.200000003 -0.842499971
vt 0 -0.642499983
vt -2.5749979 -0.772499979
vt -2.50499797 -0.842499971
vt -2.28499794 -0.644321024
vt -2.5749979 -0.772499979
vt -2.28499794 -0.644321024
vt -2.5749979 -0.644321024
vt -2.28499794 -0.644321024
vt -2.50499797 -0.842499971
vt -2.28499794 -0.842499971
vt 0 -0.642499983
vt 0.0700000003 -0.613505006
vt 0 0.245679006
vt 0 0.245679006
vt 0.0700000003 -0.613505006
vt 0.0700000003 0.245679006
vt 0.779999971 -0.772499979
vt 0.779999971 -0.644321024
vt 0.529999971 -0.644321024
vt 0.0700000003 0.245679006
vt 0.0700000003 -0.613505006
vt 0.529999971 0.245679006
vt 0.529999971 0.245679006
vt 0.0700000003 -0.613505006
vt 0.529999971 -0.644321024
vt 0.779999971 -0.772499979
vt 0.529999971 -0.644321024
vt 0.228994995 -0.772499979
vt 0.228994995 -0.772499979
vt 0.529999971 -0.644321024
vt 0.0700000003 -0.613505006
vt 2.28499794 -0.642499983
vt 2.50499797 -0.642499983
vt 2.28499794 0.245679006
vt 2.28499794 0.245679006
vt 2.50499797 -0.642499983
vt 2.50499797 0.245679006
vt 2.28499794 0
vt 2.50499797 0
vt 2.28499794 0.529999971
vt 2.50499797 0
vt 2.5749979 0.0700000003
vt 2.28499794 0.529999971
vt 2.5749979 0.0700000003
vt 2.5749979 0.529999971
vt 2.28499794 0.529999971
vt -2.28499794 -0.644321024
vt -2.28499794 0.245679006
vt -2.5749979 -0.644321024
vt -2.5749979 -0.644321024
vt -2.28499794 0.245679006
vt -2.5749979 0.245679006
vt 2.28499794 0.779999971
vt 2.28499794 0.529999971
vt 2.5749979 0.779999971
vt 2.5749979 0.779999971
vt 2.28499794 0.529999971
vt 2.5749979 0.529999971
f 1/1 2/2 3/3
f 1/4 4/5 5/6
f 1/7 5/8 2/9
f 5/10 4/11 6/12
f 2/13 7/14 8/15
f 2/16 8/17 9/18
f 2/19 9/20 3/21
f 10/22 11/23 12/24
f 12/25 11/26 13/27
f 12/28 13/29 14/30
f 14/31 13/32 15/33
f 11/34 16/35 17/36
f 11/37 17/38 13/39
f 17/40 18/41 13/42
f 13/43 18/44 19/45
f 18/46 20/47 19/48
f 20/49 7/50 21/51
f 19/52 22/53 23/54
f 22/55 6/56 23/57
f 24/58 25/59 26/60
f 25/61 24/62 27/63
f 25/64 27/65 28/66
f 24/67 26/68 29/69
f 27/70 30/71 28/72
f 30/73 31/74 32/75
f 30/76 32/77 28/78
f 31/79 33/80 34/81
f 26/82 35/83 29/84
f 35/85 36/86 29/87
f 37/88 38/89 39/90
f 38/91 37/92 40/93
f 38/94 40/95 41/96
f 38/97 41/98 42/99
f 38/100 42/101 39/102
f 42/103 43/104 39/105
f 44/106 37/107 45/108
f 37/109 39/110 45/111
f 45/112 39/113 46/114
f 46/115 39/116 47/117
f 47/118 39/119 48/120
f 48/121 39/122 43/123
f 49/124 50/125 51/126
f 49/127 51/128 52/129
f 51/130 50/131 53/132
f 50/133 54/134 53/135
f 54/136 55/137 53/138
f 56/139 57/140 58/141
f 58/142 59/143 60/144
f 58/145 60/146 52/147
f 61/148 62/149 63/150
f 63/151 62/152 64/153
f 63/154 64/155 65/156
f 65/157 64/158 66/159
f 65/160 66/161 67/162
f 67/163 68/164 69/165
f 70/166 66/167 71/168
f 70/169 71/170 72/171
f 73/172 64/173 74/174
f 64/175 62/176 75/177
f 64/178 75/179 74/180
f 75/181 62/182 76/183
f 72/184 77/185 78/186
f 77/187 79/188 78/189
f 79/190 80/191 81/192
f 79/193 81/194 78/195
f 69/196 81/197 82/198
f 81/199 80/200 83/201
f 81/202 83/203 82/204
f 1/205 3/206 4/207
f 4/208 3/209 10/210
f 84/211 85/212 86/213
f 86/214 85/215 87/216
f 83/217 80/218 82/219
f 82/220 80/221 76/222
f 81/223 69/224 78/225
f 78/226 69/227 72/228
f 79/229 77/230 80/231
f 80/232 77/233 76/234
f 76/235 62/236 82/237
f 82/238 62/239 61/240
f 76/241 77/242 75/243
f 75/244 77/245 74/246
f 77/247 72/248 74/249
f 74/250 72/251 72/252
f 74/253 72/254 73/255
f 73/256 72/257 71/258
f 73/259 71/260 64/261
f 64/262 71/263 66/264
f 69/265 68/266 72/267
f 72/268 68/269 70/270
f 70/271 68/272 66/273
f 66/274 68/275 67/276
f 82/277 61/278 69/279
f 69/280 61/281 67/282
f 67/283 61/284 65/285
f 65/286 61/287 63/288
f 60/289 59/290 52/291
f 52/292 59/293 88/294
f 59/295 58/296 89/297
f 89/298 58/299 57/300
f 89/301 90/302 59/303
f 59/304 90/305 88/306
f 89/307 57/308 90/309
f 90/310 57/311 91/312
f 58/313 52/314 92/315
f 92/316 52/317 51/318
f 58/319 92/320 56/321
f 56/322 92/323 93/324
f 57/325 56/326 91/327
f 91/328 56/329 93/330
f 91/331 93/332 55/333
f 55/334 93/335 53/336
f 91/337 55/338 90/339
f 90/340 55/341 54/342
f 93/343 92/344 53/345
f 53/346 92/347 51/348
f 90/349 54/350 88/351
f 88/352 54/353 50/354
f 88/355 50/356 52/357
f 52/358 50/359 49/360
f 48/361 43/362 47/363
f 47/364 43/365 94/366
f 47/367 94/368 46/369
f 46/370 94/371 95/372
f 46/373 95/374 45/375
f 45/376 95/377 44/378
f 95/379 40/380 44/381
f 44/382 40/383 37/384
f 94/385 43/386 41/387
f 41/388 43/389 42/390
f 94/391 41/392 95/393
f 95/394 41/395 40/396
f 36/397 96/398 29/399
f 29/400 96/401 97/402
f 36/403 35/404 96/405
f 96/406 35/407 98/408
f 35/409 26/410 98/411
f 98/412 26/413 99/414
f 98/415 34/416 96/417
f 96/418 34/419 33/420
f 96/421 33/422 97/423
f 97/424 33/425 31/426
f 98/427 99/428 34/429
f 34/430 99/431 100/432
f 34/433 100/434 31/435
f 31/436 100/437 32/438
f 99/439 26/440 28/441
f 28/442 26/443 25/444
f 99/445 28/446 100/447
f 100/448 28/449 32/450
f 30/451 27/452 31/453
f 31/454 27/455 97/456
f 97/457 27/458 29/459
f 29/460 27/461 24/462
f 22/463 19/464 21/465
f 21/466 19/467 20/468
f 22/469 21/470 6/471
f 6/472 21/473 7/474
f 20/475 16/476 7/477
f 7/478 16/479 8/480
f 20/481 18/482 16/483
f 16/484 18/485 17/486
f 19/487 23/488 13/489
f 13/490 23/491 15/492
f 23/493 6/494 15/495
f 15/496 6/497 6/498
f 15/499 6/500 14/501
f 14/502 6/503 4/504
f 14/505 4/506 12/507
f 12/508 4/509 10/510
f 16/511 11/512 8/513
f 8/514 11/515 10/516
f 10/517 3/518 8/519
f 8/520 3/521 9/522
f 2/523 5/524 7/525
f 7/526 5/527 6/528
f 87/529 101/530 102/531
f 102/532 101/533 103/534
f 104/535 86/536 102/537
f 102/538 86/539 87/540
f 85/541 105/542 87/543
f 87/544 105/545 101/546
f 106/547 104/548 107/549
f 107/550 103/551 108/552
f 103/553 109/554 108/555
f 104/556 102/557 107/558
f 107/559 102/560 103/561
f 84/562 86/563 106/564
f 84/565 106/566 110/567
f 106/568 86/569 104/570
f 101/571 105/572 111/573
f 111/574 105/575 112/576
f 84/577 110/578 113/579
f 112/580 105/581 114/582
f 114/583 105/584 113/585
f 84/586 113/587 85/588
f 85/589 113/590 105/591
f 103/592 101/593 109/594
f 109/595 101/596 111/597
f 109/598 111/599 108/600
f 111/601 112/602 108/603
f 112/604 114/605 108/606
f 107/607 108/608 113/609
f 113/610 108/611 114/612
f 106/613 107/614 110/615
f 110/616 107/617 113/618
