# Exported from USD for MuJoCo with source material subsets
v -14.9279835 -5.81289799 0.859482462
v -14.9279835 -5.81260139 1.02448233
v -15.8079837 -5.81289799 0.859482342
v -15.8079838 -5.81260139 1.0244821
v -16.194318 -4.62583167 0.399478251
v -16.2074133 -4.62583167 0.399478251
v -16.1943182 -5.21983082 0.400545651
v -16.2074135 -5.21983082 0.400545651
v -16.194318 -4.62585933 0.383889908
v -16.1943182 -5.21985895 0.384957308
v -14.5817028 -5.21182329 0.396903926
v -14.5686096 -5.21201736 0.396770412
v -14.5729057 -4.61788947 0.395488495
v -14.5598124 -4.61808378 0.395354981
v -14.5818624 -5.2118581 0.381316418
v -14.5730652 -4.61792428 0.379901046
v -15.8079832 -4.03082282 1.02128019
v -14.9279829 -4.03082306 1.02128045
v -15.8079832 -4.03111917 0.856280321
v -14.9279829 -4.03111965 0.85628056
vt 0.40227899 0.862487018
vt 0.40227899 1.01140404
vt -0.397720993 0.862487018
vt -0.397720993 0.862487018
vt 0.40227899 1.01140404
vt -0.397720993 1.01140404
vt -0.748933971 0.208425999
vt -0.760838985 0.208425999
vt -0.748933971 -0.327677995
vt -0.748933971 -0.327677995
vt -0.760838985 0.208425999
vt -0.760838985 -0.327677995
vt 0.210124999 0.564668
vt 0.208425999 0.57873702
vt -0.325978994 0.499915987
vt -0.325978994 0.499915987
vt 0.208425999 0.57873702
vt -0.327677995 0.513984978
vt 0.717079997 -0.320048988
vt 0.728981972 -0.320208997
vt 0.725076973 0.216033995
vt 0.725076973 0.216033995
vt 0.728981972 -0.320208997
vt 0.736980021 0.215873003
vt 0.318356007 0.497516006
vt 0.320048988 0.511584997
vt -0.217727005 0.561946988
vt -0.217727005 0.561946988
vt 0.320048988 0.511584997
vt -0.216033995 0.576016009
vt 0.397720993 1.20563698
vt -0.40227899 1.20563698
vt 0.397720993 1.05671895
vt 0.397720993 1.05671895
vt -0.40227899 1.20563698
vt -0.40227899 1.05671895
f 1/1 2/2 3/3
f 3/4 2/5 4/6
f 5/7 6/8 7/9
f 7/10 6/11 8/12
f 9/13 5/14 10/15
f 10/16 5/17 7/18
f 11/19 12/20 13/21
f 13/22 12/23 14/24
f 15/25 11/26 16/27
f 16/28 11/29 13/30
f 17/31 18/32 19/33
f 19/34 18/35 20/36
