# Exported from USD for MuJoCo with source material subsets
v -9.78405366 -3.94356414 0.537893588
v -11.3842587 -3.9435639 0.53789323
v -9.78405366 -3.94226237 1.26235661
v -11.3842588 -3.9422619 1.26235637
v -11.601657 -5.13195797 1.26669414
v -11.6016571 -5.13133951 1.61108866
v -11.6016568 -4.40035649 1.26537944
v -11.6016568 -4.39973756 1.60977384
v -9.78405425 -5.59007116 1.25961003
v -11.3842594 -5.59007069 1.25960979
v -9.78405414 -5.59136291 0.540854866
v -11.3842593 -5.59136244 0.540854508
v -9.56665645 -5.13195845 1.26669463
v -9.56665609 -4.40035721 1.26537993
v -9.56665645 -5.13133999 1.61108916
v -9.56665609 -4.39973827 1.60977435
vt -0.729645014 0.76195401
vt 0.725085974 0.76195401
vt -0.729645014 1.41580498
vt -0.729645014 1.41580498
vt 0.725085974 0.76195401
vt 0.725085974 1.41580498
vt 0.48417899 1.28810096
vt 0.521722019 1.59892797
vt -0.176115006 1.36785305
vt -0.176115006 1.36785305
vt 0.521722019 1.59892797
vt -0.138572007 1.67867994
vt 0.729645014 1.23102605
vt -0.725085974 1.23102605
vt 0.729645014 0.582325995
vt 0.729645014 0.582325995
vt -0.725085974 1.23102605
vt -0.725085974 0.582325995
vt -0.48417899 1.28810096
vt 0.176115006 1.36785305
vt -0.521722019 1.59892797
vt -0.521722019 1.59892797
vt 0.176115006 1.36785305
vt 0.138572007 1.67867994
f 1/1 2/2 3/3
f 3/4 2/5 4/6
f 5/7 6/8 7/9
f 7/10 6/11 8/12
f 9/13 10/14 11/15
f 11/16 10/17 12/18
f 13/19 14/20 15/21
f 15/22 14/23 16/24
