# Exported from USD for MuJoCo with source material subsets
v -5.72809226 -7.37959123 0.703989262
v -5.72809226 -7.38726354 0.686115319
v -5.72809226 -7.38726354 0.738915199
v -5.7280922 -7.24561143 0.700559789
v -5.7280922 -7.20246387 0.686115319
v -5.7280922 -7.25526357 0.686115319
v -5.7280922 -7.23084379 0.7164967
v -5.7280922 -7.22688413 0.7164967
v -5.7280922 -7.22640586 0.708809787
v -5.72809223 -7.34213615 0.703989262
v -5.72809226 -7.33446384 0.738915199
v -5.72809223 -7.33446384 0.686115319
v -5.7280922 -7.20246387 0.738915199
v -5.7280922 -7.21013618 0.703989262
v -5.72809231 -7.45326353 0.738915199
v -5.72809231 -7.42884374 0.732996697
v -5.72809226 -7.43130184 0.71223926
v -5.72809226 -7.42884374 0.7164967
v -5.7280922 -7.1648438 0.732996697
v -5.7280922 -7.18926359 0.738915199
v -5.7280922 -7.13646389 0.738915199
v -5.72809223 -7.29930187 0.71223926
v -5.72809223 -7.29684377 0.732996697
v -5.72809223 -7.29684377 0.7164967
v -5.72809205 -6.67937542 0.703989262
v -5.72809205 -6.67739559 0.700559789
v -5.72809202 -6.6870482 0.686115319
v -5.72809202 -6.66310621 0.708809787
v -5.72809202 -6.65819002 0.708809787
v -5.72809202 -6.65621019 0.71223926
v -5.72809202 -6.65866781 0.7164967
v -5.72809202 -6.64192033 0.703989262
v -5.72809223 -7.29732204 0.708809787
v -5.72809205 -6.65866781 0.732996697
v -5.72809205 -6.6870482 0.738915199
v -5.72809202 -6.63424802 0.738915199
v -5.7280922 -7.24759126 0.703989262
v -5.72809223 -7.25526357 0.738915199
v -5.72809226 -7.3776114 0.700559789
v -5.7280922 -7.17961145 0.700559789
v -5.7280922 -7.16532207 0.708809787
v -5.72809217 -7.13646389 0.686115319
v -5.72809226 -7.36284376 0.7164967
v -5.72809226 -7.3588841 0.7164967
v -5.72809226 -7.35840583 0.708809787
v -5.72809205 -6.66262794 0.7164967
v -5.72809226 -7.42932201 0.708809787
v -5.7280922 -7.16088415 0.7164967
v -5.72809217 -7.1441362 0.703989262
v -5.72809223 -7.31359125 0.703989262
v -5.72809223 -7.31161142 0.700559789
v -5.72809223 -7.32126356 0.686115319
v -5.72809202 -6.66508604 0.71223926
v -5.7280922 -7.26846386 0.686115319
v -5.72809223 -7.32126356 0.738915199
v -5.72809205 -6.66262794 0.732996697
v -5.72809223 -7.26846386 0.738915199
v -5.7280922 -7.1673019 0.71223926
v -5.72809223 -7.29288412 0.7164967
v -5.72809223 -7.27613617 0.703989262
v -5.72809202 -6.64390064 0.700559789
v -5.72809202 -6.63424802 0.686115319
v -5.7280922 -7.1648438 0.7164967
v -5.72809223 -7.23084379 0.732996697
v -5.7280922 -7.23330188 0.71223926
v -5.7280922 -7.18159128 0.703989262
v -5.7280922 -7.18926359 0.686115319
v -5.72809226 -7.36332203 0.708809787
v -5.7280922 -7.23132206 0.708809787
v -5.72809226 -7.36284376 0.732996697
v -5.7280922 -7.16040588 0.708809787
v -5.72809226 -7.36530185 0.71223926
v -5.72809226 -7.44559122 0.703989262
v -5.72809226 -7.44361139 0.700559789
v -5.72809226 -7.45326353 0.686115319
v -5.72809226 -7.40046383 0.686115319
v -5.72809226 -7.42488409 0.7164967
v -5.72809226 -7.42440582 0.708809787
v -5.72809226 -7.40046383 0.738915199
v -5.72809226 -7.40813613 0.703989262
v -5.72809231 -7.51926351 0.738915199
v -5.72809231 -7.49484373 0.732996697
v -5.72809231 -7.49730182 0.71223926
v -5.72809231 -7.49484373 0.7164967
v -5.72809231 -7.49532199 0.708809787
v -5.72809231 -7.5115912 0.703989262
v -5.72809231 -7.50961137 0.700559789
v -5.72809231 -7.51926351 0.686115319
v -5.72809226 -7.46646381 0.686115319
v -5.72809231 -7.49088407 0.7164967
v -5.72809231 -7.4904058 0.708809787
v -5.72809231 -7.46646381 0.738915199
v -5.72809231 -7.47413612 0.703989262
v -5.72809223 -7.29240585 0.708809787
v -5.72809214 -6.98866821 0.732996697
v -5.72809214 -7.01704813 0.738915199
v -5.72809214 -6.96424795 0.738915199
v -5.72809214 -6.98866821 0.7164967
v -5.72809214 -6.99262786 0.732996697
v -5.72809214 -6.99262786 0.7164967
v -5.72809214 -6.99508596 0.71223926
v -5.72809214 -6.99310613 0.708809787
v -5.72809214 -7.00937534 0.703989262
v -5.72809214 -7.00739551 0.700559789
v -5.72809214 -7.01704813 0.686115319
v -5.72809214 -6.98818994 0.708809787
v -5.72809214 -6.97390056 0.700559789
v -5.72809214 -6.98621011 0.71223926
v -5.72809214 -6.97192026 0.703989262
v -5.72809211 -6.96424795 0.686115319
v -5.72809211 -6.92266822 0.732996697
v -5.72809214 -6.95104814 0.738915199
v -5.72809211 -6.89824796 0.738915199
v -5.72809211 -6.92266822 0.7164967
v -5.72809211 -6.92662788 0.732996697
v -5.72809211 -6.92662788 0.7164967
v -5.72809211 -6.92908598 0.71223926
v -5.72809211 -6.92710615 0.708809787
v -5.72809211 -6.94337535 0.703989262
v -5.72809211 -6.94139553 0.700559789
v -5.72809211 -6.95104814 0.686115319
v -5.72809211 -6.92218996 0.708809787
v -5.72809211 -6.90790058 0.700559789
v -5.72809211 -6.92021013 0.71223926
v -5.72809208 -6.79708601 0.71223926
v -5.72809208 -6.81137539 0.703989262
v -5.72809208 -6.81904817 0.738915199
v -5.72809211 -6.90592027 0.703989262
v -5.72809211 -6.89824796 0.686115319
v -5.72809211 -6.85666776 0.732996697
v -5.72809211 -6.88504816 0.738915199
v -5.72809208 -6.83224798 0.738915199
v -5.72809211 -6.85666776 0.7164967
v -5.72809208 -6.79462791 0.7164967
v -5.72809208 -6.79066778 0.7164967
v -5.72809208 -6.78821016 0.71223926
v -5.72809211 -6.8606279 0.732996697
v -5.72809211 -6.8606279 0.7164967
v -5.72809211 -6.86308599 0.71223926
v -5.72809208 -6.86110616 0.708809787
v -5.72809211 -6.87737537 0.703989262
v -5.72809211 -6.87539554 0.700559789
v -5.72809211 -6.88504816 0.686115319
v -5.72809208 -6.85618997 0.708809787
v -5.72809208 -6.84190059 0.700559789
v -5.72809208 -6.85421014 0.71223926
v -5.72809205 -6.77590061 0.700559789
v -5.72809205 -6.76624799 0.686115319
v -5.72809208 -6.81904817 0.686115319
v -5.72809208 -6.83992029 0.703989262
v -5.72809208 -6.83224798 0.686115319
v -5.72809208 -6.79066778 0.732996697
v -5.72809208 -6.76624799 0.738915199
v -5.72809208 -6.79462791 0.732996697
v -5.72809208 -6.79510618 0.708809787
v -5.72809208 -6.80939556 0.700559789
v -5.72809208 -6.79018999 0.708809787
v -5.72809205 -6.73108602 0.71223926
v -5.72809205 -6.72862793 0.7164967
v -5.72809205 -6.72910619 0.708809787
v -5.72809205 -6.7739203 0.703989262
v -5.72809205 -6.72466779 0.732996697
v -5.72809208 -6.75304819 0.738915199
v -5.72809205 -6.70024801 0.738915199
v -5.72809205 -6.72466779 0.7164967
v -5.72809205 -6.72862793 0.732996697
v -5.72809205 -6.7453754 0.703989262
v -5.72809205 -6.74339557 0.700559789
v -5.72809205 -6.75304819 0.686115319
v -5.72809205 -6.72419 0.708809787
v -5.72809205 -6.70990062 0.700559789
v -5.72809205 -6.72221017 0.71223926
v -5.72809205 -6.70792032 0.703989262
v -5.72809205 -6.70024801 0.686115319
v -5.71819201 -6.70024801 0.686115319
v -5.71819204 -6.70024801 0.738915199
v -5.71819204 -6.75304819 0.686115319
v -5.71819204 -6.75304819 0.738915199
v -5.7181921 -6.76624799 0.738915199
v -5.7181921 -6.81904817 0.738915199
v -5.71819204 -6.76624799 0.686115319
v -5.7181921 -6.81904817 0.686115319
v -5.7181921 -6.83224798 0.738915199
v -5.71819213 -6.88504816 0.738915199
v -5.7181921 -6.83224798 0.686115319
v -5.7181921 -6.88504816 0.686115319
v -5.71819213 -6.89824796 0.738915199
v -5.71819216 -6.95104814 0.738915199
v -5.7181921 -6.89824796 0.686115319
v -5.71819213 -6.95104814 0.686115319
v -5.71819216 -6.96424795 0.738915199
v -5.71819216 -7.01704813 0.738915199
v -5.71819213 -6.96424795 0.686115319
v -5.71819216 -7.01704813 0.686115319
v -5.71819219 -7.26846386 0.686115319
v -5.71819225 -7.26846386 0.738915199
v -5.72809223 -7.27811599 0.700559789
v -5.71819231 -7.51926351 0.738915199
v -5.71819231 -7.51926351 0.686115319
v -5.71819231 -7.46646381 0.738915199
v -5.71819228 -7.46646381 0.686115319
v -5.72809231 -7.47611595 0.700559789
v -5.72809231 -7.48842598 0.71223926
v -5.72809231 -7.49088407 0.732996697
v -5.71819231 -7.45326353 0.738915199
v -5.71819228 -7.45326353 0.686115319
v -5.71819228 -7.40046383 0.738915199
v -5.71819228 -7.40046383 0.686115319
v -5.72809226 -7.41011596 0.700559789
v -5.71819225 -7.25526357 0.738915199
v -5.71819219 -7.25526357 0.686115319
v -5.71819219 -7.20246387 0.738915199
v -5.71819219 -7.20246387 0.686115319
v -5.72809226 -7.42242599 0.71223926
v -5.72809231 -7.42488409 0.732996697
v -5.7280922 -7.21211601 0.700559789
v -5.71819225 -7.32126356 0.738915199
v -5.71819225 -7.32126356 0.686115319
v -5.71819228 -7.38726354 0.738915199
v -5.71819225 -7.33446384 0.738915199
v -5.71819228 -7.38726354 0.686115319
v -5.71819225 -7.33446384 0.686115319
v -5.7280922 -7.22442604 0.71223926
v -5.72809223 -7.34411598 0.700559789
v -5.7280922 -7.22688413 0.732996697
v -5.72809226 -7.3588841 0.732996697
v -5.71819219 -7.18926359 0.738915199
v -5.71819219 -7.18926359 0.686115319
v -5.71819219 -7.13646389 0.738915199
v -5.72809223 -7.29042602 0.71223926
v -5.71819219 -7.13646389 0.686115319
v -5.72809223 -7.29288412 0.732996697
v -5.72809217 -7.14611602 0.700559789
v -5.7280922 -7.15842605 0.71223926
v -5.7280922 -7.16088415 0.732996697
v -5.72809226 -7.35642601 0.71223926
v -5.71819201 -6.6870482 0.686115319
v -5.71819201 -6.63424802 0.686115319
v -5.71819204 -6.6870482 0.738915199
v -5.71819201 -6.63424802 0.738915199
vt -0.636810005 0.275305003
vt -0.620561004 0.282279998
vt -0.668560982 0.282279998
vt -0.633692026 0.153504997
vt -0.620561004 0.11428
vt -0.620561004 0.162279993
vt -0.648180008 0.140080005
vt -0.648180008 0.136480004
vt -0.641192019 0.136044994
vt -0.636810005 0.241255
vt -0.668560982 0.234280005
vt -0.620561004 0.234280005
vt -0.648180008 0.136480004
vt -0.668560982 0.11428
vt -0.636810005 0.121255003
vt -0.668560982 0.34228
vt -0.663179994 0.320080012
vt -0.644309998 0.322315007
vt -0.644309998 0.322315007
vt -0.663179994 0.320080012
vt -0.648180008 0.320080012
vt -0.636810005 0.121255003
vt -0.668560982 0.11428
vt -0.620561004 0.11428
vt -0.663179994 0.0800800025
vt -0.668560982 0.102279998
vt -0.668560982 0.0542800017
vt -0.644309998 0.202315003
vt -0.663179994 0.200080007
vt -0.648180008 0.200080007
vt -0.636810005 -0.36125499
vt -0.633692026 -0.363054991
vt -0.620561004 -0.354279995
vt -0.641192019 -0.376044989
vt -0.641192019 -0.380515009
vt -0.633692026 -0.363054991
vt -0.644309998 -0.38231501
vt -0.648180008 -0.380080014
vt -0.636810005 -0.395305008
vt -0.644309998 0.202315003
vt -0.648180008 0.200080007
vt -0.641192019 0.200515002
vt -0.663179994 -0.380080014
vt -0.668560982 -0.354279995
vt -0.668560982 -0.402280003
vt -0.636810005 0.155304998
vt -0.620561004 0.162279993
vt -0.668560982 0.162279993
vt -0.633692026 0.273505002
vt -0.620561004 0.234280005
vt -0.620561004 0.282279998
vt -0.633692026 0.0935050026
vt -0.641192019 0.0805149972
vt -0.620561004 0.0542800017
vt -0.648180008 0.26008001
vt -0.648180008 0.256480008
vt -0.641192019 0.256045014
vt -0.648180008 0.256480008
vt -0.668560982 0.234280005
vt -0.636810005 0.241255
vt -0.641192019 -0.376044989
vt -0.648180008 -0.376480013
vt -0.641192019 -0.380515009
vt -0.644309998 0.322315007
vt -0.648180008 0.320080012
vt -0.641192019 0.320515007
vt -0.648180008 0.0764800012
vt -0.668560982 0.0542800017
vt -0.636810005 0.0612550005
vt -0.648180008 -0.376480013
vt -0.648180008 -0.380080014
vt -0.644309998 -0.38231501
vt -0.636810005 0.215305001
vt -0.633692026 0.213505
vt -0.620561004 0.222279996
vt -0.644309998 -0.374244988
vt -0.648180008 -0.376480013
vt -0.641192019 -0.376044989
vt -0.633692026 0.213505
vt -0.641192019 0.200515002
vt -0.620561004 0.174280003
vt -0.668560982 0.222279996
vt -0.663179994 0.200080007
vt -0.644309998 0.202315003
vt -0.648180008 -0.380080014
vt -0.668560982 -0.402280003
vt -0.636810005 -0.395305008
vt -0.636810005 0.0612550005
vt -0.668560982 0.0542800017
vt -0.620561004 0.0542800017
vt -0.636810005 0.215305001
vt -0.620561004 0.222279996
vt -0.668560982 0.222279996
vt -0.663179994 -0.376480013
vt -0.644309998 -0.374244988
vt -0.668560982 -0.354279995
vt -0.663179994 0.200080007
vt -0.668560982 0.222279996
vt -0.668560982 0.174280003
vt -0.663179994 -0.376480013
vt -0.648180008 -0.376480013
vt -0.644309998 -0.374244988
vt -0.668560982 0.102279998
vt -0.663179994 0.0800800025
vt -0.644309998 0.0823149979
vt -0.648180008 0.196480006
vt -0.668560982 0.174280003
vt -0.636810005 0.181254998
vt -0.633692026 -0.363054991
vt -0.641192019 -0.380515009
vt -0.633692026 -0.393505007
vt -0.636810005 -0.395305008
vt -0.668560982 -0.402280003
vt -0.620561004 -0.402280003
vt -0.644309998 0.0823149979
vt -0.663179994 0.0800800025
vt -0.648180008 0.0800800025
vt -0.636810005 0.181254998
vt -0.668560982 0.174280003
vt -0.620561004 0.174280003
vt -0.644309998 0.0823149979
vt -0.648180008 0.0800800025
vt -0.641192019 0.0805149972
vt -0.663179994 -0.380080014
vt -0.668560982 -0.402280003
vt -0.648180008 -0.380080014
vt -0.636810005 -0.395305008
vt -0.620561004 -0.402280003
vt -0.633692026 -0.393505007
vt -0.668560982 0.162279993
vt -0.663179994 0.140080005
vt -0.644309998 0.142315
vt -0.636810005 0.155304998
vt -0.633692026 0.153504997
vt -0.620561004 0.162279993
vt -0.636810005 0.275305003
vt -0.633692026 0.273505002
vt -0.620561004 0.282279998
vt -0.636810005 0.0953050032
vt -0.620561004 0.102279998
vt -0.668560982 0.102279998
vt -0.633692026 0.273505002
vt -0.641192019 0.260515004
vt -0.620561004 0.234280005
vt -0.633692026 0.153504997
vt -0.641192019 0.140515
vt -0.620561004 0.11428
vt -0.633692026 0.0935050026
vt -0.620561004 0.0542800017
vt -0.620561004 0.102279998
vt -0.663179994 0.26008001
vt -0.668560982 0.282279998
vt -0.668560982 0.234280005
vt -0.641192019 -0.380515009
vt -0.648180008 -0.376480013
vt -0.644309998 -0.38231501
vt -0.644309998 0.142315
vt -0.663179994 0.140080005
vt -0.648180008 0.140080005
vt -0.663179994 0.140080005
vt -0.668560982 0.162279993
vt -0.668560982 0.11428
vt -0.644309998 0.0823149979
vt -0.636810005 0.0953050032
vt -0.668560982 0.102279998
vt -0.644309998 0.142315
vt -0.648180008 0.140080005
vt -0.641192019 0.140515
vt -0.648180008 0.0800800025
vt -0.648180008 0.0764800012
vt -0.641192019 0.0760449991
vt -0.668560982 0.282279998
vt -0.663179994 0.26008001
vt -0.644309998 0.262315005
vt -0.644309998 -0.374244988
vt -0.636810005 -0.36125499
vt -0.668560982 -0.354279995
vt -0.636810005 -0.36125499
vt -0.620561004 -0.354279995
vt -0.668560982 -0.354279995
vt -0.633692026 -0.363054991
vt -0.633692026 -0.393505007
vt -0.620561004 -0.354279995
vt -0.633692026 -0.393505007
vt -0.620561004 -0.402280003
vt -0.620561004 -0.354279995
vt -0.636810005 0.0953050032
vt -0.633692026 0.0935050026
vt -0.620561004 0.102279998
vt -0.644309998 0.142315
vt -0.636810005 0.155304998
vt -0.668560982 0.162279993
vt -0.644309998 0.262315005
vt -0.648180008 0.26008001
vt -0.641192019 0.260515004
vt -0.644309998 0.322315007
vt -0.636810005 0.335305005
vt -0.668560982 0.34228
vt -0.636810005 0.335305005
vt -0.633692026 0.333505005
vt -0.620561004 0.34228
vt -0.636810005 0.335305005
vt -0.620561004 0.34228
vt -0.668560982 0.34228
vt -0.633692026 0.333505005
vt -0.641192019 0.320515007
vt -0.620561004 0.294279993
vt -0.633692026 0.333505005
vt -0.620561004 0.294279993
vt -0.620561004 0.34228
vt -0.648180008 0.320080012
vt -0.648180008 0.316480011
vt -0.641192019 0.316044986
vt -0.663179994 0.320080012
vt -0.668560982 0.34228
vt -0.668560982 0.294279993
vt -0.648180008 0.316480011
vt -0.668560982 0.294279993
vt -0.636810005 0.301254988
vt -0.636810005 0.301254988
vt -0.668560982 0.294279993
vt -0.620561004 0.294279993
vt -0.668560982 0.402280003
vt -0.663179994 0.380080014
vt -0.644309998 0.38231501
vt -0.644309998 0.38231501
vt -0.663179994 0.380080014
vt -0.648180008 0.380080014
vt -0.644309998 0.38231501
vt -0.648180008 0.380080014
vt -0.641192019 0.380515009
vt -0.644309998 0.202315003
vt -0.636810005 0.215305001
vt -0.668560982 0.222279996
vt -0.644309998 0.38231501
vt -0.636810005 0.395305008
vt -0.668560982 0.402280003
vt -0.636810005 0.395305008
vt -0.633692026 0.393505007
vt -0.620561004 0.402280003
vt -0.636810005 0.395305008
vt -0.620561004 0.402280003
vt -0.668560982 0.402280003
vt -0.633692026 0.393505007
vt -0.641192019 0.380515009
vt -0.620561004 0.354279995
vt -0.633692026 0.393505007
vt -0.620561004 0.354279995
vt -0.620561004 0.402280003
vt -0.633692026 0.213505
vt -0.620561004 0.174280003
vt -0.620561004 0.222279996
vt -0.648180008 0.380080014
vt -0.648180008 0.376480013
vt -0.641192019 0.376044989
vt -0.663179994 0.380080014
vt -0.668560982 0.402280003
vt -0.668560982 0.354279995
vt -0.648180008 0.376480013
vt -0.668560982 0.354279995
vt -0.636810005 0.36125499
vt -0.648180008 0.200080007
vt -0.648180008 0.196480006
vt -0.641192019 0.196044996
vt -0.636810005 0.36125499
vt -0.668560982 0.354279995
vt -0.620561004 0.354279995
vt -0.663179994 -0.0800800025
vt -0.668560982 -0.0542800017
vt -0.668560982 -0.102279998
vt -0.663179994 -0.0800800025
vt -0.668560982 -0.102279998
vt -0.648180008 -0.0800800025
vt -0.663179994 -0.380080014
vt -0.663179994 -0.376480013
vt -0.668560982 -0.354279995
vt -0.663179994 -0.0800800025
vt -0.663179994 -0.0764800012
vt -0.668560982 -0.0542800017
vt -0.663179994 -0.0764800012
vt -0.648180008 -0.0764800012
vt -0.644309998 -0.0742449984
vt -0.663179994 -0.0764800012
vt -0.644309998 -0.0742449984
vt -0.668560982 -0.0542800017
vt -0.644309998 -0.0742449984
vt -0.648180008 -0.0764800012
vt -0.641192019 -0.0760449991
vt -0.644309998 -0.0742449984
vt -0.636810005 -0.0612550005
vt -0.668560982 -0.0542800017
vt -0.636810005 -0.0612550005
vt -0.633692026 -0.0630550012
vt -0.620561004 -0.0542800017
vt -0.636810005 -0.0612550005
vt -0.620561004 -0.0542800017
vt -0.668560982 -0.0542800017
vt -0.641192019 -0.0760449991
vt -0.648180008 -0.0764800012
vt -0.641192019 -0.0805149972
vt -0.641192019 -0.0760449991
vt -0.641192019 -0.0805149972
vt -0.633692026 -0.0630550012
vt -0.633692026 -0.0630550012
vt -0.641192019 -0.0805149972
vt -0.633692026 -0.0935050026
vt -0.633692026 -0.0630550012
vt -0.633692026 -0.0935050026
vt -0.620561004 -0.0542800017
vt -0.641192019 -0.0805149972
vt -0.648180008 -0.0764800012
vt -0.644309998 -0.0823149979
vt -0.648180008 -0.0764800012
vt -0.648180008 -0.0800800025
vt -0.644309998 -0.0823149979
vt -0.644309998 -0.0823149979
vt -0.648180008 -0.0800800025
vt -0.636810005 -0.0953050032
vt -0.648180008 -0.0800800025
vt -0.668560982 -0.102279998
vt -0.636810005 -0.0953050032
vt -0.636810005 -0.0953050032
vt -0.668560982 -0.102279998
vt -0.620561004 -0.102279998
vt -0.636810005 -0.0953050032
vt -0.620561004 -0.102279998
vt -0.633692026 -0.0935050026
vt -0.633692026 -0.0935050026
vt -0.620561004 -0.102279998
vt -0.620561004 -0.0542800017
vt -0.663179994 -0.140080005
vt -0.668560982 -0.11428
vt -0.668560982 -0.162279993
vt -0.663179994 -0.140080005
vt -0.668560982 -0.162279993
vt -0.648180008 -0.140080005
vt -0.644309998 0.262315005
vt -0.663179994 0.26008001
vt -0.648180008 0.26008001
vt -0.663179994 -0.140080005
vt -0.663179994 -0.136480004
vt -0.668560982 -0.11428
vt -0.663179994 -0.136480004
vt -0.648180008 -0.136480004
vt -0.644309998 -0.134244993
vt -0.663179994 -0.136480004
vt -0.644309998 -0.134244993
vt -0.668560982 -0.11428
vt -0.644309998 -0.134244993
vt -0.648180008 -0.136480004
vt -0.641192019 -0.136044994
vt -0.644309998 0.262315005
vt -0.636810005 0.275305003
vt -0.668560982 0.282279998
vt -0.644309998 -0.134244993
vt -0.636810005 -0.121255003
vt -0.668560982 -0.11428
vt -0.636810005 -0.121255003
vt -0.633692026 -0.123055004
vt -0.620561004 -0.11428
vt -0.636810005 -0.121255003
vt -0.620561004 -0.11428
vt -0.668560982 -0.11428
vt -0.641192019 -0.136044994
vt -0.648180008 -0.136480004
vt -0.641192019 -0.140515
vt -0.641192019 -0.136044994
vt -0.641192019 -0.140515
vt -0.633692026 -0.123055004
vt -0.633692026 -0.123055004
vt -0.641192019 -0.140515
vt -0.633692026 -0.153504997
vt -0.633692026 -0.123055004
vt -0.633692026 -0.153504997
vt -0.620561004 -0.11428
vt -0.641192019 -0.140515
vt -0.648180008 -0.136480004
vt -0.644309998 -0.142315
vt -0.644309998 -0.254245013
vt -0.636810005 -0.241255
vt -0.668560982 -0.234280005
vt -0.648180008 -0.136480004
vt -0.648180008 -0.140080005
vt -0.644309998 -0.142315
vt -0.644309998 -0.142315
vt -0.648180008 -0.140080005
vt -0.636810005 -0.155304998
vt -0.648180008 -0.140080005
vt -0.668560982 -0.162279993
vt -0.636810005 -0.155304998
vt -0.636810005 -0.155304998
vt -0.668560982 -0.162279993
vt -0.620561004 -0.162279993
vt -0.636810005 -0.155304998
vt -0.620561004 -0.162279993
vt -0.633692026 -0.153504997
vt -0.633692026 -0.153504997
vt -0.620561004 -0.162279993
vt -0.620561004 -0.11428
vt -0.663179994 -0.200080007
vt -0.668560982 -0.174280003
vt -0.668560982 -0.222279996
vt -0.663179994 -0.200080007
vt -0.668560982 -0.222279996
vt -0.648180008 -0.200080007
vt -0.648180008 -0.256480008
vt -0.648180008 -0.26008001
vt -0.644309998 -0.262315005
vt -0.663179994 -0.200080007
vt -0.663179994 -0.196480006
vt -0.668560982 -0.174280003
vt -0.663179994 -0.196480006
vt -0.648180008 -0.196480006
vt -0.644309998 -0.194244996
vt -0.663179994 -0.196480006
vt -0.644309998 -0.194244996
vt -0.668560982 -0.174280003
vt -0.644309998 -0.194244996
vt -0.648180008 -0.196480006
vt -0.641192019 -0.196044996
vt -0.644309998 -0.194244996
vt -0.636810005 -0.181254998
vt -0.668560982 -0.174280003
vt -0.636810005 -0.181254998
vt -0.633692026 -0.183054999
vt -0.620561004 -0.174280003
vt -0.636810005 -0.181254998
vt -0.620561004 -0.174280003
vt -0.668560982 -0.174280003
vt -0.641192019 -0.196044996
vt -0.648180008 -0.196480006
vt -0.641192019 -0.200515002
vt -0.641192019 -0.196044996
vt -0.641192019 -0.200515002
vt -0.633692026 -0.183054999
vt -0.633692026 -0.183054999
vt -0.641192019 -0.200515002
vt -0.633692026 -0.213505
vt -0.633692026 -0.183054999
vt -0.633692026 -0.213505
vt -0.620561004 -0.174280003
vt -0.641192019 -0.200515002
vt -0.648180008 -0.196480006
vt -0.644309998 -0.202315003
vt -0.633692026 -0.273505002
vt -0.620561004 -0.282279998
vt -0.620561004 -0.234280005
vt -0.648180008 -0.196480006
vt -0.648180008 -0.200080007
vt -0.644309998 -0.202315003
vt -0.644309998 -0.202315003
vt -0.648180008 -0.200080007
vt -0.636810005 -0.215305001
vt -0.648180008 -0.200080007
vt -0.668560982 -0.222279996
vt -0.636810005 -0.215305001
vt -0.636810005 -0.215305001
vt -0.668560982 -0.222279996
vt -0.620561004 -0.222279996
vt -0.636810005 -0.215305001
vt -0.620561004 -0.222279996
vt -0.633692026 -0.213505
vt -0.633692026 -0.213505
vt -0.620561004 -0.222279996
vt -0.620561004 -0.174280003
vt -0.663179994 -0.26008001
vt -0.668560982 -0.234280005
vt -0.668560982 -0.282279998
vt -0.663179994 -0.26008001
vt -0.668560982 -0.282279998
vt -0.648180008 -0.26008001
vt -0.663179994 -0.26008001
vt -0.663179994 -0.256480008
vt -0.668560982 -0.234280005
vt -0.663179994 -0.256480008
vt -0.648180008 -0.256480008
vt -0.644309998 -0.254245013
vt -0.663179994 -0.256480008
vt -0.644309998 -0.254245013
vt -0.668560982 -0.234280005
vt -0.644309998 -0.254245013
vt -0.648180008 -0.256480008
vt -0.641192019 -0.256045014
vt -0.636810005 -0.241255
vt -0.633692026 -0.243055001
vt -0.620561004 -0.234280005
vt -0.636810005 -0.241255
vt -0.620561004 -0.234280005
vt -0.668560982 -0.234280005
vt -0.641192019 -0.256045014
vt -0.648180008 -0.256480008
vt -0.641192019 -0.260515004
vt -0.641192019 -0.256045014
vt -0.641192019 -0.260515004
vt -0.633692026 -0.243055001
vt -0.633692026 -0.243055001
vt -0.641192019 -0.260515004
vt -0.633692026 -0.273505002
vt -0.633692026 -0.243055001
vt -0.633692026 -0.273505002
vt -0.620561004 -0.234280005
vt -0.641192019 -0.260515004
vt -0.648180008 -0.256480008
vt -0.644309998 -0.262315005
vt -0.644309998 -0.314244986
vt -0.648180008 -0.316480011
vt -0.641192019 -0.316044986
vt -0.644309998 -0.262315005
vt -0.648180008 -0.26008001
vt -0.636810005 -0.275305003
vt -0.648180008 -0.26008001
vt -0.668560982 -0.282279998
vt -0.636810005 -0.275305003
vt -0.636810005 -0.275305003
vt -0.668560982 -0.282279998
vt -0.620561004 -0.282279998
vt -0.636810005 -0.275305003
vt -0.620561004 -0.282279998
vt -0.633692026 -0.273505002
vt -0.663179994 -0.320080012
vt -0.668560982 -0.294279993
vt -0.668560982 -0.34228
vt -0.663179994 -0.320080012
vt -0.668560982 -0.34228
vt -0.648180008 -0.320080012
vt -0.663179994 -0.320080012
vt -0.663179994 -0.316480011
vt -0.668560982 -0.294279993
vt -0.663179994 -0.316480011
vt -0.648180008 -0.316480011
vt -0.644309998 -0.314244986
vt -0.663179994 -0.316480011
vt -0.644309998 -0.314244986
vt -0.668560982 -0.294279993
vt -0.644309998 -0.314244986
vt -0.636810005 -0.301254988
vt -0.668560982 -0.294279993
vt -0.636810005 -0.301254988
vt -0.633692026 -0.303054988
vt -0.620561004 -0.294279993
vt -0.636810005 -0.301254988
vt -0.620561004 -0.294279993
vt -0.668560982 -0.294279993
vt -0.641192019 -0.316044986
vt -0.648180008 -0.316480011
vt -0.641192019 -0.320515007
vt -0.641192019 -0.316044986
vt -0.641192019 -0.320515007
vt -0.633692026 -0.303054988
vt -0.633692026 -0.303054988
vt -0.641192019 -0.320515007
vt -0.633692026 -0.333505005
vt -0.633692026 -0.303054988
vt -0.633692026 -0.333505005
vt -0.620561004 -0.294279993
vt -0.641192019 -0.320515007
vt -0.648180008 -0.316480011
vt -0.644309998 -0.322315007
vt -0.648180008 -0.316480011
vt -0.648180008 -0.320080012
vt -0.644309998 -0.322315007
vt -0.644309998 -0.322315007
vt -0.648180008 -0.320080012
vt -0.636810005 -0.335305005
vt -0.648180008 -0.320080012
vt -0.668560982 -0.34228
vt -0.636810005 -0.335305005
vt -0.636810005 -0.335305005
vt -0.668560982 -0.34228
vt -0.620561004 -0.34228
vt -0.636810005 -0.335305005
vt -0.620561004 -0.34228
vt -0.633692026 -0.333505005
vt -0.633692026 -0.333505005
vt -0.620561004 -0.34228
vt -0.620561004 -0.294279993
vt -0.620561004 0.234280005
vt -0.641192019 0.260515004
vt -0.641192019 0.256045014
vt -0.641192019 0.256045014
vt -0.641192019 0.260515004
vt -0.648180008 0.26008001
vt 0.00899999961 0.620561004
vt 0.00899999961 0.668560982
vt 0 0.620561004
vt 0 0.620561004
vt 0.00899999961 0.668560982
vt 0 0.668560982
vt 0 -0.34228
vt 0 -0.294279993
vt -0.00899999961 -0.34228
vt -0.00899999961 -0.34228
vt 0 -0.294279993
vt -0.00899999961 -0.294279993
vt 0.620561004 -0.294279993
vt 0.620561004 -0.34228
vt 0.668560982 -0.294279993
vt 0.668560982 -0.294279993
vt 0.620561004 -0.34228
vt 0.668560982 -0.34228
vt 0.00899999961 -0.282279998
vt 0.00899999961 -0.234280005
vt 0 -0.282279998
vt 0 -0.282279998
vt 0.00899999961 -0.234280005
vt 0 -0.234280005
vt 0 0.668560982
vt 0 0.620561004
vt 0.00899999961 0.668560982
vt 0.00899999961 0.668560982
vt 0 0.620561004
vt 0.00899999961 0.620561004
vt 0.668560982 -0.282279998
vt 0.668560982 -0.234280005
vt 0.620561004 -0.282279998
vt 0.620561004 -0.282279998
vt 0.668560982 -0.234280005
vt 0.620561004 -0.234280005
vt -0.00899999961 0.668560982
vt -0.00899999961 0.620561004
vt 0 0.668560982
vt 0 0.668560982
vt -0.00899999961 0.620561004
vt 0 0.620561004
vt -0.00899999961 -0.234280005
vt -0.00899999961 -0.282279998
vt 0 -0.234280005
vt 0 -0.234280005
vt -0.00899999961 -0.282279998
vt 0 -0.282279998
vt -0.00899999961 0.668560982
vt -0.00899999961 0.620561004
vt 0 0.668560982
vt 0 0.668560982
vt -0.00899999961 0.620561004
vt 0 0.620561004
vt 0.00899999961 -0.34228
vt 0.00899999961 -0.294279993
vt 0 -0.34228
vt 0 -0.34228
vt 0.00899999961 -0.294279993
vt 0 -0.294279993
vt 0.00899999961 -0.222279996
vt 0.00899999961 -0.174280003
vt 0 -0.222279996
vt 0 -0.222279996
vt 0.00899999961 -0.174280003
vt 0 -0.174280003
vt 0 0.668560982
vt 0 0.620561004
vt 0.00899999961 0.668560982
vt 0.00899999961 0.668560982
vt 0 0.620561004
vt 0.00899999961 0.620561004
vt 0.668560982 -0.222279996
vt 0.668560982 -0.174280003
vt 0.620561004 -0.222279996
vt 0.620561004 -0.222279996
vt 0.668560982 -0.174280003
vt 0.620561004 -0.174280003
vt -0.00899999961 0.668560982
vt -0.00899999961 0.620561004
vt 0 0.668560982
vt 0 0.668560982
vt -0.00899999961 0.620561004
vt 0 0.620561004
vt -0.00899999961 -0.174280003
vt -0.00899999961 -0.222279996
vt 0 -0.174280003
vt 0 -0.174280003
vt -0.00899999961 -0.222279996
vt 0 -0.222279996
vt 0.00899999961 -0.162279993
vt 0.00899999961 -0.11428
vt 0 -0.162279993
vt 0 -0.162279993
vt 0.00899999961 -0.11428
vt 0 -0.11428
vt 0 0.668560982
vt 0 0.620561004
vt 0.00899999961 0.668560982
vt 0.00899999961 0.668560982
vt 0 0.620561004
vt 0.00899999961 0.620561004
vt 0.668560982 -0.162279993
vt 0.668560982 -0.11428
vt 0.620561004 -0.162279993
vt 0.620561004 -0.162279993
vt 0.668560982 -0.11428
vt 0.620561004 -0.11428
vt -0.00899999961 0.668560982
vt -0.00899999961 0.620561004
vt 0 0.668560982
vt 0 0.668560982
vt -0.00899999961 0.620561004
vt 0 0.620561004
vt -0.00899999961 -0.11428
vt -0.00899999961 -0.162279993
vt 0 -0.11428
vt 0 -0.11428
vt -0.00899999961 -0.162279993
vt 0 -0.162279993
vt 0.00899999961 -0.102279998
vt 0.00899999961 -0.0542800017
vt 0 -0.102279998
vt 0 -0.102279998
vt 0.00899999961 -0.0542800017
vt 0 -0.0542800017
vt 0 0.668560982
vt 0 0.620561004
vt 0.00899999961 0.668560982
vt 0.00899999961 0.668560982
vt 0 0.620561004
vt 0.00899999961 0.620561004
vt 0.668560982 -0.102279998
vt 0.668560982 -0.0542800017
vt 0.620561004 -0.102279998
vt 0.620561004 -0.102279998
vt 0.668560982 -0.0542800017
vt 0.620561004 -0.0542800017
vt -0.00899999961 0.668560982
vt -0.00899999961 0.620561004
vt 0 0.668560982
vt 0 0.668560982
vt -0.00899999961 0.620561004
vt 0 0.620561004
vt -0.00899999961 -0.0542800017
vt -0.00899999961 -0.102279998
vt 0 -0.0542800017
vt 0 -0.0542800017
vt -0.00899999961 -0.102279998
vt 0 -0.102279998
vt 0.00899999961 0.620561004
vt 0.00899999961 0.668560982
vt 0 0.620561004
vt 0 0.620561004
vt 0.00899999961 0.668560982
vt 0 0.668560982
vt -0.636810005 0.181254998
vt -0.620561004 0.174280003
vt -0.633692026 0.183054999
vt -0.633692026 0.183054999
vt -0.620561004 0.174280003
vt -0.641192019 0.196044996
vt -0.00899999961 0.668560982
vt -0.00899999961 0.620561004
vt 0 0.668560982
vt 0 0.668560982
vt -0.00899999961 0.620561004
vt 0 0.620561004
vt 0 0.402280003
vt 0 0.354279995
vt 0.00899999961 0.402280003
vt 0.00899999961 0.402280003
vt 0 0.354279995
vt 0.00899999961 0.354279995
vt 0.668560982 0.402280003
vt 0.620561004 0.402280003
vt 0.668560982 0.354279995
vt 0.668560982 0.354279995
vt 0.620561004 0.402280003
vt 0.620561004 0.354279995
vt -0.00899999961 0.402280003
vt -0.00899999961 0.354279995
vt 0 0.402280003
vt 0 0.402280003
vt -0.00899999961 0.354279995
vt 0 0.354279995
vt 0.00899999961 0.620561004
vt 0.00899999961 0.668560982
vt 0 0.620561004
vt 0 0.620561004
vt 0.00899999961 0.668560982
vt 0 0.668560982
vt -0.636810005 0.36125499
vt -0.620561004 0.354279995
vt -0.633692026 0.363054991
vt -0.633692026 0.363054991
vt -0.620561004 0.354279995
vt -0.641192019 0.376044989
vt -0.641192019 0.376044989
vt -0.648180008 0.376480013
vt -0.644309998 0.374244988
vt -0.644309998 0.374244988
vt -0.648180008 0.376480013
vt -0.636810005 0.36125499
vt -0.648180008 0.376480013
vt -0.663179994 0.376480013
vt -0.668560982 0.354279995
vt -0.668560982 0.354279995
vt -0.663179994 0.376480013
vt -0.663179994 0.380080014
vt -0.620561004 0.354279995
vt -0.641192019 0.380515009
vt -0.641192019 0.376044989
vt -0.641192019 0.376044989
vt -0.641192019 0.380515009
vt -0.648180008 0.380080014
vt -0.00899999961 0.668560982
vt -0.00899999961 0.620561004
vt 0 0.668560982
vt 0 0.668560982
vt -0.00899999961 0.620561004
vt 0 0.620561004
vt 0 0.34228
vt 0 0.294279993
vt 0.00899999961 0.34228
vt 0.00899999961 0.34228
vt 0 0.294279993
vt 0.00899999961 0.294279993
vt 0.668560982 0.34228
vt 0.620561004 0.34228
vt 0.668560982 0.294279993
vt 0.668560982 0.294279993
vt 0.620561004 0.34228
vt 0.620561004 0.294279993
vt -0.00899999961 0.34228
vt -0.00899999961 0.294279993
vt 0 0.34228
vt 0 0.34228
vt -0.00899999961 0.294279993
vt 0 0.294279993
vt 0.00899999961 0.620561004
vt 0.00899999961 0.668560982
vt 0 0.620561004
vt 0 0.620561004
vt 0.00899999961 0.668560982
vt 0 0.668560982
vt -0.636810005 0.301254988
vt -0.620561004 0.294279993
vt -0.633692026 0.303054988
vt -0.633692026 0.303054988
vt -0.620561004 0.294279993
vt -0.641192019 0.316044986
vt 0.668560982 0.162279993
vt 0.620561004 0.162279993
vt 0.668560982 0.11428
vt 0.668560982 0.11428
vt 0.620561004 0.162279993
vt 0.620561004 0.11428
vt -0.641192019 0.316044986
vt -0.648180008 0.316480011
vt -0.644309998 0.314244986
vt -0.644309998 0.314244986
vt -0.648180008 0.316480011
vt -0.636810005 0.301254988
vt -0.648180008 0.316480011
vt -0.663179994 0.316480011
vt -0.668560982 0.294279993
vt -0.668560982 0.294279993
vt -0.663179994 0.316480011
vt -0.663179994 0.320080012
vt 0.00899999961 0.620561004
vt 0.00899999961 0.668560982
vt 0 0.620561004
vt 0 0.620561004
vt 0.00899999961 0.668560982
vt 0 0.668560982
vt -0.620561004 0.294279993
vt -0.641192019 0.320515007
vt -0.641192019 0.316044986
vt -0.641192019 0.316044986
vt -0.641192019 0.320515007
vt -0.648180008 0.320080012
vt -0.636810005 0.121255003
vt -0.620561004 0.11428
vt -0.633692026 0.123055004
vt -0.633692026 0.123055004
vt -0.620561004 0.11428
vt -0.641192019 0.136044994
vt -0.00899999961 0.668560982
vt -0.00899999961 0.620561004
vt 0 0.668560982
vt 0 0.668560982
vt -0.00899999961 0.620561004
vt 0 0.620561004
vt 0 0.282279998
vt 0 0.234280005
vt 0.00899999961 0.282279998
vt 0.00899999961 0.282279998
vt 0 0.234280005
vt 0.00899999961 0.234280005
vt 0.668560982 0.282279998
vt 0.620561004 0.282279998
vt 0.668560982 0.234280005
vt 0.668560982 0.234280005
vt 0.620561004 0.282279998
vt 0.620561004 0.234280005
vt -0.636810005 0.121255003
vt -0.644309998 0.134244993
vt -0.648180008 0.136480004
vt -0.648180008 0.136480004
vt -0.644309998 0.134244993
vt -0.641192019 0.136044994
vt 0 0.234280005
vt 0 0.282279998
vt -0.00899999961 0.234280005
vt -0.00899999961 0.234280005
vt 0 0.282279998
vt -0.00899999961 0.282279998
vt 0 0.222279996
vt 0 0.174280003
vt 0.00899999961 0.222279996
vt 0.00899999961 0.222279996
vt 0 0.174280003
vt 0.00899999961 0.174280003
vt -0.620561004 0.0542800017
vt -0.641192019 0.0805149972
vt -0.641192019 0.0760449991
vt -0.641192019 0.0760449991
vt -0.641192019 0.0805149972
vt -0.648180008 0.0800800025
vt -0.636810005 0.241255
vt -0.620561004 0.234280005
vt -0.633692026 0.243055001
vt -0.633692026 0.243055001
vt -0.620561004 0.234280005
vt -0.641192019 0.256045014
vt -0.663179994 0.140080005
vt -0.668560982 0.11428
vt -0.663179994 0.136480004
vt -0.663179994 0.136480004
vt -0.668560982 0.11428
vt -0.648180008 0.136480004
vt 0.668560982 0.222279996
vt 0.620561004 0.222279996
vt 0.668560982 0.174280003
vt 0.668560982 0.174280003
vt 0.620561004 0.222279996
vt 0.620561004 0.174280003
vt -0.00899999961 0.222279996
vt -0.00899999961 0.174280003
vt 0 0.222279996
vt 0 0.222279996
vt -0.00899999961 0.174280003
vt 0 0.174280003
vt -0.663179994 0.26008001
vt -0.668560982 0.234280005
vt -0.663179994 0.256480008
vt -0.663179994 0.256480008
vt -0.668560982 0.234280005
vt -0.648180008 0.256480008
vt -0.648180008 0.140080005
vt -0.641192019 0.136044994
vt -0.641192019 0.140515
vt -0.641192019 0.140515
vt -0.641192019 0.136044994
vt -0.620561004 0.11428
vt -0.00899999961 0.668560982
vt -0.00899999961 0.620561004
vt 0 0.668560982
vt 0 0.668560982
vt -0.00899999961 0.620561004
vt 0 0.620561004
vt 0 0.102279998
vt 0 0.0542800017
vt 0.00899999961 0.102279998
vt 0.00899999961 0.102279998
vt 0 0.0542800017
vt 0.00899999961 0.0542800017
vt -0.641192019 0.196044996
vt -0.648180008 0.196480006
vt -0.644309998 0.194244996
vt -0.644309998 0.194244996
vt -0.648180008 0.196480006
vt -0.636810005 0.181254998
vt 0.668560982 0.102279998
vt 0.620561004 0.102279998
vt 0.668560982 0.0542800017
vt 0.668560982 0.0542800017
vt 0.620561004 0.102279998
vt 0.620561004 0.0542800017
vt -0.00899999961 0.102279998
vt -0.00899999961 0.0542800017
vt 0 0.102279998
vt 0 0.102279998
vt -0.00899999961 0.0542800017
vt 0 0.0542800017
vt -0.648180008 0.196480006
vt -0.663179994 0.196480006
vt -0.668560982 0.174280003
vt -0.668560982 0.174280003
vt -0.663179994 0.196480006
vt -0.663179994 0.200080007
vt 0 0.668560982
vt 0 0.620561004
vt 0.00899999961 0.668560982
vt 0.00899999961 0.668560982
vt 0 0.620561004
vt 0.00899999961 0.620561004
vt -0.620561004 0.174280003
vt -0.641192019 0.200515002
vt -0.641192019 0.196044996
vt -0.641192019 0.196044996
vt -0.641192019 0.200515002
vt -0.648180008 0.200080007
vt -0.641192019 0.0760449991
vt -0.633692026 0.0630550012
vt -0.620561004 0.0542800017
vt -0.620561004 0.0542800017
vt -0.633692026 0.0630550012
vt -0.636810005 0.0612550005
vt -0.641192019 0.0760449991
vt -0.648180008 0.0764800012
vt -0.644309998 0.0742449984
vt -0.644309998 0.0742449984
vt -0.648180008 0.0764800012
vt -0.636810005 0.0612550005
vt 0.00899999961 0.11428
vt 0.00899999961 0.162279993
vt 0 0.11428
vt 0 0.11428
vt 0.00899999961 0.162279993
vt 0 0.162279993
vt -0.648180008 0.0764800012
vt -0.663179994 0.0764800012
vt -0.668560982 0.0542800017
vt -0.668560982 0.0542800017
vt -0.663179994 0.0764800012
vt -0.663179994 0.0800800025
vt -0.00899999961 0.668560982
vt -0.00899999961 0.620561004
vt 0 0.668560982
vt 0 0.668560982
vt -0.00899999961 0.620561004
vt 0 0.620561004
vt 0.00899999961 0.620561004
vt 0.00899999961 0.668560982
vt 0 0.620561004
vt 0 0.620561004
vt 0.00899999961 0.668560982
vt 0 0.668560982
vt -0.636810005 0.241255
vt -0.644309998 0.254245013
vt -0.648180008 0.256480008
vt -0.648180008 0.256480008
vt -0.644309998 0.254245013
vt -0.641192019 0.256045014
vt -0.00899999961 0.668560982
vt -0.00899999961 0.620561004
vt 0 0.668560982
vt 0 0.668560982
vt -0.00899999961 0.620561004
vt 0 0.620561004
vt -0.00899999961 0.162279993
vt -0.00899999961 0.11428
vt 0 0.162279993
vt 0 0.162279993
vt -0.00899999961 0.11428
vt 0 0.11428
vt 0.620561004 -0.354279995
vt 0.620561004 -0.402280003
vt 0.668560982 -0.354279995
vt 0.668560982 -0.354279995
vt 0.620561004 -0.402280003
vt 0.668560982 -0.402280003
vt 0 -0.402280003
vt 0 -0.354279995
vt -0.00899999961 -0.402280003
vt -0.00899999961 -0.402280003
vt 0 -0.354279995
vt -0.00899999961 -0.354279995
vt 0.00899999961 0.620561004
vt 0.00899999961 0.668560982
vt 0 0.620561004
vt 0 0.620561004
vt 0.00899999961 0.668560982
vt 0 0.668560982
vt 0 -0.354279995
vt 0 -0.402280003
vt 0.00899999961 -0.354279995
vt 0.00899999961 -0.354279995
vt 0 -0.402280003
vt 0.00899999961 -0.402280003
vt 0 0.620561004
vt 0 0.668560982
vt -0.00899999961 0.620561004
vt -0.00899999961 0.620561004
vt 0 0.668560982
vt -0.00899999961 0.668560982
f 1/1 2/2 3/3
f 4/4 5/5 6/6
f 7/7 8/8 9/9
f 10/10 11/11 12/12
f 8/13 13/14 14/15
f 15/16 16/17 17/18
f 17/19 16/20 18/21
f 14/22 13/23 5/24
f 19/25 20/26 21/27
f 22/28 23/29 24/30
f 25/31 26/32 27/33
f 28/34 29/35 26/36
f 30/37 31/38 32/39
f 22/40 24/41 33/42
f 34/43 35/44 36/45
f 37/46 6/47 38/48
f 39/49 12/50 2/51
f 40/52 41/53 42/54
f 43/55 44/56 45/57
f 44/58 11/59 10/60
f 28/61 46/62 29/63
f 17/64 18/65 47/66
f 48/67 21/68 49/69
f 46/70 31/71 30/72
f 50/73 51/74 52/75
f 53/76 46/77 28/78
f 51/79 33/80 54/81
f 55/82 23/83 22/84
f 31/85 36/86 32/87
f 49/88 21/89 42/90
f 50/91 52/92 55/93
f 56/94 53/95 35/96
f 23/97 55/98 57/99
f 56/100 46/101 53/102
f 20/103 19/104 58/105
f 59/106 57/107 60/108
f 26/109 29/110 61/111
f 32/112 36/113 62/114
f 58/115 19/116 63/117
f 60/118 57/119 54/120
f 58/121 63/122 41/123
f 34/124 36/125 31/126
f 32/127 62/128 61/129
f 38/130 64/131 65/132
f 37/133 4/134 6/135
f 1/136 39/137 2/138
f 66/139 67/140 20/141
f 39/142 68/143 12/144
f 4/145 69/146 5/147
f 40/148 42/149 67/150
f 70/151 3/152 11/153
f 29/154 46/155 30/156
f 65/157 64/158 7/159
f 64/160 38/161 13/162
f 58/163 66/164 20/165
f 65/166 7/167 69/168
f 63/169 48/170 71/171
f 3/172 70/173 72/174
f 53/175 25/176 35/177
f 25/178 27/179 35/180
f 26/181 61/182 27/183
f 61/184 62/185 27/186
f 66/187 40/188 67/189
f 65/190 37/191 38/192
f 72/193 43/194 68/195
f 17/196 73/197 15/198
f 73/199 74/200 75/201
f 73/202 75/203 15/204
f 74/205 47/206 76/207
f 74/208 76/209 75/210
f 18/211 77/212 78/213
f 16/214 15/215 79/216
f 77/217 79/218 80/219
f 80/220 79/221 76/222
f 81/223 82/224 83/225
f 83/226 82/227 84/228
f 83/229 84/230 85/231
f 22/232 50/233 55/234
f 83/235 86/236 81/237
f 86/238 87/239 88/240
f 86/241 88/242 81/243
f 87/244 85/245 89/246
f 87/247 89/248 88/249
f 51/250 54/251 52/252
f 84/253 90/254 91/255
f 82/256 81/257 92/258
f 90/259 92/260 93/261
f 24/262 59/263 94/264
f 93/265 92/266 89/267
f 95/268 96/269 97/270
f 95/271 97/272 98/273
f 34/274 56/275 35/276
f 95/277 99/278 96/279
f 99/280 100/281 101/282
f 99/283 101/284 96/285
f 101/286 100/287 102/288
f 101/289 103/290 96/291
f 103/292 104/293 105/294
f 103/295 105/296 96/297
f 102/298 100/299 106/300
f 102/301 106/302 104/303
f 104/304 106/305 107/306
f 104/307 107/308 105/309
f 106/310 100/311 108/312
f 100/313 98/314 108/315
f 108/316 98/317 109/318
f 98/319 97/320 109/321
f 109/322 97/323 110/324
f 109/325 110/326 107/327
f 107/328 110/329 105/330
f 111/331 112/332 113/333
f 111/334 113/335 114/336
f 72/337 70/338 43/339
f 111/340 115/341 112/342
f 115/343 116/344 117/345
f 115/346 117/347 112/348
f 117/349 116/350 118/351
f 72/352 1/353 3/354
f 117/355 119/356 112/357
f 119/358 120/359 121/360
f 119/361 121/362 112/363
f 118/364 116/365 122/366
f 118/367 122/368 120/369
f 120/370 122/371 123/372
f 120/373 123/374 121/375
f 122/376 116/377 124/378
f 125/379 126/380 127/381
f 116/382 114/383 124/384
f 124/385 114/386 128/387
f 114/388 113/389 128/390
f 128/391 113/392 129/393
f 128/394 129/395 123/396
f 123/397 129/398 121/399
f 130/400 131/401 132/402
f 130/403 132/404 133/405
f 134/406 135/407 136/408
f 130/409 137/410 131/411
f 137/412 138/413 139/414
f 137/415 139/416 131/417
f 139/418 138/419 140/420
f 139/421 141/422 131/423
f 141/424 142/425 143/426
f 141/427 143/428 131/429
f 140/430 138/431 144/432
f 140/433 144/434 142/435
f 142/436 144/437 145/438
f 142/439 145/440 143/441
f 144/442 138/443 146/444
f 147/445 148/446 149/447
f 138/448 133/449 146/450
f 146/451 133/452 150/453
f 133/454 132/455 150/456
f 150/457 132/458 151/459
f 150/460 151/461 145/462
f 145/463 151/464 143/465
f 152/466 127/467 153/468
f 152/469 153/470 135/471
f 152/472 154/473 127/474
f 154/475 134/476 125/477
f 154/478 125/479 127/480
f 125/481 134/482 155/483
f 126/484 156/485 149/486
f 126/487 149/488 127/489
f 155/490 134/491 157/492
f 155/493 157/494 156/495
f 156/496 157/497 147/498
f 156/499 147/500 149/501
f 157/502 134/503 136/504
f 158/505 159/506 160/507
f 136/508 135/509 161/510
f 135/511 153/512 161/513
f 161/514 153/515 148/516
f 161/517 148/518 147/519
f 162/520 163/521 164/522
f 162/523 164/524 165/525
f 162/526 166/527 163/528
f 166/529 159/530 158/531
f 166/532 158/533 163/534
f 158/535 167/536 163/537
f 167/538 168/539 169/540
f 167/541 169/542 163/543
f 160/544 159/545 170/546
f 160/547 170/548 168/549
f 168/550 170/551 171/552
f 168/553 171/554 169/555
f 170/556 159/557 172/558
f 159/559 165/560 172/561
f 172/562 165/563 173/564
f 165/565 164/566 173/567
f 173/568 164/569 174/570
f 173/571 174/572 171/573
f 171/574 174/575 169/576
f 12/577 68/578 45/579
f 45/580 68/581 43/582
f 174/583 164/584 175/585
f 175/586 164/587 176/588
f 175/589 177/590 174/591
f 174/592 177/593 169/594
f 177/595 175/596 178/597
f 178/598 175/599 176/600
f 153/601 127/602 179/603
f 179/604 127/605 180/606
f 179/607 181/608 153/609
f 153/610 181/611 148/612
f 179/613 180/614 181/615
f 181/616 180/617 182/618
f 127/619 149/620 180/621
f 180/622 149/623 182/624
f 149/625 148/626 182/627
f 182/628 148/629 181/630
f 163/631 169/632 178/633
f 178/634 169/635 177/636
f 164/637 163/638 176/639
f 176/640 163/641 178/642
f 132/643 131/644 183/645
f 183/646 131/647 184/648
f 183/649 185/650 132/651
f 132/652 185/653 151/654
f 183/655 184/656 185/657
f 185/658 184/659 186/660
f 131/661 143/662 184/663
f 184/664 143/665 186/666
f 143/667 151/668 186/669
f 186/670 151/671 185/672
f 113/673 112/674 187/675
f 187/676 112/677 188/678
f 187/679 189/680 113/681
f 113/682 189/683 129/684
f 187/685 188/686 189/687
f 189/688 188/689 190/690
f 112/691 121/692 188/693
f 188/694 121/695 190/696
f 121/697 129/698 190/699
f 190/700 129/701 189/702
f 97/703 96/704 191/705
f 191/706 96/707 192/708
f 191/709 193/710 97/711
f 97/712 193/713 110/714
f 191/715 192/716 193/717
f 193/718 192/719 194/720
f 96/721 105/722 192/723
f 192/724 105/725 194/726
f 105/727 110/728 194/729
f 194/730 110/731 193/732
f 54/733 57/734 195/735
f 195/736 57/737 196/738
f 60/739 54/740 197/741
f 197/742 54/743 94/744
f 81/745 88/746 198/747
f 198/748 88/749 199/750
f 198/751 200/752 81/753
f 81/754 200/755 92/756
f 198/757 199/758 200/759
f 200/760 199/761 201/762
f 88/763 89/764 199/765
f 199/766 89/767 201/768
f 89/769 92/770 201/771
f 201/772 92/773 200/774
f 93/775 89/776 202/777
f 202/778 89/779 91/780
f 91/781 90/782 203/783
f 203/784 90/785 93/786
f 90/787 204/788 92/789
f 92/790 204/791 82/792
f 89/793 85/794 91/795
f 91/796 85/797 84/798
f 15/799 75/800 205/801
f 205/802 75/803 206/804
f 205/805 207/806 15/807
f 15/808 207/809 79/810
f 205/811 206/812 207/813
f 207/814 206/815 208/816
f 75/817 76/818 206/819
f 206/820 76/821 208/822
f 76/823 79/824 208/825
f 208/826 79/827 207/828
f 80/829 76/830 209/831
f 209/832 76/833 78/834
f 210/835 211/836 212/837
f 212/838 211/839 213/840
f 78/841 77/842 214/843
f 214/844 77/845 80/846
f 77/847 215/848 79/849
f 79/850 215/851 16/852
f 5/853 13/854 213/855
f 213/856 13/857 212/858
f 76/859 47/860 78/861
f 78/862 47/863 18/864
f 14/865 5/866 216/867
f 216/868 5/869 9/870
f 55/871 52/872 217/873
f 217/874 52/875 218/876
f 219/877 220/878 3/879
f 3/880 220/881 11/882
f 219/883 221/884 220/885
f 220/886 221/887 222/888
f 14/889 223/890 8/891
f 8/892 223/893 9/894
f 222/895 221/896 12/897
f 12/898 221/899 2/900
f 217/901 196/902 55/903
f 55/904 196/905 57/906
f 42/907 41/908 71/909
f 71/910 41/911 63/912
f 10/913 12/914 224/915
f 224/916 12/917 45/918
f 64/919 13/920 225/921
f 225/922 13/923 8/924
f 217/925 218/926 196/927
f 196/928 218/929 195/930
f 52/931 54/932 218/933
f 218/934 54/935 195/936
f 70/937 11/938 226/939
f 226/940 11/941 44/942
f 7/943 9/944 69/945
f 69/946 9/947 5/948
f 20/949 67/950 227/951
f 227/952 67/953 228/954
f 227/955 229/956 20/957
f 20/958 229/959 21/960
f 94/961 59/962 230/963
f 230/964 59/965 60/966
f 227/967 228/968 229/969
f 229/970 228/971 231/972
f 67/973 42/974 228/975
f 228/976 42/977 231/978
f 59/979 232/980 57/981
f 57/982 232/983 23/984
f 229/985 231/986 21/987
f 21/988 231/989 42/990
f 54/991 33/992 94/993
f 94/994 33/995 24/996
f 71/997 233/998 42/999
f 42/1000 233/1001 49/1002
f 71/1003 48/1004 234/1005
f 234/1006 48/1007 49/1008
f 13/1009 38/1010 212/1011
f 212/1012 38/1013 210/1014
f 48/1015 235/1016 21/1017
f 21/1018 235/1019 19/1020
f 3/1021 2/1022 219/1023
f 219/1024 2/1025 221/1026
f 12/1027 11/1028 222/1029
f 222/1030 11/1031 220/1032
f 10/1033 236/1034 44/1035
f 44/1036 236/1037 45/1038
f 38/1039 6/1040 210/1041
f 210/1042 6/1043 211/1044
f 6/1045 5/1046 211/1047
f 211/1048 5/1049 213/1050
f 237/1051 238/1052 239/1053
f 239/1054 238/1055 240/1056
f 238/1057 237/1058 62/1059
f 62/1060 237/1061 27/1062
f 62/1063 36/1064 238/1065
f 238/1066 36/1067 240/1068
f 239/1069 240/1070 35/1071
f 35/1072 240/1073 36/1074
f 237/1075 239/1076 27/1077
f 27/1078 239/1079 35/1080
