# Exported from USD for MuJoCo with source material subsets
v 10.468601 -4.112532 1.50000061
v 10.498601 -4.112532 1.47000061
v 10.4697647 -4.112532 1.05000086
v 10.4986012 -4.112532 1.05000086
v 10.4697648 -4.112532 0.800000978
v 10.4686013 -4.112532 0.800000978
v 10.4697648 -5.01253115 0.800000978
v 10.4697647 -5.01253115 1.05000086
v 10.4686013 -5.01253115 0.800000978
v 10.468601 -5.01253115 1.50000061
v 10.4986012 -5.01253115 1.05000086
v 10.498601 -5.01253115 1.47000061
v 10.857943 -5.01253115 1.50000085
v 10.857943 -4.112532 1.50000085
v 11.5272709 -5.01253115 0.830001426
v 11.3897645 -5.01253115 0.830001366
v 11.3597644 -5.01253115 0.800001395
v 11.5272709 -4.112532 0.830001426
v 11.3597644 -4.112532 0.800001395
v 11.3897645 -4.112532 0.830001366
v 11.3597643 -4.112532 1.05000134
v 11.3897643 -4.112532 1.05000134
v 11.3597643 -5.01253115 1.05000134
v 11.3897643 -5.01253115 1.05000134
v 11.3597644 -2.29253279 0.800001395
v 11.3897645 -2.29253279 0.830001366
v 11.5272709 -2.29253279 0.830001426
v 11.3597644 -3.19253217 0.800001395
v 11.5272709 -3.19253217 0.830001426
v 11.3897645 -3.19253217 0.830001366
v 11.3597643 -3.19253217 1.05000134
v 11.3597643 -2.29253279 1.05000134
v 11.3897643 -2.29253279 1.05000134
v 11.3897643 -3.19253217 1.05000134
v 10.857943 -2.29253279 1.50000085
v 10.498601 -2.29253279 1.47000061
v 10.468601 -2.29253279 1.50000061
v 10.857943 -3.19253217 1.50000085
v 10.468601 -3.19253217 1.50000061
v 10.498601 -3.19253217 1.47000061
v 10.4697647 -2.29253279 1.05000086
v 10.4686013 -2.29253279 0.800000978
v 10.4697648 -2.29253279 0.800000978
v 10.4686013 -3.19253217 0.800000978
v 10.4697647 -3.19253217 1.05000086
v 10.4697648 -3.19253217 0.800000978
v 10.4986012 -2.29253279 1.05000086
v 10.4986012 -3.19253217 1.05000086
v 11.5272709 -3.20253216 0.830001426
v 11.3597644 -3.20253216 0.800001395
v 11.3897645 -3.20253216 0.830001366
v 11.3597643 -3.20253216 1.05000134
v 11.3897643 -3.20253216 1.05000134
v 11.3897643 -4.10253201 1.05000134
v 11.3597643 -4.10253201 1.05000134
v 11.3897645 -4.10253201 0.830001366
v 11.3597644 -4.10253201 0.800001395
v 11.5272709 -4.10253201 0.830001426
v 10.857943 -3.20253216 1.50000085
v 10.498601 -3.20253216 1.47000061
v 10.468601 -3.20253216 1.50000061
v 10.857943 -4.10253201 1.50000085
v 10.468601 -4.10253201 1.50000061
v 10.498601 -4.10253201 1.47000061
v 10.4697647 -3.20253216 1.05000086
v 10.4686013 -3.20253216 0.800000978
v 10.4697648 -3.20253216 0.800000978
v 10.4686013 -4.10253201 0.800000978
v 10.4697647 -4.10253201 1.05000086
v 10.4697648 -4.10253201 0.800000978
v 10.4986012 -3.20253216 1.05000086
v 10.4986012 -4.10253201 1.05000086
v 10.4986012 -1.38253321 1.05000086
v 10.4697647 -1.38253321 1.05000086
v 10.498601 -1.38253321 1.47000061
v 10.4986012 -2.2825328 1.05000086
v 10.498601 -2.2825328 1.47000061
v 10.4697647 -2.2825328 1.05000086
v 10.468601 -1.38253321 1.50000061
v 10.857943 -1.38253321 1.50000085
v 10.4697648 -1.38253321 0.800000978
v 10.4686013 -1.38253321 0.800000978
v 10.4697648 -2.2825328 0.800000978
v 10.4686013 -2.2825328 0.800000978
v 10.468601 -2.2825328 1.50000061
v 10.857943 -2.2825328 1.50000085
v 11.5272709 -1.38253321 0.830001426
v 11.3597644 -1.38253321 0.800001395
v 11.3897645 -1.38253321 0.830001366
v 11.5272709 -2.2825328 0.830001426
v 11.3897645 -2.2825328 0.830001366
v 11.3597644 -2.2825328 0.800001395
v 11.3597643 -2.2825328 1.05000134
v 11.3897643 -2.2825328 1.05000134
v 11.3897643 -1.38253321 1.05000134
v 11.3597643 -1.38253321 1.05000134
v 10.857943 -5.92253099 1.50000085
v 10.9493113 -5.92253099 1.49401221
v 10.857943 -5.02253138 1.50000085
v 10.9493113 -5.02253138 1.49401221
v 11.0391162 -5.92253099 1.47614905
v 11.0391162 -5.02253138 1.47614905
v 11.1258213 -5.92253099 1.44671668
v 11.1258213 -5.02253138 1.44671668
v 11.2079429 -5.92253099 1.40621887
v 11.2079429 -5.02253138 1.40621887
v 11.2840758 -5.92253099 1.35534839
v 11.2840758 -5.02253138 1.35534839
v 11.3529176 -5.92253099 1.29497583
v 11.3529176 -5.02253138 1.29497583
v 11.4132903 -5.92253099 1.22613428
v 11.4132903 -5.02253138 1.22613428
v 11.4641607 -5.92253099 1.15000133
v 11.4641607 -5.02253138 1.15000133
v 11.5046586 -5.92253099 1.06787975
v 11.5046586 -5.02253138 1.06787975
v 11.5340909 -5.92253099 0.98117469
v 11.5340909 -5.02253138 0.98117469
v 11.5519544 -5.92253099 0.891369772
v 11.5519544 -5.02253138 0.891369772
v 11.557943 -5.92253099 0.800001514
v 11.557943 -5.02253138 0.800001514
v 11.557943 -2.2825328 0.800001514
v 11.557943 -1.38253321 0.800001514
v 11.5519544 -2.2825328 0.891369772
v 11.5519544 -1.38253321 0.891369772
v 11.5340909 -1.38253321 0.98117469
v 11.5340909 -2.2825328 0.98117469
v 11.5046586 -1.38253321 1.06787975
v 11.5046586 -2.2825328 1.06787975
v 11.4641607 -1.38253321 1.15000133
v 11.4641607 -2.2825328 1.15000133
v 11.4132903 -1.38253321 1.22613428
v 11.4132903 -2.2825328 1.22613428
v 11.3529176 -1.38253321 1.29497583
v 11.3529176 -2.2825328 1.29497583
v 11.2840758 -1.38253321 1.35534839
v 11.2840758 -2.2825328 1.35534839
v 11.2079429 -1.38253321 1.40621887
v 11.2079429 -2.2825328 1.40621887
v 11.1258213 -1.38253321 1.44671668
v 11.1258213 -2.2825328 1.44671668
v 11.0391162 -1.38253321 1.47614905
v 11.0391162 -2.2825328 1.47614905
v 10.9493113 -1.38253321 1.49401221
v 10.9493113 -2.2825328 1.49401221
v 11.5180615 -1.38253321 0.914646399
v 11.5180615 -2.2825328 0.914646399
v 11.4981913 -1.38253321 0.997439933
v 11.4981913 -2.2825328 0.997439933
v 11.4679812 -1.38253321 1.07704492
v 11.4679812 -2.2825328 1.07704492
v 11.4279194 -1.38253321 1.15217577
v 11.4279194 -2.2825328 1.15217577
v 11.3786524 -1.38253321 1.2216189
v 11.3786524 -2.2825328 1.2216189
v 11.3209764 -1.38253321 1.28425318
v 11.3209764 -2.2825328 1.28425318
v 11.2558224 -1.38253321 1.3390669
v 11.2558224 -2.2825328 1.3390669
v 11.1842427 -1.38253321 1.38517493
v 11.1842427 -2.2825328 1.38517493
v 11.1073935 -1.38253321 1.42183252
v 11.1073935 -2.2825328 1.42183252
v 11.0265156 -1.38253321 1.44844775
v 11.0265156 -2.2825328 1.44844775
v 10.9429155 -1.38253321 1.4645907
v 10.9429155 -2.2825328 1.4645907
v 10.857943 -1.38253321 1.47000085
v 10.857943 -2.2825328 1.47000085
v 10.9493113 -4.10253201 1.49401221
v 10.9493113 -3.20253216 1.49401221
v 11.0391162 -4.10253201 1.47614905
v 11.0391162 -3.20253216 1.47614905
v 11.1258213 -4.10253201 1.44671668
v 11.1258213 -3.20253216 1.44671668
v 11.2079429 -4.10253201 1.40621887
v 11.2079429 -3.20253216 1.40621887
v 11.2840758 -4.10253201 1.35534839
v 11.2840758 -3.20253216 1.35534839
v 11.3529176 -4.10253201 1.29497583
v 11.3529176 -3.20253216 1.29497583
v 11.4132903 -4.10253201 1.22613428
v 11.4132903 -3.20253216 1.22613428
v 11.4641607 -4.10253201 1.15000133
v 11.4641607 -3.20253216 1.15000133
v 11.5046586 -4.10253201 1.06787975
v 11.5046586 -3.20253216 1.06787975
v 11.5340909 -4.10253201 0.98117469
v 11.5340909 -3.20253216 0.98117469
v 11.5519544 -4.10253201 0.891369772
v 11.5519544 -3.20253216 0.891369772
v 11.557943 -4.10253201 0.800001514
v 11.557943 -3.20253216 0.800001514
v 10.857943 -3.20253216 1.47000085
v 10.9429155 -3.20253216 1.4645907
v 10.857943 -4.10253201 1.47000085
v 10.9429155 -4.10253201 1.4645907
v 11.0265156 -4.10253201 1.44844775
v 11.0265156 -3.20253216 1.44844775
v 11.1073935 -4.10253201 1.42183252
v 11.1073935 -3.20253216 1.42183252
v 11.1842427 -4.10253201 1.38517493
v 11.1842427 -3.20253216 1.38517493
v 11.2558224 -4.10253201 1.3390669
v 11.2558224 -3.20253216 1.3390669
v 11.3209764 -4.10253201 1.28425318
v 11.3209764 -3.20253216 1.28425318
v 11.3786524 -4.10253201 1.2216189
v 11.3786524 -3.20253216 1.2216189
v 11.4279194 -4.10253201 1.15217577
v 11.4279194 -3.20253216 1.15217577
v 11.4679812 -4.10253201 1.07704492
v 11.4679812 -3.20253216 1.07704492
v 11.4981913 -4.10253201 0.997439933
v 11.4981913 -3.20253216 0.997439933
v 11.5180615 -4.10253201 0.914646399
v 11.5180615 -3.20253216 0.914646399
v 10.9493113 -3.19253217 1.49401221
v 10.9493113 -2.29253279 1.49401221
v 11.0391162 -3.19253217 1.47614905
v 11.0391162 -2.29253279 1.47614905
v 11.1258213 -3.19253217 1.44671668
v 11.1258213 -2.29253279 1.44671668
v 11.2079429 -3.19253217 1.40621887
v 11.2079429 -2.29253279 1.40621887
v 11.2840758 -3.19253217 1.35534839
v 11.2840758 -2.29253279 1.35534839
v 11.3529176 -3.19253217 1.29497583
v 11.3529176 -2.29253279 1.29497583
v 11.4132903 -3.19253217 1.22613428
v 11.4132903 -2.29253279 1.22613428
v 11.4641607 -3.19253217 1.15000133
v 11.4641607 -2.29253279 1.15000133
v 11.5046586 -3.19253217 1.06787975
v 11.5046586 -2.29253279 1.06787975
v 11.5340909 -3.19253217 0.98117469
v 11.5340909 -2.29253279 0.98117469
v 11.5519544 -3.19253217 0.891369772
v 11.5519544 -2.29253279 0.891369772
v 11.557943 -3.19253217 0.800001514
v 11.557943 -2.29253279 0.800001514
v 10.857943 -2.29253279 1.47000085
v 10.9429155 -2.29253279 1.4645907
v 10.857943 -3.19253217 1.47000085
v 10.9429155 -3.19253217 1.4645907
v 11.0265156 -3.19253217 1.44844775
v 11.0265156 -2.29253279 1.44844775
v 11.1073935 -3.19253217 1.42183252
v 11.1073935 -2.29253279 1.42183252
v 11.1842427 -3.19253217 1.38517493
v 11.1842427 -2.29253279 1.38517493
v 11.2558224 -3.19253217 1.3390669
v 11.2558224 -2.29253279 1.3390669
v 11.3209764 -3.19253217 1.28425318
v 11.3209764 -2.29253279 1.28425318
v 11.3786524 -3.19253217 1.2216189
v 11.3786524 -2.29253279 1.2216189
v 11.4279194 -3.19253217 1.15217577
v 11.4279194 -2.29253279 1.15217577
v 11.4679812 -3.19253217 1.07704492
v 11.4679812 -2.29253279 1.07704492
v 11.4981913 -3.19253217 0.997439933
v 11.4981913 -2.29253279 0.997439933
v 11.5180615 -3.19253217 0.914646399
v 11.5180615 -2.29253279 0.914646399
v 11.557943 -4.112532 0.800001514
v 11.5519544 -4.112532 0.891369772
v 11.557943 -5.01253115 0.800001514
v 11.5519544 -5.01253115 0.891369772
v 11.5340909 -4.112532 0.98117469
v 11.5340909 -5.01253115 0.98117469
v 11.5046586 -4.112532 1.06787975
v 11.5046586 -5.01253115 1.06787975
v 11.4641607 -4.112532 1.15000133
v 11.4641607 -5.01253115 1.15000133
v 11.4132903 -4.112532 1.22613428
v 11.4132903 -5.01253115 1.22613428
v 11.3529176 -4.112532 1.29497583
v 11.3529176 -5.01253115 1.29497583
v 11.2840758 -4.112532 1.35534839
v 11.2840758 -5.01253115 1.35534839
v 11.2079429 -4.112532 1.40621887
v 11.2079429 -5.01253115 1.40621887
v 11.1258213 -4.112532 1.44671668
v 11.1258213 -5.01253115 1.44671668
v 11.0391162 -4.112532 1.47614905
v 11.0391162 -5.01253115 1.47614905
v 10.9493113 -4.112532 1.49401221
v 10.9493113 -5.01253115 1.49401221
v 11.5180615 -4.112532 0.914646399
v 11.5180615 -5.01253115 0.914646399
v 11.4981913 -4.112532 0.997439933
v 11.4981913 -5.01253115 0.997439933
v 11.4679812 -4.112532 1.07704492
v 11.4679812 -5.01253115 1.07704492
v 11.4279194 -4.112532 1.15217577
v 11.4279194 -5.01253115 1.15217577
v 11.3786524 -4.112532 1.2216189
v 11.3786524 -5.01253115 1.2216189
v 11.3209764 -4.112532 1.28425318
v 11.3209764 -5.01253115 1.28425318
v 11.2558224 -4.112532 1.3390669
v 11.2558224 -5.01253115 1.3390669
v 11.1842427 -4.112532 1.38517493
v 11.1842427 -5.01253115 1.38517493
v 11.1073935 -4.112532 1.42183252
v 11.1073935 -5.01253115 1.42183252
v 11.0265156 -4.112532 1.44844775
v 11.0265156 -5.01253115 1.44844775
v 10.9429155 -4.112532 1.4645907
v 10.9429155 -5.01253115 1.4645907
v 10.857943 -4.112532 1.47000085
v 10.857943 -5.01253115 1.47000085
v 11.3597644 -5.92253099 0.800001395
v 11.3597644 -5.02253138 0.800001395
v 11.3897643 -5.02253138 1.05000134
v 11.3897645 -5.02253138 0.830001366
v 11.3597643 -5.02253138 1.05000134
v 10.4986012 -5.02253138 1.05000086
v 10.4697647 -5.02253138 1.05000086
v 10.498601 -5.02253138 1.47000061
v 10.468601 -5.02253138 1.50000061
v 11.5272709 -5.02253138 0.830001426
v 10.4686013 -5.02253138 0.800000978
v 10.4697648 -5.02253138 0.800000978
v 10.9429155 -5.02253138 1.4645907
v 11.0265156 -5.02253138 1.44844775
v 11.1073935 -5.02253138 1.42183252
v 11.1842427 -5.02253138 1.38517493
v 11.2558224 -5.02253138 1.3390669
v 11.3209764 -5.02253138 1.28425318
v 11.3786524 -5.02253138 1.2216189
v 11.4279194 -5.02253138 1.15217577
v 11.4679812 -5.02253138 1.07704492
v 11.4981913 -5.02253138 0.997439933
v 11.5180615 -5.02253138 0.914646399
v 10.857943 -5.02253138 1.47000085
v 11.3597643 -5.92253099 1.05000134
v 10.4697647 -5.92253099 1.05000086
v 10.4686013 -5.92253099 0.800000978
v 10.4697648 -5.92253099 0.800000978
v 10.468601 -5.92253099 1.50000061
v 11.3597643 -5.89253078 1.05000134
v 10.4986012 -5.89253078 1.05000086
v 11.5272709 -5.89253078 0.830001426
v 11.3897645 -5.89253078 0.830001366
v 10.857943 -5.89253078 1.47000085
v 10.9429155 -5.89253078 1.4645907
v 11.0265156 -5.89253078 1.44844775
v 11.1073935 -5.89253078 1.42183252
v 11.1842427 -5.89253078 1.38517493
v 11.2558224 -5.89253078 1.3390669
v 11.3209764 -5.89253078 1.28425318
v 11.3786524 -5.89253078 1.2216189
v 11.4279194 -5.89253078 1.15217577
v 11.4679812 -5.89253078 1.07704492
v 11.4981913 -5.89253078 0.997439933
v 11.5180615 -5.89253078 0.914646399
v 11.3897643 -5.89253078 1.05000134
v 10.498601 -5.89253078 1.47000061
vt -1.5 0.246841997
vt -1.47000003 0.216841996
vt -1.04999995 0.245679006
vt -1.04999995 0.245679006
vt -1.47000003 0.216841996
vt -1.04999995 0.216841996
vt -1.04999995 0.245679006
vt -0.800000012 0.245679006
vt -0.800000012 0.246841997
vt -1.04999995 0.245679006
vt -0.800000012 0.246841997
vt -1.5 0.246841997
vt 0.800000012 0.245679006
vt 1.04999995 0.245679006
vt 0.800000012 0.246841997
vt 0.800000012 0.246841997
vt 1.04999995 0.245679006
vt 1.5 0.246841997
vt 1.04999995 0.216841996
vt 1.47000003 0.216841996
vt 1.04999995 0.245679006
vt 1.04999995 0.245679006
vt 1.47000003 0.216841996
vt 1.5 0.246841997
vt 1.5 0.246841997
vt 1.47000003 0.216841996
vt 1.5 -0.142499998
vt -1.5 0.246841997
vt -1.5 -0.142499998
vt -1.47000003 0.216841996
vt 0.829999983 -0.811828017
vt 0.829999983 -0.674320996
vt 0.800000012 -0.644321024
vt -0.829999983 -0.811828017
vt -0.800000012 -0.644321024
vt -0.829999983 -0.674320996
vt -0.800000012 -0.644321024
vt -1.04999995 -0.644321024
vt -0.829999983 -0.674320996
vt -0.829999983 -0.674320996
vt -1.04999995 -0.644321024
vt -1.04999995 -0.674320996
vt 0.800000012 -0.644321024
vt 0.829999983 -0.674320996
vt 1.04999995 -0.644321024
vt 1.04999995 -0.644321024
vt 0.829999983 -0.674320996
vt 1.04999995 -0.674320996
vt -0.800000012 -0.644321024
vt -0.829999983 -0.674320996
vt -0.829999983 -0.811828017
vt 0.800000012 -0.644321024
vt 0.829999983 -0.811828017
vt 0.829999983 -0.674320996
vt 0.800000012 -0.644321024
vt 0.829999983 -0.674320996
vt 1.04999995 -0.644321024
vt -0.800000012 -0.644321024
vt -1.04999995 -0.644321024
vt -0.829999983 -0.674320996
vt -1.04999995 -0.644321024
vt -1.04999995 -0.674320996
vt -0.829999983 -0.674320996
vt 1.04999995 -0.644321024
vt 0.829999983 -0.674320996
vt 1.04999995 -0.674320996
vt -1.5 -0.142499998
vt -1.47000003 0.216841996
vt -1.5 0.246841997
vt 1.5 -0.142499998
vt 1.5 0.246841997
vt 1.47000003 0.216841996
vt -1.5 0.246841997
vt -1.47000003 0.216841996
vt -1.04999995 0.245679006
vt -1.5 0.246841997
vt -1.04999995 0.245679006
vt -0.800000012 0.246841997
vt -0.800000012 0.246841997
vt -1.04999995 0.245679006
vt -0.800000012 0.245679006
vt 1.5 0.246841997
vt 0.800000012 0.246841997
vt 1.04999995 0.245679006
vt 1.5 0.246841997
vt 1.04999995 0.245679006
vt 1.47000003 0.216841996
vt 0.800000012 0.246841997
vt 0.800000012 0.245679006
vt 1.04999995 0.245679006
vt -1.04999995 0.245679006
vt -1.47000003 0.216841996
vt -1.04999995 0.216841996
vt 1.04999995 0.245679006
vt 1.04999995 0.216841996
vt 1.47000003 0.216841996
vt -0.829999983 -0.811828017
vt -0.800000012 -0.644321024
vt -0.829999983 -0.674320996
vt -0.800000012 -0.644321024
vt -1.04999995 -0.644321024
vt -0.829999983 -0.674320996
vt -1.04999995 -0.644321024
vt -1.04999995 -0.674320996
vt -0.829999983 -0.674320996
vt 1.04999995 -0.674320996
vt 1.04999995 -0.644321024
vt 0.829999983 -0.674320996
vt 1.04999995 -0.644321024
vt 0.800000012 -0.644321024
vt 0.829999983 -0.674320996
vt 0.829999983 -0.674320996
vt 0.800000012 -0.644321024
vt 0.829999983 -0.811828017
vt -1.5 -0.142499998
vt -1.47000003 0.216841996
vt -1.5 0.246841997
vt 1.5 -0.142499998
vt 1.5 0.246841997
vt 1.47000003 0.216841996
vt -1.5 0.246841997
vt -1.47000003 0.216841996
vt -1.04999995 0.245679006
vt -1.5 0.246841997
vt -1.04999995 0.245679006
vt -0.800000012 0.246841997
vt -0.800000012 0.246841997
vt -1.04999995 0.245679006
vt -0.800000012 0.245679006
vt 1.5 0.246841997
vt 0.800000012 0.246841997
vt 1.04999995 0.245679006
vt 1.5 0.246841997
vt 1.04999995 0.245679006
vt 1.47000003 0.216841996
vt 0.800000012 0.246841997
vt 0.800000012 0.245679006
vt 1.04999995 0.245679006
vt -1.04999995 0.245679006
vt -1.47000003 0.216841996
vt -1.04999995 0.216841996
vt 1.04999995 0.245679006
vt 1.04999995 0.216841996
vt 1.47000003 0.216841996
vt -1.04999995 0.216841996
vt -1.04999995 0.245679006
vt -1.47000003 0.216841996
vt 1.04999995 0.216841996
vt 1.47000003 0.216841996
vt 1.04999995 0.245679006
vt -1.47000003 0.216841996
vt -1.04999995 0.245679006
vt -1.5 0.246841997
vt -1.47000003 0.216841996
vt -1.5 0.246841997
vt -1.5 -0.142499998
vt -1.04999995 0.245679006
vt -0.800000012 0.245679006
vt -0.800000012 0.246841997
vt -1.04999995 0.245679006
vt -0.800000012 0.246841997
vt -1.5 0.246841997
vt 0.800000012 0.245679006
vt 1.04999995 0.245679006
vt 0.800000012 0.246841997
vt 0.800000012 0.246841997
vt 1.04999995 0.245679006
vt 1.5 0.246841997
vt 1.04999995 0.245679006
vt 1.47000003 0.216841996
vt 1.5 0.246841997
vt 1.5 0.246841997
vt 1.47000003 0.216841996
vt 1.5 -0.142499998
vt -0.829999983 -0.811828017
vt -0.800000012 -0.644321024
vt -0.829999983 -0.674320996
vt 0.829999983 -0.811828017
vt 0.829999983 -0.674320996
vt 0.800000012 -0.644321024
vt 0.800000012 -0.644321024
vt 0.829999983 -0.674320996
vt 1.04999995 -0.644321024
vt 0.829999983 -0.674320996
vt 1.04999995 -0.674320996
vt 1.04999995 -0.644321024
vt -1.04999995 -0.674320996
vt -0.829999983 -0.674320996
vt -1.04999995 -0.644321024
vt -1.04999995 -0.644321024
vt -0.829999983 -0.674320996
vt -0.800000012 -0.644321024
vt 0.464998007 0.245679006
vt 0.464998007 0.216841996
vt 1.36499798 0.245679006
vt 1.36499798 0.245679006
vt 0.464998007 0.216841996
vt 1.36499798 0.216841996
vt -2.27499795 -0.142499998
vt -2.27499795 -0.233868003
vt -1.37499797 -0.142499998
vt -1.5 -0.142499998
vt -1.49401104 -0.233868003
vt -1.49401104 -0.233868003
vt -1.37499797 -0.142499998
vt -2.27499795 -0.233868003
vt -1.37499797 -0.233868003
vt -1.37499797 -0.233868003
vt -2.27499795 -0.233868003
vt -2.27499795 -0.32367301
vt -1.37499797 -0.233868003
vt -2.27499795 -0.32367301
vt -1.37499797 -0.32367301
vt -1.37499797 -0.32367301
vt -2.27499795 -0.32367301
vt -2.27499795 -0.410378009
vt -1.37499797 -0.32367301
vt -2.27499795 -0.410378009
vt -1.37499797 -0.410378009
vt -1.37499797 -0.410378009
vt -2.27499795 -0.410378009
vt -2.27499795 -0.492500007
vt -1.37499797 -0.410378009
vt -2.27499795 -0.492500007
vt -1.37499797 -0.492500007
vt -1.37499797 -0.492500007
vt -2.27499795 -0.492500007
vt -2.27499795 -0.56863302
vt -1.37499797 -0.492500007
vt -2.27499795 -0.56863302
vt -1.37499797 -0.56863302
vt -1.37499797 -0.56863302
vt -2.27499795 -0.56863302
vt -2.27499795 -0.637475014
vt -1.37499797 -0.56863302
vt -2.27499795 -0.637475014
vt -1.37499797 -0.637475014
vt -1.37499797 1.29497504
vt -2.27499795 1.29497504
vt -2.27499795 1.22613299
vt -1.37499797 1.29497504
vt -2.27499795 1.22613299
vt -1.37499797 1.22613299
vt -1.37499797 1.22613299
vt -2.27499795 1.22613299
vt -2.27499795 1.14999998
vt -1.37499797 1.22613299
vt -2.27499795 1.14999998
vt -1.37499797 1.14999998
vt -1.37499797 1.14999998
vt -2.27499795 1.14999998
vt -2.27499795 1.06787801
vt -1.37499797 1.14999998
vt -2.27499795 1.06787801
vt -1.37499797 1.06787801
vt -1.37499797 1.06787801
vt -2.27499795 1.06787801
vt -2.27499795 0.981172979
vt -1.37499797 1.06787801
vt -2.27499795 0.981172979
vt -1.37499797 0.981172979
vt -1.37499797 0.981172979
vt -2.27499795 0.981172979
vt -2.27499795 0.891367972
vt -1.37499797 0.981172979
vt -2.27499795 0.891367972
vt -1.37499797 0.891367972
vt -1.37499797 0.891367972
vt -2.27499795 0.891367972
vt -2.27499795 0.800000012
vt -1.37499797 0.891367972
vt -2.27499795 0.800000012
vt -1.37499797 0.800000012
vt -2.26500201 1.04999995
vt -2.26500201 0.800000012
vt -1.36500096 1.04999995
vt -1.36500096 1.04999995
vt -2.26500201 0.800000012
vt -1.36500096 0.800000012
vt 2.26500201 -0.644321024
vt 1.36500096 -0.644321024
vt 2.26500201 -0.674320996
vt 2.26500201 -0.674320996
vt 1.36500096 -0.644321024
vt 1.36500096 -0.674320996
vt 2.26500201 1.04999995
vt 1.36500096 1.04999995
vt 2.26500201 0.829999983
vt 2.26500201 0.829999983
vt 1.36500096 1.04999995
vt 1.36500096 0.829999983
vt 1.36500096 -0.674320996
vt 1.36500096 -0.811828017
vt 2.26500201 -0.674320996
vt 2.26500201 -0.674320996
vt 1.36500096 -0.811828017
vt 2.26500201 -0.811828017
vt -1.36500096 -0.644321024
vt -2.26500201 -0.644321024
vt -1.36500096 -0.842499971
vt -1.36500096 -0.842499971
vt -2.26500201 -0.644321024
vt -2.26500201 -0.842499971
vt 0.800000012 -0.644321024
vt 0.800000012 -0.842499971
vt 0.829999983 -0.811828017
vt 0.829999983 -0.811828017
vt 0.800000012 -0.842499971
vt 0.891367972 -0.836511016
vt -0.800000012 -0.644321024
vt -0.829999983 -0.811828017
vt -0.800000012 -0.842499971
vt -0.800000012 -0.842499971
vt -0.829999983 -0.811828017
vt -0.891367972 -0.836511016
vt 2.26500201 0.800000012
vt 2.26500201 0.891367972
vt 1.36500096 0.800000012
vt -0.800000012 -0.842499971
vt -0.891367972 -0.836511016
vt -0.891367972 -0.836511016
vt 1.36500096 0.800000012
vt 2.26500201 0.891367972
vt 1.36500096 0.891367972
vt 1.36500096 0.891367972
vt 2.26500201 0.891367972
vt 2.26500201 0.981172979
vt 1.36500096 0.891367972
vt 2.26500201 0.981172979
vt 1.36500096 0.981172979
vt 1.36500096 0.981172979
vt 2.26500201 0.981172979
vt 2.26500201 1.06787801
vt 1.36500096 0.981172979
vt 2.26500201 1.06787801
vt 1.36500096 1.06787801
vt 1.36500096 1.06787801
vt 2.26500201 1.06787801
vt 2.26500201 1.14999998
vt 1.36500096 1.06787801
vt 2.26500201 1.14999998
vt 1.36500096 1.14999998
vt 1.36500096 1.14999998
vt 2.26500201 1.14999998
vt 2.26500201 1.22613299
vt 1.36500096 1.14999998
vt 2.26500201 1.22613299
vt 1.36500096 1.22613299
vt 1.36500096 1.22613299
vt 2.26500201 1.22613299
vt 2.26500201 1.29497504
vt 1.36500096 1.22613299
vt 2.26500201 1.29497504
vt 1.36500096 1.29497504
vt 1.36500096 -0.637475014
vt 2.26500201 -0.637475014
vt 2.26500201 -0.56863302
vt 1.36500096 -0.637475014
vt 2.26500201 -0.56863302
vt 1.36500096 -0.56863302
vt 1.36500096 -0.56863302
vt 2.26500201 -0.56863302
vt 2.26500201 -0.492500007
vt 1.36500096 -0.56863302
vt 2.26500201 -0.492500007
vt 1.36500096 -0.492500007
vt 1.36500096 -0.492500007
vt 2.26500201 -0.492500007
vt 2.26500201 -0.410378009
vt 1.36500096 -0.492500007
vt 2.26500201 -0.410378009
vt 1.36500096 -0.410378009
vt 1.36500096 -0.410378009
vt 2.26500201 -0.410378009
vt 2.26500201 -0.32367301
vt 1.36500096 -0.410378009
vt 2.26500201 -0.32367301
vt 1.36500096 -0.32367301
vt 1.36500096 -0.32367301
vt 2.26500201 -0.32367301
vt 2.26500201 -0.233868003
vt 1.36500096 -0.32367301
vt 2.26500201 -0.233868003
vt 1.36500096 -0.233868003
vt 1.36500096 -0.233868003
vt 2.26500201 -0.233868003
vt 2.26500201 -0.142499998
vt 1.36500096 -0.233868003
vt 2.26500201 -0.142499998
vt 1.36500096 -0.142499998
vt 1.36500096 -0.142499998
vt 2.26500201 -0.142499998
vt 2.26500201 0.246841997
vt 1.36500096 -0.142499998
vt 2.26500201 0.246841997
vt 1.36500096 0.246841997
vt -2.26500201 0.829999983
vt -1.36500096 0.829999983
vt -2.26500201 0.914645016
vt -2.26500201 0.914645016
vt -1.36500096 0.829999983
vt -1.36500096 0.914645016
vt -2.26500201 0.914645016
vt -1.36500096 0.914645016
vt -2.26500201 0.997439027
vt -2.26500201 0.997439027
vt -1.36500096 0.914645016
vt -1.36500096 0.997439027
vt -2.26500201 0.997439027
vt -1.36500096 0.997439027
vt -2.26500201 1.07704401
vt -2.26500201 1.07704401
vt -1.36500096 0.997439027
vt -1.36500096 1.07704401
vt -2.26500201 1.07704401
vt -1.36500096 1.07704401
vt -2.26500201 1.152174
vt -2.26500201 1.152174
vt -1.36500096 1.07704401
vt -1.36500096 1.152174
vt -2.26500201 1.152174
vt -1.36500096 1.152174
vt -2.26500201 1.22161806
vt -2.26500201 1.22161806
vt -1.36500096 1.152174
vt -1.36500096 1.22161806
vt -2.26500201 1.22161806
vt -1.36500096 1.22161806
vt -2.26500201 1.28425205
vt -2.26500201 1.28425205
vt -1.36500096 1.22161806
vt -1.36500096 1.28425205
vt -2.26500201 -0.605533004
vt -1.36500096 -0.605533004
vt -2.26500201 -0.540378988
vt -2.26500201 -0.540378988
vt -1.36500096 -0.605533004
vt -1.36500096 -0.540378988
vt -2.26500201 -0.540378988
vt -1.36500096 -0.540378988
vt -2.26500201 -0.468800008
vt -2.26500201 -0.468800008
vt -1.36500096 -0.540378988
vt -1.36500096 -0.468800008
vt -2.26500201 -0.468800008
vt -1.36500096 -0.468800008
vt -2.26500201 -0.391950011
vt -2.26500201 -0.391950011
vt -1.36500096 -0.468800008
vt -1.36500096 -0.391950011
vt -2.26500201 -0.391950011
vt -1.36500096 -0.391950011
vt -2.26500201 -0.311073005
vt -2.26500201 -0.311073005
vt -1.36500096 -0.391950011
vt -1.36500096 -0.311073005
vt -2.26500201 -0.311073005
vt -1.36500096 -0.311073005
vt -2.26500201 -0.227472007
vt -2.26500201 -0.227472007
vt -1.36500096 -0.311073005
vt -1.36500096 -0.227472007
vt -2.26500201 -0.227472007
vt -1.36500096 -0.227472007
vt -2.26500201 -0.142499998
vt -2.26500201 -0.142499998
vt -1.36500096 -0.227472007
vt -1.36500096 -0.142499998
vt -1.47000003 -0.142499998
vt -1.47000003 -0.142499998
vt -1.47000003 -0.142499998
vt -2.26500201 -0.142499998
vt -1.36500096 -0.142499998
vt -1.36500096 0.216841996
vt -2.26500201 -0.142499998
vt -1.36500096 0.216841996
vt -2.26500201 0.216841996
vt -0.829999983 -0.811828017
vt -0.914645016 -0.802618027
vt -0.891367972 -0.836511016
vt -0.891367972 -0.836511016
vt -0.914645016 -0.802618027
vt -0.914645016 -0.802618027
vt -0.891367972 -0.836511016
vt -0.914645016 -0.802618027
vt -0.981172979 -0.818647981
vt -0.981172979 -0.818647981
vt -0.914645016 -0.802618027
vt -0.997439027 -0.782747984
vt -0.981172979 -0.818647981
vt -0.997439027 -0.782747984
vt -1.06787801 -0.789215982
vt -1.06787801 -0.789215982
vt -0.997439027 -0.782747984
vt -1.07704401 -0.752538025
vt -1.06787801 -0.789215982
vt -1.07704401 -0.752538025
vt -1.14999998 -0.748718023
vt -1.14999998 -0.748718023
vt -1.07704401 -0.752538025
vt -1.152174 -0.712476015
vt -1.14999998 -0.748718023
vt -1.152174 -0.712476015
vt -1.22613299 -0.697847009
vt -1.22613299 -0.697847009
vt -1.152174 -0.712476015
vt -1.22161806 -0.663209021
vt -1.22613299 -0.697847009
vt -1.22161806 -0.663209021
vt -1.29497504 -0.637475014
vt -1.29497504 -0.637475014
vt -1.22161806 -0.663209021
vt -1.28425205 -0.605533004
vt -1.29497504 -0.637475014
vt -1.28425205 -0.605533004
vt -1.35534704 -0.56863302
vt -1.35534704 -0.56863302
vt -1.28425205 -0.605533004
vt -1.33906603 -0.540378988
vt -1.35534704 -0.56863302
vt -1.33906603 -0.540378988
vt -1.40621805 -0.492500007
vt -1.40621805 -0.492500007
vt -1.33906603 -0.540378988
vt -1.38517404 -0.468800008
vt -1.40621805 -0.492500007
vt -1.38517404 -0.468800008
vt -1.44671595 -0.410378009
vt -1.44671595 -0.410378009
vt -1.38517404 -0.468800008
vt -1.42183101 -0.391950011
vt -1.44671595 -0.410378009
vt -1.42183101 -0.391950011
vt -1.47614801 -0.32367301
vt -1.47614801 -0.32367301
vt -1.42183101 -0.391950011
vt -1.44844699 -0.311073005
vt -1.47614801 -0.32367301
vt -1.44844699 -0.311073005
vt -1.49401104 -0.233868003
vt -1.49401104 -0.233868003
vt -1.44844699 -0.311073005
vt -1.46458995 -0.227472007
vt -1.49401104 -0.233868003
vt -1.46458995 -0.227472007
vt -1.5 -0.142499998
vt 0.829999983 -0.811828017
vt 0.891367972 -0.836511016
vt 0.914645016 -0.802618027
vt 0.914645016 -0.802618027
vt 0.891367972 -0.836511016
vt 0.981172979 -0.818647981
vt 0.914645016 -0.802618027
vt 0.981172979 -0.818647981
vt 0.997439027 -0.782747984
vt 0.997439027 -0.782747984
vt 0.981172979 -0.818647981
vt 1.06787801 -0.789215982
vt 0.997439027 -0.782747984
vt 1.06787801 -0.789215982
vt 1.07704401 -0.752538025
vt 1.07704401 -0.752538025
vt 1.06787801 -0.789215982
vt 1.14999998 -0.748718023
vt 1.07704401 -0.752538025
vt 1.14999998 -0.748718023
vt 1.152174 -0.712476015
vt 1.152174 -0.712476015
vt 1.14999998 -0.748718023
vt 1.22613299 -0.697847009
vt 1.152174 -0.712476015
vt 1.22613299 -0.697847009
vt 1.22161806 -0.663209021
vt 1.22161806 -0.663209021
vt 1.22613299 -0.697847009
vt 1.29497504 -0.637475014
vt 1.22161806 -0.663209021
vt 1.29497504 -0.637475014
vt 1.28425205 -0.605533004
vt 1.28425205 -0.605533004
vt 1.29497504 -0.637475014
vt 1.35534704 -0.56863302
vt 1.28425205 -0.605533004
vt 1.35534704 -0.56863302
vt 1.33906603 -0.540378988
vt 1.33906603 -0.540378988
vt 1.35534704 -0.56863302
vt 1.40621805 -0.492500007
vt 1.33906603 -0.540378988
vt 1.40621805 -0.492500007
vt 1.38517404 -0.468800008
vt 1.38517404 -0.468800008
vt 1.40621805 -0.492500007
vt 1.44671595 -0.410378009
vt 1.38517404 -0.468800008
vt 1.44671595 -0.410378009
vt 1.42183101 -0.391950011
vt 1.42183101 -0.391950011
vt 1.44671595 -0.410378009
vt 1.47614801 -0.32367301
vt 1.42183101 -0.391950011
vt 1.47614801 -0.32367301
vt 1.44844699 -0.311073005
vt 1.44844699 -0.311073005
vt 1.47614801 -0.32367301
vt 1.49401104 -0.233868003
vt 1.44844699 -0.311073005
vt 1.49401104 -0.233868003
vt 1.46458995 -0.227472007
vt 1.46458995 -0.227472007
vt 1.49401104 -0.233868003
vt 1.5 -0.142499998
vt -1.46458995 -0.227472007
vt -1.47000003 -0.142499998
vt -1.5 -0.142499998
vt -1.5 -0.142499998
vt -1.47000003 -0.142499998
vt -1.47000003 0.216841996
vt 1.46458995 -0.227472007
vt 1.5 -0.142499998
vt 1.47000003 -0.142499998
vt 1.47000003 -0.142499998
vt 1.5 -0.142499998
vt 1.47000003 0.216841996
vt -1.36500096 1.5
vt -2.26500201 1.5
vt -1.36500096 0.800000012
vt -1.36500096 0.800000012
vt -2.26500201 1.5
vt -2.26500201 0.800000012
vt -1.36500096 0.245679006
vt -1.36500096 0.246841997
vt -2.26500201 0.245679006
vt -2.26500201 0.245679006
vt -1.36500096 0.246841997
vt -2.26500201 0.246841997
vt 1.36500096 0.800000012
vt 2.26500201 0.800000012
vt 1.36500096 1.04999995
vt 1.36500096 1.04999995
vt 2.26500201 0.800000012
vt 2.26500201 1.04999995
vt 1.36500096 1.47000003
vt 1.36500096 1.04999995
vt 2.26500201 1.47000003
vt 2.26500201 1.47000003
vt 1.36500096 1.04999995
vt 2.26500201 1.04999995
vt -2.26500201 0.245679006
vt -2.26500201 0.216841996
vt -1.36500096 0.245679006
vt -1.36500096 0.245679006
vt -2.26500201 0.216841996
vt -1.36500096 0.216841996
vt -0.454997987 1.47000003
vt -0.454997987 1.04999995
vt 0.44500199 1.47000003
vt 0.44500199 1.47000003
vt -0.454997987 1.04999995
vt 0.44500199 1.04999995
vt 0.454997987 0.216841996
vt 0.454997987 0.245679006
vt -0.44500199 0.216841996
vt -0.44500199 0.216841996
vt 0.454997987 0.245679006
vt -0.44500199 0.245679006
vt 0.44500199 1.04999995
vt -0.454997987 1.04999995
vt 0.44500199 0.800000012
vt 0.44500199 0.800000012
vt -0.454997987 1.04999995
vt -0.454997987 0.800000012
vt 0.454997987 0.245679006
vt 0.454997987 0.246841997
vt -0.44500199 0.245679006
vt -0.44500199 0.245679006
vt 0.454997987 0.246841997
vt -0.44500199 0.246841997
vt 0.454997987 0.800000012
vt 0.454997987 1.5
vt -0.44500199 0.800000012
vt -0.44500199 0.800000012
vt 0.454997987 1.5
vt -0.44500199 1.5
vt -0.454997987 0.246841997
vt -0.454997987 -0.142499998
vt 0.44500199 0.246841997
vt -1.5 0.246841997
vt -1.5 -0.142499998
vt -1.5 -0.142499998
vt 0.44500199 0.246841997
vt -0.454997987 -0.142499998
vt 0.44500199 -0.142499998
vt 0.44500199 -0.142499998
vt -0.454997987 -0.142499998
vt -0.454997987 -0.233868003
vt 0.44500199 -0.142499998
vt -0.454997987 -0.233868003
vt 0.44500199 -0.233868003
vt 0.44500199 -0.233868003
vt -0.454997987 -0.233868003
vt -0.454997987 -0.32367301
vt 0.44500199 -0.233868003
vt -0.454997987 -0.32367301
vt 0.44500199 -0.32367301
vt 0.44500199 -0.32367301
vt -0.454997987 -0.32367301
vt -0.454997987 -0.410378009
vt 0.44500199 -0.32367301
vt -0.454997987 -0.410378009
vt 0.44500199 -0.410378009
vt 0.44500199 -0.410378009
vt -0.454997987 -0.410378009
vt -0.454997987 -0.492500007
vt 0.44500199 -0.410378009
vt -0.454997987 -0.492500007
vt 0.44500199 -0.492500007
vt 0.44500199 -0.492500007
vt -0.454997987 -0.492500007
vt -0.454997987 -0.56863302
vt 0.44500199 -0.492500007
vt -0.454997987 -0.56863302
vt 0.44500199 -0.56863302
vt 0.44500199 -0.56863302
vt -0.454997987 -0.56863302
vt -0.454997987 -0.637475014
vt 0.44500199 -0.56863302
vt -0.454997987 -0.637475014
vt 0.44500199 -0.637475014
vt 0.44500199 1.29497504
vt -0.454997987 1.29497504
vt -0.454997987 1.22613299
vt 0.44500199 1.29497504
vt -0.454997987 1.22613299
vt 0.44500199 1.22613299
vt 0.44500199 1.22613299
vt -0.454997987 1.22613299
vt -0.454997987 1.14999998
vt 0.44500199 1.22613299
vt -0.454997987 1.14999998
vt 0.44500199 1.14999998
vt 0.44500199 1.14999998
vt -0.454997987 1.14999998
vt -0.454997987 1.06787801
vt 0.44500199 1.14999998
vt -0.454997987 1.06787801
vt 0.44500199 1.06787801
vt 0.44500199 1.06787801
vt -0.454997987 1.06787801
vt -0.454997987 0.981172979
vt 0.44500199 1.06787801
vt -0.454997987 0.981172979
vt 0.44500199 0.981172979
vt 0.44500199 0.981172979
vt -0.454997987 0.981172979
vt -0.454997987 0.891367972
vt 0.44500199 0.981172979
vt -0.454997987 0.891367972
vt 0.44500199 0.891367972
vt 0.44500199 0.891367972
vt -0.454997987 0.891367972
vt -0.454997987 0.800000012
vt 0.44500199 0.891367972
vt -0.454997987 0.800000012
vt 0.44500199 0.800000012
vt -1.47000003 0.216841996
vt -1.5 -0.142499998
vt -1.47000003 -0.142499998
vt -1.47000003 -0.142499998
vt -1.5 -0.142499998
vt -1.46458995 -0.227472007
vt -0.44500199 0.216841996
vt -0.44500199 -0.142499998
vt 0.454997987 0.216841996
vt -1.47000003 0.216841996
vt -1.47000003 -0.142499998
vt -1.47000003 -0.142499998
vt 0.454997987 0.216841996
vt -0.44500199 -0.142499998
vt 0.454997987 -0.142499998
vt -1.47000003 -0.142499998
vt -1.47000003 -0.142499998
vt -1.47000003 -0.142499998
vt 0.454997987 -0.142499998
vt -0.44500199 -0.142499998
vt 0.454997987 -0.227472007
vt 0.454997987 -0.227472007
vt -0.44500199 -0.142499998
vt -0.44500199 -0.227472007
vt 0.454997987 -0.227472007
vt -0.44500199 -0.227472007
vt 0.454997987 -0.311073005
vt 0.454997987 -0.311073005
vt -0.44500199 -0.227472007
vt -0.44500199 -0.311073005
vt 0.454997987 -0.311073005
vt -0.44500199 -0.311073005
vt 0.454997987 -0.391950011
vt 0.454997987 -0.391950011
vt -0.44500199 -0.311073005
vt -0.44500199 -0.391950011
vt 0.454997987 -0.391950011
vt -0.44500199 -0.391950011
vt 0.454997987 -0.468800008
vt 0.454997987 -0.468800008
vt -0.44500199 -0.391950011
vt -0.44500199 -0.468800008
vt 0.454997987 -0.468800008
vt -0.44500199 -0.468800008
vt 0.454997987 -0.540378988
vt 0.454997987 -0.540378988
vt -0.44500199 -0.468800008
vt -0.44500199 -0.540378988
vt 0.454997987 -0.540378988
vt -0.44500199 -0.540378988
vt 0.454997987 -0.605533004
vt 0.454997987 -0.605533004
vt -0.44500199 -0.540378988
vt -0.44500199 -0.605533004
vt 0.454997987 1.28425205
vt -0.44500199 1.28425205
vt 0.454997987 1.22161806
vt 0.454997987 1.22161806
vt -0.44500199 1.28425205
vt -0.44500199 1.22161806
vt 0.454997987 1.22161806
vt -0.44500199 1.22161806
vt 0.454997987 1.152174
vt 0.454997987 1.152174
vt -0.44500199 1.22161806
vt -0.44500199 1.152174
vt 0.454997987 1.152174
vt -0.44500199 1.152174
vt 0.454997987 1.07704401
vt 0.454997987 1.07704401
vt -0.44500199 1.152174
vt -0.44500199 1.07704401
vt 0.454997987 1.07704401
vt -0.44500199 1.07704401
vt 0.454997987 0.997439027
vt 0.454997987 0.997439027
vt -0.44500199 1.07704401
vt -0.44500199 0.997439027
vt 0.454997987 0.997439027
vt -0.44500199 0.997439027
vt 0.454997987 0.914645016
vt 0.454997987 0.914645016
vt -0.44500199 0.997439027
vt -0.44500199 0.914645016
vt 0.454997987 0.914645016
vt -0.44500199 0.914645016
vt 0.454997987 0.829999983
vt 0.454997987 0.829999983
vt -0.44500199 0.914645016
vt -0.44500199 0.829999983
vt 1.47000003 0.216841996
vt 1.47000003 -0.142499998
vt 1.5 -0.142499998
vt 1.5 -0.142499998
vt 1.47000003 -0.142499998
vt 1.46458995 -0.227472007
vt 1.5 -0.142499998
vt 1.46458995 -0.227472007
vt 1.49401104 -0.233868003
vt 1.49401104 -0.233868003
vt 1.46458995 -0.227472007
vt 1.44844699 -0.311073005
vt 1.49401104 -0.233868003
vt 1.44844699 -0.311073005
vt 1.47614801 -0.32367301
vt 1.47614801 -0.32367301
vt 1.44844699 -0.311073005
vt 1.42183101 -0.391950011
vt 1.47614801 -0.32367301
vt 1.42183101 -0.391950011
vt 1.44671595 -0.410378009
vt 1.44671595 -0.410378009
vt 1.42183101 -0.391950011
vt 1.38517404 -0.468800008
vt 1.44671595 -0.410378009
vt 1.38517404 -0.468800008
vt 1.40621805 -0.492500007
vt 1.40621805 -0.492500007
vt 1.38517404 -0.468800008
vt 1.33906603 -0.540378988
vt 1.40621805 -0.492500007
vt 1.33906603 -0.540378988
vt 1.35534704 -0.56863302
vt 1.35534704 -0.56863302
vt 1.33906603 -0.540378988
vt 1.28425205 -0.605533004
vt 1.35534704 -0.56863302
vt 1.28425205 -0.605533004
vt 1.29497504 -0.637475014
vt 1.29497504 -0.637475014
vt 1.28425205 -0.605533004
vt 1.22161806 -0.663209021
vt 1.29497504 -0.637475014
vt 1.22161806 -0.663209021
vt 1.22613299 -0.697847009
vt 1.22613299 -0.697847009
vt 1.22161806 -0.663209021
vt 1.152174 -0.712476015
vt 1.22613299 -0.697847009
vt 1.152174 -0.712476015
vt 1.14999998 -0.748718023
vt 1.14999998 -0.748718023
vt 1.152174 -0.712476015
vt 1.07704401 -0.752538025
vt 1.14999998 -0.748718023
vt 1.07704401 -0.752538025
vt 1.06787801 -0.789215982
vt 1.06787801 -0.789215982
vt 1.07704401 -0.752538025
vt 0.997439027 -0.782747984
vt 1.06787801 -0.789215982
vt 0.997439027 -0.782747984
vt 0.981172979 -0.818647981
vt 0.981172979 -0.818647981
vt 0.997439027 -0.782747984
vt 0.914645016 -0.802618027
vt 0.981172979 -0.818647981
vt 0.914645016 -0.802618027
vt 0.891367972 -0.836511016
vt 0.891367972 -0.836511016
vt 0.914645016 -0.802618027
vt 0.829999983 -0.811828017
vt -1.5 -0.142499998
vt -1.49401104 -0.233868003
vt -1.46458995 -0.227472007
vt -1.46458995 -0.227472007
vt -1.49401104 -0.233868003
vt -1.49401104 -0.233868003
vt -1.46458995 -0.227472007
vt -1.49401104 -0.233868003
vt -1.44844699 -0.311073005
vt -1.44844699 -0.311073005
vt -1.49401104 -0.233868003
vt -1.47614801 -0.32367301
vt -1.44844699 -0.311073005
vt -1.47614801 -0.32367301
vt -1.42183101 -0.391950011
vt -1.42183101 -0.391950011
vt -1.47614801 -0.32367301
vt -1.44671595 -0.410378009
vt -1.42183101 -0.391950011
vt -1.44671595 -0.410378009
vt -1.38517404 -0.468800008
vt -1.38517404 -0.468800008
vt -1.44671595 -0.410378009
vt -1.40621805 -0.492500007
vt -1.38517404 -0.468800008
vt -1.40621805 -0.492500007
vt -1.33906603 -0.540378988
vt -1.33906603 -0.540378988
vt -1.40621805 -0.492500007
vt -1.35534704 -0.56863302
vt -1.33906603 -0.540378988
vt -1.35534704 -0.56863302
vt -1.28425205 -0.605533004
vt -1.28425205 -0.605533004
vt -1.35534704 -0.56863302
vt -1.29497504 -0.637475014
vt -1.28425205 -0.605533004
vt -1.29497504 -0.637475014
vt -1.22161806 -0.663209021
vt -1.22161806 -0.663209021
vt -1.29497504 -0.637475014
vt -1.22613299 -0.697847009
vt -1.22161806 -0.663209021
vt -1.22613299 -0.697847009
vt -1.152174 -0.712476015
vt -1.152174 -0.712476015
vt -1.22613299 -0.697847009
vt -1.14999998 -0.748718023
vt -1.152174 -0.712476015
vt -1.14999998 -0.748718023
vt -1.07704401 -0.752538025
vt -1.07704401 -0.752538025
vt -1.14999998 -0.748718023
vt -1.06787801 -0.789215982
vt -1.07704401 -0.752538025
vt -1.06787801 -0.789215982
vt -0.997439027 -0.782747984
vt -0.997439027 -0.782747984
vt -1.06787801 -0.789215982
vt -0.981172979 -0.818647981
vt -0.997439027 -0.782747984
vt -0.981172979 -0.818647981
vt -0.914645016 -0.802618027
vt -0.914645016 -0.802618027
vt -0.981172979 -0.818647981
vt -0.891367972 -0.836511016
vt -0.914645016 -0.802618027
vt -0.891367972 -0.836511016
vt -0.829999983 -0.811828017
vt 0.891367972 -0.836511016
vt 0.829999983 -0.811828017
vt 0.800000012 -0.842499971
vt 0.800000012 -0.842499971
vt 0.829999983 -0.811828017
vt 0.800000012 -0.644321024
vt -0.891367972 -0.836511016
vt -0.800000012 -0.842499971
vt -0.829999983 -0.811828017
vt -0.829999983 -0.811828017
vt -0.800000012 -0.842499971
vt -0.800000012 -0.644321024
vt 0.454997987 -0.842499971
vt 0.454997987 -0.644321024
vt -0.44500199 -0.842499971
vt -0.44500199 -0.842499971
vt 0.454997987 -0.644321024
vt -0.44500199 -0.644321024
vt 0.44500199 -0.811828017
vt 0.44500199 -0.674320996
vt -0.454997987 -0.811828017
vt -0.454997987 -0.811828017
vt 0.44500199 -0.674320996
vt -0.454997987 -0.674320996
vt -0.454997987 0.829999983
vt 0.44500199 0.829999983
vt -0.454997987 1.04999995
vt -0.454997987 1.04999995
vt 0.44500199 0.829999983
vt 0.44500199 1.04999995
vt -0.454997987 -0.674320996
vt 0.44500199 -0.674320996
vt -0.454997987 -0.644321024
vt -0.454997987 -0.644321024
vt 0.44500199 -0.674320996
vt 0.44500199 -0.644321024
vt -0.44500199 1.04999995
vt -0.44500199 0.800000012
vt 0.454997987 1.04999995
vt 0.454997987 1.04999995
vt -0.44500199 0.800000012
vt 0.454997987 0.800000012
vt 0.45500201 1.47000003
vt 0.45500201 1.04999995
vt 1.35500205 1.47000003
vt 1.35500205 1.47000003
vt 0.45500201 1.04999995
vt 1.35500205 1.04999995
vt -0.45500201 0.216841996
vt -0.45500201 0.245679006
vt -1.35500205 0.216841996
vt -1.35500205 0.216841996
vt -0.45500201 0.245679006
vt -1.35500205 0.245679006
vt 1.35500205 1.04999995
vt 0.45500201 1.04999995
vt 1.35500205 0.800000012
vt 1.35500205 0.800000012
vt 0.45500201 1.04999995
vt 0.45500201 0.800000012
vt -0.45500201 0.245679006
vt -0.45500201 0.246841997
vt -1.35500205 0.245679006
vt -1.35500205 0.245679006
vt -0.45500201 0.246841997
vt -1.35500205 0.246841997
vt -0.45500201 0.800000012
vt -0.45500201 1.5
vt -1.35500205 0.800000012
vt -1.35500205 0.800000012
vt -0.45500201 1.5
vt -1.35500205 1.5
vt 0.45500201 0.246841997
vt 0.45500201 -0.142499998
vt 1.35500205 0.246841997
vt -1.5 0.246841997
vt -1.5 -0.142499998
vt -1.5 -0.142499998
vt 1.35500205 0.246841997
vt 0.45500201 -0.142499998
vt 1.35500205 -0.142499998
vt 1.35500205 -0.142499998
vt 0.45500201 -0.142499998
vt 0.45500201 -0.233868003
vt 1.35500205 -0.142499998
vt 0.45500201 -0.233868003
vt 1.35500205 -0.233868003
vt 1.35500205 -0.233868003
vt 0.45500201 -0.233868003
vt 0.45500201 -0.32367301
vt 1.35500205 -0.233868003
vt 0.45500201 -0.32367301
vt 1.35500205 -0.32367301
vt 1.35500205 -0.32367301
vt 0.45500201 -0.32367301
vt 0.45500201 -0.410378009
vt 1.35500205 -0.32367301
vt 0.45500201 -0.410378009
vt 1.35500205 -0.410378009
vt 1.35500205 -0.410378009
vt 0.45500201 -0.410378009
vt 0.45500201 -0.492500007
vt 1.35500205 -0.410378009
vt 0.45500201 -0.492500007
vt 1.35500205 -0.492500007
vt 1.35500205 -0.492500007
vt 0.45500201 -0.492500007
vt 0.45500201 -0.56863302
vt 1.35500205 -0.492500007
vt 0.45500201 -0.56863302
vt 1.35500205 -0.56863302
vt 1.35500205 -0.56863302
vt 0.45500201 -0.56863302
vt 0.45500201 -0.637475014
vt 1.35500205 -0.56863302
vt 0.45500201 -0.637475014
vt 1.35500205 -0.637475014
vt 1.35500205 1.29497504
vt 0.45500201 1.29497504
vt 0.45500201 1.22613299
vt 1.35500205 1.29497504
vt 0.45500201 1.22613299
vt 1.35500205 1.22613299
vt 1.35500205 1.22613299
vt 0.45500201 1.22613299
vt 0.45500201 1.14999998
vt 1.35500205 1.22613299
vt 0.45500201 1.14999998
vt 1.35500205 1.14999998
vt 1.35500205 1.14999998
vt 0.45500201 1.14999998
vt 0.45500201 1.06787801
vt 1.35500205 1.14999998
vt 0.45500201 1.06787801
vt 1.35500205 1.06787801
vt 1.35500205 1.06787801
vt 0.45500201 1.06787801
vt 0.45500201 0.981172979
vt 1.35500205 1.06787801
vt 0.45500201 0.981172979
vt 1.35500205 0.981172979
vt 1.35500205 0.981172979
vt 0.45500201 0.981172979
vt 0.45500201 0.891367972
vt 1.35500205 0.981172979
vt 0.45500201 0.891367972
vt 1.35500205 0.891367972
vt 1.35500205 0.891367972
vt 0.45500201 0.891367972
vt 0.45500201 0.800000012
vt 1.35500205 0.891367972
vt 0.45500201 0.800000012
vt 1.35500205 0.800000012
vt -1.47000003 0.216841996
vt -1.5 -0.142499998
vt -1.47000003 -0.142499998
vt -1.47000003 -0.142499998
vt -1.5 -0.142499998
vt -1.46458995 -0.227472007
vt -1.35500205 0.216841996
vt -1.35500205 -0.142499998
vt -0.45500201 0.216841996
vt -1.47000003 0.216841996
vt -1.47000003 -0.142499998
vt -1.47000003 -0.142499998
vt -0.45500201 0.216841996
vt -1.35500205 -0.142499998
vt -0.45500201 -0.142499998
vt -1.47000003 -0.142499998
vt -1.47000003 -0.142499998
vt -1.47000003 -0.142499998
vt -0.45500201 -0.142499998
vt -1.35500205 -0.142499998
vt -0.45500201 -0.227472007
vt -0.45500201 -0.227472007
vt -1.35500205 -0.142499998
vt -1.35500205 -0.227472007
vt -0.45500201 -0.227472007
vt -1.35500205 -0.227472007
vt -0.45500201 -0.311073005
vt -0.45500201 -0.311073005
vt -1.35500205 -0.227472007
vt -1.35500205 -0.311073005
vt -0.45500201 -0.311073005
vt -1.35500205 -0.311073005
vt -0.45500201 -0.391950011
vt -0.45500201 -0.391950011
vt -1.35500205 -0.311073005
vt -1.35500205 -0.391950011
vt -0.45500201 -0.391950011
vt -1.35500205 -0.391950011
vt -0.45500201 -0.468800008
vt -0.45500201 -0.468800008
vt -1.35500205 -0.391950011
vt -1.35500205 -0.468800008
vt -0.45500201 -0.468800008
vt -1.35500205 -0.468800008
vt -0.45500201 -0.540378988
vt -0.45500201 -0.540378988
vt -1.35500205 -0.468800008
vt -1.35500205 -0.540378988
vt -0.45500201 -0.540378988
vt -1.35500205 -0.540378988
vt -0.45500201 -0.605533004
vt -0.45500201 -0.605533004
vt -1.35500205 -0.540378988
vt -1.35500205 -0.605533004
vt -0.45500201 1.28425205
vt -1.35500205 1.28425205
vt -0.45500201 1.22161806
vt -0.45500201 1.22161806
vt -1.35500205 1.28425205
vt -1.35500205 1.22161806
vt -0.45500201 1.22161806
vt -1.35500205 1.22161806
vt -0.45500201 1.152174
vt -0.45500201 1.152174
vt -1.35500205 1.22161806
vt -1.35500205 1.152174
vt -0.45500201 1.152174
vt -1.35500205 1.152174
vt -0.45500201 1.07704401
vt -0.45500201 1.07704401
vt -1.35500205 1.152174
vt -1.35500205 1.07704401
vt -0.45500201 1.07704401
vt -1.35500205 1.07704401
vt -0.45500201 0.997439027
vt -0.45500201 0.997439027
vt -1.35500205 1.07704401
vt -1.35500205 0.997439027
vt -0.45500201 0.997439027
vt -1.35500205 0.997439027
vt -0.45500201 0.914645016
vt -0.45500201 0.914645016
vt -1.35500205 0.997439027
vt -1.35500205 0.914645016
vt -0.45500201 0.914645016
vt -1.35500205 0.914645016
vt -0.45500201 0.829999983
vt -0.45500201 0.829999983
vt -1.35500205 0.914645016
vt -1.35500205 0.829999983
vt 1.47000003 0.216841996
vt 1.47000003 -0.142499998
vt 1.5 -0.142499998
vt 1.5 -0.142499998
vt 1.47000003 -0.142499998
vt 1.46458995 -0.227472007
vt 1.5 -0.142499998
vt 1.46458995 -0.227472007
vt 1.49401104 -0.233868003
vt 1.49401104 -0.233868003
vt 1.46458995 -0.227472007
vt 1.44844699 -0.311073005
vt 1.49401104 -0.233868003
vt 1.44844699 -0.311073005
vt 1.47614801 -0.32367301
vt 1.47614801 -0.32367301
vt 1.44844699 -0.311073005
vt 1.42183101 -0.391950011
vt 1.47614801 -0.32367301
vt 1.42183101 -0.391950011
vt 1.44671595 -0.410378009
vt 1.44671595 -0.410378009
vt 1.42183101 -0.391950011
vt 1.38517404 -0.468800008
vt 1.44671595 -0.410378009
vt 1.38517404 -0.468800008
vt 1.40621805 -0.492500007
vt 1.40621805 -0.492500007
vt 1.38517404 -0.468800008
vt 1.33906603 -0.540378988
vt 1.40621805 -0.492500007
vt 1.33906603 -0.540378988
vt 1.35534704 -0.56863302
vt 1.35534704 -0.56863302
vt 1.33906603 -0.540378988
vt 1.28425205 -0.605533004
vt 1.35534704 -0.56863302
vt 1.28425205 -0.605533004
vt 1.29497504 -0.637475014
vt 1.29497504 -0.637475014
vt 1.28425205 -0.605533004
vt 1.22161806 -0.663209021
vt 1.29497504 -0.637475014
vt 1.22161806 -0.663209021
vt 1.22613299 -0.697847009
vt 1.22613299 -0.697847009
vt 1.22161806 -0.663209021
vt 1.152174 -0.712476015
vt 1.22613299 -0.697847009
vt 1.152174 -0.712476015
vt 1.14999998 -0.748718023
vt 1.14999998 -0.748718023
vt 1.152174 -0.712476015
vt 1.07704401 -0.752538025
vt 1.14999998 -0.748718023
vt 1.07704401 -0.752538025
vt 1.06787801 -0.789215982
vt 1.06787801 -0.789215982
vt 1.07704401 -0.752538025
vt 0.997439027 -0.782747984
vt 1.06787801 -0.789215982
vt 0.997439027 -0.782747984
vt 0.981172979 -0.818647981
vt 0.981172979 -0.818647981
vt 0.997439027 -0.782747984
vt 0.914645016 -0.802618027
vt 0.981172979 -0.818647981
vt 0.914645016 -0.802618027
vt 0.891367972 -0.836511016
vt 0.891367972 -0.836511016
vt 0.914645016 -0.802618027
vt 0.829999983 -0.811828017
vt -1.5 -0.142499998
vt -1.49401104 -0.233868003
vt -1.46458995 -0.227472007
vt -1.46458995 -0.227472007
vt -1.49401104 -0.233868003
vt -1.49401104 -0.233868003
vt -1.46458995 -0.227472007
vt -1.49401104 -0.233868003
vt -1.44844699 -0.311073005
vt -1.44844699 -0.311073005
vt -1.49401104 -0.233868003
vt -1.47614801 -0.32367301
vt -1.44844699 -0.311073005
vt -1.47614801 -0.32367301
vt -1.42183101 -0.391950011
vt -1.42183101 -0.391950011
vt -1.47614801 -0.32367301
vt -1.44671595 -0.410378009
vt -1.42183101 -0.391950011
vt -1.44671595 -0.410378009
vt -1.38517404 -0.468800008
vt -1.38517404 -0.468800008
vt -1.44671595 -0.410378009
vt -1.40621805 -0.492500007
vt -1.38517404 -0.468800008
vt -1.40621805 -0.492500007
vt -1.33906603 -0.540378988
vt -1.33906603 -0.540378988
vt -1.40621805 -0.492500007
vt -1.35534704 -0.56863302
vt -1.33906603 -0.540378988
vt -1.35534704 -0.56863302
vt -1.28425205 -0.605533004
vt -1.28425205 -0.605533004
vt -1.35534704 -0.56863302
vt -1.29497504 -0.637475014
vt -1.28425205 -0.605533004
vt -1.29497504 -0.637475014
vt -1.22161806 -0.663209021
vt -1.22161806 -0.663209021
vt -1.29497504 -0.637475014
vt -1.22613299 -0.697847009
vt -1.22161806 -0.663209021
vt -1.22613299 -0.697847009
vt -1.152174 -0.712476015
vt -1.152174 -0.712476015
vt -1.22613299 -0.697847009
vt -1.14999998 -0.748718023
vt -1.152174 -0.712476015
vt -1.14999998 -0.748718023
vt -1.07704401 -0.752538025
vt -1.07704401 -0.752538025
vt -1.14999998 -0.748718023
vt -1.06787801 -0.789215982
vt -1.07704401 -0.752538025
vt -1.06787801 -0.789215982
vt -0.997439027 -0.782747984
vt -0.997439027 -0.782747984
vt -1.06787801 -0.789215982
vt -0.981172979 -0.818647981
vt -0.997439027 -0.782747984
vt -0.981172979 -0.818647981
vt -0.914645016 -0.802618027
vt -0.914645016 -0.802618027
vt -0.981172979 -0.818647981
vt -0.891367972 -0.836511016
vt -0.914645016 -0.802618027
vt -0.891367972 -0.836511016
vt -0.829999983 -0.811828017
vt 0.45500201 -0.674320996
vt 0.45500201 -0.811828017
vt 1.35500205 -0.674320996
vt 1.35500205 -0.674320996
vt 0.45500201 -0.811828017
vt 1.35500205 -0.811828017
vt 0.45500201 0.829999983
vt 1.35500205 0.829999983
vt 0.45500201 1.04999995
vt 0.45500201 1.04999995
vt 1.35500205 0.829999983
vt 1.35500205 1.04999995
vt 0.45500201 -0.674320996
vt 1.35500205 -0.674320996
vt 0.45500201 -0.644321024
vt 0.45500201 -0.644321024
vt 1.35500205 -0.674320996
vt 1.35500205 -0.644321024
vt -1.35500205 1.04999995
vt -1.35500205 0.800000012
vt -0.45500201 1.04999995
vt -0.45500201 1.04999995
vt -1.35500205 0.800000012
vt -0.45500201 0.800000012
vt -0.45500201 -0.644321024
vt -1.35500205 -0.644321024
vt -0.45500201 -0.842499971
vt -0.45500201 -0.842499971
vt -1.35500205 -0.644321024
vt -1.35500205 -0.842499971
vt 0.800000012 -0.644321024
vt 0.800000012 -0.842499971
vt 0.829999983 -0.811828017
vt 0.829999983 -0.811828017
vt 0.800000012 -0.842499971
vt 0.891367972 -0.836511016
vt -0.800000012 -0.644321024
vt -0.829999983 -0.811828017
vt -0.800000012 -0.842499971
vt -0.800000012 -0.842499971
vt -0.829999983 -0.811828017
vt -0.891367972 -0.836511016
vt -1.36499798 1.04999995
vt -1.36499798 0.829999983
vt -0.464998007 1.04999995
vt -0.464998007 1.04999995
vt -1.36499798 0.829999983
vt -0.464998007 0.829999983
vt -1.36499798 -0.674320996
vt -0.464998007 -0.674320996
vt -1.36499798 -0.644321024
vt -1.36499798 -0.644321024
vt -0.464998007 -0.674320996
vt -0.464998007 -0.644321024
vt 1.36499798 1.04999995
vt 0.464998007 1.04999995
vt 1.36499798 0.800000012
vt 1.36499798 0.800000012
vt 0.464998007 1.04999995
vt 0.464998007 0.800000012
vt -0.464998007 -0.674320996
vt -1.36499798 -0.674320996
vt -0.464998007 -0.811828017
vt -0.464998007 -0.811828017
vt -1.36499798 -0.674320996
vt -1.36499798 -0.811828017
vt -0.800000012 -0.644321024
vt -0.829999983 -0.811828017
vt -0.800000012 -0.842499971
vt -0.800000012 -0.842499971
vt -0.829999983 -0.811828017
vt -0.891367972 -0.836511016
vt 0.464998007 -0.644321024
vt 0.464998007 -0.842499971
vt 1.36499798 -0.644321024
vt 1.36499798 -0.644321024
vt 0.464998007 -0.842499971
vt 1.36499798 -0.842499971
vt 0.800000012 -0.644321024
vt 0.800000012 -0.842499971
vt 0.829999983 -0.811828017
vt 0.829999983 -0.811828017
vt 0.800000012 -0.842499971
vt 0.891367972 -0.836511016
vt -0.464998007 0.800000012
vt -0.464998007 0.891367972
vt -1.36499798 0.800000012
vt -0.800000012 -0.842499971
vt -0.891367972 -0.836511016
vt -0.891367972 -0.836511016
vt -1.36499798 0.800000012
vt -0.464998007 0.891367972
vt -1.36499798 0.891367972
vt -1.36499798 0.891367972
vt -0.464998007 0.891367972
vt -0.464998007 0.981172979
vt -1.36499798 0.891367972
vt -0.464998007 0.981172979
vt -1.36499798 0.981172979
vt -1.36499798 0.981172979
vt -0.464998007 0.981172979
vt -0.464998007 1.06787801
vt -1.36499798 0.981172979
vt -0.464998007 1.06787801
vt -1.36499798 1.06787801
vt -1.36499798 1.06787801
vt -0.464998007 1.06787801
vt -0.464998007 1.14999998
vt -1.36499798 1.06787801
vt -0.464998007 1.14999998
vt -1.36499798 1.14999998
vt -1.36499798 1.14999998
vt -0.464998007 1.14999998
vt -0.464998007 1.22613299
vt -1.36499798 1.14999998
vt -0.464998007 1.22613299
vt -1.36499798 1.22613299
vt -1.36499798 1.22613299
vt -0.464998007 1.22613299
vt -0.464998007 1.29497504
vt -1.36499798 1.22613299
vt -0.464998007 1.29497504
vt -1.36499798 1.29497504
vt -1.36499798 -0.637475014
vt -0.464998007 -0.637475014
vt -0.464998007 -0.56863302
vt -1.36499798 -0.637475014
vt -0.464998007 -0.56863302
vt -1.36499798 -0.56863302
vt -1.36499798 -0.56863302
vt -0.464998007 -0.56863302
vt -0.464998007 -0.492500007
vt -1.36499798 -0.56863302
vt -0.464998007 -0.492500007
vt -1.36499798 -0.492500007
vt -1.36499798 -0.492500007
vt -0.464998007 -0.492500007
vt -0.464998007 -0.410378009
vt -1.36499798 -0.492500007
vt -0.464998007 -0.410378009
vt -1.36499798 -0.410378009
vt -1.36499798 -0.410378009
vt -0.464998007 -0.410378009
vt -0.464998007 -0.32367301
vt -1.36499798 -0.410378009
vt -0.464998007 -0.32367301
vt -1.36499798 -0.32367301
vt -1.36499798 -0.32367301
vt -0.464998007 -0.32367301
vt -0.464998007 -0.233868003
vt -1.36499798 -0.32367301
vt -0.464998007 -0.233868003
vt -1.36499798 -0.233868003
vt -1.36499798 -0.233868003
vt -0.464998007 -0.233868003
vt -0.464998007 -0.142499998
vt -1.36499798 -0.233868003
vt -0.464998007 -0.142499998
vt -1.36499798 -0.142499998
vt -1.36499798 -0.142499998
vt -0.464998007 -0.142499998
vt -0.464998007 0.246841997
vt -1.36499798 -0.142499998
vt -0.464998007 0.246841997
vt -1.36499798 0.246841997
vt 0.464998007 0.829999983
vt 1.36499798 0.829999983
vt 0.464998007 0.914645016
vt 0.464998007 0.914645016
vt 1.36499798 0.829999983
vt 1.36499798 0.914645016
vt 0.464998007 0.914645016
vt 1.36499798 0.914645016
vt 0.464998007 0.997439027
vt 0.464998007 0.997439027
vt 1.36499798 0.914645016
vt 1.36499798 0.997439027
vt 0.464998007 0.997439027
vt 1.36499798 0.997439027
vt 0.464998007 1.07704401
vt 0.464998007 1.07704401
vt 1.36499798 0.997439027
vt 1.36499798 1.07704401
vt 0.464998007 1.07704401
vt 1.36499798 1.07704401
vt 0.464998007 1.152174
vt 0.464998007 1.152174
vt 1.36499798 1.07704401
vt 1.36499798 1.152174
vt 0.464998007 1.152174
vt 1.36499798 1.152174
vt 0.464998007 1.22161806
vt 0.464998007 1.22161806
vt 1.36499798 1.152174
vt 1.36499798 1.22161806
vt 0.464998007 1.22161806
vt 1.36499798 1.22161806
vt 0.464998007 1.28425205
vt 0.464998007 1.28425205
vt 1.36499798 1.22161806
vt 1.36499798 1.28425205
vt 0.464998007 -0.605533004
vt 1.36499798 -0.605533004
vt 0.464998007 -0.540378988
vt 0.464998007 -0.540378988
vt 1.36499798 -0.605533004
vt 1.36499798 -0.540378988
vt 0.464998007 -0.540378988
vt 1.36499798 -0.540378988
vt 0.464998007 -0.468800008
vt 0.464998007 -0.468800008
vt 1.36499798 -0.540378988
vt 1.36499798 -0.468800008
vt 0.464998007 -0.468800008
vt 1.36499798 -0.468800008
vt 0.464998007 -0.391950011
vt 0.464998007 -0.391950011
vt 1.36499798 -0.468800008
vt 1.36499798 -0.391950011
vt 0.464998007 -0.391950011
vt 1.36499798 -0.391950011
vt 0.464998007 -0.311073005
vt 0.464998007 -0.311073005
vt 1.36499798 -0.391950011
vt 1.36499798 -0.311073005
vt 0.464998007 -0.311073005
vt 1.36499798 -0.311073005
vt 0.464998007 -0.227472007
vt 0.464998007 -0.227472007
vt 1.36499798 -0.311073005
vt 1.36499798 -0.227472007
vt 0.464998007 -0.227472007
vt 1.36499798 -0.227472007
vt 0.464998007 -0.142499998
vt 0.464998007 -0.142499998
vt 1.36499798 -0.227472007
vt 1.36499798 -0.142499998
vt -1.47000003 -0.142499998
vt -1.47000003 -0.142499998
vt -1.47000003 -0.142499998
vt 0.464998007 -0.142499998
vt 1.36499798 -0.142499998
vt 1.36499798 0.216841996
vt 0.464998007 -0.142499998
vt 1.36499798 0.216841996
vt 0.464998007 0.216841996
vt -0.829999983 -0.811828017
vt -0.914645016 -0.802618027
vt -0.891367972 -0.836511016
vt -0.891367972 -0.836511016
vt -0.914645016 -0.802618027
vt -0.914645016 -0.802618027
vt -0.891367972 -0.836511016
vt -0.914645016 -0.802618027
vt -0.981172979 -0.818647981
vt -0.981172979 -0.818647981
vt -0.914645016 -0.802618027
vt -0.997439027 -0.782747984
vt -0.981172979 -0.818647981
vt -0.997439027 -0.782747984
vt -1.06787801 -0.789215982
vt -1.06787801 -0.789215982
vt -0.997439027 -0.782747984
vt -1.07704401 -0.752538025
vt -1.06787801 -0.789215982
vt -1.07704401 -0.752538025
vt -1.14999998 -0.748718023
vt -1.14999998 -0.748718023
vt -1.07704401 -0.752538025
vt -1.152174 -0.712476015
vt -1.14999998 -0.748718023
vt -1.152174 -0.712476015
vt -1.22613299 -0.697847009
vt -1.22613299 -0.697847009
vt -1.152174 -0.712476015
vt -1.22161806 -0.663209021
vt -1.22613299 -0.697847009
vt -1.22161806 -0.663209021
vt -1.29497504 -0.637475014
vt -1.29497504 -0.637475014
vt -1.22161806 -0.663209021
vt -1.28425205 -0.605533004
vt -1.29497504 -0.637475014
vt -1.28425205 -0.605533004
vt -1.35534704 -0.56863302
vt -1.35534704 -0.56863302
vt -1.28425205 -0.605533004
vt -1.33906603 -0.540378988
vt -1.35534704 -0.56863302
vt -1.33906603 -0.540378988
vt -1.40621805 -0.492500007
vt -1.40621805 -0.492500007
vt -1.33906603 -0.540378988
vt -1.38517404 -0.468800008
vt -1.40621805 -0.492500007
vt -1.38517404 -0.468800008
vt -1.44671595 -0.410378009
vt -1.44671595 -0.410378009
vt -1.38517404 -0.468800008
vt -1.42183101 -0.391950011
vt -1.44671595 -0.410378009
vt -1.42183101 -0.391950011
vt -1.47614801 -0.32367301
vt -1.47614801 -0.32367301
vt -1.42183101 -0.391950011
vt -1.44844699 -0.311073005
vt -1.47614801 -0.32367301
vt -1.44844699 -0.311073005
vt -1.49401104 -0.233868003
vt -1.49401104 -0.233868003
vt -1.44844699 -0.311073005
vt -1.46458995 -0.227472007
vt -1.49401104 -0.233868003
vt -1.46458995 -0.227472007
vt -1.5 -0.142499998
vt 0.829999983 -0.811828017
vt 0.891367972 -0.836511016
vt 0.914645016 -0.802618027
vt 0.914645016 -0.802618027
vt 0.891367972 -0.836511016
vt 0.981172979 -0.818647981
vt 0.914645016 -0.802618027
vt 0.981172979 -0.818647981
vt 0.997439027 -0.782747984
vt 0.997439027 -0.782747984
vt 0.981172979 -0.818647981
vt 1.06787801 -0.789215982
vt 0.997439027 -0.782747984
vt 1.06787801 -0.789215982
vt 1.07704401 -0.752538025
vt 1.07704401 -0.752538025
vt 1.06787801 -0.789215982
vt 1.14999998 -0.748718023
vt 1.07704401 -0.752538025
vt 1.14999998 -0.748718023
vt 1.152174 -0.712476015
vt 1.152174 -0.712476015
vt 1.14999998 -0.748718023
vt 1.22613299 -0.697847009
vt 1.152174 -0.712476015
vt 1.22613299 -0.697847009
vt 1.22161806 -0.663209021
vt 1.22161806 -0.663209021
vt 1.22613299 -0.697847009
vt 1.29497504 -0.637475014
vt 1.22161806 -0.663209021
vt 1.29497504 -0.637475014
vt 1.28425205 -0.605533004
vt 1.28425205 -0.605533004
vt 1.29497504 -0.637475014
vt 1.35534704 -0.56863302
vt 1.28425205 -0.605533004
vt 1.35534704 -0.56863302
vt 1.33906603 -0.540378988
vt 1.33906603 -0.540378988
vt 1.35534704 -0.56863302
vt 1.40621805 -0.492500007
vt 1.33906603 -0.540378988
vt 1.40621805 -0.492500007
vt 1.38517404 -0.468800008
vt 1.38517404 -0.468800008
vt 1.40621805 -0.492500007
vt 1.44671595 -0.410378009
vt 1.38517404 -0.468800008
vt 1.44671595 -0.410378009
vt 1.42183101 -0.391950011
vt 1.42183101 -0.391950011
vt 1.44671595 -0.410378009
vt 1.47614801 -0.32367301
vt 1.42183101 -0.391950011
vt 1.47614801 -0.32367301
vt 1.44844699 -0.311073005
vt 1.44844699 -0.311073005
vt 1.47614801 -0.32367301
vt 1.49401104 -0.233868003
vt 1.44844699 -0.311073005
vt 1.49401104 -0.233868003
vt 1.46458995 -0.227472007
vt 1.46458995 -0.227472007
vt 1.49401104 -0.233868003
vt 1.5 -0.142499998
vt -1.46458995 -0.227472007
vt -1.47000003 -0.142499998
vt -1.5 -0.142499998
vt -1.5 -0.142499998
vt -1.47000003 -0.142499998
vt -1.47000003 0.216841996
vt 1.46458995 -0.227472007
vt 1.5 -0.142499998
vt 1.47000003 -0.142499998
vt 1.47000003 -0.142499998
vt 1.5 -0.142499998
vt 1.47000003 0.216841996
vt -1.36499798 1.47000003
vt -1.36499798 1.04999995
vt -0.464998007 1.47000003
vt -0.464998007 1.47000003
vt -1.36499798 1.04999995
vt -0.464998007 1.04999995
vt 0.464998007 1.5
vt 0.464998007 0.800000012
vt 1.36499798 1.5
vt 1.36499798 1.5
vt 0.464998007 0.800000012
vt 1.36499798 0.800000012
vt 1.36499798 0.246841997
vt 0.464998007 0.246841997
vt 1.36499798 0.245679006
vt 1.36499798 0.245679006
vt 0.464998007 0.246841997
vt 0.464998007 0.245679006
vt -1.36499798 0.800000012
vt -0.464998007 0.800000012
vt -1.36499798 1.04999995
vt -1.36499798 1.04999995
vt -0.464998007 0.800000012
vt -0.464998007 1.04999995
vt 2.27499795 -0.644321024
vt 1.37499797 -0.644321024
vt 2.27499795 -0.842499971
vt 2.27499795 -0.842499971
vt 1.37499797 -0.644321024
vt 1.37499797 -0.842499971
vt -1.04999995 -0.674320996
vt -0.829999983 -0.674320996
vt -1.04999995 -0.644321024
vt -0.829999983 -0.674320996
vt -0.800000012 -0.644321024
vt -1.04999995 -0.644321024
vt -1.04999995 0.216841996
vt -1.04999995 0.245679006
vt -1.47000003 0.216841996
vt -1.47000003 0.216841996
vt -1.04999995 0.245679006
vt -1.5 0.246841997
vt -0.829999983 -0.811828017
vt -0.800000012 -0.644321024
vt -0.829999983 -0.674320996
vt -1.47000003 0.216841996
vt -1.5 0.246841997
vt -1.5 -0.142499998
vt -1.5 0.246841997
vt -1.04999995 0.245679006
vt -0.800000012 0.246841997
vt -0.800000012 0.246841997
vt -1.04999995 0.245679006
vt -0.800000012 0.245679006
vt -1.5 -0.142499998
vt -1.49401104 -0.233868003
vt -1.46458995 -0.227472007
vt -1.46458995 -0.227472007
vt -1.49401104 -0.233868003
vt -1.49401104 -0.233868003
vt -1.46458995 -0.227472007
vt -1.49401104 -0.233868003
vt -1.44844699 -0.311073005
vt -1.44844699 -0.311073005
vt -1.49401104 -0.233868003
vt -1.47614801 -0.32367301
vt -1.44844699 -0.311073005
vt -1.47614801 -0.32367301
vt -1.42183101 -0.391950011
vt -1.42183101 -0.391950011
vt -1.47614801 -0.32367301
vt -1.44671595 -0.410378009
vt -1.42183101 -0.391950011
vt -1.44671595 -0.410378009
vt -1.38517404 -0.468800008
vt -1.38517404 -0.468800008
vt -1.44671595 -0.410378009
vt -1.40621805 -0.492500007
vt -1.38517404 -0.468800008
vt -1.40621805 -0.492500007
vt -1.33906603 -0.540378988
vt -1.33906603 -0.540378988
vt -1.40621805 -0.492500007
vt -1.35534704 -0.56863302
vt -1.33906603 -0.540378988
vt -1.35534704 -0.56863302
vt -1.28425205 -0.605533004
vt -1.28425205 -0.605533004
vt -1.35534704 -0.56863302
vt -1.29497504 -0.637475014
vt -1.28425205 -0.605533004
vt -1.29497504 -0.637475014
vt -1.22161806 -0.663209021
vt -1.22161806 -0.663209021
vt -1.29497504 -0.637475014
vt -1.22613299 -0.697847009
vt -1.22161806 -0.663209021
vt -1.22613299 -0.697847009
vt -1.152174 -0.712476015
vt -1.152174 -0.712476015
vt -1.22613299 -0.697847009
vt -1.14999998 -0.748718023
vt -1.152174 -0.712476015
vt -1.14999998 -0.748718023
vt -1.07704401 -0.752538025
vt -1.07704401 -0.752538025
vt -1.14999998 -0.748718023
vt -1.06787801 -0.789215982
vt -1.07704401 -0.752538025
vt -1.06787801 -0.789215982
vt -0.997439027 -0.782747984
vt -0.997439027 -0.782747984
vt -1.06787801 -0.789215982
vt -0.981172979 -0.818647981
vt -0.997439027 -0.782747984
vt -0.981172979 -0.818647981
vt -0.914645016 -0.802618027
vt -0.914645016 -0.802618027
vt -0.981172979 -0.818647981
vt -0.891367972 -0.836511016
vt -0.914645016 -0.802618027
vt -0.891367972 -0.836511016
vt -0.829999983 -0.811828017
vt -0.800000012 -0.644321024
vt -0.829999983 -0.811828017
vt -0.800000012 -0.842499971
vt -0.800000012 -0.842499971
vt -0.829999983 -0.811828017
vt -0.891367972 -0.836511016
vt -1.47000003 0.216841996
vt -1.5 -0.142499998
vt -1.47000003 -0.142499998
vt -1.47000003 -0.142499998
vt -1.5 -0.142499998
vt -1.46458995 -0.227472007
vt 1.04999995 -0.644321024
vt 1.14999998 -0.748718023
vt 1.04999995 0.245679006
vt 0.891367972 -0.836511016
vt 0.981172979 -0.818647981
vt 0.800000012 -0.644321024
vt 0.800000012 -0.842499971
vt 0.891367972 -0.836511016
vt 0.800000012 -0.644321024
vt 0.981172979 -0.818647981
vt 1.04999995 -0.644321024
vt 0.800000012 -0.644321024
vt 0.800000012 0.246841997
vt 0.800000012 0.245679006
vt 1.04999995 0.245679006
vt 0.981172979 -0.818647981
vt 1.06787801 -0.789215982
vt 1.04999995 -0.644321024
vt 1.04999995 -0.644321024
vt 1.06787801 -0.789215982
vt 1.14999998 -0.748718023
vt 0.800000012 0.246841997
vt 1.04999995 0.245679006
vt 1.5 0.246841997
vt -1.5 0.246841997
vt -1.04999995 0.245679006
vt -1.04999995 0.245679006
vt 1.5 0.246841997
vt 1.04999995 0.245679006
vt 1.5 -0.142499998
vt -1.5 -0.142499998
vt -1.04999995 0.245679006
vt -1.04999995 0.245679006
vt 1.5 -0.142499998
vt 1.04999995 0.245679006
vt 1.49401104 -0.233868003
vt -1.49401104 -0.233868003
vt -1.04999995 0.245679006
vt -1.04999995 0.245679006
vt 1.49401104 -0.233868003
vt 1.04999995 0.245679006
vt 1.47614801 -0.32367301
vt -1.47614801 -0.32367301
vt -1.04999995 0.245679006
vt -1.04999995 0.245679006
vt 1.47614801 -0.32367301
vt 1.04999995 0.245679006
vt 1.44671595 -0.410378009
vt -1.44671595 -0.410378009
vt -1.04999995 0.245679006
vt -1.04999995 0.245679006
vt 1.44671595 -0.410378009
vt 1.04999995 0.245679006
vt 1.40621805 -0.492500007
vt -1.40621805 -0.492500007
vt -1.04999995 0.245679006
vt -1.04999995 0.245679006
vt 1.40621805 -0.492500007
vt 1.04999995 0.245679006
vt 1.35534704 -0.56863302
vt -1.35534704 -0.56863302
vt -1.04999995 0.245679006
vt -1.04999995 0.245679006
vt 1.35534704 -0.56863302
vt 1.04999995 0.245679006
vt 1.29497504 -0.637475014
vt -1.29497504 -0.637475014
vt -1.04999995 0.245679006
vt -1.04999995 0.245679006
vt 1.29497504 -0.637475014
vt 1.04999995 0.245679006
vt 1.22613299 -0.697847009
vt 1.22613299 -0.697847009
vt 1.04999995 0.245679006
vt 1.14999998 -0.748718023
vt -1.37499797 -0.142499998
vt -1.37499797 0.246841997
vt -2.27499795 -0.142499998
vt -2.27499795 -0.142499998
vt -1.37499797 0.246841997
vt -2.27499795 0.246841997
vt 1.37499797 1.5
vt 1.37499797 0.800000012
vt 2.27499795 1.5
vt 2.27499795 1.5
vt 1.37499797 0.800000012
vt 2.27499795 0.800000012
vt 2.27499795 0.245679006
vt 2.27499795 0.246841997
vt 1.37499797 0.245679006
vt 1.37499797 0.245679006
vt 2.27499795 0.246841997
vt 1.37499797 0.246841997
vt -1.37499797 0.800000012
vt -1.37499797 1.04999995
vt -2.27499795 0.800000012
vt -2.27499795 0.800000012
vt -1.37499797 1.04999995
vt -2.27499795 1.04999995
vt 2.27499795 0.800000012
vt 2.27499795 1.04999995
vt 2.24499798 1.04999995
vt 1.37499797 0.800000012
vt 2.27499795 0.800000012
vt 2.24499798 1.04999995
vt 1.37499797 1.04999995
vt 1.37499797 0.800000012
vt 2.24499798 1.04999995
vt 2.24499798 -0.644321024
vt 2.27499795 -0.644321024
vt 2.24499798 0.216841996
vt 1.37499797 0.216841996
vt 2.24499798 0.216841996
vt 1.37499797 0.245679006
vt 1.37499797 0.245679006
vt 2.24499798 0.216841996
vt 2.27499795 0.245679006
vt 2.27499795 0.245679006
vt 2.24499798 0.216841996
vt 2.27499795 -0.644321024
vt -1.37499797 -0.811828017
vt -1.37499797 -0.674320996
vt -2.24499798 -0.811828017
vt -2.24499798 -0.811828017
vt -1.37499797 -0.674320996
vt -2.24499798 -0.674320996
vt 2.24499798 -0.142499998
vt 1.37499797 -0.142499998
vt 2.24499798 -0.227472007
vt 2.24499798 -0.227472007
vt 1.37499797 -0.142499998
vt 1.37499797 -0.227472007
vt 2.24499798 -0.227472007
vt 1.37499797 -0.227472007
vt 2.24499798 -0.311073005
vt 2.24499798 -0.311073005
vt 1.37499797 -0.227472007
vt 1.37499797 -0.311073005
vt 2.24499798 -0.311073005
vt 1.37499797 -0.311073005
vt 2.24499798 -0.391950011
vt 2.24499798 -0.391950011
vt 1.37499797 -0.311073005
vt 1.37499797 -0.391950011
vt 2.24499798 -0.391950011
vt 1.37499797 -0.391950011
vt 2.24499798 -0.468800008
vt 2.24499798 -0.468800008
vt 1.37499797 -0.391950011
vt 1.37499797 -0.468800008
vt 2.24499798 -0.468800008
vt 1.37499797 -0.468800008
vt 2.24499798 -0.540378988
vt 2.24499798 -0.540378988
vt 1.37499797 -0.468800008
vt 1.37499797 -0.540378988
vt 2.24499798 -0.540378988
vt 1.37499797 -0.540378988
vt 2.24499798 -0.605533004
vt 2.24499798 -0.605533004
vt 1.37499797 -0.540378988
vt 1.37499797 -0.605533004
vt 2.24499798 1.28425205
vt 1.37499797 1.28425205
vt 2.24499798 1.22161806
vt 2.24499798 1.22161806
vt 1.37499797 1.28425205
vt 1.37499797 1.22161806
vt 2.24499798 1.22161806
vt 1.37499797 1.22161806
vt 2.24499798 1.152174
vt 2.24499798 1.152174
vt 1.37499797 1.22161806
vt 1.37499797 1.152174
vt 2.24499798 1.152174
vt 1.37499797 1.152174
vt 2.24499798 1.07704401
vt 2.24499798 1.07704401
vt 1.37499797 1.152174
vt 1.37499797 1.07704401
vt 2.24499798 1.07704401
vt 1.37499797 1.07704401
vt 2.24499798 0.997439027
vt 2.24499798 0.997439027
vt 1.37499797 1.07704401
vt 1.37499797 0.997439027
vt 2.24499798 0.997439027
vt 1.37499797 0.997439027
vt 2.24499798 0.914645016
vt 2.24499798 0.914645016
vt 1.37499797 0.997439027
vt 1.37499797 0.914645016
vt 2.24499798 0.914645016
vt 1.37499797 0.914645016
vt 2.24499798 0.829999983
vt 2.24499798 0.829999983
vt 1.37499797 0.914645016
vt 1.37499797 0.829999983
vt -0.997439027 -0.782747984
vt -0.829999983 -0.674320996
vt -1.04999995 -0.674320996
vt -0.914645016 -0.802618027
vt -0.829999983 -0.674320996
vt -0.997439027 -0.782747984
vt -1.47000003 -0.142499998
vt -1.04999995 0.216841996
vt -1.47000003 0.216841996
vt -0.829999983 -0.811828017
vt -0.829999983 -0.674320996
vt -0.914645016 -0.802618027
vt -1.04999995 -0.674320996
vt -1.04999995 -0.644321024
vt -1.152174 -0.712476015
vt -1.152174 -0.712476015
vt -1.04999995 -0.644321024
vt -1.22161806 -0.663209021
vt -1.04999995 -0.644321024
vt -1.04999995 0.216841996
vt -1.22161806 -0.663209021
vt -0.997439027 -0.782747984
vt -1.04999995 -0.674320996
vt -1.07704401 -0.752538025
vt -1.07704401 -0.752538025
vt -1.04999995 -0.674320996
vt -1.152174 -0.712476015
vt -1.22161806 -0.663209021
vt -1.04999995 0.216841996
vt -1.28425205 -0.605533004
vt -1.28425205 -0.605533004
vt -1.04999995 0.216841996
vt -1.04999995 0.216841996
vt -1.28425205 -0.605533004
vt -1.04999995 0.216841996
vt -1.33906603 -0.540378988
vt -1.33906603 -0.540378988
vt -1.04999995 0.216841996
vt -1.04999995 0.216841996
vt -1.33906603 -0.540378988
vt -1.04999995 0.216841996
vt -1.38517404 -0.468800008
vt -1.38517404 -0.468800008
vt -1.04999995 0.216841996
vt -1.04999995 0.216841996
vt -1.38517404 -0.468800008
vt -1.04999995 0.216841996
vt -1.42183101 -0.391950011
vt -1.42183101 -0.391950011
vt -1.04999995 0.216841996
vt -1.04999995 0.216841996
vt -1.42183101 -0.391950011
vt -1.04999995 0.216841996
vt -1.44844699 -0.311073005
vt -1.44844699 -0.311073005
vt -1.04999995 0.216841996
vt -1.04999995 0.216841996
vt -1.44844699 -0.311073005
vt -1.04999995 0.216841996
vt -1.46458995 -0.227472007
vt -1.46458995 -0.227472007
vt -1.04999995 0.216841996
vt -1.47000003 -0.142499998
vt 2.24499798 -0.142499998
vt 2.24499798 0.216841996
vt 1.37499797 -0.142499998
vt 1.37499797 -0.142499998
vt 2.24499798 0.216841996
vt 1.37499797 0.216841996
vt -2.24499798 1.04999995
vt -1.37499797 1.04999995
vt -2.24499798 1.47000003
vt -2.24499798 1.47000003
vt -1.37499797 1.04999995
vt -1.37499797 1.47000003
vt -1.37499797 0.829999983
vt -1.37499797 1.04999995
vt -2.24499798 0.829999983
vt -2.24499798 0.829999983
vt -1.37499797 1.04999995
vt -2.24499798 1.04999995
vt -1.37499797 -0.674320996
vt -1.37499797 -0.644321024
vt -2.24499798 -0.674320996
vt -2.24499798 -0.674320996
vt -1.37499797 -0.644321024
vt -2.24499798 -0.644321024
f 1/1 2/2 3/3
f 3/4 2/5 4/6
f 3/7 5/8 6/9
f 3/10 6/11 1/12
f 7/13 8/14 9/15
f 9/16 8/17 10/18
f 11/19 12/20 8/21
f 8/22 12/23 10/24
f 10/25 12/26 13/27
f 1/28 14/29 2/30
f 15/31 16/32 17/33
f 18/34 19/35 20/36
f 19/37 21/38 20/39
f 20/40 21/41 22/42
f 17/43 16/44 23/45
f 23/46 16/47 24/48
f 25/49 26/50 27/51
f 28/52 29/53 30/54
f 28/55 30/56 31/57
f 25/58 32/59 26/60
f 32/61 33/62 26/63
f 31/64 30/65 34/66
f 35/67 36/68 37/69
f 38/70 39/71 40/72
f 37/73 36/74 41/75
f 37/76 41/77 42/78
f 42/79 41/80 43/81
f 39/82 44/83 45/84
f 39/85 45/86 40/87
f 44/88 46/89 45/90
f 41/91 36/92 47/93
f 45/94 48/95 40/96
f 49/97 50/98 51/99
f 50/100 52/101 51/102
f 52/103 53/104 51/105
f 54/106 55/107 56/108
f 55/109 57/110 56/111
f 56/112 57/113 58/114
f 59/115 60/116 61/117
f 62/118 63/119 64/120
f 61/121 60/122 65/123
f 61/124 65/125 66/126
f 66/127 65/128 67/129
f 63/130 68/131 69/132
f 63/133 69/134 64/135
f 68/136 70/137 69/138
f 65/139 60/140 71/141
f 69/142 72/143 64/144
f 73/145 74/146 75/147
f 76/148 77/149 78/150
f 75/151 74/152 79/153
f 75/154 79/155 80/156
f 74/157 81/158 82/159
f 74/160 82/161 79/162
f 83/163 78/164 84/165
f 84/166 78/167 85/168
f 78/169 77/170 85/171
f 85/172 77/173 86/174
f 87/175 88/176 89/177
f 90/178 91/179 92/180
f 92/181 91/182 93/183
f 91/184 94/185 93/186
f 95/187 89/188 96/189
f 96/190 89/191 88/192
f 3/193 4/194 8/195
f 8/196 4/197 11/198
f 97/199 98/200 99/201
f 99/202 98/203 98/204
f 99/205 98/206 100/207
f 100/208 98/209 101/210
f 100/211 101/212 102/213
f 102/214 101/215 103/216
f 102/217 103/218 104/219
f 104/220 103/221 105/222
f 104/223 105/224 106/225
f 106/226 105/227 107/228
f 106/229 107/230 108/231
f 108/232 107/233 109/234
f 108/235 109/236 110/237
f 110/238 109/239 111/240
f 110/241 111/242 112/243
f 112/244 111/245 113/246
f 112/247 113/248 114/249
f 114/250 113/251 115/252
f 114/253 115/254 116/255
f 116/256 115/257 117/258
f 116/259 117/260 118/261
f 118/262 117/263 119/264
f 118/265 119/266 120/267
f 120/268 119/269 121/270
f 120/271 121/272 122/273
f 96/274 88/275 93/276
f 93/277 88/278 92/279
f 96/280 93/281 95/282
f 95/283 93/284 94/285
f 95/286 94/287 89/288
f 89/289 94/290 91/291
f 91/292 90/293 89/294
f 89/295 90/296 87/297
f 92/298 88/299 123/300
f 123/301 88/302 124/303
f 92/304 123/305 90/306
f 90/307 123/308 125/309
f 88/310 87/311 124/312
f 124/313 87/314 126/315
f 124/316 126/317 123/318
f 123/319 126/320 126/321
f 123/322 126/323 125/324
f 125/325 126/326 127/327
f 125/328 127/329 128/330
f 128/331 127/332 129/333
f 128/334 129/335 130/336
f 130/337 129/338 131/339
f 130/340 131/341 132/342
f 132/343 131/344 133/345
f 132/346 133/347 134/348
f 134/349 133/350 135/351
f 134/352 135/353 136/354
f 136/355 135/356 137/357
f 136/358 137/359 138/360
f 138/361 137/362 139/363
f 138/364 139/365 140/366
f 140/367 139/368 141/369
f 140/370 141/371 142/372
f 142/373 141/374 143/375
f 142/376 143/377 144/378
f 144/379 143/380 145/381
f 144/382 145/383 146/384
f 146/385 145/386 80/387
f 146/388 80/389 86/390
f 86/391 80/392 79/393
f 86/394 79/395 85/396
f 87/397 90/398 147/399
f 147/400 90/401 148/402
f 147/403 148/404 149/405
f 149/406 148/407 150/408
f 149/409 150/410 151/411
f 151/412 150/413 152/414
f 151/415 152/416 153/417
f 153/418 152/419 154/420
f 153/421 154/422 155/423
f 155/424 154/425 156/426
f 155/427 156/428 157/429
f 157/430 156/431 158/432
f 157/433 158/434 159/435
f 159/436 158/437 160/438
f 159/439 160/440 161/441
f 161/442 160/443 162/444
f 161/445 162/446 163/447
f 163/448 162/449 164/450
f 163/451 164/452 165/453
f 165/454 164/455 166/456
f 165/457 166/458 167/459
f 167/460 166/461 168/462
f 167/463 168/464 169/465
f 169/466 168/467 170/468
f 169/469 170/470 169/471
f 169/472 170/473 77/474
f 169/475 77/476 75/477
f 87/478 147/479 126/480
f 126/481 147/482 147/483
f 126/484 147/485 127/486
f 127/487 147/488 149/489
f 127/490 149/491 129/492
f 129/493 149/494 151/495
f 129/496 151/497 131/498
f 131/499 151/500 153/501
f 131/502 153/503 133/504
f 133/505 153/506 155/507
f 133/508 155/509 135/510
f 135/511 155/512 157/513
f 135/514 157/515 137/516
f 137/517 157/518 159/519
f 137/520 159/521 139/522
f 139/523 159/524 161/525
f 139/526 161/527 141/528
f 141/529 161/530 163/531
f 141/532 163/533 143/534
f 143/535 163/536 165/537
f 143/538 165/539 145/540
f 145/541 165/542 167/543
f 145/544 167/545 80/546
f 90/547 125/548 148/549
f 148/550 125/551 128/552
f 148/553 128/554 150/555
f 150/556 128/557 130/558
f 150/559 130/560 152/561
f 152/562 130/563 132/564
f 152/565 132/566 154/567
f 154/568 132/569 134/570
f 154/571 134/572 156/573
f 156/574 134/575 136/576
f 156/577 136/578 158/579
f 158/580 136/581 138/582
f 158/583 138/584 160/585
f 160/586 138/587 140/588
f 160/589 140/590 162/591
f 162/592 140/593 142/594
f 162/595 142/596 164/597
f 164/598 142/599 144/600
f 164/601 144/602 166/603
f 166/604 144/605 146/606
f 166/607 146/608 168/609
f 168/610 146/611 86/612
f 167/613 169/614 80/615
f 80/616 169/617 75/618
f 168/619 86/620 170/621
f 170/622 86/623 77/624
f 85/625 79/626 84/627
f 84/628 79/629 82/630
f 83/631 84/632 81/633
f 81/634 84/635 82/636
f 83/637 81/638 78/639
f 78/640 81/641 74/642
f 77/643 76/644 75/645
f 75/646 76/647 73/648
f 74/649 73/650 78/651
f 78/652 73/653 76/654
f 64/655 72/656 60/657
f 60/658 72/659 71/660
f 72/661 69/662 71/663
f 71/664 69/665 65/666
f 65/667 69/668 67/669
f 67/670 69/671 70/672
f 70/673 68/674 67/675
f 67/676 68/677 66/678
f 68/679 63/680 66/681
f 66/682 63/683 61/684
f 63/685 62/686 61/687
f 61/688 62/689 62/690
f 61/691 62/692 59/693
f 59/694 62/695 171/696
f 59/697 171/698 172/699
f 172/700 171/701 173/702
f 172/703 173/704 174/705
f 174/706 173/707 175/708
f 174/709 175/710 176/711
f 176/712 175/713 177/714
f 176/715 177/716 178/717
f 178/718 177/719 179/720
f 178/721 179/722 180/723
f 180/724 179/725 181/726
f 180/727 181/728 182/729
f 182/730 181/731 183/732
f 182/733 183/734 184/735
f 184/736 183/737 185/738
f 184/739 185/740 186/741
f 186/742 185/743 187/744
f 186/745 187/746 188/747
f 188/748 187/749 189/750
f 188/751 189/752 190/753
f 190/754 189/755 191/756
f 190/757 191/758 192/759
f 192/760 191/761 193/762
f 192/763 193/764 194/765
f 60/766 59/767 195/768
f 195/769 59/770 196/771
f 60/772 195/773 64/774
f 64/775 195/776 195/777
f 64/778 195/779 197/780
f 197/781 195/782 195/783
f 197/784 195/785 198/786
f 198/787 195/788 196/789
f 198/790 196/791 199/792
f 199/793 196/794 200/795
f 199/796 200/797 201/798
f 201/799 200/800 202/801
f 201/802 202/803 203/804
f 203/805 202/806 204/807
f 203/808 204/809 205/810
f 205/811 204/812 206/813
f 205/814 206/815 207/816
f 207/817 206/818 208/819
f 207/820 208/821 209/822
f 209/823 208/824 210/825
f 209/826 210/827 211/828
f 211/829 210/830 212/831
f 211/832 212/833 213/834
f 213/835 212/836 214/837
f 213/838 214/839 215/840
f 215/841 214/842 216/843
f 215/844 216/845 217/846
f 217/847 216/848 218/849
f 217/850 218/851 58/852
f 58/853 218/854 49/855
f 64/856 197/857 62/858
f 62/859 197/860 198/861
f 62/862 198/863 171/864
f 171/865 198/866 199/867
f 171/868 199/869 173/870
f 173/871 199/872 201/873
f 173/874 201/875 175/876
f 175/877 201/878 203/879
f 175/880 203/881 177/882
f 177/883 203/884 205/885
f 177/886 205/887 179/888
f 179/889 205/890 207/891
f 179/892 207/893 181/894
f 181/895 207/896 209/897
f 181/898 209/899 183/900
f 183/901 209/902 211/903
f 183/904 211/905 185/906
f 185/907 211/908 213/909
f 185/910 213/911 187/912
f 187/913 213/914 215/915
f 187/916 215/917 189/918
f 189/919 215/920 217/921
f 189/922 217/923 191/924
f 191/925 217/926 58/927
f 59/928 172/929 196/930
f 196/931 172/932 172/933
f 196/934 172/935 200/936
f 200/937 172/938 174/939
f 200/940 174/941 202/942
f 202/943 174/944 176/945
f 202/946 176/947 204/948
f 204/949 176/950 178/951
f 204/952 178/953 206/954
f 206/955 178/956 180/957
f 206/958 180/959 208/960
f 208/961 180/962 182/963
f 208/964 182/965 210/966
f 210/967 182/968 184/969
f 210/970 184/971 212/972
f 212/973 184/974 186/975
f 212/976 186/977 214/978
f 214/979 186/980 188/981
f 214/982 188/983 216/984
f 216/985 188/986 190/987
f 216/988 190/989 218/990
f 218/991 190/992 192/993
f 218/994 192/995 49/996
f 191/997 58/998 193/999
f 193/1000 58/1001 57/1002
f 192/1003 194/1004 49/1005
f 49/1006 194/1007 50/1008
f 193/1009 57/1010 194/1011
f 194/1012 57/1013 50/1014
f 49/1015 51/1016 58/1017
f 58/1018 51/1019 56/1020
f 56/1021 51/1022 54/1023
f 54/1024 51/1025 53/1026
f 54/1027 53/1028 55/1029
f 55/1030 53/1031 52/1032
f 52/1033 50/1034 55/1035
f 55/1036 50/1037 57/1038
f 40/1039 48/1040 36/1041
f 36/1042 48/1043 47/1044
f 48/1045 45/1046 47/1047
f 47/1048 45/1049 41/1050
f 41/1051 45/1052 43/1053
f 43/1054 45/1055 46/1056
f 46/1057 44/1058 43/1059
f 43/1060 44/1061 42/1062
f 44/1063 39/1064 42/1065
f 42/1066 39/1067 37/1068
f 39/1069 38/1070 37/1071
f 37/1072 38/1073 38/1074
f 37/1075 38/1076 35/1077
f 35/1078 38/1079 219/1080
f 35/1081 219/1082 220/1083
f 220/1084 219/1085 221/1086
f 220/1087 221/1088 222/1089
f 222/1090 221/1091 223/1092
f 222/1093 223/1094 224/1095
f 224/1096 223/1097 225/1098
f 224/1099 225/1100 226/1101
f 226/1102 225/1103 227/1104
f 226/1105 227/1106 228/1107
f 228/1108 227/1109 229/1110
f 228/1111 229/1112 230/1113
f 230/1114 229/1115 231/1116
f 230/1117 231/1118 232/1119
f 232/1120 231/1121 233/1122
f 232/1123 233/1124 234/1125
f 234/1126 233/1127 235/1128
f 234/1129 235/1130 236/1131
f 236/1132 235/1133 237/1134
f 236/1135 237/1136 238/1137
f 238/1138 237/1139 239/1140
f 238/1141 239/1142 240/1143
f 240/1144 239/1145 241/1146
f 240/1147 241/1148 242/1149
f 36/1150 35/1151 243/1152
f 243/1153 35/1154 244/1155
f 36/1156 243/1157 40/1158
f 40/1159 243/1160 243/1161
f 40/1162 243/1163 245/1164
f 245/1165 243/1166 243/1167
f 245/1168 243/1169 246/1170
f 246/1171 243/1172 244/1173
f 246/1174 244/1175 247/1176
f 247/1177 244/1178 248/1179
f 247/1180 248/1181 249/1182
f 249/1183 248/1184 250/1185
f 249/1186 250/1187 251/1188
f 251/1189 250/1190 252/1191
f 251/1192 252/1193 253/1194
f 253/1195 252/1196 254/1197
f 253/1198 254/1199 255/1200
f 255/1201 254/1202 256/1203
f 255/1204 256/1205 257/1206
f 257/1207 256/1208 258/1209
f 257/1210 258/1211 259/1212
f 259/1213 258/1214 260/1215
f 259/1216 260/1217 261/1218
f 261/1219 260/1220 262/1221
f 261/1222 262/1223 263/1224
f 263/1225 262/1226 264/1227
f 263/1228 264/1229 265/1230
f 265/1231 264/1232 266/1233
f 265/1234 266/1235 29/1236
f 29/1237 266/1238 27/1239
f 40/1240 245/1241 38/1242
f 38/1243 245/1244 246/1245
f 38/1246 246/1247 219/1248
f 219/1249 246/1250 247/1251
f 219/1252 247/1253 221/1254
f 221/1255 247/1256 249/1257
f 221/1258 249/1259 223/1260
f 223/1261 249/1262 251/1263
f 223/1264 251/1265 225/1266
f 225/1267 251/1268 253/1269
f 225/1270 253/1271 227/1272
f 227/1273 253/1274 255/1275
f 227/1276 255/1277 229/1278
f 229/1279 255/1280 257/1281
f 229/1282 257/1283 231/1284
f 231/1285 257/1286 259/1287
f 231/1288 259/1289 233/1290
f 233/1291 259/1292 261/1293
f 233/1294 261/1295 235/1296
f 235/1297 261/1298 263/1299
f 235/1300 263/1301 237/1302
f 237/1303 263/1304 265/1305
f 237/1306 265/1307 239/1308
f 239/1309 265/1310 29/1311
f 35/1312 220/1313 244/1314
f 244/1315 220/1316 220/1317
f 244/1318 220/1319 248/1320
f 248/1321 220/1322 222/1323
f 248/1324 222/1325 250/1326
f 250/1327 222/1328 224/1329
f 250/1330 224/1331 252/1332
f 252/1333 224/1334 226/1335
f 252/1336 226/1337 254/1338
f 254/1339 226/1340 228/1341
f 254/1342 228/1343 256/1344
f 256/1345 228/1346 230/1347
f 256/1348 230/1349 258/1350
f 258/1351 230/1352 232/1353
f 258/1354 232/1355 260/1356
f 260/1357 232/1358 234/1359
f 260/1360 234/1361 262/1362
f 262/1363 234/1364 236/1365
f 262/1366 236/1367 264/1368
f 264/1369 236/1370 238/1371
f 264/1372 238/1373 266/1374
f 266/1375 238/1376 240/1377
f 266/1378 240/1379 27/1380
f 30/1381 29/1382 26/1383
f 26/1384 29/1385 27/1386
f 30/1387 26/1388 34/1389
f 34/1390 26/1391 33/1392
f 34/1393 33/1394 31/1395
f 31/1396 33/1397 32/1398
f 32/1399 25/1400 31/1401
f 31/1402 25/1403 28/1404
f 28/1405 25/1406 241/1407
f 241/1408 25/1409 242/1410
f 28/1411 241/1412 29/1413
f 29/1414 241/1415 239/1416
f 25/1417 27/1418 242/1419
f 242/1420 27/1421 240/1422
f 24/1423 16/1424 22/1425
f 22/1426 16/1427 20/1428
f 24/1429 22/1430 23/1431
f 23/1432 22/1433 21/1434
f 23/1435 21/1436 17/1437
f 17/1438 21/1439 19/1440
f 20/1441 16/1442 18/1443
f 18/1444 16/1445 15/1446
f 19/1447 18/1448 267/1449
f 267/1450 18/1451 268/1452
f 19/1453 267/1454 17/1455
f 17/1456 267/1457 269/1458
f 17/1459 269/1460 15/1461
f 15/1462 269/1463 270/1464
f 267/1465 268/1466 269/1467
f 269/1468 268/1469 268/1470
f 269/1471 268/1472 270/1473
f 270/1474 268/1475 271/1476
f 270/1477 271/1478 272/1479
f 272/1480 271/1481 273/1482
f 272/1483 273/1484 274/1485
f 274/1486 273/1487 275/1488
f 274/1489 275/1490 276/1491
f 276/1492 275/1493 277/1494
f 276/1495 277/1496 278/1497
f 278/1498 277/1499 279/1500
f 278/1501 279/1502 280/1503
f 280/1504 279/1505 281/1506
f 280/1507 281/1508 282/1509
f 282/1510 281/1511 283/1512
f 282/1513 283/1514 284/1515
f 284/1516 283/1517 285/1518
f 284/1519 285/1520 286/1521
f 286/1522 285/1523 287/1524
f 286/1525 287/1526 288/1527
f 288/1528 287/1529 289/1530
f 288/1531 289/1532 290/1533
f 290/1534 289/1535 14/1536
f 290/1537 14/1538 13/1539
f 13/1540 14/1541 1/1542
f 13/1543 1/1544 10/1545
f 18/1546 15/1547 291/1548
f 291/1549 15/1550 292/1551
f 291/1552 292/1553 293/1554
f 293/1555 292/1556 294/1557
f 293/1558 294/1559 295/1560
f 295/1561 294/1562 296/1563
f 295/1564 296/1565 297/1566
f 297/1567 296/1568 298/1569
f 297/1570 298/1571 299/1572
f 299/1573 298/1574 300/1575
f 299/1576 300/1577 301/1578
f 301/1579 300/1580 302/1581
f 301/1582 302/1583 303/1584
f 303/1585 302/1586 304/1587
f 303/1588 304/1589 305/1590
f 305/1591 304/1592 306/1593
f 305/1594 306/1595 307/1596
f 307/1597 306/1598 308/1599
f 307/1600 308/1601 309/1602
f 309/1603 308/1604 310/1605
f 309/1606 310/1607 311/1608
f 311/1609 310/1610 312/1611
f 311/1612 312/1613 313/1614
f 313/1615 312/1616 314/1617
f 313/1618 314/1619 313/1620
f 313/1621 314/1622 12/1623
f 313/1624 12/1625 2/1626
f 18/1627 291/1628 268/1629
f 268/1630 291/1631 291/1632
f 268/1633 291/1634 271/1635
f 271/1636 291/1637 293/1638
f 271/1639 293/1640 273/1641
f 273/1642 293/1643 295/1644
f 273/1645 295/1646 275/1647
f 275/1648 295/1649 297/1650
f 275/1651 297/1652 277/1653
f 277/1654 297/1655 299/1656
f 277/1657 299/1658 279/1659
f 279/1660 299/1661 301/1662
f 279/1663 301/1664 281/1665
f 281/1666 301/1667 303/1668
f 281/1669 303/1670 283/1671
f 283/1672 303/1673 305/1674
f 283/1675 305/1676 285/1677
f 285/1678 305/1679 307/1680
f 285/1681 307/1682 287/1683
f 287/1684 307/1685 309/1686
f 287/1687 309/1688 289/1689
f 289/1690 309/1691 311/1692
f 289/1693 311/1694 14/1695
f 15/1696 270/1697 292/1698
f 292/1699 270/1700 272/1701
f 292/1702 272/1703 294/1704
f 294/1705 272/1706 274/1707
f 294/1708 274/1709 296/1710
f 296/1711 274/1712 276/1713
f 296/1714 276/1715 298/1716
f 298/1717 276/1718 278/1719
f 298/1720 278/1721 300/1722
f 300/1723 278/1724 280/1725
f 300/1726 280/1727 302/1728
f 302/1729 280/1730 282/1731
f 302/1732 282/1733 304/1734
f 304/1735 282/1736 284/1737
f 304/1738 284/1739 306/1740
f 306/1741 284/1742 286/1743
f 306/1744 286/1745 308/1746
f 308/1747 286/1748 288/1749
f 308/1750 288/1751 310/1752
f 310/1753 288/1754 290/1755
f 310/1756 290/1757 312/1758
f 312/1759 290/1760 13/1761
f 311/1762 313/1763 14/1764
f 14/1765 313/1766 2/1767
f 312/1768 13/1769 314/1770
f 314/1771 13/1772 12/1773
f 12/1774 11/1775 2/1776
f 2/1777 11/1778 4/1779
f 1/1780 6/1781 10/1782
f 10/1783 6/1784 9/1785
f 9/1786 6/1787 7/1788
f 7/1789 6/1790 5/1791
f 7/1792 5/1793 8/1794
f 8/1795 5/1796 3/1797
f 315/1798 316/1799 121/1800
f 121/1801 316/1802 122/1803
f 317/1804 318/1805 319/1806
f 318/1807 316/1808 319/1809
f 320/1810 321/1811 322/1812
f 322/1813 321/1814 323/1815
f 324/1816 316/1817 318/1818
f 322/1819 323/1820 99/1821
f 323/1822 321/1823 325/1824
f 325/1825 321/1826 326/1827
f 99/1828 100/1829 327/1830
f 327/1831 100/1832 100/1833
f 327/1834 100/1835 328/1836
f 328/1837 100/1838 102/1839
f 328/1840 102/1841 329/1842
f 329/1843 102/1844 104/1845
f 329/1846 104/1847 330/1848
f 330/1849 104/1850 106/1851
f 330/1852 106/1853 331/1854
f 331/1855 106/1856 108/1857
f 331/1858 108/1859 332/1860
f 332/1861 108/1862 110/1863
f 332/1864 110/1865 333/1866
f 333/1867 110/1868 112/1869
f 333/1870 112/1871 334/1872
f 334/1873 112/1874 114/1875
f 334/1876 114/1877 335/1878
f 335/1879 114/1880 116/1881
f 335/1882 116/1883 336/1884
f 336/1885 116/1886 118/1887
f 336/1888 118/1889 337/1890
f 337/1891 118/1892 120/1893
f 337/1894 120/1895 324/1896
f 316/1897 324/1898 122/1899
f 122/1900 324/1901 120/1902
f 322/1903 99/1904 338/1905
f 338/1906 99/1907 327/1908
f 339/1909 113/1910 340/1911
f 119/1912 117/1913 315/1914
f 121/1915 119/1916 315/1917
f 117/1918 339/1919 315/1920
f 341/1921 342/1922 340/1923
f 117/1924 115/1925 339/1926
f 339/1927 115/1928 113/1929
f 341/1930 340/1931 343/1932
f 343/1933 340/1934 340/1935
f 343/1936 340/1937 97/1938
f 97/1939 340/1940 340/1941
f 97/1942 340/1943 98/1944
f 98/1945 340/1946 340/1947
f 98/1948 340/1949 101/1950
f 101/1951 340/1952 340/1953
f 101/1954 340/1955 103/1956
f 103/1957 340/1958 340/1959
f 103/1960 340/1961 105/1962
f 105/1963 340/1964 340/1965
f 105/1966 340/1967 107/1968
f 107/1969 340/1970 340/1971
f 107/1972 340/1973 109/1974
f 109/1975 340/1976 340/1977
f 109/1978 340/1979 111/1980
f 111/1981 340/1982 113/1983
f 99/1984 323/1985 97/1986
f 97/1987 323/1988 343/1989
f 323/1990 325/1991 343/1992
f 343/1993 325/1994 341/1995
f 342/1996 341/1997 326/1998
f 326/1999 341/2000 325/2001
f 326/2002 321/2003 342/2004
f 342/2005 321/2006 340/2007
f 315/2008 339/2009 344/2010
f 316/2011 315/2012 344/2013
f 319/2014 316/2015 344/2016
f 344/2017 339/2018 345/2019
f 320/2020 345/2021 321/2022
f 321/2023 345/2024 340/2025
f 340/2026 345/2027 339/2028
f 324/2029 318/2030 346/2031
f 346/2032 318/2033 347/2034
f 348/2035 338/2036 349/2037
f 349/2038 338/2039 327/2040
f 349/2041 327/2042 350/2043
f 350/2044 327/2045 328/2046
f 350/2047 328/2048 351/2049
f 351/2050 328/2051 329/2052
f 351/2053 329/2054 352/2055
f 352/2056 329/2057 330/2058
f 352/2059 330/2060 353/2061
f 353/2062 330/2063 331/2064
f 353/2065 331/2066 354/2067
f 354/2068 331/2069 332/2070
f 354/2071 332/2072 355/2073
f 355/2074 332/2075 333/2076
f 355/2077 333/2078 356/2079
f 356/2080 333/2081 334/2082
f 356/2083 334/2084 357/2085
f 357/2086 334/2087 335/2088
f 357/2089 335/2090 358/2091
f 358/2092 335/2093 336/2094
f 358/2095 336/2096 359/2097
f 359/2098 336/2099 337/2100
f 359/2101 337/2102 346/2103
f 346/2104 337/2105 324/2106
f 358/2107 347/2108 360/2109
f 359/2110 347/2111 358/2112
f 348/2113 345/2114 361/2115
f 346/2116 347/2117 359/2118
f 360/2119 344/2120 356/2121
f 356/2122 344/2123 355/2124
f 344/2125 345/2126 355/2127
f 358/2128 360/2129 357/2130
f 357/2131 360/2132 356/2133
f 355/2134 345/2135 354/2136
f 354/2137 345/2138 345/2139
f 354/2140 345/2141 353/2142
f 353/2143 345/2144 345/2145
f 353/2146 345/2147 352/2148
f 352/2149 345/2150 345/2151
f 352/2152 345/2153 351/2154
f 351/2155 345/2156 345/2157
f 351/2158 345/2159 350/2160
f 350/2161 345/2162 345/2163
f 350/2164 345/2165 349/2166
f 349/2167 345/2168 348/2169
f 348/2170 361/2171 338/2172
f 338/2173 361/2174 322/2175
f 345/2176 320/2177 361/2178
f 361/2179 320/2180 322/2181
f 318/2182 317/2183 347/2184
f 347/2185 317/2186 360/2187
f 317/2188 319/2189 360/2190
f 360/2191 319/2192 344/2193
