# Exported from USD for MuJoCo with source material subsets
v 9.77822914 -7.72548662 0.150168252
v 10.285429 -7.72548662 0.15016861
v 9.77822914 -6.80808674 0.150168252
v 10.285429 -6.80808674 0.15016861
v 9.77982923 -7.64628683 0.148368311
v 9.77822914 -7.72548662 0.148368311
v 9.77822914 -6.80808674 0.148368311
v 9.77982923 -6.88728701 0.148368311
v 10.285429 -6.80808674 0.148368549
v 10.285429 -7.72548662 0.148368549
v 10.283829 -6.88728701 0.148368549
v 10.2278291 -6.81028686 0.148368549
v 9.83582923 -6.81028686 0.148368311
v 10.2278291 -6.88728701 0.148368549
v 9.83582923 -6.88728701 0.148368311
v 10.283829 -7.64628683 0.148368549
v 10.2278291 -7.64628683 0.148368549
v 9.83582923 -7.64628683 0.148368311
v 10.2278291 -7.72328697 0.148368549
v 9.83582923 -7.72328697 0.148368311
v 9.77982923 -6.81028686 0.148368311
v 10.283829 -7.72328697 0.148368549
v 9.77982923 -7.72328697 0.148368311
v 10.283829 -6.81028686 0.148368549
vt -0.518651009 0.253600001
vt -0.518651009 -0.253600001
vt 0.398748994 0.253600001
vt 0.398748994 0.253600001
vt -0.518651009 -0.253600001
vt 0.398748994 -0.253600001
vt 0.439451009 0.252000004
vt 0.518651009 0.253600001
vt -0.398748994 0.253600001
vt -0.319548994 0.252000004
vt 0.439451009 0.252000004
vt -0.398748994 0.253600001
vt -0.398748994 -0.253600001
vt 0.518651009 -0.253600001
vt -0.319548994 -0.252000004
vt -0.398748994 -0.253600001
vt -0.396548986 -0.195999995
vt -0.396548986 0.195999995
vt -0.398748994 -0.253600001
vt -0.396548986 0.195999995
vt -0.398748994 0.253600001
vt -0.396548986 -0.195999995
vt -0.319548994 -0.195999995
vt -0.319548994 0.195999995
vt -0.396548986 -0.195999995
vt -0.319548994 0.195999995
vt -0.396548986 0.195999995
vt -0.319548994 -0.195999995
vt -0.319548994 -0.252000004
vt 0.439451009 -0.252000004
vt -0.319548994 -0.195999995
vt 0.439451009 -0.252000004
vt -0.319548994 0.195999995
vt -0.319548994 -0.252000004
vt 0.518651009 -0.253600001
vt 0.439451009 -0.252000004
vt -0.319548994 0.195999995
vt 0.439451009 -0.252000004
vt 0.439451009 -0.195999995
vt -0.319548994 0.195999995
vt 0.439451009 -0.195999995
vt -0.319548994 0.252000004
vt 0.439451009 0.195999995
vt 0.439451009 0.252000004
vt -0.319548994 0.252000004
vt 0.518651009 -0.253600001
vt 0.518651009 0.253600001
vt 0.516451001 -0.195999995
vt 0.516451001 -0.195999995
vt 0.518651009 0.253600001
vt 0.516451001 0.195999995
vt 0.516451001 -0.195999995
vt 0.516451001 0.195999995
vt 0.439451009 -0.195999995
vt 0.439451009 -0.195999995
vt 0.516451001 0.195999995
vt 0.439451009 0.195999995
vt 0.439451009 -0.195999995
vt 0.439451009 0.195999995
vt -0.319548994 0.252000004
vt -0.319548994 0.252000004
vt -0.398748994 0.253600001
vt -0.396548986 0.252000004
vt -0.396548986 0.252000004
vt -0.398748994 0.253600001
vt -0.396548986 0.195999995
vt 0.516451001 -0.195999995
vt 0.516451001 -0.252000004
vt 0.518651009 -0.253600001
vt 0.518651009 -0.253600001
vt 0.516451001 -0.252000004
vt 0.439451009 -0.252000004
vt 0.516451001 0.195999995
vt 0.518651009 0.253600001
vt 0.516451001 0.252000004
vt 0.516451001 0.252000004
vt 0.518651009 0.253600001
vt 0.439451009 0.252000004
vt -0.396548986 -0.195999995
vt -0.398748994 -0.253600001
vt -0.396548986 -0.252000004
vt -0.396548986 -0.252000004
vt -0.398748994 -0.253600001
vt -0.319548994 -0.252000004
vt -0.518651009 0.148368001
vt 0.398748994 0.148368001
vt -0.518651009 0.150168002
vt -0.518651009 0.150168002
vt 0.398748994 0.148368001
vt 0.398748994 0.150168002
vt -0.150168002 0.253600001
vt -0.150168002 -0.253600001
vt -0.148368001 0.253600001
vt -0.148368001 0.253600001
vt -0.150168002 -0.253600001
vt -0.148368001 -0.253600001
vt 0.518651009 0.150168002
vt -0.398748994 0.150168002
vt 0.518651009 0.148368001
vt 0.518651009 0.148368001
vt -0.398748994 0.150168002
vt -0.398748994 0.148368001
vt 0.148368001 0.253600001
vt 0.148368001 -0.253600001
vt 0.150168002 0.253600001
vt 0.150168002 0.253600001
vt 0.148368001 -0.253600001
vt 0.150168002 -0.253600001
f 1/1 2/2 3/3
f 3/4 2/5 4/6
f 5/7 6/8 7/9
f 8/10 5/11 7/12
f 9/13 10/14 11/15
f 9/16 12/17 13/18
f 9/19 13/20 7/21
f 12/22 14/23 15/24
f 12/25 15/26 13/27
f 14/28 11/29 16/30
f 14/31 16/32 15/33
f 11/34 10/35 16/36
f 15/37 16/38 17/39
f 15/40 17/41 8/42
f 18/43 5/44 8/45
f 10/46 6/47 19/48
f 19/49 6/50 20/51
f 19/52 20/53 17/54
f 17/55 20/56 18/57
f 17/58 18/59 8/60
f 8/61 7/62 21/63
f 21/64 7/65 13/66
f 19/67 22/68 10/69
f 10/70 22/71 16/72
f 20/73 6/74 23/75
f 23/76 6/77 5/78
f 12/79 9/80 24/81
f 24/82 9/83 11/84
f 10/85 9/86 2/87
f 2/88 9/89 4/90
f 3/91 4/92 7/93
f 7/94 4/95 9/96
f 1/97 3/98 6/99
f 6/100 3/101 7/102
f 6/103 10/104 1/105
f 1/106 10/107 2/108
