# Exported from USD for MuJoCo with source material subsets
v -9.49257324 4.1683865 0.39249919
v -9.49257383 5.85138659 0.39249919
v -10.3285735 5.02638678 0.3924987
v -10.3285738 5.81838659 0.3924987
v -10.3285733 4.20138649 0.3924987
v -10.3285733 4.1683865 0.3924987
v -10.3285738 5.85138659 0.3924987
v -10.3285735 4.99338678 0.3924987
vt 0.379999012 -0.765000999
vt 0.379999012 0.764998972
vt -0.380001009 0.0149990004
vt -0.380001009 0.0149990004
vt 0.379999012 0.764998972
vt -0.380001009 0.734999001
vt -0.380001009 -0.735001028
vt -0.380001009 -0.765000999
vt 0.379999012 -0.765000999
vt -0.380001009 0.764998972
vt -0.380001009 0.734999001
vt 0.379999012 0.764998972
vt -0.380001009 0.0149990004
vt -0.380001009 -0.0150009999
vt 0.379999012 -0.765000999
vt 0.379999012 -0.765000999
vt -0.380001009 -0.0150009999
vt -0.380001009 -0.735001028
f 1/1 2/2 3/3
f 3/4 2/5 4/6
f 5/7 6/8 1/9
f 7/10 4/11 2/12
f 3/13 8/14 1/15
f 1/16 8/17 5/18
