# Exported from USD for MuJoCo with source material subsets
v -5.71076241 3.84959053 1.85439604
v -5.70577544 3.85024809 1.85439604
v -5.71076244 3.84959053 1.90939605
v -5.70577547 3.85024809 1.90939605
v -5.70113439 3.85217118 1.85439604
v -5.70113445 3.85217118 1.90939605
v -5.69714827 3.85523104 1.85439604
v -5.6971483 3.85523104 1.90939605
v -5.69408912 3.85921978 1.85439604
v -5.69408915 3.85921978 1.90939605
v -5.69216803 3.86385941 1.85439604
v -5.69216806 3.86385941 1.90939605
v -5.69151274 3.8688457 1.85439604
v -5.69151277 3.8688457 1.90939605
v -5.6921691 3.87382483 1.85439604
v -5.69216913 3.87382483 1.90939605
v -5.69409371 3.87846922 1.85439604
v -5.69409374 3.87846922 1.90939605
v -5.69715423 3.88245511 1.85439604
v -5.69715426 3.88245511 1.90939605
v -5.70113939 3.88551258 1.85439604
v -5.70113945 3.88551258 1.90939605
v -5.7057856 3.88743567 1.85439604
v -5.70578563 3.88743567 1.90939605
v -5.71076238 3.88809037 1.85439604
v -5.71076241 3.88809037 1.90939605
v -6.85668782 3.53656649 1.4763167
v -6.86167482 3.53590893 1.4763167
v -6.85668805 3.53656649 1.53131669
v -6.86167506 3.53590893 1.53131669
v -6.86631575 3.53398489 1.4763167
v -6.86631587 3.53398489 1.53131669
v -6.87030176 3.53092598 1.4763167
v -6.87030199 3.53092598 1.53131669
v -6.87336114 3.52693629 1.4763167
v -6.87336114 3.52693629 1.53131669
v -6.87528196 3.52229762 1.4763167
v -6.8752822 3.52229762 1.53131669
v -6.87593749 3.51731085 1.4763167
v -6.87593749 3.51731085 1.53131669
v -6.87528101 3.5123322 1.4763167
v -6.87528101 3.5123322 1.53131669
v -6.87335649 3.50768732 1.4763167
v -6.87335649 3.50768732 1.53131669
v -6.87029591 3.50370097 1.4763167
v -6.87029615 3.50370097 1.53131669
v -6.86631075 3.50064396 1.4763167
v -6.86631075 3.50064396 1.53131669
v -6.86166457 3.49872088 1.4763167
v -6.8616648 3.49872088 1.53131669
v -6.85668782 3.49806618 1.4763167
v -6.85668805 3.49806618 1.53131669
v -6.85171095 3.53591084 1.53131669
v -6.85171095 3.53591084 1.4763167
v -6.847065 3.53398823 1.53131669
v -6.84706465 3.53398823 1.4763167
v -6.8430796 3.53093123 1.53131669
v -6.8430796 3.53093123 1.4763167
v -6.84001926 3.52694487 1.53131669
v -6.84001902 3.52694487 1.4763167
v -6.83809474 3.52230048 1.53131669
v -6.8380945 3.52230048 1.4763167
v -6.83743826 3.51732182 1.53131669
v -6.83743826 3.51732182 1.4763167
v -6.83809355 3.51233506 1.53131669
v -6.83809355 3.51233506 1.4763167
v -6.84001473 3.50769638 1.53131669
v -6.84001473 3.50769638 1.4763167
v -6.84307376 3.50370716 1.53131669
v -6.84307376 3.50370716 1.4763167
v -6.84705976 3.5006473 1.53131669
v -6.84705976 3.5006473 1.4763167
v -6.85170093 3.49872374 1.53131669
v -6.8517007 3.49872374 1.4763167
v -5.71574941 3.88743281 1.85439604
v -5.71574944 3.88743281 1.90939605
v -5.72039035 3.88550925 1.85439604
v -5.72039041 3.88550925 1.90939605
v -5.72437653 3.88244986 1.85439604
v -5.72437656 3.88244986 1.90939605
v -5.72743568 3.87846064 1.85439604
v -5.72743571 3.87846064 1.90939605
v -5.72935674 3.87382149 1.85439604
v -5.72935677 3.87382149 1.90939605
v -5.73001206 3.86883521 1.85439604
v -5.73001209 3.86883521 1.90939605
v -5.72935569 3.86385655 1.85439604
v -5.72935572 3.86385655 1.90939605
v -5.72743109 3.85921215 1.85439604
v -5.72743112 3.85921215 1.90939605
v -5.72437054 3.8552258 1.85439604
v -5.72437057 3.8552258 1.90939605
v -5.72038534 3.85216832 1.85439604
v -5.72038537 3.85216832 1.90939605
v -5.71573919 3.85024523 1.85439604
v -5.71573925 3.85024523 1.90939605
vt -1.68581498 -0.288836002
vt -1.68581498 -0.284301996
vt -1.73581505 -0.288836002
vt -1.73581505 -0.288836002
vt -1.68581498 -0.284301996
vt -1.68581498 -0.284301996
vt -1.73581505 -0.288836002
vt -1.68581498 -0.284301996
vt -1.73581505 -0.284301996
vt -1.73581505 -0.284301996
vt -1.68581498 -0.284301996
vt -1.68581498 -0.280083001
vt -1.73581505 -0.284301996
vt -1.68581498 -0.280083001
vt -1.73581505 -0.280083001
vt -1.73581505 -0.280083001
vt -1.68581498 -0.280083001
vt -1.68581498 -0.276459992
vt -1.73581505 -0.280083001
vt -1.68581498 -0.276459992
vt -1.73581505 -0.276459992
vt 0.714981973 1.73581505
vt 0.714981973 1.68581498
vt 0.718608022 1.68581498
vt 0.714981973 1.73581505
vt 0.718608022 1.68581498
vt 0.718608022 1.73581505
vt 0.718608022 1.73581505
vt 0.718608022 1.68581498
vt 0.722826004 1.68581498
vt 0.718608022 1.73581505
vt 0.722826004 1.68581498
vt 0.722826004 1.73581505
vt 0.722826004 1.73581505
vt 0.722826004 1.68581498
vt 0.727358997 1.68581498
vt 0.722826004 1.73581505
vt 0.727358997 1.68581498
vt 0.727358997 1.73581505
vt 0.727358997 1.73581505
vt 0.727358997 1.68581498
vt 0.731885016 1.68581498
vt 0.727358997 1.73581505
vt 0.731885016 1.68581498
vt 0.731885016 1.73581505
vt 0.731885016 1.73581505
vt 0.731885016 1.68581498
vt 0.736106992 1.68581498
vt 0.731885016 1.73581505
vt 0.736106992 1.68581498
vt 0.736106992 1.73581505
vt 0.736106992 1.73581505
vt 0.736106992 1.68581498
vt 0.739731014 1.68581498
vt 0.736106992 1.73581505
vt 0.739731014 1.68581498
vt 0.739731014 1.73581505
vt 1.73581505 -0.276464999
vt 1.68581498 -0.276464999
vt 1.68581498 -0.280088007
vt 1.73581505 -0.276464999
vt 1.68581498 -0.280088007
vt 1.73581505 -0.280088007
vt 1.73581505 -0.280088007
vt 1.68581498 -0.280088007
vt 1.68581498 -0.28431201
vt 1.73581505 -0.280088007
vt 1.68581498 -0.28431201
vt 1.73581505 -0.28431201
vt 1.73581505 -0.28431201
vt 1.68581498 -0.28431201
vt 1.68581498 -0.288836002
vt 1.73581505 -0.28431201
vt 1.68581498 -0.288836002
vt 1.73581505 -0.288836002
vt 1.34210706 -1.33058596
vt 1.34210706 -1.33511996
vt 1.39210701 -1.33058596
vt -1.39210701 -1.33058596
vt -1.34210706 -1.33511996
vt -1.34210706 -1.33511996
vt 1.39210701 -1.33058596
vt 1.34210706 -1.33511996
vt 1.39210701 -1.33511996
vt 1.39210701 -1.33511996
vt 1.34210706 -1.33511996
vt 1.34210706 -1.33933902
vt 1.39210701 -1.33511996
vt 1.34210706 -1.33933902
vt 1.39210701 -1.33933902
vt 1.39210701 -1.33933902
vt 1.34210706 -1.33933902
vt 1.34210706 -1.34296298
vt 1.39210701 -1.33933902
vt 1.34210706 -1.34296298
vt 1.39210701 -1.34296298
vt -0.420157999 1.39210701
vt -0.420157999 1.34210706
vt -0.416530997 1.34210706
vt -0.420157999 1.39210701
vt -0.416530997 1.34210706
vt -0.416530997 1.39210701
vt -0.416530997 1.39210701
vt -0.416530997 1.34210706
vt -0.412313998 1.34210706
vt -0.416530997 1.39210701
vt -0.412313998 1.34210706
vt -0.412313998 1.39210701
vt -0.412313998 1.39210701
vt -0.412313998 1.34210706
vt -0.407781005 1.34210706
vt -0.412313998 1.39210701
vt -0.407781005 1.34210706
vt -0.407781005 1.39210701
vt -0.407781005 1.39210701
vt -0.407781005 1.34210706
vt -0.403254986 1.34210706
vt -0.407781005 1.39210701
vt -0.403254986 1.34210706
vt -0.403254986 1.39210701
vt -0.403254986 1.39210701
vt -0.403254986 1.34210706
vt -0.399031997 1.34210706
vt -0.403254986 1.39210701
vt -0.399031997 1.34210706
vt -0.399031997 1.39210701
vt -0.399031997 1.39210701
vt -0.399031997 1.34210706
vt -0.395408988 1.34210706
vt -0.399031997 1.39210701
vt -0.395408988 1.34210706
vt -0.395408988 1.39210701
vt -1.39210701 -1.34295702
vt -1.34210706 -1.34295702
vt -1.34210706 -1.33933401
vt -1.39210701 -1.34295702
vt -1.34210706 -1.33933401
vt -1.39210701 -1.33933401
vt -1.39210701 -1.33933401
vt -1.34210706 -1.33933401
vt -1.34210706 -1.33511102
vt -1.39210701 -1.33933401
vt -1.34210706 -1.33511102
vt -1.39210701 -1.33511102
vt -1.39210701 -1.33511102
vt -1.34210706 -1.33511102
vt -1.34210706 -1.33058596
vt -1.39210701 -1.33511102
vt -1.34210706 -1.33058596
vt -1.39210701 -1.33058596
vt 1.39210701 -1.33058596
vt 1.39210701 -1.32606196
vt 1.34210706 -1.33058596
vt -1.34210706 -1.33058596
vt -1.39210701 -1.32606196
vt -1.39210701 -1.32606196
vt 1.34210706 -1.33058596
vt 1.39210701 -1.32606196
vt 1.34210706 -1.32606196
vt 1.34210706 -1.32606196
vt 1.39210701 -1.32606196
vt 1.39210701 -1.32183802
vt 1.34210706 -1.32606196
vt 1.39210701 -1.32183802
vt 1.34210706 -1.32183802
vt 1.34210706 -1.32183802
vt 1.39210701 -1.32183802
vt 1.39210701 -1.31821501
vt 1.34210706 -1.32183802
vt 1.39210701 -1.31821501
vt 1.34210706 -1.31821501
vt 0.420163006 1.34210706
vt 0.420163006 1.39210701
vt 0.416539013 1.39210701
vt 0.420163006 1.34210706
vt 0.416539013 1.39210701
vt 0.416539013 1.34210706
vt 0.416539013 1.34210706
vt 0.416539013 1.39210701
vt 0.412317008 1.39210701
vt 0.416539013 1.34210706
vt 0.412317008 1.39210701
vt 0.412317008 1.34210706
vt 0.412317008 1.34210706
vt 0.412317008 1.39210701
vt 0.407790989 1.39210701
vt 0.412317008 1.34210706
vt 0.407790989 1.39210701
vt 0.407790989 1.34210706
vt 0.407790989 1.34210706
vt 0.407790989 1.39210701
vt 0.403257996 1.39210701
vt 0.407790989 1.34210706
vt 0.403257996 1.39210701
vt 0.403257996 1.34210706
vt 0.403257996 1.34210706
vt 0.403257996 1.39210701
vt 0.399040014 1.39210701
vt 0.403257996 1.34210706
vt 0.399040014 1.39210701
vt 0.399040014 1.34210706
vt 0.399040014 1.34210706
vt 0.399040014 1.39210701
vt 0.395413995 1.39210701
vt 0.399040014 1.34210706
vt 0.395413995 1.39210701
vt 0.395413995 1.34210706
vt -1.34210706 -1.31821001
vt -1.39210701 -1.31821001
vt -1.39210701 -1.32183397
vt -1.34210706 -1.31821001
vt -1.39210701 -1.32183397
vt -1.34210706 -1.32183397
vt -1.34210706 -1.32183397
vt -1.39210701 -1.32183397
vt -1.39210701 -1.32605302
vt -1.34210706 -1.32183397
vt -1.39210701 -1.32605302
vt -1.34210706 -1.32605302
vt -1.34210706 -1.32605302
vt -1.39210701 -1.32605302
vt -1.39210701 -1.33058596
vt -1.34210706 -1.32605302
vt -1.39210701 -1.33058596
vt -1.34210706 -1.33058596
vt -0.416539013 -1.31543303
vt -0.420163006 -1.31821501
vt -0.412317008 -1.31368303
vt -0.412317008 -1.31368303
vt -0.420163006 -1.31821501
vt -0.422942013 -1.32183802
vt -0.412317008 -1.31368303
vt -0.422942013 -1.32183802
vt -0.407790989 -1.31308699
vt -0.407790989 -1.31308699
vt -0.422942013 -1.32183802
vt -0.424690008 -1.32606196
vt -0.407790989 -1.31308699
vt -0.424690008 -1.32606196
vt -0.403257996 -1.31368196
vt -0.403257996 -1.31368196
vt -0.424690008 -1.32606196
vt -0.425285995 -1.33058596
vt -0.403257996 -1.31368196
vt -0.425285995 -1.33058596
vt -0.399040014 -1.31542897
vt -0.399040014 -1.31542897
vt -0.425285995 -1.33058596
vt -0.424688011 -1.33511996
vt -0.399040014 -1.31542897
vt -0.424688011 -1.33511996
vt -0.395413995 -1.31821001
vt -0.395413995 -1.31821001
vt -0.424688011 -1.33511996
vt -0.422939003 -1.33933902
vt -0.395413995 -1.31821001
vt -0.422939003 -1.33933902
vt -0.392632008 -1.32183397
vt -0.392632008 -1.32183397
vt -0.422939003 -1.33933902
vt -0.420157999 -1.34296298
vt -0.392632008 -1.32183397
vt -0.420157999 -1.34296298
vt -0.390882999 -1.32605302
vt -0.390882999 -1.32605302
vt -0.420157999 -1.34296298
vt -0.416530997 -1.34574401
vt -0.390882999 -1.32605302
vt -0.416530997 -1.34574401
vt -0.390285999 -1.33058596
vt -0.390285999 -1.33058596
vt -0.416530997 -1.34574401
vt -0.412313998 -1.34748995
vt -0.390285999 -1.33058596
vt -0.412313998 -1.34748995
vt -0.390881002 -1.33511102
vt -0.390881002 -1.33511102
vt -0.412313998 -1.34748995
vt -0.407781005 -1.348086
vt -0.390881002 -1.33511102
vt -0.407781005 -1.348086
vt -0.392628998 -1.33933401
vt -0.392628998 -1.33933401
vt -0.407781005 -1.348086
vt -0.403254986 -1.347489
vt -0.392628998 -1.33933401
vt -0.403254986 -1.347489
vt -0.395408988 -1.34295702
vt -0.395408988 -1.34295702
vt -0.403254986 -1.347489
vt -0.399031997 -1.34573996
vt 1.68581498 -0.288836002
vt 1.68581498 -0.293370008
vt 1.73581505 -0.288836002
vt -1.73581505 -0.288836002
vt -1.68581498 -0.293370008
vt -1.68581498 -0.293370008
vt 1.73581505 -0.288836002
vt 1.68581498 -0.293370008
vt 1.73581505 -0.293370008
vt 1.73581505 -0.293370008
vt 1.68581498 -0.293370008
vt 1.68581498 -0.297589004
vt 1.73581505 -0.293370008
vt 1.68581498 -0.297589004
vt 1.73581505 -0.297589004
vt 1.73581505 -0.297589004
vt 1.68581498 -0.297589004
vt 1.68581498 -0.301212996
vt 1.73581505 -0.297589004
vt 1.68581498 -0.301212996
vt 1.73581505 -0.301212996
vt -0.739726007 1.73581505
vt -0.739726007 1.68581498
vt -0.736099005 1.68581498
vt -0.739726007 1.73581505
vt -0.736099005 1.68581498
vt -0.736099005 1.73581505
vt -0.736099005 1.73581505
vt -0.736099005 1.68581498
vt -0.731881976 1.68581498
vt -0.736099005 1.73581505
vt -0.731881976 1.68581498
vt -0.731881976 1.73581505
vt -0.731881976 1.73581505
vt -0.731881976 1.68581498
vt -0.727348983 1.68581498
vt -0.731881976 1.73581505
vt -0.727348983 1.68581498
vt -0.727348983 1.73581505
vt -0.727348983 1.73581505
vt -0.727348983 1.68581498
vt -0.722823024 1.68581498
vt -0.727348983 1.73581505
vt -0.722823024 1.68581498
vt -0.722823024 1.73581505
vt -0.722823024 1.73581505
vt -0.722823024 1.68581498
vt -0.718600988 1.68581498
vt -0.722823024 1.73581505
vt -0.718600988 1.68581498
vt -0.718600988 1.73581505
vt -0.718600988 1.73581505
vt -0.718600988 1.68581498
vt -0.714977026 1.68581498
vt -0.718600988 1.73581505
vt -0.714977026 1.68581498
vt -0.714977026 1.73581505
vt -1.73581505 -0.301207006
vt -1.68581498 -0.301207006
vt -1.68581498 -0.297583997
vt -1.73581505 -0.301207006
vt -1.68581498 -0.297583997
vt -1.73581505 -0.297583997
vt -1.73581505 -0.297583997
vt -1.68581498 -0.297583997
vt -1.68581498 -0.293359995
vt -1.73581505 -0.297583997
vt -1.68581498 -0.293359995
vt -1.73581505 -0.293359995
vt -1.73581505 -0.293359995
vt -1.68581498 -0.293359995
vt -1.68581498 -0.288836002
vt -1.73581505 -0.293359995
vt -1.68581498 -0.288836002
vt -1.73581505 -0.288836002
vt -0.718600988 -0.303988993
vt -0.714977026 -0.301207006
vt -0.722823024 -0.305738986
vt -0.722823024 -0.305738986
vt -0.714977026 -0.301207006
vt -0.712197006 -0.297583997
vt -0.722823024 -0.305738986
vt -0.712197006 -0.297583997
vt -0.727348983 -0.306335986
vt -0.727348983 -0.306335986
vt -0.712197006 -0.297583997
vt -0.71044898 -0.293359995
vt -0.727348983 -0.306335986
vt -0.71044898 -0.293359995
vt -0.731881976 -0.305739999
vt -0.731881976 -0.305739999
vt -0.71044898 -0.293359995
vt -0.709854007 -0.288836002
vt -0.731881976 -0.305739999
vt -0.709854007 -0.288836002
vt -0.736099005 -0.303994
vt -0.736099005 -0.303994
vt -0.709854007 -0.288836002
vt -0.71045202 -0.284301996
vt -0.736099005 -0.303994
vt -0.71045202 -0.284301996
vt -0.739726007 -0.301212996
vt -0.739726007 -0.301212996
vt -0.71045202 -0.284301996
vt -0.712199986 -0.280083001
vt -0.739726007 -0.301212996
vt -0.712199986 -0.280083001
vt -0.742506981 -0.297589004
vt -0.742506981 -0.297589004
vt -0.712199986 -0.280083001
vt -0.714981973 -0.276459992
vt -0.742506981 -0.297589004
vt -0.714981973 -0.276459992
vt -0.74425602 -0.293370008
vt -0.74425602 -0.293370008
vt -0.714981973 -0.276459992
vt -0.718608022 -0.273678988
vt -0.74425602 -0.293370008
vt -0.718608022 -0.273678988
vt -0.744853973 -0.288836002
vt -0.744853973 -0.288836002
vt -0.718608022 -0.273678988
vt -0.722826004 -0.271932006
vt -0.744853973 -0.288836002
vt -0.722826004 -0.271932006
vt -0.744259 -0.28431201
vt -0.744259 -0.28431201
vt -0.722826004 -0.271932006
vt -0.727358997 -0.271335989
vt -0.744259 -0.28431201
vt -0.727358997 -0.271335989
vt -0.742510021 -0.280088007
vt -0.742510021 -0.280088007
vt -0.727358997 -0.271335989
vt -0.731885016 -0.271932989
vt -0.742510021 -0.280088007
vt -0.731885016 -0.271932989
vt -0.739731014 -0.276464999
vt -0.739731014 -0.276464999
vt -0.731885016 -0.271932989
vt -0.736106992 -0.273683012
f 1/1 2/2 3/3
f 3/4 2/5 2/6
f 3/7 2/8 4/9
f 4/10 2/11 5/12
f 4/13 5/14 6/15
f 6/16 5/17 7/18
f 6/19 7/20 8/21
f 8/22 7/23 9/24
f 8/25 9/26 10/27
f 10/28 9/29 11/30
f 10/31 11/32 12/33
f 12/34 11/35 13/36
f 12/37 13/38 14/39
f 14/40 13/41 15/42
f 14/43 15/44 16/45
f 16/46 15/47 17/48
f 16/49 17/50 18/51
f 18/52 17/53 19/54
f 18/55 19/56 20/57
f 20/58 19/59 21/60
f 20/61 21/62 22/63
f 22/64 21/65 23/66
f 22/67 23/68 24/69
f 24/70 23/71 25/72
f 24/73 25/74 26/75
f 27/76 28/77 29/78
f 29/79 28/80 28/81
f 29/82 28/83 30/84
f 30/85 28/86 31/87
f 30/88 31/89 32/90
f 32/91 31/92 33/93
f 32/94 33/95 34/96
f 34/97 33/98 35/99
f 34/100 35/101 36/102
f 36/103 35/104 37/105
f 36/106 37/107 38/108
f 38/109 37/110 39/111
f 38/112 39/113 40/114
f 40/115 39/116 41/117
f 40/118 41/119 42/120
f 42/121 41/122 43/123
f 42/124 43/125 44/126
f 44/127 43/128 45/129
f 44/130 45/131 46/132
f 46/133 45/134 47/135
f 46/136 47/137 48/138
f 48/139 47/140 49/141
f 48/142 49/143 50/144
f 50/145 49/146 51/147
f 50/148 51/149 52/150
f 29/151 53/152 27/153
f 27/154 53/155 53/156
f 27/157 53/158 54/159
f 54/160 53/161 55/162
f 54/163 55/164 56/165
f 56/166 55/167 57/168
f 56/169 57/170 58/171
f 58/172 57/173 59/174
f 58/175 59/176 60/177
f 60/178 59/179 61/180
f 60/181 61/182 62/183
f 62/184 61/185 63/186
f 62/187 63/188 64/189
f 64/190 63/191 65/192
f 64/193 65/194 66/195
f 66/196 65/197 67/198
f 66/199 67/200 68/201
f 68/202 67/203 69/204
f 68/205 69/206 70/207
f 70/208 69/209 71/210
f 70/211 71/212 72/213
f 72/214 71/215 73/216
f 72/217 73/218 74/219
f 74/220 73/221 52/222
f 74/223 52/224 51/225
f 59/226 57/227 61/228
f 61/229 57/230 55/231
f 61/232 55/233 63/234
f 63/235 55/236 53/237
f 63/238 53/239 65/240
f 65/241 53/242 29/243
f 65/244 29/245 67/246
f 67/247 29/248 30/249
f 67/250 30/251 69/252
f 69/253 30/254 32/255
f 69/256 32/257 71/258
f 71/259 32/260 34/261
f 71/262 34/263 73/264
f 73/265 34/266 36/267
f 73/268 36/269 52/270
f 52/271 36/272 38/273
f 52/274 38/275 50/276
f 50/277 38/278 40/279
f 50/280 40/281 48/282
f 48/283 40/284 42/285
f 48/286 42/287 46/288
f 46/289 42/290 44/291
f 25/292 75/293 26/294
f 26/295 75/296 75/297
f 26/298 75/299 76/300
f 76/301 75/302 77/303
f 76/304 77/305 78/306
f 78/307 77/308 79/309
f 78/310 79/311 80/312
f 80/313 79/314 81/315
f 80/316 81/317 82/318
f 82/319 81/320 83/321
f 82/322 83/323 84/324
f 84/325 83/326 85/327
f 84/328 85/329 86/330
f 86/331 85/332 87/333
f 86/334 87/335 88/336
f 88/337 87/338 89/339
f 88/340 89/341 90/342
f 90/343 89/344 91/345
f 90/346 91/347 92/348
f 92/349 91/350 93/351
f 92/352 93/353 94/354
f 94/355 93/356 95/357
f 94/358 95/359 96/360
f 96/361 95/362 1/363
f 96/364 1/365 3/366
f 90/367 92/368 88/369
f 88/370 92/371 94/372
f 88/373 94/374 86/375
f 86/376 94/377 96/378
f 86/379 96/380 84/381
f 84/382 96/383 3/384
f 84/385 3/386 82/387
f 82/388 3/389 4/390
f 82/391 4/392 80/393
f 80/394 4/395 6/396
f 80/397 6/398 78/399
f 78/400 6/401 8/402
f 78/403 8/404 76/405
f 76/406 8/407 10/408
f 76/409 10/410 26/411
f 26/412 10/413 12/414
f 26/415 12/416 24/417
f 24/418 12/419 14/420
f 24/421 14/422 22/423
f 22/424 14/425 16/426
f 22/427 16/428 20/429
f 20/430 16/431 18/432
