# Exported from USD for MuJoCo with source material subsets
v 4.629523 -6.87501663 0.112368345
v 4.62976416 -6.87313551 0.112368345
v 4.62976416 -6.87313551 0.0943683386
v 5.07376405 -7.65365547 0.0943684578
v 5.07376405 -7.65365547 0.112368464
v 5.07445868 -7.65357202 0.0943684578
v 4.6661131 -6.81215566 0.112368345
v 4.6661131 -6.81215566 0.0943683386
v 4.66635426 -6.81027502 0.112368345
v 4.67011305 -7.65365547 0.0943683386
v 4.67011305 -7.65365547 0.112368345
v 4.67080756 -7.65357202 0.112368345
v 5.07776406 -7.709135 0.112368464
v 5.07776406 -7.709135 0.0943684578
v 5.07752284 -7.7110166 0.112368464
v 4.6661131 -7.709135 0.112368345
v 4.6661131 -7.709135 0.0943683386
v 4.66635426 -7.70725483 0.112368345
v 4.62576422 -6.8176555 0.0943683386
v 4.62576422 -6.8176555 0.112368345
v 4.62645885 -6.81757206 0.0943683386
v 5.07306954 -7.65357202 0.112368464
v 5.11811289 -6.8176555 0.0943783522
v 5.11811289 -6.8176555 0.112378359
v 5.1188074 -6.81757206 0.0943783522
v 4.62576422 -7.70363516 0.0943683386
v 4.62576422 -7.70363516 0.112368345
v 4.62506958 -7.7037186 0.0943683386
v 4.62645885 -7.7037186 0.112368345
v 5.11741825 -6.81757206 0.112378359
v 4.62506958 -6.81757206 0.112368345
v 5.11811289 -7.70363516 0.0943684578
v 5.11811289 -7.70363516 0.112368464
v 5.11741825 -7.7037186 0.0943684578
v 5.1188074 -7.7037186 0.112368464
v 4.66635426 -6.81403726 0.0943683386
v 4.629523 -6.87125438 0.0943683386
v 4.67011305 -6.86763567 0.0943683386
v 4.67011305 -6.86763567 0.112368345
v 4.66941842 -6.86771911 0.0943683386
v 4.67080756 -6.86771911 0.112368345
v 4.66941842 -7.65357202 0.0943683386
v 5.07752284 -7.70725483 0.0943684578
v 4.66635426 -7.7110166 0.0943683386
v 5.07445868 -6.86771911 0.112378359
v 5.07376405 -6.86763567 0.112378359
v 5.07376405 -6.86763567 0.0943783522
v 5.1143541 -6.87125438 0.112378359
v 5.11411288 -6.87313551 0.112378359
v 5.11411288 -6.87313551 0.0943783522
v 5.1143541 -6.87501663 0.0943783522
v 5.07752284 -6.81027502 0.0943783522
v 5.07776406 -6.81215566 0.0943783522
v 5.07776406 -6.81215566 0.112378359
v 5.07752284 -6.81403726 0.112378359
v 5.1143541 -7.64627498 0.112368464
v 5.11411288 -7.64815563 0.112368464
v 5.11411288 -7.64815563 0.0943684578
v 5.1143541 -7.65003723 0.0943684578
v 4.629523 -7.65003723 0.112368345
v 4.62976416 -7.64815563 0.112368345
v 4.62976416 -7.64815563 0.0943683386
v 4.629523 -7.64627498 0.0943683386
v 5.07306954 -6.86771911 0.0943783522
v 5.07306954 -7.65357202 0.0943684578
v 5.07176408 -7.65291876 0.112368464
v 5.07176408 -7.65291876 0.0943684578
v 5.0706999 -7.65169138 0.112368464
v 5.0706999 -7.65169138 0.0943684578
v 5.07000538 -7.65003723 0.112368464
v 5.07000538 -7.65003723 0.0943684578
v 5.0697641 -7.64815563 0.112368464
v 5.0697641 -7.64815563 0.0943684578
v 5.07000538 -7.64627498 0.112368464
v 5.07000538 -7.64627498 0.0943684578
v 5.0706999 -7.64462084 0.112368464
v 5.0706999 -7.64462084 0.0943684578
v 5.07176408 -7.6433925 0.112368464
v 5.07176408 -7.6433925 0.0943684578
v 5.07306954 -7.64273924 0.112368464
v 5.07306954 -7.64273924 0.0943684578
v 5.07445868 -7.64273924 0.112368464
v 5.07445868 -7.64273924 0.0943684578
v 5.07576408 -7.6433925 0.112368464
v 5.07576408 -7.6433925 0.0943684578
v 5.07682833 -7.64462084 0.112368464
v 5.07682833 -7.64462084 0.0943684578
v 5.07752284 -7.64627498 0.112368464
v 5.07752284 -7.64627498 0.0943684578
v 5.07776406 -7.64815563 0.112368464
v 5.07776406 -7.64815563 0.0943684578
v 5.07752284 -7.65003723 0.112368464
v 5.07752284 -7.65003723 0.0943684578
v 5.07682833 -7.65169138 0.112368464
v 5.07682833 -7.65169138 0.0943684578
v 5.07576408 -7.65291876 0.112368464
v 5.07576408 -7.65291876 0.0943684578
v 5.07445868 -7.65357202 0.112368464
v 5.06793853 -7.64014572 0.112368464
v 5.12393853 -7.64014572 0.112368464
v 5.06793853 -7.71714538 0.112368464
v 5.12393853 -7.71714538 0.112368464
v 4.61993858 -6.80414623 0.112368345
v 4.67593857 -6.80414623 0.112368345
v 4.61993858 -6.88114589 0.112368345
v 4.67593857 -6.88114589 0.112368345
v 4.61993858 -6.88114589 0.148368359
v 4.61993858 -6.80414623 0.148368359
v 5.12393853 -6.88114589 0.112368464
v 5.06793853 -6.88114589 0.112368464
v 5.12393853 -6.80414623 0.112368464
v 5.06793853 -6.80414623 0.112368464
v 5.1143541 -7.65003723 0.112368464
v 5.11504867 -7.65169138 0.0943684578
v 5.11504867 -7.65169138 0.112368464
v 5.11611291 -7.65291876 0.0943684578
v 5.11611291 -7.65291876 0.112368464
v 5.11741825 -7.65357202 0.0943684578
v 5.11741825 -7.65357202 0.112368464
v 5.1188074 -7.65357202 0.0943684578
v 5.1188074 -7.65357202 0.112368464
v 5.12011292 -7.65291876 0.0943684578
v 5.12011292 -7.65291876 0.112368464
v 5.12117704 -7.65169138 0.0943684578
v 5.12117704 -7.65169138 0.112368464
v 5.12187162 -7.65003723 0.0943684578
v 5.12187162 -7.65003723 0.112368464
v 5.12211289 -7.64815563 0.0943684578
v 5.12211289 -7.64815563 0.112368464
v 5.12187162 -7.64627498 0.0943684578
v 5.12187162 -7.64627498 0.112368464
v 5.12117704 -7.64462084 0.0943684578
v 5.12117704 -7.64462084 0.112368464
v 5.12011292 -7.6433925 0.0943684578
v 5.12011292 -7.6433925 0.112368464
v 5.1188074 -7.64273924 0.0943684578
v 5.1188074 -7.64273924 0.112368464
v 5.11741825 -7.64273924 0.0943684578
v 5.11741825 -7.64273924 0.112368464
v 5.11611291 -7.6433925 0.0943684578
v 5.11611291 -7.6433925 0.112368464
v 5.11504867 -7.64462084 0.0943684578
v 5.11504867 -7.64462084 0.112368464
v 5.1143541 -7.64627498 0.0943684578
v 5.07752284 -6.81403726 0.0943783522
v 5.07682833 -6.81569141 0.112378359
v 5.07682833 -6.81569141 0.0943783522
v 5.07576408 -6.81691879 0.112378359
v 5.07576408 -6.81691879 0.0943783522
v 5.07445868 -6.81757206 0.112378359
v 5.07445868 -6.81757206 0.0943783522
v 5.07306954 -6.81757206 0.112378359
v 5.07306954 -6.81757206 0.0943783522
v 5.07176408 -6.81691879 0.112378359
v 5.07176408 -6.81691879 0.0943783522
v 5.0706999 -6.81569141 0.112378359
v 5.0706999 -6.81569141 0.0943783522
v 5.07000538 -6.81403726 0.112378359
v 5.07000538 -6.81403726 0.0943783522
v 5.0697641 -6.81215566 0.112378359
v 5.0697641 -6.81215566 0.0943783522
v 5.07000538 -6.81027502 0.112378359
v 5.07000538 -6.81027502 0.0943783522
v 5.0706999 -6.80862039 0.112378359
v 5.0706999 -6.80862039 0.0943783522
v 5.07176408 -6.80739301 0.112378359
v 5.07176408 -6.80739301 0.0943783522
v 5.07306954 -6.80673975 0.112378359
v 5.07306954 -6.80673975 0.0943783522
v 5.07445868 -6.80673975 0.112378359
v 5.07445868 -6.80673975 0.0943783522
v 5.07576408 -6.80739301 0.112378359
v 5.07576408 -6.80739301 0.0943783522
v 5.07682833 -6.80862039 0.112378359
v 5.07682833 -6.80862039 0.0943783522
v 5.07752284 -6.81027502 0.112378359
v 5.07445868 -6.86771911 0.0943783522
v 5.07576408 -6.86837238 0.112378359
v 5.07576408 -6.86837238 0.0943783522
v 5.07682833 -6.86960024 0.112378359
v 5.07682833 -6.86960024 0.0943783522
v 5.07752284 -6.87125438 0.112378359
v 5.07752284 -6.87125438 0.0943783522
v 5.07776406 -6.87313551 0.112378359
v 5.07776406 -6.87313551 0.0943783522
v 5.07752284 -6.87501663 0.112378359
v 5.07752284 -6.87501663 0.0943783522
v 5.07682833 -6.87667078 0.112378359
v 5.07682833 -6.87667078 0.0943783522
v 5.07576408 -6.87789863 0.112378359
v 5.07576408 -6.87789863 0.0943783522
v 5.07445868 -6.87855142 0.112378359
v 5.07445868 -6.87855142 0.0943783522
v 5.07306954 -6.87855142 0.112378359
v 5.07306954 -6.87855142 0.0943783522
v 5.07176408 -6.87789863 0.112378359
v 5.07176408 -6.87789863 0.0943783522
v 5.0706999 -6.87667078 0.112378359
v 5.0706999 -6.87667078 0.0943783522
v 5.07000538 -6.87501663 0.112378359
v 5.07000538 -6.87501663 0.0943783522
v 5.0697641 -6.87313551 0.112378359
v 5.0697641 -6.87313551 0.0943783522
v 5.07000538 -6.87125438 0.112378359
v 5.07000538 -6.87125438 0.0943783522
v 5.0706999 -6.86960024 0.112378359
v 5.0706999 -6.86960024 0.0943783522
v 5.07176408 -6.86837238 0.112378359
v 5.07176408 -6.86837238 0.0943783522
v 5.07306954 -6.86771911 0.112378359
v 5.1143541 -6.87501663 0.112378359
v 5.11504867 -6.87667078 0.0943783522
v 5.11504867 -6.87667078 0.112378359
v 5.11611291 -6.87789863 0.0943783522
v 5.11611291 -6.87789863 0.112378359
v 5.11741825 -6.87855142 0.0943783522
v 5.11741825 -6.87855142 0.112378359
v 5.1188074 -6.87855142 0.0943783522
v 5.1188074 -6.87855142 0.112378359
v 5.12011292 -6.87789863 0.0943783522
v 5.12011292 -6.87789863 0.112378359
v 5.12117704 -6.87667078 0.0943783522
v 5.12117704 -6.87667078 0.112378359
v 5.12187162 -6.87501663 0.0943783522
v 5.12187162 -6.87501663 0.112378359
v 5.12211289 -6.87313551 0.0943783522
v 5.12211289 -6.87313551 0.112378359
v 5.12187162 -6.87125438 0.0943783522
v 5.12187162 -6.87125438 0.112378359
v 5.12117704 -6.86960024 0.0943783522
v 5.12117704 -6.86960024 0.112378359
v 5.12011292 -6.86837238 0.0943783522
v 5.12011292 -6.86837238 0.112378359
v 5.1188074 -6.86771911 0.0943783522
v 5.1188074 -6.86771911 0.112378359
v 5.11741825 -6.86771911 0.0943783522
v 5.11741825 -6.86771911 0.112378359
v 5.11611291 -6.86837238 0.0943783522
v 5.11611291 -6.86837238 0.112378359
v 5.11504867 -6.86960024 0.0943783522
v 5.11504867 -6.86960024 0.112378359
v 5.1143541 -6.87125438 0.0943783522
v 4.66635426 -7.70725483 0.0943683386
v 4.6670489 -7.7056002 0.112368345
v 4.6670489 -7.7056002 0.0943683386
v 4.66811308 -7.70437187 0.112368345
v 4.66811308 -7.70437187 0.0943683386
v 4.66941842 -7.7037186 0.112368345
v 4.66941842 -7.7037186 0.0943683386
v 4.67080756 -7.7037186 0.112368345
v 4.67080756 -7.7037186 0.0943683386
v 4.67211314 -7.70437187 0.112368345
v 4.67211314 -7.70437187 0.0943684578
v 4.67317721 -7.7056002 0.112368345
v 4.67317721 -7.7056002 0.0943684578
v 4.67387172 -7.70725483 0.112368345
v 4.67387172 -7.70725483 0.0943684578
v 4.67411312 -7.709135 0.112368345
v 4.67411312 -7.709135 0.0943684578
v 4.67387172 -7.7110166 0.112368345
v 4.67387172 -7.7110166 0.0943684578
v 4.67317721 -7.71267074 0.112368345
v 4.67317721 -7.71267074 0.0943684578
v 4.67211314 -7.7138986 0.112368345
v 4.67211314 -7.7138986 0.0943684578
v 4.67080756 -7.71455139 0.112368345
v 4.67080756 -7.71455139 0.0943683386
v 4.66941842 -7.71455139 0.112368345
v 4.66941842 -7.71455139 0.0943683386
v 4.66811308 -7.7138986 0.112368345
v 4.66811308 -7.7138986 0.0943683386
v 4.6670489 -7.71267074 0.112368345
v 4.6670489 -7.71267074 0.0943683386
v 4.66635426 -7.7110166 0.112368345
v 4.67080756 -7.65357202 0.0943683386
v 4.67211314 -7.65291876 0.0943684578
v 4.67211314 -7.65291876 0.112368345
v 4.67317721 -7.65169138 0.0943684578
v 4.67317721 -7.65169138 0.112368345
v 4.67387172 -7.65003723 0.0943684578
v 4.67387172 -7.65003723 0.112368345
v 4.67411312 -7.64815563 0.0943684578
v 4.67411312 -7.64815563 0.112368345
v 4.67387172 -7.64627498 0.0943684578
v 4.67387172 -7.64627498 0.112368345
v 4.67317721 -7.64462084 0.0943684578
v 4.67317721 -7.64462084 0.112368345
v 4.67211314 -7.6433925 0.0943684578
v 4.67211314 -7.6433925 0.112368345
v 4.67080756 -7.64273924 0.0943683386
v 4.67080756 -7.64273924 0.112368345
v 4.66941842 -7.64273924 0.0943683386
v 4.66941842 -7.64273924 0.112368345
v 4.66811308 -7.6433925 0.0943683386
v 4.66811308 -7.6433925 0.112368345
v 4.6670489 -7.64462084 0.0943683386
v 4.6670489 -7.64462084 0.112368345
v 4.66635426 -7.64627498 0.0943683386
v 4.66635426 -7.64627498 0.112368345
v 4.6661131 -7.64815563 0.0943683386
v 4.6661131 -7.64815563 0.112368345
v 4.66635426 -7.65003723 0.0943683386
v 4.66635426 -7.65003723 0.112368345
v 4.6670489 -7.65169138 0.0943683386
v 4.6670489 -7.65169138 0.112368345
v 4.66811308 -7.65291876 0.0943683386
v 4.66811308 -7.65291876 0.112368345
v 4.66941842 -7.65357202 0.112368345
v 4.629523 -6.87501663 0.0943683386
v 4.62882837 -6.87667078 0.112368345
v 4.62882837 -6.87667078 0.0943683386
v 4.62776419 -6.87789863 0.112368345
v 4.62776419 -6.87789863 0.0943683386
v 4.62645885 -6.87855142 0.112368345
v 4.62645885 -6.87855142 0.0943683386
v 4.62506958 -6.87855142 0.112368345
v 4.62506958 -6.87855142 0.0943683386
v 4.62376424 -6.87789863 0.112368345
v 4.62376424 -6.87789863 0.0943683386
v 4.62269994 -6.87667078 0.112368345
v 4.62270006 -6.87667078 0.0943683386
v 4.62200543 -6.87501663 0.112368345
v 4.62200555 -6.87501663 0.0943683386
v 4.62176415 -6.87313551 0.112368345
v 4.62176415 -6.87313551 0.0943683386
v 4.62200543 -6.87125438 0.112368345
v 4.62200555 -6.87125438 0.0943683386
v 4.62269994 -6.86960024 0.112368345
v 4.62270006 -6.86960024 0.0943683386
v 4.62376424 -6.86837238 0.112368345
v 4.62376424 -6.86837238 0.0943683386
v 4.62506958 -6.86771911 0.112368345
v 4.62506958 -6.86771911 0.0943683386
v 4.62645885 -6.86771911 0.112368345
v 4.62645885 -6.86771911 0.0943683386
v 4.62776419 -6.86837238 0.112368345
v 4.62776419 -6.86837238 0.0943683386
v 4.62882837 -6.86960024 0.112368345
v 4.62882837 -6.86960024 0.0943683386
v 4.629523 -6.87125438 0.112368345
v 5.11741825 -6.81757206 0.0943783522
v 5.11611291 -6.81691879 0.112378359
v 5.11611291 -6.81691879 0.0943783522
v 5.11504867 -6.81569141 0.112378359
v 5.11504867 -6.81569141 0.0943783522
v 5.1143541 -6.81403726 0.112378359
v 5.1143541 -6.81403726 0.0943783522
v 5.11411288 -6.81215566 0.112378359
v 5.11411288 -6.81215566 0.0943783522
v 5.1143541 -6.81027502 0.112378359
v 5.1143541 -6.81027502 0.0943783522
v 5.11504867 -6.80862039 0.112378359
v 5.11504867 -6.80862039 0.0943783522
v 5.11611291 -6.80739301 0.112378359
v 5.11611291 -6.80739301 0.0943783522
v 5.11741825 -6.80673975 0.112378359
v 5.11741825 -6.80673975 0.0943783522
v 5.1188074 -6.80673975 0.112378359
v 5.1188074 -6.80673975 0.0943783522
v 5.12011292 -6.80739301 0.112378359
v 5.12011292 -6.80739301 0.0943783522
v 5.12117704 -6.80862039 0.112378359
v 5.12117704 -6.80862039 0.0943783522
v 5.12187162 -6.81027502 0.112378359
v 5.12187162 -6.81027502 0.0943783522
v 5.12211289 -6.81215566 0.112378359
v 5.12211289 -6.81215566 0.0943783522
v 5.12187162 -6.81403726 0.112378359
v 5.12187162 -6.81403726 0.0943783522
v 5.12117704 -6.81569141 0.112378359
v 5.12117704 -6.81569141 0.0943783522
v 5.12011292 -6.81691879 0.112378359
v 5.12011292 -6.81691879 0.0943783522
v 5.1188074 -6.81757206 0.112378359
v 4.62506958 -6.81757206 0.0943683386
v 4.62376424 -6.81691879 0.112368345
v 4.62376424 -6.81691879 0.0943683386
v 4.62269994 -6.81569141 0.112368345
v 4.62270006 -6.81569141 0.0943683386
v 4.62200543 -6.81403726 0.112368345
v 4.62200555 -6.81403726 0.0943683386
v 4.62176415 -6.81215566 0.112368345
v 4.62176415 -6.81215566 0.0943683386
v 4.62200543 -6.81027502 0.112368345
v 4.62200555 -6.81027502 0.0943683386
v 4.62269994 -6.80862039 0.112368345
v 4.62270006 -6.80862039 0.0943683386
v 4.62376424 -6.80739301 0.112368345
v 4.62376424 -6.80739301 0.0943683386
v 4.62506958 -6.80673975 0.112368345
v 4.62506958 -6.80673975 0.0943683386
v 4.62645885 -6.80673975 0.112368345
v 4.62645885 -6.80673975 0.0943683386
v 4.62776419 -6.80739301 0.112368345
v 4.62776419 -6.80739301 0.0943683386
v 4.62882837 -6.80862039 0.112368345
v 4.62882837 -6.80862039 0.0943683386
v 4.629523 -6.81027502 0.112368345
v 4.629523 -6.81027502 0.0943683386
v 4.62976416 -6.81215566 0.112368345
v 4.62976416 -6.81215566 0.0943683386
v 4.629523 -6.81403726 0.112368345
v 4.629523 -6.81403726 0.0943683386
v 4.62882837 -6.81569141 0.112368345
v 4.62882837 -6.81569141 0.0943683386
v 4.62776419 -6.81691879 0.112368345
v 4.62776419 -6.81691879 0.0943683386
v 4.62645885 -6.81757206 0.112368345
v 5.07752284 -7.70725483 0.112368464
v 5.07682833 -7.7056002 0.0943684578
v 5.07682833 -7.7056002 0.112368464
v 5.07576408 -7.70437187 0.0943684578
v 5.07576408 -7.70437187 0.112368464
v 5.07445868 -7.7037186 0.0943684578
v 5.07445868 -7.7037186 0.112368464
v 5.07306954 -7.7037186 0.0943684578
v 5.07306954 -7.7037186 0.112368464
v 5.07176408 -7.70437187 0.0943684578
v 5.07176408 -7.70437187 0.112368464
v 5.0706999 -7.7056002 0.0943684578
v 5.0706999 -7.7056002 0.112368464
v 5.07000538 -7.70725483 0.0943684578
v 5.07000538 -7.70725483 0.112368464
v 5.0697641 -7.709135 0.0943684578
v 5.0697641 -7.709135 0.112368464
v 5.07000538 -7.7110166 0.0943684578
v 5.07000538 -7.7110166 0.112368464
v 5.0706999 -7.71267074 0.0943684578
v 5.0706999 -7.71267074 0.112368464
v 5.07176408 -7.7138986 0.0943684578
v 5.07176408 -7.7138986 0.112368464
v 5.07306954 -7.71455139 0.0943684578
v 5.07306954 -7.71455139 0.112368464
v 5.07445868 -7.71455139 0.0943684578
v 5.07445868 -7.71455139 0.112368464
v 5.07576408 -7.7138986 0.0943684578
v 5.07576408 -7.7138986 0.112368464
v 5.07682833 -7.71267074 0.0943684578
v 5.07682833 -7.71267074 0.112368464
v 5.07752284 -7.7110166 0.0943684578
v 4.66635426 -6.81027502 0.0943683386
v 4.6670489 -6.80862039 0.112368345
v 4.6670489 -6.80862039 0.0943683386
v 4.66811308 -6.80739301 0.112368345
v 4.66811308 -6.80739301 0.0943683386
v 4.66941842 -6.80673975 0.112368345
v 4.66941842 -6.80673975 0.0943683386
v 4.67080756 -6.80673975 0.112368345
v 4.67080756 -6.80673975 0.0943683386
v 4.67211314 -6.80739301 0.112368345
v 4.67211314 -6.80739301 0.0943684578
v 4.67317721 -6.80862039 0.112368345
v 4.67317721 -6.80862039 0.0943684578
v 4.67387172 -6.81027502 0.112368345
v 4.67387172 -6.81027502 0.0943684578
v 4.67411312 -6.81215566 0.112368345
v 4.67411312 -6.81215566 0.0943684578
v 4.67387172 -6.81403726 0.112368345
v 4.67387172 -6.81403726 0.0943684578
v 4.67317721 -6.81569141 0.112368345
v 4.67317721 -6.81569141 0.0943684578
v 4.67211314 -6.81691879 0.112368345
v 4.67211314 -6.81691879 0.0943684578
v 4.67080756 -6.81757206 0.112368345
v 4.67080756 -6.81757206 0.0943683386
v 4.66941842 -6.81757206 0.112368345
v 4.66941842 -6.81757206 0.0943683386
v 4.66811308 -6.81691879 0.112368345
v 4.66811308 -6.81691879 0.0943683386
v 4.6670489 -6.81569141 0.112368345
v 4.6670489 -6.81569141 0.0943683386
v 4.66635426 -6.81403726 0.112368345
v 4.66941842 -6.86771911 0.112368345
v 4.66811308 -6.86837238 0.0943683386
v 4.66811308 -6.86837238 0.112368345
v 4.6670489 -6.86960024 0.0943683386
v 4.6670489 -6.86960024 0.112368345
v 4.66635426 -6.87125438 0.0943683386
v 4.66635426 -6.87125438 0.112368345
v 4.6661131 -6.87313551 0.0943683386
v 4.6661131 -6.87313551 0.112368345
v 4.66635426 -6.87501663 0.0943683386
v 4.66635426 -6.87501663 0.112368345
v 4.6670489 -6.87667078 0.0943683386
v 4.6670489 -6.87667078 0.112368345
v 4.66811308 -6.87789863 0.0943683386
v 4.66811308 -6.87789863 0.112368345
v 4.66941842 -6.87855142 0.0943683386
v 4.66941842 -6.87855142 0.112368345
v 4.67080756 -6.87855142 0.0943683386
v 4.67080756 -6.87855142 0.112368345
v 4.67211314 -6.87789863 0.0943684578
v 4.67211314 -6.87789863 0.112368345
v 4.67317721 -6.87667078 0.0943684578
v 4.67317721 -6.87667078 0.112368345
v 4.67387172 -6.87501663 0.0943684578
v 4.67387172 -6.87501663 0.112368345
v 4.67411312 -6.87313551 0.0943684578
v 4.67411312 -6.87313551 0.112368345
v 4.67387172 -6.87125438 0.0943684578
v 4.67387172 -6.87125438 0.112368345
v 4.67317721 -6.86960024 0.0943684578
v 4.67317721 -6.86960024 0.112368345
v 4.67211314 -6.86837238 0.0943684578
v 4.67211314 -6.86837238 0.112368345
v 4.67080756 -6.86771911 0.0943683386
v 5.1188074 -7.7037186 0.0943684578
v 5.12011292 -7.70437187 0.112368464
v 5.12011292 -7.70437187 0.0943684578
v 5.12117704 -7.7056002 0.112368464
v 5.12117704 -7.7056002 0.0943684578
v 5.12187162 -7.70725483 0.112368464
v 5.12187162 -7.70725483 0.0943684578
v 5.12211289 -7.709135 0.112368464
v 5.12211289 -7.709135 0.0943684578
v 5.12187162 -7.7110166 0.112368464
v 5.12187162 -7.7110166 0.0943684578
v 5.12117704 -7.71267074 0.112368464
v 5.12117704 -7.71267074 0.0943684578
v 5.12011292 -7.7138986 0.112368464
v 5.12011292 -7.7138986 0.0943684578
v 5.1188074 -7.71455139 0.112368464
v 5.1188074 -7.71455139 0.0943684578
v 5.11741825 -7.71455139 0.112368464
v 5.11741825 -7.71455139 0.0943684578
v 5.11611291 -7.7138986 0.112368464
v 5.11611291 -7.7138986 0.0943684578
v 5.11504867 -7.71267074 0.112368464
v 5.11504867 -7.71267074 0.0943684578
v 5.1143541 -7.7110166 0.112368464
v 5.1143541 -7.7110166 0.0943684578
v 5.11411288 -7.709135 0.112368464
v 5.11411288 -7.709135 0.0943684578
v 5.1143541 -7.70725483 0.112368464
v 5.1143541 -7.70725483 0.0943684578
v 5.11504867 -7.7056002 0.112368464
v 5.11504867 -7.7056002 0.0943684578
v 5.11611291 -7.70437187 0.112368464
v 5.11611291 -7.70437187 0.0943684578
v 5.11741825 -7.7037186 0.112368464
v 4.629523 -7.64627498 0.112368345
v 4.62882837 -7.64462084 0.0943683386
v 4.62882837 -7.64462084 0.112368345
v 4.62776419 -7.6433925 0.0943683386
v 4.62776419 -7.6433925 0.112368345
v 4.62645885 -7.64273924 0.0943683386
v 4.62645885 -7.64273924 0.112368345
v 4.62506958 -7.64273924 0.0943683386
v 4.62506958 -7.64273924 0.112368345
v 4.62376424 -7.6433925 0.0943683386
v 4.62376424 -7.6433925 0.112368345
v 4.62270006 -7.64462084 0.0943683386
v 4.62269994 -7.64462084 0.112368345
v 4.62200555 -7.64627498 0.0943683386
v 4.62200543 -7.64627498 0.112368345
v 4.62176415 -7.64815563 0.0943683386
v 4.62176415 -7.64815563 0.112368345
v 4.62200555 -7.65003723 0.0943683386
v 4.62200543 -7.65003723 0.112368345
v 4.62270006 -7.65169138 0.0943683386
v 4.62269994 -7.65169138 0.112368345
v 4.62376424 -7.65291876 0.0943683386
v 4.62376424 -7.65291876 0.112368345
v 4.62506958 -7.65357202 0.0943683386
v 4.62506958 -7.65357202 0.112368345
v 4.62645885 -7.65357202 0.0943683386
v 4.62645885 -7.65357202 0.112368345
v 4.62776419 -7.65291876 0.0943683386
v 4.62776419 -7.65291876 0.112368345
v 4.62882837 -7.65169138 0.0943683386
v 4.62882837 -7.65169138 0.112368345
v 4.629523 -7.65003723 0.0943683386
v 4.62506958 -7.7037186 0.112368345
v 4.62376424 -7.70437187 0.0943683386
v 4.62376424 -7.70437187 0.112368345
v 4.62270006 -7.7056002 0.0943683386
v 4.62269994 -7.7056002 0.112368345
v 4.62200555 -7.70725483 0.0943683386
v 4.62200543 -7.70725483 0.112368345
v 4.62176415 -7.709135 0.0943683386
v 4.62176415 -7.709135 0.112368345
v 4.62200555 -7.7110166 0.0943683386
v 4.62200543 -7.7110166 0.112368345
v 4.62270006 -7.71267074 0.0943683386
v 4.62269994 -7.71267074 0.112368345
v 4.62376424 -7.7138986 0.0943683386
v 4.62376424 -7.7138986 0.112368345
v 4.62506958 -7.71455139 0.0943683386
v 4.62506958 -7.71455139 0.112368345
v 4.62645885 -7.71455139 0.0943683386
v 4.62645885 -7.71455139 0.112368345
v 4.62776419 -7.7138986 0.0943683386
v 4.62776419 -7.7138986 0.112368345
v 4.62882837 -7.71267074 0.0943683386
v 4.62882837 -7.71267074 0.112368345
v 4.629523 -7.7110166 0.0943683386
v 4.629523 -7.7110166 0.112368345
v 4.62976416 -7.709135 0.0943683386
v 4.62976416 -7.709135 0.112368345
v 4.629523 -7.70725483 0.0943683386
v 4.629523 -7.70725483 0.112368345
v 4.62882837 -7.7056002 0.0943683386
v 4.62882837 -7.7056002 0.112368345
v 4.62776419 -7.70437187 0.0943683386
v 4.62776419 -7.70437187 0.112368345
v 4.62645885 -7.7037186 0.0943683386
v 5.12393853 -6.80414623 0.148368478
v 4.61993858 -6.80414623 0.1501683
v 5.12393853 -6.80414623 0.150168657
v 5.12393853 -7.71714538 0.150168657
v 5.12393853 -7.71714538 0.148368478
v 4.61833855 -7.71934551 0.148368359
v 5.12553849 -7.71934551 0.148368478
v 4.61833855 -7.71934551 0.1501683
v 5.12553849 -7.71934551 0.150168657
v 5.12553849 -6.80194563 0.150168657
v 5.12553849 -6.80194563 0.148368478
v 4.61833855 -6.80194563 0.1501683
v 4.61833855 -6.80194563 0.148368359
v 4.61993858 -7.71714538 0.1501683
v 4.61993858 -7.71714538 0.148368359
vt -0.325677991 0.112368003
vt -0.327558994 0.112368003
vt -0.327558994 0.0943680033
vt -0.0943680033 -0.201826006
vt -0.112368003 -0.201826006
vt -0.0943680033 -0.202519998
vt 0.388538003 0.112368003
vt 0.388538003 0.0943680033
vt 0.39041999 0.112368003
vt -0.0943680033 0.201824993
vt -0.112368003 0.201824993
vt -0.112368003 0.201131001
vt 0.508440971 0.112368003
vt 0.508440971 0.0943680033
vt 0.510321975 0.112368003
vt -0.508440971 0.112368003
vt -0.508440971 0.0943680033
vt -0.506560028 0.112368003
vt -0.0943680033 0.246173993
vt -0.112368003 0.246173993
vt -0.0943680033 0.245480001
vt -0.112368003 -0.201131001
vt -0.112368003 -0.201826006
vt -0.0943680033 -0.201826006
vt -0.094378002 -0.246173993
vt -0.112378001 -0.246173993
vt -0.094378002 -0.246868998
vt 0.0943680033 0.246173993
vt 0.112368003 0.246173993
vt 0.0943680033 0.246868998
vt 0.112368003 0.245480001
vt 0.112368003 0.246173993
vt 0.0943680033 0.246173993
vt -0.112378001 -0.245480001
vt -0.112378001 -0.246173993
vt -0.094378002 -0.246173993
vt -0.112368003 0.246868998
vt -0.112368003 0.246173993
vt -0.0943680033 0.246173993
vt 0.0943680033 -0.246173993
vt 0.112368003 -0.246173993
vt 0.0943680033 -0.245480001
vt 0.112368003 -0.246868998
vt 0.112368003 -0.246173993
vt 0.0943680033 -0.246173993
vt 0.386657 0.0943680033
vt 0.388538003 0.0943680033
vt 0.388538003 0.112368003
vt -0.327558994 0.0943680033
vt -0.327558994 0.112368003
vt -0.329439998 0.0943680033
vt 0.0943680033 0.201824993
vt 0.112368003 0.201824993
vt 0.0943680033 0.202519998
vt 0.112368003 0.201131001
vt 0.112368003 0.201824993
vt 0.0943680033 0.201824993
vt -0.112368003 0.201824993
vt -0.0943680033 0.201824993
vt -0.0943680033 0.202519998
vt 0.506560028 0.0943680033
vt 0.508440971 0.0943680033
vt 0.508440971 0.112368003
vt -0.510321975 0.0943680033
vt -0.508440971 0.0943680033
vt -0.508440971 0.112368003
vt 0.112378001 -0.202519998
vt 0.112378001 -0.201826006
vt 0.094378002 -0.201826006
vt 0.329439998 0.112378001
vt 0.327558994 0.112378001
vt 0.327558994 0.094378002
vt 0.327558994 0.094378002
vt 0.327558994 0.112378001
vt 0.325677991 0.094378002
vt -0.39041999 0.094378002
vt -0.388538003 0.094378002
vt -0.388538003 0.112378001
vt -0.388538003 0.112378001
vt -0.388538003 0.094378002
vt -0.386657 0.112378001
vt -0.445580006 0.112368003
vt -0.447461993 0.112368003
vt -0.447461993 0.0943680033
vt -0.447461993 0.0943680033
vt -0.447461993 0.112368003
vt -0.449342996 0.0943680033
vt 0.449342996 0.112368003
vt 0.447461993 0.112368003
vt 0.447461993 0.0943680033
vt 0.447461993 0.0943680033
vt 0.447461993 0.112368003
vt 0.445580006 0.0943680033
vt 0.094378002 -0.201826006
vt 0.112378001 -0.201826006
vt 0.094378002 -0.201131001
vt -0.0943680033 -0.201826006
vt -0.0943680033 -0.201131001
vt -0.112368003 -0.201131001
vt -0.112368003 -0.201131001
vt -0.0943680033 -0.201131001
vt -0.0943680033 -0.201131001
vt -0.112368003 -0.201131001
vt -0.0943680033 -0.201131001
vt -0.112368003 -0.199826002
vt -0.112368003 -0.199826002
vt -0.0943680033 -0.201131001
vt -0.0943680033 -0.199826002
vt -0.452225 0.112368003
vt -0.452225 0.0943680033
vt -0.450996995 0.112368003
vt -0.450996995 0.112368003
vt -0.452225 0.0943680033
vt -0.450996995 0.0943680033
vt -0.450996995 0.112368003
vt -0.450996995 0.0943680033
vt -0.449342996 0.112368003
vt -0.449342996 0.112368003
vt -0.450996995 0.0943680033
vt -0.449342996 0.0943680033
vt -0.449342996 0.112368003
vt -0.449342996 0.0943680033
vt -0.447461993 0.112368003
vt -0.447461993 0.112368003
vt -0.449342996 0.0943680033
vt -0.447461993 0.0943680033
vt -0.447461993 0.112368003
vt -0.447461993 0.0943680033
vt -0.445580006 0.112368003
vt -0.445580006 0.112368003
vt -0.447461993 0.0943680033
vt -0.445580006 0.0943680033
vt -0.445580006 0.112368003
vt -0.445580006 0.0943680033
vt -0.443926007 0.112368003
vt -0.443926007 0.112368003
vt -0.445580006 0.0943680033
vt -0.443926007 0.0943680033
vt -0.443926007 0.112368003
vt -0.443926007 0.0943680033
vt -0.442698002 0.112368003
vt -0.442698002 0.112368003
vt -0.443926007 0.0943680033
vt -0.442698002 0.0943680033
vt 0.112368003 -0.199826002
vt 0.0943680033 -0.199826002
vt 0.112368003 -0.201131001
vt 0.112368003 -0.201131001
vt 0.0943680033 -0.199826002
vt 0.0943680033 -0.201131001
vt 0.112368003 -0.201131001
vt 0.0943680033 -0.201131001
vt 0.112368003 -0.202519998
vt 0.112368003 -0.202519998
vt 0.0943680033 -0.201131001
vt 0.0943680033 -0.202519998
vt 0.112368003 -0.202519998
vt 0.0943680033 -0.202519998
vt 0.112368003 -0.203825995
vt 0.112368003 -0.203825995
vt 0.0943680033 -0.202519998
vt 0.0943680033 -0.203825995
vt 0.442698002 0.112368003
vt 0.442698002 0.0943680033
vt 0.443926007 0.112368003
vt 0.443926007 0.112368003
vt 0.442698002 0.0943680033
vt 0.443926007 0.0943680033
vt 0.443926007 0.112368003
vt 0.443926007 0.0943680033
vt 0.445580006 0.112368003
vt 0.445580006 0.112368003
vt 0.443926007 0.0943680033
vt 0.445580006 0.0943680033
vt 0.445580006 0.112368003
vt 0.445580006 0.0943680033
vt 0.447461993 0.112368003
vt 0.447461993 0.112368003
vt 0.445580006 0.0943680033
vt 0.447461993 0.0943680033
vt 0.447461993 0.112368003
vt 0.447461993 0.0943680033
vt 0.449342996 0.112368003
vt 0.449342996 0.112368003
vt 0.447461993 0.0943680033
vt 0.449342996 0.0943680033
vt 0.449342996 0.112368003
vt 0.449342996 0.0943680033
vt 0.450996995 0.112368003
vt 0.450996995 0.112368003
vt 0.449342996 0.0943680033
vt 0.450996995 0.0943680033
vt 0.450996995 0.112368003
vt 0.450996995 0.0943680033
vt 0.452225 0.112368003
vt 0.452225 0.112368003
vt 0.450996995 0.0943680033
vt 0.452225 0.0943680033
vt -0.112368003 -0.203825995
vt -0.0943680033 -0.203825995
vt -0.112368003 -0.202519998
vt -0.112368003 -0.202519998
vt -0.0943680033 -0.203825995
vt -0.0943680033 -0.202519998
vt -0.112368003 -0.202519998
vt -0.0943680033 -0.202519998
vt -0.112368003 -0.201826006
vt 0.439451009 -0.195999995
vt 0.439451009 -0.252000004
vt 0.516451001 -0.195999995
vt 0.516451001 -0.195999995
vt 0.439451009 -0.252000004
vt 0.516451001 -0.252000004
vt -0.396548986 0.252000004
vt -0.396548986 0.195999995
vt -0.319548994 0.252000004
vt -0.319548994 0.252000004
vt -0.396548986 0.195999995
vt -0.319548994 0.195999995
vt -0.319548994 0.148368001
vt -0.396548986 0.148368001
vt -0.319548994 0.112368003
vt -0.319548994 0.112368003
vt -0.396548986 0.148368001
vt -0.396548986 0.112368003
vt -0.319548994 -0.252000004
vt -0.319548994 -0.195999995
vt -0.396548986 -0.252000004
vt -0.396548986 -0.252000004
vt -0.319548994 -0.195999995
vt -0.396548986 -0.195999995
vt -0.447461993 0.112368003
vt -0.449342996 0.112368003
vt -0.449342996 0.0943680033
vt -0.0943680033 -0.242415994
vt -0.112368003 -0.242415994
vt -0.112368003 -0.242415994
vt -0.449342996 0.0943680033
vt -0.449342996 0.112368003
vt -0.450996995 0.0943680033
vt -0.450996995 0.0943680033
vt -0.449342996 0.112368003
vt -0.450996995 0.112368003
vt -0.450996995 0.0943680033
vt -0.450996995 0.112368003
vt -0.452225 0.0943680033
vt -0.452225 0.0943680033
vt -0.450996995 0.112368003
vt -0.452225 0.112368003
vt -0.0943680033 -0.244174004
vt -0.112368003 -0.244174004
vt -0.0943680033 -0.245480001
vt -0.0943680033 -0.245480001
vt -0.112368003 -0.244174004
vt -0.112368003 -0.245480001
vt -0.0943680033 -0.245480001
vt -0.112368003 -0.245480001
vt -0.0943680033 -0.246868998
vt -0.0943680033 -0.246868998
vt -0.112368003 -0.245480001
vt -0.112368003 -0.246868998
vt -0.0943680033 -0.246868998
vt -0.112368003 -0.246868998
vt -0.0943680033 -0.248174995
vt -0.0943680033 -0.248174995
vt -0.112368003 -0.246868998
vt -0.112368003 -0.248174995
vt 0.452225 0.0943680033
vt 0.452225 0.112368003
vt 0.450996995 0.0943680033
vt 0.450996995 0.0943680033
vt 0.452225 0.112368003
vt 0.450996995 0.112368003
vt 0.450996995 0.0943680033
vt 0.450996995 0.112368003
vt 0.449342996 0.0943680033
vt 0.449342996 0.0943680033
vt 0.450996995 0.112368003
vt 0.449342996 0.112368003
vt 0.449342996 0.0943680033
vt 0.449342996 0.112368003
vt 0.447461993 0.0943680033
vt 0.447461993 0.0943680033
vt 0.449342996 0.112368003
vt 0.447461993 0.112368003
vt 0.447461993 0.0943680033
vt 0.447461993 0.112368003
vt 0.445580006 0.0943680033
vt 0.445580006 0.0943680033
vt 0.447461993 0.112368003
vt 0.445580006 0.112368003
vt 0.445580006 0.0943680033
vt 0.445580006 0.112368003
vt 0.443926007 0.0943680033
vt 0.443926007 0.0943680033
vt 0.445580006 0.112368003
vt 0.443926007 0.112368003
vt 0.443926007 0.0943680033
vt 0.443926007 0.112368003
vt 0.442698002 0.0943680033
vt 0.442698002 0.0943680033
vt 0.443926007 0.112368003
vt 0.442698002 0.112368003
vt 0.0943680033 -0.248174995
vt 0.112368003 -0.248174995
vt 0.0943680033 -0.246868998
vt 0.0943680033 -0.246868998
vt 0.112368003 -0.248174995
vt 0.112368003 -0.246868998
vt 0.0943680033 -0.246868998
vt 0.112368003 -0.246868998
vt 0.0943680033 -0.245480001
vt 0.0943680033 -0.245480001
vt 0.112368003 -0.246868998
vt 0.112368003 -0.245480001
vt 0.0943680033 -0.245480001
vt 0.112368003 -0.245480001
vt 0.0943680033 -0.244174004
vt 0.0943680033 -0.244174004
vt 0.112368003 -0.245480001
vt 0.112368003 -0.244174004
vt -0.442698002 0.0943680033
vt -0.442698002 0.112368003
vt -0.443926007 0.0943680033
vt -0.443926007 0.0943680033
vt -0.442698002 0.112368003
vt -0.443926007 0.112368003
vt -0.443926007 0.0943680033
vt -0.443926007 0.112368003
vt -0.445580006 0.0943680033
vt -0.445580006 0.0943680033
vt -0.443926007 0.112368003
vt -0.445580006 0.112368003
vt -0.445580006 0.0943680033
vt -0.445580006 0.112368003
vt -0.447461993 0.0943680033
vt -0.388538003 0.094378002
vt -0.386657 0.094378002
vt -0.386657 0.112378001
vt -0.112378001 -0.205584005
vt -0.094378002 -0.205584005
vt -0.094378002 -0.205584005
vt -0.386657 0.112378001
vt -0.386657 0.094378002
vt -0.385003 0.112378001
vt -0.385003 0.112378001
vt -0.386657 0.094378002
vt -0.385003 0.094378002
vt -0.385003 0.112378001
vt -0.385003 0.094378002
vt -0.383774996 0.112378001
vt -0.383774996 0.112378001
vt -0.385003 0.094378002
vt -0.383774996 0.094378002
vt -0.112378001 -0.203825995
vt -0.094378002 -0.203825995
vt -0.112378001 -0.202519998
vt -0.112378001 -0.202519998
vt -0.094378002 -0.203825995
vt -0.094378002 -0.202519998
vt -0.112378001 -0.202519998
vt -0.094378002 -0.202519998
vt -0.112378001 -0.201131001
vt -0.112378001 -0.201131001
vt -0.094378002 -0.202519998
vt -0.094378002 -0.201131001
vt -0.112378001 -0.201131001
vt -0.094378002 -0.201131001
vt -0.112378001 -0.199826002
vt -0.112378001 -0.199826002
vt -0.094378002 -0.201131001
vt -0.094378002 -0.199826002
vt 0.383774996 0.112378001
vt 0.383774996 0.094378002
vt 0.385003 0.112378001
vt 0.385003 0.112378001
vt 0.383774996 0.094378002
vt 0.385003 0.094378002
vt 0.385003 0.112378001
vt 0.385003 0.094378002
vt 0.386657 0.112378001
vt 0.386657 0.112378001
vt 0.385003 0.094378002
vt 0.386657 0.094378002
vt 0.386657 0.112378001
vt 0.386657 0.094378002
vt 0.388538003 0.112378001
vt 0.388538003 0.112378001
vt 0.386657 0.094378002
vt 0.388538003 0.094378002
vt 0.388538003 0.112378001
vt 0.388538003 0.094378002
vt 0.39041999 0.112378001
vt 0.39041999 0.112378001
vt 0.388538003 0.094378002
vt 0.39041999 0.094378002
vt 0.39041999 0.112378001
vt 0.39041999 0.094378002
vt 0.392073989 0.112378001
vt 0.392073989 0.112378001
vt 0.39041999 0.094378002
vt 0.392073989 0.094378002
vt 0.392073989 0.112378001
vt 0.392073989 0.094378002
vt 0.393301994 0.112378001
vt 0.393301994 0.112378001
vt 0.392073989 0.094378002
vt 0.393301994 0.094378002
vt 0.112378001 -0.199826002
vt 0.094378002 -0.199826002
vt 0.112378001 -0.201131001
vt 0.112378001 -0.201131001
vt 0.094378002 -0.199826002
vt 0.094378002 -0.201131001
vt 0.112378001 -0.201131001
vt 0.094378002 -0.201131001
vt 0.112378001 -0.202519998
vt 0.112378001 -0.202519998
vt 0.094378002 -0.201131001
vt 0.094378002 -0.202519998
vt 0.112378001 -0.202519998
vt 0.094378002 -0.202519998
vt 0.112378001 -0.203825995
vt 0.112378001 -0.203825995
vt 0.094378002 -0.202519998
vt 0.094378002 -0.203825995
vt -0.393301994 0.112378001
vt -0.393301994 0.094378002
vt -0.392073989 0.112378001
vt -0.392073989 0.112378001
vt -0.393301994 0.094378002
vt -0.392073989 0.094378002
vt -0.392073989 0.112378001
vt -0.392073989 0.094378002
vt -0.39041999 0.112378001
vt -0.39041999 0.112378001
vt -0.392073989 0.094378002
vt -0.39041999 0.094378002
vt -0.39041999 0.112378001
vt -0.39041999 0.094378002
vt -0.388538003 0.112378001
vt 0.094378002 -0.201826006
vt 0.094378002 -0.202519998
vt 0.112378001 -0.202519998
vt -0.112378001 -0.202519998
vt -0.094378002 -0.202519998
vt -0.094378002 -0.202519998
vt 0.112378001 -0.202519998
vt 0.094378002 -0.202519998
vt 0.112378001 -0.203825995
vt 0.112378001 -0.203825995
vt 0.094378002 -0.202519998
vt 0.094378002 -0.203825995
vt -0.332322001 0.112378001
vt -0.332322001 0.094378002
vt -0.331093997 0.112378001
vt -0.331093997 0.112378001
vt -0.332322001 0.094378002
vt -0.331093997 0.094378002
vt -0.331093997 0.112378001
vt -0.331093997 0.094378002
vt -0.329439998 0.112378001
vt -0.329439998 0.112378001
vt -0.331093997 0.094378002
vt -0.329439998 0.094378002
vt -0.329439998 0.112378001
vt -0.329439998 0.094378002
vt -0.327558994 0.112378001
vt -0.327558994 0.112378001
vt -0.329439998 0.094378002
vt -0.327558994 0.094378002
vt -0.327558994 0.112378001
vt -0.327558994 0.094378002
vt -0.325677991 0.112378001
vt -0.325677991 0.112378001
vt -0.327558994 0.094378002
vt -0.325677991 0.094378002
vt -0.325677991 0.112378001
vt -0.325677991 0.094378002
vt -0.324023992 0.112378001
vt -0.324023992 0.112378001
vt -0.325677991 0.094378002
vt -0.324023992 0.094378002
vt -0.324023992 0.112378001
vt -0.324023992 0.094378002
vt -0.322795987 0.112378001
vt -0.322795987 0.112378001
vt -0.324023992 0.094378002
vt -0.322795987 0.094378002
vt -0.112378001 -0.203825995
vt -0.094378002 -0.203825995
vt -0.112378001 -0.202519998
vt -0.112378001 -0.202519998
vt -0.094378002 -0.203825995
vt -0.094378002 -0.202519998
vt -0.112378001 -0.202519998
vt -0.094378002 -0.202519998
vt -0.112378001 -0.201131001
vt -0.112378001 -0.201131001
vt -0.094378002 -0.202519998
vt -0.094378002 -0.201131001
vt -0.112378001 -0.201131001
vt -0.094378002 -0.201131001
vt -0.112378001 -0.199826002
vt -0.112378001 -0.199826002
vt -0.094378002 -0.201131001
vt -0.094378002 -0.199826002
vt 0.322795987 0.112378001
vt 0.322795987 0.094378002
vt 0.324023992 0.112378001
vt 0.324023992 0.112378001
vt 0.322795987 0.094378002
vt 0.324023992 0.094378002
vt 0.324023992 0.112378001
vt 0.324023992 0.094378002
vt 0.325677991 0.112378001
vt 0.325677991 0.112378001
vt 0.324023992 0.094378002
vt 0.325677991 0.094378002
vt 0.325677991 0.112378001
vt 0.325677991 0.094378002
vt 0.327558994 0.112378001
vt 0.327558994 0.112378001
vt 0.325677991 0.094378002
vt 0.327558994 0.094378002
vt 0.327558994 0.112378001
vt 0.327558994 0.094378002
vt 0.329439998 0.112378001
vt 0.329439998 0.112378001
vt 0.327558994 0.094378002
vt 0.329439998 0.094378002
vt 0.329439998 0.112378001
vt 0.329439998 0.094378002
vt 0.331093997 0.112378001
vt 0.331093997 0.112378001
vt 0.329439998 0.094378002
vt 0.331093997 0.094378002
vt 0.331093997 0.112378001
vt 0.331093997 0.094378002
vt 0.332322001 0.112378001
vt 0.332322001 0.112378001
vt 0.331093997 0.094378002
vt 0.332322001 0.094378002
vt 0.112378001 -0.199826002
vt 0.094378002 -0.199826002
vt 0.112378001 -0.201131001
vt 0.112378001 -0.201131001
vt 0.094378002 -0.199826002
vt 0.094378002 -0.201131001
vt 0.112378001 -0.201131001
vt 0.094378002 -0.201131001
vt 0.112378001 -0.201826006
vt 0.327558994 0.112378001
vt 0.325677991 0.112378001
vt 0.325677991 0.094378002
vt -0.094378002 -0.242415994
vt -0.112378001 -0.242415994
vt -0.112378001 -0.242415994
vt 0.325677991 0.094378002
vt 0.325677991 0.112378001
vt 0.324023992 0.094378002
vt 0.324023992 0.094378002
vt 0.325677991 0.112378001
vt 0.324023992 0.112378001
vt 0.324023992 0.094378002
vt 0.324023992 0.112378001
vt 0.322795987 0.094378002
vt 0.322795987 0.094378002
vt 0.324023992 0.112378001
vt 0.322795987 0.112378001
vt -0.094378002 -0.244174004
vt -0.112378001 -0.244174004
vt -0.094378002 -0.245480001
vt -0.094378002 -0.245480001
vt -0.112378001 -0.244174004
vt -0.112378001 -0.245480001
vt -0.094378002 -0.245480001
vt -0.112378001 -0.245480001
vt -0.094378002 -0.246868998
vt -0.094378002 -0.246868998
vt -0.112378001 -0.245480001
vt -0.112378001 -0.246868998
vt -0.094378002 -0.246868998
vt -0.112378001 -0.246868998
vt -0.094378002 -0.248174995
vt -0.094378002 -0.248174995
vt -0.112378001 -0.246868998
vt -0.112378001 -0.248174995
vt -0.322795987 0.094378002
vt -0.322795987 0.112378001
vt -0.324023992 0.094378002
vt -0.324023992 0.094378002
vt -0.322795987 0.112378001
vt -0.324023992 0.112378001
vt -0.324023992 0.094378002
vt -0.324023992 0.112378001
vt -0.325677991 0.094378002
vt -0.325677991 0.094378002
vt -0.324023992 0.112378001
vt -0.325677991 0.112378001
vt -0.325677991 0.094378002
vt -0.325677991 0.112378001
vt -0.327558994 0.094378002
vt -0.327558994 0.094378002
vt -0.325677991 0.112378001
vt -0.327558994 0.112378001
vt -0.327558994 0.094378002
vt -0.327558994 0.112378001
vt -0.329439998 0.094378002
vt -0.329439998 0.094378002
vt -0.327558994 0.112378001
vt -0.329439998 0.112378001
vt -0.329439998 0.094378002
vt -0.329439998 0.112378001
vt -0.331093997 0.094378002
vt -0.331093997 0.094378002
vt -0.329439998 0.112378001
vt -0.331093997 0.112378001
vt -0.331093997 0.094378002
vt -0.331093997 0.112378001
vt -0.332322001 0.094378002
vt -0.332322001 0.094378002
vt -0.331093997 0.112378001
vt -0.332322001 0.112378001
vt 0.094378002 -0.248174995
vt 0.112378001 -0.248174995
vt 0.094378002 -0.246868998
vt 0.094378002 -0.246868998
vt 0.112378001 -0.248174995
vt 0.112378001 -0.246868998
vt 0.094378002 -0.246868998
vt 0.112378001 -0.246868998
vt 0.094378002 -0.245480001
vt 0.094378002 -0.245480001
vt 0.112378001 -0.246868998
vt 0.112378001 -0.245480001
vt 0.094378002 -0.245480001
vt 0.112378001 -0.245480001
vt 0.094378002 -0.244174004
vt 0.094378002 -0.244174004
vt 0.112378001 -0.245480001
vt 0.112378001 -0.244174004
vt 0.332322001 0.094378002
vt 0.332322001 0.112378001
vt 0.331093997 0.094378002
vt 0.331093997 0.094378002
vt 0.332322001 0.112378001
vt 0.331093997 0.112378001
vt 0.331093997 0.094378002
vt 0.331093997 0.112378001
vt 0.329439998 0.094378002
vt 0.329439998 0.094378002
vt 0.331093997 0.112378001
vt 0.329439998 0.112378001
vt 0.329439998 0.094378002
vt 0.329439998 0.112378001
vt 0.327558994 0.094378002
vt -0.508440971 0.0943680033
vt -0.506560028 0.0943680033
vt -0.506560028 0.112368003
vt -0.112368003 0.205584005
vt -0.0943680033 0.205584005
vt -0.0943680033 0.205584005
vt -0.506560028 0.112368003
vt -0.506560028 0.0943680033
vt -0.504905999 0.112368003
vt -0.504905999 0.112368003
vt -0.506560028 0.0943680033
vt -0.504905999 0.0943680033
vt -0.504905999 0.112368003
vt -0.504905999 0.0943680033
vt -0.503678024 0.112368003
vt -0.503678024 0.112368003
vt -0.504905999 0.0943680033
vt -0.503678024 0.0943680033
vt 0.112368003 0.203824997
vt 0.0943680033 0.203824997
vt 0.112368003 0.202519998
vt 0.112368003 0.202519998
vt 0.0943680033 0.203824997
vt 0.0943680033 0.202519998
vt 0.112368003 0.202519998
vt 0.0943680033 0.202519998
vt 0.112368003 0.201131001
vt 0.112368003 0.201131001
vt 0.0943680033 0.202519998
vt 0.0943680033 0.201131001
vt 0.112368003 0.201131001
vt 0.0943680033 0.201131001
vt 0.112368003 0.199825004
vt 0.112368003 0.199825004
vt 0.0943680033 0.201131001
vt 0.0943680033 0.199825004
vt 0.503678024 0.112368003
vt 0.503678024 0.0943680033
vt 0.504905999 0.112368003
vt 0.504905999 0.112368003
vt 0.503678024 0.0943680033
vt 0.504905999 0.0943680033
vt 0.504905999 0.112368003
vt 0.504905999 0.0943680033
vt 0.506560028 0.112368003
vt 0.506560028 0.112368003
vt 0.504905999 0.0943680033
vt 0.506560028 0.0943680033
vt 0.506560028 0.112368003
vt 0.506560028 0.0943680033
vt 0.508440971 0.112368003
vt 0.508440971 0.112368003
vt 0.506560028 0.0943680033
vt 0.508440971 0.0943680033
vt 0.508440971 0.112368003
vt 0.508440971 0.0943680033
vt 0.510321975 0.112368003
vt 0.510321975 0.112368003
vt 0.508440971 0.0943680033
vt 0.510321975 0.0943680033
vt 0.510321975 0.112368003
vt 0.510321975 0.0943680033
vt 0.511976004 0.112368003
vt 0.511976004 0.112368003
vt 0.510321975 0.0943680033
vt 0.511976004 0.0943680033
vt 0.511976004 0.112368003
vt 0.511976004 0.0943680033
vt 0.513203979 0.112368003
vt 0.513203979 0.112368003
vt 0.511976004 0.0943680033
vt 0.513203979 0.0943680033
vt -0.112368003 0.199825004
vt -0.0943680033 0.199825004
vt -0.112368003 0.201131001
vt -0.112368003 0.201131001
vt -0.0943680033 0.199825004
vt -0.0943680033 0.201131001
vt -0.112368003 0.201131001
vt -0.0943680033 0.201131001
vt -0.112368003 0.202519998
vt -0.112368003 0.202519998
vt -0.0943680033 0.201131001
vt -0.0943680033 0.202519998
vt -0.112368003 0.202519998
vt -0.0943680033 0.202519998
vt -0.112368003 0.203824997
vt -0.112368003 0.203824997
vt -0.0943680033 0.202519998
vt -0.0943680033 0.203824997
vt -0.513203979 0.112368003
vt -0.513203979 0.0943680033
vt -0.511976004 0.112368003
vt -0.511976004 0.112368003
vt -0.513203979 0.0943680033
vt -0.511976004 0.0943680033
vt -0.511976004 0.112368003
vt -0.511976004 0.0943680033
vt -0.510321975 0.112368003
vt -0.510321975 0.112368003
vt -0.511976004 0.0943680033
vt -0.510321975 0.0943680033
vt -0.510321975 0.112368003
vt -0.510321975 0.0943680033
vt -0.508440971 0.112368003
vt -0.0943680033 0.201824993
vt -0.112368003 0.201131001
vt -0.0943680033 0.201131001
vt -0.0943680033 0.201131001
vt -0.112368003 0.201131001
vt -0.112368003 0.201131001
vt -0.0943680033 0.201131001
vt -0.112368003 0.201131001
vt -0.0943680033 0.199825004
vt -0.0943680033 0.199825004
vt -0.112368003 0.201131001
vt -0.112368003 0.199825004
vt 0.452225 0.0943680033
vt 0.452225 0.112368003
vt 0.450996995 0.0943680033
vt 0.450996995 0.0943680033
vt 0.452225 0.112368003
vt 0.450996995 0.112368003
vt 0.450996995 0.0943680033
vt 0.450996995 0.112368003
vt 0.449342996 0.0943680033
vt 0.449342996 0.0943680033
vt 0.450996995 0.112368003
vt 0.449342996 0.112368003
vt 0.449342996 0.0943680033
vt 0.449342996 0.112368003
vt 0.447461993 0.0943680033
vt 0.447461993 0.0943680033
vt 0.449342996 0.112368003
vt 0.447461993 0.112368003
vt 0.447461993 0.0943680033
vt 0.447461993 0.112368003
vt 0.445580006 0.0943680033
vt 0.445580006 0.0943680033
vt 0.447461993 0.112368003
vt 0.445580006 0.112368003
vt 0.445580006 0.0943680033
vt 0.445580006 0.112368003
vt 0.443926007 0.0943680033
vt 0.443926007 0.0943680033
vt 0.445580006 0.112368003
vt 0.443926007 0.112368003
vt 0.443926007 0.0943680033
vt 0.443926007 0.112368003
vt 0.442698002 0.0943680033
vt 0.442698002 0.0943680033
vt 0.443926007 0.112368003
vt 0.442698002 0.112368003
vt 0.0943680033 0.199825004
vt 0.112368003 0.199825004
vt 0.0943680033 0.201131001
vt 0.0943680033 0.201131001
vt 0.112368003 0.199825004
vt 0.112368003 0.201131001
vt 0.0943680033 0.201131001
vt 0.112368003 0.201131001
vt 0.0943680033 0.202519998
vt 0.0943680033 0.202519998
vt 0.112368003 0.201131001
vt 0.112368003 0.202519998
vt 0.0943680033 0.202519998
vt 0.112368003 0.202519998
vt 0.0943680033 0.203824997
vt 0.0943680033 0.203824997
vt 0.112368003 0.202519998
vt 0.112368003 0.203824997
vt -0.442698002 0.0943680033
vt -0.442698002 0.112368003
vt -0.443926007 0.0943680033
vt -0.443926007 0.0943680033
vt -0.442698002 0.112368003
vt -0.443926007 0.112368003
vt -0.443926007 0.0943680033
vt -0.443926007 0.112368003
vt -0.445580006 0.0943680033
vt -0.445580006 0.0943680033
vt -0.443926007 0.112368003
vt -0.445580006 0.112368003
vt -0.445580006 0.0943680033
vt -0.445580006 0.112368003
vt -0.447461993 0.0943680033
vt -0.447461993 0.0943680033
vt -0.445580006 0.112368003
vt -0.447461993 0.112368003
vt -0.447461993 0.0943680033
vt -0.447461993 0.112368003
vt -0.449342996 0.0943680033
vt -0.449342996 0.0943680033
vt -0.447461993 0.112368003
vt -0.449342996 0.112368003
vt -0.449342996 0.0943680033
vt -0.449342996 0.112368003
vt -0.450996995 0.0943680033
vt -0.450996995 0.0943680033
vt -0.449342996 0.112368003
vt -0.450996995 0.112368003
vt -0.450996995 0.0943680033
vt -0.450996995 0.112368003
vt -0.452225 0.0943680033
vt -0.452225 0.0943680033
vt -0.450996995 0.112368003
vt -0.452225 0.112368003
vt -0.0943680033 0.203824997
vt -0.112368003 0.203824997
vt -0.0943680033 0.202519998
vt -0.0943680033 0.202519998
vt -0.112368003 0.203824997
vt -0.112368003 0.202519998
vt -0.0943680033 0.202519998
vt -0.112368003 0.202519998
vt -0.112368003 0.201824993
vt -0.327558994 0.0943680033
vt -0.325677991 0.0943680033
vt -0.325677991 0.112368003
vt -0.112368003 0.242415994
vt -0.0943680033 0.242415994
vt -0.0943680033 0.242415994
vt -0.325677991 0.112368003
vt -0.325677991 0.0943680033
vt -0.324023992 0.112368003
vt -0.324023992 0.112368003
vt -0.325677991 0.0943680033
vt -0.324023992 0.0943680033
vt -0.324023992 0.112368003
vt -0.324023992 0.0943680033
vt -0.322795987 0.112368003
vt -0.322795987 0.112368003
vt -0.324023992 0.0943680033
vt -0.322795987 0.0943680033
vt -0.112368003 0.244174004
vt -0.0943680033 0.244174004
vt -0.112368003 0.245480001
vt -0.112368003 0.245480001
vt -0.0943680033 0.244174004
vt -0.0943680033 0.245480001
vt -0.112368003 0.245480001
vt -0.0943680033 0.245480001
vt -0.112368003 0.246868998
vt -0.112368003 0.246868998
vt -0.0943680033 0.245480001
vt -0.0943680033 0.246868998
vt -0.112368003 0.246868998
vt -0.0943680033 0.246868998
vt -0.112368003 0.248173997
vt -0.112368003 0.248173997
vt -0.0943680033 0.246868998
vt -0.0943680033 0.248173997
vt 0.322795987 0.112368003
vt 0.322795987 0.0943680033
vt 0.324023992 0.112368003
vt 0.324023992 0.112368003
vt 0.322795987 0.0943680033
vt 0.324023992 0.0943680033
vt 0.324023992 0.112368003
vt 0.324023992 0.0943680033
vt 0.325677991 0.112368003
vt 0.325677991 0.112368003
vt 0.324023992 0.0943680033
vt 0.325677991 0.0943680033
vt 0.325677991 0.112368003
vt 0.325677991 0.0943680033
vt 0.327558994 0.112368003
vt 0.327558994 0.112368003
vt 0.325677991 0.0943680033
vt 0.327558994 0.0943680033
vt 0.327558994 0.112368003
vt 0.327558994 0.0943680033
vt 0.329439998 0.112368003
vt 0.329439998 0.112368003
vt 0.327558994 0.0943680033
vt 0.329439998 0.0943680033
vt 0.329439998 0.112368003
vt 0.329439998 0.0943680033
vt 0.331093997 0.112368003
vt 0.331093997 0.112368003
vt 0.329439998 0.0943680033
vt 0.331093997 0.0943680033
vt 0.331093997 0.112368003
vt 0.331093997 0.0943680033
vt 0.332322001 0.112368003
vt 0.332322001 0.112368003
vt 0.331093997 0.0943680033
vt 0.332322001 0.0943680033
vt 0.112368003 0.248173997
vt 0.0943680033 0.248173997
vt 0.112368003 0.246868998
vt 0.112368003 0.246868998
vt 0.0943680033 0.248173997
vt 0.0943680033 0.246868998
vt 0.112368003 0.246868998
vt 0.0943680033 0.246868998
vt 0.112368003 0.245480001
vt 0.112368003 0.245480001
vt 0.0943680033 0.246868998
vt 0.0943680033 0.245480001
vt 0.112368003 0.245480001
vt 0.0943680033 0.245480001
vt 0.112368003 0.244174004
vt 0.112368003 0.244174004
vt 0.0943680033 0.245480001
vt 0.0943680033 0.244174004
vt -0.332322001 0.112368003
vt -0.332322001 0.0943680033
vt -0.331093997 0.112368003
vt -0.331093997 0.112368003
vt -0.332322001 0.0943680033
vt -0.331093997 0.0943680033
vt -0.331093997 0.112368003
vt -0.331093997 0.0943680033
vt -0.329439998 0.112368003
vt -0.329439998 0.112368003
vt -0.331093997 0.0943680033
vt -0.329439998 0.0943680033
vt -0.329439998 0.112368003
vt -0.329439998 0.0943680033
vt -0.327558994 0.112368003
vt -0.094378002 -0.246173993
vt -0.094378002 -0.245480001
vt -0.112378001 -0.245480001
vt -0.112378001 -0.245480001
vt -0.094378002 -0.245480001
vt -0.094378002 -0.245480001
vt -0.112378001 -0.245480001
vt -0.094378002 -0.245480001
vt -0.112378001 -0.244174004
vt -0.112378001 -0.244174004
vt -0.094378002 -0.245480001
vt -0.094378002 -0.244174004
vt 0.383774996 0.112378001
vt 0.383774996 0.094378002
vt 0.385003 0.112378001
vt 0.385003 0.112378001
vt 0.383774996 0.094378002
vt 0.385003 0.094378002
vt 0.385003 0.112378001
vt 0.385003 0.094378002
vt 0.386657 0.112378001
vt 0.386657 0.112378001
vt 0.385003 0.094378002
vt 0.386657 0.094378002
vt 0.386657 0.112378001
vt 0.386657 0.094378002
vt 0.388538003 0.112378001
vt 0.388538003 0.112378001
vt 0.386657 0.094378002
vt 0.388538003 0.094378002
vt 0.388538003 0.112378001
vt 0.388538003 0.094378002
vt 0.39041999 0.112378001
vt 0.39041999 0.112378001
vt 0.388538003 0.094378002
vt 0.39041999 0.094378002
vt 0.39041999 0.112378001
vt 0.39041999 0.094378002
vt 0.392073989 0.112378001
vt 0.392073989 0.112378001
vt 0.39041999 0.094378002
vt 0.392073989 0.094378002
vt 0.392073989 0.112378001
vt 0.392073989 0.094378002
vt 0.393301994 0.112378001
vt 0.393301994 0.112378001
vt 0.392073989 0.094378002
vt 0.393301994 0.094378002
vt 0.112378001 -0.244174004
vt 0.094378002 -0.244174004
vt 0.112378001 -0.245480001
vt 0.112378001 -0.245480001
vt 0.094378002 -0.244174004
vt 0.094378002 -0.245480001
vt 0.112378001 -0.245480001
vt 0.094378002 -0.245480001
vt 0.112378001 -0.246868998
vt 0.112378001 -0.246868998
vt 0.094378002 -0.245480001
vt 0.094378002 -0.246868998
vt 0.112378001 -0.246868998
vt 0.094378002 -0.246868998
vt 0.112378001 -0.248174995
vt 0.112378001 -0.248174995
vt 0.094378002 -0.246868998
vt 0.094378002 -0.248174995
vt -0.393301994 0.112378001
vt -0.393301994 0.094378002
vt -0.392073989 0.112378001
vt -0.392073989 0.112378001
vt -0.393301994 0.094378002
vt -0.392073989 0.094378002
vt -0.392073989 0.112378001
vt -0.392073989 0.094378002
vt -0.39041999 0.112378001
vt -0.39041999 0.112378001
vt -0.392073989 0.094378002
vt -0.39041999 0.094378002
vt -0.39041999 0.112378001
vt -0.39041999 0.094378002
vt -0.388538003 0.112378001
vt -0.388538003 0.112378001
vt -0.39041999 0.094378002
vt -0.388538003 0.094378002
vt -0.388538003 0.112378001
vt -0.388538003 0.094378002
vt -0.386657 0.112378001
vt -0.386657 0.112378001
vt -0.388538003 0.094378002
vt -0.386657 0.094378002
vt -0.386657 0.112378001
vt -0.386657 0.094378002
vt -0.385003 0.112378001
vt -0.385003 0.112378001
vt -0.386657 0.094378002
vt -0.385003 0.094378002
vt -0.385003 0.112378001
vt -0.385003 0.094378002
vt -0.383774996 0.112378001
vt -0.383774996 0.112378001
vt -0.385003 0.094378002
vt -0.383774996 0.094378002
vt -0.112378001 -0.248174995
vt -0.094378002 -0.248174995
vt -0.112378001 -0.246868998
vt -0.112378001 -0.246868998
vt -0.094378002 -0.248174995
vt -0.094378002 -0.246868998
vt -0.112378001 -0.246868998
vt -0.094378002 -0.246868998
vt -0.112378001 -0.246173993
vt -0.0943680033 0.246173993
vt -0.0943680033 0.246868998
vt -0.112368003 0.246868998
vt -0.112368003 0.246868998
vt -0.0943680033 0.246868998
vt -0.0943680033 0.246868998
vt -0.112368003 0.246868998
vt -0.0943680033 0.246868998
vt -0.112368003 0.248173997
vt -0.112368003 0.248173997
vt -0.0943680033 0.246868998
vt -0.0943680033 0.248173997
vt 0.383774996 0.112368003
vt 0.383774996 0.0943680033
vt 0.385003 0.112368003
vt 0.385003 0.112368003
vt 0.383774996 0.0943680033
vt 0.385003 0.0943680033
vt 0.385003 0.112368003
vt 0.385003 0.0943680033
vt 0.386657 0.112368003
vt 0.386657 0.112368003
vt 0.385003 0.0943680033
vt 0.386657 0.0943680033
vt 0.386657 0.112368003
vt 0.386657 0.0943680033
vt 0.388538003 0.112368003
vt 0.388538003 0.112368003
vt 0.386657 0.0943680033
vt 0.388538003 0.0943680033
vt 0.388538003 0.112368003
vt 0.388538003 0.0943680033
vt 0.39041999 0.112368003
vt 0.39041999 0.112368003
vt 0.388538003 0.0943680033
vt 0.39041999 0.0943680033
vt 0.39041999 0.112368003
vt 0.39041999 0.0943680033
vt 0.392073989 0.112368003
vt 0.392073989 0.112368003
vt 0.39041999 0.0943680033
vt 0.392073989 0.0943680033
vt 0.392073989 0.112368003
vt 0.392073989 0.0943680033
vt 0.393301994 0.112368003
vt 0.393301994 0.112368003
vt 0.392073989 0.0943680033
vt 0.393301994 0.0943680033
vt 0.112368003 0.248173997
vt 0.0943680033 0.248173997
vt 0.112368003 0.246868998
vt 0.112368003 0.246868998
vt 0.0943680033 0.248173997
vt 0.0943680033 0.246868998
vt 0.112368003 0.246868998
vt 0.0943680033 0.246868998
vt 0.112368003 0.245480001
vt 0.112368003 0.245480001
vt 0.0943680033 0.246868998
vt 0.0943680033 0.245480001
vt 0.112368003 0.245480001
vt 0.0943680033 0.245480001
vt 0.112368003 0.244174004
vt 0.112368003 0.244174004
vt 0.0943680033 0.245480001
vt 0.0943680033 0.244174004
vt -0.393301994 0.112368003
vt -0.393301994 0.0943680033
vt -0.392073989 0.112368003
vt -0.392073989 0.112368003
vt -0.393301994 0.0943680033
vt -0.392073989 0.0943680033
vt -0.392073989 0.112368003
vt -0.392073989 0.0943680033
vt -0.39041999 0.112368003
vt -0.39041999 0.112368003
vt -0.392073989 0.0943680033
vt -0.39041999 0.0943680033
vt -0.39041999 0.112368003
vt -0.39041999 0.0943680033
vt -0.388538003 0.112368003
vt -0.388538003 0.112368003
vt -0.39041999 0.0943680033
vt -0.388538003 0.0943680033
vt -0.388538003 0.112368003
vt -0.388538003 0.0943680033
vt -0.386657 0.112368003
vt -0.386657 0.112368003
vt -0.388538003 0.0943680033
vt -0.386657 0.0943680033
vt -0.386657 0.112368003
vt -0.386657 0.0943680033
vt -0.385003 0.112368003
vt -0.385003 0.112368003
vt -0.386657 0.0943680033
vt -0.385003 0.0943680033
vt -0.385003 0.112368003
vt -0.385003 0.0943680033
vt -0.383774996 0.112368003
vt -0.383774996 0.112368003
vt -0.385003 0.0943680033
vt -0.383774996 0.0943680033
vt -0.112368003 0.244174004
vt -0.0943680033 0.244174004
vt -0.112368003 0.245480001
vt -0.112368003 0.245480001
vt -0.0943680033 0.244174004
vt -0.0943680033 0.245480001
vt -0.112368003 0.245480001
vt -0.0943680033 0.245480001
vt -0.112368003 0.246173993
vt 0.508440971 0.112368003
vt 0.506560028 0.112368003
vt 0.506560028 0.0943680033
vt -0.0943680033 -0.205584005
vt -0.112368003 -0.205584005
vt -0.112368003 -0.205584005
vt 0.506560028 0.0943680033
vt 0.506560028 0.112368003
vt 0.504905999 0.0943680033
vt 0.504905999 0.0943680033
vt 0.506560028 0.112368003
vt 0.504905999 0.112368003
vt 0.504905999 0.0943680033
vt 0.504905999 0.112368003
vt 0.503678024 0.0943680033
vt 0.503678024 0.0943680033
vt 0.504905999 0.112368003
vt 0.503678024 0.112368003
vt 0.0943680033 -0.203825995
vt 0.112368003 -0.203825995
vt 0.0943680033 -0.202519998
vt 0.0943680033 -0.202519998
vt 0.112368003 -0.203825995
vt 0.112368003 -0.202519998
vt 0.0943680033 -0.202519998
vt 0.112368003 -0.202519998
vt 0.0943680033 -0.201131001
vt 0.0943680033 -0.201131001
vt 0.112368003 -0.202519998
vt 0.112368003 -0.201131001
vt 0.0943680033 -0.201131001
vt 0.112368003 -0.201131001
vt 0.0943680033 -0.199826002
vt 0.0943680033 -0.199826002
vt 0.112368003 -0.201131001
vt 0.112368003 -0.199826002
vt -0.503678024 0.0943680033
vt -0.503678024 0.112368003
vt -0.504905999 0.0943680033
vt -0.504905999 0.0943680033
vt -0.503678024 0.112368003
vt -0.504905999 0.112368003
vt -0.504905999 0.0943680033
vt -0.504905999 0.112368003
vt -0.506560028 0.0943680033
vt -0.506560028 0.0943680033
vt -0.504905999 0.112368003
vt -0.506560028 0.112368003
vt -0.506560028 0.0943680033
vt -0.506560028 0.112368003
vt -0.508440971 0.0943680033
vt -0.508440971 0.0943680033
vt -0.506560028 0.112368003
vt -0.508440971 0.112368003
vt -0.508440971 0.0943680033
vt -0.508440971 0.112368003
vt -0.510321975 0.0943680033
vt -0.510321975 0.0943680033
vt -0.508440971 0.112368003
vt -0.510321975 0.112368003
vt -0.510321975 0.0943680033
vt -0.510321975 0.112368003
vt -0.511976004 0.0943680033
vt -0.511976004 0.0943680033
vt -0.510321975 0.112368003
vt -0.511976004 0.112368003
vt -0.511976004 0.0943680033
vt -0.511976004 0.112368003
vt -0.513203979 0.0943680033
vt -0.513203979 0.0943680033
vt -0.511976004 0.112368003
vt -0.513203979 0.112368003
vt -0.0943680033 -0.199826002
vt -0.112368003 -0.199826002
vt -0.0943680033 -0.201131001
vt -0.0943680033 -0.201131001
vt -0.112368003 -0.199826002
vt -0.112368003 -0.201131001
vt -0.0943680033 -0.201131001
vt -0.112368003 -0.201131001
vt -0.0943680033 -0.202519998
vt -0.0943680033 -0.202519998
vt -0.112368003 -0.201131001
vt -0.112368003 -0.202519998
vt -0.0943680033 -0.202519998
vt -0.112368003 -0.202519998
vt -0.0943680033 -0.203825995
vt -0.0943680033 -0.203825995
vt -0.112368003 -0.202519998
vt -0.112368003 -0.203825995
vt 0.513203979 0.0943680033
vt 0.513203979 0.112368003
vt 0.511976004 0.0943680033
vt 0.511976004 0.0943680033
vt 0.513203979 0.112368003
vt 0.511976004 0.112368003
vt 0.511976004 0.0943680033
vt 0.511976004 0.112368003
vt 0.510321975 0.0943680033
vt 0.510321975 0.0943680033
vt 0.511976004 0.112368003
vt 0.510321975 0.112368003
vt 0.510321975 0.0943680033
vt 0.510321975 0.112368003
vt 0.508440971 0.0943680033
vt 0.388538003 0.0943680033
vt 0.39041999 0.0943680033
vt 0.39041999 0.112368003
vt -0.112368003 0.205584005
vt -0.0943680033 0.205584005
vt -0.0943680033 0.205584005
vt 0.39041999 0.112368003
vt 0.39041999 0.0943680033
vt 0.392073989 0.112368003
vt 0.392073989 0.112368003
vt 0.39041999 0.0943680033
vt 0.392073989 0.0943680033
vt 0.392073989 0.112368003
vt 0.392073989 0.0943680033
vt 0.393301994 0.112368003
vt 0.393301994 0.112368003
vt 0.392073989 0.0943680033
vt 0.393301994 0.0943680033
vt 0.112368003 0.203824997
vt 0.0943680033 0.203824997
vt 0.112368003 0.202519998
vt 0.112368003 0.202519998
vt 0.0943680033 0.203824997
vt 0.0943680033 0.202519998
vt 0.112368003 0.202519998
vt 0.0943680033 0.202519998
vt 0.112368003 0.201131001
vt 0.112368003 0.201131001
vt 0.0943680033 0.202519998
vt 0.0943680033 0.201131001
vt 0.112368003 0.201131001
vt 0.0943680033 0.201131001
vt 0.112368003 0.199825004
vt 0.112368003 0.199825004
vt 0.0943680033 0.201131001
vt 0.0943680033 0.199825004
vt -0.393301994 0.112368003
vt -0.393301994 0.0943680033
vt -0.392073989 0.112368003
vt -0.392073989 0.112368003
vt -0.393301994 0.0943680033
vt -0.392073989 0.0943680033
vt -0.392073989 0.112368003
vt -0.392073989 0.0943680033
vt -0.39041999 0.112368003
vt -0.39041999 0.112368003
vt -0.392073989 0.0943680033
vt -0.39041999 0.0943680033
vt -0.39041999 0.112368003
vt -0.39041999 0.0943680033
vt -0.388538003 0.112368003
vt -0.388538003 0.112368003
vt -0.39041999 0.0943680033
vt -0.388538003 0.0943680033
vt -0.388538003 0.112368003
vt -0.388538003 0.0943680033
vt -0.386657 0.112368003
vt -0.386657 0.112368003
vt -0.388538003 0.0943680033
vt -0.386657 0.0943680033
vt -0.386657 0.112368003
vt -0.386657 0.0943680033
vt -0.385003 0.112368003
vt -0.385003 0.112368003
vt -0.386657 0.0943680033
vt -0.385003 0.0943680033
vt -0.385003 0.112368003
vt -0.385003 0.0943680033
vt -0.383774996 0.112368003
vt -0.383774996 0.112368003
vt -0.385003 0.0943680033
vt -0.383774996 0.0943680033
vt -0.112368003 0.199825004
vt -0.0943680033 0.199825004
vt -0.112368003 0.201131001
vt -0.112368003 0.201131001
vt -0.0943680033 0.199825004
vt -0.0943680033 0.201131001
vt -0.112368003 0.201131001
vt -0.0943680033 0.201131001
vt -0.112368003 0.202519998
vt -0.112368003 0.202519998
vt -0.0943680033 0.201131001
vt -0.0943680033 0.202519998
vt -0.112368003 0.202519998
vt -0.0943680033 0.202519998
vt -0.112368003 0.203824997
vt -0.112368003 0.203824997
vt -0.0943680033 0.202519998
vt -0.0943680033 0.203824997
vt 0.383774996 0.112368003
vt 0.383774996 0.0943680033
vt 0.385003 0.112368003
vt 0.385003 0.112368003
vt 0.383774996 0.0943680033
vt 0.385003 0.0943680033
vt 0.385003 0.112368003
vt 0.385003 0.0943680033
vt 0.386657 0.112368003
vt 0.386657 0.112368003
vt 0.385003 0.0943680033
vt 0.386657 0.0943680033
vt 0.386657 0.112368003
vt 0.386657 0.0943680033
vt 0.388538003 0.112368003
vt 0.112368003 0.201824993
vt 0.112368003 0.202519998
vt 0.0943680033 0.202519998
vt -0.0943680033 0.202519998
vt -0.112368003 0.202519998
vt -0.112368003 0.202519998
vt 0.0943680033 0.202519998
vt 0.112368003 0.202519998
vt 0.0943680033 0.203824997
vt 0.0943680033 0.203824997
vt 0.112368003 0.202519998
vt 0.112368003 0.203824997
vt 0.332322001 0.0943680033
vt 0.332322001 0.112368003
vt 0.331093997 0.0943680033
vt 0.331093997 0.0943680033
vt 0.332322001 0.112368003
vt 0.331093997 0.112368003
vt 0.331093997 0.0943680033
vt 0.331093997 0.112368003
vt 0.329439998 0.0943680033
vt 0.329439998 0.0943680033
vt 0.331093997 0.112368003
vt 0.329439998 0.112368003
vt 0.329439998 0.0943680033
vt 0.329439998 0.112368003
vt 0.327558994 0.0943680033
vt 0.327558994 0.0943680033
vt 0.329439998 0.112368003
vt 0.327558994 0.112368003
vt 0.327558994 0.0943680033
vt 0.327558994 0.112368003
vt 0.325677991 0.0943680033
vt 0.325677991 0.0943680033
vt 0.327558994 0.112368003
vt 0.325677991 0.112368003
vt 0.325677991 0.0943680033
vt 0.325677991 0.112368003
vt 0.324023992 0.0943680033
vt 0.324023992 0.0943680033
vt 0.325677991 0.112368003
vt 0.324023992 0.112368003
vt 0.324023992 0.0943680033
vt 0.324023992 0.112368003
vt 0.322795987 0.0943680033
vt 0.322795987 0.0943680033
vt 0.324023992 0.112368003
vt 0.322795987 0.112368003
vt -0.0943680033 0.203824997
vt -0.112368003 0.203824997
vt -0.0943680033 0.202519998
vt -0.0943680033 0.202519998
vt -0.112368003 0.203824997
vt -0.112368003 0.202519998
vt -0.0943680033 0.202519998
vt -0.112368003 0.202519998
vt -0.0943680033 0.201131001
vt -0.0943680033 0.201131001
vt -0.112368003 0.202519998
vt -0.112368003 0.201131001
vt -0.0943680033 0.201131001
vt -0.112368003 0.201131001
vt -0.0943680033 0.199825004
vt -0.0943680033 0.199825004
vt -0.112368003 0.201131001
vt -0.112368003 0.199825004
vt -0.322795987 0.0943680033
vt -0.322795987 0.112368003
vt -0.324023992 0.0943680033
vt -0.324023992 0.0943680033
vt -0.322795987 0.112368003
vt -0.324023992 0.112368003
vt -0.324023992 0.0943680033
vt -0.324023992 0.112368003
vt -0.325677991 0.0943680033
vt -0.325677991 0.0943680033
vt -0.324023992 0.112368003
vt -0.325677991 0.112368003
vt -0.325677991 0.0943680033
vt -0.325677991 0.112368003
vt -0.327558994 0.0943680033
vt -0.327558994 0.0943680033
vt -0.325677991 0.112368003
vt -0.327558994 0.112368003
vt -0.327558994 0.0943680033
vt -0.327558994 0.112368003
vt -0.329439998 0.0943680033
vt -0.329439998 0.0943680033
vt -0.327558994 0.112368003
vt -0.329439998 0.112368003
vt -0.329439998 0.0943680033
vt -0.329439998 0.112368003
vt -0.331093997 0.0943680033
vt -0.331093997 0.0943680033
vt -0.329439998 0.112368003
vt -0.331093997 0.112368003
vt -0.331093997 0.0943680033
vt -0.331093997 0.112368003
vt -0.332322001 0.0943680033
vt -0.332322001 0.0943680033
vt -0.331093997 0.112368003
vt -0.332322001 0.112368003
vt 0.0943680033 0.199825004
vt 0.112368003 0.199825004
vt 0.0943680033 0.201131001
vt 0.0943680033 0.201131001
vt 0.112368003 0.199825004
vt 0.112368003 0.201131001
vt 0.0943680033 0.201131001
vt 0.112368003 0.201131001
vt 0.0943680033 0.201824993
vt 0.0943680033 -0.246173993
vt 0.0943680033 -0.246868998
vt 0.112368003 -0.246868998
vt -0.112368003 -0.246868998
vt -0.0943680033 -0.246868998
vt -0.0943680033 -0.246868998
vt 0.112368003 -0.246868998
vt 0.0943680033 -0.246868998
vt 0.112368003 -0.248174995
vt 0.112368003 -0.248174995
vt 0.0943680033 -0.246868998
vt 0.0943680033 -0.248174995
vt 0.503678024 0.112368003
vt 0.503678024 0.0943680033
vt 0.504905999 0.112368003
vt 0.504905999 0.112368003
vt 0.503678024 0.0943680033
vt 0.504905999 0.0943680033
vt 0.504905999 0.112368003
vt 0.504905999 0.0943680033
vt 0.506560028 0.112368003
vt 0.506560028 0.112368003
vt 0.504905999 0.0943680033
vt 0.506560028 0.0943680033
vt 0.506560028 0.112368003
vt 0.506560028 0.0943680033
vt 0.508440971 0.112368003
vt 0.508440971 0.112368003
vt 0.506560028 0.0943680033
vt 0.508440971 0.0943680033
vt 0.508440971 0.112368003
vt 0.508440971 0.0943680033
vt 0.510321975 0.112368003
vt 0.510321975 0.112368003
vt 0.508440971 0.0943680033
vt 0.510321975 0.0943680033
vt 0.510321975 0.112368003
vt 0.510321975 0.0943680033
vt 0.511976004 0.112368003
vt 0.511976004 0.112368003
vt 0.510321975 0.0943680033
vt 0.511976004 0.0943680033
vt 0.511976004 0.112368003
vt 0.511976004 0.0943680033
vt 0.513203979 0.112368003
vt 0.513203979 0.112368003
vt 0.511976004 0.0943680033
vt 0.513203979 0.0943680033
vt -0.112368003 -0.248174995
vt -0.0943680033 -0.248174995
vt -0.112368003 -0.246868998
vt -0.112368003 -0.246868998
vt -0.0943680033 -0.248174995
vt -0.0943680033 -0.246868998
vt -0.112368003 -0.246868998
vt -0.0943680033 -0.246868998
vt -0.112368003 -0.245480001
vt -0.112368003 -0.245480001
vt -0.0943680033 -0.246868998
vt -0.0943680033 -0.245480001
vt -0.112368003 -0.245480001
vt -0.0943680033 -0.245480001
vt -0.112368003 -0.244174004
vt -0.112368003 -0.244174004
vt -0.0943680033 -0.245480001
vt -0.0943680033 -0.244174004
vt -0.513203979 0.112368003
vt -0.513203979 0.0943680033
vt -0.511976004 0.112368003
vt -0.511976004 0.112368003
vt -0.513203979 0.0943680033
vt -0.511976004 0.0943680033
vt -0.511976004 0.112368003
vt -0.511976004 0.0943680033
vt -0.510321975 0.112368003
vt -0.510321975 0.112368003
vt -0.511976004 0.0943680033
vt -0.510321975 0.0943680033
vt -0.510321975 0.112368003
vt -0.510321975 0.0943680033
vt -0.508440971 0.112368003
vt -0.508440971 0.112368003
vt -0.510321975 0.0943680033
vt -0.508440971 0.0943680033
vt -0.508440971 0.112368003
vt -0.508440971 0.0943680033
vt -0.506560028 0.112368003
vt -0.506560028 0.112368003
vt -0.508440971 0.0943680033
vt -0.506560028 0.0943680033
vt -0.506560028 0.112368003
vt -0.506560028 0.0943680033
vt -0.504905999 0.112368003
vt -0.504905999 0.112368003
vt -0.506560028 0.0943680033
vt -0.504905999 0.0943680033
vt -0.504905999 0.112368003
vt -0.504905999 0.0943680033
vt -0.503678024 0.112368003
vt -0.503678024 0.112368003
vt -0.504905999 0.0943680033
vt -0.503678024 0.0943680033
vt 0.112368003 -0.244174004
vt 0.0943680033 -0.244174004
vt 0.112368003 -0.245480001
vt 0.112368003 -0.245480001
vt 0.0943680033 -0.244174004
vt 0.0943680033 -0.245480001
vt 0.112368003 -0.245480001
vt 0.0943680033 -0.245480001
vt 0.112368003 -0.246173993
vt 0.447461993 0.112368003
vt 0.445580006 0.112368003
vt 0.445580006 0.0943680033
vt -0.0943680033 0.242415994
vt -0.112368003 0.242415994
vt -0.112368003 0.242415994
vt 0.445580006 0.0943680033
vt 0.445580006 0.112368003
vt 0.443926007 0.0943680033
vt 0.443926007 0.0943680033
vt 0.445580006 0.112368003
vt 0.443926007 0.112368003
vt 0.443926007 0.0943680033
vt 0.443926007 0.112368003
vt 0.442698002 0.0943680033
vt 0.442698002 0.0943680033
vt 0.443926007 0.112368003
vt 0.442698002 0.112368003
vt 0.0943680033 0.244174004
vt 0.112368003 0.244174004
vt 0.0943680033 0.245480001
vt 0.0943680033 0.245480001
vt 0.112368003 0.244174004
vt 0.112368003 0.245480001
vt 0.0943680033 0.245480001
vt 0.112368003 0.245480001
vt 0.0943680033 0.246868998
vt 0.0943680033 0.246868998
vt 0.112368003 0.245480001
vt 0.112368003 0.246868998
vt 0.0943680033 0.246868998
vt 0.112368003 0.246868998
vt 0.0943680033 0.248173997
vt 0.0943680033 0.248173997
vt 0.112368003 0.246868998
vt 0.112368003 0.248173997
vt -0.442698002 0.0943680033
vt -0.442698002 0.112368003
vt -0.443926007 0.0943680033
vt -0.443926007 0.0943680033
vt -0.442698002 0.112368003
vt -0.443926007 0.112368003
vt -0.443926007 0.0943680033
vt -0.443926007 0.112368003
vt -0.445580006 0.0943680033
vt -0.445580006 0.0943680033
vt -0.443926007 0.112368003
vt -0.445580006 0.112368003
vt -0.445580006 0.0943680033
vt -0.445580006 0.112368003
vt -0.447461993 0.0943680033
vt -0.447461993 0.0943680033
vt -0.445580006 0.112368003
vt -0.447461993 0.112368003
vt -0.447461993 0.0943680033
vt -0.447461993 0.112368003
vt -0.449342996 0.0943680033
vt -0.449342996 0.0943680033
vt -0.447461993 0.112368003
vt -0.449342996 0.112368003
vt -0.449342996 0.0943680033
vt -0.449342996 0.112368003
vt -0.450996995 0.0943680033
vt -0.450996995 0.0943680033
vt -0.449342996 0.112368003
vt -0.450996995 0.112368003
vt -0.450996995 0.0943680033
vt -0.450996995 0.112368003
vt -0.452225 0.0943680033
vt -0.452225 0.0943680033
vt -0.450996995 0.112368003
vt -0.452225 0.112368003
vt -0.0943680033 0.248173997
vt -0.112368003 0.248173997
vt -0.0943680033 0.246868998
vt -0.0943680033 0.246868998
vt -0.112368003 0.248173997
vt -0.112368003 0.246868998
vt -0.0943680033 0.246868998
vt -0.112368003 0.246868998
vt -0.0943680033 0.245480001
vt -0.0943680033 0.245480001
vt -0.112368003 0.246868998
vt -0.112368003 0.245480001
vt -0.0943680033 0.245480001
vt -0.112368003 0.245480001
vt -0.0943680033 0.244174004
vt -0.0943680033 0.244174004
vt -0.112368003 0.245480001
vt -0.112368003 0.244174004
vt 0.452225 0.0943680033
vt 0.452225 0.112368003
vt 0.450996995 0.0943680033
vt 0.450996995 0.0943680033
vt 0.452225 0.112368003
vt 0.450996995 0.112368003
vt 0.450996995 0.0943680033
vt 0.450996995 0.112368003
vt 0.449342996 0.0943680033
vt 0.449342996 0.0943680033
vt 0.450996995 0.112368003
vt 0.449342996 0.112368003
vt 0.449342996 0.0943680033
vt 0.449342996 0.112368003
vt 0.447461993 0.0943680033
vt 0.112368003 0.246173993
vt 0.112368003 0.246868998
vt 0.0943680033 0.246868998
vt -0.0943680033 0.246868998
vt -0.112368003 0.246868998
vt -0.112368003 0.246868998
vt 0.0943680033 0.246868998
vt 0.112368003 0.246868998
vt 0.0943680033 0.248173997
vt 0.0943680033 0.248173997
vt 0.112368003 0.246868998
vt 0.112368003 0.248173997
vt -0.503678024 0.0943680033
vt -0.503678024 0.112368003
vt -0.504905999 0.0943680033
vt -0.504905999 0.0943680033
vt -0.503678024 0.112368003
vt -0.504905999 0.112368003
vt -0.504905999 0.0943680033
vt -0.504905999 0.112368003
vt -0.506560028 0.0943680033
vt -0.506560028 0.0943680033
vt -0.504905999 0.112368003
vt -0.506560028 0.112368003
vt -0.506560028 0.0943680033
vt -0.506560028 0.112368003
vt -0.508440971 0.0943680033
vt -0.508440971 0.0943680033
vt -0.506560028 0.112368003
vt -0.508440971 0.112368003
vt -0.508440971 0.0943680033
vt -0.508440971 0.112368003
vt -0.510321975 0.0943680033
vt -0.510321975 0.0943680033
vt -0.508440971 0.112368003
vt -0.510321975 0.112368003
vt -0.510321975 0.0943680033
vt -0.510321975 0.112368003
vt -0.511976004 0.0943680033
vt -0.511976004 0.0943680033
vt -0.510321975 0.112368003
vt -0.511976004 0.112368003
vt -0.511976004 0.0943680033
vt -0.511976004 0.112368003
vt -0.513203979 0.0943680033
vt -0.513203979 0.0943680033
vt -0.511976004 0.112368003
vt -0.513203979 0.112368003
vt -0.0943680033 0.248173997
vt -0.112368003 0.248173997
vt -0.0943680033 0.246868998
vt -0.0943680033 0.246868998
vt -0.112368003 0.248173997
vt -0.112368003 0.246868998
vt -0.0943680033 0.246868998
vt -0.112368003 0.246868998
vt -0.0943680033 0.245480001
vt -0.0943680033 0.245480001
vt -0.112368003 0.246868998
vt -0.112368003 0.245480001
vt -0.0943680033 0.245480001
vt -0.112368003 0.245480001
vt -0.0943680033 0.244174004
vt -0.0943680033 0.244174004
vt -0.112368003 0.245480001
vt -0.112368003 0.244174004
vt 0.513203979 0.0943680033
vt 0.513203979 0.112368003
vt 0.511976004 0.0943680033
vt 0.511976004 0.0943680033
vt 0.513203979 0.112368003
vt 0.511976004 0.112368003
vt 0.511976004 0.0943680033
vt 0.511976004 0.112368003
vt 0.510321975 0.0943680033
vt 0.510321975 0.0943680033
vt 0.511976004 0.112368003
vt 0.510321975 0.112368003
vt 0.510321975 0.0943680033
vt 0.510321975 0.112368003
vt 0.508440971 0.0943680033
vt 0.508440971 0.0943680033
vt 0.510321975 0.112368003
vt 0.508440971 0.112368003
vt 0.508440971 0.0943680033
vt 0.508440971 0.112368003
vt 0.506560028 0.0943680033
vt 0.506560028 0.0943680033
vt 0.508440971 0.112368003
vt 0.506560028 0.112368003
vt 0.506560028 0.0943680033
vt 0.506560028 0.112368003
vt 0.504905999 0.0943680033
vt 0.504905999 0.0943680033
vt 0.506560028 0.112368003
vt 0.504905999 0.112368003
vt 0.504905999 0.0943680033
vt 0.504905999 0.112368003
vt 0.503678024 0.0943680033
vt 0.503678024 0.0943680033
vt 0.504905999 0.112368003
vt 0.503678024 0.112368003
vt 0.0943680033 0.244174004
vt 0.112368003 0.244174004
vt 0.0943680033 0.245480001
vt 0.0943680033 0.245480001
vt 0.112368003 0.244174004
vt 0.112368003 0.245480001
vt 0.0943680033 0.245480001
vt 0.112368003 0.245480001
vt 0.0943680033 0.246173993
vt 0.148368001 0.252000004
vt 0.148368001 -0.252000004
vt 0.150168002 0.252000004
vt 0.150168002 0.252000004
vt 0.148368001 -0.252000004
vt 0.150168002 -0.252000004
vt 0.516451001 0.150168002
vt -0.396548986 0.150168002
vt 0.516451001 0.148368001
vt 0.516451001 0.148368001
vt -0.396548986 0.150168002
vt -0.396548986 0.148368001
vt 0.148368001 0.253600001
vt 0.148368001 -0.253600001
vt 0.150168002 0.253600001
vt 0.150168002 0.253600001
vt 0.148368001 -0.253600001
vt 0.150168002 -0.253600001
vt 0.398748994 0.150168002
vt -0.518651009 0.150168002
vt 0.398748994 0.148368001
vt 0.398748994 0.148368001
vt -0.518651009 0.150168002
vt -0.518651009 0.148368001
vt -0.150168002 0.253600001
vt -0.150168002 -0.253600001
vt -0.148368001 0.253600001
vt -0.148368001 0.253600001
vt -0.150168002 -0.253600001
vt -0.148368001 -0.253600001
vt -0.150168002 0.252000004
vt -0.150168002 -0.252000004
vt -0.148368001 0.252000004
vt -0.148368001 0.252000004
vt -0.150168002 -0.252000004
vt -0.148368001 -0.252000004
vt 0.398748994 -0.253600001
vt 0.396548986 0.252000004
vt 0.396548986 -0.252000004
vt 0.398748994 -0.253600001
vt 0.396548986 -0.252000004
vt -0.518651009 -0.253600001
vt -0.518651009 0.253600001
vt -0.518651009 -0.253600001
vt -0.516451001 -0.252000004
vt -0.518651009 -0.253600001
vt 0.396548986 -0.252000004
vt -0.516451001 -0.252000004
vt -0.518651009 0.253600001
vt 0.396548986 0.252000004
vt 0.398748994 0.253600001
vt 0.398748994 0.253600001
vt 0.396548986 0.252000004
vt 0.398748994 -0.253600001
vt -0.516451001 -0.252000004
vt -0.516451001 0.252000004
vt -0.518651009 0.253600001
vt -0.518651009 0.253600001
vt -0.516451001 0.252000004
vt 0.396548986 0.252000004
vt -0.396548986 0.252000004
vt -0.398748994 0.253600001
vt -0.396548986 -0.252000004
vt 0.518651009 0.253600001
vt 0.516451001 0.252000004
vt 0.518651009 -0.253600001
vt -0.398748994 0.253600001
vt -0.398748994 -0.253600001
vt -0.396548986 -0.252000004
vt -0.396548986 -0.252000004
vt -0.398748994 -0.253600001
vt 0.518651009 -0.253600001
vt -0.396548986 -0.252000004
vt 0.518651009 -0.253600001
vt 0.516451001 -0.252000004
vt 0.516451001 -0.252000004
vt 0.518651009 -0.253600001
vt 0.516451001 0.252000004
f 1/1 2/2 3/3
f 4/4 5/5 6/6
f 7/7 8/8 9/9
f 10/10 11/11 12/12
f 13/13 14/14 15/15
f 16/16 17/17 18/18
f 19/19 20/20 21/21
f 22/22 5/23 4/24
f 23/25 24/26 25/27
f 26/28 27/29 28/30
f 29/31 27/32 26/33
f 30/34 24/35 23/36
f 31/37 20/38 19/39
f 32/40 33/41 34/42
f 35/43 33/44 32/45
f 36/46 8/47 7/48
f 3/49 2/50 37/51
f 38/52 39/53 40/54
f 41/55 39/56 38/57
f 11/58 10/59 42/60
f 43/61 14/62 13/63
f 44/64 17/65 16/66
f 45/67 46/68 47/69
f 48/70 49/71 50/72
f 50/73 49/74 51/75
f 52/76 53/77 54/78
f 54/79 53/80 55/81
f 56/82 57/83 58/84
f 58/85 57/86 59/87
f 60/88 61/89 62/90
f 62/91 61/92 63/93
f 47/94 46/95 64/96
f 4/97 65/98 22/99
f 22/100 65/101 65/102
f 22/103 65/104 66/105
f 66/106 65/107 67/108
f 66/109 67/110 68/111
f 68/112 67/113 69/114
f 68/115 69/116 70/117
f 70/118 69/119 71/120
f 70/121 71/122 72/123
f 72/124 71/125 73/126
f 72/127 73/128 74/129
f 74/130 73/131 75/132
f 74/133 75/134 76/135
f 76/136 75/137 77/138
f 76/139 77/140 78/141
f 78/142 77/143 79/144
f 78/145 79/146 80/147
f 80/148 79/149 81/150
f 80/151 81/152 82/153
f 82/154 81/155 83/156
f 82/157 83/158 84/159
f 84/160 83/161 85/162
f 84/163 85/164 86/165
f 86/166 85/167 87/168
f 86/169 87/170 88/171
f 88/172 87/173 89/174
f 88/175 89/176 90/177
f 90/178 89/179 91/180
f 90/181 91/182 92/183
f 92/184 91/185 93/186
f 92/187 93/188 94/189
f 94/190 93/191 95/192
f 94/193 95/194 96/195
f 96/196 95/197 97/198
f 96/199 97/200 98/201
f 98/202 97/203 6/204
f 98/205 6/206 5/207
f 99/208 100/209 101/210
f 101/211 100/212 102/213
f 103/214 104/215 105/216
f 105/217 104/218 106/219
f 107/220 108/221 105/222
f 105/223 108/224 103/225
f 109/226 110/227 111/228
f 111/229 110/230 112/231
f 57/232 113/233 59/234
f 59/235 113/236 113/237
f 59/238 113/239 114/240
f 114/241 113/242 115/243
f 114/244 115/245 116/246
f 116/247 115/248 117/249
f 116/250 117/251 118/252
f 118/253 117/254 119/255
f 118/256 119/257 120/258
f 120/259 119/260 121/261
f 120/262 121/263 122/264
f 122/265 121/266 123/267
f 122/268 123/269 124/270
f 124/271 123/272 125/273
f 124/274 125/275 126/276
f 126/277 125/278 127/279
f 126/280 127/281 128/282
f 128/283 127/284 129/285
f 128/286 129/287 130/288
f 130/289 129/290 131/291
f 130/292 131/293 132/294
f 132/295 131/296 133/297
f 132/298 133/299 134/300
f 134/301 133/302 135/303
f 134/304 135/305 136/306
f 136/307 135/308 137/309
f 136/310 137/311 138/312
f 138/313 137/314 139/315
f 138/316 139/317 140/318
f 140/319 139/320 141/321
f 140/322 141/323 142/324
f 142/325 141/326 143/327
f 142/328 143/329 144/330
f 144/331 143/332 56/333
f 144/334 56/335 58/336
f 53/337 145/338 55/339
f 55/340 145/341 145/342
f 55/343 145/344 146/345
f 146/346 145/347 147/348
f 146/349 147/350 148/351
f 148/352 147/353 149/354
f 148/355 149/356 150/357
f 150/358 149/359 151/360
f 150/361 151/362 152/363
f 152/364 151/365 153/366
f 152/367 153/368 154/369
f 154/370 153/371 155/372
f 154/373 155/374 156/375
f 156/376 155/377 157/378
f 156/379 157/380 158/381
f 158/382 157/383 159/384
f 158/385 159/386 160/387
f 160/388 159/389 161/390
f 160/391 161/392 162/393
f 162/394 161/395 163/396
f 162/397 163/398 164/399
f 164/400 163/401 165/402
f 164/403 165/404 166/405
f 166/406 165/407 167/408
f 166/409 167/410 168/411
f 168/412 167/413 169/414
f 168/415 169/416 170/417
f 170/418 169/419 171/420
f 170/421 171/422 172/423
f 172/424 171/425 173/426
f 172/427 173/428 174/429
f 174/430 173/431 175/432
f 174/433 175/434 176/435
f 176/436 175/437 52/438
f 176/439 52/440 54/441
f 47/442 177/443 45/444
f 45/445 177/446 177/447
f 45/448 177/449 178/450
f 178/451 177/452 179/453
f 178/454 179/455 180/456
f 180/457 179/458 181/459
f 180/460 181/461 182/462
f 182/463 181/464 183/465
f 182/466 183/467 184/468
f 184/469 183/470 185/471
f 184/472 185/473 186/474
f 186/475 185/476 187/477
f 186/478 187/479 188/480
f 188/481 187/482 189/483
f 188/484 189/485 190/486
f 190/487 189/488 191/489
f 190/490 191/491 192/492
f 192/493 191/494 193/495
f 192/496 193/497 194/498
f 194/499 193/500 195/501
f 194/502 195/503 196/504
f 196/505 195/506 197/507
f 196/508 197/509 198/510
f 198/511 197/512 199/513
f 198/514 199/515 200/516
f 200/517 199/518 201/519
f 200/520 201/521 202/522
f 202/523 201/524 203/525
f 202/526 203/527 204/528
f 204/529 203/530 205/531
f 204/532 205/533 206/534
f 206/535 205/536 207/537
f 206/538 207/539 208/540
f 208/541 207/542 209/543
f 208/544 209/545 210/546
f 210/547 209/548 64/549
f 210/550 64/551 46/552
f 49/553 211/554 51/555
f 51/556 211/557 211/558
f 51/559 211/560 212/561
f 212/562 211/563 213/564
f 212/565 213/566 214/567
f 214/568 213/569 215/570
f 214/571 215/572 216/573
f 216/574 215/575 217/576
f 216/577 217/578 218/579
f 218/580 217/581 219/582
f 218/583 219/584 220/585
f 220/586 219/587 221/588
f 220/589 221/590 222/591
f 222/592 221/593 223/594
f 222/595 223/596 224/597
f 224/598 223/599 225/600
f 224/601 225/602 226/603
f 226/604 225/605 227/606
f 226/607 227/608 228/609
f 228/610 227/611 229/612
f 228/613 229/614 230/615
f 230/616 229/617 231/618
f 230/619 231/620 232/621
f 232/622 231/623 233/624
f 232/625 233/626 234/627
f 234/628 233/629 235/630
f 234/631 235/632 236/633
f 236/634 235/635 237/636
f 236/637 237/638 238/639
f 238/640 237/641 239/642
f 238/643 239/644 240/645
f 240/646 239/647 241/648
f 240/649 241/650 242/651
f 242/652 241/653 48/654
f 242/655 48/656 50/657
f 17/658 243/659 18/660
f 18/661 243/662 243/663
f 18/664 243/665 244/666
f 244/667 243/668 245/669
f 244/670 245/671 246/672
f 246/673 245/674 247/675
f 246/676 247/677 248/678
f 248/679 247/680 249/681
f 248/682 249/683 250/684
f 250/685 249/686 251/687
f 250/688 251/689 252/690
f 252/691 251/692 253/693
f 252/694 253/695 254/696
f 254/697 253/698 255/699
f 254/700 255/701 256/702
f 256/703 255/704 257/705
f 256/706 257/707 258/708
f 258/709 257/710 259/711
f 258/712 259/713 260/714
f 260/715 259/716 261/717
f 260/718 261/719 262/720
f 262/721 261/722 263/723
f 262/724 263/725 264/726
f 264/727 263/728 265/729
f 264/730 265/731 266/732
f 266/733 265/734 267/735
f 266/736 267/737 268/738
f 268/739 267/740 269/741
f 268/742 269/743 270/744
f 270/745 269/746 271/747
f 270/748 271/749 272/750
f 272/751 271/752 273/753
f 272/754 273/755 274/756
f 274/757 273/758 44/759
f 274/760 44/761 16/762
f 10/763 12/764 275/765
f 275/766 12/767 12/768
f 275/769 12/770 276/771
f 276/772 12/773 277/774
f 276/775 277/776 278/777
f 278/778 277/779 279/780
f 278/781 279/782 280/783
f 280/784 279/785 281/786
f 280/787 281/788 282/789
f 282/790 281/791 283/792
f 282/793 283/794 284/795
f 284/796 283/797 285/798
f 284/799 285/800 286/801
f 286/802 285/803 287/804
f 286/805 287/806 288/807
f 288/808 287/809 289/810
f 288/811 289/812 290/813
f 290/814 289/815 291/816
f 290/817 291/818 292/819
f 292/820 291/821 293/822
f 292/823 293/824 294/825
f 294/826 293/827 295/828
f 294/829 295/830 296/831
f 296/832 295/833 297/834
f 296/835 297/836 298/837
f 298/838 297/839 299/840
f 298/841 299/842 300/843
f 300/844 299/845 301/846
f 300/847 301/848 302/849
f 302/850 301/851 303/852
f 302/853 303/854 304/855
f 304/856 303/857 305/858
f 304/859 305/860 306/861
f 306/862 305/863 307/864
f 306/865 307/866 42/867
f 42/868 307/869 308/870
f 42/871 308/872 11/873
f 3/874 309/875 1/876
f 1/877 309/878 309/879
f 1/880 309/881 310/882
f 310/883 309/884 311/885
f 310/886 311/887 312/888
f 312/889 311/890 313/891
f 312/892 313/893 314/894
f 314/895 313/896 315/897
f 314/898 315/899 316/900
f 316/901 315/902 317/903
f 316/904 317/905 318/906
f 318/907 317/908 319/909
f 318/910 319/911 320/912
f 320/913 319/914 321/915
f 320/916 321/917 322/918
f 322/919 321/920 323/921
f 322/922 323/923 324/924
f 324/925 323/926 325/927
f 324/928 325/929 326/930
f 326/931 325/932 327/933
f 326/934 327/935 328/936
f 328/937 327/938 329/939
f 328/940 329/941 330/942
f 330/943 329/944 331/945
f 330/946 331/947 332/948
f 332/949 331/950 333/951
f 332/952 333/953 334/954
f 334/955 333/956 335/957
f 334/958 335/959 336/960
f 336/961 335/962 337/963
f 336/964 337/965 338/966
f 338/967 337/968 339/969
f 338/970 339/971 340/972
f 340/973 339/974 37/975
f 340/976 37/977 2/978
f 23/979 341/980 30/981
f 30/982 341/983 341/984
f 30/985 341/986 342/987
f 342/988 341/989 343/990
f 342/991 343/992 344/993
f 344/994 343/995 345/996
f 344/997 345/998 346/999
f 346/1000 345/1001 347/1002
f 346/1003 347/1004 348/1005
f 348/1006 347/1007 349/1008
f 348/1009 349/1010 350/1011
f 350/1012 349/1013 351/1014
f 350/1015 351/1016 352/1017
f 352/1018 351/1019 353/1020
f 352/1021 353/1022 354/1023
f 354/1024 353/1025 355/1026
f 354/1027 355/1028 356/1029
f 356/1030 355/1031 357/1032
f 356/1033 357/1034 358/1035
f 358/1036 357/1037 359/1038
f 358/1039 359/1040 360/1041
f 360/1042 359/1043 361/1044
f 360/1045 361/1046 362/1047
f 362/1048 361/1049 363/1050
f 362/1051 363/1052 364/1053
f 364/1054 363/1055 365/1056
f 364/1057 365/1058 366/1059
f 366/1060 365/1061 367/1062
f 366/1063 367/1064 368/1065
f 368/1066 367/1067 369/1068
f 368/1069 369/1070 370/1071
f 370/1072 369/1073 371/1074
f 370/1075 371/1076 372/1077
f 372/1078 371/1079 373/1080
f 372/1081 373/1082 374/1083
f 374/1084 373/1085 25/1086
f 374/1087 25/1088 24/1089
f 19/1090 375/1091 31/1092
f 31/1093 375/1094 375/1095
f 31/1096 375/1097 376/1098
f 376/1099 375/1100 377/1101
f 376/1102 377/1103 378/1104
f 378/1105 377/1106 379/1107
f 378/1108 379/1109 380/1110
f 380/1111 379/1112 381/1113
f 380/1114 381/1115 382/1116
f 382/1117 381/1118 383/1119
f 382/1120 383/1121 384/1122
f 384/1123 383/1124 385/1125
f 384/1126 385/1127 386/1128
f 386/1129 385/1130 387/1131
f 386/1132 387/1133 388/1134
f 388/1135 387/1136 389/1137
f 388/1138 389/1139 390/1140
f 390/1141 389/1142 391/1143
f 390/1144 391/1145 392/1146
f 392/1147 391/1148 393/1149
f 392/1150 393/1151 394/1152
f 394/1153 393/1154 395/1155
f 394/1156 395/1157 396/1158
f 396/1159 395/1160 397/1161
f 396/1162 397/1163 398/1164
f 398/1165 397/1166 399/1167
f 398/1168 399/1169 400/1170
f 400/1171 399/1172 401/1173
f 400/1174 401/1175 402/1176
f 402/1177 401/1178 403/1179
f 402/1180 403/1181 404/1182
f 404/1183 403/1184 405/1185
f 404/1186 405/1187 406/1188
f 406/1189 405/1190 407/1191
f 406/1192 407/1193 408/1194
f 408/1195 407/1196 21/1197
f 408/1198 21/1199 20/1200
f 13/1201 409/1202 43/1203
f 43/1204 409/1205 409/1206
f 43/1207 409/1208 410/1209
f 410/1210 409/1211 411/1212
f 410/1213 411/1214 412/1215
f 412/1216 411/1217 413/1218
f 412/1219 413/1220 414/1221
f 414/1222 413/1223 415/1224
f 414/1225 415/1226 416/1227
f 416/1228 415/1229 417/1230
f 416/1231 417/1232 418/1233
f 418/1234 417/1235 419/1236
f 418/1237 419/1238 420/1239
f 420/1240 419/1241 421/1242
f 420/1243 421/1244 422/1245
f 422/1246 421/1247 423/1248
f 422/1249 423/1250 424/1251
f 424/1252 423/1253 425/1254
f 424/1255 425/1256 426/1257
f 426/1258 425/1259 427/1260
f 426/1261 427/1262 428/1263
f 428/1264 427/1265 429/1266
f 428/1267 429/1268 430/1269
f 430/1270 429/1271 431/1272
f 430/1273 431/1274 432/1275
f 432/1276 431/1277 433/1278
f 432/1279 433/1280 434/1281
f 434/1282 433/1283 435/1284
f 434/1285 435/1286 436/1287
f 436/1288 435/1289 437/1290
f 436/1291 437/1292 438/1293
f 438/1294 437/1295 439/1296
f 438/1297 439/1298 440/1299
f 440/1300 439/1301 15/1302
f 440/1303 15/1304 14/1305
f 8/1306 441/1307 9/1308
f 9/1309 441/1310 441/1311
f 9/1312 441/1313 442/1314
f 442/1315 441/1316 443/1317
f 442/1318 443/1319 444/1320
f 444/1321 443/1322 445/1323
f 444/1324 445/1325 446/1326
f 446/1327 445/1328 447/1329
f 446/1330 447/1331 448/1332
f 448/1333 447/1334 449/1335
f 448/1336 449/1337 450/1338
f 450/1339 449/1340 451/1341
f 450/1342 451/1343 452/1344
f 452/1345 451/1346 453/1347
f 452/1348 453/1349 454/1350
f 454/1351 453/1352 455/1353
f 454/1354 455/1355 456/1356
f 456/1357 455/1358 457/1359
f 456/1360 457/1361 458/1362
f 458/1363 457/1364 459/1365
f 458/1366 459/1367 460/1368
f 460/1369 459/1370 461/1371
f 460/1372 461/1373 462/1374
f 462/1375 461/1376 463/1377
f 462/1378 463/1379 464/1380
f 464/1381 463/1382 465/1383
f 464/1384 465/1385 466/1386
f 466/1387 465/1388 467/1389
f 466/1390 467/1391 468/1392
f 468/1393 467/1394 469/1395
f 468/1396 469/1397 470/1398
f 470/1399 469/1400 471/1401
f 470/1402 471/1403 472/1404
f 472/1405 471/1406 36/1407
f 472/1408 36/1409 7/1410
f 39/1411 473/1412 40/1413
f 40/1414 473/1415 473/1416
f 40/1417 473/1418 474/1419
f 474/1420 473/1421 475/1422
f 474/1423 475/1424 476/1425
f 476/1426 475/1427 477/1428
f 476/1429 477/1430 478/1431
f 478/1432 477/1433 479/1434
f 478/1435 479/1436 480/1437
f 480/1438 479/1439 481/1440
f 480/1441 481/1442 482/1443
f 482/1444 481/1445 483/1446
f 482/1447 483/1448 484/1449
f 484/1450 483/1451 485/1452
f 484/1453 485/1454 486/1455
f 486/1456 485/1457 487/1458
f 486/1459 487/1460 488/1461
f 488/1462 487/1463 489/1464
f 488/1465 489/1466 490/1467
f 490/1468 489/1469 491/1470
f 490/1471 491/1472 492/1473
f 492/1474 491/1475 493/1476
f 492/1477 493/1478 494/1479
f 494/1480 493/1481 495/1482
f 494/1483 495/1484 496/1485
f 496/1486 495/1487 497/1488
f 496/1489 497/1490 498/1491
f 498/1492 497/1493 499/1494
f 498/1495 499/1496 500/1497
f 500/1498 499/1499 501/1500
f 500/1501 501/1502 502/1503
f 502/1504 501/1505 503/1506
f 502/1507 503/1508 504/1509
f 504/1510 503/1511 505/1512
f 504/1513 505/1514 506/1515
f 506/1516 505/1517 41/1518
f 506/1519 41/1520 38/1521
f 32/1522 507/1523 35/1524
f 35/1525 507/1526 507/1527
f 35/1528 507/1529 508/1530
f 508/1531 507/1532 509/1533
f 508/1534 509/1535 510/1536
f 510/1537 509/1538 511/1539
f 510/1540 511/1541 512/1542
f 512/1543 511/1544 513/1545
f 512/1546 513/1547 514/1548
f 514/1549 513/1550 515/1551
f 514/1552 515/1553 516/1554
f 516/1555 515/1556 517/1557
f 516/1558 517/1559 518/1560
f 518/1561 517/1562 519/1563
f 518/1564 519/1565 520/1566
f 520/1567 519/1568 521/1569
f 520/1570 521/1571 522/1572
f 522/1573 521/1574 523/1575
f 522/1576 523/1577 524/1578
f 524/1579 523/1580 525/1581
f 524/1582 525/1583 526/1584
f 526/1585 525/1586 527/1587
f 526/1588 527/1589 528/1590
f 528/1591 527/1592 529/1593
f 528/1594 529/1595 530/1596
f 530/1597 529/1598 531/1599
f 530/1600 531/1601 532/1602
f 532/1603 531/1604 533/1605
f 532/1606 533/1607 534/1608
f 534/1609 533/1610 535/1611
f 534/1612 535/1613 536/1614
f 536/1615 535/1616 537/1617
f 536/1618 537/1619 538/1620
f 538/1621 537/1622 539/1623
f 538/1624 539/1625 540/1626
f 540/1627 539/1628 34/1629
f 540/1630 34/1631 33/1632
f 61/1633 541/1634 63/1635
f 63/1636 541/1637 541/1638
f 63/1639 541/1640 542/1641
f 542/1642 541/1643 543/1644
f 542/1645 543/1646 544/1647
f 544/1648 543/1649 545/1650
f 544/1651 545/1652 546/1653
f 546/1654 545/1655 547/1656
f 546/1657 547/1658 548/1659
f 548/1660 547/1661 549/1662
f 548/1663 549/1664 550/1665
f 550/1666 549/1667 551/1668
f 550/1669 551/1670 552/1671
f 552/1672 551/1673 553/1674
f 552/1675 553/1676 554/1677
f 554/1678 553/1679 555/1680
f 554/1681 555/1682 556/1683
f 556/1684 555/1685 557/1686
f 556/1687 557/1688 558/1689
f 558/1690 557/1691 559/1692
f 558/1693 559/1694 560/1695
f 560/1696 559/1697 561/1698
f 560/1699 561/1700 562/1701
f 562/1702 561/1703 563/1704
f 562/1705 563/1706 564/1707
f 564/1708 563/1709 565/1710
f 564/1711 565/1712 566/1713
f 566/1714 565/1715 567/1716
f 566/1717 567/1718 568/1719
f 568/1720 567/1721 569/1722
f 568/1723 569/1724 570/1725
f 570/1726 569/1727 571/1728
f 570/1729 571/1730 572/1731
f 572/1732 571/1733 60/1734
f 572/1735 60/1736 62/1737
f 27/1738 573/1739 28/1740
f 28/1741 573/1742 573/1743
f 28/1744 573/1745 574/1746
f 574/1747 573/1748 575/1749
f 574/1750 575/1751 576/1752
f 576/1753 575/1754 577/1755
f 576/1756 577/1757 578/1758
f 578/1759 577/1760 579/1761
f 578/1762 579/1763 580/1764
f 580/1765 579/1766 581/1767
f 580/1768 581/1769 582/1770
f 582/1771 581/1772 583/1773
f 582/1774 583/1775 584/1776
f 584/1777 583/1778 585/1779
f 584/1780 585/1781 586/1782
f 586/1783 585/1784 587/1785
f 586/1786 587/1787 588/1788
f 588/1789 587/1790 589/1791
f 588/1792 589/1793 590/1794
f 590/1795 589/1796 591/1797
f 590/1798 591/1799 592/1800
f 592/1801 591/1802 593/1803
f 592/1804 593/1805 594/1806
f 594/1807 593/1808 595/1809
f 594/1810 595/1811 596/1812
f 596/1813 595/1814 597/1815
f 596/1816 597/1817 598/1818
f 598/1819 597/1820 599/1821
f 598/1822 599/1823 600/1824
f 600/1825 599/1826 601/1827
f 600/1828 601/1829 602/1830
f 602/1831 601/1832 603/1833
f 602/1834 603/1835 604/1836
f 604/1837 603/1838 605/1839
f 604/1840 605/1841 606/1842
f 606/1843 605/1844 29/1845
f 606/1846 29/1847 26/1848
f 108/1849 607/1850 608/1851
f 608/1852 607/1853 609/1854
f 610/1855 609/1856 611/1857
f 611/1858 609/1859 607/1860
f 612/1861 613/1862 614/1863
f 614/1864 613/1865 615/1866
f 616/1867 615/1868 617/1869
f 617/1870 615/1871 613/1872
f 618/1873 616/1874 619/1875
f 619/1876 616/1877 617/1878
f 620/1879 610/1880 621/1881
f 621/1882 610/1883 611/1884
f 616/1885 608/1886 609/1887
f 616/1888 609/1889 615/1890
f 614/1891 615/1892 610/1893
f 615/1894 609/1895 610/1896
f 614/1897 608/1898 618/1899
f 618/1900 608/1901 616/1902
f 610/1903 620/1904 614/1905
f 614/1906 620/1907 608/1908
f 108/1909 619/1910 607/1911
f 612/1912 621/1913 613/1914
f 619/1915 617/1916 607/1917
f 607/1918 617/1919 613/1920
f 607/1921 613/1922 611/1923
f 611/1924 613/1925 621/1926
