# Exported from USD for MuJoCo with source material subsets
v 9.79262891 -6.80588661 0.742368174
v 9.78989276 -6.80588661 0.741825414
v 9.79262891 -6.80588661 0.73336817
v 9.78748658 -6.80588661 0.74026258
v 9.78570071 -6.80588661 0.737868142
v 9.78475049 -6.80588661 0.734930944
v 9.78475049 -6.80588661 0.731805336
v 9.78570071 -6.80588661 0.728868139
v 9.78748658 -6.80588661 0.726473761
v 9.78989276 -6.80588661 0.724910927
v 9.79262891 -6.80588661 0.724368167
v 9.795365 -6.80588661 0.724910927
v 9.7977713 -6.80588661 0.726473761
v 9.79955718 -6.80588661 0.728868139
v 9.80050733 -6.80588661 0.731805336
v 9.80050733 -6.80588661 0.734930944
v 9.79955718 -6.80588661 0.737868142
v 9.7977713 -6.80588661 0.74026258
v 9.795365 -6.80588661 0.741825414
v 10.2789072 -6.80588661 0.731805575
v 10.2789072 -6.80588661 0.734931183
v 10.2710288 -6.80588661 0.733368409
v 10.277957 -6.80588661 0.737868381
v 10.276171 -6.80588661 0.740262818
v 10.2737649 -6.80588661 0.741825593
v 10.2710288 -6.80588661 0.742368412
v 10.2682926 -6.80588661 0.741825593
v 10.2658865 -6.80588661 0.740262818
v 10.2641006 -6.80588661 0.737868381
v 10.2631503 -6.80588661 0.734931183
v 10.2630288 -6.80588661 0.733368409
v 10.2631503 -6.80588661 0.731805575
v 10.2641006 -6.80588661 0.728868377
v 10.2658865 -6.80588661 0.726473999
v 10.2682926 -6.80588661 0.724911225
v 10.2710288 -6.80588661 0.724368405
v 10.2737649 -6.80588661 0.724911225
v 10.276171 -6.80588661 0.726473999
v 10.277957 -6.80588661 0.728868377
v 10.2710288 -6.68488727 0.724368405
v 10.2710288 -6.68297707 0.724505198
v 10.2718743 -6.68130909 0.724911225
v 10.2710288 -6.68112455 0.724911225
v 10.2710288 -6.67938744 0.725574207
v 10.2726178 -6.67816292 0.726473999
v 10.2710288 -6.67781626 0.726473999
v 10.2710288 -6.67646061 0.727583301
v 10.2731697 -6.67582689 0.728868377
v 10.2710288 -6.67536102 0.728868377
v 10.2710288 -6.6745504 0.730290186
v 10.2734633 -6.67458473 0.731805575
v 10.2710288 -6.67405401 0.731805575
v 10.2710288 -6.67388712 0.733368409
v 10.2734633 -6.67458473 0.734931183
v 10.2710288 -6.67405401 0.734931183
v 10.2710288 -6.6745504 0.736446571
v 10.2731697 -6.67582689 0.737868381
v 10.2710288 -6.67536102 0.737868381
v 10.2710288 -6.67646061 0.739153516
v 10.2726178 -6.67816292 0.740262818
v 10.2710288 -6.67781626 0.740262818
v 10.2710288 -6.67938744 0.74116267
v 10.2718743 -6.68130909 0.741825593
v 10.2710288 -6.68112455 0.741825593
v 10.2710288 -6.68297707 0.742231679
v 10.2710288 -6.68488727 0.742368412
v 10.273631 -6.68372427 0.724911225
v 10.2737649 -6.68488727 0.724911225
v 10.276171 -6.68488727 0.726473999
v 10.2759194 -6.68270193 0.726473999
v 10.277957 -6.68488727 0.728868377
v 10.2776179 -6.68194328 0.728868377
v 10.2789072 -6.68488727 0.731805575
v 10.2785216 -6.6815394 0.731805575
v 10.2789072 -6.68488727 0.734931183
v 10.2785216 -6.6815394 0.734931183
v 10.277957 -6.68488727 0.737868381
v 10.2776179 -6.68194328 0.737868381
v 10.276171 -6.68488727 0.740262818
v 10.2759194 -6.68270193 0.740262818
v 10.2737649 -6.68488727 0.741825593
v 10.273631 -6.68372427 0.741825593
v 10.272637 -6.68184315 0.741825593
v 10.2732424 -6.6826757 0.741825593
v 10.275189 -6.68073069 0.740262818
v 10.2766338 -6.67928778 0.737868381
v 10.2774026 -6.67851959 0.734931183
v 10.2774026 -6.67851959 0.731805575
v 10.2766338 -6.67928778 0.728868377
v 10.275189 -6.68073069 0.726473999
v 10.2732424 -6.6826757 0.724911225
v 10.272637 -6.68184315 0.724911225
v 10.2740513 -6.67916666 0.726473999
v 10.275101 -6.67718016 0.728868377
v 10.2756596 -6.67612301 0.731805575
v 10.2756596 -6.67612301 0.734931183
v 10.275101 -6.67718016 0.737868381
v 10.2740513 -6.67916666 0.740262818
v 9.79262891 -6.68488727 0.742368174
v 9.79262891 -6.68297707 0.742231441
v 9.79015681 -6.68488727 0.741927695
v 9.79015681 -6.68165432 0.741508675
v 9.78989276 -6.68488727 0.741825414
v 9.7879267 -6.68488727 0.740649354
v 9.7879267 -6.68213736 0.740292919
v 9.78748658 -6.68488727 0.74026258
v 9.7861568 -6.68288933 0.738399339
v 9.7861568 -6.68488727 0.738658202
v 9.78570071 -6.68488727 0.737868142
v 9.7850205 -6.68383633 0.736013186
v 9.7850205 -6.68488727 0.736149323
v 9.78475049 -6.68488727 0.734930944
v 9.78462896 -6.68488727 0.73336817
v 9.7850205 -6.68288933 0.735618186
v 9.7850205 -6.68213736 0.735002887
v 9.7861568 -6.67965637 0.736477625
v 9.7861568 -6.67873798 0.735002887
v 9.7879267 -6.67642342 0.735618186
v 9.7879267 -6.67598759 0.73336817
v 9.79015681 -6.67442547 0.73336817
v 9.79015681 -6.67493759 0.730723155
v 9.79262891 -6.67442547 0.730587018
v 9.79262891 -6.6745504 0.730290008
v 9.79015681 -6.67642342 0.728337061
v 9.79262891 -6.67598759 0.728078079
v 9.79262891 -6.67646061 0.727583063
v 9.79015681 -6.67873798 0.726443422
v 9.79262891 -6.67842136 0.726087046
v 9.79262891 -6.67938744 0.725574028
v 9.79015681 -6.68165432 0.725227606
v 9.79262891 -6.6814879 0.724808645
v 9.79262891 -6.68297707 0.72450496
v 9.79015681 -6.68488727 0.724808645
v 9.79262891 -6.68488727 0.724368167
v 9.78989276 -6.68488727 0.724910927
v 9.7879267 -6.68488727 0.726087046
v 9.7879267 -6.68213736 0.726443422
v 9.78748658 -6.68488727 0.726473761
v 9.7861568 -6.68288933 0.728337061
v 9.7861568 -6.68488727 0.728078079
v 9.78570071 -6.68488727 0.728868139
v 9.7850205 -6.68383633 0.730723155
v 9.7850205 -6.68488727 0.730587018
v 9.78475049 -6.68488727 0.731805336
v 9.7850205 -6.68288933 0.731118155
v 9.7850205 -6.68213736 0.731733453
v 9.7861568 -6.68108641 0.729088438
v 9.7861568 -6.67965637 0.730258715
v 9.7879267 -6.67965637 0.727477622
v 9.7879267 -6.67768751 0.729088438
v 9.7879267 -6.67642342 0.731118155
v 9.7861568 -6.67842136 0.73336817
v 9.7850205 -6.68165432 0.73422761
v 9.7850205 -6.6814879 0.73336817
v 9.7850205 -6.68165432 0.732508671
v 9.7861568 -6.67873798 0.731733453
v 9.79262891 -6.67388712 0.73336817
v 9.79015681 -6.67493759 0.736013186
v 9.79262891 -6.67442547 0.736149323
v 9.79262891 -6.6745504 0.736446333
v 9.79015681 -6.67642342 0.738399339
v 9.79262891 -6.67598759 0.738658202
v 9.79262891 -6.67646061 0.739153278
v 9.79015681 -6.67873798 0.740292919
v 9.79262891 -6.67842136 0.740649354
v 9.79262891 -6.67938744 0.741162372
v 9.79262891 -6.6814879 0.741927695
v 9.7879267 -6.67965637 0.739258718
v 9.7861568 -6.68108641 0.737647903
v 9.7879267 -6.67768751 0.737647903
vt 0.742367983 0.239199996
vt 0.741824985 0.241935998
vt 0.73336798 0.239199996
vt 0.73336798 0.239199996
vt 0.741824985 0.241935998
vt 0.740261972 0.244341999
vt -0.73336798 0.239199996
vt -0.740261972 0.244341999
vt -0.73336798 0.239199996
vt 0.73336798 0.239199996
vt 0.740261972 0.244341999
vt 0.737868011 0.246127993
vt -0.73336798 0.239199996
vt -0.737868011 0.246127993
vt -0.73336798 0.239199996
vt 0.73336798 0.239199996
vt 0.737868011 0.246127993
vt 0.734930992 0.247078001
vt -0.73336798 0.239199996
vt -0.734930992 0.247078001
vt -0.73336798 0.239199996
vt 0.73336798 0.239199996
vt 0.734930992 0.247078001
vt 0.731805027 0.247078001
vt -0.73336798 0.239199996
vt -0.731805027 0.247078001
vt -0.73336798 0.239199996
vt 0.73336798 0.239199996
vt 0.731805027 0.247078001
vt 0.728868008 0.246127993
vt -0.73336798 0.239199996
vt -0.728868008 0.246127993
vt -0.73336798 0.239199996
vt 0.73336798 0.239199996
vt 0.728868008 0.246127993
vt 0.726473987 0.244341999
vt -0.73336798 0.239199996
vt -0.726473987 0.244341999
vt -0.73336798 0.239199996
vt 0.73336798 0.239199996
vt 0.726473987 0.244341999
vt 0.724910975 0.241935998
vt -0.73336798 0.239199996
vt -0.724910975 0.241935998
vt -0.73336798 0.239199996
vt 0.73336798 0.239199996
vt 0.724910975 0.241935998
vt 0.724367976 0.239199996
vt -0.73336798 0.239199996
vt -0.724367976 0.239199996
vt -0.73336798 0.239199996
vt 0.73336798 0.239199996
vt 0.724367976 0.239199996
vt 0.724910975 0.236463994
vt -0.73336798 0.239199996
vt -0.724910975 0.236463994
vt -0.73336798 0.239199996
vt 0.73336798 0.239199996
vt 0.724910975 0.236463994
vt 0.726473987 0.234057993
vt -0.73336798 0.239199996
vt -0.726473987 0.234057993
vt -0.73336798 0.239199996
vt 0.73336798 0.239199996
vt 0.726473987 0.234057993
vt 0.728868008 0.232271999
vt -0.73336798 0.239199996
vt -0.728868008 0.232271999
vt -0.73336798 0.239199996
vt 0.73336798 0.239199996
vt 0.728868008 0.232271999
vt 0.731805027 0.231321007
vt -0.73336798 0.239199996
vt -0.731805027 0.231321007
vt -0.73336798 0.239199996
vt 0.73336798 0.239199996
vt 0.731805027 0.231321007
vt 0.734930992 0.231321007
vt -0.73336798 0.239199996
vt -0.734930992 0.231321007
vt -0.73336798 0.239199996
vt 0.73336798 0.239199996
vt 0.734930992 0.231321007
vt 0.737868011 0.232271999
vt -0.73336798 0.239199996
vt -0.737868011 0.232271999
vt -0.73336798 0.239199996
vt 0.73336798 0.239199996
vt 0.737868011 0.232271999
vt 0.740261972 0.234057993
vt -0.73336798 0.239199996
vt -0.740261972 0.234057993
vt -0.73336798 0.239199996
vt 0.73336798 0.239199996
vt 0.740261972 0.234057993
vt 0.741824985 0.236463994
vt 0.73336798 0.239199996
vt 0.741824985 0.236463994
vt 0.742367983 0.239199996
vt 0.731805027 -0.247079
vt 0.734930992 -0.247079
vt 0.73336798 -0.239199996
vt 0.73336798 -0.239199996
vt 0.734930992 -0.247079
vt 0.737868011 -0.246127993
vt -0.73336798 -0.239199996
vt -0.737868011 -0.246127993
vt -0.73336798 -0.239199996
vt 0.73336798 -0.239199996
vt 0.737868011 -0.246127993
vt 0.740261972 -0.244341999
vt -0.73336798 -0.239199996
vt -0.740261972 -0.244341999
vt -0.73336798 -0.239199996
vt 0.73336798 -0.239199996
vt 0.740261972 -0.244341999
vt 0.741824985 -0.241935998
vt -0.73336798 -0.239199996
vt -0.741824985 -0.241935998
vt -0.73336798 -0.239199996
vt 0.73336798 -0.239199996
vt 0.741824985 -0.241935998
vt 0.742367983 -0.239199996
vt -0.73336798 -0.239199996
vt -0.742367983 -0.239199996
vt -0.73336798 -0.239199996
vt 0.73336798 -0.239199996
vt 0.742367983 -0.239199996
vt 0.741824985 -0.236463994
vt -0.73336798 -0.239199996
vt -0.741824985 -0.236463994
vt -0.73336798 -0.239199996
vt 0.73336798 -0.239199996
vt 0.741824985 -0.236463994
vt 0.740261972 -0.234057993
vt -0.73336798 -0.239199996
vt -0.740261972 -0.234057993
vt -0.73336798 -0.239199996
vt 0.73336798 -0.239199996
vt 0.740261972 -0.234057993
vt 0.737868011 -0.232271999
vt -0.73336798 -0.239199996
vt -0.737868011 -0.232271999
vt -0.73336798 -0.239199996
vt 0.73336798 -0.239199996
vt 0.737868011 -0.232271999
vt 0.734930992 -0.231322005
vt -0.73336798 -0.239199996
vt -0.734930992 -0.231322005
vt -0.73336798 -0.239199996
vt 0.73336798 -0.239199996
vt 0.734930992 -0.231322005
vt 0.73336798 -0.231199995
vt -0.73336798 -0.239199996
vt -0.73336798 -0.231199995
vt -0.73336798 -0.239199996
vt 0.73336798 -0.239199996
vt 0.73336798 -0.231199995
vt 0.731805027 -0.231322005
vt -0.73336798 -0.239199996
vt -0.731805027 -0.231322005
vt -0.73336798 -0.239199996
vt 0.73336798 -0.239199996
vt 0.731805027 -0.231322005
vt 0.728868008 -0.232271999
vt -0.73336798 -0.239199996
vt -0.728868008 -0.232271999
vt -0.73336798 -0.239199996
vt 0.73336798 -0.239199996
vt 0.728868008 -0.232271999
vt 0.726473987 -0.234057993
vt -0.73336798 -0.239199996
vt -0.726473987 -0.234057993
vt -0.73336798 -0.239199996
vt 0.73336798 -0.239199996
vt 0.726473987 -0.234057993
vt 0.724910975 -0.236463994
vt -0.73336798 -0.239199996
vt -0.724910975 -0.236463994
vt -0.73336798 -0.239199996
vt 0.73336798 -0.239199996
vt 0.724910975 -0.236463994
vt 0.724367976 -0.239199996
vt -0.73336798 -0.239199996
vt -0.724367976 -0.239199996
vt -0.73336798 -0.239199996
vt 0.73336798 -0.239199996
vt 0.724367976 -0.239199996
vt 0.724910975 -0.241935998
vt -0.73336798 -0.239199996
vt -0.724910975 -0.241935998
vt -0.73336798 -0.239199996
vt 0.73336798 -0.239199996
vt 0.724910975 -0.241935998
vt 0.726473987 -0.244341999
vt -0.73336798 -0.239199996
vt -0.726473987 -0.244341999
vt -0.73336798 -0.239199996
vt 0.73336798 -0.239199996
vt 0.726473987 -0.244341999
vt 0.728868008 -0.246127993
vt 0.73336798 -0.239199996
vt 0.728868008 -0.246127993
vt 0.731805027 -0.247079
vt -0.521948993 -0.239199996
vt -0.523859024 -0.239199996
vt -0.525527 -0.240045995
vt -0.525527 -0.240045995
vt -0.523859024 -0.239199996
vt -0.525711 -0.239199996
vt -0.724910975 -0.240045995
vt -0.724910975 -0.239199996
vt -0.724910975 -0.240045995
vt -0.525527 -0.240045995
vt -0.525711 -0.239199996
vt -0.527449012 -0.239199996
vt -0.525527 -0.240045995
vt -0.527449012 -0.239199996
vt -0.528672993 -0.240788996
vt -0.528672993 -0.240788996
vt -0.527449012 -0.239199996
vt -0.529018998 -0.239199996
vt -0.726473987 -0.240788996
vt -0.726473987 -0.239199996
vt -0.726473987 -0.240788996
vt -0.528672993 -0.240788996
vt -0.529018998 -0.239199996
vt -0.530375004 -0.239199996
vt -0.528672993 -0.240788996
vt -0.530375004 -0.239199996
vt -0.531009018 -0.241340995
vt -0.728868008 -0.241340995
vt -0.727582991 -0.239199996
vt -0.728868008 -0.239199996
vt -0.728868008 -0.241340995
vt -0.728868008 -0.239199996
vt -0.728868008 -0.241340995
vt -0.728868008 -0.241340995
vt -0.728868008 -0.239199996
vt -0.730289996 -0.239199996
vt -0.728868008 -0.241340995
vt -0.730289996 -0.239199996
vt -0.731805027 -0.241634995
vt -0.731805027 -0.241634995
vt -0.730289996 -0.239199996
vt -0.731805027 -0.239199996
vt -0.731805027 -0.241634995
vt -0.731805027 -0.239199996
vt -0.731805027 -0.241634995
vt -0.731805027 -0.241634995
vt -0.731805027 -0.239199996
vt -0.73336798 -0.239199996
vt -0.731805027 -0.241634995
vt -0.73336798 -0.239199996
vt -0.734930992 -0.241634995
vt -0.734930992 -0.241634995
vt -0.73336798 -0.239199996
vt -0.734930992 -0.239199996
vt -0.734930992 -0.241634995
vt -0.734930992 -0.239199996
vt -0.734930992 -0.241634995
vt -0.734930992 -0.241634995
vt -0.734930992 -0.239199996
vt -0.736446023 -0.239199996
vt -0.734930992 -0.241634995
vt -0.736446023 -0.239199996
vt -0.737868011 -0.241340995
vt -0.737868011 -0.241340995
vt -0.736446023 -0.239199996
vt -0.737868011 -0.239199996
vt -0.737868011 -0.241340995
vt -0.737868011 -0.239199996
vt -0.737868011 -0.241340995
vt -0.737868011 -0.241340995
vt -0.737868011 -0.239199996
vt -0.739153028 -0.239199996
vt 0.531009018 -0.241340995
vt 0.530375004 -0.239199996
vt 0.528672993 -0.240788996
vt 0.528672993 -0.240788996
vt 0.530375004 -0.239199996
vt 0.529018998 -0.239199996
vt -0.740261972 -0.240788996
vt -0.740261972 -0.239199996
vt -0.740261972 -0.240788996
vt 0.528672993 -0.240788996
vt 0.529018998 -0.239199996
vt 0.527449012 -0.239199996
vt 0.528672993 -0.240788996
vt 0.527449012 -0.239199996
vt 0.525527 -0.240045995
vt 0.525527 -0.240045995
vt 0.527449012 -0.239199996
vt 0.525711 -0.239199996
vt -0.741824985 -0.240045995
vt -0.741824985 -0.239199996
vt -0.741824985 -0.240045995
vt 0.525527 -0.240045995
vt 0.525711 -0.239199996
vt 0.523859024 -0.239199996
vt 0.525527 -0.240045995
vt 0.523859024 -0.239199996
vt 0.521948993 -0.239199996
vt -0.521948993 -0.239199996
vt -0.523110986 -0.241802007
vt -0.521948993 -0.241935998
vt -0.724910975 -0.241935998
vt -0.724910975 -0.241802007
vt -0.724910975 -0.241802007
vt -0.521948993 -0.241935998
vt -0.523110986 -0.241802007
vt -0.521948993 -0.244341999
vt -0.521948993 -0.244341999
vt -0.523110986 -0.241802007
vt -0.52413398 -0.244091004
vt 0.521948993 0.726473987
vt 0.52413398 0.726473987
vt 0.521948993 0.728868008
vt 0.521948993 0.728868008
vt 0.52413398 0.726473987
vt 0.524891973 0.728868008
vt 0.521948993 0.728868008
vt 0.524891973 0.728868008
vt 0.521948993 0.731805027
vt 0.521948993 0.731805027
vt 0.524891973 0.728868008
vt 0.525295973 0.731805027
vt 0.521948993 0.731805027
vt 0.525295973 0.731805027
vt 0.521948993 0.734930992
vt 0.521948993 0.734930992
vt 0.525295973 0.731805027
vt 0.525295973 0.734930992
vt 0.521948993 0.734930992
vt 0.525295973 0.734930992
vt 0.521948993 0.737868011
vt 0.521948993 0.737868011
vt 0.525295973 0.734930992
vt 0.524891973 0.737868011
vt 0.521948993 0.737868011
vt 0.524891973 0.737868011
vt 0.521948993 0.740261972
vt 0.521948993 0.740261972
vt 0.524891973 0.737868011
vt 0.52413398 0.740261972
vt 0.521948993 -0.244341999
vt 0.52413398 -0.244091004
vt 0.521948993 -0.241935998
vt 0.521948993 -0.241935998
vt 0.52413398 -0.244091004
vt 0.523110986 -0.241802007
vt 0.521948993 -0.241935998
vt 0.523110986 -0.241802007
vt 0.521948993 -0.239199996
vt 0.528672993 -0.240788996
vt 0.525527 -0.240045995
vt 0.524991989 -0.240807995
vt 0.524991989 -0.240807995
vt 0.525527 -0.240045995
vt 0.521948993 -0.239199996
vt 0.524991989 -0.240807995
vt 0.521948993 -0.239199996
vt 0.524160028 -0.241413996
vt 0.524160028 -0.241413996
vt 0.521948993 -0.239199996
vt 0.523110986 -0.241802007
vt 0.524160028 -0.241413996
vt 0.523110986 -0.241802007
vt 0.526104987 -0.243359998
vt 0.526104987 -0.243359998
vt 0.523110986 -0.241802007
vt 0.52413398 -0.244091004
vt 0.526104987 0.740261972
vt 0.52413398 0.740261972
vt 0.527548015 0.737868011
vt 0.527548015 0.737868011
vt 0.52413398 0.740261972
vt 0.524891973 0.737868011
vt 0.527548015 0.737868011
vt 0.524891973 0.737868011
vt 0.528316021 0.734930992
vt 0.528316021 0.734930992
vt 0.524891973 0.737868011
vt 0.525295973 0.734930992
vt 0.528316021 0.734930992
vt 0.525295973 0.734930992
vt 0.528316021 0.731805027
vt 0.528316021 0.731805027
vt 0.525295973 0.734930992
vt 0.525295973 0.731805027
vt 0.528316021 0.731805027
vt 0.525295973 0.731805027
vt 0.527548015 0.728868008
vt 0.527548015 0.728868008
vt 0.525295973 0.731805027
vt 0.524891973 0.728868008
vt 0.527548015 0.728868008
vt 0.524891973 0.728868008
vt 0.526104987 0.726473987
vt 0.526104987 0.726473987
vt 0.524891973 0.728868008
vt 0.52413398 0.726473987
vt -0.526104987 -0.243359998
vt -0.52413398 -0.244091004
vt -0.524160028 -0.241413996
vt -0.524160028 -0.241413996
vt -0.52413398 -0.244091004
vt -0.523110986 -0.241802007
vt -0.724910975 -0.241413996
vt -0.724910975 -0.241802007
vt -0.724910975 -0.241413996
vt -0.524160028 -0.241413996
vt -0.523110986 -0.241802007
vt -0.521948993 -0.239199996
vt -0.524160028 -0.241413996
vt -0.521948993 -0.239199996
vt -0.524991989 -0.240807995
vt -0.524991989 -0.240807995
vt -0.521948993 -0.239199996
vt -0.525527 -0.240045995
vt -0.524991989 -0.240807995
vt -0.525527 -0.240045995
vt -0.527669013 -0.242222995
vt -0.527669013 -0.242222995
vt -0.525527 -0.240045995
vt -0.528672993 -0.240788996
vt -0.527669013 -0.242222995
vt -0.528672993 -0.240788996
vt -0.529655993 -0.243272007
vt -0.529655993 -0.243272007
vt -0.528672993 -0.240788996
vt -0.531009018 -0.241340995
vt -0.728868008 -0.243272007
vt -0.728868008 -0.241340995
vt -0.731805027 -0.243830994
vt -0.731805027 -0.243830994
vt -0.728868008 -0.241340995
vt -0.731805027 -0.241634995
vt -0.731805027 -0.243830994
vt -0.731805027 -0.241634995
vt -0.734930992 -0.243830994
vt -0.734930992 -0.243830994
vt -0.731805027 -0.241634995
vt -0.734930992 -0.241634995
vt -0.734930992 -0.243830994
vt -0.734930992 -0.241634995
vt -0.737868011 -0.243272007
vt -0.737868011 -0.243272007
vt -0.734930992 -0.241634995
vt -0.737868011 -0.241340995
vt 0.529655993 -0.243272007
vt 0.531009018 -0.241340995
vt 0.527669013 -0.242222995
vt 0.527669013 -0.242222995
vt 0.531009018 -0.241340995
vt 0.528672993 -0.240788996
vt -0.740261972 -0.242222995
vt -0.740261972 -0.240788996
vt -0.740261972 -0.242222995
vt 0.527669013 -0.242222995
vt 0.528672993 -0.240788996
vt 0.524991989 -0.240807995
vt -0.740261972 -0.242222995
vt -0.741824985 -0.240807995
vt -0.740261972 -0.242222995
vt 0.527669013 -0.242222995
vt 0.524991989 -0.240807995
vt 0.524160028 -0.241413996
vt -0.740261972 -0.242222995
vt -0.741824985 -0.241413996
vt -0.740261972 -0.242222995
vt 0.527669013 -0.242222995
vt 0.524160028 -0.241413996
vt 0.526104987 -0.243359998
vt 0.527669013 -0.242222995
vt 0.526104987 -0.243359998
vt 0.529655993 -0.243272007
vt 0.529655993 -0.243272007
vt 0.526104987 -0.243359998
vt 0.527548015 -0.244804993
vt 0.529655993 0.737868011
vt 0.527548015 0.737868011
vt 0.530713022 0.734930992
vt 0.530713022 0.734930992
vt 0.527548015 0.737868011
vt 0.528316021 0.734930992
vt 0.530713022 0.734930992
vt 0.528316021 0.734930992
vt 0.530713022 0.731805027
vt 0.530713022 0.731805027
vt 0.528316021 0.734930992
vt 0.528316021 0.731805027
vt 0.530713022 0.731805027
vt 0.528316021 0.731805027
vt 0.529655993 0.728868008
vt 0.529655993 0.728868008
vt 0.528316021 0.731805027
vt 0.527548015 0.728868008
vt -0.529655993 -0.243272007
vt -0.527548015 -0.244804993
vt -0.527669013 -0.242222995
vt -0.527669013 -0.242222995
vt -0.527548015 -0.244804993
vt -0.526104987 -0.243359998
vt -0.527669013 -0.242222995
vt -0.526104987 -0.243359998
vt -0.524991989 -0.240807995
vt -0.524991989 -0.240807995
vt -0.526104987 -0.243359998
vt -0.524160028 -0.241413996
vt 0.521948993 0.239199996
vt 0.523859024 0.239199996
vt 0.521948993 0.241671994
vt 0.521948993 0.241671994
vt 0.523859024 0.239199996
vt 0.525180995 0.241671994
vt 0.521948993 0.241671994
vt 0.525180995 0.241671994
vt 0.521948993 0.241935998
vt -0.741824985 0.241935998
vt -0.741508007 0.241671994
vt -0.741508007 0.241671994
vt 0.521948993 0.241935998
vt 0.525180995 0.241671994
vt 0.521948993 0.243901998
vt 0.521948993 0.243901998
vt 0.525180995 0.241671994
vt 0.524698973 0.243901998
vt 0.521948993 0.243901998
vt 0.524698973 0.243901998
vt 0.521948993 0.244341999
vt -0.521948993 0.740261972
vt -0.524698973 0.740293026
vt -0.523947001 0.738399029
vt -0.521948993 0.740261972
vt -0.523947001 0.738399029
vt -0.521948993 0.738658011
vt -0.738658011 0.245672002
vt -0.738399029 0.245672002
vt -0.738399029 0.245672002
vt -0.521948993 0.738658011
vt -0.523947001 0.738399029
vt -0.521948993 0.737868011
vt -0.521948993 0.737868011
vt -0.523947001 0.738399029
vt -0.522998989 0.736012995
vt -0.521948993 0.737868011
vt -0.522998989 0.736012995
vt -0.521948993 0.736149013
vt -0.736149013 0.246808007
vt -0.736012995 0.246808007
vt -0.736012995 0.246808007
vt -0.521948993 0.736149013
vt -0.522998989 0.736012995
vt -0.521948993 0.734930992
vt -0.734930992 0.247078001
vt -0.736012995 0.246808007
vt -0.736012995 0.246808007
vt -0.521948993 0.734930992
vt -0.522998989 0.736012995
vt -0.521948993 0.73336798
vt -0.521948993 0.73336798
vt -0.522998989 0.736012995
vt -0.523947001 0.735617995
vt -0.521948993 0.73336798
vt -0.523947001 0.735617995
vt -0.524698973 0.735002995
vt -0.524698973 0.735002995
vt -0.523947001 0.735617995
vt -0.527179003 0.736477017
vt -0.524698973 0.735002995
vt -0.527179003 0.736477017
vt -0.528097987 0.735002995
vt -0.528097987 0.735002995
vt -0.527179003 0.736477017
vt -0.530412018 0.735617995
vt -0.528097987 0.735002995
vt -0.530412018 0.735617995
vt -0.530848026 0.73336798
vt -0.73336798 0.243901998
vt -0.735617995 0.243901998
vt -0.73336798 0.241671994
vt -0.73336798 0.243901998
vt -0.73336798 0.241671994
vt -0.730723023 0.241671994
vt -0.730723023 0.241671994
vt -0.73336798 0.241671994
vt -0.730587006 0.239199996
vt -0.730723023 0.241671994
vt -0.730587006 0.239199996
vt -0.730723023 0.241671994
vt -0.730723023 0.241671994
vt -0.730587006 0.239199996
vt -0.730289996 0.239199996
vt -0.730723023 0.241671994
vt -0.730289996 0.239199996
vt -0.72833699 0.241671994
vt -0.72833699 0.241671994
vt -0.730289996 0.239199996
vt -0.728078008 0.239199996
vt -0.72833699 0.241671994
vt -0.728078008 0.239199996
vt -0.72833699 0.241671994
vt -0.72833699 0.241671994
vt -0.728078008 0.239199996
vt -0.727582991 0.239199996
vt -0.530412018 0.241671994
vt -0.530375004 0.239199996
vt -0.528097987 0.241671994
vt -0.528097987 0.241671994
vt -0.530375004 0.239199996
vt -0.528414011 0.239199996
vt -0.726442993 0.241671994
vt -0.726086974 0.239199996
vt -0.726442993 0.241671994
vt -0.528097987 0.241671994
vt -0.528414011 0.239199996
vt -0.527449012 0.239199996
vt -0.528097987 0.241671994
vt -0.527449012 0.239199996
vt -0.525180995 0.241671994
vt -0.525180995 0.241671994
vt -0.527449012 0.239199996
vt -0.525348008 0.239199996
vt -0.725226998 0.241671994
vt -0.724807978 0.239199996
vt -0.725226998 0.241671994
vt -0.525180995 0.241671994
vt -0.525348008 0.239199996
vt -0.523859024 0.239199996
vt -0.525180995 0.241671994
vt -0.523859024 0.239199996
vt -0.521948993 0.241671994
vt -0.521948993 0.241671994
vt -0.523859024 0.239199996
vt -0.521948993 0.239199996
vt -0.521948993 0.241671994
vt -0.521948993 0.241935998
vt -0.525180995 0.241671994
vt -0.525180995 0.241671994
vt -0.521948993 0.241935998
vt -0.521948993 0.243901998
vt -0.525180995 0.241671994
vt -0.521948993 0.243901998
vt -0.524698973 0.243901998
vt -0.524698973 0.243901998
vt -0.521948993 0.243901998
vt -0.521948993 0.244341999
vt -0.524698973 0.726442993
vt -0.521948993 0.726473987
vt -0.523947001 0.72833699
vt -0.523947001 0.72833699
vt -0.521948993 0.726473987
vt -0.521948993 0.728078008
vt -0.72833699 0.245672002
vt -0.728078008 0.245672002
vt -0.72833699 0.245672002
vt -0.523947001 0.72833699
vt -0.521948993 0.728078008
vt -0.521948993 0.728868008
vt -0.523947001 0.72833699
vt -0.521948993 0.728868008
vt -0.522998989 0.730723023
vt -0.522998989 0.730723023
vt -0.521948993 0.728868008
vt -0.521948993 0.730587006
vt -0.730723023 0.246808007
vt -0.730587006 0.246808007
vt -0.730723023 0.246808007
vt -0.522998989 0.730723023
vt -0.521948993 0.730587006
vt -0.521948993 0.731805027
vt -0.730723023 0.246808007
vt -0.731805027 0.247078001
vt -0.730723023 0.246808007
vt -0.522998989 0.730723023
vt -0.521948993 0.731805027
vt -0.521948993 0.73336798
vt -0.522998989 0.730723023
vt -0.521948993 0.73336798
vt -0.523947001 0.731118023
vt -0.523947001 0.731118023
vt -0.521948993 0.73336798
vt -0.524698973 0.731733024
vt -0.523947001 0.731118023
vt -0.524698973 0.731733024
vt -0.525749028 0.729088008
vt -0.525749028 0.729088008
vt -0.524698973 0.731733024
vt -0.527179003 0.730257988
vt -0.525749028 0.729088008
vt -0.527179003 0.730257988
vt -0.527179003 0.727477014
vt -0.527179003 0.727477014
vt -0.527179003 0.730257988
vt -0.529147983 0.729088008
vt -0.527179003 0.243901998
vt -0.529147983 0.243901998
vt -0.528097987 0.241671994
vt -0.726442993 0.241671994
vt -0.729088008 0.243901998
vt -0.729088008 0.243901998
vt -0.528097987 0.241671994
vt -0.529147983 0.243901998
vt -0.530412018 0.241671994
vt -0.72833699 0.241671994
vt -0.729088008 0.243901998
vt -0.731118023 0.243901998
vt -0.72833699 0.241671994
vt -0.731118023 0.243901998
vt -0.730723023 0.241671994
vt -0.730723023 0.241671994
vt -0.731118023 0.243901998
vt -0.731118023 0.243901998
vt -0.730723023 0.241671994
vt -0.731118023 0.243901998
vt -0.73336798 0.243901998
vt -0.530848026 0.73336798
vt -0.530412018 0.731118023
vt -0.528414011 0.73336798
vt -0.530848026 0.73336798
vt -0.528414011 0.73336798
vt -0.528097987 0.735002995
vt -0.528097987 0.735002995
vt -0.528414011 0.73336798
vt -0.525180995 0.734227002
vt -0.528097987 0.735002995
vt -0.525180995 0.734227002
vt -0.524698973 0.735002995
vt -0.735002995 0.246808007
vt -0.734227002 0.246808007
vt -0.734227002 0.246808007
vt -0.524698973 0.735002995
vt -0.525180995 0.734227002
vt -0.521948993 0.73336798
vt -0.521948993 0.73336798
vt -0.525180995 0.734227002
vt -0.525348008 0.73336798
vt -0.521948993 0.73336798
vt -0.525348008 0.73336798
vt -0.525180995 0.732508004
vt -0.525180995 0.732508004
vt -0.525348008 0.73336798
vt -0.528097987 0.731733024
vt -0.525180995 0.732508004
vt -0.528097987 0.731733024
vt -0.527179003 0.730257988
vt -0.730257988 0.245672002
vt -0.731733024 0.245672002
vt -0.731733024 0.245672002
vt -0.527179003 0.730257988
vt -0.528097987 0.731733024
vt -0.529147983 0.729088008
vt -0.729088008 0.243901998
vt -0.731733024 0.245672002
vt -0.731733024 0.245672002
vt -0.529147983 0.729088008
vt -0.528097987 0.731733024
vt -0.530412018 0.731118023
vt -0.731118023 0.243901998
vt -0.731733024 0.245672002
vt -0.731733024 0.245672002
vt -0.530412018 0.731118023
vt -0.528097987 0.731733024
vt -0.528414011 0.73336798
vt -0.528414011 0.73336798
vt -0.528097987 0.731733024
vt -0.525348008 0.73336798
vt -0.528414011 0.73336798
vt -0.525348008 0.73336798
vt -0.525180995 0.734227002
vt -0.527179003 0.730257988
vt -0.524698973 0.731733024
vt -0.525180995 0.732508004
vt -0.525180995 0.732508004
vt -0.524698973 0.731733024
vt -0.521948993 0.73336798
vt -0.528097987 0.241671994
vt -0.525180995 0.241671994
vt -0.527179003 0.243901998
vt -0.527179003 0.243901998
vt -0.525180995 0.241671994
vt -0.524698973 0.243901998
vt -0.527179003 0.727477014
vt -0.524698973 0.726442993
vt -0.525749028 0.729088008
vt -0.525749028 0.729088008
vt -0.524698973 0.726442993
vt -0.523947001 0.72833699
vt -0.525749028 0.729088008
vt -0.523947001 0.72833699
vt -0.523947001 0.731118023
vt -0.523947001 0.731118023
vt -0.523947001 0.72833699
vt -0.522998989 0.730723023
vt -0.730587006 0.239199996
vt -0.73336798 0.241671994
vt -0.73336798 0.239199996
vt -0.73336798 0.239199996
vt -0.73336798 0.241671994
vt -0.736012995 0.241671994
vt -0.73336798 0.239199996
vt -0.736012995 0.241671994
vt -0.736149013 0.239199996
vt -0.736149013 0.239199996
vt -0.736012995 0.241671994
vt -0.736012995 0.241671994
vt -0.736149013 0.239199996
vt -0.736012995 0.241671994
vt -0.736446023 0.239199996
vt -0.736446023 0.239199996
vt -0.736012995 0.241671994
vt -0.738399029 0.241671994
vt -0.736446023 0.239199996
vt -0.738399029 0.241671994
vt -0.738658011 0.239199996
vt -0.738658011 0.239199996
vt -0.738399029 0.241671994
vt -0.738399029 0.241671994
vt -0.738658011 0.239199996
vt -0.738399029 0.241671994
vt -0.739153028 0.239199996
vt 0.530375004 0.239199996
vt 0.530412018 0.241671994
vt 0.528097987 0.241671994
vt 0.530375004 0.239199996
vt 0.528097987 0.241671994
vt 0.528414011 0.239199996
vt -0.740648985 0.239199996
vt -0.740293026 0.241671994
vt -0.740293026 0.241671994
vt 0.528414011 0.239199996
vt 0.528097987 0.241671994
vt 0.527449012 0.239199996
vt 0.527449012 0.239199996
vt 0.528097987 0.241671994
vt 0.525180995 0.241671994
vt 0.527449012 0.239199996
vt 0.525180995 0.241671994
vt 0.525348008 0.239199996
vt 0.525348008 0.239199996
vt 0.525180995 0.241671994
vt 0.523859024 0.239199996
vt 0.525180995 0.241671994
vt 0.528097987 0.241671994
vt 0.524698973 0.243901998
vt 0.524698973 0.243901998
vt 0.528097987 0.241671994
vt 0.527179003 0.243901998
vt -0.524698973 0.740293026
vt -0.527179003 0.739257991
vt -0.523947001 0.738399029
vt -0.523947001 0.738399029
vt -0.527179003 0.739257991
vt -0.525749028 0.73764801
vt -0.523947001 0.738399029
vt -0.525749028 0.73764801
vt -0.522998989 0.736012995
vt -0.736012995 0.246808007
vt -0.73764801 0.245672002
vt -0.73764801 0.245672002
vt -0.522998989 0.736012995
vt -0.525749028 0.73764801
vt -0.523947001 0.735617995
vt -0.735617995 0.246808007
vt -0.73764801 0.245672002
vt -0.73764801 0.245672002
vt -0.523947001 0.735617995
vt -0.525749028 0.73764801
vt -0.527179003 0.736477017
vt -0.527179003 0.736477017
vt -0.525749028 0.73764801
vt -0.529147983 0.73764801
vt -0.527179003 0.736477017
vt -0.529147983 0.73764801
vt -0.530412018 0.735617995
vt -0.735617995 0.243901998
vt -0.73764801 0.243901998
vt -0.736012995 0.241671994
vt -0.735617995 0.243901998
vt -0.736012995 0.241671994
vt -0.73336798 0.241671994
vt -0.736012995 0.241671994
vt -0.73764801 0.243901998
vt -0.738399029 0.241671994
vt 0.530412018 0.241671994
vt 0.529147983 0.243901998
vt 0.527179003 0.243901998
vt 0.530412018 0.241671994
vt 0.527179003 0.243901998
vt 0.528097987 0.241671994
vt -0.529147983 0.73764801
vt -0.525749028 0.73764801
vt -0.527179003 0.739257991
f 1/1 2/2 3/3
f 3/4 2/5 4/6
f 3/7 4/8 3/9
f 3/10 4/11 5/12
f 3/13 5/14 3/15
f 3/16 5/17 6/18
f 3/19 6/20 3/21
f 3/22 6/23 7/24
f 3/25 7/26 3/27
f 3/28 7/29 8/30
f 3/31 8/32 3/33
f 3/34 8/35 9/36
f 3/37 9/38 3/39
f 3/40 9/41 10/42
f 3/43 10/44 3/45
f 3/46 10/47 11/48
f 3/49 11/50 3/51
f 3/52 11/53 12/54
f 3/55 12/56 3/57
f 3/58 12/59 13/60
f 3/61 13/62 3/63
f 3/64 13/65 14/66
f 3/67 14/68 3/69
f 3/70 14/71 15/72
f 3/73 15/74 3/75
f 3/76 15/77 16/78
f 3/79 16/80 3/81
f 3/82 16/83 17/84
f 3/85 17/86 3/87
f 3/88 17/89 18/90
f 3/91 18/92 3/93
f 3/94 18/95 19/96
f 3/97 19/98 1/99
f 20/100 21/101 22/102
f 22/103 21/104 23/105
f 22/106 23/107 22/108
f 22/109 23/110 24/111
f 22/112 24/113 22/114
f 22/115 24/116 25/117
f 22/118 25/119 22/120
f 22/121 25/122 26/123
f 22/124 26/125 22/126
f 22/127 26/128 27/129
f 22/130 27/131 22/132
f 22/133 27/134 28/135
f 22/136 28/137 22/138
f 22/139 28/140 29/141
f 22/142 29/143 22/144
f 22/145 29/146 30/147
f 22/148 30/149 22/150
f 22/151 30/152 31/153
f 22/154 31/155 22/156
f 22/157 31/158 32/159
f 22/160 32/161 22/162
f 22/163 32/164 33/165
f 22/166 33/167 22/168
f 22/169 33/170 34/171
f 22/172 34/173 22/174
f 22/175 34/176 35/177
f 22/178 35/179 22/180
f 22/181 35/182 36/183
f 22/184 36/185 22/186
f 22/187 36/188 37/189
f 22/190 37/191 22/192
f 22/193 37/194 38/195
f 22/196 38/197 22/198
f 22/199 38/200 39/201
f 22/202 39/203 20/204
f 40/205 41/206 42/207
f 42/208 41/209 43/210
f 42/211 43/212 42/213
f 42/214 43/215 44/216
f 42/217 44/218 45/219
f 45/220 44/221 46/222
f 45/223 46/224 45/225
f 45/226 46/227 47/228
f 45/229 47/230 48/231
f 48/232 47/233 49/234
f 48/235 49/236 48/237
f 48/238 49/239 50/240
f 48/241 50/242 51/243
f 51/244 50/245 52/246
f 51/247 52/248 51/249
f 51/250 52/251 53/252
f 51/253 53/254 54/255
f 54/256 53/257 55/258
f 54/259 55/260 54/261
f 54/262 55/263 56/264
f 54/265 56/266 57/267
f 57/268 56/269 58/270
f 57/271 58/272 57/273
f 57/274 58/275 59/276
f 57/277 59/278 60/279
f 60/280 59/281 61/282
f 60/283 61/284 60/285
f 60/286 61/287 62/288
f 60/289 62/290 63/291
f 63/292 62/293 64/294
f 63/295 64/296 63/297
f 63/298 64/299 65/300
f 63/301 65/302 66/303
f 40/304 67/305 68/306
f 68/307 67/308 67/309
f 68/310 67/311 69/312
f 69/313 67/314 70/315
f 69/316 70/317 71/318
f 71/319 70/320 72/321
f 71/322 72/323 73/324
f 73/325 72/326 74/327
f 73/328 74/329 75/330
f 75/331 74/332 76/333
f 75/334 76/335 77/336
f 77/337 76/338 78/339
f 77/340 78/341 79/342
f 79/343 78/344 80/345
f 79/346 80/347 81/348
f 81/349 80/350 82/351
f 81/352 82/353 66/354
f 60/355 63/356 83/357
f 83/358 63/359 66/360
f 83/361 66/362 84/363
f 84/364 66/365 82/366
f 84/367 82/368 85/369
f 85/370 82/371 80/372
f 85/373 80/374 86/375
f 86/376 80/377 78/378
f 86/379 78/380 87/381
f 87/382 78/383 76/384
f 87/385 76/386 88/387
f 88/388 76/389 74/390
f 88/391 74/392 89/393
f 89/394 74/395 72/396
f 89/397 72/398 90/399
f 90/400 72/401 70/402
f 90/403 70/404 91/405
f 91/406 70/407 67/408
f 91/409 67/410 91/411
f 91/412 67/413 40/414
f 91/415 40/416 92/417
f 92/418 40/419 42/420
f 92/421 42/422 93/423
f 93/424 42/425 45/426
f 93/427 45/428 94/429
f 94/430 45/431 48/432
f 94/433 48/434 95/435
f 95/436 48/437 51/438
f 95/439 51/440 96/441
f 96/442 51/443 54/444
f 96/445 54/446 97/447
f 97/448 54/449 57/450
f 97/451 57/452 98/453
f 98/454 57/455 60/456
f 98/457 60/458 98/459
f 98/460 60/461 83/462
f 98/463 83/464 98/465
f 98/466 83/467 84/468
f 98/469 84/470 98/471
f 98/472 84/473 85/474
f 98/475 85/476 97/477
f 97/478 85/479 86/480
f 97/481 86/482 96/483
f 96/484 86/485 87/486
f 96/487 87/488 95/489
f 95/490 87/491 88/492
f 95/493 88/494 94/495
f 94/496 88/497 89/498
f 94/499 89/500 93/501
f 93/502 89/503 90/504
f 93/505 90/506 92/507
f 92/508 90/509 91/510
f 99/511 100/512 101/513
f 101/514 100/515 102/516
f 101/517 102/518 103/519
f 103/520 102/521 102/522
f 103/523 102/524 104/525
f 104/526 102/527 105/528
f 104/529 105/530 106/531
f 106/532 105/533 107/534
f 106/535 107/536 108/537
f 108/538 107/539 107/540
f 108/541 107/542 109/543
f 109/544 107/545 110/546
f 109/547 110/548 111/549
f 111/550 110/551 110/552
f 111/553 110/554 112/555
f 112/556 110/557 110/558
f 112/559 110/560 113/561
f 113/562 110/563 114/564
f 113/565 114/566 115/567
f 115/568 114/569 116/570
f 115/571 116/572 117/573
f 117/574 116/575 118/576
f 117/577 118/578 119/579
f 119/580 118/581 120/582
f 119/583 120/584 121/585
f 121/586 120/587 122/588
f 121/589 122/590 121/591
f 121/592 122/593 123/594
f 121/595 123/596 124/597
f 124/598 123/599 125/600
f 124/601 125/602 124/603
f 124/604 125/605 126/606
f 124/607 126/608 127/609
f 127/610 126/611 128/612
f 127/613 128/614 127/615
f 127/616 128/617 129/618
f 127/619 129/620 130/621
f 130/622 129/623 131/624
f 130/625 131/626 130/627
f 130/628 131/629 132/630
f 130/631 132/632 133/633
f 133/634 132/635 134/636
f 133/637 135/638 130/639
f 130/640 135/641 136/642
f 130/643 136/644 137/645
f 137/646 136/647 138/648
f 137/649 138/650 139/651
f 139/652 138/653 140/654
f 139/655 140/656 139/657
f 139/658 140/659 141/660
f 139/661 141/662 142/663
f 142/664 141/665 143/666
f 142/667 143/668 142/669
f 142/670 143/671 144/672
f 142/673 144/674 142/675
f 142/676 144/677 113/678
f 142/679 113/680 145/681
f 145/682 113/683 146/684
f 145/685 146/686 147/687
f 147/688 146/689 148/690
f 147/691 148/692 149/693
f 149/694 148/695 150/696
f 149/697 150/698 127/699
f 127/700 150/701 150/702
f 127/703 150/704 124/705
f 124/706 150/707 151/708
f 124/709 151/710 121/711
f 121/712 151/713 151/714
f 121/715 151/716 119/717
f 119/718 151/719 152/720
f 119/721 152/722 117/723
f 117/724 152/725 153/726
f 117/727 153/728 115/729
f 115/730 153/731 153/732
f 115/733 153/734 113/735
f 113/736 153/737 154/738
f 113/739 154/740 155/741
f 155/742 154/743 156/744
f 155/745 156/746 148/747
f 148/748 156/749 156/750
f 148/751 156/752 150/753
f 150/754 156/755 156/756
f 150/757 156/758 151/759
f 151/760 156/761 156/762
f 151/763 156/764 152/765
f 152/766 156/767 154/768
f 152/769 154/770 153/771
f 148/772 146/773 155/774
f 155/775 146/776 113/777
f 127/778 130/779 149/780
f 149/781 130/782 137/783
f 149/784 137/785 147/786
f 147/787 137/788 139/789
f 147/790 139/791 145/792
f 145/793 139/794 142/795
f 122/796 120/797 157/798
f 157/799 120/800 158/801
f 157/802 158/803 159/804
f 159/805 158/806 158/807
f 159/808 158/809 160/810
f 160/811 158/812 161/813
f 160/814 161/815 162/816
f 162/817 161/818 161/819
f 162/820 161/821 163/822
f 163/823 161/824 164/825
f 163/826 164/827 165/828
f 165/829 164/830 164/831
f 165/832 164/833 166/834
f 166/835 164/836 102/837
f 166/838 102/839 167/840
f 167/841 102/842 100/843
f 102/844 164/845 105/846
f 105/847 164/848 168/849
f 105/850 168/851 107/852
f 107/853 168/854 169/855
f 107/856 169/857 110/858
f 110/859 169/860 169/861
f 110/862 169/863 114/864
f 114/865 169/866 169/867
f 114/868 169/869 116/870
f 116/871 169/872 170/873
f 116/874 170/875 118/876
f 118/877 170/878 158/879
f 118/880 158/881 120/882
f 158/883 170/884 161/885
f 161/886 170/887 168/888
f 161/889 168/890 164/891
f 170/892 169/893 168/894
