# Exported from USD for MuJoCo with source material subsets
v -11.539238 0.242499033 0.0711481515
v -11.5392385 0.242499033 1.98514825
v -11.539238 0.243598977 0.0711481515
v -11.5392385 0.243598977 1.98514825
v -10.3532839 0.957388321 1.11623222
v -10.3620839 0.957388321 1.11623222
v -10.3532841 0.957388321 1.92959868
v -10.3620841 0.957388321 1.92959868
v -11.516136 0.243598977 0.09424817
v -10.0864992 0.243598143 0.0942486468
v -11.516136 0.243598977 0.103048319
v -10.0864992 0.243598143 0.103048557
v -10.0864994 0.956398169 1.96204876
v -10.0864994 0.956398169 1.95324867
v -11.51469 0.956399122 1.96204829
v -11.51469 0.956399122 1.9532482
v -10.0864994 0.957498113 1.95324867
v -10.0864994 0.957498113 1.96204876
v -11.51469 0.957498947 1.96204829
v -11.51469 0.957498947 1.9532482
v -11.516136 0.242499033 0.103048319
v -11.516136 0.242499033 0.09424817
v -11.5700384 0.296627561 1.96204829
v -11.5700381 0.902102748 1.96204829
v -11.5700384 0.296627561 1.9532482
v -11.5700381 0.902102748 1.9532482
v -11.5711384 0.296627561 1.96204829
v -11.5711384 0.296627561 1.9532482
v -11.5711381 0.902102748 1.96204829
v -11.5711381 0.902102748 1.9532482
v -10.0864992 0.242498199 0.103048557
v -11.5480375 0.957498947 0.0711481515
v -11.5480381 0.957498947 1.98514825
v -11.5480375 0.956399122 0.0711481515
v -11.5480381 0.956399122 1.98514825
v -11.5392375 0.956399122 0.0711481515
v -11.5392381 0.956399122 1.98514825
v -11.5392375 0.957498947 0.0711481515
v -11.5392381 0.957498947 1.98514825
v -11.5700381 0.925599137 1.98514825
v -11.5700381 0.934399048 1.98514825
v -11.5700375 0.925599137 0.0711481515
v -11.5700375 0.934399048 0.0711481515
v -11.2248286 0.957388917 1.11623198
v -11.2336286 0.957388917 1.11623198
v -11.2248288 0.957388917 1.92959845
v -11.2336288 0.957388917 1.92959845
v -11.5711375 0.925599137 0.0711481515
v -11.5711381 0.925599137 1.98514825
v -11.5711379 0.265599052 0.0711481515
v -11.5711385 0.265599052 1.98514825
v -11.5700379 0.265599052 0.0711481515
v -11.5700385 0.265599052 1.98514825
v -11.5700379 0.274399081 0.0711481515
v -11.5700385 0.274399081 1.98514825
v -11.5711379 0.274399081 0.0711481515
v -11.5711385 0.274399081 1.98514825
v -11.5161356 0.957498947 0.09424817
v -11.5161356 0.956399122 0.09424817
v -10.0864988 0.957498113 0.0942486468
v -10.0864988 0.956398169 0.0942486468
v -10.0863255 0.243598143 1.09258232
v -11.5154963 0.243598977 1.09258183
v -10.0863255 0.243598143 1.08378226
v -11.5154963 0.243598977 1.08378177
v -10.0863255 0.242498199 1.09258232
v -10.0863255 0.242498199 1.08378226
v -11.5154963 0.242499033 1.09258183
v -11.5154963 0.242499033 1.08378177
v -10.0864988 0.957498113 0.103048557
v -10.0864988 0.956398169 0.103048557
v -11.5161356 0.957498947 0.103048319
v -11.5161356 0.956399122 0.103048319
v -11.5154958 0.956399122 1.09258183
v -11.5154958 0.956399122 1.08378177
v -11.5154958 0.957498947 1.09258183
v -11.5154958 0.957498947 1.08378177
v -10.0863251 0.956398169 1.09258232
v -10.0863251 0.957498113 1.09258232
v -10.0863251 0.956398169 1.08378226
v -10.0863251 0.957498113 1.08378226
v -10.0630375 0.956398169 0.0711487475
v -10.063038 0.956398169 1.98514872
v -10.0542375 0.956398169 0.0711487475
v -10.054238 0.956398169 1.98514872
v -10.0630375 0.957498113 0.0711487475
v -10.063038 0.957498113 1.98514872
v -10.0542375 0.957498113 0.0711487475
v -10.054238 0.957498113 1.98514872
v -11.5480379 0.243598977 0.0711481515
v -11.5480385 0.243598977 1.98514825
v -11.5480379 0.242499033 0.0711481515
v -11.5480385 0.242499033 1.98514825
v -10.0630384 0.242498079 1.98514872
v -10.0630384 0.242498079 1.97367781
v -10.0630384 0.243598143 1.98514872
v -10.0630382 0.242498079 1.11300493
v -10.0630379 0.243598143 0.0711487475
v -10.0630379 0.242498079 0.0711487475
v -10.0542385 0.243598143 1.98514872
v -10.0542379 0.243598143 0.0711487475
v -10.0542385 0.242498079 1.98514872
v -10.0542385 0.242498079 1.97367781
v -10.0542382 0.242498079 1.11300493
v -10.0542379 0.242498079 0.0711487475
v -11.5857647 0.847389141 1.55675861
v -11.583048 0.847389141 1.56967374
v -11.5887449 0.847916046 1.55128079
v -11.5862774 0.850689093 1.57035306
v -11.5912624 0.850689093 1.5466535
v -11.571028 0.868289152 1.57326286
v -11.571028 0.868289152 1.56483343
v -11.574328 0.864988962 1.57326286
v -11.574328 0.864988962 1.56483343
v -11.571028 0.84408907 1.57326286
v -11.571028 0.849804798 1.57656279
v -11.574328 0.847389141 1.57326286
v -11.5743272 0.850704113 1.57656279
v -11.574328 0.850689093 1.56153351
v -11.571028 0.849804798 1.56153351
v -11.574328 0.847389141 1.56483343
v -11.571028 0.84408907 1.56483343
v -11.5871158 0.847916046 1.55067071
v -11.5812548 0.847389141 1.56483343
v -11.579318 0.850689093 1.56153351
v -11.5882571 0.850689093 1.54552811
v -11.5700382 0.296627561 1.1036851
v -11.5700378 0.902102748 1.1036851
v -11.5700382 0.296627561 1.09488518
v -11.5700378 0.902102748 1.09488518
v -11.5711382 0.296627561 1.1036851
v -11.5711382 0.296627561 1.09488518
v -11.5711378 0.902102748 1.1036851
v -11.5711378 0.902102748 1.09488518
v -11.5835527 0.850689093 1.57481509
v -11.5786254 0.847389141 1.57326286
v -11.5786254 0.850689093 1.57656279
v -11.5146904 0.243598977 1.9532482
v -10.0864998 0.243598143 1.95324867
v -11.5146904 0.243598977 1.96204829
v -10.0864998 0.243598143 1.96204876
v -11.5862774 0.86168913 1.57035306
v -11.5912624 0.86168913 1.5466535
v -11.5146904 0.242499033 1.9532482
v -11.5146904 0.242499033 1.96204829
v -11.579318 0.86168913 1.56153351
v -11.574328 0.86168913 1.56153351
v -11.571028 0.862573186 1.56153351
v -10.0864998 0.242498199 1.95324867
v -11.1707395 0.242498795 1.95324832
v -11.5786254 0.86168913 1.57656279
v -11.5786254 0.864988962 1.57326286
v -11.5835527 0.86168913 1.57481509
v -11.583048 0.864988962 1.56967374
v -11.5882571 0.86168913 1.54552811
v -10.0864998 0.242498199 1.96204876
v -11.1707395 0.242498795 1.96204841
v -11.5812548 0.864988962 1.56483343
v -11.5857647 0.864989201 1.55675861
v -10.0864992 0.242498199 0.0942486468
v -11.5887449 0.864462176 1.55128079
v -11.5743272 0.86167411 1.57656279
v -11.5711375 0.934399048 0.0711481515
v -11.5711381 0.934399048 1.98514825
v -11.5871158 0.864462176 1.55067071
v -11.571028 0.862573186 1.57656279
vt 0.174767002 0.0615000017
vt 0.174767002 1.80149996
vt 0.173767 0.0615000017
vt 0.173767 0.0615000017
vt 0.174767002 1.80149996
vt 0.173767 1.80149996
vt 1.01157606 0.433591008
vt 1.01157606 0.425590992
vt 1.75100005 0.433591008
vt 1.75100005 0.433591008
vt 1.01157606 0.425590992
vt 1.75100005 0.425590992
vt -0.0825000033 -0.623547018
vt -0.0825000033 0.67612201
vt -0.0904999971 -0.623547018
vt -0.0904999971 -0.623547018
vt -0.0825000033 0.67612201
vt -0.0904999971 0.67612201
vt 1.78050005 0.67612201
vt 1.77250004 0.67612201
vt 1.78050005 -0.622232974
vt 1.78050005 -0.622232974
vt 1.77250004 0.67612201
vt 1.77250004 -0.622232974
vt -0.474233001 1.77250004
vt -0.474233001 1.78050005
vt -0.475232989 1.77250004
vt -0.475232989 1.77250004
vt -0.474233001 1.78050005
vt -0.475232989 1.78050005
vt 0.474233001 0.67612201
vt 0.474233001 -0.622232974
vt 0.475232989 0.67612201
vt 0.475232989 0.67612201
vt 0.474233001 -0.622232974
vt 0.475232989 -0.622232974
vt -0.475232989 0.67612201
vt -0.475232989 -0.622232974
vt -0.474233001 0.67612201
vt -0.474233001 0.67612201
vt -0.475232989 -0.622232974
vt -0.474233001 -0.622232974
vt -0.174767002 0.0904999971
vt -0.174767002 0.0825000033
vt -0.173767 0.0904999971
vt -0.173767 0.0904999971
vt -0.174767002 0.0825000033
vt -0.173767 0.0825000033
vt 0.474233001 1.78050005
vt 0.474233001 1.77250004
vt 0.475232989 1.78050005
vt 0.475232989 1.78050005
vt 0.474233001 1.77250004
vt 0.475232989 1.77250004
vt 0.125559002 1.78050005
vt -0.424872994 1.78050005
vt 0.125559002 1.77250004
vt 0.125559002 1.77250004
vt -0.424872994 1.78050005
vt -0.424872994 1.77250004
vt 1.78050005 -0.672549009
vt 1.77250004 -0.672549009
vt 1.78050005 -0.673548996
vt 1.78050005 -0.673548996
vt 1.77250004 -0.672549009
vt 1.77250004 -0.673548996
vt -0.125559002 -0.672549009
vt -0.125559002 -0.673548996
vt 0.424872994 -0.672549009
vt 0.424872994 -0.672549009
vt -0.125559002 -0.673548996
vt 0.424872994 -0.673548996
vt 0.125559002 -0.673548996
vt 0.125559002 -0.672549009
vt -0.424872994 -0.673548996
vt -0.424872994 -0.673548996
vt 0.125559002 -0.672549009
vt -0.424872994 -0.672549009
vt -0.173767 0.67612201
vt -0.174767002 0.67612201
vt -0.173767 -0.623547018
vt -0.173767 -0.623547018
vt -0.174767002 0.67612201
vt -0.174767002 -0.623547018
vt -1.78050005 -0.673548996
vt -1.77250004 -0.673548996
vt -1.78050005 -0.672549009
vt -1.78050005 -0.672549009
vt -1.77250004 -0.673548996
vt -1.77250004 -0.672549009
vt 0.475232989 0.0615000017
vt 0.475232989 1.80149996
vt 0.474233001 0.0615000017
vt 0.474233001 0.0615000017
vt 0.475232989 1.80149996
vt 0.474233001 1.80149996
vt -0.474233001 0.0615000017
vt -0.474233001 1.80149996
vt -0.475232989 0.0615000017
vt -0.475232989 0.0615000017
vt -0.474233001 1.80149996
vt -0.475232989 1.80149996
vt -0.446233004 1.80149996
vt -0.454232991 1.80149996
vt -0.446233004 0.0615000017
vt -0.446233004 0.0615000017
vt -0.454232991 1.80149996
vt -0.454232991 0.0615000017
vt 0.0615000017 -0.652549028
vt 1.80149996 -0.652549028
vt 0.0615000017 -0.644549012
vt 0.0615000017 -0.644549012
vt 1.80149996 -0.652549028
vt 1.80149996 -0.644549012
vt 1.01157606 -0.358723015
vt 1.01157606 -0.366723001
vt 1.75100005 -0.358723015
vt 1.75100005 -0.358723015
vt 1.01157606 -0.366723001
vt 1.75100005 -0.366723001
vt 0.0615000017 -0.673548996
vt 1.80149996 -0.673548996
vt 0.0615000017 -0.672549009
vt 0.0615000017 -0.672549009
vt 1.80149996 -0.673548996
vt 1.80149996 -0.672549009
vt 0.0615000017 -0.673548996
vt 1.80149996 -0.673548996
vt 0.0615000017 -0.672549009
vt 0.0615000017 -0.672549009
vt 1.80149996 -0.673548996
vt 1.80149996 -0.672549009
vt 0.145767003 0.0615000017
vt 0.153767005 0.0615000017
vt 0.145767003 1.80149996
vt 0.145767003 1.80149996
vt 0.153767005 0.0615000017
vt 0.153767005 1.80149996
vt -0.0615000017 -0.672549009
vt -1.80149996 -0.672549009
vt -0.0615000017 -0.673548996
vt -0.0615000017 -0.673548996
vt -1.80149996 -0.672549009
vt -1.80149996 -0.673548996
vt -0.475232989 -0.623547018
vt -0.474233001 -0.623547018
vt -0.475232989 0.67612201
vt -0.475232989 0.67612201
vt -0.474233001 -0.623547018
vt -0.474233001 0.67612201
vt -0.990076005 0.676280975
vt -0.990076005 -0.622965991
vt -0.982075989 0.676280975
vt -0.982075989 0.676280975
vt -0.990076005 -0.622965991
vt -0.982075989 -0.622965991
vt 0.173767 0.990076005
vt 0.173767 0.982075989
vt 0.174767002 0.990076005
vt 0.174767002 0.990076005
vt 0.173767 0.982075989
vt 0.174767002 0.982075989
vt -0.173767 0.676280975
vt -0.174767002 0.676280975
vt -0.173767 -0.622965991
vt -0.173767 -0.622965991
vt -0.174767002 0.676280975
vt -0.174767002 -0.622965991
vt 0.174767002 0.676280975
vt 0.173767 0.676280975
vt 0.174767002 -0.622965991
vt 0.174767002 -0.622965991
vt 0.173767 0.676280975
vt 0.173767 -0.622965991
vt 0.475232989 0.67612201
vt 0.474233001 0.67612201
vt 0.475232989 -0.623547018
vt 0.475232989 -0.623547018
vt 0.474233001 0.67612201
vt 0.474233001 -0.623547018
vt -0.174767002 0.990076005
vt -0.174767002 0.982075989
vt -0.173767 0.990076005
vt -0.173767 0.990076005
vt -0.174767002 0.982075989
vt -0.173767 0.982075989
vt 0.474233001 0.990076005
vt 0.474233001 0.982075989
vt 0.475232989 0.990076005
vt 0.475232989 0.990076005
vt 0.474233001 0.982075989
vt 0.475232989 0.982075989
vt 0.474233001 -0.622965991
vt 0.475232989 -0.622965991
vt 0.474233001 0.676280975
vt 0.474233001 0.676280975
vt 0.475232989 -0.622965991
vt 0.475232989 0.676280975
vt 0.990076005 0.676280975
vt 0.982075989 0.676280975
vt 0.990076005 -0.622965991
vt 0.990076005 -0.622965991
vt 0.982075989 0.676280975
vt 0.982075989 -0.622965991
vt -0.474233001 0.982075989
vt -0.474233001 0.990076005
vt -0.475232989 0.982075989
vt -0.475232989 0.982075989
vt -0.474233001 0.990076005
vt -0.475232989 0.990076005
vt -0.474233001 0.676280975
vt -0.475232989 0.676280975
vt -0.474233001 -0.622965991
vt -0.474233001 -0.622965991
vt -0.475232989 0.676280975
vt -0.475232989 -0.622965991
vt 0.0615000017 0.697450995
vt 1.80149996 0.697450995
vt 0.0615000017 0.705451012
vt 0.0615000017 0.705451012
vt 1.80149996 0.697450995
vt 1.80149996 0.705451012
vt 0.474233001 0.0615000017
vt 0.475232989 0.0615000017
vt 0.474233001 1.80149996
vt 0.474233001 1.80149996
vt 0.475232989 0.0615000017
vt 0.475232989 1.80149996
vt -0.475232989 0.0615000017
vt -0.474233001 0.0615000017
vt -0.475232989 1.80149996
vt -0.475232989 1.80149996
vt -0.474233001 0.0615000017
vt -0.474233001 1.80149996
vt -0.173767 0.0615000017
vt -0.173767 1.80149996
vt -0.174767002 0.0615000017
vt -0.174767002 0.0615000017
vt -0.173767 1.80149996
vt -0.174767002 1.80149996
vt -0.174767002 1.80149996
vt -0.174767002 1.79107201
vt -0.173767 1.80149996
vt -0.173767 1.80149996
vt -0.174767002 1.79107201
vt -0.174767002 1.00864196
vt -0.173767 1.80149996
vt -0.174767002 1.00864196
vt -0.173767 0.0615000017
vt -0.173767 0.0615000017
vt -0.174767002 1.00864196
vt -0.174767002 0.0615000017
vt -1.80149996 0.705451012
vt -1.80149996 0.697450995
vt -0.0615000017 0.705451012
vt -0.0615000017 0.705451012
vt -1.80149996 0.697450995
vt -0.0615000017 0.697450995
vt 0.174767002 1.80149996
vt 0.173767 1.80149996
vt 0.174767002 1.79107201
vt -1.79107201 0.705451012
vt -1.80149996 0.705451012
vt -1.80149996 0.705451012
vt 0.174767002 1.79107201
vt 0.173767 1.80149996
vt 0.174767002 1.00864196
vt 0.174767002 1.00864196
vt 0.173767 1.80149996
vt 0.173767 0.0615000017
vt 0.174767002 1.00864196
vt 0.173767 0.0615000017
vt 0.174767002 0.0615000017
vt -1.41205502 -0.686846018
vt -1.42379606 -0.684376001
vt -1.40707505 -0.689554989
vt -1.40707505 -0.689554989
vt -1.42379606 -0.684376001
vt -1.42441297 -0.687312007
vt -0.375611991 1.40707505
vt -0.378132999 1.42441297
vt -0.378132999 1.40286803
vt 1.42705905 -0.67344898
vt 1.41939604 -0.67344898
vt 1.42705905 -0.676449001
vt 1.42705905 -0.676449001
vt 1.41939604 -0.67344898
vt 1.41939604 -0.676449001
vt -0.372132987 -0.67344898
vt -0.377328992 -0.67344898
vt -0.375133008 -0.676449001
vt -0.375133008 -0.676449001
vt -0.377328992 -0.67344898
vt -0.378147006 -0.676449001
vt -1.41639602 -0.676449001
vt -1.41639602 -0.67344898
vt -1.41939604 -0.676449001
vt 0.375133008 -0.676449001
vt 0.377328992 -0.67344898
vt 0.372132987 -0.67344898
vt -1.41205502 -0.686846018
vt -1.40652001 -0.688073993
vt -1.41939604 -0.682745993
vt -1.41939604 -0.682745993
vt -1.40652001 -0.688073993
vt -1.40652001 -0.688073993
vt -1.41939604 -0.682745993
vt -1.40652001 -0.688073993
vt -1.41639602 -0.680985987
vt 0.378132999 1.41639602
vt 0.375611991 1.40652001
vt 0.378132999 1.40184498
vt 0.125559002 1.00016999
vt -0.424872994 1.00016999
vt 0.125559002 0.992169976
vt 0.125559002 0.992169976
vt -0.424872994 1.00016999
vt -0.424872994 0.992169976
vt 1.00016999 -0.672549009
vt 0.992169976 -0.672549009
vt 1.00016999 -0.673548996
vt 1.00016999 -0.673548996
vt 0.992169976 -0.672549009
vt 0.992169976 -0.673548996
vt -1.41205502 -0.686846018
vt -1.40707505 -0.689554989
vt -1.40652001 -0.688073993
vt -1.40652001 -0.688073993
vt -1.40707505 -0.689554989
vt -1.40286803 -0.691843987
vt -1.40652001 -0.688073993
vt -1.40286803 -0.691843987
vt -1.40184498 -0.689112008
vt 0.424872994 -0.673548996
vt 0.424872994 -0.672549009
vt -0.125559002 -0.673548996
vt -0.125559002 -0.673548996
vt 0.424872994 -0.672549009
vt -0.125559002 -0.672549009
vt 0.125559002 -0.673548996
vt 0.125559002 -0.672549009
vt -0.424872994 -0.673548996
vt -0.424872994 -0.673548996
vt 0.125559002 -0.672549009
vt -0.424872994 -0.672549009
vt -1.41939604 -0.682745993
vt -1.41639602 -0.680985987
vt -1.41939604 -0.676449001
vt -1.41939604 -0.676449001
vt -1.41639602 -0.680985987
vt -1.41639602 -0.676449001
vt -1.42441297 -0.687312007
vt -1.42379606 -0.684376001
vt -1.42847002 -0.684835017
vt -1.42847002 -0.684835017
vt -1.42379606 -0.684376001
vt -1.42705905 -0.680356026
vt -1.42847002 -0.684835017
vt -1.42705905 -0.680356026
vt -1.43005896 -0.680356026
vt -0.992169976 -0.672549009
vt -1.00016999 -0.672549009
vt -0.992169976 -0.673548996
vt -0.992169976 -0.673548996
vt -1.00016999 -0.672549009
vt -1.00016999 -0.673548996
vt -1.77250004 -0.622232974
vt -1.77250004 0.67612201
vt -1.78050005 -0.622232974
vt -1.78050005 -0.622232974
vt -1.77250004 0.67612201
vt -1.78050005 0.67612201
vt -0.378132999 1.42441297
vt -0.388132989 1.42441297
vt -0.378132999 1.40286803
vt -0.378132999 1.40286803
vt -0.388132989 1.42441297
vt -0.388132989 1.40286803
vt -0.173767 1.77250004
vt -0.173767 1.78050005
vt -0.174767002 1.77250004
vt -0.174767002 1.77250004
vt -0.173767 1.78050005
vt -0.174767002 1.78050005
vt 0.378132999 -0.680985987
vt 0.388132989 -0.680985987
vt 0.378132999 -0.676449001
vt 0.378132999 -0.676449001
vt 0.388132989 -0.680985987
vt 0.388132989 -0.676449001
vt 0.378132999 -0.676449001
vt 0.388132989 -0.676449001
vt 0.377328992 -0.67344898
vt 0.377328992 -0.67344898
vt 0.388132989 -0.676449001
vt 0.388936996 -0.67344898
vt 0.174767002 0.67612201
vt 0.173767 0.67612201
vt 0.174767002 -0.309549987
vt 0.174767002 -0.309549987
vt 0.173767 0.67612201
vt 0.173767 -0.622232974
vt 0.174767002 -0.309549987
vt 0.173767 -0.622232974
vt 0.174767002 -0.622232974
vt 1.43005896 -0.680356026
vt 1.42705905 -0.680356026
vt 1.42847002 -0.684835017
vt 1.42847002 -0.684835017
vt 1.42705905 -0.680356026
vt 1.42379606 -0.684376001
vt 1.42847002 -0.684835017
vt 1.42379606 -0.684376001
vt 1.42441297 -0.687312007
vt 0.378132999 -0.689112008
vt 0.378132999 -0.691843987
vt 0.388132989 -0.689112008
vt 0.388132989 -0.689112008
vt 0.378132999 -0.691843987
vt 0.388132989 -0.691843987
vt -0.174767002 0.67612201
vt -0.174767002 -0.309549987
vt -0.173767 0.67612201
vt -1.78050005 0.67612201
vt -1.78050005 -0.309549987
vt -1.78050005 -0.309549987
vt -0.173767 0.67612201
vt -0.174767002 -0.309549987
vt -0.173767 -0.622232974
vt -0.173767 -0.622232974
vt -0.174767002 -0.309549987
vt -0.174767002 -0.622232974
vt -1.42705905 -0.676449001
vt -1.42705905 -0.680356026
vt -1.41939604 -0.676449001
vt -1.41939604 -0.676449001
vt -1.42705905 -0.680356026
vt -1.42705905 -0.680356026
vt -1.41939604 -0.676449001
vt -1.42705905 -0.680356026
vt -1.41939604 -0.682745993
vt -1.41939604 -0.682745993
vt -1.42705905 -0.680356026
vt -1.42379606 -0.684376001
vt -1.41939604 -0.682745993
vt -1.42379606 -0.684376001
vt -1.41205502 -0.686846018
vt 1.42705905 -0.676449001
vt 1.41939604 -0.676449001
vt 1.42705905 -0.680356026
vt 1.42705905 -0.680356026
vt 1.41939604 -0.676449001
vt 1.41939604 -0.682745993
vt 1.42705905 -0.680356026
vt 1.41939604 -0.682745993
vt 1.42379606 -0.684376001
vt 1.42379606 -0.684376001
vt 1.41939604 -0.682745993
vt 1.41205502 -0.686846018
vt 0.174767002 0.67612201
vt 0.173767 0.67612201
vt 0.174767002 -0.623547018
vt 0.174767002 -0.623547018
vt 0.173767 0.67612201
vt 0.173767 -0.623547018
vt -0.388132989 1.40286803
vt -0.388132989 1.42441297
vt -0.390653998 1.40707505
vt 1.40707505 -0.689554989
vt 1.42441297 -0.687312007
vt 1.42379606 -0.684376001
vt 1.40707505 -0.689554989
vt 1.42379606 -0.684376001
vt 1.41205502 -0.686846018
vt 0.388132989 1.41639602
vt 0.378132999 1.41639602
vt 0.388132989 1.40184498
vt 0.388132989 1.40184498
vt 0.378132999 1.41639602
vt 0.378132999 1.40184498
vt -0.388119996 -0.676449001
vt -0.39113301 -0.676449001
vt -0.388132989 -0.680356026
vt 1.43005896 -0.680356026
vt 1.42705905 -0.676449001
vt 1.42705905 -0.680356026
vt -0.0615000017 -0.672549009
vt -1.80149996 -0.672549009
vt -0.0615000017 -0.673548996
vt -0.0615000017 -0.673548996
vt -1.80149996 -0.672549009
vt -1.80149996 -0.673548996
vt 0.388132989 1.40184498
vt 0.390653998 1.40652001
vt 0.388132989 1.41639602
vt 1.41639602 -0.680985987
vt 1.40652001 -0.688073993
vt 1.41205502 -0.686846018
vt 1.41639602 -0.680985987
vt 1.41205502 -0.686846018
vt 1.41939604 -0.682745993
vt 1.41639602 -0.676449001
vt 1.41939604 -0.676449001
vt 1.41639602 -0.67344898
vt 0.388936996 -0.67344898
vt 0.39113301 -0.676449001
vt 0.394133002 -0.67344898
vt 1.41639602 -0.676449001
vt 1.41639602 -0.680985987
vt 1.41939604 -0.676449001
vt 1.41939604 -0.676449001
vt 1.41639602 -0.680985987
vt 1.41939604 -0.682745993
vt -0.474233001 0.0825000033
vt -0.474233001 0.0904999971
vt -0.475232989 0.0825000033
vt -0.475232989 0.0825000033
vt -0.474233001 0.0904999971
vt -0.475232989 0.0904999971
vt -0.388119996 -0.676449001
vt -0.388936996 -0.67344898
vt -0.39113301 -0.676449001
vt -0.39113301 -0.676449001
vt -0.388936996 -0.67344898
vt -0.394133002 -0.67344898
vt 0.0825000033 -0.623547018
vt 0.0904999971 -0.623547018
vt 0.0825000033 0.67612201
vt 0.0825000033 0.67612201
vt 0.0904999971 -0.623547018
vt 0.0904999971 0.67612201
vt -1.42705905 -0.676449001
vt -1.41939604 -0.676449001
vt -1.42705905 -0.67344898
vt -1.42705905 -0.67344898
vt -1.41939604 -0.676449001
vt -1.41939604 -0.67344898
vt -0.0615000017 -0.652549028
vt -0.0615000017 -0.644549012
vt -1.80149996 -0.652549028
vt -1.80149996 -0.652549028
vt -0.0615000017 -0.644549012
vt -1.80149996 -0.644549012
vt -0.378132999 1.42441297
vt -0.378132999 1.42847002
vt -0.388132989 1.42441297
vt -1.42441297 -0.687312007
vt -1.42847002 -0.684835017
vt -1.42847002 -0.684835017
vt -0.388132989 1.42441297
vt -0.378132999 1.42847002
vt -0.388132989 1.42847002
vt -0.388132989 -0.684835017
vt -0.378132999 -0.684835017
vt -0.378132999 -0.680356026
vt -0.388132989 -0.684835017
vt -0.378132999 -0.680356026
vt -0.388132989 -0.680356026
vt 0.174767002 1.77250004
vt 0.174767002 1.78050005
vt 0.173767 1.77250004
vt 0.173767 1.77250004
vt 0.174767002 1.78050005
vt 0.173767 1.78050005
vt -1.43005896 -0.680356026
vt -1.42705905 -0.680356026
vt -1.43005896 -0.676449001
vt -0.378147006 -0.676449001
vt -0.375133008 -0.680356026
vt -0.375133008 -0.676449001
vt -0.377328992 -0.67344898
vt -0.388936996 -0.67344898
vt -0.378147006 -0.676449001
vt -0.378147006 -0.676449001
vt -0.388936996 -0.67344898
vt -0.388119996 -0.676449001
vt -0.378147006 -0.676449001
vt -0.388119996 -0.676449001
vt -0.378132999 -0.680356026
vt -0.378132999 -0.680356026
vt -0.388119996 -0.676449001
vt -0.388132989 -0.680356026
vt 0.474233001 0.0904999971
vt 0.474233001 0.0825000033
vt 0.475232989 0.0904999971
vt 0.475232989 0.0904999971
vt 0.474233001 0.0825000033
vt 0.475232989 0.0825000033
vt 0.174767002 0.0825000033
vt 0.174767002 0.0904999971
vt 0.173767 0.0825000033
vt 0.173767 0.0825000033
vt 0.174767002 0.0904999971
vt 0.173767 0.0904999971
vt 1.40286803 -0.691843987
vt 1.40707505 -0.689554989
vt 1.40184498 -0.689112008
vt -1.40184498 -0.689112008
vt -1.40707505 -0.689554989
vt -1.40707505 -0.689554989
vt 1.40184498 -0.689112008
vt 1.40707505 -0.689554989
vt 1.40652001 -0.688073993
vt 1.40652001 -0.688073993
vt 1.40707505 -0.689554989
vt 1.41205502 -0.686846018
f 1/1 2/2 3/3
f 3/4 2/5 4/6
f 5/7 6/8 7/9
f 7/10 6/11 8/12
f 9/13 10/14 11/15
f 11/16 10/17 12/18
f 13/19 14/20 15/21
f 15/22 14/23 16/24
f 14/25 13/26 17/27
f 17/28 13/29 18/30
f 13/31 15/32 18/33
f 18/34 15/35 19/36
f 17/37 20/38 14/39
f 14/40 20/41 16/42
f 21/43 22/44 11/45
f 11/46 22/47 9/48
f 15/49 16/50 19/51
f 19/52 16/53 20/54
f 23/55 24/56 25/57
f 25/58 24/59 26/60
f 23/61 25/62 27/63
f 27/64 25/65 28/66
f 23/67 27/68 24/69
f 24/70 27/71 29/72
f 28/73 25/74 30/75
f 30/76 25/77 26/78
f 12/79 31/80 11/81
f 11/82 31/83 21/84
f 29/85 30/86 24/87
f 24/88 30/89 26/90
f 32/91 33/92 34/93
f 34/94 33/95 35/96
f 36/97 37/98 38/99
f 38/100 37/101 39/102
f 40/103 41/104 42/105
f 42/106 41/107 43/108
f 34/109 35/110 36/111
f 36/112 35/113 37/114
f 44/115 45/116 46/117
f 46/118 45/119 47/120
f 48/121 49/122 42/123
f 42/124 49/125 40/126
f 50/127 51/128 52/129
f 52/130 51/131 53/132
f 54/133 52/134 55/135
f 55/136 52/137 53/138
f 54/139 55/140 56/141
f 56/142 55/143 57/144
f 58/145 59/146 60/147
f 60/148 59/149 61/150
f 62/151 63/152 64/153
f 64/154 63/155 65/156
f 62/157 64/158 66/159
f 66/160 64/161 67/162
f 62/163 66/164 63/165
f 63/166 66/167 68/168
f 67/169 64/170 69/171
f 69/172 64/173 65/174
f 70/175 71/176 72/177
f 72/178 71/179 73/180
f 68/181 69/182 63/183
f 63/184 69/185 65/186
f 74/187 75/188 76/189
f 76/190 75/191 77/192
f 74/193 76/194 78/195
f 78/196 76/197 79/198
f 78/199 80/200 74/201
f 74/202 80/203 75/204
f 80/205 78/206 81/207
f 81/208 78/209 79/210
f 80/211 81/212 75/213
f 75/214 81/215 77/216
f 82/217 83/218 84/219
f 84/220 83/221 85/222
f 82/223 86/224 83/225
f 83/226 86/227 87/228
f 88/229 84/230 89/231
f 89/232 84/233 85/234
f 90/235 91/236 92/237
f 92/238 91/239 93/240
f 94/241 95/242 96/243
f 96/244 95/245 97/246
f 96/247 97/248 98/249
f 98/250 97/251 99/252
f 100/253 96/254 101/255
f 101/256 96/257 98/258
f 102/259 100/260 103/261
f 103/262 100/263 100/264
f 103/265 100/266 104/267
f 104/268 100/269 101/270
f 104/271 101/272 105/273
f 106/274 107/275 108/276
f 108/277 107/278 109/279
f 108/280 109/281 110/282
f 111/283 112/284 113/285
f 113/286 112/287 114/288
f 115/289 116/290 117/291
f 117/292 116/293 118/294
f 119/295 120/296 121/297
f 121/298 120/299 122/300
f 106/301 123/302 124/303
f 124/304 123/305 123/306
f 124/307 123/308 125/309
f 125/310 123/311 126/312
f 127/313 128/314 129/315
f 129/316 128/317 130/318
f 127/319 129/320 131/321
f 131/322 129/323 132/324
f 106/325 108/326 123/327
f 123/328 108/329 110/330
f 123/331 110/332 126/333
f 133/334 128/335 131/336
f 131/337 128/338 127/339
f 132/340 129/341 134/342
f 134/343 129/344 130/345
f 124/346 125/347 121/348
f 121/349 125/350 119/351
f 109/352 107/353 135/354
f 135/355 107/356 136/357
f 135/358 136/359 137/360
f 130/361 128/362 134/363
f 134/364 128/365 133/366
f 138/367 139/368 140/369
f 140/370 139/371 141/372
f 109/373 142/374 110/375
f 110/376 142/377 143/378
f 138/379 140/380 144/381
f 144/382 140/383 145/384
f 125/385 146/386 119/387
f 119/388 146/389 147/390
f 119/391 147/392 120/393
f 120/394 147/395 148/396
f 149/397 139/398 150/399
f 150/400 139/401 138/402
f 150/403 138/404 144/405
f 151/406 152/407 153/408
f 153/409 152/410 154/411
f 153/412 154/413 142/414
f 126/415 110/416 155/417
f 155/418 110/419 143/420
f 156/421 157/422 141/423
f 141/424 157/425 157/426
f 141/427 157/428 140/429
f 140/430 157/431 145/432
f 117/433 136/434 121/435
f 121/436 136/437 136/438
f 121/439 136/440 124/441
f 124/442 136/443 107/444
f 124/445 107/446 106/447
f 113/448 114/449 152/450
f 152/451 114/452 158/453
f 152/454 158/455 154/456
f 154/457 158/458 159/459
f 160/460 10/461 22/462
f 22/463 10/464 9/465
f 143/466 142/467 161/468
f 161/469 142/470 154/471
f 161/472 154/473 159/474
f 146/475 125/476 155/477
f 155/478 125/479 126/480
f 162/481 113/482 151/483
f 151/484 113/485 152/486
f 43/487 41/488 163/489
f 163/490 41/491 164/492
f 155/493 165/494 146/495
f 146/496 165/497 159/498
f 146/499 159/500 158/501
f 147/502 114/503 148/504
f 148/505 114/506 112/507
f 147/508 146/509 114/510
f 114/511 146/512 158/513
f 61/514 71/515 60/516
f 60/517 71/518 70/519
f 162/520 166/521 113/522
f 113/523 166/524 111/525
f 59/526 73/527 61/528
f 61/529 73/530 71/531
f 117/532 121/533 115/534
f 115/535 121/536 122/537
f 90/538 3/539 91/540
f 91/541 3/542 4/543
f 109/544 135/545 142/546
f 142/547 135/548 135/549
f 142/550 135/551 153/552
f 153/553 135/554 137/555
f 153/556 137/557 151/558
f 149/559 156/560 139/561
f 139/562 156/563 141/564
f 137/565 136/566 118/567
f 118/568 136/569 117/570
f 116/571 166/572 118/573
f 118/574 166/575 162/576
f 118/577 162/578 137/579
f 137/580 162/581 151/582
f 73/583 59/584 72/585
f 72/586 59/587 58/588
f 160/589 31/590 10/591
f 10/592 31/593 12/594
f 143/595 161/596 155/597
f 155/598 161/599 161/600
f 155/601 161/602 165/603
f 165/604 161/605 159/606
