# Exported from USD for MuJoCo with source material subsets
v 0.320559687 -5.08501011 1.22300238
v 0.422054564 -5.08501011 1.18059038
v 0.320559568 -5.43701034 1.22300259
v 0.422054458 -5.43701034 1.18059062
v 0.535745463 -5.80661064 1.46878583
v 0.534824661 -5.80364996 1.46991468
v 0.527094311 -5.81420379 1.48164619
v 0.526173509 -5.81124264 1.4827748
v 0.520887858 -5.82158953 1.49595732
v 0.519967071 -5.81862789 1.497086
v 0.517295531 -5.82856613 1.51132912
v 0.516374721 -5.82560497 1.51245779
v 0.516415282 -5.8349443 1.52734221
v 0.515494539 -5.83198267 1.52847112
v 0.518271132 -5.84054952 1.54355998
v 0.517350323 -5.83758837 1.54468865
v 0.52281244 -5.8452292 1.55953968
v 0.521891638 -5.84226757 1.56066848
v 0.529915302 -5.84885507 1.57484592
v 0.5289945 -5.84589392 1.57597465
v 0.539385951 -5.85132843 1.58906061
v 0.538465208 -5.84836775 1.59018952
v 0.55096615 -5.85258299 1.60179657
v 0.550045437 -5.84962183 1.60292537
v 0.564340062 -5.85258299 1.61270607
v 0.563419244 -5.84962183 1.61383475
v 0.579142637 -5.85132843 1.62149162
v 0.578221834 -5.84836775 1.62262029
v 0.594970322 -5.84885507 1.62791342
v 0.594049594 -5.84589392 1.62904227
v 0.611391372 -5.8452292 1.63179655
v 0.610470555 -5.84226757 1.63292534
v 0.627957693 -5.84054952 1.63303483
v 0.627036936 -5.83758837 1.63416374
v 0.644217587 -5.8349443 1.6315949
v 0.643296785 -5.83198267 1.63272358
v 0.659727431 -5.82856613 1.62751556
v 0.658806629 -5.82560497 1.62864418
v 0.674064136 -5.82158857 1.62090827
v 0.673143334 -5.81862789 1.62203706
v 0.686836726 -5.81420379 1.61195332
v 0.685915924 -5.81124264 1.61308212
v 0.697696722 -5.80661064 1.60089493
v 0.69677592 -5.80364996 1.60202361
v 0.700423962 -5.80167537 1.60625286
v 0.688992358 -5.80966812 1.61789323
v 0.675547547 -5.81744247 1.62731952
v 0.660456247 -5.82478672 1.63427449
v 0.644130102 -5.83150011 1.63856841
v 0.627014465 -5.83740049 1.64008439
v 0.609576202 -5.84232622 1.63878078
v 0.592290944 -5.84614282 1.63469327
v 0.575630224 -5.84874731 1.62793339
v 0.560048497 -5.85006767 1.61868561
v 0.545970774 -5.85006767 1.60720194
v 0.533781081 -5.84874731 1.59379572
v 0.523811868 -5.84614282 1.57883269
v 0.516335188 -5.84232622 1.56272108
v 0.511554918 -5.83740049 1.54590017
v 0.509601384 -5.83150011 1.52882893
v 0.510527953 -5.82478672 1.51197297
v 0.514309353 -5.81744247 1.49579216
v 0.520842432 -5.80966812 1.48072768
v 0.529948979 -5.80167537 1.46719057
v 0.694627411 -5.79674059 1.60465748
v 0.683767445 -5.80433374 1.61571587
v 0.670994825 -5.81171852 1.62467081
v 0.656658105 -5.8186956 1.6312781
v 0.641148276 -5.82507377 1.63535751
v 0.624888397 -5.830679 1.63679755
v 0.608322076 -5.83535867 1.63555915
v 0.591901026 -5.83898502 1.63167608
v 0.576073325 -5.84145838 1.62525422
v 0.561270691 -5.84271246 1.61646867
v 0.547896854 -5.84271246 1.60555912
v 0.536316714 -5.84145838 1.59282339
v 0.526846013 -5.83898502 1.57860846
v 0.519743069 -5.83535867 1.56330229
v 0.515201814 -5.830679 1.54732258
v 0.513345978 -5.82507377 1.53110493
v 0.514226227 -5.8186956 1.51509172
v 0.517818562 -5.81171852 1.49971992
v 0.524025 -5.80433374 1.48540873
v 0.532676152 -5.79674059 1.47254861
v 0.706347889 -5.79901796 1.5880347
v 0.705427117 -5.79605728 1.58916349
v 0.712554342 -5.79163271 1.57372344
v 0.71163354 -5.78867203 1.57485235
v 0.716146625 -5.78465563 1.5583517
v 0.715225852 -5.78169447 1.5594805
v 0.717026926 -5.77827745 1.54233856
v 0.716106094 -5.77531677 1.54346735
v 0.715171075 -5.77267223 1.52612091
v 0.714250303 -5.76971155 1.5272497
v 0.710629798 -5.76799255 1.51014102
v 0.709708965 -5.76503139 1.51126981
v 0.70352695 -5.76436668 1.49483503
v 0.702606118 -5.76140552 1.49596382
v 0.694056219 -5.76189285 1.48062015
v 0.693135417 -5.75893217 1.48174883
v 0.68247602 -5.76063925 1.46788419
v 0.681555218 -5.75767761 1.4690131
v 0.669102198 -5.76063925 1.45697463
v 0.668181396 -5.75767761 1.45810354
v 0.654299534 -5.76189285 1.44818927
v 0.653378747 -5.75893217 1.44931803
v 0.638471863 -5.76436668 1.44176737
v 0.637551046 -5.76140552 1.44289616
v 0.622050843 -5.76799255 1.43788419
v 0.621130026 -5.76503139 1.4390131
v 0.605484507 -5.77267223 1.43664593
v 0.604563705 -5.76971155 1.43777469
v 0.589224584 -5.77827745 1.43808601
v 0.588303856 -5.77531677 1.43921477
v 0.573714755 -5.78465563 1.4421652
v 0.572794012 -5.78169447 1.44329411
v 0.55937802 -5.79163271 1.4487725
v 0.558457292 -5.78867203 1.44990141
v 0.546605504 -5.79901796 1.4577275
v 0.545684687 -5.79605728 1.45885635
v 0.70953045 -5.79368358 1.59271575
v 0.716063536 -5.78590923 1.57765139
v 0.719844914 -5.77856499 1.5614704
v 0.720771468 -5.77185112 1.54461456
v 0.718817986 -5.76595121 1.52754337
v 0.714037693 -5.76102548 1.51072247
v 0.706561006 -5.7572084 1.49461079
v 0.696591831 -5.75460439 1.47964776
v 0.684402174 -5.75328403 1.4662416
v 0.670324422 -5.75328403 1.45475788
v 0.654742695 -5.75460439 1.44550995
v 0.638081974 -5.7572084 1.43875018
v 0.620796687 -5.76102548 1.43466265
v 0.603358424 -5.76595121 1.43335906
v 0.586242772 -5.77185112 1.43487493
v 0.569916657 -5.77856499 1.439169
v 0.554825357 -5.78590923 1.44612408
v 0.541380576 -5.79368358 1.45555032
v 0.703278638 -5.78914791 1.5917973
v 0.709485031 -5.78176266 1.57748622
v 0.713077343 -5.77478557 1.56211442
v 0.713957644 -5.7684074 1.54610128
v 0.712101794 -5.76280218 1.52988357
v 0.707560516 -5.7581225 1.51390374
v 0.70045758 -5.75449663 1.49859763
v 0.690986908 -5.7520228 1.48438276
v 0.679406739 -5.75076872 1.47164691
v 0.666032887 -5.75076872 1.46073747
v 0.651230223 -5.7520228 1.45195196
v 0.635402507 -5.75449663 1.44553009
v 0.618981532 -5.7581225 1.44164691
v 0.602415211 -5.76280218 1.4404085
v 0.586155287 -5.7684074 1.44184867
v 0.570645503 -5.77478557 1.44592804
v 0.556308783 -5.78176266 1.45253519
v 0.543536178 -5.78914791 1.46149016
v 0.489149018 -5.88185602 1.66031868
v 0.491146929 -5.88836866 1.65786172
v 0.527169324 -5.85709959 1.62639213
v 0.530238628 -5.86697012 1.62262959
v 0.491738818 -5.8920384 1.65698392
v 0.233927316 -5.46632677 1.65570462
v 0.233927435 -5.05525118 1.65570439
v 0.236127324 -5.46632677 1.65570462
v 0.236127443 -5.05525118 1.65570439
v 0.274794943 -5.68077474 1.24141899
v 0.274794943 -5.67551618 1.24246452
v 0.276460043 -5.67546278 1.24248613
v 0.279872424 -5.67167431 1.24486089
v 0.274794943 -5.67105442 1.24544413
v 0.284765444 -5.66982799 1.24684931
v 0.274794943 -5.66807228 1.24990592
v 0.32979495 -5.67113357 1.24536539
v 0.32979495 -5.6671167 1.25358305
v 0.274794943 -5.66702562 1.25516511
v 0.332544952 -5.6671167 1.25358305
v 0.32979495 -5.66755539 1.25895194
v 0.274794943 -5.66807133 1.260429
v 0.32979495 -5.67034441 1.26412798
v 0.274794943 -5.6710506 1.26488993
v 0.32979495 -5.67503744 1.26766411
v 0.274794943 -5.67550951 1.26787064
v 0.32979495 -5.68077474 1.26891876
v 0.274794943 -5.68077474 1.268919
v 0.290184542 -5.67050844 1.24602336
v 0.29432956 -5.67341047 1.24355767
v 0.332544952 -5.67113357 1.24536539
v 0.330164275 -5.67518431 1.24260709
v 0.29679495 -5.67808443 1.24168474
v 0.329825833 -5.68077474 1.24141911
v 0.29679495 -5.68077474 1.24141911
v 0.274794913 -5.68604046 1.24246747
v 0.274794913 -5.69049984 1.24544806
v 0.274794913 -5.69347912 1.24990911
v 0.274794913 -5.69452482 1.25517289
v 0.274794913 -5.68603378 1.26787359
v 0.274794913 -5.69347816 1.26043207
v 0.274794913 -5.69049507 1.26489396
v 0.29679498 -5.67808443 1.18430193
v 0.294611848 -5.67374044 1.18430193
v 0.290765322 -5.67075973 1.18430193
v 0.286010712 -5.66973072 1.18430193
v 0.281277887 -5.67085176 1.18430193
v 0.277488924 -5.67390734 1.18430193
v 0.275391049 -5.67829376 1.18430193
v 0.275389559 -5.68315941 1.18430193
v 0.276492587 -5.68605429 1.24247319
v 0.277487836 -5.68755012 1.18430193
v 0.279916725 -5.68981558 1.24480937
v 0.281271822 -5.69060474 1.18430193
v 0.284810326 -5.69163614 1.24673811
v 0.286007113 -5.69172912 1.18430193
v 0.290205143 -5.69094139 1.2459102
v 0.290760859 -5.69070106 1.18430193
v 0.294338993 -5.68803793 1.24349321
v 0.294607787 -5.68772369 1.18430193
v 0.29679495 -5.68337446 1.24166704
v 0.29679498 -5.68337446 1.18430193
v 0.329824164 -5.68570619 1.24233416
v 0.329800963 -5.68982988 1.2448223
v 0.32979492 -5.69436317 1.2530667
v 0.329886018 -5.69451624 1.25467534
v 0.330895937 -5.69381767 1.25952131
v 0.330615482 -5.69143253 1.26385663
v 0.32979492 -5.68769174 1.2670529
v 0.181127436 -5.2335096 1.42121527
v 0.176236845 -5.2335096 1.42176605
v 0.181127465 -5.13202625 1.42121527
v 0.175972751 -5.13263851 1.42182771
v 0.171585015 -5.2335096 1.42339275
v 0.17131894 -5.13433414 1.42352275
v 0.167413629 -5.2335096 1.42601261
v 0.167420528 -5.13681846 1.42600701
v 0.164332337 -5.13981682 1.42900518
v 0.163930542 -5.2335096 1.42949492
v 0.162008426 -5.14314228 1.43233124
v 0.161306984 -5.2335096 1.43366814
v 0.160392887 -5.14667278 1.4358615
v 0.159680582 -5.2335096 1.4383145
v 0.159441567 -5.15032154 1.43951089
v 0.159127451 -5.2335096 1.44321526
v 0.15912748 -5.15402656 1.44321526
v 0.485104977 -5.90410381 1.66223515
v 0.484983443 -5.90535551 1.66731865
v 0.46621713 -5.90238577 1.64232171
v 0.461046371 -5.90317827 1.64208168
v 0.484489358 -5.9052816 1.67252935
v 0.455841719 -5.90267616 1.64232583
v 0.483565352 -5.9034987 1.67734439
v 0.451152816 -5.90055042 1.64317167
v 0.482228621 -5.89965874 1.68053753
v 0.448230545 -5.89656692 1.64469302
v 0.486785187 -5.90302187 1.6607349
v 0.46789734 -5.9013043 1.64082134
v 0.491530149 -5.90113359 1.66138918
v 0.495680331 -5.89809471 1.66248042
v 0.4984776 -5.89391857 1.66401143
v 0.498702101 -5.88905578 1.66582728
v 0.467669937 -5.89891487 1.63616706
v 0.467076979 -5.89544445 1.63229311
v 0.466073929 -5.89094644 1.62984771
v 0.467402539 -5.8898254 1.63132585
v 0.464703961 -5.88596397 1.62998284
v 0.466810654 -5.88615518 1.63220388
v 0.510253741 -5.86192327 1.59308881
v 0.537271625 -5.85406309 1.5945086
v 0.513466186 -5.85963112 1.58969713
v 0.516065857 -5.85734278 1.58581383
v 0.526472232 -5.85155063 1.57910938
v 0.517993501 -5.85510975 1.58152742
v 0.519205152 -5.85298258 1.57693583
v 0.519673227 -5.85100942 1.5721435
v 0.519387043 -5.84923654 1.56725968
v 0.518353178 -5.84770399 1.56239558
v 0.534377663 -5.8645249 1.61959184
v 0.539067245 -5.86221367 1.61735488
v 0.550430543 -5.85516601 1.60813565
v 0.544167853 -5.86010557 1.61598504
v 0.549527652 -5.85826259 1.61552323
v 0.554987303 -5.85674005 1.61598296
v 0.56038437 -5.85558372 1.61735088
v 0.565558217 -5.85482651 1.61958588
v 0.50718443 -5.85205322 1.59685136
v 0.464812665 -5.87964254 1.63466079
v 0.510396897 -5.84976106 1.59345961
v 0.512996568 -5.84747272 1.58957631
v 0.514924183 -5.84523922 1.58529008
v 0.516135833 -5.84311157 1.58069838
v 0.516603931 -5.84113937 1.57590605
v 0.516317732 -5.83936649 1.57102228
v 0.515283859 -5.83783394 1.56615824
v 0.523402928 -5.84168058 1.5828721
v 0.534202307 -5.84419304 1.59827132
v 0.488460234 -5.87353044 1.63791657
v 0.488618008 -5.87487179 1.64156366
v 0.479564763 -5.88098436 1.6502139
v 0.484728939 -5.8746019 1.63768388
v 0.475785404 -5.88064056 1.64622927
v 0.53130836 -5.85465437 1.62335456
v 0.535997919 -5.85234361 1.62111748
v 0.547361217 -5.84529596 1.61189825
v 0.541098512 -5.85023552 1.61974771
v 0.54645834 -5.84839254 1.61928583
v 0.551917977 -5.84687 1.61974556
v 0.557315058 -5.84571367 1.62111343
v 0.56248889 -5.84495645 1.62334872
v 0.320559568 -5.43701034 1.2349245
v 0.422054442 -5.43701034 1.19251238
v 0.320559687 -5.08501011 1.23492423
v 0.422054549 -5.08501011 1.19251213
v 0.494961067 -5.87686115 1.67042739
v 0.477821103 -5.87530237 1.65235675
v 0.460962995 -5.87376982 1.63458306
v 0.474041729 -5.87495905 1.648372
v 0.444489579 -5.88437277 1.64929325
v 0.478487655 -5.8874641 1.68513776
v 0.472242079 -5.8761602 1.65009273
v 0.476131356 -5.87643009 1.6539721
v 0.159127451 -5.28850942 1.44321526
v 0.15912748 -5.28851038 1.28911016
v 0.159678168 -5.28850942 1.43832464
v 0.161304987 -5.28850942 1.43367279
v 0.163924924 -5.28850942 1.42950151
v 0.167407042 -5.28850942 1.42601836
v 0.171580202 -5.28850942 1.42339481
v 0.176226742 -5.28850942 1.42176849
v 0.192127473 -5.28851038 1.28911016
v 0.181127436 -5.28850942 1.42121527
v 0.192127443 -5.28850942 1.42121527
v 0.233927376 -5.46632677 1.35687555
v 0.236127383 -5.46632677 1.35687555
v 0.233927495 -5.05525165 1.35687531
v 0.236127502 -5.05525165 1.35687531
v 0.236127324 -5.48100954 1.67097277
v 0.236127443 -5.04100948 1.67097259
v 0.203127316 -5.48100954 1.67097277
v 0.203127435 -5.04100948 1.67097259
v 0.236127413 -5.48101002 1.34097282
v 0.203127406 -5.48101002 1.34097282
v 0.236127532 -5.04100948 1.34097258
v 0.203127525 -5.04100948 1.34097258
v 0.203127376 -5.38971287 1.59983308
v 0.203127435 -5.13202625 1.59983308
v 0.181127376 -5.38971287 1.59983308
v 0.181127436 -5.13202625 1.59983308
v 0.203127406 -5.38971287 1.42121527
v 0.181127406 -5.38971287 1.42121527
v 0.203127465 -5.13202625 1.42121527
v 0.192127443 -5.2335096 1.42121527
v 0.192127473 -5.23351007 1.28911016
v 0.192127473 -5.23351007 1.27798489
v 0.192127473 -5.28851038 1.27798489
v 0.192127473 -5.23351007 1.26626701
v 0.192127473 -5.28851038 1.26626701
v 0.192127473 -5.2294231 1.28414995
v 0.192127473 -5.2925964 1.28414995
v 0.15912748 -5.23351007 1.28911016
v 0.175972722 -5.13263851 1.59922058
v 0.17131891 -5.13433414 1.59752554
v 0.167420498 -5.13681846 1.59504128
v 0.164332307 -5.13981682 1.59204317
v 0.162008396 -5.14314228 1.58871723
v 0.160392857 -5.14667278 1.58518679
v 0.159441537 -5.15032154 1.58153749
v 0.159127451 -5.15402656 1.57783306
v 0.175972662 -5.38910013 1.59922058
v 0.171318851 -5.38740545 1.59752554
v 0.167420439 -5.38492113 1.59504128
v 0.164332247 -5.38192278 1.59204317
v 0.162008337 -5.37859684 1.58871723
v 0.160392783 -5.37506681 1.58518679
v 0.159441478 -5.3714171 1.58153749
v 0.159127391 -5.36771303 1.57783306
v 0.175972692 -5.38910013 1.42182771
v 0.17131888 -5.38740545 1.42352275
v 0.167420468 -5.38492113 1.42600701
v 0.164332277 -5.38192278 1.42900518
v 0.162008367 -5.37859684 1.43233124
v 0.160392827 -5.37506681 1.4358615
v 0.159441507 -5.3714171 1.43951089
v 0.159127421 -5.36771303 1.44321526
v 0.15912748 -5.23351007 1.27798489
v 0.15912748 -5.28851038 1.27798489
v 0.15912748 -5.23351007 1.26626701
v 0.15912748 -5.28851038 1.26626701
v 0.15912748 -5.2294231 1.28414995
v 0.15912748 -5.2925964 1.28414995
v 0.157178945 -5.23156172 1.26206744
v 0.194075993 -5.23156172 1.26206756
v 0.153627462 -5.22801023 1.26076702
v 0.197627476 -5.22801023 1.26076702
v 0.157178945 -5.29045873 1.26206744
v 0.153627462 -5.29401022 1.26076702
v 0.12938518 -5.18041902 1.26076702
v 0.125833667 -5.17686706 1.25946671
v 0.12938518 -5.33441883 1.26076702
v 0.125833667 -5.33797031 1.25946671
v 0.123885191 -5.17491871 1.25526703
v 0.123885191 -5.33991867 1.25526703
v 0.194075993 -5.29045873 1.26206756
v 0.197627476 -5.29401022 1.26076702
v 0.228385157 -5.33441883 1.26076702
v 0.231936715 -5.33797031 1.25946671
v 0.228385217 -5.18041902 1.26076702
v 0.231936774 -5.17686706 1.25946671
v 0.233885161 -5.33991867 1.25526703
v 0.23388522 -5.17491871 1.25526703
v 0.123885191 -5.33991867 1.24976701
v 0.123885191 -5.17491871 1.24976701
v 0.233885161 -5.33991867 1.24976701
v 0.23388522 -5.17491871 1.24976701
vt 0.29814899 0.148591995
vt 0.205881 0.148591995
vt 0.29814899 -0.171407998
vt 0.29814899 -0.171407998
vt 0.205881 0.148591995
vt 0.205881 -0.171407998
vt -0.507408977 1.33207703
vt -0.504716992 1.33310294
vt -0.514312029 1.343768
vt -0.514312029 1.343768
vt -0.504716992 1.33310294
vt -0.511619985 1.34479403
vt -0.514312029 1.343768
vt -0.511619985 1.34479403
vt -0.521026015 1.35677803
vt -0.521026015 1.35677803
vt -0.511619985 1.34479403
vt -0.518333972 1.35780394
vt -0.521026015 1.35677803
vt -0.518333972 1.35780394
vt -0.527368009 1.37075198
vt -0.527368009 1.37075198
vt -0.518333972 1.35780394
vt -0.524676979 1.37177801
vt -0.527368009 1.37075198
vt -0.524676979 1.37177801
vt -0.533167005 1.38531005
vt -0.533167005 1.38531005
vt -0.524676979 1.37177801
vt -0.53047502 1.38633597
vt -0.533167005 1.38531005
vt -0.53047502 1.38633597
vt -0.53826201 1.40005302
vt -0.53826201 1.40005302
vt -0.53047502 1.38633597
vt -0.535570979 1.40107906
vt -0.53826201 1.40005302
vt -0.535570979 1.40107906
vt -0.542515993 1.41457999
vt -0.542515993 1.41457999
vt -0.535570979 1.40107906
vt -0.539825022 1.41560602
vt -0.542515993 1.41457999
vt -0.539825022 1.41560602
vt -0.545813024 1.42849505
vt -0.545813024 1.42849505
vt -0.539825022 1.41560602
vt -0.54312098 1.42952096
vt -0.545813024 1.42849505
vt -0.54312098 1.42952096
vt -0.548062027 1.44141698
vt -0.548062027 1.44141698
vt -0.54312098 1.42952096
vt -0.545369983 1.44244397
vt -0.548062027 1.44141698
vt -0.545369983 1.44244397
vt -0.549202025 1.45299602
vt -0.549202025 1.45299602
vt -0.545369983 1.44244397
vt -0.546509981 1.45402205
vt 0.088688001 -0.549202025
vt 0.0895249993 -0.546509981
vt 0.0765300021 -0.549202025
vt 0.0765300021 -0.549202025
vt 0.0895249993 -0.546509981
vt 0.0773670003 -0.546509981
vt 0.0765300021 -0.549202025
vt 0.0773670003 -0.546509981
vt 0.0630730018 -0.548062027
vt 0.0630730018 -0.548062027
vt 0.0773670003 -0.546509981
vt 0.06391 -0.545369983
vt 0.0630730018 -0.548062027
vt 0.06391 -0.545369983
vt 0.048684001 -0.545813024
vt 0.048684001 -0.545813024
vt 0.06391 -0.545369983
vt 0.0495209992 -0.54312098
vt 0.048684001 -0.545813024
vt 0.0495209992 -0.54312098
vt 0.0337559991 -0.542515993
vt 0.0337559991 -0.542515993
vt 0.0495209992 -0.54312098
vt 0.034593001 -0.539825022
vt 0.0337559991 -0.542515993
vt 0.034593001 -0.539825022
vt 0.0186960008 -0.53826201
vt 0.0186960008 -0.53826201
vt 0.034593001 -0.539825022
vt 0.0195330009 -0.535570979
vt 0.0186960008 -0.53826201
vt 0.0195330009 -0.535570979
vt 0.003914 -0.533167005
vt 0.003914 -0.533167005
vt 0.0195330009 -0.535570979
vt 0.00475100009 -0.53047502
vt 0.003914 -0.533167005
vt 0.00475100009 -0.53047502
vt -0.0101859998 -0.527368009
vt -0.0101859998 -0.527368009
vt 0.00475100009 -0.53047502
vt -0.00934899971 -0.524676979
vt -0.0101859998 -0.527368009
vt -0.00934899971 -0.524676979
vt -0.0232190005 -0.521026015
vt -0.0232190005 -0.521026015
vt -0.00934899971 -0.524676979
vt -0.0223820005 -0.518333972
vt -0.0232190005 -0.521026015
vt -0.0223820005 -0.518333972
vt -0.0348300003 -0.514312029
vt -0.0348300003 -0.514312029
vt -0.0223820005 -0.518333972
vt -0.0339929983 -0.511619985
vt 0.514312029 1.46222901
vt 0.511619985 1.46325505
vt 0.507408977 1.45217597
vt 0.507408977 1.45217597
vt 0.511619985 1.46325505
vt 0.504716992 1.45320201
vt -0.507408977 1.45217597
vt -0.502923012 1.45704699
vt -0.514312029 1.46222901
vt -0.514312029 1.46222901
vt -0.502923012 1.45704699
vt -0.510187984 1.46762896
vt 0.0348300003 1.46222901
vt 0.0367899984 1.46762896
vt 0.0232190005 1.47037005
vt 0.0232190005 1.47037005
vt 0.0367899984 1.46762896
vt 0.0245680008 1.47619796
vt 0.0232190005 1.47037005
vt 0.0245680008 1.47619796
vt 0.0101859998 1.47637606
vt 0.0101859998 1.47637606
vt 0.0245680008 1.47619796
vt 0.0108479997 1.48252106
vt 0.0101859998 1.47637606
vt 0.0108479997 1.48252106
vt -0.003914 1.48008502
vt -0.003914 1.48008502
vt 0.0108479997 1.48252106
vt -0.00399400014 1.48642397
vt -0.003914 1.48008502
vt -0.00399400014 1.48642397
vt -0.0186960008 1.48139405
vt -0.0186960008 1.48139405
vt -0.00399400014 1.48642397
vt -0.0195530001 1.48780298
vt -0.0186960008 1.48139405
vt -0.0195530001 1.48780298
vt -0.0337559991 1.480268
vt -0.0337559991 1.480268
vt -0.0195530001 1.48780298
vt -0.0354060009 1.48661804
vt -0.0337559991 1.480268
vt -0.0354060009 1.48661804
vt -0.048684001 1.47673798
vt -0.048684001 1.47673798
vt -0.0354060009 1.48661804
vt -0.0511200018 1.48290205
vt -0.048684001 1.47673798
vt -0.0511200018 1.48290205
vt -0.0630730018 1.47090006
vt -0.0630730018 1.47090006
vt -0.0511200018 1.48290205
vt -0.0662660003 1.47675598
vt -0.0630730018 1.47090006
vt -0.0662660003 1.47675598
vt -0.0765300021 1.46291304
vt -0.0765300021 1.46291304
vt -0.0662660003 1.47675598
vt -0.0804319978 1.46834898
vt -0.0765300021 1.46291304
vt -0.0804319978 1.46834898
vt -0.088688001 1.45299602
vt -0.088688001 1.45299602
vt -0.0804319978 1.46834898
vt -0.0932290033 1.45790899
vt -0.088688001 1.45299602
vt -0.0932290033 1.45790899
vt -0.0992159992 1.44141698
vt -0.0992159992 1.44141698
vt -0.0932290033 1.45790899
vt -0.104310997 1.44572198
vt -0.0992159992 1.44141698
vt -0.104310997 1.44572198
vt -0.107825004 1.42849505
vt -0.107825004 1.42849505
vt -0.104310997 1.44572198
vt -0.113374002 1.43211901
vt -0.107825004 1.42849505
vt -0.113374002 1.43211901
vt -0.114281997 1.41457999
vt -0.114281997 1.41457999
vt -0.113374002 1.43211901
vt -0.120171003 1.417472
vt -0.114281997 1.41457999
vt -0.120171003 1.417472
vt -0.118410997 1.40005302
vt -0.118410997 1.40005302
vt -0.120171003 1.417472
vt -0.124517001 1.40218103
vt -0.118410997 1.40005302
vt -0.124517001 1.40218103
vt -0.120098002 1.38531005
vt -0.120098002 1.38531005
vt -0.124517001 1.40218103
vt -0.126293004 1.38666105
vt -0.120098002 1.38531005
vt -0.126293004 1.38666105
vt -0.119298004 1.37075198
vt -0.119298004 1.37075198
vt -0.126293004 1.38666105
vt -0.12545 1.37133801
vt -0.119298004 1.37075198
vt -0.12545 1.37133801
vt -0.116031997 1.35677803
vt -0.116031997 1.35677803
vt -0.12545 1.37133801
vt -0.122013003 1.35662794
vt -0.116031997 1.35677803
vt -0.122013003 1.35662794
vt -0.11039 1.343768
vt -0.11039 1.343768
vt -0.122013003 1.35662794
vt -0.116072997 1.34293306
vt -0.11039 1.343768
vt -0.116072997 1.34293306
vt -0.102525003 1.33207703
vt -0.102525003 1.33207703
vt -0.116072997 1.34293306
vt -0.107795 1.33062601
vt 0.0471829996 -0.502923012
vt 0.041912999 -0.498436004
vt 0.0367899984 -0.510187984
vt 0.0367899984 -0.510187984
vt 0.041912999 -0.498436004
vt 0.03204 -0.505339026
vt 0.0367899984 -0.510187984
vt 0.03204 -0.505339026
vt 0.0245680008 -0.517256021
vt 0.0245680008 -0.517256021
vt 0.03204 -0.505339026
vt 0.0204290003 -0.512053013
vt 0.0245680008 -0.517256021
vt 0.0204290003 -0.512053013
vt 0.0108479997 -0.52393198
vt 0.0108479997 -0.52393198
vt 0.0204290003 -0.512053013
vt 0.0073950002 -0.51839602
vt 0.0108479997 -0.52393198
vt 0.0073950002 -0.51839602
vt -0.00399400014 -0.530035973
vt -0.00399400014 -0.530035973
vt 0.0073950002 -0.51839602
vt -0.00670399982 -0.524194002
vt -0.00399400014 -0.530035973
vt -0.00670399982 -0.524194002
vt -0.0195530001 -0.535399973
vt -0.0195530001 -0.535399973
vt -0.00670399982 -0.524194002
vt -0.0214859992 -0.529289007
vt -0.0195530001 -0.535399973
vt -0.0214859992 -0.529289007
vt -0.0354060009 -0.539878011
vt -0.0354060009 -0.539878011
vt -0.0214859992 -0.529289007
vt -0.0365459993 -0.533544004
vt -0.0354060009 -0.539878011
vt -0.0365459993 -0.533544004
vt -0.0511200018 -0.543348014
vt -0.0511200018 -0.543348014
vt -0.0365459993 -0.533544004
vt -0.0514749996 -0.536840022
vt -0.0511200018 -0.543348014
vt -0.0514749996 -0.536840022
vt -0.0662660003 -0.545714974
vt -0.0662660003 -0.545714974
vt -0.0514749996 -0.536840022
vt -0.0658629984 -0.539089024
vt -0.0662660003 -0.545714974
vt -0.0658629984 -0.539089024
vt -0.0804319978 -0.546914995
vt -0.0804319978 -0.546914995
vt -0.0658629984 -0.539089024
vt -0.0793199986 -0.540229023
vt -0.0804319978 -0.546914995
vt -0.0793199986 -0.540229023
vt -0.0932290033 -0.546914995
vt -0.0932290033 -0.546914995
vt -0.0793199986 -0.540229023
vt -0.0914779976 -0.540229023
vt 0.546914995 1.45790899
vt 0.540229023 1.45641601
vt 0.545714974 1.44572198
vt 0.545714974 1.44572198
vt 0.540229023 1.45641601
vt 0.539089024 1.44483805
vt 0.545714974 1.44572198
vt 0.539089024 1.44483805
vt 0.543348014 1.43211901
vt 0.543348014 1.43211901
vt 0.539089024 1.44483805
vt 0.536840022 1.43191504
vt 0.543348014 1.43211901
vt 0.536840022 1.43191504
vt 0.539878011 1.417472
vt 0.539878011 1.417472
vt 0.536840022 1.43191504
vt 0.533544004 1.41800106
vt 0.539878011 1.417472
vt 0.533544004 1.41800106
vt 0.535399973 1.40218103
vt 0.535399973 1.40218103
vt 0.533544004 1.41800106
vt 0.529289007 1.40347397
vt 0.535399973 1.40218103
vt 0.529289007 1.40347397
vt 0.530035973 1.38666105
vt 0.530035973 1.38666105
vt 0.529289007 1.40347397
vt 0.524194002 1.38873005
vt 0.530035973 1.38666105
vt 0.524194002 1.38873005
vt 0.52393198 1.37133801
vt 0.52393198 1.37133801
vt 0.524194002 1.38873005
vt 0.51839602 1.37417305
vt 0.52393198 1.37133801
vt 0.51839602 1.37417305
vt 0.517256021 1.35662794
vt 0.517256021 1.35662794
vt 0.51839602 1.37417305
vt 0.512053013 1.36019802
vt 0.517256021 1.35662794
vt 0.512053013 1.36019802
vt 0.510187984 1.34293306
vt 0.510187984 1.34293306
vt 0.512053013 1.36019802
vt 0.505339026 1.347188
vt 0.510187984 1.34293306
vt 0.505339026 1.347188
vt 0.502923012 1.33062601
vt 0.502923012 1.33062601
vt 0.505339026 1.347188
vt 0.498436004 1.33549702
vt 0.507408977 1.45217597
vt 0.504716992 1.45320201
vt 0.500506997 1.440485
vt 0.500506997 1.440485
vt 0.504716992 1.45320201
vt 0.497815013 1.44151103
vt 0.500506997 1.440485
vt 0.497815013 1.44151103
vt 0.493793011 1.42747402
vt 0.493793011 1.42747402
vt 0.497815013 1.44151103
vt 0.491100997 1.42850101
vt 0.493793011 1.42747402
vt 0.491100997 1.42850101
vt 0.487450004 1.41349995
vt 0.487450004 1.41349995
vt 0.491100997 1.42850101
vt 0.48475799 1.41452599
vt 0.487450004 1.41349995
vt 0.48475799 1.41452599
vt 0.481651992 1.39894295
vt 0.481651992 1.39894295
vt 0.48475799 1.41452599
vt 0.478960007 1.39996898
vt 0.481651992 1.39894295
vt 0.478960007 1.39996898
vt 0.476556003 1.38419998
vt 0.476556003 1.38419998
vt 0.478960007 1.39996898
vt 0.473863989 1.38522601
vt 0.476556003 1.38419998
vt 0.473863989 1.38522601
vt 0.47230199 1.36967194
vt 0.47230199 1.36967194
vt 0.473863989 1.38522601
vt 0.469610006 1.37069798
vt 0.47230199 1.36967194
vt 0.469610006 1.37069798
vt 0.469004989 1.35575795
vt 0.469004989 1.35575795
vt 0.469610006 1.37069798
vt 0.466313988 1.35678399
vt 0.469004989 1.35575795
vt 0.466313988 1.35678399
vt 0.466755986 1.34283495
vt 0.466755986 1.34283495
vt 0.466313988 1.35678399
vt 0.464064986 1.34386098
vt 0.466755986 1.34283495
vt 0.464064986 1.34386098
vt 0.465617001 1.33125699
vt 0.465617001 1.33125699
vt 0.464064986 1.34386098
vt 0.462924987 1.33228302
vt 0.0308660008 -0.465617001
vt 0.0300290007 -0.462924987
vt 0.018708 -0.465617001
vt 0.018708 -0.465617001
vt 0.0300290007 -0.462924987
vt 0.0178709999 -0.462924987
vt 0.018708 -0.465617001
vt 0.0178709999 -0.462924987
vt 0.00525100017 -0.466755986
vt 0.00525100017 -0.466755986
vt 0.0178709999 -0.462924987
vt 0.00441400008 -0.464064986
vt 0.00525100017 -0.466755986
vt 0.00441400008 -0.464064986
vt -0.0091380002 -0.469004989
vt -0.0091380002 -0.469004989
vt 0.00441400008 -0.464064986
vt -0.00997500028 -0.466313988
vt -0.0091380002 -0.469004989
vt -0.00997500028 -0.466313988
vt -0.0240659993 -0.47230199
vt -0.0240659993 -0.47230199
vt -0.00997500028 -0.466313988
vt -0.0249029994 -0.469610006
vt -0.0240659993 -0.47230199
vt -0.0249029994 -0.469610006
vt -0.0391260013 -0.476556003
vt -0.0391260013 -0.476556003
vt -0.0249029994 -0.469610006
vt -0.0399629995 -0.473863989
vt -0.0391260013 -0.476556003
vt -0.0399629995 -0.473863989
vt -0.0539080016 -0.481651992
vt -0.0539080016 -0.481651992
vt -0.0399629995 -0.473863989
vt -0.0547449999 -0.478960007
vt -0.0539080016 -0.481651992
vt -0.0547449999 -0.478960007
vt -0.0680079982 -0.487450004
vt -0.0680079982 -0.487450004
vt -0.0547449999 -0.478960007
vt -0.0688449964 -0.48475799
vt -0.0680079982 -0.487450004
vt -0.0688449964 -0.48475799
vt -0.0810410008 -0.493793011
vt -0.0810410008 -0.493793011
vt -0.0688449964 -0.48475799
vt -0.081877999 -0.491100997
vt -0.0810410008 -0.493793011
vt -0.081877999 -0.491100997
vt -0.0926520005 -0.500506997
vt -0.0926520005 -0.500506997
vt -0.081877999 -0.491100997
vt -0.0934899971 -0.497815013
vt -0.500506997 1.32202399
vt -0.497815013 1.32305002
vt -0.507408977 1.33207703
vt -0.507408977 1.33207703
vt -0.497815013 1.32305002
vt -0.504716992 1.33310294
vt -0.502923012 1.45704699
vt -0.507408977 1.45217597
vt -0.495656997 1.44474006
vt -0.495656997 1.44474006
vt -0.507408977 1.45217597
vt -0.500506997 1.440485
vt -0.495656997 1.44474006
vt -0.500506997 1.440485
vt -0.488588989 1.43104506
vt -0.488588989 1.43104506
vt -0.500506997 1.440485
vt -0.493793011 1.42747402
vt -0.488588989 1.43104506
vt -0.493793011 1.42747402
vt -0.481913 1.41633499
vt -0.481913 1.41633499
vt -0.493793011 1.42747402
vt -0.487450004 1.41349995
vt -0.481913 1.41633499
vt -0.487450004 1.41349995
vt -0.475809008 1.40101194
vt -0.475809008 1.40101194
vt -0.487450004 1.41349995
vt -0.481651992 1.39894295
vt -0.475809008 1.40101194
vt -0.481651992 1.39894295
vt -0.470445991 1.38549304
vt -0.470445991 1.38549304
vt -0.481651992 1.39894295
vt -0.476556003 1.38419998
vt -0.470445991 1.38549304
vt -0.476556003 1.38419998
vt -0.465968013 1.37020099
vt -0.465968013 1.37020099
vt -0.476556003 1.38419998
vt -0.47230199 1.36967194
vt -0.465968013 1.37020099
vt -0.47230199 1.36967194
vt -0.462498009 1.35555398
vt -0.462498009 1.35555398
vt -0.47230199 1.36967194
vt -0.469004989 1.35575795
vt -0.462498009 1.35555398
vt -0.469004989 1.35575795
vt -0.460130006 1.34195101
vt -0.460130006 1.34195101
vt -0.469004989 1.35575795
vt -0.466755986 1.34283495
vt -0.460130006 1.34195101
vt -0.466755986 1.34283495
vt -0.458929986 1.32976401
vt -0.458929986 1.32976401
vt -0.466755986 1.34283495
vt -0.465617001 1.33125699
vt -0.032616999 -0.458929986
vt -0.0308660008 -0.465617001
vt -0.0198190007 -0.458929986
vt -0.0198190007 -0.458929986
vt -0.0308660008 -0.465617001
vt -0.018708 -0.465617001
vt -0.0198190007 -0.458929986
vt -0.018708 -0.465617001
vt -0.00565400021 -0.460130006
vt -0.00565400021 -0.460130006
vt -0.018708 -0.465617001
vt -0.00525100017 -0.466755986
vt -0.00565400021 -0.460130006
vt -0.00525100017 -0.466755986
vt 0.00949199963 -0.462498009
vt 0.00949199963 -0.462498009
vt -0.00525100017 -0.466755986
vt 0.0091380002 -0.469004989
vt 0.00949199963 -0.462498009
vt 0.0091380002 -0.469004989
vt 0.0252059996 -0.465968013
vt 0.0252059996 -0.465968013
vt 0.0091380002 -0.469004989
vt 0.0240659993 -0.47230199
vt 0.0252059996 -0.465968013
vt 0.0240659993 -0.47230199
vt 0.0410589986 -0.470445991
vt 0.0410589986 -0.470445991
vt 0.0240659993 -0.47230199
vt 0.0391260013 -0.476556003
vt 0.0410589986 -0.470445991
vt 0.0391260013 -0.476556003
vt 0.0566189997 -0.475809008
vt 0.0566189997 -0.475809008
vt 0.0391260013 -0.476556003
vt 0.0539080016 -0.481651992
vt 0.0566189997 -0.475809008
vt 0.0539080016 -0.481651992
vt 0.0714609995 -0.481913
vt 0.0714609995 -0.481913
vt 0.0539080016 -0.481651992
vt 0.0680079982 -0.487450004
vt 0.0714609995 -0.481913
vt 0.0680079982 -0.487450004
vt 0.0851799995 -0.488588989
vt 0.0851799995 -0.488588989
vt 0.0680079982 -0.487450004
vt 0.0810410008 -0.493793011
vt 0.0851799995 -0.488588989
vt 0.0810410008 -0.493793011
vt 0.0974019989 -0.495656997
vt 0.0974019989 -0.495656997
vt 0.0810410008 -0.493793011
vt 0.0926520005 -0.500506997
vt 0.0974019989 -0.495656997
vt 0.0926520005 -0.500506997
vt 0.107795 -0.502923012
vt 0.107795 -0.502923012
vt 0.0926520005 -0.500506997
vt 0.102525003 -0.507408977
vt -0.041912999 1.45559597
vt -0.0471829996 1.45704699
vt -0.0497779995 1.443905
vt -0.0497779995 1.443905
vt -0.0471829996 1.45704699
vt -0.0554610007 1.44474006
vt -0.0497779995 1.443905
vt -0.0554610007 1.44474006
vt -0.0554200001 1.43089497
vt -0.0554200001 1.43089497
vt -0.0554610007 1.44474006
vt -0.0614 1.43104506
vt -0.0554200001 1.43089497
vt -0.0614 1.43104506
vt -0.0586859994 1.41692102
vt -0.0586859994 1.41692102
vt -0.0614 1.43104506
vt -0.0648379996 1.41633499
vt -0.0586859994 1.41692102
vt -0.0648379996 1.41633499
vt -0.0594860017 1.40236294
vt -0.0594860017 1.40236294
vt -0.0648379996 1.41633499
vt -0.0656799972 1.40101194
vt -0.0594860017 1.40236294
vt -0.0656799972 1.40101194
vt -0.0577990003 1.38761997
vt -0.0577990003 1.38761997
vt -0.0656799972 1.40101194
vt -0.0639040023 1.38549304
vt -0.0577990003 1.38761997
vt -0.0639040023 1.38549304
vt -0.0536700003 1.37309301
vt -0.0536700003 1.37309301
vt -0.0639040023 1.38549304
vt -0.0595589988 1.37020099
vt -0.0536700003 1.37309301
vt -0.0595589988 1.37020099
vt -0.0472129993 1.35917795
vt -0.0472129993 1.35917795
vt -0.0595589988 1.37020099
vt -0.0527620018 1.35555398
vt -0.0472129993 1.35917795
vt -0.0527620018 1.35555398
vt -0.0386030003 1.34625602
vt -0.0386030003 1.34625602
vt -0.0527620018 1.35555398
vt -0.043699 1.34195101
vt -0.0386030003 1.34625602
vt -0.043699 1.34195101
vt -0.0280760005 1.33467805
vt -0.0280760005 1.33467805
vt -0.043699 1.34195101
vt -0.032616999 1.32976401
vt -0.0280760005 1.33467805
vt -0.032616999 1.32976401
vt -0.0159179997 1.32475996
vt -0.0159179997 1.32475996
vt -0.032616999 1.32976401
vt -0.0198190007 1.31932402
vt -0.0159179997 1.32475996
vt -0.0198190007 1.31932402
vt -0.00246100011 1.31677306
vt -0.00246100011 1.31677306
vt -0.0198190007 1.31932402
vt -0.00565400021 1.31091702
vt -0.00246100011 1.31677306
vt -0.00565400021 1.31091702
vt 0.0119279996 1.31093502
vt 0.0119279996 1.31093502
vt -0.00565400021 1.31091702
vt 0.00949199963 1.30477095
vt 0.0119279996 1.31093502
vt 0.00949199963 1.30477095
vt 0.0268559996 1.30740499
vt 0.0268559996 1.30740499
vt 0.00949199963 1.30477095
vt 0.0252059996 1.30105603
vt 0.0268559996 1.30740499
vt 0.0252059996 1.30105603
vt 0.0419160016 1.30627894
vt 0.0419160016 1.30627894
vt 0.0252059996 1.30105603
vt 0.0410589986 1.29987001
vt 0.0419160016 1.30627894
vt 0.0410589986 1.29987001
vt 0.0566979982 1.30758798
vt 0.0566979982 1.30758798
vt 0.0410589986 1.29987001
vt 0.0566189997 1.30124903
vt 0.0566979982 1.30758798
vt 0.0566189997 1.30124903
vt 0.0707980022 1.31129706
vt 0.0707980022 1.31129706
vt 0.0566189997 1.30124903
vt 0.0714609995 1.30515206
vt 0.0707980022 1.31129706
vt 0.0714609995 1.30515206
vt 0.0838309973 1.31730294
vt 0.0838309973 1.31730294
vt 0.0714609995 1.30515206
vt 0.0851799995 1.31147504
vt 0.0838309973 1.31730294
vt 0.0851799995 1.31147504
vt 0.0954430029 1.32544398
vt 0.0954430029 1.32544398
vt 0.0851799995 1.31147504
vt 0.0974019989 1.32004404
vt 0.491533995 1.32544398
vt 0.495656997 1.32004404
vt 0.498436004 1.33549702
vt 0.498436004 1.33549702
vt 0.495656997 1.32004404
vt 0.502923012 1.33062601
vt -0.144886002 -0.575814009
vt -0.143068999 -0.581734002
vt -0.110321999 -0.55330801
vt 0.55330801 1.47535503
vt 0.581734002 1.50396395
vt 0.581734002 1.50396395
vt -0.110321999 -0.55330801
vt -0.143068999 -0.581734002
vt -0.107531004 -0.562281013
vt -0.107531004 -0.562281013
vt -0.143068999 -0.581734002
vt -0.142530993 -0.585071027
vt 0.376904994 -0.198060006
vt 0.376904994 0.175644994
vt 0.37490499 -0.198060006
vt 0.37490499 -0.198060006
vt 0.376904994 0.175644994
vt 0.37490499 0.175644994
vt 0.339753002 -0.393013
vt 0.339753002 -0.388231993
vt 0.338239014 -0.388184011
vt 0.388184011 1.12635005
vt 0.388231993 1.12633002
vt 0.388231993 1.12633002
vt 0.338239014 -0.388184011
vt 0.339753002 -0.388231993
vt 0.33513701 -0.384739995
vt 0.33513701 -0.384739995
vt 0.339753002 -0.388231993
vt 0.339753002 -0.384175986
vt 0.33513701 1.12850904
vt 0.339753002 1.12903905
vt 0.330689013 1.13031602
vt 0.330689013 1.13031602
vt 0.339753002 1.12903905
vt 0.339753002 1.13309503
vt 0.330689013 1.13031602
vt 0.339753002 1.13309503
vt 0.28975299 1.12896705
vt 0.384247988 1.12896705
vt 0.381464988 1.13309503
vt 0.381464988 1.13309503
vt 0.28975299 1.12896705
vt 0.339753002 1.13309503
vt 0.28975299 1.13643801
vt 0.28975299 1.13643801
vt 0.339753002 1.13309503
vt 0.339753002 1.13787603
vt 0.28975299 1.13643801
vt 0.339753002 1.13787603
vt 0.287252992 1.13643801
vt 0.380596012 1.13643801
vt 0.380513012 1.13787603
vt 0.380513012 1.13787603
vt 0.287252992 1.13643801
vt 0.339753002 1.13787603
vt 0.28975299 1.14131904
vt 0.28975299 1.14131904
vt 0.339753002 1.13787603
vt 0.339753002 1.14266098
vt 0.28975299 1.14131904
vt 0.339753002 1.14266098
vt 0.28975299 1.14602399
vt 0.28975299 1.14602399
vt 0.339753002 1.14266098
vt 0.339753002 1.14671695
vt -0.28975299 -0.383531004
vt -0.339753002 -0.384173006
vt -0.28975299 -0.387796998
vt -0.28975299 -0.387796998
vt -0.339753002 -0.384173006
vt -0.339753002 -0.388226002
vt -0.28975299 -0.387796998
vt -0.339753002 -0.388226002
vt -0.28975299 -0.393013
vt -0.28975299 -0.393013
vt -0.339753002 -0.388226002
vt -0.339753002 -0.393013
vt 0.330689013 1.13031602
vt 0.28975299 1.12896705
vt 0.325762987 1.12956595
vt 0.383679986 1.12956595
vt 0.384247988 1.12896705
vt 0.384247988 1.12896705
vt 0.325762987 -0.383679986
vt 0.28975299 -0.384247988
vt 0.321994007 -0.386317998
vt 0.321994007 -0.386317998
vt 0.28975299 -0.384247988
vt 0.287252992 -0.384247988
vt 0.386317998 1.12732399
vt 0.384247988 1.12896705
vt 0.386317998 1.12732399
vt 0.321994007 -0.386317998
vt 0.287252992 -0.384247988
vt 0.289416999 -0.387930006
vt 0.321994007 -0.386317998
vt 0.289416999 -0.387930006
vt 0.319752991 -0.390567005
vt 0.319752991 -0.390567005
vt 0.289416999 -0.387930006
vt 0.289725006 -0.393013
vt 0.319752991 -0.390567005
vt 0.289725006 -0.393013
vt 0.319752991 -0.393013
vt 0.384175986 1.12903905
vt 0.388231993 1.12633002
vt 0.381464988 1.13309503
vt 0.381464988 1.13309503
vt 0.388231993 1.12633002
vt 0.388231993 1.12633002
vt 0.381464988 1.13309503
vt 0.388231993 1.12633002
vt 0.380513012 1.13787603
vt 0.380513012 1.13787603
vt 0.388231993 1.12633002
vt 0.393013 1.12538004
vt 0.380513012 1.13787603
vt 0.393013 1.12538004
vt 0.381464005 1.14266098
vt 0.381464005 1.14266098
vt 0.393013 1.12538004
vt 0.397799999 1.126333
vt 0.381464005 1.14266098
vt 0.397799999 1.126333
vt 0.384173006 1.14671695
vt 0.384173006 1.14671695
vt 0.397799999 1.126333
vt 0.401852995 1.12904298
vt 0.384173006 1.14671695
vt 0.401852995 1.12904298
vt 0.388226002 1.14942706
vt 0.388226002 1.14942706
vt 0.401852995 1.12904298
vt 0.404561996 1.13309801
vt 0.388226002 1.14942706
vt 0.404561996 1.13309801
vt 0.393013 1.15038002
vt 0.393013 1.15038002
vt 0.404561996 1.13309801
vt 0.405512989 1.13788295
vt 0.393013 1.15038002
vt 0.405512989 1.13788295
vt 0.397794008 1.14942896
vt 0.397794008 1.14942896
vt 0.405512989 1.13788295
vt 0.404561013 1.14266396
vt 0.397794008 1.14942896
vt 0.404561013 1.14266396
vt 0.401849002 1.14672101
vt -0.390567005 1.07345498
vt -0.386617988 1.07345498
vt -0.390567005 1.12562096
vt 0.390567005 1.12562096
vt 0.386617988 1.07345498
vt 0.386617988 1.07345498
vt -0.390567005 1.12562096
vt -0.386617988 1.07345498
vt -0.386317998 1.12732399
vt 0.321994007 1.12732399
vt 0.321738005 1.07345498
vt 0.325235009 1.07345498
vt 0.321994007 1.12732399
vt 0.325235009 1.07345498
vt 0.325762987 1.12956595
vt 0.325762987 1.12956595
vt 0.325235009 1.07345498
vt 0.329557002 1.07345498
vt 0.325762987 1.12956595
vt 0.329557002 1.07345498
vt 0.330689013 1.13031602
vt 0.330689013 1.13031602
vt 0.329557002 1.07345498
vt 0.33386001 1.07345498
vt 0.330689013 1.13031602
vt 0.33386001 1.07345498
vt 0.33513701 1.12850904
vt 0.33513701 1.12850904
vt 0.33386001 1.07345498
vt 0.337303996 1.07345498
vt 0.384739995 1.12850904
vt 0.386768997 1.07345498
vt 0.388184011 1.12635005
vt 0.388184011 1.12635005
vt 0.386768997 1.07345498
vt 0.390756994 1.07345498
vt 0.388184011 1.12635005
vt 0.390756994 1.07345498
vt 0.393013 1.12538004
vt 0.393013 1.12538004
vt 0.390756994 1.07345498
vt 0.395181 1.07345498
vt 0.393013 1.12538004
vt 0.395181 1.07345498
vt 0.397812009 1.12633801
vt 0.397812009 1.12633801
vt 0.395181 1.07345498
vt 0.399172008 1.07345498
vt 0.397812009 1.12633801
vt 0.399172008 1.07345498
vt 0.401230991 1.12846196
vt -0.335096985 1.12846196
vt -0.337305009 1.07345498
vt -0.333864987 1.07345498
vt -0.335096985 1.12846196
vt -0.333864987 1.07345498
vt -0.330648005 1.13021505
vt -0.330648005 1.13021505
vt -0.333864987 1.07345498
vt -0.329560012 1.07345498
vt -0.330648005 1.13021505
vt -0.329560012 1.07345498
vt -0.325744003 1.12946296
vt -0.325744003 1.12946296
vt -0.329560012 1.07345498
vt -0.325239003 1.07345498
vt -0.325744003 1.12946296
vt -0.325239003 1.07345498
vt -0.32198599 1.12726498
vt -0.32198599 1.12726498
vt -0.325239003 1.07345498
vt -0.321741015 1.07345498
vt -0.399616003 1.12726498
vt -0.39932999 1.07345498
vt -0.395375997 1.12560499
vt -0.395375997 1.12560499
vt -0.39932999 1.07345498
vt -0.395375997 1.07345498
vt -0.390567005 1.12562096
vt -0.393013 1.12538004
vt -0.390567005 1.07345498
vt 0.390567005 1.07345498
vt 0.393013 1.12538004
vt 0.393013 1.12538004
vt -0.390567005 1.07345498
vt -0.393013 1.12538004
vt -0.395375997 1.07345498
vt -0.395375997 1.07345498
vt -0.393013 1.12538004
vt -0.395375997 1.12560499
vt 0.319752991 -0.393013
vt 0.289725006 -0.393013
vt 0.319752991 -0.395375997
vt 0.319752991 -0.395375997
vt 0.289725006 -0.393013
vt 0.289725989 -0.397496015
vt 0.319752991 -0.395375997
vt 0.289725989 -0.397496015
vt 0.32198599 -0.399616003
vt 0.32198599 -0.399616003
vt 0.289725989 -0.397496015
vt 0.289748013 -0.401244998
vt 0.32198599 -0.399616003
vt 0.289748013 -0.401244998
vt 0.325744003 -0.402254999
vt 0.402254999 1.12946296
vt 0.401244998 1.128474
vt 0.401244998 1.128474
vt -0.325744003 1.12946296
vt -0.289748013 1.128474
vt -0.330648005 1.13021505
vt -0.330648005 1.13021505
vt -0.289748013 1.128474
vt -0.28975299 1.13596904
vt -0.330648005 1.13021505
vt -0.28975299 1.13596904
vt -0.339753002 1.13309801
vt 0.404561996 1.13309801
vt 0.405366004 1.13596904
vt 0.405366004 1.13596904
vt -0.339753002 1.13309801
vt -0.28975299 1.13596904
vt -0.339753002 1.13788295
vt -0.339753002 1.13788295
vt -0.28975299 1.13596904
vt -0.289669991 1.13743103
vt 0.405512989 1.13788295
vt 0.405505002 1.13743103
vt 0.405512989 1.13788295
vt -0.339753002 1.13788295
vt -0.289669991 1.13743103
vt -0.28875199 1.14183605
vt -0.339753002 1.13788295
vt -0.28875199 1.14183605
vt -0.339753002 1.14266396
vt -0.339753002 1.14266396
vt -0.28875199 1.14183605
vt -0.289007008 1.14577794
vt -0.339753002 1.14266396
vt -0.289007008 1.14577794
vt -0.339753002 1.14672101
vt -0.339753002 -0.401849002
vt -0.289007008 -0.402702004
vt -0.28975299 -0.399300992
vt -0.339753002 -0.401849002
vt -0.28975299 -0.399300992
vt -0.339753002 -0.397794008
vt -0.339753002 -0.397794008
vt -0.28975299 -0.399300992
vt -0.28975299 -0.393013
vt -0.339753002 -0.397794008
vt -0.28975299 -0.393013
vt -0.339753002 -0.393013
vt -0.339753002 1.13309801
vt -0.339753002 1.12904298
vt -0.330648005 1.13021505
vt 0.402886987 1.13021505
vt 0.401852995 1.12904298
vt 0.401852995 1.12904298
vt -0.330648005 1.13021505
vt -0.339753002 1.12904298
vt -0.335096985 1.12846196
vt 0.335096985 -0.401230991
vt 0.339753002 -0.401852995
vt 0.339753002 -0.397799999
vt 0.335096985 -0.401230991
vt 0.339753002 -0.397799999
vt 0.338209987 -0.397812009
vt 0.338209987 -0.397812009
vt 0.339753002 -0.397799999
vt 0.339753002 -0.393013
vt 0.424905002 0.0135920001
vt 0.429351002 0.0135920001
vt 0.424905002 0.105848998
vt -0.105848998 1.288831
vt -0.0135920001 1.28933203
vt -0.0135920001 1.28933203
vt 0.424905002 0.105848998
vt 0.429351002 0.0135920001
vt 0.429592013 0.105292998
vt 0.429592013 0.105292998
vt 0.429351002 0.0135920001
vt 0.433580011 0.0135920001
vt 0.429592013 0.105292998
vt 0.433580011 0.0135920001
vt 0.433822006 0.103752002
vt 0.433822006 0.103752002
vt 0.433580011 0.0135920001
vt 0.437373012 0.0135920001
vt 0.433822006 0.103752002
vt 0.437373012 0.0135920001
vt 0.437366009 0.101493001
vt -0.101493001 1.29318702
vt -0.0135920001 1.29319203
vt -0.0135920001 1.29319203
vt 0.437366009 0.101493001
vt 0.437373012 0.0135920001
vt 0.440174013 0.0987680033
vt 0.440174013 0.0987680033
vt 0.437373012 0.0135920001
vt 0.440539002 0.0135920001
vt -0.0987680033 1.29591298
vt -0.0135920001 1.29635799
vt -0.0957439989 1.29893601
vt -0.0957439989 1.29893601
vt -0.0135920001 1.29635799
vt -0.0135920001 1.30015194
vt -0.0957439989 1.29893601
vt -0.0135920001 1.30015194
vt -0.0925349966 1.30214596
vt -0.0925349966 1.30214596
vt -0.0135920001 1.30015194
vt -0.0135920001 1.30437601
vt -0.0925349966 1.30214596
vt -0.0135920001 1.30437601
vt -0.0892169997 1.30546296
vt -0.0892169997 1.30546296
vt -0.0135920001 1.30437601
vt -0.0135920001 1.30883098
vt -0.0892169997 1.30546296
vt -0.0135920001 1.30883098
vt -0.085849002 1.30883098
vt -0.148561999 1.50794005
vt -0.148672 1.51256096
vt -0.165732995 1.48983705
vt 0.594476998 1.48983705
vt 0.597177029 1.51256096
vt 0.597177029 1.51256096
vt -0.165732995 1.48983705
vt -0.148672 1.51256096
vt -0.170433 1.48961794
vt -0.170433 1.48961794
vt -0.148672 1.51256096
vt -0.149122 1.51729798
vt -0.170433 1.48961794
vt -0.149122 1.51729798
vt -0.175164998 1.48984003
vt -0.175164998 1.48984003
vt -0.149122 1.51729798
vt -0.149961993 1.52167499
vt -0.175164998 1.48984003
vt -0.149961993 1.52167499
vt -0.179427996 1.49060905
vt -0.179427996 1.49060905
vt -0.149961993 1.52167499
vt -0.151177004 1.52457798
vt -0.179427996 1.49060905
vt -0.151177004 1.52457798
vt -0.182083994 1.491992
vt -0.148561999 1.50794005
vt -0.165732995 1.48983705
vt -0.147035003 1.50657594
vt -0.147035003 1.50657594
vt -0.165732995 1.48983705
vt -0.164205 1.48847198
vt -0.147035003 1.50657594
vt -0.142720997 1.50717103
vt -0.148561999 1.50794005
vt 0.596038997 1.50794005
vt 0.593339026 1.50717103
vt 0.593339026 1.50717103
vt -0.148561999 1.50794005
vt -0.142720997 1.50717103
vt -0.148672 1.51256096
vt -0.148672 1.51256096
vt -0.142720997 1.50717103
vt -0.138947994 1.50816298
vt -0.148672 1.51256096
vt -0.138947994 1.50816298
vt -0.149122 1.51729798
vt -0.597109973 1.51729798
vt -0.590575993 1.50816298
vt -0.586780012 1.50955403
vt -0.597109973 1.51729798
vt -0.586780012 1.50955403
vt -0.595489025 1.52167499
vt -0.595489025 1.52167499
vt -0.586780012 1.50955403
vt -0.582359016 1.51120496
vt -0.595489025 1.52167499
vt -0.582359016 1.51120496
vt -0.591997981 1.52457798
vt -0.147035003 1.50657594
vt -0.164205 1.48847198
vt -0.142720997 1.50717103
vt -0.142720997 1.50717103
vt -0.164205 1.48847198
vt -0.164412007 1.48424101
vt 0.142720997 -0.593339026
vt 0.164412007 -0.591322005
vt 0.138947994 -0.590575993
vt 0.138947994 -0.590575993
vt 0.164412007 -0.591322005
vt 0.164950997 -0.588167012
vt -0.590575993 1.50816298
vt -0.588167012 1.48072004
vt -0.586780012 1.50955403
vt -0.586780012 1.50955403
vt -0.588167012 1.48072004
vt -0.584078014 1.47849596
vt -0.586780012 1.50955403
vt -0.584078014 1.47849596
vt -0.585071027 1.50316596
vt 0.585071027 1.50316596
vt 0.584078014 1.47849596
vt 0.584078014 1.47849596
vt -0.585071027 1.50316596
vt -0.584078014 1.47849596
vt -0.583059013 1.47984004
vt 0.164655 -0.583059013
vt 0.165863007 -0.584078014
vt 0.167107999 -0.579548001
vt -0.583059013 1.47984004
vt -0.579548001 1.47861898
vt -0.579721987 1.48063898
vt -0.586780012 1.50955403
vt -0.585071027 1.50316596
vt -0.582359016 1.51120496
vt -0.582359016 1.51120496
vt -0.585071027 1.50316596
vt -0.581734002 1.50396395
vt -0.165732995 1.48983705
vt -0.170433 1.48961794
vt -0.164205 1.48847198
vt 0.593493998 1.48847198
vt 0.595197976 1.48961794
vt 0.595197976 1.48961794
vt -0.164205 1.48847198
vt -0.170433 1.48961794
vt -0.164412007 1.48424101
vt -0.164412007 1.48424101
vt -0.170433 1.48961794
vt -0.175164998 1.48984003
vt -0.164412007 1.48424101
vt -0.175164998 1.48984003
vt -0.164950997 1.48072004
vt 0.164950997 -0.588167012
vt 0.175164998 -0.594742
vt 0.179427996 -0.592809021
vt 0.164950997 -0.588167012
vt 0.179427996 -0.592809021
vt 0.165863007 -0.584078014
vt 0.165863007 -0.584078014
vt 0.179427996 -0.592809021
vt 0.182083994 -0.589187026
vt 0.165863007 -0.584078014
vt 0.182083994 -0.589187026
vt 0.167107999 -0.579548001
vt -0.142530993 1.50316596
vt -0.164655 1.47984004
vt -0.107531004 1.47193503
vt -0.107531004 1.47193503
vt -0.164655 1.47984004
vt -0.125698999 1.44507897
vt -0.107531004 1.47193503
vt -0.125698999 1.44507897
vt -0.101138003 1.44637001
vt -0.101138003 1.44637001
vt -0.125698999 1.44507897
vt -0.122778997 1.44199598
vt 0.550548017 1.44637001
vt 0.555610001 1.44199598
vt 0.550548017 1.44637001
vt -0.101138003 1.44637001
vt -0.122778997 1.44199598
vt -0.120416 1.43846595
vt -0.101138003 1.44637001
vt -0.120416 1.43846595
vt -0.110955 1.43237102
vt -0.110955 1.43237102
vt -0.120416 1.43846595
vt -0.118662998 1.434569
vt 0.548264027 1.43237102
vt 0.551499009 1.434569
vt 0.548264027 1.43237102
vt -0.110955 1.43237102
vt -0.118662998 1.434569
vt -0.117562003 1.43039501
vt 0.548264027 1.43237102
vt 0.549565017 1.43039501
vt 0.548264027 1.43237102
vt -0.110955 1.43237102
vt -0.117562003 1.43039501
vt -0.117136002 1.42603803
vt 0.548264027 1.43237102
vt 0.54777199 1.42603803
vt 0.548264027 1.43237102
vt -0.110955 1.43237102
vt -0.117136002 1.42603803
vt -0.117395997 1.42159796
vt -0.110955 1.43237102
vt -0.117395997 1.42159796
vt -0.118336 1.41717601
vt -0.107531004 1.47193503
vt -0.101138003 1.44637001
vt -0.103768997 1.46917295
vt 0.560057998 1.46917295
vt 0.550548017 1.44637001
vt 0.550548017 1.44637001
vt -0.103768997 1.46917295
vt -0.101138003 1.44637001
vt -0.0995049998 1.46713901
vt -0.0995049998 1.46713901
vt -0.101138003 1.44637001
vt -0.0891750008 1.458758
vt -0.0995049998 1.46713901
vt -0.0891750008 1.458758
vt -0.0948679969 1.46589398
vt 0.556041002 1.46589398
vt 0.551549971 1.458758
vt 0.551549971 1.458758
vt -0.0948679969 1.46589398
vt -0.0891750008 1.458758
vt -0.0899960026 1.46547401
vt 0.554365993 1.46547401
vt 0.551549971 1.458758
vt 0.551549971 1.458758
vt -0.0899960026 1.46547401
vt -0.0891750008 1.458758
vt -0.0850329995 1.46589196
vt 0.552981019 1.46589196
vt 0.551549971 1.458758
vt 0.551549971 1.458758
vt -0.0850329995 1.46589196
vt -0.0891750008 1.458758
vt -0.0801260024 1.46713603
vt -0.0801260024 1.46713603
vt -0.0891750008 1.458758
vt -0.0754230022 1.46916795
vt 0.164655 -0.583059013
vt 0.165193006 -0.579721987
vt 0.125698999 -0.557693005
vt 0.557693005 1.44507897
vt 0.579721987 1.48063898
vt 0.579721987 1.48063898
vt 0.125698999 -0.557693005
vt 0.165193006 -0.579721987
vt 0.128490001 -0.548720002
vt 0.128490001 -0.548720002
vt 0.165193006 -0.579721987
vt 0.167009994 -0.573801994
vt 0.557693005 1.44507897
vt 0.548720002 1.44850004
vt 0.555610001 1.44199598
vt 0.555610001 1.44199598
vt 0.548720002 1.44850004
vt 0.546636999 1.44541597
vt 0.555610001 1.44199598
vt 0.546636999 1.44541597
vt 0.553529024 1.43846595
vt 0.553529024 1.43846595
vt 0.546636999 1.44541597
vt 0.544556022 1.44188595
vt 0.553529024 1.43846595
vt 0.544556022 1.44188595
vt 0.551499009 1.434569
vt 0.551499009 1.434569
vt 0.544556022 1.44188595
vt 0.542526007 1.43798995
vt 0.551499009 1.434569
vt 0.542526007 1.43798995
vt 0.549565017 1.43039501
vt 0.549565017 1.43039501
vt 0.542526007 1.43798995
vt 0.540592015 1.433815
vt 0.549565017 1.43039501
vt 0.540592015 1.433815
vt 0.54777199 1.42603803
vt 0.54777199 1.42603803
vt 0.540592015 1.433815
vt 0.538798988 1.42945898
vt 0.54777199 1.42603803
vt 0.538798988 1.42945898
vt 0.546159983 1.42159796
vt 0.546159983 1.42159796
vt 0.538798988 1.42945898
vt 0.53718698 1.42501903
vt 0.546159983 1.42159796
vt 0.53718698 1.42501903
vt 0.544767022 1.41717601
vt 0.544767022 1.41717601
vt 0.53718698 1.42501903
vt 0.53579402 1.42059696
vt 0.121127002 1.42059696
vt 0.120186999 1.42501903
vt 0.113746002 1.43579102
vt 0.113746002 1.43579102
vt 0.120186999 1.42501903
vt 0.119926997 1.42945898
vt 0.539291024 1.43579102
vt 0.538798988 1.42945898
vt 0.539291024 1.43579102
vt 0.113746002 1.43579102
vt 0.119926997 1.42945898
vt 0.120352 1.433815
vt 0.539291024 1.43579102
vt 0.540592015 1.433815
vt 0.539291024 1.43579102
vt 0.113746002 1.43579102
vt 0.120352 1.433815
vt 0.121454 1.43798995
vt 0.539291024 1.43579102
vt 0.542526007 1.43798995
vt 0.539291024 1.43579102
vt 0.113746002 1.43579102
vt 0.121454 1.43798995
vt 0.123205997 1.44188595
vt 0.113746002 1.43579102
vt 0.123205997 1.44188595
vt 0.103928 1.44979095
vt 0.103928 1.44979095
vt 0.123205997 1.44188595
vt 0.125569001 1.44541597
vt 0.541575015 1.44979095
vt 0.546636999 1.44541597
vt 0.541575015 1.44979095
vt 0.103928 1.44979095
vt 0.125569001 1.44541597
vt 0.128490001 1.44850004
vt 0.103928 1.44979095
vt 0.128490001 1.44850004
vt 0.110321999 1.47535503
vt 0.110321999 1.47535503
vt 0.128490001 1.44850004
vt 0.145512 1.48583198
vt 0.55330801 1.47535503
vt 0.568244994 1.48583198
vt 0.55330801 1.47535503
vt 0.110321999 1.47535503
vt 0.145512 1.48583198
vt 0.145367995 1.48914695
vt 0.110321999 1.47535503
vt 0.145367995 1.48914695
vt 0.144886002 1.50619698
vt 0.144886002 1.50619698
vt 0.145367995 1.48914695
vt 0.153598994 1.49701095
vt 0.145512 1.48583198
vt 0.128490001 1.44850004
vt 0.148903996 1.48562002
vt 0.148903996 1.48562002
vt 0.128490001 1.44850004
vt 0.167009994 1.48287201
vt 0.148903996 1.48562002
vt 0.167009994 1.48287201
vt 0.157033995 1.49338901
vt 0.110321999 1.47535503
vt 0.106559001 1.47259402
vt 0.103928 1.44979095
vt 0.103928 1.44979095
vt 0.106559001 1.47259402
vt 0.102296002 1.47055995
vt 0.103928 1.44979095
vt 0.102296002 1.47055995
vt 0.0919649974 1.46217895
vt 0.0919649974 1.46217895
vt 0.102296002 1.47055995
vt 0.0976589993 1.46931505
vt 0.542577028 1.46217895
vt 0.547068 1.46931505
vt 0.542577028 1.46217895
vt 0.0919649974 1.46217895
vt 0.0976589993 1.46931505
vt 0.0927859992 1.46889496
vt 0.542577028 1.46217895
vt 0.54539299 1.46889496
vt 0.542577028 1.46217895
vt 0.0919649974 1.46217895
vt 0.0927859992 1.46889496
vt 0.0878230035 1.46931303
vt 0.542577028 1.46217895
vt 0.544008017 1.46931303
vt 0.542577028 1.46217895
vt 0.0919649974 1.46217895
vt 0.0878230035 1.46931303
vt 0.082915999 1.47055602
vt 0.0919649974 1.46217895
vt 0.082915999 1.47055602
vt 0.0782129988 1.47258794
vt -0.0754230022 -0.551241994
vt -0.0782129988 -0.542268991
vt -0.0801260024 -0.55193001
vt -0.0801260024 -0.55193001
vt -0.0782129988 -0.542268991
vt -0.082915999 -0.542957008
vt -0.0801260024 -0.55193001
vt -0.082915999 -0.542957008
vt -0.0850329995 -0.552981019
vt -0.0850329995 -0.552981019
vt -0.082915999 -0.542957008
vt -0.0878230035 -0.544008017
vt -0.0850329995 -0.552981019
vt -0.0878230035 -0.544008017
vt -0.0899960026 -0.554365993
vt -0.0899960026 -0.554365993
vt -0.0878230035 -0.544008017
vt -0.0927859992 -0.54539299
vt -0.0899960026 -0.554365993
vt -0.0927859992 -0.54539299
vt -0.0948679969 -0.556041002
vt -0.0948679969 -0.556041002
vt -0.0927859992 -0.54539299
vt -0.0976589993 -0.547068
vt -0.0948679969 -0.556041002
vt -0.0976589993 -0.547068
vt -0.0995049998 -0.557956994
vt -0.0995049998 -0.557956994
vt -0.0976589993 -0.547068
vt -0.102296002 -0.548983991
vt -0.0995049998 -0.557956994
vt -0.102296002 -0.548983991
vt -0.103768997 -0.560057998
vt -0.103768997 -0.560057998
vt -0.102296002 -0.548983991
vt -0.106559001 -0.551084995
vt -0.103768997 -0.560057998
vt -0.106559001 -0.551084995
vt -0.107531004 -0.562281013
vt -0.107531004 -0.562281013
vt -0.106559001 -0.551084995
vt -0.110321999 -0.55330801
vt -0.29814899 -0.171407998
vt -0.205881 -0.171407998
vt -0.29814899 0.148591995
vt -0.29814899 0.148591995
vt -0.205881 -0.171407998
vt -0.205881 0.148591995
vt -0.581734002 1.50396395
vt -0.575814009 1.50619698
vt -0.582359016 1.51120496
vt 0.582359016 1.51120496
vt 0.575814009 1.50619698
vt 0.575814009 1.50619698
vt -0.582359016 1.51120496
vt -0.575814009 1.50619698
vt -0.571273029 1.51538706
vt 0.571273029 1.51538706
vt 0.575814009 1.50619698
vt 0.575814009 1.50619698
vt -0.571273029 1.51538706
vt -0.575814009 1.50619698
vt -0.569855988 1.49895895
vt -0.569855988 1.49895895
vt -0.575814009 1.50619698
vt -0.575021029 1.49701095
vt -0.579721987 1.48063898
vt -0.579548001 1.47861898
vt -0.573801994 1.48287201
vt -0.573801994 1.48287201
vt -0.579548001 1.47861898
vt -0.568462014 1.48280096
vt 0.573801994 1.48287201
vt 0.568462014 1.48280096
vt 0.573801994 1.48287201
vt -0.573801994 1.48287201
vt -0.568462014 1.48280096
vt -0.569544017 1.49533701
vt -0.573801994 1.48287201
vt -0.569544017 1.49533701
vt -0.574708998 1.49338901
vt 0.589187026 1.491992
vt 0.591997981 1.52457798
vt 0.578101993 1.49617398
vt 0.578101993 1.49617398
vt 0.591997981 1.52457798
vt 0.580911994 1.52875996
vt 0.182083994 -0.589187026
vt 0.185485005 -0.578101993
vt 0.167107999 -0.579548001
vt 0.167107999 -0.579548001
vt 0.185485005 -0.578101993
vt 0.170508996 -0.568462014
vt -0.151177004 -0.591997981
vt -0.136200994 -0.582359016
vt -0.154578 -0.580911994
vt -0.154578 -0.580911994
vt -0.136200994 -0.582359016
vt -0.139602005 -0.571273029
vt 0.158619002 1.49533701
vt 0.170508996 1.48280096
vt 0.160255998 1.49690104
vt 0.160255998 1.49690104
vt 0.170508996 1.48280096
vt 0.185485005 1.49617398
vt 0.160255998 1.49690104
vt 0.185485005 1.49617398
vt 0.156719998 1.50042796
vt 0.156719998 1.50042796
vt 0.185485005 1.49617398
vt 0.154578 1.52875996
vt 0.570881009 1.50042796
vt 0.580911994 1.52875996
vt 0.570881009 1.50042796
vt 0.156719998 1.50042796
vt 0.154578 1.52875996
vt 0.139602005 1.51538706
vt 0.156719998 1.50042796
vt 0.139602005 1.51538706
vt 0.155184001 1.49895895
vt -0.444905013 1.30883098
vt -0.444905013 1.16873503
vt -0.444404989 1.30438495
vt 0.0364079997 1.30438495
vt 0.0364079997 1.16873503
vt 0.0364079997 1.16873503
vt -0.444404989 1.30438495
vt -0.444905013 1.16873503
vt -0.44292599 1.300156
vt 0.0364079997 1.300156
vt 0.0364079997 1.16873503
vt 0.0364079997 1.16873503
vt -0.44292599 1.300156
vt -0.444905013 1.16873503
vt -0.440544009 1.29636395
vt 0.0364079997 1.29636395
vt 0.0364079997 1.16873503
vt 0.0364079997 1.16873503
vt -0.440544009 1.29636395
vt -0.444905013 1.16873503
vt -0.437377989 1.29319704
vt 0.0364079997 1.29319704
vt 0.0364079997 1.16873503
vt 0.0364079997 1.16873503
vt -0.437377989 1.29319704
vt -0.444905013 1.16873503
vt -0.433584988 1.29081202
vt 0.0364079997 1.29081202
vt 0.0364079997 1.16873503
vt 0.0364079997 1.16873503
vt -0.433584988 1.29081202
vt -0.444905013 1.16873503
vt -0.429360986 1.28933406
vt -0.429360986 1.28933406
vt -0.444905013 1.16873503
vt -0.414905012 1.16873503
vt -0.429360986 1.28933406
vt -0.414905012 1.16873503
vt -0.424905002 1.288831
vt -0.424905002 1.288831
vt -0.414905012 1.16873503
vt -0.414905012 1.288831
vt 0.376904994 1.50200295
vt 0.37490499 1.50200295
vt 0.376904994 1.23034
vt 0.376904994 1.23034
vt 0.37490499 1.50200295
vt 0.37490499 1.23034
vt -0.148591995 1.11947596
vt -0.148591995 1.10863805
vt 0.171407998 1.11947596
vt 0.171407998 1.11947596
vt -0.148591995 1.10863805
vt 0.171407998 1.10863805
vt -0.376904994 0.175644994
vt -0.376904994 -0.198060006
vt -0.37490499 0.175644994
vt -0.37490499 0.175644994
vt -0.376904994 -0.198060006
vt -0.37490499 -0.198060006
vt -0.376904994 1.23034
vt -0.37490499 1.23034
vt -0.376904994 1.50200295
vt -0.376904994 1.50200295
vt -0.37490499 1.23034
vt -0.37490499 1.50200295
vt -0.37490499 -0.211408004
vt -0.37490499 0.188592002
vt -0.404904991 -0.211408004
vt -0.404904991 -0.211408004
vt -0.37490499 0.188592002
vt -0.404904991 0.188592002
vt -0.37490499 1.51588297
vt -0.404904991 1.51588297
vt -0.37490499 1.21588302
vt -0.37490499 1.21588302
vt -0.404904991 1.51588297
vt -0.404904991 1.21588302
vt 0.37490499 0.188592002
vt 0.37490499 -0.211408004
vt 0.404904991 0.188592002
vt 0.404904991 0.188592002
vt 0.37490499 -0.211408004
vt 0.404904991 -0.211408004
vt 0.37490499 1.21588302
vt 0.404904991 1.21588302
vt 0.37490499 1.51588297
vt 0.37490499 1.51588297
vt 0.404904991 1.21588302
vt 0.404904991 1.51588297
vt -0.404904991 -0.128410995
vt -0.404904991 0.105848998
vt -0.424905002 -0.128410995
vt -0.424905002 -0.128410995
vt -0.404904991 0.105848998
vt -0.424905002 0.105848998
vt -0.404904991 1.45121098
vt -0.424905002 1.45121098
vt -0.404904991 1.288831
vt -0.404904991 1.288831
vt -0.424905002 1.45121098
vt -0.424905002 1.288831
vt 0.404904991 1.288831
vt 0.424905002 1.288831
vt 0.404904991 1.45121098
vt 0.404904991 1.45121098
vt 0.424905002 1.288831
vt 0.424905002 1.45121098
vt 0.0135920001 1.288831
vt -0.0364079997 1.288831
vt 0.0135920001 1.16873503
vt 0.0135920001 1.16873503
vt -0.0364079997 1.288831
vt -0.0364079997 1.16873503
vt 0.0135920001 1.16873503
vt -0.0364079997 1.16873503
vt 0.0135920001 1.15862203
vt 0.0135920001 1.15862203
vt -0.0364079997 1.16873503
vt -0.0364079997 1.15862203
vt 0.0135920001 1.15862203
vt -0.0364079997 1.15862203
vt 0.0135920001 1.14796901
vt 0.0135920001 1.14796901
vt -0.0364079997 1.15862203
vt -0.0364079997 1.14796901
vt 0.0173070002 1.16422606
vt 0.0135920001 1.16873503
vt 0.0135920001 1.15862203
vt -0.0401230007 1.16422606
vt -0.0364079997 1.15862203
vt -0.0364079997 1.16873503
vt 0.414905012 1.288831
vt 0.414905012 1.16873503
vt 0.424905002 1.288831
vt -0.0135920001 1.288831
vt -0.0135920001 1.16873503
vt -0.0135920001 1.16873503
vt 0.424905002 1.288831
vt 0.414905012 1.16873503
vt 0.429351002 1.28933203
vt 0.429351002 1.28933203
vt 0.414905012 1.16873503
vt 0.444905013 1.16873503
vt 0.429351002 1.28933203
vt 0.444905013 1.16873503
vt 0.433580011 1.29080999
vt -0.0135920001 1.29080999
vt -0.0135920001 1.16873503
vt -0.0135920001 1.16873503
vt 0.433580011 1.29080999
vt 0.444905013 1.16873503
vt 0.437373012 1.29319203
vt -0.0135920001 1.29319203
vt -0.0135920001 1.16873503
vt -0.0135920001 1.16873503
vt 0.437373012 1.29319203
vt 0.444905013 1.16873503
vt 0.440539002 1.29635799
vt -0.0135920001 1.29635799
vt -0.0135920001 1.16873503
vt -0.0135920001 1.16873503
vt 0.440539002 1.29635799
vt 0.444905013 1.16873503
vt 0.442923993 1.30015194
vt -0.0135920001 1.30015194
vt -0.0135920001 1.16873503
vt -0.0135920001 1.16873503
vt 0.442923993 1.30015194
vt 0.444905013 1.16873503
vt 0.444402993 1.30437601
vt 0.444402993 1.30437601
vt 0.444905013 1.16873503
vt 0.444905013 1.30883098
vt 0.424905002 0.0135920001
vt 0.424905002 0.105848998
vt 0.414905012 0.0135920001
vt 0.414905012 0.0135920001
vt 0.424905002 0.105848998
vt 0.404904991 0.105848998
vt -0.0135920001 1.288831
vt -0.105848998 1.288831
vt -0.0135920001 1.288831
vt 0.414905012 0.0135920001
vt 0.404904991 0.105848998
vt 0.404904991 -0.128410995
vt 0.414905012 0.0135920001
vt 0.404904991 -0.128410995
vt 0.414905012 -0.0364079997
vt 0.414905012 -0.0364079997
vt 0.404904991 -0.128410995
vt 0.424905002 -0.128410995
vt 0.414905012 -0.0364079997
vt 0.424905002 -0.128410995
vt 0.424905002 -0.0364079997
vt 0.424905002 1.288831
vt 0.429592013 1.28938794
vt 0.424905002 1.45121098
vt -0.105848998 1.45121098
vt -0.105292998 1.28938794
vt -0.105292998 1.28938794
vt 0.424905002 1.45121098
vt 0.429592013 1.28938794
vt 0.429592013 1.45065403
vt 0.429592013 1.45065403
vt 0.429592013 1.28938794
vt 0.433822006 1.29092896
vt 0.429592013 1.45065403
vt 0.433822006 1.29092896
vt 0.433822006 1.44911301
vt 0.433822006 1.44911301
vt 0.433822006 1.29092896
vt 0.437366009 1.29318702
vt 0.433822006 1.44911301
vt 0.437366009 1.29318702
vt 0.437366009 1.44685495
vt 0.437366009 1.44685495
vt 0.437366009 1.29318702
vt 0.440174013 1.29591298
vt 0.437366009 1.44685495
vt 0.440174013 1.29591298
vt 0.440174013 1.44412899
vt -0.0987680033 1.44412899
vt -0.0987680033 1.29591298
vt -0.0957439989 1.29893601
vt -0.0987680033 1.44412899
vt -0.0957439989 1.29893601
vt -0.0957439989 1.44110501
vt -0.0957439989 1.44110501
vt -0.0957439989 1.29893601
vt -0.0925349966 1.30214596
vt -0.0957439989 1.44110501
vt -0.0925349966 1.30214596
vt -0.0925349966 1.43789601
vt -0.0925349966 1.43789601
vt -0.0925349966 1.30214596
vt -0.0892169997 1.30546296
vt -0.0925349966 1.43789601
vt -0.0892169997 1.30546296
vt -0.0892169997 1.43457794
vt -0.0892169997 1.43457794
vt -0.0892169997 1.30546296
vt -0.085849002 1.30883098
vt -0.0892169997 1.43457794
vt -0.085849002 1.30883098
vt -0.085849002 1.43121099
vt -0.424905002 0.105848998
vt -0.429592013 0.105292998
vt -0.424905002 -0.128410995
vt 0.128410995 1.45121098
vt -0.105292998 1.45065403
vt -0.105292998 1.45065403
vt -0.424905002 -0.128410995
vt -0.429592013 0.105292998
vt -0.429592013 -0.127854005
vt -0.429592013 -0.127854005
vt -0.429592013 0.105292998
vt -0.433822006 0.103752002
vt -0.429592013 -0.127854005
vt -0.433822006 0.103752002
vt -0.433822006 -0.126313001
vt -0.433822006 -0.126313001
vt -0.433822006 0.103752002
vt -0.437366009 0.101493001
vt -0.433822006 -0.126313001
vt -0.437366009 0.101493001
vt -0.437366009 -0.124054998
vt -0.437366009 -0.124054998
vt -0.437366009 0.101493001
vt -0.440174013 0.0987680033
vt -0.437366009 -0.124054998
vt -0.440174013 0.0987680033
vt -0.440174013 -0.121329002
vt 0.121329002 1.44412899
vt -0.0987680033 1.44412899
vt -0.0957439989 1.44110501
vt 0.121329002 1.44412899
vt -0.0957439989 1.44110501
vt 0.118306004 1.44110501
vt 0.118306004 1.44110501
vt -0.0957439989 1.44110501
vt -0.0925349966 1.43789601
vt 0.118306004 1.44110501
vt -0.0925349966 1.43789601
vt 0.115096003 1.43789601
vt 0.115096003 1.43789601
vt -0.0925349966 1.43789601
vt -0.0892169997 1.43457794
vt 0.115096003 1.43789601
vt -0.0892169997 1.43457794
vt 0.111777999 1.43457794
vt 0.111777999 1.43457794
vt -0.0892169997 1.43457794
vt -0.085849002 1.43121099
vt 0.111777999 1.43457794
vt -0.085849002 1.43121099
vt 0.108410999 1.43121099
vt -0.424905002 1.45121098
vt -0.429592013 1.45065403
vt -0.424905002 1.288831
vt 0.128410995 1.288831
vt 0.127854005 1.45065403
vt 0.127854005 1.45065403
vt -0.424905002 1.288831
vt -0.429592013 1.45065403
vt -0.429592013 1.28938794
vt -0.429592013 1.28938794
vt -0.429592013 1.45065403
vt -0.433822006 1.44911301
vt -0.429592013 1.28938794
vt -0.433822006 1.44911301
vt -0.433822006 1.29092896
vt -0.433822006 1.29092896
vt -0.433822006 1.44911301
vt -0.437366009 1.44685495
vt -0.433822006 1.29092896
vt -0.437366009 1.44685495
vt -0.437366009 1.29318702
vt -0.437366009 1.29318702
vt -0.437366009 1.44685495
vt -0.440174013 1.44412899
vt -0.437366009 1.29318702
vt -0.440174013 1.44412899
vt -0.440174013 1.29591298
vt 0.121329002 1.29591298
vt 0.121329002 1.44412899
vt 0.118306004 1.44110501
vt 0.121329002 1.29591298
vt 0.118306004 1.44110501
vt 0.118306004 1.29893601
vt 0.118306004 1.29893601
vt 0.118306004 1.44110501
vt 0.115096003 1.43789601
vt 0.118306004 1.29893601
vt 0.115096003 1.43789601
vt 0.115096003 1.30214596
vt 0.115096003 1.30214596
vt 0.115096003 1.43789601
vt 0.111777999 1.43457794
vt 0.115096003 1.30214596
vt 0.111777999 1.43457794
vt 0.111777999 1.30546296
vt 0.111777999 1.30546296
vt 0.111777999 1.43457794
vt 0.108410999 1.43121099
vt 0.111777999 1.30546296
vt 0.108410999 1.43121099
vt 0.108410999 1.30883098
vt 0.29814899 1.11947596
vt 0.205881 1.08091903
vt 0.29814899 1.10863805
vt 0.29814899 1.10863805
vt 0.205881 1.08091903
vt 0.205881 1.070081
vt -0.085849002 1.30883098
vt -0.0135920001 1.30883098
vt -0.085849002 1.43121099
vt -0.085849002 1.43121099
vt -0.0135920001 1.30883098
vt -0.0135920001 1.30883098
vt -0.085849002 1.43121099
vt -0.0135920001 1.30883098
vt 0.108410999 1.43121099
vt 0.108410999 1.43121099
vt -0.0135920001 1.30883098
vt 0.0364079997 1.30883098
vt 0.108410999 1.43121099
vt 0.0364079997 1.30883098
vt 0.108410999 1.30883098
vt -0.0135920001 1.30883098
vt -0.0135920001 1.16873503
vt 0.0364079997 1.30883098
vt 0.0364079997 1.30883098
vt -0.0135920001 1.16873503
vt -0.0135920001 1.16873503
vt 0.0364079997 1.30883098
vt -0.0135920001 1.16873503
vt 0.0364079997 1.16873503
vt 0.0364079997 1.16873503
vt -0.0135920001 1.16873503
vt -0.0135920001 1.15862203
vt 0.0364079997 1.16873503
vt -0.0135920001 1.15862203
vt 0.0364079997 1.15862203
vt 0.0364079997 1.15862203
vt -0.0135920001 1.15862203
vt -0.0135920001 1.14796901
vt 0.0364079997 1.15862203
vt -0.0135920001 1.14796901
vt 0.0364079997 1.14796901
vt -0.0135920001 1.15862203
vt -0.0135920001 1.16873503
vt -0.0173070002 1.16422606
vt 0.0364079997 1.15862203
vt 0.0401230007 1.16422606
vt 0.0364079997 1.16873503
vt 0.108410999 1.30883098
vt 0.0364079997 1.30883098
vt 0.111777999 1.30546296
vt 0.111777999 1.30546296
vt 0.0364079997 1.30883098
vt 0.0364079997 1.30438495
vt 0.111777999 1.30546296
vt 0.0364079997 1.30438495
vt 0.115096003 1.30214596
vt 0.115096003 1.30214596
vt 0.0364079997 1.30438495
vt 0.0364079997 1.300156
vt 0.115096003 1.30214596
vt 0.0364079997 1.300156
vt 0.118306004 1.29893601
vt 0.118306004 1.29893601
vt 0.0364079997 1.300156
vt 0.0364079997 1.29636395
vt 0.118306004 1.29893601
vt 0.0364079997 1.29636395
vt 0.121329002 1.29591298
vt 0.121329002 1.29591298
vt 0.0364079997 1.29636395
vt 0.0364079997 1.29319704
vt 0.440174013 -0.121329002
vt 0.437377989 -0.0364079997
vt 0.437366009 -0.124054998
vt 0.124054998 1.29318702
vt 0.0364079997 1.29319704
vt 0.0364079997 1.29319704
vt 0.437366009 -0.124054998
vt 0.437377989 -0.0364079997
vt 0.433822006 -0.126313001
vt 0.433822006 -0.126313001
vt 0.437377989 -0.0364079997
vt 0.433584988 -0.0364079997
vt 0.433822006 -0.126313001
vt 0.433584988 -0.0364079997
vt 0.429592013 -0.127854005
vt 0.429592013 -0.127854005
vt 0.433584988 -0.0364079997
vt 0.429360986 -0.0364079997
vt 0.429592013 -0.127854005
vt 0.429360986 -0.0364079997
vt 0.424905002 -0.128410995
vt 0.424905002 -0.128410995
vt 0.429360986 -0.0364079997
vt 0.424905002 -0.0364079997
vt 0.444905013 1.14796901
vt 0.414905012 1.14796901
vt 0.446676999 1.14415097
vt 0.446676999 1.14415097
vt 0.414905012 1.14796901
vt 0.413134009 1.14415097
vt -0.446676999 0.0153630003
vt -0.413134009 0.0153630003
vt -0.449905008 0.018592
vt -0.449905008 0.018592
vt -0.413134009 0.0153630003
vt -0.409904987 0.018592
vt -0.29814899 1.11947596
vt -0.29814899 1.10863805
vt -0.205881 1.08091903
vt -0.205881 1.08091903
vt -0.29814899 1.10863805
vt -0.205881 1.070081
vt 0.414905012 1.16873503
vt 0.414905012 1.16422606
vt 0.444905013 1.16873503
vt 0.444905013 1.16873503
vt 0.414905012 1.16422606
vt 0.444905013 1.16422606
vt 0.414905012 1.16422606
vt 0.414905012 1.15862203
vt 0.444905013 1.16422606
vt 0.444905013 1.16422606
vt 0.414905012 1.15862203
vt 0.444905013 1.15862203
vt -0.414905012 1.16873503
vt -0.444905013 1.16873503
vt -0.414905012 1.16422606
vt -0.414905012 1.16422606
vt -0.444905013 1.16873503
vt -0.444905013 1.16422606
vt -0.414905012 1.16422606
vt -0.444905013 1.16422606
vt -0.414905012 1.15862203
vt -0.414905012 1.15862203
vt -0.444905013 1.16422606
vt -0.444905013 1.15862203
vt 0.414905012 1.15862203
vt 0.414905012 1.14796901
vt 0.444905013 1.15862203
vt 0.444905013 1.15862203
vt 0.414905012 1.14796901
vt 0.444905013 1.14796901
vt -0.444905013 1.15862203
vt -0.444905013 1.14796901
vt -0.414905012 1.15862203
vt -0.414905012 1.15862203
vt -0.444905013 1.14796901
vt -0.414905012 1.14796901
vt 0.0364079997 1.14796901
vt -0.0135920001 1.14796901
vt 0.0381800011 1.14415097
vt 0.0381800011 1.14415097
vt -0.0135920001 1.14796901
vt -0.0153630003 1.14415097
vt -0.446676999 -0.0381800011
vt -0.446676999 0.0153630003
vt -0.449905008 -0.0414079987
vt -0.449905008 -0.0414079987
vt -0.446676999 0.0153630003
vt -0.449905008 0.018592
vt -0.471944004 0.0618560016
vt -0.475172013 0.0650850013
vt -0.471944004 -0.078143999
vt 0.078143999 1.14296901
vt -0.0650850013 1.14178705
vt -0.0650850013 1.14178705
vt -0.471944004 -0.078143999
vt -0.475172013 0.0650850013
vt -0.475172013 -0.0813720003
vt 0.0813720003 1.14178705
vt -0.0650850013 1.14178705
vt -0.0668559968 1.13796902
vt 0.0813720003 1.14178705
vt -0.0668559968 1.13796902
vt 0.0831440017 1.13796902
vt 0.0135920001 1.14796901
vt -0.0364079997 1.14796901
vt 0.0153630003 1.14415097
vt 0.0153630003 1.14415097
vt -0.0364079997 1.14796901
vt -0.0381800011 1.14415097
vt -0.413134009 0.0153630003
vt -0.413134009 -0.0381800011
vt -0.409904987 0.018592
vt -0.409904987 0.018592
vt -0.413134009 -0.0381800011
vt -0.409904987 -0.0414079987
vt -0.414905012 1.14796901
vt -0.444905013 1.14796901
vt -0.413134009 1.14415097
vt -0.413134009 1.14415097
vt -0.444905013 1.14796901
vt -0.446676999 1.14415097
vt -0.413134009 -0.0381800011
vt -0.446676999 -0.0381800011
vt -0.409904987 -0.0414079987
vt -0.409904987 -0.0414079987
vt -0.446676999 -0.0381800011
vt -0.449905008 -0.0414079987
vt -0.381944001 -0.078143999
vt -0.378715008 -0.0813720003
vt -0.381944001 0.0618560016
vt -0.0618560016 1.14296901
vt 0.0813720003 1.14178705
vt 0.0813720003 1.14178705
vt -0.381944001 0.0618560016
vt -0.378715008 -0.0813720003
vt -0.378715008 0.0650850013
vt 0.0650850013 1.14178705
vt -0.0813720003 1.14178705
vt -0.0831440017 1.13796902
vt 0.0650850013 1.14178705
vt -0.0831440017 1.13796902
vt 0.0668559968 1.13796902
vt -0.471944004 -0.078143999
vt -0.475172013 -0.0813720003
vt -0.381944001 -0.078143999
vt 0.078143999 1.14296901
vt 0.0813720003 1.14178705
vt 0.0813720003 1.14178705
vt -0.381944001 -0.078143999
vt -0.475172013 -0.0813720003
vt -0.378715008 -0.0813720003
vt -0.378715008 1.14178705
vt -0.475172013 1.14178705
vt -0.476944 1.13796902
vt -0.378715008 1.14178705
vt -0.476944 1.13796902
vt -0.376944005 1.13796902
vt -0.381944001 0.0618560016
vt -0.378715008 0.0650850013
vt -0.471944004 0.0618560016
vt -0.0618560016 1.14296901
vt -0.0650850013 1.14178705
vt -0.0650850013 1.14178705
vt -0.471944004 0.0618560016
vt -0.378715008 0.0650850013
vt -0.475172013 0.0650850013
vt 0.475172013 1.14178705
vt 0.378715008 1.14178705
vt 0.376944005 1.13796902
vt 0.475172013 1.14178705
vt 0.376944005 1.13796902
vt 0.476944 1.13796902
vt 0.0831440017 1.13796902
vt -0.0668559968 1.13796902
vt 0.0831440017 1.13296902
vt 0.0831440017 1.13296902
vt -0.0668559968 1.13796902
vt -0.0668559968 1.13296902
vt -0.476944 1.13796902
vt -0.476944 1.13296902
vt -0.376944005 1.13796902
vt -0.376944005 1.13796902
vt -0.476944 1.13296902
vt -0.376944005 1.13296902
vt 0.0668559968 1.13796902
vt -0.0831440017 1.13796902
vt 0.0668559968 1.13296902
vt 0.0668559968 1.13296902
vt -0.0831440017 1.13796902
vt -0.0831440017 1.13296902
vt 0.376944005 1.13796902
vt 0.376944005 1.13296902
vt 0.476944 1.13796902
vt 0.476944 1.13796902
vt 0.376944005 1.13296902
vt 0.476944 1.13296902
vt 0.476944 0.0668559968
vt 0.376944005 0.0668559968
vt 0.476944 -0.0831440017
vt 0.476944 -0.0831440017
vt 0.376944005 0.0668559968
vt 0.376944005 -0.0831440017
vt -0.171407998 1.08091903
vt -0.171407998 1.070081
vt 0.148591995 1.08091903
vt 0.148591995 1.08091903
vt -0.171407998 1.070081
vt 0.148591995 1.070081
vt -0.381944001 0.0618560016
vt -0.471944004 0.0618560016
vt -0.409904987 0.018592
vt -0.018592 1.14296901
vt -0.0618560016 1.14296901
vt -0.0618560016 1.14296901
vt -0.409904987 0.018592
vt -0.471944004 0.0618560016
vt -0.449905008 0.018592
vt -0.449905008 0.018592
vt -0.471944004 0.0618560016
vt -0.471944004 -0.078143999
vt -0.449905008 0.018592
vt -0.471944004 -0.078143999
vt -0.449905008 -0.0414079987
vt 0.0414079987 1.14296901
vt 0.078143999 1.14296901
vt 0.078143999 1.14296901
vt -0.449905008 -0.0414079987
vt -0.471944004 -0.078143999
vt -0.409904987 -0.0414079987
vt -0.409904987 -0.0414079987
vt -0.471944004 -0.078143999
vt -0.381944001 -0.078143999
vt -0.409904987 -0.0414079987
vt -0.381944001 -0.078143999
vt -0.409904987 0.018592
vt -0.409904987 0.018592
vt -0.381944001 -0.078143999
vt -0.381944001 0.0618560016
vt 0.128410995 1.288831
vt 0.211408004 1.51588297
vt 0.128410995 1.45121098
vt 0.128410995 1.45121098
vt 0.211408004 1.51588297
vt 0.211408004 1.51588297
vt 0.128410995 1.45121098
vt 0.211408004 1.51588297
vt -0.105848998 1.45121098
vt -0.105848998 1.45121098
vt 0.211408004 1.51588297
vt -0.188592002 1.51588297
vt -0.105848998 1.45121098
vt -0.188592002 1.51588297
vt -0.105848998 1.288831
vt -0.105848998 1.288831
vt -0.188592002 1.51588297
vt -0.188592002 1.21588302
vt -0.105848998 1.288831
vt -0.188592002 1.21588302
vt 0.128410995 1.288831
vt 0.128410995 1.288831
vt -0.188592002 1.21588302
vt 0.211408004 1.21588302
vt 0.128410995 1.288831
vt 0.211408004 1.21588302
vt 0.211408004 1.51588297
vt -0.211408004 1.21588302
vt 0.188592002 1.21588302
vt -0.198060006 1.23034
vt 0.198060006 1.23034
vt -0.188592002 1.21588302
vt -0.188592002 1.21588302
vt -0.198060006 1.23034
vt 0.188592002 1.21588302
vt 0.175644994 1.23034
vt 0.175644994 1.23034
vt 0.188592002 1.21588302
vt 0.188592002 1.51588297
vt 0.175644994 1.23034
vt 0.188592002 1.51588297
vt 0.175644994 1.50200295
vt -0.175644994 1.50200295
vt -0.188592002 1.51588297
vt -0.188592002 1.51588297
vt 0.175644994 1.50200295
vt 0.188592002 1.51588297
vt -0.198060006 1.50200295
vt -0.198060006 1.50200295
vt 0.188592002 1.51588297
vt -0.211408004 1.51588297
vt -0.198060006 1.50200295
vt -0.211408004 1.51588297
vt -0.198060006 1.23034
vt -0.198060006 1.23034
vt -0.211408004 1.51588297
vt -0.211408004 1.21588302
f 1/1 2/2 3/3
f 3/4 2/5 4/6
f 5/7 6/8 7/9
f 7/10 6/11 8/12
f 7/13 8/14 9/15
f 9/16 8/17 10/18
f 9/19 10/20 11/21
f 11/22 10/23 12/24
f 11/25 12/26 13/27
f 13/28 12/29 14/30
f 13/31 14/32 15/33
f 15/34 14/35 16/36
f 15/37 16/38 17/39
f 17/40 16/41 18/42
f 17/43 18/44 19/45
f 19/46 18/47 20/48
f 19/49 20/50 21/51
f 21/52 20/53 22/54
f 21/55 22/56 23/57
f 23/58 22/59 24/60
f 23/61 24/62 25/63
f 25/64 24/65 26/66
f 25/67 26/68 27/69
f 27/70 26/71 28/72
f 27/73 28/74 29/75
f 29/76 28/77 30/78
f 29/79 30/80 31/81
f 31/82 30/83 32/84
f 31/85 32/86 33/87
f 33/88 32/89 34/90
f 33/91 34/92 35/93
f 35/94 34/95 36/96
f 35/97 36/98 37/99
f 37/100 36/101 38/102
f 37/103 38/104 39/105
f 39/106 38/107 40/108
f 39/109 40/110 41/111
f 41/112 40/113 42/114
f 41/115 42/116 43/117
f 43/118 42/119 44/120
f 43/121 45/122 41/123
f 41/124 45/125 46/126
f 41/127 46/128 39/129
f 39/130 46/131 47/132
f 39/133 47/134 37/135
f 37/136 47/137 48/138
f 37/139 48/140 35/141
f 35/142 48/143 49/144
f 35/145 49/146 33/147
f 33/148 49/149 50/150
f 33/151 50/152 31/153
f 31/154 50/155 51/156
f 31/157 51/158 29/159
f 29/160 51/161 52/162
f 29/163 52/164 27/165
f 27/166 52/167 53/168
f 27/169 53/170 25/171
f 25/172 53/173 54/174
f 25/175 54/176 23/177
f 23/178 54/179 55/180
f 23/181 55/182 21/183
f 21/184 55/185 56/186
f 21/187 56/188 19/189
f 19/190 56/191 57/192
f 19/193 57/194 17/195
f 17/196 57/197 58/198
f 17/199 58/200 15/201
f 15/202 58/203 59/204
f 15/205 59/206 13/207
f 13/208 59/209 60/210
f 13/211 60/212 11/213
f 11/214 60/215 61/216
f 11/217 61/218 9/219
f 9/220 61/221 62/222
f 9/223 62/224 7/225
f 7/226 62/227 63/228
f 7/229 63/230 5/231
f 5/232 63/233 64/234
f 45/235 65/236 46/237
f 46/238 65/239 66/240
f 46/241 66/242 47/243
f 47/244 66/245 67/246
f 47/247 67/248 48/249
f 48/250 67/251 68/252
f 48/253 68/254 49/255
f 49/256 68/257 69/258
f 49/259 69/260 50/261
f 50/262 69/263 70/264
f 50/265 70/266 51/267
f 51/268 70/269 71/270
f 51/271 71/272 52/273
f 52/274 71/275 72/276
f 52/277 72/278 53/279
f 53/280 72/281 73/282
f 53/283 73/284 54/285
f 54/286 73/287 74/288
f 54/289 74/290 55/291
f 55/292 74/293 75/294
f 55/295 75/296 56/297
f 56/298 75/299 76/300
f 56/301 76/302 57/303
f 57/304 76/305 77/306
f 57/307 77/308 58/309
f 58/310 77/311 78/312
f 58/313 78/314 59/315
f 59/316 78/317 79/318
f 59/319 79/320 60/321
f 60/322 79/323 80/324
f 60/325 80/326 61/327
f 61/328 80/329 81/330
f 61/331 81/332 62/333
f 62/334 81/335 82/336
f 62/337 82/338 63/339
f 63/340 82/341 83/342
f 63/343 83/344 64/345
f 64/346 83/347 84/348
f 43/349 44/350 85/351
f 85/352 44/353 86/354
f 85/355 86/356 87/357
f 87/358 86/359 88/360
f 87/361 88/362 89/363
f 89/364 88/365 90/366
f 89/367 90/368 91/369
f 91/370 90/371 92/372
f 91/373 92/374 93/375
f 93/376 92/377 94/378
f 93/379 94/380 95/381
f 95/382 94/383 96/384
f 95/385 96/386 97/387
f 97/388 96/389 98/390
f 97/391 98/392 99/393
f 99/394 98/395 100/396
f 99/397 100/398 101/399
f 101/400 100/401 102/402
f 101/403 102/404 103/405
f 103/406 102/407 104/408
f 103/409 104/410 105/411
f 105/412 104/413 106/414
f 105/415 106/416 107/417
f 107/418 106/419 108/420
f 107/421 108/422 109/423
f 109/424 108/425 110/426
f 109/427 110/428 111/429
f 111/430 110/431 112/432
f 111/433 112/434 113/435
f 113/436 112/437 114/438
f 113/439 114/440 115/441
f 115/442 114/443 116/444
f 115/445 116/446 117/447
f 117/448 116/449 118/450
f 117/451 118/452 119/453
f 119/454 118/455 120/456
f 119/457 120/458 5/459
f 5/460 120/461 6/462
f 45/463 43/464 121/465
f 121/466 43/467 85/468
f 121/469 85/470 122/471
f 122/472 85/473 87/474
f 122/475 87/476 123/477
f 123/478 87/479 89/480
f 123/481 89/482 124/483
f 124/484 89/485 91/486
f 124/487 91/488 125/489
f 125/490 91/491 93/492
f 125/493 93/494 126/495
f 126/496 93/497 95/498
f 126/499 95/500 127/501
f 127/502 95/503 97/504
f 127/505 97/506 128/507
f 128/508 97/509 99/510
f 128/511 99/512 129/513
f 129/514 99/515 101/516
f 129/517 101/518 130/519
f 130/520 101/521 103/522
f 130/523 103/524 131/525
f 131/526 103/527 105/528
f 131/529 105/530 132/531
f 132/532 105/533 107/534
f 132/535 107/536 133/537
f 133/538 107/539 109/540
f 133/541 109/542 134/543
f 134/544 109/545 111/546
f 134/547 111/548 135/549
f 135/550 111/551 113/552
f 135/553 113/554 136/555
f 136/556 113/557 115/558
f 136/559 115/560 137/561
f 137/562 115/563 117/564
f 137/565 117/566 138/567
f 138/568 117/569 119/570
f 138/571 119/572 64/573
f 64/574 119/575 5/576
f 65/577 45/578 139/579
f 139/580 45/581 121/582
f 139/583 121/584 140/585
f 140/586 121/587 122/588
f 140/589 122/590 141/591
f 141/592 122/593 123/594
f 141/595 123/596 142/597
f 142/598 123/599 124/600
f 142/601 124/602 143/603
f 143/604 124/605 125/606
f 143/607 125/608 144/609
f 144/610 125/611 126/612
f 144/613 126/614 145/615
f 145/616 126/617 127/618
f 145/619 127/620 146/621
f 146/622 127/623 128/624
f 146/625 128/626 147/627
f 147/628 128/629 129/630
f 147/631 129/632 148/633
f 148/634 129/635 130/636
f 148/637 130/638 149/639
f 149/640 130/641 131/642
f 149/643 131/644 150/645
f 150/646 131/647 132/648
f 150/649 132/650 151/651
f 151/652 132/653 133/654
f 151/655 133/656 152/657
f 152/658 133/659 134/660
f 152/661 134/662 153/663
f 153/664 134/665 135/666
f 153/667 135/668 154/669
f 154/670 135/671 136/672
f 154/673 136/674 155/675
f 155/676 136/677 137/678
f 155/679 137/680 156/681
f 156/682 137/683 138/684
f 156/685 138/686 84/687
f 84/688 138/689 64/690
f 157/691 158/692 159/693
f 159/694 158/695 158/696
f 159/697 158/698 160/699
f 160/700 158/701 161/702
f 162/703 163/704 164/705
f 164/706 163/707 165/708
f 166/709 167/710 168/711
f 168/712 167/713 167/714
f 168/715 167/716 169/717
f 169/718 167/719 170/720
f 169/721 170/722 171/723
f 171/724 170/725 172/726
f 171/727 172/728 173/729
f 173/730 172/731 172/732
f 173/733 172/734 174/735
f 174/736 172/737 175/738
f 174/739 175/740 176/741
f 176/742 175/743 175/744
f 176/745 175/746 177/747
f 177/748 175/749 178/750
f 177/751 178/752 179/753
f 179/754 178/755 180/756
f 179/757 180/758 181/759
f 181/760 180/761 182/762
f 181/763 182/764 183/765
f 183/766 182/767 184/768
f 171/769 173/770 185/771
f 185/772 173/773 173/774
f 185/775 173/776 186/777
f 186/778 173/779 187/780
f 186/781 187/782 186/783
f 186/784 187/785 188/786
f 186/787 188/788 189/789
f 189/790 188/791 190/792
f 189/793 190/794 191/795
f 170/796 167/797 172/798
f 172/799 167/800 167/801
f 172/802 167/803 175/804
f 175/805 167/806 166/807
f 175/808 166/809 178/810
f 178/811 166/812 192/813
f 178/814 192/815 180/816
f 180/817 192/818 193/819
f 180/820 193/821 182/822
f 182/823 193/824 194/825
f 182/826 194/827 184/828
f 184/829 194/830 195/831
f 184/832 195/833 196/834
f 196/835 195/836 197/837
f 196/838 197/839 198/840
f 199/841 200/842 189/843
f 189/844 200/845 200/846
f 189/847 200/848 186/849
f 186/850 200/851 201/852
f 186/853 201/854 185/855
f 185/856 201/857 202/858
f 185/859 202/860 171/861
f 171/862 202/863 203/864
f 171/865 203/866 169/867
f 169/868 203/869 204/870
f 169/871 204/872 168/873
f 168/874 204/875 205/876
f 168/877 205/878 166/879
f 166/880 205/881 206/882
f 166/883 206/884 207/885
f 207/886 206/887 208/888
f 207/889 208/890 209/891
f 209/892 208/893 210/894
f 209/895 210/896 211/897
f 211/898 210/899 212/900
f 211/901 212/902 213/903
f 213/904 212/905 214/906
f 213/907 214/908 215/909
f 215/910 214/911 216/912
f 215/913 216/914 217/915
f 217/916 216/917 218/918
f 189/919 191/920 199/921
f 199/922 191/923 191/924
f 199/925 191/926 218/927
f 218/928 191/929 217/930
f 191/931 190/932 217/933
f 217/934 190/935 219/936
f 217/937 219/938 215/939
f 215/940 219/941 220/942
f 215/943 220/944 213/945
f 213/946 220/947 220/948
f 213/949 220/950 211/951
f 211/952 220/953 221/954
f 211/955 221/956 194/957
f 194/958 221/959 221/960
f 194/961 221/962 195/963
f 195/964 221/965 222/966
f 195/967 222/968 195/969
f 195/970 222/971 223/972
f 195/973 223/974 197/975
f 197/976 223/977 224/978
f 197/979 224/980 198/981
f 198/982 224/983 225/984
f 198/985 225/986 196/987
f 196/988 225/989 183/990
f 196/991 183/992 184/993
f 194/994 193/995 211/996
f 211/997 193/998 193/999
f 211/1000 193/1001 209/1002
f 209/1003 193/1004 192/1005
f 209/1006 192/1007 207/1008
f 207/1009 192/1010 166/1011
f 226/1012 227/1013 228/1014
f 228/1015 227/1016 227/1017
f 228/1018 227/1019 229/1020
f 229/1021 227/1022 230/1023
f 229/1024 230/1025 231/1026
f 231/1027 230/1028 232/1029
f 231/1030 232/1031 233/1032
f 233/1033 232/1034 232/1035
f 233/1036 232/1037 234/1038
f 234/1039 232/1040 235/1041
f 234/1042 235/1043 236/1044
f 236/1045 235/1046 237/1047
f 236/1048 237/1049 238/1050
f 238/1051 237/1052 239/1053
f 238/1054 239/1055 240/1056
f 240/1057 239/1058 241/1059
f 240/1060 241/1061 242/1062
f 243/1063 244/1064 245/1065
f 245/1066 244/1067 244/1068
f 245/1069 244/1070 246/1071
f 246/1072 244/1073 247/1074
f 246/1075 247/1076 248/1077
f 248/1078 247/1079 249/1080
f 248/1081 249/1082 250/1083
f 250/1084 249/1085 251/1086
f 250/1087 251/1088 252/1089
f 243/1090 245/1091 253/1092
f 253/1093 245/1094 254/1095
f 253/1096 255/1097 243/1098
f 243/1099 255/1100 255/1101
f 243/1102 255/1103 244/1104
f 244/1105 255/1106 256/1107
f 244/1108 256/1109 247/1110
f 247/1111 256/1112 257/1113
f 247/1114 257/1115 249/1116
f 249/1117 257/1118 258/1119
f 249/1120 258/1121 251/1122
f 253/1123 254/1124 255/1125
f 255/1126 254/1127 259/1128
f 255/1129 259/1130 256/1131
f 256/1132 259/1133 260/1134
f 256/1135 260/1136 257/1137
f 257/1138 260/1139 261/1140
f 257/1141 261/1142 161/1143
f 161/1144 261/1145 261/1146
f 161/1147 261/1148 262/1149
f 262/1150 261/1151 263/1152
f 262/1153 263/1154 264/1155
f 257/1156 161/1157 258/1158
f 258/1159 161/1160 158/1161
f 245/1162 246/1163 254/1164
f 254/1165 246/1166 246/1167
f 254/1168 246/1169 259/1170
f 259/1171 246/1172 248/1173
f 259/1174 248/1175 260/1176
f 260/1177 248/1178 250/1179
f 260/1180 250/1181 261/1182
f 261/1183 250/1184 252/1185
f 261/1186 252/1187 263/1188
f 161/1189 262/1190 160/1191
f 160/1192 262/1193 265/1194
f 160/1195 265/1196 266/1197
f 266/1198 265/1199 267/1200
f 266/1201 267/1202 266/1203
f 266/1204 267/1205 268/1206
f 266/1207 268/1208 269/1209
f 269/1210 268/1211 270/1212
f 269/1213 270/1214 269/1215
f 269/1216 270/1217 271/1218
f 269/1219 271/1220 269/1221
f 269/1222 271/1223 272/1224
f 269/1225 272/1226 269/1227
f 269/1228 272/1229 273/1230
f 269/1231 273/1232 274/1233
f 160/1234 266/1235 275/1236
f 275/1237 266/1238 266/1239
f 275/1240 266/1241 276/1242
f 276/1243 266/1244 277/1245
f 276/1246 277/1247 278/1248
f 278/1249 277/1250 277/1251
f 278/1252 277/1253 279/1254
f 279/1255 277/1256 277/1257
f 279/1258 277/1259 280/1260
f 280/1261 277/1262 277/1263
f 280/1264 277/1265 281/1266
f 281/1267 277/1268 282/1269
f 262/1270 264/1271 265/1272
f 265/1273 264/1274 264/1275
f 265/1276 264/1277 283/1278
f 283/1279 264/1280 284/1281
f 265/1282 283/1283 267/1284
f 267/1285 283/1286 285/1287
f 267/1288 285/1289 268/1290
f 268/1291 285/1292 286/1293
f 268/1294 286/1295 270/1296
f 270/1297 286/1298 287/1299
f 270/1300 287/1301 271/1302
f 271/1303 287/1304 288/1305
f 271/1306 288/1307 272/1308
f 272/1309 288/1310 289/1311
f 272/1312 289/1313 273/1314
f 273/1315 289/1316 290/1317
f 273/1318 290/1319 274/1320
f 274/1321 290/1322 291/1323
f 291/1324 290/1325 292/1326
f 292/1327 290/1328 289/1329
f 292/1330 289/1331 292/1332
f 292/1333 289/1334 288/1335
f 292/1336 288/1337 292/1338
f 292/1339 288/1340 287/1341
f 292/1342 287/1343 292/1344
f 292/1345 287/1346 286/1347
f 292/1348 286/1349 293/1350
f 293/1351 286/1352 285/1353
f 293/1354 285/1355 293/1356
f 293/1357 285/1358 283/1359
f 293/1360 283/1361 159/1362
f 159/1363 283/1364 294/1365
f 159/1366 294/1367 159/1368
f 159/1369 294/1370 295/1371
f 159/1372 295/1373 157/1374
f 157/1375 295/1376 296/1377
f 294/1378 283/1379 297/1380
f 297/1381 283/1382 284/1383
f 297/1384 284/1385 298/1386
f 159/1387 299/1388 293/1389
f 293/1390 299/1391 300/1392
f 293/1393 300/1394 301/1395
f 301/1396 300/1397 302/1398
f 301/1399 302/1400 301/1401
f 301/1402 302/1403 303/1404
f 301/1405 303/1406 301/1407
f 301/1408 303/1409 304/1410
f 301/1411 304/1412 301/1413
f 301/1414 304/1415 305/1416
f 301/1417 305/1418 306/1419
f 282/1420 306/1421 281/1422
f 281/1423 306/1424 305/1425
f 281/1426 305/1427 280/1428
f 280/1429 305/1430 304/1431
f 280/1432 304/1433 279/1434
f 279/1435 304/1436 303/1437
f 279/1438 303/1439 278/1440
f 278/1441 303/1442 302/1443
f 278/1444 302/1445 276/1446
f 276/1447 302/1448 300/1449
f 276/1450 300/1451 275/1452
f 275/1453 300/1454 299/1455
f 275/1456 299/1457 160/1458
f 160/1459 299/1460 159/1461
f 307/1462 308/1463 309/1464
f 309/1465 308/1466 310/1467
f 158/1468 157/1469 258/1470
f 258/1471 157/1472 157/1473
f 258/1474 157/1475 311/1476
f 311/1477 157/1478 157/1479
f 311/1480 157/1481 312/1482
f 312/1483 157/1484 296/1485
f 264/1486 263/1487 284/1488
f 284/1489 263/1490 313/1491
f 284/1492 313/1493 284/1494
f 284/1495 313/1496 314/1497
f 284/1498 314/1499 298/1500
f 252/1501 251/1502 315/1503
f 315/1504 251/1505 316/1506
f 252/1507 315/1508 263/1509
f 263/1510 315/1511 313/1512
f 251/1513 258/1514 316/1515
f 316/1516 258/1517 311/1518
f 314/1519 313/1520 317/1521
f 317/1522 313/1523 315/1524
f 317/1525 315/1526 318/1527
f 318/1528 315/1529 316/1530
f 318/1531 316/1532 318/1533
f 318/1534 316/1535 311/1536
f 318/1537 311/1538 312/1539
f 319/1540 320/1541 321/1542
f 321/1543 320/1544 320/1545
f 321/1546 320/1547 322/1548
f 322/1549 320/1550 320/1551
f 322/1552 320/1553 323/1554
f 323/1555 320/1556 320/1557
f 323/1558 320/1559 324/1560
f 324/1561 320/1562 320/1563
f 324/1564 320/1565 325/1566
f 325/1567 320/1568 320/1569
f 325/1570 320/1571 326/1572
f 326/1573 320/1574 327/1575
f 326/1576 327/1577 328/1578
f 328/1579 327/1580 329/1581
f 162/1582 164/1583 330/1584
f 330/1585 164/1586 331/1587
f 309/1588 1/1589 307/1590
f 307/1591 1/1592 3/1593
f 332/1594 330/1595 333/1596
f 333/1597 330/1598 331/1599
f 332/1600 333/1601 163/1602
f 163/1603 333/1604 165/1605
f 334/1606 335/1607 336/1608
f 336/1609 335/1610 337/1611
f 334/1612 336/1613 338/1614
f 338/1615 336/1616 339/1617
f 340/1618 338/1619 341/1620
f 341/1621 338/1622 339/1623
f 340/1624 341/1625 335/1626
f 335/1627 341/1628 337/1629
f 342/1630 343/1631 344/1632
f 344/1633 343/1634 345/1635
f 342/1636 344/1637 346/1638
f 346/1639 344/1640 347/1641
f 348/1642 228/1643 343/1644
f 343/1645 228/1646 345/1647
f 349/1648 329/1649 350/1650
f 350/1651 329/1652 327/1653
f 350/1654 327/1655 351/1656
f 351/1657 327/1658 352/1659
f 351/1660 352/1661 353/1662
f 353/1663 352/1664 354/1665
f 355/1666 350/1667 351/1668
f 356/1669 352/1670 327/1671
f 349/1672 350/1673 226/1674
f 226/1675 350/1676 350/1677
f 226/1678 350/1679 227/1680
f 227/1681 350/1682 357/1683
f 227/1684 357/1685 230/1686
f 230/1687 357/1688 357/1689
f 230/1690 357/1691 232/1692
f 232/1693 357/1694 357/1695
f 232/1696 357/1697 235/1698
f 235/1699 357/1700 357/1701
f 235/1702 357/1703 237/1704
f 237/1705 357/1706 357/1707
f 237/1708 357/1709 239/1710
f 239/1711 357/1712 241/1713
f 226/1714 228/1715 349/1716
f 349/1717 228/1718 348/1719
f 349/1720 348/1721 349/1722
f 349/1723 348/1724 346/1725
f 349/1726 346/1727 329/1728
f 329/1729 346/1730 347/1731
f 329/1732 347/1733 328/1734
f 228/1735 229/1736 345/1737
f 345/1738 229/1739 229/1740
f 345/1741 229/1742 358/1743
f 358/1744 229/1745 231/1746
f 358/1747 231/1748 359/1749
f 359/1750 231/1751 233/1752
f 359/1753 233/1754 360/1755
f 360/1756 233/1757 234/1758
f 360/1759 234/1760 361/1761
f 361/1762 234/1763 236/1764
f 361/1765 236/1766 362/1767
f 362/1768 236/1769 238/1770
f 362/1771 238/1772 363/1773
f 363/1774 238/1775 240/1776
f 363/1777 240/1778 364/1779
f 364/1780 240/1781 242/1782
f 364/1783 242/1784 365/1785
f 345/1786 358/1787 344/1788
f 344/1789 358/1790 358/1791
f 344/1792 358/1793 366/1794
f 366/1795 358/1796 359/1797
f 366/1798 359/1799 367/1800
f 367/1801 359/1802 360/1803
f 367/1804 360/1805 368/1806
f 368/1807 360/1808 361/1809
f 368/1810 361/1811 369/1812
f 369/1813 361/1814 362/1815
f 369/1816 362/1817 370/1818
f 370/1819 362/1820 363/1821
f 370/1822 363/1823 371/1824
f 371/1825 363/1826 364/1827
f 371/1828 364/1829 372/1830
f 372/1831 364/1832 365/1833
f 372/1834 365/1835 373/1836
f 344/1837 366/1838 347/1839
f 347/1840 366/1841 366/1842
f 347/1843 366/1844 374/1845
f 374/1846 366/1847 367/1848
f 374/1849 367/1850 375/1851
f 375/1852 367/1853 368/1854
f 375/1855 368/1856 376/1857
f 376/1858 368/1859 369/1860
f 376/1861 369/1862 377/1863
f 377/1864 369/1865 370/1866
f 377/1867 370/1868 378/1869
f 378/1870 370/1871 371/1872
f 378/1873 371/1874 379/1875
f 379/1876 371/1877 372/1878
f 379/1879 372/1880 380/1881
f 380/1882 372/1883 373/1884
f 380/1885 373/1886 381/1887
f 309/1888 310/1889 1/1890
f 1/1891 310/1892 2/1893
f 242/1894 241/1895 365/1896
f 365/1897 241/1898 241/1899
f 365/1900 241/1901 373/1902
f 373/1903 241/1904 319/1905
f 373/1906 319/1907 381/1908
f 241/1909 357/1910 319/1911
f 319/1912 357/1913 357/1914
f 319/1915 357/1916 320/1917
f 320/1918 357/1919 382/1920
f 320/1921 382/1922 383/1923
f 383/1924 382/1925 384/1926
f 383/1927 384/1928 385/1929
f 382/1930 357/1931 386/1932
f 383/1933 387/1934 320/1935
f 381/1936 319/1937 380/1938
f 380/1939 319/1940 321/1941
f 380/1942 321/1943 379/1944
f 379/1945 321/1946 322/1947
f 379/1948 322/1949 378/1950
f 378/1951 322/1952 323/1953
f 378/1954 323/1955 377/1956
f 377/1957 323/1958 324/1959
f 377/1960 324/1961 376/1962
f 376/1963 324/1964 324/1965
f 376/1966 324/1967 375/1968
f 375/1969 324/1970 325/1971
f 375/1972 325/1973 374/1974
f 374/1975 325/1976 326/1977
f 374/1978 326/1979 347/1980
f 347/1981 326/1982 328/1983
f 384/1984 353/1985 388/1986
f 388/1987 353/1988 389/1989
f 388/1990 389/1991 390/1992
f 390/1993 389/1994 391/1995
f 307/1996 3/1997 308/1998
f 308/1999 3/2000 4/2001
f 350/2002 355/2003 357/2004
f 357/2005 355/2006 386/2007
f 355/2008 351/2009 386/2010
f 386/2011 351/2012 382/2013
f 327/2014 320/2015 356/2016
f 356/2017 320/2018 387/2019
f 356/2020 387/2021 352/2022
f 352/2023 387/2024 383/2025
f 351/2026 353/2027 382/2028
f 382/2029 353/2030 384/2031
f 383/2032 385/2033 352/2034
f 352/2035 385/2036 354/2037
f 385/2038 384/2039 392/2040
f 392/2041 384/2042 388/2043
f 392/2044 388/2045 393/2046
f 393/2047 388/2048 390/2049
f 394/2050 395/2051 396/2052
f 396/2053 395/2054 395/2055
f 396/2056 395/2057 397/2058
f 397/2059 395/2060 398/2061
f 397/2062 398/2063 399/2064
f 353/2065 354/2066 389/2067
f 389/2068 354/2069 400/2070
f 389/2071 400/2072 391/2073
f 391/2074 400/2075 401/2076
f 354/2077 385/2078 400/2079
f 400/2080 385/2081 392/2082
f 400/2083 392/2084 401/2085
f 401/2086 392/2087 393/2088
f 402/2089 403/2090 404/2091
f 404/2092 403/2093 403/2094
f 404/2095 403/2096 405/2097
f 405/2098 403/2099 406/2100
f 405/2101 406/2102 407/2103
f 396/2104 397/2105 402/2106
f 402/2107 397/2108 397/2109
f 402/2110 397/2111 403/2112
f 403/2113 397/2114 399/2115
f 403/2116 399/2117 406/2118
f 404/2119 405/2120 394/2121
f 394/2122 405/2123 405/2124
f 394/2125 405/2126 395/2127
f 395/2128 405/2129 407/2130
f 395/2131 407/2132 398/2133
f 399/2134 398/2135 408/2136
f 408/2137 398/2138 409/2139
f 399/2140 408/2141 406/2142
f 406/2143 408/2144 410/2145
f 407/2146 406/2147 411/2148
f 411/2149 406/2150 410/2151
f 407/2152 411/2153 398/2154
f 398/2155 411/2156 409/2157
f 409/2158 411/2159 408/2160
f 408/2161 411/2162 410/2163
f 308/2164 4/2165 310/2166
f 310/2167 4/2168 2/2169
f 404/2170 394/2171 391/2172
f 391/2173 394/2174 394/2175
f 391/2176 394/2177 390/2178
f 390/2179 394/2180 396/2181
f 390/2182 396/2183 393/2184
f 393/2185 396/2186 396/2187
f 393/2188 396/2189 401/2190
f 401/2191 396/2192 402/2193
f 401/2194 402/2195 391/2196
f 391/2197 402/2198 404/2199
f 346/2200 336/2201 342/2202
f 342/2203 336/2204 336/2205
f 342/2206 336/2207 343/2208
f 343/2209 336/2210 337/2211
f 343/2212 337/2213 348/2214
f 348/2215 337/2216 341/2217
f 348/2218 341/2219 346/2220
f 346/2221 341/2222 339/2223
f 346/2224 339/2225 336/2226
f 338/2227 340/2228 331/2229
f 331/2230 340/2231 340/2232
f 331/2233 340/2234 333/2235
f 333/2236 340/2237 335/2238
f 333/2239 335/2240 165/2241
f 165/2242 335/2243 335/2244
f 165/2245 335/2246 164/2247
f 164/2248 335/2249 334/2250
f 164/2251 334/2252 331/2253
f 331/2254 334/2255 338/2256
