# Exported from USD for MuJoCo with source material subsets
v -11.1932111 4.08505491 0.936649406
v -11.1701732 4.0862656 0.936649406
v -11.2158724 4.08146528 0.936649406
v -11.238157 4.07549814 0.936649406
v -11.2596058 4.06726317 0.936649406
v -11.280136 4.05681137 0.936649406
v -11.299486 4.04424957 0.936649406
v -11.3173403 4.02978949 0.936649406
v -11.3901733 3.86626629 0.936649347
v -11.3336358 4.01350502 0.936649406
v -11.348157 3.99557881 0.936649406
v -11.3606691 3.97630934 0.936649406
v -11.3711346 3.95578579 0.936649406
v -11.3853509 3.91205649 0.936649347
v -11.3794057 3.93424944 0.936649347
v -11.3889621 3.88930372 0.936649347
v -11.06274 4.08625511 0.936649466
v -11.0627407 2.54627685 0.936649466
v -11.3901737 2.76626615 0.936649347
v -11.1701739 2.54626612 0.936649406
v -11.3889625 2.74322824 0.936649347
v -11.1932117 2.54747728 0.936649406
v -11.2159648 2.55108837 0.936649406
v -11.3853733 2.72056679 0.936649347
v -11.3794062 2.69828252 0.936649347
v -11.2381576 2.55703382 0.936649406
v -11.3711713 2.67683391 0.936649406
v -11.2596936 2.5653048 0.936649406
v -11.2802171 2.57577018 0.936649406
v -11.3607189 2.65630321 0.936649406
v -11.3336977 2.61909918 0.936649406
v -11.3481576 2.63695339 0.936649406
v -11.3174127 2.60280351 0.936649406
v -11.2994866 2.58828239 0.936649406
v -10.1827406 2.54627661 0.936649704
v -10.1827401 4.08625511 0.936649704
v -9.85017369 2.76626567 0.936649824
v -9.85017327 3.86626534 0.936649824
v -10.0701732 4.0862656 0.936649764
v -9.85138444 3.88930325 0.936649824
v -10.0471354 4.08505444 0.936649764
v -10.0243822 4.08144287 0.936649764
v -9.85497371 3.91196398 0.936649824
v -9.86094079 3.93424896 0.936649824
v -10.0021895 4.07549814 0.936649764
v -9.86917559 3.95569758 0.936649764
v -9.98065338 4.06722645 0.936649764
v -9.96012977 4.0567613 0.936649764
v -9.87962804 3.97622828 0.936649764
v -9.90664933 4.01343207 0.936649764
v -9.89218948 3.99557833 0.936649764
v -9.92293433 4.02972797 0.936649764
v -9.94086048 4.0442491 0.936649764
v -10.0701738 2.54626564 0.936649764
v -9.92300669 2.60274176 0.936649764
v -9.94086108 2.58828191 0.936649764
v -9.96021089 2.57572059 0.936649764
v -9.98074124 2.56526832 0.936649764
v -10.00219 2.5570331 0.936649764
v -10.0244746 2.55106596 0.936649764
v -10.0471359 2.54747705 0.936649764
v -9.9067112 2.6190267 0.936649764
v -9.89219007 2.63695292 0.936649764
v -9.87967799 2.65622214 0.936649764
v -9.86921242 2.67674593 0.936649764
v -9.85499612 2.72047452 0.936649824
v -9.86094133 2.6982818 0.936649824
v -9.85138491 2.74322776 0.936649824
vt 0.923898995 -0.323053002
vt 0.925000012 -0.302109987
vt 0.920635998 -0.343654007
vt -0.851499975 -0.343654007
vt -0.851499975 -0.302109987
vt -0.851499975 -0.302109987
vt 0.920635998 -0.343654007
vt 0.925000012 -0.302109987
vt 0.915211022 -0.363913
vt -0.851499975 -0.363913
vt -0.851499975 -0.302109987
vt -0.851499975 -0.302109987
vt 0.915211022 -0.363913
vt 0.925000012 -0.302109987
vt 0.907724977 -0.383412004
vt -0.851499975 -0.383412004
vt -0.851499975 -0.302109987
vt -0.851499975 -0.302109987
vt 0.907724977 -0.383412004
vt 0.925000012 -0.302109987
vt 0.898222029 -0.402076006
vt -0.851499975 -0.402076006
vt -0.851499975 -0.302109987
vt -0.851499975 -0.302109987
vt 0.898222029 -0.402076006
vt 0.925000012 -0.302109987
vt 0.886802971 -0.419667006
vt -0.851499975 -0.419667006
vt -0.851499975 -0.302109987
vt -0.851499975 -0.302109987
vt 0.886802971 -0.419667006
vt 0.925000012 -0.302109987
vt 0.873658001 -0.435898006
vt 0.873658001 -0.435898006
vt 0.925000012 -0.302109987
vt 0.725000024 -0.502110004
vt 0.873658001 -0.435898006
vt 0.725000024 -0.502110004
vt 0.858852983 -0.450711995
vt -0.851499975 -0.450711995
vt -0.851499975 -0.502110004
vt -0.851499975 -0.502110004
vt 0.858852983 -0.450711995
vt 0.725000024 -0.502110004
vt 0.842557013 -0.463912994
vt -0.851499975 -0.463912994
vt -0.851499975 -0.502110004
vt -0.851499975 -0.502110004
vt 0.842557013 -0.463912994
vt 0.725000024 -0.502110004
vt 0.825039029 -0.475288004
vt -0.851499975 -0.475288004
vt -0.851499975 -0.502110004
vt -0.851499975 -0.502110004
vt 0.825039029 -0.475288004
vt 0.725000024 -0.502110004
vt 0.806380987 -0.484802008
vt 0.806380987 -0.484802008
vt 0.725000024 -0.502110004
vt 0.766628027 -0.497725993
vt 0.806380987 -0.484802008
vt 0.766628027 -0.497725993
vt 0.786803007 -0.492321014
vt 0.74594301 -0.501007974
vt 0.766628027 -0.497725993
vt 0.725000024 -0.502110004
vt 0.925000012 -0.302109987
vt 0.924989998 -0.204442993
vt 0.725000024 -0.502110004
vt 0.725000024 -0.502110004
vt 0.924989998 -0.204442993
vt -0.47499001 -0.204442993
vt 0.725000024 -0.502110004
vt -0.47499001 -0.204442993
vt -0.275000006 -0.502110004
vt -0.275000006 -0.502110004
vt -0.47499001 -0.204442993
vt -0.474999994 -0.302109987
vt -0.275000006 -0.502110004
vt -0.474999994 -0.302109987
vt -0.295944005 -0.501007974
vt -0.295944005 -0.501007974
vt -0.474999994 -0.302109987
vt -0.473899007 -0.323053002
vt -0.851499975 -0.501007974
vt -0.851499975 -0.323053002
vt -0.851499975 -0.501007974
vt -0.295944005 -0.501007974
vt -0.473899007 -0.323053002
vt -0.470616013 -0.34373799
vt -0.295944005 -0.501007974
vt -0.470616013 -0.34373799
vt -0.31654501 -0.497745991
vt -0.851499975 -0.497745991
vt -0.851499975 -0.34373799
vt -0.851499975 -0.34373799
vt -0.31654501 -0.497745991
vt -0.470616013 -0.34373799
vt -0.336804003 -0.492321014
vt -0.336804003 -0.492321014
vt -0.470616013 -0.34373799
vt -0.465211004 -0.363913
vt -0.336804003 -0.492321014
vt -0.465211004 -0.363913
vt -0.356301993 -0.484834999
vt -0.356301993 -0.484834999
vt -0.465211004 -0.363913
vt -0.457691997 -0.383491009
vt -0.851499975 -0.484834999
vt -0.851499975 -0.383491009
vt -0.851499975 -0.484834999
vt -0.356301993 -0.484834999
vt -0.457691997 -0.383491009
vt -0.448177993 -0.402148992
vt -0.356301993 -0.484834999
vt -0.448177993 -0.402148992
vt -0.374965996 -0.475331992
vt -0.374965996 -0.475331992
vt -0.448177993 -0.402148992
vt -0.408787996 -0.450767994
vt -0.374965996 -0.475331992
vt -0.408787996 -0.450767994
vt -0.392556995 -0.463912994
vt -0.408787996 -0.450767994
vt -0.448177993 -0.402148992
vt -0.423602015 -0.435963005
vt -0.423602015 -0.435963005
vt -0.448177993 -0.402148992
vt -0.436803997 -0.419667006
vt -0.47499001 -0.204442993
vt 0.924989998 -0.204442993
vt -0.47499001 0.595556974
vt -0.47499001 0.595556974
vt 0.924989998 -0.204442993
vt 0.924989998 0.595556974
vt -0.47499001 0.595556974
vt 0.924989998 0.595556974
vt -0.275000006 0.897889972
vt -0.851499975 0.897889972
vt -0.851499975 0.595556974
vt -0.851499975 0.595556974
vt -0.275000006 0.897889972
vt 0.924989998 0.595556974
vt 0.725000024 0.897889972
vt 0.725000024 0.897889972
vt 0.924989998 0.595556974
vt 0.925000012 0.697889984
vt 0.725000024 0.897889972
vt 0.925000012 0.697889984
vt 0.74594301 0.896789014
vt 0.74594301 0.896789014
vt 0.925000012 0.697889984
vt 0.923898995 0.718833983
vt -0.851499975 0.896789014
vt -0.851499975 0.718833983
vt -0.851499975 0.896789014
vt 0.74594301 0.896789014
vt 0.923898995 0.718833983
vt 0.920615017 0.739519
vt 0.74594301 0.896789014
vt 0.920615017 0.739519
vt 0.766543984 0.893526018
vt -0.851499975 0.893526018
vt -0.851499975 0.739519
vt -0.851499975 0.739519
vt 0.766543984 0.893526018
vt 0.920615017 0.739519
vt 0.786803007 0.888101995
vt 0.786803007 0.888101995
vt 0.920615017 0.739519
vt 0.915211022 0.75969398
vt 0.786803007 0.888101995
vt 0.915211022 0.75969398
vt 0.806302011 0.880616009
vt 0.806302011 0.880616009
vt 0.915211022 0.75969398
vt 0.907692015 0.77927202
vt -0.851499975 0.880616009
vt -0.851499975 0.77927202
vt -0.851499975 0.880616009
vt 0.806302011 0.880616009
vt 0.907692015 0.77927202
vt 0.898177981 0.797930002
vt 0.806302011 0.880616009
vt 0.898177981 0.797930002
vt 0.824966013 0.871113002
vt 0.824966013 0.871113002
vt 0.898177981 0.797930002
vt 0.858788013 0.846548021
vt 0.824966013 0.871113002
vt 0.858788013 0.846548021
vt 0.842557013 0.859694004
vt 0.858788013 0.846548021
vt 0.898177981 0.797930002
vt 0.873601973 0.831744015
vt 0.873601973 0.831744015
vt 0.898177981 0.797930002
vt 0.886802971 0.815446973
vt -0.47499001 0.595556974
vt -0.275000006 0.897889972
vt -0.474999994 0.697889984
vt -0.474999994 0.697889984
vt -0.275000006 0.897889972
vt -0.423658013 0.831678987
vt -0.851499975 0.697889984
vt -0.851499975 0.831678987
vt -0.851499975 0.697889984
vt -0.474999994 0.697889984
vt -0.423658013 0.831678987
vt -0.436803997 0.815446973
vt -0.851499975 0.697889984
vt -0.851499975 0.815446973
vt -0.851499975 0.697889984
vt -0.474999994 0.697889984
vt -0.436803997 0.815446973
vt -0.448222995 0.797856987
vt -0.851499975 0.697889984
vt -0.851499975 0.797856987
vt -0.851499975 0.697889984
vt -0.474999994 0.697889984
vt -0.448222995 0.797856987
vt -0.457724988 0.779192984
vt -0.851499975 0.697889984
vt -0.851499975 0.779192984
vt -0.851499975 0.697889984
vt -0.474999994 0.697889984
vt -0.457724988 0.779192984
vt -0.465211004 0.75969398
vt -0.851499975 0.697889984
vt -0.851499975 0.75969398
vt -0.851499975 0.697889984
vt -0.474999994 0.697889984
vt -0.465211004 0.75969398
vt -0.47063601 0.739435017
vt -0.474999994 0.697889984
vt -0.47063601 0.739435017
vt -0.473899007 0.718833983
vt -0.423658013 0.831678987
vt -0.275000006 0.897889972
vt -0.408854008 0.846493006
vt -0.851499975 0.846493006
vt -0.851499975 0.897889972
vt -0.851499975 0.897889972
vt -0.408854008 0.846493006
vt -0.275000006 0.897889972
vt -0.392556995 0.859694004
vt -0.851499975 0.859694004
vt -0.851499975 0.897889972
vt -0.851499975 0.897889972
vt -0.392556995 0.859694004
vt -0.275000006 0.897889972
vt -0.375039011 0.871068001
vt -0.851499975 0.871068001
vt -0.851499975 0.897889972
vt -0.851499975 0.897889972
vt -0.375039011 0.871068001
vt -0.275000006 0.897889972
vt -0.356382012 0.880582988
vt -0.356382012 0.880582988
vt -0.275000006 0.897889972
vt -0.316628009 0.893505991
vt -0.356382012 0.880582988
vt -0.316628009 0.893505991
vt -0.336804003 0.888101995
vt -0.295944005 0.896789014
vt -0.316628009 0.893505991
vt -0.275000006 0.897889972
f 1/1 2/2 3/3
f 3/4 2/5 2/6
f 3/7 2/8 4/9
f 4/10 2/11 2/12
f 4/13 2/14 5/15
f 5/16 2/17 2/18
f 5/19 2/20 6/21
f 6/22 2/23 2/24
f 6/25 2/26 7/27
f 7/28 2/29 2/30
f 7/31 2/32 8/33
f 8/34 2/35 9/36
f 8/37 9/38 10/39
f 10/40 9/41 9/42
f 10/43 9/44 11/45
f 11/46 9/47 9/48
f 11/49 9/50 12/51
f 12/52 9/53 9/54
f 12/55 9/56 13/57
f 13/58 9/59 14/60
f 13/61 14/62 15/63
f 16/64 14/65 9/66
f 2/67 17/68 9/69
f 9/70 17/71 18/72
f 9/73 18/74 19/75
f 19/76 18/77 20/78
f 19/79 20/80 21/81
f 21/82 20/83 22/84
f 21/85 22/86 21/87
f 21/88 22/89 23/90
f 21/91 23/92 24/93
f 24/94 23/95 23/96
f 24/97 23/98 25/99
f 25/100 23/101 26/102
f 25/103 26/104 27/105
f 27/106 26/107 28/108
f 27/109 28/110 27/111
f 27/112 28/113 29/114
f 27/115 29/116 30/117
f 30/118 29/119 31/120
f 30/121 31/122 32/123
f 31/124 29/125 33/126
f 33/127 29/128 34/129
f 18/130 17/131 35/132
f 35/133 17/134 36/135
f 35/136 36/137 37/138
f 37/139 36/140 36/141
f 37/142 36/143 38/144
f 38/145 36/146 39/147
f 38/148 39/149 40/150
f 40/151 39/152 41/153
f 40/154 41/155 40/156
f 40/157 41/158 42/159
f 40/160 42/161 43/162
f 43/163 42/164 42/165
f 43/166 42/167 44/168
f 44/169 42/170 45/171
f 44/172 45/173 46/174
f 46/175 45/176 47/177
f 46/178 47/179 46/180
f 46/181 47/182 48/183
f 46/184 48/185 49/186
f 49/187 48/188 50/189
f 49/190 50/191 51/192
f 50/193 48/194 52/195
f 52/196 48/197 53/198
f 35/199 37/200 54/201
f 54/202 37/203 55/204
f 54/205 55/206 54/207
f 54/208 55/209 56/210
f 54/211 56/212 54/213
f 54/214 56/215 57/216
f 54/217 57/218 54/219
f 54/220 57/221 58/222
f 54/223 58/224 54/225
f 54/226 58/227 59/228
f 54/229 59/230 54/231
f 54/232 59/233 60/234
f 54/235 60/236 61/237
f 55/238 37/239 62/240
f 62/241 37/242 37/243
f 62/244 37/245 63/246
f 63/247 37/248 37/249
f 63/250 37/251 64/252
f 64/253 37/254 37/255
f 64/256 37/257 65/258
f 65/259 37/260 66/261
f 65/262 66/263 67/264
f 68/265 66/266 37/267
