# Exported from USD for MuJoCo with source material subsets
v -4.94471944 5.04860901 1.18049919
v -4.98937404 5.03760886 1.18049919
v -4.96606457 5.03760886 1.18049919
v -4.96606457 5.02660918 1.18049919
v -4.95506469 5.03760886 1.18049919
v -4.98937404 5.02660918 1.18049919
v -6.23687837 5.0156095 0.102498645
v -6.24787834 4.99360918 0.102498645
v -6.23687831 5.52160954 0.102498645
v -4.94471938 5.51060891 1.18049919
v -4.95506463 5.51060891 1.18049919
v -4.95506463 5.49960923 1.18049919
v -5.76387829 5.01560902 0.102498764
v -5.76387847 5.01560902 0.465498799
v -4.98937398 5.49960923 1.18049919
v -4.96606451 5.49960923 1.18049919
v -4.98937398 5.51060891 1.18049919
v -5.01071924 5.48860907 1.18049919
v -4.96606404 5.51060891 0.102499241
v -4.96606404 5.49960923 0.102499241
v -4.98937348 5.49960923 0.102499241
v -4.94471887 5.51060891 0.102499241
v -4.95506415 5.49960923 0.102499241
v -4.95506415 5.51060891 0.102499241
v -4.95506469 5.02660918 1.18049919
v -4.94471944 5.02660918 1.18049919
v -4.94471887 5.48860907 0.102499241
v -4.98937348 5.51060891 0.102499241
v -5.0107193 5.04860901 1.18049919
v -5.00037402 5.03760886 1.18049919
v -4.94471938 5.48860907 1.18049919
v -5.7528784 5.06400942 0.31529283
v -5.75287843 5.06510901 0.366498822
v -5.75287843 5.08050942 0.366498822
v -6.24787882 5.95060944 1.3307559
v -6.24787888 5.81657576 1.51049858
v -6.06087884 5.91115546 1.38366508
v -5.75287867 5.48860907 1.05380558
v -5.75287867 5.52160906 1.01549883
v -5.7528787 5.48860907 1.06920561
v -4.89487881 5.04860901 1.1267924
v -4.89487872 5.04860901 1.06920598
v -4.89487881 5.06400895 1.1267924
v -5.75287873 5.48860907 1.18049882
v -5.76387873 5.52160906 1.18049882
v -5.75287873 5.47210907 1.18049882
v -4.74087838 5.48860907 0.384705299
v -4.74087832 5.47320914 0.315293306
v -4.74087832 5.48860907 0.315293306
v -6.24787882 5.62060952 1.19149858
v -5.76387841 5.52160906 0.465498799
v -6.23687878 5.52160954 1.18049858
v -5.75287846 5.01560902 0.465498799
v -5.76387873 5.01560902 1.01549883
v -5.75287873 5.01560902 1.01549883
v -5.75287867 5.48860907 1.01549883
v -5.75287837 5.45670914 0.3774988
v -5.75287837 5.45670914 0.366498822
v -4.89487866 5.48860907 1.06920598
v -4.89487872 5.48860907 1.1267924
v -4.89487872 5.47320914 1.1267924
v -5.75287831 5.48860907 0.267498786
v -5.75287837 5.04860901 0.267498786
v -5.75287834 5.47320914 0.298792774
v -4.89487866 5.47320914 1.06920598
v -4.89487866 5.47320914 1.05380596
v -5.75287879 5.06510901 1.18049882
v -5.76387879 5.01560902 1.18049882
v -5.75287879 5.04860901 1.18049882
v -4.89487872 5.06400895 1.06920598
v -4.89487872 5.06400895 1.05380596
v -4.74087838 5.06400895 0.29879331
v -4.74087832 5.48860907 0.267499322
v -4.74087838 5.06400895 0.315293306
v -5.76387823 5.52160906 0.102498764
v -5.75287825 5.5436089 0.102498764
v -5.75287834 4.99360918 0.102498764
v -5.75287834 5.47320914 0.31529283
v -5.75287888 5.62060904 1.51049882
v -5.75287873 5.62060904 1.19149882
v -5.75287885 5.81657481 1.51049882
v -6.24787882 5.54360938 1.18049858
v -5.75287843 5.04860901 0.384704823
v -5.75287843 5.06400942 0.384704823
v -5.7528784 5.52160906 0.465498799
v -4.89487866 5.48860907 1.01549924
v -4.89487866 5.48860907 1.05380596
v -5.75287846 5.06510901 0.432498807
v -5.75287846 5.04860901 0.432498807
v -4.75187841 5.06510901 0.432499284
v -5.75287873 5.5436089 1.18049882
v -5.75287873 5.48860907 1.14219206
v -4.74087838 5.04860901 0.401205296
v -4.74087838 5.06400895 0.401205296
v -4.74087838 5.04860901 0.432499284
v -4.89487872 5.47320914 1.14219243
v -4.89487881 5.04860901 1.18049919
v -4.90587872 5.47210907 1.18049919
v -4.90587881 5.06510901 1.18049919
v -4.74087838 5.47320914 0.384705299
v -5.75287876 5.06400942 1.06920561
v -5.75287873 5.04860901 1.05380558
v -5.75287873 5.06400942 1.05380558
v -5.01071924 5.51060891 1.18049919
v -5.00037396 5.49960923 1.18049919
v -4.96606451 5.51060891 1.18049919
v -4.74087832 5.47320914 0.29879331
v -4.74087838 5.06400895 0.384705299
v -6.23687884 5.0156095 1.18049858
v -5.76387868 5.52160906 1.01549883
v -5.75287873 5.04860901 1.01549883
v -4.89487872 5.04860901 1.01549924
v -5.75287843 5.06400942 0.401204819
v -6.06087884 5.85197377 1.4630286
v -5.75287867 5.47320914 1.05380558
v -5.7528787 5.47320914 1.06920561
v -5.75287837 5.47210907 0.366498822
v -5.75287873 5.48860907 1.12679204
v -4.75187835 5.47210907 0.432499284
v -6.20387849 5.95060944 0.693680519
v -6.2478787 5.95060944 1.18868059
v -6.13787851 5.95060944 0.693680579
v -4.74087838 5.47320914 0.401205296
v -4.74087838 5.48860907 0.432499284
v -5.75287882 4.99360918 1.18049882
v -5.75287879 5.04860901 1.14219206
v -5.75287879 5.04860901 1.12679204
v -5.75287879 5.06400942 1.14219206
v -5.7528784 5.06400942 0.298792774
v -5.75287876 5.04860901 1.06920561
v -4.74087838 5.04860901 0.29879331
v -4.74087838 5.04860901 0.267499322
v -6.13787839 5.95060944 0.572680587
v -5.75287816 5.95060896 0.102498764
v -6.2478787 5.54360938 1.02649858
v -6.2478787 5.62060952 1.02649858
v -6.24787829 5.54360938 0.102498645
v -4.74087838 5.04860901 0.315293306
v -5.00037348 5.49960923 0.102499241
v -5.01071876 5.48860907 0.102499241
v -5.0107193 5.02660918 1.18049919
v -5.00037402 5.02660918 1.18049919
v -4.74087838 5.04860901 0.384705299
v -6.24787882 4.99360918 1.18049858
v -5.7528784 5.04860901 0.31529283
v -5.75287873 5.95060896 1.33075615
v -5.93987879 5.91115546 1.38366508
v -5.75287843 5.08050942 0.3774988
v -6.24787823 5.95060944 0.102498645
v -5.75287843 5.04860901 0.401204819
v -5.75287873 5.47320914 1.12679204
v -5.75287873 5.47320914 1.14219206
v -5.75287834 5.48860907 0.298792774
v -4.89487872 5.48860907 1.14219243
v -4.89487872 5.48860907 1.18049919
v -5.7528784 5.48860907 0.432498807
v -5.7528784 5.47210907 0.432498807
v -5.75287837 5.48860907 0.401204819
v -5.75287837 5.47320914 0.401204819
v -4.74087832 5.48860907 0.29879331
v -4.89487881 5.04860901 1.14219243
v -4.89487881 5.06400895 1.14219243
v -5.75287879 5.06400942 1.12679204
v -5.7528784 5.04860901 0.298792774
v -5.75287867 5.95060896 1.19149882
v -4.89487872 5.04860901 1.05380596
v -5.75287867 5.5436089 1.02649882
v -5.75287864 5.62060904 1.02649882
v -6.2478787 5.95060944 1.19149858
v -6.24787823 5.90660929 0.102498645
v -6.24787829 5.62060952 0.102498645
v -5.75287819 5.62060904 0.102498764
v -5.75287819 5.90660881 0.102498764
v -6.247879 5.62060952 1.51049858
v -5.00037396 5.51060891 1.18049919
v -5.00037348 5.51060891 0.102499241
v -5.01071876 5.51060891 0.102499241
v -4.74087838 5.48860907 0.401205296
v -6.20387837 5.95060944 0.572680527
v -6.2478787 5.90660929 1.18049858
v -5.75287867 5.90660881 1.18049882
v -5.75287834 5.48860907 0.31529283
v -4.90587872 5.45670914 1.12549919
v -5.75287873 5.45670914 1.12549882
v -4.90587881 5.08050894 1.12549919
v -5.75287879 5.08050942 1.12549882
v -5.75287837 5.48860907 0.384704823
v -5.75287837 5.47320914 0.384704823
v -6.24787823 5.91254019 0.102498645
v -5.75287819 5.91254019 0.102498764
v -5.7528787 5.91254019 1.18868083
v -6.2478787 5.91254019 1.18868059
v -5.75287867 5.95060896 1.18868083
v -5.93987879 5.85197377 1.4630286
v -4.75187841 5.08050894 0.377499277
v -4.75187835 5.45670914 0.377499277
v -4.9660641 5.02660918 0.102499241
v -4.98937354 5.03760886 0.102499241
v -4.9660641 5.03760886 0.102499241
v -5.01071882 5.04860901 0.102499241
v -5.00037354 5.03760886 0.102499241
v -5.01071882 5.02660918 0.102499241
v -5.00037354 5.02660918 0.102499241
v -4.94471893 5.04860901 0.102499241
v -4.95506421 5.03760886 0.102499241
v -4.94471893 5.02660918 0.102499241
v -4.95506421 5.02660918 0.102499241
v -4.98937354 5.02660918 0.102499241
vt 0.499689996 -0.381999999
vt 0.459095001 -0.39199999
vt 0.480284989 -0.39199999
vt 0.480284989 -0.39199999
vt 0.459095001 -0.39199999
vt 0.480284989 -0.40200001
vt 0.480284989 -0.39199999
vt 0.490285009 -0.39199999
vt 0.499689996 -0.381999999
vt 0.480284989 -0.40200001
vt 0.459095001 -0.39199999
vt 0.459095001 -0.40200001
vt 0.675000012 -0.412
vt 0.685000002 -0.432000011
vt 0.675000012 0.0480000004
vt 0.499689996 0.0379999988
vt 0.490285009 0.0379999988
vt 0.490285009 0.0280000009
vt 0.245000005 0.0900000036
vt 0.675000012 0.0900000036
vt 0.245000005 0.419999987
vt 0.459095001 0.0280000009
vt 0.480284989 0.0280000009
vt 0.459095001 0.0379999988
vt 0.459095001 0.0280000009
vt 0.439689994 0.0179999992
vt 0.480284989 0.0280000009
vt -0.480284989 0.0379999988
vt -0.480284989 0.0280000009
vt -0.459095001 0.0280000009
vt -0.499689996 0.0379999988
vt -0.490285009 0.0280000009
vt -0.490285009 0.0379999988
vt 0.490285009 -0.40200001
vt 0.499689996 -0.40200001
vt 0.490285009 -0.39199999
vt 0.490285009 -0.39199999
vt 0.499689996 -0.40200001
vt 0.499689996 -0.381999999
vt -0.459095001 0.0280000009
vt -0.480284989 0.0280000009
vt -0.499689996 0.0179999992
vt -0.459095001 0.0379999988
vt -0.480284989 0.0379999988
vt -0.459095001 0.0280000009
vt 0.499689996 -0.381999999
vt 0.439689994 -0.381999999
vt 0.459095001 -0.39199999
vt 0.459095001 -0.39199999
vt 0.439689994 -0.381999999
vt 0.449095011 -0.39199999
vt 0.499689996 0.0179999992
vt 0.499689996 0.0379999988
vt 0.490285009 0.0280000009
vt 0.283448994 -0.368000001
vt 0.330000013 -0.367000014
vt 0.330000013 -0.352999985
vt 0.685000002 1.20659804
vt 0.685000002 1.37
vt 0.514999986 1.25469697
vt -0.954823971 0.0179999992
vt -0.920000017 0.0480000004
vt -0.968824029 0.0179999992
vt -1.02117598 -0.381999999
vt -0.968824029 -0.381999999
vt -1.02117598 -0.368000001
vt -0.234999999 0.0179999992
vt -0.245000005 0.0480000004
vt -0.234999999 0.00300000003
vt -0.346551001 0.0179999992
vt -0.283448994 0.00400000019
vt -0.283448994 0.0179999992
vt 1.08000004 0.137999997
vt 1.37 0.316150993
vt 1.20659804 0.437999994
vt -0.675000012 0.0900000036
vt -0.245000005 0.419999987
vt -0.675000012 1.07000005
vt 0.234999999 0.419999987
vt 0.245000005 0.920000017
vt 0.234999999 0.920000017
vt -0.920000017 0.0179999992
vt -0.920000017 0.0480000004
vt -0.954823971 0.0179999992
vt 0.340000004 -0.0109999999
vt 0.330000013 -0.0109999999
vt 0.330000013 -0.352999985
vt -0.968824029 0.0179999992
vt -1.02117598 0.0179999992
vt -1.02117598 0.00400000019
vt 0.239999995 0.0179999992
vt 0.239999995 -0.381999999
vt 0.268449008 0.00400000019
vt -0.968824029 0.00400000019
vt -1.02117598 -0.368000001
vt -0.954823971 0.00400000019
vt -0.234999999 -0.367000014
vt -0.245000005 -0.412
vt -0.234999999 -0.381999999
vt -0.968824029 -0.368000001
vt -0.954823971 -0.368000001
vt -0.954823971 0.00400000019
vt -0.268449008 -0.368000001
vt -0.239999995 0.0179999992
vt -0.283448994 -0.368000001
vt 0.245000005 0.0480000004
vt 0.234999999 0.0680000037
vt 0.245000005 -0.412
vt 0.675000012 -0.412
vt 0.234999999 -0.432000011
vt 0.685000002 -0.432000011
vt 0.268449008 0.00400000019
vt 0.330000013 -0.352999985
vt 0.283448994 0.00400000019
vt -1.37 0.137999997
vt -1.08000004 0.137999997
vt -1.37 0.316150993
vt -0.685000002 0.0680000037
vt -0.675000012 0.0480000004
vt -0.245000005 0.0480000004
vt 0.346551001 -0.381999999
vt 0.346551001 -0.368000001
vt 0.283448994 -0.368000001
vt -0.234999999 0.419999987
vt -0.234999999 0.920000017
vt -0.245000005 0.419999987
vt -0.499689996 0.0179999992
vt -0.490285009 0.0280000009
vt -0.499689996 0.0379999988
vt -0.920000017 0.0179999992
vt -0.954823971 0.0179999992
vt -0.954823971 0.00400000019
vt -0.234999999 -0.367000014
vt -0.234999999 -0.381999999
vt 0.675000012 -0.367000014
vt -1.07000005 0.0680000037
vt -1.07000005 0.0179999992
vt -1.03517604 0.0179999992
vt -0.361550987 -0.381999999
vt -0.361550987 -0.368000001
vt -0.389999986 -0.381999999
vt -1.03517604 0.00400000019
vt -1.07000005 -0.381999999
vt -1.02117598 0.00400000019
vt 0.535000026 0.00300000003
vt 0.535000026 -0.367000014
vt 0.545000017 -0.381999999
vt -0.361550987 -0.368000001
vt -0.283448994 0.00400000019
vt -0.346551001 0.00400000019
vt -0.968824029 -0.368000001
vt -0.954823971 -0.381999999
vt -0.954823971 -0.368000001
vt 0.439689994 0.0379999988
vt 0.439689994 0.0179999992
vt 0.449095011 0.0280000009
vt 0.459095001 0.0379999988
vt 0.480284989 0.0280000009
vt 0.480284989 0.0379999988
vt -0.268449008 0.00400000019
vt -0.283448994 0.00400000019
vt -0.346551001 -0.368000001
vt 0.675000012 1.07000005
vt 0.245000005 1.07000005
vt 0.245000005 0.920000017
vt -0.0900000036 -0.432000011
vt -0.419999987 0.0480000004
vt -0.419999987 -0.412
vt -0.675000012 1.07000005
vt -0.245000005 0.419999987
vt -0.245000005 0.920000017
vt 0.234999999 -0.412
vt 0.245000005 -0.412
vt 0.234999999 -0.381999999
vt 0.245000005 0.419999987
vt 0.675000012 0.0900000036
vt 0.245000005 0.920000017
vt 0.234999999 -0.381999999
vt 0.234999999 0.0179999992
vt -0.545000017 -0.381999999
vt 0.346551001 -0.368000001
vt 0.361550987 -0.368000001
vt 0.330000013 -0.367000014
vt 0.245000005 0.0480000004
vt 0.234999999 0.0480000004
vt 0.234999999 0.0179999992
vt 0.514999986 1.25469697
vt 0.685000002 1.37
vt 0.514999986 1.32684505
vt 0.234999999 0.0179999992
vt -0.545000017 0.0179999992
vt -0.545000017 -0.381999999
vt -0.954823971 0.00400000019
vt -0.968824029 0.0179999992
vt -0.968824029 0.00400000019
vt 0.330000013 -0.0109999999
vt 0.330000013 0.00300000003
vt 0.283448994 0.00400000019
vt 0.514999986 1.32684505
vt 0.685000002 1.37
vt 0.234999999 1.37
vt -0.968824029 0.0179999992
vt -0.920000017 0.0480000004
vt -1.02117598 0.0179999992
vt 0.675000012 -0.367000014
vt 0.685000002 -0.381999999
vt 0.675000012 0.00300000003
vt 0.644999981 0.627438009
vt 0.685000002 1.077438
vt 0.584999979 0.627438009
vt -0.389999986 -0.381999999
vt -0.361550987 0.00400000019
vt -0.389999986 0.0179999992
vt -0.234999999 0.00300000003
vt -0.245000005 0.0480000004
vt -0.234999999 -0.367000014
vt 0.535000026 -0.367000014
vt -0.234999999 -0.367000014
vt -0.234999999 -0.381999999
vt -1.07000005 -0.381999999
vt -1.07000005 -0.432000011
vt -1.03517604 -0.381999999
vt -1.03517604 -0.381999999
vt -1.02117598 -0.381999999
vt -1.03517604 -0.368000001
vt -0.361550987 0.00400000019
vt -0.361550987 -0.368000001
vt -0.346551001 0.00400000019
vt 0.239999995 -0.381999999
vt 0.268449008 -0.368000001
vt 0.268449008 0.00400000019
vt -1.07000005 -0.432000011
vt -0.968824029 -0.381999999
vt -1.02117598 -0.381999999
vt -0.968824029 -0.381999999
vt -0.968824029 -0.368000001
vt -1.02117598 -0.368000001
vt -0.268449008 -0.381999999
vt -0.239999995 -0.381999999
vt -0.268449008 -0.368000001
vt 0.480284989 0.0280000009
vt 0.499689996 0.0179999992
vt 0.490285009 0.0280000009
vt 0.584999979 0.517437994
vt 0.584999979 0.627438009
vt 0.234999999 0.0900000036
vt 0.930000007 0.0680000037
vt 1.07000005 0.0680000037
vt 0.930000007 0.137999997
vt 0.685000002 -0.432000011
vt 0.685000002 0.0680000037
vt 0.675000012 0.0480000004
vt 0.685000002 0.0680000037
vt 0.234999999 0.0680000037
vt 0.245000005 0.0480000004
vt -0.245000005 0.0900000036
vt -0.245000005 0.419999987
vt -0.675000012 0.0900000036
vt -0.283448994 -0.368000001
vt -0.346551001 -0.368000001
vt -0.283448994 -0.381999999
vt 0.245000005 -0.412
vt 0.234999999 -0.432000011
vt 0.675000012 -0.412
vt -0.449095011 0.0280000009
vt -0.459095001 0.0280000009
vt -0.439689994 0.0179999992
vt 0.268449008 0.00400000019
vt 0.283448994 -0.368000001
vt 0.330000013 -0.352999985
vt 0.675000012 0.0900000036
vt 0.675000012 1.07000005
vt 0.245000005 0.920000017
vt 0.439689994 -0.40200001
vt 0.449095011 -0.40200001
vt 0.449095011 -0.39199999
vt -0.283448994 -0.381999999
vt -0.346551001 -0.368000001
vt -0.346551001 -0.381999999
vt 0.439689994 -0.381999999
vt 0.439689994 -0.40200001
vt 0.449095011 -0.39199999
vt -0.685000002 -0.432000011
vt -0.675000012 0.0480000004
vt -0.685000002 0.0680000037
vt 0.283448994 -0.381999999
vt 0.346551001 -0.381999999
vt 0.283448994 -0.368000001
vt -0.0900000036 -0.432000011
vt -0.419999987 -0.412
vt -1.07000005 -0.432000011
vt -1.08000004 0.137999997
vt -1.20659804 0.437999994
vt -1.37 0.316150993
vt -0.675000012 1.07000005
vt -0.245000005 0.920000017
vt -0.245000005 1.07000005
vt -0.419999987 -0.412
vt -0.920000017 -0.412
vt -1.07000005 -0.432000011
vt -0.346551001 -0.368000001
vt -0.283448994 0.00400000019
vt -0.361550987 -0.368000001
vt -0.419999987 0.0480000004
vt -1.07000005 0.0680000037
vt -0.920000017 0.0480000004
vt -0.245000005 0.419999987
vt -0.234999999 0.920000017
vt -0.245000005 0.920000017
vt 0.283448994 -0.368000001
vt 0.346551001 -0.368000001
vt 0.330000013 -0.367000014
vt -0.920000017 -0.412
vt -0.920000017 -0.381999999
vt -0.954823971 -0.381999999
vt 0.234999999 -0.381999999
vt 0.245000005 -0.412
vt 0.234999999 0.0179999992
vt 0.685000002 1.20659804
vt 0.514999986 1.25469697
vt 0.405000001 1.25469697
vt 0.245000005 -0.412
vt 0.245000005 0.0480000004
vt 0.234999999 0.0179999992
vt 0.439689994 0.0179999992
vt 0.499689996 0.0179999992
vt 0.480284989 0.0280000009
vt -0.920000017 0.0179999992
vt -0.954823971 0.00400000019
vt -0.920000017 -0.381999999
vt 0.340000004 -0.352999985
vt 0.340000004 -0.0109999999
vt 0.330000013 -0.352999985
vt 0.685000002 1.077438
vt 0.644999981 0.627438009
vt 0.685000002 0.0900000036
vt -0.954823971 0.0179999992
vt -0.968824029 0.0179999992
vt -0.954823971 0.00400000019
vt 0.330000013 -0.352999985
vt 0.330000013 -0.0109999999
vt 0.283448994 0.00400000019
vt -0.968824029 0.0179999992
vt -1.02117598 0.00400000019
vt -0.968824029 0.00400000019
vt 0.675000012 -0.367000014
vt -0.234999999 -0.381999999
vt 0.685000002 -0.381999999
vt 0.389999986 -0.381999999
vt 0.361550987 -0.368000001
vt 0.361550987 -0.381999999
vt -1.02117598 0.0179999992
vt -1.03517604 0.0179999992
vt -1.02117598 0.00400000019
vt -1.02117598 0.00400000019
vt -1.03517604 0.0179999992
vt -1.03517604 0.00400000019
vt 0.239999995 0.0179999992
vt 0.268449008 0.00400000019
vt 0.268449008 0.0179999992
vt -1.03517604 0.0179999992
vt -1.07000005 0.0179999992
vt -1.03517604 0.00400000019
vt -0.389999986 -0.381999999
vt -0.361550987 -0.368000001
vt -0.361550987 0.00400000019
vt -1.03517604 0.00400000019
vt -1.07000005 0.0179999992
vt -1.07000005 -0.381999999
vt -0.480284989 0.0280000009
vt -0.490285009 0.0280000009
vt -0.499689996 0.0179999992
vt -0.234999999 0.0179999992
vt -0.234999999 0.00300000003
vt 0.535000026 0.00300000003
vt 0.675000012 0.00300000003
vt -0.234999999 0.0179999992
vt -0.234999999 0.00300000003
vt -0.245000005 0.0480000004
vt -0.245000005 -0.412
vt -0.234999999 -0.367000014
vt 0.535000026 -0.367000014
vt -0.234999999 -0.381999999
vt 0.545000017 -0.381999999
vt 0.389999986 0.0179999992
vt 0.361550987 0.0179999992
vt 0.361550987 0.00400000019
vt -0.268449008 0.0179999992
vt -0.268449008 0.00400000019
vt -0.239999995 0.0179999992
vt -1.07000005 -0.381999999
vt -1.03517604 -0.381999999
vt -1.03517604 -0.368000001
vt -1.03517604 -0.381999999
vt -1.07000005 -0.432000011
vt -1.02117598 -0.381999999
vt -1.03517604 -0.368000001
vt -1.02117598 -0.381999999
vt -1.02117598 -0.368000001
vt 0.239999995 -0.381999999
vt 0.268449008 -0.381999999
vt 0.268449008 -0.368000001
vt -1.03517604 -0.368000001
vt -1.02117598 -0.368000001
vt -0.968824029 0.00400000019
vt -1.08000004 0.437999994
vt -1.20659804 0.437999994
vt -1.08000004 0.137999997
vt -0.968824029 -0.381999999
vt -0.954823971 -0.381999999
vt -0.968824029 -0.368000001
vt -0.346551001 0.00400000019
vt -0.283448994 0.00400000019
vt -0.346551001 0.0179999992
vt -1.02117598 -0.368000001
vt -0.968824029 -0.368000001
vt -0.954823971 0.00400000019
vt -0.954823971 0.00400000019
vt -0.954823971 -0.368000001
vt -0.920000017 -0.381999999
vt -0.954823971 -0.368000001
vt -0.954823971 -0.381999999
vt -0.920000017 -0.381999999
vt -0.239999995 -0.381999999
vt -0.239999995 0.0179999992
vt -0.268449008 -0.368000001
vt -0.930000007 0.0680000037
vt -0.930000007 0.137999997
vt -1.07000005 0.0680000037
vt 1.08000004 0.437999994
vt 1.08000004 0.137999997
vt 1.20659804 0.437999994
vt 0.268449008 -0.368000001
vt 0.283448994 -0.368000001
vt 0.268449008 0.00400000019
vt 0.685000002 0.0680000037
vt 0.245000005 0.0480000004
vt 0.675000012 0.0480000004
vt 0.0900000036 0.398000002
vt 0.0900000036 0.137999997
vt 0.930000007 0.137999997
vt 0.584999979 0.517437994
vt 0.234999999 0.0900000036
vt 0.685000002 0.0900000036
vt -0.0900000036 0.137999997
vt -0.0900000036 0.398000002
vt -0.930000007 0.137999997
vt 0.449095011 0.0280000009
vt 0.439689994 0.0179999992
vt 0.459095001 0.0280000009
vt 1.08000004 0.137999997
vt 1.37 0.137999997
vt 1.37 0.316150993
vt 0.449095011 0.0280000009
vt 0.449095011 0.0379999988
vt 0.439689994 0.0379999988
vt 0.234999999 0.0680000037
vt 0.234999999 -0.432000011
vt 0.245000005 -0.412
vt -0.449095011 0.0379999988
vt -0.449095011 0.0280000009
vt -0.439689994 0.0379999988
vt -0.439689994 0.0379999988
vt -0.449095011 0.0280000009
vt -0.439689994 0.0179999992
vt -0.439689994 0.0179999992
vt -0.459095001 0.0280000009
vt -0.499689996 0.0179999992
vt 0.245000005 0.419999987
vt 0.245000005 0.920000017
vt 0.234999999 0.419999987
vt -0.389999986 0.0179999992
vt -0.361550987 0.00400000019
vt -0.361550987 0.0179999992
vt 1.07000005 0.0280000009
vt 1.07000005 0.0379999988
vt 0.0900000036 0.0280000009
vt 0.0900000036 0.0280000009
vt 1.07000005 0.0379999988
vt 0.0900000036 0.0379999988
vt -0.545000017 -0.368000001
vt -0.545000017 -0.381999999
vt 0.234999999 -0.368000001
vt 0.234999999 -0.368000001
vt -0.545000017 -0.381999999
vt 0.234999999 -0.381999999
vt -0.234999999 0.239999995
vt 0.685000002 0.239999995
vt -0.234999999 0.268449008
vt -0.234999999 0.268449008
vt 0.685000002 0.239999995
vt 0.685000002 0.268449008
vt 0.234999999 1.20659804
vt 0.234999999 1.08000004
vt 0.685000002 1.20659804
vt 0.685000002 1.20659804
vt 0.234999999 1.08000004
vt 0.685000002 1.08000004
vt 0.644999981 0.627438009
vt 0.644999981 0.517437994
vt 0.685000002 0.0900000036
vt 0.685000002 0.0900000036
vt 0.644999981 0.517437994
vt 0.584999979 0.517437994
vt -0.459095001 1.07000005
vt -0.480284989 1.07000005
vt -0.459095001 0.0900000036
vt -0.459095001 0.0900000036
vt -0.480284989 1.07000005
vt -0.480284989 0.0900000036
vt -0.685000002 -0.368000001
vt -0.685000002 -0.381999999
vt 0.234999999 -0.368000001
vt 0.234999999 -0.368000001
vt -0.685000002 -0.381999999
vt 0.234999999 -0.381999999
vt -0.0900000036 0.0280000009
vt -0.0900000036 0.0379999988
vt -1.07000005 0.0280000009
vt -1.07000005 0.0280000009
vt -0.0900000036 0.0379999988
vt -1.07000005 0.0379999988
vt 0.439689994 0.0900000036
vt 0.499689996 0.0900000036
vt 0.439689994 1.07000005
vt 0.439689994 1.07000005
vt 0.499689996 0.0900000036
vt 0.499689996 1.07000005
vt -0.283448994 -0.368000001
vt -0.239999995 0.0179999992
vt -0.346551001 -0.368000001
vt -0.346551001 -0.368000001
vt -0.239999995 0.0179999992
vt -0.268449008 0.00400000019
vt 0.0900000036 0.0480000004
vt 0.0900000036 -0.412
vt 0.419999987 0.0480000004
vt 0.419999987 0.0480000004
vt 0.0900000036 -0.412
vt 0.419999987 -0.412
vt 0.234999999 0.137999997
vt 0.685000002 0.137999997
vt 0.234999999 0.398000002
vt 0.234999999 0.398000002
vt 0.685000002 0.137999997
vt 0.685000002 0.398000002
vt 0.0900000036 0.398000002
vt 0.930000007 0.137999997
vt 1.07000005 0.398000002
vt 1.07000005 0.398000002
vt 0.930000007 0.137999997
vt 1.07000005 0.0680000037
vt 0.234999999 1.07000005
vt 0.234999999 0.0900000036
vt 0.685000002 1.07000005
vt 0.685000002 1.07000005
vt 0.234999999 0.0900000036
vt 0.685000002 0.0900000036
vt 0.234999999 0.0900000036
vt 0.685000002 0.0900000036
vt 0.234999999 1.07000005
vt 0.234999999 1.07000005
vt 0.685000002 0.0900000036
vt 0.685000002 1.07000005
vt -0.234999999 0.0680000037
vt -0.234999999 0.398000002
vt -0.685000002 0.0680000037
vt -0.685000002 0.0680000037
vt -0.234999999 0.398000002
vt -0.685000002 0.398000002
vt 0.0900000036 0.0680000037
vt 0.0900000036 -0.432000011
vt 1.07000005 0.0680000037
vt 1.07000005 0.0680000037
vt 0.0900000036 -0.432000011
vt 1.07000005 -0.432000011
vt 0.685000002 0.268449008
vt 0.685000002 0.283448994
vt -0.234999999 0.268449008
vt -0.234999999 0.268449008
vt 0.685000002 0.283448994
vt -0.234999999 0.283448994
vt 0.685000002 0.0680000037
vt 0.685000002 0.137999997
vt 0.234999999 0.0680000037
vt 0.234999999 0.0680000037
vt 0.685000002 0.137999997
vt 0.234999999 0.137999997
vt -0.685000002 0.00400000019
vt 0.234999999 0.00400000019
vt -0.685000002 0.0179999992
vt -0.685000002 0.0179999992
vt 0.234999999 0.00400000019
vt 0.234999999 0.0179999992
vt -0.685000002 1.07000005
vt -0.685000002 0.930000007
vt -0.234999999 1.07000005
vt -0.234999999 1.07000005
vt -0.685000002 0.930000007
vt -0.234999999 0.930000007
vt -0.0900000036 0.0179999992
vt -0.0900000036 0.0379999988
vt -1.07000005 0.0179999992
vt -1.07000005 0.0179999992
vt -0.0900000036 0.0379999988
vt -1.07000005 0.0379999988
vt 0.535000026 -0.0109999999
vt -0.234999999 -0.0109999999
vt 0.535000026 -0.352999985
vt 0.535000026 -0.352999985
vt -0.234999999 -0.0109999999
vt -0.234999999 -0.352999985
vt 0.283448994 0.00400000019
vt 0.330000013 0.00300000003
vt 0.283448994 0.0179999992
vt -0.283448994 0.0179999992
vt -0.330000013 0.00300000003
vt -0.330000013 0.00300000003
vt 0.283448994 0.0179999992
vt 0.330000013 0.00300000003
vt 0.346551001 0.0179999992
vt -0.346551001 0.0179999992
vt -0.330000013 0.00300000003
vt -0.330000013 0.00300000003
vt 0.346551001 0.0179999992
vt 0.330000013 0.00300000003
vt 0.346551001 0.00400000019
vt 0.346551001 0.00400000019
vt 0.330000013 0.00300000003
vt 0.361550987 0.00400000019
vt 0.545000017 0.954823971
vt 0.545000017 0.968824029
vt -0.234999999 0.954823971
vt -0.234999999 0.954823971
vt 0.545000017 0.968824029
vt -0.234999999 0.968824029
vt 0.234999999 0.346551001
vt -0.685000002 0.346551001
vt 0.234999999 0.283448994
vt 0.234999999 0.283448994
vt -0.685000002 0.346551001
vt -0.685000002 0.283448994
vt -0.234999999 -0.368000001
vt -0.234999999 -0.381999999
vt 0.685000002 -0.368000001
vt 0.685000002 -0.368000001
vt -0.234999999 -0.381999999
vt 0.685000002 -0.381999999
vt -0.234999999 0.0179999992
vt -0.234999999 0.00400000019
vt 0.685000002 0.0179999992
vt 0.685000002 0.0179999992
vt -0.234999999 0.00400000019
vt 0.685000002 0.00400000019
vt -0.545000017 -0.368000001
vt -0.545000017 -0.381999999
vt 0.234999999 -0.368000001
vt 0.234999999 -0.368000001
vt -0.545000017 -0.381999999
vt 0.234999999 -0.381999999
vt 0.545000017 -0.381999999
vt 0.545000017 -0.368000001
vt -0.234999999 -0.381999999
vt -0.234999999 -0.381999999
vt 0.545000017 -0.368000001
vt -0.234999999 -0.368000001
vt -0.234999999 0.968824029
vt 0.545000017 0.968824029
vt -0.234999999 1.02117598
vt -0.234999999 1.02117598
vt 0.545000017 0.968824029
vt 0.545000017 1.02117598
vt 0.234999999 0.346551001
vt 0.234999999 0.361550987
vt -0.685000002 0.346551001
vt -0.685000002 0.346551001
vt 0.234999999 0.361550987
vt -0.685000002 0.361550987
vt -0.968824029 -0.381999999
vt -1.07000005 -0.432000011
vt -0.954823971 -0.381999999
vt -0.954823971 -0.381999999
vt -1.07000005 -0.432000011
vt -0.920000017 -0.412
vt -0.685000002 0.00400000019
vt 0.234999999 0.00400000019
vt -0.685000002 0.0179999992
vt -0.685000002 0.0179999992
vt 0.234999999 0.00400000019
vt 0.234999999 0.0179999992
vt -0.234999999 1.07000005
vt -0.234999999 1.03517604
vt 0.545000017 1.07000005
vt 0.545000017 1.07000005
vt -0.234999999 1.03517604
vt 0.545000017 1.03517604
vt -0.234999999 -0.381999999
vt -0.245000005 -0.412
vt -0.234999999 -0.432000011
vt -0.234999999 -0.432000011
vt -0.245000005 -0.412
vt -0.685000002 -0.432000011
vt 0.685000002 0.403391004
vt 0.685000002 0.437999994
vt 0.234999999 0.403391004
vt 0.234999999 0.403391004
vt 0.685000002 0.437999994
vt 0.234999999 0.437999994
vt 0.330000013 0.00300000003
vt 0.389999986 0.00300000003
vt 0.361550987 0.00400000019
vt 0.361550987 0.00400000019
vt 0.389999986 0.00300000003
vt 0.389999986 0.0179999992
vt -0.685000002 0.268449008
vt -0.685000002 0.239999995
vt 0.234999999 0.268449008
vt 0.234999999 0.268449008
vt -0.685000002 0.239999995
vt 0.234999999 0.239999995
vt -0.480284989 1.07000005
vt -0.490285009 1.07000005
vt -0.480284989 0.0900000036
vt -0.480284989 0.0900000036
vt -0.490285009 1.07000005
vt -0.490285009 0.0900000036
vt 0.545000017 -0.381999999
vt 0.545000017 0.0179999992
vt 0.535000026 0.00300000003
vt 0.535000026 0.00300000003
vt 0.545000017 0.0179999992
vt -0.234999999 0.0179999992
vt 0.685000002 -0.381999999
vt 0.685000002 0.0179999992
vt 0.675000012 0.00300000003
vt 0.675000012 0.00300000003
vt 0.685000002 0.0179999992
vt -0.234999999 0.0179999992
vt -1.02117598 0.00400000019
vt -1.07000005 -0.381999999
vt -0.968824029 0.00400000019
vt -0.968824029 0.00400000019
vt -1.07000005 -0.381999999
vt -1.03517604 -0.368000001
vt -0.685000002 0.0179999992
vt -0.685000002 -0.381999999
vt 0.234999999 0.0179999992
vt 0.234999999 0.0179999992
vt -0.685000002 -0.381999999
vt 0.234999999 -0.381999999
vt -0.234999999 0.0900000036
vt -0.234999999 1.077438
vt -0.685000002 0.0900000036
vt -0.685000002 0.0900000036
vt -0.234999999 1.077438
vt -0.685000002 1.077438
vt -0.545000017 1.03517604
vt -0.545000017 1.02117598
vt 0.234999999 1.03517604
vt 0.234999999 1.03517604
vt -0.545000017 1.02117598
vt 0.234999999 1.02117598
vt -0.685000002 -0.368000001
vt -0.685000002 -0.381999999
vt 0.234999999 -0.368000001
vt 0.234999999 -0.368000001
vt -0.685000002 -0.381999999
vt 0.234999999 -0.381999999
vt 0.234999999 0.0179999992
vt -0.545000017 0.0179999992
vt 0.234999999 0.00400000019
vt 0.234999999 0.00400000019
vt -0.545000017 0.0179999992
vt -0.545000017 0.00400000019
vt -0.234999999 0.0179999992
vt -0.234999999 0.0680000037
vt -0.245000005 0.0480000004
vt -0.245000005 0.0480000004
vt -0.234999999 0.0680000037
vt -0.685000002 0.0680000037
vt 0.545000017 0.00400000019
vt 0.545000017 0.0179999992
vt -0.234999999 0.00400000019
vt -0.234999999 0.00400000019
vt 0.545000017 0.0179999992
vt -0.234999999 0.0179999992
vt 0.234999999 1.02117598
vt -0.545000017 1.02117598
vt 0.234999999 0.968824029
vt 0.234999999 0.968824029
vt -0.545000017 1.02117598
vt -0.545000017 0.968824029
vt -1.077438 0.403391004
vt -0.0900000036 0.403391004
vt -1.077438 0.437999994
vt -1.077438 0.437999994
vt -0.0900000036 0.403391004
vt -0.0900000036 0.437999994
vt 0.389999986 -0.381999999
vt 0.389999986 -0.367000014
vt 0.361550987 -0.368000001
vt 0.361550987 -0.368000001
vt 0.389999986 -0.367000014
vt 0.330000013 -0.367000014
vt -0.545000017 0.00400000019
vt 0.234999999 0.00400000019
vt -0.545000017 0.0179999992
vt -0.545000017 0.0179999992
vt 0.234999999 0.00400000019
vt 0.234999999 0.0179999992
vt 0.514999986 1.32684505
vt 0.234999999 1.37
vt 0.405000001 1.32684505
vt 0.405000001 1.32684505
vt 0.234999999 1.37
vt 0.405000001 1.25469697
vt 0.234999999 0.954823971
vt 0.234999999 0.968824029
vt -0.545000017 0.954823971
vt -0.545000017 0.954823971
vt 0.234999999 0.968824029
vt -0.545000017 0.968824029
vt 0.545000017 0.00400000019
vt 0.545000017 0.0179999992
vt -0.234999999 0.00400000019
vt -0.234999999 0.00400000019
vt 0.545000017 0.0179999992
vt -0.234999999 0.0179999992
vt -0.545000017 0.954823971
vt -0.545000017 0.920000017
vt 0.234999999 0.954823971
vt 0.234999999 0.954823971
vt -0.545000017 0.920000017
vt 0.234999999 0.920000017
vt 0.675000012 -0.352999985
vt 0.675000012 -0.0109999999
vt -0.234999999 -0.352999985
vt -0.234999999 -0.352999985
vt 0.675000012 -0.0109999999
vt -0.234999999 -0.0109999999
vt -0.685000002 0.437999994
vt -0.685000002 0.403391004
vt -0.234999999 0.437999994
vt -0.234999999 0.437999994
vt -0.685000002 0.403391004
vt -0.234999999 0.403391004
vt 1.07000005 0.0480000004
vt 0.920000017 0.0480000004
vt 1.07000005 -0.412
vt 1.07000005 -0.412
vt 0.920000017 0.0480000004
vt 0.920000017 -0.412
vt -0.234999999 0.920000017
vt 0.545000017 0.920000017
vt -0.234999999 0.954823971
vt -0.234999999 0.954823971
vt 0.545000017 0.920000017
vt 0.545000017 0.954823971
vt -0.234999999 0.361550987
vt -0.234999999 0.346551001
vt 0.685000002 0.361550987
vt 0.685000002 0.361550987
vt -0.234999999 0.346551001
vt 0.685000002 0.346551001
vt 0.0900000036 0.0379999988
vt 0.0900000036 0.0280000009
vt 1.07000005 0.0379999988
vt 1.07000005 0.0379999988
vt 0.0900000036 0.0280000009
vt 1.07000005 0.0280000009
vt 0.234999999 1.37
vt 0.234999999 1.20659804
vt 0.405000001 1.25469697
vt 0.405000001 1.25469697
vt 0.234999999 1.20659804
vt 0.685000002 1.20659804
vt -0.234999999 -0.368000001
vt -0.234999999 -0.381999999
vt 0.685000002 -0.368000001
vt 0.685000002 -0.368000001
vt -0.234999999 -0.381999999
vt 0.685000002 -0.381999999
vt -0.234999999 1.07000005
vt -0.685000002 1.07000005
vt -0.234999999 0.0900000036
vt -0.234999999 0.0900000036
vt -0.685000002 1.07000005
vt -0.685000002 0.0900000036
vt -0.234999999 0.283448994
vt 0.685000002 0.283448994
vt -0.234999999 0.346551001
vt -0.234999999 0.346551001
vt 0.685000002 0.283448994
vt 0.685000002 0.346551001
vt -0.245000005 -0.412
vt -0.675000012 -0.412
vt -0.685000002 -0.432000011
vt -0.685000002 -0.432000011
vt -0.675000012 -0.412
vt -0.675000012 0.0480000004
vt -0.685000002 0.316150993
vt -0.685000002 0.137999997
vt -0.234999999 0.316150993
vt -0.234999999 0.316150993
vt -0.685000002 0.137999997
vt -0.234999999 0.137999997
vt -1.07000005 0.0480000004
vt -1.07000005 -0.412
vt -0.0900000036 0.0480000004
vt -0.0900000036 0.0480000004
vt -1.07000005 -0.412
vt -0.0900000036 -0.412
vt 0.234999999 0.0900000036
vt 0.584999979 0.627438009
vt 0.234999999 1.077438
vt 0.234999999 1.077438
vt 0.584999979 0.627438009
vt 0.685000002 1.077438
vt -0.245000005 -0.412
vt -0.234999999 -0.412
vt -0.245000005 0.0480000004
vt -0.245000005 0.0480000004
vt -0.234999999 -0.412
vt -0.234999999 0.0480000004
vt -0.234999999 1.37
vt -0.685000002 1.37
vt -0.234999999 1.08000004
vt -0.234999999 1.08000004
vt -0.685000002 1.37
vt -0.685000002 1.08000004
vt 1.07000005 0.0179999992
vt 1.07000005 0.0379999988
vt 0.0900000036 0.0179999992
vt 0.0900000036 0.0179999992
vt 1.07000005 0.0379999988
vt 0.0900000036 0.0379999988
vt -0.449095011 1.07000005
vt -0.449095011 0.0900000036
vt -0.439689994 1.07000005
vt -0.439689994 1.07000005
vt -0.449095011 0.0900000036
vt -0.439689994 0.0900000036
vt -0.449095011 1.07000005
vt -0.459095001 1.07000005
vt -0.449095011 0.0900000036
vt -0.449095011 0.0900000036
vt -0.459095001 1.07000005
vt -0.459095001 0.0900000036
vt -0.234999999 0.0900000036
vt -0.234999999 0.930000007
vt -0.685000002 0.0900000036
vt -0.685000002 0.0900000036
vt -0.234999999 0.930000007
vt -0.685000002 0.930000007
vt -0.0900000036 0.398000002
vt -1.07000005 0.398000002
vt -0.930000007 0.137999997
vt -0.930000007 0.137999997
vt -1.07000005 0.398000002
vt -1.07000005 0.0680000037
vt 0.545000017 -0.381999999
vt 0.545000017 -0.368000001
vt -0.234999999 -0.381999999
vt -0.234999999 -0.381999999
vt 0.545000017 -0.368000001
vt -0.234999999 -0.368000001
vt 0.234999999 0.437999994
vt 0.234999999 0.137999997
vt 0.685000002 0.437999994
vt 0.685000002 0.437999994
vt 0.234999999 0.137999997
vt 0.685000002 0.137999997
vt 0.545000017 1.02117598
vt 0.545000017 1.03517604
vt -0.234999999 1.02117598
vt -0.234999999 1.02117598
vt 0.545000017 1.03517604
vt -0.234999999 1.03517604
vt -0.685000002 0.361550987
vt 0.234999999 0.361550987
vt -0.685000002 0.389999986
vt -0.685000002 0.389999986
vt 0.234999999 0.361550987
vt 0.234999999 0.389999986
vt 0.685000002 0.00400000019
vt 0.685000002 0.0179999992
vt -0.234999999 0.00400000019
vt -0.234999999 0.00400000019
vt 0.685000002 0.0179999992
vt -0.234999999 0.0179999992
vt 0.0900000036 0.403391004
vt 1.077438 0.403391004
vt 0.0900000036 0.437999994
vt 0.0900000036 0.437999994
vt 1.077438 0.403391004
vt 1.077438 0.437999994
vt 0.234999999 1.07000005
vt -0.545000017 1.07000005
vt 0.234999999 1.03517604
vt 0.234999999 1.03517604
vt -0.545000017 1.07000005
vt -0.545000017 1.03517604
vt 0.685000002 0.361550987
vt 0.685000002 0.389999986
vt -0.234999999 0.361550987
vt -0.234999999 0.361550987
vt 0.685000002 0.389999986
vt -0.234999999 0.389999986
vt -1.02117598 0.0179999992
vt -0.920000017 0.0480000004
vt -1.03517604 0.0179999992
vt -1.03517604 0.0179999992
vt -0.920000017 0.0480000004
vt -1.07000005 0.0680000037
vt -0.685000002 0.283448994
vt -0.685000002 0.268449008
vt 0.234999999 0.283448994
vt 0.234999999 0.283448994
vt -0.685000002 0.268449008
vt 0.234999999 0.268449008
vt -0.0900000036 -0.432000011
vt -0.0900000036 0.0680000037
vt -0.419999987 0.0480000004
vt -0.419999987 0.0480000004
vt -0.0900000036 0.0680000037
vt -1.07000005 0.0680000037
vt -1.07000005 0.0379999988
vt -1.07000005 0.0280000009
vt -0.0900000036 0.0379999988
vt -0.0900000036 0.0379999988
vt -1.07000005 0.0280000009
vt -0.0900000036 0.0280000009
vt -0.499689996 0.0900000036
vt -0.490285009 0.0900000036
vt -0.499689996 1.07000005
vt -0.499689996 1.07000005
vt -0.490285009 0.0900000036
vt -0.490285009 1.07000005
vt -0.480284989 -0.40200001
vt -0.459095001 -0.39199999
vt -0.480284989 -0.39199999
vt -0.439689994 -0.381999999
vt -0.449095011 -0.39199999
vt -0.439689994 -0.40200001
vt -0.459095001 -0.39199999
vt -0.449095011 -0.39199999
vt -0.439689994 -0.381999999
vt -0.439689994 -0.40200001
vt -0.449095011 -0.39199999
vt -0.449095011 -0.40200001
vt -0.499689996 -0.381999999
vt -0.459095001 -0.39199999
vt -0.439689994 -0.381999999
vt -0.490285009 -0.39199999
vt -0.499689996 -0.40200001
vt -0.490285009 -0.40200001
vt -0.490285009 -0.39199999
vt -0.499689996 -0.381999999
vt -0.499689996 -0.40200001
vt -0.480284989 -0.39199999
vt -0.499689996 -0.381999999
vt -0.490285009 -0.39199999
vt -0.480284989 -0.39199999
vt -0.459095001 -0.39199999
vt -0.499689996 -0.381999999
vt -0.459095001 -0.40200001
vt -0.459095001 -0.39199999
vt -0.480284989 -0.40200001
vt -0.439689994 1.07000005
vt -0.499689996 1.07000005
vt -0.439689994 0.0900000036
vt -0.439689994 0.0900000036
vt -0.499689996 1.07000005
vt -0.499689996 0.0900000036
vt -1.07000005 -0.381999999
vt -1.07000005 -0.40200001
vt -0.0900000036 -0.381999999
vt -0.0900000036 -0.381999999
vt -1.07000005 -0.40200001
vt -0.0900000036 -0.40200001
vt 0.449095011 1.07000005
vt 0.439689994 1.07000005
vt 0.449095011 0.0900000036
vt 0.449095011 0.0900000036
vt 0.439689994 1.07000005
vt 0.439689994 0.0900000036
vt 1.07000005 -0.40200001
vt 1.07000005 -0.381999999
vt 0.0900000036 -0.40200001
vt 0.0900000036 -0.40200001
vt 1.07000005 -0.381999999
vt 0.0900000036 -0.381999999
vt 0.459095001 0.0900000036
vt 0.480284989 0.0900000036
vt 0.459095001 1.07000005
vt 0.459095001 1.07000005
vt 0.480284989 0.0900000036
vt 0.480284989 1.07000005
vt 0.490285009 1.07000005
vt 0.490285009 0.0900000036
vt 0.499689996 1.07000005
vt 0.499689996 1.07000005
vt 0.490285009 0.0900000036
vt 0.499689996 0.0900000036
vt -1.07000005 -0.39199999
vt -1.07000005 -0.40200001
vt -0.0900000036 -0.39199999
vt -0.0900000036 -0.39199999
vt -1.07000005 -0.40200001
vt -0.0900000036 -0.40200001
vt 1.07000005 -0.40200001
vt 1.07000005 -0.39199999
vt 0.0900000036 -0.40200001
vt 0.0900000036 -0.40200001
vt 1.07000005 -0.39199999
vt 0.0900000036 -0.39199999
vt 0.480284989 0.0900000036
vt 0.490285009 0.0900000036
vt 0.480284989 1.07000005
vt 0.480284989 1.07000005
vt 0.490285009 0.0900000036
vt 0.490285009 1.07000005
vt -1.07000005 -0.39199999
vt -1.07000005 -0.40200001
vt -0.0900000036 -0.39199999
vt -0.0900000036 -0.39199999
vt -1.07000005 -0.40200001
vt -0.0900000036 -0.40200001
vt 0.0900000036 -0.39199999
vt 0.0900000036 -0.40200001
vt 1.07000005 -0.39199999
vt 1.07000005 -0.39199999
vt 0.0900000036 -0.40200001
vt 1.07000005 -0.40200001
vt 0.449095011 0.0900000036
vt 0.459095001 0.0900000036
vt 0.449095011 1.07000005
vt 0.449095011 1.07000005
vt 0.459095001 0.0900000036
vt 0.459095001 1.07000005
f 1/1 2/2 3/3
f 3/4 2/5 4/6
f 3/7 5/8 1/9
f 4/10 2/11 6/12
f 7/13 8/14 9/15
f 10/16 11/17 12/18
f 13/19 7/20 14/21
f 15/22 16/23 17/24
f 15/25 18/26 16/27
f 19/28 20/29 21/30
f 22/31 23/32 24/33
f 25/34 26/35 5/36
f 5/37 26/38 1/39
f 21/40 20/41 27/42
f 28/43 19/44 21/45
f 1/46 29/47 2/48
f 2/49 29/50 30/51
f 31/52 10/53 12/54
f 32/55 33/56 34/57
f 35/58 36/59 37/60
f 38/61 39/62 40/63
f 41/64 42/65 43/66
f 44/67 45/68 46/69
f 47/70 48/71 49/72
f 50/73 36/74 35/75
f 9/76 51/77 52/78
f 53/79 54/80 55/81
f 56/82 39/83 38/84
f 57/85 58/86 34/87
f 59/88 60/89 61/90
f 62/91 63/92 64/93
f 65/94 43/95 66/96
f 67/97 68/98 69/99
f 70/100 71/101 66/102
f 72/103 73/104 74/105
f 75/106 76/107 13/108
f 7/109 77/110 8/111
f 64/112 34/113 78/114
f 79/115 80/116 81/117
f 82/118 52/119 45/120
f 83/121 84/122 32/123
f 85/124 39/125 51/126
f 27/127 23/128 22/129
f 86/130 87/131 66/132
f 88/133 89/134 90/135
f 91/136 44/137 92/138
f 93/139 94/140 95/141
f 96/142 97/143 61/144
f 98/145 99/146 97/147
f 94/148 48/149 100/150
f 101/151 102/152 103/153
f 104/154 18/155 105/156
f 17/157 16/158 106/159
f 107/160 48/161 108/162
f 109/163 68/164 54/165
f 77/166 85/167 53/168
f 52/169 51/170 110/171
f 55/172 54/173 111/174
f 14/175 7/176 54/177
f 111/178 56/179 112/180
f 84/181 113/182 33/183
f 110/184 39/185 56/186
f 37/187 36/188 114/189
f 56/190 86/191 112/192
f 115/193 40/194 116/195
f 58/196 117/197 78/198
f 114/199 36/200 81/201
f 40/202 39/203 118/204
f 90/205 95/206 119/207
f 120/208 121/209 122/210
f 95/211 123/212 124/213
f 46/214 45/215 67/216
f 99/217 67/218 69/219
f 69/220 125/221 126/222
f 126/223 127/224 128/225
f 123/226 94/227 100/228
f 63/229 129/230 64/231
f 125/232 130/233 127/234
f 42/235 70/236 43/237
f 131/238 132/239 72/240
f 16/241 31/242 12/243
f 133/244 122/245 134/246
f 135/247 82/248 136/249
f 8/250 137/251 9/252
f 137/253 76/254 75/255
f 75/256 51/257 9/258
f 74/259 108/260 138/261
f 13/262 77/263 7/264
f 139/265 21/266 140/267
f 64/268 32/269 34/270
f 7/271 109/272 54/273
f 141/274 142/275 30/276
f 138/277 108/278 143/279
f 29/280 141/281 30/282
f 144/283 52/284 82/285
f 145/286 83/287 32/288
f 77/289 53/290 125/291
f 80/292 146/293 81/294
f 52/295 110/296 45/297
f 53/298 55/299 125/300
f 108/301 48/302 94/303
f 85/304 91/305 39/306
f 51/307 39/308 110/309
f 32/310 84/311 33/312
f 55/313 111/314 102/315
f 111/316 54/317 56/318
f 35/319 37/320 147/321
f 54/322 110/323 56/324
f 18/325 31/326 16/327
f 86/328 66/329 112/330
f 148/331 57/332 34/333
f 121/334 120/335 149/336
f 38/337 40/338 115/339
f 34/340 58/341 78/342
f 59/343 61/344 65/345
f 90/346 89/347 95/348
f 89/349 113/350 150/351
f 118/352 92/353 151/354
f 151/355 92/356 152/357
f 62/358 64/359 153/360
f 154/361 155/362 96/363
f 95/364 94/365 123/366
f 96/367 155/368 97/369
f 20/370 23/371 27/372
f 44/373 46/374 98/375
f 119/376 156/377 157/378
f 45/379 68/380 67/381
f 99/382 69/383 97/384
f 156/385 158/386 159/387
f 160/388 107/389 73/390
f 97/391 161/392 162/393
f 126/394 125/395 127/396
f 128/397 127/398 163/399
f 63/400 164/401 129/402
f 162/403 43/404 65/405
f 165/406 146/407 80/408
f 130/409 102/410 101/411
f 100/412 48/413 47/414
f 43/415 70/416 66/417
f 66/418 71/419 112/420
f 71/421 166/422 112/423
f 132/424 73/425 72/426
f 167/427 168/428 91/429
f 169/430 50/431 35/432
f 129/433 32/434 64/435
f 137/436 75/437 9/438
f 170/439 171/440 136/441
f 133/442 134/443 149/444
f 172/445 173/446 168/447
f 105/448 18/449 15/450
f 50/451 174/452 36/453
f 105/454 175/455 104/456
f 76/457 77/458 13/459
f 176/460 139/461 177/462
f 177/463 139/464 140/465
f 140/466 21/467 27/468
f 14/469 54/470 53/471
f 124/472 123/473 178/474
f 12/475 11/476 23/477
f 23/478 11/479 24/480
f 162/481 161/482 128/483
f 128/484 161/485 126/486
f 63/487 132/488 164/489
f 164/490 132/491 131/492
f 146/493 165/494 35/495
f 35/496 165/497 169/498
f 120/499 179/500 149/501
f 149/502 179/503 133/504
f 17/505 106/506 28/507
f 28/508 106/509 19/510
f 74/511 138/512 32/513
f 32/514 138/515 145/516
f 139/517 176/518 105/519
f 105/520 176/521 175/522
f 140/523 27/524 18/525
f 18/526 27/527 31/528
f 74/529 73/530 108/531
f 108/532 73/533 107/534
f 75/535 13/536 51/537
f 51/538 13/539 14/540
f 172/541 171/542 173/543
f 173/544 171/545 170/546
f 170/547 136/548 180/549
f 180/550 136/551 82/552
f 181/553 173/554 180/555
f 180/556 173/557 170/558
f 76/559 137/560 91/561
f 91/562 137/563 82/564
f 91/565 181/566 82/567
f 82/568 181/569 180/570
f 137/571 8/572 82/573
f 82/574 8/575 144/576
f 72/577 74/578 129/579
f 129/580 74/581 32/582
f 135/583 136/584 167/585
f 167/586 136/587 168/588
f 48/589 78/590 49/591
f 49/592 78/593 182/594
f 82/595 135/596 91/597
f 91/598 135/599 167/600
f 27/601 22/602 31/603
f 31/604 22/605 10/606
f 183/607 184/608 185/609
f 185/610 184/611 186/612
f 78/613 117/614 182/615
f 182/616 117/617 117/618
f 182/619 117/620 187/621
f 187/622 117/623 117/624
f 187/625 117/626 188/627
f 188/628 117/629 159/630
f 71/631 70/632 103/633
f 103/634 70/635 101/636
f 187/637 47/638 182/639
f 182/640 47/641 49/642
f 129/643 164/644 72/645
f 72/646 164/647 131/648
f 187/649 188/650 47/651
f 47/652 188/653 100/654
f 70/655 42/656 101/657
f 101/658 42/659 130/660
f 41/661 43/662 127/663
f 127/664 43/665 163/666
f 130/667 42/668 127/669
f 127/670 42/671 41/672
f 188/673 159/674 100/675
f 100/676 159/677 123/678
f 130/679 125/680 102/681
f 102/682 125/683 55/684
f 123/685 159/686 178/687
f 178/688 159/689 158/690
f 69/691 126/692 97/693
f 97/694 126/695 161/696
f 69/697 68/698 125/699
f 125/700 68/701 144/702
f 189/703 149/704 190/705
f 190/706 149/707 134/708
f 117/709 157/710 159/711
f 159/712 157/713 156/714
f 160/715 73/716 153/717
f 153/718 73/719 62/720
f 16/721 12/722 20/723
f 20/724 12/725 23/726
f 97/727 155/728 98/729
f 98/730 155/731 44/732
f 95/733 124/734 119/735
f 119/736 124/737 156/738
f 61/739 97/740 65/741
f 65/742 97/743 162/744
f 73/745 132/746 62/747
f 62/748 132/749 63/750
f 190/751 191/752 189/753
f 189/754 191/755 192/756
f 96/757 61/758 152/759
f 152/760 61/761 151/762
f 94/763 93/764 113/765
f 113/766 93/767 150/768
f 92/769 154/770 152/771
f 152/772 154/773 96/774
f 44/775 91/776 45/777
f 45/778 91/779 82/780
f 61/781 60/782 151/783
f 151/784 60/785 118/786
f 118/787 60/788 40/789
f 40/790 60/791 59/792
f 191/793 190/794 193/795
f 193/796 190/797 134/798
f 89/799 88/800 113/801
f 113/802 88/803 33/804
f 65/805 116/806 59/807
f 59/808 116/809 40/810
f 114/811 81/812 194/813
f 194/814 81/815 147/816
f 115/817 116/818 66/819
f 66/820 116/821 65/822
f 66/823 87/824 115/825
f 115/826 87/827 38/828
f 87/829 86/830 38/831
f 38/832 86/833 56/834
f 195/835 196/836 148/837
f 148/838 196/839 57/840
f 121/841 192/842 193/843
f 193/844 192/845 191/846
f 45/847 110/848 68/849
f 68/850 110/851 54/852
f 111/853 112/854 102/855
f 102/856 112/857 166/858
f 113/859 84/860 94/861
f 94/862 84/863 108/864
f 28/865 21/866 17/867
f 17/868 21/869 15/870
f 81/871 146/872 147/873
f 147/874 146/875 35/876
f 84/877 83/878 108/879
f 108/880 83/881 143/882
f 125/883 144/884 77/885
f 77/886 144/887 8/888
f 145/889 138/890 83/891
f 83/892 138/893 143/894
f 68/895 109/896 144/897
f 144/898 109/899 52/900
f 36/901 174/902 81/903
f 81/904 174/905 79/906
f 52/907 109/908 9/909
f 9/910 109/911 7/912
f 134/913 122/914 193/915
f 193/916 122/917 121/918
f 14/919 53/920 51/921
f 51/922 53/923 85/924
f 79/925 174/926 80/927
f 80/928 174/929 50/930
f 18/931 104/932 140/933
f 140/934 104/935 177/936
f 175/937 176/938 104/939
f 104/940 176/941 177/942
f 105/943 15/944 139/945
f 139/946 15/947 21/948
f 172/949 168/950 171/951
f 171/952 168/953 136/954
f 173/955 181/956 168/957
f 168/958 181/959 91/960
f 166/961 71/962 102/963
f 102/964 71/965 103/966
f 165/967 80/968 169/969
f 169/970 80/971 50/972
f 43/973 162/974 163/975
f 163/976 162/977 128/978
f 178/979 158/980 124/981
f 124/982 158/983 156/984
f 107/985 160/986 64/987
f 64/988 160/989 153/990
f 189/991 192/992 149/993
f 149/994 192/995 121/996
f 44/997 155/998 92/999
f 92/1000 155/1001 154/1002
f 93/1003 95/1004 150/1005
f 150/1006 95/1007 89/1008
f 118/1009 39/1010 92/1011
f 92/1012 39/1013 91/1014
f 48/1015 107/1016 78/1017
f 78/1018 107/1019 64/1020
f 77/1021 76/1022 85/1023
f 85/1024 76/1025 91/1026
f 106/1027 16/1028 19/1029
f 19/1030 16/1031 20/1032
f 22/1033 24/1034 10/1035
f 10/1036 24/1037 11/1038
f 197/1039 198/1040 199/1041
f 200/1042 201/1043 202/1044
f 198/1045 201/1046 200/1047
f 202/1048 201/1049 203/1050
f 204/1051 198/1052 200/1053
f 205/1054 206/1055 207/1056
f 205/1057 204/1058 206/1059
f 199/1060 204/1061 205/1062
f 199/1063 198/1064 204/1065
f 208/1066 198/1067 197/1068
f 29/1069 1/1070 200/1071
f 200/1072 1/1073 204/1074
f 1/1075 26/1076 204/1077
f 204/1078 26/1079 206/1080
f 142/1081 141/1082 203/1083
f 203/1084 141/1085 202/1086
f 141/1087 29/1088 202/1089
f 202/1090 29/1091 200/1092
f 208/1093 197/1094 6/1095
f 6/1096 197/1097 4/1098
f 25/1099 207/1100 26/1101
f 26/1102 207/1103 206/1104
f 3/1105 4/1106 199/1107
f 199/1108 4/1109 197/1110
f 25/1111 5/1112 207/1113
f 207/1114 5/1115 205/1116
f 199/1117 205/1118 3/1119
f 3/1120 205/1121 5/1122
f 30/1123 142/1124 201/1125
f 201/1126 142/1127 203/1128
f 198/1129 208/1130 2/1131
f 2/1132 208/1133 6/1134
f 201/1135 198/1136 30/1137
f 30/1138 198/1139 2/1140
