# Exported from USD for MuJoCo with source material subsets
v -6.21979192 -6.57185579 0.656898254
v -6.21979222 -7.58165575 0.656898254
v -5.71819216 -7.08665586 0.656898374
v -5.71819231 -7.56185604 0.656898374
v -5.71819201 -6.59165598 0.656898374
v -5.71819201 -6.57185579 0.656898374
v -5.71819231 -7.58165575 0.656898374
v -5.71819216 -7.06685615 0.656898374
vt 0.456 -0.458999991
vt 0.456 0.458999991
vt 0 0.00899999961
vt 0 0.00899999961
vt 0.456 0.458999991
vt 0 0.441000015
vt 0 -0.441000015
vt 0 -0.458999991
vt 0.456 -0.458999991
vt 0 0.458999991
vt 0 0.441000015
vt 0.456 0.458999991
vt 0 0.00899999961
vt 0 -0.00899999961
vt 0.456 -0.458999991
vt 0.456 -0.458999991
vt 0 -0.00899999961
vt 0 -0.441000015
f 1/1 2/2 3/3
f 3/4 2/5 4/6
f 5/7 6/8 1/9
f 7/10 4/11 2/12
f 3/13 8/14 1/15
f 1/16 8/17 5/18
