# Exported from USD for MuJoCo with source material subsets
v 10.6076743 1.41384257 0.760000598
v 10.6076745 1.77384223 0.760000598
v 10.6076743 1.41384257 0.762500596
v 10.6076745 1.77384223 0.762500596
v 10.5686745 1.77384223 0.762500536
v 10.5686744 1.41384257 0.762500536
v 10.5686743 1.41384257 0.910000515
v 10.5686744 1.77384223 0.910000515
v 10.5036743 1.41384257 0.910000515
v 10.5036745 1.77384223 0.910000515
v 10.5036744 1.41384257 0.810000491
v 10.5036745 1.77384223 0.810000491
v 10.5654245 1.77384223 0.810000491
v 10.5654244 1.41384257 0.810000491
v 10.5654245 1.77384223 0.760000539
v 10.5654244 1.41384257 0.760000539
v 11.270674 1.4138421 0.910000753
v 11.3356739 1.4138421 0.910000753
v 11.2706741 1.77384199 0.910000753
v 11.3356741 1.77384199 0.910000753
v 11.335674 1.4138421 0.81000073
v 11.3356741 1.77384199 0.81000073
v 11.273924 1.4138421 0.81000073
v 11.2739241 1.77384199 0.81000073
v 11.2739241 1.77384199 0.760000777
v 11.273924 1.4138421 0.760000777
v 11.2316742 1.77384199 0.760000718
v 11.231674 1.4138421 0.760000718
v 11.231674 1.4138421 0.762500715
v 11.2316742 1.77384199 0.762500715
v 11.2706741 1.77384199 0.762500775
v 11.270674 1.4138421 0.762500775
v 10.464674 0.309842959 1.04000036
v 10.438674 0.309843198 0.820000482
v 10.4646741 0.309842959 0.540000629
v 10.432174 0.309843198 0.820000482
v 10.2046744 0.309843317 6.67572021e-07
v 11.3746737 0.30984284 0.540000868
v 11.3746735 0.30984284 1.0400006
v 11.4136735 0.30984284 0.82000072
v 11.4136735 0.30984284 1.08373145
v 10.2153818 0.309843317 0.952117872
v 10.432174 0.309843198 1.09000037
v 11.4201736 0.30984284 0.82000072
v 10.3002923 0.309843198 1.24925878
v 11.4201735 0.30984284 1.09000061
v 11.6996736 0.30984284 1.14440918e-06
v 11.6996733 0.30984284 1.48010242
v 10.438674 0.309843198 1.08373119
v 10.3735026 0.309843198 1.39080762
v 10.4995858 0.309842959 1.54000024
v 10.466154 0.309842959 1.52544836
v 11.6346734 0.30984284 1.54000061
v 10.2046742 0.309843317 0.800000501
v 10.486459 0.309842959 1.53824988
v 10.474864 0.309842959 1.53320288
v 10.2473793 0.309843317 1.10245643
v 11.3356735 0.189842954 0.910000753
v 11.3356736 0.189842954 0.81000073
v 11.3356737 0.54984285 0.910000753
v 11.3356737 0.54984285 0.81000073
v 11.2706736 0.189842954 0.910000753
v 11.2706737 0.54984285 0.910000753
v 11.2706736 0.189842954 0.762500775
v 11.2706737 0.54984285 0.762500775
v 11.2316737 0.189842954 0.762500715
v 11.2316738 0.54984285 0.762500715
v 11.2316738 0.54984285 0.760000718
v 11.2316737 0.189842954 0.760000718
v 11.2739236 0.189842954 0.760000777
v 11.2739237 0.54984285 0.760000777
v 11.2739237 0.54984285 0.81000073
v 11.2739236 0.189842954 0.81000073
v 10.6076741 0.54984285 0.760000598
v 10.6076741 0.54984285 0.762500596
v 10.607674 0.189843193 0.760000598
v 10.607674 0.189843193 0.762500596
v 10.5686741 0.549842969 0.762500536
v 10.568674 0.189843193 0.762500536
v 10.568674 0.189843193 0.910000515
v 10.5686741 0.549842969 0.910000515
v 10.503674 0.189843193 0.910000515
v 10.5036741 0.549842969 0.910000515
v 10.503674 0.189843193 0.810000491
v 10.5036741 0.549842969 0.810000491
v 10.565424 0.189843193 0.810000491
v 10.5654241 0.549842969 0.810000491
v 10.565424 0.189843193 0.760000539
v 10.5654241 0.549842969 0.760000539
v 11.4201735 0.165842787 1.09000061
v 11.4201734 0.133842841 1.06200061
v 11.4201735 0.133842841 0.82000072
v 10.432174 0.165843263 1.09000037
v 10.4321739 0.133843318 1.06200038
v 10.432174 0.133843318 0.820000482
v 10.6076739 0.133843318 0.920000565
v 10.6076739 0.137843266 0.920000565
v 11.2446736 0.13384296 0.920000684
v 11.2446736 0.137843028 0.920000684
v 10.5621739 0.133843318 0.820000482
v 11.2901736 0.13384296 0.82000072
v 10.5621739 0.137843266 0.820000482
v 10.438674 0.137843266 0.820000482
v 11.4136735 0.137843028 0.82000072
v 11.2901736 0.137843028 0.82000072
v 10.4386739 0.137843266 1.06009181
v 11.4136734 0.137843028 1.06009204
v 10.438674 0.164432064 1.08373119
v 11.4136735 0.164431945 1.08373145
vt 0.75999999 -0.432000995
vt 0.75999999 -0.792001009
vt 0.762499988 -0.432000995
vt 0.762499988 -0.432000995
vt 0.75999999 -0.792001009
vt 0.762499988 -0.792001009
vt 0.359649003 -0.792001009
vt 0.359649003 -0.432000995
vt 0.320648998 -0.792001009
vt 0.320648998 -0.792001009
vt 0.359649003 -0.432000995
vt 0.320648998 -0.432000995
vt 0.762499988 -0.432000995
vt 0.762499988 -0.792001009
vt 0.910000026 -0.432000995
vt 0.910000026 -0.432000995
vt 0.762499988 -0.792001009
vt 0.910000026 -0.792001009
vt 0.359649003 -0.432000995
vt 0.359649003 -0.792001009
vt 0.424649 -0.432000995
vt 0.424649 -0.432000995
vt 0.359649003 -0.792001009
vt 0.424649 -0.792001009
vt -0.910000026 -0.432000995
vt -0.910000026 -0.792001009
vt -0.810000002 -0.432000995
vt -0.810000002 -0.432000995
vt -0.910000026 -0.792001009
vt -0.810000002 -0.792001009
vt -0.362899005 -0.792001009
vt -0.362899005 -0.432000995
vt -0.424649 -0.792001009
vt -0.424649 -0.792001009
vt -0.362899005 -0.432000995
vt -0.424649 -0.432000995
vt -0.75999999 -0.792001009
vt -0.75999999 -0.432000995
vt -0.810000002 -0.792001009
vt -0.810000002 -0.792001009
vt -0.75999999 -0.432000995
vt -0.810000002 -0.432000995
vt -0.362899005 -0.432000995
vt -0.362899005 -0.792001009
vt -0.320648998 -0.432000995
vt -0.320648998 -0.432000995
vt -0.362899005 -0.792001009
vt -0.320648998 -0.792001009
vt 0.320648998 0.75999999
vt 0.359649003 0.762499988
vt 0.320648998 0.762499988
vt 0.424649 0.910000026
vt 0.362899005 0.810000002
vt 0.424649 0.810000002
vt 0.362899005 0.810000002
vt 0.359649003 0.762499988
vt 0.362899005 0.75999999
vt 0.362899005 0.75999999
vt 0.359649003 0.762499988
vt 0.320648998 0.75999999
vt 0.424649 0.910000026
vt 0.359649003 0.910000026
vt 0.362899005 0.810000002
vt 0.362899005 0.810000002
vt 0.359649003 0.910000026
vt 0.359649003 0.762499988
vt -0.34235099 -0.432000995
vt -0.407350987 -0.432000995
vt -0.34235099 -0.792001009
vt -0.34235099 -0.792001009
vt -0.407350987 -0.432000995
vt -0.407350987 -0.792001009
vt 0.910000026 -0.432000995
vt 0.810000002 -0.432000995
vt 0.910000026 -0.792001009
vt 0.910000026 -0.792001009
vt 0.810000002 -0.432000995
vt 0.810000002 -0.792001009
vt 0.407350987 -0.432000995
vt 0.345600992 -0.432000995
vt 0.407350987 -0.792001009
vt 0.407350987 -0.792001009
vt 0.345600992 -0.432000995
vt 0.345600992 -0.792001009
vt 0.75999999 -0.792001009
vt 0.810000002 -0.792001009
vt 0.75999999 -0.432000995
vt 0.75999999 -0.432000995
vt 0.810000002 -0.792001009
vt 0.810000002 -0.432000995
vt 0.303351015 -0.792001009
vt 0.345600992 -0.792001009
vt 0.303351015 -0.432000995
vt 0.303351015 -0.432000995
vt 0.345600992 -0.792001009
vt 0.345600992 -0.432000995
vt -0.75999999 -0.432000995
vt -0.762499988 -0.432000995
vt -0.75999999 -0.792001009
vt -0.75999999 -0.792001009
vt -0.762499988 -0.432000995
vt -0.762499988 -0.792001009
vt -0.34235099 -0.792001009
vt -0.303351015 -0.792001009
vt -0.34235099 -0.432000995
vt -0.34235099 -0.432000995
vt -0.303351015 -0.792001009
vt -0.303351015 -0.432000995
vt -0.910000026 -0.792001009
vt -0.762499988 -0.792001009
vt -0.910000026 -0.432000995
vt -0.910000026 -0.432000995
vt -0.762499988 -0.792001009
vt -0.762499988 -0.432000995
vt -0.303351015 0.75999999
vt -0.303351015 0.762499988
vt -0.34235099 0.762499988
vt -0.407350987 0.810000002
vt -0.345600992 0.810000002
vt -0.407350987 0.910000026
vt -0.345600992 0.810000002
vt -0.345600992 0.75999999
vt -0.34235099 0.762499988
vt -0.34235099 0.762499988
vt -0.345600992 0.75999999
vt -0.303351015 0.75999999
vt -0.407350987 0.910000026
vt -0.345600992 0.810000002
vt -0.34235099 0.910000026
vt -0.34235099 0.910000026
vt -0.345600992 0.810000002
vt -0.34235099 0.762499988
vt -0.463649005 1.03999996
vt -0.489648998 0.819999993
vt -0.463649005 0.540000021
vt -0.463649005 0.540000021
vt -0.489648998 0.819999993
vt -0.496149004 0.819999993
vt -0.463649005 0.540000021
vt -0.496149004 0.819999993
vt -0.723649025 0
vt -0.463649005 0.540000021
vt -0.723649025 0
vt 0.446350992 0.540000021
vt 0.446350992 1.03999996
vt 0.446350992 0.540000021
vt 0.485350996 0.819999993
vt 0.446350992 1.03999996
vt 0.485350996 0.819999993
vt 0.485350996 1.08373106
vt 0.446350992 1.03999996
vt 0.485350996 1.08373106
vt -0.463649005 1.03999996
vt -0.712942004 0.952117026
vt -0.496149004 0.819999993
vt -0.496149004 1.09000003
vt 0.485350996 0.819999993
vt 0.446350992 0.540000021
vt 0.491851002 0.819999993
vt -0.628031015 1.24925804
vt -0.496149004 1.09000003
vt 0.491851002 1.09000003
vt 0.446350992 0.540000021
vt -0.723649025 0
vt 0.77135098 0
vt 0.446350992 0.540000021
vt 0.77135098 0
vt 0.491851002 0.819999993
vt 0.77135098 0
vt 0.77135098 1.48010194
vt 0.491851002 0.819999993
vt 0.77135098 1.48010194
vt 0.491851002 1.09000003
vt 0.491851002 0.819999993
vt 0.485350996 1.08373106
vt -0.489648998 1.08373106
vt -0.463649005 1.03999996
vt -0.463649005 1.03999996
vt -0.489648998 1.08373106
vt -0.489648998 0.819999993
vt -0.628031015 1.24925804
vt 0.491851002 1.09000003
vt -0.554820001 1.39080703
vt -0.554820001 1.39080703
vt 0.491851002 1.09000003
vt -0.428737015 1.53999996
vt -0.554820001 1.39080703
vt -0.428737015 1.53999996
vt -0.462168992 1.52544796
vt -0.428737015 1.53999996
vt 0.491851002 1.09000003
vt 0.706350982 1.53999996
vt 0.706350982 1.53999996
vt 0.491851002 1.09000003
vt 0.77135098 1.48010194
vt -0.712942004 0.952117026
vt -0.723649025 0.800000012
vt -0.496149004 0.819999993
vt -0.496149004 0.819999993
vt -0.723649025 0.800000012
vt -0.723649025 0
vt -0.441864014 1.53824997
vt -0.453458995 1.53320301
vt -0.428737015 1.53999996
vt -0.428737015 1.53999996
vt -0.453458995 1.53320301
vt -0.462168992 1.52544796
vt -0.628031015 1.24925804
vt -0.680944026 1.10245597
vt -0.496149004 1.09000003
vt -0.496149004 1.09000003
vt -0.680944026 1.10245597
vt -0.712942004 0.952117026
vt 0.910000026 0.791998982
vt 0.810000002 0.791998982
vt 0.910000026 0.431998998
vt 0.910000026 0.431998998
vt 0.810000002 0.791998982
vt 0.810000002 0.431998998
vt -0.34235099 0.791998982
vt -0.407350987 0.791998982
vt -0.34235099 0.431998998
vt -0.34235099 0.431998998
vt -0.407350987 0.791998982
vt -0.407350987 0.431998998
vt -0.762499988 0.791998982
vt -0.910000026 0.791998982
vt -0.762499988 0.431998998
vt -0.762499988 0.431998998
vt -0.910000026 0.791998982
vt -0.910000026 0.431998998
vt -0.303351015 0.791998982
vt -0.34235099 0.791998982
vt -0.303351015 0.431998998
vt -0.303351015 0.431998998
vt -0.34235099 0.791998982
vt -0.34235099 0.431998998
vt -0.762499988 0.431998998
vt -0.75999999 0.431998998
vt -0.762499988 0.791998982
vt -0.762499988 0.791998982
vt -0.75999999 0.431998998
vt -0.75999999 0.791998982
vt 0.345600992 0.791998982
vt 0.303351015 0.791998982
vt 0.345600992 0.431998998
vt 0.345600992 0.431998998
vt 0.303351015 0.791998982
vt 0.303351015 0.431998998
vt 0.75999999 0.431998998
vt 0.810000002 0.431998998
vt 0.75999999 0.791998982
vt 0.75999999 0.791998982
vt 0.810000002 0.431998998
vt 0.810000002 0.791998982
vt 0.75999999 0.431998998
vt 0.762499988 0.431998998
vt 0.75999999 0.791998982
vt 0.75999999 0.791998982
vt 0.762499988 0.431998998
vt 0.762499988 0.791998982
vt 0.320648998 0.431998998
vt 0.359649003 0.431998998
vt 0.320648998 0.791998982
vt 0.320648998 0.791998982
vt 0.359649003 0.431998998
vt 0.359649003 0.791998982
vt 0.910000026 0.791998982
vt 0.762499988 0.791998982
vt 0.910000026 0.431998998
vt 0.910000026 0.431998998
vt 0.762499988 0.791998982
vt 0.762499988 0.431998998
vt 0.424649 0.791998982
vt 0.359649003 0.791998982
vt 0.424649 0.431998998
vt 0.424649 0.431998998
vt 0.359649003 0.791998982
vt 0.359649003 0.431998998
vt -0.810000002 0.791998982
vt -0.910000026 0.791998982
vt -0.810000002 0.431998998
vt -0.810000002 0.431998998
vt -0.910000026 0.791998982
vt -0.910000026 0.431998998
vt -0.362899005 0.791998982
vt -0.424649 0.791998982
vt -0.362899005 0.431998998
vt -0.362899005 0.431998998
vt -0.424649 0.791998982
vt -0.424649 0.431998998
vt -0.75999999 0.791998982
vt -0.810000002 0.791998982
vt -0.75999999 0.431998998
vt -0.75999999 0.431998998
vt -0.810000002 0.791998982
vt -0.810000002 0.431998998
vt -0.320648998 0.791998982
vt -0.362899005 0.791998982
vt -0.320648998 0.431998998
vt -0.320648998 0.431998998
vt -0.362899005 0.791998982
vt -0.362899005 0.431998998
vt 0.345600992 0.431998998
vt 0.407350987 0.431998998
vt 0.345600992 0.791998982
vt 0.345600992 0.791998982
vt 0.407350987 0.431998998
vt 0.407350987 0.791998982
vt -0.320648998 0.762499988
vt -0.359649003 0.762499988
vt -0.320648998 0.75999999
vt -0.424649 0.910000026
vt -0.424649 0.810000002
vt -0.362899005 0.810000002
vt -0.320648998 0.75999999
vt -0.359649003 0.762499988
vt -0.362899005 0.75999999
vt -0.362899005 0.75999999
vt -0.359649003 0.762499988
vt -0.362899005 0.810000002
vt -0.424649 0.910000026
vt -0.362899005 0.810000002
vt -0.359649003 0.910000026
vt -0.359649003 0.910000026
vt -0.362899005 0.810000002
vt -0.359649003 0.762499988
vt 0.407350987 0.810000002
vt 0.407350987 0.910000026
vt 0.345600992 0.810000002
vt 0.303351015 0.762499988
vt 0.303351015 0.75999999
vt 0.34235099 0.762499988
vt 0.345600992 0.810000002
vt 0.34235099 0.762499988
vt 0.345600992 0.75999999
vt 0.345600992 0.75999999
vt 0.34235099 0.762499988
vt 0.303351015 0.75999999
vt 0.34235099 0.762499988
vt 0.345600992 0.810000002
vt 0.34235099 0.910000026
vt 0.34235099 0.910000026
vt 0.345600992 0.810000002
vt 0.407350987 0.910000026
vt 1.09000003 0.671998978
vt 1.09000003 0.815998971
vt 0.819999993 0.671998978
vt 1.09000003 0.815998971
vt 1.06200004 0.847998977
vt 0.819999993 0.671998978
vt 0.819999993 0.671998978
vt 1.06200004 0.847998977
vt 0.819999993 0.847998977
vt -0.491851002 0.671998978
vt 0.496149004 0.671998978
vt -0.491851002 0.815998971
vt -0.491851002 0.815998971
vt 0.496149004 0.671998978
vt 0.496149004 0.815998971
vt -1.06200004 0.847998977
vt -0.819999993 0.671998978
vt -0.819999993 0.847998977
vt -1.09000003 0.671998978
vt -0.819999993 0.671998978
vt -1.09000003 0.815998971
vt -1.09000003 0.815998971
vt -0.819999993 0.671998978
vt -1.06200004 0.847998977
vt -0.320648998 0.847998977
vt -0.320648998 0.843999028
vt 0.316350996 0.847998977
vt 0.316350996 0.847998977
vt -0.320648998 0.843999028
vt 0.316350996 0.843999028
vt -0.496149004 0.819999993
vt -0.366149008 0.819999993
vt -0.320648998 0.920000017
vt -0.496149004 1.06200004
vt -0.496149004 0.819999993
vt -0.320648998 0.920000017
vt 0.316350996 0.920000017
vt -0.496149004 1.06200004
vt -0.320648998 0.920000017
vt 0.491851002 0.819999993
vt 0.316350996 0.920000017
vt 0.361851007 0.819999993
vt 0.491851002 0.819999993
vt 0.491851002 1.06200004
vt 0.316350996 0.920000017
vt 0.316350996 0.920000017
vt 0.491851002 1.06200004
vt -0.496149004 1.06200004
vt 0.366149008 0.819999993
vt 0.489648998 0.819999993
vt 0.320648998 0.920000017
vt -0.485350996 0.819999993
vt -0.361851007 0.819999993
vt -0.316350996 0.920000017
vt 0.489648998 1.06009102
vt 0.320648998 0.920000017
vt 0.489648998 0.819999993
vt 0.489648998 1.06009102
vt -0.316350996 0.920000017
vt 0.320648998 0.920000017
vt -0.485350996 0.819999993
vt -0.316350996 0.920000017
vt -0.485350996 1.06009102
vt -0.485350996 1.06009102
vt -0.316350996 0.920000017
vt 0.489648998 1.06009102
vt -0.489648998 0.843999028
vt -0.489648998 0.817409992
vt 0.485350996 0.843999028
vt 0.485350996 0.843999028
vt -0.489648998 0.817409992
vt 0.485350996 0.817409992
vt 0.485350996 0.671998978
vt 0.485350996 0.817409992
vt -0.489648998 0.671998978
vt -0.489648998 0.671998978
vt 0.485350996 0.817409992
vt -0.489648998 0.817409992
vt -1.08373106 0.671998978
vt -0.819999993 0.671998978
vt -1.08373106 0.817409992
vt -1.06009102 0.843999028
vt -0.819999993 0.671998978
vt -0.819999993 0.843999028
vt -1.08373106 0.817409992
vt -0.819999993 0.671998978
vt -1.06009102 0.843999028
vt 0.819999993 0.671998978
vt 1.06009102 0.843999028
vt 0.819999993 0.843999028
vt 1.08373106 0.817409992
vt 1.06009102 0.843999028
vt 0.819999993 0.671998978
vt 1.08373106 0.671998978
vt 1.08373106 0.817409992
vt 0.819999993 0.671998978
vt 0.496149004 0.847998977
vt -0.491851002 0.847998977
vt 0.496149004 0.815998971
vt 0.496149004 0.815998971
vt -0.491851002 0.847998977
vt -0.491851002 0.815998971
vt 0.485350996 0.843999028
vt 0.361851007 0.847998977
vt 0.361851007 0.843999028
vt 0.485350996 0.671998978
vt 0.491851002 0.671998978
vt 0.485350996 0.843999028
vt 0.361851007 0.847998977
vt 0.485350996 0.843999028
vt 0.491851002 0.847998977
vt 0.491851002 0.847998977
vt 0.485350996 0.843999028
vt 0.491851002 0.671998978
vt -0.366149008 0.847998977
vt -0.489648998 0.843999028
vt -0.366149008 0.843999028
vt -0.489648998 0.671998978
vt -0.489648998 0.843999028
vt -0.496149004 0.671998978
vt -0.366149008 0.847998977
vt -0.496149004 0.847998977
vt -0.489648998 0.843999028
vt -0.489648998 0.843999028
vt -0.496149004 0.847998977
vt -0.496149004 0.671998978
vt 0.819999993 0.843999028
vt 0.920000017 0.843999028
vt 0.819999993 0.847998977
vt 0.819999993 0.847998977
vt 0.920000017 0.843999028
vt 0.920000017 0.847998977
vt -0.920000017 0.847998977
vt -0.920000017 0.843999028
vt -0.819999993 0.847998977
vt -0.819999993 0.847998977
vt -0.920000017 0.843999028
vt -0.819999993 0.843999028
f 1/1 2/2 3/3
f 3/4 2/5 4/6
f 5/7 6/8 4/9
f 4/10 6/11 3/12
f 6/13 5/14 7/15
f 7/16 5/17 8/18
f 7/19 8/20 9/21
f 9/22 8/23 10/24
f 9/25 10/26 11/27
f 11/28 10/29 12/30
f 13/31 14/32 12/33
f 12/34 14/35 11/36
f 15/37 16/38 13/39
f 13/40 16/41 14/42
f 16/43 15/44 1/45
f 1/46 15/47 2/48
f 2/49 5/50 4/51
f 10/52 13/53 12/54
f 13/55 5/56 15/57
f 15/58 5/59 2/60
f 10/61 8/62 13/63
f 13/64 8/65 5/66
f 17/67 18/68 19/69
f 19/70 18/71 20/72
f 18/73 21/74 20/75
f 20/76 21/77 22/78
f 21/79 23/80 22/81
f 22/82 23/83 24/84
f 25/85 24/86 26/87
f 26/88 24/89 23/90
f 27/91 25/92 28/93
f 28/94 25/95 26/96
f 28/97 29/98 27/99
f 27/100 29/101 30/102
f 31/103 30/104 32/105
f 32/106 30/107 29/108
f 19/109 31/110 17/111
f 17/112 31/113 32/114
f 27/115 30/116 31/117
f 22/118 24/119 20/120
f 24/121 25/122 31/123
f 31/124 25/125 27/126
f 20/127 24/128 19/129
f 19/130 24/131 31/132
f 33/133 34/134 35/135
f 35/136 34/137 36/138
f 35/139 36/140 37/141
f 35/142 37/143 38/144
f 39/145 38/146 40/147
f 39/148 40/149 41/150
f 39/151 41/152 33/153
f 42/154 36/155 43/156
f 40/157 38/158 44/159
f 45/160 43/161 46/162
f 38/163 37/164 47/165
f 38/166 47/167 44/168
f 47/169 48/170 44/171
f 48/172 46/173 44/174
f 41/175 49/176 33/177
f 33/178 49/179 34/180
f 45/181 46/182 50/183
f 50/184 46/185 51/186
f 50/187 51/188 52/189
f 51/190 46/191 53/192
f 53/193 46/194 48/195
f 42/196 54/197 36/198
f 36/199 54/200 37/201
f 55/202 56/203 51/204
f 51/205 56/206 52/207
f 45/208 57/209 43/210
f 43/211 57/212 42/213
f 58/214 59/215 60/216
f 60/217 59/218 61/219
f 62/220 58/221 63/222
f 63/223 58/224 60/225
f 64/226 62/227 65/228
f 65/229 62/230 63/231
f 66/232 64/233 67/234
f 67/235 64/236 65/237
f 67/238 68/239 66/240
f 66/241 68/242 69/243
f 70/244 69/245 71/246
f 71/247 69/248 68/249
f 71/250 72/251 70/252
f 70/253 72/254 73/255
f 74/256 75/257 76/258
f 76/259 75/260 77/261
f 75/262 78/263 77/264
f 77/265 78/266 79/267
f 80/268 79/269 81/270
f 81/271 79/272 78/273
f 82/274 80/275 83/276
f 83/277 80/278 81/279
f 84/280 82/281 85/282
f 85/283 82/284 83/285
f 86/286 84/287 87/288
f 87/289 84/290 85/291
f 88/292 86/293 89/294
f 89/295 86/296 87/297
f 76/298 88/299 74/300
f 74/301 88/302 89/303
f 72/304 61/305 73/306
f 73/307 61/308 59/309
f 77/310 79/311 76/312
f 82/313 84/314 86/315
f 76/316 79/317 88/318
f 88/319 79/320 86/321
f 82/322 86/323 80/324
f 80/325 86/326 79/327
f 59/328 58/329 73/330
f 66/331 69/332 64/333
f 73/334 64/335 70/336
f 70/337 64/338 69/339
f 64/340 73/341 62/342
f 62/343 73/344 58/345
f 46/346 90/347 44/348
f 90/349 91/350 44/351
f 44/352 91/353 92/354
f 46/355 43/356 90/357
f 90/358 43/359 93/360
f 94/361 36/362 95/363
f 43/364 36/365 93/366
f 93/367 36/368 94/369
f 96/370 97/371 98/372
f 98/373 97/374 99/375
f 95/376 100/377 96/378
f 94/379 95/380 96/381
f 98/382 94/383 96/384
f 92/385 98/386 101/387
f 92/388 91/389 98/390
f 98/391 91/392 94/393
f 102/394 103/395 97/396
f 104/397 105/398 99/399
f 106/400 97/401 103/402
f 106/403 99/404 97/405
f 104/406 99/407 107/408
f 107/409 99/410 106/411
f 106/412 108/413 107/414
f 107/415 108/416 109/417
f 41/418 109/419 49/420
f 49/421 109/422 108/423
f 41/424 40/425 109/426
f 107/427 40/428 104/429
f 109/430 40/431 107/432
f 34/433 106/434 103/435
f 108/436 106/437 34/438
f 49/439 108/440 34/441
f 94/442 91/443 93/444
f 93/445 91/446 90/447
f 104/448 101/449 105/450
f 40/451 44/452 104/453
f 101/454 104/455 92/456
f 92/457 104/458 44/459
f 100/460 103/461 102/462
f 34/463 103/464 36/465
f 100/466 95/467 103/468
f 103/469 95/470 36/471
f 102/472 97/473 100/474
f 100/475 97/476 96/477
f 98/478 99/479 101/480
f 101/481 99/482 105/483
