# Exported from USD for MuJoCo with source material subsets
v -9.86315212 -2.28448482 0.537892574
v -11.4633572 -2.28448435 0.537892276
v -9.86315218 -2.28318306 1.26235563
v -11.4633574 -2.28318258 1.26235539
v -11.6807555 -3.47287842 1.26669316
v -11.6807556 -3.47225972 1.6110877
v -11.6807553 -2.74127706 1.26537846
v -11.6807554 -2.74065824 1.60977286
v -9.86315278 -3.93099209 1.25960905
v -11.4633579 -3.93099185 1.25960881
v -9.86315266 -3.93228384 0.540853852
v -11.4633578 -3.93228312 0.540853495
v -9.64575491 -3.47287913 1.26669365
v -9.64575455 -2.74127777 1.26537895
v -9.64575503 -3.47226044 1.61108818
v -9.64575467 -2.74065896 1.60977336
vt -0.729645014 0.76195401
vt 0.725085974 0.76195401
vt -0.729645014 1.41580498
vt -0.729645014 1.41580498
vt 0.725085974 0.76195401
vt 0.725085974 1.41580498
vt 0.48417899 1.28810096
vt 0.521722019 1.59892797
vt -0.176115006 1.36785305
vt -0.176115006 1.36785305
vt 0.521722019 1.59892797
vt -0.138572007 1.67867994
vt 0.729645014 1.23102605
vt -0.725085974 1.23102605
vt 0.729645014 0.582325995
vt 0.729645014 0.582325995
vt -0.725085974 1.23102605
vt -0.725085974 0.582325995
vt -0.48417899 1.28810096
vt 0.176115006 1.36785305
vt -0.521722019 1.59892797
vt -0.521722019 1.59892797
vt 0.176115006 1.36785305
vt 0.138572007 1.67867994
f 1/1 2/2 3/3
f 3/4 2/5 4/6
f 5/7 6/8 7/9
f 7/10 6/11 8/12
f 9/13 10/14 11/15
f 11/16 10/17 12/18
f 13/19 14/20 15/21
f 15/22 14/23 16/24
