# Exported from USD for MuJoCo with source material subsets
v 0.827758438 -4.58846169 1.02976689
v 0.849758453 -4.58846169 1.02976689
v 0.827758468 -4.58846193 0.864767022
v 0.849758483 -4.58846193 0.864767022
v 1.20055998 -4.58846193 0.809767074
v 1.02455992 -4.58846193 0.864767022
v 1.20055992 -4.58846193 0.952767078
v 1.02455992 -4.58846193 1.02976702
v 1.10879493 -4.58846193 1.02976702
v 0.822258479 -4.58846193 0.864767022
v 0.800258494 -4.58846193 0.864767022
v 0.822258449 -4.58846169 1.02976689
v 0.800258464 -4.58846169 1.02976689
v 0.320559963 -4.58846169 0.809766895
v 0.496559969 -4.58846169 0.864766895
v 0.320559933 -4.58846169 0.952766895
v 0.496559917 -4.58846169 1.02976689
v 0.41232492 -4.58846169 1.02976689
v 0.800258017 -5.9084621 1.02976738
v 0.800258047 -5.9084621 0.864767506
v 0.822258032 -5.9084621 1.02976738
v 0.822258062 -5.9084621 0.864767506
v 1.20055962 -5.9084621 0.809767566
v 0.827758051 -5.9084621 0.864767506
v 0.849758065 -5.9084621 0.864767506
v 0.849758036 -5.9084621 1.02976738
v 0.827758021 -5.9084621 1.02976738
v 1.02455956 -5.9084621 0.864767506
v 1.20055956 -5.9084621 0.952767566
v 1.0245595 -5.9084621 1.02976751
v 1.10879446 -5.9084621 1.02976751
v 0.320559538 -5.9084621 0.809767387
v 0.496559537 -5.9084621 0.864767379
v 0.320559508 -5.90846163 0.952767383
v 0.496559492 -5.90846163 1.02976738
v 0.412324492 -5.90846163 1.02976738
v 0.836832917 -5.42977815 1.02976726
v 0.842609323 -5.42977815 1.02976726
v 0.84233076 -5.44552809 1.02976726
v 0.83711145 -5.44552809 1.02976726
v 0.813523418 -5.44552809 1.02976726
v 0.808188952 -5.44552809 1.02976726
v 0.807543731 -5.43006855 1.02976726
v 0.813415415 -5.43006855 1.02976726
vt -0.162940994 0.932968974
vt -0.182941005 0.932968974
vt -0.162940994 0.782968998
vt -0.162940994 0.782968998
vt -0.182941005 0.932968974
vt -0.182941005 0.782968998
vt -0.162940994 0.782968998
vt -0.182941005 0.782968998
vt -0.501851022 0.732968986
vt -0.501851022 0.732968986
vt -0.182941005 0.782968998
vt -0.341850996 0.782968998
vt -0.501851022 0.732968986
vt -0.341850996 0.782968998
vt -0.501851022 0.862968981
vt -0.501851022 0.862968981
vt -0.341850996 0.782968998
vt -0.341850996 0.932968974
vt -0.501851022 0.862968981
vt -0.341850996 0.932968974
vt -0.418428004 0.932968974
vt -0.162940994 0.782968998
vt -0.501851022 0.732968986
vt -0.157940999 0.782968998
vt -0.157940999 0.782968998
vt -0.501851022 0.732968986
vt -0.137941003 0.782968998
vt -0.157940999 0.782968998
vt -0.137941003 0.782968998
vt -0.157940999 0.932968974
vt -0.157940999 0.932968974
vt -0.137941003 0.782968998
vt -0.137941003 0.932968974
vt -0.501851022 0.732968986
vt 0.29814899 0.732968986
vt -0.137941003 0.782968998
vt -0.599999011 0.782968998
vt -0.599999011 0.732968986
vt -0.599999011 0.732968986
vt -0.137941003 0.782968998
vt 0.29814899 0.732968986
vt 0.138148993 0.782968998
vt 0.138148993 0.782968998
vt 0.29814899 0.732968986
vt 0.29814899 0.862968981
vt 0.138148993 0.782968998
vt 0.29814899 0.862968981
vt 0.138148993 0.932968974
vt 0.138148993 0.932968974
vt 0.29814899 0.862968981
vt 0.214726001 0.932968974
vt 0.137941003 0.932968974
vt 0.137941003 0.782968998
vt 0.157940999 0.932968974
vt 0.600000978 0.932968974
vt 0.600000978 0.782968998
vt 0.600000978 0.782968998
vt 0.157940999 0.932968974
vt 0.137941003 0.782968998
vt 0.157940999 0.782968998
vt 0.157940999 0.782968998
vt 0.137941003 0.782968998
vt 0.501851022 0.732968986
vt 0.157940999 0.782968998
vt 0.501851022 0.732968986
vt 0.162940994 0.782968998
vt 0.162940994 0.782968998
vt 0.501851022 0.732968986
vt 0.182941005 0.782968998
vt 0.600000978 0.782968998
vt 0.600000978 0.782968998
vt 0.600000978 0.782968998
vt 0.162940994 0.782968998
vt 0.182941005 0.782968998
vt 0.182941005 0.932968974
vt 0.162940994 0.782968998
vt 0.182941005 0.932968974
vt 0.162940994 0.932968974
vt 0.182941005 0.782968998
vt 0.501851022 0.732968986
vt 0.341850996 0.782968998
vt 0.341850996 0.782968998
vt 0.501851022 0.732968986
vt 0.501851022 0.862968981
vt 0.341850996 0.782968998
vt 0.501851022 0.862968981
vt 0.341850996 0.932968974
vt 0.341850996 0.932968974
vt 0.501851022 0.862968981
vt 0.418428004 0.932968974
vt 0.501851022 0.732968986
vt 0.137941003 0.782968998
vt -0.29814899 0.732968986
vt -0.29814899 0.732968986
vt 0.137941003 0.782968998
vt -0.138148993 0.782968998
vt -0.29814899 0.732968986
vt -0.138148993 0.782968998
vt -0.29814899 0.862968981
vt -0.29814899 0.862968981
vt -0.138148993 0.782968998
vt -0.138148993 0.932968974
vt -0.29814899 0.862968981
vt -0.138148993 0.932968974
vt -0.214726001 0.932968974
vt 0.162940994 -0.600000978
vt 0.171189994 -0.164833993
vt 0.162940994 0.599999011
vt -0.599999011 0.932968974
vt 0.164833993 0.932968974
vt 0.164833993 0.932968974
vt 0.162940994 0.599999011
vt 0.171189994 -0.164833993
vt 0.182941005 0.599999011
vt 0.182941005 0.599999011
vt 0.171189994 -0.164833993
vt 0.176441997 -0.164833993
vt 0.182941005 0.599999011
vt 0.176441997 -0.164833993
vt 0.182941005 -0.600000978
vt 0.182941005 -0.600000978
vt 0.176441997 -0.164833993
vt 0.176188007 -0.179151997
vt 0.182941005 -0.600000978
vt 0.176188007 -0.179151997
vt 0.171443999 -0.179151997
vt 0.171443999 -0.179151997
vt 0.176188007 -0.179151997
vt 0.176441997 -0.164833993
vt 0.179151997 0.932968974
vt 0.164833993 0.932968974
vt 0.179151997 0.932968974
vt 0.171443999 -0.179151997
vt 0.176441997 -0.164833993
vt 0.171189994 -0.164833993
vt 0.179151997 0.932968974
vt 0.164833993 0.932968974
vt 0.179151997 0.932968974
vt 0.171443999 -0.179151997
vt 0.171189994 -0.164833993
vt 0.162940994 -0.600000978
vt 0.171443999 -0.179151997
vt 0.162940994 -0.600000978
vt 0.182941005 -0.600000978
vt 0.157940999 0.599999011
vt 0.150000006 -0.179151997
vt 0.157940999 -0.600000978
vt 0.600000978 0.932968974
vt 0.179151997 0.932968974
vt 0.179151997 0.932968974
vt 0.157940999 -0.600000978
vt 0.150000006 -0.179151997
vt 0.137941003 -0.600000978
vt 0.137941003 -0.600000978
vt 0.150000006 -0.179151997
vt 0.145150006 -0.179151997
vt 0.137941003 -0.600000978
vt 0.145150006 -0.179151997
vt 0.144564003 -0.165097997
vt 0.144564003 -0.165097997
vt 0.145150006 -0.179151997
vt 0.149902001 -0.165097997
vt 0.144564003 -0.165097997
vt 0.149902001 -0.165097997
vt 0.137941003 0.599999011
vt -0.599999011 0.932968974
vt 0.165097997 0.932968974
vt 0.165097997 0.932968974
vt 0.137941003 0.599999011
vt 0.149902001 -0.165097997
vt 0.157940999 0.599999011
vt -0.599999011 0.932968974
vt 0.165097997 0.932968974
vt 0.165097997 0.932968974
vt 0.157940999 0.599999011
vt 0.149902001 -0.165097997
vt 0.150000006 -0.179151997
vt 0.150000006 -0.179151997
vt 0.149902001 -0.165097997
vt 0.145150006 -0.179151997
vt 0.144564003 -0.165097997
vt 0.137941003 0.599999011
vt 0.137941003 -0.600000978
f 1/1 2/2 3/3
f 3/4 2/5 4/6
f 3/7 4/8 5/9
f 5/10 4/11 6/12
f 5/13 6/14 7/15
f 7/16 6/17 8/18
f 7/19 8/20 9/21
f 3/22 5/23 10/24
f 10/25 5/26 11/27
f 10/28 11/29 12/30
f 12/31 11/32 13/33
f 5/34 14/35 11/36
f 11/37 14/38 14/39
f 11/40 14/41 15/42
f 15/43 14/44 16/45
f 15/46 16/47 17/48
f 17/49 16/50 18/51
f 19/52 20/53 21/54
f 21/55 20/56 20/57
f 21/58 20/59 22/60
f 22/61 20/62 23/63
f 22/64 23/65 24/66
f 24/67 23/68 25/69
f 24/70 25/71 24/72
f 24/73 25/74 26/75
f 24/76 26/77 27/78
f 25/79 23/80 28/81
f 28/82 23/83 29/84
f 28/85 29/86 30/87
f 30/88 29/89 31/90
f 23/91 20/92 32/93
f 32/94 20/95 33/96
f 32/97 33/98 34/99
f 34/100 33/101 35/102
f 34/103 35/104 36/105
f 27/106 37/107 1/108
f 1/109 37/110 37/111
f 1/112 37/113 2/114
f 2/115 37/116 38/117
f 2/118 38/119 26/120
f 26/121 38/122 39/123
f 26/124 39/125 40/126
f 40/127 39/128 38/129
f 40/130 38/131 40/132
f 40/133 38/134 37/135
f 40/136 37/137 40/138
f 40/139 37/140 27/141
f 40/142 27/143 26/144
f 12/145 41/146 21/147
f 21/148 41/149 41/150
f 21/151 41/152 19/153
f 19/154 41/155 42/156
f 19/157 42/158 43/159
f 43/160 42/161 44/162
f 43/163 44/164 13/165
f 13/166 44/167 44/168
f 13/169 44/170 12/171
f 12/172 44/173 44/174
f 12/175 44/176 41/177
f 41/178 44/179 42/180
f 43/181 13/182 19/183
