# Exported from USD for MuJoCo with source material subsets
v -14.8723491 -1.73280752 0.181147689
v -14.8723491 -1.73280752 0.0711476746
v -14.7623491 -1.73280752 0.181147689
v -14.7623491 -1.73280752 0.0711476746
v -16.6378111 -1.81558943 1.46675896
v -16.637811 -1.81558943 1.1868455
v -16.6400111 -1.81558943 1.46675896
v -16.6400109 -1.81558943 1.1868455
v -16.637811 -1.42154813 1.46675896
v -16.6400109 -1.42154813 1.46675896
v -16.6378108 -1.42154813 1.1868455
v -16.6400109 -1.42154813 1.1868455
v -15.8267684 -2.66780705 1.85270917
v -15.8297255 -2.66780705 1.8525573
v -15.8267684 -2.55780715 1.85270917
v -15.8297255 -2.55780715 1.8525573
v -16.6492972 -1.39842839 1.09575138
v -16.6492972 -1.39842839 1.09355144
v -16.8364381 -1.39842833 1.09575138
v -16.8364381 -1.39842833 1.09355144
v -16.6492973 -1.83574075 1.09575138
v -16.6492973 -1.83574075 1.09355144
v -15.8232779 -2.55780715 1.8528527
v -15.8232779 -2.66780705 1.8528527
v -16.8364384 -1.83574069 1.09575138
v -16.8364384 -1.83574069 1.09355144
v -16.871011 -1.86300916 1.09355144
v -16.8710108 -1.36800913 1.09355144
v -16.871011 -1.86300916 1.07155144
v -16.8710107 -1.36800913 1.07155144
v -16.5960109 -1.36800921 1.07155144
v -16.5960109 -1.36800921 1.09355144
v -16.596011 -1.86300928 1.07155144
v -16.5960109 -1.49707348 1.09355144
v -16.5960109 -1.73615319 1.09355144
v -16.596011 -1.86300928 1.09355144
v -16.596011 -1.83891529 1.15955131
v -16.5960109 -1.73615319 1.15955131
v -16.5960111 -1.83891529 1.4895513
v -16.5960109 -1.61434669 1.14855131
v -16.596011 -1.39891533 1.4895513
v -16.5960109 -1.56870252 1.14855131
v -16.5960109 -1.49707348 1.15955131
v -16.5960109 -1.56870252 1.12655144
v -16.5960109 -1.61434669 1.12655144
v -16.5960109 -1.39891533 1.15955131
v -16.6400109 -1.83891529 1.15955131
v -16.6400111 -1.83891529 1.4895513
v -16.6400334 -1.73615319 1.15955131
v -16.6400109 -1.39891533 1.4895513
v -16.6400109 -1.39891533 1.15955131
v -16.6400109 -1.49707348 1.15955131
v -16.3027984 -1.64960748 1.14855144
v -16.3145018 -1.69202245 1.14855144
v -16.3027984 -1.64960748 1.12655156
v -16.3145018 -1.69202245 1.12655156
v -15.8151395 -1.67780722 1.85967689
v -15.8118922 -1.67780722 1.85579448
v -15.8183887 -1.67780722 1.85579448
v -15.8151098 -1.67780722 1.8520475
v -15.8265375 -1.67780722 1.85558366
v -15.8232776 -1.67780722 1.8528527
v -15.8267681 -1.67780722 1.85270917
v -15.8297251 -1.67780722 1.8525573
v -15.8543156 -1.67780722 1.85380291
v -15.8543156 -1.67780722 1.85121661
v -15.7788922 -1.67780722 1.85319328
v -15.7788922 -1.67780722 1.85579448
v -15.7788925 -2.55780715 1.85579448
v -15.7788926 -2.66780705 1.85579448
v -15.7788925 -2.55780715 1.85319328
v -15.7788926 -2.66780705 1.85319328
v -15.8118925 -2.55780715 1.85579448
v -15.8151101 -2.55780715 1.8520475
v -15.8183889 -2.55780715 1.85579448
v -15.8265377 -2.55780715 1.85558366
v -15.8543158 -2.55780715 1.85380291
v -15.8543158 -2.55780715 1.85121661
v -15.8151416 -2.55780715 1.85967689
v -15.8118925 -2.66780705 1.85579448
v -15.8151101 -2.66780705 1.8520475
v -15.8183889 -2.66780705 1.85579448
v -15.8265378 -2.66780705 1.85558366
v -15.8543159 -2.66780705 1.85380291
v -15.8543159 -2.66780705 1.85121661
v -15.8151416 -2.66780705 1.85967689
v -16.2473494 -1.62280709 1.05179154
v -16.2462494 -1.62280709 1.05179154
v -16.2473494 -1.62280709 0.840941215
v -14.7623493 -1.62280757 0.840941632
v -16.2466167 -1.62280709 1.05314628
v -15.814626 -1.62280721 1.85178577
v -14.7623495 -1.62280757 1.85314774
v -15.8145598 -1.62280721 1.8531475
v -15.8297252 -1.78780723 1.8525573
v -15.8267681 -1.78780723 1.85270917
v -15.8232776 -1.78780723 1.8528527
v -15.8151098 -1.62280721 1.8531475
v -15.8151098 -1.84280724 1.8531475
v -15.8151098 -1.78780723 1.8520475
v -15.8543156 -1.78780723 1.85121661
v -15.9622356 -1.84280718 1.84032648
v -15.9622356 -1.62280721 1.84032648
v -16.1063155 -1.84280712 1.812496
v -16.1063155 -1.62280709 1.812496
v -16.2473497 -1.84280712 1.76965618
v -16.2473497 -1.62280709 1.76965618
v -14.8723491 -1.62280751 0.181147689
v -14.8723491 -1.62280751 0.0711476746
v -16.2473497 -2.72280711 0.840831215
v -14.7623497 -2.72280747 0.840831662
v -16.2473494 -1.62280709 0.840831215
v -14.7623493 -1.62280757 0.840831662
v -14.7623491 -1.62280757 0.0711476746
v -16.1373492 -1.62280709 0.181147451
v -16.2473491 -1.62280709 0.0711474362
v -16.1373492 -1.62280709 0.0711474362
v -16.2473495 -2.61188394 0.295423025
v -16.2418495 -2.61188394 0.295423025
v -16.2473497 -2.61188394 0.762829686
v -16.2418497 -2.61188394 0.762829686
v -16.2473493 -1.73486907 0.295423025
v -16.2418493 -1.73486907 0.295423025
v -16.1373492 -1.73280711 0.181147451
v -14.8723494 -2.61280746 0.181147689
v -16.1373495 -2.6128071 0.181147451
v -14.8723494 -2.72280747 0.181147689
v -16.1373495 -2.72280711 0.181147451
v -16.2473492 -1.73280711 0.181147451
v -16.2473495 -2.6128071 0.181147451
v -14.7623493 -2.61280746 0.181147689
v -15.8151101 -2.50280721 1.8531475
v -15.8151101 -2.72280711 1.8531475
v -15.962236 -2.72280711 1.84032648
v -15.9622359 -2.50280721 1.84032648
v -16.1063158 -2.72280711 1.812496
v -16.1063157 -2.50280709 1.812496
v -16.24735 -2.72280711 1.76965618
v -16.2473499 -2.50280709 1.76965618
v -16.1373492 -1.73280711 0.0711474362
v -15.8543156 -1.78780723 1.85380291
v -15.8265375 -1.78780723 1.85558366
v -15.8183887 -1.78780723 1.85579448
v -15.8118923 -1.78780723 1.85579448
v -15.8151414 -1.78780723 1.85967689
v -15.7788923 -1.78780723 1.85319328
v -15.7788923 -1.78780723 1.85579448
v -16.2473497 -1.84280712 1.85314738
v -16.2473498 -2.72280711 1.05294755
v -16.2473497 -2.22879726 1.10255119
v -16.2473497 -2.23132176 1.09634733
v -16.2473497 -2.22880692 1.09015117
v -16.2473497 -2.22265453 1.0875474
v -16.2473494 -1.62390709 1.05294755
v -16.2473496 -2.12272889 1.08797904
v -16.2473496 -2.11728985 1.08797746
v -16.2473496 -2.11288852 1.09117387
v -16.2473496 -2.11120695 1.09634733
v -16.2473496 -2.11288673 1.10151822
v -16.2473496 -2.11728544 1.10471574
v -16.2473496 -2.12272424 1.10471733
v -16.2473497 -2.22265453 1.10514738
v -16.2473496 -2.12712569 1.10152092
v -16.2473496 -2.12880713 1.09634733
v -16.2473496 -2.12712735 1.09117644
v -16.2473494 -1.62280709 1.05294755
v -16.2473499 -2.50280709 1.85314738
v -16.2473491 -1.73280711 0.0711474362
v -16.2473493 -1.7343191 0.294872994
v -16.2473494 -1.7343191 0.763379687
v -16.2473497 -2.61243409 0.763379687
v -16.2473495 -2.61243409 0.294872994
v -16.2473495 -2.72280711 0.0711474362
v -16.2473494 -2.6128071 0.0711474362
v -16.2418494 -1.7343191 0.763379687
v -16.2418493 -1.7343191 0.294872994
v -15.8145601 -2.72280711 1.8531475
v -15.8146264 -2.72280711 1.85178577
v -14.7623499 -2.72280747 1.85314774
v -14.7623497 -2.72280747 0.840941632
v -16.2473497 -2.72280711 0.840941215
v -16.2473494 -1.73486907 0.762829686
v -16.2418494 -1.73486907 0.762829686
v -15.8151098 -1.62280721 1.8520475
v -16.2418495 -2.61243409 0.294872994
v -16.2418497 -2.61243409 0.763379687
v -16.1373494 -2.6128071 0.0711474362
v -16.1373495 -2.72280711 0.0711474362
v -14.7623494 -2.72280747 0.0711476746
v -14.8723494 -2.72280747 0.0711476746
v -14.8723494 -2.61280746 0.0711476746
v -14.7623493 -2.61280746 0.0711476746
v -15.8151101 -2.72280711 1.8520475
v -15.6287377 -1.91869611 1.8531475
v -15.6287378 -2.08369595 1.8531475
v -15.6287379 -2.3103537 1.8531475
v -15.6287379 -2.47535366 1.8531475
v -15.7913229 -2.57872123 1.85319328
v -15.7913242 -2.58433837 1.85319328
v -15.7912547 -2.63618869 1.85319328
v -15.7961909 -2.58714134 1.8531475
v -15.796191 -2.63334412 1.8531475
v -15.8010652 -2.58433587 1.85319328
v -15.801132 -2.63618631 1.85319328
v -15.8011334 -2.64188225 1.85319328
v -15.796191 -2.64472682 1.8531475
v -15.7912561 -2.64188475 1.85319328
v -15.4637379 -2.47535366 1.85314762
v -15.4637379 -2.3103537 1.85314762
v -15.4637378 -2.08369607 1.85314762
v -15.4637377 -1.91869617 1.85314762
v -15.7913226 -1.69872112 1.85319328
v -15.7961906 -1.69591564 1.8531475
v -15.8010636 -1.69871873 1.85319328
v -15.8010649 -1.70433587 1.85319328
v -15.8011317 -1.75618625 1.85319328
v -15.7961907 -1.75334412 1.8531475
v -15.7961907 -1.70714135 1.8531475
v -15.7912544 -1.75618882 1.85319328
v -15.7913239 -1.70433838 1.85319328
v -15.7912558 -1.76188458 1.85319328
v -15.7961907 -1.76472688 1.8531475
v -15.8011332 -1.76188219 1.85319328
v -15.8010639 -2.57871873 1.85319328
v -15.7961909 -2.57591576 1.8531475
v -16.2473495 -2.49805099 0.567096407
v -16.2473495 -2.49805099 0.489711517
v -16.2473495 -2.51485009 0.489711517
v -16.2473495 -2.51485009 0.567096407
v -15.8445702 -2.63625187 1.85445952
v -15.8445716 -2.64181656 1.8544594
v -15.8397623 -2.64460058 1.85478335
v -15.8349543 -2.64181907 1.85510748
v -15.834953 -2.63625438 1.85510748
v -15.8350548 -2.58425385 1.85510063
v -15.8350535 -2.57880551 1.85510075
v -15.8397623 -2.57607979 1.85478335
v -15.8444697 -2.57880325 1.85446619
v -15.8444709 -2.58425159 1.85446619
v -15.8397623 -2.58697731 1.85478335
v -15.8397623 -2.63347036 1.85478335
v -15.791431 -1.76188458 1.85579448
v -15.8013084 -1.76188219 1.85579448
v -15.801307 -1.75618625 1.85579448
v -15.8012402 -1.70433587 1.85579448
v -15.8012389 -1.69871873 1.85579448
v -15.7914978 -1.69872112 1.85579448
v -15.7914991 -1.70433838 1.85579448
v -15.7914297 -1.75618882 1.85579448
v -15.8349527 -1.75625432 1.85510748
v -15.8349541 -1.76181913 1.85510748
v -15.839762 -1.76460058 1.85478335
v -15.8445713 -1.76181663 1.8544594
v -15.8445699 -1.75625194 1.85445952
v -15.8444707 -1.70425147 1.85446619
v -15.8444694 -1.69880307 1.85446619
v -15.839762 -1.69607968 1.85478335
v -15.8350533 -1.69880552 1.85510075
v -15.8350546 -1.70425398 1.85510063
v -15.839762 -1.75347031 1.85478335
v -15.839762 -1.70697731 1.85478335
v -15.7914299 -2.63618869 1.85579448
v -15.7914313 -2.64188475 1.85579448
v -15.8013087 -2.64188225 1.85579448
v -15.8013073 -2.63618643 1.85579448
v -15.8012404 -2.58433587 1.85579448
v -15.8012392 -2.57871873 1.85579448
v -15.7914981 -2.57872123 1.85579448
v -15.7914994 -2.58433837 1.85579448
v -16.2473498 -2.72170705 1.05179154
v -16.2473496 -2.28533298 0.955968851
v -16.2473496 -2.28036756 0.955316329
v -16.2473496 -2.27574832 0.953403437
v -16.2473496 -2.27177603 0.950357223
v -16.2473496 -2.26872951 0.946387971
v -16.2473496 -2.26681394 0.941766703
v -16.2473496 -2.26615924 0.936800772
v -16.2473496 -2.26681132 0.931845093
v -16.2473496 -2.26872618 0.92721861
v -16.2473496 -2.27177054 0.923250223
v -16.2473495 -2.27573985 0.920202667
v -16.2473495 -2.28036446 0.918286288
v -16.2473495 -2.28532225 0.917632664
v -16.2473496 -2.362333 0.917632664
v -16.2473497 -2.43933303 0.917632664
v -16.2473496 -2.3672908 0.918286288
v -16.2473497 -2.4343676 0.918285185
v -16.2473496 -2.37191552 0.920202667
v -16.2473497 -2.42974824 0.920198107
v -16.2473497 -2.37588472 0.923250342
v -16.2473497 -2.42577595 0.923244381
v -16.2473497 -2.3789292 0.92721861
v -16.2473497 -2.42272956 0.927213604
v -16.2473497 -2.38084394 0.931845093
v -16.2473497 -2.42081386 0.931834871
v -16.2473497 -2.38149614 0.936800772
v -16.2473497 -2.42015917 0.936800772
v -16.2473497 -2.38084144 0.941766703
v -16.2473497 -2.42081124 0.941756511
v -16.2473497 -2.37892587 0.946387971
v -16.2473497 -2.42272622 0.946382994
v -16.2473497 -2.37587935 0.950357223
v -16.2473497 -2.42577047 0.950351233
v -16.2473497 -2.37190694 0.953403437
v -16.2473497 -2.4297399 0.953398848
v -16.2473497 -2.3672877 0.955316329
v -16.2473497 -2.4343645 0.955315286
v -16.2473497 -2.36232216 0.955968851
v -16.2473497 -2.43932218 0.955968851
v -16.2473497 -2.44428772 0.955316329
v -16.2473498 -2.72280711 1.05179154
v -16.2473497 -2.44890696 0.953403437
v -16.2473497 -2.45287937 0.950357223
v -16.2473497 -2.45592589 0.946387971
v -16.2473497 -2.45784134 0.941766703
v -16.2473497 -2.45849616 0.936800772
v -16.2473497 -2.45784396 0.931845093
v -16.2473497 -2.45592922 0.92721861
v -16.2473497 -2.45288474 0.923250342
v -16.2473497 -2.44891555 0.920202667
v -16.2473497 -2.44429082 0.918286288
v -16.2473497 -2.35736448 0.955315286
v -16.2473497 -2.29029078 0.955315286
v -16.2473497 -2.35273988 0.953398848
v -16.2473497 -2.2949155 0.953398848
v -16.2473497 -2.34877044 0.950351233
v -16.2473497 -2.29888493 0.950351292
v -16.2473497 -2.3457262 0.946382994
v -16.2473497 -2.30192918 0.946382994
v -16.2473497 -2.34381134 0.941756511
v -16.2473497 -2.30384404 0.941756511
v -16.2473497 -2.34315914 0.936800772
v -16.2473497 -2.30449611 0.936800772
v -16.2473497 -2.34381384 0.931834871
v -16.2473497 -2.30384142 0.931834871
v -16.2473497 -2.34572954 0.927213604
v -16.2473497 -2.30192584 0.927213604
v -16.2473497 -2.34877605 0.923244381
v -16.2473497 -2.29887945 0.923244381
v -16.2473496 -2.35274834 0.920198107
v -16.2473496 -2.29490704 0.920198107
v -16.2473496 -2.35736758 0.918285185
v -16.2473496 -2.29028756 0.918285185
v -16.6400332 -1.49707348 1.09355144
v -16.6400334 -1.73615319 1.09355144
vt 0.858483016 0.161500007
vt 0.858483016 0.0615000017
vt 0.958482981 0.161500007
vt 0.958482981 0.161500007
vt 0.858483016 0.0615000017
vt 0.958482981 0.0615000017
vt 0.746482015 1.33023798
vt 0.746482015 1.07577097
vt 0.748481989 1.33023798
vt 0.748481989 1.33023798
vt 0.746482015 1.07577097
vt 0.748481989 1.07577097
vt -0.746482015 -0.208927006
vt -0.748481989 -0.208927006
vt -0.746482015 -0.567146003
vt -0.746482015 -0.567146003
vt -0.748481989 -0.208927006
vt -0.748481989 -0.567146003
vt -0.746482015 1.07577097
vt -0.746482015 1.33023798
vt -0.748481989 1.07577097
vt -0.748481989 1.07577097
vt -0.746482015 1.33023798
vt -0.748481989 1.33023798
vt 0.746482015 -0.567146003
vt 0.748481989 -0.567146003
vt 0.746482015 -0.208927006
vt 0.746482015 -0.208927006
vt 0.748481989 -0.567146003
vt 0.748481989 -0.208927006
vt -0.00917099975 0.565815985
vt -0.0118589997 0.565815985
vt -0.00917099975 0.465815991
vt -0.00917099975 0.465815991
vt -0.0118589997 0.565815985
vt -0.0118589997 0.465815991
vt 0.756924987 0.992958009
vt 0.756924987 0.990957975
vt 0.927052975 0.992958009
vt 0.927052975 0.992958009
vt 0.756924987 0.990957975
vt 0.927052975 0.990957975
vt 0.992958009 -0.588163972
vt 0.992958009 -0.190607995
vt 0.990957975 -0.588163972
vt 0.990957975 -0.588163972
vt 0.992958009 -0.190607995
vt 0.990957975 -0.190607995
vt -0.0059969998 0.465815991
vt -0.0059969998 0.565815985
vt -0.00917099975 0.465815991
vt -0.00917099975 0.465815991
vt -0.0059969998 0.565815985
vt -0.00917099975 0.565815985
vt -0.992958009 -0.190607995
vt -0.992958009 -0.588163972
vt -0.990957975 -0.190607995
vt -0.990957975 -0.190607995
vt -0.992958009 -0.588163972
vt -0.990957975 -0.588163972
vt -0.927052975 0.992958009
vt -0.927052975 0.990957975
vt -0.756924987 0.992958009
vt -0.756924987 0.992958009
vt -0.927052975 0.990957975
vt -0.756924987 0.990957975
vt -0.990957975 -0.165818006
vt -0.990957975 -0.615818024
vt -0.970957994 -0.165818006
vt -0.970957994 -0.165818006
vt -0.990957975 -0.615818024
vt -0.970957994 -0.615818024
vt 0.958482027 0.970957994
vt 0.958482027 0.990957975
vt 0.708482027 0.970957994
vt 0.708482027 0.970957994
vt 0.958482027 0.990957975
vt 0.708482027 0.990957975
vt -0.958482027 -0.615818024
vt -0.708482027 -0.615818024
vt -0.958482027 -0.165818006
vt -0.958482027 -0.165818006
vt -0.708482027 -0.615818024
vt -0.708482027 -0.165818006
vt 0.990957975 -0.615818024
vt 0.990957975 -0.498486996
vt 0.970957994 -0.615818024
vt -0.970957994 -0.615818024
vt -0.990957975 -0.498486996
vt -0.990957975 -0.498486996
vt 0.970957994 -0.615818024
vt 0.990957975 -0.498486996
vt 0.970957994 -0.165818006
vt 0.970957994 -0.165818006
vt 0.990957975 -0.498486996
vt 0.990957975 -0.281141996
vt 0.970957994 -0.165818006
vt 0.990957975 -0.281141996
vt 0.990957975 -0.165818006
vt -0.958482027 0.990957975
vt -0.958482027 0.970957994
vt -0.708482027 0.990957975
vt -0.708482027 0.990957975
vt -0.958482027 0.970957994
vt -0.708482027 0.970957994
vt 1.05095804 -0.187721997
vt 1.05095804 -0.281141996
vt 1.35095799 -0.187721997
vt 1.35095799 -0.187721997
vt 1.05095804 -0.281141996
vt 1.04095805 -0.391874999
vt 1.35095799 -0.187721997
vt 1.04095805 -0.391874999
vt 1.35095799 -0.587722003
vt 1.35095799 -0.587722003
vt 1.04095805 -0.391874999
vt 1.04095805 -0.433369994
vt 1.35095799 -0.587722003
vt 1.04095805 -0.433369994
vt 1.05095804 -0.498486996
vt 1.05095804 -0.498486996
vt 1.04095805 -0.433369994
vt 1.02095795 -0.433369994
vt 1.05095804 -0.498486996
vt 1.02095795 -0.433369994
vt 0.990957975 -0.498486996
vt 0.990957975 -0.498486996
vt 1.02095795 -0.433369994
vt 1.02095795 -0.391874999
vt 0.990957975 -0.498486996
vt 1.02095795 -0.391874999
vt 0.990957975 -0.281141996
vt -0.990957975 -0.281141996
vt -1.02095795 -0.391874999
vt -1.02095795 -0.391874999
vt 0.990957975 -0.281141996
vt 1.02095795 -0.391874999
vt 1.05095804 -0.281141996
vt 1.05095804 -0.281141996
vt 1.02095795 -0.391874999
vt 1.04095805 -0.391874999
vt 1.05095804 -0.498486996
vt 1.05095804 -0.587722003
vt 1.35095799 -0.587722003
vt -0.708482027 1.05095804
vt -0.708482027 1.35095799
vt -0.748481989 1.05095804
vt -0.748481989 1.05095804
vt -0.708482027 1.35095799
vt -0.748481989 1.35095799
vt -0.708482027 -0.187721997
vt -0.748481989 -0.187721997
vt -0.708482027 -0.281141996
vt -0.708482027 -0.281141996
vt -0.748481989 -0.187721997
vt -0.748503029 -0.281141996
vt 0.708482027 -0.587722003
vt 0.748481989 -0.587722003
vt 0.708482027 -0.187721997
vt 0.708482027 -0.187721997
vt 0.748481989 -0.587722003
vt 0.748481989 -0.187721997
vt 0.708482027 1.35095799
vt 0.708482027 1.05095804
vt 0.748481989 1.35095799
vt 0.748481989 1.35095799
vt 0.708482027 1.05095804
vt 0.748481989 1.05095804
vt -0.748481989 -0.587722003
vt -0.708482027 -0.587722003
vt -0.748481989 -0.498486996
vt -0.748481989 -0.498486996
vt -0.708482027 -0.587722003
vt -0.708482027 -0.498486996
vt 0.708482027 -0.433369994
vt 0.708482027 -0.391874999
vt 0.441926003 -0.359820008
vt 0.441926003 -0.359820008
vt 0.708482027 -0.391874999
vt 0.452565014 -0.321260989
vt 0.708482027 1.04095805
vt 0.441926003 1.04095805
vt 0.708482027 1.02095795
vt 0.708482027 1.02095795
vt 0.441926003 1.04095805
vt 0.441926003 1.02095795
vt -0.708482027 -0.433369994
vt -0.441926003 -0.359820008
vt -0.708482027 -0.391874999
vt -0.708482027 -0.391874999
vt -0.441926003 -0.359820008
vt -0.452565014 -0.321260989
vt -0.708482027 1.02095795
vt -0.452565014 1.02095795
vt -0.708482027 1.04095805
vt -0.708482027 1.04095805
vt -0.452565014 1.02095795
vt -0.452565014 1.04095805
vt 1.04095805 -0.359820008
vt 1.04095805 -0.321260989
vt 1.02095795 -0.359820008
vt 1.02095795 -0.359820008
vt 1.04095805 -0.321260989
vt 1.02095795 -0.321260989
vt -0.00140099996 1.68743598
vt -0.00435299985 1.68390596
vt 0.00155299995 1.68390596
vt 0.00155299995 1.68390596
vt -0.00435299985 1.68390596
vt -0.00142800005 1.68050003
vt 0.00155299995 1.68390596
vt -0.00142800005 1.68050003
vt 0.00896099955 1.68371499
vt 0.00896099955 1.68371499
vt -0.00142800005 1.68050003
vt 0.0059969998 1.68123198
vt -1.68371499 -0.334183991
vt -1.68123198 -0.334183991
vt -1.68371499 -0.334183991
vt 0.00896099955 1.68371499
vt 0.0059969998 1.68123198
vt 0.00917099975 1.68110096
vt -1.68371499 -0.334183991
vt -1.68110096 -0.334183991
vt -1.68371499 -0.334183991
vt 0.00896099955 1.68371499
vt 0.00917099975 1.68110096
vt 0.0118589997 1.68096304
vt 0.00896099955 1.68371499
vt 0.0118589997 1.68096304
vt 0.0342140011 1.682096
vt 0.0342140011 1.682096
vt 0.0118589997 1.68096304
vt 0.0342140011 1.67974496
vt -0.00142800005 1.68050003
vt -0.00435299985 1.68390596
vt -0.0343529992 1.68154204
vt -0.0343529992 1.68154204
vt -0.00435299985 1.68390596
vt -0.0343529992 1.68390596
vt 1.68390596 0.465815991
vt 1.68390596 0.565815985
vt 1.68154204 0.465815991
vt 1.68154204 0.465815991
vt 1.68390596 0.565815985
vt 1.68154204 0.565815985
vt -0.0343529992 1.68390596
vt -0.0343529992 1.68154204
vt -0.00435299985 1.68390596
vt -0.00435299985 1.68390596
vt -0.0343529992 1.68154204
vt -0.00142800005 1.68050003
vt -0.00435299985 1.68390596
vt -0.00142800005 1.68050003
vt 0.00155299995 1.68390596
vt -1.68390596 0.465815991
vt -1.68050003 0.465815991
vt -1.68050003 0.465815991
vt 0.00155299995 1.68390596
vt -0.00142800005 1.68050003
vt 0.00896099955 1.68371499
vt 0.00896099955 1.68371499
vt -0.00142800005 1.68050003
vt 0.0059969998 1.68123198
vt -1.68371499 0.465815991
vt -1.68123198 0.465815991
vt -1.68371499 0.465815991
vt 0.00896099955 1.68371499
vt 0.0059969998 1.68123198
vt 0.00917099975 1.68110096
vt -1.68371499 0.465815991
vt -1.68110096 0.465815991
vt -1.68371499 0.465815991
vt 0.00896099955 1.68371499
vt 0.00917099975 1.68110096
vt 0.0118589997 1.68096304
vt 0.00896099955 1.68371499
vt 0.0118589997 1.68096304
vt 0.0342140011 1.682096
vt 0.0342140011 1.682096
vt 0.0118589997 1.68096304
vt 0.0342140011 1.67974496
vt -0.00139899994 1.68743598
vt -0.00435299985 1.68390596
vt 0.00155299995 1.68390596
vt 0.0343529992 1.68390596
vt 0.00435299985 1.68390596
vt 0.0343529992 1.68154204
vt -1.68154204 0.565815985
vt -1.68390596 0.565815985
vt -1.68390596 0.565815985
vt 0.0343529992 1.68154204
vt 0.00435299985 1.68390596
vt 0.00142800005 1.68050003
vt 0.00142800005 1.68050003
vt 0.00435299985 1.68390596
vt -0.00155299995 1.68390596
vt -1.68050003 0.565815985
vt -1.68390596 0.565815985
vt -1.68050003 0.565815985
vt 0.00142800005 1.68050003
vt -0.00155299995 1.68390596
vt -0.00896099955 1.68371499
vt 0.00142800005 1.68050003
vt -0.00896099955 1.68371499
vt -0.0059969998 1.68123198
vt -1.68123198 0.565815985
vt -1.68371499 0.565815985
vt -1.68371499 0.565815985
vt -0.0059969998 1.68123198
vt -0.00896099955 1.68371499
vt -0.00917099975 1.68110096
vt -1.68110096 0.565815985
vt -1.68371499 0.565815985
vt -1.68371499 0.565815985
vt -0.00917099975 1.68110096
vt -0.00896099955 1.68371499
vt -0.0118589997 1.68096304
vt -0.0118589997 1.68096304
vt -0.00896099955 1.68371499
vt -0.0342140011 1.682096
vt -0.0118589997 1.68096304
vt -0.0342140011 1.682096
vt -0.0342140011 1.67974496
vt -0.00155299995 1.68390596
vt 0.00435299985 1.68390596
vt 0.00139899994 1.68743598
vt 0.391517013 0.952995002
vt 0.390516996 0.952995002
vt 0.391517013 0.761313021
vt -0.761313021 -0.384184003
vt -0.952995002 -0.384184003
vt -0.952995002 -0.384184003
vt 0.391517013 0.761313021
vt 0.390516996 0.952995002
vt -0.958482981 0.761313021
vt -0.958482981 0.761313021
vt 0.390516996 0.952995002
vt 0.390850991 0.954226017
vt -0.761313021 -0.384184003
vt -0.954226017 -0.384184003
vt -0.761313021 -0.384184003
vt -0.958482981 0.761313021
vt 0.390850991 0.954226017
vt -0.00186800002 1.68026197
vt -0.958482981 0.761313021
vt -0.00186800002 1.68026197
vt -0.958482981 1.68149996
vt -0.958482981 1.68149996
vt -0.00186800002 1.68026197
vt -0.00192800001 1.68149996
vt -0.0118589997 -0.334183991
vt -0.00917099975 -0.334183991
vt -0.0118589997 -0.234183997
vt -0.0118589997 -0.234183997
vt -0.00917099975 -0.334183991
vt -0.00917099975 -0.234183997
vt -0.0059969998 -0.334183991
vt -0.0059969998 -0.234183997
vt -0.00917099975 -0.334183991
vt -0.00917099975 -0.334183991
vt -0.0059969998 -0.234183997
vt -0.00917099975 -0.234183997
vt 1.68390596 0.465815991
vt 1.68743598 0.465815991
vt 1.68390596 0.565815985
vt -1.68390596 0.565815985
vt -1.68743598 0.465815991
vt -1.68743598 0.465815991
vt 1.68390596 0.565815985
vt 1.68743598 0.465815991
vt 1.68743598 0.565815985
vt -1.68743598 0.565815985
vt -1.68743598 0.465815991
vt -1.68390596 0.465815991
vt -1.68743598 0.565815985
vt -1.68390596 0.465815991
vt -1.68390596 0.565815985
vt 0.00155299995 0.565815985
vt 0.00155299995 0.465815991
vt 0.00896099955 0.565815985
vt 0.00896099955 0.565815985
vt 0.00155299995 0.465815991
vt 0.00896099955 0.465815991
vt -0.00142800005 -0.334183991
vt -0.00142800005 -0.384184003
vt 0.0059969998 -0.334183991
vt 0.0059969998 -0.334183991
vt -0.00142800005 -0.384184003
vt 0.0118589997 -0.334183991
vt -1.68123198 -0.334183991
vt -1.68096304 -0.334183991
vt -1.68123198 -0.334183991
vt 0.0059969998 -0.334183991
vt 0.0118589997 -0.334183991
vt 0.0118589997 -0.234183997
vt 0.0059969998 -0.334183991
vt 0.0118589997 -0.234183997
vt 0.0059969998 -0.234183997
vt 0.0059969998 -0.234183997
vt 0.0118589997 -0.234183997
vt -0.00142800005 -0.184184
vt 0.0059969998 -0.234183997
vt -0.00142800005 -0.184184
vt -0.00142800005 -0.234183997
vt 0.0118589997 -0.234183997
vt 0.0342140011 -0.234183997
vt -0.00142800005 -0.184184
vt -1.68149996 -0.184184
vt -1.67974496 -0.234183997
vt -1.67974496 -0.234183997
vt -0.00142800005 -0.184184
vt 0.0342140011 -0.234183997
vt 0.132322997 -0.184184
vt 0.132322997 -0.184184
vt 0.0342140011 -0.234183997
vt 0.0342140011 -0.334183991
vt 0.132322997 -0.184184
vt 0.0342140011 -0.334183991
vt 0.132322997 -0.384184003
vt -1.66984499 -0.384184003
vt -1.67974496 -0.334183991
vt -1.67974496 -0.334183991
vt 0.132322997 -0.384184003
vt 0.0342140011 -0.334183991
vt -0.00142800005 -0.384184003
vt -0.00142800005 -0.384184003
vt 0.0342140011 -0.334183991
vt 0.0118589997 -0.334183991
vt 0.132322997 -0.184184
vt 0.132322997 -0.384184003
vt 0.263305008 -0.184184
vt 0.263305008 -0.184184
vt 0.132322997 -0.384184003
vt 0.263305008 -0.384184003
vt 0.263305008 -0.184184
vt 0.263305008 -0.384184003
vt 0.391517013 -0.184184
vt 0.391517013 -0.184184
vt 0.263305008 -0.384184003
vt 0.391517013 -0.384184003
vt -0.161500007 -0.284184009
vt -0.161500007 -0.384184003
vt -0.0615000017 -0.284184009
vt -0.0615000017 -0.284184009
vt -0.161500007 -0.384184003
vt -0.0615000017 -0.384184003
vt 0.391517013 0.615815997
vt -0.958482981 0.615815997
vt 0.391517013 -0.384184003
vt 0.391517013 -0.384184003
vt -0.958482981 0.615815997
vt -0.958482981 -0.384184003
vt -0.858483016 0.0615000017
vt -0.858483016 0.161500007
vt -0.958482981 0.0615000017
vt -0.0615000017 -0.384184003
vt -0.161500007 -0.384184003
vt -0.161500007 -0.384184003
vt -0.958482981 0.0615000017
vt -0.858483016 0.161500007
vt -0.958482981 0.761213005
vt -0.761213005 -0.384184003
vt -0.161500007 -0.384184003
vt -0.161500007 -0.384184003
vt -0.958482981 0.761213005
vt -0.858483016 0.161500007
vt 0.391517013 0.761213005
vt 0.391517013 0.761213005
vt -0.858483016 0.161500007
vt 0.291516989 0.161500007
vt 0.391517013 0.761213005
vt 0.291516989 0.161500007
vt 0.391517013 0.0615000017
vt 0.391517013 0.0615000017
vt 0.291516989 0.161500007
vt 0.291516989 0.0615000017
vt -0.391517013 0.265386999
vt -0.386516988 0.265386999
vt -0.391517013 0.690302014
vt -0.391517013 0.690302014
vt -0.386516988 0.265386999
vt -0.386516988 0.690302014
vt -0.391517013 0.514976978
vt -0.391517013 -0.282308996
vt -0.386516988 0.514976978
vt -0.386516988 0.514976978
vt -0.391517013 -0.282308996
vt -0.386516988 -0.282308996
vt 0.858483016 -0.384184003
vt 0.858483016 -0.284184009
vt -0.291516989 -0.384184003
vt -0.161500007 -0.384184003
vt -0.161500007 -0.284184009
vt -0.161500007 -0.284184009
vt -0.291516989 -0.384184003
vt 0.858483016 -0.284184009
vt -0.291516989 -0.284184009
vt -0.291516989 -0.284184009
vt 0.858483016 -0.284184009
vt 0.858483016 0.515815973
vt -0.291516989 -0.284184009
vt 0.858483016 0.515815973
vt -0.291516989 0.515815973
vt -0.291516989 0.515815973
vt 0.858483016 0.515815973
vt 0.858483016 0.615815997
vt -0.291516989 0.515815973
vt 0.858483016 0.615815997
vt -0.291516989 0.615815997
vt -0.291516989 -0.284184009
vt -0.291516989 0.515815973
vt -0.391517013 -0.284184009
vt -0.391517013 -0.284184009
vt -0.291516989 0.515815973
vt -0.391517013 0.515815973
vt 0.858483016 0.515815973
vt 0.858483016 -0.284184009
vt 0.958482981 0.515815973
vt 0.958482981 0.515815973
vt 0.858483016 -0.284184009
vt 0.958482981 -0.284184009
vt -0.00142800005 0.465815991
vt -0.00142800005 0.415816009
vt 0.0059969998 0.465815991
vt 0.0059969998 0.465815991
vt -0.00142800005 0.415816009
vt 0.0118589997 0.465815991
vt -1.68123198 0.465815991
vt -1.68096304 0.465815991
vt -1.68123198 0.465815991
vt 0.0059969998 0.465815991
vt 0.0118589997 0.465815991
vt 0.0118589997 0.565815985
vt 0.0059969998 0.465815991
vt 0.0118589997 0.565815985
vt 0.0059969998 0.565815985
vt 0.0059969998 0.565815985
vt 0.0118589997 0.565815985
vt -0.00142800005 0.615815997
vt 0.0059969998 0.565815985
vt -0.00142800005 0.615815997
vt -0.00142800005 0.565815985
vt 0.0118589997 0.565815985
vt 0.0342140011 0.565815985
vt -0.00142800005 0.615815997
vt -1.68149996 0.615815997
vt -1.67974496 0.565815985
vt -1.67974496 0.565815985
vt -0.00142800005 0.615815997
vt 0.0342140011 0.565815985
vt 0.132322997 0.615815997
vt 0.132322997 0.615815997
vt 0.0342140011 0.565815985
vt 0.0342140011 0.465815991
vt 0.132322997 0.615815997
vt 0.0342140011 0.465815991
vt 0.132322997 0.415816009
vt -1.66984499 0.415816009
vt -1.67974496 0.465815991
vt -1.67974496 0.465815991
vt 0.132322997 0.415816009
vt 0.0342140011 0.465815991
vt -0.00142800005 0.415816009
vt -0.00142800005 0.415816009
vt 0.0342140011 0.465815991
vt 0.0118589997 0.465815991
vt 0.132322997 0.615815997
vt 0.132322997 0.415816009
vt 0.263305008 0.615815997
vt 0.263305008 0.615815997
vt 0.132322997 0.415816009
vt 0.263305008 0.415816009
vt 0.263305008 0.615815997
vt 0.263305008 0.415816009
vt 0.391517013 0.615815997
vt 0.391517013 0.615815997
vt 0.263305008 0.415816009
vt 0.391517013 0.415816009
vt -1.682096 0.465815991
vt -1.67974496 0.465815991
vt -1.682096 0.565815985
vt -1.682096 0.565815985
vt -1.67974496 0.465815991
vt -1.67974496 0.565815985
vt 0.161500007 -0.384184003
vt 0.161500007 -0.284184009
vt 0.0615000017 -0.384184003
vt 0.0615000017 -0.384184003
vt 0.161500007 -0.284184009
vt 0.0615000017 -0.284184009
vt -0.0342140011 1.67974496
vt -0.0118589997 1.68096304
vt -0.0342140011 1.682096
vt -1.682096 -0.234183997
vt -1.68096304 -0.234183997
vt -1.68096304 -0.234183997
vt -0.0342140011 1.682096
vt -0.0118589997 1.68096304
vt -0.00896099955 1.68371499
vt -0.00896099955 1.68371499
vt -0.0118589997 1.68096304
vt -0.00917099975 1.68110096
vt -1.68371499 -0.234183997
vt -1.68110096 -0.234183997
vt -1.68371499 -0.234183997
vt -0.00896099955 1.68371499
vt -0.00917099975 1.68110096
vt -0.0059969998 1.68123198
vt -1.68371499 -0.234183997
vt -1.68123198 -0.234183997
vt -1.68371499 -0.234183997
vt -0.00896099955 1.68371499
vt -0.0059969998 1.68123198
vt 0.00142800005 1.68050003
vt -0.00896099955 1.68371499
vt 0.00142800005 1.68050003
vt -0.00155299995 1.68390596
vt -0.00155299995 1.68390596
vt 0.00142800005 1.68050003
vt 0.00435299985 1.68390596
vt -0.00155299995 1.68390596
vt 0.00435299985 1.68390596
vt 0.00139899994 1.68743598
vt 0.00142800005 1.68050003
vt 0.0343529992 1.68154204
vt 0.00435299985 1.68390596
vt 0.00435299985 1.68390596
vt 0.0343529992 1.68154204
vt 0.0343529992 1.68390596
vt -0.00142800005 1.68149996
vt 0.132322997 1.66984499
vt 0.391517013 1.68149996
vt 0.391517013 1.68149996
vt 0.132322997 1.66984499
vt 0.263305008 1.64454401
vt 0.391517013 1.68149996
vt 0.263305008 1.64454401
vt 0.391517013 1.60559905
vt -1.60559905 0.615815997
vt -1.60559905 0.415816009
vt -0.954046011 0.615815997
vt -0.954046011 0.615815997
vt -1.60559905 0.415816009
vt -0.999140024 0.166716993
vt -0.954046011 0.615815997
vt -0.999140024 0.166716993
vt -0.954046011 0.615815997
vt -0.954046011 0.615815997
vt -0.999140024 0.166716993
vt -0.993499994 0.169010997
vt -0.954046011 0.615815997
vt -0.993499994 0.169010997
vt -0.954046011 0.615815997
vt -0.954046011 0.615815997
vt -0.993499994 0.169010997
vt -0.987866998 0.166724995
vt -0.954046011 0.615815997
vt -0.987866998 0.166724995
vt -0.954046011 0.615815997
vt -0.954046011 0.615815997
vt -0.987866998 0.166724995
vt -0.985499978 0.161131993
vt -0.954046011 0.615815997
vt -0.985499978 0.161131993
vt -0.954046011 -0.383183986
vt -0.954046011 -0.383183986
vt -0.985499978 0.161131993
vt -0.985891998 0.0702899992
vt -0.954046011 -0.383183986
vt -0.985891998 0.0702899992
vt -0.954046011 -0.383183986
vt -0.954046011 -0.383183986
vt -0.985891998 0.0702899992
vt -0.985890985 0.0653460026
vt -0.954046011 -0.383183986
vt -0.985890985 0.0653460026
vt -0.954046011 -0.383183986
vt -0.954046011 -0.383183986
vt -0.985890985 0.0653460026
vt -0.988797009 0.0613449998
vt -0.954046011 -0.383183986
vt -0.988797009 0.0613449998
vt -0.954046011 -0.383183986
vt -0.954046011 -0.383183986
vt -0.988797009 0.0613449998
vt -0.993499994 0.0598159991
vt -0.954046011 -0.383183986
vt -0.993499994 0.0598159991
vt -0.954046011 -0.383183986
vt -0.954046011 -0.383183986
vt -0.993499994 0.0598159991
vt -0.998201013 0.0613429993
vt -0.954046011 -0.383183986
vt -0.998201013 0.0613429993
vt -0.954046011 -0.383183986
vt -0.954046011 -0.383183986
vt -0.998201013 0.0613429993
vt -1.00110805 0.0653420016
vt -0.954046011 -0.383183986
vt -1.00110805 0.0653420016
vt -1.60559905 -0.184184
vt -1.60559905 -0.184184
vt -1.00110805 0.0653420016
vt -1.001109 0.0702859983
vt -1.60559905 -0.184184
vt -1.001109 0.0702859983
vt -1.00150001 0.161131993
vt -1.00150001 0.161131993
vt -1.001109 0.0702859983
vt -0.99820298 0.0742880031
vt -1.00150001 0.161131993
vt -0.99820298 0.0742880031
vt -1.00150001 0.161131993
vt -1.00150001 0.161131993
vt -0.99820298 0.0742880031
vt -0.993499994 0.075815998
vt -1.00150001 0.161131993
vt -0.993499994 0.075815998
vt -0.985499978 0.161131993
vt -0.985499978 0.161131993
vt -0.993499994 0.075815998
vt -0.988798976 0.0742890015
vt -0.985499978 0.161131993
vt -0.988798976 0.0742890015
vt -0.985891998 0.0702899992
vt -1.60559905 -0.184184
vt -1.60559905 -0.384184003
vt -0.954046011 -0.383183986
vt -0.954046011 -0.383183986
vt -1.60559905 -0.384184003
vt -0.954046011 -0.384184003
vt -0.999140024 0.166716993
vt -1.60559905 0.415816009
vt -1.00150001 0.161131993
vt -1.00150001 0.161131993
vt -1.60559905 0.415816009
vt -1.60559905 0.415816009
vt -1.00150001 0.161131993
vt -1.60559905 0.415816009
vt -1.60559905 -0.184184
vt -1.60559905 -0.184184
vt -1.60559905 0.415816009
vt -1.60559905 0.415816009
vt -1.60559905 -0.184184
vt -1.60559905 0.415816009
vt -1.68149996 -0.184184
vt -1.68149996 -0.184184
vt -1.60559905 0.415816009
vt -1.68149996 0.415816009
vt -0.291516989 0.0615000017
vt -0.291516989 0.161500007
vt -0.391517013 0.0615000017
vt -0.391517013 0.0615000017
vt -0.291516989 0.161500007
vt -0.391517013 0.161500007
vt 0.00142800005 1.68149996
vt -0.391517013 1.68149996
vt -0.132322997 1.66984499
vt -1.66984499 0.415816009
vt -1.68149996 0.415816009
vt -1.68149996 0.415816009
vt -0.132322997 1.66984499
vt -0.391517013 1.68149996
vt -0.263305008 1.64454401
vt -0.263305008 1.64454401
vt -0.391517013 1.68149996
vt -0.391517013 1.60559905
vt -0.391517013 -0.384184003
vt -0.291516989 -0.384184003
vt -0.391517013 -0.284184009
vt -0.391517013 -0.284184009
vt -0.291516989 -0.384184003
vt -0.291516989 -0.284184009
vt 0.00896099955 -0.334183991
vt 0.00896099955 -0.234183997
vt 0.00155299995 -0.334183991
vt 0.00155299995 -0.334183991
vt 0.00896099955 -0.234183997
vt 0.00155299995 -0.234183997
vt -0.0615000017 -0.284184009
vt -0.161500007 -0.284184009
vt -0.0615000017 -0.384184003
vt -0.0615000017 -0.384184003
vt -0.161500007 -0.284184009
vt -0.264887005 -0.282808989
vt -0.0615000017 -0.384184003
vt -0.264887005 -0.282808989
vt -0.761213005 -0.384184003
vt -0.761213005 -0.384184003
vt -0.264887005 -0.282808989
vt -0.690801978 -0.282808989
vt -0.761213005 -0.384184003
vt -0.690801978 -0.282808989
vt -0.761213005 -0.384184003
vt -0.761213005 -0.384184003
vt -0.690801978 -0.282808989
vt -0.690801978 0.515477002
vt -0.761213005 -0.384184003
vt -0.690801978 0.515477002
vt -0.761213005 0.615815997
vt -0.761213005 0.615815997
vt -0.690801978 0.515477002
vt -0.264887005 0.515477002
vt -0.761213005 0.615815997
vt -0.264887005 0.515477002
vt -0.0615000017 0.615815997
vt -0.0615000017 0.615815997
vt -0.264887005 0.515477002
vt -0.161500007 0.515815973
vt -0.0615000017 0.615815997
vt -0.161500007 0.515815973
vt -0.0615000017 0.515815973
vt -0.264887005 0.515477002
vt -0.264887005 -0.282808989
vt -0.161500007 0.515815973
vt -0.161500007 0.515815973
vt -0.264887005 -0.282808989
vt -0.161500007 -0.284184009
vt -0.391517013 0.690801978
vt -0.391517013 0.264887005
vt -0.386516988 0.690801978
vt -0.386516988 0.690801978
vt -0.391517013 0.264887005
vt -0.386516988 0.264887005
vt -1.68390596 -0.234183997
vt -1.68743598 -0.234183997
vt -1.68390596 -0.334183991
vt -1.68390596 -0.334183991
vt -1.68743598 -0.234183997
vt -1.68743598 -0.234183997
vt -1.68390596 -0.334183991
vt -1.68743598 -0.234183997
vt -1.68743598 -0.334183991
vt 1.68743598 -0.334183991
vt 1.68743598 -0.234183997
vt 1.68390596 -0.234183997
vt 1.68743598 -0.334183991
vt 1.68390596 -0.234183997
vt 1.68390596 -0.334183991
vt 0.00192800001 1.68149996
vt 0.00186800002 1.68026197
vt 0.958482981 1.68149996
vt -1.68149996 0.615815997
vt -1.68026197 0.615815997
vt -1.68026197 0.615815997
vt 0.958482981 1.68149996
vt 0.00186800002 1.68026197
vt 0.958482981 0.761313021
vt 0.958482981 0.761313021
vt 0.00186800002 1.68026197
vt -0.391517013 0.954046011
vt 0.958482981 0.761313021
vt -0.391517013 0.954046011
vt -0.391517013 0.761313021
vt 0.391517013 0.690302014
vt 0.386516988 0.690302014
vt 0.391517013 0.265386999
vt 0.391517013 0.265386999
vt 0.386516988 0.690302014
vt 0.386516988 0.265386999
vt -0.00142800005 1.68149996
vt -0.00142800005 1.68050003
vt 0.132322997 1.66984499
vt 0.132322997 1.66984499
vt -0.00142800005 1.68050003
vt 0.391517013 0.954046011
vt 0.132322997 1.66984499
vt 0.391517013 0.954046011
vt 0.263305008 1.64454401
vt 0.263305008 1.64454401
vt 0.391517013 0.954046011
vt 0.391517013 1.60559905
vt 0.391517013 0.264887005
vt 0.391517013 0.690801978
vt 0.386516988 0.264887005
vt 0.386516988 0.264887005
vt 0.391517013 0.690801978
vt 0.386516988 0.690801978
vt 0.161500007 0.515815973
vt 0.161500007 0.615815997
vt 0.0615000017 0.515815973
vt 0.0615000017 0.515815973
vt 0.161500007 0.615815997
vt 0.0615000017 0.615815997
vt 0.391517013 -0.282308996
vt 0.391517013 0.514976978
vt 0.386516988 -0.282308996
vt 0.386516988 -0.282308996
vt 0.391517013 0.514976978
vt 0.386516988 0.514976978
vt 1.68390596 -0.334183991
vt 1.68390596 -0.234183997
vt 1.68154204 -0.334183991
vt 1.68154204 -0.334183991
vt 1.68390596 -0.234183997
vt 1.68154204 -0.234183997
vt -0.291516989 0.0615000017
vt -0.291516989 0.161500007
vt -0.391517013 0.0615000017
vt -0.0615000017 0.615815997
vt -0.161500007 0.615815997
vt -0.161500007 0.615815997
vt -0.391517013 0.0615000017
vt -0.291516989 0.161500007
vt -0.391517013 0.761213005
vt -0.761213005 0.615815997
vt -0.161500007 0.615815997
vt -0.161500007 0.615815997
vt -0.391517013 0.761213005
vt -0.291516989 0.161500007
vt 0.958482981 0.761213005
vt 0.958482981 0.761213005
vt -0.291516989 0.161500007
vt 0.858483016 0.161500007
vt 0.958482981 0.761213005
vt 0.858483016 0.161500007
vt 0.958482981 0.0615000017
vt 0.958482981 0.0615000017
vt 0.858483016 0.161500007
vt 0.858483016 0.0615000017
vt -0.858483016 0.161500007
vt -0.958482981 0.161500007
vt -0.858483016 0.0615000017
vt -0.858483016 0.0615000017
vt -0.958482981 0.161500007
vt -0.958482981 0.0615000017
vt 0.386516988 -0.282808989
vt 0.391517013 -0.282808989
vt 0.386516988 0.515477002
vt 0.386516988 0.515477002
vt 0.391517013 -0.282808989
vt 0.391517013 0.515477002
vt -0.391517013 0.515815973
vt -0.291516989 0.515815973
vt -0.391517013 0.615815997
vt -0.391517013 0.615815997
vt -0.291516989 0.515815973
vt -0.291516989 0.615815997
vt 0.0615000017 0.515815973
vt 0.161500007 0.515815973
vt 0.0615000017 0.615815997
vt -0.0615000017 0.615815997
vt -0.161500007 0.515815973
vt -0.161500007 0.515815973
vt 0.0615000017 0.615815997
vt 0.161500007 0.515815973
vt 0.761213005 0.615815997
vt 0.761213005 0.615815997
vt 0.161500007 0.515815973
vt 0.161500007 -0.284184009
vt 0.761213005 0.615815997
vt 0.161500007 -0.284184009
vt 0.761213005 -0.384184003
vt -0.761213005 -0.384184003
vt -0.161500007 -0.284184009
vt -0.161500007 -0.284184009
vt 0.761213005 -0.384184003
vt 0.161500007 -0.284184009
vt 0.0615000017 -0.384184003
vt 0.0615000017 -0.384184003
vt 0.161500007 -0.284184009
vt 0.0615000017 -0.284184009
vt -0.391517013 1.60559905
vt -0.391517013 0.954046011
vt -0.263305008 1.64454401
vt -1.64454401 0.615815997
vt -0.954046011 0.615815997
vt -0.954046011 0.615815997
vt -0.263305008 1.64454401
vt -0.391517013 0.954046011
vt -0.132322997 1.66984499
vt -0.132322997 1.66984499
vt -0.391517013 0.954046011
vt 0.00142800005 1.68050003
vt -0.132322997 1.66984499
vt 0.00142800005 1.68050003
vt 0.00142800005 1.68149996
vt -0.386516988 0.515477002
vt -0.391517013 0.515477002
vt -0.386516988 -0.282808989
vt -0.386516988 -0.282808989
vt -0.391517013 0.515477002
vt -0.391517013 -0.282808989
vt 0.391517013 0.415816009
vt -0.00142800005 0.415816009
vt 0.391517013 -0.184184
vt 0.391517013 -0.184184
vt -0.00142800005 0.415816009
vt -0.00142800005 -0.184184
vt 0.761313021 0.615815997
vt 0.761313021 -0.384184003
vt 1.68149996 0.615815997
vt 1.68149996 0.615815997
vt 0.761313021 -0.384184003
vt 1.68149996 -0.384184003
vt 0.858483016 0.515815973
vt 0.958482981 0.515815973
vt 0.858483016 0.615815997
vt 0.858483016 0.615815997
vt 0.958482981 0.515815973
vt 0.958482981 0.615815997
vt -0.161500007 0.615815997
vt -0.161500007 0.515815973
vt -0.0615000017 0.615815997
vt -0.0615000017 0.615815997
vt -0.161500007 0.515815973
vt -0.0615000017 0.515815973
vt 0.391517013 0.161500007
vt 0.291516989 0.161500007
vt 0.391517013 0.0615000017
vt 0.391517013 0.0615000017
vt 0.291516989 0.161500007
vt 0.291516989 0.0615000017
vt 0.958482981 -0.284184009
vt 0.858483016 -0.284184009
vt 0.958482981 -0.384184003
vt 0.958482981 -0.384184003
vt 0.858483016 -0.284184009
vt 0.858483016 -0.384184003
vt -0.170856997 -0.115194
vt -0.00142800005 -0.234183997
vt -0.170856997 0.0348059982
vt -0.170856997 0.0348059982
vt -0.00142800005 -0.234183997
vt -0.00142800005 0.465815991
vt -0.170856997 0.0348059982
vt -0.00142800005 0.465815991
vt -0.170856997 0.240858003
vt -1.68149996 0.240858003
vt -1.68050003 0.465815991
vt -1.68050003 0.465815991
vt -0.170856997 0.240858003
vt -0.00142800005 0.465815991
vt -0.170856997 0.390857995
vt -0.170856997 0.390857995
vt -0.00142800005 0.465815991
vt -0.0230529997 0.484829009
vt -1.68149996 0.390857995
vt -1.68154204 0.484829009
vt -1.68149996 0.390857995
vt -0.170856997 0.390857995
vt -0.0230529997 0.484829009
vt -0.0230509993 0.489935011
vt -0.170856997 0.390857995
vt -0.0230509993 0.489935011
vt -0.0231149998 0.537072003
vt -0.0231149998 0.537072003
vt -0.0230509993 0.489935011
vt -0.0186269991 0.492484003
vt -0.0231149998 0.537072003
vt -0.0186269991 0.492484003
vt -0.0186269991 0.534485996
vt -0.0186269991 0.534485996
vt -0.0186269991 0.492484003
vt -0.0141960001 0.489933014
vt -0.0186269991 0.534485996
vt -0.0141960001 0.489933014
vt -0.0141350003 0.537069976
vt -0.0141350003 0.537069976
vt -0.0141960001 0.489933014
vt -0.00142800005 0.465815991
vt -1.68154204 0.537069976
vt -1.68050003 0.465815991
vt -1.68154204 0.537069976
vt -0.0141350003 0.537069976
vt -0.00142800005 0.465815991
vt -0.00142800005 0.565815985
vt -0.0141350003 0.537069976
vt -0.00142800005 0.565815985
vt -0.0141340001 0.542248011
vt -1.68154204 0.542248011
vt -1.68050003 0.565815985
vt -1.68050003 0.565815985
vt -0.0141340001 0.542248011
vt -0.00142800005 0.565815985
vt -0.0186269991 0.544834018
vt -1.68149996 0.544834018
vt -1.68050003 0.565815985
vt -1.68050003 0.565815985
vt -0.0186269991 0.544834018
vt -0.00142800005 0.565815985
vt -0.0231129993 0.542249978
vt -0.0231129993 0.542249978
vt -0.00142800005 0.565815985
vt -0.00192800001 0.615815997
vt -0.0231129993 0.542249978
vt -0.00192800001 0.615815997
vt -0.320856988 0.390857995
vt -0.320856988 0.390857995
vt -0.00192800001 0.615815997
vt -0.958482981 0.615815997
vt -0.320856988 0.390857995
vt -0.958482981 0.615815997
vt -0.320856988 0.240858003
vt -0.320856988 0.240858003
vt -0.958482981 0.615815997
vt -0.320856988 0.0348059982
vt -1.68149996 0.240858003
vt -1.68149996 0.0348059982
vt -1.68149996 0.240858003
vt -0.320856988 0.240858003
vt -0.320856988 0.0348059982
vt -0.170856997 0.0348059982
vt -0.320856988 0.240858003
vt -0.170856997 0.0348059982
vt -0.170856997 0.240858003
vt -0.958482981 0.615815997
vt -0.958482981 -0.384184003
vt -0.320856988 0.0348059982
vt -1.68149996 0.0348059982
vt -1.68149996 -0.384184003
vt -1.68149996 -0.384184003
vt -0.320856988 0.0348059982
vt -0.958482981 -0.384184003
vt -0.320856988 -0.115194
vt -0.320856988 -0.115194
vt -0.958482981 -0.384184003
vt -0.00192800001 -0.384184003
vt -0.320856988 -0.115194
vt -0.00192800001 -0.384184003
vt -0.0230529997 -0.315171003
vt -1.68154204 -0.315171003
vt -1.68149996 -0.384184003
vt -1.68149996 -0.384184003
vt -0.0230529997 -0.315171003
vt -0.00192800001 -0.384184003
vt -0.0186269991 -0.317721993
vt -0.0186269991 -0.317721993
vt -0.00192800001 -0.384184003
vt -0.00142800005 -0.334183991
vt -0.0186269991 -0.317721993
vt -0.00142800005 -0.334183991
vt -0.0141970003 -0.315173
vt -1.68154204 -0.315173
vt -1.68050003 -0.334183991
vt -1.68050003 -0.334183991
vt -0.0141970003 -0.315173
vt -0.00142800005 -0.334183991
vt -0.0141960001 -0.310066998
vt -0.0141960001 -0.310066998
vt -0.00142800005 -0.334183991
vt -0.0141350003 -0.262930006
vt -1.68154204 -0.310066998
vt -1.68154204 -0.262930006
vt -1.68154204 -0.310066998
vt -0.0141960001 -0.310066998
vt -0.0141350003 -0.262930006
vt -0.0186269991 -0.265513986
vt -0.0141960001 -0.310066998
vt -0.0186269991 -0.265513986
vt -0.0186269991 -0.307516009
vt -0.0186269991 -0.307516009
vt -0.0186269991 -0.265513986
vt -0.0231149998 -0.262928009
vt -0.0186269991 -0.307516009
vt -0.0231149998 -0.262928009
vt -0.0230509993 -0.310065001
vt -0.0230509993 -0.310065001
vt -0.0231149998 -0.262928009
vt -0.170856997 -0.115194
vt -0.0230509993 -0.310065001
vt -0.170856997 -0.115194
vt -0.0230529997 -0.315171003
vt -0.0230529997 -0.315171003
vt -0.170856997 -0.115194
vt -0.320856988 -0.115194
vt -0.0231149998 -0.262928009
vt -0.0231129993 -0.257750005
vt -0.170856997 -0.115194
vt -1.68149996 -0.115194
vt -1.68154204 -0.257750005
vt -1.68154204 -0.257750005
vt -0.170856997 -0.115194
vt -0.0231129993 -0.257750005
vt -0.00142800005 -0.234183997
vt -0.00142800005 -0.234183997
vt -0.0231129993 -0.257750005
vt -0.0186269991 -0.255165994
vt -1.68050003 -0.234183997
vt -1.68149996 -0.255165994
vt -1.68050003 -0.234183997
vt -0.00142800005 -0.234183997
vt -0.0186269991 -0.255165994
vt -0.0141340001 -0.257752001
vt -1.68050003 -0.234183997
vt -1.68154204 -0.257752001
vt -1.68050003 -0.234183997
vt -0.00142800005 -0.234183997
vt -0.0141340001 -0.257752001
vt -0.0141350003 -0.262930006
vt -0.00142800005 -0.234183997
vt -0.0141350003 -0.262930006
vt -0.00142800005 -0.334183991
vt -0.320856988 0.390857995
vt -0.170856997 0.390857995
vt -0.0231129993 0.542249978
vt -0.0231129993 0.542249978
vt -0.170856997 0.390857995
vt -0.0231149998 0.537072003
vt -0.0141960001 0.489933014
vt -0.0141970003 0.484827012
vt -0.00142800005 0.465815991
vt -0.00142800005 0.465815991
vt -0.0141970003 0.484827012
vt -0.0186269991 0.482277989
vt -0.00142800005 0.465815991
vt -0.0186269991 0.482277989
vt -0.0230529997 0.484829009
vt 0.0141340001 -0.257752001
vt 0.0186269991 -0.255165994
vt 0.00142800005 -0.234183997
vt -1.68050003 -0.234183997
vt -1.68149996 -0.255165994
vt -1.68149996 -0.255165994
vt 0.00142800005 -0.234183997
vt 0.0186269991 -0.255165994
vt 0.0343529992 -0.234183997
vt 0.0343529992 -0.234183997
vt 0.0186269991 -0.255165994
vt 0.0231129993 -0.257750005
vt -1.68154204 -0.234183997
vt -1.68154204 -0.257750005
vt -1.68154204 -0.234183997
vt 0.0343529992 -0.234183997
vt 0.0231129993 -0.257750005
vt 0.0231149998 -0.262928009
vt 0.0343529992 -0.234183997
vt 0.0231149998 -0.262928009
vt 0.0343529992 -0.334183991
vt 0.0343529992 -0.334183991
vt 0.0231149998 -0.262928009
vt 0.0230509993 -0.310065001
vt -1.68154204 -0.334183991
vt -1.68154204 -0.310065001
vt -1.68154204 -0.334183991
vt 0.0343529992 -0.334183991
vt 0.0230509993 -0.310065001
vt 0.0230529997 -0.315171003
vt -1.68154204 -0.334183991
vt -1.68154204 -0.315171003
vt -1.68154204 -0.334183991
vt 0.0343529992 -0.334183991
vt 0.0230529997 -0.315171003
vt 0.0186269991 -0.317721993
vt 0.0343529992 -0.334183991
vt 0.0186269991 -0.317721993
vt 0.00142800005 -0.334183991
vt 0.00142800005 -0.334183991
vt 0.0186269991 -0.317721993
vt 0.0141970003 -0.315173
vt -1.68050003 -0.334183991
vt -1.68154204 -0.315173
vt -1.68050003 -0.334183991
vt 0.00142800005 -0.334183991
vt 0.0141970003 -0.315173
vt 0.0141960001 -0.310066998
vt 0.00142800005 -0.334183991
vt 0.0141960001 -0.310066998
vt 0.0141350003 -0.262930006
vt -1.68154204 -0.262930006
vt -1.68154204 -0.310066998
vt -1.68154204 -0.310066998
vt 0.0141350003 -0.262930006
vt 0.0141960001 -0.310066998
vt 0.0186269991 -0.265513986
vt 0.0186269991 -0.265513986
vt 0.0141960001 -0.310066998
vt 0.0186269991 -0.307516009
vt 0.0186269991 -0.265513986
vt 0.0186269991 -0.307516009
vt 0.0231149998 -0.262928009
vt 0.0231149998 -0.262928009
vt 0.0186269991 -0.307516009
vt 0.0230509993 -0.310065001
vt 0.00142800005 -0.334183991
vt 0.0141350003 -0.262930006
vt 0.00142800005 -0.234183997
vt 0.00142800005 -0.234183997
vt 0.0141350003 -0.262930006
vt 0.0141340001 -0.257752001
vt -0.512363017 0.41149199
vt -0.690302014 -0.282308996
vt -0.442012995 0.41149199
vt -0.442012995 0.41149199
vt -0.690302014 -0.282308996
vt -0.265386999 -0.282308996
vt -0.442012995 0.41149199
vt -0.265386999 -0.282308996
vt -0.442012995 0.41149199
vt -0.442012995 0.41149199
vt -0.265386999 -0.282308996
vt -0.265386999 0.514976978
vt -0.442012995 0.41149199
vt -0.265386999 0.514976978
vt -0.442012995 0.426764011
vt -0.442012995 0.426764011
vt -0.265386999 0.514976978
vt -0.265386999 0.514976978
vt -0.442012995 0.426764011
vt -0.265386999 0.514976978
vt -0.512363017 0.426764011
vt -0.512363017 0.426764011
vt -0.265386999 0.514976978
vt -0.690302014 0.514976978
vt -0.512363017 0.426764011
vt -0.690302014 0.514976978
vt -0.512363017 0.41149199
vt -0.512363017 0.41149199
vt -0.690302014 0.514976978
vt -0.690302014 -0.282308996
vt 0.0342140011 0.465815991
vt 0.0342140011 0.565815985
vt 0.0253539998 0.537129998
vt -1.682693 0.537129998
vt -1.682096 0.565815985
vt -1.682096 0.565815985
vt 0.0253539998 0.537129998
vt 0.0342140011 0.565815985
vt 0.025355 0.542187989
vt -1.682693 0.542187989
vt -1.682096 0.565815985
vt -1.682096 0.565815985
vt 0.025355 0.542187989
vt 0.0342140011 0.565815985
vt 0.0209829994 0.544718981
vt 0.0209829994 0.544718981
vt 0.0342140011 0.565815985
vt 0.00896099955 0.565815985
vt 0.0209829994 0.544718981
vt 0.00896099955 0.565815985
vt 0.0166120008 0.542191029
vt -1.68328202 0.542191029
vt -1.68371499 0.565815985
vt -1.68371499 0.565815985
vt 0.0166120008 0.542191029
vt 0.00896099955 0.565815985
vt 0.0166110005 0.537132025
vt 0.0166110005 0.537132025
vt 0.00896099955 0.565815985
vt 0.00896099955 0.465815991
vt 0.0166110005 0.537132025
vt 0.00896099955 0.465815991
vt 0.0167040005 0.489859015
vt -1.68327498 0.489859015
vt -1.68371499 0.465815991
vt -1.68371499 0.465815991
vt 0.0167040005 0.489859015
vt 0.00896099955 0.465815991
vt 0.0167030003 0.484905988
vt -1.68327606 0.484905988
vt -1.68371499 0.465815991
vt -1.68371499 0.465815991
vt 0.0167030003 0.484905988
vt 0.00896099955 0.465815991
vt 0.0209829994 0.482428014
vt 0.0209829994 0.482428014
vt 0.00896099955 0.465815991
vt 0.0342140011 0.465815991
vt 0.0209829994 0.482428014
vt 0.0342140011 0.465815991
vt 0.0252630003 0.484903008
vt -1.68269897 0.484903008
vt -1.682096 0.465815991
vt -1.682096 0.465815991
vt 0.0252630003 0.484903008
vt 0.0342140011 0.465815991
vt 0.0252640005 0.489856005
vt 0.0252640005 0.489856005
vt 0.0342140011 0.465815991
vt 0.0253539998 0.537129998
vt 0.0252640005 0.489856005
vt 0.0253539998 0.537129998
vt 0.0209829994 0.492334008
vt 0.0209829994 0.492334008
vt 0.0253539998 0.537129998
vt 0.0209829994 0.534600973
vt 0.0209829994 0.492334008
vt 0.0209829994 0.534600973
vt 0.0167040005 0.489859015
vt 0.0167040005 0.489859015
vt 0.0209829994 0.534600973
vt 0.0166110005 0.537132025
vt -0.690801978 -0.282808989
vt -0.264887005 -0.282808989
vt -0.265386999 -0.282308996
vt -0.265386999 -0.282308996
vt -0.264887005 -0.282808989
vt -0.264887005 0.515477002
vt -0.265386999 -0.282308996
vt -0.264887005 0.515477002
vt -0.265386999 0.514976978
vt -0.265386999 0.514976978
vt -0.264887005 0.515477002
vt -0.264887005 0.515477002
vt -0.265386999 0.514976978
vt -0.264887005 0.515477002
vt -0.690302014 0.514976978
vt -0.690302014 0.514976978
vt -0.264887005 0.515477002
vt -0.690801978 0.515477002
vt -0.690302014 0.514976978
vt -0.690801978 0.515477002
vt -0.690302014 0.514976978
vt -0.690302014 0.514976978
vt -0.690801978 0.515477002
vt -0.690801978 -0.282808989
vt -0.690302014 0.514976978
vt -0.690801978 -0.282808989
vt -0.690302014 -0.282308996
vt -0.690302014 -0.282308996
vt -0.690801978 -0.282808989
vt -0.265386999 -0.282308996
vt -0.0229540002 -0.257750005
vt -0.0186269991 -0.255165994
vt -0.0343529992 -0.234183997
vt -1.68390596 -0.234183997
vt -1.68149996 -0.255165994
vt -1.68149996 -0.255165994
vt -0.0343529992 -0.234183997
vt -0.0186269991 -0.255165994
vt -0.00435299985 -0.234183997
vt -0.00435299985 -0.234183997
vt -0.0186269991 -0.255165994
vt -0.013975 -0.257752001
vt -1.68390596 -0.234183997
vt -1.68390596 -0.257752001
vt -1.68390596 -0.234183997
vt -0.00435299985 -0.234183997
vt -0.013975 -0.257752001
vt -0.0139760002 -0.262930006
vt -0.00435299985 -0.234183997
vt -0.0139760002 -0.262930006
vt -0.00435299985 -0.334183991
vt -0.00435299985 -0.334183991
vt -0.0139760002 -0.262930006
vt -0.014037 -0.310066998
vt -1.68390596 -0.334183991
vt -1.68390596 -0.310066998
vt -1.68390596 -0.334183991
vt -0.00435299985 -0.334183991
vt -0.014037 -0.310066998
vt -0.0140380003 -0.315173
vt -1.68390596 -0.334183991
vt -1.68390596 -0.315173
vt -1.68390596 -0.334183991
vt -0.00435299985 -0.334183991
vt -0.0140380003 -0.315173
vt -0.0186269991 -0.317721993
vt -0.00435299985 -0.334183991
vt -0.0186269991 -0.317721993
vt -0.0343529992 -0.334183991
vt -0.0343529992 -0.334183991
vt -0.0186269991 -0.317721993
vt -0.0228930004 -0.315171003
vt -1.68390596 -0.334183991
vt -1.68390596 -0.315171003
vt -1.68390596 -0.334183991
vt -0.0343529992 -0.334183991
vt -0.0228930004 -0.315171003
vt -0.0228920002 -0.310065001
vt -0.0343529992 -0.334183991
vt -0.0228920002 -0.310065001
vt -0.0229550004 -0.262928009
vt -1.68390596 -0.262928009
vt -1.68390596 -0.310065001
vt -1.68390596 -0.310065001
vt -0.0229550004 -0.262928009
vt -0.0228920002 -0.310065001
vt -0.0186269991 -0.265513986
vt -0.0186269991 -0.265513986
vt -0.0228920002 -0.310065001
vt -0.0186269991 -0.307516009
vt -0.0186269991 -0.265513986
vt -0.0186269991 -0.307516009
vt -0.0139760002 -0.262930006
vt -0.0139760002 -0.262930006
vt -0.0186269991 -0.307516009
vt -0.014037 -0.310066998
vt -0.0343529992 -0.334183991
vt -0.0229550004 -0.262928009
vt -0.0343529992 -0.234183997
vt -0.0343529992 -0.234183997
vt -0.0229550004 -0.262928009
vt -0.0229540002 -0.257750005
vt 0.00896099955 -0.334183991
vt 0.0166110005 -0.262867987
vt 0.00896099955 -0.234183997
vt 0.00896099955 -0.234183997
vt 0.0166110005 -0.262867987
vt 0.0166120008 -0.257809013
vt -1.68371499 -0.234183997
vt -1.68328202 -0.257809013
vt -1.68371499 -0.234183997
vt 0.00896099955 -0.234183997
vt 0.0166120008 -0.257809013
vt 0.0209829994 -0.255281001
vt 0.00896099955 -0.234183997
vt 0.0209829994 -0.255281001
vt 0.0342140011 -0.234183997
vt 0.0342140011 -0.234183997
vt 0.0209829994 -0.255281001
vt 0.025355 -0.257811993
vt -1.682096 -0.234183997
vt -1.682693 -0.257811993
vt -1.682096 -0.234183997
vt 0.0342140011 -0.234183997
vt 0.025355 -0.257811993
vt 0.0253539998 -0.262870014
vt 0.0342140011 -0.234183997
vt 0.0253539998 -0.262870014
vt 0.0342140011 -0.334183991
vt 0.0342140011 -0.334183991
vt 0.0253539998 -0.262870014
vt 0.0252640005 -0.310144007
vt -1.682096 -0.334183991
vt -1.68269897 -0.310144007
vt -1.682096 -0.334183991
vt 0.0342140011 -0.334183991
vt 0.0252640005 -0.310144007
vt 0.0252630003 -0.315097004
vt -1.682096 -0.334183991
vt -1.68269897 -0.315097004
vt -1.682096 -0.334183991
vt 0.0342140011 -0.334183991
vt 0.0252630003 -0.315097004
vt 0.0209829994 -0.317571998
vt 0.0342140011 -0.334183991
vt 0.0209829994 -0.317571998
vt 0.00896099955 -0.334183991
vt 0.00896099955 -0.334183991
vt 0.0209829994 -0.317571998
vt 0.0167030003 -0.315093994
vt -1.68371499 -0.334183991
vt -1.68327606 -0.315093994
vt -1.68371499 -0.334183991
vt 0.00896099955 -0.334183991
vt 0.0167030003 -0.315093994
vt 0.0167040005 -0.310140997
vt 0.00896099955 -0.334183991
vt 0.0167040005 -0.310140997
vt 0.0166110005 -0.262867987
vt -1.68328202 -0.262867987
vt -1.68327498 -0.310140997
vt -1.68327498 -0.310140997
vt 0.0166110005 -0.262867987
vt 0.0167040005 -0.310140997
vt 0.0209829994 -0.265399009
vt 0.0209829994 -0.265399009
vt 0.0167040005 -0.310140997
vt 0.0209829994 -0.307666004
vt 0.0209829994 -0.265399009
vt 0.0209829994 -0.307666004
vt 0.0253539998 -0.262870014
vt 0.0253539998 -0.262870014
vt 0.0209829994 -0.307666004
vt 0.0252640005 -0.310144007
vt 0.0186269991 0.482277989
vt 0.0343529992 0.465815991
vt 0.0230529997 0.484829009
vt -1.68154204 0.484829009
vt -1.68154204 0.465815991
vt -1.68154204 0.465815991
vt 0.0230529997 0.484829009
vt 0.0343529992 0.465815991
vt 0.0230509993 0.489935011
vt 0.0230509993 0.489935011
vt 0.0343529992 0.465815991
vt 0.0231149998 0.537072003
vt 0.0230509993 0.489935011
vt 0.0231149998 0.537072003
vt 0.0186269991 0.492484003
vt 0.0186269991 0.492484003
vt 0.0231149998 0.537072003
vt 0.0186269991 0.534485996
vt 0.0186269991 0.492484003
vt 0.0186269991 0.534485996
vt 0.0141960001 0.489933014
vt 0.0141960001 0.489933014
vt 0.0186269991 0.534485996
vt 0.0141350003 0.537069976
vt 0.0141960001 0.489933014
vt 0.0141350003 0.537069976
vt 0.00142800005 0.465815991
vt -1.68050003 0.465815991
vt -1.68154204 0.537069976
vt -1.68154204 0.537069976
vt 0.00142800005 0.465815991
vt 0.0141350003 0.537069976
vt 0.00142800005 0.565815985
vt 0.00142800005 0.565815985
vt 0.0141350003 0.537069976
vt 0.0141340001 0.542248011
vt -1.68050003 0.565815985
vt -1.68154204 0.542248011
vt -1.68050003 0.565815985
vt 0.00142800005 0.565815985
vt 0.0141340001 0.542248011
vt 0.0186269991 0.544834018
vt 0.00142800005 0.565815985
vt 0.0186269991 0.544834018
vt 0.0343529992 0.565815985
vt 0.0343529992 0.565815985
vt 0.0186269991 0.544834018
vt 0.0231129993 0.542249978
vt -1.68154204 0.565815985
vt -1.68154204 0.542249978
vt -1.68154204 0.565815985
vt 0.0343529992 0.565815985
vt 0.0231129993 0.542249978
vt 0.0231149998 0.537072003
vt 0.0343529992 0.565815985
vt 0.0231149998 0.537072003
vt 0.0343529992 0.465815991
vt 0.0141960001 0.489933014
vt 0.00142800005 0.465815991
vt 0.0141970003 0.484827012
vt -1.68154204 0.484827012
vt -1.68050003 0.465815991
vt -1.68050003 0.465815991
vt 0.0141970003 0.484827012
vt 0.00142800005 0.465815991
vt 0.0186269991 0.482277989
vt 0.0186269991 0.482277989
vt 0.00142800005 0.465815991
vt 0.0343529992 0.465815991
vt -0.0343529992 0.465815991
vt -0.0229550004 0.537072003
vt -0.0343529992 0.565815985
vt -0.0343529992 0.565815985
vt -0.0229550004 0.537072003
vt -0.0229540002 0.542249978
vt -1.68390596 0.565815985
vt -1.68390596 0.542249978
vt -1.68390596 0.565815985
vt -0.0343529992 0.565815985
vt -0.0229540002 0.542249978
vt -0.0186269991 0.544834018
vt -0.0343529992 0.565815985
vt -0.0186269991 0.544834018
vt -0.00435299985 0.565815985
vt -0.00435299985 0.565815985
vt -0.0186269991 0.544834018
vt -0.013975 0.542248011
vt -1.68390596 0.565815985
vt -1.68390596 0.542248011
vt -1.68390596 0.565815985
vt -0.00435299985 0.565815985
vt -0.013975 0.542248011
vt -0.0139760002 0.537069976
vt -0.00435299985 0.565815985
vt -0.0139760002 0.537069976
vt -0.00435299985 0.465815991
vt -0.00435299985 0.465815991
vt -0.0139760002 0.537069976
vt -0.014037 0.489933014
vt -1.68390596 0.465815991
vt -1.68390596 0.489933014
vt -1.68390596 0.465815991
vt -0.00435299985 0.465815991
vt -0.014037 0.489933014
vt -0.0140380003 0.484827012
vt -1.68390596 0.465815991
vt -1.68390596 0.484827012
vt -1.68390596 0.465815991
vt -0.00435299985 0.465815991
vt -0.0140380003 0.484827012
vt -0.0186269991 0.482277989
vt -0.00435299985 0.465815991
vt -0.0186269991 0.482277989
vt -0.0343529992 0.465815991
vt -0.0343529992 0.465815991
vt -0.0186269991 0.482277989
vt -0.0228930004 0.484829009
vt -1.68390596 0.465815991
vt -1.68390596 0.484829009
vt -1.68390596 0.465815991
vt -0.0343529992 0.465815991
vt -0.0228930004 0.484829009
vt -0.0228920002 0.489935011
vt -0.0343529992 0.465815991
vt -0.0228920002 0.489935011
vt -0.0229550004 0.537072003
vt -1.68390596 0.537072003
vt -1.68390596 0.489935011
vt -1.68390596 0.489935011
vt -0.0229550004 0.537072003
vt -0.0228920002 0.489935011
vt -0.0186269991 0.534485996
vt -0.0186269991 0.534485996
vt -0.0228920002 0.489935011
vt -0.0186269991 0.492484003
vt -0.0186269991 0.534485996
vt -0.0186269991 0.492484003
vt -0.0139760002 0.537069976
vt -0.0139760002 0.537069976
vt -0.0186269991 0.492484003
vt -0.014037 0.489933014
vt -0.952995002 0.61481601
vt -0.952995002 -0.384184003
vt -0.865882993 0.218113005
vt -0.865882993 0.218113005
vt -0.952995002 -0.384184003
vt -0.952995002 -0.384184003
vt -0.865882993 0.218113005
vt -0.952995002 -0.384184003
vt -0.865289986 0.213598996
vt -0.865289986 0.213598996
vt -0.952995002 -0.384184003
vt -0.952995002 -0.384184003
vt -0.865289986 0.213598996
vt -0.952995002 -0.384184003
vt -0.863551021 0.209399
vt -0.863551021 0.209399
vt -0.952995002 -0.384184003
vt -0.952995002 -0.384184003
vt -0.863551021 0.209399
vt -0.952995002 -0.384184003
vt -0.860782027 0.205788001
vt -0.860782027 0.205788001
vt -0.952995002 -0.384184003
vt -0.952995002 -0.384184003
vt -0.860782027 0.205788001
vt -0.952995002 -0.384184003
vt -0.857173026 0.203017995
vt -0.857173026 0.203017995
vt -0.952995002 -0.384184003
vt -0.952995002 -0.384184003
vt -0.857173026 0.203017995
vt -0.952995002 -0.384184003
vt -0.852971971 0.201277003
vt -0.852971971 0.201277003
vt -0.952995002 -0.384184003
vt -0.761313021 -0.384184003
vt -0.852971971 0.201277003
vt -0.761313021 -0.384184003
vt -0.848457992 0.200681999
vt -0.848457992 0.200681999
vt -0.761313021 -0.384184003
vt -0.761313021 -0.384184003
vt -0.848457992 0.200681999
vt -0.761313021 -0.384184003
vt -0.843952 0.201275006
vt -0.843952 0.201275006
vt -0.761313021 -0.384184003
vt -0.761313021 -0.384184003
vt -0.843952 0.201275006
vt -0.761313021 -0.384184003
vt -0.839747012 0.203015
vt -0.839747012 0.203015
vt -0.761313021 -0.384184003
vt -0.761313021 -0.384184003
vt -0.839747012 0.203015
vt -0.761313021 -0.384184003
vt -0.836139023 0.205782995
vt -0.836139023 0.205782995
vt -0.761313021 -0.384184003
vt -0.761313021 -0.384184003
vt -0.836139023 0.205782995
vt -0.761313021 -0.384184003
vt -0.833368003 0.209390998
vt -0.833368003 0.209390998
vt -0.761313021 -0.384184003
vt -0.761313021 -0.384184003
vt -0.833368003 0.209390998
vt -0.761313021 -0.384184003
vt -0.831625998 0.213596001
vt -0.831625998 0.213596001
vt -0.761313021 -0.384184003
vt -0.761313021 -0.384184003
vt -0.831625998 0.213596001
vt -0.761313021 -0.384184003
vt -0.831031978 0.218103006
vt -0.831031978 0.218103006
vt -0.761313021 -0.384184003
vt -0.761313021 0.615815997
vt -0.831031978 0.218103006
vt -0.761313021 0.615815997
vt -0.831031978 0.288112998
vt -0.831031978 0.288112998
vt -0.761313021 0.615815997
vt -0.831031978 0.358112991
vt -0.831031978 0.288112998
vt -0.831031978 0.358112991
vt -0.831625998 0.292620003
vt -0.831625998 0.292620003
vt -0.831031978 0.358112991
vt -0.831624985 0.353599012
vt -0.831625998 0.292620003
vt -0.831624985 0.353599012
vt -0.833368003 0.296824008
vt -0.833368003 0.296824008
vt -0.831624985 0.353599012
vt -0.83336401 0.349399
vt -0.833368003 0.296824008
vt -0.83336401 0.349399
vt -0.836139023 0.300431997
vt -0.836139023 0.300431997
vt -0.83336401 0.349399
vt -0.836134017 0.345788002
vt -0.836139023 0.300431997
vt -0.836134017 0.345788002
vt -0.839747012 0.303200006
vt -0.839747012 0.303200006
vt -0.836134017 0.345788002
vt -0.839742005 0.343017995
vt -0.839747012 0.303200006
vt -0.839742005 0.343017995
vt -0.843952 0.304940999
vt -0.843952 0.304940999
vt -0.839742005 0.343017995
vt -0.843943 0.341277003
vt -0.843952 0.304940999
vt -0.843943 0.341277003
vt -0.848457992 0.305532992
vt -0.848457992 0.305532992
vt -0.843943 0.341277003
vt -0.848457992 0.340682
vt -0.848457992 0.305532992
vt -0.848457992 0.340682
vt -0.852971971 0.304937989
vt -0.852971971 0.304937989
vt -0.848457992 0.340682
vt -0.852962971 0.341275007
vt -0.852971971 0.304937989
vt -0.852962971 0.341275007
vt -0.857173026 0.303196996
vt -0.857173026 0.303196996
vt -0.852962971 0.341275007
vt -0.857168972 0.343014985
vt -0.857173026 0.303196996
vt -0.857168972 0.343014985
vt -0.860782027 0.30042699
vt -0.860782027 0.30042699
vt -0.857168972 0.343014985
vt -0.860776007 0.345782995
vt -0.860782027 0.30042699
vt -0.860776007 0.345782995
vt -0.863551021 0.296815991
vt -0.863551021 0.296815991
vt -0.860776007 0.345782995
vt -0.863547027 0.349391013
vt -0.863551021 0.296815991
vt -0.863547027 0.349391013
vt -0.865289986 0.292616993
vt -0.865289986 0.292616993
vt -0.863547027 0.349391013
vt -0.865288973 0.353596002
vt -0.865289986 0.292616993
vt -0.865288973 0.353596002
vt -0.865882993 0.288103014
vt -0.865882993 0.288103014
vt -0.865288973 0.353596002
vt -0.865882993 0.358103007
vt -0.865882993 0.288103014
vt -0.865882993 0.358103007
vt -0.952995002 0.61481601
vt -0.952995002 0.61481601
vt -0.865882993 0.358103007
vt -0.865289986 0.362616986
vt -0.952995002 0.61481601
vt -0.865289986 0.362616986
vt -0.952995002 0.615815997
vt -0.952995002 0.615815997
vt -0.865289986 0.362616986
vt -0.863551021 0.366816014
vt -0.952995002 0.615815997
vt -0.863551021 0.366816014
vt -0.952995002 0.615815997
vt -0.952995002 0.615815997
vt -0.863551021 0.366816014
vt -0.860782027 0.370427012
vt -0.952995002 0.615815997
vt -0.860782027 0.370427012
vt -0.952995002 0.615815997
vt -0.952995002 0.615815997
vt -0.860782027 0.370427012
vt -0.857173026 0.373196989
vt -0.952995002 0.615815997
vt -0.857173026 0.373196989
vt -0.952995002 0.615815997
vt -0.952995002 0.615815997
vt -0.857173026 0.373196989
vt -0.852971971 0.374938011
vt -0.952995002 0.615815997
vt -0.852971971 0.374938011
vt -0.761313021 0.615815997
vt -0.761313021 0.615815997
vt -0.852971971 0.374938011
vt -0.848457992 0.375533015
vt -0.761313021 0.615815997
vt -0.848457992 0.375533015
vt -0.761313021 0.615815997
vt -0.761313021 0.615815997
vt -0.848457992 0.375533015
vt -0.843952 0.374940991
vt -0.761313021 0.615815997
vt -0.843952 0.374940991
vt -0.761313021 0.615815997
vt -0.761313021 0.615815997
vt -0.843952 0.374940991
vt -0.839747012 0.373199999
vt -0.761313021 0.615815997
vt -0.839747012 0.373199999
vt -0.761313021 0.615815997
vt -0.761313021 0.615815997
vt -0.839747012 0.373199999
vt -0.836139023 0.370431989
vt -0.761313021 0.615815997
vt -0.836139023 0.370431989
vt -0.761313021 0.615815997
vt -0.761313021 0.615815997
vt -0.836139023 0.370431989
vt -0.833368003 0.366824001
vt -0.761313021 0.615815997
vt -0.833368003 0.366824001
vt -0.761313021 0.615815997
vt -0.761313021 0.615815997
vt -0.833368003 0.366824001
vt -0.831625998 0.362619996
vt -0.761313021 0.615815997
vt -0.831625998 0.362619996
vt -0.831031978 0.358112991
vt -0.952995002 0.61481601
vt -0.865882993 0.218113005
vt -0.865882993 0.288103014
vt -0.865882993 0.288103014
vt -0.865882993 0.218113005
vt -0.865882993 0.218113005
vt -0.865882993 0.288103014
vt -0.865882993 0.218113005
vt -0.865288973 0.283596009
vt -0.865288973 0.283596009
vt -0.865882993 0.218113005
vt -0.865288973 0.222619995
vt -0.865288973 0.283596009
vt -0.865288973 0.222619995
vt -0.863547027 0.279390991
vt -0.863547027 0.279390991
vt -0.865288973 0.222619995
vt -0.863547027 0.226824
vt -0.863547027 0.279390991
vt -0.863547027 0.226824
vt -0.860776007 0.275783002
vt -0.860776007 0.275783002
vt -0.863547027 0.226824
vt -0.860776007 0.230432004
vt -0.860776007 0.275783002
vt -0.860776007 0.230432004
vt -0.857168972 0.273014992
vt -0.857168972 0.273014992
vt -0.860776007 0.230432004
vt -0.857168972 0.233199999
vt -0.857168972 0.273014992
vt -0.857168972 0.233199999
vt -0.852962971 0.271275014
vt -0.852962971 0.271275014
vt -0.857168972 0.233199999
vt -0.852962971 0.234941006
vt -0.852962971 0.271275014
vt -0.852962971 0.234941006
vt -0.848457992 0.270682007
vt -0.848457992 0.270682007
vt -0.852962971 0.234941006
vt -0.848457992 0.235532999
vt -0.848457992 0.270682007
vt -0.848457992 0.235532999
vt -0.843943 0.27127701
vt -0.843943 0.27127701
vt -0.848457992 0.235532999
vt -0.843943 0.234937996
vt -0.843943 0.27127701
vt -0.843943 0.234937996
vt -0.839742005 0.273018003
vt -0.839742005 0.273018003
vt -0.843943 0.234937996
vt -0.839742005 0.233197004
vt -0.839742005 0.273018003
vt -0.839742005 0.233197004
vt -0.836134017 0.275788009
vt -0.836134017 0.275788009
vt -0.839742005 0.233197004
vt -0.836134017 0.230426997
vt -0.836134017 0.275788009
vt -0.836134017 0.230426997
vt -0.83336401 0.279399008
vt -0.83336401 0.279399008
vt -0.836134017 0.230426997
vt -0.83336401 0.226815999
vt -0.83336401 0.279399008
vt -0.83336401 0.226815999
vt -0.831624985 0.283598989
vt -0.831624985 0.283598989
vt -0.83336401 0.226815999
vt -0.831624985 0.222617
vt -0.831624985 0.283598989
vt -0.831624985 0.222617
vt -0.831031978 0.288112998
vt -0.831031978 0.288112998
vt -0.831624985 0.222617
vt -0.831031978 0.218103006
vt 0.748503029 -0.498486996
vt 0.708482027 -0.498486996
vt 0.756924987 -0.588163972
vt 0.756924987 -0.588163972
vt 0.708482027 -0.498486996
vt 0.708482027 -0.615818024
vt -0.990957975 -0.588163972
vt -0.990957975 -0.615818024
vt -0.990957975 -0.588163972
vt 0.756924987 -0.588163972
vt 0.708482027 -0.615818024
vt 0.958482027 -0.615818024
vt 0.756924987 -0.588163972
vt 0.958482027 -0.615818024
vt 0.927052975 -0.588163972
vt 0.927052975 -0.588163972
vt 0.958482027 -0.615818024
vt 0.958482027 -0.165818006
vt 0.927052975 -0.588163972
vt 0.958482027 -0.165818006
vt 0.927052975 -0.190607995
vt -0.990957975 -0.190607995
vt -0.990957975 -0.165818006
vt -0.990957975 -0.165818006
vt 0.927052975 -0.190607995
vt 0.958482027 -0.165818006
vt 0.756924987 -0.190607995
vt 0.756924987 -0.190607995
vt 0.958482027 -0.165818006
vt 0.708482027 -0.165818006
vt -0.990957975 -0.190607995
vt -0.990957975 -0.165818006
vt -0.990957975 -0.190607995
vt 0.756924987 -0.190607995
vt 0.708482027 -0.165818006
vt 0.708482027 -0.281141996
vt -0.990957975 -0.190607995
vt -0.990957975 -0.281141996
vt -0.990957975 -0.190607995
vt 0.756924987 -0.190607995
vt 0.708482027 -0.281141996
vt 0.748503029 -0.281141996
vt 0.756924987 -0.190607995
vt 0.748503029 -0.281141996
vt 0.756924987 -0.588163972
vt 0.756924987 -0.588163972
vt 0.748503029 -0.281141996
vt 0.748503029 -0.498486996
f 1/1 2/2 3/3
f 3/4 2/5 4/6
f 5/7 6/8 7/9
f 7/10 6/11 8/12
f 5/13 7/14 9/15
f 9/16 7/17 10/18
f 11/19 9/20 12/21
f 12/22 9/23 10/24
f 11/25 12/26 6/27
f 6/28 12/29 8/30
f 13/31 14/32 15/33
f 15/34 14/35 16/36
f 17/37 18/38 19/39
f 19/40 18/41 20/42
f 17/43 21/44 18/45
f 18/46 21/47 22/48
f 23/49 24/50 15/51
f 15/52 24/53 13/54
f 25/55 19/56 26/57
f 26/58 19/59 20/60
f 25/61 26/62 21/63
f 21/64 26/65 22/66
f 27/67 28/68 29/69
f 29/70 28/71 30/72
f 30/73 28/74 31/75
f 31/76 28/77 32/78
f 30/79 31/80 29/81
f 29/82 31/83 33/84
f 32/85 34/86 31/87
f 31/88 34/89 34/90
f 31/91 34/92 33/93
f 33/94 34/95 35/96
f 33/97 35/98 36/99
f 27/100 29/101 36/102
f 36/103 29/104 33/105
f 37/106 38/107 39/108
f 39/109 38/110 40/111
f 39/112 40/113 41/114
f 41/115 40/116 42/117
f 41/118 42/119 43/120
f 43/121 42/122 44/123
f 43/124 44/125 34/126
f 34/127 44/128 45/129
f 34/130 45/131 35/132
f 35/133 45/134 45/135
f 35/136 45/137 38/138
f 38/139 45/140 40/141
f 43/142 46/143 41/144
f 37/145 39/146 47/147
f 47/148 39/149 48/150
f 37/151 47/152 38/153
f 38/154 47/155 49/156
f 41/157 50/158 39/159
f 39/160 50/161 48/162
f 41/163 46/164 50/165
f 50/166 46/167 51/168
f 51/169 46/170 52/171
f 52/172 46/173 43/174
f 42/175 40/176 53/177
f 53/178 40/179 54/180
f 42/181 53/182 44/183
f 44/184 53/185 55/186
f 44/187 55/188 45/189
f 45/190 55/191 56/192
f 45/193 56/194 40/195
f 40/196 56/197 54/198
f 53/199 54/200 55/201
f 55/202 54/203 56/204
f 57/205 58/206 59/207
f 59/208 58/209 60/210
f 59/211 60/212 61/213
f 61/214 60/215 62/216
f 61/217 62/218 61/219
f 61/220 62/221 63/222
f 61/223 63/224 61/225
f 61/226 63/227 64/228
f 61/229 64/230 65/231
f 65/232 64/233 66/234
f 60/235 58/236 67/237
f 67/238 58/239 68/240
f 69/241 70/242 71/243
f 71/244 70/245 72/246
f 69/247 71/248 73/249
f 73/250 71/251 74/252
f 73/253 74/254 75/255
f 75/256 74/257 74/258
f 75/259 74/260 76/261
f 76/262 74/263 23/264
f 76/265 23/266 76/267
f 76/268 23/269 15/270
f 76/271 15/272 76/273
f 76/274 15/275 16/276
f 76/277 16/278 77/279
f 77/280 16/281 78/282
f 79/283 73/284 75/285
f 70/286 80/287 72/288
f 72/289 80/290 80/291
f 72/292 80/293 81/294
f 81/295 80/296 82/297
f 81/298 82/299 81/300
f 81/301 82/302 83/303
f 81/304 83/305 24/306
f 24/307 83/308 83/309
f 24/310 83/311 13/312
f 13/313 83/314 83/315
f 13/316 83/317 14/318
f 14/319 83/320 84/321
f 14/322 84/323 85/324
f 82/325 80/326 86/327
f 87/328 88/329 89/330
f 89/331 88/332 88/333
f 89/334 88/335 90/336
f 90/337 88/338 91/339
f 90/340 91/341 90/342
f 90/343 91/344 92/345
f 90/346 92/347 93/348
f 93/349 92/350 94/351
f 64/352 63/353 95/354
f 95/355 63/356 96/357
f 62/358 97/359 63/360
f 63/361 97/362 96/363
f 73/364 79/365 80/366
f 80/367 79/368 79/369
f 80/370 79/371 86/372
f 86/373 79/374 75/375
f 86/376 75/377 82/378
f 82/379 75/380 83/381
f 83/382 75/383 76/384
f 60/385 98/386 62/387
f 62/388 98/389 64/390
f 62/391 64/392 62/393
f 62/394 64/395 95/396
f 62/397 95/398 97/399
f 97/400 95/401 99/402
f 97/403 99/404 100/405
f 95/406 101/407 99/408
f 99/409 101/410 101/411
f 99/412 101/413 102/414
f 102/415 101/416 66/417
f 102/418 66/419 103/420
f 103/421 66/422 66/423
f 103/424 66/425 98/426
f 98/427 66/428 64/429
f 102/430 103/431 104/432
f 104/433 103/434 105/435
f 104/436 105/437 106/438
f 106/439 105/440 107/441
f 1/442 108/443 2/444
f 2/445 108/446 109/447
f 110/448 111/449 112/450
f 112/451 111/452 113/453
f 109/454 108/455 114/456
f 114/457 108/458 108/459
f 114/460 108/461 113/462
f 113/463 108/464 108/465
f 113/466 108/467 112/468
f 112/469 108/470 115/471
f 112/472 115/473 116/474
f 116/475 115/476 117/477
f 118/478 119/479 120/480
f 120/481 119/482 121/483
f 118/484 122/485 119/486
f 119/487 122/488 123/489
f 108/490 1/491 115/492
f 115/493 1/494 1/495
f 115/496 1/497 124/498
f 124/499 1/500 125/501
f 124/502 125/503 126/504
f 126/505 125/506 127/507
f 126/508 127/509 128/510
f 124/511 126/512 129/513
f 129/514 126/515 130/516
f 125/517 1/518 131/519
f 131/520 1/521 3/522
f 74/523 132/524 23/525
f 23/526 132/527 16/528
f 23/529 16/530 23/531
f 23/532 16/533 14/534
f 23/535 14/536 24/537
f 24/538 14/539 133/540
f 24/541 133/542 81/543
f 14/544 85/545 133/546
f 133/547 85/548 85/549
f 133/550 85/551 134/552
f 134/553 85/554 78/555
f 134/556 78/557 135/558
f 135/559 78/560 78/561
f 135/562 78/563 132/564
f 132/565 78/566 16/567
f 134/568 135/569 136/570
f 136/571 135/572 137/573
f 136/574 137/575 138/576
f 138/577 137/578 139/579
f 77/580 78/581 84/582
f 84/583 78/584 85/585
f 115/586 124/587 117/588
f 117/589 124/590 140/591
f 101/592 95/593 141/594
f 141/595 95/596 95/597
f 141/598 95/599 142/600
f 142/601 95/602 96/603
f 142/604 96/605 142/606
f 142/607 96/608 97/609
f 142/610 97/611 142/612
f 142/613 97/614 100/615
f 142/616 100/617 143/618
f 143/619 100/620 144/621
f 143/622 144/623 145/624
f 100/625 146/626 144/627
f 144/628 146/629 147/630
f 99/631 102/632 148/633
f 148/634 102/635 104/636
f 148/637 104/638 106/639
f 138/640 139/641 149/642
f 149/643 139/644 150/645
f 149/646 150/647 149/648
f 149/649 150/650 151/651
f 149/652 151/653 149/654
f 149/655 151/656 152/657
f 149/658 152/659 149/660
f 149/661 152/662 153/663
f 149/664 153/665 154/666
f 154/667 153/668 155/669
f 154/670 155/671 154/672
f 154/673 155/674 156/675
f 154/676 156/677 154/678
f 154/679 156/680 157/681
f 154/682 157/683 154/684
f 154/685 157/686 158/687
f 154/688 158/689 154/690
f 154/691 158/692 159/693
f 154/694 159/695 154/696
f 154/697 159/698 160/699
f 154/700 160/701 106/702
f 106/703 160/704 161/705
f 106/706 161/707 162/708
f 162/709 161/710 163/711
f 162/712 163/713 162/714
f 162/715 163/716 164/717
f 162/718 164/719 153/720
f 153/721 164/722 165/723
f 153/724 165/725 155/726
f 106/727 107/728 154/729
f 154/730 107/731 166/732
f 150/733 139/734 162/735
f 162/736 139/737 139/738
f 162/739 139/740 106/741
f 106/742 139/743 139/744
f 106/745 139/746 148/747
f 148/748 139/749 167/750
f 140/751 124/752 168/753
f 168/754 124/755 129/756
f 132/757 167/758 135/759
f 135/760 167/761 167/762
f 135/763 167/764 137/765
f 137/766 167/767 139/768
f 116/769 117/770 168/771
f 168/772 117/773 140/774
f 61/775 142/776 59/777
f 59/778 142/779 143/780
f 168/781 129/782 116/783
f 116/784 129/785 169/786
f 116/787 169/788 112/789
f 112/790 169/791 170/792
f 112/793 170/794 112/795
f 112/796 170/797 171/798
f 112/799 171/800 110/801
f 110/802 171/803 172/804
f 110/805 172/806 173/807
f 173/808 172/809 130/810
f 173/811 130/812 174/813
f 172/814 169/815 130/816
f 130/817 169/818 129/819
f 170/820 169/821 175/822
f 175/823 169/824 176/825
f 143/826 145/827 59/828
f 59/829 145/830 145/831
f 59/832 145/833 57/834
f 57/835 145/836 144/837
f 57/838 144/839 58/840
f 177/841 178/842 179/843
f 179/844 178/845 178/846
f 179/847 178/848 180/849
f 180/850 178/851 149/852
f 180/853 149/854 181/855
f 182/856 183/857 122/858
f 122/859 183/860 123/861
f 98/862 184/863 103/864
f 103/865 184/866 166/867
f 103/868 166/869 105/870
f 105/871 166/872 107/873
f 172/874 171/875 185/876
f 185/877 171/878 186/879
f 126/880 128/881 187/882
f 187/883 128/884 188/885
f 182/886 120/887 183/888
f 183/889 120/890 121/891
f 68/892 147/893 67/894
f 67/895 147/896 146/897
f 188/898 128/899 173/900
f 173/901 128/902 128/903
f 173/904 128/905 110/906
f 110/907 128/908 128/909
f 110/910 128/911 111/912
f 111/913 128/914 127/915
f 111/916 127/917 189/918
f 189/919 127/920 190/921
f 125/922 131/923 191/924
f 191/925 131/926 192/927
f 176/928 169/929 185/930
f 185/931 169/932 172/933
f 174/934 187/935 173/936
f 173/937 187/938 188/939
f 192/940 131/941 189/942
f 189/943 131/944 131/945
f 189/946 131/947 111/948
f 111/949 131/950 3/951
f 111/952 3/953 113/954
f 113/955 3/956 3/957
f 113/958 3/959 114/960
f 114/961 3/962 4/963
f 138/964 149/965 136/966
f 136/967 149/968 149/969
f 136/970 149/971 134/972
f 134/973 149/974 193/975
f 134/976 193/977 133/978
f 186/979 171/980 175/981
f 175/982 171/983 170/984
f 167/985 132/986 148/987
f 148/988 132/989 99/990
f 180/991 90/992 179/993
f 179/994 90/995 93/996
f 191/997 192/998 190/999
f 190/1000 192/1001 189/1002
f 127/1003 125/1004 190/1005
f 190/1006 125/1007 191/1008
f 130/1009 126/1010 174/1011
f 174/1012 126/1013 187/1014
f 4/1015 2/1016 114/1017
f 114/1018 2/1019 109/1020
f 194/1021 100/1022 195/1023
f 195/1024 100/1025 74/1026
f 195/1027 74/1028 196/1029
f 196/1030 74/1031 74/1032
f 196/1033 74/1034 197/1035
f 197/1036 74/1037 198/1038
f 197/1039 198/1040 197/1041
f 197/1042 198/1043 199/1044
f 197/1045 199/1046 200/1047
f 200/1048 199/1049 201/1050
f 200/1051 201/1052 202/1053
f 202/1054 201/1055 203/1056
f 202/1057 203/1058 204/1059
f 204/1060 203/1061 74/1062
f 204/1063 74/1064 204/1065
f 204/1066 74/1067 81/1068
f 204/1069 81/1070 205/1071
f 205/1072 81/1073 81/1074
f 205/1075 81/1076 206/1077
f 206/1078 81/1079 81/1080
f 206/1081 81/1082 207/1083
f 207/1084 81/1085 177/1086
f 207/1087 177/1088 208/1089
f 208/1090 177/1091 179/1092
f 208/1093 179/1094 209/1095
f 209/1096 179/1097 210/1098
f 209/1099 210/1100 209/1101
f 209/1102 210/1103 195/1104
f 209/1105 195/1106 196/1107
f 179/1108 93/1109 210/1110
f 210/1111 93/1112 93/1113
f 210/1114 93/1115 211/1116
f 211/1117 93/1118 94/1119
f 211/1120 94/1121 212/1122
f 212/1123 94/1124 94/1125
f 212/1126 94/1127 213/1128
f 213/1129 94/1130 60/1131
f 213/1132 60/1133 214/1134
f 214/1135 60/1136 60/1137
f 214/1138 60/1139 215/1140
f 215/1141 60/1142 216/1143
f 215/1144 216/1145 215/1146
f 215/1147 216/1148 217/1149
f 215/1150 217/1151 218/1152
f 218/1153 217/1154 219/1155
f 218/1156 219/1157 220/1158
f 220/1159 219/1160 194/1161
f 220/1162 194/1163 212/1164
f 212/1165 194/1166 211/1167
f 219/1168 221/1169 194/1170
f 194/1171 221/1172 221/1173
f 194/1174 221/1175 100/1176
f 100/1177 221/1178 222/1179
f 100/1180 222/1181 100/1182
f 100/1183 222/1184 223/1185
f 100/1186 223/1187 100/1188
f 100/1189 223/1190 216/1191
f 100/1192 216/1193 60/1194
f 208/1195 197/1196 207/1197
f 207/1198 197/1199 200/1200
f 203/1201 224/1202 74/1203
f 74/1204 224/1205 225/1206
f 74/1207 225/1208 198/1209
f 223/1210 222/1211 100/1212
f 100/1213 222/1214 222/1215
f 100/1216 222/1217 146/1218
f 146/1219 222/1220 221/1221
f 146/1222 221/1223 146/1224
f 146/1225 221/1226 219/1227
f 146/1228 219/1229 67/1230
f 67/1231 219/1232 220/1233
f 67/1234 220/1235 67/1236
f 67/1237 220/1238 212/1239
f 67/1240 212/1241 67/1242
f 67/1243 212/1244 213/1245
f 67/1246 213/1247 60/1248
f 60/1249 213/1250 214/1251
f 60/1252 214/1253 60/1254
f 60/1255 214/1256 215/1257
f 60/1258 215/1259 216/1260
f 216/1261 215/1262 215/1263
f 216/1264 215/1265 217/1266
f 217/1267 215/1268 218/1269
f 217/1270 218/1271 219/1272
f 219/1273 218/1274 220/1275
f 60/1276 216/1277 100/1278
f 100/1279 216/1280 223/1281
f 226/1282 182/1283 227/1284
f 227/1285 182/1286 122/1287
f 227/1288 122/1289 227/1290
f 227/1291 122/1292 118/1293
f 227/1294 118/1295 228/1296
f 228/1297 118/1298 118/1299
f 228/1300 118/1301 229/1302
f 229/1303 118/1304 120/1305
f 229/1306 120/1307 226/1308
f 226/1309 120/1310 182/1311
f 77/1312 84/1313 230/1314
f 230/1315 84/1316 84/1317
f 230/1318 84/1319 231/1320
f 231/1321 84/1322 84/1323
f 231/1324 84/1325 232/1326
f 232/1327 84/1328 83/1329
f 232/1330 83/1331 233/1332
f 233/1333 83/1334 83/1335
f 233/1336 83/1337 234/1338
f 234/1339 83/1340 76/1341
f 234/1342 76/1343 235/1344
f 235/1345 76/1346 76/1347
f 235/1348 76/1349 236/1350
f 236/1351 76/1352 76/1353
f 236/1354 76/1355 237/1356
f 237/1357 76/1358 77/1359
f 237/1360 77/1361 238/1362
f 238/1363 77/1364 77/1365
f 238/1366 77/1367 239/1368
f 239/1369 77/1370 230/1371
f 239/1372 230/1373 240/1374
f 240/1375 230/1376 241/1377
f 240/1378 241/1379 235/1380
f 235/1381 241/1382 234/1383
f 175/1384 176/1385 123/1386
f 123/1387 176/1388 185/1389
f 123/1390 185/1391 119/1392
f 119/1393 185/1394 185/1395
f 119/1396 185/1397 121/1398
f 121/1399 185/1400 186/1401
f 121/1402 186/1403 121/1404
f 121/1405 186/1406 175/1407
f 121/1408 175/1409 183/1410
f 183/1411 175/1412 123/1413
f 242/1414 222/1415 147/1416
f 147/1417 222/1418 222/1419
f 147/1420 222/1421 144/1422
f 144/1423 222/1424 243/1425
f 144/1426 243/1427 144/1428
f 144/1429 243/1430 244/1431
f 144/1432 244/1433 58/1434
f 58/1435 244/1436 245/1437
f 58/1438 245/1439 58/1440
f 58/1441 245/1442 246/1443
f 58/1444 246/1445 58/1446
f 58/1447 246/1448 213/1449
f 58/1450 213/1451 68/1452
f 68/1453 213/1454 247/1455
f 68/1456 247/1457 68/1458
f 68/1459 247/1460 248/1461
f 68/1462 248/1463 249/1464
f 249/1465 248/1466 248/1467
f 249/1468 248/1469 217/1470
f 217/1471 248/1472 218/1473
f 217/1474 218/1475 244/1476
f 244/1477 218/1478 245/1479
f 68/1480 249/1481 147/1482
f 147/1483 249/1484 242/1485
f 61/1486 250/1487 142/1488
f 142/1489 250/1490 251/1491
f 142/1492 251/1493 142/1494
f 142/1495 251/1496 252/1497
f 142/1498 252/1499 141/1500
f 141/1501 252/1502 253/1503
f 141/1504 253/1505 141/1506
f 141/1507 253/1508 254/1509
f 141/1510 254/1511 65/1512
f 65/1513 254/1514 255/1515
f 65/1516 255/1517 65/1518
f 65/1519 255/1520 256/1521
f 65/1522 256/1523 65/1524
f 65/1525 256/1526 257/1527
f 65/1528 257/1529 61/1530
f 61/1531 257/1532 258/1533
f 61/1534 258/1535 61/1536
f 61/1537 258/1538 259/1539
f 61/1540 259/1541 250/1542
f 250/1543 259/1544 259/1545
f 250/1546 259/1547 260/1548
f 260/1549 259/1550 261/1551
f 260/1552 261/1553 254/1554
f 254/1555 261/1556 255/1557
f 225/1558 71/1559 198/1560
f 198/1561 71/1562 71/1563
f 198/1564 71/1565 199/1566
f 199/1567 71/1568 200/1569
f 199/1570 200/1571 201/1572
f 201/1573 200/1574 202/1575
f 201/1576 202/1577 203/1578
f 203/1579 202/1580 204/1581
f 203/1582 204/1583 74/1584
f 74/1585 204/1586 204/1587
f 74/1588 204/1589 81/1590
f 81/1591 204/1592 205/1593
f 81/1594 205/1595 81/1596
f 81/1597 205/1598 206/1599
f 81/1600 206/1601 72/1602
f 72/1603 206/1604 207/1605
f 72/1606 207/1607 72/1608
f 72/1609 207/1610 200/1611
f 72/1612 200/1613 71/1614
f 203/1615 74/1616 224/1617
f 224/1618 74/1619 74/1620
f 224/1621 74/1622 225/1623
f 225/1624 74/1625 71/1626
f 69/1627 262/1628 70/1629
f 70/1630 262/1631 263/1632
f 70/1633 263/1634 70/1635
f 70/1636 263/1637 206/1638
f 70/1639 206/1640 80/1641
f 80/1642 206/1643 264/1644
f 80/1645 264/1646 80/1647
f 80/1648 264/1649 265/1650
f 80/1651 265/1652 73/1653
f 73/1654 265/1655 266/1656
f 73/1657 266/1658 73/1659
f 73/1660 266/1661 267/1662
f 73/1663 267/1664 73/1665
f 73/1666 267/1667 225/1668
f 73/1669 225/1670 69/1671
f 69/1672 225/1673 268/1674
f 69/1675 268/1676 69/1677
f 69/1678 268/1679 269/1680
f 69/1681 269/1682 262/1683
f 262/1684 269/1685 269/1686
f 262/1687 269/1688 202/1689
f 202/1690 269/1691 201/1692
f 202/1693 201/1694 265/1695
f 265/1696 201/1697 266/1698
f 270/1699 87/1700 271/1701
f 271/1702 87/1703 87/1704
f 271/1705 87/1706 272/1707
f 272/1708 87/1709 87/1710
f 272/1711 87/1712 273/1713
f 273/1714 87/1715 87/1716
f 273/1717 87/1718 274/1719
f 274/1720 87/1721 87/1722
f 274/1723 87/1724 275/1725
f 275/1726 87/1727 87/1728
f 275/1729 87/1730 276/1731
f 276/1732 87/1733 89/1734
f 276/1735 89/1736 277/1737
f 277/1738 89/1739 89/1740
f 277/1741 89/1742 278/1743
f 278/1744 89/1745 89/1746
f 278/1747 89/1748 279/1749
f 279/1750 89/1751 89/1752
f 279/1753 89/1754 280/1755
f 280/1756 89/1757 89/1758
f 280/1759 89/1760 281/1761
f 281/1762 89/1763 89/1764
f 281/1765 89/1766 282/1767
f 282/1768 89/1769 89/1770
f 282/1771 89/1772 283/1773
f 283/1774 89/1775 181/1776
f 283/1777 181/1778 284/1779
f 284/1780 181/1781 285/1782
f 284/1783 285/1784 286/1785
f 286/1786 285/1787 287/1788
f 286/1789 287/1790 288/1791
f 288/1792 287/1793 289/1794
f 288/1795 289/1796 290/1797
f 290/1798 289/1799 291/1800
f 290/1801 291/1802 292/1803
f 292/1804 291/1805 293/1806
f 292/1807 293/1808 294/1809
f 294/1810 293/1811 295/1812
f 294/1813 295/1814 296/1815
f 296/1816 295/1817 297/1818
f 296/1819 297/1820 298/1821
f 298/1822 297/1823 299/1824
f 298/1825 299/1826 300/1827
f 300/1828 299/1829 301/1830
f 300/1831 301/1832 302/1833
f 302/1834 301/1835 303/1836
f 302/1837 303/1838 304/1839
f 304/1840 303/1841 305/1842
f 304/1843 305/1844 306/1845
f 306/1846 305/1847 307/1848
f 306/1849 307/1850 308/1851
f 308/1852 307/1853 309/1854
f 308/1855 309/1856 270/1857
f 270/1858 309/1859 310/1860
f 270/1861 310/1862 311/1863
f 311/1864 310/1865 312/1866
f 311/1867 312/1868 311/1869
f 311/1870 312/1871 313/1872
f 311/1873 313/1874 311/1875
f 311/1876 313/1877 314/1878
f 311/1879 314/1880 311/1881
f 311/1882 314/1883 315/1884
f 311/1885 315/1886 181/1887
f 181/1888 315/1889 316/1890
f 181/1891 316/1892 181/1893
f 181/1894 316/1895 317/1896
f 181/1897 317/1898 181/1899
f 181/1900 317/1901 318/1902
f 181/1903 318/1904 181/1905
f 181/1906 318/1907 319/1908
f 181/1909 319/1910 181/1911
f 181/1912 319/1913 320/1914
f 181/1915 320/1916 181/1917
f 181/1918 320/1919 321/1920
f 181/1921 321/1922 285/1923
f 270/1924 271/1925 308/1926
f 308/1927 271/1928 271/1929
f 308/1930 271/1931 322/1932
f 322/1933 271/1934 323/1935
f 322/1936 323/1937 324/1938
f 324/1939 323/1940 325/1941
f 324/1942 325/1943 326/1944
f 326/1945 325/1946 327/1947
f 326/1948 327/1949 328/1950
f 328/1951 327/1952 329/1953
f 328/1954 329/1955 330/1956
f 330/1957 329/1958 331/1959
f 330/1960 331/1961 332/1962
f 332/1963 331/1964 333/1965
f 332/1966 333/1967 334/1968
f 334/1969 333/1970 335/1971
f 334/1972 335/1973 336/1974
f 336/1975 335/1976 337/1977
f 336/1978 337/1979 338/1980
f 338/1981 337/1982 339/1983
f 338/1984 339/1985 340/1986
f 340/1987 339/1988 341/1989
f 340/1990 341/1991 342/1992
f 342/1993 341/1994 343/1995
f 342/1996 343/1997 284/1998
f 284/1999 343/2000 283/2001
f 344/2002 34/2003 18/2004
f 18/2005 34/2006 32/2007
f 18/2008 32/2009 18/2010
f 18/2011 32/2012 28/2013
f 18/2014 28/2015 20/2016
f 20/2017 28/2018 27/2019
f 20/2020 27/2021 26/2022
f 26/2023 27/2024 27/2025
f 26/2026 27/2027 22/2028
f 22/2029 27/2030 36/2031
f 22/2032 36/2033 22/2034
f 22/2035 36/2036 35/2037
f 22/2038 35/2039 22/2040
f 22/2041 35/2042 345/2043
f 22/2044 345/2045 18/2046
f 18/2047 345/2048 344/2049
