# Exported from USD for MuJoCo with source material subsets
v 19.4984895 4.66476623 0.423821994
v 19.4984895 4.66476623 0.453821991
v 19.5162409 4.66476623 0.453821991
v 19.5162409 4.66476623 0.423821994
v 19.5162409 4.61121219 0.453821991
v 19.5162409 4.61121219 0.423821994
v 19.3901255 4.61121219 0.423821987
v 19.3901255 4.61121219 0.453821991
v 19.3714203 4.61121219 0.453821991
v 19.3714203 4.61121219 0.423821987
v 19.3714203 4.66476623 0.453821991
v 19.3714203 4.66476623 0.423821987
v 19.3901255 4.66476623 0.423821987
v 19.3901255 4.62476626 0.423821987
v 19.3901255 4.62476626 0.453821991
v 19.3901255 4.66476623 0.453821991
v 19.4984895 4.61121219 0.453821991
v 19.4984895 4.62476626 0.453821991
v 19.4984895 4.61121219 0.423821994
v 19.4984895 4.62476626 0.423821994
v 19.4984895 5.11038317 0.423821994
v 19.5162409 5.11038317 0.423821994
v 19.5162409 5.11038317 0.453821991
v 19.4984895 5.11038317 0.453821991
v 19.5162409 5.16393724 0.423821994
v 19.5162409 5.16393724 0.453821991
v 19.3901255 5.16393724 0.423821987
v 19.3714203 5.16393724 0.423821987
v 19.3714203 5.16393724 0.453821991
v 19.3901255 5.16393724 0.453821991
v 19.3714203 5.11038317 0.423821987
v 19.3714203 5.11038317 0.453821991
v 19.3901255 5.15038317 0.423821987
v 19.3901255 5.11038317 0.423821987
v 19.3901255 5.15038317 0.453821991
v 19.3901255 5.11038317 0.453821991
v 19.4984895 5.16393724 0.453821991
v 19.4984895 5.15038317 0.453821991
v 19.4984895 5.15038317 0.423821994
v 19.4984895 5.16393724 0.423821994
v 19.4274026 4.79741619 0.512568426
v 19.3130222 4.79741619 0.465073858
v 19.3116339 4.71363082 0.455486682
v 19.4504912 4.71203603 0.52215564
v 19.3130222 4.96281554 0.465073858
v 19.3072939 5.05183093 0.455486682
v 19.4274026 4.96281554 0.512568426
v 19.4504912 5.05545379 0.52215564
v 19.5567004 4.69536371 0.493182731
v 19.5567004 5.07154472 0.493182731
v 19.5567004 5.08117817 0.502816182
v 19.5567004 4.68573026 0.502816182
v 19.5567004 5.07154472 0.0659527452
v 19.5567004 5.08117817 0.0563192637
v 19.5567004 4.69536371 0.0659527452
v 19.5567004 4.68573026 0.0563192637
v 19.0817606 4.84838361 0.167637926
v 19.0667606 4.85571178 0.150667933
v 19.0667606 4.80298384 0.101359871
v 19.0817606 4.78390201 0.103923228
v 19.0667606 4.80025986 0.0185369522
v 19.0817606 4.78199367 0.00194689342
v 19.0667606 4.95376136 0.0185369522
v 19.0817606 4.97069015 0.00194689342
v 19.0667606 4.95383864 0.101359871
v 19.0817606 4.97326549 0.103923228
v 19.0667606 4.91264782 0.150667933
v 19.0817606 4.92195504 0.167637926
v 19.2767608 4.94516932 0.207846266
v 19.2767608 4.82516931 0.207846266
v 19.2767608 4.76516932 0.103923228
v 19.2767608 4.78198958 2.05718994e-07
v 19.2767608 4.97034951 2.05718994e-07
v 19.2767608 5.00516932 0.103923228
v 19.2604459 4.93011623 0.182368946
v 19.2604459 4.83888372 0.182368946
v 19.255403 4.92722913 0.17736834
v 19.255403 4.84177082 0.177368325
v 19.2512531 4.93445503 0.189288554
v 19.2512531 4.83588361 0.189288554
v 19.1680452 4.93133003 0.183875915
v 19.1567607 4.93088361 0.183102679
v 19.1567607 4.83945503 0.183102679
v 19.1680452 4.83900861 0.183875915
v 19.1417607 4.92103637 0.165868548
v 19.1267607 4.92731219 0.176916805
v 19.1267607 4.84302646 0.176916805
v 19.1417607 4.84781018 0.165868533
v 19.1117607 4.92552646 0.173823831
v 19.0967606 4.91339388 0.152058956
v 19.0967606 4.85458133 0.152058956
v 19.1117607 4.84481217 0.173823831
v 19.2604459 4.9775389 0.103359249
v 19.255403 4.97357108 0.103359249
v 19.2512531 4.99044447 0.103923228
v 19.1680452 4.98614975 0.103923228
v 19.1567607 4.98553618 0.103923228
v 19.1417607 4.96603047 0.102452812
v 19.1267607 4.98062791 0.103923228
v 19.1117607 4.97817378 0.103923228
v 19.0967606 4.95302178 0.101125804
v 19.260446 4.95340111 0.0195910902
v 19.2554031 4.95344346 0.019833234
v 19.2512531 4.97050671 0.00089862653
v 19.1680452 4.97055258 0.00116070815
v 19.1567607 4.97055914 0.00119813987
v 19.1417607 4.95561482 0.0169595153
v 19.1267607 4.97061153 0.00149765321
v 19.1117607 4.97063773 0.00164740988
v 19.0967606 4.94916739 0.0232664616
v 19.2604459 4.80109105 0.0195910604
v 19.255403 4.80109158 0.0198331744
v 19.2512531 4.78199146 0.00089862653
v 19.1680452 4.78199201 0.00116070815
v 19.1567607 4.78199209 0.00119813987
v 19.1417607 4.79842855 0.0169595153
v 19.1267607 4.78199272 0.00149765321
v 19.1117607 4.78199304 0.00164740988
v 19.0967606 4.80532782 0.0232664616
v 19.2604459 4.78982298 0.103359249
v 19.255403 4.79215272 0.103359249
v 19.2512531 4.77381518 0.103923228
v 19.1680452 4.77633688 0.103923228
v 19.1567607 4.77669713 0.103923228
v 19.1417607 4.79521612 0.102452812
v 19.1267607 4.77957909 0.103923228
v 19.1117607 4.78102007 0.103923228
v 19.0967606 4.80568437 0.101125804
v 19.2109262 4.84639319 0.168219459
v 19.2018987 4.83766932 0.186195624
v 19.2018987 4.77525616 0.103923228
v 19.2109262 4.79699277 0.102538136
v 19.2018987 4.78199177 0.001048413
v 19.2109263 4.80255827 0.0209982664
v 19.2018987 4.97053291 0.001048413
v 19.2109263 4.95195075 0.0209982664
v 19.2018987 4.98799034 0.103923228
v 19.2109263 4.96617674 0.102538136
v 19.2018987 4.93266932 0.186195624
v 19.2109263 4.92223543 0.168219459
v 19.238009 4.92579397 0.174425048
v 19.238009 4.84328393 0.174425048
v 19.2289814 4.93374075 0.1880514
v 19.2289814 4.83659789 0.188051385
v 19.2199538 4.9333836 0.187432793
v 19.2199538 4.83695503 0.187432793
v 19.238009 4.97288974 0.102969256
v 19.2289814 4.98946281 0.103923228
v 19.2199538 4.988972 0.103923228
v 19.238009 4.95649715 0.0161274345
v 19.2289814 4.97051721 0.000958499395
v 19.2199539 4.97052242 0.000988510334
v 19.238009 4.79754269 0.0161274941
v 19.2289814 4.78199158 0.000958499395
v 19.2199538 4.78199165 0.000988510334
v 19.238009 4.79089165 0.102969256
v 19.2289814 4.77439157 0.103923228
v 19.2199538 4.77467976 0.103923228
v 19.1906142 4.83811574 0.185422373
v 19.1906142 4.7756164 0.103923228
v 19.1793297 4.84814431 0.164730471
v 19.1793297 4.79971145 0.102259335
v 19.1906142 4.78199185 0.00108584472
v 19.1793297 4.80436648 0.0227058203
v 19.1906142 4.97053947 0.00108584472
v 19.1793297 4.95028224 0.0227059097
v 19.1906142 4.9873768 0.103923228
v 19.1793297 4.96283223 0.102259335
v 19.1906142 4.93222289 0.185422373
v 19.1793297 4.92027976 0.164730457
v 19.0521288 4.90060635 0.0646041305
v 19.0521288 4.90060635 0.0960248978
v 19.0773128 4.90060635 0.0960248978
v 19.0773128 4.90060635 0.0646041305
v 19.0773128 4.85076069 0.0960248978
v 19.0773128 4.85076069 0.0646041305
v 19.0477965 4.85076069 0.0646041305
v 19.0477965 4.85076069 0.0960248978
v 19.0017607 4.85076069 0.0960248978
v 19.0017607 4.85076069 0.0646041305
v 19.0017607 4.89560636 0.0696040959
v 19.0017607 4.85576068 0.0696040959
v 18.9817636 4.85576068 0.0696040959
v 18.9817636 4.89560636 0.0696040959
v 19.0477965 4.90060635 0.0646041305
v 19.0017607 4.90060635 0.0646041305
v 19.0477965 4.90060635 0.0960248978
v 19.0017607 4.90060635 0.0960248978
v 19.0521288 4.85076069 0.0960248978
v 19.0492406 4.85076069 0.0960248978
v 19.0492406 4.90060635 0.0960248978
v 19.0521288 4.85076069 0.0646041305
v 19.0492406 4.90060635 0.0646041305
v 19.0492406 4.85076069 0.0646041305
v 19.0506847 4.90060635 0.0646041305
v 19.0506847 4.90060635 0.0960248978
v 19.0506847 4.90460635 0.0960248978
v 19.0506847 4.91960635 0.0646041305
v 19.0506847 4.91960635 0.0810249121
v 19.0506847 4.85076069 0.0960248978
v 19.0506847 4.85076069 0.0646041305
v 19.0506847 4.8317607 0.0646041305
v 19.0506847 4.84676068 0.0960248978
v 19.0506847 4.8317607 0.0810249121
v 19.0492406 4.8317607 0.0810249121
v 19.0492406 4.8317607 0.0646041305
v 19.0492406 4.84676068 0.0960248978
v 19.0492406 4.91960635 0.0646041305
v 19.0492406 4.90460635 0.0960248978
v 19.0492406 4.91960635 0.0810249121
v 19.0017607 4.89560636 0.0910249025
v 19.0017607 4.85576068 0.0910249025
v 18.9817636 4.85576068 0.0910249025
v 18.9817636 4.89560636 0.0910249025
v 19.5289595 4.70274216 0.549428326
v 19.5253554 4.70274216 0.750031737
v 19.5243026 4.70020026 0.750031737
v 19.526851 4.69765182 0.549428326
v 19.5217607 4.69914736 0.750031737
v 19.5217607 4.69554332 0.549428326
v 19.5192187 4.70020026 0.750031737
v 19.5166703 4.69765182 0.549428326
v 19.5181658 4.70274216 0.750031737
v 19.5145618 4.70274216 0.549428326
v 19.5192187 4.70528407 0.750031737
v 19.5166703 4.7078325 0.549428326
v 19.5217607 4.70633694 0.750031737
v 19.5217607 4.709941 0.549428326
v 19.5243026 4.70528407 0.750031737
v 19.526851 4.7078325 0.549428326
v 19.5282855 4.70926697 0.525584367
v 19.5309882 4.70274216 0.525584367
v 19.5282855 4.69621734 0.525584367
v 19.5217607 4.69351467 0.525584367
v 19.5152358 4.69621734 0.525584367
v 19.5125332 4.70274216 0.525584367
v 19.5152358 4.70926697 0.525584367
v 19.5217607 4.71196964 0.525584367
vt 0.375 0.166666627
vt 0.625 0.166666627
vt 0.625 0.25
vt 0.375 0.166666627
vt 0.625 0.25
vt 0.375 0.25
vt 0.375 0.25
vt 0.625 0.25
vt 0.625 0.5
vt 0.375 0.25
vt 0.625 0.5
vt 0.375 0.5
vt 0.375 0.666666627
vt 0.625 0.666666627
vt 0.625 0.75
vt 0.375 0.666666627
vt 0.625 0.75
vt 0.375 0.75
vt 0.375 0.75
vt 0.625 0.75
vt 0.625 1
vt 0.375 0.75
vt 0.625 1
vt 0.375 1
vt 0.125 0.75
vt 0.125 0.666666627
vt 0.311727196 0.666666627
vt 0.311727196 0.666666627
vt 0.375 0.666666627
vt 0.375 0.75
vt 0.311727196 0.666666627
vt 0.375 0.75
vt 0.125 0.75
vt 0.625 0.75
vt 0.625 0.666666627
vt 0.688272774 0.666666627
vt 0.688272774 0.666666627
vt 0.874999881 0.666666567
vt 0.875 0.75
vt 0.688272774 0.666666627
vt 0.875 0.75
vt 0.625 0.75
vt 0.62499994 0.583333254
vt 0.625 0.5
vt 0.875 0.5
vt 0.875 0.5
vt 0.875 0.583333254
vt 0.688272715 0.583333254
vt 0.875 0.5
vt 0.688272715 0.583333254
vt 0.62499994 0.583333254
vt 0.124999985 0.583333254
vt 0.125 0.5
vt 0.375 0.5
vt 0.375 0.5
vt 0.375 0.583333313
vt 0.311727196 0.583333313
vt 0.375 0.5
vt 0.311727196 0.583333313
vt 0.124999985 0.583333254
vt 0.375 0.5
vt 0.625 0.5
vt 0.62499994 0.583333254
vt 0.375 0.5
vt 0.62499994 0.583333254
vt 0.375 0.583333313
vt 0.375 0.583333313
vt 0.62499994 0.583333254
vt 0.625 0.666666627
vt 0.375 0.583333313
vt 0.625 0.666666627
vt 0.375 0.666666627
vt 0.375 0
vt 0.625 0
vt 0.625 0.0833333135
vt 0.375 0
vt 0.625 0.0833333135
vt 0.375 0.0833333135
vt 0.625 0.166666627
vt 0.375 0.166666627
vt 0.375 0.166666627
vt 0.625 0.166666627
vt 0.375 0.166666627
vt 0.625 0.166666627
vt 0.375 0.0833333135
vt 0.625 0.0833333135
vt 0.625 0.166666627
vt 0.375 0.0833333135
vt 0.625 0.166666627
vt 0.375 0.166666627
vt 0.375 0.0833333135
vt 0.625 0.0833333135
vt 0.625 0.0833333135
vt 0.375 0.0833333135
vt 0.625 0.0833333135
vt 0.375 0.0833333135
vt 0.62499994 0.583333254
vt 0.875 0.583333254
vt 0.688272774 0.666666627
vt 0.62499994 0.583333254
vt 0.688272774 0.666666627
vt 0.625 0.666666627
vt 0.311727196 0.583333313
vt 0.375 0.583333313
vt 0.375 0.666666627
vt 0.311727196 0.583333313
vt 0.375 0.666666627
vt 0.125 0.666666627
vt 0.375 0.166666627
vt 0.375 0.25
vt 0.625 0.25
vt 0.375 0.166666627
vt 0.625 0.25
vt 0.625 0.166666627
vt 0.375 0.25
vt 0.375 0.5
vt 0.625 0.5
vt 0.375 0.25
vt 0.625 0.5
vt 0.625 0.25
vt 0.375 0.666666627
vt 0.375 0.75
vt 0.625 0.75
vt 0.375 0.666666627
vt 0.625 0.75
vt 0.625 0.666666627
vt 0.375 0.75
vt 0.375 1
vt 0.625 1
vt 0.375 0.75
vt 0.625 1
vt 0.625 0.75
vt 0.311727196 0.666666627
vt 0.125 0.666666627
vt 0.125 0.75
vt 0.125 0.75
vt 0.375 0.75
vt 0.375 0.666666627
vt 0.125 0.75
vt 0.375 0.666666627
vt 0.311727196 0.666666627
vt 0.688272774 0.666666627
vt 0.625 0.666666627
vt 0.625 0.75
vt 0.625 0.75
vt 0.875 0.75
vt 0.874999881 0.666666567
vt 0.625 0.75
vt 0.874999881 0.666666567
vt 0.688272774 0.666666627
vt 0.875 0.5
vt 0.625 0.5
vt 0.62499994 0.583333254
vt 0.688272715 0.583333254
vt 0.875 0.583333254
vt 0.875 0.5
vt 0.62499994 0.583333254
vt 0.688272715 0.583333254
vt 0.875 0.5
vt 0.375 0.5
vt 0.125 0.5
vt 0.124999985 0.583333254
vt 0.124999985 0.583333254
vt 0.311727196 0.583333313
vt 0.375 0.583333313
vt 0.124999985 0.583333254
vt 0.375 0.583333313
vt 0.375 0.5
vt 0.375 0.5
vt 0.375 0.583333313
vt 0.62499994 0.583333254
vt 0.375 0.5
vt 0.62499994 0.583333254
vt 0.625 0.5
vt 0.375 0.583333313
vt 0.375 0.666666627
vt 0.625 0.666666627
vt 0.375 0.583333313
vt 0.625 0.666666627
vt 0.62499994 0.583333254
vt 0.375 0
vt 0.375 0.0833333135
vt 0.625 0.0833333135
vt 0.375 0
vt 0.625 0.0833333135
vt 0.625 0
vt 0.625 0.166666627
vt 0.625 0.166666627
vt 0.375 0.166666627
vt 0.625 0.166666627
vt 0.375 0.166666627
vt 0.375 0.166666627
vt 0.375 0.0833333135
vt 0.375 0.166666627
vt 0.625 0.166666627
vt 0.375 0.0833333135
vt 0.625 0.166666627
vt 0.625 0.0833333135
vt 0.375 0.0833333135
vt 0.375 0.0833333135
vt 0.625 0.0833333135
vt 0.375 0.0833333135
vt 0.625 0.0833333135
vt 0.625 0.0833333135
vt 0.62499994 0.583333254
vt 0.625 0.666666627
vt 0.688272774 0.666666627
vt 0.62499994 0.583333254
vt 0.688272774 0.666666627
vt 0.875 0.583333254
vt 0.311727196 0.583333313
vt 0.125 0.666666627
vt 0.375 0.666666627
vt 0.311727196 0.583333313
vt 0.375 0.666666627
vt 0.375 0.583333313
vt 0.652575552 0.652920663
vt 0.652575552 0.722079456
vt 0.638787746 0.736039698
vt 0.652575552 0.652920663
vt 0.638787746 0.736039698
vt 0.638787746 0.638960302
vt 0.652575552 0.722079456
vt 0.847424507 0.722079396
vt 0.861212254 0.736039758
vt 0.652575552 0.722079456
vt 0.861212254 0.736039758
vt 0.638787746 0.736039698
vt 0.847424507 0.722079396
vt 0.847424448 0.652920544
vt 0.861212254 0.638960242
vt 0.847424507 0.722079396
vt 0.861212254 0.638960242
vt 0.861212254 0.736039758
vt 0.847424448 0.652920544
vt 0.652575552 0.652920663
vt 0.638787746 0.638960302
vt 0.847424448 0.652920544
vt 0.638787746 0.638960302
vt 0.861212254 0.638960242
vt 0.61544317 0.478733778
vt 0.61544311 0.271266222
vt 0.617830694 0.265953302
vt 0.61544317 0.478733778
vt 0.617830694 0.265953302
vt 0.617830694 0.484046698
vt 0.61544311 0.271266222
vt 0.50955689 0.271266222
vt 0.507169247 0.265953302
vt 0.61544311 0.271266222
vt 0.507169247 0.265953302
vt 0.617830694 0.265953302
vt 0.50955689 0.478733778
vt 0.61544317 0.478733778
vt 0.617830694 0.484046698
vt 0.50955689 0.478733778
vt 0.617830694 0.484046698
vt 0.507169247 0.484046638
vt 0.50955689 0.271266222
vt 0.50955689 0.478733778
vt 0.507169247 0.484046638
vt 0.50955689 0.271266222
vt 0.507169247 0.484046638
vt 0.507169247 0.265953302
vt 1 0.964285672
vt 1 1
vt 0.833333313 1
vt 1 0.964285672
vt 0.833333313 1
vt 0.833333373 0.964285731
vt 0.833333373 0.964285731
vt 0.833333313 1
vt 0.666666627 1
vt 0.833333373 0.964285731
vt 0.666666627 1
vt 0.666666627 0.964285791
vt 0.666666627 0.964285791
vt 0.666666627 1
vt 0.49999994 1
vt 0.666666627 0.964285791
vt 0.49999994 1
vt 0.49999997 0.964285851
vt 0.49999997 0.964285851
vt 0.49999994 1
vt 0.333333254 1
vt 0.49999997 0.964285851
vt 0.333333254 1
vt 0.333333254 0.964285731
vt 0.457846075 0.129999995
vt 0.457846075 0.370000005
vt 0.25 0.49000001
vt 0.25 0.49000001
vt 0.0421539247 0.370000005
vt 0.0421539247 0.129999995
vt 0.0421539247 0.129999995
vt 0.25 0.00999999046
vt 0.457846075 0.129999995
vt 0.25 0.49000001
vt 0.0421539247 0.129999995
vt 0.457846075 0.129999995
vt 0.333333254 0.964285731
vt 0.333333254 1
vt 0.166666582 1
vt 0.333333254 0.964285731
vt 0.166666582 1
vt 0.166666597 0.964285731
vt 0.166666597 0.964285731
vt 0.166666582 1
vt -8.94069672e-08 1
vt 0.166666597 0.964285731
vt -8.94069672e-08 1
vt -8.94069672e-08 0.964285672
vt 0.542153895 0.370000005
vt 0.75 0.49000001
vt 0.957846105 0.370000005
vt 0.957846105 0.370000005
vt 0.957846105 0.129999995
vt 0.75 0.00999999046
vt 0.75 0.00999999046
vt 0.542153895 0.129999995
vt 0.542153895 0.370000005
vt 0.957846105 0.370000005
vt 0.75 0.00999999046
vt 0.542153895 0.370000005
vt 0.166666582 0.5
vt 0.166666552 0.571428478
vt -8.94069672e-08 0.571428537
vt 0.166666582 0.5
vt -8.94069672e-08 0.571428537
vt -8.94069672e-08 0.5
vt 0.166666552 0.571428478
vt 0.166666567 0.642857134
vt -8.94069672e-08 0.642857075
vt 0.166666552 0.571428478
vt -8.94069672e-08 0.642857075
vt -8.94069672e-08 0.571428537
vt 0.166666567 0.642857134
vt 0.166666582 0.714285672
vt -8.94069672e-08 0.714285731
vt 0.166666567 0.642857134
vt -8.94069672e-08 0.714285731
vt -8.94069672e-08 0.642857075
vt 0.166666597 0.776785731
vt 0.166666597 0.785714388
vt -8.94069672e-08 0.785714269
vt 0.166666597 0.776785731
vt -8.94069672e-08 0.785714269
vt -8.94069672e-08 0.776785672
vt 0.166666597 0.821428657
vt 0.166666582 0.857142806
vt -8.94069672e-08 0.857142806
vt 0.166666597 0.821428657
vt -8.94069672e-08 0.857142806
vt -8.94069672e-08 0.821428537
vt 0.166666597 0.892857254
vt 0.166666597 0.928571522
vt -8.94069672e-08 0.928571343
vt 0.166666597 0.892857254
vt -8.94069672e-08 0.928571343
vt -8.94069672e-08 0.892857075
vt 0.333333254 0.5
vt 0.333333254 0.571428537
vt 0.166666552 0.571428478
vt 0.333333254 0.5
vt 0.166666552 0.571428478
vt 0.166666582 0.5
vt 0.333333254 0.571428537
vt 0.333333254 0.642857075
vt 0.166666567 0.642857134
vt 0.333333254 0.571428537
vt 0.166666567 0.642857134
vt 0.166666552 0.571428478
vt 0.333333254 0.642857075
vt 0.333333313 0.714285791
vt 0.166666582 0.714285672
vt 0.333333254 0.642857075
vt 0.166666582 0.714285672
vt 0.166666567 0.642857134
vt 0.333333284 0.776785791
vt 0.333333284 0.785714328
vt 0.166666597 0.785714388
vt 0.333333284 0.776785791
vt 0.166666597 0.785714388
vt 0.166666597 0.776785731
vt 0.333333254 0.821428597
vt 0.333333254 0.857142866
vt 0.166666582 0.857142806
vt 0.333333254 0.821428597
vt 0.166666582 0.857142806
vt 0.166666597 0.821428657
vt 0.333333224 0.892857134
vt 0.333333254 0.928571463
vt 0.166666597 0.928571522
vt 0.333333224 0.892857134
vt 0.166666597 0.928571522
vt 0.166666597 0.892857254
vt 0.49999994 0.5
vt 0.49999994 0.571428537
vt 0.333333254 0.571428537
vt 0.49999994 0.5
vt 0.333333254 0.571428537
vt 0.333333254 0.5
vt 0.49999994 0.571428537
vt 0.49999994 0.642857134
vt 0.333333254 0.642857075
vt 0.49999994 0.571428537
vt 0.333333254 0.642857075
vt 0.333333254 0.571428537
vt 0.49999994 0.642857134
vt 0.49999994 0.714285672
vt 0.333333313 0.714285791
vt 0.49999994 0.642857134
vt 0.333333313 0.714285791
vt 0.333333254 0.642857075
vt 0.49999994 0.776785791
vt 0.499999881 0.785714269
vt 0.333333284 0.785714328
vt 0.49999994 0.776785791
vt 0.333333284 0.785714328
vt 0.333333284 0.776785791
vt 0.499999881 0.821428537
vt 0.49999994 0.857142925
vt 0.333333254 0.857142866
vt 0.499999881 0.821428537
vt 0.333333254 0.857142866
vt 0.333333254 0.821428597
vt 0.49999997 0.892857254
vt 0.49999994 0.928571463
vt 0.333333254 0.928571463
vt 0.49999997 0.892857254
vt 0.333333254 0.928571463
vt 0.333333224 0.892857134
vt 0.666666627 0.5
vt 0.666666627 0.571428537
vt 0.49999994 0.571428537
vt 0.666666627 0.5
vt 0.49999994 0.571428537
vt 0.49999994 0.5
vt 0.666666627 0.571428537
vt 0.666666687 0.642857134
vt 0.49999994 0.642857134
vt 0.666666627 0.571428537
vt 0.49999994 0.642857134
vt 0.49999994 0.571428537
vt 0.666666687 0.642857134
vt 0.666666687 0.714285791
vt 0.49999994 0.714285672
vt 0.666666687 0.642857134
vt 0.49999994 0.714285672
vt 0.49999994 0.642857134
vt 0.666666627 0.776785731
vt 0.666666567 0.785714269
vt 0.499999881 0.785714269
vt 0.666666627 0.776785731
vt 0.499999881 0.785714269
vt 0.49999994 0.776785791
vt 0.666666627 0.821428657
vt 0.666666687 0.857142985
vt 0.49999994 0.857142925
vt 0.666666627 0.821428657
vt 0.49999994 0.857142925
vt 0.499999881 0.821428537
vt 0.666666627 0.892857254
vt 0.666666627 0.928571463
vt 0.49999994 0.928571463
vt 0.666666627 0.892857254
vt 0.49999994 0.928571463
vt 0.49999997 0.892857254
vt 0.833333313 0.5
vt 0.833333313 0.571428537
vt 0.666666627 0.571428537
vt 0.833333313 0.5
vt 0.666666627 0.571428537
vt 0.666666627 0.5
vt 0.833333313 0.571428537
vt 0.833333373 0.642857194
vt 0.666666687 0.642857134
vt 0.833333313 0.571428537
vt 0.666666687 0.642857134
vt 0.666666627 0.571428537
vt 0.833333373 0.642857194
vt 0.833333254 0.714285731
vt 0.666666687 0.714285791
vt 0.833333373 0.642857194
vt 0.666666687 0.714285791
vt 0.666666687 0.642857134
vt 0.833333254 0.776785731
vt 0.833333373 0.785714328
vt 0.666666567 0.785714269
vt 0.833333254 0.776785731
vt 0.666666567 0.785714269
vt 0.666666627 0.776785731
vt 0.833333373 0.821428657
vt 0.833333373 0.857142925
vt 0.666666687 0.857142985
vt 0.833333373 0.821428657
vt 0.666666687 0.857142985
vt 0.666666627 0.821428657
vt 0.833333433 0.892857194
vt 0.833333373 0.928571463
vt 0.666666627 0.928571463
vt 0.833333433 0.892857194
vt 0.666666627 0.928571463
vt 0.666666627 0.892857254
vt 1 0.5
vt 1 0.571428597
vt 0.833333313 0.571428537
vt 1 0.5
vt 0.833333313 0.571428537
vt 0.833333313 0.5
vt 1 0.571428597
vt 1 0.642857134
vt 0.833333373 0.642857194
vt 1 0.571428597
vt 0.833333373 0.642857194
vt 0.833333313 0.571428537
vt 1 0.642857134
vt 1 0.714285731
vt 0.833333254 0.714285731
vt 1 0.642857134
vt 0.833333254 0.714285731
vt 0.833333373 0.642857194
vt 1 0.776785672
vt 1 0.785714269
vt 0.833333373 0.785714328
vt 1 0.776785672
vt 0.833333373 0.785714328
vt 0.833333254 0.776785731
vt 1 0.821428537
vt 1 0.857142806
vt 0.833333373 0.857142925
vt 1 0.821428537
vt 0.833333373 0.857142925
vt 0.833333373 0.821428657
vt 1 0.892857075
vt 1 0.928571403
vt 0.833333373 0.928571463
vt 1 0.892857075
vt 0.833333373 0.928571463
vt 0.833333433 0.892857194
vt 1 0.742857158
vt 1 0.75
vt 0.833333254 0.74999994
vt 1 0.742857158
vt 0.833333254 0.74999994
vt 0.833333194 0.742857099
vt 0.833333194 0.742857099
vt 0.833333254 0.74999994
vt 0.666666687 0.75
vt 0.833333194 0.742857099
vt 0.666666687 0.75
vt 0.666666627 0.742857158
vt 0.666666627 0.742857158
vt 0.666666687 0.75
vt 0.499999851 0.749999881
vt 0.666666627 0.742857158
vt 0.499999851 0.749999881
vt 0.499999881 0.742857039
vt 0.499999881 0.742857039
vt 0.499999851 0.749999881
vt 0.333333254 0.75
vt 0.499999881 0.742857039
vt 0.333333254 0.75
vt 0.333333284 0.742857218
vt 0.333333284 0.742857218
vt 0.333333254 0.75
vt 0.166666582 0.74999994
vt 0.333333284 0.742857218
vt 0.166666582 0.74999994
vt 0.166666582 0.742857099
vt 0.166666582 0.742857099
vt 0.166666582 0.74999994
vt -8.94069672e-08 0.75
vt 0.166666582 0.742857099
vt -8.94069672e-08 0.75
vt -8.94069672e-08 0.742857218
vt 0.166666582 0.714285672
vt 0.166666567 0.721428514
vt -8.94069672e-08 0.721428633
vt 0.166666582 0.714285672
vt -8.94069672e-08 0.721428633
vt -8.94069672e-08 0.714285731
vt 0.166666567 0.721428514
vt 0.166666567 0.728571355
vt -8.94069672e-08 0.728571475
vt 0.166666567 0.721428514
vt -8.94069672e-08 0.728571475
vt -8.94069672e-08 0.721428633
vt 0.166666567 0.728571355
vt 0.166666597 0.735714316
vt -8.94069672e-08 0.735714316
vt 0.166666567 0.728571355
vt -8.94069672e-08 0.735714316
vt -8.94069672e-08 0.728571475
vt 0.166666597 0.735714316
vt 0.166666582 0.742857099
vt -8.94069672e-08 0.742857218
vt 0.166666597 0.735714316
vt -8.94069672e-08 0.742857218
vt -8.94069672e-08 0.735714316
vt 0.333333313 0.714285791
vt 0.333333313 0.721428633
vt 0.166666567 0.721428514
vt 0.333333313 0.714285791
vt 0.166666567 0.721428514
vt 0.166666582 0.714285672
vt 0.333333313 0.721428633
vt 0.333333313 0.728571475
vt 0.166666567 0.728571355
vt 0.333333313 0.721428633
vt 0.166666567 0.728571355
vt 0.166666567 0.721428514
vt 0.333333313 0.728571475
vt 0.333333313 0.735714316
vt 0.166666597 0.735714316
vt 0.333333313 0.728571475
vt 0.166666597 0.735714316
vt 0.166666567 0.728571355
vt 0.333333313 0.735714316
vt 0.333333284 0.742857218
vt 0.166666582 0.742857099
vt 0.333333313 0.735714316
vt 0.166666582 0.742857099
vt 0.166666597 0.735714316
vt 0.49999994 0.714285672
vt 0.499999881 0.721428514
vt 0.333333313 0.721428633
vt 0.49999994 0.714285672
vt 0.333333313 0.721428633
vt 0.333333313 0.714285791
vt 0.499999881 0.721428514
vt 0.499999881 0.728571296
vt 0.333333313 0.728571475
vt 0.499999881 0.721428514
vt 0.333333313 0.728571475
vt 0.333333313 0.721428633
vt 0.499999881 0.728571296
vt 0.499999881 0.735714197
vt 0.333333313 0.735714316
vt 0.499999881 0.728571296
vt 0.333333313 0.735714316
vt 0.333333313 0.728571475
vt 0.499999881 0.735714197
vt 0.499999881 0.742857039
vt 0.333333284 0.742857218
vt 0.499999881 0.735714197
vt 0.333333284 0.742857218
vt 0.333333313 0.735714316
vt 0.666666687 0.714285791
vt 0.666666627 0.721428633
vt 0.499999881 0.721428514
vt 0.666666687 0.714285791
vt 0.499999881 0.721428514
vt 0.49999994 0.714285672
vt 0.666666627 0.721428633
vt 0.666666627 0.728571534
vt 0.499999881 0.728571296
vt 0.666666627 0.721428633
vt 0.499999881 0.728571296
vt 0.499999881 0.721428514
vt 0.666666627 0.728571534
vt 0.666666687 0.735714376
vt 0.499999881 0.735714197
vt 0.666666627 0.728571534
vt 0.499999881 0.735714197
vt 0.499999881 0.728571296
vt 0.666666687 0.735714376
vt 0.666666627 0.742857158
vt 0.499999881 0.742857039
vt 0.666666687 0.735714376
vt 0.499999881 0.742857039
vt 0.499999881 0.735714197
vt 0.833333254 0.714285731
vt 0.833333254 0.721428514
vt 0.666666627 0.721428633
vt 0.833333254 0.714285731
vt 0.666666627 0.721428633
vt 0.666666687 0.714285791
vt 0.833333254 0.721428514
vt 0.833333313 0.728571415
vt 0.666666627 0.728571534
vt 0.833333254 0.721428514
vt 0.666666627 0.728571534
vt 0.666666627 0.721428633
vt 0.833333313 0.728571415
vt 0.833333254 0.735714316
vt 0.666666687 0.735714376
vt 0.833333313 0.728571415
vt 0.666666687 0.735714376
vt 0.666666627 0.728571534
vt 0.833333254 0.735714316
vt 0.833333194 0.742857099
vt 0.666666627 0.742857158
vt 0.833333254 0.735714316
vt 0.666666627 0.742857158
vt 0.666666687 0.735714376
vt 1 0.714285731
vt 1 0.721428633
vt 0.833333254 0.721428514
vt 1 0.714285731
vt 0.833333254 0.721428514
vt 0.833333254 0.714285731
vt 1 0.721428633
vt 1 0.728571475
vt 0.833333313 0.728571415
vt 1 0.721428633
vt 0.833333313 0.728571415
vt 0.833333254 0.721428514
vt 1 0.728571475
vt 1 0.735714316
vt 0.833333254 0.735714316
vt 1 0.728571475
vt 0.833333254 0.735714316
vt 0.833333313 0.728571415
vt 1 0.735714316
vt 1 0.742857158
vt 0.833333194 0.742857099
vt 1 0.735714316
vt 0.833333194 0.742857099
vt 0.833333254 0.735714316
vt 1 0.75
vt 1 0.758928537
vt 0.833333194 0.758928537
vt 1 0.75
vt 0.833333194 0.758928537
vt 0.833333254 0.74999994
vt 1 0.758928537
vt 1 0.767857134
vt 0.833333254 0.767857075
vt 1 0.758928537
vt 0.833333254 0.767857075
vt 0.833333194 0.758928537
vt 1 0.767857134
vt 1 0.776785672
vt 0.833333254 0.776785731
vt 1 0.767857134
vt 0.833333254 0.776785731
vt 0.833333254 0.767857075
vt 0.833333254 0.74999994
vt 0.833333194 0.758928537
vt 0.666666687 0.758928597
vt 0.833333254 0.74999994
vt 0.666666687 0.758928597
vt 0.666666687 0.75
vt 0.833333194 0.758928537
vt 0.833333254 0.767857075
vt 0.666666687 0.767857194
vt 0.833333194 0.758928537
vt 0.666666687 0.767857194
vt 0.666666687 0.758928597
vt 0.833333254 0.767857075
vt 0.833333254 0.776785731
vt 0.666666627 0.776785731
vt 0.833333254 0.767857075
vt 0.666666627 0.776785731
vt 0.666666687 0.767857194
vt 0.666666687 0.75
vt 0.666666687 0.758928597
vt 0.499999821 0.758928478
vt 0.666666687 0.75
vt 0.499999821 0.758928478
vt 0.499999851 0.749999881
vt 0.666666687 0.758928597
vt 0.666666687 0.767857194
vt 0.499999821 0.767857075
vt 0.666666687 0.758928597
vt 0.499999821 0.767857075
vt 0.499999821 0.758928478
vt 0.666666687 0.767857194
vt 0.666666627 0.776785731
vt 0.49999994 0.776785791
vt 0.666666687 0.767857194
vt 0.49999994 0.776785791
vt 0.499999821 0.767857075
vt 0.499999851 0.749999881
vt 0.499999821 0.758928478
vt 0.333333254 0.758928537
vt 0.499999851 0.749999881
vt 0.333333254 0.758928537
vt 0.333333254 0.75
vt 0.499999821 0.758928478
vt 0.499999821 0.767857075
vt 0.333333254 0.767857075
vt 0.499999821 0.758928478
vt 0.333333254 0.767857075
vt 0.333333254 0.758928537
vt 0.499999821 0.767857075
vt 0.49999994 0.776785791
vt 0.333333284 0.776785791
vt 0.499999821 0.767857075
vt 0.333333284 0.776785791
vt 0.333333254 0.767857075
vt 0.333333254 0.75
vt 0.333333254 0.758928537
vt 0.166666597 0.758928537
vt 0.333333254 0.75
vt 0.166666597 0.758928537
vt 0.166666582 0.74999994
vt 0.333333254 0.758928537
vt 0.333333254 0.767857075
vt 0.166666597 0.767857134
vt 0.333333254 0.758928537
vt 0.166666597 0.767857134
vt 0.166666597 0.758928537
vt 0.333333254 0.767857075
vt 0.333333284 0.776785791
vt 0.166666597 0.776785731
vt 0.333333254 0.767857075
vt 0.166666597 0.776785731
vt 0.166666597 0.767857134
vt 0.166666582 0.74999994
vt 0.166666597 0.758928537
vt -8.94069672e-08 0.758928537
vt 0.166666582 0.74999994
vt -8.94069672e-08 0.758928537
vt -8.94069672e-08 0.75
vt 0.166666597 0.758928537
vt 0.166666597 0.767857134
vt -8.94069672e-08 0.767857075
vt 0.166666597 0.758928537
vt -8.94069672e-08 0.767857075
vt -8.94069672e-08 0.758928537
vt 0.166666597 0.767857134
vt 0.166666597 0.776785731
vt -8.94069672e-08 0.776785672
vt 0.166666597 0.767857134
vt -8.94069672e-08 0.776785672
vt -8.94069672e-08 0.767857075
vt 1 0.785714269
vt 1 0.821428537
vt 0.833333373 0.821428657
vt 1 0.785714269
vt 0.833333373 0.821428657
vt 0.833333373 0.785714328
vt 0.833333373 0.785714328
vt 0.833333373 0.821428657
vt 0.666666627 0.821428657
vt 0.833333373 0.785714328
vt 0.666666627 0.821428657
vt 0.666666567 0.785714269
vt 0.666666567 0.785714269
vt 0.666666627 0.821428657
vt 0.499999881 0.821428537
vt 0.666666567 0.785714269
vt 0.499999881 0.821428537
vt 0.499999881 0.785714269
vt 0.499999881 0.785714269
vt 0.499999881 0.821428537
vt 0.333333254 0.821428597
vt 0.499999881 0.785714269
vt 0.333333254 0.821428597
vt 0.333333284 0.785714328
vt 0.333333284 0.785714328
vt 0.333333254 0.821428597
vt 0.166666597 0.821428657
vt 0.333333284 0.785714328
vt 0.166666597 0.821428657
vt 0.166666597 0.785714388
vt 0.166666597 0.785714388
vt 0.166666597 0.821428657
vt -8.94069672e-08 0.821428537
vt 0.166666597 0.785714388
vt -8.94069672e-08 0.821428537
vt -8.94069672e-08 0.785714269
vt 1 0.857142806
vt 1 0.892857075
vt 0.833333433 0.892857194
vt 1 0.857142806
vt 0.833333433 0.892857194
vt 0.833333373 0.857142925
vt 0.833333373 0.857142925
vt 0.833333433 0.892857194
vt 0.666666627 0.892857254
vt 0.833333373 0.857142925
vt 0.666666627 0.892857254
vt 0.666666687 0.857142985
vt 0.666666687 0.857142985
vt 0.666666627 0.892857254
vt 0.49999997 0.892857254
vt 0.666666687 0.857142985
vt 0.49999997 0.892857254
vt 0.49999994 0.857142925
vt 0.49999994 0.857142925
vt 0.49999997 0.892857254
vt 0.333333224 0.892857134
vt 0.49999994 0.857142925
vt 0.333333224 0.892857134
vt 0.333333254 0.857142866
vt 0.333333254 0.857142866
vt 0.333333224 0.892857134
vt 0.166666597 0.892857254
vt 0.333333254 0.857142866
vt 0.166666597 0.892857254
vt 0.166666582 0.857142806
vt 0.166666582 0.857142806
vt 0.166666597 0.892857254
vt -8.94069672e-08 0.892857075
vt 0.166666582 0.857142806
vt -8.94069672e-08 0.892857075
vt -8.94069672e-08 0.857142806
vt 0.166666597 0.928571522
vt 0.166666597 0.964285731
vt -8.94069672e-08 0.964285672
vt 0.166666597 0.928571522
vt -8.94069672e-08 0.964285672
vt -8.94069672e-08 0.928571343
vt 0.333333254 0.928571463
vt 0.333333254 0.964285731
vt 0.166666597 0.964285731
vt 0.333333254 0.928571463
vt 0.166666597 0.964285731
vt 0.166666597 0.928571522
vt 0.49999994 0.928571463
vt 0.49999997 0.964285851
vt 0.333333254 0.964285731
vt 0.49999994 0.928571463
vt 0.333333254 0.964285731
vt 0.333333254 0.928571463
vt 0.666666627 0.928571463
vt 0.666666627 0.964285791
vt 0.49999997 0.964285851
vt 0.666666627 0.928571463
vt 0.49999997 0.964285851
vt 0.49999994 0.928571463
vt 0.833333373 0.928571463
vt 0.833333373 0.964285731
vt 0.666666627 0.964285791
vt 0.833333373 0.928571463
vt 0.666666627 0.964285791
vt 0.666666627 0.928571463
vt 1 0.928571403
vt 1 0.964285672
vt 0.833333373 0.964285731
vt 1 0.928571403
vt 0.833333373 0.964285731
vt 0.833333373 0.928571463
vt 0.375 0.166666627
vt 0.625 0.166666687
vt 0.625 0.25
vt 0.375 0.166666627
vt 0.625 0.25
vt 0.375 0.25
vt 0.375 0.25
vt 0.625 0.25
vt 0.625 0.5
vt 0.375 0.25
vt 0.625 0.5
vt 0.375 0.5
vt 0.375 0.666666627
vt 0.625 0.666666627
vt 0.625 0.75
vt 0.375 0.666666627
vt 0.625 0.75
vt 0.375 0.75
vt 0.414782584 0.974922657
vt 0.414782614 0.775077403
vt 0.414782614 0.775077403
vt 0.414782584 0.974922657
vt 0.414782614 0.775077403
vt 0.414782584 0.974922657
vt 0.125 0.666666627
vt 0.375 0.666666627
vt 0.375 0.75
vt 0.125 0.666666627
vt 0.375 0.75
vt 0.125 0.75
vt 0.625 0.666666627
vt 0.875 0.666666627
vt 0.875 0.75
vt 0.625 0.666666627
vt 0.875 0.75
vt 0.625 0.75
vt 0.625 0.5
vt 0.875 0.5
vt 0.875 0.583333313
vt 0.625 0.5
vt 0.875 0.583333313
vt 0.625 0.583333313
vt 0.625 0.638888836
vt 0.875 0.638888836
vt 0.875 0.666666627
vt 0.625 0.638888836
vt 0.875 0.666666627
vt 0.625 0.666666627
vt 0.125 0.5
vt 0.375 0.5
vt 0.375 0.583333313
vt 0.125 0.5
vt 0.375 0.583333313
vt 0.125 0.583333313
vt 0.125 0.638888836
vt 0.375 0.638888836
vt 0.375 0.666666627
vt 0.125 0.638888836
vt 0.375 0.666666627
vt 0.125 0.666666627
vt 0.375 0.5
vt 0.625 0.5
vt 0.625 0.583333313
vt 0.375 0.5
vt 0.625 0.583333313
vt 0.375 0.583333313
vt 0.375 0.638888836
vt 0.625 0.638888836
vt 0.625 0.666666627
vt 0.375 0.638888836
vt 0.625 0.666666627
vt 0.375 0.666666627
vt 0.375 0
vt 0.625 0
vt 0.625 0.0833333135
vt 0.375 0
vt 0.625 0.0833333135
vt 0.375 0.0833333135
vt 0.375 0.138888836
vt 0.625 0.138888896
vt 0.625 0.166666687
vt 0.375 0.138888836
vt 0.625 0.166666687
vt 0.375 0.166666627
vt 0.375 0.0833333135
vt 0.625 0.0833333135
vt 0.625 0.111111104
vt 0.375 0.0833333135
vt 0.625 0.111111104
vt 0.375 0.111111104
vt 0.625 0.138888896
vt 0.625 0.138888896
vt 0.375 0.138888836
vt 0.375 0.138888836
vt 0.375 0.138888836
vt 0.505652189 0.138888896
vt 0.375 0.138888836
vt 0.505652189 0.138888896
vt 0.625 0.138888896
vt 0.375 0.583333313
vt 0.625 0.583333313
vt 0.625 0.611111045
vt 0.375 0.583333313
vt 0.625 0.611111045
vt 0.375 0.611111045
vt 0.125 0.583333313
vt 0.375 0.583333313
vt 0.375 0.611111045
vt 0.125 0.583333313
vt 0.375 0.611111045
vt 0.125 0.611111045
vt 0.125 0.611111045
vt 0.375 0.611111045
vt 0.375 0.638888836
vt 0.125 0.611111045
vt 0.375 0.638888836
vt 0.125 0.638888836
vt 0.625 0.583333313
vt 0.875 0.583333313
vt 0.875 0.611111045
vt 0.625 0.583333313
vt 0.875 0.611111045
vt 0.625 0.611111045
vt 0.625 0.611111045
vt 0.875 0.611111045
vt 0.875 0.638888836
vt 0.625 0.611111045
vt 0.875 0.638888836
vt 0.625 0.638888836
vt 0.375 0.611111045
vt 0.375 0.611111045
vt 0.625 0.611111045
vt 0.625 0.611111045
vt 0.625 0.611111045
vt 0.505652189 0.611111045
vt 0.625 0.611111045
vt 0.505652189 0.611111045
vt 0.375 0.611111045
vt 0.375 0.611111045
vt 0.50565213 0.611111045
vt 0.505652189 0.638888836
vt 0.375 0.611111045
vt 0.505652189 0.638888836
vt 0.375 0.638888836
vt 0.375 0.638888836
vt 0.375 0.611111045
vt 0.375 0.611111045
vt 0.375 0.638888836
vt 0.375 0.611111045
vt 0.375 0.638888836
vt 0.625 0.638888836
vt 0.625 0.638888836
vt 0.375 0.638888836
vt 0.375 0.638888836
vt 0.375 0.638888836
vt 0.50565213 0.638888836
vt 0.375 0.638888836
vt 0.50565213 0.638888836
vt 0.625 0.638888836
vt 0.375 0.111111104
vt 0.375 0.111111104
vt 0.625 0.111111104
vt 0.625 0.111111104
vt 0.625 0.111111104
vt 0.505652189 0.111111104
vt 0.625 0.111111104
vt 0.505652189 0.111111104
vt 0.375 0.111111104
vt 0.125 0.611111045
vt 0.125 0.638888836
vt 0.125 0.638888836
vt 0.125 0.611111045
vt 0.125 0.638888836
vt 0.125 0.611111045
vt 0.875 0.638888836
vt 0.875 0.611111045
vt 0.875 0.611111045
vt 0.875 0.638888836
vt 0.875 0.611111045
vt 0.875 0.638888836
vt 0.414782584 0.974922657
vt 0.585217416 0.974922657
vt 0.625 1
vt 0.414782584 0.974922657
vt 0.625 1
vt 0.375 1
vt 0.585217416 0.775077403
vt 0.414782614 0.775077403
vt 0.375 0.75
vt 0.585217416 0.775077403
vt 0.375 0.75
vt 0.625 0.75
vt 0.414782614 0.775077403
vt 0.414782584 0.974922657
vt 0.375 1
vt 0.414782614 0.775077403
vt 0.375 1
vt 0.375 0.75
vt 0.585217416 0.974922657
vt 0.585217416 0.775077403
vt 0.625 0.75
vt 0.585217416 0.974922657
vt 0.625 0.75
vt 0.625 1
vt 0.414782614 0.775077403
vt 0.585217416 0.775077403
vt 0.585217416 0.974922657
vt 0.414782614 0.775077403
vt 0.585217416 0.974922657
vt 0.414782584 0.974922657
vt 0.585217416 0.974922657
vt 0.414782584 0.974922657
vt 0.414782584 0.974922657
vt 0.585217416 0.974922657
vt 0.414782584 0.974922657
vt 0.585217416 0.974922657
vt 0.585217416 0.775077403
vt 0.585217416 0.974922657
vt 0.585217416 0.974922657
vt 0.585217416 0.775077403
vt 0.585217416 0.974922657
vt 0.585217416 0.775077403
vt 0.414782614 0.775077403
vt 0.585217416 0.775077403
vt 0.585217416 0.775077403
vt 0.414782614 0.775077403
vt 0.585217416 0.775077403
vt 0.414782614 0.775077403
vt 0.625 0.611111045
vt 0.625 0.638888836
vt 0.505652189 0.638888836
vt 0.625 0.611111045
vt 0.505652189 0.638888836
vt 0.50565213 0.611111045
vt 0.625 0.611111045
vt 0.625 0.638888836
vt 0.625 0.638888836
vt 0.625 0.611111045
vt 0.625 0.638888836
vt 0.625 0.611111045
vt 0.625 0.111111104
vt 0.625 0.138888896
vt 0.505652189 0.138888896
vt 0.625 0.111111104
vt 0.505652189 0.138888896
vt 0.50565213 0.111111104
vt 0.375 0.111111104
vt 0.50565213 0.111111104
vt 0.505652189 0.138888896
vt 0.375 0.111111104
vt 0.505652189 0.138888896
vt 0.375 0.138888836
vt 1 0.75
vt 1 1
vt 0.875 1
vt 1 0.75
vt 0.875 1
vt 0.875 0.75
vt 0.875 0.75
vt 0.875 1
vt 0.75 1
vt 0.875 0.75
vt 0.75 1
vt 0.75 0.75
vt 0.75 0.75
vt 0.75 1
vt 0.625 1
vt 0.75 0.75
vt 0.625 1
vt 0.625 0.75
vt 0.625 0.75
vt 0.625 1
vt 0.5 1
vt 0.625 0.75
vt 0.5 1
vt 0.5 0.75
vt 0.5 0.75
vt 0.5 1
vt 0.375 1
vt 0.5 0.75
vt 0.375 1
vt 0.375 0.75
vt 0.375 0.75
vt 0.375 1
vt 0.25 1
vt 0.375 0.75
vt 0.25 1
vt 0.25 0.75
vt 0.49000001 0.25
vt 0.419705629 0.419705629
vt 0.25 0.49000001
vt 0.25 0.49000001
vt 0.0802943707 0.419705629
vt 0.0100000054 0.25
vt 0.0100000054 0.25
vt 0.0802943707 0.0802943707
vt 0.25 0.00999999046
vt 0.25 0.00999999046
vt 0.419705629 0.0802943707
vt 0.49000001 0.25
vt 0.49000001 0.25
vt 0.25 0.49000001
vt 0.0100000054 0.25
vt 0.0100000054 0.25
vt 0.25 0.00999999046
vt 0.49000001 0.25
vt 0.25 0.75
vt 0.25 1
vt 0.125 1
vt 0.25 0.75
vt 0.125 1
vt 0.125 0.75
vt 0.125 0.75
vt 0.125 1
vt 0 1
vt 0.125 0.75
vt 0 1
vt 0 0.75
vt 0.580294371 0.419705629
vt 0.75 0.49000001
vt 0.919705629 0.419705629
vt 0.919705629 0.419705629
vt 0.99000001 0.25
vt 0.919705629 0.0802943707
vt 0.919705629 0.0802943707
vt 0.75 0.00999999046
vt 0.580294371 0.0802943707
vt 0.580294371 0.0802943707
vt 0.50999999 0.25
vt 0.580294371 0.419705629
vt 0.580294371 0.419705629
vt 0.919705629 0.419705629
vt 0.919705629 0.0802943707
vt 0.919705629 0.0802943707
vt 0.580294371 0.0802943707
vt 0.580294371 0.419705629
vt 0.125 0.5
vt 0.125 0.75
vt 0 0.75
vt 0.125 0.5
vt 0 0.75
vt 0 0.5
vt 0.25 0.5
vt 0.25 0.75
vt 0.125 0.75
vt 0.25 0.5
vt 0.125 0.75
vt 0.125 0.5
vt 0.375 0.5
vt 0.375 0.75
vt 0.25 0.75
vt 0.375 0.5
vt 0.25 0.75
vt 0.25 0.5
vt 0.5 0.5
vt 0.5 0.75
vt 0.375 0.75
vt 0.5 0.5
vt 0.375 0.75
vt 0.375 0.5
vt 0.625 0.5
vt 0.625 0.75
vt 0.5 0.75
vt 0.625 0.5
vt 0.5 0.75
vt 0.5 0.5
vt 0.75 0.5
vt 0.75 0.75
vt 0.625 0.75
vt 0.75 0.5
vt 0.625 0.75
vt 0.625 0.5
vt 0.875 0.5
vt 0.875 0.75
vt 0.75 0.75
vt 0.875 0.5
vt 0.75 0.75
vt 0.75 0.5
vt 1 0.5
vt 1 0.75
vt 0.875 0.75
vt 1 0.5
vt 0.875 0.75
vt 0.875 0.5
f 1/1 2/2 3/3
f 1/4 3/5 4/6
f 4/7 3/8 5/9
f 4/10 5/11 6/12
f 7/13 8/14 9/15
f 7/16 9/17 10/18
f 10/19 9/20 11/21
f 10/22 11/23 12/24
f 12/25 13/26 14/27
f 14/28 7/29 10/30
f 14/31 10/32 12/33
f 9/34 8/35 15/36
f 15/37 16/38 11/39
f 15/40 11/41 9/42
f 17/43 5/44 3/45
f 3/46 2/47 18/48
f 3/49 18/50 17/51
f 1/52 4/53 6/54
f 6/55 19/56 20/57
f 6/58 20/59 1/60
f 6/61 5/62 17/63
f 6/64 17/65 19/66
f 19/67 17/68 8/69
f 19/70 8/71 7/72
f 12/73 11/74 16/75
f 12/76 16/77 13/78
f 2/79 1/80 20/81
f 2/82 20/83 18/84
f 14/85 15/86 18/87
f 14/88 18/89 20/90
f 13/91 16/92 15/93
f 13/94 15/95 14/96
f 17/97 18/98 15/99
f 17/100 15/101 8/102
f 20/103 19/104 7/105
f 20/106 7/107 14/108
f 21/109 22/110 23/111
f 21/112 23/113 24/114
f 22/115 25/116 26/117
f 22/118 26/119 23/120
f 27/121 28/122 29/123
f 27/124 29/125 30/126
f 28/127 31/128 32/129
f 28/130 32/131 29/132
f 33/133 34/134 31/135
f 31/136 28/137 27/138
f 31/139 27/140 33/141
f 35/142 30/143 29/144
f 29/145 32/146 36/147
f 29/148 36/149 35/150
f 23/151 26/152 37/153
f 38/154 24/155 23/156
f 37/157 38/158 23/159
f 25/160 22/161 21/162
f 21/163 39/164 40/165
f 21/166 40/167 25/168
f 25/169 40/170 37/171
f 25/172 37/173 26/174
f 40/175 27/176 30/177
f 40/178 30/179 37/180
f 31/181 34/182 36/183
f 31/184 36/185 32/186
f 24/187 38/188 39/189
f 24/190 39/191 21/192
f 33/193 39/194 38/195
f 33/196 38/197 35/198
f 34/199 33/200 35/201
f 34/202 35/203 36/204
f 37/205 30/206 35/207
f 37/208 35/209 38/210
f 39/211 33/212 27/213
f 39/214 27/215 40/216
f 41/217 42/218 43/219
f 41/220 43/221 44/222
f 42/223 45/224 46/225
f 42/226 46/227 43/228
f 45/229 47/230 48/231
f 45/232 48/233 46/234
f 47/235 41/236 44/237
f 47/238 44/239 48/240
f 49/241 50/242 51/243
f 49/244 51/245 52/246
f 50/247 53/248 54/249
f 50/250 54/251 51/252
f 55/253 49/254 52/255
f 55/256 52/257 56/258
f 53/259 55/260 56/261
f 53/262 56/263 54/264
f 57/265 58/266 59/267
f 57/268 59/269 60/270
f 60/271 59/272 61/273
f 60/274 61/275 62/276
f 62/277 61/278 63/279
f 62/280 63/281 64/282
f 64/283 63/284 65/285
f 64/286 65/287 66/288
f 61/289 59/290 58/291
f 58/292 67/293 65/294
f 65/295 63/296 61/297
f 58/298 65/299 61/300
f 66/301 65/302 67/303
f 66/304 67/305 68/306
f 68/307 67/308 58/309
f 68/310 58/311 57/312
f 69/313 70/314 71/315
f 71/316 72/317 73/318
f 73/319 74/320 69/321
f 71/322 73/323 69/324
f 69/325 75/326 76/327
f 69/328 76/329 70/330
f 75/331 77/332 78/333
f 75/334 78/335 76/336
f 77/337 79/338 80/339
f 77/340 80/341 78/342
f 81/343 82/344 83/345
f 81/346 83/347 84/348
f 85/349 86/350 87/351
f 85/352 87/353 88/354
f 89/355 90/356 91/357
f 89/358 91/359 92/360
f 74/361 93/362 75/363
f 74/364 75/365 69/366
f 93/367 94/368 77/369
f 93/370 77/371 75/372
f 94/373 95/374 79/375
f 94/376 79/377 77/378
f 96/379 97/380 82/381
f 96/382 82/383 81/384
f 98/385 99/386 86/387
f 98/388 86/389 85/390
f 100/391 101/392 90/393
f 100/394 90/395 89/396
f 73/397 102/398 93/399
f 73/400 93/401 74/402
f 102/403 103/404 94/405
f 102/406 94/407 93/408
f 103/409 104/410 95/411
f 103/412 95/413 94/414
f 105/415 106/416 97/417
f 105/418 97/419 96/420
f 107/421 108/422 99/423
f 107/424 99/425 98/426
f 109/427 110/428 101/429
f 109/430 101/431 100/432
f 72/433 111/434 102/435
f 72/436 102/437 73/438
f 111/439 112/440 103/441
f 111/442 103/443 102/444
f 112/445 113/446 104/447
f 112/448 104/449 103/450
f 114/451 115/452 106/453
f 114/454 106/455 105/456
f 116/457 117/458 108/459
f 116/460 108/461 107/462
f 118/463 119/464 110/465
f 118/466 110/467 109/468
f 71/469 120/470 111/471
f 71/472 111/473 72/474
f 120/475 121/476 112/477
f 120/478 112/479 111/480
f 121/481 122/482 113/483
f 121/484 113/485 112/486
f 123/487 124/488 115/489
f 123/490 115/491 114/492
f 125/493 126/494 117/495
f 125/496 117/497 116/498
f 127/499 128/500 119/501
f 127/502 119/503 118/504
f 70/505 76/506 120/507
f 70/508 120/509 71/510
f 76/511 78/512 121/513
f 76/514 121/515 120/516
f 78/517 80/518 122/519
f 78/520 122/521 121/522
f 84/523 83/524 124/525
f 84/526 124/527 123/528
f 88/529 87/530 126/531
f 88/532 126/533 125/534
f 92/535 91/536 128/537
f 92/538 128/539 127/540
f 129/541 130/542 131/543
f 129/544 131/545 132/546
f 132/547 131/548 133/549
f 132/550 133/551 134/552
f 134/553 133/554 135/555
f 134/556 135/557 136/558
f 136/559 135/560 137/561
f 136/562 137/563 138/564
f 138/565 137/566 139/567
f 138/568 139/569 140/570
f 140/571 139/572 130/573
f 140/574 130/575 129/576
f 79/577 141/578 142/579
f 79/580 142/581 80/582
f 141/583 143/584 144/585
f 141/586 144/587 142/588
f 143/589 145/590 146/591
f 143/592 146/593 144/594
f 145/595 140/596 129/597
f 145/598 129/599 146/600
f 95/601 147/602 141/603
f 95/604 141/605 79/606
f 147/607 148/608 143/609
f 147/610 143/611 141/612
f 148/613 149/614 145/615
f 148/616 145/617 143/618
f 149/619 138/620 140/621
f 149/622 140/623 145/624
f 104/625 150/626 147/627
f 104/628 147/629 95/630
f 150/631 151/632 148/633
f 150/634 148/635 147/636
f 151/637 152/638 149/639
f 151/640 149/641 148/642
f 152/643 136/644 138/645
f 152/646 138/647 149/648
f 113/649 153/650 150/651
f 113/652 150/653 104/654
f 153/655 154/656 151/657
f 153/658 151/659 150/660
f 154/661 155/662 152/663
f 154/664 152/665 151/666
f 155/667 134/668 136/669
f 155/670 136/671 152/672
f 122/673 156/674 153/675
f 122/676 153/677 113/678
f 156/679 157/680 154/681
f 156/682 154/683 153/684
f 157/685 158/686 155/687
f 157/688 155/689 154/690
f 158/691 132/692 134/693
f 158/694 134/695 155/696
f 80/697 142/698 156/699
f 80/700 156/701 122/702
f 142/703 144/704 157/705
f 142/706 157/707 156/708
f 144/709 146/710 158/711
f 144/712 158/713 157/714
f 146/715 129/716 132/717
f 146/718 132/719 158/720
f 130/721 159/722 160/723
f 130/724 160/725 131/726
f 159/727 161/728 162/729
f 159/730 162/731 160/732
f 161/733 84/734 123/735
f 161/736 123/737 162/738
f 131/739 160/740 163/741
f 131/742 163/743 133/744
f 160/745 162/746 164/747
f 160/748 164/749 163/750
f 162/751 123/752 114/753
f 162/754 114/755 164/756
f 133/757 163/758 165/759
f 133/760 165/761 135/762
f 163/763 164/764 166/765
f 163/766 166/767 165/768
f 164/769 114/770 105/771
f 164/772 105/773 166/774
f 135/775 165/776 167/777
f 135/778 167/779 137/780
f 165/781 166/782 168/783
f 165/784 168/785 167/786
f 166/787 105/788 96/789
f 166/790 96/791 168/792
f 137/793 167/794 169/795
f 137/796 169/797 139/798
f 167/799 168/800 170/801
f 167/802 170/803 169/804
f 168/805 96/806 81/807
f 168/808 81/809 170/810
f 139/811 169/812 159/813
f 139/814 159/815 130/816
f 169/817 170/818 161/819
f 169/820 161/821 159/822
f 170/823 81/824 84/825
f 170/826 84/827 161/828
f 83/829 88/830 125/831
f 83/832 125/833 124/834
f 124/835 125/836 116/837
f 124/838 116/839 115/840
f 115/841 116/842 107/843
f 115/844 107/845 106/846
f 106/847 107/848 98/849
f 106/850 98/851 97/852
f 97/853 98/854 85/855
f 97/856 85/857 82/858
f 82/859 85/860 88/861
f 82/862 88/863 83/864
f 87/865 92/866 127/867
f 87/868 127/869 126/870
f 126/871 127/872 118/873
f 126/874 118/875 117/876
f 117/877 118/878 109/879
f 117/880 109/881 108/882
f 108/883 109/884 100/885
f 108/886 100/887 99/888
f 99/889 100/890 89/891
f 99/892 89/893 86/894
f 86/895 89/896 92/897
f 86/898 92/899 87/900
f 90/901 68/902 57/903
f 90/904 57/905 91/906
f 101/907 66/908 68/909
f 101/910 68/911 90/912
f 110/913 64/914 66/915
f 110/916 66/917 101/918
f 119/919 62/920 64/921
f 119/922 64/923 110/924
f 128/925 60/926 62/927
f 128/928 62/929 119/930
f 91/931 57/932 60/933
f 91/934 60/935 128/936
f 171/937 172/938 173/939
f 171/940 173/941 174/942
f 174/943 173/944 175/945
f 174/946 175/947 176/948
f 177/949 178/950 179/951
f 177/952 179/953 180/954
f 181/955 182/956 183/957
f 181/958 183/959 184/960
f 185/961 177/962 180/963
f 185/964 180/965 186/966
f 178/967 187/968 188/969
f 178/970 188/971 179/972
f 175/973 173/974 172/975
f 175/976 172/977 189/978
f 190/979 191/980 187/981
f 190/982 187/983 178/984
f 174/985 176/986 192/987
f 174/988 192/989 171/990
f 193/991 194/992 177/993
f 193/994 177/995 185/996
f 176/997 175/998 189/999
f 176/1000 189/1001 192/1002
f 194/1003 190/1004 178/1005
f 194/1006 178/1007 177/1008
f 186/1009 188/1010 187/1011
f 186/1012 187/1013 185/1014
f 195/1015 196/1016 172/1017
f 195/1018 172/1019 171/1020
f 185/1021 187/1022 191/1023
f 185/1024 191/1025 193/1026
f 197/1027 196/1028 195/1029
f 195/1030 198/1031 199/1032
f 195/1033 199/1034 197/1035
f 192/1036 189/1037 200/1038
f 192/1039 200/1040 201/1041
f 171/1042 192/1043 201/1044
f 171/1045 201/1046 195/1047
f 195/1048 201/1049 194/1050
f 195/1051 194/1052 193/1053
f 189/1054 172/1055 196/1056
f 189/1057 196/1058 200/1059
f 200/1060 196/1061 191/1062
f 200/1063 191/1064 190/1065
f 202/1066 201/1067 200/1068
f 200/1069 203/1070 204/1071
f 200/1072 204/1073 202/1074
f 202/1075 204/1076 205/1077
f 202/1078 205/1079 206/1080
f 194/1081 201/1082 202/1083
f 194/1084 202/1085 206/1086
f 207/1087 190/1088 194/1089
f 194/1090 206/1091 205/1092
f 194/1093 205/1094 207/1095
f 208/1096 193/1097 191/1098
f 191/1099 209/1100 210/1101
f 191/1102 210/1103 208/1104
f 195/1105 193/1106 208/1107
f 195/1108 208/1109 198/1110
f 191/1111 196/1112 197/1113
f 191/1114 197/1115 209/1116
f 181/1117 211/1118 188/1119
f 181/1120 188/1121 186/1122
f 212/1123 182/1124 180/1125
f 212/1126 180/1127 179/1128
f 182/1129 181/1130 186/1131
f 182/1132 186/1133 180/1134
f 211/1135 212/1136 179/1137
f 211/1138 179/1139 188/1140
f 183/1141 213/1142 214/1143
f 183/1144 214/1145 184/1146
f 211/1147 181/1148 184/1149
f 211/1150 184/1151 214/1152
f 212/1153 211/1154 214/1155
f 212/1156 214/1157 213/1158
f 182/1159 212/1160 213/1161
f 182/1162 213/1163 183/1164
f 203/1165 207/1166 205/1167
f 203/1168 205/1169 204/1170
f 200/1171 190/1172 207/1173
f 200/1174 207/1175 203/1176
f 209/1177 197/1178 199/1179
f 209/1180 199/1181 210/1182
f 208/1183 210/1184 199/1185
f 208/1186 199/1187 198/1188
f 215/1189 216/1190 217/1191
f 215/1192 217/1193 218/1194
f 218/1195 217/1196 219/1197
f 218/1198 219/1199 220/1200
f 220/1201 219/1202 221/1203
f 220/1204 221/1205 222/1206
f 222/1207 221/1208 223/1209
f 222/1210 223/1211 224/1212
f 224/1213 223/1214 225/1215
f 224/1216 225/1217 226/1218
f 226/1219 225/1220 227/1221
f 226/1222 227/1223 228/1224
f 219/1225 217/1226 216/1227
f 216/1228 229/1229 227/1230
f 227/1231 225/1232 223/1233
f 223/1234 221/1235 219/1236
f 219/1237 216/1238 227/1239
f 227/1240 223/1241 219/1242
f 228/1243 227/1244 229/1245
f 228/1246 229/1247 230/1248
f 230/1249 229/1250 216/1251
f 230/1252 216/1253 215/1254
f 231/1255 232/1256 233/1257
f 233/1258 234/1259 235/1260
f 235/1261 236/1262 237/1263
f 237/1264 238/1265 231/1266
f 231/1267 233/1268 235/1269
f 235/1270 237/1271 231/1272
f 231/1273 230/1274 215/1275
f 231/1276 215/1277 232/1278
f 238/1279 228/1280 230/1281
f 238/1282 230/1283 231/1284
f 237/1285 226/1286 228/1287
f 237/1288 228/1289 238/1290
f 236/1291 224/1292 226/1293
f 236/1294 226/1295 237/1296
f 235/1297 222/1298 224/1299
f 235/1300 224/1301 236/1302
f 234/1303 220/1304 222/1305
f 234/1306 222/1307 235/1308
f 233/1309 218/1310 220/1311
f 233/1312 220/1313 234/1314
f 232/1315 215/1316 218/1317
f 232/1318 218/1319 233/1320
