# Exported from USD for MuJoCo with source material subsets
v 5.66712331 -7.88850015 0.00500035286
v 5.66113641 -7.88850015 0.00500035286
v 5.66613641 -7.86574978 0.00500035286
v 5.66113641 -7.86574978 0.00500035286
v 5.66613644 -7.76352972 0.00500035286
v 6.63484057 5.97313458 0.00500059128
v 6.62984022 5.97313458 1.20000049
v 6.62984052 5.97313458 0.0400005579
v 5.73484057 5.53438526 0.0600004196
v 6.63484051 5.53438526 0.00500059128
v 6.56484043 5.53438526 0.060000658
v 5.67484065 5.53438526 0.0400004387
v 6.56484013 5.53438526 1.14000037
v 6.62484052 5.53438526 0.0400005579
v 5.73484027 5.53438526 1.14000012
v 5.6748403 5.53438526 1.20000025
v 6.62484011 5.53438526 1.20000049
v 6.6298401 5.53438526 1.20000049
v 6.6348401 5.53438526 1.23500037
v 5.66984072 5.83841521 0.00500035286
v 5.66984072 5.83841521 0.0400004387
v 5.66484072 5.83841521 0.00500035286
v 5.66984039 5.870915 1.23500012
v 5.66484039 5.83841521 1.23500012
v 5.66984039 5.83841521 1.23500012
v 6.6298401 5.55713516 1.20000049
v 6.6298404 5.55713516 0.0400005579
v 6.6298404 5.53438526 0.0400005579
v 6.6348401 5.55713516 1.23500037
v 6.63484051 5.55713516 0.00500059128
v 5.66484039 5.870915 1.23500012
v 5.66984039 5.870915 1.20000025
v 6.6298404 5.55713516 0.00500059128
v 6.62984052 5.83841521 0.0400005579
v 6.6298401 5.55713516 1.23500037
v 6.62984022 5.83841521 1.20000049
v 5.66484075 5.97313458 0.00500035286
v 5.66984075 5.97313458 0.0400004387
v 5.66484042 5.97313458 1.23500012
v 6.63484021 5.870915 1.23500037
v 6.62984052 5.870915 0.0400005579
v 6.62984022 5.870915 1.20000049
v 6.63484021 5.83841521 1.23500037
v 6.62984022 5.83841521 1.23500037
v 5.70484071 5.99913555 0.220631838
v 5.70484077 5.99913555 0.00500035286
v 5.67082768 5.99913555 0.00500035286
v 6.62984052 5.97313458 0.00500059128
v 5.66484063 5.55713516 0.00500035286
v 5.6698403 5.55713516 1.20000025
v 5.66984063 5.55713516 0.0400004387
v 5.67082768 5.99588543 0.00500035286
v 5.66484075 5.99588543 0.00500035286
v 5.66984075 5.99588543 0.0400004387
v 6.62984052 5.870915 0.00500059128
v 6.63484051 5.870915 0.00500059128
v 6.63484051 5.83841521 0.00500059128
v 6.62984052 5.99588543 0.0400005579
v 6.62885364 5.99588543 0.0400005579
v 5.67082768 5.99588543 0.0400004387
v 5.66484063 5.53438526 0.00500035286
v 6.62984052 5.83841521 0.00500059128
v 5.67082732 5.99588543 1.20000025
v 5.67082732 5.99588543 1.23500012
v 5.67082732 5.99913555 1.23500012
v 6.59484049 5.99913555 0.261152625
v 6.62885364 5.99913555 0.00500059128
v 6.59484049 5.99913555 0.220632076
v 6.63484021 5.97313458 1.23500037
v 6.63484021 5.99588543 1.23500037
v 6.62984022 5.97313458 1.23500037
v 5.66984063 5.55713516 0.00500035286
v 6.1383496 5.77140194 1.23500024
v 6.63113638 -7.42699999 0.00500059128
v 5.66613644 -7.73102945 0.00500035286
v 5.66613653 -7.44974989 0.00500035286
v 6.63113626 -7.88850015 0.00500059128
v 6.62613627 -7.86574978 0.00500059128
v 6.63113626 -7.86574978 0.00500059128
v 6.62484058 5.99588543 0.0400005579
v 5.67484077 5.99588543 0.0400004387
v 5.66484031 5.55713516 1.23500012
v 5.66484031 5.53438526 1.23500012
v 5.6698403 5.55713516 1.23500012
v 5.66984063 5.53438526 0.0400004387
v 5.70484077 5.99588543 0.00500035286
v 5.66984039 5.83841521 1.20000025
v 6.62613639 -7.44974989 0.00500059128
v 6.63113638 -7.44974989 0.00500059128
v 6.62984022 5.99588543 1.20000049
v 6.62885329 5.99588543 1.20000049
v 6.62885329 5.99588543 1.23500037
v 6.62885329 5.99913555 1.23500037
v 6.62484022 5.99588543 1.20000049
v 5.66984042 5.97313458 1.23500012
v 5.66484042 5.99588543 1.23500012
v 5.70484071 5.99913555 0.261152387
v 5.66984042 5.99588543 1.20000025
v 5.66984072 5.870915 0.00500035286
v 6.62613627 -7.73102945 0.00500059128
v 5.6698403 5.53438526 1.20000025
v 5.66984072 5.870915 0.0400004387
v 5.66484072 5.870915 0.00500035286
v 6.13574487 5.76180035 1.23500024
v 5.66113653 -7.44974989 0.00500035286
v 5.66113653 -7.42699999 0.00500035286
v 6.62514927 -7.88850015 0.00500059128
v 5.66984075 5.97313458 0.00500035286
v 6.62885364 5.99588543 0.00500059128
v 6.59484061 5.99588543 0.00500059128
v 6.63484057 5.99588543 0.00500059128
v 5.82984058 5.99588543 0.565000296
v 5.70484071 5.99588543 0.261152387
v 5.70484042 5.99588543 1.23500012
v 6.59484025 5.99588543 1.23500037
v 6.16393565 5.76180035 1.23500024
v 6.59484025 5.99913555 1.23500037
v 6.59113624 -7.8917498 0.00500059128
v 6.59113624 -7.88850015 0.00500059128
v 6.62514927 -7.8917498 0.00500059128
v 6.13484027 5.76513487 1.23500024
v 5.70484042 5.99913555 1.23500012
v 6.62984022 5.870915 1.23500037
v 5.66984042 5.97313458 1.20000025
v 6.63113626 -7.76352972 0.00500059128
v 6.62613627 -7.76352972 0.00500059128
v 6.63113626 -7.73102945 0.00500059128
v 5.66113644 -7.73102945 0.00500035286
v 5.66113644 -7.76352972 0.00500035286
v 5.67484042 5.99588543 1.20000025
v 5.70113638 -7.8917498 0.00500035286
v 5.66712331 -7.8917498 0.00500035286
v 5.70113638 -7.88850015 0.00500035286
v 6.59484061 5.99913555 0.00500059128
v 6.44984027 5.99588543 1.15500037
v 6.44984045 5.99588543 0.565000415
v 5.70484071 5.99588543 0.220631838
v 6.59484049 5.99588543 0.220632076
v 6.59484049 5.99588543 0.261152625
v 6.16484026 5.76513487 1.23500024
v 6.16393565 5.76846987 1.23500024
v 6.16133093 5.77140194 1.23500024
v 6.15734026 5.77357918 1.23500024
v 6.15244499 5.77473694 1.23500024
v 6.14723554 5.77473694 1.23500024
v 6.14234027 5.77357918 1.23500024
v 6.15244498 5.7555328 1.23500024
v 6.14723554 5.7555328 1.23500024
v 6.14234026 5.75669151 1.23500024
v 6.13834959 5.7588678 1.23500024
v 6.15734026 5.75669151 1.23500024
v 6.16133093 5.7588678 1.23500024
v 6.13574487 5.76846987 1.23500024
v 5.82984039 5.99588543 1.15500012
v 6.62613603 -7.44974989 1.23500037
v 6.63113602 -7.42699999 1.23500037
v 5.6611362 -7.42699999 1.23500012
v 5.70113605 -7.88850015 1.23500012
v 6.59113588 -7.88850015 1.23500037
v 5.66613611 -7.76352972 1.23500012
v 6.59113588 -7.8917498 1.23500037
v 6.62514898 -7.8917498 1.23500037
v 5.66113609 -7.73102945 1.23500012
v 5.66113609 -7.76352972 1.23500012
v 5.66613611 -7.73102945 1.23500012
v 6.63113591 -7.76352972 1.23500037
v 6.63113591 -7.73102945 1.23500037
v 6.62613591 -7.76352972 1.23500037
v 5.6661362 -7.44974989 1.23500012
v 5.6611362 -7.44974989 1.23500012
v 6.62613591 -7.86574978 1.23500037
v 6.16113605 -7.65774959 1.23500024
v 6.62514898 -7.88850015 1.23500037
v 6.62613591 -7.73102945 1.23500037
v 6.63113591 -7.86574978 1.23500037
v 6.63113591 -7.88850015 1.23500037
v 5.66113609 -7.86574978 1.23500012
v 5.66113609 -7.88850015 1.23500012
v 5.66613608 -7.86574978 1.23500012
v 6.16023144 -7.65441555 1.23500024
v 6.15762671 -7.66401762 1.23500024
v 6.13204066 -7.65441555 1.23500024
v 6.63113602 -7.44974989 1.23500037
v 5.66712301 -7.88850015 1.23500012
v 5.66712301 -7.8917498 1.23500012
v 5.70113605 -7.8917498 1.23500012
v 6.14353133 -7.64814848 1.23500024
v 6.14874078 -7.64814848 1.23500024
v 6.15363606 -7.64930624 1.23500024
v 6.15762671 -7.651483 1.23500024
v 6.13863605 -7.64930624 1.23500024
v 6.13464538 -7.651483 1.23500024
v 6.13113605 -7.65774959 1.23500024
v 6.13204066 -7.66108507 1.23500024
v 6.13464538 -7.66401762 1.23500024
v 6.13863605 -7.66619343 1.23500024
v 6.14353132 -7.66735214 1.23500024
v 6.14874077 -7.66735214 1.23500024
v 6.15363605 -7.66619343 1.23500024
v 6.16023144 -7.66108507 1.23500024
v 5.73113647 -7.42699999 0.0600004196
v 5.67113652 -7.42699999 0.0400004387
v 6.56113636 -7.42699999 0.060000658
v 6.62113639 -7.42699999 0.0400005579
v 5.73113617 -7.42699999 1.14000012
v 6.56113606 -7.42699999 1.14000037
v 6.62113597 -7.42699999 1.20000049
v 5.6711362 -7.42699999 1.20000025
v 5.6661362 -7.42699999 1.20000025
v 6.62613639 -7.42699999 0.0400005579
v 6.62613603 -7.42699999 1.20000049
v 5.66613653 -7.42699999 0.0400004387
v 5.66613641 -7.88850015 0.0400004387
v 5.66712331 -7.88850015 0.0400004387
v 5.66613608 -7.88850015 1.20000025
v 5.66712301 -7.88850015 1.20000025
v 5.66613653 -7.44974989 0.0400004387
v 5.66613644 -7.73102945 0.0400004387
v 5.66613641 -7.86574978 0.0400004387
v 5.6711364 -7.88850015 0.0400004387
v 5.66613644 -7.76352972 0.0400004387
v 5.66613611 -7.73102945 1.20000025
v 5.6661362 -7.44974989 1.20000025
v 5.66613608 -7.86574978 1.20000025
v 5.66613611 -7.76352972 1.20000025
v 5.67113608 -7.88850015 1.20000025
v 6.62613627 -7.73102945 0.0400005579
v 6.62613639 -7.44974989 0.0400005579
v 6.62514927 -7.88850015 0.0400005579
v 6.62613627 -7.86574978 0.0400005579
v 6.62113627 -7.88850015 0.0400005579
v 6.62613627 -7.88850015 0.0400005579
v 6.62613627 -7.76352972 0.0400005579
v 6.62113591 -7.88850015 1.20000049
v 6.62613591 -7.73102945 1.20000049
v 6.62613591 -7.88850015 1.20000049
v 6.62514898 -7.88850015 1.20000049
v 6.62613591 -7.86574978 1.20000049
v 6.62613603 -7.44974989 1.20000049
v 6.62613591 -7.76352972 1.20000049
v 6.59113618 -7.8917498 0.261152625
v 6.59113618 -7.88850015 0.261152625
v 5.70113632 -7.8917498 0.261152387
v 5.70113632 -7.8917498 0.220631838
v 6.59113618 -7.8917498 0.220632076
v 5.84613624 -7.88850015 0.565000296
v 6.46613609 -7.88850015 0.565000415
v 5.84613604 -7.88850015 1.15500012
v 5.70113632 -7.88850015 0.261152387
v 6.46613591 -7.88850015 1.15500037
v 5.70113632 -7.88850015 0.220631838
v 6.59113618 -7.88850015 0.220632076
vt -0.485713989 10.6803007
vt -0.491699994 10.6803007
vt -0.486699998 10.6453009
vt -0.486699998 10.6453009
vt -0.491699994 10.6803007
vt -0.491699994 10.6453009
vt -0.486699998 10.6453009
vt -0.486699998 10.4880381
vt -0.485713989 10.6803007
vt 0.481999993 0.00499999989
vt 0.476999998 1.20000005
vt 0.476999998 0.0399999991
vt -0.418000013 0.0599999987
vt 0.481999993 0.00499999989
vt 0.412 0.0599999987
vt -0.477999985 0.0399999991
vt 0.481999993 0.00499999989
vt -0.418000013 0.0599999987
vt 0.412 1.13999999
vt 0.412 0.0599999987
vt 0.472000003 0.0399999991
vt -0.418000013 1.13999999
vt -0.477999985 0.0399999991
vt -0.418000013 0.0599999987
vt -0.477999985 1.20000005
vt -0.418000013 1.13999999
vt 0.412 1.13999999
vt -0.477999985 1.20000005
vt -0.477999985 0.0399999991
vt -0.418000013 1.13999999
vt 0.472000003 1.20000005
vt 0.412 1.13999999
vt 0.472000003 0.0399999991
vt 0.476999998 1.20000005
vt 0.481999993 1.23500001
vt 0.472000003 1.20000005
vt 0.476999998 1.20000005
vt 0.481999993 0.00499999989
vt 0.481999993 1.23500001
vt -0.48300001 0.00499999989
vt -0.48300001 0.0399999991
vt -0.488000005 0.00499999989
vt 0.48300001 -10.4880381
vt 0.488000005 -10.4380379
vt 0.48300001 -10.4380379
vt 0.476999998 -10.0052986
vt 0.476999998 -9.97029877
vt 0.472000003 -9.97029877
vt -0.476999998 -10.0052986
vt -0.472000003 -9.97029877
vt -0.476999998 -9.97029877
vt -0.481999993 1.23500001
vt -0.476999998 0.0399999991
vt -0.476999998 1.20000005
vt -0.481999993 0.00499999989
vt -0.476999998 0.0399999991
vt -0.481999993 1.23500001
vt 0.488000005 1.23500001
vt 0.48300001 1.23500001
vt 0.48300001 1.20000005
vt 0.476999998 -10.0052986
vt 0.481999993 -10.0052986
vt 0.481999993 -9.97029877
vt -0.476999998 0.00499999989
vt -0.476999998 0.0399999991
vt -0.481999993 0.00499999989
vt -0.476999998 -10.4380379
vt -0.472000003 -9.97029877
vt -0.476999998 -10.0052986
vt -0.476999998 1.23500001
vt -0.481999993 1.23500001
vt -0.476999998 1.20000005
vt -0.476999998 -10.0052986
vt -0.481999993 -9.97029877
vt -0.481999993 -10.0052986
vt 0.476999998 -10.4380379
vt 0.476999998 -10.0052986
vt 0.472000003 -9.97029877
vt -0.488000005 0.00499999989
vt -0.48300001 0.0399999991
vt -0.488000005 1.23500001
vt -0.481999993 1.23500001
vt -0.476999998 0.0399999991
vt -0.476999998 1.20000005
vt 0.481999993 1.23500001
vt 0.476999998 1.23500001
vt 0.476999998 1.20000005
vt 0.448000014 0.220632002
vt 0.448000014 0.00499999989
vt 0.482012987 0.00499999989
vt 0.476999998 0.00499999989
vt 0.481999993 0.00499999989
vt 0.476999998 0.0399999991
vt 0.488000005 0.00499999989
vt 0.48300001 1.20000005
vt 0.48300001 0.0399999991
vt 0.482012987 0.00499999989
vt 0.488000005 0.00499999989
vt 0.48300001 0.0399999991
vt 0.476999998 -10.4880381
vt 0.481999993 -10.4880381
vt 0.481999993 -10.4380379
vt -0.476999998 -10.6802988
vt -0.476013005 -10.6802988
vt -0.476999998 -10.645299
vt 0.48300001 -10.6802988
vt 0.48300001 -10.645299
vt 0.482012987 -10.6802988
vt -0.488000005 -9.97029877
vt 0.476999998 -10.4380379
vt 0.476999998 -10.0052986
vt -1.20000005 -10.6802988
vt -1.23500001 -10.6802988
vt -1.23500001 -10.6852989
vt 0.48300001 -10.4380379
vt 0.48300001 -10.0052986
vt 0.477999985 -9.97029877
vt -0.442000002 0.261151999
vt -0.476013005 0.00499999989
vt -0.442000002 0.220632002
vt -0.481999993 -10.645299
vt -0.481999993 -10.6802988
vt -0.476999998 -10.645299
vt -0.48300001 -10.0052986
vt -0.488000005 -9.97029877
vt -0.488000005 -10.0052986
vt 0.0144910002 -10.3349409
vt 0.482012987 -10.6852989
vt 0.482012987 -10.6802988
vt 0.478300005 9.97030067
vt -0.486699998 10.4380388
vt -0.486699998 10.0053015
vt 0.478300005 10.6803007
vt 0.47330001 10.6453009
vt 0.478300005 10.6453009
vt -0.472000003 -10.6802988
vt -0.472000003 -9.97029877
vt -0.476999998 -10.4380379
vt 0.482012987 -10.6802988
vt 0.48300001 -10.645299
vt 0.477999985 -10.6802988
vt 0.488000005 -10.0052986
vt 0.488000005 -9.97029877
vt 0.48300001 -10.0052986
vt 0.48300001 -10.0052986
vt 0.48300001 -9.97029877
vt 0.477999985 -9.97029877
vt -0.448000014 -10.6802988
vt -0.482012987 -10.6802988
vt -0.482012987 -10.6852989
vt -0.488000005 1.23500001
vt -0.48300001 1.20000005
vt -0.48300001 1.23500001
vt 0.47330001 10.0053015
vt 0.478300005 9.97030067
vt 0.478300005 10.0053015
vt -0.481999993 1.23500001
vt -0.476999998 0.0399999991
vt -0.476999998 1.20000005
vt -0.476999998 0.00499999989
vt -0.476999998 0.0399999991
vt -0.481999993 0.00499999989
vt -0.476999998 1.20000005
vt -0.476013005 1.20000005
vt -0.476013005 1.23500001
vt 1.23500001 -10.6802988
vt 1.20000005 -10.6802988
vt 1.23500001 -10.6852989
vt 0.472000003 -10.6802988
vt 0.476999998 -10.4880381
vt 0.476999998 -10.4380379
vt 0.488000005 -10.645299
vt 0.48300001 -10.645299
vt 0.488000005 -10.6802988
vt 0.448000014 0.261151999
vt 0.448000014 0.220632002
vt 0.482012987 0.00499999989
vt 0.476999998 -10.4380379
vt 0.476999998 -10.4880381
vt 0.481999993 -10.4380379
vt 0.48300001 0.0399999991
vt 0.488000005 0.00499999989
vt 0.48300001 1.20000005
vt -0.488000005 0.00499999989
vt 0.481999993 0.00499999989
vt -0.477999985 0.0399999991
vt -0.48300001 -10.4880381
vt -0.48300001 -10.4380379
vt -0.488000005 -10.4380379
vt 0.47330001 10.4380388
vt -0.485713989 10.6803007
vt 0.47330001 10.0053015
vt -0.48300001 -10.0052986
vt -0.477999985 -9.97029877
vt -0.48300001 -9.97029877
vt 0.48300001 0.0399999991
vt 0.488000005 0.00499999989
vt 0.48300001 1.20000005
vt 0.477999985 -10.6802988
vt 0.48300001 -10.4380379
vt 0.477999985 -9.97029877
vt 0.48300001 -10.4380379
vt 0.48300001 -10.0052986
vt 0.0170959998 -10.3201694
vt -0.486699998 10.0053015
vt -0.491699994 10.0053015
vt -0.491699994 9.97030067
vt 0.472312987 10.6803007
vt 0.47330001 10.6453009
vt 0.478300005 10.6803007
vt 0.48300001 1.20000005
vt 0.482012987 1.23500001
vt 0.482012987 1.20000005
vt -0.00499999989 -10.6852989
vt -0.0399999991 -10.6802988
vt -1.23500001 -10.6852989
vt -0.448000014 -10.6802988
vt -0.48300001 -10.4880381
vt -0.48300001 -10.645299
vt 0.476013005 -10.6852989
vt 0.476013005 -10.6802988
vt 0.442000002 -10.6802988
vt 0.481999993 -10.6802988
vt 0.476999998 -10.645299
vt 0.476013005 -10.6802988
vt 0.448000014 0.261151999
vt 0.482012987 0.00499999989
vt 0.482012987 1.23500001
vt 0.488000005 0.00499999989
vt 0.488000005 1.23500001
vt 0.48300001 1.20000005
vt 0.412 0.0599999987
vt 0.481999993 0.00499999989
vt 0.472000003 0.0399999991
vt -0.48300001 0.0399999991
vt -0.488000005 0.00499999989
vt -0.477999985 0.0399999991
vt 0.48300001 0.00499999989
vt 0.488000005 0.00499999989
vt 0.48300001 0.0399999991
vt -0.481999993 -10.6802988
vt -0.476013005 -10.6802988
vt -0.476999998 -10.645299
vt 0.323000014 0.564999998
vt 0.448000014 0.261151999
vt 0.448000014 1.23500001
vt 0.476999998 -10.645299
vt 0.476999998 -10.4880381
vt 0.476013005 -10.6802988
vt 0.448000014 0.261151999
vt -0.442000002 0.220632002
vt 0.448000014 0.220632002
vt 0.0399999991 -10.6802988
vt 0.00499999989 -10.6852989
vt 1.20000005 -10.6802988
vt -0.476013005 -10.6802988
vt -0.442000002 -10.6802988
vt -0.476999998 -10.645299
vt -0.0110950004 -10.3201694
vt -0.476999998 -10.0052986
vt -0.476999998 -10.4380379
vt 0.481999993 0.00499999989
vt 0.476999998 1.20000005
vt 0.476999998 0.0399999991
vt -0.476013005 1.23500001
vt -0.442000002 0.261151999
vt -0.442000002 1.23500001
vt 0.488000005 -10.6802988
vt 0.48300001 -10.645299
vt 0.482012987 -10.6802988
vt 0.438300014 10.6853008
vt 0.438300014 10.6803007
vt 0.472312987 10.6853008
vt -0.442000002 0.261151999
vt -0.442000002 0.220632002
vt 0.448000014 0.261151999
vt 0.48300001 -10.645299
vt 0.48300001 -10.4880381
vt 0.0179999992 -10.3252993
vt 0.488000005 -10.4880381
vt 0.488000005 -10.4380379
vt 0.48300001 -10.4880381
vt 0.448000014 1.23500001
vt 0.448000014 0.261151999
vt 0.482012987 1.23500001
vt -0.476999998 1.23500001
vt -0.481999993 1.23500001
vt -0.476999998 1.20000005
vt 0.472000003 -10.6802988
vt 0.476999998 -10.4380379
vt 0.472000003 -9.97029877
vt -0.488000005 1.23500001
vt -0.48300001 1.20000005
vt -0.48300001 1.23500001
vt -0.488000005 0.00499999989
vt -0.48300001 0.0399999991
vt -0.488000005 1.23500001
vt -0.488000005 -10.6802988
vt -0.48300001 -10.645299
vt -0.488000005 -10.645299
vt 1.20000005 -10.6802988
vt 0.00499999989 -10.6852989
vt 1.23500001 -10.6852989
vt 0.478300005 10.4880381
vt 0.47330001 10.4880381
vt 0.478300005 10.4380388
vt 0.478300005 9.97030067
vt -0.486699998 10.0053015
vt -0.491699994 9.97030067
vt -0.486699998 10.4380388
vt -0.486699998 10.4880381
vt -0.491699994 10.4380388
vt -0.488000005 1.23500001
vt -0.488000005 0.00499999989
vt -0.48300001 0.0399999991
vt -0.48300001 -10.4380379
vt 0.476013005 -10.6802988
vt -0.48300001 -10.0052986
vt 0.47330001 10.4880381
vt 0.47330001 10.4380388
vt 0.478300005 10.4380388
vt -0.486699998 10.4880381
vt -0.491699994 10.4880381
vt -0.491699994 10.4380388
vt 0.488000005 0.00499999989
vt 0.488000005 1.23500001
vt 0.48300001 1.20000005
vt -0.488000005 -10.4880381
vt -0.48300001 -10.4880381
vt -0.488000005 -10.4380379
vt -0.488000005 -9.97029877
vt 0.476999998 -10.0052986
vt 0.481999993 -9.97029877
vt 0.48300001 0.0399999991
vt 0.48300001 0.00499999989
vt 0.488000005 0.00499999989
vt -0.481999993 0.00499999989
vt -0.476999998 0.0399999991
vt -0.481999993 1.23500001
vt -0.477999985 -10.6802988
vt -0.477999985 -9.97029877
vt -0.48300001 -10.4380379
vt 0.48300001 -10.0052986
vt 0.488000005 -9.97029877
vt -0.481999993 -9.97029877
vt 0.476013005 -10.6802988
vt 0.476999998 -10.4880381
vt 0.472000003 -10.6802988
vt 0.48300001 -10.4380379
vt 0.0170959998 -10.3201694
vt 0.0179999992 -10.3252993
vt 0.488000005 1.23500001
vt 0.48300001 1.23500001
vt 0.48300001 1.20000005
vt -0.476013005 -10.6852989
vt -0.442000002 -10.6852989
vt -0.442000002 -10.6802988
vt -0.451700002 10.6853008
vt -0.485713989 10.6853008
vt -0.451700002 10.6803007
vt -1.20000005 -10.6802988
vt -1.23500001 -10.6852989
vt -0.0399999991 -10.6802988
vt -0.485713989 10.6853008
vt -0.485713989 10.6803007
vt -0.451700002 10.6803007
vt -0.48300001 -10.645299
vt -0.482012987 -10.6802988
vt -0.477999985 -10.6802988
vt -0.48300001 0.00499999989
vt -0.48300001 0.0399999991
vt -0.488000005 0.00499999989
vt -0.48300001 -10.6802988
vt -0.482012987 -10.6802988
vt -0.48300001 -10.645299
vt 0.482012987 0.00499999989
vt 0.48300001 0.0399999991
vt 0.482012987 0.0399999991
vt -0.476013005 1.23500001
vt -0.476013005 0.00499999989
vt -0.442000002 0.261151999
vt -0.482012987 -10.6802988
vt -0.48300001 -10.645299
vt -0.488000005 -10.6802988
vt -0.00499999989 -10.6852989
vt -0.00499999989 -10.6802988
vt -0.0399999991 -10.6802988
vt -0.448000014 -10.6802988
vt -0.48300001 -10.645299
vt -0.482012987 -10.6802988
vt -0.48300001 -10.4380379
vt -0.477999985 -9.97029877
vt -0.48300001 -10.0052986
vt 0.442000002 -10.6802988
vt -0.48300001 -10.4880381
vt -0.448000014 -10.6802988
vt -0.488000005 1.23500001
vt -0.48300001 0.0399999991
vt -0.48300001 1.20000005
vt -0.481999993 -10.4380379
vt -0.481999993 -10.4880381
vt -0.476999998 -10.4380379
vt 0.442000002 -10.6852989
vt 0.476013005 -10.6852989
vt 0.442000002 -10.6802988
vt 0.48300001 -10.645299
vt 0.0179999992 -10.3252993
vt 0.482012987 -10.6802988
vt -0.442000002 0.220632002
vt -0.476013005 0.00499999989
vt -0.442000002 0.00499999989
vt -0.451700002 10.6803007
vt 0.47330001 10.4880381
vt 0.438300014 10.6803007
vt 0.476999998 -10.645299
vt 0.481999993 -10.6802988
vt 0.481999993 -10.645299
vt 0.48300001 -10.4880381
vt 0.48300001 -10.4380379
vt 0.0179999992 -10.3252993
vt 0.476999998 -10.645299
vt 0.476999998 -10.4880381
vt 0.476013005 -10.6802988
vt -0.296999991 1.15499997
vt 0.448000014 1.23500001
vt -0.442000002 1.23500001
vt 0.481999993 0.00499999989
vt 0.481999993 1.23500001
vt 0.476999998 1.20000005
vt 0.438300014 10.6803007
vt 0.47330001 10.4880381
vt 0.47330001 10.6453009
vt -0.448000014 -10.6852989
vt -0.448000014 -10.6802988
vt -0.482012987 -10.6852989
vt 0.481999993 1.23500001
vt 0.476999998 1.23500001
vt 0.476999998 1.20000005
vt -0.442000002 -10.6802988
vt 0.448000014 -10.6802988
vt -0.476999998 -10.4880381
vt -0.481999993 1.23500001
vt -0.476999998 1.20000005
vt -0.476013005 1.23500001
vt 0.438300014 10.6803007
vt 0.47330001 10.6453009
vt 0.472312987 10.6803007
vt -0.476999998 0.0399999991
vt -0.476013005 0.00499999989
vt -0.476013005 0.0399999991
vt -0.296999991 0.564999998
vt -0.296999991 1.15499997
vt -0.442000002 1.23500001
vt 0.476999998 -10.6802988
vt 0.476999998 -10.645299
vt 0.476013005 -10.6802988
vt 0.438300014 10.6803007
vt 0.472312987 10.6803007
vt 0.472312987 10.6853008
vt -0.476999998 -10.645299
vt -0.476013005 -10.6802988
vt -0.472000003 -10.6802988
vt -0.476999998 -10.4880381
vt -0.476999998 -10.4380379
vt -0.481999993 -10.4880381
vt 0.0399999991 -10.6802988
vt 0.00499999989 -10.6802988
vt 0.00499999989 -10.6852989
vt 0.481999993 0.00499999989
vt 0.481999993 1.23500001
vt 0.476999998 1.20000005
vt -0.476013005 -10.6802988
vt -0.476013005 -10.6852989
vt -0.442000002 -10.6802988
vt -0.476999998 -10.645299
vt -0.442000002 -10.6802988
vt -0.476999998 -10.4880381
vt -0.296999991 0.564999998
vt 0.448000014 0.261151999
vt 0.323000014 0.564999998
vt 0.476999998 0.00499999989
vt 0.481999993 0.00499999989
vt 0.476999998 0.0399999991
vt -0.488000005 1.23500001
vt -0.477999985 1.20000005
vt 0.481999993 1.23500001
vt -0.488000005 1.23500001
vt -0.48300001 0.0399999991
vt -0.48300001 1.20000005
vt 0.448000014 -10.6802988
vt 0.448000014 -10.6852989
vt 0.482012987 -10.6852989
vt 1.23500001 -10.6802988
vt 1.23500001 -10.645299
vt 0.00499999989 -10.6802988
vt 0.00499999989 -10.6802988
vt 1.23500001 -10.645299
vt 0.00499999989 -10.645299
vt 0.00499999989 -10.4380379
vt 0.00499999989 -10.4880381
vt 1.23500001 -10.4380379
vt 1.23500001 -10.4380379
vt 0.00499999989 -10.4880381
vt 1.23500001 -10.4880381
vt 0.476013005 0.0399999991
vt 0.476013005 1.20000005
vt 0.472000003 0.0399999991
vt 0.472000003 0.0399999991
vt 0.476013005 1.20000005
vt 0.472000003 1.20000005
vt 1.20000005 -10.645299
vt 1.23500001 -10.645299
vt 1.20000005 -10.4880381
vt 1.20000005 -10.4880381
vt 1.23500001 -10.645299
vt 1.23500001 -10.4880381
vt 1.23500001 -10.6852989
vt 1.23500001 -10.6802988
vt 0.261151999 -10.6852989
vt 0.261151999 -10.6852989
vt 1.23500001 -10.6802988
vt 0.261151999 -10.6802988
vt -0.0399999991 -10.6802988
vt -0.0399999991 -10.645299
vt -1.20000005 -10.6802988
vt -1.20000005 -10.6802988
vt -0.0399999991 -10.645299
vt -1.20000005 -10.645299
vt 0.00499999989 -10.6802988
vt 0.00499999989 -10.6852989
vt 0.220632002 -10.6802988
vt 0.220632002 -10.6802988
vt 0.00499999989 -10.6852989
vt 0.220632002 -10.6852989
vt -0.481999993 1.23500001
vt -0.481999993 0.00499999989
vt -0.476999998 0.0399999991
vt -0.476999998 0.0399999991
vt -0.481999993 0.00499999989
vt -0.476013005 0.00499999989
vt -0.220632002 -10.6802988
vt -0.220632002 -10.6852989
vt -0.00499999989 -10.6802988
vt -0.00499999989 -10.6802988
vt -0.220632002 -10.6852989
vt -0.00499999989 -10.6852989
vt 0.0399999991 -10.645299
vt 0.0399999991 -10.4880381
vt 0.00499999989 -10.645299
vt 0.00499999989 -10.645299
vt 0.0399999991 -10.4880381
vt 0.00499999989 -10.4880381
vt 0.448000014 0.261151999
vt -0.296999991 0.564999998
vt -0.442000002 0.261151999
vt -0.442000002 0.261151999
vt -0.296999991 0.564999998
vt -0.442000002 1.23500001
vt -0.0399999991 -10.0052986
vt -0.0399999991 -10.4380379
vt -0.00499999989 -10.0052986
vt -0.00499999989 -10.0052986
vt -0.0399999991 -10.4380379
vt -0.00499999989 -10.4380379
vt -1.23500001 -10.0052986
vt -1.23500001 -10.4380379
vt -1.20000005 -10.0052986
vt -1.20000005 -10.0052986
vt -1.23500001 -10.4380379
vt -1.20000005 -10.4380379
vt -1.20000005 -10.645299
vt -1.20000005 -10.4880381
vt -1.23500001 -10.645299
vt -1.23500001 -10.645299
vt -1.20000005 -10.4880381
vt -1.23500001 -10.4880381
vt -0.0110950004 -10.3201694
vt -0.476999998 -10.4380379
vt -0.0120000001 -10.3252993
vt -1.23500001 -10.3252993
vt -1.23500001 -10.4380379
vt -1.23500001 -10.4380379
vt -0.0120000001 -10.3252993
vt -0.476999998 -10.4380379
vt -0.0110950004 -10.33043
vt -1.23500001 -10.33043
vt -1.23500001 -10.4380379
vt -1.23500001 -10.4380379
vt -0.0110950004 -10.33043
vt -0.476999998 -10.4380379
vt -0.00848999992 -10.3349409
vt -1.23500001 -10.3349409
vt -1.23500001 -10.4380379
vt -1.23500001 -10.4380379
vt -0.00848999992 -10.3349409
vt -0.476999998 -10.4380379
vt -0.00449999981 -10.3382902
vt -1.23500001 -10.3382902
vt -1.23500001 -10.4380379
vt -1.23500001 -10.4380379
vt -0.00449999981 -10.3382902
vt -0.476999998 -10.4380379
vt 0.000395999989 -10.3400717
vt 0.000395999989 -10.3400717
vt -0.476999998 -10.4380379
vt 0.482012987 -10.6852989
vt 0.000395999989 -10.3400717
vt 0.482012987 -10.6852989
vt 0.00560500007 -10.3400717
vt -1.23500001 -10.3400717
vt -1.23500001 -10.6852989
vt -1.23500001 -10.6852989
vt 0.00560500007 -10.3400717
vt 0.482012987 -10.6852989
vt 0.0104999999 -10.3382902
vt 0.0104999999 -10.3382902
vt 0.482012987 -10.6852989
vt 0.0144910002 -10.3349409
vt 0.482012987 -10.6852989
vt -0.476999998 -10.4380379
vt 0.448000014 -10.6802988
vt 0.448000014 -10.6802988
vt -0.476999998 -10.4380379
vt -0.476999998 -10.4880381
vt -0.482012987 1.20000005
vt -0.482012987 0.0399999991
vt -0.477999985 1.20000005
vt -0.477999985 1.20000005
vt -0.482012987 0.0399999991
vt -0.477999985 0.0399999991
vt 0.48300001 -10.4380379
vt 0.477999985 -10.6802988
vt 0.48300001 -10.4880381
vt 0.48300001 -10.4880381
vt 0.477999985 -10.6802988
vt 0.48300001 -10.645299
vt -0.481999993 -9.97029877
vt -0.476999998 -10.0052986
vt 0.48300001 -10.0052986
vt 0.48300001 -10.0052986
vt -0.476999998 -10.0052986
vt 0.000395999989 -10.3105268
vt -1.23500001 -10.0052986
vt -1.23500001 -10.3105268
vt -1.23500001 -10.0052986
vt 0.48300001 -10.0052986
vt 0.000395999989 -10.3105268
vt 0.00560500007 -10.3105268
vt -1.23500001 -10.0052986
vt -1.23500001 -10.3105268
vt -1.23500001 -10.0052986
vt 0.48300001 -10.0052986
vt 0.00560500007 -10.3105268
vt 0.0104999999 -10.3123093
vt -1.23500001 -10.0052986
vt -1.23500001 -10.3123093
vt -1.23500001 -10.0052986
vt 0.48300001 -10.0052986
vt 0.0104999999 -10.3123093
vt 0.0144910002 -10.3156576
vt 0.48300001 -10.0052986
vt 0.0144910002 -10.3156576
vt 0.0170959998 -10.3201694
vt 0.000395999989 -10.3105268
vt -0.476999998 -10.0052986
vt -0.00449999981 -10.3123093
vt -1.23500001 -10.3123093
vt -1.23500001 -10.0052986
vt -1.23500001 -10.0052986
vt -0.00449999981 -10.3123093
vt -0.476999998 -10.0052986
vt -0.00848999992 -10.3156576
vt -0.00848999992 -10.3156576
vt -0.476999998 -10.0052986
vt -0.0110950004 -10.3201694
vt 0.0144910002 -10.3349409
vt 0.482012987 -10.6802988
vt 0.0170959998 -10.33043
vt 0.0170959998 -10.33043
vt 0.482012987 -10.6802988
vt 0.0179999992 -10.3252993
vt 1.20000005 -9.97029877
vt 0.0399999991 -9.97029877
vt 1.20000005 -10.0052986
vt 1.20000005 -10.0052986
vt 0.0399999991 -9.97029877
vt 0.0399999991 -10.0052986
vt -0.477999985 1.20000005
vt -0.488000005 1.23500001
vt -0.48300001 1.20000005
vt -0.48300001 1.20000005
vt -0.488000005 1.23500001
vt -0.48300001 0.0399999991
vt 0.0399999991 -10.6802988
vt 1.20000005 -10.6802988
vt 0.0399999991 -10.645299
vt 0.0399999991 -10.645299
vt 1.20000005 -10.6802988
vt 1.20000005 -10.645299
vt -0.296999991 1.15499997
vt 0.323000014 1.15499997
vt 0.448000014 1.23500001
vt 0.448000014 1.23500001
vt 0.323000014 1.15499997
vt 0.323000014 0.564999998
vt 0.47330001 10.0053015
vt -0.485713989 10.6803007
vt 0.478300005 9.97030067
vt -0.00499999989 9.97030067
vt -0.00499999989 10.6803007
vt -0.00499999989 10.6803007
vt 0.478300005 9.97030067
vt -0.485713989 10.6803007
vt -0.486699998 10.4380388
vt -0.486699998 10.4380388
vt -0.485713989 10.6803007
vt -0.486699998 10.4880381
vt 0.482012987 1.23500001
vt 0.48300001 1.20000005
vt 0.488000005 1.23500001
vt 0.488000005 1.23500001
vt 0.48300001 1.20000005
vt 0.488000005 0.00499999989
vt -0.00499999989 -10.645299
vt -0.00499999989 -10.4880381
vt -0.0399999991 -10.645299
vt -0.0399999991 -10.645299
vt -0.00499999989 -10.4880381
vt -0.0399999991 -10.4880381
vt -0.48300001 -10.0052986
vt 0.476013005 -10.6802988
vt -0.488000005 -9.97029877
vt -0.00499999989 -9.97029877
vt -0.00499999989 -10.6802988
vt -0.00499999989 -10.6802988
vt -0.488000005 -9.97029877
vt 0.476013005 -10.6802988
vt 0.476999998 -10.4380379
vt 0.476999998 -10.4380379
vt 0.476013005 -10.6802988
vt 0.476999998 -10.4880381
vt -0.451700002 10.6803007
vt -0.485713989 10.6803007
vt 0.47330001 10.4880381
vt 0.47330001 10.4880381
vt -0.485713989 10.6803007
vt 0.47330001 10.4380388
vt -1.23500001 -10.6802988
vt -1.23500001 -10.6852989
vt -0.261151999 -10.6802988
vt -0.261151999 -10.6802988
vt -1.23500001 -10.6852989
vt -0.261151999 -10.6852989
vt -1.23500001 -9.97029877
vt -1.23500001 -10.0052986
vt -0.00499999989 -9.97029877
vt -0.00499999989 -9.97029877
vt -1.23500001 -10.0052986
vt -0.00499999989 -10.0052986
vt -0.48300001 -10.645299
vt -0.477999985 -10.6802988
vt -0.48300001 -10.4880381
vt -0.48300001 -10.4880381
vt -0.477999985 -10.6802988
vt -0.48300001 -10.4380379
vt -0.00499999989 -10.4880381
vt -0.00499999989 -10.4380379
vt -1.23500001 -10.4880381
vt -1.23500001 -10.4880381
vt -0.00499999989 -10.4380379
vt -1.23500001 -10.4380379
vt -0.00499999989 -10.6802988
vt -0.00499999989 -10.645299
vt -1.23500001 -10.6802988
vt -1.23500001 -10.6802988
vt -0.00499999989 -10.645299
vt -1.23500001 -10.645299
vt 1.20000005 -10.4380379
vt 0.0399999991 -10.4380379
vt 1.20000005 -10.4880381
vt 1.20000005 -10.4880381
vt 0.0399999991 -10.4380379
vt 0.0399999991 -10.4880381
vt -0.48300001 -10.4380379
vt -0.48300001 -10.4880381
vt 0.476013005 -10.6802988
vt 0.476013005 -10.6802988
vt -0.48300001 -10.4880381
vt 0.442000002 -10.6802988
vt -0.442000002 0.220632002
vt -0.442000002 0.00499999989
vt 0.448000014 0.220632002
vt 0.448000014 0.220632002
vt -0.442000002 0.00499999989
vt 0.448000014 0.00499999989
vt -0.476999998 -10.4380379
vt -0.476999998 -10.4880381
vt -0.472000003 -10.6802988
vt -0.472000003 -10.6802988
vt -0.476999998 -10.4880381
vt -0.476999998 -10.645299
vt 0.00499999989 -10.4380379
vt 0.0399999991 -10.4380379
vt 0.00499999989 -10.0052986
vt 0.00499999989 -10.0052986
vt 0.0399999991 -10.4380379
vt 0.0399999991 -10.0052986
vt -0.0399999991 -10.4880381
vt -0.0399999991 -10.4380379
vt -1.20000005 -10.4880381
vt -1.20000005 -10.4880381
vt -0.0399999991 -10.4380379
vt -1.20000005 -10.4380379
vt 1.23500001 -10.0052986
vt 1.20000005 -10.0052986
vt 1.23500001 -10.4380379
vt 1.23500001 -10.4380379
vt 1.20000005 -10.0052986
vt 1.20000005 -10.4380379
vt 1.23500001 -10.0052986
vt 1.23500001 -9.97029877
vt 0.00499999989 -10.0052986
vt 0.00499999989 -10.0052986
vt 1.23500001 -9.97029877
vt 0.00499999989 -9.97029877
vt -0.0399999991 -10.0052986
vt -0.0399999991 -9.97029877
vt -1.20000005 -10.0052986
vt -1.20000005 -10.0052986
vt -0.0399999991 -9.97029877
vt -1.20000005 -9.97029877
vt 0.472000003 0.0399999991
vt 0.481999993 0.00499999989
vt 0.476999998 0.0399999991
vt 0.476999998 0.0399999991
vt 0.481999993 0.00499999989
vt 0.476999998 1.20000005
vt 0.481999993 1.23500001
vt -0.477999985 1.20000005
vt 0.472000003 1.20000005
vt 0.472000003 1.20000005
vt -0.477999985 1.20000005
vt 0.412 1.13999999
vt -0.47330001 10.0053015
vt -0.478300005 9.97030067
vt 0.491699994 9.97030067
vt 0.451700002 10.6803007
vt -0.438300014 10.6803007
vt 0.486699998 10.4880381
vt -0.438300014 10.6803007
vt -0.438300014 10.6853008
vt -0.472312987 10.6853008
vt 0.491699994 10.4380388
vt 0.491699994 10.4880381
vt 0.486699998 10.4380388
vt -0.478300005 10.4880381
vt -0.478300005 10.4380388
vt -0.47330001 10.4880381
vt 0.486699998 10.0053015
vt 0.491699994 9.97030067
vt 0.491699994 10.0053015
vt -0.47330001 10.6453009
vt -0.47330001 10.4880381
vt -0.00829999987 10.3253002
vt -0.47330001 10.6453009
vt -0.00829999987 10.3253002
vt -0.472312987 10.6803007
vt -0.47330001 10.4880381
vt -0.478300005 10.4380388
vt -0.47330001 10.4380388
vt -0.47330001 10.4880381
vt -0.47330001 10.4380388
vt -0.00829999987 10.3253002
vt -0.478300005 10.6453009
vt -0.47330001 10.6453009
vt -0.478300005 10.6803007
vt -0.478300005 10.6803007
vt -0.47330001 10.6453009
vt -0.472312987 10.6803007
vt 0.491699994 10.6453009
vt 0.491699994 10.6803007
vt 0.486699998 10.6453009
vt -0.47330001 10.4380388
vt -0.47330001 10.0053015
vt -0.0073950002 10.3201704
vt -0.47330001 10.4380388
vt -0.0073950002 10.3201704
vt -0.00829999987 10.3253002
vt -0.00479000015 10.3349428
vt -0.472312987 10.6853008
vt -0.472312987 10.6803007
vt 0.486699998 10.4880381
vt 0.486699998 10.4380388
vt 0.491699994 10.4880381
vt 0.0207959991 10.3201704
vt 0.486699998 10.0053015
vt 0.486699998 10.4380388
vt -0.478300005 10.0053015
vt -0.478300005 9.97030067
vt -0.47330001 10.0053015
vt 0.485713989 10.6803007
vt 0.485713989 10.6853008
vt 0.451700002 10.6803007
vt 0.485713989 10.6853008
vt 0.451700002 10.6853008
vt 0.451700002 10.6803007
vt 0.491699994 10.6803007
vt 0.485713989 10.6803007
vt 0.486699998 10.6453009
vt 0.486699998 10.6453009
vt 0.451700002 10.6803007
vt 0.486699998 10.4880381
vt 0.485713989 10.6803007
vt 0.451700002 10.6803007
vt 0.486699998 10.6453009
vt 0.491699994 9.97030067
vt 0.486699998 10.0053015
vt -0.47330001 10.0053015
vt -0.47330001 10.0053015
vt 0.486699998 10.0053015
vt 0.00930500031 10.3105288
vt -1.23500001 10.0053015
vt -1.23500001 10.3105288
vt -1.23500001 10.0053015
vt -0.47330001 10.0053015
vt 0.00930500031 10.3105288
vt 0.00409599999 10.3105288
vt -1.23500001 10.0053015
vt -1.23500001 10.3105288
vt -1.23500001 10.0053015
vt -0.47330001 10.0053015
vt 0.00409599999 10.3105288
vt -0.00079999998 10.3123102
vt -1.23500001 10.0053015
vt -1.23500001 10.3123102
vt -1.23500001 10.0053015
vt -0.47330001 10.0053015
vt -0.00079999998 10.3123102
vt -0.00479000015 10.3156586
vt -0.47330001 10.0053015
vt -0.00479000015 10.3156586
vt -0.0073950002 10.3201704
vt 0.00930500031 10.3105288
vt 0.486699998 10.0053015
vt 0.0142000001 10.3123102
vt -1.23500001 10.3123102
vt -1.23500001 10.0053015
vt -1.23500001 10.0053015
vt 0.0142000001 10.3123102
vt 0.486699998 10.0053015
vt 0.0181910004 10.3156586
vt 0.0181910004 10.3156586
vt 0.486699998 10.0053015
vt 0.0207959991 10.3201704
vt 0.0207959991 10.3201704
vt 0.486699998 10.4380388
vt 0.0217000004 10.3253002
vt -1.23500001 10.3253002
vt -1.23500001 10.4380388
vt -1.23500001 10.4380388
vt 0.0217000004 10.3253002
vt 0.486699998 10.4380388
vt 0.0207959991 10.33043
vt -1.23500001 10.33043
vt -1.23500001 10.4380388
vt -1.23500001 10.4380388
vt 0.0207959991 10.33043
vt 0.486699998 10.4380388
vt 0.0181910004 10.3349428
vt -1.23500001 10.3349428
vt -1.23500001 10.4380388
vt -1.23500001 10.4380388
vt 0.0181910004 10.3349428
vt 0.486699998 10.4380388
vt 0.0142000001 10.3382912
vt -1.23500001 10.3382912
vt -1.23500001 10.4380388
vt -1.23500001 10.4380388
vt 0.0142000001 10.3382912
vt 0.486699998 10.4380388
vt 0.00930500031 10.3400726
vt 0.00930500031 10.3400726
vt 0.486699998 10.4380388
vt -0.472312987 10.6853008
vt 0.00930500031 10.3400726
vt -0.472312987 10.6853008
vt 0.00409599999 10.3400726
vt -1.23500001 10.3400726
vt -1.23500001 10.6853008
vt -1.23500001 10.6853008
vt 0.00409599999 10.3400726
vt -0.472312987 10.6853008
vt -0.00079999998 10.3382912
vt -0.00079999998 10.3382912
vt -0.472312987 10.6853008
vt -0.00479000015 10.3349428
vt -0.472312987 10.6853008
vt 0.486699998 10.4380388
vt -0.438300014 10.6803007
vt -0.438300014 10.6803007
vt 0.486699998 10.4380388
vt 0.486699998 10.4880381
vt -0.00829999987 10.3253002
vt -0.0073950002 10.33043
vt -0.472312987 10.6803007
vt -0.472312987 10.6803007
vt -0.0073950002 10.33043
vt -0.00479000015 10.3349428
vt 0.421700001 0.0599999987
vt 0.491699994 0.00499999989
vt 0.481700003 0.0399999991
vt -0.408300012 0.0599999987
vt 0.491699994 0.00499999989
vt 0.421700001 0.0599999987
vt -0.468300015 0.0399999991
vt 0.491699994 0.00499999989
vt -0.408300012 0.0599999987
vt 0.421700001 1.13999999
vt 0.421700001 0.0599999987
vt 0.481700003 0.0399999991
vt -0.408300012 1.13999999
vt -0.468300015 0.0399999991
vt -0.408300012 0.0599999987
vt -0.468300015 1.20000005
vt -0.408300012 1.13999999
vt 0.421700001 1.13999999
vt -0.468300015 1.20000005
vt -0.468300015 0.0399999991
vt -0.408300012 1.13999999
vt 0.481700003 1.20000005
vt 0.421700001 1.13999999
vt 0.481700003 0.0399999991
vt 0.486699998 1.20000005
vt 0.491699994 1.23500001
vt 0.481700003 1.20000005
vt 0.486699998 1.20000005
vt 0.491699994 0.00499999989
vt 0.491699994 1.23500001
vt -0.478300005 0.00499999989
vt 0.491699994 0.00499999989
vt -0.468300015 0.0399999991
vt -0.47330001 0.0399999991
vt -0.478300005 0.00499999989
vt -0.468300015 0.0399999991
vt -0.478300005 1.23500001
vt -0.468300015 1.20000005
vt 0.491699994 1.23500001
vt -0.478300005 1.23500001
vt -0.478300005 0.00499999989
vt -0.47330001 0.0399999991
vt 0.421700001 1.13999999
vt 0.481700003 1.20000005
vt -0.468300015 1.20000005
vt -0.468300015 1.20000005
vt 0.481700003 1.20000005
vt 0.491699994 1.23500001
vt -0.468300015 1.20000005
vt -0.478300005 1.23500001
vt -0.47330001 1.20000005
vt -0.47330001 1.20000005
vt -0.478300005 1.23500001
vt -0.47330001 0.0399999991
vt 0.481700003 0.0399999991
vt 0.491699994 0.00499999989
vt 0.486699998 0.0399999991
vt 0.486699998 0.0399999991
vt 0.491699994 0.00499999989
vt 0.486699998 1.20000005
vt -0.486699998 0.0399999991
vt -0.485713989 0.00499999989
vt -0.485713989 0.0399999991
vt -0.491699994 1.23500001
vt -0.486699998 0.0399999991
vt -0.486699998 1.20000005
vt -0.491699994 1.23500001
vt -0.486699998 1.20000005
vt -0.485713989 1.23500001
vt -0.486699998 1.20000005
vt -0.485713989 1.20000005
vt -0.485713989 1.23500001
vt -0.485713989 0.00499999989
vt -0.486699998 0.0399999991
vt -0.491699994 0.00499999989
vt -0.491699994 0.00499999989
vt -0.486699998 0.0399999991
vt -0.491699994 1.23500001
vt -0.0399999991 10.0053015
vt -0.00499999989 10.0053015
vt -0.0399999991 10.4380388
vt -0.0399999991 10.4380388
vt -0.00499999989 10.0053015
vt -0.00499999989 10.4380388
vt 0.486699998 10.6803007
vt 0.485713989 10.6803007
vt 0.486699998 10.6453009
vt 0.486699998 10.6453009
vt 0.485713989 10.6803007
vt 0.481700003 10.6803007
vt 0.486699998 10.0053015
vt 0.481700003 9.97030067
vt 0.486699998 9.97030067
vt 0.481700003 10.6803007
vt 0.481700003 9.97030067
vt 0.486699998 10.4380388
vt 0.486699998 10.4380388
vt 0.481700003 9.97030067
vt 0.486699998 10.0053015
vt 0.486699998 10.6453009
vt 0.481700003 10.6803007
vt 0.486699998 10.4880381
vt 0.486699998 10.4880381
vt 0.481700003 10.6803007
vt 0.486699998 10.4380388
vt -1.20000005 10.4380388
vt -1.23500001 10.4380388
vt -1.20000005 10.0053015
vt -1.20000005 10.0053015
vt -1.23500001 10.4380388
vt -1.23500001 10.0053015
vt -0.486699998 10.6803007
vt -0.486699998 10.6453009
vt -0.485713989 10.6803007
vt -0.486699998 10.6453009
vt -0.486699998 10.4880381
vt -0.485713989 10.6803007
vt -0.486699998 10.0053015
vt -0.486699998 9.97030067
vt -0.481700003 9.97030067
vt -0.485713989 10.6803007
vt -0.486699998 10.4880381
vt -0.481700003 10.6803007
vt -0.481700003 10.6803007
vt -0.486699998 10.4880381
vt -0.486699998 10.4380388
vt -0.481700003 10.6803007
vt -0.486699998 10.4380388
vt -0.481700003 9.97030067
vt -0.486699998 10.4380388
vt -0.486699998 10.0053015
vt -0.481700003 9.97030067
vt 0.00499999989 10.4380388
vt 0.00499999989 10.0053015
vt 0.0399999991 10.4380388
vt 0.0399999991 10.4380388
vt 0.00499999989 10.0053015
vt 0.0399999991 10.0053015
vt -0.472312987 10.6803007
vt -0.47330001 10.6453009
vt -0.468300015 10.6803007
vt -0.47330001 10.6803007
vt -0.47330001 10.6453009
vt -0.472312987 10.6803007
vt -0.468300015 10.6803007
vt -0.47330001 10.4380388
vt -0.468300015 9.97030067
vt -0.47330001 10.0053015
vt -0.47330001 9.97030067
vt -0.468300015 9.97030067
vt -0.47330001 10.4380388
vt -0.47330001 10.0053015
vt -0.468300015 9.97030067
vt -0.47330001 10.6453009
vt -0.47330001 10.4880381
vt -0.468300015 10.6803007
vt -0.468300015 10.6803007
vt -0.47330001 10.4880381
vt -0.47330001 10.4380388
vt 0.468300015 10.6803007
vt 0.468300015 9.97030067
vt 0.47330001 10.4380388
vt 0.47330001 10.6803007
vt 0.472312987 10.6803007
vt 0.47330001 10.6453009
vt 0.47330001 10.6453009
vt 0.472312987 10.6803007
vt 0.468300015 10.6803007
vt 0.47330001 10.0053015
vt 0.468300015 9.97030067
vt 0.47330001 9.97030067
vt 0.47330001 10.4380388
vt 0.468300015 9.97030067
vt 0.47330001 10.0053015
vt 0.47330001 10.4380388
vt 0.47330001 10.4880381
vt 0.468300015 10.6803007
vt 0.468300015 10.6803007
vt 0.47330001 10.4880381
vt 0.47330001 10.6453009
vt 1.20000005 10.4380388
vt 1.20000005 10.0053015
vt 1.23500001 10.4380388
vt 1.23500001 10.4380388
vt 1.20000005 10.0053015
vt 1.23500001 10.0053015
vt -1.20000005 9.97030067
vt -0.0399999991 9.97030067
vt -1.20000005 10.0053015
vt -1.20000005 10.0053015
vt -0.0399999991 9.97030067
vt -0.0399999991 10.0053015
vt 0.478300005 1.23500001
vt 0.47330001 1.23500001
vt 0.47330001 1.20000005
vt 0.478300005 0.00499999989
vt 0.47330001 1.20000005
vt 0.47330001 0.0399999991
vt 0.478300005 0.00499999989
vt 0.478300005 1.23500001
vt 0.47330001 1.20000005
vt 0.47330001 0.00499999989
vt 0.478300005 0.00499999989
vt 0.47330001 0.0399999991
vt 1.23500001 9.97030067
vt 1.23500001 10.0053015
vt 0.00499999989 9.97030067
vt 0.00499999989 9.97030067
vt 1.23500001 10.0053015
vt 0.00499999989 10.0053015
vt -0.0399999991 10.4880381
vt -1.20000005 10.4880381
vt -0.0399999991 10.4380388
vt -0.0399999991 10.4380388
vt -1.20000005 10.4880381
vt -1.20000005 10.4380388
vt 0.47330001 0.0399999991
vt 0.47330001 0.00499999989
vt 0.478300005 0.00499999989
vt 0.47330001 0.0399999991
vt 0.478300005 0.00499999989
vt 0.47330001 1.20000005
vt 0.478300005 0.00499999989
vt 0.478300005 1.23500001
vt 0.47330001 1.20000005
vt 0.478300005 1.23500001
vt 0.47330001 1.23500001
vt 0.47330001 1.20000005
vt 1.23500001 10.4380388
vt 1.23500001 10.4880381
vt 0.00499999989 10.4380388
vt 0.00499999989 10.4380388
vt 1.23500001 10.4880381
vt 0.00499999989 10.4880381
vt -0.478300005 1.23500001
vt -0.47330001 0.0399999991
vt -0.47330001 1.20000005
vt -0.478300005 0.00499999989
vt -0.47330001 0.0399999991
vt -0.478300005 1.23500001
vt -0.47330001 0.00499999989
vt -0.47330001 0.0399999991
vt -0.478300005 0.00499999989
vt -0.478300005 1.23500001
vt -0.47330001 1.20000005
vt -0.47330001 1.23500001
vt 1.23500001 10.4880381
vt 1.23500001 10.6453009
vt 1.20000005 10.4880381
vt 1.20000005 10.4880381
vt 1.23500001 10.6453009
vt 1.20000005 10.6453009
vt 0.0399999991 10.4880381
vt 0.0399999991 10.6453009
vt 0.00499999989 10.4880381
vt 0.00499999989 10.4880381
vt 0.0399999991 10.6453009
vt 0.00499999989 10.6453009
vt -0.0399999991 10.6803007
vt -1.20000005 10.6803007
vt -0.0399999991 10.6453009
vt -0.0399999991 10.6453009
vt -1.20000005 10.6803007
vt -1.20000005 10.6453009
vt 1.23500001 10.6453009
vt 1.23500001 10.6803007
vt 0.00499999989 10.6453009
vt 0.00499999989 10.6453009
vt 1.23500001 10.6803007
vt 0.00499999989 10.6803007
vt -0.478300005 1.23500001
vt -0.47330001 1.20000005
vt -0.47330001 1.23500001
vt -0.478300005 1.23500001
vt -0.47330001 0.0399999991
vt -0.47330001 1.20000005
vt -0.478300005 0.00499999989
vt -0.47330001 0.0399999991
vt -0.478300005 1.23500001
vt -0.47330001 0.00499999989
vt -0.47330001 0.0399999991
vt -0.478300005 0.00499999989
vt 0.47330001 0.0399999991
vt 0.478300005 0.00499999989
vt 0.47330001 1.20000005
vt 0.472312987 0.00499999989
vt 0.47330001 0.0399999991
vt 0.472312987 0.0399999991
vt 0.472312987 0.00499999989
vt 0.478300005 0.00499999989
vt 0.47330001 0.0399999991
vt 0.47330001 1.20000005
vt 0.472312987 1.23500001
vt 0.472312987 1.20000005
vt 0.478300005 0.00499999989
vt 0.478300005 1.23500001
vt 0.47330001 1.20000005
vt 0.47330001 1.20000005
vt 0.478300005 1.23500001
vt 0.472312987 1.23500001
vt -1.23500001 10.6853008
vt -1.23500001 10.6803007
vt -0.261151999 10.6853008
vt -0.261151999 10.6853008
vt -1.23500001 10.6803007
vt -0.261151999 10.6803007
vt -0.485713989 1.23500001
vt -0.485713989 0.00499999989
vt -0.451700002 0.261151999
vt -0.485713989 1.23500001
vt -0.451700002 0.261151999
vt -0.451700002 1.23500001
vt -0.451700002 0.261151999
vt -0.485713989 0.00499999989
vt -0.451700002 0.220632002
vt -0.451700002 0.220632002
vt -0.485713989 0.00499999989
vt -0.451700002 0.00499999989
vt 0.438300014 0.220632002
vt 0.438300014 0.00499999989
vt 0.472312987 0.00499999989
vt 0.438300014 0.261151999
vt 0.472312987 0.00499999989
vt 0.472312987 1.23500001
vt 0.438300014 0.261151999
vt 0.438300014 0.220632002
vt 0.472312987 0.00499999989
vt 0.438300014 0.261151999
vt -0.451700002 0.220632002
vt 0.438300014 0.220632002
vt 0.438300014 1.23500001
vt 0.438300014 0.261151999
vt 0.472312987 1.23500001
vt -0.451700002 0.261151999
vt -0.451700002 0.220632002
vt 0.438300014 0.261151999
vt 1.20000005 10.6803007
vt 1.23500001 10.6853008
vt 0.0399999991 10.6803007
vt 1.20000005 10.6803007
vt 1.23500001 10.6803007
vt 1.23500001 10.6853008
vt 0.00499999989 10.6853008
vt 0.0399999991 10.6803007
vt 1.23500001 10.6853008
vt 0.00499999989 10.6853008
vt 0.00499999989 10.6803007
vt 0.0399999991 10.6803007
vt -0.472312987 1.20000005
vt -0.472312987 0.0399999991
vt -0.468300015 1.20000005
vt -0.468300015 1.20000005
vt -0.472312987 0.0399999991
vt -0.468300015 0.0399999991
vt -0.306699991 0.564999998
vt 0.438300014 0.261151999
vt 0.313300014 0.564999998
vt -0.306699991 0.564999998
vt -0.306699991 1.15499997
vt -0.451700002 1.23500001
vt -0.306699991 1.15499997
vt 0.438300014 1.23500001
vt -0.451700002 1.23500001
vt 0.313300014 0.564999998
vt 0.438300014 0.261151999
vt 0.438300014 1.23500001
vt 0.438300014 0.261151999
vt -0.306699991 0.564999998
vt -0.451700002 0.261151999
vt -0.451700002 0.261151999
vt -0.306699991 0.564999998
vt -0.451700002 1.23500001
vt 0.313300014 0.564999998
vt 0.438300014 1.23500001
vt 0.313300014 1.15499997
vt 0.313300014 1.15499997
vt 0.438300014 1.23500001
vt -0.306699991 1.15499997
vt -0.0399999991 10.6803007
vt -0.00499999989 10.6803007
vt -0.00499999989 10.6853008
vt -0.0399999991 10.6803007
vt -0.00499999989 10.6853008
vt -1.20000005 10.6803007
vt -1.23500001 10.6803007
vt -1.20000005 10.6803007
vt -1.23500001 10.6853008
vt -1.20000005 10.6803007
vt -0.00499999989 10.6853008
vt -1.23500001 10.6853008
vt 0.261151999 10.6853008
vt 0.261151999 10.6803007
vt 1.23500001 10.6853008
vt 1.23500001 10.6853008
vt 0.261151999 10.6803007
vt 1.23500001 10.6803007
vt 0.485713989 0.0399999991
vt 0.485713989 1.20000005
vt 0.481700003 0.0399999991
vt 0.481700003 0.0399999991
vt 0.485713989 1.20000005
vt 0.481700003 1.20000005
vt -0.00499999989 9.97030067
vt -0.00499999989 10.0053015
vt -1.23500001 9.97030067
vt -1.23500001 9.97030067
vt -0.00499999989 10.0053015
vt -1.23500001 10.0053015
vt -0.491699994 1.23500001
vt -0.486699998 0.0399999991
vt -0.486699998 1.20000005
vt -0.486699998 1.23500001
vt -0.491699994 1.23500001
vt -0.486699998 1.20000005
vt -0.486699998 0.00499999989
vt -0.486699998 0.0399999991
vt -0.491699994 0.00499999989
vt -0.491699994 0.00499999989
vt -0.486699998 0.0399999991
vt -0.491699994 1.23500001
vt 0.0399999991 10.0053015
vt 0.0399999991 9.97030067
vt 1.20000005 10.0053015
vt 1.20000005 10.0053015
vt 0.0399999991 9.97030067
vt 1.20000005 9.97030067
vt -1.23500001 10.4880381
vt -1.20000005 10.4880381
vt -1.23500001 10.6453009
vt -1.23500001 10.6453009
vt -1.20000005 10.4880381
vt -1.20000005 10.6453009
vt -0.00499999989 10.4880381
vt -0.00499999989 10.6453009
vt -0.0399999991 10.4880381
vt -0.0399999991 10.4880381
vt -0.00499999989 10.6453009
vt -0.0399999991 10.6453009
vt -0.00499999989 10.4380388
vt -0.00499999989 10.4880381
vt -1.23500001 10.4380388
vt -1.23500001 10.4380388
vt -0.00499999989 10.4880381
vt -1.23500001 10.4880381
vt -0.486699998 1.23500001
vt -0.491699994 1.23500001
vt -0.486699998 1.20000005
vt -0.491699994 0.00499999989
vt -0.486699998 0.0399999991
vt -0.491699994 1.23500001
vt -0.486699998 0.00499999989
vt -0.486699998 0.0399999991
vt -0.491699994 0.00499999989
vt -0.491699994 1.23500001
vt -0.486699998 0.0399999991
vt -0.486699998 1.20000005
vt 0.0399999991 10.4880381
vt 0.0399999991 10.4380388
vt 1.20000005 10.4880381
vt 1.20000005 10.4880381
vt 0.0399999991 10.4380388
vt 1.20000005 10.4380388
vt 0.491699994 1.23500001
vt 0.486699998 1.23500001
vt 0.486699998 1.20000005
vt 0.491699994 0.00499999989
vt 0.486699998 1.20000005
vt 0.486699998 0.0399999991
vt 0.491699994 0.00499999989
vt 0.491699994 1.23500001
vt 0.486699998 1.20000005
vt 0.486699998 0.00499999989
vt 0.491699994 0.00499999989
vt 0.486699998 0.0399999991
vt -1.23500001 10.6803007
vt -1.23500001 10.6453009
vt -0.00499999989 10.6803007
vt -0.00499999989 10.6803007
vt -1.23500001 10.6453009
vt -0.00499999989 10.6453009
vt 1.20000005 10.6453009
vt 1.20000005 10.6803007
vt 0.0399999991 10.6453009
vt 0.0399999991 10.6453009
vt 1.20000005 10.6803007
vt 0.0399999991 10.6803007
vt 0.491699994 0.00499999989
vt 0.486699998 1.20000005
vt 0.486699998 0.0399999991
vt 0.491699994 1.23500001
vt 0.486699998 1.23500001
vt 0.486699998 1.20000005
vt 0.486699998 0.00499999989
vt 0.491699994 0.00499999989
vt 0.486699998 0.0399999991
vt 0.491699994 0.00499999989
vt 0.491699994 1.23500001
vt 0.486699998 1.20000005
vt 0.220632002 10.6803007
vt 0.220632002 10.6853008
vt 0.00499999989 10.6803007
vt 0.00499999989 10.6803007
vt 0.220632002 10.6853008
vt 0.00499999989 10.6853008
vt -0.220632002 10.6853008
vt -0.220632002 10.6803007
vt -0.00499999989 10.6853008
vt -0.00499999989 10.6853008
vt -0.220632002 10.6803007
vt -0.00499999989 10.6803007
vt -0.451700002 0.220632002
vt -0.451700002 0.00499999989
vt 0.438300014 0.220632002
vt 0.438300014 0.220632002
vt -0.451700002 0.00499999989
vt 0.438300014 0.00499999989
f 1/1 2/2 3/3
f 3/4 2/5 4/6
f 3/7 5/8 1/9
f 6/10 7/11 8/12
f 9/13 10/14 11/15
f 12/16 10/17 9/18
f 13/19 11/20 14/21
f 15/22 12/23 9/24
f 16/25 15/26 13/27
f 16/28 12/29 15/30
f 17/31 13/32 14/33
f 18/34 19/35 17/36
f 18/37 10/38 19/39
f 20/40 21/41 22/42
f 23/43 24/44 25/45
f 26/46 18/47 17/48
f 27/49 14/50 28/51
f 29/52 27/53 26/54
f 30/55 27/56 29/57
f 31/58 23/59 32/60
f 33/61 30/62 10/63
f 33/64 27/65 30/66
f 34/67 14/68 27/69
f 35/70 29/71 26/72
f 35/73 19/74 29/75
f 36/76 26/77 17/78
f 37/79 38/80 39/81
f 40/82 41/83 42/84
f 43/85 44/86 36/87
f 45/88 46/89 47/90
f 48/91 6/92 8/93
f 49/94 50/95 51/96
f 52/97 53/98 54/99
f 55/100 56/101 57/102
f 58/103 59/104 8/105
f 54/106 38/107 60/108
f 61/109 62/110 33/111
f 63/112 64/113 65/114
f 21/115 51/116 12/117
f 66/118 67/119 68/120
f 69/121 70/122 71/123
f 72/124 61/125 49/126
f 73/127 65/128 64/129
f 74/130 75/131 76/132
f 77/133 78/134 79/135
f 80/136 14/137 34/138
f 60/139 38/140 81/141
f 82/142 83/143 84/144
f 51/145 85/146 12/147
f 86/148 52/149 47/150
f 24/151 87/152 25/153
f 88/154 74/155 89/156
f 70/157 58/158 90/159
f 55/160 41/161 56/162
f 90/163 91/164 92/165
f 92/166 91/167 93/168
f 94/169 42/170 36/171
f 39/172 95/173 96/174
f 97/175 45/176 47/177
f 62/178 55/179 57/180
f 54/181 53/182 98/183
f 61/184 10/185 12/186
f 99/187 20/188 22/189
f 100/190 1/191 88/192
f 50/193 16/194 101/195
f 102/196 103/197 32/198
f 81/199 21/200 12/201
f 25/202 84/203 104/204
f 76/205 105/206 106/207
f 107/208 78/209 77/210
f 98/211 64/212 63/213
f 47/214 60/215 65/216
f 86/217 99/218 108/219
f 67/220 109/221 110/222
f 111/223 48/224 109/225
f 97/226 47/227 65/228
f 49/229 82/230 50/231
f 11/232 10/233 14/234
f 85/235 61/236 12/237
f 72/238 49/239 51/240
f 70/241 92/242 71/243
f 112/244 113/245 114/246
f 7/247 42/248 91/249
f 97/250 68/251 45/252
f 59/253 67/254 91/255
f 92/256 115/257 71/258
f 116/259 35/260 44/261
f 57/262 36/263 34/264
f 93/265 66/266 117/267
f 96/268 95/269 64/270
f 118/271 119/272 120/273
f 66/274 68/275 97/276
f 95/277 23/278 121/279
f 31/280 24/281 23/282
f 122/283 97/284 65/285
f 123/286 40/287 42/288
f 94/289 36/290 17/291
f 39/292 124/293 95/294
f 22/295 21/296 24/297
f 53/298 108/299 37/300
f 91/301 67/302 93/303
f 125/304 126/305 127/306
f 74/307 76/308 106/309
f 75/310 5/311 128/312
f 83/313 61/314 85/315
f 20/316 109/317 72/318
f 126/319 100/320 127/321
f 5/322 129/323 128/324
f 103/325 31/326 32/327
f 103/328 99/329 22/330
f 61/331 33/332 10/333
f 102/334 99/335 103/336
f 56/337 41/338 40/339
f 130/340 16/341 87/342
f 84/343 83/344 19/345
f 91/346 42/347 94/348
f 25/349 104/350 121/351
f 82/352 84/353 50/354
f 93/355 117/356 115/357
f 131/358 132/359 133/360
f 63/361 65/362 60/363
f 132/364 1/365 133/366
f 124/367 63/368 130/369
f 108/370 38/371 37/372
f 98/373 63/374 124/375
f 52/376 54/377 60/378
f 93/379 67/380 66/381
f 52/382 108/383 53/384
f 47/385 52/386 60/387
f 86/388 108/389 52/390
f 87/391 16/392 50/393
f 110/394 99/395 86/396
f 24/397 21/398 87/399
f 43/400 40/401 44/402
f 134/403 67/404 110/405
f 95/406 121/407 64/408
f 68/409 67/410 134/411
f 133/412 126/413 119/414
f 48/415 111/416 6/417
f 23/418 25/419 121/420
f 48/421 55/422 109/423
f 135/424 114/425 115/426
f 6/427 69/428 7/429
f 119/430 126/431 78/432
f 46/433 86/434 47/435
f 69/436 71/437 7/438
f 115/439 114/440 123/441
f 70/442 90/443 92/444
f 119/445 78/446 107/447
f 58/448 109/449 59/450
f 136/451 135/452 115/453
f 90/454 7/455 91/456
f 119/457 107/458 120/459
f 8/460 59/461 80/462
f 123/463 44/464 40/465
f 59/466 109/467 67/468
f 57/469 43/470 36/471
f 92/472 93/473 115/474
f 71/475 115/476 123/477
f 136/478 113/479 112/480
f 62/481 57/482 34/483
f 83/484 16/485 19/486
f 39/487 38/488 124/489
f 114/490 122/491 65/492
f 70/493 69/494 111/495
f 111/496 69/497 6/498
f 57/499 56/500 43/501
f 43/502 56/503 40/504
f 59/505 91/506 80/507
f 80/508 91/509 94/510
f 7/511 71/512 42/513
f 42/514 71/515 123/516
f 122/517 114/518 97/519
f 97/520 114/521 113/522
f 58/523 8/524 90/525
f 90/526 8/527 7/528
f 86/529 46/530 137/531
f 137/532 46/533 45/534
f 70/535 111/536 58/537
f 58/538 111/539 109/540
f 138/541 68/542 110/543
f 110/544 68/545 134/546
f 8/547 41/548 48/549
f 48/550 41/551 55/552
f 113/553 136/554 139/555
f 139/556 136/557 115/558
f 51/559 21/560 72/561
f 72/562 21/563 20/564
f 84/565 25/566 50/567
f 50/568 25/569 87/570
f 124/571 32/572 95/573
f 95/574 32/575 23/576
f 116/577 44/578 140/579
f 140/580 44/581 44/582
f 140/583 44/584 141/585
f 141/586 44/587 44/588
f 141/589 44/590 142/591
f 142/592 44/593 44/594
f 142/595 44/596 143/597
f 143/598 44/599 44/600
f 143/601 44/602 144/603
f 144/604 44/605 65/606
f 144/607 65/608 145/609
f 145/610 65/611 65/612
f 145/613 65/614 146/615
f 146/616 65/617 73/618
f 65/619 44/620 114/621
f 114/622 44/623 123/624
f 63/625 60/626 130/627
f 130/628 60/629 81/630
f 21/631 81/632 102/633
f 102/634 81/635 38/636
f 19/637 35/638 84/639
f 84/640 35/641 147/642
f 84/643 147/644 84/645
f 84/646 147/647 148/648
f 84/649 148/650 84/651
f 84/652 148/653 149/654
f 84/655 149/656 84/657
f 84/658 149/659 150/660
f 84/661 150/662 104/663
f 147/664 35/665 151/666
f 151/667 35/668 35/669
f 151/670 35/671 152/672
f 152/673 35/674 116/675
f 73/676 64/677 153/678
f 153/679 64/680 121/681
f 101/682 85/683 50/684
f 50/685 85/686 51/687
f 16/688 83/689 101/690
f 101/691 83/692 85/693
f 54/694 98/695 38/696
f 38/697 98/698 124/699
f 135/700 154/701 114/702
f 114/703 154/704 112/705
f 88/706 1/707 74/708
f 74/709 1/710 1/711
f 74/712 1/713 75/714
f 75/715 1/716 5/717
f 64/718 98/719 96/720
f 96/721 98/722 53/723
f 108/724 99/725 38/726
f 38/727 99/728 102/729
f 72/730 109/731 61/732
f 61/733 109/734 109/735
f 61/736 109/737 62/738
f 62/739 109/740 55/741
f 133/742 1/743 126/744
f 126/745 1/746 100/747
f 115/748 117/749 139/750
f 139/751 117/752 66/753
f 83/754 82/755 61/756
f 61/757 82/758 49/759
f 124/760 130/761 32/762
f 32/763 130/764 87/765
f 103/766 22/767 31/768
f 31/769 22/770 24/771
f 53/772 37/773 96/774
f 96/775 37/776 39/777
f 87/778 21/779 32/780
f 32/781 21/782 102/783
f 20/784 99/785 109/786
f 109/787 99/788 110/789
f 138/790 110/791 137/792
f 137/793 110/794 86/795
f 34/796 41/797 80/798
f 80/799 41/800 8/801
f 62/802 34/803 33/804
f 33/805 34/806 27/807
f 41/808 34/809 42/810
f 42/811 34/812 36/813
f 35/814 26/815 44/816
f 44/817 26/818 36/819
f 29/820 19/821 30/822
f 30/823 19/824 10/825
f 27/826 28/827 26/828
f 26/829 28/830 18/831
f 14/832 10/833 28/834
f 28/835 10/836 18/837
f 19/838 16/839 17/840
f 17/841 16/842 13/843
f 155/844 156/845 157/846
f 158/847 159/848 160/849
f 159/850 161/851 162/852
f 163/853 164/854 165/855
f 166/856 167/857 168/858
f 169/859 157/860 170/861
f 171/862 168/863 172/864
f 171/865 172/866 173/867
f 168/868 167/869 174/870
f 168/871 174/872 172/873
f 175/874 171/875 176/876
f 176/877 171/878 173/879
f 177/880 178/881 179/882
f 174/883 155/884 180/885
f 174/886 180/887 172/888
f 181/889 162/890 173/891
f 160/892 165/893 164/894
f 182/895 169/896 165/897
f 183/898 156/899 155/900
f 184/901 185/902 158/903
f 185/904 186/905 158/906
f 178/907 184/908 179/909
f 179/910 158/911 160/912
f 184/913 158/914 179/915
f 157/916 169/917 155/918
f 155/919 169/920 187/921
f 155/922 187/923 155/924
f 155/925 187/926 188/927
f 155/928 188/929 155/930
f 155/931 188/932 189/933
f 155/934 189/935 155/936
f 155/937 189/938 190/939
f 155/940 190/941 180/942
f 187/943 169/944 191/945
f 191/946 169/947 169/948
f 191/949 169/950 192/951
f 192/952 169/953 182/954
f 182/955 165/956 193/957
f 193/958 165/959 165/960
f 193/961 165/962 194/963
f 194/964 165/965 165/966
f 194/967 165/968 195/969
f 195/970 165/971 165/972
f 195/973 165/974 196/975
f 196/976 165/977 165/978
f 196/979 165/980 197/981
f 197/982 165/983 162/984
f 197/985 162/986 198/987
f 198/988 162/989 162/990
f 198/991 162/992 199/993
f 199/994 162/995 181/996
f 162/997 165/998 159/999
f 159/1000 165/1001 160/1002
f 172/1003 200/1004 173/1005
f 173/1006 200/1007 181/1008
f 201/1009 106/1010 202/1011
f 203/1012 106/1013 201/1014
f 204/1015 106/1016 203/1017
f 205/1018 201/1019 202/1020
f 206/1021 204/1022 203/1023
f 207/1024 206/1025 205/1026
f 207/1027 204/1028 206/1029
f 208/1030 205/1031 202/1032
f 209/1033 157/1034 208/1035
f 209/1036 106/1037 157/1038
f 74/1039 106/1040 204/1041
f 210/1042 74/1043 204/1044
f 156/1045 207/1046 157/1047
f 156/1048 74/1049 210/1050
f 205/1051 208/1052 207/1053
f 207/1054 208/1055 157/1056
f 207/1057 156/1058 211/1059
f 211/1060 156/1061 210/1062
f 202/1063 106/1064 212/1065
f 212/1066 106/1067 209/1068
f 213/1069 1/1070 214/1071
f 178/1072 213/1073 215/1074
f 178/1075 215/1076 184/1077
f 215/1078 216/1079 184/1080
f 1/1081 213/1082 2/1083
f 2/1084 213/1085 178/1086
f 217/1087 76/1088 218/1089
f 218/1090 76/1091 75/1092
f 213/1093 214/1094 219/1095
f 219/1096 214/1097 220/1098
f 217/1099 202/1100 212/1101
f 220/1102 202/1103 218/1104
f 218/1105 202/1106 217/1107
f 219/1108 220/1109 221/1110
f 221/1111 220/1112 218/1113
f 222/1114 165/1115 223/1116
f 223/1117 165/1118 169/1119
f 215/1120 224/1121 216/1122
f 224/1123 225/1124 216/1125
f 223/1126 209/1127 208/1128
f 216/1129 225/1130 226/1131
f 226/1132 225/1133 222/1134
f 226/1135 222/1136 208/1137
f 222/1138 223/1139 208/1140
f 100/1141 88/1142 227/1143
f 227/1144 88/1145 228/1146
f 229/1147 230/1148 231/1149
f 232/1150 230/1151 229/1152
f 231/1153 227/1154 204/1155
f 228/1156 210/1157 204/1158
f 227/1159 228/1160 204/1161
f 230/1162 233/1163 231/1164
f 231/1165 233/1166 227/1167
f 234/1168 207/1169 235/1170
f 236/1171 237/1172 238/1173
f 238/1174 237/1175 234/1176
f 239/1177 207/1178 211/1179
f 235/1180 207/1181 239/1182
f 235/1183 240/1184 234/1185
f 234/1186 240/1187 238/1188
f 235/1189 239/1190 174/1191
f 174/1192 239/1193 155/1194
f 211/1195 210/1196 239/1197
f 239/1198 210/1199 228/1200
f 183/1201 155/1202 239/1203
f 89/1204 239/1205 228/1206
f 89/1207 183/1208 239/1209
f 88/1210 89/1211 228/1212
f 156/1213 183/1214 74/1215
f 74/1216 183/1217 89/1218
f 233/1219 240/1220 227/1221
f 227/1222 240/1223 235/1224
f 233/1225 126/1226 125/1227
f 233/1228 125/1229 240/1230
f 125/1231 166/1232 240/1233
f 166/1234 168/1235 240/1236
f 167/1237 166/1238 127/1239
f 127/1240 166/1241 125/1242
f 167/1243 227/1244 235/1245
f 127/1246 227/1247 167/1248
f 100/1249 227/1250 127/1251
f 167/1252 235/1253 174/1254
f 168/1255 171/1256 240/1257
f 240/1258 171/1259 238/1260
f 233/1261 230/1262 126/1263
f 126/1264 230/1265 78/1266
f 232/1267 236/1268 230/1269
f 230/1270 236/1271 238/1272
f 175/1273 176/1274 79/1275
f 79/1276 176/1277 77/1278
f 175/1279 238/1280 171/1281
f 175/1282 230/1283 238/1284
f 79/1285 230/1286 175/1287
f 78/1288 230/1289 79/1290
f 232/1291 77/1292 236/1293
f 107/1294 232/1295 229/1296
f 107/1297 77/1298 232/1299
f 236/1300 173/1301 237/1302
f 77/1303 176/1304 236/1305
f 236/1306 176/1307 173/1308
f 161/1309 159/1310 241/1311
f 241/1312 159/1313 242/1314
f 185/1315 132/1316 243/1317
f 185/1318 243/1319 186/1320
f 243/1321 132/1322 244/1323
f 244/1324 132/1325 131/1326
f 245/1327 118/1328 120/1329
f 241/1330 120/1331 162/1332
f 241/1333 245/1334 120/1335
f 241/1336 244/1337 245/1338
f 161/1339 241/1340 162/1341
f 243/1342 244/1343 241/1344
f 237/1345 162/1346 229/1347
f 237/1348 173/1349 162/1350
f 120/1351 229/1352 162/1353
f 120/1354 107/1355 229/1356
f 237/1357 229/1358 234/1359
f 234/1360 229/1361 231/1362
f 246/1363 242/1364 247/1365
f 246/1366 248/1367 158/1368
f 248/1369 159/1370 158/1371
f 247/1372 242/1373 159/1374
f 242/1375 246/1376 249/1377
f 249/1378 246/1379 158/1380
f 247/1381 159/1382 250/1383
f 250/1384 159/1385 248/1386
f 214/1387 1/1388 132/1389
f 214/1390 132/1391 216/1392
f 184/1393 216/1394 185/1395
f 216/1396 132/1397 185/1398
f 243/1399 249/1400 186/1401
f 186/1402 249/1403 158/1404
f 214/1405 216/1406 220/1407
f 220/1408 216/1409 226/1410
f 106/1411 105/1412 157/1413
f 157/1414 105/1415 170/1416
f 170/1417 217/1418 223/1419
f 169/1420 170/1421 223/1422
f 76/1423 217/1424 105/1425
f 105/1426 217/1427 170/1428
f 217/1429 212/1430 223/1431
f 223/1432 212/1433 209/1434
f 160/1435 225/1436 179/1437
f 179/1438 225/1439 224/1440
f 5/1441 3/1442 221/1443
f 221/1444 3/1445 219/1446
f 128/1447 129/1448 163/1449
f 163/1450 129/1451 164/1452
f 160/1453 164/1454 225/1455
f 129/1456 221/1457 164/1458
f 5/1459 221/1460 129/1461
f 164/1462 221/1463 225/1464
f 221/1465 218/1466 225/1467
f 225/1468 218/1469 222/1470
f 163/1471 165/1472 222/1473
f 128/1474 222/1475 218/1476
f 128/1477 163/1478 222/1479
f 75/1480 128/1481 218/1482
f 178/1483 177/1484 2/1485
f 2/1486 177/1487 4/1488
f 224/1489 215/1490 219/1491
f 219/1492 215/1493 213/1494
f 4/1495 224/1496 219/1497
f 177/1498 179/1499 224/1500
f 3/1501 4/1502 219/1503
f 4/1504 177/1505 224/1506
f 251/1507 244/1508 133/1509
f 133/1510 244/1511 131/1512
f 245/1513 252/1514 118/1515
f 118/1516 252/1517 119/1518
f 251/1519 133/1520 252/1521
f 252/1522 133/1523 119/1524
