# Exported from USD for MuJoCo with source material subsets
v -4.06072167 3.53232884 1.06223685
v -3.99106375 3.92016482 1.06223685
v -4.06072191 3.53232884 1.34215031
v -3.99106398 3.92016482 1.34215031
v -4.79857412 2.2822504 0.968696201
v -4.79857418 2.2052505 0.968696201
v -4.75644162 2.2822504 0.933342868
v -4.75644168 2.20525026 0.933342868
vt 0.421434999 0.96566999
vt 0.774012983 0.96566999
vt 0.421434999 1.220137
vt 0.421434999 1.220137
vt 0.774012983 0.96566999
vt 0.774012983 1.220137
vt 0.714999974 0.540427029
vt 0.785000026 0.540427029
vt 0.714999974 0.578728974
vt 0.714999974 0.578728974
vt 0.785000026 0.540427029
vt 0.785000026 0.578728974
f 1/1 2/2 3/3
f 3/4 2/5 4/6
f 5/7 6/8 7/9
f 7/10 6/11 8/12
