# Exported from USD for MuJoCo with source material subsets
v 10.3894585 5.00364079 0.215633345
v 11.278568 5.00364079 0.215633464
v 10.3894585 4.99564041 0.215633345
v 11.278568 4.99564041 0.215633464
v 11.278568 4.99564041 0.256154013
v 11.278568 5.00364079 0.256154013
v 10.3894585 4.99564041 0.256153774
v 10.3894585 5.00364079 0.256153774
vt -0.444555998 0.619997978
vt 0.444554001 0.619997978
vt -0.444555998 0.627997994
vt -0.444555998 0.627997994
vt 0.444554001 0.619997978
vt 0.444554001 0.627997994
vt -0.444554001 0.627997994
vt -0.444554001 0.619997978
vt 0.444555998 0.627997994
vt 0.444555998 0.627997994
vt -0.444554001 0.619997978
vt 0.444555998 0.619997978
f 1/1 2/2 3/3
f 3/4 2/5 4/6
f 5/7 6/8 7/9
f 7/10 6/11 8/12
