# Exported from USD for MuJoCo with source material subsets
v 5.56674346 4.88385254 0.90985255
v 5.56674358 4.77385241 0.90985255
v 5.57027903 4.88385254 0.90631701
v 5.57027909 4.77385241 0.90631701
v 5.46774902 4.15885264 0.71893372
v 5.46774902 4.16385227 0.71893372
v 5.44653579 4.15885264 0.78257336
v 5.44653579 4.16385227 0.78257336
v 5.63745462 4.15885264 0.83207079
v 5.56674393 4.15885264 0.9027815
v 5.63745468 4.05885225 0.83207079
v 5.56674399 4.05885225 0.9027815
v 5.63038355 4.15385252 0.83207079
v 5.55967286 4.15385252 0.9027815
v 5.51517543 4.15385252 0.7168628
v 5.48689117 4.15385252 0.7168628
v 5.46421351 4.15385252 0.7295404
v 5.48189112 4.15385252 0.71186281
v 5.63038361 4.06385237 0.83207079
v 5.55967292 4.06385237 0.9027815
v 5.4818913 4.05885225 0.70479162
v 5.48896232 4.05885225 0.71186281
v 5.46774908 4.05885225 0.71893372
v 5.44653591 4.05885225 0.78257336
v 5.51724657 4.05885225 0.71186281
v 5.51517549 4.06385237 0.7168628
v 5.48689129 4.06385237 0.7168628
v 5.46421357 4.06385237 0.7295404
v 5.4818913 4.06385237 0.71186281
v 5.4677492 4.05385262 0.71893372
v 5.46300575 4.05385262 0.71735266
v 5.46300563 4.16385227 0.71735266
v 5.57027944 4.16385227 0.90631701
v 5.57027956 4.05385262 0.90631701
v 5.44653591 4.05385262 0.78257336
v 5.45947018 4.06385237 0.72795923
v 5.44179251 4.06385237 0.78099218
v 5.4430004 4.06385237 0.78610888
v 5.44196304 4.06385237 0.78459558
v 5.44154152 4.06385237 0.78280981
v 5.45947012 4.15385252 0.72795923
v 5.44179239 4.15385252 0.78099218
v 5.44300028 4.15385252 0.78610888
v 5.44196292 4.15385252 0.78459558
v 5.4415414 4.15385252 0.78280981
v 5.48189112 4.15885264 0.70479162
v 5.48896226 4.15885264 0.71186281
v 5.51724651 4.15885264 0.71186281
v 5.44179239 4.16385227 0.78099218
v 5.4415414 4.16385227 0.78280981
v 5.44196292 4.16385227 0.78459558
v 5.44300028 4.16385227 0.78610888
v 5.56674393 4.16385227 0.90985255
v 5.57027932 4.41385227 0.90631701
v 5.57027927 4.52385241 0.90631701
v 5.56674376 4.41385227 0.90985255
v 5.5667437 4.52385241 0.90985255
v 5.56674399 4.05385262 0.90985255
v 5.55967315 3.79385287 0.9027815
v 5.63038381 3.79385287 0.83207079
v 5.55967321 3.70385319 0.9027815
v 5.63038384 3.70385319 0.83207079
v 5.51517572 3.79385287 0.7168628
v 5.48689147 3.79385287 0.7168628
v 5.46421381 3.79385239 0.7295404
v 5.48189142 3.79385287 0.71186281
v 5.51517572 3.70385319 0.7168628
v 5.48689147 3.70385319 0.7168628
v 5.46421381 3.70385224 0.7295404
v 5.48189148 3.70385319 0.71186281
v 5.44154182 3.70385224 0.78280981
v 5.44196328 3.70385224 0.78459558
v 5.44179275 3.70385224 0.78099218
v 5.44300064 3.70385224 0.78610888
v 5.45947042 3.70385224 0.72795923
v 5.45947036 3.79385239 0.72795923
v 5.57027974 3.69385296 0.90631701
v 5.56674423 3.69385296 0.90985255
v 5.44653615 3.69385248 0.78257336
v 5.44300064 3.69385248 0.78610888
v 5.44196328 3.69385248 0.78459558
v 5.44154182 3.69385248 0.78280981
v 5.44179275 3.69385248 0.78099218
v 5.46300592 3.69385296 0.71735266
v 5.46774938 3.69385296 0.71893372
v 5.56674423 3.69885308 0.9027815
v 5.63745492 3.69885308 0.83207079
v 5.56674417 3.79885298 0.9027815
v 5.63745486 3.79885298 0.83207079
v 5.51724687 3.69885308 0.71186281
v 5.44653615 3.6988526 0.78257336
v 5.48896256 3.69885308 0.71186281
v 5.46774938 3.69885308 0.71893372
v 5.48189148 3.69885308 0.70479162
v 5.46774932 3.7988525 0.71893372
v 5.46300592 3.80385262 0.71735266
v 5.46774932 3.80385262 0.71893372
v 5.51724675 3.79885298 0.71186281
v 5.44653603 3.7988525 0.78257336
v 5.4889625 3.79885298 0.71186281
v 5.48189142 3.79885298 0.70479162
v 5.44653603 3.80385262 0.78257336
v 5.57027968 3.80385309 0.90631701
v 5.44179263 3.80385262 0.78099218
v 5.44154164 3.80385262 0.78280981
v 5.44196316 3.80385262 0.78459558
v 5.44300052 3.80385262 0.78610888
v 5.56674417 3.80385309 0.90985255
v 5.44179263 3.79385239 0.78099218
v 5.44300052 3.79385239 0.78610888
v 5.44196316 3.79385239 0.78459558
v 5.44154164 3.79385239 0.78280981
v 5.44653561 4.52385241 0.78257336
v 5.4430001 4.52385241 0.78610888
v 5.44196274 4.52385241 0.78459558
v 5.44154116 4.52385241 0.78280981
v 5.44179221 4.52385241 0.78099218
v 5.46300539 4.52385241 0.71735266
v 5.46774879 4.52385241 0.71893372
v 5.55967333 3.43385321 0.9027815
v 5.63038399 3.43385321 0.83207079
v 5.55967339 3.34385306 0.9027815
v 5.63038405 3.34385306 0.83207079
v 5.5151759 3.43385321 0.7168628
v 5.48689165 3.43385321 0.7168628
v 5.46421399 3.43385321 0.7295404
v 5.48189166 3.43385321 0.71186281
v 5.5151759 3.34385306 0.7168628
v 5.48689177 3.34385306 0.7168628
v 5.46421399 3.34385306 0.7295404
v 5.48189172 3.34385306 0.71186281
v 5.56674441 3.33885294 0.9027815
v 5.63745513 3.33885294 0.83207079
v 5.56674435 3.43885285 0.9027815
v 5.63745507 3.43885285 0.83207079
v 5.51724699 3.33885294 0.71186281
v 5.44653633 3.33885294 0.78257336
v 5.48896279 3.33885294 0.71186281
v 5.46774956 3.33885294 0.71893372
v 5.48189172 3.33885294 0.70479162
v 5.44653633 3.33385283 0.78257336
v 5.57027998 3.33385283 0.90631701
v 5.57027992 3.44385296 0.90631701
v 5.44653633 3.44385296 0.78257336
v 5.44653633 3.43885285 0.78257336
v 5.45947059 3.34385306 0.72795923
v 5.45947059 3.43385321 0.72795923
v 5.44179293 3.34385306 0.78099218
v 5.44300082 3.34385306 0.78610888
v 5.44196352 3.34385306 0.78459558
v 5.44154188 3.34385306 0.78280981
v 5.51724699 3.43885285 0.71186281
v 5.48896267 3.43885285 0.71186281
v 5.46774956 3.43885285 0.71893372
v 5.48189166 3.43885285 0.70479162
v 5.46774956 3.33385283 0.71893372
v 5.4630061 3.33385283 0.71735266
v 5.4630061 3.44385296 0.71735266
v 5.46774956 3.44385296 0.71893372
v 5.44179293 3.44385296 0.78099218
v 5.44154188 3.44385296 0.78280981
v 5.4419634 3.44385296 0.78459558
v 5.44300076 3.44385296 0.78610888
v 5.56674435 3.44385296 0.90985255
v 5.44179293 3.43385321 0.78099218
v 5.44300076 3.43385321 0.78610888
v 5.4419634 3.43385321 0.78459558
v 5.44154188 3.43385321 0.78280981
v 5.56674441 3.33385283 0.90985255
v 5.44154116 4.51385218 0.78280981
v 5.44179221 4.51385218 0.78099218
v 5.44196274 4.51385218 0.78459558
v 5.4430001 4.51385218 0.78610888
v 5.55967268 4.51385218 0.9027815
v 5.46421328 4.51385218 0.7295404
v 5.486891 4.51385218 0.7168628
v 5.48189094 4.51385218 0.71186281
v 5.45946988 4.51385218 0.72795923
v 5.51517519 4.51385218 0.7168628
v 5.63038334 4.51385218 0.83207079
v 5.45947 4.4238525 0.72795923
v 5.4642134 4.4238525 0.7295404
v 5.46774879 4.51885229 0.71893372
v 5.46300551 4.41385227 0.71735266
v 5.4677489 4.41885239 0.71893372
v 5.4677489 4.41385227 0.71893372
v 5.44653561 4.51885229 0.78257336
v 5.5667437 4.51885229 0.9027815
v 5.56674376 4.41885239 0.9027815
v 5.44653567 4.41385227 0.78257336
v 5.44653567 4.41885239 0.78257336
v 5.48189094 4.51885229 0.70479162
v 5.48896208 4.51885229 0.71186281
v 5.51724627 4.51885229 0.71186281
v 5.63745439 4.51885229 0.83207079
v 5.481891 4.41885239 0.70479162
v 5.48896208 4.41885239 0.71186281
v 5.51724639 4.41885239 0.71186281
v 5.63745447 4.41885239 0.83207079
v 5.44179227 4.41385227 0.78099218
v 5.44154128 4.41385227 0.78280981
v 5.4419628 4.41385227 0.78459558
v 5.44300016 4.41385227 0.78610888
v 5.44179227 4.4238525 0.78099218
v 5.55967268 4.4238525 0.9027815
v 5.486891 4.4238525 0.7168628
v 5.51517531 4.4238525 0.7168628
v 5.6303834 4.4238525 0.83207079
v 5.481891 4.4238525 0.71186281
v 5.44300016 4.4238525 0.78610888
v 5.4419628 4.4238525 0.78459558
v 5.44154128 4.4238525 0.78280981
v 5.44179293 3.33385283 0.78099218
v 5.44154188 3.33385283 0.78280981
v 5.44196352 3.33385283 0.78459558
v 5.44300082 3.33385283 0.78610888
v 5.44179251 4.05385262 0.78099218
v 5.44154152 4.05385262 0.78280981
v 5.44196304 4.05385262 0.78459558
v 5.4430004 4.05385262 0.78610888
v 5.44653537 4.88385254 0.78257336
v 5.44299986 4.88385254 0.78610888
v 5.4419625 4.88385254 0.78459558
v 5.44154092 4.88385254 0.78280981
v 5.44179198 4.88385254 0.78099218
v 5.46300515 4.88385254 0.71735266
v 5.46774855 4.88385254 0.71893372
v 5.44653537 4.87885243 0.78257336
v 5.46774861 4.87885243 0.71893372
v 5.44299992 4.87385231 0.78610888
v 5.44196256 4.87385231 0.78459558
v 5.44154098 4.87385231 0.78280981
v 5.44179198 4.87385231 0.78099218
v 5.44653537 4.77385241 0.78257336
v 5.44299992 4.77385241 0.78610888
v 5.44196256 4.77385241 0.78459558
v 5.44154104 4.77385241 0.78280981
v 5.44179198 4.77385241 0.78099218
v 5.46300533 4.77385241 0.71735266
v 5.46774873 4.77385241 0.71893372
v 5.46774873 4.77885252 0.71893372
v 5.56674352 4.87885243 0.9027815
v 5.56674358 4.77885252 0.9027815
v 5.44653537 4.77885252 0.78257336
v 5.63745424 4.77885252 0.83207079
v 5.63745421 4.87885243 0.83207079
v 5.48189082 4.77885252 0.70479162
v 5.4889619 4.77885252 0.71186281
v 5.51724609 4.77885252 0.71186281
v 5.48189082 4.87885243 0.70479162
v 5.48896178 4.87885243 0.71186281
v 5.51724609 4.87885243 0.71186281
v 5.44299992 4.78385264 0.78610888
v 5.44196256 4.78385264 0.78459558
v 5.44154104 4.78385264 0.78280981
v 5.44179198 4.78385264 0.78099218
v 5.5596725 4.78385264 0.9027815
v 5.55967244 4.87385231 0.9027815
v 5.45946976 4.78385264 0.72795923
v 5.4594697 4.87385231 0.72795923
v 5.63038313 4.87385231 0.83207079
v 5.63038319 4.78385264 0.83207079
v 5.51517501 4.87385231 0.7168628
v 5.51517513 4.78385264 0.7168628
v 5.48689082 4.78385264 0.7168628
v 5.48689082 4.87385231 0.7168628
v 5.48189082 4.78385264 0.71186281
v 5.46421316 4.78385264 0.7295404
v 5.4642131 4.87385231 0.7295404
v 5.48189082 4.87385231 0.71186281
vt -0.949999988 0.397217989
vt -0.839999974 0.397217989
vt -0.949999988 0.400754005
vt -0.949999988 0.400754005
vt -0.839999974 0.397217989
vt -0.839999974 0.400754005
vt 0.224999994 1.41893399
vt 0.230000004 1.41893399
vt 0.224999994 1.48257399
vt 0.224999994 1.48257399
vt 0.230000004 1.41893399
vt 0.230000004 1.48257399
vt -0.224999994 0.467929006
vt -0.224999994 0.397217989
vt -0.125 0.467929006
vt -0.125 0.467929006
vt -0.224999994 0.397217989
vt -0.125 0.397217989
vt -1.53207099 0.460857987
vt -1.60278201 0.390147001
vt -1.41686296 0.345649987
vt -1.41686296 0.345649987
vt -1.60278201 0.390147001
vt -1.60278201 0.390147001
vt -1.41686296 0.345649987
vt -1.60278201 0.390147001
vt -1.41686296 0.317364991
vt -1.41686296 0.317364991
vt -1.60278201 0.390147001
vt -1.42954099 0.294687986
vt -1.41686296 0.317364991
vt -1.42954099 0.294687986
vt -1.41186297 0.312364995
vt -0.129999995 1.53207099
vt -0.129999995 1.60278201
vt -0.219999999 1.53207099
vt -0.219999999 1.53207099
vt -0.129999995 1.60278201
vt -0.219999999 1.60278201
vt -1.40479195 0.312364995
vt -1.41186297 0.319436014
vt -1.41893399 0.298222989
vt -1.41893399 0.298222989
vt -1.41186297 0.319436014
vt -1.41186297 0.319436014
vt -1.41893399 0.298222989
vt -1.41186297 0.319436014
vt -1.48257399 0.277009994
vt -1.48257399 0.277009994
vt -1.41186297 0.319436014
vt -1.41186297 0.34772101
vt -1.48257399 0.277009994
vt -1.41186297 0.34772101
vt -1.60278201 0.397217989
vt -1.60278201 0.397217989
vt -1.41186297 0.34772101
vt -1.53207099 0.467929006
vt 1.53207099 0.460857987
vt 1.41686296 0.345649987
vt 1.60278201 0.390147001
vt 1.60278201 0.390147001
vt 1.41686296 0.345649987
vt 1.41686296 0.317364991
vt 1.60278201 0.390147001
vt 1.41686296 0.317364991
vt 1.42954099 0.294687986
vt 1.42954099 0.294687986
vt 1.41686296 0.317364991
vt 1.41186297 0.312364995
vt -0.219999999 0.345649987
vt -0.219999999 0.317364991
vt -0.129999995 0.345649987
vt -0.129999995 0.345649987
vt -0.219999999 0.317364991
vt -0.129999995 0.317364991
vt 0.119999997 0.298222989
vt 0.119999997 0.293480009
vt 0.125 0.298222989
vt -1.41893399 0.298222989
vt -1.41735303 0.293480009
vt -1.41735303 0.293480009
vt 0.125 0.298222989
vt 0.119999997 0.293480009
vt 0.224999994 0.298222989
vt 0.224999994 0.298222989
vt 0.119999997 0.293480009
vt 0.230000004 0.293480009
vt 0.224999994 0.298222989
vt 0.230000004 0.293480009
vt 0.230000004 0.298222989
vt -0.219999999 0.312364995
vt -0.219999999 0.294687986
vt -0.129999995 0.312364995
vt -0.129999995 0.312364995
vt -0.219999999 0.294687986
vt -0.129999995 0.294687986
vt 0.224999994 1.48257399
vt 0.230000004 1.48257399
vt 0.224999994 1.60278201
vt 0.224999994 1.60278201
vt 0.230000004 1.48257399
vt 0.230000004 1.60631704
vt -1.60278201 0.397217989
vt -1.60631704 0.400754005
vt -1.60278201 0.397217989
vt 0.224999994 0.397217989
vt 0.230000004 0.400754005
vt 0.119999997 0.400754005
vt 0.224999994 0.397217989
vt 0.119999997 0.400754005
vt 0.125 0.397217989
vt 0.125 1.60278201
vt 0.119999997 1.60631704
vt 0.119999997 1.48257399
vt 0.125 1.60278201
vt 0.119999997 1.48257399
vt 0.125 1.48257399
vt 1.42795897 0.289943993
vt 1.48099196 0.272267014
vt 1.42954099 0.294687986
vt -1.42954099 0.294687986
vt -1.48099196 0.272267014
vt -1.48099196 0.272267014
vt 1.42954099 0.294687986
vt 1.48099196 0.272267014
vt 1.60278201 0.390147001
vt -1.60278201 0.390147001
vt -1.48099196 0.272267014
vt -1.48099196 0.272267014
vt 1.60278201 0.390147001
vt 1.48099196 0.272267014
vt 1.48610902 0.273474991
vt -1.48610902 0.273474991
vt -1.48099196 0.272267014
vt -1.48099196 0.272267014
vt 1.48610902 0.273474991
vt 1.48099196 0.272267014
vt 1.48459601 0.272437006
vt 1.48459601 0.272437006
vt 1.48099196 0.272267014
vt 1.48281002 0.272015989
vt -0.219999999 0.289943993
vt -0.129999995 0.289943993
vt -0.219999999 0.294687986
vt -0.219999999 0.294687986
vt -0.129999995 0.289943993
vt -0.129999995 0.294687986
vt -1.42795897 0.289943993
vt -1.42954099 0.294687986
vt -1.48099196 0.272267014
vt -1.48099196 0.272267014
vt -1.42954099 0.294687986
vt -1.60278201 0.390147001
vt -1.48099196 0.272267014
vt -1.60278201 0.390147001
vt -1.48099196 0.272267014
vt -1.48099196 0.272267014
vt -1.60278201 0.390147001
vt -1.48610902 0.273474991
vt -1.48099196 0.272267014
vt -1.48610902 0.273474991
vt -1.48099196 0.272267014
vt -1.48099196 0.272267014
vt -1.48610902 0.273474991
vt -1.48459601 0.272437006
vt -1.48099196 0.272267014
vt -1.48459601 0.272437006
vt -1.48281002 0.272015989
vt -0.129999995 1.41686296
vt -0.129999995 1.53207099
vt -0.219999999 1.41686296
vt -0.219999999 1.41686296
vt -0.129999995 1.53207099
vt -0.219999999 1.53207099
vt 1.40479195 0.312364995
vt 1.41893399 0.298222989
vt 1.41186297 0.319436014
vt 1.41186297 0.319436014
vt 1.41893399 0.298222989
vt 1.48257399 0.277009994
vt 1.41186297 0.319436014
vt 1.48257399 0.277009994
vt 1.41186297 0.34772101
vt 1.41186297 0.34772101
vt 1.48257399 0.277009994
vt 1.60278201 0.397217989
vt 1.41186297 0.34772101
vt 1.60278201 0.397217989
vt 1.53207099 0.467929006
vt -0.219999999 1.41686296
vt -0.219999999 1.41186297
vt -0.129999995 1.41686296
vt -0.129999995 1.41686296
vt -0.219999999 1.41186297
vt -0.129999995 1.41186297
vt 1.41893399 0.298222989
vt 1.41735303 0.293480009
vt 1.48257399 0.277009994
vt 1.48257399 0.277009994
vt 1.41735303 0.293480009
vt 1.48099196 0.272267014
vt -1.48257399 0.277009994
vt -1.48099196 0.272267014
vt -1.48257399 0.277009994
vt 1.48257399 0.277009994
vt 1.48099196 0.272267014
vt 1.48281002 0.272015989
vt -1.48257399 0.277009994
vt -1.48281002 0.272015989
vt -1.48257399 0.277009994
vt 1.48257399 0.277009994
vt 1.48281002 0.272015989
vt 1.48459601 0.272437006
vt -1.48257399 0.277009994
vt -1.48459601 0.272437006
vt -1.48257399 0.277009994
vt 1.48257399 0.277009994
vt 1.48459601 0.272437006
vt 1.48610902 0.273474991
vt -1.48257399 0.277009994
vt -1.48610902 0.273474991
vt -1.48257399 0.277009994
vt 1.48257399 0.277009994
vt 1.48610902 0.273474991
vt 1.60985303 0.397217989
vt 1.48257399 0.277009994
vt 1.60985303 0.397217989
vt 1.60631704 0.400754005
vt -0.479999989 0.400754005
vt -0.589999974 0.400754005
vt -0.479999989 0.397217989
vt -0.479999989 0.397217989
vt -0.589999974 0.400754005
vt -0.589999974 0.397217989
vt -0.119999997 0.400754005
vt -0.230000004 0.400754005
vt -0.119999997 0.397217989
vt -0.119999997 0.397217989
vt -0.230000004 0.400754005
vt -0.230000004 0.397217989
vt 0.140000001 1.60278201
vt 0.140000001 1.53207099
vt 0.230000004 1.60278201
vt 0.230000004 1.60278201
vt 0.140000001 1.53207099
vt 0.230000004 1.53207099
vt -1.53207099 0.460857987
vt -1.60278201 0.390147001
vt -1.41686296 0.345649987
vt -1.41686296 0.345649987
vt -1.60278201 0.390147001
vt -1.60278201 0.390147001
vt -1.41686296 0.345649987
vt -1.60278201 0.390147001
vt -1.41686296 0.317364991
vt -1.41686296 0.317364991
vt -1.60278201 0.390147001
vt -1.42954099 0.294687986
vt -1.41686296 0.317364991
vt -1.42954099 0.294687986
vt -1.41186297 0.312364995
vt 0.140000001 1.53207099
vt 0.140000001 1.41686296
vt 0.230000004 1.53207099
vt 0.230000004 1.53207099
vt 0.140000001 1.41686296
vt 0.230000004 1.41686296
vt 1.53207099 0.460857987
vt 1.41686296 0.345649987
vt 1.60278201 0.390147001
vt 1.60278201 0.390147001
vt 1.41686296 0.345649987
vt 1.41686296 0.317364991
vt 1.60278201 0.390147001
vt 1.41686296 0.317364991
vt 1.42954099 0.294687986
vt 1.42954099 0.294687986
vt 1.41686296 0.317364991
vt 1.41186297 0.312364995
vt 0.140000001 0.345649987
vt 0.140000001 0.317364991
vt 0.230000004 0.345649987
vt 0.230000004 0.345649987
vt 0.140000001 0.317364991
vt 0.230000004 0.317364991
vt 0.140000001 1.41686296
vt 0.140000001 1.41186297
vt 0.230000004 1.41686296
vt 0.230000004 1.41686296
vt 0.140000001 1.41186297
vt 0.230000004 1.41186297
vt 0.140000001 0.312364995
vt 0.140000001 0.294687986
vt 0.230000004 0.312364995
vt 0.230000004 0.312364995
vt 0.140000001 0.294687986
vt 0.230000004 0.294687986
vt 1.48281002 0.272015989
vt 1.48459601 0.272437006
vt 1.48099196 0.272267014
vt 1.48099196 0.272267014
vt 1.48459601 0.272437006
vt 1.48610902 0.273474991
vt -1.48099196 0.272267014
vt -1.48610902 0.273474991
vt -1.48099196 0.272267014
vt 1.48099196 0.272267014
vt 1.48610902 0.273474991
vt 1.60278201 0.390147001
vt -1.48099196 0.272267014
vt -1.60278201 0.390147001
vt -1.48099196 0.272267014
vt 1.48099196 0.272267014
vt 1.60278201 0.390147001
vt 1.42954099 0.294687986
vt 1.48099196 0.272267014
vt 1.42954099 0.294687986
vt 1.42795897 0.289943993
vt 0.230000004 0.294687986
vt 0.140000001 0.294687986
vt 0.230000004 0.289943993
vt 0.230000004 0.289943993
vt 0.140000001 0.294687986
vt 0.140000001 0.289943993
vt -1.60631704 0.400754005
vt -1.60985303 0.397217989
vt -1.48257399 0.277009994
vt -1.48257399 0.277009994
vt -1.60985303 0.397217989
vt -1.48610902 0.273474991
vt -1.48257399 0.277009994
vt -1.48610902 0.273474991
vt -1.48257399 0.277009994
vt -1.48257399 0.277009994
vt -1.48610902 0.273474991
vt -1.48459601 0.272437006
vt -1.48257399 0.277009994
vt -1.48459601 0.272437006
vt -1.48257399 0.277009994
vt -1.48257399 0.277009994
vt -1.48459601 0.272437006
vt -1.48281002 0.272015989
vt -1.48257399 0.277009994
vt -1.48281002 0.272015989
vt -1.48257399 0.277009994
vt -1.48257399 0.277009994
vt -1.48281002 0.272015989
vt -1.48099196 0.272267014
vt -1.48257399 0.277009994
vt -1.48099196 0.272267014
vt -1.48257399 0.277009994
vt -1.48257399 0.277009994
vt -1.48099196 0.272267014
vt -1.41735303 0.293480009
vt -1.48257399 0.277009994
vt -1.41735303 0.293480009
vt -1.41893399 0.298222989
vt 0.234999999 0.397217989
vt 0.234999999 0.467929006
vt 0.135000005 0.397217989
vt 0.135000005 0.397217989
vt 0.234999999 0.467929006
vt 0.135000005 0.467929006
vt -1.53207099 0.467929006
vt -1.60278201 0.397217989
vt -1.41186297 0.34772101
vt -1.41186297 0.34772101
vt -1.60278201 0.397217989
vt -1.48257399 0.277009994
vt -1.41186297 0.34772101
vt -1.48257399 0.277009994
vt -1.41186297 0.319436014
vt -1.41186297 0.319436014
vt -1.48257399 0.277009994
vt -1.41893399 0.298222989
vt -1.41186297 0.319436014
vt -1.41893399 0.298222989
vt -1.40479195 0.312364995
vt -0.239999995 0.298222989
vt -0.239999995 0.293480009
vt -0.234999999 0.298222989
vt -1.41893399 0.298222989
vt -1.41735303 0.293480009
vt -1.41735303 0.293480009
vt -0.234999999 0.298222989
vt -0.239999995 0.293480009
vt -0.135000005 0.298222989
vt -0.135000005 0.298222989
vt -0.239999995 0.293480009
vt -0.129999995 0.293480009
vt -0.135000005 0.298222989
vt -0.129999995 0.293480009
vt -0.129999995 0.298222989
vt 1.53207099 0.467929006
vt 1.41186297 0.34772101
vt 1.60278201 0.397217989
vt -1.60278201 0.397217989
vt -1.41186297 0.34772101
vt -1.41186297 0.34772101
vt 1.60278201 0.397217989
vt 1.41186297 0.34772101
vt 1.48257399 0.277009994
vt 1.48257399 0.277009994
vt 1.41186297 0.34772101
vt 1.41186297 0.319436014
vt 1.48257399 0.277009994
vt 1.41186297 0.319436014
vt 1.41893399 0.298222989
vt 1.41893399 0.298222989
vt 1.41186297 0.319436014
vt 1.40479195 0.312364995
vt -0.135000005 1.48257399
vt -0.129999995 1.48257399
vt -0.135000005 1.60278201
vt -0.135000005 1.60278201
vt -0.129999995 1.48257399
vt -0.129999995 1.60631704
vt -1.60278201 0.397217989
vt -1.60631704 0.400754005
vt -1.60278201 0.397217989
vt -0.135000005 0.397217989
vt -0.129999995 0.400754005
vt -0.239999995 0.400754005
vt -0.135000005 0.397217989
vt -0.239999995 0.400754005
vt -0.234999999 0.397217989
vt -0.234999999 1.60278201
vt -0.239999995 1.60631704
vt -0.239999995 1.48257399
vt -0.234999999 1.60278201
vt -0.239999995 1.48257399
vt -0.234999999 1.48257399
vt -0.135000005 1.41893399
vt -0.129999995 1.41893399
vt -0.135000005 1.48257399
vt -0.135000005 1.48257399
vt -0.129999995 1.41893399
vt -0.129999995 1.48257399
vt 1.41893399 0.298222989
vt 1.41735303 0.293480009
vt 1.48257399 0.277009994
vt 1.48257399 0.277009994
vt 1.41735303 0.293480009
vt 1.48099196 0.272267014
vt -1.48257399 0.277009994
vt -1.48099196 0.272267014
vt -1.48257399 0.277009994
vt 1.48257399 0.277009994
vt 1.48099196 0.272267014
vt 1.48281002 0.272015989
vt -1.48257399 0.277009994
vt -1.48281002 0.272015989
vt -1.48257399 0.277009994
vt 1.48257399 0.277009994
vt 1.48281002 0.272015989
vt 1.48459601 0.272437006
vt -1.48257399 0.277009994
vt -1.48459601 0.272437006
vt -1.48257399 0.277009994
vt 1.48257399 0.277009994
vt 1.48459601 0.272437006
vt 1.48610902 0.273474991
vt -1.48257399 0.277009994
vt -1.48610902 0.273474991
vt -1.48257399 0.277009994
vt 1.48257399 0.277009994
vt 1.48610902 0.273474991
vt 1.60985303 0.397217989
vt 1.48257399 0.277009994
vt 1.60985303 0.397217989
vt 1.60631704 0.400754005
vt -1.42795897 0.289943993
vt -1.42954099 0.294687986
vt -1.48099196 0.272267014
vt -1.48099196 0.272267014
vt -1.42954099 0.294687986
vt -1.60278201 0.390147001
vt -1.48099196 0.272267014
vt -1.60278201 0.390147001
vt -1.48099196 0.272267014
vt -1.48099196 0.272267014
vt -1.60278201 0.390147001
vt -1.48610902 0.273474991
vt -1.48099196 0.272267014
vt -1.48610902 0.273474991
vt -1.48099196 0.272267014
vt -1.48099196 0.272267014
vt -1.48610902 0.273474991
vt -1.48459601 0.272437006
vt -1.48099196 0.272267014
vt -1.48459601 0.272437006
vt -1.48281002 0.272015989
vt 1.60631704 0.400754005
vt 1.48257399 0.277009994
vt 1.60985303 0.397217989
vt -1.60985303 0.397217989
vt -1.48257399 0.277009994
vt -1.48257399 0.277009994
vt 1.60985303 0.397217989
vt 1.48257399 0.277009994
vt 1.48610902 0.273474991
vt -1.48610902 0.273474991
vt -1.48257399 0.277009994
vt -1.48257399 0.277009994
vt 1.48610902 0.273474991
vt 1.48257399 0.277009994
vt 1.48459601 0.272437006
vt -1.48459601 0.272437006
vt -1.48257399 0.277009994
vt -1.48257399 0.277009994
vt 1.48459601 0.272437006
vt 1.48257399 0.277009994
vt 1.48281002 0.272015989
vt -1.48281002 0.272015989
vt -1.48257399 0.277009994
vt -1.48257399 0.277009994
vt 1.48281002 0.272015989
vt 1.48257399 0.277009994
vt 1.48099196 0.272267014
vt -1.48099196 0.272267014
vt -1.48257399 0.277009994
vt -1.48257399 0.277009994
vt 1.48099196 0.272267014
vt 1.48257399 0.277009994
vt 1.41735303 0.293480009
vt 1.41735303 0.293480009
vt 1.48257399 0.277009994
vt 1.41893399 0.298222989
vt 0.129999995 0.397217989
vt 0.239999995 0.397217989
vt 0.129999995 0.400754005
vt 0.129999995 0.400754005
vt 0.239999995 0.397217989
vt 0.239999995 0.400754005
vt 0.5 1.60278201
vt 0.5 1.53207099
vt 0.589999974 1.60278201
vt 0.589999974 1.60278201
vt 0.5 1.53207099
vt 0.589999974 1.53207099
vt -1.53207099 0.460857987
vt -1.60278201 0.390147001
vt -1.41686296 0.345649987
vt -1.41686296 0.345649987
vt -1.60278201 0.390147001
vt -1.60278201 0.390147001
vt -1.41686296 0.345649987
vt -1.60278201 0.390147001
vt -1.41686296 0.317364991
vt -1.41686296 0.317364991
vt -1.60278201 0.390147001
vt -1.42954099 0.294687986
vt -1.41686296 0.317364991
vt -1.42954099 0.294687986
vt -1.41186297 0.312364995
vt 0.5 1.53207099
vt 0.5 1.41686296
vt 0.589999974 1.53207099
vt 0.589999974 1.53207099
vt 0.5 1.41686296
vt 0.589999974 1.41686296
vt 1.53207099 0.460857987
vt 1.41686296 0.345649987
vt 1.60278201 0.390147001
vt 1.60278201 0.390147001
vt 1.41686296 0.345649987
vt 1.41686296 0.317364991
vt 1.60278201 0.390147001
vt 1.41686296 0.317364991
vt 1.42954099 0.294687986
vt 1.42954099 0.294687986
vt 1.41686296 0.317364991
vt 1.41186297 0.312364995
vt 0.5 0.345649987
vt 0.5 0.317364991
vt 0.589999974 0.345649987
vt 0.589999974 0.345649987
vt 0.5 0.317364991
vt 0.589999974 0.317364991
vt 0.5 1.41686296
vt 0.5 1.41186297
vt 0.589999974 1.41686296
vt 0.589999974 1.41686296
vt 0.5 1.41186297
vt 0.589999974 1.41186297
vt 0.5 0.312364995
vt 0.5 0.294687986
vt 0.589999974 0.312364995
vt 0.589999974 0.312364995
vt 0.5 0.294687986
vt 0.589999974 0.294687986
vt 0.595000029 0.397217989
vt 0.595000029 0.467929006
vt 0.495000005 0.397217989
vt 0.495000005 0.397217989
vt 0.595000029 0.467929006
vt 0.495000005 0.467929006
vt -1.53207099 0.467929006
vt -1.60278201 0.397217989
vt -1.41186297 0.34772101
vt -1.41186297 0.34772101
vt -1.60278201 0.397217989
vt -1.48257399 0.277009994
vt -1.41186297 0.34772101
vt -1.48257399 0.277009994
vt -1.41186297 0.319436014
vt -1.41186297 0.319436014
vt -1.48257399 0.277009994
vt -1.41893399 0.298222989
vt -1.41186297 0.319436014
vt -1.41893399 0.298222989
vt -1.40479195 0.312364995
vt -0.595000029 1.48257399
vt -0.595000029 1.60278201
vt -0.600000024 1.48257399
vt -1.48257399 0.277009994
vt -1.60278201 0.397217989
vt -1.60278201 0.397217989
vt -0.600000024 1.48257399
vt -0.595000029 1.60278201
vt -0.600000024 1.60631704
vt -0.600000024 0.400754005
vt -0.595000029 0.397217989
vt -0.495000005 0.397217989
vt -0.600000024 0.400754005
vt -0.495000005 0.397217989
vt -0.49000001 0.400754005
vt -1.60631704 0.400754005
vt -1.60278201 0.397217989
vt -1.60278201 0.397217989
vt -0.49000001 1.60631704
vt -0.495000005 1.60278201
vt -0.49000001 1.48257399
vt -0.49000001 1.48257399
vt -0.495000005 1.60278201
vt -0.495000005 1.48257399
vt 0.589999974 0.294687986
vt 0.5 0.294687986
vt 0.589999974 0.289943993
vt 0.589999974 0.289943993
vt 0.5 0.294687986
vt 0.5 0.289943993
vt 1.42795897 0.289943993
vt 1.48099196 0.272267014
vt 1.42954099 0.294687986
vt -1.42954099 0.294687986
vt -1.48099196 0.272267014
vt -1.48099196 0.272267014
vt 1.42954099 0.294687986
vt 1.48099196 0.272267014
vt 1.60278201 0.390147001
vt -1.60278201 0.390147001
vt -1.48099196 0.272267014
vt -1.48099196 0.272267014
vt 1.60278201 0.390147001
vt 1.48099196 0.272267014
vt 1.48610902 0.273474991
vt -1.48610902 0.273474991
vt -1.48099196 0.272267014
vt -1.48099196 0.272267014
vt 1.48610902 0.273474991
vt 1.48099196 0.272267014
vt 1.48459601 0.272437006
vt 1.48459601 0.272437006
vt 1.48099196 0.272267014
vt 1.48281002 0.272015989
vt 1.53207099 0.467929006
vt 1.41186297 0.34772101
vt 1.60278201 0.397217989
vt -1.60278201 0.397217989
vt -1.41186297 0.34772101
vt -1.41186297 0.34772101
vt 1.60278201 0.397217989
vt 1.41186297 0.34772101
vt 1.48257399 0.277009994
vt 1.48257399 0.277009994
vt 1.41186297 0.34772101
vt 1.41186297 0.319436014
vt 1.48257399 0.277009994
vt 1.41186297 0.319436014
vt 1.41893399 0.298222989
vt 1.41893399 0.298222989
vt 1.41186297 0.319436014
vt 1.40479195 0.312364995
vt -0.600000024 0.298222989
vt -0.600000024 0.293480009
vt -0.595000029 0.298222989
vt -1.41893399 0.298222989
vt -1.41735303 0.293480009
vt -1.41735303 0.293480009
vt -0.595000029 0.298222989
vt -0.600000024 0.293480009
vt -0.495000005 0.298222989
vt -0.495000005 0.298222989
vt -0.600000024 0.293480009
vt -0.49000001 0.293480009
vt -0.495000005 0.298222989
vt -0.49000001 0.293480009
vt -0.49000001 0.298222989
vt -0.495000005 1.41893399
vt -0.49000001 1.41893399
vt -0.495000005 1.48257399
vt -0.495000005 1.48257399
vt -0.49000001 1.41893399
vt -0.49000001 1.48257399
vt 1.41893399 0.298222989
vt 1.41735303 0.293480009
vt 1.48257399 0.277009994
vt 1.48257399 0.277009994
vt 1.41735303 0.293480009
vt 1.48099196 0.272267014
vt -1.48257399 0.277009994
vt -1.48099196 0.272267014
vt -1.48257399 0.277009994
vt 1.48257399 0.277009994
vt 1.48099196 0.272267014
vt 1.48281002 0.272015989
vt -1.48257399 0.277009994
vt -1.48281002 0.272015989
vt -1.48257399 0.277009994
vt 1.48257399 0.277009994
vt 1.48281002 0.272015989
vt 1.48459601 0.272437006
vt -1.48257399 0.277009994
vt -1.48459601 0.272437006
vt -1.48257399 0.277009994
vt 1.48257399 0.277009994
vt 1.48459601 0.272437006
vt 1.48610902 0.273474991
vt -1.48257399 0.277009994
vt -1.48610902 0.273474991
vt -1.48257399 0.277009994
vt 1.48257399 0.277009994
vt 1.48610902 0.273474991
vt 1.60985303 0.397217989
vt 1.48257399 0.277009994
vt 1.60985303 0.397217989
vt 1.60631704 0.400754005
vt -1.42795897 0.289943993
vt -1.42954099 0.294687986
vt -1.48099196 0.272267014
vt -1.48099196 0.272267014
vt -1.42954099 0.294687986
vt -1.60278201 0.390147001
vt -1.48099196 0.272267014
vt -1.60278201 0.390147001
vt -1.48099196 0.272267014
vt -1.48099196 0.272267014
vt -1.60278201 0.390147001
vt -1.48610902 0.273474991
vt -1.48099196 0.272267014
vt -1.48610902 0.273474991
vt -1.48099196 0.272267014
vt -1.48099196 0.272267014
vt -1.48610902 0.273474991
vt -1.48459601 0.272437006
vt -1.48099196 0.272267014
vt -1.48459601 0.272437006
vt -1.48281002 0.272015989
vt 0.49000001 0.397217989
vt 0.600000024 0.397217989
vt 0.49000001 0.400754005
vt 0.49000001 0.400754005
vt 0.600000024 0.397217989
vt 0.600000024 0.400754005
vt -1.48281002 0.272015989
vt -1.48099196 0.272267014
vt -1.48459601 0.272437006
vt -1.48459601 0.272437006
vt -1.48099196 0.272267014
vt -1.48099196 0.272267014
vt -1.48459601 0.272437006
vt -1.48099196 0.272267014
vt -1.48610902 0.273474991
vt -1.48610902 0.273474991
vt -1.48099196 0.272267014
vt -1.48099196 0.272267014
vt -1.48610902 0.273474991
vt -1.48099196 0.272267014
vt -1.60278201 0.390147001
vt -1.60278201 0.390147001
vt -1.48099196 0.272267014
vt -1.42954099 0.294687986
vt -1.60278201 0.390147001
vt -1.42954099 0.294687986
vt -1.41686296 0.317364991
vt -1.41686296 0.317364991
vt -1.42954099 0.294687986
vt -1.41186297 0.312364995
vt -1.48099196 0.272267014
vt -1.42795897 0.289943993
vt -1.42954099 0.294687986
vt -1.41686296 0.317364991
vt -1.41686296 0.345649987
vt -1.60278201 0.390147001
vt -1.60278201 0.390147001
vt -1.41686296 0.345649987
vt -1.53207099 0.460857987
vt -0.579999983 0.289943993
vt -0.49000001 0.289943993
vt -0.579999983 0.294687986
vt -0.579999983 0.294687986
vt -0.49000001 0.289943993
vt -0.49000001 0.294687986
vt 0.589999974 0.298222989
vt 0.584999979 0.298222989
vt 0.589999974 0.293480009
vt -1.41735303 0.293480009
vt -1.41893399 0.298222989
vt -1.41893399 0.298222989
vt 0.589999974 0.293480009
vt 0.584999979 0.298222989
vt 0.479999989 0.293480009
vt 0.479999989 0.293480009
vt 0.584999979 0.298222989
vt 0.485000014 0.298222989
vt 0.479999989 0.293480009
vt 0.485000014 0.298222989
vt 0.479999989 0.298222989
vt 0.589999974 1.48257399
vt 0.584999979 1.48257399
vt 0.589999974 1.41893399
vt 0.589999974 1.41893399
vt 0.584999979 1.48257399
vt 0.584999979 1.41893399
vt 0.584999979 1.48257399
vt 0.589999974 1.48257399
vt 0.584999979 1.60278201
vt 0.584999979 1.60278201
vt 0.589999974 1.48257399
vt 0.589999974 1.60631704
vt -1.60278201 0.397217989
vt -1.60631704 0.400754005
vt -1.60278201 0.397217989
vt 0.584999979 0.397217989
vt 0.589999974 0.400754005
vt 0.479999989 0.400754005
vt 0.584999979 0.397217989
vt 0.479999989 0.400754005
vt 0.485000014 0.397217989
vt 0.485000014 1.60278201
vt 0.479999989 1.60631704
vt 0.479999989 1.48257399
vt 0.485000014 1.60278201
vt 0.479999989 1.48257399
vt 0.485000014 1.48257399
vt 1.40479195 0.312364995
vt 1.41893399 0.298222989
vt 1.41186297 0.319436014
vt 1.41186297 0.319436014
vt 1.41893399 0.298222989
vt 1.48257399 0.277009994
vt 1.41186297 0.319436014
vt 1.48257399 0.277009994
vt 1.41186297 0.34772101
vt 1.41186297 0.34772101
vt 1.48257399 0.277009994
vt 1.60278201 0.397217989
vt 1.41186297 0.34772101
vt 1.60278201 0.397217989
vt 1.53207099 0.467929006
vt -1.40479195 0.312364995
vt -1.41186297 0.319436014
vt -1.41893399 0.298222989
vt -1.41893399 0.298222989
vt -1.41186297 0.319436014
vt -1.41186297 0.319436014
vt -1.41893399 0.298222989
vt -1.41186297 0.319436014
vt -1.48257399 0.277009994
vt -1.48257399 0.277009994
vt -1.41186297 0.319436014
vt -1.41186297 0.34772101
vt -1.48257399 0.277009994
vt -1.41186297 0.34772101
vt -1.60278201 0.397217989
vt -1.60278201 0.397217989
vt -1.41186297 0.34772101
vt -1.53207099 0.467929006
vt -0.584999979 0.467929006
vt -0.584999979 0.397217989
vt -0.485000014 0.467929006
vt -0.485000014 0.467929006
vt -0.584999979 0.397217989
vt -0.485000014 0.397217989
vt -1.41893399 0.298222989
vt -1.48257399 0.277009994
vt -1.41735303 0.293480009
vt -1.41735303 0.293480009
vt -1.48257399 0.277009994
vt -1.48257399 0.277009994
vt -1.41735303 0.293480009
vt -1.48257399 0.277009994
vt -1.48099196 0.272267014
vt -1.48099196 0.272267014
vt -1.48257399 0.277009994
vt -1.48257399 0.277009994
vt -1.48099196 0.272267014
vt -1.48257399 0.277009994
vt -1.48281002 0.272015989
vt -1.48281002 0.272015989
vt -1.48257399 0.277009994
vt -1.48257399 0.277009994
vt -1.48281002 0.272015989
vt -1.48257399 0.277009994
vt -1.48459601 0.272437006
vt -1.48459601 0.272437006
vt -1.48257399 0.277009994
vt -1.48257399 0.277009994
vt -1.48459601 0.272437006
vt -1.48257399 0.277009994
vt -1.48610902 0.273474991
vt -1.48610902 0.273474991
vt -1.48257399 0.277009994
vt -1.48257399 0.277009994
vt -1.48610902 0.273474991
vt -1.48257399 0.277009994
vt -1.60985303 0.397217989
vt -1.60985303 0.397217989
vt -1.48257399 0.277009994
vt -1.60631704 0.400754005
vt 1.42795897 0.289943993
vt 1.48099196 0.272267014
vt 1.42954099 0.294687986
vt 1.42954099 0.294687986
vt 1.48099196 0.272267014
vt 1.60278201 0.390147001
vt 1.42954099 0.294687986
vt 1.60278201 0.390147001
vt 1.41686296 0.317364991
vt -1.41686296 0.317364991
vt -1.60278201 0.390147001
vt -1.60278201 0.390147001
vt 1.41686296 0.317364991
vt 1.60278201 0.390147001
vt 1.41686296 0.345649987
vt 1.41686296 0.345649987
vt 1.60278201 0.390147001
vt 1.53207099 0.460857987
vt 1.42954099 0.294687986
vt 1.41686296 0.317364991
vt 1.41186297 0.312364995
vt 1.60278201 0.390147001
vt 1.48099196 0.272267014
vt 1.48610902 0.273474991
vt -1.48610902 0.273474991
vt -1.48099196 0.272267014
vt -1.48099196 0.272267014
vt 1.48610902 0.273474991
vt 1.48099196 0.272267014
vt 1.48459601 0.272437006
vt 1.48459601 0.272437006
vt 1.48099196 0.272267014
vt 1.48281002 0.272015989
vt -0.49000001 0.294687986
vt -0.49000001 0.312364995
vt -0.579999983 0.294687986
vt -0.579999983 0.294687986
vt -0.49000001 0.312364995
vt -0.579999983 0.312364995
vt -0.49000001 1.41186297
vt -0.49000001 1.41686296
vt -0.579999983 1.41186297
vt -0.579999983 1.41186297
vt -0.49000001 1.41686296
vt -0.579999983 1.41686296
vt -0.49000001 0.317364991
vt -0.49000001 0.345649987
vt -0.579999983 0.317364991
vt -0.579999983 0.317364991
vt -0.49000001 0.345649987
vt -0.579999983 0.345649987
vt -0.49000001 1.41686296
vt -0.49000001 1.53207099
vt -0.579999983 1.41686296
vt -0.579999983 1.41686296
vt -0.49000001 1.53207099
vt -0.579999983 1.53207099
vt -0.49000001 1.53207099
vt -0.49000001 1.60278201
vt -0.579999983 1.53207099
vt -0.579999983 1.53207099
vt -0.49000001 1.60278201
vt -0.579999983 1.60278201
vt 0.129999995 0.397217989
vt 0.129999995 0.273474991
vt 0.140000001 0.390147001
vt -1.60278201 0.390147001
vt -1.48610902 0.273474991
vt -1.48610902 0.273474991
vt 0.140000001 1.60278201
vt 0.129999995 1.48610902
vt 0.140000001 1.48610902
vt 0.140000001 1.48610902
vt 0.129999995 1.48610902
vt 0.129999995 1.48459601
vt 0.140000001 1.48610902
vt 0.129999995 1.48459601
vt 0.140000001 1.48459601
vt 0.140000001 1.48459601
vt 0.129999995 1.48459601
vt 0.129999995 1.48281002
vt 0.140000001 1.48459601
vt 0.129999995 1.48281002
vt 0.140000001 1.48281002
vt 0.140000001 1.48281002
vt 0.129999995 1.48281002
vt 0.129999995 1.48099196
vt 0.140000001 1.48281002
vt 0.129999995 1.48099196
vt 0.140000001 1.48099196
vt -1.48099196 0.272267014
vt -1.48099196 0.272267014
vt -1.48099196 0.272267014
vt 0.140000001 1.48099196
vt 0.129999995 1.48099196
vt 0.140000001 1.42795897
vt 0.140000001 1.42795897
vt 0.129999995 1.48099196
vt 0.129999995 1.41735303
vt -1.42795897 0.289943993
vt -1.41735303 0.293480009
vt -1.42795897 0.289943993
vt 0.140000001 1.42795897
vt 0.129999995 1.41735303
vt 0.239999995 1.41735303
vt 0.140000001 1.42795897
vt 0.239999995 1.41735303
vt 0.230000004 1.42795897
vt 0.230000004 1.42795897
vt 0.239999995 1.41735303
vt 0.239999995 1.48099196
vt 0.230000004 1.42795897
vt 0.239999995 1.48099196
vt 0.230000004 1.48099196
vt 0.230000004 1.48099196
vt 0.239999995 1.48099196
vt 0.239999995 1.48281002
vt 0.230000004 1.48099196
vt 0.239999995 1.48281002
vt 0.230000004 1.48281002
vt 0.230000004 1.48281002
vt 0.239999995 1.48281002
vt 0.239999995 1.48459601
vt 0.230000004 1.48281002
vt 0.239999995 1.48459601
vt 0.230000004 1.48459601
vt 0.230000004 1.48459601
vt 0.239999995 1.48459601
vt 0.239999995 1.48610902
vt 0.230000004 1.48459601
vt 0.239999995 1.48610902
vt 0.230000004 1.48610902
vt -1.48610902 0.273474991
vt -1.48610902 0.273474991
vt -1.48610902 0.273474991
vt 0.230000004 1.48610902
vt 0.239999995 1.48610902
vt 0.230000004 1.60278201
vt 0.230000004 0.390147001
vt 0.239999995 0.273474991
vt 0.239999995 0.397217989
vt 0.230000004 0.390147001
vt 0.239999995 0.397217989
vt 0.140000001 0.390147001
vt 0.140000001 0.390147001
vt 0.239999995 0.397217989
vt 0.129999995 0.397217989
vt -0.49000001 0.390147001
vt -0.479999989 0.397217989
vt -0.579999983 0.390147001
vt -0.579999983 0.390147001
vt -0.479999989 0.397217989
vt -0.589999974 0.397217989
vt -1.60278201 0.390147001
vt -1.60985303 0.397217989
vt -1.60278201 0.390147001
vt -0.579999983 0.390147001
vt -0.589999974 0.397217989
vt -0.589999974 0.273474991
vt -0.579999983 1.60278201
vt -0.589999974 1.48610902
vt -0.579999983 1.48610902
vt -0.579999983 1.48610902
vt -0.589999974 1.48610902
vt -0.589999974 1.48459601
vt -0.579999983 1.48610902
vt -0.589999974 1.48459601
vt -0.579999983 1.48459601
vt -0.579999983 1.48459601
vt -0.589999974 1.48459601
vt -0.589999974 1.48281002
vt -0.579999983 1.48459601
vt -0.589999974 1.48281002
vt -0.579999983 1.48281002
vt -0.579999983 1.48281002
vt -0.589999974 1.48281002
vt -0.589999974 1.48099196
vt -0.579999983 1.48281002
vt -0.589999974 1.48099196
vt -0.579999983 1.48099196
vt -1.48099196 0.272267014
vt -1.48099196 0.272267014
vt -1.48099196 0.272267014
vt -0.579999983 1.48099196
vt -0.589999974 1.48099196
vt -0.579999983 1.42795897
vt -0.579999983 1.42795897
vt -0.589999974 1.48099196
vt -0.589999974 1.41735303
vt -1.42795897 0.289943993
vt -1.41735303 0.293480009
vt -1.42795897 0.289943993
vt -0.579999983 1.42795897
vt -0.589999974 1.41735303
vt -0.479999989 1.41735303
vt -0.579999983 1.42795897
vt -0.479999989 1.41735303
vt -0.49000001 1.42795897
vt -0.49000001 1.42795897
vt -0.479999989 1.41735303
vt -0.479999989 1.48099196
vt -0.49000001 1.42795897
vt -0.479999989 1.48099196
vt -0.49000001 1.48099196
vt -0.49000001 1.48099196
vt -0.479999989 1.48099196
vt -0.479999989 1.48281002
vt -0.49000001 1.48099196
vt -0.479999989 1.48281002
vt -0.49000001 1.48281002
vt -0.49000001 1.48281002
vt -0.479999989 1.48281002
vt -0.479999989 1.48459601
vt -0.49000001 1.48281002
vt -0.479999989 1.48459601
vt -0.49000001 1.48459601
vt -0.49000001 1.48459601
vt -0.479999989 1.48459601
vt -0.479999989 1.48610902
vt -0.49000001 1.48459601
vt -0.479999989 1.48610902
vt -0.49000001 1.48610902
vt -1.48610902 0.273474991
vt -1.48610902 0.273474991
vt -1.48610902 0.273474991
vt -0.49000001 1.48610902
vt -0.479999989 1.48610902
vt -0.49000001 1.60278201
vt -0.49000001 0.390147001
vt -0.479999989 0.273474991
vt -0.479999989 0.397217989
vt 0.49000001 0.397217989
vt 0.49000001 0.273474991
vt 0.5 0.390147001
vt -1.60278201 0.390147001
vt -1.48610902 0.273474991
vt -1.48610902 0.273474991
vt 0.5 1.60278201
vt 0.49000001 1.48610902
vt 0.5 1.48610902
vt 0.5 1.48610902
vt 0.49000001 1.48610902
vt 0.49000001 1.48459601
vt 0.5 1.48610902
vt 0.49000001 1.48459601
vt 0.5 1.48459601
vt 0.5 1.48459601
vt 0.49000001 1.48459601
vt 0.49000001 1.48281002
vt 0.5 1.48459601
vt 0.49000001 1.48281002
vt 0.5 1.48281002
vt 0.5 1.48281002
vt 0.49000001 1.48281002
vt 0.49000001 1.48099196
vt 0.5 1.48281002
vt 0.49000001 1.48099196
vt 0.5 1.48099196
vt -1.48099196 0.272267014
vt -1.48099196 0.272267014
vt -1.48099196 0.272267014
vt 0.5 1.48099196
vt 0.49000001 1.48099196
vt 0.5 1.42795897
vt 0.5 1.42795897
vt 0.49000001 1.48099196
vt 0.49000001 1.41735303
vt -1.42795897 0.289943993
vt -1.41735303 0.293480009
vt -1.42795897 0.289943993
vt 0.5 1.42795897
vt 0.49000001 1.41735303
vt 0.600000024 1.41735303
vt 0.5 1.42795897
vt 0.600000024 1.41735303
vt 0.589999974 1.42795897
vt 0.589999974 1.42795897
vt 0.600000024 1.41735303
vt 0.600000024 1.48099196
vt 0.589999974 1.42795897
vt 0.600000024 1.48099196
vt 0.589999974 1.48099196
vt 0.589999974 1.48099196
vt 0.600000024 1.48099196
vt 0.600000024 1.48281002
vt 0.589999974 1.48099196
vt 0.600000024 1.48281002
vt 0.589999974 1.48281002
vt 0.589999974 1.48281002
vt 0.600000024 1.48281002
vt 0.600000024 1.48459601
vt 0.589999974 1.48281002
vt 0.600000024 1.48459601
vt 0.589999974 1.48459601
vt 0.589999974 1.48459601
vt 0.600000024 1.48459601
vt 0.600000024 1.48610902
vt 0.589999974 1.48459601
vt 0.600000024 1.48610902
vt 0.589999974 1.48610902
vt -1.48610902 0.273474991
vt -1.48610902 0.273474991
vt -1.48610902 0.273474991
vt 0.589999974 1.48610902
vt 0.600000024 1.48610902
vt 0.589999974 1.60278201
vt 0.589999974 0.390147001
vt 0.600000024 0.273474991
vt 0.600000024 0.397217989
vt 0.589999974 0.390147001
vt 0.600000024 0.397217989
vt 0.5 0.390147001
vt 0.5 0.390147001
vt 0.600000024 0.397217989
vt 0.49000001 0.397217989
vt -0.230000004 1.48099196
vt -0.230000004 1.41735303
vt -0.219999999 1.42795897
vt -0.219999999 1.42795897
vt -0.230000004 1.41735303
vt -0.119999997 1.41735303
vt -0.219999999 1.42795897
vt -0.119999997 1.41735303
vt -0.129999995 1.42795897
vt -0.129999995 1.42795897
vt -0.119999997 1.41735303
vt -0.119999997 1.48099196
vt -0.129999995 1.42795897
vt -0.119999997 1.48099196
vt -0.129999995 1.48099196
vt -0.129999995 1.48099196
vt -0.119999997 1.48099196
vt -0.119999997 1.48281002
vt -0.129999995 1.48099196
vt -0.119999997 1.48281002
vt -0.129999995 1.48281002
vt -0.129999995 1.48281002
vt -0.119999997 1.48281002
vt -0.119999997 1.48459601
vt -0.129999995 1.48281002
vt -0.119999997 1.48459601
vt -0.129999995 1.48459601
vt -0.129999995 1.48459601
vt -0.119999997 1.48459601
vt -0.119999997 1.48610902
vt -0.129999995 1.48459601
vt -0.119999997 1.48610902
vt -0.129999995 1.48610902
vt -1.48610902 0.273474991
vt -1.48610902 0.273474991
vt -1.48610902 0.273474991
vt -0.129999995 1.48610902
vt -0.119999997 1.48610902
vt -0.129999995 1.60278201
vt -0.129999995 0.390147001
vt -0.119999997 0.273474991
vt -0.119999997 0.397217989
vt -0.129999995 0.390147001
vt -0.119999997 0.397217989
vt -0.219999999 0.390147001
vt -0.219999999 0.390147001
vt -0.119999997 0.397217989
vt -0.230000004 0.397217989
vt -1.60278201 0.390147001
vt -1.60985303 0.397217989
vt -1.60278201 0.390147001
vt -0.219999999 0.390147001
vt -0.230000004 0.397217989
vt -0.230000004 0.273474991
vt -0.219999999 1.60278201
vt -0.230000004 1.48610902
vt -0.219999999 1.48610902
vt -0.219999999 1.48610902
vt -0.230000004 1.48610902
vt -0.230000004 1.48459601
vt -0.219999999 1.48610902
vt -0.230000004 1.48459601
vt -0.219999999 1.48459601
vt -0.219999999 1.48459601
vt -0.230000004 1.48459601
vt -0.230000004 1.48281002
vt -0.219999999 1.48459601
vt -0.230000004 1.48281002
vt -0.219999999 1.48281002
vt -0.219999999 1.48281002
vt -0.230000004 1.48281002
vt -0.230000004 1.48099196
vt -0.219999999 1.48281002
vt -0.230000004 1.48099196
vt -0.219999999 1.48099196
vt -0.219999999 1.48099196
vt -0.230000004 1.48099196
vt -0.219999999 1.42795897
vt 1.60631704 0.400754005
vt 1.48257399 0.277009994
vt 1.60985303 0.397217989
vt -1.60985303 0.397217989
vt -1.48257399 0.277009994
vt -1.48257399 0.277009994
vt 1.60985303 0.397217989
vt 1.48257399 0.277009994
vt 1.48610902 0.273474991
vt -1.48610902 0.273474991
vt -1.48257399 0.277009994
vt -1.48257399 0.277009994
vt 1.48610902 0.273474991
vt 1.48257399 0.277009994
vt 1.48459601 0.272437006
vt -1.48459601 0.272437006
vt -1.48257399 0.277009994
vt -1.48257399 0.277009994
vt 1.48459601 0.272437006
vt 1.48257399 0.277009994
vt 1.48281002 0.272015989
vt -1.48281002 0.272015989
vt -1.48257399 0.277009994
vt -1.48257399 0.277009994
vt 1.48281002 0.272015989
vt 1.48257399 0.277009994
vt 1.48099196 0.272267014
vt -1.48099196 0.272267014
vt -1.48257399 0.277009994
vt -1.48257399 0.277009994
vt 1.48099196 0.272267014
vt 1.48257399 0.277009994
vt 1.41735303 0.293480009
vt 1.41735303 0.293480009
vt 1.48257399 0.277009994
vt 1.41893399 0.298222989
vt 0.949999988 1.48257399
vt 0.944999993 1.48257399
vt 0.949999988 1.41893399
vt 0.949999988 1.41893399
vt 0.944999993 1.48257399
vt 0.944999993 1.41893399
vt -0.949999988 1.48610902
vt -0.949999988 1.48459601
vt -0.939999998 1.48610902
vt -1.48610902 0.273474991
vt -1.48459601 0.272437006
vt -1.48459601 0.272437006
vt -0.939999998 1.48610902
vt -0.949999988 1.48459601
vt -0.939999998 1.48459601
vt -0.939999998 1.48459601
vt -0.949999988 1.48459601
vt -0.949999988 1.48281002
vt -0.939999998 1.48459601
vt -0.949999988 1.48281002
vt -0.939999998 1.48281002
vt -0.939999998 1.48281002
vt -0.949999988 1.48281002
vt -0.949999988 1.48099196
vt -0.939999998 1.48281002
vt -0.949999988 1.48099196
vt -0.939999998 1.48099196
vt -1.60631704 0.400754005
vt -1.60985303 0.397217989
vt -1.48257399 0.277009994
vt -1.48257399 0.277009994
vt -1.60985303 0.397217989
vt -1.48610902 0.273474991
vt -1.48257399 0.277009994
vt -1.48610902 0.273474991
vt -1.48257399 0.277009994
vt -1.48257399 0.277009994
vt -1.48610902 0.273474991
vt -1.48459601 0.272437006
vt -1.48257399 0.277009994
vt -1.48459601 0.272437006
vt -1.48257399 0.277009994
vt -1.48257399 0.277009994
vt -1.48459601 0.272437006
vt -1.48281002 0.272015989
vt -1.48257399 0.277009994
vt -1.48281002 0.272015989
vt -1.48257399 0.277009994
vt -1.48257399 0.277009994
vt -1.48281002 0.272015989
vt -1.48099196 0.272267014
vt -1.48257399 0.277009994
vt -1.48099196 0.272267014
vt -1.48257399 0.277009994
vt -1.48257399 0.277009994
vt -1.48099196 0.272267014
vt -1.41735303 0.293480009
vt -1.48257399 0.277009994
vt -1.41735303 0.293480009
vt -1.41893399 0.298222989
vt 0.949999988 0.298222989
vt 0.944999993 0.298222989
vt 0.949999988 0.293480009
vt -1.41735303 0.293480009
vt -1.41893399 0.298222989
vt -1.41893399 0.298222989
vt 0.949999988 0.293480009
vt 0.944999993 0.298222989
vt 0.839999974 0.293480009
vt 0.839999974 0.293480009
vt 0.944999993 0.298222989
vt 0.845000029 0.298222989
vt 0.839999974 0.293480009
vt 0.845000029 0.298222989
vt 0.839999974 0.298222989
vt 0.944999993 1.48257399
vt 0.949999988 1.48257399
vt 0.944999993 1.60278201
vt 0.944999993 1.60278201
vt 0.949999988 1.48257399
vt 0.949999988 1.60631704
vt -1.60278201 0.397217989
vt -1.60631704 0.400754005
vt -1.60278201 0.397217989
vt 0.944999993 0.397217989
vt 0.949999988 0.400754005
vt 0.839999974 0.400754005
vt 0.944999993 0.397217989
vt 0.839999974 0.400754005
vt 0.845000029 0.397217989
vt 0.845000029 1.60278201
vt 0.839999974 1.60631704
vt 0.839999974 1.48257399
vt 0.845000029 1.60278201
vt 0.839999974 1.48257399
vt 0.845000029 1.48257399
vt -0.845000029 0.397217989
vt -0.845000029 0.467929006
vt -0.944999993 0.397217989
vt -0.944999993 0.397217989
vt -0.845000029 0.467929006
vt -0.944999993 0.467929006
vt -1.40479195 0.312364995
vt -1.41186297 0.319436014
vt -1.41893399 0.298222989
vt -1.41893399 0.298222989
vt -1.41186297 0.319436014
vt -1.41186297 0.319436014
vt -1.41893399 0.298222989
vt -1.41186297 0.319436014
vt -1.48257399 0.277009994
vt -1.48257399 0.277009994
vt -1.41186297 0.319436014
vt -1.41186297 0.34772101
vt -1.48257399 0.277009994
vt -1.41186297 0.34772101
vt -1.60278201 0.397217989
vt -1.60278201 0.397217989
vt -1.41186297 0.34772101
vt -1.53207099 0.467929006
vt 1.40479195 0.312364995
vt 1.41893399 0.298222989
vt 1.41186297 0.319436014
vt 1.41186297 0.319436014
vt 1.41893399 0.298222989
vt 1.48257399 0.277009994
vt 1.41186297 0.319436014
vt 1.48257399 0.277009994
vt 1.41186297 0.34772101
vt 1.41186297 0.34772101
vt 1.48257399 0.277009994
vt 1.60278201 0.397217989
vt 1.41186297 0.34772101
vt 1.60278201 0.397217989
vt 1.53207099 0.467929006
vt 0.944999993 0.319436014
vt 0.944999993 0.34772101
vt 0.845000029 0.319436014
vt 0.845000029 0.319436014
vt 0.944999993 0.34772101
vt 0.845000029 0.34772101
vt 0.944999993 1.40479195
vt 0.944999993 1.41186297
vt 0.845000029 1.40479195
vt 0.845000029 1.40479195
vt 0.944999993 1.41186297
vt 0.845000029 1.41186297
vt -0.850000024 1.48610902
vt -0.850000024 1.48459601
vt -0.839999974 1.48610902
vt -1.48610902 0.273474991
vt -1.48459601 0.272437006
vt -1.48459601 0.272437006
vt -0.839999974 1.48610902
vt -0.850000024 1.48459601
vt -0.839999974 1.48459601
vt -0.839999974 1.48459601
vt -0.850000024 1.48459601
vt -0.850000024 1.48281002
vt -0.839999974 1.48459601
vt -0.850000024 1.48281002
vt -0.839999974 1.48281002
vt -0.839999974 1.48281002
vt -0.850000024 1.48281002
vt -0.850000024 1.48099196
vt -0.839999974 1.48281002
vt -0.850000024 1.48099196
vt -0.839999974 1.48099196
vt -0.850000024 1.48610902
vt -0.839999974 1.48610902
vt -0.850000024 1.60278201
vt -0.850000024 0.390147001
vt -0.839999974 0.273474991
vt -0.839999974 0.397217989
vt -0.850000024 0.390147001
vt -0.839999974 0.397217989
vt -0.939999998 0.390147001
vt -0.939999998 0.390147001
vt -0.839999974 0.397217989
vt -0.949999988 0.397217989
vt -1.60278201 0.390147001
vt -1.60985303 0.397217989
vt -1.60278201 0.390147001
vt -0.939999998 0.390147001
vt -0.949999988 0.397217989
vt -0.949999988 0.273474991
vt -0.939999998 1.60278201
vt -0.949999988 1.48610902
vt -0.939999998 1.48610902
vt -0.850000024 1.48099196
vt -0.850000024 1.42795897
vt -0.839999974 1.48099196
vt -1.48099196 0.272267014
vt -1.42795897 0.289943993
vt -1.42795897 0.289943993
vt -0.839999974 1.48099196
vt -0.850000024 1.42795897
vt -0.839999974 1.41735303
vt -0.839999974 1.41735303
vt -0.850000024 1.42795897
vt -0.939999998 1.42795897
vt -0.839999974 1.41735303
vt -0.939999998 1.42795897
vt -0.949999988 1.41735303
vt -1.41735303 0.293480009
vt -1.42795897 0.289943993
vt -1.42795897 0.289943993
vt -0.949999988 1.41735303
vt -0.939999998 1.42795897
vt -0.949999988 1.48099196
vt -0.949999988 1.48099196
vt -0.939999998 1.42795897
vt -0.939999998 1.48099196
vt -0.939999998 1.60278201
vt -0.939999998 1.53207099
vt -0.850000024 1.60278201
vt -0.850000024 1.60278201
vt -0.939999998 1.53207099
vt -0.850000024 1.53207099
vt -0.939999998 1.53207099
vt -0.939999998 1.41686296
vt -0.850000024 1.53207099
vt -0.850000024 1.53207099
vt -0.939999998 1.41686296
vt -0.850000024 1.41686296
vt -0.850000024 0.317364991
vt -0.850000024 0.345649987
vt -0.939999998 0.317364991
vt -0.939999998 0.317364991
vt -0.850000024 0.345649987
vt -0.939999998 0.345649987
vt 1.41186297 0.312364995
vt 1.42954099 0.294687986
vt 1.41686296 0.317364991
vt 1.41686296 0.317364991
vt 1.42954099 0.294687986
vt 1.60278201 0.390147001
vt 1.41686296 0.317364991
vt 1.60278201 0.390147001
vt 1.41686296 0.345649987
vt 1.41686296 0.345649987
vt 1.60278201 0.390147001
vt 1.53207099 0.460857987
vt 1.48281002 0.272015989
vt 1.48459601 0.272437006
vt 1.48099196 0.272267014
vt 1.48099196 0.272267014
vt 1.48459601 0.272437006
vt 1.48610902 0.273474991
vt -1.48099196 0.272267014
vt -1.48610902 0.273474991
vt -1.48099196 0.272267014
vt 1.48099196 0.272267014
vt 1.48610902 0.273474991
vt 1.60278201 0.390147001
vt -1.48099196 0.272267014
vt -1.60278201 0.390147001
vt -1.48099196 0.272267014
vt 1.48099196 0.272267014
vt 1.60278201 0.390147001
vt 1.42954099 0.294687986
vt 1.48099196 0.272267014
vt 1.42954099 0.294687986
vt 1.42795897 0.289943993
vt -1.42795897 0.289943993
vt -1.42954099 0.294687986
vt -1.48099196 0.272267014
vt -1.48099196 0.272267014
vt -1.42954099 0.294687986
vt -1.60278201 0.390147001
vt -1.48099196 0.272267014
vt -1.60278201 0.390147001
vt -1.48099196 0.272267014
vt -1.48099196 0.272267014
vt -1.60278201 0.390147001
vt -1.48610902 0.273474991
vt -1.48099196 0.272267014
vt -1.48610902 0.273474991
vt -1.48099196 0.272267014
vt -1.48099196 0.272267014
vt -1.48610902 0.273474991
vt -1.48459601 0.272437006
vt -1.48099196 0.272267014
vt -1.48459601 0.272437006
vt -1.48281002 0.272015989
vt -1.53207099 0.460857987
vt -1.60278201 0.390147001
vt -1.41686296 0.345649987
vt -1.41686296 0.345649987
vt -1.60278201 0.390147001
vt -1.60278201 0.390147001
vt -1.41686296 0.345649987
vt -1.60278201 0.390147001
vt -1.41686296 0.317364991
vt -1.41686296 0.317364991
vt -1.60278201 0.390147001
vt -1.42954099 0.294687986
vt -1.41686296 0.317364991
vt -1.42954099 0.294687986
vt -1.41186297 0.312364995
vt -0.939999998 1.41686296
vt -0.939999998 1.41186297
vt -0.850000024 1.41686296
vt -0.850000024 1.41686296
vt -0.939999998 1.41186297
vt -0.850000024 1.41186297
vt -0.939999998 0.312364995
vt -0.939999998 0.294687986
vt -0.850000024 0.312364995
vt -0.850000024 0.312364995
vt -0.939999998 0.294687986
vt -0.850000024 0.294687986
vt -0.939999998 0.289943993
vt -0.850000024 0.289943993
vt -0.939999998 0.294687986
vt -0.939999998 0.294687986
vt -0.850000024 0.289943993
vt -0.850000024 0.294687986
f 1/1 2/2 3/3
f 3/4 2/5 4/6
f 5/7 6/8 7/9
f 7/10 6/11 8/12
f 9/13 10/14 11/15
f 11/16 10/17 12/18
f 13/19 14/20 15/21
f 15/22 14/23 14/24
f 15/25 14/26 16/27
f 16/28 14/29 17/30
f 16/31 17/32 18/33
f 19/34 20/35 13/36
f 13/37 20/38 14/39
f 21/40 22/41 23/42
f 23/43 22/44 22/45
f 23/46 22/47 24/48
f 24/49 22/50 25/51
f 24/52 25/53 12/54
f 12/55 25/56 11/57
f 19/58 26/59 20/60
f 20/61 26/62 27/63
f 20/64 27/65 28/66
f 28/67 27/68 29/69
f 15/70 16/71 26/72
f 26/73 16/74 27/75
f 30/76 31/77 23/78
f 23/79 31/80 31/81
f 23/82 31/83 5/84
f 5/85 31/86 32/87
f 5/88 32/89 6/90
f 18/91 17/92 29/93
f 29/94 17/95 28/96
f 7/97 8/98 10/99
f 10/100 8/101 33/102
f 10/103 33/104 10/105
f 10/106 33/107 34/108
f 10/109 34/110 12/111
f 12/112 34/113 35/114
f 12/115 35/116 24/117
f 36/118 37/119 28/120
f 28/121 37/122 37/123
f 28/124 37/125 20/126
f 20/127 37/128 37/129
f 20/130 37/131 38/132
f 38/133 37/134 37/135
f 38/136 37/137 39/138
f 39/139 37/140 40/141
f 41/142 36/143 17/144
f 17/145 36/146 28/147
f 41/148 17/149 42/150
f 42/151 17/152 14/153
f 42/154 14/155 42/156
f 42/157 14/158 43/159
f 42/160 43/161 42/162
f 42/163 43/164 44/165
f 42/166 44/167 45/168
f 26/169 19/170 15/171
f 15/172 19/173 13/174
f 46/175 5/176 47/177
f 47/178 5/179 7/180
f 47/181 7/182 48/183
f 48/184 7/185 10/186
f 48/187 10/188 9/189
f 16/190 18/191 27/192
f 27/193 18/194 29/195
f 6/196 32/197 8/198
f 8/199 32/200 49/201
f 8/202 49/203 8/204
f 8/205 49/206 50/207
f 8/208 50/209 8/210
f 8/211 50/212 51/213
f 8/214 51/215 8/216
f 8/217 51/218 52/219
f 8/220 52/221 8/222
f 8/223 52/224 53/225
f 8/226 53/227 33/228
f 54/229 55/230 56/231
f 56/232 55/233 57/234
f 34/235 33/236 58/237
f 58/238 33/239 53/240
f 59/241 60/242 61/243
f 61/244 60/245 62/246
f 60/247 59/248 63/249
f 63/250 59/251 59/252
f 63/253 59/254 64/255
f 64/256 59/257 65/258
f 64/259 65/260 66/261
f 60/262 63/263 62/264
f 62/265 63/266 67/267
f 62/268 67/269 61/270
f 61/271 67/272 68/273
f 61/274 68/275 69/276
f 69/277 68/278 70/279
f 63/280 64/281 67/282
f 67/283 64/284 68/285
f 64/286 66/287 68/288
f 68/289 66/290 70/291
f 66/292 65/293 70/294
f 70/295 65/296 69/297
f 71/298 72/299 73/300
f 73/301 72/302 74/303
f 73/304 74/305 73/306
f 73/307 74/308 61/309
f 73/310 61/311 73/312
f 73/313 61/314 69/315
f 73/316 69/317 75/318
f 69/319 65/320 75/321
f 75/322 65/323 76/324
f 77/325 78/326 79/327
f 79/328 78/329 80/330
f 79/331 80/332 79/333
f 79/334 80/335 81/336
f 79/337 81/338 79/339
f 79/340 81/341 82/342
f 79/343 82/344 79/345
f 79/346 82/347 83/348
f 79/349 83/350 79/351
f 79/352 83/353 84/354
f 79/355 84/356 85/357
f 86/358 87/359 88/360
f 88/361 87/362 89/363
f 87/364 86/365 90/366
f 90/367 86/368 91/369
f 90/370 91/371 92/372
f 92/373 91/374 93/375
f 92/376 93/377 94/378
f 85/379 84/380 93/381
f 93/382 84/383 84/384
f 93/385 84/386 95/387
f 95/388 84/389 96/390
f 95/391 96/392 97/393
f 89/394 98/395 88/396
f 88/397 98/398 98/399
f 88/400 98/401 99/402
f 99/403 98/404 100/405
f 99/406 100/407 95/408
f 95/409 100/410 101/411
f 99/412 102/413 88/414
f 88/415 102/416 103/417
f 88/418 103/419 88/420
f 88/421 103/422 77/423
f 88/424 77/425 86/426
f 86/427 77/428 79/429
f 86/430 79/431 91/432
f 95/433 97/434 99/435
f 99/436 97/437 102/438
f 97/439 96/440 102/441
f 102/442 96/443 104/444
f 102/445 104/446 102/447
f 102/448 104/449 105/450
f 102/451 105/452 102/453
f 102/454 105/455 106/456
f 102/457 106/458 102/459
f 102/460 106/461 107/462
f 102/463 107/464 102/465
f 102/466 107/467 108/468
f 102/469 108/470 103/471
f 76/472 65/473 109/474
f 109/475 65/476 59/477
f 109/478 59/479 109/480
f 109/481 59/482 110/483
f 109/484 110/485 109/486
f 109/487 110/488 111/489
f 109/490 111/491 112/492
f 55/493 113/494 57/495
f 57/496 113/497 113/498
f 57/499 113/500 114/501
f 114/502 113/503 113/504
f 114/505 113/506 115/507
f 115/508 113/509 113/510
f 115/511 113/512 116/513
f 116/514 113/515 113/516
f 116/517 113/518 117/519
f 117/520 113/521 113/522
f 117/523 113/524 118/525
f 118/526 113/527 119/528
f 108/529 78/530 103/531
f 103/532 78/533 77/534
f 120/535 121/536 122/537
f 122/538 121/539 123/540
f 121/541 120/542 124/543
f 124/544 120/545 120/546
f 124/547 120/548 125/549
f 125/550 120/551 126/552
f 125/553 126/554 127/555
f 121/556 124/557 123/558
f 123/559 124/560 128/561
f 123/562 128/563 122/564
f 122/565 128/566 129/567
f 122/568 129/569 130/570
f 130/571 129/572 131/573
f 124/574 125/575 128/576
f 128/577 125/578 129/579
f 125/580 127/581 129/582
f 129/583 127/584 131/585
f 127/586 126/587 131/588
f 131/589 126/590 130/591
f 132/592 133/593 134/594
f 134/595 133/596 135/597
f 133/598 132/599 136/600
f 136/601 132/602 137/603
f 136/604 137/605 138/606
f 138/607 137/608 139/609
f 138/610 139/611 140/612
f 137/613 132/614 141/615
f 141/616 132/617 132/618
f 141/619 132/620 142/621
f 142/622 132/623 134/624
f 142/625 134/626 143/627
f 143/628 134/629 134/630
f 143/631 134/632 144/633
f 144/634 134/635 145/636
f 130/637 126/638 146/639
f 146/640 126/641 147/642
f 146/643 148/644 130/645
f 130/646 148/647 148/648
f 130/649 148/650 122/651
f 122/652 148/653 148/654
f 122/655 148/656 149/657
f 149/658 148/659 148/660
f 149/661 148/662 150/663
f 150/664 148/665 151/666
f 135/667 152/668 134/669
f 134/670 152/671 152/672
f 134/673 152/674 145/675
f 145/676 152/677 153/678
f 145/679 153/680 154/681
f 154/682 153/683 155/684
f 156/685 157/686 139/687
f 139/688 157/689 157/690
f 139/691 157/692 154/693
f 154/694 157/695 158/696
f 154/697 158/698 159/699
f 154/700 159/701 145/702
f 145/703 159/704 144/705
f 159/706 158/707 144/708
f 144/709 158/710 160/711
f 144/712 160/713 144/714
f 144/715 160/716 161/717
f 144/718 161/719 144/720
f 144/721 161/722 162/723
f 144/724 162/725 144/726
f 144/727 162/728 163/729
f 144/730 163/731 144/732
f 144/733 163/734 164/735
f 144/736 164/737 143/738
f 147/739 126/740 165/741
f 165/742 126/743 120/744
f 165/745 120/746 165/747
f 165/748 120/749 166/750
f 165/751 166/752 165/753
f 165/754 166/755 167/756
f 165/757 167/758 168/759
f 164/760 169/761 143/762
f 143/763 169/764 142/765
f 170/766 171/767 172/768
f 172/769 171/770 171/771
f 172/772 171/773 173/774
f 173/775 171/776 171/777
f 173/778 171/779 174/780
f 174/781 171/782 175/783
f 174/784 175/785 176/786
f 176/787 175/788 177/789
f 171/790 178/791 175/792
f 176/793 179/794 174/795
f 174/796 179/797 180/798
f 178/799 181/800 175/801
f 175/802 181/803 182/804
f 119/805 183/806 118/807
f 118/808 183/809 183/810
f 118/811 183/812 184/813
f 184/814 183/815 185/816
f 184/817 185/818 186/819
f 113/820 187/821 119/822
f 119/823 187/824 183/825
f 187/826 113/827 188/828
f 188/829 113/830 55/831
f 188/832 55/833 188/834
f 188/835 55/836 54/837
f 188/838 54/839 189/840
f 189/841 54/842 190/843
f 189/844 190/845 191/846
f 192/847 183/848 193/849
f 193/850 183/851 187/852
f 193/853 187/854 194/855
f 194/856 187/857 188/858
f 194/859 188/860 195/861
f 196/862 197/863 185/864
f 185/865 197/866 197/867
f 185/868 197/869 191/870
f 191/871 197/872 198/873
f 191/874 198/875 189/876
f 189/877 198/878 199/879
f 195/880 188/881 199/882
f 199/883 188/884 189/885
f 186/886 190/887 184/888
f 184/889 190/890 190/891
f 184/892 190/893 200/894
f 200/895 190/896 190/897
f 200/898 190/899 201/900
f 201/901 190/902 190/903
f 201/904 190/905 202/906
f 202/907 190/908 190/909
f 202/910 190/911 203/912
f 203/913 190/914 190/915
f 203/916 190/917 56/918
f 56/919 190/920 54/921
f 181/922 204/923 182/924
f 182/925 204/926 205/927
f 182/928 205/929 206/930
f 206/931 205/932 205/933
f 206/934 205/935 207/936
f 207/937 205/938 208/939
f 182/940 206/941 209/942
f 205/943 204/944 210/945
f 210/946 204/947 204/948
f 210/949 204/950 211/951
f 211/952 204/953 212/954
f 182/955 209/956 175/957
f 175/958 209/959 177/960
f 209/961 206/962 177/963
f 177/964 206/965 176/966
f 206/967 207/968 176/969
f 176/970 207/971 179/972
f 207/973 208/974 179/975
f 179/976 208/977 180/978
f 208/979 205/980 180/981
f 180/982 205/983 174/984
f 108/985 107/986 59/987
f 59/988 107/989 107/990
f 59/991 107/992 110/993
f 110/994 107/995 106/996
f 110/997 106/998 111/999
f 111/1000 106/1001 105/1002
f 111/1003 105/1004 112/1005
f 112/1006 105/1007 104/1008
f 112/1009 104/1010 109/1011
f 109/1012 104/1013 104/1014
f 109/1015 104/1016 76/1017
f 76/1018 104/1019 96/1020
f 76/1021 96/1022 76/1023
f 76/1024 96/1025 84/1026
f 76/1027 84/1028 75/1029
f 75/1030 84/1031 83/1032
f 75/1033 83/1034 73/1035
f 73/1036 83/1037 82/1038
f 73/1039 82/1040 71/1041
f 71/1042 82/1043 81/1044
f 71/1045 81/1046 72/1047
f 72/1048 81/1049 80/1050
f 72/1051 80/1052 74/1053
f 74/1054 80/1055 80/1056
f 74/1057 80/1058 61/1059
f 61/1060 80/1061 78/1062
f 61/1063 78/1064 59/1065
f 59/1066 78/1067 108/1068
f 205/1069 56/1070 174/1071
f 174/1072 56/1073 57/1074
f 174/1075 57/1076 174/1077
f 174/1078 57/1079 114/1080
f 174/1081 114/1082 173/1083
f 173/1084 114/1085 115/1086
f 173/1087 115/1088 172/1089
f 172/1090 115/1091 116/1092
f 172/1093 116/1094 170/1095
f 170/1096 116/1097 117/1098
f 170/1099 117/1100 171/1101
f 171/1102 117/1103 117/1104
f 171/1105 117/1106 178/1107
f 178/1108 117/1109 118/1110
f 178/1111 118/1112 178/1113
f 178/1114 118/1115 184/1116
f 178/1117 184/1118 181/1119
f 181/1120 184/1121 200/1122
f 181/1123 200/1124 204/1125
f 204/1126 200/1127 201/1128
f 204/1129 201/1130 212/1131
f 212/1132 201/1133 202/1134
f 212/1135 202/1136 211/1137
f 211/1138 202/1139 203/1140
f 211/1141 203/1142 210/1143
f 210/1144 203/1145 203/1146
f 210/1147 203/1148 205/1149
f 205/1150 203/1151 56/1152
f 164/1153 163/1154 120/1155
f 120/1156 163/1157 163/1158
f 120/1159 163/1160 166/1161
f 166/1162 163/1163 162/1164
f 166/1165 162/1166 167/1167
f 167/1168 162/1169 161/1170
f 167/1171 161/1172 168/1173
f 168/1174 161/1175 160/1176
f 168/1177 160/1178 165/1179
f 165/1180 160/1181 160/1182
f 165/1183 160/1184 147/1185
f 147/1186 160/1187 158/1188
f 147/1189 158/1190 147/1191
f 147/1192 158/1193 157/1194
f 147/1195 157/1196 146/1197
f 146/1198 157/1199 213/1200
f 146/1201 213/1202 148/1203
f 148/1204 213/1205 214/1206
f 148/1207 214/1208 151/1209
f 151/1210 214/1211 215/1212
f 151/1213 215/1214 150/1215
f 150/1216 215/1217 216/1218
f 150/1219 216/1220 149/1221
f 149/1222 216/1223 216/1224
f 149/1225 216/1226 122/1227
f 122/1228 216/1229 169/1230
f 122/1231 169/1232 120/1233
f 120/1234 169/1235 164/1236
f 49/1237 32/1238 41/1239
f 41/1240 32/1241 31/1242
f 41/1243 31/1244 36/1245
f 36/1246 31/1247 217/1248
f 36/1249 217/1250 37/1251
f 37/1252 217/1253 218/1254
f 37/1255 218/1256 40/1257
f 40/1258 218/1259 219/1260
f 40/1261 219/1262 39/1263
f 39/1264 219/1265 220/1266
f 39/1267 220/1268 38/1269
f 38/1270 220/1271 220/1272
f 38/1273 220/1274 20/1275
f 20/1276 220/1277 58/1278
f 20/1279 58/1280 14/1281
f 14/1282 58/1283 53/1284
f 14/1285 53/1286 14/1287
f 14/1288 53/1289 52/1290
f 14/1291 52/1292 43/1293
f 43/1294 52/1295 51/1296
f 43/1297 51/1298 44/1299
f 44/1300 51/1301 50/1302
f 44/1303 50/1304 45/1305
f 45/1306 50/1307 49/1308
f 45/1309 49/1310 42/1311
f 42/1312 49/1313 41/1314
f 3/1315 221/1316 1/1317
f 1/1318 221/1319 221/1320
f 1/1321 221/1322 222/1323
f 222/1324 221/1325 221/1326
f 222/1327 221/1328 223/1329
f 223/1330 221/1331 221/1332
f 223/1333 221/1334 224/1335
f 224/1336 221/1337 221/1338
f 224/1339 221/1340 225/1341
f 225/1342 221/1343 221/1344
f 225/1345 221/1346 226/1347
f 226/1348 221/1349 227/1350
f 221/1351 228/1352 227/1353
f 227/1354 228/1355 229/1356
f 222/1357 223/1358 230/1359
f 230/1360 223/1361 223/1362
f 230/1363 223/1364 231/1365
f 231/1366 223/1367 224/1368
f 231/1369 224/1370 232/1371
f 232/1372 224/1373 225/1374
f 232/1375 225/1376 233/1377
f 4/1378 2/1379 234/1380
f 234/1381 2/1382 235/1383
f 234/1384 235/1385 234/1386
f 234/1387 235/1388 236/1389
f 234/1390 236/1391 234/1392
f 234/1393 236/1394 237/1395
f 234/1396 237/1397 234/1398
f 234/1399 237/1400 238/1401
f 234/1402 238/1403 234/1404
f 234/1405 238/1406 239/1407
f 234/1408 239/1409 240/1410
f 227/1411 229/1412 226/1413
f 226/1414 229/1415 229/1416
f 226/1417 229/1418 239/1419
f 239/1420 229/1421 241/1422
f 239/1423 241/1424 240/1425
f 228/1426 221/1427 242/1428
f 242/1429 221/1430 3/1431
f 242/1432 3/1433 242/1434
f 242/1435 3/1436 4/1437
f 242/1438 4/1439 243/1440
f 243/1441 4/1442 234/1443
f 243/1444 234/1445 244/1446
f 243/1447 245/1448 242/1449
f 242/1450 245/1451 246/1452
f 247/1453 248/1454 241/1455
f 241/1456 248/1457 248/1458
f 241/1459 248/1460 244/1461
f 244/1462 248/1463 249/1464
f 244/1465 249/1466 243/1467
f 243/1468 249/1469 245/1470
f 250/1471 229/1472 251/1473
f 251/1474 229/1475 228/1476
f 251/1477 228/1478 252/1479
f 252/1480 228/1481 242/1482
f 252/1483 242/1484 246/1485
f 251/1486 252/1487 248/1488
f 248/1489 252/1490 249/1491
f 250/1492 251/1493 247/1494
f 247/1495 251/1496 248/1497
f 253/1498 254/1499 235/1500
f 235/1501 254/1502 254/1503
f 235/1504 254/1505 236/1506
f 236/1507 254/1508 255/1509
f 236/1510 255/1511 237/1512
f 237/1513 255/1514 256/1515
f 237/1516 256/1517 238/1518
f 253/1519 235/1520 257/1521
f 257/1522 235/1523 2/1524
f 257/1525 2/1526 258/1527
f 258/1528 2/1529 1/1530
f 258/1531 1/1532 258/1533
f 258/1534 1/1535 222/1536
f 258/1537 222/1538 230/1539
f 256/1540 259/1541 238/1542
f 238/1543 259/1544 259/1545
f 238/1546 259/1547 239/1548
f 239/1549 259/1550 260/1551
f 239/1552 260/1553 226/1554
f 226/1555 260/1556 260/1557
f 226/1558 260/1559 225/1560
f 225/1561 260/1562 233/1563
f 258/1564 261/1565 257/1566
f 257/1567 261/1568 262/1569
f 261/1570 263/1571 262/1572
f 262/1573 263/1574 264/1575
f 265/1576 264/1577 266/1578
f 266/1579 264/1580 263/1581
f 267/1582 268/1583 265/1584
f 265/1585 268/1586 257/1587
f 265/1588 257/1589 264/1590
f 264/1591 257/1592 262/1593
f 255/1594 254/1595 256/1596
f 256/1597 254/1598 253/1599
f 256/1600 253/1601 256/1602
f 256/1603 253/1604 257/1605
f 256/1606 257/1607 256/1608
f 256/1609 257/1610 268/1611
f 256/1612 268/1613 259/1614
f 260/1615 269/1616 233/1617
f 233/1618 269/1619 258/1620
f 233/1621 258/1622 233/1623
f 233/1624 258/1625 230/1626
f 233/1627 230/1628 233/1629
f 233/1630 230/1631 231/1632
f 233/1633 231/1634 232/1635
f 261/1636 258/1637 263/1638
f 263/1639 258/1640 258/1641
f 263/1642 258/1643 266/1644
f 266/1645 258/1646 269/1647
f 266/1648 269/1649 270/1650
f 266/1651 270/1652 265/1653
f 265/1654 270/1655 267/1656
f 270/1657 269/1658 267/1659
f 267/1660 269/1661 268/1662
f 260/1663 259/1664 269/1665
f 269/1666 259/1667 268/1668
