# Exported from USD for MuJoCo with source material subsets
v 11.3753366 -6.75603233 0.0350026608
v 11.3753361 -6.75603233 1.19500221
v 11.375337 -7.89203201 0.0350026608
v 11.3753364 -7.89203201 1.19500221
v 10.426287 -7.89203201 1.1950017
v 10.4262866 -6.75603233 1.1950017
v 10.4262875 -7.89203201 0.0350021839
v 10.4262872 -6.75603233 0.0350021839
v 10.6011119 -7.89203201 1.15000184
v 10.6011122 -7.89203201 0.5600021
v 10.601112 -8.28403221 1.15000184
v 10.6011123 -8.28403221 0.5600021
v 11.2204919 -7.89203201 0.560002279
v 11.220492 -8.28403173 0.560002279
v 11.2204916 -7.89203201 1.15000207
v 11.2204917 -8.28403173 1.15000207
v 10.9388514 -8.09908138 1.15000196
v 10.9058304 -8.16210876 1.15000196
v 10.9058304 -8.036054 1.15000196
v 10.8589314 -8.09908138 1.15000196
v 10.9364415 -8.12097059 1.15000196
v 10.9295025 -8.14022003 1.15000196
v 10.9188714 -8.15450703 1.15000196
v 10.8613413 -8.0771917 1.15000196
v 10.8682803 -8.05794273 1.15000196
v 10.8789114 -8.04365574 1.15000196
v 10.8919524 -8.036054 1.15000196
v 10.9188714 -8.04365574 1.15000196
v 10.9295025 -8.05794273 1.15000196
v 10.9364415 -8.0771917 1.15000196
v 10.8613413 -8.12097059 1.15000196
v 10.8682803 -8.14022003 1.15000196
v 10.8789114 -8.15450703 1.15000196
v 10.8919524 -8.16210876 1.15000196
v 10.4862266 -6.75603233 1.1350017
v 10.4862269 -7.71603237 1.1350017
v 10.4862271 -6.75603233 0.0550021648
v 10.4862275 -7.71603237 0.0550021648
v 11.3153962 -6.75603233 1.13500221
v 11.3153964 -7.71603189 1.13500221
v 11.3153966 -6.75603233 0.0550026417
v 11.3153969 -7.71603189 0.0550026417
vt -0.0350000001 0.763997972
vt -1.19500005 0.763997972
vt -0.0350000001 -0.372002006
vt -0.0350000001 -0.372002006
vt -1.19500005 0.763997972
vt -1.19500005 -0.372002006
vt 1.19500005 -0.372002006
vt 1.19500005 0.763997972
vt 0.0350000001 -0.372002006
vt 0.0350000001 -0.372002006
vt 1.19500005 0.763997972
vt 0.0350000001 0.763997972
vt 1.14999998 -0.372002006
vt 0.560000002 -0.372002006
vt 1.14999998 -0.764002025
vt 1.14999998 -0.764002025
vt 0.560000002 -0.372002006
vt 0.560000002 -0.764002025
vt 0.299699008 -0.372002006
vt -0.319680989 -0.372002006
vt 0.299699008 -0.764002025
vt 0.299699008 -0.764002025
vt -0.319680989 -0.372002006
vt -0.319680989 -0.764002025
vt -0.560000002 -0.372002006
vt -1.14999998 -0.372002006
vt -0.560000002 -0.764002025
vt -0.560000002 -0.764002025
vt -1.14999998 -0.372002006
vt -1.14999998 -0.764002025
vt 0.319680989 -0.764002025
vt 0.319680989 -0.372002006
vt 0.0380400009 -0.579051971
vt 0.319680989 -0.764002025
vt 0.0050189998 -0.642078996
vt -0.299699008 -0.764002025
vt 0.319680989 -0.372002006
vt -0.299699008 -0.372002006
vt 0.0050189998 -0.516023993
vt -0.0418800004 -0.579051971
vt -0.299699008 -0.372002006
vt -0.299699008 -0.764002025
vt 0.0380400009 -0.579051971
vt 0.035631001 -0.600941002
vt 0.319680989 -0.764002025
vt 0.319680989 -0.764002025
vt 0.035631001 -0.600941002
vt 0.0286919996 -0.620190024
vt -1.14999998 -0.764002025
vt -1.14999998 -0.620190024
vt -1.14999998 -0.764002025
vt 0.319680989 -0.764002025
vt 0.0286919996 -0.620190024
vt 0.0180600006 -0.634477019
vt 0.319680989 -0.764002025
vt 0.0180600006 -0.634477019
vt 0.0050189998 -0.642078996
vt -0.0418800004 -0.579051971
vt -0.0394699983 -0.557161987
vt -0.299699008 -0.372002006
vt -0.299699008 -0.372002006
vt -0.0394699983 -0.557161987
vt -0.0325310007 -0.537913024
vt -1.14999998 -0.372002006
vt -1.14999998 -0.537913024
vt -1.14999998 -0.372002006
vt -0.299699008 -0.372002006
vt -0.0325310007 -0.537913024
vt -0.0219000001 -0.523626029
vt -1.14999998 -0.372002006
vt -1.14999998 -0.523626029
vt -1.14999998 -0.372002006
vt -0.299699008 -0.372002006
vt -0.0219000001 -0.523626029
vt -0.00885900017 -0.516023993
vt -0.299699008 -0.372002006
vt -0.00885900017 -0.516023993
vt 0.0050189998 -0.516023993
vt 0.0050189998 -0.516023993
vt 0.0180600006 -0.523626029
vt 0.319680989 -0.372002006
vt 0.319680989 -0.372002006
vt 0.0180600006 -0.523626029
vt 0.0286919996 -0.537913024
vt -1.14999998 -0.372002006
vt -1.14999998 -0.537913024
vt -1.14999998 -0.372002006
vt 0.319680989 -0.372002006
vt 0.0286919996 -0.537913024
vt 0.035631001 -0.557161987
vt 0.319680989 -0.372002006
vt 0.035631001 -0.557161987
vt 0.0380400009 -0.579051971
vt -0.0418800004 -0.579051971
vt -0.299699008 -0.764002025
vt -0.0394699983 -0.600941002
vt -1.14999998 -0.600941002
vt -1.14999998 -0.764002025
vt -1.14999998 -0.764002025
vt -0.0394699983 -0.600941002
vt -0.299699008 -0.764002025
vt -0.0325310007 -0.620190024
vt -1.14999998 -0.620190024
vt -1.14999998 -0.764002025
vt -1.14999998 -0.764002025
vt -0.0325310007 -0.620190024
vt -0.299699008 -0.764002025
vt -0.0219000001 -0.634477019
vt -1.14999998 -0.634477019
vt -1.14999998 -0.764002025
vt -1.14999998 -0.764002025
vt -0.0219000001 -0.634477019
vt -0.299699008 -0.764002025
vt -0.00885900017 -0.642078996
vt -0.00885900017 -0.642078996
vt -0.299699008 -0.764002025
vt 0.0050189998 -0.642078996
vt -0.299699008 1.14999998
vt -0.299699008 0.560000002
vt 0.319680989 1.14999998
vt 0.319680989 1.14999998
vt -0.299699008 0.560000002
vt 0.319680989 0.560000002
vt -1.13499999 0.763997972
vt -1.13499999 -0.196002007
vt -0.0549999997 0.763997972
vt -0.0549999997 0.763997972
vt -1.13499999 -0.196002007
vt -0.0549999997 -0.196002007
vt -0.414586008 0.763997972
vt -0.414586008 -0.196002007
vt 0.414584011 0.763997972
vt 0.414584011 0.763997972
vt -0.414586008 -0.196002007
vt 0.414584011 -0.196002007
vt 0.0549999997 0.763997972
vt 0.0549999997 -0.196002007
vt 1.13499999 0.763997972
vt 1.13499999 0.763997972
vt 0.0549999997 -0.196002007
vt 1.13499999 -0.196002007
vt -0.414584011 0.763997972
vt -0.414584011 -0.196002007
vt 0.414586008 0.763997972
vt 0.414586008 0.763997972
vt -0.414584011 -0.196002007
vt 0.414586008 -0.196002007
vt -0.414586008 0.0549999997
vt 0.414584011 0.0549999997
vt -0.414586008 1.13499999
vt -0.414586008 1.13499999
vt 0.414584011 0.0549999997
vt 0.414584011 1.13499999
f 1/1 2/2 3/3
f 3/4 2/5 4/6
f 5/7 6/8 7/9
f 7/10 6/11 8/12
f 9/13 10/14 11/15
f 11/16 10/17 12/18
f 10/19 13/20 12/21
f 12/22 13/23 14/24
f 13/25 15/26 14/27
f 14/28 15/29 16/30
f 16/31 15/32 17/33
f 16/34 18/35 11/36
f 15/37 9/38 19/39
f 20/40 9/41 11/42
f 17/43 21/44 16/45
f 16/46 21/47 22/48
f 16/49 22/50 16/51
f 16/52 22/53 23/54
f 16/55 23/56 18/57
f 20/58 24/59 9/60
f 9/61 24/62 25/63
f 9/64 25/65 9/66
f 9/67 25/68 26/69
f 9/70 26/71 9/72
f 9/73 26/74 27/75
f 9/76 27/77 19/78
f 19/79 28/80 15/81
f 15/82 28/83 29/84
f 15/85 29/86 15/87
f 15/88 29/89 30/90
f 15/91 30/92 17/93
f 20/94 11/95 31/96
f 31/97 11/98 11/99
f 31/100 11/101 32/102
f 32/103 11/104 11/105
f 32/106 11/107 33/108
f 33/109 11/110 11/111
f 33/112 11/113 34/114
f 34/115 11/116 18/117
f 11/118 12/119 16/120
f 16/121 12/122 14/123
f 35/124 36/125 37/126
f 37/127 36/128 38/129
f 39/130 40/131 35/132
f 35/133 40/134 36/135
f 41/136 42/137 39/138
f 39/139 42/140 40/141
f 37/142 38/143 41/144
f 41/145 38/146 42/147
f 42/148 38/149 40/150
f 40/151 38/152 36/153
