# Exported from USD for MuJoCo with source material subsets
v 5.66952505 4.91385227 1.2799996
v 5.66800257 4.92150646 1.2799996
v 5.66800257 4.91385227 1.2876532
v 5.66659611 4.92092377 1.2876532
v 5.66366729 4.91385227 1.29414188
v 5.66259059 4.91926485 1.29414188
v 5.65717861 4.91385227 1.29847722
v 5.65659609 4.91678196 1.29847722
v 5.64952507 4.91385227 1.29999964
v 5.65493708 4.91926485 1.29847722
v 5.65245398 4.92092377 1.29847722
v 5.65493708 4.92691809 1.29414188
v 5.64952507 4.92799479 1.29414188
v 5.64952504 4.93233019 1.2876532
v 5.65659606 4.930924 1.2876532
v 5.64952504 4.93385225 1.2799996
v 5.65717861 4.93233019 1.2799996
v 5.66259059 4.92691809 1.2876532
v 5.66366729 4.92799479 1.2799996
v 5.65952506 4.9238525 1.29414188
v 5.64952507 4.92150646 1.29847722
v 5.64452528 4.88385254 0.82499977
v 5.63745406 4.88385254 0.83207079
v 5.64452651 2.98385292 0.82499977
v 5.63745531 2.98385292 0.83207079
v 5.66952681 2.98385292 3.973643e-08
v 5.66952654 2.98385292 0.316666623
v 5.66952681 2.95385295 3.973643e-08
v 5.66952654 2.95385295 0.326666643
v 5.66800412 2.94619948 0.326666643
v 5.6665976 2.94678193 0.329217851
v 5.66259217 2.94078761 0.329217851
v 5.65952655 2.94385296 0.331380655
v 5.65493851 2.94078761 0.331380655
v 5.65245547 2.94678193 0.332825849
v 5.64952659 2.94619948 0.332825849
v 5.64952659 2.95385295 0.333333333
v 4.68952664 2.94619876 0.33282577
v 4.68952664 2.95385271 0.333333254
v 4.68659791 2.94678146 0.33282577
v 4.68411478 2.94844037 0.33282577
v 4.68411478 2.9407869 0.331380576
v 4.67952677 2.94385248 0.331380576
v 4.68245562 2.93678147 0.329217772
v 4.67646118 2.9407869 0.329217772
v 4.68187305 2.93537503 0.326666564
v 4.67538461 2.9397102 0.326666564
v 4.68187329 2.93537503 -3.973643e-08
v 4.67538484 2.9397102 -3.973643e-08
v 4.6710492 2.94619876 0.326666564
v 4.67104944 2.94619876 -3.973643e-08
v 4.66952678 2.95385271 0.326666564
v 4.66952714 2.95385271 -3.973643e-08
v 4.66952678 2.98385268 0.316666543
v 4.66952714 2.98385268 -3.973643e-08
v 4.66952559 4.88385206 0.316666543
v 4.66952559 4.91385227 0.326666564
v 4.66952595 4.91385227 -3.973643e-08
v 4.67104801 4.92150599 0.326666564
v 4.67104825 4.92150599 -3.973643e-08
v 4.67538329 4.92799431 0.326666564
v 4.67538365 4.92799431 -3.973643e-08
v 4.68187186 4.93232924 0.326666564
v 4.68187209 4.93232924 -3.973643e-08
v 4.68952545 4.93385225 0.326666564
v 4.68952569 4.93385225 -3.973643e-08
v 4.71952542 4.93385225 0.316666543
v 4.71952578 4.93385225 -3.973643e-08
v 4.66952595 4.88385206 -3.973643e-08
v 5.61952531 4.93385225 0.316666623
v 5.64952534 4.93385225 0.326666643
v 5.64952561 4.93385225 3.973643e-08
v 5.65717899 4.93233019 0.326666643
v 5.65717926 4.93233019 3.973643e-08
v 5.66366749 4.92799479 0.326666643
v 5.66366779 4.92799479 3.973643e-08
v 5.6680029 4.92150646 0.326666643
v 5.66800317 4.92150646 3.973643e-08
v 5.66952532 4.91385227 0.326666643
v 5.66952559 4.91385227 3.973643e-08
v 5.66952532 4.88385254 0.316666623
v 5.66952559 4.88385254 3.973643e-08
v 5.61952558 4.93385225 3.973643e-08
v 5.6680029 4.91385227 0.329217851
v 5.66800412 2.95385295 0.329217851
v 5.66366749 4.91385227 0.331380655
v 5.66366872 2.95385295 0.331380655
v 5.65717902 4.91385227 0.332825849
v 5.65718024 2.95385295 0.332825849
v 5.64952537 4.91385227 0.333333333
v 5.61952656 2.98385292 0.333333333
v 4.71952685 2.98385268 0.333333254
v 4.68952545 4.91385227 0.333333254
v 4.71952554 4.88385206 0.333333254
v 5.61952534 4.88385254 0.333333333
v 5.66259217 2.94844109 0.331380655
v 5.65493851 2.94844109 0.332825849
v 5.65659767 2.95092422 0.332825849
v 5.66659638 4.92092377 0.329217851
v 5.66259095 4.91926485 0.331380655
v 5.65659642 4.91678196 0.332825849
v 5.65493729 4.91926485 0.332825849
v 5.65245425 4.92092377 0.332825849
v 5.65493729 4.92691809 0.331380655
v 5.64952537 4.92799479 0.331380655
v 5.64952534 4.93233019 0.329217851
v 4.68952545 4.92799431 0.331380576
v 4.68952545 4.93232924 0.329217772
v 4.68245443 4.93092304 0.329217772
v 4.67645999 4.92691761 0.329217772
v 4.67245456 4.92092282 0.329217772
v 4.67104801 4.91385227 0.329217772
v 4.6710492 2.95385271 0.329217772
v 4.67538461 2.95385271 0.331380576
v 4.67245575 2.94678146 0.329217772
v 4.67646118 2.94844037 0.331380576
v 4.68245562 2.9509235 0.33282577
v 4.68187305 2.95385271 0.33282577
v 4.68187186 4.91385227 0.33282577
v 4.67538329 4.91385227 0.331380576
v 4.68245443 4.91678148 0.33282577
v 4.67645999 4.91926438 0.331380576
v 4.68411359 4.91926438 0.33282577
v 4.67952558 4.92385203 0.331380576
v 4.68659672 4.92092282 0.33282577
v 4.68411359 4.92691761 0.331380576
v 4.68952545 4.92150599 0.33282577
v 5.64952537 4.92150646 0.332825849
v 5.65659639 4.930924 0.329217851
v 5.65952533 4.9238525 0.331380655
v 5.66259095 4.92691809 0.329217851
v 4.689527 2.93385249 -3.973643e-08
v 4.68952676 2.93385249 0.326666564
v 4.68952676 2.93537503 0.329217772
v 4.68952664 2.9397102 0.331380576
v 5.64952659 2.93971091 0.331380655
v 5.6565977 2.93678194 0.329217851
v 5.66366872 2.93971091 0.326666643
v 5.66800439 2.94619948 3.973643e-08
v 5.66366901 2.93971091 3.973643e-08
v 5.65718027 2.93537551 0.326666643
v 5.65718054 2.93537551 3.973643e-08
v 5.64952659 2.93385297 0.326666643
v 5.64952689 2.93385297 3.973643e-08
v 5.61952659 2.93385297 0.316666623
v 5.61952686 2.93385297 3.973643e-08
v 4.71952685 2.93385249 0.316666543
v 4.71952697 2.93385249 -3.973643e-08
v 5.64952659 2.93537551 0.329217851
v 5.61952683 2.98385292 3.973643e-08
v 5.61952656 2.98385292 0.316666623
v 4.71952685 2.98385268 0.316666543
v 4.71952697 2.98385268 -3.973643e-08
v 4.71952554 4.88385206 0.316666543
v 5.61952534 4.88385254 0.316666623
v 4.71952578 4.88385206 -3.973643e-08
v 5.61952561 4.88385254 3.973643e-08
v 5.08952519 4.93385225 1.24999951
v 5.03952535 4.93385225 1.17499952
v 5.08952638 2.93385273 1.24999951
v 5.03952655 2.93385273 1.17499952
v 5.18952646 2.93385273 1.24999951
v 5.23952648 2.93385273 1.17499952
v 5.18952521 4.93385225 1.24999951
v 5.23952522 4.93385225 1.17499952
v 5.49603286 4.88385254 0.67650733
v 5.49603411 2.98385292 0.67650733
v 5.46067872 2.98385292 0.71186281
v 5.46067753 4.88385254 0.71186281
v 5.4677498 2.98385292 0.71893372
v 5.49603411 2.98385292 0.69064941
v 5.46774855 4.88385254 0.71893372
v 5.49603286 4.88385254 0.69064941
v 5.08952519 4.91385227 1.29999952
v 5.08952519 4.92150599 1.29847704
v 5.08952519 4.92799431 1.2941417
v 5.08952519 4.93233019 1.28765308
v 5.08952519 4.93385225 1.27999948
v 5.66952532 4.91385227 0.333333333
v 5.66800284 4.92150646 0.333333333
v 5.66366758 4.92799479 0.333333333
v 5.65717887 4.93233019 0.333333333
v 5.64952534 4.93385225 0.333333333
v 5.66952627 2.95385295 1.2799996
v 5.66800379 2.95385295 1.2876532
v 5.66366851 2.95385295 1.29414188
v 5.65717983 2.95385295 1.29847722
v 5.64952629 2.95385295 1.29999964
v 5.61952531 4.93385225 0.333333333
v 5.66952532 4.88385254 0.333333333
v 5.61952501 4.93385225 1.24999963
v 5.61952504 4.88385254 1.24999963
v 5.66952505 4.88385254 1.24999963
v 5.06952521 4.91385227 1.27999948
v 5.07104751 4.92150599 1.27999948
v 5.06952521 4.91385227 1.24999951
v 5.07104763 4.92150599 1.24999951
v 5.07538297 4.92799431 1.27999948
v 5.07538297 4.92799431 1.24999951
v 5.08187147 4.93233019 1.27999948
v 5.08187147 4.93233019 1.24999951
v 5.08245411 4.93092352 1.28765308
v 5.08411321 4.92691809 1.2941417
v 5.08659616 4.92092329 1.29847704
v 5.08411321 4.91926438 1.29847704
v 5.08245411 4.91678148 1.29847704
v 5.07645949 4.91926438 1.2941417
v 5.07538297 4.91385227 1.2941417
v 5.07104751 4.91385227 1.28765308
v 5.07245412 4.92092329 1.28765308
v 5.07645949 4.92691809 1.28765308
v 5.0795252 4.92385203 1.2941417
v 5.08187147 4.91385227 1.29847704
v 5.0695264 2.95385271 1.27999948
v 5.0695264 2.95385271 1.24999951
v 5.08952638 2.95385271 1.29999952
v 5.08187273 2.95385271 1.29847704
v 5.07538422 2.95385271 1.2941417
v 5.07104882 2.95385271 1.28765308
v 5.08952638 2.93385273 1.27999948
v 5.08187279 2.93537503 1.27999948
v 5.08187279 2.93537503 1.24999951
v 5.07538422 2.93971044 1.27999948
v 5.07538422 2.93971044 1.24999951
v 5.07104882 2.94619924 1.27999948
v 5.07104882 2.94619924 1.24999951
v 5.07245537 2.94678169 1.28765308
v 5.07646068 2.94844061 1.2941417
v 5.08245536 2.95092374 1.29847704
v 5.0841144 2.94844061 1.29847704
v 5.08659747 2.94678169 1.29847704
v 5.0841144 2.94078714 1.2941417
v 5.08952638 2.93971044 1.2941417
v 5.08952638 2.93537503 1.28765308
v 5.08245536 2.9367817 1.28765308
v 5.0764608 2.94078714 1.28765308
v 5.07952639 2.94385272 1.2941417
v 5.08952638 2.94619924 1.29847704
v 5.64952629 2.94619948 1.29847722
v 5.64952629 2.93971091 1.29414188
v 5.64952635 2.93537551 1.2876532
v 5.64952635 2.93385297 1.2799996
v 5.65717986 2.93537551 1.2799996
v 5.65659734 2.93678194 1.2876532
v 5.65493831 2.94078761 1.29414188
v 5.65245521 2.94678193 1.29847722
v 5.65493831 2.94844109 1.29847722
v 5.65659731 2.95092422 1.29847722
v 5.66259184 2.94844109 1.29414188
v 5.66659733 2.94678193 1.2876532
v 5.66800379 2.94619948 1.2799996
v 5.66259184 2.94078761 1.2876532
v 5.66366851 2.93971091 1.2799996
v 5.65952628 2.94385296 1.29414188
v 5.66952654 2.95385295 0.333333333
v 5.66800406 2.94619948 0.333333333
v 5.66366881 2.93971091 0.333333333
v 5.65718013 2.93537551 0.333333333
v 5.64952659 2.93385297 0.333333333
v 5.66952627 2.98385292 1.24999963
v 5.66952654 2.98385292 0.333333333
v 5.61952629 2.93385297 1.24999963
v 5.61952659 2.93385297 0.333333333
v 5.61952626 2.98385292 1.24999963
v 5.61952626 2.98385292 1.29999964
v 5.61952504 4.88385254 1.29999964
v 5.11952522 4.88385254 1.24999951
v 5.11952641 2.98385268 1.24999951
v 5.11952522 4.88385254 1.29999952
v 5.11952641 2.98385268 1.29999952
vt 0.980000019 1.98000002
vt 0.987653971 1.98000002
vt 0.980000019 1.98765397
vt 0.980000019 1.98765397
vt 0.987653971 1.98000002
vt 0.987070978 1.98765397
vt 0.980000019 1.98765397
vt 0.987070978 1.98765397
vt 0.980000019 1.99414206
vt 0.980000019 1.99414206
vt 0.987070978 1.98765397
vt 0.985412002 1.99414206
vt -0.980000019 0.494141996
vt -0.985412002 0.493065
vt -0.980000019 0.487652987
vt -0.980000019 0.487652987
vt -0.985412002 0.493065
vt -0.982928991 0.487071007
vt -0.980000019 0.487652987
vt -0.982928991 0.487071007
vt -0.980000019 0.479999989
vt -0.980000019 0.479999989
vt -0.982928991 0.487071007
vt -0.985412002 0.485412002
vt -0.980000019 0.479999989
vt -0.985412002 0.485412002
vt -0.987070978 0.482928991
vt -0.987070978 0.482928991
vt -0.985412002 0.485412002
vt -0.993066013 0.485412002
vt -0.987070978 0.482928991
vt -0.993066013 0.485412002
vt -0.994141996 0.479999989
vt -1.99414206 0.479999989
vt -1.99414206 0.485412002
vt -1.99414206 0.485412002
vt 1.99414206 0.479999989
vt 1.99414206 0.485412002
vt 1.98765397 0.479999989
vt 1.98765397 0.479999989
vt 1.99414206 0.485412002
vt 1.98765397 0.487071007
vt 1.98765397 0.479999989
vt 1.98765397 0.487071007
vt 1.98000002 0.479999989
vt -1.98000002 0.479999989
vt -1.98765397 0.487071007
vt -1.98765397 0.487071007
vt 1.98000002 0.479999989
vt 1.98765397 0.487071007
vt 1.98000002 0.487652987
vt 1.98000002 0.487652987
vt 1.98765397 0.487071007
vt 1.98765397 0.493065
vt 1.98000002 0.487652987
vt 1.98765397 0.493065
vt 1.98000002 0.494141996
vt 0.994141996 1.98000002
vt 0.993066013 1.98765397
vt 0.987070978 1.98765397
vt 0.994141996 1.98000002
vt 0.987070978 1.98765397
vt 0.987653971 1.98000002
vt 0.987070978 1.98765397
vt 0.993066013 1.98765397
vt 0.985412002 1.99414206
vt 0.985412002 1.99414206
vt 0.993066013 1.98765397
vt 0.99000001 1.99414206
vt -0.985412002 0.493065
vt -0.99000001 0.49000001
vt -0.982928991 0.487071007
vt -1.99847806 0.487071007
vt -1.99414206 0.49000001
vt -1.99414206 0.49000001
vt -0.982928991 0.487071007
vt -0.99000001 0.49000001
vt -0.985412002 0.485412002
vt -1.99847806 0.485412002
vt -1.99414206 0.49000001
vt -1.99414206 0.49000001
vt -0.985412002 0.485412002
vt -0.99000001 0.49000001
vt -0.993066013 0.485412002
vt -1.99414206 0.485412002
vt -1.99414206 0.49000001
vt -1.99414206 0.49000001
vt 1.99414206 0.485412002
vt 1.99414206 0.49000001
vt 1.98765397 0.487071007
vt 1.98765397 0.487071007
vt 1.99414206 0.49000001
vt 1.98765397 0.493065
vt -0.994141996 0.479999989
vt -0.987653971 0.479999989
vt -0.987070978 0.482928991
vt -0.987070978 0.482928991
vt -0.987653971 0.479999989
vt -0.980000019 0.479999989
vt -0.949999988 0.474999994
vt -0.949999988 0.467929006
vt 0.949999988 0.474999994
vt 0.949999988 0.474999994
vt -0.949999988 0.467929006
vt 0.949999988 0.467929006
vt -0.949999988 0
vt -0.949999988 0.949999988
vt -0.980000019 0
vt -0.980000019 0
vt -0.949999988 0.949999988
vt -0.980000019 0.980000019
vt -0.980000019 0
vt -0.980000019 0.980000019
vt -0.987653971 0.980000019
vt -0.987653971 0.980000019
vt -0.980000019 0.980000019
vt -0.987070978 0.987653971
vt -0.987653971 0.980000019
vt -0.987070978 0.987653971
vt -0.993066013 0.987653971
vt -0.993066013 0.987653971
vt -0.987070978 0.987653971
vt -0.99000001 0.994141996
vt -0.987653971 0.493066013
vt -0.994141996 0.49000001
vt -0.994141996 0.485412002
vt 0.993066013 0.485412002
vt 0.99000001 0.49000001
vt 0.987070978 0.482928991
vt 0.993066013 0.485412002
vt 0.987070978 0.482928991
vt 0.987653971 0.479999989
vt 0.987653971 0.479999989
vt 0.987070978 0.482928991
vt 0.980000019 0.479999989
vt 0.987653971 0.479999989
vt 0.980000019 0.479999989
vt 0.987653971 -0.479999989
vt 0.987653971 -0.479999989
vt 0.980000019 0.479999989
vt 0.980000019 -0.479999989
vt 0.987653971 -0.479999989
vt 0.980000019 -0.479999989
vt 0.987070978 -0.482928991
vt 0.987070978 -0.482928991
vt 0.980000019 -0.479999989
vt 0.985412002 -0.485412002
vt 0.987070978 -0.482928991
vt 0.985412002 -0.485412002
vt 0.993066013 -0.485412002
vt 0.993066013 -0.485412002
vt 0.985412002 -0.485412002
vt 0.99000001 -0.49000001
vt -0.994141996 -0.485412002
vt -0.994141996 -0.49000001
vt -0.987653971 -0.487071007
vt -0.987653971 -0.487071007
vt -0.994141996 -0.49000001
vt -0.987653971 -0.493066013
vt -0.987653971 -0.487071007
vt -0.987653971 -0.493066013
vt -0.980000019 -0.487654001
vt -0.980000019 -0.487654001
vt -0.987653971 -0.493066013
vt -0.980000019 -0.494141996
vt -0.980000019 -0.487654001
vt -0.980000019 -0.494141996
vt 0 -0.487654001
vt 0 -0.487654001
vt -0.980000019 -0.494141996
vt -0.980000019 -0.494141996
vt 0 -0.487654001
vt -0.980000019 -0.494141996
vt 0 -0.494141996
vt 0.994141996 0
vt 0.994141996 0.980000019
vt 0.987653971 0.980000019
vt 0.994141996 0
vt 0.987653971 0.980000019
vt 0.987653971 0
vt 0.987653971 0
vt 0.987653971 0.980000019
vt 0.980000019 0.980000019
vt 0.987653971 0
vt 0.980000019 0.980000019
vt 0.980000019 0
vt 0.980000019 0
vt 0.980000019 0.980000019
vt 0.949999988 0.949999988
vt 0.980000019 0
vt 0.949999988 0.949999988
vt 0.949999988 0
vt 0.949999988 0.949999988
vt 0.980000019 0.980000019
vt -0.949999988 0.949999988
vt -0.949999988 0.949999988
vt 0.980000019 0.980000019
vt -0.980000019 0.980000019
vt -0.949999988 0.949999988
vt -0.980000019 0.980000019
vt -0.980000019 0
vt -0.980000019 0
vt -0.980000019 0.980000019
vt -0.987653971 0.980000019
vt -0.980000019 0
vt -0.987653971 0.980000019
vt -0.987653971 0
vt -0.987653971 0
vt -0.987653971 0.980000019
vt -0.994141996 0.980000019
vt -0.987653971 0
vt -0.994141996 0.980000019
vt -0.994141996 0
vt 0 -0.494141996
vt 0.980000019 -0.494141996
vt 0.980000019 -0.487654001
vt 0 -0.494141996
vt 0.980000019 -0.487654001
vt 0 -0.487654001
vt 0 -0.487654001
vt 0.980000019 -0.487654001
vt 0.980000019 -0.479999989
vt 0 -0.487654001
vt 0.980000019 -0.479999989
vt 0 -0.479999989
vt 0 -0.479999989
vt 0.980000019 -0.479999989
vt 0.949999988 -0.449999988
vt 0 -0.479999989
vt 0.949999988 -0.449999988
vt 0 -0.449999988
vt -0.980000019 0
vt -0.949999988 0
vt -0.949999988 0.949999988
vt 0.949999988 -0.449999988
vt 0.980000019 -0.479999989
vt 0.949999988 0.449999988
vt 0.949999988 0.449999988
vt 0.980000019 -0.479999989
vt 0.980000019 0.479999989
vt 0.949999988 0.449999988
vt 0.980000019 0.479999989
vt 0 0.479999989
vt 0 0.479999989
vt 0.980000019 0.479999989
vt 0.980000019 0.487654001
vt 0 0.479999989
vt 0.980000019 0.487654001
vt 0 0.487654001
vt 0 0.487654001
vt 0.980000019 0.487654001
vt 0.980000019 0.494141996
vt 0 0.487654001
vt 0.980000019 0.494141996
vt 0 0.494141996
vt 0.994141996 0
vt 0.994141996 0.980000019
vt 0.987653971 0.980000019
vt 0.994141996 0
vt 0.987653971 0.980000019
vt 0.987653971 0
vt 0.987653971 0
vt 0.987653971 0.980000019
vt 0.980000019 0.980000019
vt 0.987653971 0
vt 0.980000019 0.980000019
vt 0.980000019 0
vt 0.980000019 0
vt 0.980000019 0.980000019
vt 0.949999988 0.949999988
vt 0.980000019 0
vt 0.949999988 0.949999988
vt 0.949999988 0
vt 0.949999988 0.449999988
vt 0 0.479999989
vt 0 0.449999988
vt 0.949999988 0.949999988
vt 0.980000019 0.980000019
vt -0.949999988 0.949999988
vt -0.949999988 0.5
vt -0.980000019 0.5
vt -0.980000019 0.5
vt -0.949999988 0.949999988
vt 0.980000019 0.980000019
vt -0.980000019 0.980000019
vt -0.980000019 0.980000019
vt 0.980000019 0.980000019
vt 0.980000019 0.987653971
vt -0.980000019 0.980000019
vt 0.980000019 0.987653971
vt -0.980000019 0.987653971
vt -0.980000019 0.987653971
vt 0.980000019 0.987653971
vt 0.980000019 0.994141996
vt -0.980000019 0.987653971
vt 0.980000019 0.994141996
vt -0.980000019 0.994141996
vt 0.980000019 0.494141996
vt -0.980000019 0.494141996
vt -0.980000019 0.487654001
vt 0.980000019 0.494141996
vt -0.980000019 0.487654001
vt 0.980000019 0.487654001
vt 0.980000019 0.487654001
vt -0.980000019 0.487654001
vt -0.980000019 0.479999989
vt 0.980000019 0.487654001
vt -0.980000019 0.479999989
vt 0.980000019 0.479999989
vt 0.980000019 0.479999989
vt -0.980000019 0.479999989
vt 0.949999988 0.449999988
vt 0.980000019 0.479999989
vt 0.949999988 0.449999988
vt 0.980000019 -0.479999989
vt 0.980000019 -0.479999989
vt 0.949999988 0.449999988
vt 0.949999988 -0.449999988
vt 0.980000019 -0.479999989
vt 0.949999988 -0.449999988
vt -0.980000019 -0.479999989
vt -0.980000019 -0.479999989
vt 0.949999988 -0.449999988
vt -0.949999988 -0.449999988
vt -0.980000019 -0.479999989
vt -0.949999988 -0.449999988
vt -0.980000019 0.479999989
vt -0.980000019 0.479999989
vt -0.949999988 -0.449999988
vt -0.949999988 0.449999988
vt -0.980000019 0.479999989
vt -0.949999988 0.449999988
vt 0.949999988 0.449999988
vt -0.980000019 0.980000019
vt -0.980000019 0.987653971
vt -0.987070978 0.987653971
vt -0.987070978 0.987653971
vt -0.980000019 0.987653971
vt -0.985412002 0.994141996
vt -0.987070978 0.987653971
vt -0.985412002 0.994141996
vt -0.99000001 0.994141996
vt 0.99000001 0.49000001
vt 0.985412002 0.493066013
vt 0.985412002 0.485412002
vt 0.99000001 0.49000001
vt 0.985412002 0.485412002
vt 0.987070978 0.482928991
vt -0.998477995 0.482928991
vt -0.998477995 0.485412002
vt -0.998477995 0.485412002
vt 0.987070978 0.482928991
vt 0.985412002 0.485412002
vt 0.980000019 0.479999989
vt 0.980000019 0.479999989
vt 0.985412002 0.485412002
vt 0.982928991 0.487071007
vt 0.980000019 0.479999989
vt 0.982928991 0.487071007
vt 0.980000019 0.487654001
vt -0.998477995 0.487654001
vt -0.998477995 0.487071007
vt -0.998477995 0.487071007
vt 0.980000019 0.487654001
vt 0.982928991 0.487071007
vt 0.980000019 0.494141996
vt 0.980000019 0.494141996
vt 0.982928991 0.487071007
vt 0.985412002 0.493066013
vt -0.980000019 0.994141996
vt -0.985412002 0.994141996
vt -0.980000019 0.987653971
vt 0.982928991 0.487071007
vt 0.985412002 0.485412002
vt 0.985412002 0.493066013
vt 0.980000019 0.980000019
vt 0.987653971 0.980000019
vt 0.980000019 0.987653971
vt 0.980000019 0.987653971
vt 0.987653971 0.980000019
vt 0.987070978 0.987653971
vt 0.980000019 0.987653971
vt 0.987070978 0.987653971
vt 0.980000019 0.994141996
vt 0.980000019 0.994141996
vt 0.987070978 0.987653971
vt 0.985412002 0.994141996
vt -0.980000019 0.494141996
vt -0.985412002 0.493066013
vt -0.980000019 0.487654001
vt -0.980000019 0.487654001
vt -0.985412002 0.493066013
vt -0.982928991 0.487071007
vt -0.980000019 0.487654001
vt -0.982928991 0.487071007
vt -0.980000019 0.479999989
vt -0.980000019 0.479999989
vt -0.982928991 0.487071007
vt -0.985412002 0.485412002
vt -0.980000019 0.479999989
vt -0.985412002 0.485412002
vt -0.987070978 0.482928991
vt -0.987070978 0.482928991
vt -0.985412002 0.485412002
vt -0.993066013 0.485412002
vt -0.987070978 0.482928991
vt -0.993066013 0.485412002
vt -0.994141996 0.479999989
vt 0.994141996 0.479999989
vt 0.994141996 0.485412002
vt 0.987653971 0.479999989
vt 0.994141996 0.479999989
vt 0.987653971 0.479999989
vt 0.994141996 -0.479999989
vt 0.994141996 -0.479999989
vt 0.987653971 0.479999989
vt 0.987653971 -0.479999989
vt 0.994141996 -0.479999989
vt 0.987653971 -0.479999989
vt 0.987653971 -0.487071007
vt 0.987653971 -0.487071007
vt 0.987653971 -0.479999989
vt 0.980000019 -0.487654001
vt -0.987653971 -0.487071007
vt -0.980000019 -0.487654001
vt -0.987653971 -0.487071007
vt 0.987653971 -0.487071007
vt 0.980000019 -0.487654001
vt 0.980000019 -0.494141996
vt 0.987653971 -0.487071007
vt 0.980000019 -0.494141996
vt 0.987653971 -0.493066013
vt -0.993066013 0.987653971
vt -0.994141996 0.980000019
vt -0.987653971 0.980000019
vt -0.993066013 0.987653971
vt -0.987653971 0.980000019
vt -0.987070978 0.987653971
vt -0.987070978 0.987653971
vt -0.987653971 0.980000019
vt -0.980000019 0.980000019
vt -0.987070978 0.987653971
vt -0.980000019 0.980000019
vt -0.980000019 0.987653971
vt -0.980000019 0.987653971
vt -0.980000019 0.980000019
vt 0.980000019 0.987653971
vt -0.980000019 0.987653971
vt 0.980000019 0.987653971
vt 0.980000019 0.994141996
vt 0.980000019 0.994141996
vt 0.980000019 0.987653971
vt 0.987070978 0.987653971
vt 0.980000019 0.994141996
vt 0.987070978 0.987653971
vt 0.985412002 0.994141996
vt 0.985412002 0.994141996
vt 0.987070978 0.987653971
vt 0.993066013 0.987653971
vt -0.994141996 -0.493066013
vt -0.987653971 -0.493066013
vt -0.994141996 -0.493066013
vt 0.985412002 0.994141996
vt 0.993066013 0.987653971
vt 0.99000001 0.994141996
vt 0.985412002 -0.493066013
vt 0.99000001 -0.49000001
vt 0.982928991 -0.487071007
vt 0.982928991 -0.487071007
vt 0.99000001 -0.49000001
vt 0.985412002 -0.485412002
vt -0.998477995 -0.487071007
vt -0.998477995 -0.485412002
vt -0.998477995 -0.487071007
vt 0.982928991 -0.487071007
vt 0.985412002 -0.485412002
vt 0.980000019 -0.479999989
vt 0.982928991 -0.487071007
vt 0.980000019 -0.479999989
vt 0.980000019 -0.487654001
vt 0.980000019 -0.487654001
vt 0.980000019 -0.479999989
vt -0.980000019 -0.487654001
vt 0.980000019 -0.487654001
vt -0.980000019 -0.487654001
vt -0.980000019 -0.494141996
vt -0.980000019 -0.494141996
vt -0.980000019 -0.487654001
vt -0.982928991 -0.487071007
vt -0.980000019 -0.494141996
vt -0.982928991 -0.487071007
vt -0.985412002 -0.493066013
vt -0.985412002 -0.493066013
vt -0.982928991 -0.487071007
vt -0.985412002 -0.485412002
vt -0.985412002 -0.493066013
vt -0.985412002 -0.485412002
vt -0.99000001 -0.49000001
vt -0.99000001 -0.49000001
vt -0.985412002 -0.485412002
vt -0.987070978 -0.482928991
vt -0.99000001 -0.49000001
vt -0.987070978 -0.482928991
vt -0.993066013 -0.485412002
vt -0.993066013 -0.485412002
vt -0.987070978 -0.482928991
vt -0.987653971 -0.479999989
vt -0.993066013 -0.485412002
vt -0.987653971 -0.479999989
vt -0.994141996 -0.479999989
vt -0.994141996 -0.479999989
vt -0.998477995 -0.479999989
vt -0.998477995 -0.479999989
vt -0.994141996 -0.479999989
vt -0.987653971 -0.479999989
vt -0.994141996 0.479999989
vt -0.994141996 0.479999989
vt -0.987653971 -0.479999989
vt -0.987653971 0.479999989
vt -0.994141996 0.479999989
vt -0.987653971 0.479999989
vt -0.987070978 0.482928991
vt -0.998477995 0.482928991
vt -0.998477995 0.479999989
vt -0.998477995 0.479999989
vt -0.987070978 0.482928991
vt -0.987653971 0.479999989
vt -0.980000019 0.479999989
vt -1 0.479999989
vt -0.998477995 0.479999989
vt -0.998477995 0.479999989
vt -0.980000019 0.479999989
vt -0.987653971 0.479999989
vt -0.980000019 -0.479999989
vt -0.980000019 -0.479999989
vt -0.987653971 0.479999989
vt -0.987653971 -0.479999989
vt -1 -0.479999989
vt -0.998477995 -0.479999989
vt -1 -0.479999989
vt -0.980000019 -0.479999989
vt -0.987653971 -0.479999989
vt -0.987070978 -0.482928991
vt -1 -0.479999989
vt -0.998477995 -0.482928991
vt -1 -0.479999989
vt -0.980000019 -0.479999989
vt -0.987070978 -0.482928991
vt -0.985412002 -0.485412002
vt -1 -0.479999989
vt -0.998477995 -0.485412002
vt -1 -0.479999989
vt -0.980000019 -0.479999989
vt -0.985412002 -0.485412002
vt -0.982928991 -0.487071007
vt -1 -0.479999989
vt -0.998477995 -0.487071007
vt -1 -0.479999989
vt -0.980000019 -0.479999989
vt -0.982928991 -0.487071007
vt -0.980000019 -0.487654001
vt -0.980000019 -0.479999989
vt -0.980000019 -0.487654001
vt 0.980000019 -0.479999989
vt 0.994141996 -0.479999989
vt 0.987653971 -0.487071007
vt 0.994141996 -0.485412002
vt 0.994141996 -0.485412002
vt 0.987653971 -0.487071007
vt 0.987653971 -0.493066013
vt 0.994141996 -0.485412002
vt 0.987653971 -0.493066013
vt 0.994141996 -0.49000001
vt -0.99000001 0.994141996
vt -0.993066013 0.987653971
vt -0.987070978 0.987653971
vt -0.99000001 0.994141996
vt -0.987070978 0.987653971
vt -0.985412002 0.994141996
vt -0.985412002 0.994141996
vt -0.987070978 0.987653971
vt -0.980000019 0.987653971
vt -0.985412002 0.994141996
vt -0.980000019 0.987653971
vt -0.980000019 0.994141996
vt -0.980000019 0.994141996
vt -0.980000019 0.987653971
vt 0.980000019 0.994141996
vt -0.980000019 -0.494141996
vt 0.980000019 -0.494141996
vt 0.980000019 -0.487654001
vt 0.980000019 -0.487654001
vt 0.980000019 -0.494141996
vt 0.985412002 -0.493066013
vt 0.980000019 -0.487654001
vt 0.985412002 -0.493066013
vt 0.982928991 -0.487071007
vt 0.993066013 0.987653971
vt 0.987070978 0.987653971
vt 0.994141996 0.980000019
vt -0.980000019 -0.494141996
vt -0.987653971 -0.497070998
vt -0.987653971 -0.497070998
vt 0.994141996 0.980000019
vt 0.987070978 0.987653971
vt 0.987653971 0.980000019
vt 0.987653971 0.980000019
vt 0.987070978 0.987653971
vt 0.980000019 0.987653971
vt 0.987653971 0.980000019
vt 0.980000019 0.987653971
vt 0.980000019 0.980000019
vt 0.980000019 0.980000019
vt 0.980000019 0.987653971
vt -0.980000019 0.980000019
vt 0.980000019 -0.487654001
vt 0.987653971 -0.479999989
vt 0.980000019 -0.479999989
vt -0.980000019 -0.479999989
vt -0.987653971 -0.479999989
vt -0.987653971 -0.479999989
vt 0.980000019 -0.479999989
vt 0.987653971 -0.479999989
vt 0.980000019 0.479999989
vt 0.980000019 0.479999989
vt 0.987653971 -0.479999989
vt 0.987653971 0.479999989
vt 0.980000019 0.479999989
vt 0.987653971 0.479999989
vt 0.987653971 0.487071007
vt 0.987653971 0.487071007
vt 0.987653971 0.479999989
vt 0.994141996 0.485412002
vt 0.987653971 0.487071007
vt 0.994141996 0.485412002
vt 0.994141996 0.49000001
vt -0.99000001 0.49000001
vt -0.993066013 0.485412002
vt -0.985412002 0.485412002
vt -0.994141996 0.49000001
vt -0.998477995 0.485412002
vt -0.994141996 0.49000001
vt -0.99000001 0.49000001
vt -0.985412002 0.485412002
vt -0.982928991 0.487071007
vt -0.994141996 0.49000001
vt -0.998477995 0.487071007
vt -0.994141996 0.49000001
vt -0.99000001 0.49000001
vt -0.982928991 0.487071007
vt -0.985412002 0.493066013
vt 0.99000001 0.994141996
vt 0.985412002 0.994141996
vt 0.993066013 0.987653971
vt 0.993066013 0.987653971
vt 0.985412002 0.994141996
vt 0.987070978 0.987653971
vt 0.993066013 0.987653971
vt 0.987070978 0.987653971
vt 0.994141996 0.980000019
vt 0.994141996 0.980000019
vt 0.987070978 0.987653971
vt 0.987653971 0.980000019
vt 0.980000019 0.494141996
vt 0.980000019 0.487654001
vt 0.987653971 0.493066013
vt 0.987653971 0.493066013
vt 0.980000019 0.487654001
vt 0.987653971 0.487071007
vt 0.987653971 0.493066013
vt 0.987653971 0.487071007
vt 0.994141996 0.49000001
vt 0.987653971 0.487071007
vt 0.980000019 0.487654001
vt 0.980000019 0.479999989
vt 0 -0.487654001
vt 0 -0.479999989
vt -0.980000019 -0.487654001
vt -0.980000019 -0.487654001
vt 0 -0.479999989
vt -0.980000019 -0.479999989
vt -0.980000019 -0.487654001
vt -0.980000019 -0.479999989
vt -0.987653971 -0.487071007
vt -0.987653971 -0.487071007
vt -0.980000019 -0.479999989
vt -0.987653971 -0.479999989
vt -0.987653971 -0.487071007
vt -0.987653971 -0.479999989
vt -0.994141996 -0.485412002
vt -0.994141996 -0.485412002
vt -0.987653971 -0.479999989
vt -0.994141996 -0.479999989
vt 0.993066013 -0.485412002
vt 0.994141996 -0.479999989
vt 0.987070978 -0.482928991
vt -0.998477995 -0.482928991
vt -0.994141996 -0.479999989
vt -0.994141996 -0.479999989
vt 0.987070978 -0.482928991
vt 0.994141996 -0.479999989
vt 0.987653971 -0.479999989
vt -0.998477995 -0.479999989
vt -0.994141996 -0.479999989
vt -0.994141996 -0.479999989
vt 0.987653971 -0.479999989
vt 0.994141996 -0.479999989
vt 0.987653971 0.479999989
vt 0.987653971 0.479999989
vt 0.994141996 -0.479999989
vt 0.994141996 0.479999989
vt 0.987653971 0.479999989
vt 0.994141996 0.479999989
vt 0.993066013 0.485412002
vt -0.994141996 0.485412002
vt -0.994141996 0.479999989
vt -0.987653971 0.487071007
vt -0.994141996 0.485412002
vt -0.987653971 0.487071007
vt -0.987653971 0.493066013
vt -0.987653971 0.493066013
vt -0.987653971 0.487071007
vt -0.980000019 0.494141996
vt -0.993066013 0.987653971
vt -0.994141996 0.980000019
vt -0.987653971 0.980000019
vt -0.987653971 0.980000019
vt -0.994141996 0.980000019
vt -0.987653971 0
vt -0.987653971 0.980000019
vt -0.987653971 0
vt -0.980000019 0
vt -0.987653971 0
vt -0.994141996 0.980000019
vt -0.994141996 0
vt 0 0.494141996
vt -0.980000019 0.494141996
vt -0.980000019 0.487654001
vt 0 0.494141996
vt -0.980000019 0.487654001
vt 0 0.487654001
vt 0 0.487654001
vt -0.980000019 0.487654001
vt -0.980000019 0.479999989
vt 0 0.487654001
vt -0.980000019 0.479999989
vt 0 0.479999989
vt 0 0.479999989
vt -0.980000019 0.479999989
vt -0.949999988 0.449999988
vt 0 0.479999989
vt -0.949999988 0.449999988
vt 0 0.449999988
vt -0.949999988 0.449999988
vt -0.980000019 0.479999989
vt -0.949999988 -0.449999988
vt -0.949999988 -0.449999988
vt -0.980000019 0.479999989
vt -0.980000019 -0.479999989
vt -0.949999988 -0.449999988
vt -0.980000019 -0.479999989
vt -0.949999988 -0.449999988
vt -0.949999988 -0.449999988
vt -0.980000019 -0.479999989
vt 0 -0.479999989
vt -0.949999988 -0.449999988
vt 0 -0.479999989
vt 0 -0.449999988
vt -0.980000019 0.494141996
vt -0.987653971 0.487071007
vt -0.980000019 0.487654001
vt -0.980000019 0.487654001
vt -0.987653971 0.487071007
vt -0.987653971 0.479999989
vt -0.980000019 0.487654001
vt -0.987653971 0.479999989
vt -0.980000019 0.479999989
vt -0.980000019 0.479999989
vt -0.987653971 0.479999989
vt -0.987653971 0.479999989
vt -0.980000019 0.479999989
vt -0.987653971 0.479999989
vt -0.980000019 -0.479999989
vt -0.980000019 -0.479999989
vt -0.987653971 0.479999989
vt -0.987653971 0.479999989
vt -0.980000019 -0.479999989
vt -0.987653971 0.479999989
vt -0.987653971 -0.479999989
vt -0.987653971 -0.479999989
vt -0.987653971 0.479999989
vt -0.994141996 0.479999989
vt -0.987653971 -0.479999989
vt -0.994141996 0.479999989
vt -0.994141996 -0.479999989
vt -0.987653971 0.487071007
vt -0.994141996 0.479999989
vt -0.987653971 0.479999989
vt 0 0.5
vt 0 0.449999988
vt 0.949999988 0.5
vt 0.949999988 0.5
vt 0 0.449999988
vt 0.949999988 0.449999988
vt 0.949999988 0
vt 1 0
vt 0.949999988 0.949999988
vt 0.949999988 0.949999988
vt 1 0
vt 1 0.949999988
vt -0.949999988 0.5
vt -0.980000019 0.5
vt -0.949999988 0.449999988
vt -0.949999988 0.449999988
vt -0.980000019 0.5
vt -0.987653971 0.498477995
vt 0 0.449999988
vt 0 0.498477995
vt 0 0.449999988
vt -0.949999988 0.449999988
vt -0.987653971 0.498477995
vt -0.994141996 0.494141996
vt 0 0.449999988
vt 0 0.494141996
vt 0 0.449999988
vt -0.949999988 0.449999988
vt -0.994141996 0.494141996
vt -0.998477995 0.487654001
vt 0 0.449999988
vt 0 0.487654001
vt 0 0.449999988
vt -0.949999988 0.449999988
vt -0.998477995 0.487654001
vt -1 0.479999989
vt -0.949999988 0.449999988
vt -1 0.479999989
vt -1 0.449999988
vt -1 0.449999988
vt -1 -0.449999988
vt -0.949999988 0.449999988
vt -0.949999988 0.449999988
vt -1 -0.449999988
vt -0.949999988 -0.449999988
vt -1 0
vt -0.949999988 0
vt -1 0.949999988
vt -1 0.949999988
vt -0.949999988 0
vt -0.949999988 0.949999988
vt -0.949999988 -0.5
vt -0.949999988 -0.449999988
vt -0.980000019 -0.5
vt 0 -0.5
vt 0 -0.449999988
vt 0 -0.449999988
vt -0.980000019 -0.5
vt -0.949999988 -0.449999988
vt -0.987653971 -0.498477995
vt 0 -0.498477995
vt 0 -0.449999988
vt 0 -0.449999988
vt -0.987653971 -0.498477995
vt -0.949999988 -0.449999988
vt -0.994141996 -0.494141996
vt 0 -0.494141996
vt 0 -0.449999988
vt 0 -0.449999988
vt -0.994141996 -0.494141996
vt -0.949999988 -0.449999988
vt -0.998477995 -0.487654001
vt 0 -0.487654001
vt 0 -0.449999988
vt 0 -0.449999988
vt -0.998477995 -0.487654001
vt -0.949999988 -0.449999988
vt -1 -0.479999989
vt -1 -0.479999989
vt -0.949999988 -0.449999988
vt -1 -0.449999988
vt 0 -0.5
vt 0.949999988 -0.5
vt 0 -0.449999988
vt 0 -0.449999988
vt 0.949999988 -0.5
vt 0.949999988 -0.449999988
vt -0.949999988 -0.5
vt 0.949999988 -0.5
vt -0.949999988 -0.449999988
vt -0.949999988 -0.449999988
vt 0.949999988 -0.5
vt 0.949999988 -0.449999988
vt 0.949999988 1
vt -0.949999988 1
vt 0.949999988 0.949999988
vt 0.949999988 0.949999988
vt -0.949999988 1
vt -0.949999988 0.949999988
vt 1 0.449999988
vt 0.949999988 0.449999988
vt 1 -0.449999988
vt 1 -0.449999988
vt 0.949999988 0.449999988
vt 0.949999988 -0.449999988
vt -0.949999988 1
vt -0.949999988 0.949999988
vt 0.949999988 1
vt 0.949999988 1
vt -0.949999988 0.949999988
vt 0.949999988 0.949999988
vt -1 -0.449999988
vt -0.949999988 -0.449999988
vt -1 0.449999988
vt -1 0.449999988
vt -0.949999988 -0.449999988
vt -0.949999988 0.449999988
vt -0.949999988 0.449999988
vt 0.949999988 0.449999988
vt -0.949999988 0.5
vt -0.949999988 0.5
vt 0.949999988 0.449999988
vt 0.949999988 0.5
vt 0.949999988 -0.5
vt 0.980000019 -0.5
vt 0.949999988 -0.449999988
vt 0.949999988 -0.449999988
vt 0.980000019 -0.5
vt 0.987653971 -0.498477995
vt 0 -0.449999988
vt 0 -0.498477995
vt 0 -0.449999988
vt 0.949999988 -0.449999988
vt 0.987653971 -0.498477995
vt 0.994141996 -0.494141996
vt 0 -0.449999988
vt 0 -0.494141996
vt 0 -0.449999988
vt 0.949999988 -0.449999988
vt 0.994141996 -0.494141996
vt 0.998477995 -0.487654001
vt 0 -0.449999988
vt 0 -0.487654001
vt 0 -0.449999988
vt 0.949999988 -0.449999988
vt 0.998477995 -0.487654001
vt 1 -0.479999989
vt 0.949999988 -0.449999988
vt 1 -0.479999989
vt 1 -0.449999988
vt 0 -0.5
vt 0 -0.449999988
vt -0.949999988 -0.5
vt -0.949999988 -0.5
vt 0 -0.449999988
vt -0.949999988 -0.449999988
vt 0.949999988 0
vt 1 0
vt 0.949999988 0.949999988
vt 0.949999988 0.949999988
vt 1 0
vt 1 0.949999988
vt 1 -0.449999988
vt 1 0.449999988
vt 0.949999988 -0.449999988
vt 0.949999988 -0.449999988
vt 1 0.449999988
vt 0.949999988 0.449999988
vt -1 0.949999988
vt -1 0
vt -0.949999988 0.949999988
vt -0.949999988 0.949999988
vt -1 0
vt -0.949999988 0
vt 1 0.449999988
vt 1 0.479999989
vt 0.949999988 0.449999988
vt 0.949999988 0.449999988
vt 1 0.479999989
vt 0.998477995 0.487654001
vt 0 0.449999988
vt 0 0.487654001
vt 0 0.449999988
vt 0.949999988 0.449999988
vt 0.998477995 0.487654001
vt 0.994141996 0.494141996
vt 0 0.449999988
vt 0 0.494141996
vt 0 0.449999988
vt 0.949999988 0.449999988
vt 0.994141996 0.494141996
vt 0.987653971 0.498477995
vt 0 0.449999988
vt 0 0.498477995
vt 0 0.449999988
vt 0.949999988 0.449999988
vt 0.987653971 0.498477995
vt 0.980000019 0.5
vt 0.949999988 0.449999988
vt 0.980000019 0.5
vt 0.949999988 0.5
vt -0.949999988 0.449999988
vt 0 0.449999988
vt -0.949999988 0.5
vt -0.949999988 0.5
vt 0 0.449999988
vt 0 0.5
vt -1 1.95000005
vt -1 1.875
vt 1 1.95000005
vt 1 1.95000005
vt -1 1.875
vt 1 1.875
vt -1.95000005 -0.0799999982
vt -1.875 -0.129999995
vt -1.95000005 0.0199999996
vt -1.95000005 0.0199999996
vt -1.875 -0.129999995
vt -1.875 0.0700000003
vt 1 -0.0799999982
vt 1 0.0199999996
vt -1 -0.0799999982
vt -1 -0.0799999982
vt 1 0.0199999996
vt -1 0.0199999996
vt 1 1.875
vt 1 1.95000005
vt -1 1.875
vt -1 1.875
vt 1 1.95000005
vt -1 1.95000005
vt 1.875 0.0700000003
vt 1.875 -0.129999995
vt 1.95000005 0.0199999996
vt 1.95000005 0.0199999996
vt 1.875 -0.129999995
vt 1.95000005 -0.0799999982
vt 0.949999988 1.376508
vt 0.949999988 1.52499998
vt -0.949999988 1.376508
vt -0.949999988 1.376508
vt 0.949999988 1.52499998
vt -0.949999988 1.52499998
vt 0.949999988 1.376508
vt 0.949999988 1.41186297
vt -0.949999988 1.376508
vt -0.949999988 1.376508
vt 0.949999988 1.41186297
vt -0.949999988 1.41186297
vt -1.41893399 0.298222989
vt -1.41186297 0.291152
vt -1.39065003 0.326507986
vt -1.39065003 0.326507986
vt -1.41186297 0.291152
vt -1.376508 0.326507986
vt -1.39065003 0.326507986
vt -1.376508 0.326507986
vt -1.39065003 0.326507986
vt -1.39065003 0.326507986
vt -1.376508 0.326507986
vt -1.52499998 0.474999994
vt -1.39065003 0.326507986
vt -1.52499998 0.474999994
vt -1.53207099 0.467929006
vt 0.949999988 0.291152
vt 0.949999988 0.298222989
vt -0.949999988 0.291152
vt -0.949999988 0.291152
vt 0.949999988 0.298222989
vt -0.949999988 0.298222989
vt 0.949999988 0.298222989
vt 0.949999988 0.326507986
vt -0.949999988 0.298222989
vt -0.949999988 0.298222989
vt 0.949999988 0.326507986
vt -0.949999988 0.326507986
vt 1.41893399 0.298222989
vt 1.39065003 0.326507986
vt 1.41186297 0.291152
vt -1.41186297 0.291152
vt -1.39065003 0.326507986
vt -1.39065003 0.326507986
vt 1.41186297 0.291152
vt 1.39065003 0.326507986
vt 1.376508 0.326507986
vt -1.376508 0.326507986
vt -1.39065003 0.326507986
vt -1.39065003 0.326507986
vt 1.376508 0.326507986
vt 1.39065003 0.326507986
vt 1.52499998 0.474999994
vt 1.52499998 0.474999994
vt 1.39065003 0.326507986
vt 1.53207099 0.467929006
vt 0.949999988 1.39065003
vt 0.949999988 1.53207099
vt -0.949999988 1.39065003
vt -0.949999988 1.39065003
vt 0.949999988 1.53207099
vt -0.949999988 1.53207099
vt -0.980000019 0.479999989
vt -0.987653971 0.479999989
vt -0.980000019 -0.0799999982
vt -2 -0.0799999982
vt -1.99847806 0.479999989
vt -1.99847806 0.479999989
vt -0.980000019 -0.0799999982
vt -0.987653971 0.479999989
vt -0.987653971 -0.0799999982
vt -0.987653971 -0.0799999982
vt -0.987653971 0.479999989
vt -0.994141996 0.479999989
vt -0.987653971 -0.0799999982
vt -0.994141996 0.479999989
vt -0.994141996 -0.0799999982
vt 1.99414206 -0.0799999982
vt 1.99414206 0.479999989
vt 1.98765397 0.479999989
vt 1.99414206 -0.0799999982
vt 1.98765397 0.479999989
vt 1.98765397 -0.0799999982
vt 1.98765397 -0.0799999982
vt 1.98765397 0.479999989
vt 1.98000002 0.479999989
vt 1.98765397 -0.0799999982
vt 1.98000002 0.479999989
vt 1.98000002 -0.0799999982
vt 0.980000019 1
vt 0.987653971 1
vt 0.980000019 1.98000002
vt -1.98000002 0.5
vt -1 0.498477012
vt -1 0.498477012
vt 0.980000019 1.98000002
vt 0.987653971 1
vt 0.987653971 1.98000002
vt 0.987653971 1.98000002
vt 0.987653971 1
vt 0.994141996 1
vt 0.987653971 1.98000002
vt 0.994141996 1
vt 0.994141996 1.98000002
vt 1.98000002 0.494141996
vt 1 0.494141996
vt 1 0.487652987
vt 1.98000002 0.494141996
vt 1 0.487652987
vt 1.98000002 0.487652987
vt 1.98000002 0.487652987
vt 1 0.487652987
vt 1 0.479999989
vt 1.98000002 0.487652987
vt 1 0.479999989
vt 1.98000002 0.479999989
vt 0.980000019 1.98000002
vt 0.980000019 1.98765397
vt -0.980000019 1.98000002
vt -1.98000002 0.5
vt -1.98765397 0.498477012
vt -1.98765397 0.498477012
vt -0.980000019 1.98000002
vt 0.980000019 1.98765397
vt -0.980000019 1.98765397
vt -0.980000019 1.98765397
vt 0.980000019 1.98765397
vt 0.980000019 1.99414206
vt -0.980000019 1.98765397
vt 0.980000019 1.99414206
vt -0.980000019 1.99414206
vt 0.980000019 0.494141996
vt -0.980000019 0.494141996
vt -0.980000019 0.487652987
vt 0.980000019 0.494141996
vt -0.980000019 0.487652987
vt 0.980000019 0.487652987
vt 0.980000019 0.487652987
vt -0.980000019 0.487652987
vt -0.980000019 0.479999989
vt 0.980000019 0.487652987
vt -0.980000019 0.479999989
vt 0.980000019 0.479999989
vt 1 0.449999988
vt 1 0.479999989
vt 0.949999988 0.449999988
vt 0.949999988 0.449999988
vt 1 0.479999989
vt 0.998477995 0.487652987
vt -1 0.449999988
vt -1 0.487652987
vt -1 0.449999988
vt 0.949999988 0.449999988
vt 0.998477995 0.487652987
vt 0.994141996 0.494141996
vt -1 0.449999988
vt -1 0.494141996
vt -1 0.449999988
vt 0.949999988 0.449999988
vt 0.994141996 0.494141996
vt 0.987653971 0.498477012
vt -1 0.449999988
vt -1 0.498477012
vt -1 0.449999988
vt 0.949999988 0.449999988
vt 0.987653971 0.498477012
vt 0.980000019 0.5
vt 0.949999988 0.449999988
vt 0.980000019 0.5
vt 0.949999988 0.5
vt -1 1
vt -0.949999988 1
vt -1 1.95000005
vt -1 1.95000005
vt -0.949999988 1
vt -0.949999988 1.95000005
vt 1.95000005 -0.0799999982
vt 1.98000002 -0.0799999982
vt 1.95000005 0.449999988
vt 1.95000005 0.449999988
vt 1.98000002 -0.0799999982
vt 1.98000002 0.479999989
vt -1.95000005 0.449999988
vt -1.98000002 0.479999989
vt -1.95000005 0.449999988
vt 1.95000005 0.449999988
vt 1.98000002 0.479999989
vt 1 0.479999989
vt 1.95000005 0.449999988
vt 1 0.479999989
vt 1 0.449999988
vt -1.95000005 0.449999988
vt -1 0.449999988
vt -1.95000005 0.5
vt -1.95000005 0.5
vt -1 0.449999988
vt -1 0.5
vt -0.980000019 1.98000002
vt -0.987653971 1.98000002
vt -0.980000019 1.95000005
vt -1.95000005 -0.100000001
vt -1.98000002 -0.0984779969
vt -1.98000002 -0.0984779969
vt -0.980000019 1.95000005
vt -0.987653971 1.98000002
vt -0.987653971 1.95000005
vt -0.987653971 1.95000005
vt -0.987653971 1.98000002
vt -0.994141996 1.98000002
vt -0.987653971 1.95000005
vt -0.994141996 1.98000002
vt -0.994141996 1.95000005
vt 1.95000005 -0.0941419974
vt 1.98000002 -0.0941419974
vt 1.98000002 -0.087654002
vt 1.95000005 -0.0941419974
vt 1.98000002 -0.087654002
vt 1.95000005 -0.087654002
vt 1.95000005 -0.087654002
vt 1.98000002 -0.087654002
vt 1.98000002 -0.0799999982
vt 1.95000005 -0.087654002
vt 1.98000002 -0.0799999982
vt 1.95000005 -0.0799999982
vt 1.98000002 -0.0799999982
vt 1.98000002 -0.087654002
vt 1.98765397 -0.0799999982
vt 1.98765397 -0.0799999982
vt 1.98000002 -0.087654002
vt 1.98765397 -0.0870710015
vt 1.98765397 -0.0799999982
vt 1.98765397 -0.0870710015
vt 1.99414206 -0.0799999982
vt 1.99414206 -0.0799999982
vt 1.98765397 -0.0870710015
vt 1.99414206 -0.0854120031
vt -0.994141996 -0.0799999982
vt -0.993066013 -0.0854120031
vt -0.987653971 -0.0799999982
vt -0.987653971 -0.0799999982
vt -0.993066013 -0.0854120031
vt -0.987070978 -0.0829290003
vt -0.987653971 -0.0799999982
vt -0.987070978 -0.0829290003
vt -0.980000019 -0.0799999982
vt -0.980000019 -0.0799999982
vt -0.987070978 -0.0829290003
vt -0.985412002 -0.0854120031
vt -0.980000019 -0.0799999982
vt -0.985412002 -0.0854120031
vt -0.982928991 -0.0870710015
vt -0.982928991 -0.0870710015
vt -0.985412002 -0.0854120031
vt -0.985412002 -0.0930659994
vt -0.982928991 -0.0870710015
vt -0.985412002 -0.0930659994
vt -0.980000019 -0.0941419974
vt -1.99414206 -0.0941419974
vt -1.99414206 -0.0930659994
vt -1.99414206 -0.0930659994
vt -0.980000019 1.99414206
vt -0.985412002 1.99414206
vt -0.980000019 1.98765397
vt -0.980000019 1.98765397
vt -0.985412002 1.99414206
vt -0.987070978 1.98765397
vt -0.980000019 1.98765397
vt -0.987070978 1.98765397
vt -0.980000019 1.98000002
vt -1.98000002 -0.100000001
vt -1.98765397 -0.0970709994
vt -1.98765397 -0.0970709994
vt -0.980000019 1.98000002
vt -0.987070978 1.98765397
vt -0.987653971 1.98000002
vt -0.987653971 1.98000002
vt -0.987070978 1.98765397
vt -0.993066013 1.98765397
vt -0.987653971 1.98000002
vt -0.993066013 1.98765397
vt -0.994141996 1.98000002
vt 1.98000002 -0.0941419974
vt 1.98765397 -0.0930659994
vt 1.98765397 -0.0870710015
vt 1.98000002 -0.0941419974
vt 1.98765397 -0.0870710015
vt 1.98000002 -0.087654002
vt 1.98765397 -0.0870710015
vt 1.98765397 -0.0930659994
vt 1.99414206 -0.0854120031
vt 1.99414206 -0.0854120031
vt 1.98765397 -0.0930659994
vt 1.99414206 -0.0900000036
vt -0.993066013 -0.0854120031
vt -0.99000001 -0.0900000036
vt -0.987070978 -0.0829290003
vt -1.99847806 -0.0829290003
vt -1.99414206 -0.0900000036
vt -1.99414206 -0.0900000036
vt -0.987070978 -0.0829290003
vt -0.99000001 -0.0900000036
vt -0.985412002 -0.0854120031
vt -1.99847806 -0.0854120031
vt -1.99414206 -0.0900000036
vt -1.99414206 -0.0900000036
vt -0.985412002 -0.0854120031
vt -0.99000001 -0.0900000036
vt -0.985412002 -0.0930659994
vt -1.99414206 -0.0930659994
vt -1.99414206 -0.0900000036
vt -1.99414206 -0.0900000036
vt -0.985412002 1.99414206
vt -0.99000001 1.99414206
vt -0.987070978 1.98765397
vt -0.987070978 1.98765397
vt -0.99000001 1.99414206
vt -0.993066013 1.98765397
vt -0.980000019 -0.0941419974
vt -0.980000019 -0.087654002
vt -0.982928991 -0.0870710015
vt -0.982928991 -0.0870710015
vt -0.980000019 -0.087654002
vt -0.980000019 -0.0799999982
vt 0.980000019 1.98000002
vt -0.980000019 1.98000002
vt 0.980000019 1.95000005
vt 0.980000019 1.95000005
vt -0.980000019 1.98000002
vt -0.980000019 1.95000005
vt -0.980000019 -0.0799999982
vt -0.980000019 -0.087654002
vt 0.980000019 -0.0799999982
vt -2 -0.0799999982
vt -1.99847806 -0.087654002
vt -1.99847806 -0.087654002
vt 0.980000019 -0.0799999982
vt -0.980000019 -0.087654002
vt 0.980000019 -0.087654002
vt 0.980000019 -0.087654002
vt -0.980000019 -0.087654002
vt -0.980000019 -0.0941419974
vt 0.980000019 -0.087654002
vt -0.980000019 -0.0941419974
vt 0.980000019 -0.0941419974
vt 0.980000019 1.99414206
vt -0.980000019 1.99414206
vt -0.980000019 1.98765397
vt 0.980000019 1.99414206
vt -0.980000019 1.98765397
vt 0.980000019 1.98765397
vt 0.980000019 1.98765397
vt -0.980000019 1.98765397
vt -0.980000019 1.98000002
vt 0.980000019 1.98765397
vt -0.980000019 1.98000002
vt 0.980000019 1.98000002
vt -1.98000002 -0.0799999982
vt -1.98000002 -0.087654002
vt -1.95000005 -0.0799999982
vt -1.95000005 -0.0799999982
vt -1.98000002 -0.087654002
vt -1.98000002 -0.087654002
vt -1.95000005 -0.0799999982
vt -1.98000002 -0.087654002
vt -1.95000005 -0.087654002
vt -1.95000005 -0.087654002
vt -1.98000002 -0.087654002
vt -1.98000002 -0.0941419974
vt -1.95000005 -0.087654002
vt -1.98000002 -0.0941419974
vt -1.95000005 -0.0941419974
vt 0.994141996 1.95000005
vt 0.994141996 1.98000002
vt 0.987653971 1.98000002
vt 0.994141996 1.95000005
vt 0.987653971 1.98000002
vt 0.987653971 1.95000005
vt 0.987653971 1.95000005
vt 0.987653971 1.98000002
vt 0.980000019 1.98000002
vt 0.987653971 1.95000005
vt 0.980000019 1.98000002
vt 0.980000019 1.95000005
vt 0.980000019 1.98000002
vt 0.987653971 1.98000002
vt 0.980000019 1.98765397
vt 0.980000019 1.98765397
vt 0.987653971 1.98000002
vt 0.987070978 1.98765397
vt 0.980000019 1.98765397
vt 0.987070978 1.98765397
vt 0.980000019 1.99414206
vt 0.980000019 1.99414206
vt 0.987070978 1.98765397
vt 0.985412002 1.99414206
vt 0.980000019 -0.0941419974
vt 0.985412002 -0.0930659994
vt 0.980000019 -0.087654002
vt 0.980000019 -0.087654002
vt 0.985412002 -0.0930659994
vt 0.982928991 -0.0870710015
vt 0.980000019 -0.087654002
vt 0.982928991 -0.0870710015
vt 0.980000019 -0.0799999982
vt 0.980000019 -0.0799999982
vt 0.982928991 -0.0870710015
vt 0.985412002 -0.0854120031
vt 0.980000019 -0.0799999982
vt 0.985412002 -0.0854120031
vt 0.987070978 -0.0829290003
vt 0.987070978 -0.0829290003
vt 0.985412002 -0.0854120031
vt 0.993066013 -0.0854120031
vt 0.987070978 -0.0829290003
vt 0.993066013 -0.0854120031
vt 0.994141996 -0.0799999982
vt -1.99414206 -0.0799999982
vt -1.99414206 -0.0854120031
vt -1.99414206 -0.0854120031
vt -1.99414206 -0.0799999982
vt -1.99414206 -0.0854120031
vt -1.98765397 -0.0799999982
vt -1.98765397 -0.0799999982
vt -1.99414206 -0.0854120031
vt -1.98765397 -0.0870710015
vt -1.98765397 -0.0799999982
vt -1.98765397 -0.0870710015
vt -1.98000002 -0.0799999982
vt -1.98000002 -0.0799999982
vt -1.98765397 -0.0870710015
vt -1.98765397 -0.0870710015
vt -1.98000002 -0.0799999982
vt -1.98765397 -0.0870710015
vt -1.98000002 -0.087654002
vt -1.98000002 -0.087654002
vt -1.98765397 -0.0870710015
vt -1.98765397 -0.0930659994
vt -1.98000002 -0.087654002
vt -1.98765397 -0.0930659994
vt -1.98000002 -0.0941419974
vt 0.994141996 1.98000002
vt 0.993066013 1.98765397
vt 0.987070978 1.98765397
vt 0.994141996 1.98000002
vt 0.987070978 1.98765397
vt 0.987653971 1.98000002
vt 0.987070978 1.98765397
vt 0.993066013 1.98765397
vt 0.985412002 1.99414206
vt 0.985412002 1.99414206
vt 0.993066013 1.98765397
vt 0.99000001 1.99414206
vt 0.985412002 -0.0930659994
vt 0.99000001 -0.0900000036
vt 0.982928991 -0.0870710015
vt -1.99847806 -0.0870710015
vt -1.99414206 -0.0900000036
vt -1.99414206 -0.0900000036
vt 0.982928991 -0.0870710015
vt 0.99000001 -0.0900000036
vt 0.985412002 -0.0854120031
vt -1.99847806 -0.0854120031
vt -1.99414206 -0.0900000036
vt -1.99414206 -0.0900000036
vt 0.985412002 -0.0854120031
vt 0.99000001 -0.0900000036
vt 0.993066013 -0.0854120031
vt -1.99414206 -0.0854120031
vt -1.99414206 -0.0900000036
vt -1.99414206 -0.0900000036
vt -1.99414206 -0.0854120031
vt -1.99414206 -0.0900000036
vt -1.98765397 -0.0870710015
vt -1.98765397 -0.0870710015
vt -1.99414206 -0.0900000036
vt -1.98765397 -0.0930659994
vt 0.994141996 -0.0799999982
vt 0.987653971 -0.0799999982
vt 0.987070978 -0.0829290003
vt 0.987070978 -0.0829290003
vt 0.987653971 -0.0799999982
vt 0.980000019 -0.0799999982
vt 0.980000019 -0.0799999982
vt 0.987653971 -0.0799999982
vt 0.980000019 0.479999989
vt -2 0.479999989
vt -1.99847806 -0.0799999982
vt -1.99847806 -0.0799999982
vt 0.980000019 0.479999989
vt 0.987653971 -0.0799999982
vt 0.987653971 0.479999989
vt 0.987653971 0.479999989
vt 0.987653971 -0.0799999982
vt 0.994141996 -0.0799999982
vt 0.987653971 0.479999989
vt 0.994141996 -0.0799999982
vt 0.994141996 0.479999989
vt -1.99414206 0.479999989
vt -1.99414206 -0.0799999982
vt -1.98765397 -0.0799999982
vt -1.99414206 0.479999989
vt -1.98765397 -0.0799999982
vt -1.98765397 0.479999989
vt -1.98765397 0.479999989
vt -1.98765397 -0.0799999982
vt -1.98000002 -0.0799999982
vt -1.98765397 0.479999989
vt -1.98000002 -0.0799999982
vt -1.98000002 0.479999989
vt -1.98000002 0.479999989
vt -1.98000002 0.487652987
vt -1.98765397 0.479999989
vt -1.98765397 0.479999989
vt -1.98000002 0.487652987
vt -1.98765397 0.487071007
vt -1.98765397 0.479999989
vt -1.98765397 0.487071007
vt -1.99414206 0.479999989
vt -1.99414206 0.479999989
vt -1.98765397 0.487071007
vt -1.99414206 0.485412002
vt 0.994141996 0.479999989
vt 0.993066013 0.485412002
vt 0.987653971 0.479999989
vt 0.987653971 0.479999989
vt 0.993066013 0.485412002
vt 0.987070978 0.482928991
vt 0.987653971 0.479999989
vt 0.987070978 0.482928991
vt 0.980000019 0.479999989
vt 0.980000019 0.479999989
vt 0.987070978 0.482928991
vt 0.985412002 0.485412002
vt 0.980000019 0.479999989
vt 0.985412002 0.485412002
vt 0.982928991 0.487071007
vt 0.982928991 0.487071007
vt 0.985412002 0.485412002
vt 0.985412002 0.493065
vt 0.982928991 0.487071007
vt 0.985412002 0.493065
vt 0.980000019 0.494141996
vt -1.99414206 0.494141996
vt -1.99414206 0.493065
vt -1.99414206 0.493065
vt -0.980000019 1.99414206
vt -0.985412002 1.99414206
vt -0.980000019 1.98765397
vt -0.980000019 1.98765397
vt -0.985412002 1.99414206
vt -0.987070978 1.98765397
vt -0.980000019 1.98765397
vt -0.987070978 1.98765397
vt -0.980000019 1.98000002
vt -1.98000002 0.5
vt -1.98765397 0.497070998
vt -1.98765397 0.497070998
vt -0.980000019 1.98000002
vt -0.987070978 1.98765397
vt -0.987653971 1.98000002
vt -0.987653971 1.98000002
vt -0.987070978 1.98765397
vt -0.993066013 1.98765397
vt -0.987653971 1.98000002
vt -0.993066013 1.98765397
vt -0.994141996 1.98000002
vt -1.98000002 0.494141996
vt -1.98765397 0.493065
vt -1.98765397 0.487071007
vt -1.98000002 0.494141996
vt -1.98765397 0.487071007
vt -1.98000002 0.487652987
vt -1.98765397 0.487071007
vt -1.98765397 0.493065
vt -1.99414206 0.485412002
vt -1.99414206 0.485412002
vt -1.98765397 0.493065
vt -1.99414206 0.49000001
vt 0.993066013 0.485412002
vt 0.99000001 0.49000001
vt 0.987070978 0.482928991
vt -1.99847806 0.482928991
vt -1.99414206 0.49000001
vt -1.99414206 0.49000001
vt 0.987070978 0.482928991
vt 0.99000001 0.49000001
vt 0.985412002 0.485412002
vt -1.99847806 0.485412002
vt -1.99414206 0.49000001
vt -1.99414206 0.49000001
vt 0.985412002 0.485412002
vt 0.99000001 0.49000001
vt 0.985412002 0.493065
vt -1.99414206 0.493065
vt -1.99414206 0.49000001
vt -1.99414206 0.49000001
vt -0.985412002 1.99414206
vt -0.99000001 1.99414206
vt -0.987070978 1.98765397
vt -0.987070978 1.98765397
vt -0.99000001 1.99414206
vt -0.993066013 1.98765397
vt 0.980000019 0.494141996
vt 0.980000019 0.487652987
vt 0.982928991 0.487071007
vt 0.982928991 0.487071007
vt 0.980000019 0.487652987
vt 0.980000019 0.479999989
vt -0.980000019 1.98000002
vt -0.987653971 1.98000002
vt -0.980000019 1
vt -1 0.5
vt -1.98000002 0.498477012
vt -1.98000002 0.498477012
vt -0.980000019 1
vt -0.987653971 1.98000002
vt -0.987653971 1
vt -0.987653971 1
vt -0.987653971 1.98000002
vt -0.994141996 1.98000002
vt -0.987653971 1
vt -0.994141996 1.98000002
vt -0.994141996 1
vt -1 0.494141996
vt -1.98000002 0.494141996
vt -1.98000002 0.487652987
vt -1 0.494141996
vt -1.98000002 0.487652987
vt -1 0.487652987
vt -1 0.487652987
vt -1.98000002 0.487652987
vt -1.98000002 0.479999989
vt -1 0.487652987
vt -1.98000002 0.479999989
vt -1 0.479999989
vt 0.949999988 1
vt 0.980000019 1
vt 0.949999988 1.95000005
vt 0.949999988 1.95000005
vt 0.980000019 1
vt 0.980000019 1.98000002
vt 0.949999988 1.95000005
vt 0.980000019 1.98000002
vt -0.949999988 1.95000005
vt -0.949999988 1.95000005
vt 0.980000019 1.98000002
vt -0.980000019 1.98000002
vt -1.95000005 0.5
vt -1.98000002 0.5
vt -1.95000005 0.5
vt -0.949999988 1.95000005
vt -0.980000019 1.98000002
vt -0.980000019 1
vt -0.949999988 1.95000005
vt -0.980000019 1
vt -0.949999988 1
vt -1.95000005 -0.0799999982
vt -1.95000005 0.449999988
vt -1.98000002 -0.0799999982
vt -1.98000002 -0.0799999982
vt -1.95000005 0.449999988
vt -1.95000005 0.449999988
vt -1.98000002 -0.0799999982
vt -1.95000005 0.449999988
vt -1.98000002 0.479999989
vt -1.98000002 0.479999989
vt -1.95000005 0.449999988
vt -1.95000005 0.449999988
vt -1.98000002 0.479999989
vt -1.95000005 0.449999988
vt -1 0.479999989
vt -1 0.479999989
vt -1.95000005 0.449999988
vt -1 0.449999988
vt -1 0.449999988
vt -0.949999988 0.449999988
vt -1 0.479999989
vt -1 0.479999989
vt -1 0.449999988
vt -1 0.449999988
vt -1 0.479999989
vt -0.949999988 0.449999988
vt -0.998477995 0.487652987
vt -1 0.487652987
vt -1 0.449999988
vt -1 0.449999988
vt -0.998477995 0.487652987
vt -0.949999988 0.449999988
vt -0.994141996 0.494141996
vt -1 0.494141996
vt -1 0.449999988
vt -1 0.449999988
vt -0.994141996 0.494141996
vt -0.949999988 0.449999988
vt -0.987653971 0.498477012
vt -1 0.498477012
vt -1 0.449999988
vt -1 0.449999988
vt -0.987653971 0.498477012
vt -0.949999988 0.449999988
vt -0.980000019 0.5
vt -0.980000019 0.5
vt -0.949999988 0.449999988
vt -0.949999988 0.5
vt 1 0.5
vt 1 0.449999988
vt 1.95000005 0.5
vt 1.95000005 0.5
vt 1 0.449999988
vt 1.95000005 0.449999988
vt 0.949999988 1
vt 1 1
vt 0.949999988 1.95000005
vt 0.949999988 1.95000005
vt 1 1
vt 1 1.95000005
vt -0.949999988 0.449999988
vt 0.949999988 0.449999988
vt -0.949999988 0.5
vt -0.949999988 0.5
vt 0.949999988 0.449999988
vt 0.949999988 0.5
vt 0.949999988 1.95000005
vt 0.949999988 2
vt -0.949999988 1.95000005
vt -0.949999988 1.95000005
vt 0.949999988 2
vt -0.949999988 2
vt 0.949999988 0.449999988
vt 0.949999988 -0.0500000007
vt 1 0.449999988
vt -1.95000005 0.449999988
vt -1.95000005 -0.0500000007
vt -1.95000005 -0.0500000007
vt 1 0.449999988
vt 0.949999988 -0.0500000007
vt 1 -0.0799999982
vt -1.95000005 -0.0799999982
vt -1.95000005 -0.0500000007
vt -1.95000005 -0.0500000007
vt 1 -0.0799999982
vt 0.949999988 -0.0500000007
vt 0.998477995 -0.087654002
vt -1.95000005 -0.087654002
vt -1.95000005 -0.0500000007
vt -1.95000005 -0.0500000007
vt 0.998477995 -0.087654002
vt 0.949999988 -0.0500000007
vt 0.994141996 -0.0941419974
vt -1.95000005 -0.0941419974
vt -1.95000005 -0.0500000007
vt -1.95000005 -0.0500000007
vt 0.994141996 -0.0941419974
vt 0.949999988 -0.0500000007
vt 0.987653971 -0.0984779969
vt -1.95000005 -0.0984779969
vt -1.95000005 -0.0500000007
vt -1.95000005 -0.0500000007
vt 0.987653971 -0.0984779969
vt 0.949999988 -0.0500000007
vt 0.980000019 -0.100000001
vt -1.95000005 -0.100000001
vt -1.95000005 -0.0500000007
vt -1.95000005 -0.0500000007
vt 0.980000019 -0.100000001
vt 0.949999988 -0.0500000007
vt -0.980000019 -0.100000001
vt -0.980000019 -0.100000001
vt 0.949999988 -0.0500000007
vt -0.949999988 -0.0500000007
vt -0.980000019 -0.100000001
vt -0.949999988 -0.0500000007
vt -0.987653971 -0.0984779969
vt -1.95000005 -0.0984779969
vt -1.95000005 -0.0500000007
vt -1.95000005 -0.0500000007
vt -0.987653971 -0.0984779969
vt -0.949999988 -0.0500000007
vt -0.994141996 -0.0941419974
vt -1.95000005 -0.0941419974
vt -1.95000005 -0.0500000007
vt -1.95000005 -0.0500000007
vt -0.994141996 -0.0941419974
vt -0.949999988 -0.0500000007
vt -0.998477995 -0.087654002
vt -1.95000005 -0.087654002
vt -1.95000005 -0.0500000007
vt -1.95000005 -0.0500000007
vt -0.998477995 -0.087654002
vt -0.949999988 -0.0500000007
vt -1 -0.0799999982
vt -1.95000005 -0.0799999982
vt -1.95000005 -0.0500000007
vt -1.95000005 -0.0500000007
vt -1 -0.0799999982
vt -0.949999988 -0.0500000007
vt -1 0.449999988
vt -1 0.449999988
vt -0.949999988 -0.0500000007
vt -0.949999988 0.449999988
vt 0.980000019 0.479999989
vt -0.980000019 0.479999989
vt -0.949999988 0.449999988
vt -2 0.449999988
vt -2 0.479999989
vt -2 0.479999989
vt -0.949999988 0.449999988
vt -0.980000019 0.479999989
vt -0.949999988 -0.0500000007
vt -0.949999988 -0.0500000007
vt -0.980000019 0.479999989
vt -0.980000019 -0.0799999982
vt -0.949999988 -0.0500000007
vt -0.980000019 -0.0799999982
vt 0.949999988 -0.0500000007
vt 0.949999988 -0.0500000007
vt -0.980000019 -0.0799999982
vt 0.980000019 -0.0799999982
vt -2 -0.0500000007
vt -2 -0.0799999982
vt -2 -0.0500000007
vt 0.949999988 -0.0500000007
vt 0.980000019 -0.0799999982
vt 0.980000019 0.479999989
vt 0.949999988 -0.0500000007
vt 0.980000019 0.479999989
vt 0.949999988 0.449999988
vt 0.949999988 0.449999988
vt 0.980000019 0.479999989
vt -0.949999988 0.449999988
vt 2 0.449999988
vt 1.95000005 0.449999988
vt 2 -0.0500000007
vt 2 -0.0500000007
vt 1.95000005 0.449999988
vt 1.95000005 -0.0500000007
vt -2 -0.0500000007
vt -1.95000005 -0.0500000007
vt -2 0.449999988
vt -2 0.449999988
vt -1.95000005 -0.0500000007
vt -1.95000005 0.449999988
vt 0.949999988 2
vt -0.949999988 2
vt 0.949999988 1.95000005
vt 0.949999988 1.95000005
vt -0.949999988 2
vt -0.949999988 1.95000005
f 1/1 2/2 3/3
f 3/4 2/5 4/6
f 3/7 4/8 5/9
f 5/10 4/11 6/12
f 5/13 6/14 7/15
f 7/16 6/17 8/18
f 7/19 8/20 9/21
f 9/22 8/23 10/24
f 9/25 10/26 11/27
f 11/28 10/29 12/30
f 11/31 12/32 13/33
f 13/34 12/35 12/36
f 13/37 12/38 14/39
f 14/40 12/41 15/42
f 14/43 15/44 16/45
f 16/46 15/47 15/48
f 16/49 15/50 17/51
f 17/52 15/53 18/54
f 17/55 18/56 19/57
f 19/58 18/59 4/60
f 19/61 4/62 2/63
f 4/64 18/65 6/66
f 6/67 18/68 20/69
f 6/70 20/71 8/72
f 8/73 20/74 20/75
f 8/76 20/77 10/78
f 10/79 20/80 20/81
f 10/82 20/83 12/84
f 12/85 20/86 20/87
f 12/88 20/89 15/90
f 15/91 20/92 18/93
f 13/94 21/95 11/96
f 11/97 21/98 9/99
f 22/100 23/101 24/102
f 24/103 23/104 25/105
f 26/106 27/107 28/108
f 28/109 27/110 29/111
f 28/112 29/113 30/114
f 30/115 29/116 31/117
f 30/118 31/119 32/120
f 32/121 31/122 33/123
f 32/124 33/125 34/126
f 34/127 33/128 35/129
f 34/130 35/131 36/132
f 36/133 35/134 37/135
f 36/136 37/137 38/138
f 38/139 37/140 39/141
f 38/142 39/143 40/144
f 40/145 39/146 41/147
f 40/148 41/149 42/150
f 42/151 41/152 43/153
f 42/154 43/155 44/156
f 44/157 43/158 45/159
f 44/160 45/161 46/162
f 46/163 45/164 47/165
f 46/166 47/167 48/168
f 48/169 47/170 47/171
f 48/172 47/173 49/174
f 49/175 47/176 50/177
f 49/178 50/179 51/180
f 51/181 50/182 52/183
f 51/184 52/185 53/186
f 53/187 52/188 54/189
f 53/190 54/191 55/192
f 54/193 52/194 56/195
f 56/196 52/197 57/198
f 56/199 57/200 58/201
f 58/202 57/203 59/204
f 58/205 59/206 60/207
f 60/208 59/209 61/210
f 60/211 61/212 62/213
f 62/214 61/215 63/216
f 62/217 63/218 64/219
f 64/220 63/221 65/222
f 64/223 65/224 66/225
f 66/226 65/227 67/228
f 66/229 67/230 68/231
f 58/232 69/233 56/234
f 67/235 65/236 70/237
f 70/238 65/239 71/240
f 70/241 71/242 72/243
f 72/244 71/245 73/246
f 72/247 73/248 74/249
f 74/250 73/251 75/252
f 74/253 75/254 76/255
f 76/256 75/257 77/258
f 76/259 77/260 78/261
f 78/262 77/263 79/264
f 78/265 79/266 80/267
f 80/268 79/269 81/270
f 80/271 81/272 82/273
f 70/274 72/275 83/276
f 81/277 79/278 27/279
f 27/280 79/281 79/282
f 27/283 79/284 29/285
f 29/286 79/287 84/288
f 29/289 84/290 85/291
f 85/292 84/293 86/294
f 85/295 86/296 87/297
f 87/298 86/299 88/300
f 87/301 88/302 89/303
f 89/304 88/305 90/306
f 89/307 90/308 37/309
f 37/310 90/311 91/312
f 37/313 91/314 39/315
f 39/316 91/317 92/318
f 39/319 92/320 93/321
f 93/322 92/323 94/324
f 93/325 94/326 90/327
f 90/328 94/329 95/330
f 90/331 95/332 91/333
f 29/334 85/335 31/336
f 31/337 85/338 96/339
f 31/340 96/341 33/342
f 33/343 96/344 97/345
f 33/346 97/347 35/348
f 35/349 97/350 97/351
f 35/352 97/353 37/354
f 37/355 97/356 98/357
f 37/358 98/359 89/360
f 89/361 98/362 98/363
f 89/364 98/365 87/366
f 87/367 98/368 96/369
f 87/370 96/371 85/372
f 98/373 97/374 96/375
f 79/376 77/377 84/378
f 84/379 77/380 99/381
f 84/382 99/383 86/384
f 86/385 99/386 100/387
f 86/388 100/389 88/390
f 88/391 100/392 101/393
f 88/394 101/395 90/396
f 90/397 101/398 102/399
f 90/400 102/401 103/402
f 103/403 102/404 104/405
f 103/406 104/407 105/408
f 105/409 104/410 106/411
f 105/412 106/413 107/414
f 107/415 106/416 108/417
f 107/418 108/419 109/420
f 109/421 108/422 63/423
f 109/424 63/425 109/426
f 109/427 63/428 61/429
f 109/430 61/431 110/432
f 110/433 61/434 59/435
f 110/436 59/437 111/438
f 111/439 59/440 57/441
f 111/442 57/443 112/444
f 112/445 57/446 113/447
f 112/448 113/449 114/450
f 114/451 113/452 115/453
f 114/454 115/455 116/456
f 116/457 115/458 45/459
f 116/460 45/461 116/462
f 116/463 45/464 43/465
f 116/466 43/467 117/468
f 117/469 43/470 41/471
f 117/472 41/473 117/474
f 117/475 41/476 39/477
f 117/478 39/479 118/480
f 118/481 39/482 119/483
f 118/484 119/485 120/486
f 120/487 119/488 121/489
f 120/490 121/491 122/492
f 122/493 121/494 123/495
f 122/496 123/497 124/498
f 124/499 123/500 125/501
f 124/502 125/503 126/504
f 126/505 125/506 127/507
f 126/508 127/509 107/510
f 107/511 127/512 127/513
f 107/514 127/515 105/516
f 105/517 127/518 128/519
f 105/520 128/521 103/522
f 103/523 128/524 128/525
f 103/526 128/527 90/528
f 90/529 128/530 128/531
f 90/532 128/533 93/534
f 93/535 128/536 127/537
f 93/538 127/539 93/540
f 93/541 127/542 125/543
f 93/544 125/545 93/546
f 93/547 125/548 123/549
f 93/550 123/551 93/552
f 93/553 123/554 121/555
f 93/556 121/557 93/558
f 93/559 121/560 119/561
f 93/562 119/563 39/564
f 107/565 109/566 126/567
f 126/568 109/569 110/570
f 126/571 110/572 124/573
f 124/574 110/575 111/576
f 124/577 111/578 122/579
f 122/580 111/581 112/582
f 122/583 112/584 120/585
f 120/586 112/587 114/588
f 120/589 114/590 118/591
f 118/592 114/593 116/594
f 118/595 116/596 117/597
f 45/598 115/599 47/600
f 47/601 115/602 115/603
f 47/604 115/605 50/606
f 50/607 115/608 113/609
f 50/610 113/611 52/612
f 52/613 113/614 57/615
f 63/616 108/617 65/618
f 65/619 108/620 108/621
f 65/622 108/623 71/624
f 71/625 108/626 106/627
f 71/628 106/629 129/630
f 129/631 106/632 104/633
f 129/634 104/635 130/636
f 130/637 104/638 102/639
f 130/640 102/641 130/642
f 130/643 102/644 101/645
f 130/646 101/647 130/648
f 130/649 101/650 100/651
f 130/652 100/653 131/654
f 131/655 100/656 99/657
f 131/658 99/659 75/660
f 75/661 99/662 77/663
f 75/664 73/665 131/666
f 131/667 73/668 129/669
f 131/670 129/671 130/672
f 129/673 73/674 71/675
f 48/676 132/677 46/678
f 46/679 132/680 133/681
f 46/682 133/683 44/684
f 44/685 133/686 134/687
f 44/688 134/689 42/690
f 42/691 134/692 135/693
f 42/694 135/695 40/696
f 40/697 135/698 135/699
f 40/700 135/701 38/702
f 38/703 135/704 135/705
f 38/706 135/707 36/708
f 36/709 135/710 136/711
f 36/712 136/713 34/714
f 34/715 136/716 137/717
f 34/718 137/719 32/720
f 32/721 137/722 138/723
f 32/724 138/725 30/726
f 30/727 138/728 139/729
f 30/730 139/731 28/732
f 139/733 138/734 140/735
f 140/736 138/737 141/738
f 140/739 141/740 142/741
f 142/742 141/743 143/744
f 142/745 143/746 144/747
f 144/748 143/749 145/750
f 144/751 145/752 146/753
f 145/754 143/755 147/756
f 147/757 143/758 133/759
f 147/760 133/761 147/762
f 147/763 133/764 132/765
f 147/766 132/767 148/768
f 138/769 137/770 141/771
f 141/772 137/773 149/774
f 141/775 149/776 143/777
f 143/778 149/779 149/780
f 143/781 149/782 133/783
f 133/784 149/785 149/786
f 133/787 149/788 134/789
f 134/790 149/791 136/792
f 134/793 136/794 135/795
f 137/796 136/797 149/798
f 26/799 150/800 27/801
f 27/802 150/803 151/804
f 150/805 146/806 151/807
f 151/808 146/809 145/810
f 26/811 28/812 150/813
f 150/814 28/815 139/816
f 150/817 139/818 150/819
f 150/820 139/821 140/822
f 150/823 140/824 150/825
f 150/826 140/827 142/828
f 150/829 142/830 150/831
f 150/832 142/833 144/834
f 150/835 144/836 146/837
f 145/838 147/839 151/840
f 151/841 147/842 152/843
f 148/844 153/845 147/846
f 147/847 153/848 152/849
f 55/850 153/851 53/852
f 53/853 153/854 153/855
f 53/856 153/857 51/858
f 51/859 153/860 153/861
f 51/862 153/863 49/864
f 49/865 153/866 153/867
f 49/868 153/869 48/870
f 48/871 153/872 153/873
f 48/874 153/875 132/876
f 132/877 153/878 148/879
f 55/880 54/881 153/882
f 153/883 54/884 152/885
f 54/886 56/887 152/888
f 152/889 56/890 154/891
f 91/892 95/893 151/894
f 151/895 95/896 155/897
f 91/898 151/899 92/900
f 92/901 151/902 152/903
f 92/904 152/905 94/906
f 94/907 152/908 154/909
f 94/910 154/911 95/912
f 95/913 154/914 155/915
f 151/916 155/917 27/918
f 27/919 155/920 81/921
f 69/922 58/923 156/924
f 156/925 58/926 60/927
f 156/928 60/929 156/930
f 156/931 60/932 62/933
f 156/934 62/935 156/936
f 156/937 62/938 64/939
f 156/940 64/941 156/942
f 156/943 64/944 66/945
f 156/946 66/947 68/948
f 69/949 156/950 56/951
f 56/952 156/953 154/954
f 156/955 68/956 154/957
f 154/958 68/959 67/960
f 67/961 70/962 154/963
f 154/964 70/965 155/966
f 70/967 83/968 155/969
f 155/970 83/971 157/972
f 83/973 72/974 157/975
f 157/976 72/977 74/978
f 157/979 74/980 157/981
f 157/982 74/983 76/984
f 157/985 76/986 157/987
f 157/988 76/989 78/990
f 157/991 78/992 157/993
f 157/994 78/995 80/996
f 157/997 80/998 82/999
f 155/1000 157/1001 81/1002
f 81/1003 157/1004 82/1005
f 158/1006 159/1007 160/1008
f 160/1009 159/1010 161/1011
f 160/1012 161/1013 162/1014
f 162/1015 161/1016 163/1017
f 160/1018 162/1019 158/1020
f 158/1021 162/1022 164/1023
f 165/1024 164/1025 163/1026
f 163/1027 164/1028 162/1029
f 165/1030 159/1031 164/1032
f 164/1033 159/1034 158/1035
f 166/1036 22/1037 167/1038
f 167/1039 22/1040 24/1041
f 167/1042 168/1043 166/1044
f 166/1045 168/1046 169/1047
f 170/1048 168/1049 171/1050
f 171/1051 168/1052 167/1053
f 171/1054 167/1055 171/1056
f 171/1057 167/1058 24/1059
f 171/1060 24/1061 25/1062
f 168/1063 170/1064 169/1065
f 169/1066 170/1067 172/1068
f 170/1069 171/1070 172/1071
f 172/1072 171/1073 173/1074
f 172/1075 173/1076 169/1077
f 169/1078 173/1079 173/1080
f 169/1081 173/1082 166/1083
f 166/1084 173/1085 173/1086
f 166/1087 173/1088 22/1089
f 22/1090 173/1091 23/1092
f 171/1093 25/1094 173/1095
f 173/1096 25/1097 23/1098
f 9/1099 21/1100 174/1101
f 174/1102 21/1103 21/1104
f 174/1105 21/1106 175/1107
f 175/1108 21/1109 13/1110
f 175/1111 13/1112 176/1113
f 176/1114 13/1115 14/1116
f 176/1117 14/1118 177/1119
f 177/1120 14/1121 16/1122
f 177/1123 16/1124 178/1125
f 179/1126 180/1127 1/1128
f 1/1129 180/1130 180/1131
f 1/1132 180/1133 2/1134
f 2/1135 180/1136 181/1137
f 2/1138 181/1139 19/1140
f 19/1141 181/1142 182/1143
f 19/1144 182/1145 17/1146
f 17/1147 182/1148 183/1149
f 17/1150 183/1151 16/1152
f 1/1153 3/1154 184/1155
f 184/1156 3/1157 3/1158
f 184/1159 3/1160 185/1161
f 185/1162 3/1163 5/1164
f 185/1165 5/1166 186/1167
f 186/1168 5/1169 7/1170
f 186/1171 7/1172 187/1173
f 187/1174 7/1175 9/1176
f 187/1177 9/1178 188/1179
f 189/1180 183/1181 95/1182
f 95/1183 183/1184 182/1185
f 95/1186 182/1187 95/1188
f 95/1189 182/1190 181/1191
f 95/1192 181/1193 95/1194
f 95/1195 181/1196 180/1197
f 95/1198 180/1199 95/1200
f 95/1201 180/1202 179/1203
f 95/1204 179/1205 190/1206
f 189/1207 95/1208 191/1209
f 191/1210 95/1211 192/1212
f 158/1213 178/1214 191/1215
f 191/1216 178/1217 16/1218
f 191/1219 16/1220 191/1221
f 191/1222 16/1223 183/1224
f 191/1225 183/1226 189/1227
f 192/1228 95/1229 193/1230
f 193/1231 95/1232 190/1233
f 194/1234 195/1235 196/1236
f 196/1237 195/1238 195/1239
f 196/1240 195/1241 197/1242
f 197/1243 195/1244 198/1245
f 197/1246 198/1247 199/1248
f 199/1249 198/1250 200/1251
f 199/1252 200/1253 201/1254
f 201/1255 200/1256 178/1257
f 201/1258 178/1259 158/1260
f 178/1261 200/1262 177/1263
f 177/1264 200/1265 202/1266
f 177/1267 202/1268 176/1269
f 176/1270 202/1271 203/1272
f 176/1273 203/1274 175/1275
f 175/1276 203/1277 204/1278
f 175/1279 204/1280 174/1281
f 174/1282 204/1283 205/1284
f 174/1285 205/1286 206/1287
f 206/1288 205/1289 207/1290
f 206/1291 207/1292 208/1293
f 208/1294 207/1295 207/1296
f 208/1297 207/1298 209/1299
f 209/1300 207/1301 210/1302
f 209/1303 210/1304 194/1305
f 194/1306 210/1307 210/1308
f 194/1309 210/1310 195/1311
f 195/1312 210/1313 211/1314
f 195/1315 211/1316 198/1317
f 198/1318 211/1319 202/1320
f 198/1321 202/1322 200/1323
f 202/1324 211/1325 203/1326
f 203/1327 211/1328 212/1329
f 203/1330 212/1331 204/1332
f 204/1333 212/1334 212/1335
f 204/1336 212/1337 205/1338
f 205/1339 212/1340 212/1341
f 205/1342 212/1343 207/1344
f 207/1345 212/1346 212/1347
f 207/1348 212/1349 210/1350
f 210/1351 212/1352 211/1353
f 208/1354 213/1355 206/1356
f 206/1357 213/1358 174/1359
f 214/1360 194/1361 215/1362
f 215/1363 194/1364 196/1365
f 174/1366 213/1367 216/1368
f 216/1369 213/1370 213/1371
f 216/1372 213/1373 217/1374
f 217/1375 213/1376 208/1377
f 217/1378 208/1379 218/1380
f 218/1381 208/1382 209/1383
f 218/1384 209/1385 219/1386
f 219/1387 209/1388 194/1389
f 219/1390 194/1391 214/1392
f 220/1393 221/1394 160/1395
f 160/1396 221/1397 221/1398
f 160/1399 221/1400 222/1401
f 222/1402 221/1403 223/1404
f 222/1405 223/1406 224/1407
f 224/1408 223/1409 225/1410
f 224/1411 225/1412 226/1413
f 226/1414 225/1415 214/1416
f 226/1417 214/1418 215/1419
f 214/1420 225/1421 219/1422
f 219/1423 225/1424 227/1425
f 219/1426 227/1427 218/1428
f 218/1429 227/1430 228/1431
f 218/1432 228/1433 217/1434
f 217/1435 228/1436 229/1437
f 217/1438 229/1439 216/1440
f 216/1441 229/1442 230/1443
f 216/1444 230/1445 231/1446
f 231/1447 230/1448 232/1449
f 231/1450 232/1451 233/1452
f 233/1453 232/1454 232/1455
f 233/1456 232/1457 234/1458
f 234/1459 232/1460 235/1461
f 234/1462 235/1463 220/1464
f 220/1465 235/1466 235/1467
f 220/1468 235/1469 221/1470
f 221/1471 235/1472 236/1473
f 221/1474 236/1475 223/1476
f 223/1477 236/1478 227/1479
f 223/1480 227/1481 225/1482
f 227/1483 236/1484 228/1485
f 228/1486 236/1487 237/1488
f 228/1489 237/1490 229/1491
f 229/1492 237/1493 237/1494
f 229/1495 237/1496 230/1497
f 230/1498 237/1499 237/1500
f 230/1501 237/1502 232/1503
f 232/1504 237/1505 237/1506
f 232/1507 237/1508 235/1509
f 235/1510 237/1511 236/1512
f 233/1513 238/1514 231/1515
f 231/1516 238/1517 216/1518
f 216/1519 238/1520 188/1521
f 188/1522 238/1523 238/1524
f 188/1525 238/1526 239/1527
f 239/1528 238/1529 233/1530
f 239/1531 233/1532 240/1533
f 240/1534 233/1535 234/1536
f 240/1537 234/1538 241/1539
f 241/1540 234/1541 220/1542
f 241/1543 220/1544 242/1545
f 242/1546 243/1547 241/1548
f 241/1549 243/1550 244/1551
f 241/1552 244/1553 240/1554
f 240/1555 244/1556 245/1557
f 240/1558 245/1559 239/1560
f 239/1561 245/1562 246/1563
f 239/1564 246/1565 188/1566
f 188/1567 246/1568 247/1569
f 188/1570 247/1571 248/1572
f 248/1573 247/1574 249/1575
f 248/1576 249/1577 186/1578
f 186/1579 249/1580 249/1581
f 186/1582 249/1583 185/1584
f 185/1585 249/1586 250/1587
f 185/1588 250/1589 184/1590
f 184/1591 250/1592 250/1593
f 184/1594 250/1595 251/1596
f 251/1597 250/1598 252/1599
f 251/1600 252/1601 253/1602
f 253/1603 252/1604 244/1605
f 253/1606 244/1607 243/1608
f 244/1609 252/1610 245/1611
f 245/1612 252/1613 254/1614
f 245/1615 254/1616 246/1617
f 246/1618 254/1619 254/1620
f 246/1621 254/1622 247/1623
f 247/1624 254/1625 254/1626
f 247/1627 254/1628 249/1629
f 249/1630 254/1631 254/1632
f 249/1633 254/1634 250/1635
f 250/1636 254/1637 252/1638
f 186/1639 187/1640 248/1641
f 248/1642 187/1643 188/1644
f 184/1645 251/1646 255/1647
f 255/1648 251/1649 251/1650
f 255/1651 251/1652 256/1653
f 256/1654 251/1655 253/1656
f 256/1657 253/1658 257/1659
f 257/1660 253/1661 243/1662
f 257/1663 243/1664 258/1665
f 258/1666 243/1667 242/1668
f 258/1669 242/1670 259/1671
f 190/1672 179/1673 193/1674
f 193/1675 179/1676 1/1677
f 193/1678 1/1679 260/1680
f 260/1681 1/1682 184/1683
f 260/1684 184/1685 260/1686
f 260/1687 184/1688 255/1689
f 260/1690 255/1691 261/1692
f 160/1693 262/1694 220/1695
f 220/1696 262/1697 262/1698
f 220/1699 262/1700 242/1701
f 242/1702 262/1703 262/1704
f 242/1705 262/1706 259/1707
f 259/1708 262/1709 263/1710
f 263/1711 91/1712 259/1713
f 259/1714 91/1715 91/1716
f 259/1717 91/1718 258/1719
f 258/1720 91/1721 91/1722
f 258/1723 91/1724 257/1725
f 257/1726 91/1727 91/1728
f 257/1729 91/1730 256/1731
f 256/1732 91/1733 91/1734
f 256/1735 91/1736 255/1737
f 255/1738 91/1739 261/1740
f 261/1741 91/1742 260/1743
f 260/1744 91/1745 264/1746
f 91/1747 263/1748 264/1749
f 264/1750 263/1751 262/1752
f 264/1753 192/1754 260/1755
f 260/1756 192/1757 193/1758
f 264/1759 265/1760 192/1761
f 192/1762 265/1763 266/1764
f 192/1765 267/1766 191/1767
f 191/1768 267/1769 267/1770
f 191/1771 267/1772 158/1773
f 158/1774 267/1775 267/1776
f 158/1777 267/1778 201/1779
f 201/1780 267/1781 267/1782
f 201/1783 267/1784 199/1785
f 199/1786 267/1787 267/1788
f 199/1789 267/1790 197/1791
f 197/1792 267/1793 267/1794
f 197/1795 267/1796 196/1797
f 196/1798 267/1799 267/1800
f 196/1801 267/1802 215/1803
f 215/1804 267/1805 268/1806
f 215/1807 268/1808 226/1809
f 226/1810 268/1811 268/1812
f 226/1813 268/1814 224/1815
f 224/1816 268/1817 268/1818
f 224/1819 268/1820 222/1821
f 222/1822 268/1823 268/1824
f 222/1825 268/1826 160/1827
f 160/1828 268/1829 268/1830
f 160/1831 268/1832 262/1833
f 262/1834 268/1835 264/1836
f 188/1837 9/1838 266/1839
f 266/1840 9/1841 9/1842
f 266/1843 9/1844 269/1845
f 269/1846 9/1847 174/1848
f 269/1849 174/1850 270/1851
f 270/1852 174/1853 216/1854
f 270/1855 216/1856 270/1857
f 270/1858 216/1859 188/1860
f 270/1861 188/1862 265/1863
f 265/1864 188/1865 266/1866
f 265/1867 264/1868 270/1869
f 270/1870 264/1871 268/1872
f 269/1873 267/1874 266/1875
f 266/1876 267/1877 192/1878
f 269/1879 270/1880 267/1881
f 267/1882 270/1883 268/1884
