# Exported from USD for MuJoCo with source material subsets
v -11.469024 -1.280418 0.936801726
v -11.469024 -1.27976589 0.931846047
v -11.463524 -1.280418 0.936801726
v -11.463524 -1.2797633 0.931835854
v -11.469024 -1.27785101 0.927219594
v -11.463524 -1.27784773 0.927214587
v -11.469024 -1.2748067 0.923251206
v -11.463524 -1.27480119 0.923245335
v -11.469024 -1.27083736 0.92020365
v -11.463524 -1.27082889 0.920199091
v -11.469024 -1.26621263 0.918287272
v -11.463524 -1.26620953 0.918286169
v -11.469024 -1.26125493 0.917633647
v -11.463524 -1.26124414 0.917633647
v -11.469024 -1.25628953 0.918286169
v -11.463524 -1.2562864 0.918287272
v -11.469024 -1.25167014 0.920199091
v -11.463524 -1.25166168 0.92020365
v -11.469024 -1.24769785 0.923245335
v -11.463524 -1.24769234 0.923251206
v -11.469024 -1.24465131 0.927214587
v -11.463524 -1.24464806 0.927219594
v -11.469024 -1.24273576 0.931835854
v -11.463524 -1.24273317 0.931846047
v -11.469024 -1.24208104 0.936801726
v -11.463524 -1.24208104 0.936801726
v -11.469024 -1.24273317 0.941757495
v -11.469024 -1.24464806 0.946383947
v -11.469024 -1.24769234 0.950352276
v -11.469024 -1.25166168 0.953399831
v -11.469024 -1.2562864 0.95531627
v -11.469024 -1.2797633 0.941767687
v -11.469024 -1.26124414 0.955969835
v -11.469024 -1.27784773 0.946388954
v -11.469024 -1.26620953 0.955317313
v -11.469024 -1.27480119 0.950358206
v -11.469024 -1.27082889 0.953404391
v -11.463524 -1.24273576 0.941767687
v -11.463524 -1.24465131 0.946388954
v -11.463524 -1.24769785 0.950358206
v -11.463524 -1.25167014 0.953404391
v -11.463524 -1.25628953 0.955317313
v -11.463524 -1.26125493 0.955969835
v -11.463524 -1.26621263 0.95531627
v -11.463524 -1.27083736 0.953399831
v -11.463524 -1.2748067 0.950352276
v -11.463524 -1.27785101 0.946383947
v -11.463524 -1.27976589 0.941757495
vt -0.396517009 0.848457992
vt -0.396517009 0.843952
vt -0.391517013 0.848457992
vt -0.848457992 0.235532999
vt -0.843952 0.234941006
vt -0.843952 0.234941006
vt -0.391517013 0.848457992
vt -0.396517009 0.843952
vt -0.391517013 0.843943
vt -0.391517013 0.843943
vt -0.396517009 0.843952
vt -0.396517009 0.839747012
vt -0.391517013 0.843943
vt -0.396517009 0.839747012
vt -0.391517013 0.839742005
vt -0.391517013 0.839742005
vt -0.396517009 0.839747012
vt -0.396517009 0.836139023
vt -0.391517013 0.839742005
vt -0.396517009 0.836139023
vt -0.391517013 0.836134017
vt -0.391517013 0.230426997
vt -0.396517009 0.230432004
vt -0.396517009 0.226824
vt -0.391517013 0.230426997
vt -0.396517009 0.226824
vt -0.391517013 0.226815999
vt -0.391517013 0.226815999
vt -0.396517009 0.226824
vt -0.396517009 0.222619995
vt -0.391517013 0.226815999
vt -0.396517009 0.222619995
vt -0.391517013 0.222617
vt -0.391517013 0.222617
vt -0.396517009 0.222619995
vt -0.396517009 0.218113005
vt -0.391517013 0.222617
vt -0.396517009 0.218113005
vt -0.391517013 0.218103006
vt -0.391517013 0.218103006
vt -0.396517009 0.218113005
vt -0.396517009 0.213598996
vt -0.391517013 0.218103006
vt -0.396517009 0.213598996
vt -0.391517013 0.213596001
vt -0.391517013 0.213596001
vt -0.396517009 0.213598996
vt -0.396517009 0.209399
vt -0.391517013 0.213596001
vt -0.396517009 0.209399
vt -0.391517013 0.209390998
vt -0.391517013 0.209390998
vt -0.396517009 0.209399
vt -0.396517009 0.205788001
vt -0.391517013 0.209390998
vt -0.396517009 0.205788001
vt -0.391517013 0.205782995
vt 0.391517013 0.836139023
vt 0.396517009 0.836134017
vt 0.396517009 0.839742005
vt 0.391517013 0.836139023
vt 0.396517009 0.839742005
vt 0.391517013 0.839747012
vt 0.391517013 0.839747012
vt 0.396517009 0.839742005
vt 0.396517009 0.843943
vt 0.391517013 0.839747012
vt 0.396517009 0.843943
vt 0.391517013 0.843952
vt 0.391517013 0.843952
vt 0.396517009 0.843943
vt 0.396517009 0.848457992
vt 0.391517013 0.843952
vt 0.396517009 0.848457992
vt 0.391517013 0.848457992
vt -0.83336401 0.209399
vt -0.831624985 0.213598996
vt -0.836134017 0.205788001
vt -0.836134017 0.205788001
vt -0.831624985 0.213598996
vt -0.831624985 0.213598996
vt -0.836134017 0.205788001
vt -0.831624985 0.213598996
vt -0.839742005 0.203017995
vt -0.839742005 0.203017995
vt -0.831624985 0.213598996
vt -0.831031978 0.218113005
vt -0.839742005 0.203017995
vt -0.831031978 0.218113005
vt -0.843943 0.201277003
vt -0.843943 0.201277003
vt -0.831031978 0.218113005
vt -0.831625998 0.222619995
vt -0.843943 0.201277003
vt -0.831625998 0.222619995
vt -0.848457992 0.200681999
vt -0.848457992 0.200681999
vt -0.831625998 0.222619995
vt -0.833368003 0.226824
vt -0.848457992 0.200681999
vt -0.833368003 0.226824
vt -0.852962971 0.201275006
vt -0.852962971 0.201275006
vt -0.833368003 0.226824
vt -0.836139023 0.230432004
vt -0.852962971 0.201275006
vt -0.836139023 0.230432004
vt -0.857168972 0.203015
vt -0.857168972 0.203015
vt -0.836139023 0.230432004
vt -0.839747012 0.233199999
vt -0.857168972 0.203015
vt -0.839747012 0.233199999
vt -0.860776007 0.205782995
vt -0.860776007 0.205782995
vt -0.839747012 0.233199999
vt -0.843952 0.234941006
vt -0.860776007 0.205782995
vt -0.843952 0.234941006
vt -0.863547027 0.209390998
vt -0.863547027 0.209390998
vt -0.843952 0.234941006
vt -0.848457992 0.235532999
vt -0.863547027 0.209390998
vt -0.848457992 0.235532999
vt -0.865288973 0.213596001
vt -0.865288973 0.213596001
vt -0.848457992 0.235532999
vt -0.852971971 0.234937996
vt -0.865288973 0.213596001
vt -0.852971971 0.234937996
vt -0.865882993 0.218103006
vt -0.865882993 0.218103006
vt -0.852971971 0.234937996
vt -0.857173026 0.233197004
vt -0.865882993 0.218103006
vt -0.857173026 0.233197004
vt -0.865289986 0.222617
vt -0.865289986 0.222617
vt -0.857173026 0.233197004
vt -0.860782027 0.230426997
vt -0.865289986 0.222617
vt -0.860782027 0.230426997
vt -0.863551021 0.226815999
vt 0.396517009 0.848457992
vt 0.396517009 0.852962971
vt 0.391517013 0.848457992
vt -0.848457992 0.200681999
vt -0.852962971 0.201275006
vt -0.852962971 0.201275006
vt 0.391517013 0.848457992
vt 0.396517009 0.852962971
vt 0.391517013 0.852971971
vt 0.391517013 0.852971971
vt 0.396517009 0.852962971
vt 0.396517009 0.857168972
vt 0.391517013 0.852971971
vt 0.396517009 0.857168972
vt 0.391517013 0.857173026
vt 0.391517013 0.857173026
vt 0.396517009 0.857168972
vt 0.396517009 0.860776007
vt 0.391517013 0.857173026
vt 0.396517009 0.860776007
vt 0.391517013 0.860782027
vt 0.391517013 0.205788001
vt 0.396517009 0.205782995
vt 0.396517009 0.209390998
vt 0.391517013 0.205788001
vt 0.396517009 0.209390998
vt 0.391517013 0.209399
vt 0.391517013 0.209399
vt 0.396517009 0.209390998
vt 0.396517009 0.213596001
vt 0.391517013 0.209399
vt 0.396517009 0.213596001
vt 0.391517013 0.213598996
vt 0.391517013 0.213598996
vt 0.396517009 0.213596001
vt 0.396517009 0.218103006
vt 0.391517013 0.213598996
vt 0.396517009 0.218103006
vt 0.391517013 0.218113005
vt 0.391517013 0.218113005
vt 0.396517009 0.218103006
vt 0.396517009 0.222617
vt 0.391517013 0.218113005
vt 0.396517009 0.222617
vt 0.391517013 0.222619995
vt 0.391517013 0.222619995
vt 0.396517009 0.222617
vt 0.396517009 0.226815999
vt 0.391517013 0.222619995
vt 0.396517009 0.226815999
vt 0.391517013 0.226824
vt 0.391517013 0.226824
vt 0.396517009 0.226815999
vt 0.396517009 0.230426997
vt 0.391517013 0.226824
vt 0.396517009 0.230426997
vt 0.391517013 0.230432004
vt -0.391517013 0.860776007
vt -0.396517009 0.860782027
vt -0.396517009 0.857173026
vt -0.391517013 0.860776007
vt -0.396517009 0.857173026
vt -0.391517013 0.857168972
vt -0.391517013 0.857168972
vt -0.396517009 0.857173026
vt -0.396517009 0.852971971
vt -0.391517013 0.857168972
vt -0.396517009 0.852971971
vt -0.391517013 0.852962971
vt -0.391517013 0.852962971
vt -0.396517009 0.852971971
vt -0.396517009 0.848457992
vt -0.391517013 0.852962971
vt -0.396517009 0.848457992
vt -0.391517013 0.848457992
f 1/1 2/2 3/3
f 3/4 2/5 2/6
f 3/7 2/8 4/9
f 4/10 2/11 5/12
f 4/13 5/14 6/15
f 6/16 5/17 7/18
f 6/19 7/20 8/21
f 8/22 7/23 9/24
f 8/25 9/26 10/27
f 10/28 9/29 11/30
f 10/31 11/32 12/33
f 12/34 11/35 13/36
f 12/37 13/38 14/39
f 14/40 13/41 15/42
f 14/43 15/44 16/45
f 16/46 15/47 17/48
f 16/49 17/50 18/51
f 18/52 17/53 19/54
f 18/55 19/56 20/57
f 20/58 19/59 21/60
f 20/61 21/62 22/63
f 22/64 21/65 23/66
f 22/67 23/68 24/69
f 24/70 23/71 25/72
f 24/73 25/74 26/75
f 17/76 15/77 19/78
f 19/79 15/80 15/81
f 19/82 15/83 21/84
f 21/85 15/86 13/87
f 21/88 13/89 23/90
f 23/91 13/92 11/93
f 23/94 11/95 25/96
f 25/97 11/98 9/99
f 25/100 9/101 27/102
f 27/103 9/104 7/105
f 27/106 7/107 28/108
f 28/109 7/110 5/111
f 28/112 5/113 29/114
f 29/115 5/116 2/117
f 29/118 2/119 30/120
f 30/121 2/122 1/123
f 30/124 1/125 31/126
f 31/127 1/128 32/129
f 31/130 32/131 33/132
f 33/133 32/134 34/135
f 33/136 34/137 35/138
f 35/139 34/140 36/141
f 35/142 36/143 37/144
f 25/145 27/146 26/147
f 26/148 27/149 27/150
f 26/151 27/152 38/153
f 38/154 27/155 28/156
f 38/157 28/158 39/159
f 39/160 28/161 29/162
f 39/163 29/164 40/165
f 40/166 29/167 30/168
f 40/169 30/170 41/171
f 41/172 30/173 31/174
f 41/175 31/176 42/177
f 42/178 31/179 33/180
f 42/181 33/182 43/183
f 43/184 33/185 35/186
f 43/187 35/188 44/189
f 44/190 35/191 37/192
f 44/193 37/194 45/195
f 45/196 37/197 36/198
f 45/199 36/200 46/201
f 46/202 36/203 34/204
f 46/205 34/206 47/207
f 47/208 34/209 32/210
f 47/211 32/212 48/213
f 48/214 32/215 1/216
f 48/217 1/218 3/219
