# Exported from USD for MuJoCo with source material subsets
v 10.6629239 -0.0101567952 0.895000529
v 10.6369239 -0.0101567952 0.905000579
v 10.6564239 -0.0101567952 0.905000579
v 10.6564239 -0.0101567952 0.910000575
v 10.6629239 -0.0101567952 0.905000579
v 10.6564247 2.61384191 0.905000579
v 10.6629247 2.61384191 0.905000579
v 10.6629247 2.61384191 0.895000529
v 10.6304239 -0.0101567356 0.895000529
v 10.6304245 1.97384228 0.895000529
v 10.6629244 1.65384211 0.895000529
v 10.6304244 1.65384211 0.895000529
v 10.6304239 -0.0101567356 0.905000579
v 10.6304244 1.65384211 0.905000579
v 10.6369244 1.65384211 0.905000579
v 10.6304236 -0.970156371 0.905000579
v 10.6304236 -0.970156371 0.895000529
v 10.6369236 -0.970156371 0.905000579
v 10.6304236 -0.650156364 0.895000529
v 10.6629236 -0.970156371 0.895000529
v 10.6564244 1.65384211 0.905000579
v 10.6629244 1.65384211 0.905000579
v 10.6304245 1.97384228 0.905000579
v 10.6369239 -0.0101567952 0.910000575
v 10.6369247 2.61384191 0.905000579
v 10.6564248 2.93384184 0.910000575
v 10.6564248 2.93384184 0.905000579
v 10.6369248 2.93384184 0.905000579
v 10.6304247 2.57384171 0.895000529
v 10.6304247 2.57384171 0.905000579
v 10.6304248 2.93384184 0.905000579
v 10.6304239 -0.0101567356 0.910000575
v 10.6304238 -0.0101567356 0.920000565
v 10.8254239 0.309842959 0.895000589
v 10.7929239 0.309842959 0.895000529
v 10.8189239 0.309842959 0.905000579
v 10.6369244 1.65384211 0.910000575
v 10.376924 -0.0501567571 0.920000386
v 10.3769238 -0.650156364 0.920000386
v 10.6304238 -0.0501567571 0.920000565
v 10.7929247 2.9338416 0.920000565
v 10.8254247 2.9338416 0.920000625
v 10.8189247 2.9338416 0.910000575
v 10.6629239 0.309842959 0.905000579
v 10.6629239 0.309842959 0.895000529
v 10.656424 0.309842959 0.905000579
v 10.6304247 2.57384171 0.910000575
v 10.6304245 1.97384228 0.910000575
v 10.7994239 0.309842959 0.910000575
v 10.8189239 0.309842959 0.910000575
v 10.7994239 0.309842959 0.905000579
v 10.6369247 2.61384191 0.910000575
v 10.6629247 2.61384191 0.920000565
v 10.6564247 2.61384191 0.910000575
v 10.6304239 0.309842959 0.920000565
v 10.6629239 0.309842959 0.920000565
v 10.636924 0.309842959 0.910000575
v 10.7929243 1.65384211 0.895000529
v 10.8254243 1.65384211 0.895000589
v 10.8189243 1.65384211 0.905000579
v 10.6304236 -0.970156371 0.910000575
v 10.6369236 -0.970156371 0.910000575
v 10.6304235 -0.970156371 0.920000565
v 10.7929235 -0.970156492 0.920000565
v 10.7929239 0.309842959 0.920000565
v 10.7929236 -0.474156633 0.910000575
v 10.6304239 0.309842959 0.905000579
v 10.6304238 -0.0501567571 0.905000579
v 10.636924 0.309842959 0.905000579
v 10.6304244 1.65384211 0.910000575
v 10.8254239 0.309842959 0.920000625
v 10.8254239 0.309842959 0.910000575
v 10.6629244 1.85384215 0.895000529
v 10.6564244 1.85384215 0.905000579
v 10.6304244 1.85384215 0.895000529
v 10.6629248 2.93384184 0.895000529
v 10.6304244 1.85384215 0.920000565
v 10.6564244 1.85384215 0.910000575
v 10.6629244 1.85384215 0.920000565
v 10.7929239 0.309842959 0.905000579
v 10.7929243 1.65384211 0.905000579
v 10.7994243 1.65384211 0.905000579
v 10.6304239 0.309842959 0.910000575
v 10.6304238 -0.0501567571 0.910000575
v 10.6304236 -0.650156364 0.920000565
v 10.6629235 -0.970156371 0.920000565
v 10.8254236 -0.61015661 0.910000575
v 10.8254235 -0.970156492 0.920000625
v 10.8254235 -0.970156492 0.910000575
v 10.8254244 2.0618421 0.910000575
v 10.8254243 1.65384211 0.920000625
v 10.656424 0.309842959 0.910000575
v 10.7994235 -0.970156492 0.910000575
v 10.7929235 -0.970156492 0.910000575
v 10.6304239 0.309842959 0.895000529
v 10.6304246 2.57384171 0.920000565
v 10.6304244 1.97384228 0.920000565
v 10.6629247 2.93384184 0.920000565
v 10.6304238 -0.0501567571 0.895000529
v 10.6629243 1.65384211 0.920000565
v 10.6564244 1.65384211 0.910000575
v 10.6304248 2.93384184 0.895000529
v 10.7929235 -0.970156492 0.895000529
v 10.8254235 -0.970156492 0.895000589
v 10.8189235 -0.970156492 0.905000579
v 10.6304247 2.61384191 0.895000529
v 10.6304247 2.61384191 0.905000579
v 10.6369244 1.85384215 0.905000579
v 10.6369244 1.85384215 0.910000575
v 10.6304244 1.85384215 0.910000575
v 10.6304236 -0.650156364 0.910000575
v 10.7994243 1.65384211 0.910000575
v 10.8254236 -0.562156632 0.910000575
v 10.6564236 -0.970156371 0.910000575
v 10.8189235 -0.970156492 0.910000575
v 10.8189243 1.65384211 0.910000575
v 10.7929243 1.65384211 0.920000565
v 10.8254244 2.01384224 0.910000575
v 10.8254243 1.65384211 0.910000575
v 10.6564236 -0.970156371 0.905000579
v 10.7929243 1.65384211 0.910000575
v 10.7929245 2.14984192 0.910000575
v 10.7994247 2.9338416 0.910000575
v 10.7994247 2.9338416 0.905000579
v 10.8254247 2.9338416 0.910000575
v 10.8189247 2.9338416 0.905000579
v 10.7929235 -0.970156492 0.905000579
v 10.7994235 -0.970156492 0.905000579
v 10.8254247 2.9338416 0.895000589
v 10.7929247 2.9338416 0.895000529
v 10.7929247 2.9338416 0.905000579
v 10.6304248 2.93384184 0.920000565
v 10.6369248 2.93384184 0.910000575
v 10.6304248 2.93384184 0.910000575
v 10.3769248 2.57384171 0.920000386
v 10.3769246 1.97384228 0.920000386
v 10.6629248 2.93384184 0.905000579
v 10.6304243 1.65384211 0.920000565
v 10.6304236 -0.650156364 0.905000579
v 10.6629238 -0.0101567952 0.920000565
v 10.6629248 2.93384184 0.910000575
v 10.8254236 -0.474156633 0.910000575
v 10.6629244 1.85384215 0.905000579
v 10.6304244 1.85384215 0.905000579
v 10.8254239 0.309842959 0.905000579
v 10.6304247 2.61384191 0.910000575
v 10.6304247 2.61384191 0.920000565
v 10.8254235 -0.970156492 0.905000579
v 10.6629244 1.85384215 0.910000575
v 10.6629247 2.61384191 0.910000575
v 10.8254243 1.65384211 0.905000579
v 10.6629239 -0.0101567952 0.910000575
v 10.6629236 -0.970156371 0.910000575
v 10.7929244 2.01384224 0.910000575
v 10.7929247 2.9338416 0.910000575
v 10.8254244 2.14984192 0.910000575
v 10.6629236 -0.970156371 0.905000579
v 10.7929236 -0.61015661 0.910000575
v 10.8254247 2.9338416 0.905000579
v 10.7929239 0.309842959 0.910000575
v 10.6629244 1.65384211 0.910000575
v 10.6629239 0.309842959 0.910000575
v 10.7929236 -0.61015661 0.905000579
v 10.7994236 -0.61015661 0.905000579
v 10.8254236 -0.61015661 0.895000589
v 10.8254236 -0.61015661 0.905000579
v 10.7994236 -0.474156633 0.910000575
v 10.7994236 -0.474156633 0.905000579
v 10.7929236 -0.61015661 0.895000529
v 10.7994236 -0.522156611 0.905000579
v 10.7994236 -0.562156632 0.905000579
v 10.7994236 -0.522156611 0.910000575
v 10.7994236 -0.562156632 0.910000575
v 10.7929245 2.14984192 0.905000579
v 10.7994244 2.14984192 0.905000579
v 10.7929245 2.14984192 0.895000529
v 10.8254244 2.14984192 0.895000589
v 10.8189245 2.14984192 0.905000579
v 10.8254244 2.14984192 0.905000579
v 10.8189245 2.14984192 0.910000575
v 10.7929236 -0.562156632 0.910000575
v 10.7929236 -0.522156611 0.910000575
v 10.7994236 -0.61015661 0.910000575
v 10.7994244 2.14984192 0.910000575
v 10.7994244 2.01384224 0.910000575
v 10.8189244 2.01384224 0.910000575
v 10.7929244 2.0618421 0.910000575
v 10.7929244 2.10184206 0.910000575
v 10.8189244 2.0618421 0.910000575
v 10.8254244 2.10184206 0.910000575
v 10.8189244 2.10184206 0.910000575
v 10.8189244 2.0618421 0.905000579
v 10.8189245 2.10184206 0.905000579
v 10.8189236 -0.61015661 0.910000575
v 10.8254244 2.0618421 0.905000579
v 10.8254244 2.10184206 0.905000579
v 10.7994244 2.10184206 0.910000575
v 10.7994244 2.0618421 0.910000575
v 10.8254244 2.10184206 0.895000589
v 10.8254244 2.0618421 0.895000589
v 10.7929244 2.10184206 0.895000529
v 10.7929244 2.0618421 0.895000529
v 10.7929244 2.10184206 0.905000579
v 10.7929244 2.0618421 0.905000579
v 10.7994244 2.10184206 0.905000579
v 10.7994244 2.0618421 0.905000579
v 10.8189236 -0.562156632 0.910000575
v 10.8254236 -0.522156611 0.910000575
v 10.8189236 -0.522156611 0.910000575
v 10.7994244 2.01384224 0.905000579
v 10.8189244 2.01384224 0.905000579
v 10.8254244 2.01384224 0.905000579
v 10.8189236 -0.61015661 0.905000579
v 10.8254244 2.01384224 0.895000589
v 10.7929244 2.01384224 0.895000529
v 10.7929244 2.01384224 0.905000579
v 10.8189236 -0.562156632 0.905000579
v 10.8189236 -0.522156611 0.905000579
v 10.7929236 -0.474156633 0.905000579
v 10.7929236 -0.474156633 0.895000529
v 10.8254236 -0.562156632 0.905000579
v 10.8254236 -0.522156611 0.905000579
v 10.8254236 -0.474156633 0.895000589
v 10.8189236 -0.474156633 0.905000579
v 10.8254236 -0.474156633 0.905000579
v 10.8254236 -0.522156611 0.895000589
v 10.8254236 -0.562156632 0.895000589
v 10.8189236 -0.474156633 0.910000575
v 10.7929236 -0.522156611 0.895000529
v 10.7929236 -0.562156632 0.895000529
v 10.7929236 -0.562156632 0.905000579
v 10.7929236 -0.522156611 0.905000579
v 10.6629236 -0.770156503 0.895000529
v 10.6564236 -0.770156503 0.905000579
v 10.6304236 -0.770156503 0.895000529
v 10.6369236 -0.770156503 0.910000575
v 10.6564236 -0.770156503 0.910000575
v 10.6304236 -0.770156503 0.920000565
v 10.6304236 -0.770156503 0.910000575
v 10.6629236 -0.770156503 0.920000565
v 10.6629236 -0.770156503 0.910000575
v 10.6629236 -0.770156503 0.905000579
v 10.6369236 -0.770156503 0.905000579
v 10.6304236 -0.770156503 0.905000579
vt 0.265399009 0.894999981
vt 0.291399002 0.904999971
vt 0.271899015 0.904999971
vt 0.271899015 0.904999971
vt 0.291399002 0.904999971
vt 0.271899015 0.910000026
vt 0.271899015 0.904999971
vt 0.265399009 0.904999971
vt 0.265399009 0.894999981
vt 0.271899015 0.904999971
vt 0.265399009 0.904999971
vt 0.265399009 0.894999981
vt 0.265399009 0.894999981
vt 0.297899008 0.894999981
vt 0.291399002 0.904999971
vt -0.297899008 -0.992000997
vt -0.265399009 -0.672001004
vt -0.297899008 -0.672001004
vt 0.297899008 0.894999981
vt 0.297899008 0.904999971
vt 0.291399002 0.904999971
vt -0.297899008 0.904999971
vt -0.297899008 0.894999981
vt -0.291399002 0.904999971
vt -0.297899008 0.904999971
vt -0.297899008 0.894999981
vt -0.291399002 0.904999971
vt -0.297899008 1.63199902
vt -0.265399009 1.95199895
vt -0.297899008 1.95199895
vt -0.271899015 0.904999971
vt -0.265399009 0.894999981
vt -0.265399009 0.904999971
vt 0.297899008 -0.992000997
vt 0.297899008 -0.672001004
vt 0.291399002 -0.672001004
vt -0.297899008 0.894999981
vt -0.265399009 0.894999981
vt -0.291399002 0.904999971
vt 0.291399002 0.904999971
vt 0.291399002 0.910000026
vt 0.271899015 0.910000026
vt 0.265399009 0.894999981
vt 0.291399002 0.904999971
vt 0.271899015 0.904999971
vt 0.271899015 0.910000026
vt 0.271899015 0.904999971
vt 0.291399002 0.904999971
vt -0.297899008 -1.59200096
vt -0.265399009 -0.672001004
vt -0.297899008 -0.992000997
vt 0.297899008 -1.59200096
vt 0.297899008 -0.992000997
vt 0.291399002 -0.672001004
vt 0.291399002 -1.95200098
vt 0.297899008 -1.59200096
vt 0.291399002 -0.672001004
vt 0.297899008 -1.95200098
vt 0.297899008 -1.59200096
vt 0.291399002 -1.95200098
vt 0.297899008 0.910000026
vt 0.297899008 0.920000017
vt 0.291399002 0.910000026
vt 0.102899 0.894999981
vt 0.135398999 0.894999981
vt 0.109398998 0.904999971
vt -0.291399002 0.910000026
vt -0.291399002 0.904999971
vt -0.271899015 0.904999971
vt 0.551398993 1.03199899
vt 0.551398993 1.63199902
vt 0.297899008 1.03199899
vt 0.135398999 0.920000017
vt 0.102899 0.920000017
vt 0.109398998 0.910000026
vt 0.265399009 0.904999971
vt 0.265399009 0.894999981
vt 0.271899015 0.904999971
vt -0.297899008 -1.59200096
vt -0.291399002 -0.672001004
vt -0.297899008 -0.992000997
vt 0.128898993 0.910000026
vt 0.109398998 0.910000026
vt 0.128898993 0.904999971
vt -0.297899008 0.894999981
vt -0.265399009 0.894999981
vt -0.291399002 0.904999971
vt 0.109398998 0.910000026
vt 0.109398998 0.904999971
vt 0.128898993 0.904999971
vt 0.291399002 0.910000026
vt 0.265399009 0.920000017
vt 0.271899015 0.910000026
vt 0.297899008 0.920000017
vt 0.265399009 0.920000017
vt 0.291399002 0.910000026
vt -0.135398999 0.894999981
vt -0.102899 0.894999981
vt -0.109398998 0.904999971
vt -0.297899008 0.910000026
vt -0.291399002 0.910000026
vt -0.297899008 0.920000017
vt -0.920000017 1.95199895
vt -0.920000017 0.671998978
vt -0.910000026 1.45599902
vt 0.297899008 0.671998978
vt 0.297899008 1.03199899
vt 0.291399002 0.671998978
vt -0.297899008 -0.992000997
vt -0.291399002 -0.672001004
vt -0.297899008 -0.672001004
vt 0.271899015 0.904999971
vt 0.291399002 0.904999971
vt 0.271899015 0.910000026
vt 0.102899 0.920000017
vt 0.102899 0.910000026
vt 0.109398998 0.910000026
vt -0.265399009 0.894999981
vt -0.271899015 0.904999971
vt -0.297899008 0.894999981
vt 0.291399002 0.904999971
vt 0.291399002 0.910000026
vt 0.271899015 0.910000026
vt -0.265399009 -1.95200098
vt -0.265399009 -0.672001004
vt -0.297899008 -1.59200096
vt -0.297899008 0.920000017
vt -0.271899015 0.910000026
vt -0.265399009 0.920000017
vt 0.135398999 0.894999981
vt 0.135398999 0.904999971
vt 0.128898993 0.904999971
vt -0.135398999 0.904999971
vt -0.135398999 0.894999981
vt -0.128898993 0.904999971
vt -0.297899008 0.671998978
vt -0.291399002 0.671998978
vt -0.297899008 1.03199899
vt 0.271899015 0.904999971
vt 0.265399009 0.894999981
vt 0.291399002 0.904999971
vt 0.297899008 1.63199902
vt 0.297899008 1.95199895
vt 0.265399009 1.95199895
vt 0.910000026 1.59199905
vt 0.920000017 1.95199895
vt 0.910000026 1.95199895
vt 0.910000026 -1.080001
vt 0.920000017 -1.95200098
vt 0.920000017 -0.672001004
vt 0.291399002 0.910000026
vt 0.271899015 0.910000026
vt 0.291399002 0.904999971
vt -0.128898993 0.910000026
vt -0.135398999 0.920000017
vt -0.135398999 0.910000026
vt 0.265399009 0.894999981
vt 0.297899008 0.894999981
vt 0.291399002 0.904999971
vt 0.297899008 -1.59200096
vt 0.297899008 -0.992000997
vt 0.265399009 -1.95200098
vt -0.297899008 1.03199899
vt -0.265399009 1.95199895
vt -0.297899008 1.63199902
vt -0.265399009 0.920000017
vt -0.291399002 0.910000026
vt -0.271899015 0.910000026
vt -0.265399009 -1.95200098
vt -0.297899008 -1.59200096
vt -0.297899008 -1.95200098
vt -0.271899015 0.910000026
vt -0.291399002 0.910000026
vt -0.271899015 0.904999971
vt -0.271899015 0.904999971
vt -0.291399002 0.904999971
vt -0.265399009 0.894999981
vt -0.135398999 0.894999981
vt -0.102899 0.894999981
vt -0.109398998 0.904999971
vt 0.297899008 0.894999981
vt 0.297899008 0.904999971
vt 0.291399002 0.904999971
vt -0.297899008 0.894999981
vt -0.271899015 0.904999971
vt -0.291399002 0.904999971
vt -0.271899015 0.904999971
vt -0.271899015 0.910000026
vt -0.291399002 0.910000026
vt -0.291399002 0.910000026
vt -0.297899008 0.920000017
vt -0.297899008 0.910000026
vt -0.297899008 1.03199899
vt -0.291399002 1.95199895
vt -0.297899008 1.63199902
vt 0.297899008 0.894999981
vt 0.297899008 0.904999971
vt 0.291399002 0.904999971
vt -0.109398998 0.904999971
vt -0.128898993 0.910000026
vt -0.128898993 0.904999971
vt 0.297899008 1.03199899
vt 0.297899008 1.63199902
vt 0.265399009 0.671998978
vt 0.910000026 1.54399896
vt 0.920000017 0.671998978
vt 0.920000017 1.95199895
vt -0.297899008 1.63199902
vt -0.291399002 1.95199895
vt -0.297899008 1.95199895
vt -0.265399009 0.920000017
vt -0.291399002 0.910000026
vt -0.271899015 0.910000026
vt -0.102899 0.910000026
vt -0.102899 0.920000017
vt -0.109398998 0.910000026
vt -0.109398998 0.910000026
vt -0.102899 0.920000017
vt -0.135398999 0.920000017
vt 0.910000026 -1.03200102
vt 0.920000017 -0.672001004
vt 0.910000026 -0.672001004
vt -0.271899015 0.910000026
vt -0.291399002 0.910000026
vt -0.271899015 0.904999971
vt -0.128898993 0.910000026
vt -0.135398999 0.920000017
vt -0.135398999 0.910000026
vt -0.920000017 -0.672001004
vt -0.920000017 -1.95200098
vt -0.910000026 -1.16800106
vt 0.128898993 0.910000026
vt 0.109398998 0.910000026
vt 0.128898993 0.904999971
vt -0.271899015 0.904999971
vt -0.291399002 0.904999971
vt -0.265399009 0.894999981
vt 0.102899 0.920000017
vt 0.102899 0.910000026
vt 0.109398998 0.910000026
vt 0.109398998 0.910000026
vt 0.109398998 0.904999971
vt 0.128898993 0.904999971
vt -0.135398999 0.904999971
vt -0.135398999 0.894999981
vt -0.128898993 0.904999971
vt 0.102899 0.894999981
vt 0.135398999 0.894999981
vt 0.109398998 0.904999971
vt -0.265399009 0.671998978
vt -0.265399009 1.95199895
vt -0.297899008 1.03199899
vt 0.135398999 0.894999981
vt 0.135398999 0.904999971
vt 0.128898993 0.904999971
vt 0.297899008 0.920000017
vt 0.265399009 0.920000017
vt 0.291399002 0.910000026
vt 0.297899008 0.894999981
vt 0.297899008 0.904999971
vt 0.291399002 0.904999971
vt -0.297899008 -1.95200098
vt -0.291399002 -1.95200098
vt -0.297899008 -1.59200096
vt 0.551398993 -1.59200096
vt 0.551398993 -0.992000997
vt 0.297899008 -1.59200096
vt 0.265399009 0.904999971
vt 0.265399009 0.894999981
vt 0.271899015 0.904999971
vt 0.297899008 -0.992000997
vt 0.297899008 -0.672001004
vt 0.265399009 -0.672001004
vt 0.135398999 0.920000017
vt 0.102899 0.920000017
vt 0.109398998 0.910000026
vt -0.297899008 0.910000026
vt -0.291399002 0.910000026
vt -0.297899008 0.920000017
vt 0.297899008 1.63199902
vt 0.297899008 1.95199895
vt 0.291399002 1.95199895
vt 0.297899008 0.920000017
vt 0.265399009 0.920000017
vt 0.291399002 0.910000026
vt 0.265399009 0.910000026
vt 0.271899015 0.910000026
vt 0.265399009 0.920000017
vt 0.291399002 0.910000026
vt 0.271899015 0.910000026
vt 0.291399002 0.904999971
vt 0.920000017 0.671998978
vt 0.910000026 1.45599902
vt 0.910000026 0.671998978
vt 0.291399002 0.910000026
vt 0.265399009 0.920000017
vt 0.271899015 0.910000026
vt -0.265399009 0.904999971
vt -0.271899015 0.904999971
vt -0.265399009 0.894999981
vt 0.265399009 0.894999981
vt 0.297899008 0.894999981
vt 0.291399002 0.904999971
vt -0.297899008 0.904999971
vt -0.297899008 0.894999981
vt -0.291399002 0.904999971
vt -0.291399002 0.904999971
vt -0.271899015 0.904999971
vt -0.291399002 0.910000026
vt -0.135398999 0.894999981
vt -0.109398998 0.904999971
vt -0.128898993 0.904999971
vt 0.102899 0.904999971
vt 0.102899 0.894999981
vt 0.109398998 0.904999971
vt -0.291399002 0.910000026
vt -0.271899015 0.910000026
vt -0.297899008 0.920000017
vt 0.109398998 0.904999971
vt 0.135398999 0.894999981
vt 0.128898993 0.904999971
vt 0.297899008 0.910000026
vt 0.297899008 0.920000017
vt 0.291399002 0.910000026
vt 0.297899008 0.920000017
vt 0.265399009 0.920000017
vt 0.291399002 0.910000026
vt -0.102899 0.894999981
vt -0.102899 0.904999971
vt -0.109398998 0.904999971
vt -0.265399009 0.920000017
vt -0.271899015 0.910000026
vt -0.265399009 0.910000026
vt 0.265399009 0.920000017
vt 0.265399009 0.910000026
vt 0.271899015 0.910000026
vt 0.297899008 1.03199899
vt 0.265399009 0.671998978
vt 0.297899008 0.671998978
vt 0.297899008 0.920000017
vt 0.291399002 0.910000026
vt 0.297899008 0.910000026
vt -0.135398999 0.894999981
vt -0.109398998 0.904999971
vt -0.128898993 0.904999971
vt -0.297899008 1.03199899
vt -0.291399002 0.671998978
vt -0.291399002 1.95199895
vt -0.102899 0.894999981
vt -0.102899 0.904999971
vt -0.109398998 0.904999971
vt 0.265399009 0.920000017
vt 0.265399009 0.910000026
vt 0.271899015 0.910000026
vt -0.109398998 0.904999971
vt -0.109398998 0.910000026
vt -0.128898993 0.910000026
vt 0.551398993 1.63199902
vt 0.297899008 1.63199902
vt 0.297899008 1.03199899
vt 0.297899008 1.63199902
vt 0.265399009 1.95199895
vt 0.265399009 0.671998978
vt 0.910000026 1.54399896
vt 0.920000017 1.95199895
vt 0.910000026 1.59199905
vt -0.297899008 0.920000017
vt -0.291399002 0.910000026
vt -0.265399009 0.920000017
vt -0.265399009 0.920000017
vt -0.271899015 0.910000026
vt -0.265399009 0.910000026
vt -0.109398998 0.904999971
vt -0.109398998 0.910000026
vt -0.128898993 0.910000026
vt 0.910000026 -1.080001
vt 0.920000017 -0.672001004
vt 0.910000026 -1.03200102
vt 0.265399009 0.920000017
vt 0.271899015 0.910000026
vt 0.291399002 0.910000026
vt -0.109398998 0.910000026
vt -0.135398999 0.920000017
vt -0.128898993 0.910000026
vt -0.109398998 0.910000026
vt -0.135398999 0.920000017
vt -0.128898993 0.910000026
vt -0.910000026 -0.672001004
vt -0.920000017 -0.672001004
vt -0.910000026 -1.03200102
vt -0.910000026 -1.16800106
vt -0.920000017 -1.95200098
vt -0.910000026 -1.95200098
vt 0.135398999 0.910000026
vt 0.135398999 0.920000017
vt 0.128898993 0.910000026
vt 0.271899015 0.910000026
vt 0.271899015 0.904999971
vt 0.291399002 0.904999971
vt 0.135398999 0.920000017
vt 0.109398998 0.910000026
vt 0.128898993 0.910000026
vt -0.291399002 0.910000026
vt -0.291399002 0.904999971
vt -0.271899015 0.904999971
vt 0.920000017 -1.95200098
vt 0.910000026 -1.16800106
vt 0.910000026 -1.95200098
vt -0.271899015 0.904999971
vt -0.265399009 0.894999981
vt -0.265399009 0.904999971
vt -0.910000026 1.95199895
vt -0.920000017 1.95199895
vt -0.910000026 1.59199905
vt 0.102899 0.904999971
vt 0.102899 0.894999981
vt 0.109398998 0.904999971
vt 0.265399009 0.894999981
vt 0.297899008 0.894999981
vt 0.291399002 0.904999971
vt 0.271899015 0.904999971
vt 0.265399009 0.894999981
vt 0.291399002 0.904999971
vt 0.109398998 0.904999971
vt 0.135398999 0.894999981
vt 0.128898993 0.904999971
vt -0.910000026 1.45599902
vt -0.920000017 0.671998978
vt -0.910000026 0.671998978
vt -0.265399009 0.671998978
vt -0.297899008 1.03199899
vt -0.297899008 0.671998978
vt 0.297899008 -1.59200096
vt 0.265399009 -1.95200098
vt 0.297899008 -1.95200098
vt 0.297899008 0.920000017
vt 0.291399002 0.910000026
vt 0.297899008 0.910000026
vt 0.135398999 0.910000026
vt 0.135398999 0.920000017
vt 0.128898993 0.910000026
vt -0.297899008 -1.59200096
vt -0.291399002 -1.95200098
vt -0.291399002 -0.672001004
vt 0.291399002 0.671998978
vt 0.297899008 1.03199899
vt 0.291399002 1.95199895
vt 0.551398993 -0.992000997
vt 0.297899008 -0.992000997
vt 0.297899008 -1.59200096
vt 0.297899008 1.03199899
vt 0.297899008 1.63199902
vt 0.291399002 1.95199895
vt 0.297899008 -0.992000997
vt 0.265399009 -0.672001004
vt 0.265399009 -1.95200098
vt -0.297899008 0.920000017
vt -0.291399002 0.910000026
vt -0.265399009 0.920000017
vt 0.135398999 0.920000017
vt 0.109398998 0.910000026
vt 0.128898993 0.910000026
vt -0.265399009 0.920000017
vt -0.271899015 0.910000026
vt -0.265399009 0.910000026
vt 0.265399009 0.920000017
vt 0.271899015 0.910000026
vt 0.291399002 0.910000026
vt -0.109398998 0.904999971
vt -0.128898993 0.910000026
vt -0.128898993 0.904999971
vt -0.109398998 0.910000026
vt -0.102899 0.920000017
vt -0.135398999 0.920000017
vt 0.265399009 0.910000026
vt 0.271899015 0.910000026
vt 0.265399009 0.920000017
vt -0.102899 0.910000026
vt -0.102899 0.920000017
vt -0.109398998 0.910000026
vt 0.904999971 -0.872000992
vt 0.894999981 -0.872000992
vt 0.904999971 -1.63200104
vt 0.904999971 -1.63200104
vt 0.894999981 -0.872000992
vt 0.894999981 -1.63200104
vt 0.135398999 1.95199895
vt 0.128898993 1.95199895
vt 0.135398999 1.59199905
vt 0.135398999 1.59199905
vt 0.128898993 1.95199895
vt 0.128898993 1.59199905
vt -0.894999981 -1.95200098
vt -0.894999981 -1.59200096
vt -0.904999971 -1.95200098
vt -0.904999971 -1.95200098
vt -0.894999981 -1.59200096
vt -0.904999971 -1.59200096
vt -0.910000026 -1.95200098
vt -0.904999971 -1.95200098
vt -0.910000026 -0.672001004
vt -0.910000026 -0.672001004
vt -0.904999971 -1.95200098
vt -0.904999971 -0.672001004
vt -0.271899015 -1.95200098
vt -0.265399009 -1.95200098
vt -0.271899015 -0.672001004
vt -0.271899015 -0.672001004
vt -0.265399009 -1.95200098
vt -0.265399009 -0.672001004
vt 0.910000026 -0.672001004
vt 0.904999971 -0.672001004
vt 0.910000026 -1.95200098
vt 0.910000026 -1.95200098
vt 0.904999971 -0.672001004
vt 0.904999971 -1.95200098
vt -0.894999981 1.95199895
vt -0.904999971 1.95199895
vt -0.894999981 1.63199902
vt -0.894999981 1.63199902
vt -0.904999971 1.95199895
vt -0.904999971 1.63199902
vt -0.910000026 -0.672001004
vt -0.920000017 -0.672001004
vt -0.910000026 -0.992000997
vt -0.910000026 -0.992000997
vt -0.920000017 -0.672001004
vt -0.920000017 -0.992000997
vt 0.894999981 1.59199905
vt 0.904999971 1.59199905
vt 0.894999981 1.95199895
vt 0.894999981 1.95199895
vt 0.904999971 1.59199905
vt 0.904999971 1.95199895
vt -0.910000026 1.45599902
vt -0.910000026 0.671998978
vt -0.904999971 1.45599902
vt -0.904999971 1.45599902
vt -0.910000026 0.671998978
vt -0.904999971 0.671998978
vt 0.271899015 -0.672001004
vt 0.265399009 -0.672001004
vt 0.271899015 -1.95200098
vt 0.271899015 -1.95200098
vt 0.265399009 -0.672001004
vt 0.265399009 -1.95200098
vt -0.135398999 1.59199905
vt -0.102899 1.59199905
vt -0.135398999 1.95199895
vt -0.135398999 1.95199895
vt -0.102899 1.59199905
vt -0.102899 1.95199895
vt -0.904999971 1.03199899
vt -0.904999971 0.671998978
vt -0.894999981 1.03199899
vt -0.894999981 1.03199899
vt -0.904999971 0.671998978
vt -0.894999981 0.671998978
vt -0.920000017 -1.59200096
vt -0.920000017 -1.95200098
vt -0.910000026 -1.59200096
vt -0.910000026 -1.59200096
vt -0.920000017 -1.95200098
vt -0.910000026 -1.95200098
vt -0.904999971 1.50399899
vt -0.904999971 1.54399896
vt -0.910000026 1.50399899
vt -0.910000026 1.50399899
vt -0.904999971 1.54399896
vt -0.910000026 1.54399896
vt 0.135398999 -1.95200098
vt 0.135398999 -1.16800106
vt 0.128898993 -1.95200098
vt 0.128898993 -1.95200098
vt 0.135398999 -1.16800106
vt 0.128898993 -1.16800106
vt -0.894999981 -1.95200098
vt -0.894999981 -1.16800106
vt -0.904999971 -1.95200098
vt -0.904999971 -1.95200098
vt -0.894999981 -1.16800106
vt -0.904999971 -1.16800106
vt -0.102899 -1.95200098
vt -0.102899 -1.16800106
vt -0.135398999 -1.95200098
vt -0.135398999 -1.95200098
vt -0.102899 -1.16800106
vt -0.135398999 -1.16800106
vt 0.894999981 0.671998978
vt 0.904999971 0.671998978
vt 0.894999981 1.95199895
vt 0.894999981 1.95199895
vt 0.904999971 0.671998978
vt 0.904999971 1.95199895
vt 0.109398998 -1.95200098
vt 0.109398998 -1.16800106
vt 0.102899 -1.95200098
vt 0.102899 -1.95200098
vt 0.109398998 -1.16800106
vt 0.102899 -1.16800106
vt 0.904999971 -1.16800106
vt 0.904999971 -1.95200098
vt 0.910000026 -1.16800106
vt 0.910000026 -1.16800106
vt 0.904999971 -1.95200098
vt 0.910000026 -1.95200098
vt -0.128898993 1.54399896
vt -0.135398999 1.54399896
vt -0.128898993 1.50399899
vt -0.128898993 1.50399899
vt -0.135398999 1.54399896
vt -0.135398999 1.50399899
vt -0.102899 -1.95200098
vt -0.102899 -1.16800106
vt -0.109398998 -1.95200098
vt -0.109398998 -1.95200098
vt -0.102899 -1.16800106
vt -0.109398998 -1.16800106
vt -0.128898993 1.95199895
vt -0.135398999 1.95199895
vt -0.128898993 1.59199905
vt -0.128898993 1.59199905
vt -0.135398999 1.95199895
vt -0.135398999 1.59199905
vt -0.904999971 -1.95200098
vt -0.904999971 -1.16800106
vt -0.910000026 -1.95200098
vt -0.910000026 -1.95200098
vt -0.904999971 -1.16800106
vt -0.910000026 -1.16800106
vt -0.894999981 1.95199895
vt -0.904999971 1.95199895
vt -0.894999981 1.59199905
vt -0.894999981 1.59199905
vt -0.904999971 1.95199895
vt -0.904999971 1.59199905
vt 0.135398999 1.95199895
vt 0.102899 1.95199895
vt 0.135398999 0.671998978
vt 0.135398999 0.671998978
vt 0.102899 1.95199895
vt 0.102899 0.671998978
vt -0.910000026 0.671998978
vt -0.904999971 0.671998978
vt -0.910000026 1.95199895
vt -0.910000026 1.95199895
vt -0.904999971 0.671998978
vt -0.904999971 1.95199895
vt -0.904999971 1.95199895
vt -0.910000026 1.95199895
vt -0.904999971 1.59199905
vt -0.904999971 1.59199905
vt -0.910000026 1.95199895
vt -0.910000026 1.59199905
vt -0.128898993 -0.672001004
vt -0.135398999 -0.672001004
vt -0.128898993 -1.03200102
vt -0.128898993 -1.03200102
vt -0.135398999 -0.672001004
vt -0.135398999 -1.03200102
vt 0.910000026 1.95199895
vt 0.904999971 1.95199895
vt 0.910000026 0.671998978
vt 0.910000026 0.671998978
vt 0.904999971 1.95199895
vt 0.904999971 0.671998978
vt 0.135398999 -0.672001004
vt 0.102899 -0.672001004
vt 0.135398999 -1.95200098
vt 0.135398999 -1.95200098
vt 0.102899 -0.672001004
vt 0.102899 -1.95200098
vt -0.102899 -0.672001004
vt -0.109398998 -0.672001004
vt -0.102899 -1.03200102
vt -0.102899 -1.03200102
vt -0.109398998 -0.672001004
vt -0.109398998 -1.03200102
vt -0.910000026 -1.03200102
vt -0.920000017 -0.672001004
vt -0.910000026 -1.080001
vt -0.910000026 -1.080001
vt -0.920000017 -0.672001004
vt -0.920000017 -0.672001004
vt -0.910000026 -1.080001
vt -0.920000017 -0.672001004
vt -0.910000026 -1.12000096
vt -0.910000026 -1.12000096
vt -0.920000017 -0.672001004
vt -0.910000026 -1.16800106
vt -0.271899015 0.671998978
vt -0.265399009 0.671998978
vt -0.271899015 1.95199895
vt -0.271899015 1.95199895
vt -0.265399009 0.671998978
vt -0.265399009 1.95199895
vt -0.910000026 1.59199905
vt -0.920000017 1.95199895
vt -0.910000026 1.54399896
vt -0.910000026 1.54399896
vt -0.920000017 1.95199895
vt -0.920000017 1.95199895
vt -0.910000026 1.54399896
vt -0.920000017 1.95199895
vt -0.910000026 1.50399899
vt -0.910000026 1.50399899
vt -0.920000017 1.95199895
vt -0.910000026 1.45599902
vt -0.102899 -1.080001
vt -0.109398998 -1.080001
vt -0.102899 -1.12000096
vt -0.102899 -1.12000096
vt -0.109398998 -1.080001
vt -0.109398998 -1.12000096
vt 0.910000026 -1.16800106
vt 0.920000017 -1.95200098
vt 0.910000026 -1.12000096
vt 0.910000026 -1.12000096
vt 0.920000017 -1.95200098
vt 0.910000026 -1.080001
vt 0.904999971 -1.080001
vt 0.904999971 -1.12000096
vt 0.910000026 -1.080001
vt 0.910000026 -1.080001
vt 0.904999971 -1.12000096
vt 0.910000026 -1.12000096
vt -0.102899 1.95199895
vt -0.109398998 1.95199895
vt -0.102899 1.59199905
vt -0.102899 1.59199905
vt -0.109398998 1.95199895
vt -0.109398998 1.59199905
vt 0.102899 -1.080001
vt 0.102899 -1.12000096
vt 0.109398998 -1.080001
vt 0.109398998 -1.080001
vt 0.102899 -1.12000096
vt 0.109398998 -1.12000096
vt -0.135398999 -1.12000096
vt -0.128898993 -1.12000096
vt -0.135398999 -1.080001
vt -0.135398999 -1.080001
vt -0.128898993 -1.12000096
vt -0.128898993 -1.080001
vt 0.904999971 -1.12000096
vt 0.904999971 -1.080001
vt 0.894999981 -1.12000096
vt 0.894999981 -1.12000096
vt 0.904999971 -1.080001
vt 0.894999981 -1.080001
vt -0.910000026 1.95199895
vt -0.920000017 1.95199895
vt -0.910000026 1.63199902
vt -0.910000026 1.63199902
vt -0.920000017 1.95199895
vt -0.920000017 1.63199902
vt -0.102899 -1.12000096
vt -0.102899 -1.080001
vt -0.135398999 -1.12000096
vt -0.135398999 -1.12000096
vt -0.102899 -1.080001
vt -0.135398999 -1.080001
vt -0.894999981 -1.12000096
vt -0.894999981 -1.080001
vt -0.904999971 -1.12000096
vt -0.904999971 -1.12000096
vt -0.894999981 -1.080001
vt -0.904999971 -1.080001
vt 0.904999971 -0.672001004
vt 0.894999981 -0.672001004
vt 0.904999971 -1.95200098
vt 0.904999971 -1.95200098
vt 0.894999981 -0.672001004
vt 0.894999981 -1.95200098
vt -0.904999971 -1.12000096
vt -0.904999971 -1.080001
vt -0.910000026 -1.12000096
vt -0.910000026 -1.12000096
vt -0.904999971 -1.080001
vt -0.910000026 -1.080001
vt -0.102899 1.54399896
vt -0.109398998 1.54399896
vt -0.102899 1.50399899
vt -0.102899 1.50399899
vt -0.109398998 1.54399896
vt -0.109398998 1.50399899
vt -0.904999971 -0.672001004
vt -0.910000026 -0.672001004
vt -0.904999971 -1.03200102
vt -0.904999971 -1.03200102
vt -0.910000026 -0.672001004
vt -0.910000026 -1.03200102
vt 0.910000026 1.54399896
vt 0.910000026 1.50399899
vt 0.920000017 0.671998978
vt 0.920000017 0.671998978
vt 0.910000026 1.50399899
vt 0.910000026 1.45599902
vt 0.109398998 -0.672001004
vt 0.102899 -0.672001004
vt 0.109398998 -1.03200102
vt 0.109398998 -1.03200102
vt 0.102899 -0.672001004
vt 0.102899 -1.03200102
vt 0.109398998 1.95199895
vt 0.102899 1.95199895
vt 0.109398998 1.59199905
vt 0.109398998 1.59199905
vt 0.102899 1.95199895
vt 0.102899 1.59199905
vt -0.102899 -0.672001004
vt -0.135398999 -0.672001004
vt -0.102899 -1.03200102
vt -0.102899 -1.03200102
vt -0.135398999 -0.672001004
vt -0.135398999 -1.03200102
vt -0.920000017 1.03199899
vt -0.920000017 0.671998978
vt -0.910000026 1.03199899
vt -0.910000026 1.03199899
vt -0.920000017 0.671998978
vt -0.910000026 0.671998978
vt -0.894999981 -0.672001004
vt -0.904999971 -0.672001004
vt -0.894999981 -1.03200102
vt -0.894999981 -1.03200102
vt -0.904999971 -0.672001004
vt -0.904999971 -1.03200102
vt 0.128898993 -1.03200102
vt 0.135398999 -1.03200102
vt 0.128898993 -0.672001004
vt 0.128898993 -0.672001004
vt 0.135398999 -1.03200102
vt 0.135398999 -0.672001004
vt 0.904999971 1.54399896
vt 0.904999971 1.50399899
vt 0.910000026 1.54399896
vt 0.910000026 1.54399896
vt 0.904999971 1.50399899
vt 0.910000026 1.50399899
vt -0.265399009 -0.872000992
vt -0.271899015 -0.872000992
vt -0.265399009 -1.63200104
vt -0.265399009 -1.63200104
vt -0.271899015 -0.872000992
vt -0.271899015 -1.63200104
vt 0.135398999 0.671998978
vt 0.135398999 1.45599902
vt 0.128898993 0.671998978
vt 0.128898993 0.671998978
vt 0.135398999 1.45599902
vt 0.128898993 1.45599902
vt -0.894999981 0.671998978
vt -0.894999981 1.45599902
vt -0.904999971 0.671998978
vt -0.904999971 0.671998978
vt -0.894999981 1.45599902
vt -0.904999971 1.45599902
vt 0.297899008 -0.872000992
vt 0.265399009 -0.872000992
vt 0.297899008 -1.63200104
vt 0.297899008 -1.63200104
vt 0.265399009 -0.872000992
vt 0.265399009 -1.63200104
vt 0.102899 1.54399896
vt 0.102899 1.50399899
vt 0.109398998 1.54399896
vt 0.109398998 1.54399896
vt 0.102899 1.50399899
vt 0.109398998 1.50399899
vt -0.297899008 -1.63200104
vt -0.291399002 -1.63200104
vt -0.297899008 -0.872000992
vt -0.297899008 -0.872000992
vt -0.291399002 -1.63200104
vt -0.291399002 -0.872000992
vt -0.102899 0.671998978
vt -0.102899 1.45599902
vt -0.135398999 0.671998978
vt -0.135398999 0.671998978
vt -0.102899 1.45599902
vt -0.135398999 1.45599902
vt -0.910000026 -1.63200104
vt -0.904999971 -1.63200104
vt -0.910000026 -0.872000992
vt -0.910000026 -0.872000992
vt -0.904999971 -1.63200104
vt -0.904999971 -0.872000992
vt 0.910000026 -0.872000992
vt 0.904999971 -0.872000992
vt 0.910000026 -1.63200104
vt 0.910000026 -1.63200104
vt 0.904999971 -0.872000992
vt 0.904999971 -1.63200104
vt 0.109398998 0.671998978
vt 0.109398998 1.45599902
vt 0.102899 0.671998978
vt 0.102899 0.671998978
vt 0.109398998 1.45599902
vt 0.102899 1.45599902
vt 0.904999971 1.50399899
vt 0.904999971 1.54399896
vt 0.894999981 1.50399899
vt 0.894999981 1.50399899
vt 0.904999971 1.54399896
vt 0.894999981 1.54399896
vt 0.297899008 -0.872000992
vt 0.291399002 -0.872000992
vt 0.297899008 -1.63200104
vt 0.297899008 -1.63200104
vt 0.291399002 -0.872000992
vt 0.291399002 -1.63200104
vt 0.904999971 1.45599902
vt 0.904999971 0.671998978
vt 0.910000026 1.45599902
vt 0.910000026 1.45599902
vt 0.904999971 0.671998978
vt 0.910000026 0.671998978
vt -0.904999971 -1.63200104
vt -0.894999981 -1.63200104
vt -0.904999971 -0.872000992
vt -0.904999971 -0.872000992
vt -0.894999981 -1.63200104
vt -0.894999981 -0.872000992
vt -0.265399009 -0.872000992
vt -0.297899008 -0.872000992
vt -0.265399009 -1.63200104
vt -0.265399009 -1.63200104
vt -0.297899008 -0.872000992
vt -0.297899008 -1.63200104
vt -0.102899 1.50399899
vt -0.102899 1.54399896
vt -0.135398999 1.50399899
vt -0.135398999 1.50399899
vt -0.102899 1.54399896
vt -0.135398999 1.54399896
vt -0.102899 0.671998978
vt -0.102899 1.45599902
vt -0.109398998 0.671998978
vt -0.109398998 0.671998978
vt -0.102899 1.45599902
vt -0.109398998 1.45599902
vt 0.265399009 -1.63200104
vt 0.271899015 -1.63200104
vt 0.265399009 -0.872000992
vt 0.265399009 -0.872000992
vt 0.271899015 -1.63200104
vt 0.271899015 -0.872000992
vt 0.920000017 -0.672001004
vt 0.910000026 -0.672001004
vt 0.920000017 -1.95200098
vt 0.920000017 -1.95200098
vt 0.910000026 -0.672001004
vt 0.910000026 -1.95200098
vt 0.128898993 1.54399896
vt 0.128898993 1.50399899
vt 0.135398999 1.54399896
vt 0.135398999 1.54399896
vt 0.128898993 1.50399899
vt 0.135398999 1.50399899
vt -0.135398999 1.45599902
vt -0.135398999 0.671998978
vt -0.128898993 1.45599902
vt -0.128898993 1.45599902
vt -0.135398999 0.671998978
vt -0.128898993 0.671998978
vt 0.904999971 -1.95200098
vt 0.904999971 -1.16800106
vt 0.894999981 -1.95200098
vt 0.894999981 -1.95200098
vt 0.904999971 -1.16800106
vt 0.894999981 -1.16800106
vt 0.265399009 0.671998978
vt 0.271899015 0.671998978
vt 0.265399009 1.95199895
vt 0.265399009 1.95199895
vt 0.271899015 0.671998978
vt 0.271899015 1.95199895
vt -0.128898993 -1.95200098
vt -0.128898993 -1.16800106
vt -0.135398999 -1.95200098
vt -0.135398999 -1.95200098
vt -0.128898993 -1.16800106
vt -0.135398999 -1.16800106
vt 0.910000026 0.671998978
vt 0.920000017 0.671998978
vt 0.910000026 1.95199895
vt 0.910000026 1.95199895
vt 0.920000017 0.671998978
vt 0.920000017 1.95199895
vt 0.910000026 1.95199895
vt 0.904999971 1.95199895
vt 0.910000026 1.59199905
vt 0.910000026 1.59199905
vt 0.904999971 1.95199895
vt 0.904999971 1.59199905
vt 0.135398999 -1.12000096
vt 0.135398999 -1.080001
vt 0.128898993 -1.12000096
vt 0.128898993 -1.12000096
vt 0.135398999 -1.080001
vt 0.128898993 -1.080001
vt 0.904999971 -1.03200102
vt 0.910000026 -1.03200102
vt 0.904999971 -0.672001004
vt 0.904999971 -0.672001004
vt 0.910000026 -1.03200102
vt 0.910000026 -0.672001004
vt 0.904999971 -0.672001004
vt 0.894999981 -0.672001004
vt 0.904999971 -1.03200102
vt 0.904999971 -1.03200102
vt 0.894999981 -0.672001004
vt 0.894999981 -1.03200102
vt 0.920000017 -0.872000992
vt 0.910000026 -0.872000992
vt 0.920000017 -1.63200104
vt 0.920000017 -1.63200104
vt 0.910000026 -0.872000992
vt 0.910000026 -1.63200104
vt -0.920000017 -1.63200104
vt -0.910000026 -1.63200104
vt -0.920000017 -0.872000992
vt -0.920000017 -0.872000992
vt -0.910000026 -1.63200104
vt -0.910000026 -0.872000992
vt -0.894999981 1.50399899
vt -0.894999981 1.54399896
vt -0.904999971 1.50399899
vt -0.904999971 1.50399899
vt -0.894999981 1.54399896
vt -0.904999971 1.54399896
vt 0.894999981 1.45599902
vt 0.894999981 0.671998978
vt 0.904999971 1.45599902
vt 0.904999971 1.45599902
vt 0.894999981 0.671998978
vt 0.904999971 0.671998978
vt -0.904999971 -0.992000997
vt -0.894999981 -0.992000997
vt -0.904999971 -0.672001004
vt -0.904999971 -0.672001004
vt -0.894999981 -0.992000997
vt -0.894999981 -0.672001004
vt -0.265399009 0.894999981
vt -0.271899015 0.904999971
vt -0.297899008 0.894999981
vt -0.291399002 0.910000026
vt -0.271899015 0.910000026
vt -0.297899008 0.920000017
vt -0.291399002 0.910000026
vt -0.297899008 0.920000017
vt -0.297899008 0.910000026
vt -0.297899008 0.920000017
vt -0.271899015 0.910000026
vt -0.265399009 0.920000017
vt -0.265399009 0.920000017
vt -0.271899015 0.910000026
vt -0.265399009 0.910000026
vt -0.265399009 0.904999971
vt -0.271899015 0.904999971
vt -0.265399009 0.894999981
vt -0.271899015 0.904999971
vt -0.271899015 0.910000026
vt -0.291399002 0.910000026
vt -0.297899008 0.894999981
vt -0.271899015 0.904999971
vt -0.291399002 0.904999971
vt -0.291399002 0.904999971
vt -0.271899015 0.904999971
vt -0.291399002 0.910000026
vt -0.297899008 0.904999971
vt -0.297899008 0.894999981
vt -0.291399002 0.904999971
vt 0.291399002 0.991998971
vt 0.297899008 0.991998971
vt 0.291399002 1.75199902
vt 0.291399002 1.75199902
vt 0.297899008 0.991998971
vt 0.297899008 1.75199902
vt -0.910000026 0.991998971
vt -0.904999971 0.991998971
vt -0.910000026 1.75199902
vt -0.910000026 1.75199902
vt -0.904999971 0.991998971
vt -0.904999971 1.75199902
vt -0.297899008 0.991998971
vt -0.291399002 0.991998971
vt -0.297899008 1.75199902
vt -0.297899008 1.75199902
vt -0.291399002 0.991998971
vt -0.291399002 1.75199902
vt -0.920000017 0.991998971
vt -0.910000026 0.991998971
vt -0.920000017 1.75199902
vt -0.920000017 1.75199902
vt -0.910000026 0.991998971
vt -0.910000026 1.75199902
vt 0.265399009 0.991998971
vt 0.297899008 0.991998971
vt 0.265399009 1.75199902
vt 0.265399009 1.75199902
vt 0.297899008 0.991998971
vt 0.297899008 1.75199902
vt 0.910000026 0.991998971
vt 0.920000017 0.991998971
vt 0.910000026 1.75199902
vt 0.910000026 1.75199902
vt 0.920000017 0.991998971
vt 0.920000017 1.75199902
vt -0.271899015 0.991998971
vt -0.265399009 0.991998971
vt -0.271899015 1.75199902
vt -0.271899015 1.75199902
vt -0.265399009 0.991998971
vt -0.265399009 1.75199902
vt 0.904999971 0.991998971
vt 0.910000026 0.991998971
vt 0.904999971 1.75199902
vt 0.904999971 1.75199902
vt 0.910000026 0.991998971
vt 0.910000026 1.75199902
vt 0.271899015 1.75199902
vt 0.265399009 1.75199902
vt 0.271899015 0.991998971
vt 0.271899015 0.991998971
vt 0.265399009 1.75199902
vt 0.265399009 0.991998971
vt 0.904999971 1.75199902
vt 0.894999981 1.75199902
vt 0.904999971 0.991998971
vt 0.904999971 0.991998971
vt 0.894999981 1.75199902
vt 0.894999981 0.991998971
vt -0.297899008 0.991998971
vt -0.265399009 0.991998971
vt -0.297899008 1.75199902
vt -0.297899008 1.75199902
vt -0.265399009 0.991998971
vt -0.265399009 1.75199902
vt -0.904999971 0.991998971
vt -0.894999981 0.991998971
vt -0.904999971 1.75199902
vt -0.904999971 1.75199902
vt -0.894999981 0.991998971
vt -0.894999981 1.75199902
f 1/1 2/2 3/3
f 3/4 2/5 4/6
f 3/7 5/8 1/9
f 6/10 7/11 8/12
f 1/13 9/14 2/15
f 10/16 11/17 12/18
f 9/19 13/20 2/21
f 14/22 12/23 15/24
f 16/25 17/26 18/27
f 19/28 20/29 17/30
f 21/31 11/32 22/33
f 23/34 14/35 15/36
f 17/37 20/38 18/39
f 2/40 24/41 4/42
f 8/43 25/44 6/45
f 26/46 27/47 28/48
f 29/49 11/50 10/51
f 30/52 23/53 15/54
f 28/55 30/56 15/57
f 31/58 30/59 28/60
f 32/61 33/62 24/63
f 34/64 35/65 36/66
f 37/67 15/68 21/69
f 38/70 39/71 40/72
f 41/73 42/74 43/75
f 44/76 45/77 46/78
f 47/79 37/80 48/81
f 49/82 50/83 51/84
f 12/85 11/86 15/87
f 50/88 36/89 51/90
f 52/91 53/92 54/93
f 55/94 56/95 57/96
f 58/97 59/98 60/99
f 61/100 62/101 63/102
f 64/103 65/104 66/105
f 67/106 68/107 69/108
f 48/109 37/110 70/111
f 6/112 25/113 54/114
f 71/115 72/116 50/117
f 73/118 74/119 75/120
f 25/121 52/122 54/123
f 76/124 11/125 29/126
f 77/127 78/128 79/129
f 35/130 80/131 51/132
f 81/133 58/134 82/135
f 83/136 57/137 84/138
f 27/139 76/140 28/141
f 85/142 63/143 86/144
f 87/145 88/146 89/147
f 90/148 42/149 91/150
f 57/151 92/152 69/153
f 93/154 64/155 94/156
f 45/157 95/158 69/159
f 96/160 97/161 98/162
f 99/163 20/164 19/165
f 100/166 37/167 101/168
f 76/169 29/170 102/171
f 101/172 37/173 21/174
f 21/175 15/176 11/177
f 103/178 104/179 105/180
f 106/181 107/182 25/183
f 75/184 74/185 108/186
f 74/187 78/188 109/189
f 109/190 77/191 110/192
f 84/193 62/194 111/195
f 102/196 31/197 28/198
f 60/199 112/200 82/201
f 40/202 85/203 56/204
f 113/205 71/206 88/207
f 111/208 62/209 61/210
f 86/211 62/212 114/213
f 89/214 88/215 115/216
f 116/217 91/218 117/219
f 118/220 91/221 119/222
f 114/223 62/224 120/225
f 112/226 117/227 121/228
f 117/229 41/230 122/231
f 123/232 43/233 124/234
f 120/235 18/236 20/237
f 42/238 125/239 43/240
f 43/241 126/242 124/243
f 127/244 103/245 128/246
f 129/247 130/248 126/249
f 45/250 20/251 99/252
f 130/253 131/254 124/255
f 132/256 98/257 133/258
f 95/259 67/260 69/261
f 134/262 133/263 47/264
f 135/265 136/266 96/267
f 137/268 76/269 27/270
f 97/271 138/272 100/273
f 65/274 71/275 50/276
f 70/277 37/278 138/279
f 139/280 16/281 18/282
f 33/283 140/284 24/285
f 141/286 26/287 98/288
f 133/289 26/290 28/291
f 71/292 142/293 72/294
f 24/295 140/296 4/297
f 143/298 74/299 73/300
f 8/301 106/302 25/303
f 144/304 75/305 108/306
f 108/307 74/308 109/309
f 103/310 105/311 128/312
f 145/313 34/314 36/315
f 109/316 78/317 77/318
f 36/319 35/320 51/321
f 146/322 147/323 52/324
f 147/325 53/326 52/327
f 104/328 148/329 105/330
f 79/331 78/332 149/333
f 53/334 150/335 54/336
f 40/337 56/338 55/339
f 55/340 57/341 83/342
f 58/343 60/344 82/345
f 84/346 57/347 62/348
f 59/349 151/350 60/351
f 140/352 152/353 4/354
f 60/355 116/356 112/357
f 39/358 85/359 40/360
f 85/361 86/362 56/363
f 113/364 88/365 87/366
f 63/367 62/368 86/369
f 86/370 114/371 153/372
f 105/373 115/374 93/375
f 90/376 91/377 118/378
f 56/379 92/380 57/381
f 116/382 117/383 112/384
f 115/385 64/386 93/387
f 121/388 117/389 154/390
f 122/391 41/392 155/393
f 155/394 41/395 123/396
f 92/397 46/398 69/399
f 41/400 43/401 123/402
f 62/403 18/404 120/405
f 42/406 156/407 125/408
f 120/409 20/410 157/411
f 94/412 64/413 158/414
f 159/415 129/416 126/417
f 76/418 102/419 28/420
f 46/421 45/422 69/423
f 126/424 130/425 124/426
f 66/427 65/428 160/429
f 45/430 99/431 95/432
f 96/433 98/434 132/435
f 132/436 133/437 134/438
f 160/439 65/440 49/441
f 47/442 133/443 37/444
f 69/445 68/446 18/447
f 136/448 97/449 96/450
f 68/451 139/452 18/453
f 97/454 100/455 98/456
f 138/457 37/458 100/459
f 65/460 50/461 49/462
f 100/463 101/464 161/465
f 98/466 26/467 133/468
f 105/469 93/470 128/471
f 115/472 88/473 64/474
f 162/475 92/476 56/477
f 119/478 91/479 116/480
f 143/481 73/482 7/483
f 7/484 73/485 8/486
f 127/487 128/488 163/489
f 163/490 128/491 164/492
f 102/493 29/494 31/495
f 31/496 29/497 30/498
f 133/499 28/500 37/501
f 37/502 28/503 15/504
f 26/505 141/506 101/507
f 101/508 141/509 161/510
f 101/511 21/512 26/513
f 26/514 21/515 27/516
f 17/517 16/518 19/519
f 19/520 16/521 139/522
f 70/523 138/524 48/525
f 48/526 138/527 97/528
f 165/529 166/530 104/531
f 104/532 166/533 148/534
f 167/535 49/536 168/537
f 168/538 49/539 51/540
f 21/541 22/542 27/543
f 27/544 22/545 137/546
f 169/547 165/548 103/549
f 103/550 165/551 104/552
f 68/553 67/554 99/555
f 99/556 67/557 95/558
f 96/559 132/560 47/561
f 47/562 132/563 134/564
f 170/565 171/566 172/567
f 172/568 171/569 173/570
f 131/571 174/572 124/573
f 124/574 174/575 175/576
f 130/577 176/578 131/579
f 131/580 176/581 174/582
f 129/583 177/584 130/585
f 130/586 177/587 176/588
f 45/589 44/590 20/591
f 20/592 44/593 157/594
f 126/595 178/596 159/597
f 159/598 178/599 179/600
f 178/601 126/602 180/603
f 180/604 126/605 43/606
f 173/607 181/608 172/609
f 172/610 181/611 182/612
f 125/613 156/614 43/615
f 43/616 156/617 180/618
f 93/619 94/620 183/621
f 183/622 94/623 158/624
f 124/625 175/626 123/627
f 123/628 175/629 184/630
f 103/631 127/632 169/633
f 169/634 127/635 163/636
f 64/637 88/638 65/639
f 65/640 88/641 71/642
f 57/643 69/644 62/645
f 62/646 69/647 18/648
f 128/649 93/650 164/651
f 164/652 93/653 183/654
f 112/655 121/656 185/657
f 185/658 121/659 154/660
f 114/661 120/662 92/663
f 92/664 120/665 46/666
f 117/667 91/668 41/669
f 41/670 91/671 42/672
f 119/673 116/674 118/675
f 118/676 116/677 186/678
f 154/679 117/680 187/681
f 187/682 117/683 117/684
f 187/685 117/686 188/687
f 188/688 117/689 122/690
f 92/691 162/692 114/693
f 114/694 162/695 153/696
f 158/697 64/698 181/699
f 181/700 64/701 64/702
f 181/703 64/704 182/705
f 182/706 64/707 66/708
f 90/709 189/710 190/711
f 190/712 189/713 191/714
f 156/715 42/716 190/717
f 190/718 42/719 90/720
f 192/721 193/722 189/723
f 189/724 193/725 191/726
f 89/727 115/728 87/729
f 87/730 115/731 194/732
f 195/733 196/734 192/735
f 192/736 196/737 193/738
f 188/739 197/740 187/741
f 187/742 197/743 198/744
f 196/745 195/746 199/747
f 199/748 195/749 200/750
f 61/751 63/752 111/753
f 111/754 63/755 85/756
f 199/757 200/758 201/759
f 201/760 200/761 202/762
f 201/763 202/764 203/765
f 203/766 202/767 204/768
f 22/769 11/770 137/771
f 137/772 11/773 76/774
f 205/775 206/776 197/777
f 197/778 206/779 198/780
f 113/781 207/782 208/783
f 208/784 207/785 209/786
f 82/787 112/788 210/789
f 210/790 112/791 185/792
f 113/793 208/794 71/795
f 71/796 208/797 142/798
f 60/799 151/800 211/801
f 211/802 151/803 212/804
f 105/805 148/806 213/807
f 213/808 148/809 166/810
f 59/811 58/812 214/813
f 214/814 58/815 215/816
f 40/817 55/818 84/819
f 84/820 55/821 83/822
f 58/823 81/824 215/825
f 215/826 81/827 216/828
f 210/829 216/830 82/831
f 82/832 216/833 81/834
f 217/835 218/836 207/837
f 207/838 218/839 209/840
f 149/841 78/842 150/843
f 150/844 78/845 54/846
f 80/847 219/848 51/849
f 51/850 219/851 168/852
f 35/853 220/854 80/855
f 80/856 220/857 219/858
f 77/859 79/860 147/861
f 147/862 79/863 53/864
f 221/865 222/866 217/867
f 217/868 222/869 218/870
f 146/871 52/872 110/873
f 110/874 52/875 109/876
f 34/877 223/878 35/879
f 35/880 223/881 220/882
f 52/883 25/884 109/885
f 109/886 25/887 108/888
f 78/889 74/890 54/891
f 54/892 74/893 6/894
f 36/895 224/896 145/897
f 145/898 224/899 225/900
f 222/901 221/902 226/903
f 226/904 221/905 227/906
f 144/907 108/908 107/909
f 107/910 108/911 25/912
f 224/913 36/914 228/915
f 228/916 36/917 50/918
f 107/919 106/920 144/921
f 144/922 106/923 75/924
f 73/925 75/926 8/927
f 8/928 75/929 106/930
f 226/931 227/932 229/933
f 229/934 227/935 230/936
f 72/937 142/938 50/939
f 50/940 142/941 228/942
f 7/943 6/944 143/945
f 143/946 6/947 74/948
f 100/949 161/950 98/951
f 98/952 161/953 141/954
f 171/955 170/956 231/957
f 231/958 170/959 232/960
f 66/961 160/962 167/963
f 167/964 160/965 49/966
f 159/967 179/968 129/969
f 129/970 179/971 177/972
f 44/973 46/974 157/975
f 157/976 46/977 120/978
f 123/979 184/980 155/981
f 155/982 184/983 122/984
f 162/985 56/986 153/987
f 153/988 56/989 86/990
f 115/991 105/992 194/993
f 194/994 105/995 213/996
f 203/997 204/998 205/999
f 205/1000 204/1001 206/1002
f 211/1003 186/1004 60/1005
f 60/1006 186/1007 116/1008
f 151/1009 59/1010 212/1011
f 212/1012 59/1013 214/1014
f 79/1015 149/1016 53/1017
f 53/1018 149/1019 150/1020
f 147/1021 146/1022 77/1023
f 77/1024 146/1025 110/1026
f 229/1027 230/1028 232/1029
f 232/1030 230/1031 231/1032
f 223/1033 34/1034 225/1035
f 225/1036 34/1037 145/1038
f 23/1039 10/1040 14/1041
f 14/1042 10/1043 12/1044
f 233/1045 234/1046 235/1047
f 236/1048 237/1049 238/1050
f 236/1051 238/1052 239/1053
f 238/1054 237/1055 240/1056
f 240/1057 237/1058 241/1059
f 242/1060 234/1061 233/1062
f 234/1063 237/1064 236/1065
f 235/1066 234/1067 243/1068
f 243/1069 234/1070 236/1071
f 244/1072 235/1073 243/1074
f 2/1075 13/1076 243/1077
f 243/1078 13/1079 244/1080
f 24/1081 2/1082 236/1083
f 236/1084 2/1085 243/1086
f 32/1087 24/1088 239/1089
f 239/1090 24/1091 236/1092
f 33/1093 32/1094 238/1095
f 238/1096 32/1097 239/1098
f 140/1099 33/1100 240/1101
f 240/1102 33/1103 238/1104
f 152/1105 140/1106 241/1107
f 241/1108 140/1109 240/1110
f 4/1111 152/1112 237/1113
f 237/1114 152/1115 241/1116
f 3/1117 4/1118 234/1119
f 234/1120 4/1121 237/1122
f 234/1123 242/1124 3/1125
f 3/1126 242/1127 5/1128
f 242/1129 233/1130 5/1131
f 5/1132 233/1133 1/1134
f 9/1135 1/1136 235/1137
f 235/1138 1/1139 233/1140
f 13/1141 9/1142 244/1143
f 244/1144 9/1145 235/1146
