# Exported from USD for MuJoCo with source material subsets
v -10.6799123 -1.45127573 1.85314857
v -10.6799123 -1.28627568 1.85314857
v -10.6799123 -1.45127573 1.85864859
v -10.6799123 -1.28627568 1.85864859
v -10.6799122 -0.894617999 1.85864859
v -10.8449122 -0.894617947 1.85864847
v -10.6799122 -1.059618 1.85864859
v -10.8449123 -1.05961794 1.85864847
v -10.6799122 -0.894617999 1.85314857
v -10.6799122 -1.059618 1.85314857
v -10.8449122 -0.894617947 1.85314851
v -10.8449123 -1.05961794 1.85314851
v -10.8449123 -1.28627562 1.85864847
v -10.8449123 -1.28627562 1.85314851
v -10.8449124 -1.45127561 1.85864847
v -10.8449124 -1.45127561 1.85314851
vt 1.68149996 0.390857995
vt 1.68149996 0.240858003
vt 1.68649995 0.390857995
vt 1.68649995 0.390857995
vt 1.68149996 0.240858003
vt 1.68649995 0.240858003
vt -0.320856988 -0.115194
vt -0.170856997 -0.115194
vt -0.320856988 0.0348059982
vt -0.320856988 0.0348059982
vt -0.170856997 -0.115194
vt -0.170856997 0.0348059982
vt 1.68649995 -0.115194
vt 1.68649995 0.0348059982
vt 1.68149996 -0.115194
vt 1.68149996 -0.115194
vt 1.68649995 0.0348059982
vt 1.68149996 0.0348059982
vt -0.320856988 1.68649995
vt -0.320856988 1.68149996
vt -0.170856997 1.68649995
vt -0.170856997 1.68649995
vt -0.320856988 1.68149996
vt -0.170856997 1.68149996
vt 0.320856988 1.68149996
vt 0.320856988 1.68649995
vt 0.170856997 1.68149996
vt 0.170856997 1.68149996
vt 0.320856988 1.68649995
vt 0.170856997 1.68649995
vt -1.68149996 -0.115194
vt -1.68149996 0.0348059982
vt -1.68649995 -0.115194
vt -1.68649995 -0.115194
vt -1.68149996 0.0348059982
vt -1.68649995 0.0348059982
vt -0.320856988 1.68649995
vt -0.320856988 1.68149996
vt -0.170856997 1.68649995
vt -0.170856997 1.68649995
vt -0.320856988 1.68149996
vt -0.170856997 1.68149996
vt -0.320856988 0.240858003
vt -0.170856997 0.240858003
vt -0.320856988 0.390857995
vt -0.320856988 0.390857995
vt -0.170856997 0.240858003
vt -0.170856997 0.390857995
vt -1.68649995 0.390857995
vt -1.68649995 0.240858003
vt -1.68149996 0.390857995
vt -1.68149996 0.390857995
vt -1.68649995 0.240858003
vt -1.68149996 0.240858003
vt 0.170856997 1.68649995
vt 0.170856997 1.68149996
vt 0.320856988 1.68649995
vt 0.320856988 1.68649995
vt 0.170856997 1.68149996
vt 0.320856988 1.68149996
f 1/1 2/2 3/3
f 3/4 2/5 4/6
f 5/7 6/8 7/9
f 7/10 6/11 8/12
f 5/13 7/14 9/15
f 9/16 7/17 10/18
f 5/19 9/20 6/21
f 6/22 9/23 11/24
f 10/25 7/26 12/27
f 12/28 7/29 8/30
f 11/31 12/32 6/33
f 6/34 12/35 8/36
f 4/37 2/38 13/39
f 13/40 2/41 14/42
f 4/43 13/44 3/45
f 3/46 13/47 15/48
f 15/49 13/50 16/51
f 16/52 13/53 14/54
f 15/55 16/56 3/57
f 3/58 16/59 1/60
