# Exported from USD for MuJoCo with source material subsets
v 1.17828191 -5.75446182 0.971460619
v 1.17828197 -5.67746168 0.971460619
v 1.13614953 -5.75446182 1.00681389
v 1.13614953 -5.67746168 1.00681389
v 0.233927495 -5.05525165 1.35687531
v 0.233927435 -5.05525118 1.65570439
v 0.233927376 -5.46632677 1.35687555
v 0.233927316 -5.46632677 1.65570462
vt 0.481599003 -0.460000992
vt 0.481599003 -0.390000999
vt 0.443295985 -0.460000992
vt 0.443295985 -0.460000992
vt 0.481599003 -0.390000999
vt 0.443295985 -0.390000999
vt 0.175644994 1.23034
vt 0.175644994 1.50200295
vt -0.198060006 1.23034
vt -0.198060006 1.23034
vt 0.175644994 1.50200295
vt -0.198060006 1.50200295
f 1/1 2/2 3/3
f 3/4 2/5 4/6
f 5/7 6/8 7/9
f 7/10 6/11 8/12
