# Exported from USD for MuJoCo with source material subsets
v 0.0921563572 3.88810724 1.79884846
v 0.087169326 3.88745016 1.79884846
v 0.0921563572 3.88810724 1.85384846
v 0.087169326 3.88745016 1.85384846
v 0.0825283891 3.8855266 1.79884846
v 0.0825283891 3.8855266 1.85384846
v 0.0785422093 3.88246674 1.79884846
v 0.0785422093 3.88246674 1.85384846
v 0.0754830605 3.87847752 1.79884846
v 0.0754830605 3.87847752 1.85384846
v 0.0735620028 3.87383837 1.79884846
v 0.0735620028 3.87383837 1.85384846
v 0.0729067093 3.86885208 1.79884846
v 0.0729067093 3.86885208 1.85384846
v 0.0735630757 3.86387295 1.79884846
v 0.0735630757 3.86387295 1.85384846
v 0.0754876799 3.85922903 1.79884846
v 0.0754876799 3.85922903 1.85384846
v 0.0785482294 3.85524267 1.79884846
v 0.0785482294 3.85524267 1.85384846
v 0.0825334257 3.85218519 1.79884846
v 0.0825334257 3.85218519 1.85384846
v 0.0871795482 3.85026259 1.79884846
v 0.0871795482 3.85026259 1.85384846
v 0.0921563572 3.84960741 1.79884846
v 0.0921563572 3.84960741 1.85384846
v -1.05376899 3.49808306 1.4207691
v -1.04878187 3.49874062 1.4207691
v -1.05376899 3.49808306 1.47576911
v -1.04878187 3.49874062 1.47576911
v -1.04414093 3.50066418 1.4207691
v -1.04414093 3.50066418 1.47576911
v -1.04015493 3.50372357 1.4207691
v -1.04015493 3.50372357 1.47576911
v -1.0370959 3.50771279 1.4207691
v -1.0370959 3.50771279 1.47576911
v -1.03517472 3.51235193 1.4207691
v -1.03517472 3.51235193 1.47576911
v -1.03451943 3.51733822 1.4207691
v -1.03451943 3.51733822 1.47576911
v -1.03517567 3.52231735 1.4207691
v -1.03517567 3.52231735 1.47576911
v -1.03710019 3.52696127 1.4207691
v -1.03710019 3.52696127 1.47576911
v -1.04016077 3.53094763 1.4207691
v -1.04016077 3.53094763 1.47576911
v -1.04414582 3.53400511 1.4207691
v -1.04414582 3.53400511 1.47576911
v -1.04879212 3.53592819 1.4207691
v -1.04879212 3.53592819 1.47576911
v -1.05376899 3.53658289 1.4207691
v -1.05376899 3.53658289 1.47576911
v -1.05874574 3.49873776 1.47576911
v -1.05874574 3.49873776 1.4207691
v -1.06339192 3.50066132 1.47576911
v -1.06339192 3.50066132 1.4207691
v -1.06737708 3.50371832 1.47576911
v -1.06737708 3.50371832 1.4207691
v -1.07043766 3.5077042 1.47576911
v -1.07043766 3.5077042 1.4207691
v -1.07236218 3.5123486 1.47576911
v -1.07236218 3.5123486 1.4207691
v -1.07301866 3.51732773 1.47576911
v -1.07301866 3.51732773 1.4207691
v -1.07236313 3.52231402 1.47576911
v -1.07236313 3.52231402 1.4207691
v -1.07044231 3.52695317 1.47576911
v -1.07044231 3.52695317 1.4207691
v -1.06738293 3.53094238 1.47576911
v -1.06738293 3.53094238 1.4207691
v -1.06339692 3.53400177 1.47576911
v -1.06339692 3.53400177 1.4207691
v -1.05875599 3.53592581 1.47576911
v -1.05875599 3.53592581 1.4207691
v 0.0971433288 3.85026449 1.79884846
v 0.0971433288 3.85026449 1.85384846
v 0.101784355 3.85218853 1.79884846
v 0.101784355 3.85218853 1.85384846
v 0.105770505 3.85524792 1.79884846
v 0.105770505 3.85524792 1.85384846
v 0.108829654 3.85923762 1.79884846
v 0.108829654 3.85923762 1.85384846
v 0.110750741 3.86387629 1.79884846
v 0.110750741 3.86387629 1.85384846
v 0.111406035 3.86886257 1.79884846
v 0.111406035 3.86886257 1.85384846
v 0.110749639 3.87384171 1.79884846
v 0.110749639 3.87384171 1.85384846
v 0.108825035 3.87848658 1.79884846
v 0.108825035 3.87848658 1.85384846
v 0.105764485 3.88247246 1.79884846
v 0.105764485 3.88247246 1.85384846
v 0.101779318 3.88552946 1.79884846
v 0.101779318 3.88552946 1.85384846
v 0.0971331364 3.88745255 1.79884846
v 0.0971331364 3.88745255 1.85384846
vt 1.63531494 -0.288836002
vt 1.63531494 -0.293370008
vt 1.68531501 -0.288836002
vt -1.68531501 -0.288836002
vt -1.63531494 -0.293370008
vt -1.63531494 -0.293370008
vt 1.68531501 -0.288836002
vt 1.63531494 -0.293370008
vt 1.68531501 -0.293370008
vt 1.68531501 -0.293370008
vt 1.63531494 -0.293370008
vt 1.63531494 -0.297589004
vt 1.68531501 -0.293370008
vt 1.63531494 -0.297589004
vt 1.68531501 -0.297589004
vt 1.68531501 -0.297589004
vt 1.63531494 -0.297589004
vt 1.63531494 -0.301212996
vt 1.68531501 -0.297589004
vt 1.63531494 -0.301212996
vt 1.68531501 -0.301212996
vt -0.739726007 1.68531501
vt -0.739726007 1.63531494
vt -0.736099005 1.63531494
vt -0.739726007 1.68531501
vt -0.736099005 1.63531494
vt -0.736099005 1.68531501
vt -0.736099005 1.68531501
vt -0.736099005 1.63531494
vt -0.731881976 1.63531494
vt -0.736099005 1.68531501
vt -0.731881976 1.63531494
vt -0.731881976 1.68531501
vt -0.731881976 1.68531501
vt -0.731881976 1.63531494
vt -0.727348983 1.63531494
vt -0.731881976 1.68531501
vt -0.727348983 1.63531494
vt -0.727348983 1.68531501
vt -0.727348983 1.68531501
vt -0.727348983 1.63531494
vt -0.722823024 1.63531494
vt -0.727348983 1.68531501
vt -0.722823024 1.63531494
vt -0.722823024 1.68531501
vt -0.722823024 1.68531501
vt -0.722823024 1.63531494
vt -0.718600988 1.63531494
vt -0.722823024 1.68531501
vt -0.718600988 1.63531494
vt -0.718600988 1.68531501
vt -0.718600988 1.68531501
vt -0.718600988 1.63531494
vt -0.714977026 1.63531494
vt -0.718600988 1.68531501
vt -0.714977026 1.63531494
vt -0.714977026 1.68531501
vt -1.68531501 -0.301207006
vt -1.63531494 -0.301207006
vt -1.63531494 -0.297583997
vt -1.68531501 -0.301207006
vt -1.63531494 -0.297583997
vt -1.68531501 -0.297583997
vt -1.68531501 -0.297583997
vt -1.63531494 -0.297583997
vt -1.63531494 -0.293359995
vt -1.68531501 -0.297583997
vt -1.63531494 -0.293359995
vt -1.68531501 -0.293359995
vt -1.68531501 -0.293359995
vt -1.63531494 -0.293359995
vt -1.63531494 -0.288836002
vt -1.68531501 -0.293359995
vt -1.63531494 -0.288836002
vt -1.68531501 -0.288836002
vt -1.29160702 -1.33058596
vt -1.29160702 -1.32605302
vt -1.34160697 -1.33058596
vt -1.34160697 -1.33058596
vt -1.29160702 -1.32605302
vt -1.29160702 -1.32605302
vt -1.34160697 -1.33058596
vt -1.29160702 -1.32605302
vt -1.34160697 -1.32605302
vt -1.34160697 -1.32605302
vt -1.29160702 -1.32605302
vt -1.29160702 -1.32183397
vt -1.34160697 -1.32605302
vt -1.29160702 -1.32183397
vt -1.34160697 -1.32183397
vt -1.34160697 -1.32183397
vt -1.29160702 -1.32183397
vt -1.29160702 -1.31821001
vt -1.34160697 -1.32183397
vt -1.29160702 -1.31821001
vt -1.34160697 -1.31821001
vt 0.395413995 1.34160697
vt 0.395413995 1.29160702
vt 0.399040014 1.29160702
vt 0.395413995 1.34160697
vt 0.399040014 1.29160702
vt 0.399040014 1.34160697
vt 0.399040014 1.34160697
vt 0.399040014 1.29160702
vt 0.403257996 1.29160702
vt 0.399040014 1.34160697
vt 0.403257996 1.29160702
vt 0.403257996 1.34160697
vt 0.403257996 1.34160697
vt 0.403257996 1.29160702
vt 0.407790989 1.29160702
vt 0.403257996 1.34160697
vt 0.407790989 1.29160702
vt 0.407790989 1.34160697
vt 0.407790989 1.34160697
vt 0.407790989 1.29160702
vt 0.412317008 1.29160702
vt 0.407790989 1.34160697
vt 0.412317008 1.29160702
vt 0.412317008 1.34160697
vt 0.412317008 1.34160697
vt 0.412317008 1.29160702
vt 0.416539013 1.29160702
vt 0.412317008 1.34160697
vt 0.416539013 1.29160702
vt 0.416539013 1.34160697
vt 0.416539013 1.34160697
vt 0.416539013 1.29160702
vt 0.420163006 1.29160702
vt 0.416539013 1.34160697
vt 0.420163006 1.29160702
vt 0.420163006 1.34160697
vt 1.34160697 -1.31821501
vt 1.29160702 -1.31821501
vt 1.29160702 -1.32183802
vt 1.34160697 -1.31821501
vt 1.29160702 -1.32183802
vt 1.34160697 -1.32183802
vt 1.34160697 -1.32183802
vt 1.29160702 -1.32183802
vt 1.29160702 -1.32606196
vt 1.34160697 -1.32183802
vt 1.29160702 -1.32606196
vt 1.34160697 -1.32606196
vt 1.34160697 -1.32606196
vt 1.29160702 -1.32606196
vt 1.29160702 -1.33058596
vt 1.34160697 -1.32606196
vt 1.29160702 -1.33058596
vt 1.34160697 -1.33058596
vt -1.34160697 -1.33058596
vt -1.34160697 -1.33511102
vt -1.29160702 -1.33058596
vt -1.29160702 -1.33058596
vt -1.34160697 -1.33511102
vt -1.34160697 -1.33511102
vt -1.29160702 -1.33058596
vt -1.34160697 -1.33511102
vt -1.29160702 -1.33511102
vt -1.29160702 -1.33511102
vt -1.34160697 -1.33511102
vt -1.34160697 -1.33933401
vt -1.29160702 -1.33511102
vt -1.34160697 -1.33933401
vt -1.29160702 -1.33933401
vt -1.29160702 -1.33933401
vt -1.34160697 -1.33933401
vt -1.34160697 -1.34295702
vt -1.29160702 -1.33933401
vt -1.34160697 -1.34295702
vt -1.29160702 -1.34295702
vt -0.395408988 1.29160702
vt -0.395408988 1.34160697
vt -0.399031997 1.34160697
vt -0.395408988 1.29160702
vt -0.399031997 1.34160697
vt -0.399031997 1.29160702
vt -0.399031997 1.29160702
vt -0.399031997 1.34160697
vt -0.403254986 1.34160697
vt -0.399031997 1.29160702
vt -0.403254986 1.34160697
vt -0.403254986 1.29160702
vt -0.403254986 1.29160702
vt -0.403254986 1.34160697
vt -0.407781005 1.34160697
vt -0.403254986 1.29160702
vt -0.407781005 1.34160697
vt -0.407781005 1.29160702
vt -0.407781005 1.29160702
vt -0.407781005 1.34160697
vt -0.412313998 1.34160697
vt -0.407781005 1.29160702
vt -0.412313998 1.34160697
vt -0.412313998 1.29160702
vt -0.412313998 1.29160702
vt -0.412313998 1.34160697
vt -0.416530997 1.34160697
vt -0.412313998 1.29160702
vt -0.416530997 1.34160697
vt -0.416530997 1.29160702
vt -0.416530997 1.29160702
vt -0.416530997 1.34160697
vt -0.420157999 1.34160697
vt -0.416530997 1.29160702
vt -0.420157999 1.34160697
vt -0.420157999 1.29160702
vt 1.29160702 -1.34296298
vt 1.34160697 -1.34296298
vt 1.34160697 -1.33933902
vt 1.29160702 -1.34296298
vt 1.34160697 -1.33933902
vt 1.29160702 -1.33933902
vt 1.29160702 -1.33933902
vt 1.34160697 -1.33933902
vt 1.34160697 -1.33511996
vt 1.29160702 -1.33933902
vt 1.34160697 -1.33511996
vt 1.29160702 -1.33511996
vt 1.29160702 -1.33511996
vt 1.34160697 -1.33511996
vt 1.34160697 -1.33058596
vt 1.29160702 -1.33511996
vt 1.34160697 -1.33058596
vt 1.29160702 -1.33058596
vt -1.63531494 -0.288836002
vt -1.63531494 -0.284301996
vt -1.68531501 -0.288836002
vt -1.68531501 -0.288836002
vt -1.63531494 -0.284301996
vt -1.63531494 -0.284301996
vt -1.68531501 -0.288836002
vt -1.63531494 -0.284301996
vt -1.68531501 -0.284301996
vt -1.68531501 -0.284301996
vt -1.63531494 -0.284301996
vt -1.63531494 -0.280083001
vt -1.68531501 -0.284301996
vt -1.63531494 -0.280083001
vt -1.68531501 -0.280083001
vt -1.68531501 -0.280083001
vt -1.63531494 -0.280083001
vt -1.63531494 -0.276459992
vt -1.68531501 -0.280083001
vt -1.63531494 -0.276459992
vt -1.68531501 -0.276459992
vt 0.714981973 1.68531501
vt 0.714981973 1.63531494
vt 0.718608022 1.63531494
vt 0.714981973 1.68531501
vt 0.718608022 1.63531494
vt 0.718608022 1.68531501
vt 0.718608022 1.68531501
vt 0.718608022 1.63531494
vt 0.722826004 1.63531494
vt 0.718608022 1.68531501
vt 0.722826004 1.63531494
vt 0.722826004 1.68531501
vt 0.722826004 1.68531501
vt 0.722826004 1.63531494
vt 0.727358997 1.63531494
vt 0.722826004 1.68531501
vt 0.727358997 1.63531494
vt 0.727358997 1.68531501
vt 0.727358997 1.68531501
vt 0.727358997 1.63531494
vt 0.731885016 1.63531494
vt 0.727358997 1.68531501
vt 0.731885016 1.63531494
vt 0.731885016 1.68531501
vt 0.731885016 1.68531501
vt 0.731885016 1.63531494
vt 0.736106992 1.63531494
vt 0.731885016 1.68531501
vt 0.736106992 1.63531494
vt 0.736106992 1.68531501
vt 0.736106992 1.68531501
vt 0.736106992 1.63531494
vt 0.739731014 1.63531494
vt 0.736106992 1.68531501
vt 0.739731014 1.63531494
vt 0.739731014 1.68531501
vt 1.68531501 -0.276464999
vt 1.63531494 -0.276464999
vt 1.63531494 -0.280088007
vt 1.68531501 -0.276464999
vt 1.63531494 -0.280088007
vt 1.68531501 -0.280088007
vt 1.68531501 -0.280088007
vt 1.63531494 -0.280088007
vt 1.63531494 -0.28431201
vt 1.68531501 -0.280088007
vt 1.63531494 -0.28431201
vt 1.68531501 -0.28431201
vt 1.68531501 -0.28431201
vt 1.63531494 -0.28431201
vt 1.63531494 -0.288836002
vt 1.68531501 -0.28431201
vt 1.63531494 -0.288836002
vt 1.68531501 -0.288836002
f 1/1 2/2 3/3
f 3/4 2/5 2/6
f 3/7 2/8 4/9
f 4/10 2/11 5/12
f 4/13 5/14 6/15
f 6/16 5/17 7/18
f 6/19 7/20 8/21
f 8/22 7/23 9/24
f 8/25 9/26 10/27
f 10/28 9/29 11/30
f 10/31 11/32 12/33
f 12/34 11/35 13/36
f 12/37 13/38 14/39
f 14/40 13/41 15/42
f 14/43 15/44 16/45
f 16/46 15/47 17/48
f 16/49 17/50 18/51
f 18/52 17/53 19/54
f 18/55 19/56 20/57
f 20/58 19/59 21/60
f 20/61 21/62 22/63
f 22/64 21/65 23/66
f 22/67 23/68 24/69
f 24/70 23/71 25/72
f 24/73 25/74 26/75
f 27/76 28/77 29/78
f 29/79 28/80 28/81
f 29/82 28/83 30/84
f 30/85 28/86 31/87
f 30/88 31/89 32/90
f 32/91 31/92 33/93
f 32/94 33/95 34/96
f 34/97 33/98 35/99
f 34/100 35/101 36/102
f 36/103 35/104 37/105
f 36/106 37/107 38/108
f 38/109 37/110 39/111
f 38/112 39/113 40/114
f 40/115 39/116 41/117
f 40/118 41/119 42/120
f 42/121 41/122 43/123
f 42/124 43/125 44/126
f 44/127 43/128 45/129
f 44/130 45/131 46/132
f 46/133 45/134 47/135
f 46/136 47/137 48/138
f 48/139 47/140 49/141
f 48/142 49/143 50/144
f 50/145 49/146 51/147
f 50/148 51/149 52/150
f 29/151 53/152 27/153
f 27/154 53/155 53/156
f 27/157 53/158 54/159
f 54/160 53/161 55/162
f 54/163 55/164 56/165
f 56/166 55/167 57/168
f 56/169 57/170 58/171
f 58/172 57/173 59/174
f 58/175 59/176 60/177
f 60/178 59/179 61/180
f 60/181 61/182 62/183
f 62/184 61/185 63/186
f 62/187 63/188 64/189
f 64/190 63/191 65/192
f 64/193 65/194 66/195
f 66/196 65/197 67/198
f 66/199 67/200 68/201
f 68/202 67/203 69/204
f 68/205 69/206 70/207
f 70/208 69/209 71/210
f 70/211 71/212 72/213
f 72/214 71/215 73/216
f 72/217 73/218 74/219
f 74/220 73/221 52/222
f 74/223 52/224 51/225
f 25/226 75/227 26/228
f 26/229 75/230 75/231
f 26/232 75/233 76/234
f 76/235 75/236 77/237
f 76/238 77/239 78/240
f 78/241 77/242 79/243
f 78/244 79/245 80/246
f 80/247 79/248 81/249
f 80/250 81/251 82/252
f 82/253 81/254 83/255
f 82/256 83/257 84/258
f 84/259 83/260 85/261
f 84/262 85/263 86/264
f 86/265 85/266 87/267
f 86/268 87/269 88/270
f 88/271 87/272 89/273
f 88/274 89/275 90/276
f 90/277 89/278 91/279
f 90/280 91/281 92/282
f 92/283 91/284 93/285
f 92/286 93/287 94/288
f 94/289 93/290 95/291
f 94/292 95/293 96/294
f 96/295 95/296 1/297
f 96/298 1/299 3/300
