# Exported from USD for MuJoCo with source material subsets
v -10.6611677 1.55337743 1.13043107
v -10.6564214 1.55626229 1.13050944
v -10.9688999 1.52844552 1.12534624
v -10.9688998 1.93843702 1.12534624
v -10.5239816 1.55529217 1.13269767
v -10.2085289 1.93843679 1.13790996
v -10.5184827 1.55529098 1.1327885
v -10.208529 1.52844528 1.13790996
v -10.5157341 1.55052857 1.13283391
v -10.5184851 1.54576472 1.1327885
v -10.523984 1.54576615 1.13269767
v -10.6564236 1.54526381 1.13050932
v -10.6515834 1.54798512 1.13058928
v -10.5267326 1.55052857 1.13265227
v -10.6515818 1.55353836 1.13058928
v -10.6611677 1.54814891 1.13043107
vt 0.0266430005 0.163743004
vt 0.0223280005 0.161120996
vt 0.306398988 0.186408997
vt -1.01986003 0.186408997
vt -1.02455401 0.161120996
vt -1.02455401 0.161120996
vt 0.306398988 0.186408997
vt 0.0223280005 0.161120996
vt 0.306398988 -0.186311007
vt 0.306398988 -0.186311007
vt 0.0223280005 0.161120996
vt -0.0980719998 0.162002996
vt 0.306398988 -0.186311007
vt -0.0980719998 0.162002996
vt -0.384846985 -0.186311007
vt -0.384846985 -0.186311007
vt -0.0980719998 0.162002996
vt -0.103070997 0.162003994
vt -0.384846985 -0.186311007
vt -0.103070997 0.162003994
vt -0.384846985 0.186408997
vt -0.384846985 0.186408997
vt -0.103070997 0.162003994
vt -0.105570003 0.166333005
vt -1.03128195 0.186408997
vt -1.026667 0.166333005
vt -1.03128195 0.186408997
vt -0.384846985 0.186408997
vt -0.105570003 0.166333005
vt -0.103069 0.170663998
vt -1.03128195 0.186408997
vt -1.02662599 0.170663998
vt -1.03128195 0.186408997
vt -0.384846985 0.186408997
vt -0.103069 0.170663998
vt -0.0980700031 0.170662999
vt -0.384846985 0.186408997
vt -0.0980700031 0.170662999
vt 0.0223299991 0.171119004
vt -1.02455401 0.171119004
vt -1.02654302 0.170662999
vt -1.02654302 0.170662999
vt 0.0223299991 0.171119004
vt -0.0980700031 0.170662999
vt 0.0179299992 0.168645993
vt 0.0179299992 0.168645993
vt -0.0980700031 0.170662999
vt -0.0955709964 0.166333005
vt 0.0179299992 0.168645993
vt -0.0955709964 0.166333005
vt 0.0179280005 0.163597003
vt 0.0179280005 0.163597003
vt -0.0955709964 0.166333005
vt -0.0980719998 0.162002996
vt 0.0179280005 0.163597003
vt -0.0980719998 0.162002996
vt 0.0223280005 0.161120996
vt -0.384846985 0.186408997
vt 0.0223299991 0.171119004
vt 0.306398988 0.186408997
vt 0.306398988 0.186408997
vt 0.0223299991 0.171119004
vt 0.0266430005 0.168496996
vt 0.306398988 0.186408997
vt 0.0266430005 0.168496996
vt 0.0266430005 0.163743004
f 1/1 2/2 3/3
f 3/4 2/5 2/6
f 3/7 2/8 4/9
f 4/10 2/11 5/12
f 4/13 5/14 6/15
f 6/16 5/17 7/18
f 6/19 7/20 8/21
f 8/22 7/23 9/24
f 8/25 9/26 8/27
f 8/28 9/29 10/30
f 8/31 10/32 8/33
f 8/34 10/35 11/36
f 8/37 11/38 12/39
f 12/40 11/41 11/42
f 12/43 11/44 13/45
f 13/46 11/47 14/48
f 13/49 14/50 15/51
f 15/52 14/53 5/54
f 15/55 5/56 2/57
f 8/58 12/59 3/60
f 3/61 12/62 16/63
f 3/64 16/65 1/66
