# Exported from USD for MuJoCo with source material subsets
v 6.19176271 6.07999903 1.15500025
v 6.44984027 5.99588543 1.15500037
v 6.44984033 6.15513474 1.15500037
v 6.14481679 6.0543943 1.15500025
v 5.82984039 5.99588543 1.15500012
v 6.11176273 6.07999903 1.15500025
v 5.82984045 6.15513474 1.15500012
v 6.1448168 6.10560328 1.15500025
v 6.18935042 6.08889109 1.15500025
v 6.18240449 6.09671122 1.15500025
v 6.17176272 6.10251528 1.15500025
v 6.15870866 6.10560328 1.15500025
v 5.82984064 6.15513474 0.565000296
v 6.44984051 6.15513474 0.565000415
v 5.82984058 5.99588543 0.565000296
v 6.44984045 5.99588543 0.565000415
v 6.13176273 6.10251528 1.15500025
v 6.12112095 6.09671122 1.15500025
v 6.11417502 6.08889109 1.15500025
v 5.67484042 5.99588543 1.20000025
v 5.67484077 5.99588543 0.0400004387
v 5.6748403 5.53438526 1.20000025
v 5.67484065 5.53438526 0.0400004387
v 6.62484022 5.99588543 1.20000049
v 6.62484011 5.53438526 1.20000049
v 6.62484058 5.99588543 0.0400005579
v 6.62484052 5.53438526 0.0400005579
v 5.73484069 5.92438465 0.0600004196
v 6.56484055 5.92438465 0.060000658
v 5.73484039 5.92438465 1.14000012
v 6.56484025 5.92438465 1.14000037
v 5.73484057 5.53438526 0.0600004196
v 6.56484043 5.53438526 0.060000658
v 5.73484027 5.53438526 1.14000012
v 6.56484013 5.53438526 1.14000037
v 6.11417502 6.07110602 1.15500025
v 6.12112094 6.06328636 1.15500025
v 6.13176272 6.05748182 1.15500025
v 6.15870864 6.0543943 1.15500025
v 6.17176271 6.05748182 1.15500025
v 6.18240449 6.06328636 1.15500025
v 6.18935042 6.07110602 1.15500025
v 6.62113591 -7.88850015 1.20000049
v 6.62113627 -7.88850015 0.0400005579
v 6.62113597 -7.42699999 1.20000049
v 6.62113639 -7.42699999 0.0400005579
v 5.67113608 -7.88850015 1.20000025
v 5.6711362 -7.42699999 1.20000025
v 5.6711364 -7.88850015 0.0400004387
v 5.67113652 -7.42699999 0.0400004387
v 5.84613604 -7.88850015 1.15500012
v 5.84613624 -7.88850015 0.565000296
v 5.84613598 -8.04774994 1.15500012
v 5.84613618 -8.04774994 0.565000296
v 6.46613609 -7.88850015 0.565000415
v 6.46613606 -8.04774994 0.565000415
v 6.46613591 -7.88850015 1.15500037
v 6.46613585 -8.04774994 1.15500037
v 6.18421363 -7.97261375 1.15500025
v 6.15115956 -7.99821848 1.15500025
v 6.15115958 -7.94700855 1.15500025
v 6.10421365 -7.97261375 1.15500025
v 6.18180133 -7.98150629 1.15500025
v 6.17485541 -7.98932642 1.15500025
v 6.16421363 -7.99513048 1.15500025
v 6.10662595 -7.96372074 1.15500025
v 6.11357188 -7.95590109 1.15500025
v 6.12421365 -7.95009702 1.15500025
v 6.13726772 -7.94700855 1.15500025
v 6.16421364 -7.95009702 1.15500025
v 6.17485541 -7.95590109 1.15500025
v 6.18180134 -7.96372074 1.15500025
v 6.10662594 -7.98150629 1.15500025
v 6.11357187 -7.98932642 1.15500025
v 6.12421364 -7.99513048 1.15500025
v 6.13726771 -7.99821848 1.15500025
v 5.73113617 -7.42699999 1.14000012
v 5.73113605 -7.81699985 1.14000012
v 5.73113647 -7.42699999 0.0600004196
v 5.73113635 -7.81699985 0.0600004196
v 6.56113606 -7.42699999 1.14000037
v 6.56113591 -7.81699985 1.14000037
v 6.56113636 -7.42699999 0.060000658
v 6.56113624 -7.81699985 0.060000658
vt -0.0389220007 -10.8097057
vt -0.296999991 -10.6802988
vt -0.296999991 -10.9252996
vt 0.00802399963 -10.7703123
vt 0.323000014 -10.6802988
vt -0.296999991 -10.6802988
vt 0.0410780013 -10.8097057
vt 0.323000014 -10.9252996
vt 0.323000014 -10.6802988
vt 0.00802399963 -10.8490973
vt -0.296999991 -10.9252996
vt 0.323000014 -10.9252996
vt -0.0389220007 -10.8097057
vt -0.296999991 -10.9252996
vt -0.0365099981 -10.8233862
vt -1.15499997 -10.8233862
vt -1.15499997 -10.9252996
vt -1.15499997 -10.9252996
vt -0.0365099981 -10.8233862
vt -0.296999991 -10.9252996
vt -0.0295640007 -10.8354168
vt -1.15499997 -10.8354168
vt -1.15499997 -10.9252996
vt -1.15499997 -10.9252996
vt -0.0295640007 -10.8354168
vt -0.296999991 -10.9252996
vt -0.0189219993 -10.844346
vt -1.15499997 -10.844346
vt -1.15499997 -10.9252996
vt -1.15499997 -10.9252996
vt -0.0189219993 -10.844346
vt -0.296999991 -10.9252996
vt -0.00586799998 -10.8490973
vt -0.00586799998 -10.8490973
vt -0.296999991 -10.9252996
vt 0.00802399963 -10.8490973
vt -0.323000014 -10.9252996
vt 0.296999991 -10.9252996
vt -0.323000014 -10.6802988
vt -0.323000014 -10.6802988
vt 0.296999991 -10.9252996
vt 0.296999991 -10.6802988
vt 0.564999998 -10.9252996
vt 1.15499997 -10.9252996
vt 0.564999998 -10.6802988
vt 0.564999998 -10.6802988
vt 1.15499997 -10.9252996
vt 1.15499997 -10.6802988
vt 0.00802399963 -10.8490973
vt 0.323000014 -10.9252996
vt 0.0210779998 -10.844346
vt -1.15499997 -10.844346
vt -1.15499997 -10.9252996
vt -1.15499997 -10.9252996
vt 0.0210779998 -10.844346
vt 0.323000014 -10.9252996
vt 0.0317200013 -10.8354168
vt -1.15499997 -10.8354168
vt -1.15499997 -10.9252996
vt -1.15499997 -10.9252996
vt 0.0317200013 -10.8354168
vt 0.323000014 -10.9252996
vt 0.0386659987 -10.8233862
vt 0.0386659987 -10.8233862
vt 0.323000014 -10.9252996
vt 0.0410780013 -10.8097057
vt -0.296999991 1.15499997
vt -0.296999991 0.564999998
vt 0.323000014 1.15499997
vt 0.323000014 1.15499997
vt -0.296999991 0.564999998
vt 0.323000014 0.564999998
vt -1.20000005 -10.6802988
vt -0.0399999991 -10.6802988
vt -1.20000005 -9.97029877
vt -1.20000005 -9.97029877
vt -0.0399999991 -10.6802988
vt -0.0399999991 -9.97029877
vt 1.20000005 -10.6802988
vt 1.20000005 -9.97029877
vt 0.0399999991 -10.6802988
vt 0.0399999991 -10.6802988
vt 1.20000005 -9.97029877
vt 0.0399999991 -9.97029877
vt -0.418000013 0.0599999987
vt 0.412 0.0599999987
vt -0.418000013 1.13999999
vt -0.418000013 1.13999999
vt 0.412 0.0599999987
vt 0.412 1.13999999
vt 0.418000013 -10.5702991
vt 0.418000013 -9.97029877
vt -0.412 -10.5702991
vt -0.412 -10.5702991
vt 0.418000013 -9.97029877
vt -0.412 -9.97029877
vt 1.13999999 -10.5702991
vt 1.13999999 -9.97029877
vt 0.0599999987 -10.5702991
vt 0.0599999987 -10.5702991
vt 1.13999999 -9.97029877
vt 0.0599999987 -9.97029877
vt -0.418000013 -9.97029877
vt -0.418000013 -10.5702991
vt 0.412 -9.97029877
vt 0.412 -9.97029877
vt -0.418000013 -10.5702991
vt 0.412 -10.5702991
vt -1.13999999 -9.97029877
vt -1.13999999 -10.5702991
vt -0.0599999987 -9.97029877
vt -0.0599999987 -9.97029877
vt -1.13999999 -10.5702991
vt -0.0599999987 -10.5702991
vt -1.15499997 -10.9252996
vt -0.564999998 -10.9252996
vt -1.15499997 -10.6802988
vt -1.15499997 -10.6802988
vt -0.564999998 -10.9252996
vt -0.564999998 -10.6802988
vt 0.0410780013 -10.8097057
vt 0.323000014 -10.6802988
vt 0.0386659987 -10.7960243
vt -1.15499997 -10.7960243
vt -1.15499997 -10.6802988
vt -1.15499997 -10.6802988
vt 0.0386659987 -10.7960243
vt 0.323000014 -10.6802988
vt 0.0317200013 -10.7839937
vt -1.15499997 -10.7839937
vt -1.15499997 -10.6802988
vt -1.15499997 -10.6802988
vt 0.0317200013 -10.7839937
vt 0.323000014 -10.6802988
vt 0.0210779998 -10.7750645
vt 0.0210779998 -10.7750645
vt 0.323000014 -10.6802988
vt 0.00802399963 -10.7703123
vt 0.00802399963 -10.7703123
vt -0.296999991 -10.6802988
vt -0.00586799998 -10.7703123
vt -1.15499997 -10.7703123
vt -1.15499997 -10.6802988
vt -1.15499997 -10.6802988
vt -0.00586799998 -10.7703123
vt -0.296999991 -10.6802988
vt -0.0189219993 -10.7750645
vt -1.15499997 -10.7750645
vt -1.15499997 -10.6802988
vt -1.15499997 -10.6802988
vt -0.0189219993 -10.7750645
vt -0.296999991 -10.6802988
vt -0.0295640007 -10.7839937
vt -1.15499997 -10.7839937
vt -1.15499997 -10.6802988
vt -1.15499997 -10.6802988
vt -0.0295640007 -10.7839937
vt -0.296999991 -10.6802988
vt -0.0365099981 -10.7960243
vt -0.0365099981 -10.7960243
vt -0.296999991 -10.6802988
vt -0.0389220007 -10.8097057
vt 1.20000005 10.6803007
vt 0.0399999991 10.6803007
vt 1.20000005 9.97030067
vt 1.20000005 9.97030067
vt 0.0399999991 10.6803007
vt 0.0399999991 9.97030067
vt -1.20000005 10.6803007
vt -1.20000005 9.97030067
vt -0.0399999991 10.6803007
vt -0.0399999991 10.6803007
vt -1.20000005 9.97030067
vt -0.0399999991 9.97030067
vt -1.15499997 10.6803007
vt -0.564999998 10.6803007
vt -1.15499997 10.9253006
vt -1.15499997 10.9253006
vt -0.564999998 10.6803007
vt -0.564999998 10.9253006
vt -0.306699991 10.6803007
vt 0.313300014 10.6803007
vt -0.306699991 10.9253006
vt -0.306699991 10.9253006
vt 0.313300014 10.6803007
vt 0.313300014 10.9253006
vt 0.564999998 10.6803007
vt 1.15499997 10.6803007
vt 0.564999998 10.9253006
vt 0.564999998 10.9253006
vt 1.15499997 10.6803007
vt 1.15499997 10.9253006
vt -0.313300014 10.9253006
vt -0.313300014 10.6803007
vt -0.0313769989 10.8097057
vt -0.313300014 10.9253006
vt 0.00167699996 10.8490992
vt 0.306699991 10.9253006
vt -0.313300014 10.6803007
vt 0.306699991 10.6803007
vt 0.00167699996 10.7703142
vt 0.0486229993 10.8097057
vt 0.306699991 10.6803007
vt 0.306699991 10.9253006
vt -0.0313769989 10.8097057
vt -0.0289650001 10.8233871
vt -0.313300014 10.9253006
vt -0.313300014 10.9253006
vt -0.0289650001 10.8233871
vt -0.0220190007 10.8354177
vt -1.15499997 10.9253006
vt -1.15499997 10.8354177
vt -1.15499997 10.9253006
vt -0.313300014 10.9253006
vt -0.0220190007 10.8354177
vt -0.0113770002 10.844348
vt -0.313300014 10.9253006
vt -0.0113770002 10.844348
vt 0.00167699996 10.8490992
vt 0.0486229993 10.8097057
vt 0.0462099984 10.7960253
vt 0.306699991 10.6803007
vt 0.306699991 10.6803007
vt 0.0462099984 10.7960253
vt 0.0392649993 10.7839947
vt -1.15499997 10.6803007
vt -1.15499997 10.7839947
vt -1.15499997 10.6803007
vt 0.306699991 10.6803007
vt 0.0392649993 10.7839947
vt 0.0286229998 10.7750654
vt -1.15499997 10.6803007
vt -1.15499997 10.7750654
vt -1.15499997 10.6803007
vt 0.306699991 10.6803007
vt 0.0286229998 10.7750654
vt 0.0155689996 10.7703142
vt 0.306699991 10.6803007
vt 0.0155689996 10.7703142
vt 0.00167699996 10.7703142
vt 0.00167699996 10.7703142
vt -0.0113770002 10.7750654
vt -0.313300014 10.6803007
vt -0.313300014 10.6803007
vt -0.0113770002 10.7750654
vt -0.0220190007 10.7839947
vt -1.15499997 10.6803007
vt -1.15499997 10.7839947
vt -1.15499997 10.6803007
vt -0.313300014 10.6803007
vt -0.0220190007 10.7839947
vt -0.0289650001 10.7960253
vt -0.313300014 10.6803007
vt -0.0289650001 10.7960253
vt -0.0313769989 10.8097057
vt 0.0486229993 10.8097057
vt 0.306699991 10.9253006
vt 0.0462099984 10.8233871
vt -1.15499997 10.8233871
vt -1.15499997 10.9253006
vt -1.15499997 10.9253006
vt 0.0462099984 10.8233871
vt 0.306699991 10.9253006
vt 0.0392649993 10.8354177
vt -1.15499997 10.8354177
vt -1.15499997 10.9253006
vt -1.15499997 10.9253006
vt 0.0392649993 10.8354177
vt 0.306699991 10.9253006
vt 0.0286229998 10.844348
vt -1.15499997 10.844348
vt -1.15499997 10.9253006
vt -1.15499997 10.9253006
vt 0.0286229998 10.844348
vt 0.306699991 10.9253006
vt 0.0155689996 10.8490992
vt 0.0155689996 10.8490992
vt 0.306699991 10.9253006
vt 0.00167699996 10.8490992
vt -0.306699991 1.15499997
vt -0.306699991 0.564999998
vt 0.313300014 1.15499997
vt 0.313300014 1.15499997
vt -0.306699991 0.564999998
vt 0.313300014 0.564999998
vt 1.13999999 9.97030067
vt 1.13999999 10.5703011
vt 0.0599999987 9.97030067
vt 0.0599999987 9.97030067
vt 1.13999999 10.5703011
vt 0.0599999987 10.5703011
vt 0.408300012 9.97030067
vt 0.408300012 10.5703011
vt -0.421700001 9.97030067
vt -0.421700001 9.97030067
vt 0.408300012 10.5703011
vt -0.421700001 10.5703011
vt -0.0599999987 9.97030067
vt -0.0599999987 10.5703011
vt -1.13999999 9.97030067
vt -1.13999999 9.97030067
vt -0.0599999987 10.5703011
vt -1.13999999 10.5703011
vt 0.421700001 9.97030067
vt 0.421700001 10.5703011
vt -0.408300012 9.97030067
vt -0.408300012 9.97030067
vt 0.421700001 10.5703011
vt -0.408300012 10.5703011
vt -0.408300012 0.0599999987
vt 0.421700001 0.0599999987
vt -0.408300012 1.13999999
vt -0.408300012 1.13999999
vt 0.421700001 0.0599999987
vt 0.421700001 1.13999999
f 1/1 2/2 3/3
f 4/4 5/5 2/6
f 6/7 7/8 5/9
f 8/10 3/11 7/12
f 1/13 3/14 9/15
f 9/16 3/17 3/18
f 9/19 3/20 10/21
f 10/22 3/23 3/24
f 10/25 3/26 11/27
f 11/28 3/29 3/30
f 11/31 3/32 12/33
f 12/34 3/35 8/36
f 13/37 14/38 15/39
f 15/40 14/41 16/42
f 14/43 3/44 16/45
f 16/46 3/47 2/48
f 8/49 7/50 17/51
f 17/52 7/53 7/54
f 17/55 7/56 18/57
f 18/58 7/59 7/60
f 18/61 7/62 19/63
f 19/64 7/65 6/66
f 3/67 14/68 7/69
f 7/70 14/71 13/72
f 20/73 21/74 22/75
f 22/76 21/77 23/78
f 24/79 25/80 26/81
f 26/82 25/83 27/84
f 28/85 29/86 30/87
f 30/88 29/89 31/90
f 28/91 32/92 29/93
f 29/94 32/95 33/96
f 30/97 34/98 28/99
f 28/100 34/101 32/102
f 34/103 30/104 35/105
f 35/106 30/107 31/108
f 35/109 31/110 33/111
f 33/112 31/113 29/114
f 7/115 13/116 5/117
f 5/118 13/119 15/120
f 6/121 5/122 36/123
f 36/124 5/125 5/126
f 36/127 5/128 37/129
f 37/130 5/131 5/132
f 37/133 5/134 38/135
f 38/136 5/137 4/138
f 4/139 2/140 39/141
f 39/142 2/143 2/144
f 39/145 2/146 40/147
f 40/148 2/149 2/150
f 40/151 2/152 41/153
f 41/154 2/155 2/156
f 41/157 2/158 42/159
f 42/160 2/161 1/162
f 43/163 44/164 45/165
f 45/166 44/167 46/168
f 47/169 48/170 49/171
f 49/172 48/173 50/174
f 51/175 52/176 53/177
f 53/178 52/179 54/180
f 52/181 55/182 54/183
f 54/184 55/185 56/186
f 55/187 57/188 56/189
f 56/190 57/191 58/192
f 58/193 57/194 59/195
f 58/196 60/197 53/198
f 57/199 51/200 61/201
f 62/202 51/203 53/204
f 59/205 63/206 58/207
f 58/208 63/209 64/210
f 58/211 64/212 58/213
f 58/214 64/215 65/216
f 58/217 65/218 60/219
f 62/220 66/221 51/222
f 51/223 66/224 67/225
f 51/226 67/227 51/228
f 51/229 67/230 68/231
f 51/232 68/233 51/234
f 51/235 68/236 69/237
f 51/238 69/239 61/240
f 61/241 70/242 57/243
f 57/244 70/245 71/246
f 57/247 71/248 57/249
f 57/250 71/251 72/252
f 57/253 72/254 59/255
f 62/256 53/257 73/258
f 73/259 53/260 53/261
f 73/262 53/263 74/264
f 74/265 53/266 53/267
f 74/268 53/269 75/270
f 75/271 53/272 53/273
f 75/274 53/275 76/276
f 76/277 53/278 60/279
f 53/280 54/281 58/282
f 58/283 54/284 56/285
f 77/286 78/287 79/288
f 79/289 78/290 80/291
f 81/292 82/293 77/294
f 77/295 82/296 78/297
f 83/298 84/299 81/300
f 81/301 84/302 82/303
f 79/304 80/305 83/306
f 83/307 80/308 84/309
f 84/310 80/311 82/312
f 82/313 80/314 78/315
