# Exported from USD for MuJoCo with source material subsets
v 11.3804888 3.08771576 1.61055994
v 11.3804888 3.19771589 1.61055994
v 11.3769533 3.08771576 1.60702441
v 11.3769533 3.19771589 1.60702441
v 11.4653417 3.91271509 1.40549915
v 11.4582707 3.91271509 1.41257031
v 11.4794839 3.91271509 1.41964136
v 11.500697 3.91271509 1.48328088
v 11.4299864 3.91271509 1.41257031
v 11.3804888 3.91271509 1.60348889
v 11.3097782 3.91271509 1.5327782
v 11.3804888 4.16771521 1.61055994
v 11.3804888 4.27771534 1.61055994
v 11.3769533 4.16771521 1.60702441
v 11.3769533 4.27771534 1.60702441
v 11.3769533 3.44771542 1.60702441
v 11.500697 3.44771542 1.48328088
v 11.3804888 3.44771542 1.61055994
v 11.5042326 3.44771542 1.48681641
v 11.5052699 3.44771542 1.4853031
v 11.5056914 3.44771542 1.48351733
v 11.5054405 3.44771542 1.48169971
v 11.4842273 3.44771542 1.41806018
v 11.4794839 3.44771542 1.41964136
v 11.3875599 3.8177153 1.60348889
v 11.3168493 3.8177153 1.5327782
v 11.38756 3.90771498 1.60348889
v 11.3168493 3.90771498 1.5327782
v 11.4794839 4.16771521 1.41964136
v 11.4842273 4.16771521 1.41806018
v 11.500697 4.16771521 1.48328088
v 11.5054405 4.16771521 1.48169971
v 11.5056914 4.16771521 1.48351733
v 11.5052699 4.16771521 1.4853031
v 11.5042326 4.16771521 1.48681641
v 11.4320575 3.8177153 1.41757031
v 11.4320575 3.90771498 1.41757031
v 11.5056914 4.62771477 1.48351733
v 11.5052699 4.62771477 1.4853031
v 11.5054405 4.62771477 1.48169971
v 11.5042326 4.62771477 1.48681641
v 11.38756 4.62771477 1.60348889
v 11.4830193 4.62771477 1.43024792
v 11.4603417 4.62771477 1.41757031
v 11.4653417 4.62771477 1.41257031
v 11.4877627 4.62771477 1.42866675
v 11.4320575 4.62771477 1.41757031
v 11.3168493 4.62771477 1.5327782
v 11.4603417 3.90771498 1.41757031
v 11.4603417 3.8177153 1.41757031
v 11.4653417 3.8177153 1.41257031
v 11.4653417 3.90771498 1.41257031
v 11.4830193 3.90771498 1.43024792
v 11.3097782 3.81271519 1.5327782
v 11.4299864 3.81271519 1.41257031
v 11.3804888 3.81271519 1.60348889
v 11.500697 3.81271519 1.48328088
v 11.4582707 3.81271519 1.41257031
v 11.4794839 3.81271519 1.41964136
v 11.4653417 3.81271519 1.40549915
v 11.5056914 4.17771544 1.48351733
v 11.5054405 4.17771544 1.48169971
v 11.5052699 4.17771544 1.4853031
v 11.5042326 4.17771544 1.48681641
v 11.3875599 4.17771544 1.60348889
v 11.4830193 4.17771544 1.43024792
v 11.4603417 4.17771544 1.41757031
v 11.4653417 4.17771544 1.41257031
v 11.4877627 4.17771544 1.42866675
v 11.4320575 4.17771544 1.41757031
v 11.3168493 4.17771544 1.5327782
v 11.4830193 3.8177153 1.43024792
v 11.4877627 3.90771498 1.42866675
v 11.4877627 3.8177153 1.42866675
v 11.5056914 3.90771498 1.48351733
v 11.5052699 3.90771498 1.4853031
v 11.5054405 3.90771498 1.48169971
v 11.5042326 3.90771498 1.48681641
v 11.500697 3.80771507 1.48328088
v 11.3769533 3.80771507 1.60702441
v 11.3769533 3.91771521 1.60702441
v 11.500697 3.91771521 1.48328088
v 11.3769533 4.637715 1.60702441
v 11.3769533 4.52771486 1.60702441
v 11.3804888 4.637715 1.61055994
v 11.3804888 4.52771486 1.61055994
v 11.3875599 4.53771462 1.60348889
v 11.3168493 4.53771462 1.5327782
v 11.4794839 3.80771507 1.41964136
v 11.4842273 3.80771507 1.41806018
v 11.5054405 3.80771507 1.48169971
v 11.5056914 3.80771507 1.48351733
v 11.5052699 3.80771507 1.4853031
v 11.5042326 3.80771507 1.48681641
v 11.3804888 3.80771507 1.61055994
v 11.4653417 4.63271488 1.40549915
v 11.4582707 4.63271488 1.41257031
v 11.4794839 4.63271488 1.41964136
v 11.500697 4.63271488 1.48328088
v 11.4299864 4.63271488 1.41257031
v 11.3804888 4.63271488 1.60348889
v 11.3097782 4.63271488 1.5327782
v 11.4320575 4.53771462 1.41757031
v 11.4653417 4.53271498 1.40549915
v 11.4794839 4.53271498 1.41964136
v 11.4582707 4.53271498 1.41257031
v 11.500697 4.53271498 1.48328088
v 11.4299864 4.53271498 1.41257031
v 11.3804888 4.53271498 1.60348889
v 11.3097782 4.53271498 1.5327782
v 11.5056914 3.8177153 1.48351733
v 11.5054405 3.8177153 1.48169971
v 11.5052699 3.8177153 1.4853031
v 11.5042326 3.8177153 1.48681641
v 11.4603417 4.53771462 1.41757031
v 11.4794839 4.52771486 1.41964136
v 11.4842273 4.52771486 1.41806018
v 11.500697 4.52771486 1.48328088
v 11.5054405 4.52771486 1.48169971
v 11.5056914 4.52771486 1.48351733
v 11.5052699 4.52771486 1.4853031
v 11.5042326 4.52771486 1.48681641
v 11.5056914 3.45771517 1.48351733
v 11.5054405 3.45771517 1.48169971
v 11.5052699 3.45771517 1.4853031
v 11.5042326 3.45771517 1.48681641
v 11.3875599 3.45771517 1.60348889
v 11.4830193 3.45771517 1.43024792
v 11.4603417 3.45771517 1.41757031
v 11.4653417 3.45771517 1.41257031
v 11.4877627 3.45771517 1.42866675
v 11.4320575 3.45771517 1.41757031
v 11.3168493 3.45771517 1.5327782
v 11.4653417 4.53771462 1.41257031
v 11.4794839 3.45271505 1.41964136
v 11.4842273 3.55771507 1.41806018
v 11.4794839 3.55271544 1.41964136
v 11.4794839 3.55771507 1.41964136
v 11.3875599 4.26771511 1.60348889
v 11.3168493 4.26771511 1.5327782
v 11.4320575 4.26771511 1.41757031
v 11.4603417 4.26771511 1.41757031
v 11.500697 4.637715 1.48328088
v 11.4653417 4.26771511 1.41257031
v 11.4653417 3.45271505 1.40549915
v 11.4653417 3.55271544 1.40549915
v 11.4830193 4.26771511 1.43024792
v 11.3097782 4.17271532 1.5327782
v 11.4299864 4.17271532 1.41257031
v 11.3804888 4.17271532 1.60348889
v 11.500697 4.17271532 1.48328088
v 11.4582707 4.17271532 1.41257031
v 11.4794839 4.17271532 1.41964136
v 11.4653417 4.17271532 1.40549915
v 11.3097782 4.27271523 1.5327782
v 11.3804888 4.27271523 1.60348889
v 11.4794839 4.637715 1.41964136
v 11.4842273 4.637715 1.41806018
v 11.4877627 4.26771511 1.42866675
v 11.5056914 3.54771532 1.48351733
v 11.5052699 3.54771532 1.4853031
v 11.5054405 3.54771532 1.48169971
v 11.5042326 3.54771532 1.48681641
v 11.38756 3.54771532 1.60348889
v 11.4830193 3.54771532 1.43024792
v 11.4603417 3.54771532 1.41757031
v 11.4653417 3.54771532 1.41257031
v 11.4877627 3.54771532 1.42866675
v 11.4320575 3.54771532 1.41757031
v 11.3168493 3.54771532 1.5327782
v 11.4877627 4.53771462 1.42866675
v 11.4830193 4.53771462 1.43024792
v 11.4794839 4.27271523 1.41964136
v 11.4653417 4.27271523 1.40549915
v 11.4842273 4.27771534 1.41806018
v 11.4794839 4.27771534 1.41964136
v 11.4794839 3.91771521 1.41964136
v 11.4842273 3.91771521 1.41806018
v 11.4582707 3.45271505 1.41257031
v 11.500697 3.45271505 1.48328088
v 11.4299864 3.45271505 1.41257031
v 11.3804888 3.45271505 1.60348889
v 11.3097782 3.45271505 1.5327782
v 11.5056914 4.53771462 1.48351733
v 11.5054405 4.53771462 1.48169971
v 11.5052699 4.53771462 1.4853031
v 11.5042326 4.53771462 1.48681641
v 11.4299864 4.27271523 1.41257031
v 11.5054405 4.26771511 1.48169971
v 11.5042326 4.26771511 1.48681641
v 11.5052699 4.26771511 1.4853031
v 11.5056914 4.26771511 1.48351733
v 11.3769533 3.55771507 1.60702441
v 11.3804888 3.55771507 1.61055994
v 11.3804888 3.91771521 1.61055994
v 11.500697 4.27271523 1.48328088
v 11.500697 4.27771534 1.48328088
v 11.4582707 4.27271523 1.41257031
v 11.4582707 3.55271544 1.41257031
v 11.500697 3.55271544 1.48328088
v 11.4299864 3.55271544 1.41257031
v 11.3804888 3.55271544 1.60348889
v 11.3097782 3.55271544 1.5327782
v 11.500697 3.55771507 1.48328088
v 11.5052699 4.27771534 1.4853031
v 11.5042326 4.27771534 1.48681641
v 11.5054405 4.27771534 1.48169971
v 11.5056914 4.27771534 1.48351733
v 11.5042326 3.55771507 1.48681641
v 11.5052699 3.55771507 1.4853031
v 11.5056914 3.55771507 1.48351733
v 11.5054405 3.55771507 1.48169971
v 11.5054405 4.637715 1.48169971
v 11.5056914 4.637715 1.48351733
v 11.5052699 4.637715 1.4853031
v 11.5042326 4.637715 1.48681641
v 11.5054405 3.91771521 1.48169971
v 11.5056914 3.91771521 1.48351733
v 11.5052699 3.91771521 1.4853031
v 11.5042326 3.91771521 1.48681641
v 11.4794839 3.08771576 1.41964136
v 11.4842273 3.08771576 1.41806018
v 11.500697 3.08771576 1.48328088
v 11.5054405 3.08771576 1.48169971
v 11.5056914 3.08771576 1.48351733
v 11.5052699 3.08771576 1.4853031
v 11.5042326 3.08771576 1.48681641
v 11.5054405 3.09771599 1.48169971
v 11.5056914 3.09771599 1.48351733
v 11.5052699 3.09771599 1.4853031
v 11.5042326 3.09771599 1.48681641
v 11.4794839 3.19771589 1.41964136
v 11.4842273 3.19771589 1.41806018
v 11.4794839 3.19271578 1.41964136
v 11.4794839 3.09271587 1.41964136
v 11.500697 3.19271578 1.48328088
v 11.3804888 3.19271578 1.60348889
v 11.500697 3.19771589 1.48328088
v 11.3804888 3.09271587 1.60348889
v 11.500697 3.09271587 1.48328088
v 11.3097782 3.19271578 1.5327782
v 11.3097782 3.09271587 1.5327782
v 11.4299864 3.19271578 1.41257031
v 11.4299864 3.09271587 1.41257031
v 11.4582707 3.19271578 1.41257031
v 11.4653417 3.19271578 1.40549915
v 11.4582707 3.09271587 1.41257031
v 11.4653417 3.09271587 1.40549915
v 11.5054405 3.19771589 1.48169971
v 11.5056914 3.19771589 1.48351733
v 11.5054405 3.18771566 1.48169971
v 11.5056914 3.18771566 1.48351733
v 11.5052699 3.19771589 1.4853031
v 11.5052699 3.18771566 1.4853031
v 11.5042326 3.19771589 1.48681641
v 11.5042326 3.18771566 1.48681641
v 11.3875599 3.18771566 1.60348889
v 11.3875599 3.09771599 1.60348889
v 11.4877627 3.18771566 1.42866675
v 11.4877627 3.09771599 1.42866675
v 11.3168493 3.18771566 1.5327782
v 11.3168493 3.09771599 1.5327782
v 11.4320575 3.18771566 1.41757031
v 11.4320575 3.09771599 1.41757031
v 11.4603417 3.18771566 1.41757031
v 11.4603417 3.09771599 1.41757031
v 11.4830193 3.18771566 1.43024792
v 11.4653417 3.18771566 1.41257031
v 11.4830193 3.09771599 1.43024792
v 11.4653417 3.09771599 1.41257031
vt -0.839999974 0.396510988
vt -0.730000019 0.396510988
vt -0.839999974 0.400047004
vt -0.839999974 0.400047004
vt -0.730000019 0.396510988
vt -0.730000019 0.400047004
vt -1.40549898 0.311657995
vt -1.41257 0.318729013
vt -1.41964102 0.297515988
vt -1.41964102 0.297515988
vt -1.41257 0.318729013
vt -1.41257 0.318729013
vt -1.41964102 0.297515988
vt -1.41257 0.318729013
vt -1.48328102 0.276302993
vt -1.48328102 0.276302993
vt -1.41257 0.318729013
vt -1.41257 0.34701401
vt -1.48328102 0.276302993
vt -1.41257 0.34701401
vt -1.60348904 0.396510988
vt -1.60348904 0.396510988
vt -1.41257 0.34701401
vt -1.53277802 0.467222005
vt 0.239999995 0.396510988
vt 0.349999994 0.396510988
vt 0.239999995 0.400047004
vt 0.239999995 0.400047004
vt 0.349999994 0.396510988
vt 0.349999994 0.400047004
vt 1.60702395 0.400047004
vt 1.48328102 0.276302993
vt 1.61056006 0.396510988
vt -1.61056006 0.396510988
vt -1.48328102 0.276302993
vt -1.48328102 0.276302993
vt 1.61056006 0.396510988
vt 1.48328102 0.276302993
vt 1.48681605 0.272767007
vt -1.48681605 0.272767007
vt -1.48328102 0.276302993
vt -1.48328102 0.276302993
vt 1.48681605 0.272767007
vt 1.48328102 0.276302993
vt 1.48530304 0.271730006
vt -1.48530304 0.271730006
vt -1.48328102 0.276302993
vt -1.48328102 0.276302993
vt 1.48530304 0.271730006
vt 1.48328102 0.276302993
vt 1.48351705 0.271308988
vt -1.48351705 0.271308988
vt -1.48328102 0.276302993
vt -1.48328102 0.276302993
vt 1.48351705 0.271308988
vt 1.48328102 0.276302993
vt 1.48169994 0.271560013
vt -1.48169994 0.271560013
vt -1.48328102 0.276302993
vt -1.48328102 0.276302993
vt 1.48169994 0.271560013
vt 1.48328102 0.276302993
vt 1.41805995 0.292773008
vt 1.41805995 0.292773008
vt 1.48328102 0.276302993
vt 1.41964102 0.297515988
vt 0.109999999 0.38944
vt 0.109999999 0.460150987
vt 0.0199999996 0.38944
vt 0.0199999996 0.38944
vt 0.109999999 0.460150987
vt 0.0199999996 0.460150987
vt 1.41964102 0.297515988
vt 1.41805995 0.292773008
vt 1.48328102 0.276302993
vt 1.48328102 0.276302993
vt 1.41805995 0.292773008
vt 1.48169994 0.271560013
vt -1.48328102 0.276302993
vt -1.48169994 0.271560013
vt -1.48328102 0.276302993
vt 1.48328102 0.276302993
vt 1.48169994 0.271560013
vt 1.48351705 0.271308988
vt -1.48328102 0.276302993
vt -1.48351705 0.271308988
vt -1.48328102 0.276302993
vt 1.48328102 0.276302993
vt 1.48351705 0.271308988
vt 1.48530304 0.271730006
vt -1.48328102 0.276302993
vt -1.48530304 0.271730006
vt -1.48328102 0.276302993
vt 1.48328102 0.276302993
vt 1.48530304 0.271730006
vt 1.48681605 0.272767007
vt -1.48328102 0.276302993
vt -1.48681605 0.272767007
vt -1.48328102 0.276302993
vt 1.48328102 0.276302993
vt 1.48681605 0.272767007
vt 1.61056006 0.396510988
vt 1.48328102 0.276302993
vt 1.61056006 0.396510988
vt 1.60702395 0.400047004
vt -0.109999999 1.53277802
vt -0.109999999 1.41756999
vt -0.0199999996 1.53277802
vt -0.0199999996 1.53277802
vt -0.109999999 1.41756999
vt -0.0199999996 1.41756999
vt 1.48351705 0.271308988
vt 1.48530304 0.271730006
vt 1.48169994 0.271560013
vt 1.48169994 0.271560013
vt 1.48530304 0.271730006
vt 1.48681605 0.272767007
vt -1.48169994 0.271560013
vt -1.48681605 0.272767007
vt -1.48169994 0.271560013
vt 1.48169994 0.271560013
vt 1.48681605 0.272767007
vt 1.60348904 0.38944
vt 1.48169994 0.271560013
vt 1.60348904 0.38944
vt 1.43024802 0.293980986
vt 1.43024802 0.293980986
vt 1.60348904 0.38944
vt 1.41756999 0.31665799
vt 1.43024802 0.293980986
vt 1.41756999 0.31665799
vt 1.41257 0.311657995
vt 1.48169994 0.271560013
vt 1.43024802 0.293980986
vt 1.428666 0.289236993
vt 1.41756999 0.31665799
vt 1.60348904 0.38944
vt 1.41756999 0.344942987
vt 1.41756999 0.344942987
vt 1.60348904 0.38944
vt 1.53277802 0.460150987
vt -0.0199999996 0.31665799
vt -0.0199999996 0.344942987
vt -0.109999999 0.31665799
vt -0.109999999 0.31665799
vt -0.0199999996 0.344942987
vt -0.109999999 0.344942987
vt -0.109999999 0.31665799
vt -0.109999999 0.311657995
vt -0.0199999996 0.31665799
vt -0.0199999996 0.31665799
vt -0.109999999 0.311657995
vt -0.0199999996 0.311657995
vt 1.41257 0.311657995
vt 1.43024802 0.293980986
vt 1.41756999 0.31665799
vt 1.41756999 0.31665799
vt 1.43024802 0.293980986
vt 1.60348904 0.38944
vt 1.41756999 0.31665799
vt 1.60348904 0.38944
vt 1.41756999 0.344942987
vt 1.41756999 0.344942987
vt 1.60348904 0.38944
vt 1.53277802 0.460150987
vt 1.53277802 0.467222005
vt 1.41257 0.34701401
vt 1.60348904 0.396510988
vt -1.60348904 0.396510988
vt -1.41257 0.34701401
vt -1.41257 0.34701401
vt 1.60348904 0.396510988
vt 1.41257 0.34701401
vt 1.48328102 0.276302993
vt 1.48328102 0.276302993
vt 1.41257 0.34701401
vt 1.41257 0.318729013
vt 1.48328102 0.276302993
vt 1.41257 0.318729013
vt 1.41964102 0.297515988
vt 1.41964102 0.297515988
vt 1.41257 0.318729013
vt 1.40549898 0.311657995
vt -0.115000002 0.467222005
vt -0.115000002 0.396510988
vt -0.0149999997 0.467222005
vt -0.0149999997 0.467222005
vt -0.115000002 0.396510988
vt -0.0149999997 0.396510988
vt -1.48351705 0.271308988
vt -1.48169994 0.271560013
vt -1.48530304 0.271730006
vt -1.48530304 0.271730006
vt -1.48169994 0.271560013
vt -1.48169994 0.271560013
vt -1.48530304 0.271730006
vt -1.48169994 0.271560013
vt -1.48681605 0.272767007
vt -1.48681605 0.272767007
vt -1.48169994 0.271560013
vt -1.48169994 0.271560013
vt -1.48681605 0.272767007
vt -1.48169994 0.271560013
vt -1.60348904 0.38944
vt -1.60348904 0.38944
vt -1.48169994 0.271560013
vt -1.43024802 0.293980986
vt -1.60348904 0.38944
vt -1.43024802 0.293980986
vt -1.41756999 0.31665799
vt -1.41756999 0.31665799
vt -1.43024802 0.293980986
vt -1.41257 0.311657995
vt -1.48169994 0.271560013
vt -1.428666 0.289236993
vt -1.43024802 0.293980986
vt -1.41756999 0.31665799
vt -1.41756999 0.344942987
vt -1.60348904 0.38944
vt -1.60348904 0.38944
vt -1.41756999 0.344942987
vt -1.53277802 0.460150987
vt -0.0199999996 0.293980986
vt -0.109999999 0.293980986
vt -0.0199999996 0.289236993
vt -0.0199999996 0.289236993
vt -0.109999999 0.293980986
vt -0.109999999 0.289236993
vt 1.48351705 0.271308988
vt 1.48530304 0.271730006
vt 1.48169994 0.271560013
vt 1.48169994 0.271560013
vt 1.48530304 0.271730006
vt 1.48681605 0.272767007
vt -1.48169994 0.271560013
vt -1.48681605 0.272767007
vt -1.48169994 0.271560013
vt 1.48169994 0.271560013
vt 1.48681605 0.272767007
vt 1.60348904 0.38944
vt -1.48169994 0.271560013
vt -1.60348904 0.38944
vt -1.48169994 0.271560013
vt 1.48169994 0.271560013
vt 1.60348904 0.38944
vt 1.43024802 0.293980986
vt 1.48169994 0.271560013
vt 1.43024802 0.293980986
vt 1.428666 0.289236993
vt 0.115000002 0.311657995
vt 0.0149999997 0.311657995
vt 0.115000002 0.297515988
vt 0.115000002 0.297515988
vt 0.0149999997 0.311657995
vt 0.0149999997 0.297515988
vt 0.115000002 0.276302993
vt 0.119999997 0.276302993
vt 0.115000002 0.396510988
vt 0.115000002 0.396510988
vt 0.119999997 0.276302993
vt 0.119999997 0.400047004
vt -1.60348904 0.396510988
vt -1.60702395 0.400047004
vt -1.60348904 0.396510988
vt 0.115000002 1.60348904
vt 0.119999997 1.60702395
vt 0.00999999978 1.60702395
vt 0.115000002 1.60348904
vt 0.00999999978 1.60702395
vt 0.0149999997 1.60348904
vt 0.0149999997 1.60348904
vt 0.00999999978 1.60702395
vt 0.00999999978 1.48328102
vt 0.0149999997 0.396510988
vt 0.00999999978 0.276302993
vt 0.0149999997 0.276302993
vt 0.709999979 0.400047004
vt 0.600000024 0.400047004
vt 0.709999979 0.396510988
vt 0.709999979 0.396510988
vt 0.600000024 0.400047004
vt 0.600000024 0.396510988
vt -0.610000014 0.38944
vt -0.610000014 0.460150987
vt -0.699999988 0.38944
vt -0.699999988 0.38944
vt -0.610000014 0.460150987
vt -0.699999988 0.460150987
vt 1.41964102 0.297515988
vt 1.41805995 0.292773008
vt 1.48328102 0.276302993
vt 1.48328102 0.276302993
vt 1.41805995 0.292773008
vt 1.48169994 0.271560013
vt -1.48328102 0.276302993
vt -1.48169994 0.271560013
vt -1.48328102 0.276302993
vt 1.48328102 0.276302993
vt 1.48169994 0.271560013
vt 1.48351705 0.271308988
vt -1.48328102 0.276302993
vt -1.48351705 0.271308988
vt -1.48328102 0.276302993
vt 1.48328102 0.276302993
vt 1.48351705 0.271308988
vt 1.48530304 0.271730006
vt -1.48328102 0.276302993
vt -1.48530304 0.271730006
vt -1.48328102 0.276302993
vt 1.48328102 0.276302993
vt 1.48530304 0.271730006
vt 1.48681605 0.272767007
vt -1.48328102 0.276302993
vt -1.48681605 0.272767007
vt -1.48328102 0.276302993
vt 1.48328102 0.276302993
vt 1.48681605 0.272767007
vt 1.61056006 0.396510988
vt 1.48328102 0.276302993
vt 1.61056006 0.396510988
vt 1.60702395 0.400047004
vt -1.40549898 0.311657995
vt -1.41257 0.318729013
vt -1.41964102 0.297515988
vt -1.41964102 0.297515988
vt -1.41257 0.318729013
vt -1.41257 0.318729013
vt -1.41964102 0.297515988
vt -1.41257 0.318729013
vt -1.48328102 0.276302993
vt -1.48328102 0.276302993
vt -1.41257 0.318729013
vt -1.41257 0.34701401
vt -1.48328102 0.276302993
vt -1.41257 0.34701401
vt -1.60348904 0.396510988
vt -1.60348904 0.396510988
vt -1.41257 0.34701401
vt -1.53277802 0.467222005
vt 0.610000014 1.53277802
vt 0.610000014 1.41756999
vt 0.699999988 1.53277802
vt 0.699999988 1.53277802
vt 0.610000014 1.41756999
vt 0.699999988 1.41756999
vt 1.40549898 0.311657995
vt 1.41964102 0.297515988
vt 1.41257 0.318729013
vt 1.41257 0.318729013
vt 1.41964102 0.297515988
vt 1.48328102 0.276302993
vt 1.41257 0.318729013
vt 1.48328102 0.276302993
vt 1.41257 0.34701401
vt 1.41257 0.34701401
vt 1.48328102 0.276302993
vt 1.60348904 0.396510988
vt 1.41257 0.34701401
vt 1.60348904 0.396510988
vt 1.53277802 0.467222005
vt -1.48351705 0.271308988
vt -1.48169994 0.271560013
vt -1.48530304 0.271730006
vt -1.48530304 0.271730006
vt -1.48169994 0.271560013
vt -1.48169994 0.271560013
vt -1.48530304 0.271730006
vt -1.48169994 0.271560013
vt -1.48681605 0.272767007
vt -1.48681605 0.272767007
vt -1.48169994 0.271560013
vt -1.48169994 0.271560013
vt -1.48681605 0.272767007
vt -1.48169994 0.271560013
vt -1.60348904 0.38944
vt -1.60348904 0.38944
vt -1.48169994 0.271560013
vt -1.43024802 0.293980986
vt -1.60348904 0.38944
vt -1.43024802 0.293980986
vt -1.41756999 0.31665799
vt -1.41756999 0.31665799
vt -1.43024802 0.293980986
vt -1.41257 0.311657995
vt -1.48169994 0.271560013
vt -1.428666 0.289236993
vt -1.43024802 0.293980986
vt -1.41756999 0.31665799
vt -1.41756999 0.344942987
vt -1.60348904 0.38944
vt -1.60348904 0.38944
vt -1.41756999 0.344942987
vt -1.53277802 0.460150987
vt 0.699999988 0.31665799
vt 0.699999988 0.344942987
vt 0.610000014 0.31665799
vt 0.610000014 0.31665799
vt 0.699999988 0.344942987
vt 0.610000014 0.344942987
vt 1.41964102 0.297515988
vt 1.41805995 0.292773008
vt 1.48328102 0.276302993
vt 1.48328102 0.276302993
vt 1.41805995 0.292773008
vt 1.48169994 0.271560013
vt -1.48328102 0.276302993
vt -1.48169994 0.271560013
vt -1.48328102 0.276302993
vt 1.48328102 0.276302993
vt 1.48169994 0.271560013
vt 1.48351705 0.271308988
vt -1.48328102 0.276302993
vt -1.48351705 0.271308988
vt -1.48328102 0.276302993
vt 1.48328102 0.276302993
vt 1.48351705 0.271308988
vt 1.48530304 0.271730006
vt -1.48328102 0.276302993
vt -1.48530304 0.271730006
vt -1.48328102 0.276302993
vt 1.48328102 0.276302993
vt 1.48530304 0.271730006
vt 1.48681605 0.272767007
vt -1.48328102 0.276302993
vt -1.48681605 0.272767007
vt -1.48328102 0.276302993
vt 1.48328102 0.276302993
vt 1.48681605 0.272767007
vt 1.61056006 0.396510988
vt 1.48328102 0.276302993
vt 1.61056006 0.396510988
vt 1.60702395 0.400047004
vt -1.48351705 0.271308988
vt -1.48169994 0.271560013
vt -1.48530304 0.271730006
vt -1.48530304 0.271730006
vt -1.48169994 0.271560013
vt -1.48169994 0.271560013
vt -1.48530304 0.271730006
vt -1.48169994 0.271560013
vt -1.48681605 0.272767007
vt -1.48681605 0.272767007
vt -1.48169994 0.271560013
vt -1.48169994 0.271560013
vt -1.48681605 0.272767007
vt -1.48169994 0.271560013
vt -1.60348904 0.38944
vt -1.60348904 0.38944
vt -1.48169994 0.271560013
vt -1.43024802 0.293980986
vt -1.60348904 0.38944
vt -1.43024802 0.293980986
vt -1.41756999 0.31665799
vt -1.41756999 0.31665799
vt -1.43024802 0.293980986
vt -1.41257 0.311657995
vt -1.48169994 0.271560013
vt -1.428666 0.289236993
vt -1.43024802 0.293980986
vt -1.41756999 0.31665799
vt -1.41756999 0.344942987
vt -1.60348904 0.38944
vt -1.60348904 0.38944
vt -1.41756999 0.344942987
vt -1.53277802 0.460150987
vt 0.610000014 0.31665799
vt 0.610000014 0.311657995
vt 0.699999988 0.31665799
vt 0.699999988 1.41756999
vt 0.610000014 1.41257
vt 0.699999988 1.41257
vt 0.479999989 0.297515988
vt 0.474999994 0.297515988
vt 0.479999989 0.292773008
vt -1.41805995 0.292773008
vt -1.41964102 0.297515988
vt -1.41964102 0.297515988
vt 0.479999989 0.292773008
vt 0.474999994 0.297515988
vt 0.370000005 0.292773008
vt 0.370000005 0.292773008
vt 0.474999994 0.297515988
vt 0.375 0.297515988
vt 0.370000005 0.292773008
vt 0.375 0.297515988
vt 0.370000005 0.297515988
vt -0.25 0.38944
vt -0.25 0.460150987
vt -0.340000004 0.38944
vt -0.340000004 0.38944
vt -0.25 0.460150987
vt -0.340000004 0.460150987
vt 0.25 1.53277802
vt 0.25 1.41756999
vt 0.340000004 1.53277802
vt 0.340000004 1.53277802
vt 0.25 1.41756999
vt 0.340000004 1.41756999
vt 0.340000004 0.31665799
vt 0.340000004 0.344942987
vt 0.25 0.31665799
vt 0.25 0.31665799
vt 0.340000004 0.344942987
vt 0.25 0.344942987
vt -0.605000019 0.276302993
vt -0.600000024 0.276302993
vt -0.605000019 0.396510988
vt -0.605000019 1.60348904
vt -0.600000024 1.48328102
vt -0.600000024 1.60702395
vt -1.60348904 0.396510988
vt -1.60702395 0.400047004
vt -1.60348904 0.396510988
vt -0.605000019 1.60348904
vt -0.600000024 1.60702395
vt -0.709999979 1.60702395
vt -0.605000019 1.60348904
vt -0.709999979 1.60702395
vt -0.704999983 1.60348904
vt -0.704999983 1.60348904
vt -0.709999979 1.60702395
vt -0.709999979 1.48328102
vt -0.704999983 0.396510988
vt -0.709999979 0.276302993
vt -0.704999983 0.276302993
vt 0.25 0.31665799
vt 0.25 0.311657995
vt 0.340000004 0.31665799
vt 0.340000004 0.31665799
vt 0.25 0.311657995
vt 0.340000004 0.311657995
vt 0.474999994 0.311657995
vt 0.375 0.311657995
vt 0.474999994 0.297515988
vt 0.474999994 0.297515988
vt 0.375 0.311657995
vt 0.375 0.297515988
vt 1.41257 0.311657995
vt 1.43024802 0.293980986
vt 1.41756999 0.31665799
vt 1.41756999 0.31665799
vt 1.43024802 0.293980986
vt 1.60348904 0.38944
vt 1.41756999 0.31665799
vt 1.60348904 0.38944
vt 1.41756999 0.344942987
vt 1.41756999 0.344942987
vt 1.60348904 0.38944
vt 1.53277802 0.460150987
vt 1.53277802 0.467222005
vt 1.41257 0.34701401
vt 1.60348904 0.396510988
vt -1.60348904 0.396510988
vt -1.41257 0.34701401
vt -1.41257 0.34701401
vt 1.60348904 0.396510988
vt 1.41257 0.34701401
vt 1.48328102 0.276302993
vt 1.48328102 0.276302993
vt 1.41257 0.34701401
vt 1.41257 0.318729013
vt 1.48328102 0.276302993
vt 1.41257 0.318729013
vt 1.41964102 0.297515988
vt 1.41964102 0.297515988
vt 1.41257 0.318729013
vt 1.40549898 0.311657995
vt 0.245000005 0.467222005
vt 0.245000005 0.396510988
vt 0.344999999 0.467222005
vt 0.344999999 0.467222005
vt 0.245000005 0.396510988
vt 0.344999999 0.396510988
vt -0.709999979 0.297515988
vt -0.709999979 0.292773008
vt -0.704999983 0.297515988
vt -1.41964102 0.297515988
vt -1.41805995 0.292773008
vt -1.41805995 0.292773008
vt -0.704999983 0.297515988
vt -0.709999979 0.292773008
vt -0.605000019 0.297515988
vt -0.605000019 0.297515988
vt -0.709999979 0.292773008
vt -0.600000024 0.292773008
vt -0.605000019 0.297515988
vt -0.600000024 0.292773008
vt -0.600000024 0.297515988
vt 0.340000004 0.293980986
vt 0.25 0.293980986
vt 0.340000004 0.289236993
vt 0.340000004 0.289236993
vt 0.25 0.293980986
vt 0.25 0.289236993
vt -0.605000019 1.41257
vt -0.605000019 1.53277802
vt -0.704999983 1.41257
vt -0.704999983 0.34701401
vt -0.605000019 0.467222005
vt -0.704999983 0.467222005
vt 1.48351705 0.271308988
vt 1.48530304 0.271730006
vt 1.48169994 0.271560013
vt 1.48169994 0.271560013
vt 1.48530304 0.271730006
vt 1.48681605 0.272767007
vt -1.48169994 0.271560013
vt -1.48681605 0.272767007
vt -1.48169994 0.271560013
vt 1.48169994 0.271560013
vt 1.48681605 0.272767007
vt 1.60348904 0.38944
vt 1.48169994 0.271560013
vt 1.60348904 0.38944
vt 1.43024802 0.293980986
vt 1.43024802 0.293980986
vt 1.60348904 0.38944
vt 1.41756999 0.31665799
vt 1.43024802 0.293980986
vt 1.41756999 0.31665799
vt 1.41257 0.311657995
vt 1.48169994 0.271560013
vt 1.43024802 0.293980986
vt 1.428666 0.289236993
vt 1.41756999 0.31665799
vt 1.60348904 0.38944
vt 1.41756999 0.344942987
vt 1.41756999 0.344942987
vt 1.60348904 0.38944
vt 1.53277802 0.460150987
vt 0.610000014 0.289236993
vt 0.699999988 0.289236993
vt 0.610000014 0.293980986
vt 0.610000014 0.293980986
vt 0.699999988 0.289236993
vt 0.699999988 0.293980986
vt -0.344999999 0.297515988
vt -0.245000005 0.297515988
vt -0.344999999 0.311657995
vt -0.344999999 0.311657995
vt -0.245000005 0.297515988
vt -0.245000005 0.311657995
vt -0.239999995 0.297515988
vt -0.245000005 0.297515988
vt -0.239999995 0.292773008
vt -1.41805995 0.292773008
vt -1.41964102 0.297515988
vt -1.41964102 0.297515988
vt -0.239999995 0.292773008
vt -0.245000005 0.297515988
vt -0.349999994 0.292773008
vt -0.349999994 0.292773008
vt -0.245000005 0.297515988
vt -0.344999999 0.297515988
vt -0.349999994 0.292773008
vt -0.344999999 0.297515988
vt -0.349999994 0.297515988
vt 0.109999999 1.41257
vt 0.109999999 1.43024802
vt 0.0199999996 1.41257
vt 0.0199999996 1.41257
vt 0.109999999 1.43024802
vt 0.0199999996 1.43024802
vt 0.0149999997 0.467222005
vt 0.0149999997 0.34701401
vt 0.115000002 0.467222005
vt 0.115000002 1.53277802
vt 0.0149999997 1.41257
vt 0.115000002 1.41257
vt 0.00999999978 0.297515988
vt 0.00999999978 0.292773008
vt 0.0149999997 0.297515988
vt -1.41964102 0.297515988
vt -1.41805995 0.292773008
vt -1.41805995 0.292773008
vt 0.0149999997 0.297515988
vt 0.00999999978 0.292773008
vt 0.115000002 0.297515988
vt 0.115000002 0.297515988
vt 0.00999999978 0.292773008
vt 0.119999997 0.292773008
vt 0.115000002 0.297515988
vt 0.119999997 0.292773008
vt 0.119999997 0.297515988
vt -0.704999983 0.297515988
vt -0.605000019 0.297515988
vt -0.704999983 0.311657995
vt -0.704999983 0.311657995
vt -0.605000019 0.297515988
vt -0.605000019 0.311657995
vt -1.53277802 0.460150987
vt -1.60348904 0.38944
vt -1.41756999 0.344942987
vt -1.41756999 0.344942987
vt -1.60348904 0.38944
vt -1.60348904 0.38944
vt -1.41756999 0.344942987
vt -1.60348904 0.38944
vt -1.41756999 0.31665799
vt -1.41756999 0.31665799
vt -1.60348904 0.38944
vt -1.43024802 0.293980986
vt -1.41756999 0.31665799
vt -1.43024802 0.293980986
vt -1.41257 0.311657995
vt -0.610000014 1.41257
vt -0.610000014 1.43024802
vt -0.699999988 1.41257
vt -0.699999988 1.41257
vt -0.610000014 1.43024802
vt -0.699999988 1.43024802
vt 1.40549898 0.311657995
vt 1.41964102 0.297515988
vt 1.41257 0.318729013
vt 1.41257 0.318729013
vt 1.41964102 0.297515988
vt 1.48328102 0.276302993
vt 1.41257 0.318729013
vt 1.48328102 0.276302993
vt 1.41257 0.34701401
vt 1.41257 0.34701401
vt 1.48328102 0.276302993
vt 1.60348904 0.396510988
vt 1.41257 0.34701401
vt 1.60348904 0.396510988
vt 1.53277802 0.467222005
vt -1.48351705 0.271308988
vt -1.48169994 0.271560013
vt -1.48530304 0.271730006
vt -1.48530304 0.271730006
vt -1.48169994 0.271560013
vt -1.48169994 0.271560013
vt -1.48530304 0.271730006
vt -1.48169994 0.271560013
vt -1.48681605 0.272767007
vt -1.48681605 0.272767007
vt -1.48169994 0.271560013
vt -1.48169994 0.271560013
vt -1.48681605 0.272767007
vt -1.48169994 0.271560013
vt -1.60348904 0.38944
vt -1.60348904 0.38944
vt -1.48169994 0.271560013
vt -1.48169994 0.271560013
vt -1.60348904 0.38944
vt -1.48169994 0.271560013
vt -1.43024802 0.293980986
vt -1.43024802 0.293980986
vt -1.48169994 0.271560013
vt -1.428666 0.289236993
vt -0.25 1.41257
vt -0.25 1.43024802
vt -0.340000004 1.41257
vt -0.340000004 1.41257
vt -0.25 1.43024802
vt -0.340000004 1.43024802
vt -0.344999999 1.53277802
vt -0.344999999 1.41257
vt -0.245000005 1.53277802
vt -0.245000005 1.53277802
vt -0.344999999 1.41257
vt -0.245000005 1.41257
vt 1.428666 0.289236993
vt 1.48169994 0.271560013
vt 1.43024802 0.293980986
vt -1.43024802 0.293980986
vt -1.48169994 0.271560013
vt -1.48169994 0.271560013
vt 1.43024802 0.293980986
vt 1.48169994 0.271560013
vt 1.60348904 0.38944
vt -1.60348904 0.38944
vt -1.48169994 0.271560013
vt -1.48169994 0.271560013
vt 1.60348904 0.38944
vt 1.48169994 0.271560013
vt 1.48681605 0.272767007
vt -1.48681605 0.272767007
vt -1.48169994 0.271560013
vt -1.48169994 0.271560013
vt 1.48681605 0.272767007
vt 1.48169994 0.271560013
vt 1.48530304 0.271730006
vt 1.48530304 0.271730006
vt 1.48169994 0.271560013
vt 1.48351705 0.271308988
vt 0.704999983 0.396510988
vt 0.704999983 0.467222005
vt 0.605000019 0.396510988
vt 0.605000019 0.396510988
vt 0.704999983 0.467222005
vt 0.605000019 0.467222005
vt -0.370000005 0.400047004
vt -0.479999989 0.400047004
vt -0.370000005 0.396510988
vt -0.370000005 0.396510988
vt -0.479999989 0.400047004
vt -0.479999989 0.396510988
vt -0.119999997 0.396510988
vt -0.00999999978 0.396510988
vt -0.119999997 0.400047004
vt -0.119999997 0.400047004
vt -0.00999999978 0.396510988
vt -0.00999999978 0.400047004
vt -0.605000019 0.318729013
vt -0.605000019 0.34701401
vt -0.704999983 0.318729013
vt -0.704999983 0.318729013
vt -0.605000019 0.34701401
vt -0.704999983 0.34701401
vt -0.344999999 0.276302993
vt -0.344999999 0.396510988
vt -0.349999994 0.276302993
vt -1.48328102 0.276302993
vt -1.60348904 0.396510988
vt -1.60348904 0.396510988
vt -0.349999994 1.48328102
vt -0.344999999 1.60348904
vt -0.349999994 1.60702395
vt -0.349999994 1.60702395
vt -0.344999999 1.60348904
vt -0.245000005 1.60348904
vt -0.349999994 1.60702395
vt -0.245000005 1.60348904
vt -0.239999995 1.60702395
vt -1.60702395 0.400047004
vt -1.60348904 0.396510988
vt -1.60348904 0.396510988
vt -0.239999995 1.60702395
vt -0.245000005 1.60348904
vt -0.239999995 1.48328102
vt -0.239999995 0.276302993
vt -0.245000005 0.396510988
vt -0.245000005 0.276302993
vt -1.40549898 0.311657995
vt -1.41257 0.318729013
vt -1.41964102 0.297515988
vt -1.41964102 0.297515988
vt -1.41257 0.318729013
vt -1.41257 0.318729013
vt -1.41964102 0.297515988
vt -1.41257 0.318729013
vt -1.48328102 0.276302993
vt -1.48328102 0.276302993
vt -1.41257 0.318729013
vt -1.41257 0.34701401
vt -1.48328102 0.276302993
vt -1.41257 0.34701401
vt -1.60348904 0.396510988
vt -1.60348904 0.396510988
vt -1.41257 0.34701401
vt -1.53277802 0.467222005
vt -1.40549898 0.311657995
vt -1.41257 0.318729013
vt -1.41964102 0.297515988
vt -1.41964102 0.297515988
vt -1.41257 0.318729013
vt -1.41257 0.318729013
vt -1.41964102 0.297515988
vt -1.41257 0.318729013
vt -1.48328102 0.276302993
vt -1.48328102 0.276302993
vt -1.41257 0.318729013
vt -1.41257 0.34701401
vt -1.48328102 0.276302993
vt -1.41257 0.34701401
vt -1.60348904 0.396510988
vt -1.60348904 0.396510988
vt -1.41257 0.34701401
vt -1.53277802 0.467222005
vt 0.469999999 0.38944
vt 0.469999999 0.460150987
vt 0.379999995 0.38944
vt 0.379999995 0.38944
vt 0.469999999 0.460150987
vt 0.379999995 0.460150987
vt -0.469999999 0.289236993
vt -0.379999995 0.289236993
vt -0.469999999 0.293980986
vt -0.469999999 0.293980986
vt -0.379999995 0.289236993
vt -0.379999995 0.293980986
vt 0.375 0.276302993
vt 0.375 0.396510988
vt 0.370000005 0.276302993
vt -1.48328102 0.276302993
vt -1.60348904 0.396510988
vt -1.60348904 0.396510988
vt 0.370000005 1.48328102
vt 0.375 1.60348904
vt 0.370000005 1.60702395
vt 0.370000005 1.60702395
vt 0.375 1.60348904
vt 0.474999994 1.60348904
vt 0.370000005 1.60702395
vt 0.474999994 1.60348904
vt 0.479999989 1.60702395
vt -1.60702395 0.400047004
vt -1.60348904 0.396510988
vt -1.60348904 0.396510988
vt 0.479999989 1.60702395
vt 0.474999994 1.60348904
vt 0.479999989 1.48328102
vt 0.479999989 0.276302993
vt 0.474999994 0.396510988
vt 0.474999994 0.276302993
vt -0.375 0.396510988
vt -0.375 0.467222005
vt -0.474999994 0.396510988
vt -0.474999994 0.396510988
vt -0.375 0.467222005
vt -0.474999994 0.467222005
vt 0.375 0.467222005
vt 0.375 0.34701401
vt 0.474999994 0.467222005
vt 0.474999994 1.53277802
vt 0.375 1.41257
vt 0.474999994 1.41257
vt 0.379999995 1.43024802
vt 0.379999995 1.41257
vt 0.469999999 1.43024802
vt 0.469999999 1.43024802
vt 0.379999995 1.41257
vt 0.469999999 1.41257
vt -0.379999995 1.41257
vt -0.379999995 1.41756999
vt -0.469999999 1.41257
vt -0.469999999 0.311657995
vt -0.379999995 0.31665799
vt -0.469999999 0.31665799
vt -0.379999995 0.31665799
vt -0.379999995 0.344942987
vt -0.469999999 0.31665799
vt -0.469999999 0.31665799
vt -0.379999995 0.344942987
vt -0.469999999 0.344942987
vt -0.379999995 1.41756999
vt -0.379999995 1.53277802
vt -0.469999999 1.41756999
vt -0.469999999 1.41756999
vt -0.379999995 1.53277802
vt -0.469999999 1.53277802
vt 0.340000004 1.48351705
vt 0.349999994 1.48530304
vt 0.340000004 1.48530304
vt 0.340000004 1.48530304
vt 0.349999994 1.48530304
vt 0.349999994 1.48681605
vt 0.340000004 1.48530304
vt 0.349999994 1.48681605
vt 0.340000004 1.48681605
vt -1.48681605 0.272767007
vt -1.48681605 0.272767007
vt -1.48681605 0.272767007
vt 0.340000004 0.272767007
vt 0.349999994 0.272767007
vt 0.340000004 0.38944
vt 0.340000004 1.60348904
vt 0.349999994 1.48681605
vt 0.349999994 1.61056006
vt 0.340000004 1.60348904
vt 0.349999994 1.61056006
vt 0.25 1.60348904
vt 0.25 1.60348904
vt 0.349999994 1.61056006
vt 0.239999995 1.61056006
vt -1.60348904 0.38944
vt -1.61056006 0.396510988
vt -1.60348904 0.38944
vt 0.25 1.60348904
vt 0.239999995 1.61056006
vt 0.239999995 1.48681605
vt 0.25 0.38944
vt 0.239999995 0.272767007
vt 0.25 0.272767007
vt 0.25 1.48681605
vt 0.239999995 1.48681605
vt 0.239999995 1.48530304
vt 0.25 1.48681605
vt 0.239999995 1.48530304
vt 0.25 1.48530304
vt 0.25 1.48530304
vt 0.239999995 1.48530304
vt 0.239999995 1.48351705
vt 0.25 1.48530304
vt 0.239999995 1.48351705
vt 0.25 1.48351705
vt 0.25 1.48351705
vt 0.239999995 1.48351705
vt 0.239999995 1.48169994
vt 0.25 1.48351705
vt 0.239999995 1.48169994
vt 0.25 1.48169994
vt -1.48169994 0.271560013
vt -1.48169994 0.271560013
vt -1.48169994 0.271560013
vt 0.25 1.48169994
vt 0.239999995 1.48169994
vt 0.25 1.428666
vt 0.25 1.428666
vt 0.239999995 1.48169994
vt 0.239999995 1.41805995
vt -1.428666 0.289236993
vt -1.41805995 0.292773008
vt -1.428666 0.289236993
vt 0.25 1.428666
vt 0.239999995 1.41805995
vt 0.349999994 1.41805995
vt 0.25 1.428666
vt 0.349999994 1.41805995
vt 0.340000004 1.428666
vt 0.340000004 1.428666
vt 0.349999994 1.41805995
vt 0.349999994 1.48169994
vt 0.340000004 1.428666
vt 0.349999994 1.48169994
vt 0.340000004 1.48169994
vt 0.340000004 1.48169994
vt 0.349999994 1.48169994
vt 0.349999994 1.48351705
vt 0.340000004 1.48169994
vt 0.349999994 1.48351705
vt 0.340000004 1.48351705
vt 0.340000004 1.48351705
vt 0.349999994 1.48351705
vt 0.349999994 1.48530304
vt -0.469999999 1.428666
vt -0.469999999 1.48169994
vt -0.479999989 1.48169994
vt -0.479999989 1.48169994
vt -0.469999999 1.48169994
vt -0.469999999 1.48351705
vt -0.479999989 1.48169994
vt -0.469999999 1.48351705
vt -0.479999989 1.48351705
vt -0.479999989 1.48351705
vt -0.469999999 1.48351705
vt -0.469999999 1.48530304
vt -0.479999989 1.48351705
vt -0.469999999 1.48530304
vt -0.479999989 1.48530304
vt -0.479999989 1.48530304
vt -0.469999999 1.48530304
vt -0.469999999 1.48681605
vt -0.479999989 1.48530304
vt -0.469999999 1.48681605
vt -0.479999989 1.48681605
vt -0.479999989 0.272767007
vt -0.469999999 0.272767007
vt -0.469999999 0.38944
vt -0.479999989 1.48681605
vt -0.469999999 1.60348904
vt -0.479999989 1.61056006
vt -1.61056006 0.396510988
vt -1.60348904 0.38944
vt -1.60348904 0.38944
vt -0.479999989 1.61056006
vt -0.469999999 1.60348904
vt -0.370000005 1.61056006
vt -0.370000005 1.61056006
vt -0.469999999 1.60348904
vt -0.379999995 1.60348904
vt -0.370000005 1.61056006
vt -0.379999995 1.60348904
vt -0.370000005 1.48681605
vt -0.370000005 0.272767007
vt -0.379999995 0.38944
vt -0.379999995 0.272767007
vt -1.48681605 0.272767007
vt -1.48681605 0.272767007
vt -1.48681605 0.272767007
vt -0.370000005 1.48681605
vt -0.379999995 1.48681605
vt -0.379999995 1.48530304
vt -0.370000005 1.48681605
vt -0.379999995 1.48530304
vt -0.370000005 1.48530304
vt -0.370000005 1.48530304
vt -0.379999995 1.48530304
vt -0.379999995 1.48351705
vt -0.370000005 1.48530304
vt -0.379999995 1.48351705
vt -0.370000005 1.48351705
vt -0.370000005 1.48351705
vt -0.379999995 1.48351705
vt -0.379999995 1.48169994
vt -0.370000005 1.48351705
vt -0.379999995 1.48169994
vt -0.370000005 1.48169994
vt -0.370000005 1.48169994
vt -0.379999995 1.48169994
vt -0.379999995 1.428666
vt -0.370000005 1.48169994
vt -0.379999995 1.428666
vt -0.370000005 1.41805995
vt -0.370000005 1.41805995
vt -0.379999995 1.428666
vt -0.469999999 1.428666
vt -0.370000005 1.41805995
vt -0.469999999 1.428666
vt -0.479999989 1.41805995
vt -0.479999989 1.41805995
vt -0.469999999 1.428666
vt -0.479999989 1.48169994
vt 0.709999979 1.61056006
vt 0.600000024 1.61056006
vt 0.610000014 1.60348904
vt 0.610000014 1.60348904
vt 0.600000024 1.61056006
vt 0.600000024 1.48681605
vt 0.610000014 0.38944
vt 0.600000024 0.272767007
vt 0.610000014 0.272767007
vt 0.610000014 1.48681605
vt 0.600000024 1.48681605
vt 0.600000024 1.48530304
vt 0.610000014 1.48681605
vt 0.600000024 1.48530304
vt 0.610000014 1.48530304
vt 0.610000014 1.48530304
vt 0.600000024 1.48530304
vt 0.600000024 1.48351705
vt 0.610000014 1.48530304
vt 0.600000024 1.48351705
vt 0.610000014 1.48351705
vt 0.610000014 1.48351705
vt 0.600000024 1.48351705
vt 0.600000024 1.48169994
vt 0.610000014 1.48351705
vt 0.600000024 1.48169994
vt 0.610000014 1.48169994
vt -1.48169994 0.271560013
vt -1.48169994 0.271560013
vt -1.48169994 0.271560013
vt 0.610000014 1.48169994
vt 0.600000024 1.48169994
vt 0.610000014 1.428666
vt 0.610000014 1.428666
vt 0.600000024 1.48169994
vt 0.600000024 1.41805995
vt -1.428666 0.289236993
vt -1.41805995 0.292773008
vt -1.428666 0.289236993
vt 0.610000014 1.428666
vt 0.600000024 1.41805995
vt 0.709999979 1.41805995
vt 0.610000014 1.428666
vt 0.709999979 1.41805995
vt 0.699999988 1.428666
vt 0.699999988 1.428666
vt 0.709999979 1.41805995
vt 0.709999979 1.48169994
vt 0.699999988 1.428666
vt 0.709999979 1.48169994
vt 0.699999988 1.48169994
vt 0.699999988 1.48169994
vt 0.709999979 1.48169994
vt 0.709999979 1.48351705
vt 0.699999988 1.48169994
vt 0.709999979 1.48351705
vt 0.699999988 1.48351705
vt 0.699999988 1.48351705
vt 0.709999979 1.48351705
vt 0.709999979 1.48530304
vt 0.699999988 1.48351705
vt 0.709999979 1.48530304
vt 0.699999988 1.48530304
vt 0.699999988 1.48530304
vt 0.709999979 1.48530304
vt 0.709999979 1.48681605
vt 0.699999988 1.48530304
vt 0.709999979 1.48681605
vt 0.699999988 1.48681605
vt -1.48681605 0.272767007
vt -1.48681605 0.272767007
vt -1.48681605 0.272767007
vt 0.699999988 0.272767007
vt 0.709999979 0.272767007
vt 0.699999988 0.38944
vt 0.699999988 0.38944
vt 0.709999979 0.272767007
vt 0.709999979 0.396510988
vt 0.699999988 1.60348904
vt 0.709999979 1.61056006
vt 0.610000014 1.60348904
vt -0.109999999 1.48530304
vt -0.119999997 1.48351705
vt -0.109999999 1.48351705
vt -0.109999999 1.48351705
vt -0.119999997 1.48351705
vt -0.119999997 1.48169994
vt -0.109999999 1.48351705
vt -0.119999997 1.48169994
vt -0.109999999 1.48169994
vt -1.48169994 0.271560013
vt -1.48169994 0.271560013
vt -1.48169994 0.271560013
vt -0.109999999 1.48169994
vt -0.119999997 1.48169994
vt -0.109999999 1.428666
vt -0.109999999 1.428666
vt -0.119999997 1.48169994
vt -0.119999997 1.41805995
vt -1.428666 0.289236993
vt -1.41805995 0.292773008
vt -1.428666 0.289236993
vt -0.109999999 1.428666
vt -0.119999997 1.41805995
vt -0.00999999978 1.41805995
vt -0.109999999 1.428666
vt -0.00999999978 1.41805995
vt -0.0199999996 1.428666
vt -0.0199999996 1.428666
vt -0.00999999978 1.41805995
vt -0.00999999978 1.48169994
vt -0.0199999996 1.428666
vt -0.00999999978 1.48169994
vt -0.0199999996 1.48169994
vt -0.0199999996 1.48169994
vt -0.00999999978 1.48169994
vt -0.00999999978 1.48351705
vt -0.0199999996 1.48169994
vt -0.00999999978 1.48351705
vt -0.0199999996 1.48351705
vt -0.0199999996 1.48351705
vt -0.00999999978 1.48351705
vt -0.00999999978 1.48530304
vt -0.0199999996 1.48351705
vt -0.00999999978 1.48530304
vt -0.0199999996 1.48530304
vt -0.0199999996 1.48530304
vt -0.00999999978 1.48530304
vt -0.00999999978 1.48681605
vt -0.0199999996 1.48530304
vt -0.00999999978 1.48681605
vt -0.0199999996 1.48681605
vt -1.48681605 0.272767007
vt -1.48681605 0.272767007
vt -1.48681605 0.272767007
vt -0.0199999996 0.272767007
vt -0.00999999978 0.272767007
vt -0.0199999996 0.38944
vt -0.0199999996 1.60348904
vt -0.00999999978 1.48681605
vt -0.00999999978 1.61056006
vt -0.0199999996 1.60348904
vt -0.00999999978 1.61056006
vt -0.109999999 1.60348904
vt -0.109999999 1.60348904
vt -0.00999999978 1.61056006
vt -0.119999997 1.61056006
vt -1.60348904 0.38944
vt -1.61056006 0.396510988
vt -1.60348904 0.38944
vt -0.109999999 1.60348904
vt -0.119999997 1.61056006
vt -0.119999997 1.48681605
vt -0.109999999 0.38944
vt -0.119999997 0.272767007
vt -0.109999999 0.272767007
vt -0.109999999 1.48681605
vt -0.119999997 1.48681605
vt -0.119999997 1.48530304
vt -0.109999999 1.48681605
vt -0.119999997 1.48530304
vt -0.109999999 1.48530304
vt -0.109999999 1.48530304
vt -0.119999997 1.48530304
vt -0.119999997 1.48351705
vt 1.41964102 0.297515988
vt 1.41805995 0.292773008
vt 1.48328102 0.276302993
vt 1.48328102 0.276302993
vt 1.41805995 0.292773008
vt 1.48169994 0.271560013
vt -1.48328102 0.276302993
vt -1.48169994 0.271560013
vt -1.48328102 0.276302993
vt 1.48328102 0.276302993
vt 1.48169994 0.271560013
vt 1.48351705 0.271308988
vt -1.48328102 0.276302993
vt -1.48351705 0.271308988
vt -1.48328102 0.276302993
vt 1.48328102 0.276302993
vt 1.48351705 0.271308988
vt 1.48530304 0.271730006
vt -1.48328102 0.276302993
vt -1.48530304 0.271730006
vt -1.48328102 0.276302993
vt 1.48328102 0.276302993
vt 1.48530304 0.271730006
vt 1.48681605 0.272767007
vt -1.48328102 0.276302993
vt -1.48681605 0.272767007
vt -1.48328102 0.276302993
vt 1.48328102 0.276302993
vt 1.48681605 0.272767007
vt 1.61056006 0.396510988
vt 1.48328102 0.276302993
vt 1.61056006 0.396510988
vt 1.60702395 0.400047004
vt -0.829999983 1.48169994
vt -0.829999983 1.48351705
vt -0.839999974 1.48169994
vt -1.48169994 0.271560013
vt -1.48351705 0.271308988
vt -1.48351705 0.271308988
vt -0.839999974 1.48169994
vt -0.829999983 1.48351705
vt -0.839999974 1.48351705
vt -0.839999974 1.48351705
vt -0.829999983 1.48351705
vt -0.829999983 1.48530304
vt -0.839999974 1.48351705
vt -0.829999983 1.48530304
vt -0.839999974 1.48530304
vt -0.839999974 1.48530304
vt -0.829999983 1.48530304
vt -0.829999983 1.48681605
vt -0.839999974 1.48530304
vt -0.829999983 1.48681605
vt -0.839999974 1.48681605
vt 0.730000019 0.297515988
vt 0.730000019 0.292773008
vt 0.735000014 0.297515988
vt -1.41964102 0.297515988
vt -1.41805995 0.292773008
vt -1.41805995 0.292773008
vt 0.735000014 0.297515988
vt 0.730000019 0.292773008
vt 0.834999979 0.297515988
vt 0.834999979 0.297515988
vt 0.730000019 0.292773008
vt 0.839999974 0.292773008
vt 0.834999979 0.297515988
vt 0.839999974 0.292773008
vt 0.839999974 0.297515988
vt 0.735000014 0.276302993
vt 0.735000014 0.396510988
vt 0.730000019 0.276302993
vt -1.48328102 0.276302993
vt -1.60348904 0.396510988
vt -1.60348904 0.396510988
vt 0.730000019 1.48328102
vt 0.735000014 1.60348904
vt 0.730000019 1.60702395
vt 0.730000019 1.60702395
vt 0.735000014 1.60348904
vt 0.834999979 1.60348904
vt 0.730000019 1.60702395
vt 0.834999979 1.60348904
vt 0.839999974 1.60702395
vt -1.60702395 0.400047004
vt -1.60348904 0.396510988
vt -1.60348904 0.396510988
vt 0.839999974 1.60702395
vt 0.834999979 1.60348904
vt 0.839999974 1.48328102
vt 0.839999974 0.276302993
vt 0.834999979 0.396510988
vt 0.834999979 0.276302993
vt -0.735000014 0.396510988
vt -0.735000014 0.467222005
vt -0.834999979 0.396510988
vt -0.834999979 0.396510988
vt -0.735000014 0.467222005
vt -0.834999979 0.467222005
vt 0.735000014 0.467222005
vt 0.735000014 0.34701401
vt 0.834999979 0.467222005
vt 0.834999979 1.53277802
vt 0.735000014 1.41257
vt 0.834999979 1.41257
vt -1.53277802 0.467222005
vt -1.60348904 0.396510988
vt -1.41257 0.34701401
vt -1.41257 0.34701401
vt -1.60348904 0.396510988
vt -1.48328102 0.276302993
vt -1.41257 0.34701401
vt -1.48328102 0.276302993
vt -1.41257 0.318729013
vt -1.41257 0.318729013
vt -1.48328102 0.276302993
vt -1.41964102 0.297515988
vt -1.41257 0.318729013
vt -1.41964102 0.297515988
vt -1.40549898 0.311657995
vt 1.53277802 0.467222005
vt 1.41257 0.34701401
vt 1.60348904 0.396510988
vt -1.60348904 0.396510988
vt -1.41257 0.34701401
vt -1.41257 0.34701401
vt 1.60348904 0.396510988
vt 1.41257 0.34701401
vt 1.48328102 0.276302993
vt 1.48328102 0.276302993
vt 1.41257 0.34701401
vt 1.41257 0.318729013
vt 1.48328102 0.276302993
vt 1.41257 0.318729013
vt 1.41964102 0.297515988
vt 1.41964102 0.297515988
vt 1.41257 0.318729013
vt 1.40549898 0.311657995
vt 0.735000014 0.34701401
vt 0.735000014 0.318729013
vt 0.834999979 0.34701401
vt 0.834999979 0.34701401
vt 0.735000014 0.318729013
vt 0.834999979 0.318729013
vt 0.834999979 0.311657995
vt 0.735000014 0.311657995
vt 0.834999979 0.297515988
vt 0.834999979 0.297515988
vt 0.735000014 0.311657995
vt 0.735000014 0.297515988
vt -0.730000019 1.48169994
vt -0.730000019 1.48351705
vt -0.74000001 1.48169994
vt -1.48169994 0.271560013
vt -1.48351705 0.271308988
vt -1.48351705 0.271308988
vt -0.74000001 1.48169994
vt -0.730000019 1.48351705
vt -0.74000001 1.48351705
vt -0.74000001 1.48351705
vt -0.730000019 1.48351705
vt -0.730000019 1.48530304
vt -0.74000001 1.48351705
vt -0.730000019 1.48530304
vt -0.74000001 1.48530304
vt -0.74000001 1.48530304
vt -0.730000019 1.48530304
vt -0.730000019 1.48681605
vt -0.74000001 1.48530304
vt -0.730000019 1.48681605
vt -0.74000001 1.48681605
vt -0.74000001 0.272767007
vt -0.730000019 0.272767007
vt -0.74000001 0.38944
vt -0.74000001 1.60348904
vt -0.730000019 1.48681605
vt -0.730000019 1.61056006
vt -0.74000001 1.60348904
vt -0.730000019 1.61056006
vt -0.829999983 1.60348904
vt -0.829999983 1.60348904
vt -0.730000019 1.61056006
vt -0.839999974 1.61056006
vt -1.60348904 0.38944
vt -1.61056006 0.396510988
vt -1.60348904 0.38944
vt -0.829999983 1.60348904
vt -0.839999974 1.61056006
vt -0.839999974 1.48681605
vt -0.829999983 0.38944
vt -0.839999974 0.272767007
vt -0.829999983 0.272767007
vt -0.74000001 1.48169994
vt -0.74000001 1.428666
vt -0.730000019 1.48169994
vt -1.48169994 0.271560013
vt -1.428666 0.289236993
vt -1.428666 0.289236993
vt -0.730000019 1.48169994
vt -0.74000001 1.428666
vt -0.730000019 1.41805995
vt -0.730000019 1.41805995
vt -0.74000001 1.428666
vt -0.829999983 1.428666
vt -0.730000019 1.41805995
vt -0.829999983 1.428666
vt -0.839999974 1.41805995
vt -1.41805995 0.292773008
vt -1.428666 0.289236993
vt -1.428666 0.289236993
vt -0.839999974 1.41805995
vt -0.829999983 1.428666
vt -0.839999974 1.48169994
vt -0.839999974 1.48169994
vt -0.829999983 1.428666
vt -0.829999983 1.48169994
vt 0.74000001 0.460150987
vt 0.74000001 0.38944
vt 0.829999983 0.460150987
vt 0.829999983 0.460150987
vt 0.74000001 0.38944
vt 0.829999983 0.38944
vt -0.74000001 1.41756999
vt -0.74000001 1.53277802
vt -0.829999983 1.41756999
vt -0.829999983 1.41756999
vt -0.74000001 1.53277802
vt -0.829999983 1.53277802
vt -0.74000001 0.31665799
vt -0.74000001 0.344942987
vt -0.829999983 0.31665799
vt -0.829999983 0.31665799
vt -0.74000001 0.344942987
vt -0.829999983 0.344942987
vt 1.428666 0.289236993
vt 1.48169994 0.271560013
vt 1.43024802 0.293980986
vt 1.43024802 0.293980986
vt 1.48169994 0.271560013
vt 1.60348904 0.38944
vt 1.43024802 0.293980986
vt 1.60348904 0.38944
vt 1.41756999 0.31665799
vt -1.41756999 0.31665799
vt -1.60348904 0.38944
vt -1.60348904 0.38944
vt 1.41756999 0.31665799
vt 1.60348904 0.38944
vt 1.41756999 0.344942987
vt 1.41756999 0.344942987
vt 1.60348904 0.38944
vt 1.53277802 0.460150987
vt 1.43024802 0.293980986
vt 1.41756999 0.31665799
vt 1.41257 0.311657995
vt 1.60348904 0.38944
vt 1.48169994 0.271560013
vt 1.48681605 0.272767007
vt -1.48681605 0.272767007
vt -1.48169994 0.271560013
vt -1.48169994 0.271560013
vt 1.48681605 0.272767007
vt 1.48169994 0.271560013
vt 1.48530304 0.271730006
vt 1.48530304 0.271730006
vt 1.48169994 0.271560013
vt 1.48351705 0.271308988
vt -1.428666 0.289236993
vt -1.43024802 0.293980986
vt -1.48169994 0.271560013
vt -1.48169994 0.271560013
vt -1.43024802 0.293980986
vt -1.60348904 0.38944
vt -1.48169994 0.271560013
vt -1.60348904 0.38944
vt -1.48169994 0.271560013
vt -1.48169994 0.271560013
vt -1.60348904 0.38944
vt -1.48681605 0.272767007
vt -1.48169994 0.271560013
vt -1.48681605 0.272767007
vt -1.48169994 0.271560013
vt -1.48169994 0.271560013
vt -1.48681605 0.272767007
vt -1.48530304 0.271730006
vt -1.48169994 0.271560013
vt -1.48530304 0.271730006
vt -1.48351705 0.271308988
vt -1.53277802 0.460150987
vt -1.60348904 0.38944
vt -1.41756999 0.344942987
vt -1.41756999 0.344942987
vt -1.60348904 0.38944
vt -1.60348904 0.38944
vt -1.41756999 0.344942987
vt -1.60348904 0.38944
vt -1.41756999 0.31665799
vt -1.41756999 0.31665799
vt -1.60348904 0.38944
vt -1.43024802 0.293980986
vt -1.41756999 0.31665799
vt -1.43024802 0.293980986
vt -1.41257 0.311657995
vt -0.74000001 0.311657995
vt -0.74000001 0.31665799
vt -0.829999983 0.311657995
vt -0.829999983 0.311657995
vt -0.74000001 0.31665799
vt -0.829999983 0.31665799
vt 0.74000001 1.43024802
vt 0.74000001 1.41257
vt 0.829999983 1.43024802
vt 0.829999983 1.43024802
vt 0.74000001 1.41257
vt 0.829999983 1.41257
vt -0.74000001 0.293980986
vt -0.829999983 0.293980986
vt -0.74000001 0.289236993
vt -0.74000001 0.289236993
vt -0.829999983 0.293980986
vt -0.829999983 0.289236993
f 1/1 2/2 3/3
f 3/4 2/5 4/6
f 5/7 6/8 7/9
f 7/10 6/11 6/12
f 7/13 6/14 8/15
f 8/16 6/17 9/18
f 8/19 9/20 10/21
f 10/22 9/23 11/24
f 12/25 13/26 14/27
f 14/28 13/29 15/30
f 16/31 17/32 18/33
f 18/34 17/35 17/36
f 18/37 17/38 19/39
f 19/40 17/41 17/42
f 19/43 17/44 20/45
f 20/46 17/47 17/48
f 20/49 17/50 21/51
f 21/52 17/53 17/54
f 21/55 17/56 22/57
f 22/58 17/59 17/60
f 22/61 17/62 23/63
f 23/64 17/65 24/66
f 25/67 26/68 27/69
f 27/70 26/71 28/72
f 29/73 30/74 31/75
f 31/76 30/77 32/78
f 31/79 32/80 31/81
f 31/82 32/83 33/84
f 31/85 33/86 31/87
f 31/88 33/89 34/90
f 31/91 34/92 31/93
f 31/94 34/95 35/96
f 31/97 35/98 31/99
f 31/100 35/101 12/102
f 31/103 12/104 14/105
f 26/106 36/107 28/108
f 28/109 36/110 37/111
f 38/112 39/113 40/114
f 40/115 39/116 41/117
f 40/118 41/119 40/120
f 40/121 41/122 42/123
f 40/124 42/125 43/126
f 43/127 42/128 44/129
f 43/130 44/131 45/132
f 40/133 43/134 46/135
f 44/136 42/137 47/138
f 47/139 42/140 48/141
f 49/142 37/143 50/144
f 50/145 37/146 36/147
f 50/148 51/149 49/150
f 49/151 51/152 52/153
f 52/154 53/155 49/156
f 49/157 53/158 27/159
f 49/160 27/161 37/162
f 37/163 27/164 28/165
f 54/166 55/167 56/168
f 56/169 55/170 55/171
f 56/172 55/173 57/174
f 57/175 55/176 58/177
f 57/178 58/179 59/180
f 59/181 58/182 60/183
f 54/184 56/185 11/186
f 11/187 56/188 10/189
f 61/190 62/191 63/192
f 63/193 62/194 62/195
f 63/196 62/197 64/198
f 64/199 62/200 62/201
f 64/202 62/203 65/204
f 65/205 62/206 66/207
f 65/208 66/209 67/210
f 67/211 66/212 68/213
f 62/214 69/215 66/216
f 67/217 70/218 65/219
f 65/220 70/221 71/222
f 53/223 72/224 73/225
f 73/226 72/227 74/228
f 75/229 76/230 77/231
f 77/232 76/233 78/234
f 77/235 78/236 77/237
f 77/238 78/239 27/240
f 77/241 27/242 77/243
f 77/244 27/245 53/246
f 77/247 53/248 73/249
f 60/250 5/251 59/252
f 59/253 5/254 7/255
f 57/256 79/257 56/258
f 56/259 79/260 80/261
f 56/262 80/263 56/264
f 56/265 80/266 81/267
f 56/268 81/269 10/270
f 10/271 81/272 82/273
f 10/274 82/275 8/276
f 83/277 84/278 85/279
f 85/280 84/281 86/282
f 87/283 88/284 42/285
f 42/286 88/287 48/288
f 89/289 90/290 79/291
f 79/292 90/293 91/294
f 79/295 91/296 79/297
f 79/298 91/299 92/300
f 79/301 92/302 79/303
f 79/304 92/305 93/306
f 79/307 93/308 79/309
f 79/310 93/311 94/312
f 79/313 94/314 79/315
f 79/316 94/317 95/318
f 79/319 95/320 80/321
f 96/322 97/323 98/324
f 98/325 97/326 97/327
f 98/328 97/329 99/330
f 99/331 97/332 100/333
f 99/334 100/335 101/336
f 101/337 100/338 102/339
f 88/340 103/341 48/342
f 48/343 103/344 47/345
f 104/346 105/347 106/348
f 106/349 105/350 107/351
f 106/352 107/353 108/354
f 108/355 107/356 109/357
f 108/358 109/359 110/360
f 111/361 112/362 113/363
f 113/364 112/365 112/366
f 113/367 112/368 114/369
f 114/370 112/371 112/372
f 114/373 112/374 25/375
f 25/376 112/377 72/378
f 25/379 72/380 50/381
f 50/382 72/383 51/384
f 112/385 74/386 72/387
f 50/388 36/389 25/390
f 25/391 36/392 26/393
f 44/394 47/395 115/396
f 115/397 47/398 103/399
f 116/400 117/401 118/402
f 118/403 117/404 119/405
f 118/406 119/407 118/408
f 118/409 119/410 120/411
f 118/412 120/413 118/414
f 118/415 120/416 121/417
f 118/418 121/419 118/420
f 118/421 121/422 122/423
f 118/424 122/425 118/426
f 118/427 122/428 86/429
f 118/430 86/431 84/432
f 123/433 124/434 125/435
f 125/436 124/437 124/438
f 125/439 124/440 126/441
f 126/442 124/443 124/444
f 126/445 124/446 127/447
f 127/448 124/449 128/450
f 127/451 128/452 129/453
f 129/454 128/455 130/456
f 124/457 131/458 128/459
f 129/460 132/461 127/462
f 127/463 132/464 133/465
f 115/466 134/467 44/468
f 44/469 134/470 45/471
f 24/472 135/473 23/474
f 23/475 135/476 135/477
f 23/478 135/479 136/480
f 136/481 135/482 137/483
f 136/484 137/485 138/486
f 65/487 71/488 139/489
f 139/490 71/491 140/492
f 71/493 70/494 140/495
f 140/496 70/497 141/498
f 142/499 141/500 67/501
f 67/502 141/503 70/504
f 107/505 118/506 109/507
f 109/508 118/509 84/510
f 109/511 84/512 109/513
f 109/514 84/515 83/516
f 109/517 83/518 101/519
f 101/520 83/521 143/522
f 101/523 143/524 99/525
f 67/526 68/527 142/528
f 142/529 68/530 144/531
f 145/532 146/533 135/534
f 135/535 146/536 137/537
f 144/538 147/539 142/540
f 142/541 147/542 139/543
f 142/544 139/545 141/546
f 141/547 139/548 140/549
f 148/550 149/551 150/552
f 150/553 149/554 149/555
f 150/556 149/557 151/558
f 151/559 149/560 152/561
f 151/562 152/563 153/564
f 153/565 152/566 154/567
f 148/568 150/569 155/570
f 155/571 150/572 156/573
f 157/574 158/575 98/576
f 98/577 158/578 158/579
f 98/580 158/581 105/582
f 105/583 158/584 117/585
f 105/586 117/587 116/588
f 147/589 66/590 159/591
f 159/592 66/593 69/594
f 108/595 110/596 100/597
f 100/598 110/599 102/600
f 160/601 161/602 162/603
f 162/604 161/605 163/606
f 162/607 163/608 162/609
f 162/610 163/611 164/612
f 162/613 164/614 165/615
f 165/616 164/617 166/618
f 165/619 166/620 167/621
f 162/622 165/623 168/624
f 166/625 164/626 169/627
f 169/628 164/629 170/630
f 171/631 46/632 172/633
f 172/634 46/635 43/636
f 173/637 153/638 174/639
f 174/640 153/641 154/642
f 29/643 153/644 30/645
f 30/646 153/647 153/648
f 30/649 153/650 175/651
f 175/652 153/653 173/654
f 175/655 173/656 176/657
f 51/658 72/659 52/660
f 52/661 72/662 53/663
f 11/664 9/665 54/666
f 54/667 9/668 55/669
f 177/670 178/671 7/672
f 7/673 178/674 178/675
f 7/676 178/677 59/678
f 59/679 178/680 90/681
f 59/682 90/683 89/684
f 98/685 105/686 96/687
f 96/688 105/689 104/690
f 88/691 87/692 103/693
f 103/694 87/695 87/696
f 103/697 87/698 115/699
f 115/700 87/701 172/702
f 115/703 172/704 134/705
f 134/706 172/707 45/708
f 45/709 172/710 43/711
f 145/712 135/713 179/714
f 179/715 135/716 180/717
f 179/718 180/719 181/720
f 181/721 180/722 182/723
f 181/724 182/725 183/726
f 184/727 185/728 186/729
f 186/730 185/731 185/732
f 186/733 185/734 187/735
f 187/736 185/737 185/738
f 187/739 185/740 87/741
f 87/742 185/743 185/744
f 87/745 185/746 172/747
f 172/748 185/749 171/750
f 68/751 66/752 144/753
f 144/754 66/755 147/756
f 155/757 188/758 148/759
f 148/760 188/761 149/762
f 159/763 189/764 147/765
f 147/766 189/767 189/768
f 147/769 189/770 139/771
f 139/772 189/773 189/774
f 139/775 189/776 190/777
f 190/778 189/779 189/780
f 190/781 189/782 191/783
f 191/784 189/785 192/786
f 101/787 102/788 109/789
f 109/790 102/791 110/792
f 193/793 16/794 194/795
f 194/796 16/797 18/798
f 95/799 195/800 80/801
f 80/802 195/803 81/804
f 106/805 108/806 97/807
f 97/808 108/809 100/810
f 196/811 156/812 197/813
f 197/814 156/815 156/816
f 197/817 156/818 15/819
f 15/820 156/821 150/822
f 15/823 150/824 14/825
f 14/826 150/827 150/828
f 14/829 150/830 31/831
f 31/832 150/833 151/834
f 174/835 198/836 173/837
f 173/838 198/839 198/840
f 173/841 198/842 196/843
f 196/844 198/845 188/846
f 196/847 188/848 156/849
f 156/850 188/851 155/852
f 146/853 199/854 137/855
f 137/856 199/857 199/858
f 137/859 199/860 200/861
f 200/862 199/863 201/864
f 200/865 201/866 202/867
f 202/868 201/869 203/870
f 127/871 133/872 164/873
f 164/874 133/875 170/876
f 131/877 168/878 128/879
f 128/880 168/881 165/882
f 200/883 202/884 204/885
f 204/886 202/887 202/888
f 204/889 202/890 193/891
f 193/892 202/893 182/894
f 193/895 182/896 16/897
f 16/898 182/899 182/900
f 16/901 182/902 17/903
f 17/904 182/905 180/906
f 202/907 203/908 182/909
f 182/910 203/911 183/912
f 203/913 201/914 183/915
f 183/916 201/917 181/918
f 165/919 167/920 128/921
f 128/922 167/923 130/924
f 167/925 166/926 130/927
f 130/928 166/929 129/930
f 166/931 169/932 129/933
f 129/934 169/935 132/936
f 169/937 170/938 132/939
f 132/940 170/941 133/942
f 192/943 205/944 191/945
f 191/946 205/947 206/948
f 191/949 206/950 190/951
f 190/952 206/953 206/954
f 190/955 206/956 139/957
f 139/958 206/959 13/960
f 139/961 13/962 65/963
f 65/964 13/965 12/966
f 65/967 12/968 65/969
f 65/970 12/971 35/972
f 65/973 35/974 64/975
f 64/976 35/977 34/978
f 64/979 34/980 63/981
f 63/982 34/983 33/984
f 63/985 33/986 61/987
f 61/988 33/989 32/990
f 61/991 32/992 62/993
f 62/994 32/995 32/996
f 62/997 32/998 69/999
f 69/1000 32/1001 30/1002
f 69/1003 30/1004 69/1005
f 69/1006 30/1007 175/1008
f 69/1009 175/1010 159/1011
f 159/1012 175/1013 207/1014
f 159/1015 207/1016 189/1017
f 189/1018 207/1019 208/1020
f 189/1021 208/1022 192/1023
f 192/1024 208/1025 205/1026
f 131/1027 124/1028 22/1029
f 22/1030 124/1031 123/1032
f 22/1033 123/1034 21/1035
f 21/1036 123/1037 125/1038
f 21/1039 125/1040 20/1041
f 20/1042 125/1043 126/1044
f 20/1045 126/1046 19/1047
f 19/1048 126/1049 127/1050
f 19/1051 127/1052 18/1053
f 18/1054 127/1055 127/1056
f 18/1057 127/1058 194/1059
f 194/1060 127/1061 164/1062
f 194/1063 164/1064 209/1065
f 209/1066 164/1067 163/1068
f 209/1069 163/1070 209/1071
f 209/1072 163/1073 161/1074
f 209/1075 161/1076 210/1077
f 210/1078 161/1079 160/1080
f 210/1081 160/1082 211/1083
f 211/1084 160/1085 162/1086
f 211/1087 162/1088 212/1089
f 212/1090 162/1091 168/1092
f 212/1093 168/1094 136/1095
f 136/1096 168/1097 131/1098
f 136/1099 131/1100 23/1101
f 23/1102 131/1103 22/1104
f 85/1105 86/1106 87/1107
f 87/1108 86/1109 122/1110
f 87/1111 122/1112 187/1113
f 187/1114 122/1115 121/1116
f 187/1117 121/1118 186/1119
f 186/1120 121/1121 120/1122
f 186/1123 120/1124 184/1125
f 184/1126 120/1127 119/1128
f 184/1129 119/1130 185/1131
f 185/1132 119/1133 119/1134
f 185/1135 119/1136 171/1137
f 171/1138 119/1139 117/1140
f 171/1141 117/1142 171/1143
f 171/1144 117/1145 158/1146
f 171/1147 158/1148 46/1149
f 46/1150 158/1151 213/1152
f 46/1153 213/1154 40/1155
f 40/1156 213/1157 214/1158
f 40/1159 214/1160 38/1161
f 38/1162 214/1163 215/1164
f 38/1165 215/1166 39/1167
f 39/1168 215/1169 216/1170
f 39/1171 216/1172 41/1173
f 41/1174 216/1175 216/1176
f 41/1177 216/1178 42/1179
f 42/1180 216/1181 85/1182
f 42/1183 85/1184 87/1185
f 113/1186 92/1187 111/1188
f 111/1189 92/1190 91/1191
f 111/1192 91/1193 112/1194
f 112/1195 91/1196 91/1197
f 112/1198 91/1199 74/1200
f 74/1201 91/1202 90/1203
f 74/1204 90/1205 74/1206
f 74/1207 90/1208 178/1209
f 74/1210 178/1211 73/1212
f 73/1213 178/1214 217/1215
f 73/1216 217/1217 77/1218
f 77/1219 217/1220 218/1221
f 77/1222 218/1223 75/1224
f 75/1225 218/1226 219/1227
f 75/1228 219/1229 76/1230
f 76/1231 219/1232 220/1233
f 76/1234 220/1235 78/1236
f 78/1237 220/1238 220/1239
f 78/1240 220/1241 27/1242
f 27/1243 220/1244 195/1245
f 27/1246 195/1247 25/1248
f 25/1249 195/1250 95/1251
f 25/1252 95/1253 25/1254
f 25/1255 95/1256 94/1257
f 25/1258 94/1259 114/1260
f 114/1261 94/1262 93/1263
f 114/1264 93/1265 113/1266
f 113/1267 93/1268 92/1269
f 221/1270 222/1271 223/1272
f 223/1273 222/1274 224/1275
f 223/1276 224/1277 223/1278
f 223/1279 224/1280 225/1281
f 223/1282 225/1283 223/1284
f 223/1285 225/1286 226/1287
f 223/1288 226/1289 223/1290
f 223/1291 226/1292 227/1293
f 223/1294 227/1295 223/1296
f 223/1297 227/1298 1/1299
f 223/1300 1/1301 3/1302
f 228/1303 229/1304 224/1305
f 224/1306 229/1307 229/1308
f 224/1309 229/1310 225/1311
f 225/1312 229/1313 230/1314
f 225/1315 230/1316 226/1317
f 226/1318 230/1319 231/1320
f 226/1321 231/1322 227/1323
f 232/1324 233/1325 234/1326
f 234/1327 233/1328 233/1329
f 234/1330 233/1331 235/1332
f 235/1333 233/1334 222/1335
f 235/1336 222/1337 221/1338
f 236/1339 237/1340 238/1341
f 238/1342 237/1343 237/1344
f 238/1345 237/1346 4/1347
f 4/1348 237/1349 239/1350
f 4/1351 239/1352 3/1353
f 3/1354 239/1355 239/1356
f 3/1357 239/1358 223/1359
f 223/1360 239/1361 240/1362
f 237/1363 241/1364 239/1365
f 239/1366 241/1367 242/1368
f 241/1369 243/1370 242/1371
f 242/1372 243/1373 244/1374
f 241/1375 237/1376 243/1377
f 243/1378 237/1379 236/1380
f 243/1381 236/1382 245/1383
f 245/1384 236/1385 234/1386
f 245/1387 234/1388 246/1389
f 242/1390 244/1391 239/1392
f 239/1393 244/1394 244/1395
f 239/1396 244/1397 240/1398
f 240/1399 244/1400 247/1401
f 240/1402 247/1403 235/1404
f 235/1405 247/1406 248/1407
f 243/1408 245/1409 244/1410
f 244/1411 245/1412 247/1413
f 248/1414 246/1415 235/1416
f 235/1417 246/1418 234/1419
f 249/1420 250/1421 251/1422
f 251/1423 250/1424 250/1425
f 251/1426 250/1427 252/1428
f 252/1429 250/1430 253/1431
f 252/1432 253/1433 254/1434
f 254/1435 253/1436 255/1437
f 254/1438 255/1439 256/1440
f 256/1441 255/1442 257/1443
f 257/1444 255/1445 2/1446
f 257/1447 2/1448 258/1449
f 258/1450 2/1451 1/1452
f 258/1453 1/1454 258/1455
f 258/1456 1/1457 227/1458
f 258/1459 227/1460 231/1461
f 251/1462 259/1463 249/1464
f 249/1465 259/1466 259/1467
f 249/1468 259/1469 233/1470
f 233/1471 259/1472 260/1473
f 233/1474 260/1475 222/1476
f 222/1477 260/1478 260/1479
f 222/1480 260/1481 224/1482
f 224/1483 260/1484 228/1485
f 261/1486 257/1487 262/1488
f 262/1489 257/1490 258/1491
f 263/1492 261/1493 264/1494
f 264/1495 261/1496 262/1497
f 265/1498 263/1499 266/1500
f 266/1501 263/1502 264/1503
f 259/1504 251/1505 267/1506
f 267/1507 251/1508 257/1509
f 267/1510 257/1511 265/1512
f 265/1513 257/1514 257/1515
f 265/1516 257/1517 263/1518
f 263/1519 257/1520 261/1521
f 267/1522 265/1523 268/1524
f 257/1525 251/1526 256/1527
f 256/1528 251/1529 251/1530
f 256/1531 251/1532 254/1533
f 254/1534 251/1535 252/1536
f 260/1537 269/1538 228/1539
f 228/1540 269/1541 258/1542
f 228/1543 258/1544 228/1545
f 228/1546 258/1547 231/1548
f 228/1549 231/1550 228/1551
f 228/1552 231/1553 230/1554
f 228/1555 230/1556 229/1557
f 262/1558 258/1559 264/1560
f 264/1561 258/1562 258/1563
f 264/1564 258/1565 266/1566
f 266/1567 258/1568 269/1569
f 266/1570 269/1571 270/1572
f 268/1573 265/1574 270/1575
f 270/1576 265/1577 266/1578
f 267/1579 268/1580 269/1581
f 269/1582 268/1583 270/1584
f 267/1585 269/1586 259/1587
f 259/1588 269/1589 260/1590
