# Exported from USD for MuJoCo with source material subsets
v 0.00553808274 3.86626763 1.43191693
v 0.00553739728 2.7662682 1.43191753
v 0.0615516669 3.86626763 1.4547903
v 0.0648168689 2.7662682 1.45591653
v 0.117954857 3.86626763 1.47526223
v 0.124220944 2.7662682 1.477242
v 0.174747861 3.86626763 1.49333245
v 0.183750696 2.7662682 1.49589128
v 0.231940812 3.86626763 1.50899941
v 0.243415526 2.76626772 1.51179797
v 0.290056191 3.86626763 1.52216435
v 0.303227804 2.76626772 1.52487261
v 0.348196331 3.86626763 1.53299642
v 0.363139826 2.76626772 1.5354566
v 0.406361244 3.86626763 1.54149551
v 0.423151726 2.76626772 1.54355008
v 0.464558057 3.86626763 1.54765046
v 0.483307852 2.76626772 1.54883439
v 0.523277014 3.86626763 1.55069584
v 0.543584666 2.76626772 1.55147827
v 0.581682405 3.86626763 1.55193657
v 0.603895924 2.76626772 1.55210013
v 0.639774195 3.86626763 1.55137301
v 0.664241589 2.76626772 1.5506999
v 0.69755388 3.86626763 1.54899395
v 0.724717236 2.76626772 1.54659296
v 0.75516916 3.86626763 1.54371209
v 0.785211331 2.76626748 1.5405779
v 0.812370098 3.86626763 1.53736735
v 0.845640278 2.76626748 1.53325368
v 0.869156725 3.86626763 1.52995975
v 0.906004137 2.76626748 1.52462018
v 0.925529189 3.86626763 1.52148921
v 0.966302819 2.76626748 1.51467741
v 0.98148734 3.86626763 1.51195598
v 1.02653641 2.76626748 1.50342561
v 1.03703118 3.86626763 1.50135965
v 1.0867051 2.76626748 1.4908644
v 1.09216077 3.86626763 1.48970062
v 1.14680827 2.76626748 1.47699393
v 1.14680875 3.86626763 1.47699393
v 1.39755578 3.86626715 1.15665214
v 1.39624984 3.86626715 1.18592191
v 1.39755536 2.76626748 1.15665214
v 1.39624894 2.76626748 1.18592656
v 1.3923868 3.86626715 1.21481059
v 1.39238483 2.76626748 1.21481962
v 1.38595707 3.86626715 1.24335722
v 1.38595308 2.76626748 1.24337039
v 1.37705249 3.86626715 1.27114189
v 1.37704564 2.76626748 1.27115909
v 1.3657105 3.86626715 1.29807953
v 1.36570025 2.76626748 1.29810003
v 1.35203511 3.86626715 1.32388458
v 1.35202093 2.76626748 1.32390825
v 1.33614374 3.86626715 1.34837884
v 1.33612472 2.76626748 1.34840483
v 1.31812001 3.86626715 1.37139005
v 1.31809575 2.76626748 1.37141789
v 1.29818166 3.86626715 1.39268363
v 1.29815204 2.76626748 1.39271209
v 1.27636958 3.86626715 1.4121745
v 1.27633382 2.76626748 1.41220329
v 1.25301135 3.86626763 1.42960966
v 1.25296969 2.76626748 1.42963774
v 1.22809119 3.86626763 1.44496379
v 1.22804297 2.76626748 1.44499028
v 1.20204473 3.86626763 1.45800347
v 1.20199049 2.76626748 1.45802749
v 1.17497296 3.86626763 1.46867461
v 1.17491222 2.76626748 1.46869523
vt -0.725000024 -0.367579997
vt 0.275000006 -0.367579997
vt -0.725000024 -0.316659003
vt -0.725000024 -0.316659003
vt 0.275000006 -0.367579997
vt 0.275000006 -0.313690007
vt -0.725000024 -0.316659003
vt 0.275000006 -0.313690007
vt -0.725000024 -0.265383005
vt -0.725000024 -0.265383005
vt 0.275000006 -0.313690007
vt 0.275000006 -0.259685993
vt -0.725000024 -0.265383005
vt 0.275000006 -0.259685993
vt -0.725000024 -0.213753
vt -0.725000024 -0.213753
vt 0.275000006 -0.259685993
vt 0.275000006 -0.205568001
vt -0.725000024 -0.213753
vt 0.275000006 -0.205568001
vt -0.725000024 -0.161759004
vt -0.725000024 -0.161759004
vt 0.275000006 -0.205568001
vt 0.275000006 -0.151326999
vt -0.725000024 -0.161759004
vt 0.275000006 -0.151326999
vt -0.725000024 -0.108926997
vt -0.725000024 -0.108926997
vt 0.275000006 -0.151326999
vt 0.275000006 -0.0969529971
vt -0.725000024 -0.108926997
vt 0.275000006 -0.0969529971
vt -0.725000024 -0.0560729988
vt -0.725000024 -0.0560729988
vt 0.275000006 -0.0969529971
vt 0.275000006 -0.0424869992
vt -0.725000024 -0.0560729988
vt 0.275000006 -0.0424869992
vt -0.725000024 -0.00319500011
vt -0.725000024 -0.00319500011
vt 0.275000006 -0.0424869992
vt 0.275000006 0.0120689999
vt -0.725000024 -0.00319500011
vt 0.275000006 0.0120689999
vt -0.725000024 0.0497110002
vt -0.725000024 0.0497110002
vt 0.275000006 0.0120689999
vt 0.275000006 0.0667560026
vt -0.725000024 0.0497110002
vt 0.275000006 0.0667560026
vt -0.725000024 0.103092
vt -0.725000024 0.103092
vt 0.275000006 0.0667560026
vt 0.275000006 0.121554002
vt -0.725000024 0.103092
vt 0.275000006 0.121554002
vt -0.725000024 0.156187996
vt -0.725000024 0.156187996
vt 0.275000006 0.121554002
vt 0.275000006 0.176382005
vt -0.725000024 0.156187996
vt 0.275000006 0.176382005
vt -0.725000024 0.208997995
vt -0.725000024 0.208997995
vt 0.275000006 0.176382005
vt 0.275000006 0.231242001
vt -0.725000024 0.208997995
vt 0.275000006 0.231242001
vt -0.725000024 0.261525005
vt -0.725000024 0.261525005
vt 0.275000006 0.231242001
vt 0.275000006 0.286220014
vt -0.725000024 0.261525005
vt 0.275000006 0.286220014
vt -0.725000024 0.313903004
vt -0.725000024 0.313903004
vt 0.275000006 0.286220014
vt 0.275000006 0.341214001
vt -0.725000024 0.313903004
vt 0.275000006 0.341214001
vt -0.725000024 0.365904003
vt -0.725000024 0.365904003
vt 0.275000006 0.341214001
vt 0.275000006 0.396149993
vt -0.725000024 0.365904003
vt 0.275000006 0.396149993
vt -0.725000024 0.417528003
vt -0.725000024 0.417528003
vt 0.275000006 0.396149993
vt 0.275000006 0.451025993
vt -0.725000024 0.417528003
vt 0.275000006 0.451025993
vt -0.725000024 0.468775004
vt -0.725000024 0.468775004
vt 0.275000006 0.451025993
vt 0.275000006 0.505842984
vt -0.725000024 0.468775004
vt 0.275000006 0.505842984
vt -0.725000024 0.519645989
vt -0.725000024 0.519645989
vt 0.275000006 0.505842984
vt 0.275000006 0.560600996
vt -0.725000024 0.519645989
vt 0.275000006 0.560600996
vt -0.725000024 0.570141017
vt -0.725000024 0.570141017
vt 0.275000006 0.560600996
vt 0.275000006 0.615298986
vt -0.725000024 0.570141017
vt 0.275000006 0.615298986
vt -0.725000024 0.620258987
vt -0.725000024 0.620258987
vt 0.275000006 0.615298986
vt 0.275000006 0.669938982
vt -0.725000024 0.620258987
vt 0.275000006 0.669938982
vt -0.725000024 0.669938982
vt 0.725000024 1.05149996
vt 0.725000024 1.07810903
vt -0.275000006 1.05149996
vt -1.05149996 0.897889972
vt -1.07810903 0.896703005
vt -1.07810903 0.896703005
vt -0.275000006 1.05149996
vt 0.725000024 1.07810903
vt -0.275000006 1.07811296
vt -0.275000006 1.07811296
vt 0.725000024 1.07810903
vt 0.725000024 1.10437095
vt -0.275000006 1.07811296
vt 0.725000024 1.10437095
vt -0.275000006 1.10438001
vt -0.275000006 1.10438001
vt 0.725000024 1.10437095
vt 0.725000024 1.13032305
vt -0.275000006 1.10438001
vt 0.725000024 1.13032305
vt -0.275000006 1.13033497
vt -0.275000006 1.13033497
vt 0.725000024 1.13032305
vt 0.725000024 1.15558195
vt -0.275000006 1.13033497
vt 0.725000024 1.15558195
vt -0.275000006 1.15559697
vt -0.275000006 1.15559697
vt 0.725000024 1.15558195
vt 0.725000024 1.18007004
vt -0.275000006 1.15559697
vt 0.725000024 1.18007004
vt -0.275000006 1.180089
vt -0.275000006 1.180089
vt 0.725000024 1.18007004
vt 0.725000024 1.20352995
vt -0.275000006 1.180089
vt 0.725000024 1.20352995
vt -0.275000006 1.20355105
vt -0.275000006 1.20355105
vt 0.725000024 1.20352995
vt 0.725000024 1.22579706
vt -0.275000006 1.20355105
vt 0.725000024 1.22579706
vt -0.275000006 1.22582102
vt -0.275000006 1.22582102
vt 0.725000024 1.22579706
vt 0.725000024 1.24671602
vt -0.275000006 1.22582102
vt 0.725000024 1.24671602
vt -0.275000006 1.24674201
vt -0.275000006 1.24674201
vt 0.725000024 1.24671602
vt 0.725000024 1.26607394
vt -0.275000006 1.24674201
vt 0.725000024 1.26607394
vt -0.275000006 1.26610005
vt 0.275000006 0.807524025
vt -0.725000024 0.807550013
vt -0.725000024 0.787720978
vt 0.275000006 0.807524025
vt -0.725000024 0.787720978
vt 0.275000006 0.787688971
vt 0.275000006 0.787688971
vt -0.725000024 0.787720978
vt -0.725000024 0.766487002
vt 0.275000006 0.787688971
vt -0.725000024 0.766487002
vt 0.275000006 0.766448975
vt 0.275000006 0.766448975
vt -0.725000024 0.766487002
vt -0.725000024 0.743831992
vt 0.275000006 0.766448975
vt -0.725000024 0.743831992
vt 0.275000006 0.743788004
vt 0.275000006 0.743788004
vt -0.725000024 0.743831992
vt -0.725000024 0.720152974
vt 0.275000006 0.743788004
vt -0.725000024 0.720152974
vt 0.275000006 0.720103979
vt 0.275000006 0.720103979
vt -0.725000024 0.720152974
vt -0.725000024 0.695542991
vt 0.275000006 0.720103979
vt -0.725000024 0.695542991
vt 0.275000006 0.695487976
vt 0.275000006 0.695487976
vt -0.725000024 0.695542991
vt -0.725000024 0.669938982
vt 0.275000006 0.695487976
vt -0.725000024 0.669938982
vt 0.275000006 0.669938982
f 1/1 2/2 3/3
f 3/4 2/5 4/6
f 3/7 4/8 5/9
f 5/10 4/11 6/12
f 5/13 6/14 7/15
f 7/16 6/17 8/18
f 7/19 8/20 9/21
f 9/22 8/23 10/24
f 9/25 10/26 11/27
f 11/28 10/29 12/30
f 11/31 12/32 13/33
f 13/34 12/35 14/36
f 13/37 14/38 15/39
f 15/40 14/41 16/42
f 15/43 16/44 17/45
f 17/46 16/47 18/48
f 17/49 18/50 19/51
f 19/52 18/53 20/54
f 19/55 20/56 21/57
f 21/58 20/59 22/60
f 21/61 22/62 23/63
f 23/64 22/65 24/66
f 23/67 24/68 25/69
f 25/70 24/71 26/72
f 25/73 26/74 27/75
f 27/76 26/77 28/78
f 27/79 28/80 29/81
f 29/82 28/83 30/84
f 29/85 30/86 31/87
f 31/88 30/89 32/90
f 31/91 32/92 33/93
f 33/94 32/95 34/96
f 33/97 34/98 35/99
f 35/100 34/101 36/102
f 35/103 36/104 37/105
f 37/106 36/107 38/108
f 37/109 38/110 39/111
f 39/112 38/113 40/114
f 39/115 40/116 41/117
f 42/118 43/119 44/120
f 44/121 43/122 43/123
f 44/124 43/125 45/126
f 45/127 43/128 46/129
f 45/130 46/131 47/132
f 47/133 46/134 48/135
f 47/136 48/137 49/138
f 49/139 48/140 50/141
f 49/142 50/143 51/144
f 51/145 50/146 52/147
f 51/148 52/149 53/150
f 53/151 52/152 54/153
f 53/154 54/155 55/156
f 55/157 54/158 56/159
f 55/160 56/161 57/162
f 57/163 56/164 58/165
f 57/166 58/167 59/168
f 59/169 58/170 60/171
f 59/172 60/173 61/174
f 61/175 60/176 62/177
f 61/178 62/179 63/180
f 63/181 62/182 64/183
f 63/184 64/185 65/186
f 65/187 64/188 66/189
f 65/190 66/191 67/192
f 67/193 66/194 68/195
f 67/196 68/197 69/198
f 69/199 68/200 70/201
f 69/202 70/203 71/204
f 71/205 70/206 41/207
f 71/208 41/209 40/210
