# Exported from USD for MuJoCo with source material subsets
v -16.4484257 -6.78480703 0.656899208
v -16.4484259 -7.79460699 0.656899208
v -15.9468259 -7.2996071 0.656899327
v -15.9468261 -7.77480728 0.656899327
v -15.9468257 -6.80460674 0.656899327
v -15.9468257 -6.78480703 0.656899327
v -15.9468261 -7.79460699 0.656899327
v -15.9468259 -7.27980692 0.656899327
vt 0.456 -0.458999991
vt 0.456 0.458999991
vt 0 0.00899999961
vt 0 0.00899999961
vt 0.456 0.458999991
vt 0 0.441000015
vt 0 -0.441000015
vt 0 -0.458999991
vt 0.456 -0.458999991
vt 0 0.458999991
vt 0 0.441000015
vt 0.456 0.458999991
vt 0 0.00899999961
vt 0 -0.00899999961
vt 0.456 -0.458999991
vt 0.456 -0.458999991
vt 0 -0.00899999961
vt 0 -0.441000015
f 1/1 2/2 3/3
f 3/4 2/5 4/6
f 5/7 6/8 1/9
f 7/10 4/11 2/12
f 3/13 8/14 1/15
f 1/16 8/17 5/18
