# Exported from USD for MuJoCo with source material subsets
v -14.9780439 2.02879303 1.60901066
v -14.9820296 2.02573245 1.60894486
v -14.9734002 2.03071755 1.60908746
v -14.9850864 2.02174705 1.60889434
v -14.968422 2.03137391 1.6091696
v -14.9870092 2.01710098 1.60886248
v -14.9634362 2.0307185 1.60925212
v -14.987664 2.01212447 1.60885173
v -14.9587977 2.02879732 1.60932877
v -14.9870066 2.00713723 1.60886269
v -14.9548091 2.02573841 1.60939469
v -14.9850832 2.00249618 1.60889434
v -14.95175 2.02175229 1.60944509
v -14.9820241 1.99851006 1.60894501
v -14.9498267 2.01711148 1.60947698
v -14.9780354 1.99545091 1.60901081
v -14.9491692 2.01212447 1.60948783
v -14.9733971 1.99352973 1.60908746
v -14.949824 2.00714749 1.60947698
v -14.9684111 1.99287456 1.60916984
v -14.9517468 2.00250118 1.60944509
v -14.9634331 1.99353069 1.60925212
v -14.9548036 1.99851602 1.60939469
v -14.9587893 1.99545568 1.60932889
v -14.9482606 2.01212447 1.55449527
v -14.948918 2.01711148 1.55448454
v -14.9508414 2.02175229 1.55445268
v -14.9539004 2.02573841 1.55440202
v -14.9578891 2.02879732 1.55433624
v -14.9625275 2.0307185 1.55425956
v -14.9675133 2.03137391 1.55417716
v -14.9724915 2.03071755 1.55409499
v -14.9771353 2.02879303 1.5540181
v -14.9811209 2.02573245 1.5539523
v -14.9841778 2.02174705 1.55390191
v -14.9861005 2.01710098 1.55387005
v -14.9867553 2.01212447 1.55385929
v -14.9489154 2.00714749 1.55448454
v -14.9508381 2.00250118 1.55445268
v -14.9538949 1.99851602 1.55440214
v -14.9578807 1.99545568 1.55433636
v -14.9625244 1.99353069 1.55425956
v -14.9675025 1.99287456 1.5541774
v -14.9724884 1.99352973 1.55409499
v -14.9771268 1.99545091 1.55401822
v -14.9811154 1.99851006 1.55395245
v -14.9841745 2.00249618 1.55390191
v -14.9860979 2.00713723 1.55387005
vt -0.397855997 -0.268435001
vt -0.394232005 -0.265653014
vt -0.402076989 -0.270184994
vt -0.402076989 -0.270184994
vt -0.394232005 -0.265653014
vt -0.391452998 -0.262030005
vt -0.402076989 -0.270184994
vt -0.391452998 -0.262030005
vt -0.406603009 -0.27078101
vt -0.406603009 -0.27078101
vt -0.391452998 -0.262030005
vt -0.389705002 -0.257806003
vt -0.406603009 -0.27078101
vt -0.389705002 -0.257806003
vt -0.411134988 -0.270186007
vt -0.411134988 -0.270186007
vt -0.389705002 -0.257806003
vt -0.389109999 -0.253282011
vt -0.411134988 -0.270186007
vt -0.389109999 -0.253282011
vt -0.415351987 -0.268438995
vt -0.415351987 -0.268438995
vt -0.389109999 -0.253282011
vt -0.389708012 -0.248748004
vt -0.415351987 -0.268438995
vt -0.389708012 -0.248748004
vt -0.418978006 -0.265657991
vt -0.418978006 -0.265657991
vt -0.389708012 -0.248748004
vt -0.391456008 -0.244528994
vt -0.418978006 -0.265657991
vt -0.391456008 -0.244528994
vt -0.421759009 -0.262033999
vt -0.421759009 -0.262033999
vt -0.391456008 -0.244528994
vt -0.394237012 -0.240905002
vt -0.421759009 -0.262033999
vt -0.394237012 -0.240905002
vt -0.423507988 -0.257815003
vt -0.423507988 -0.257815003
vt -0.394237012 -0.240905002
vt -0.397863001 -0.238123998
vt -0.423507988 -0.257815003
vt -0.397863001 -0.238123998
vt -0.424104989 -0.253282011
vt -0.424104989 -0.253282011
vt -0.397863001 -0.238123998
vt -0.402079999 -0.236377999
vt -0.424104989 -0.253282011
vt -0.402079999 -0.236377999
vt -0.423509985 -0.248757005
vt -0.423509985 -0.248757005
vt -0.402079999 -0.236377999
vt -0.406612992 -0.235781997
vt -0.423509985 -0.248757005
vt -0.406612992 -0.235781997
vt -0.42176199 -0.244533002
vt -0.42176199 -0.244533002
vt -0.406612992 -0.235781997
vt -0.411137998 -0.236378998
vt -0.42176199 -0.244533002
vt -0.411137998 -0.236378998
vt -0.418983012 -0.240909994
vt -0.418983012 -0.240909994
vt -0.411137998 -0.236378998
vt -0.415360004 -0.238128006
vt 1.40999603 -0.253282011
vt 1.40998602 -0.257815003
vt 1.45998895 -0.253282011
vt -1.45998895 -0.253282011
vt -1.40998602 -0.257815003
vt -1.40998602 -0.257815003
vt 1.45998895 -0.253282011
vt 1.40998602 -0.257815003
vt 1.45997906 -0.257815003
vt 1.45997906 -0.257815003
vt 1.40998602 -0.257815003
vt 1.40995705 -0.262033999
vt 1.45997906 -0.257815003
vt 1.40995705 -0.262033999
vt 1.45994997 -0.262033999
vt 1.45994997 -0.262033999
vt 1.40995705 -0.262033999
vt 1.40991104 -0.265657991
vt 1.45994997 -0.262033999
vt 1.40991104 -0.265657991
vt 1.45990396 -0.265657991
vt -0.418978006 1.45990396
vt -0.419804007 1.40991104
vt -0.416177988 1.40985096
vt -0.418978006 1.45990396
vt -0.416177988 1.40985096
vt -0.415351987 1.45984399
vt -0.415351987 1.45984399
vt -0.416177988 1.40985096
vt -0.411960989 1.40978098
vt -0.415351987 1.45984399
vt -0.411960989 1.40978098
vt -0.411134988 1.45977402
vt -0.411134988 1.45977402
vt -0.411960989 1.40978098
vt -0.40742901 1.409706
vt -0.411134988 1.45977402
vt -0.40742901 1.409706
vt -0.406603009 1.45969999
vt -0.406603009 1.45969999
vt -0.40742901 1.409706
vt -0.402902991 1.40963197
vt -0.406603009 1.45969999
vt -0.402902991 1.40963197
vt -0.402076989 1.45962501
vt -0.402076989 1.45962501
vt -0.402902991 1.40963197
vt -0.398681998 1.40956199
vt -0.402076989 1.45962501
vt -0.398681998 1.40956199
vt -0.397855997 1.45955503
vt -0.397855997 1.45955503
vt -0.398681998 1.40956199
vt -0.395058006 1.40950203
vt -0.397855997 1.45955503
vt -0.395058006 1.40950203
vt -0.394232005 1.45949495
vt -1.45949495 -0.265653014
vt -1.40950203 -0.265653014
vt -1.40945601 -0.262030005
vt -1.45949495 -0.265653014
vt -1.40945601 -0.262030005
vt -1.45944905 -0.262030005
vt -1.45944905 -0.262030005
vt -1.40945601 -0.262030005
vt -1.40942705 -0.257806003
vt -1.45944905 -0.262030005
vt -1.40942705 -0.257806003
vt -1.45941997 -0.257806003
vt -1.45941997 -0.257806003
vt -1.40942705 -0.257806003
vt -1.40941799 -0.253282011
vt -1.45941997 -0.257806003
vt -1.40941799 -0.253282011
vt -1.45941103 -0.253282011
vt 1.45998895 -0.253282011
vt 1.45997906 -0.248757005
vt 1.40999603 -0.253282011
vt -1.40999603 -0.253282011
vt -1.45997906 -0.248757005
vt -1.45997906 -0.248757005
vt 1.40999603 -0.253282011
vt 1.45997906 -0.248757005
vt 1.40998602 -0.248757005
vt 1.40998602 -0.248757005
vt 1.45997906 -0.248757005
vt 1.45994997 -0.244533002
vt 1.40998602 -0.248757005
vt 1.45994997 -0.244533002
vt 1.40995705 -0.244533002
vt 1.40995705 -0.244533002
vt 1.45994997 -0.244533002
vt 1.45990396 -0.240909994
vt 1.40995705 -0.244533002
vt 1.45990396 -0.240909994
vt 1.40991104 -0.240909994
vt 0.419809014 1.40991104
vt 0.418983012 1.45990396
vt 0.415360004 1.45984399
vt 0.419809014 1.40991104
vt 0.415360004 1.45984399
vt 0.416186005 1.40985096
vt 0.416186005 1.40985096
vt 0.415360004 1.45984399
vt 0.411137998 1.45977402
vt 0.416186005 1.40985096
vt 0.411137998 1.45977402
vt 0.411963999 1.40978098
vt 0.411963999 1.40978098
vt 0.411137998 1.45977402
vt 0.406612992 1.45969999
vt 0.411963999 1.40978098
vt 0.406612992 1.45969999
vt 0.407438993 1.40970695
vt 0.407438993 1.40970695
vt 0.406612992 1.45969999
vt 0.402079999 1.45962501
vt 0.407438993 1.40970695
vt 0.402079999 1.45962501
vt 0.402906001 1.40963197
vt 0.402906001 1.40963197
vt 0.402079999 1.45962501
vt 0.397863001 1.45955503
vt 0.402906001 1.40963197
vt 0.397863001 1.45955503
vt 0.398689002 1.40956199
vt 0.398689002 1.40956199
vt 0.397863001 1.45955503
vt 0.394237012 1.45949495
vt 0.398689002 1.40956199
vt 0.394237012 1.45949495
vt 0.395063013 1.40950203
vt -1.40950203 -0.240905002
vt -1.45949495 -0.240905002
vt -1.45944905 -0.244528994
vt -1.40950203 -0.240905002
vt -1.45944905 -0.244528994
vt -1.40945601 -0.244528994
vt -1.40945601 -0.244528994
vt -1.45944905 -0.244528994
vt -1.45942104 -0.248748004
vt -1.40945601 -0.244528994
vt -1.45942104 -0.248748004
vt -1.40942705 -0.248748004
vt -1.40942705 -0.248748004
vt -1.45942104 -0.248748004
vt -1.45941103 -0.253282011
vt -1.40942705 -0.248748004
vt -1.45941103 -0.253282011
vt -1.40941799 -0.253282011
f 1/1 2/2 3/3
f 3/4 2/5 4/6
f 3/7 4/8 5/9
f 5/10 4/11 6/12
f 5/13 6/14 7/15
f 7/16 6/17 8/18
f 7/19 8/20 9/21
f 9/22 8/23 10/24
f 9/25 10/26 11/27
f 11/28 10/29 12/30
f 11/31 12/32 13/33
f 13/34 12/35 14/36
f 13/37 14/38 15/39
f 15/40 14/41 16/42
f 15/43 16/44 17/45
f 17/46 16/47 18/48
f 17/49 18/50 19/51
f 19/52 18/53 20/54
f 19/55 20/56 21/57
f 21/58 20/59 22/60
f 21/61 22/62 23/63
f 23/64 22/65 24/66
f 25/67 26/68 17/69
f 17/70 26/71 26/72
f 17/73 26/74 15/75
f 15/76 26/77 27/78
f 15/79 27/80 13/81
f 13/82 27/83 28/84
f 13/85 28/86 11/87
f 11/88 28/89 29/90
f 11/91 29/92 9/93
f 9/94 29/95 30/96
f 9/97 30/98 7/99
f 7/100 30/101 31/102
f 7/103 31/104 5/105
f 5/106 31/107 32/108
f 5/109 32/110 3/111
f 3/112 32/113 33/114
f 3/115 33/116 1/117
f 1/118 33/119 34/120
f 1/121 34/122 2/123
f 2/124 34/125 35/126
f 2/127 35/128 4/129
f 4/130 35/131 36/132
f 4/133 36/134 6/135
f 6/136 36/137 37/138
f 6/139 37/140 8/141
f 17/142 19/143 25/144
f 25/145 19/146 19/147
f 25/148 19/149 38/150
f 38/151 19/152 21/153
f 38/154 21/155 39/156
f 39/157 21/158 23/159
f 39/160 23/161 40/162
f 40/163 23/164 24/165
f 40/166 24/167 41/168
f 41/169 24/170 22/171
f 41/172 22/173 42/174
f 42/175 22/176 20/177
f 42/178 20/179 43/180
f 43/181 20/182 18/183
f 43/184 18/185 44/186
f 44/187 18/188 16/189
f 44/190 16/191 45/192
f 45/193 16/194 14/195
f 45/196 14/197 46/198
f 46/199 14/200 12/201
f 46/202 12/203 47/204
f 47/205 12/206 10/207
f 47/208 10/209 48/210
f 48/211 10/212 8/213
f 48/214 8/215 37/216
