# Exported from USD for MuJoCo with source material subsets
v 0.464811093 -4.62999516 1.3322669
v 0.464156202 -4.62501841 1.3322669
v 0.464811078 -4.62999516 1.38726691
v 0.464153609 -4.62500792 1.38726691
v 0.4622332 -4.62037211 1.3322669
v 0.462229903 -4.62036711 1.38726691
v 0.459175932 -4.61638695 1.3322669
v 0.459170411 -4.61638099 1.38726691
v 0.455189726 -4.61332637 1.3322669
v 0.455181229 -4.61332184 1.38726691
v 0.450545332 -4.61140185 1.3322669
v 0.450542173 -4.6114009 1.38726691
v 0.445566512 -4.61074549 1.3322669
v 0.445555664 -4.61074549 1.38726691
v 0.440579985 -4.6114009 1.3322669
v 0.440576841 -4.61140185 1.38726691
v 0.435940947 -4.61332184 1.3322669
v 0.435932447 -4.61332637 1.38726691
v 0.431951766 -4.61638099 1.3322669
v 0.431946226 -4.61638695 1.38726691
v 0.428892273 -4.62036711 1.3322669
v 0.428888946 -4.62037211 1.38726691
v 0.426968566 -4.62500792 1.3322669
v 0.426965942 -4.62501841 1.38726691
v 0.426311095 -4.62999516 1.3322669
v 0.42631108 -4.62999516 1.38726691
v 0.426965957 -4.63497191 1.3322669
v 0.426968549 -4.63498216 1.38726691
v 0.428888961 -4.63961821 1.3322669
v 0.428892258 -4.63962298 1.38726691
v 0.431946226 -4.64360338 1.3322669
v 0.431951734 -4.64360934 1.38726691
v 0.435932447 -4.64666372 1.3322669
v 0.435940917 -4.64666849 1.38726691
v 0.440576841 -4.64858847 1.3322669
v 0.440579956 -4.64858967 1.38726691
v 0.445555664 -4.64924484 1.3322669
v 0.445566478 -4.64924484 1.38726691
v 0.450542173 -4.64858967 1.3322669
v 0.450545303 -4.64858847 1.38726691
v 0.455181229 -4.64666849 1.3322669
v 0.455189697 -4.64666372 1.38726691
v 0.459170411 -4.64360934 1.3322669
v 0.459175902 -4.64360338 1.38726691
v 0.462229922 -4.63962298 1.3322669
v 0.462233185 -4.63961821 1.38726691
v 0.464153624 -4.63498216 1.3322669
v 0.464156187 -4.63497191 1.38726691
vt 0.562241018 1.20796895
vt 0.566766024 1.20796895
vt 0.562241018 1.25796902
vt -0.562241018 1.25796902
vt -0.566766024 1.20796895
vt -0.566766024 1.20796895
vt 0.562241018 1.25796902
vt 0.566766024 1.20796895
vt 0.566775024 1.25796902
vt 0.566775024 1.25796902
vt 0.566766024 1.20796895
vt 0.570990026 1.20796895
vt 0.566775024 1.25796902
vt 0.570990026 1.20796895
vt 0.57099402 1.25796902
vt 0.57099402 1.25796902
vt 0.570990026 1.20796895
vt 0.574612975 1.20796895
vt 0.57099402 1.25796902
vt 0.574612975 1.20796895
vt 0.574617982 1.25796902
vt 0.172139004 1.25796902
vt 0.172133997 1.20796895
vt 0.175758004 1.20796895
vt 0.172139004 1.25796902
vt 0.175758004 1.20796895
vt 0.175766006 1.25796902
vt 0.175766006 1.25796902
vt 0.175758004 1.20796895
vt 0.179979995 1.20796895
vt 0.175766006 1.25796902
vt 0.179979995 1.20796895
vt 0.179983005 1.25796902
vt 0.179983005 1.25796902
vt 0.179979995 1.20796895
vt 0.184505999 1.20796895
vt 0.179983005 1.25796902
vt 0.184505999 1.20796895
vt 0.184515998 1.25796902
vt 0.184515998 1.25796902
vt 0.184505999 1.20796895
vt 0.189040005 1.20796895
vt 0.184515998 1.25796902
vt 0.189040005 1.20796895
vt 0.189043 1.25796902
vt 0.189043 1.25796902
vt 0.189040005 1.20796895
vt 0.193257004 1.20796895
vt 0.189043 1.25796902
vt 0.193257004 1.20796895
vt 0.193265006 1.25796902
vt 0.193265006 1.25796902
vt 0.193257004 1.20796895
vt 0.196882993 1.20796895
vt 0.193265006 1.25796902
vt 0.196882993 1.20796895
vt 0.196888998 1.25796902
vt -0.574612975 1.25796902
vt -0.574617982 1.20796895
vt -0.57099402 1.20796895
vt -0.574612975 1.25796902
vt -0.57099402 1.20796895
vt -0.570990026 1.25796902
vt -0.570990026 1.25796902
vt -0.57099402 1.20796895
vt -0.566775024 1.20796895
vt -0.570990026 1.25796902
vt -0.566775024 1.20796895
vt -0.566766024 1.25796902
vt -0.566766024 1.25796902
vt -0.566775024 1.20796895
vt -0.562241018 1.20796895
vt -0.566766024 1.25796902
vt -0.562241018 1.20796895
vt -0.562241018 1.25796902
vt -0.562241018 1.20796895
vt -0.557717025 1.20796895
vt -0.562241018 1.25796902
vt -0.562241018 1.25796902
vt -0.557717025 1.20796895
vt -0.557717025 1.20796895
vt -0.562241018 1.25796902
vt -0.557717025 1.20796895
vt -0.557708025 1.25796902
vt -0.557708025 1.25796902
vt -0.557717025 1.20796895
vt -0.553493023 1.20796895
vt -0.557708025 1.25796902
vt -0.553493023 1.20796895
vt -0.553489029 1.25796902
vt -0.553489029 1.25796902
vt -0.553493023 1.20796895
vt -0.549870014 1.20796895
vt -0.553489029 1.25796902
vt -0.549870014 1.20796895
vt -0.549865007 1.25796902
vt -0.196882993 1.25796902
vt -0.196888998 1.20796895
vt -0.193265006 1.20796895
vt -0.196882993 1.25796902
vt -0.193265006 1.20796895
vt -0.193257004 1.25796902
vt -0.193257004 1.25796902
vt -0.193265006 1.20796895
vt -0.189043 1.20796895
vt -0.193257004 1.25796902
vt -0.189043 1.20796895
vt -0.189040005 1.25796902
vt -0.189040005 1.25796902
vt -0.189043 1.20796895
vt -0.184515998 1.20796895
vt -0.189040005 1.25796902
vt -0.184515998 1.20796895
vt -0.184505999 1.25796902
vt -0.184505999 1.25796902
vt -0.184515998 1.20796895
vt -0.179983005 1.20796895
vt -0.184505999 1.25796902
vt -0.179983005 1.20796895
vt -0.179979995 1.25796902
vt -0.179979995 1.25796902
vt -0.179983005 1.20796895
vt -0.175766006 1.20796895
vt -0.179979995 1.25796902
vt -0.175766006 1.20796895
vt -0.175758004 1.25796902
vt -0.175758004 1.25796902
vt -0.175766006 1.20796895
vt -0.172139004 1.20796895
vt -0.175758004 1.25796902
vt -0.172139004 1.20796895
vt -0.172133997 1.25796902
vt 0.549870014 1.25796902
vt 0.549865007 1.20796895
vt 0.553489029 1.20796895
vt 0.549870014 1.25796902
vt 0.553489029 1.20796895
vt 0.553493023 1.25796902
vt 0.553493023 1.25796902
vt 0.553489029 1.20796895
vt 0.557708025 1.20796895
vt 0.553493023 1.25796902
vt 0.557708025 1.20796895
vt 0.557717025 1.25796902
vt 0.557717025 1.25796902
vt 0.557708025 1.20796895
vt 0.562241018 1.20796895
vt 0.557717025 1.25796902
vt 0.562241018 1.20796895
vt 0.562241018 1.25796902
f 1/1 2/2 3/3
f 3/4 2/5 2/6
f 3/7 2/8 4/9
f 4/10 2/11 5/12
f 4/13 5/14 6/15
f 6/16 5/17 7/18
f 6/19 7/20 8/21
f 8/22 7/23 9/24
f 8/25 9/26 10/27
f 10/28 9/29 11/30
f 10/31 11/32 12/33
f 12/34 11/35 13/36
f 12/37 13/38 14/39
f 14/40 13/41 15/42
f 14/43 15/44 16/45
f 16/46 15/47 17/48
f 16/49 17/50 18/51
f 18/52 17/53 19/54
f 18/55 19/56 20/57
f 20/58 19/59 21/60
f 20/61 21/62 22/63
f 22/64 21/65 23/66
f 22/67 23/68 24/69
f 24/70 23/71 25/72
f 24/73 25/74 26/75
f 25/76 27/77 26/78
f 26/79 27/80 27/81
f 26/82 27/83 28/84
f 28/85 27/86 29/87
f 28/88 29/89 30/90
f 30/91 29/92 31/93
f 30/94 31/95 32/96
f 32/97 31/98 33/99
f 32/100 33/101 34/102
f 34/103 33/104 35/105
f 34/106 35/107 36/108
f 36/109 35/110 37/111
f 36/112 37/113 38/114
f 38/115 37/116 39/117
f 38/118 39/119 40/120
f 40/121 39/122 41/123
f 40/124 41/125 42/126
f 42/127 41/128 43/129
f 42/130 43/131 44/132
f 44/133 43/134 45/135
f 44/136 45/137 46/138
f 46/139 45/140 47/141
f 46/142 47/143 48/144
f 48/145 47/146 1/147
f 48/148 1/149 3/150
