# Exported from USD for MuJoCo with source material subsets
v -15.5677688 -3.90422184 1.46548233
v -15.5557848 -3.90083701 1.46637822
v -15.5795312 -3.90827686 1.46652421
v -15.5439059 -3.89821369 1.4691873
v -15.5907509 -3.9128905 1.46947503
v -15.5324563 -3.89642436 1.4738328
v -15.601122 -3.91793758 1.4742548
v -15.5217481 -3.89551718 1.48018816
v -15.6103616 -3.9232803 1.4807327
v -15.5120735 -3.89551718 1.48807999
v -15.6182177 -3.92877299 1.48873233
v -15.5036965 -3.89642436 1.49729314
v -15.6244759 -3.93426544 1.49803531
v -15.4968454 -3.89821369 1.5075761
v -15.6289656 -3.93960816 1.50838798
v -15.4917072 -3.90083701 1.51864835
v -15.6315643 -3.94465524 1.51950785
v -15.4884221 -3.90422184 1.53020816
v -15.6322011 -3.94926888 1.53109171
v -15.4870796 -3.90827686 1.54194
v -15.6308586 -3.95332391 1.54282352
v -15.4877164 -3.9128905 1.55352386
v -15.6275735 -3.95670897 1.55438321
v -15.4903151 -3.91793758 1.56464371
v -15.6224352 -3.95933205 1.56545561
v -15.4948047 -3.9232803 1.57499638
v -15.6155842 -3.96112162 1.57573857
v -15.5010629 -3.92877299 1.58429935
v -15.6072072 -3.96202881 1.58495157
v -15.508919 -3.93426544 1.59229901
v -15.5975325 -3.96202881 1.59284344
v -15.5181586 -3.93960816 1.5987769
v -15.5868244 -3.96112162 1.5991989
v -15.5285298 -3.94465524 1.60355645
v -15.5753747 -3.95933205 1.6038444
v -15.5397495 -3.94926888 1.6065075
v -15.5634959 -3.95670897 1.60665351
v -15.5515118 -3.95332391 1.60754924
v -15.6320863 -3.94937569 1.54432853
v -15.6288012 -3.95276076 1.55588835
v -15.6334288 -3.94532091 1.53259673
v -15.623663 -3.95538408 1.56696075
v -15.632792 -3.94070703 1.52101299
v -15.6168119 -3.95717365 1.57724371
v -15.6301933 -3.93566019 1.50989311
v -15.6084349 -3.95808059 1.58645671
v -15.6257037 -3.93031747 1.49954044
v -15.5987603 -3.95808059 1.59434854
v -15.6194454 -3.92482454 1.49023747
v -15.5880521 -3.95717365 1.60070389
v -15.6115894 -3.91933233 1.48223772
v -15.5766025 -3.95538408 1.60534954
v -15.6023498 -3.91398961 1.47575981
v -15.5647235 -3.95276076 1.60815861
v -15.5919787 -3.90894253 1.47098015
v -15.5527395 -3.94937569 1.60905438
v -15.5807589 -3.90432865 1.46802923
v -15.5409772 -3.94532091 1.60801261
v -15.5689965 -3.90027386 1.46698747
v -15.5297575 -3.94070703 1.60506156
v -15.5570126 -3.89688856 1.46788322
v -15.5193864 -3.93566019 1.60028204
v -15.5451337 -3.89426572 1.4706923
v -15.5101467 -3.93031747 1.59380412
v -15.533684 -3.89247615 1.47533793
v -15.5022907 -3.92482454 1.58580437
v -15.5229758 -3.89156873 1.48169329
v -15.4960324 -3.91933233 1.57650139
v -15.5133012 -3.89156873 1.48958513
v -15.4915428 -3.91398961 1.56614872
v -15.5049242 -3.89247615 1.49879813
v -15.4889441 -3.90894253 1.55502885
v -15.4980732 -3.89426572 1.50908109
v -15.4883073 -3.90432865 1.5434451
v -15.4929349 -3.89688856 1.52015349
v -15.4896498 -3.90027386 1.5317133
vt -0.035464 1.32907403
vt -0.0245699994 1.32988906
vt -0.0461569987 1.33002102
vt -0.0461569987 1.33002102
vt -0.0245699994 1.32988906
vt -0.0137710003 1.33244205
vt -0.0461569987 1.33002102
vt -0.0137710003 1.33244205
vt -0.056357 1.33270395
vt -0.056357 1.33270395
vt -0.0137710003 1.33244205
vt -0.00336199999 1.33666599
vt -0.056357 1.33270395
vt -0.00336199999 1.33666599
vt -0.0657849982 1.33704901
vt -0.0657849982 1.33704901
vt -0.00336199999 1.33666599
vt 0.00637299987 1.34244299
vt -0.0657849982 1.33704901
vt 0.00637299987 1.34244299
vt -0.0741849989 1.34293795
vt -0.0741849989 1.34293795
vt 0.00637299987 1.34244299
vt 0.015168 1.349617
vt -0.0741849989 1.34293795
vt 0.015168 1.349617
vt -0.0813269988 1.35021102
vt -0.0813269988 1.35021102
vt 0.015168 1.349617
vt 0.022783 1.35799301
vt -0.0813269988 1.35021102
vt 0.022783 1.35799301
vt -0.0870160013 1.35866797
vt -0.0870160013 1.35866797
vt 0.022783 1.35799301
vt 0.0290120002 1.36734104
vt -0.0870160013 1.35866797
vt 0.0290120002 1.36734104
vt -0.0910980031 1.36807895
vt -0.0910980031 1.36807895
vt 0.0290120002 1.36734104
vt 0.0336829983 1.37740695
vt -0.0910980031 1.36807895
vt 0.0336829983 1.37740695
vt -0.0934600011 1.37818801
vt -0.0934600011 1.37818801
vt 0.0336829983 1.37740695
vt 0.036669001 1.38791597
vt -0.0934600011 1.37818801
vt 0.036669001 1.38791597
vt -0.0940390006 1.38871896
vt -0.0940390006 1.38871896
vt 0.036669001 1.38791597
vt 0.0378899984 1.39858103
vt -0.0940390006 1.38871896
vt 0.0378899984 1.39858103
vt -0.0928179994 1.39938402
vt -0.0928179994 1.39938402
vt 0.0378899984 1.39858103
vt 0.0373109989 1.40911198
vt -0.0928179994 1.39938402
vt 0.0373109989 1.40911198
vt -0.0898320004 1.40989304
vt -0.0898320004 1.40989304
vt 0.0373109989 1.40911198
vt 0.0349479988 1.41922104
vt -0.0898320004 1.40989304
vt 0.0349479988 1.41922104
vt -0.0851610005 1.41995895
vt -0.0851610005 1.41995895
vt 0.0349479988 1.41922104
vt 0.0308669992 1.42863202
vt -0.0851610005 1.41995895
vt 0.0308669992 1.42863202
vt -0.0789330006 1.42930698
vt -0.0789330006 1.42930698
vt 0.0308669992 1.42863202
vt 0.0251780003 1.43709004
vt -0.0789330006 1.42930698
vt 0.0251780003 1.43709004
vt -0.0713170022 1.43768299
vt -0.0713170022 1.43768299
vt 0.0251780003 1.43709004
vt 0.0180360004 1.44436204
vt -0.0713170022 1.43768299
vt 0.0180360004 1.44436204
vt -0.0625220016 1.444857
vt -0.0625220016 1.444857
vt 0.0180360004 1.44436204
vt 0.0096359998 1.45025098
vt -0.0625220016 1.444857
vt 0.0096359998 1.45025098
vt -0.0527869985 1.45063496
vt -0.0527869985 1.45063496
vt 0.0096359998 1.45025098
vt 0.000207999998 1.45459604
vt -0.0527869985 1.45063496
vt 0.000207999998 1.45459604
vt -0.0423789993 1.45485795
vt -0.0423789993 1.45485795
vt 0.000207999998 1.45459604
vt -0.00999199972 1.45727897
vt -0.0423789993 1.45485795
vt -0.00999199972 1.45727897
vt -0.0315800011 1.457412
vt -0.0315800011 1.457412
vt -0.00999199972 1.45727897
vt -0.0206850003 1.45822597
vt 0.0939349979 1.40075302
vt 0.0909480006 1.41126096
vt 0.0951550007 1.39008701
vt 0.0951550007 1.39008701
vt 0.0909480006 1.41126096
vt 0.0862770006 1.42132699
vt 0.0951550007 1.39008701
vt 0.0862770006 1.42132699
vt 0.0945760012 1.37955701
vt 0.0945760012 1.37955701
vt 0.0862770006 1.42132699
vt 0.0800490007 1.43067503
vt 0.0945760012 1.37955701
vt 0.0800490007 1.43067503
vt 0.0922140032 1.36944795
vt 0.0922140032 1.36944795
vt 0.0800490007 1.43067503
vt 0.0724330023 1.43905103
vt 0.0922140032 1.36944795
vt 0.0724330023 1.43905103
vt 0.0881320015 1.36003602
vt 0.0881320015 1.36003602
vt 0.0724330023 1.43905103
vt 0.0636380017 1.44622505
vt 0.0881320015 1.36003602
vt 0.0636380017 1.44622505
vt 0.0824429989 1.35157895
vt 0.0824429989 1.35157895
vt 0.0636380017 1.44622505
vt 0.0539029986 1.452003
vt 0.0824429989 1.35157895
vt 0.0539029986 1.452003
vt 0.075300999 1.34430599
vt 0.075300999 1.34430599
vt 0.0539029986 1.452003
vt 0.0434949994 1.45622599
vt 0.075300999 1.34430599
vt 0.0434949994 1.45622599
vt 0.0669009984 1.33841705
vt 0.0669009984 1.33841705
vt 0.0434949994 1.45622599
vt 0.0326960012 1.45878005
vt 0.0669009984 1.33841705
vt 0.0326960012 1.45878005
vt 0.0574730001 1.33407199
vt 0.0574730001 1.33407199
vt 0.0326960012 1.45878005
vt 0.0218010005 1.45959401
vt 0.0574730001 1.33407199
vt 0.0218010005 1.45959401
vt 0.0472729988 1.33139002
vt 0.0472729988 1.33139002
vt 0.0218010005 1.45959401
vt 0.0111079998 1.45864701
vt 0.0472729988 1.33139002
vt 0.0111079998 1.45864701
vt 0.0365800001 1.33044195
vt 0.0365800001 1.33044195
vt 0.0111079998 1.45864701
vt 0.000907999987 1.45596397
vt 0.0365800001 1.33044195
vt 0.000907999987 1.45596397
vt 0.0256859995 1.33125699
vt 0.0256859995 1.33125699
vt 0.000907999987 1.45596397
vt -0.00851999968 1.45161903
vt 0.0256859995 1.33125699
vt -0.00851999968 1.45161903
vt 0.0148870004 1.33381104
vt 0.0148870004 1.33381104
vt -0.00851999968 1.45161903
vt -0.0169200003 1.44572997
vt 0.0148870004 1.33381104
vt -0.0169200003 1.44572997
vt 0.0044780001 1.33803403
vt 0.0044780001 1.33803403
vt -0.0169200003 1.44572997
vt -0.024061 1.43845797
vt 0.0044780001 1.33803403
vt -0.024061 1.43845797
vt -0.00525700022 1.34381104
vt -0.00525700022 1.34381104
vt -0.024061 1.43845797
vt -0.0297510009 1.43000102
vt -0.00525700022 1.34381104
vt -0.0297510009 1.43000102
vt -0.0140519999 1.350986
vt -0.0140519999 1.350986
vt -0.0297510009 1.43000102
vt -0.0338319987 1.42058897
vt -0.0140519999 1.350986
vt -0.0338319987 1.42058897
vt -0.0216669999 1.35936105
vt -0.0216669999 1.35936105
vt -0.0338319987 1.42058897
vt -0.0361949988 1.41048002
vt -0.0216669999 1.35936105
vt -0.0361949988 1.41048002
vt -0.0278960001 1.36870897
vt -0.0278960001 1.36870897
vt -0.0361949988 1.41048002
vt -0.0367739983 1.39994895
vt -0.0278960001 1.36870897
vt -0.0367739983 1.39994895
vt -0.0325669982 1.378775
vt -0.0325669982 1.378775
vt -0.0367739983 1.39994895
vt -0.0355530009 1.38928401
f 1/1 2/2 3/3
f 3/4 2/5 4/6
f 3/7 4/8 5/9
f 5/10 4/11 6/12
f 5/13 6/14 7/15
f 7/16 6/17 8/18
f 7/19 8/20 9/21
f 9/22 8/23 10/24
f 9/25 10/26 11/27
f 11/28 10/29 12/30
f 11/31 12/32 13/33
f 13/34 12/35 14/36
f 13/37 14/38 15/39
f 15/40 14/41 16/42
f 15/43 16/44 17/45
f 17/46 16/47 18/48
f 17/49 18/50 19/51
f 19/52 18/53 20/54
f 19/55 20/56 21/57
f 21/58 20/59 22/60
f 21/61 22/62 23/63
f 23/64 22/65 24/66
f 23/67 24/68 25/69
f 25/70 24/71 26/72
f 25/73 26/74 27/75
f 27/76 26/77 28/78
f 27/79 28/80 29/81
f 29/82 28/83 30/84
f 29/85 30/86 31/87
f 31/88 30/89 32/90
f 31/91 32/92 33/93
f 33/94 32/95 34/96
f 33/97 34/98 35/99
f 35/100 34/101 36/102
f 35/103 36/104 37/105
f 37/106 36/107 38/108
f 39/109 40/110 41/111
f 41/112 40/113 42/114
f 41/115 42/116 43/117
f 43/118 42/119 44/120
f 43/121 44/122 45/123
f 45/124 44/125 46/126
f 45/127 46/128 47/129
f 47/130 46/131 48/132
f 47/133 48/134 49/135
f 49/136 48/137 50/138
f 49/139 50/140 51/141
f 51/142 50/143 52/144
f 51/145 52/146 53/147
f 53/148 52/149 54/150
f 53/151 54/152 55/153
f 55/154 54/155 56/156
f 55/157 56/158 57/159
f 57/160 56/161 58/162
f 57/163 58/164 59/165
f 59/166 58/167 60/168
f 59/169 60/170 61/171
f 61/172 60/173 62/174
f 61/175 62/176 63/177
f 63/178 62/179 64/180
f 63/181 64/182 65/183
f 65/184 64/185 66/186
f 65/187 66/188 67/189
f 67/190 66/191 68/192
f 67/193 68/194 69/195
f 69/196 68/197 70/198
f 69/199 70/200 71/201
f 71/202 70/203 72/204
f 71/205 72/206 73/207
f 73/208 72/209 74/210
f 73/211 74/212 75/213
f 75/214 74/215 76/216
