# Exported from USD for MuJoCo with source material subsets
v 7.13283786 -1.0635028 0.97500056
v 7.13259336 -1.0635028 0.976545662
v 7.13283786 -1.07325281 0.97500056
v 5.7792662 0.906282007 1.15500025
v 5.76969978 0.90661329 1.17500024
v 5.7792662 0.906282007 1.17500024
v 5.7888326 0.90661329 1.15500025
v 7.13283678 -4.86600131 0.97500056
v 7.13259205 -4.86600131 0.976545662
v 7.13283678 -4.8757512 0.97500056
v 5.17283698 -5.31450075 0.974999934
v 5.17308178 -5.31450075 0.976545036
v 5.17283698 -5.30475038 0.974999934
v 7.13283738 -2.948502 0.97500056
v 7.13259264 -2.948502 0.976545662
v 7.13283738 -2.95825213 0.97500056
v 5.17283818 -1.51200199 0.974999934
v 5.17308297 -1.51200199 0.976545036
v 5.17283818 -1.50225204 0.974999934
v 5.17283633 -7.29699987 0.974999934
v 5.17308112 -7.29699987 0.976545036
v 5.17283633 -7.28724951 0.974999934
v 7.13283619 -6.84850067 0.97500056
v 7.13259145 -6.84850067 0.976545662
v 7.13283619 -6.85825104 0.97500056
v 5.17283752 -3.39700145 0.974999934
v 5.17308238 -3.39700145 0.976545036
v 5.17283752 -3.38725132 0.974999934
v 7.10283657 -5.3372516 0.975000501
v 7.10283657 -5.33709234 0.976545602
v 7.08533665 -5.3372516 0.975000501
v 5.20283696 -5.33709139 0.976545095
v 5.22033694 -5.33725065 0.974999994
v 5.20283696 -5.33725065 0.974999994
v 7.10283657 -5.33591169 0.979045659
v 5.20283696 -5.33591074 0.979045182
v 7.08783659 -5.33400148 0.980000496
v 5.20283696 -5.33400053 0.979999989
v 7.10283657 -5.33400148 0.980000496
v 5.17283776 -2.94850129 0.974999934
v 5.17283776 -2.95825142 0.974999934
v 5.17308255 -2.94850129 0.976545036
v 7.08283802 -1.51850259 0.479962766
v 5.22283837 -1.518502 0.47996223
v 7.08283802 -1.51200259 0.479962766
v 5.22283837 -1.51200199 0.47996223
v 7.12783786 -1.0635028 0.980000556
v 7.12783786 -1.07631183 0.980000556
v 7.13077685 -1.0635028 0.979045719
v 7.13077685 -1.51200259 0.979045719
v 7.132593 -1.51200259 0.976545662
v 7.12783786 -1.51200259 0.980000556
v 5.22283729 -4.85950059 0.47996223
v 7.08283695 -4.8595013 0.479962766
v 5.22283729 -4.86600059 0.47996223
v 7.08283695 -4.86600131 0.479962766
v 5.22283717 -5.31450075 0.46996218
v 5.22283717 -5.32100052 0.46996218
v 7.08283683 -5.3145017 0.469962776
v 7.08283683 -5.32100147 0.469962776
v 7.08283612 -7.30350059 0.441112399
v 5.22283652 -7.30349964 0.441111922
v 7.08283612 -7.29700083 0.441112399
v 5.22283652 -7.29699987 0.441111922
v 5.17783781 -2.94850129 0.97999993
v 5.17489883 -2.94850129 0.979045093
v 5.17783781 -2.96131033 0.97999993
v 5.17489859 -3.39700145 0.979045093
v 5.17783758 -3.39700145 0.97999993
v 6.59484049 5.99588543 0.211152673
v 6.59484049 5.99913555 0.211152673
v 5.70484071 5.99588543 0.211152554
v 5.70484071 5.99913555 0.211152554
v 5.22283837 -1.51200199 0.441111922
v 7.08283802 -1.51200259 0.441112399
v 5.22283837 -1.518502 0.441111922
v 7.08283802 -1.51850259 0.441112399
v 7.13283786 -1.51200259 0.97500056
v 7.13283786 -1.5022527 0.97500056
v 7.08283814 -1.06350279 0.431112409
v 7.08283814 -1.0570028 0.431112409
v 5.22283849 -1.06350221 0.431111813
v 5.22283849 -1.05700222 0.431111813
v 7.10283598 -7.31975073 0.975000501
v 7.10283598 -7.31959146 0.976545602
v 7.08533593 -7.31975073 0.975000501
v 5.20283636 -7.31959051 0.976545095
v 5.22033634 -7.31974977 0.974999994
v 5.20283636 -7.31974977 0.974999994
v 7.10283598 -7.31841129 0.979045659
v 5.20283636 -7.31841034 0.979045182
v 7.08783599 -7.3165006 0.980000496
v 5.20283636 -7.31649965 0.979999989
v 7.10283598 -7.3165006 0.980000496
v 5.20283755 -3.41650146 0.979999989
v 5.20283755 -3.41841167 0.979045182
v 7.08783718 -3.41650194 0.980000496
v 7.10283717 -3.41841215 0.979045659
v 7.10283717 -3.41650194 0.980000496
v 5.20283755 -3.41959232 0.976545095
v 7.10283717 -3.4195928 0.976545602
v 7.08533725 -3.41975182 0.975000501
v 7.10283717 -3.41975182 0.975000501
v 5.22033753 -3.41975135 0.974999994
v 5.20283755 -3.41975135 0.974999994
v 7.12783595 -7.29700083 0.980000556
v 7.13077494 -7.29700083 0.979045719
v 7.12783619 -6.86130995 0.980000556
v 7.13077518 -6.84850067 0.979045719
v 7.12783619 -6.84850067 0.980000556
v 7.13259133 -7.29700083 0.976545662
v 5.22283849 -1.05700222 0.46996218
v 5.22283849 -1.06350221 0.46996218
v 7.08283814 -1.0570028 0.469962776
v 7.08283814 -1.06350279 0.469962776
v 5.1730813 -6.84849972 0.976545036
v 5.17283651 -6.85825008 0.974999934
v 5.17283651 -6.84849972 0.974999934
v 7.08283802 -1.51850259 0.469962776
v 7.08283802 -1.51200259 0.469962776
v 5.22283837 -1.518502 0.46996218
v 5.22283837 -1.51200199 0.46996218
v 7.08283635 -6.84850067 0.441112399
v 5.2228367 -6.84849972 0.441111922
v 7.08283635 -6.8420009 0.441112399
v 5.2228367 -6.84199995 0.441111922
v 5.1748974 -7.29699987 0.979045093
v 5.17489758 -6.84849972 0.979045093
v 5.17783662 -6.86130899 0.97999993
v 5.17783662 -6.84849972 0.97999993
v 5.17783638 -7.29699987 0.97999993
v 5.2228367 -6.84199995 0.431111813
v 5.2228367 -6.84849972 0.431111813
v 7.08283635 -6.8420009 0.431112409
v 7.08283635 -6.84850067 0.431112409
v 5.17308309 -1.06350219 0.976545036
v 5.1728383 -1.0732522 0.974999934
v 5.1728383 -1.06350219 0.974999934
v 7.10283669 -4.84325141 0.975000501
v 7.08533677 -4.84325141 0.975000501
v 7.10283669 -4.84387177 0.977939397
v 5.20283707 -4.8438713 0.97793889
v 5.20283707 -4.8454966 0.979755431
v 7.10283669 -4.84549707 0.979755908
v 7.08783671 -4.84650129 0.980000496
v 7.10283669 -4.84650129 0.980000496
v 5.20283707 -4.84650058 0.979999989
v 5.22033712 -4.84325093 0.974999994
v 5.20283707 -4.84325093 0.974999994
v 5.22283729 -4.85950059 0.431111813
v 5.22283729 -4.86600059 0.431111813
v 7.08283695 -4.8595013 0.431112409
v 7.08283695 -4.86600131 0.431112409
v 5.17783817 -1.51200199 0.97999993
v 5.17783835 -1.07631122 0.97999993
v 5.17489919 -1.51200199 0.979045093
v 5.1748993 -1.06350219 0.979045093
v 5.17783835 -1.06350219 0.97999993
v 7.10283622 -6.82575077 0.975000501
v 7.08533617 -6.82575077 0.975000501
v 7.10283622 -6.82637113 0.977939397
v 5.20283648 -6.82637018 0.97793889
v 5.20283648 -6.82799572 0.979755431
v 7.10283622 -6.82799667 0.979755908
v 7.08783611 -6.82900089 0.980000496
v 7.10283622 -6.82900089 0.980000496
v 5.20283648 -6.82899994 0.979999989
v 5.22033652 -6.82574981 0.974999994
v 5.20283648 -6.82574981 0.974999994
v 7.13259264 -3.39700192 0.976545662
v 7.13283714 -3.38725156 0.97500056
v 7.13283714 -3.39700192 0.97500056
v 5.22283837 -1.51200199 0.431111813
v 5.22283837 -1.518502 0.431111813
v 7.08283802 -1.51200259 0.431112409
v 7.08283802 -1.51850259 0.431112409
v 7.12783738 -2.948502 0.980000556
v 7.12783738 -2.96131104 0.980000556
v 7.13077637 -2.948502 0.979045719
v 7.13077625 -3.39700192 0.979045719
v 7.12783715 -3.39700192 0.980000556
v 5.20283815 -1.53150207 0.979999989
v 5.20283815 -1.53341234 0.979045182
v 7.08783778 -1.53150266 0.980000496
v 7.10283777 -1.53341293 0.979045659
v 7.10283777 -1.53150266 0.980000496
v 5.20283815 -1.53459293 0.976545095
v 7.10283777 -1.53459352 0.976545602
v 7.08533784 -1.53475261 0.975000501
v 7.10283777 -1.53475261 0.975000501
v 5.22033813 -1.53475201 0.974999994
v 5.20283815 -1.53475201 0.974999994
v 5.22283771 -3.39700145 0.441111922
v 7.08283743 -3.39700192 0.441112399
v 5.22283771 -3.40350145 0.441111922
v 7.08283743 -3.40350193 0.441112399
v 7.08283612 -7.31344169 0.457430184
v 7.08283612 -7.31344169 0.447430193
v 7.08283612 -7.31975073 0.457430184
v 7.08283612 -7.31975073 0.447430193
v 5.22283652 -7.31344074 0.447429597
v 5.22283652 -7.31344074 0.457429588
v 5.17308196 -4.86600059 0.976545036
v 5.1728371 -4.87575048 0.974999934
v 5.1728371 -4.86600059 0.974999934
v 5.22283652 -7.31974977 0.447429597
v 5.22283837 -1.52844298 0.447429597
v 5.22283837 -1.52844298 0.457429588
v 5.22283837 -1.53475201 0.447429597
v 5.22283837 -1.53475201 0.457429588
v 7.08283802 -1.52844358 0.447430193
v 7.08283802 -1.52844358 0.457430184
v 7.08283802 -1.53475261 0.457430184
v 7.08283802 -1.53475261 0.447430193
v 5.1778371 -5.31450075 0.97999993
v 5.17783722 -4.87880987 0.97999993
v 5.17489805 -5.31450075 0.979045093
v 5.17489817 -4.86600059 0.979045093
v 5.17783722 -4.86600059 0.97999993
v 7.08283635 -6.82575077 0.457430184
v 7.08283635 -6.8320598 0.457430184
v 5.2228367 -6.82574981 0.457429588
v 5.2228367 -6.83205932 0.457429588
v 7.13259193 -5.3145017 0.976545662
v 7.13283666 -5.30475181 0.97500056
v 7.13283666 -5.3145017 0.97500056
v 5.2228367 -6.82574981 0.447429597
v 5.2228367 -6.83205932 0.447429597
v 7.08283635 -6.8320598 0.447430193
v 7.08283635 -6.82575077 0.447430193
v 7.08283814 -1.04075281 0.457430184
v 7.08283814 -1.04075281 0.447430193
v 7.08283814 -1.04706184 0.457430184
v 7.08283814 -1.04706184 0.447430193
v 5.22283849 -1.04706126 0.457429588
v 5.22283855 -1.04075223 0.457429588
v 7.12783679 -4.86600131 0.980000556
v 7.12783679 -4.87881035 0.980000556
v 7.13077565 -4.86600131 0.979045719
v 7.13077565 -5.3145017 0.979045719
v 7.12783667 -5.3145017 0.980000556
v 7.08283683 -5.32100147 0.441112399
v 5.22283717 -5.32100052 0.441111922
v 7.08283683 -5.3145017 0.441112399
v 5.22283717 -5.31450075 0.441111922
v 5.22283849 -1.04706126 0.447429597
v 5.22283711 -5.33725065 0.457429588
v 5.22283711 -5.33725065 0.447429597
v 5.22283711 -5.33094162 0.457429588
v 5.22283711 -5.33094162 0.447429597
v 7.08283671 -5.33094257 0.447430193
v 7.08283671 -5.3372516 0.447430193
v 7.08283671 -5.33094257 0.457430184
v 7.08283671 -5.3372516 0.457430184
v 7.08283695 -4.8495602 0.447430193
v 7.08283695 -4.8495602 0.457430184
v 7.08283695 -4.84325141 0.447430193
v 7.08283695 -4.84325141 0.457430184
v 5.22283729 -4.84955972 0.447429597
v 5.22283729 -4.84325093 0.447429597
v 5.22283729 -4.84325093 0.457429588
v 5.22283729 -4.84955972 0.457429588
v 5.20283773 -2.92900163 0.979999989
v 7.08783742 -2.92900211 0.980000496
v 5.20283773 -2.92799717 0.979755431
v 7.10283741 -2.92799765 0.979755908
v 7.10283741 -2.92637283 0.977939397
v 5.20283773 -2.92637235 0.97793889
v 7.08533737 -2.92575187 0.975000501
v 5.22033771 -2.92575139 0.974999994
v 5.20283773 -2.92575139 0.974999994
v 7.10283741 -2.92900211 0.980000496
v 7.10283741 -2.92575187 0.975000501
v 5.22283771 -3.41975135 0.457429588
v 5.22283771 -3.41975135 0.447429597
v 5.22283771 -3.41344231 0.457429588
v 5.22283771 -3.41344231 0.447429597
v 7.08283743 -3.41344279 0.447430193
v 7.08283743 -3.41975182 0.447430193
v 7.08283743 -3.41344279 0.457430184
v 7.08283743 -3.41975182 0.457430184
v 5.22283789 -2.9420014 0.47996223
v 7.08283755 -2.94200188 0.479962766
v 5.22283789 -2.94850129 0.47996223
v 7.08283755 -2.948502 0.479962766
v 5.7888326 0.90661329 1.17500024
v 5.79334527 0.907002151 1.15500025
v 5.79334527 0.907002151 1.17500024
v 5.7982906 0.9076038 1.15500025
v 5.7982906 0.9076038 1.17500024
v 5.8070777 0.909145057 1.15500025
v 5.8070777 0.909145057 1.17500024
v 5.80753308 0.909242093 1.15500025
v 5.80753308 0.909242093 1.17500024
v 5.81645527 0.911509811 1.15500025
v 5.81645527 0.911509811 1.17500024
v 5.82012531 0.912658035 1.15500025
v 5.82012531 0.912658035 1.17500024
v 5.82495608 0.914380967 1.15500025
v 5.82495608 0.914380967 1.17500024
v 5.83216685 0.917454421 1.15500025
v 5.83216685 0.917454421 1.17500024
v 5.83293922 0.917823255 1.15500025
v 5.83293922 0.917823255 1.17500024
v 5.84031423 0.921797573 1.15500025
v 5.84031423 0.921797573 1.17500024
v 5.84290575 0.923416197 1.15500025
v 5.84290575 0.923416197 1.17500024
v 5.84699752 0.926258862 1.15500025
v 5.84699752 0.926258862 1.17500024
v 5.8520777 0.930396378 1.15500025
v 5.8520777 0.930396378 1.17500024
v 5.85291342 0.931156933 1.15500025
v 5.85291342 0.931156933 1.17500024
v 5.85799483 0.936435759 1.15500025
v 5.85799483 0.936435759 1.17500024
v 5.85945676 0.938223421 1.15500025
v 5.85945676 0.938223421 1.17500024
v 5.86218424 0.942035496 1.15500025
v 5.86218424 0.942035496 1.17500024
v 5.86486127 0.946704447 1.15500025
v 5.86486127 0.946704447 1.17500024
v 5.86543413 0.947893321 1.15500025
v 5.86543413 0.947893321 1.17500024
v 5.86770775 0.953942358 1.15500025
v 5.86770775 0.953942358 1.17500024
v 5.86815814 0.955630481 1.15500025
v 5.86815814 0.955630481 1.17500024
v 5.86897928 0.960114419 1.15500025
v 5.86897928 0.960114419 1.17500024
v 5.86926621 0.96478194 1.15500025
v 5.86926621 0.96478194 1.17500024
v 5.8692343 0.96633929 1.15500025
v 5.8692343 0.96633929 1.17500024
v 5.86846993 0.972546279 1.15500025
v 5.86846993 0.972546279 1.17500024
v 5.86815814 0.973933398 1.15500025
v 5.86815814 0.973933398 1.17500024
v 5.86669488 0.978665411 1.15500025
v 5.86669488 0.978665411 1.17500024
v 5.8648613 0.982859432 1.15500025
v 5.8648613 0.982859432 1.17500024
v 5.86392924 0.984627306 1.15500025
v 5.86392924 0.984627306 1.17500024
v 5.86020427 0.990364372 1.15500025
v 5.86020427 0.990364372 1.17500024
v 5.85945679 0.991340458 1.15500025
v 5.85945679 0.991340458 1.17500024
v 5.85556229 0.995811522 1.15500025
v 5.85556229 0.995811522 1.17500024
v 5.85207773 0.999167263 1.15500025
v 5.85207773 0.999167263 1.17500024
v 5.85005582 1.000907 1.15500025
v 5.85005582 1.000907 1.17500024
v 5.84374731 1.00559336 1.15500025
v 5.84374731 1.00559336 1.17500024
v 5.84290578 1.00614756 1.15500025
v 5.84290578 1.00614756 1.17500024
v 5.83670812 1.00981694 1.15500025
v 5.83670812 1.00981694 1.17500024
v 5.83216688 1.01210946 1.15500025
v 5.83216688 1.01210946 1.17500024
v 5.82901819 1.01353067 1.15500025
v 5.82901819 1.01353067 1.17500024
v 5.82076454 1.01669186 1.15500025
v 5.82076454 1.01669186 1.17500024
v 5.82012534 1.01690584 1.15500025
v 5.82012534 1.01690584 1.17500024
v 5.81204065 1.01926523 1.15500025
v 5.81204065 1.01926523 1.17500024
v 5.80707773 1.0204187 1.15500025
v 5.80707773 1.0204187 1.17500024
v 5.80294543 1.02122074 1.15500025
v 5.80294543 1.02122074 1.17500024
v 5.79358193 1.02253705 1.15500025
v 5.79358193 1.02253705 1.17500024
v 5.7933453 1.02256149 1.15500025
v 5.7933453 1.02256149 1.17500024
v 5.78405624 1.0231989 1.15500025
v 5.78405624 1.0231989 1.17500024
v 5.77926623 1.02328187 1.15500025
v 5.77926623 1.02328187 1.17500024
v 5.77447622 1.0231989 1.15500025
v 5.77447622 1.0231989 1.17500024
v 5.76518711 1.02256149 1.15500025
v 5.76518711 1.02256149 1.17500024
v 5.76495048 1.02253705 1.15500025
v 5.76495048 1.02253705 1.17500024
v 5.75558698 1.02122074 1.15500025
v 5.75558698 1.02122074 1.17500024
v 5.75145471 1.0204187 1.15500025
v 5.75145471 1.0204187 1.17500024
v 5.74649181 1.01926523 1.15500025
v 5.74649181 1.01926523 1.17500024
v 5.7384071 1.01690584 1.15500025
v 5.7384071 1.01690584 1.17500024
v 5.73776787 1.01669186 1.15500025
v 5.73776787 1.01669186 1.17500024
v 5.72951421 1.01353067 1.15500025
v 5.72951421 1.01353067 1.17500024
v 5.72636553 1.01210946 1.15500025
v 5.72636553 1.01210946 1.17500024
v 5.72182425 1.00981694 1.15500025
v 5.72182425 1.00981694 1.17500024
v 5.71562662 1.00614756 1.15500025
v 5.71562662 1.00614756 1.17500024
v 5.71478512 1.00559336 1.15500025
v 5.71478512 1.00559336 1.17500024
v 5.7084766 1.000907 1.15500025
v 5.7084766 1.000907 1.17500024
v 5.70645469 0.999167263 1.15500025
v 5.70645469 0.999167263 1.17500024
v 5.70297011 0.995811522 1.15500025
v 5.70297011 0.995811522 1.17500024
v 5.69907563 0.991340458 1.15500025
v 5.69907563 0.991340458 1.17500024
v 5.69832813 0.990364372 1.15500025
v 5.69832813 0.990364372 1.17500024
v 5.69460317 0.984627306 1.15500025
v 5.69460317 0.984627306 1.17500024
v 5.69367113 0.982859432 1.15500025
v 5.69367113 0.982859432 1.17500024
v 5.69183751 0.978665411 1.15500025
v 5.69183751 0.978665411 1.17500024
v 5.69037428 0.973933398 1.15500025
v 5.69037428 0.973933398 1.17500024
v 5.69006246 0.972546279 1.15500025
v 5.69006246 0.972546279 1.17500024
v 5.68929809 0.96633929 1.15500025
v 5.68929809 0.96633929 1.17500024
v 5.68926623 0.96478194 1.15500025
v 5.68926623 0.96478194 1.17500024
v 5.68955317 0.960114419 1.15500025
v 5.68955317 0.960114419 1.17500024
v 5.69037428 0.955630481 1.15500025
v 5.69037428 0.955630481 1.17500024
v 5.69082465 0.953942358 1.15500025
v 5.69082465 0.953942358 1.17500024
v 5.69309821 0.947893321 1.15500025
v 5.69309821 0.947893321 1.17500024
v 5.6936711 0.946704447 1.15500025
v 5.6936711 0.946704447 1.17500024
v 5.6963481 0.942035496 1.15500025
v 5.6963481 0.942035496 1.17500024
v 5.6990756 0.938223421 1.15500025
v 5.6990756 0.938223421 1.17500024
v 5.7005375 0.936435759 1.15500025
v 5.7005375 0.936435759 1.17500024
v 5.70561894 0.931156933 1.15500025
v 5.70561894 0.931156933 1.17500024
v 5.70645469 0.930396378 1.15500025
v 5.70645469 0.930396378 1.17500024
v 5.71153482 0.926258862 1.15500025
v 5.71153482 0.926258862 1.17500024
v 5.71562659 0.923416197 1.15500025
v 5.71562659 0.923416197 1.17500024
v 5.71821814 0.921797573 1.15500025
v 5.71821814 0.921797573 1.17500024
v 5.72559314 0.917823255 1.15500025
v 5.72559314 0.917823255 1.17500024
v 5.7263655 0.917454421 1.15500025
v 5.7263655 0.917454421 1.17500024
v 5.73357629 0.914380967 1.15500025
v 5.73357629 0.914380967 1.17500024
v 5.73840707 0.912658035 1.15500025
v 5.73840707 0.912658035 1.17500024
v 5.74207711 0.911509811 1.15500025
v 5.74207711 0.911509811 1.17500024
v 5.7509993 0.909242093 1.15500025
v 5.7509993 0.909242093 1.17500024
v 5.75145468 0.909145057 1.15500025
v 5.75145468 0.909145057 1.17500024
v 5.76024177 0.9076038 1.15500025
v 5.76024177 0.9076038 1.17500024
v 5.76518708 0.907002151 1.15500025
v 5.76518708 0.907002151 1.17500024
v 5.76969978 0.90661329 1.15500025
v 7.08283755 -2.93206102 0.457430184
v 7.08283755 -2.93206102 0.447430193
v 5.22283789 -2.93206054 0.457429588
v 5.22283789 -2.93206054 0.447429597
v 5.22283789 -2.92575139 0.447429597
v 5.22283789 -2.92575139 0.457429588
v 7.08283755 -2.92575187 0.457430184
v 7.08283755 -2.948502 0.469962776
v 7.08283755 -2.94200188 0.469962776
v 5.22283789 -2.94850129 0.46996218
v 5.22283789 -2.9420014 0.46996218
v 5.22283771 -3.39700145 0.431111813
v 5.22283771 -3.40350145 0.431111813
v 7.08283743 -3.39700192 0.431112409
v 7.08283743 -3.40350193 0.431112409
v 5.20283833 -1.04400222 0.979999989
v 7.0878379 -1.04400281 0.980000496
v 5.20283833 -1.04299791 0.979755431
v 7.10283789 -1.04299851 0.979755908
v 7.10283789 -1.04137349 0.977939397
v 5.20283833 -1.0413729 0.97793889
v 7.08533796 -1.04075281 0.975000501
v 5.22033837 -1.04075223 0.974999994
v 5.20283833 -1.04075222 0.974999994
v 7.10283789 -1.04400281 0.980000496
v 7.10283789 -1.04075281 0.975000501
v 7.08283743 -3.40350193 0.479962766
v 5.22283771 -3.40350145 0.47996223
v 7.08283743 -3.39700192 0.479962766
v 5.22283771 -3.39700145 0.47996223
v 5.22283789 -2.9420014 0.431111813
v 5.22283789 -2.94850129 0.431111813
v 7.08283755 -2.94200188 0.431112409
v 7.08283755 -2.948502 0.431112409
v 7.08283814 -1.06350279 0.479962766
v 5.22283849 -1.06350221 0.47996223
v 7.08283814 -1.0570028 0.479962766
v 5.22283849 -1.05700222 0.47996223
v 7.08283683 -5.32100147 0.479962766
v 5.22283717 -5.32100052 0.47996223
v 7.08283683 -5.3145017 0.479962766
v 5.22283717 -5.31450075 0.47996223
v 7.08283612 -7.30350059 0.479962766
v 5.22283652 -7.30349964 0.47996223
v 7.08283612 -7.29700083 0.479962766
v 5.22283652 -7.29699987 0.47996223
v 7.08283612 -7.30350059 0.431112409
v 7.08283612 -7.29700083 0.431112409
v 5.22283652 -7.30349964 0.431111813
v 5.22283652 -7.29699987 0.431111813
v 7.08283683 -5.32100147 0.431112409
v 7.08283683 -5.3145017 0.431112409
v 5.22283717 -5.32100052 0.431111813
v 5.22283717 -5.31450075 0.431111813
v 7.08283755 -2.948502 0.441112399
v 5.22283789 -2.94850129 0.441111922
v 7.08283755 -2.94200188 0.441112399
v 5.22283789 -2.9420014 0.441111922
v 7.13283595 -7.28725046 0.97500056
v 7.13283595 -7.29700083 0.97500056
v 5.22283652 -7.31974977 0.457429588
v 5.22283855 -1.04075223 0.447429597
v 7.08283755 -2.92575187 0.447430193
v 6.59484049 5.99588543 0.170632124
v 5.70484071 5.99588543 0.170631766
v 6.59484049 5.99913555 0.170632124
v 5.70484071 5.99913555 0.170631766
v 7.08283695 -4.86600131 0.441112399
v 5.22283729 -4.86600059 0.441111922
v 7.08283695 -4.8595013 0.441112399
v 5.22283729 -4.85950059 0.441111922
v 5.22283729 -4.85950059 0.46996218
v 5.22283729 -4.86600059 0.46996218
v 7.08283695 -4.8595013 0.469962776
v 7.08283695 -4.86600131 0.469962776
v 5.22283771 -3.39700145 0.46996218
v 5.22283771 -3.40350145 0.46996218
v 7.08283743 -3.39700192 0.469962776
v 7.08283743 -3.40350193 0.469962776
v 7.08283635 -6.84850067 0.469962776
v 7.08283635 -6.8420009 0.469962776
v 5.2228367 -6.84849972 0.46996218
v 5.2228367 -6.84199995 0.46996218
v 7.08283814 -1.06350279 0.441112399
v 5.22283849 -1.06350221 0.441111922
v 7.08283814 -1.0570028 0.441112399
v 5.22283849 -1.05700222 0.441111922
v 5.22283652 -7.29699987 0.46996218
v 5.22283652 -7.30349964 0.46996218
v 7.08283612 -7.29700083 0.469962776
v 7.08283612 -7.30350059 0.469962776
v 7.08283635 -6.84850067 0.479962766
v 5.2228367 -6.84849972 0.47996223
v 7.08283635 -6.8420009 0.479962766
v 5.2228367 -6.84199995 0.47996223
v 5.70113632 -7.88850015 0.170631766
v 6.59113618 -7.88850015 0.170632124
v 5.70113632 -7.8917498 0.170631766
v 6.59113618 -7.8917498 0.170632124
v 5.70113632 -7.88850015 0.211152554
v 5.70113632 -7.8917498 0.211152554
v 6.59113618 -7.88850015 0.211152673
v 6.59113618 -7.8917498 0.211152673
vt 0.975000024 0.180300996
vt 0.976544976 0.180300996
vt 0.975000024 0.195300996
vt 0.373573005 1.15499997
vt 0.383139014 1.17499995
vt 0.373573005 1.17499995
vt 0.373573005 1.17499995
vt 0.364006996 1.15499997
vt 0.373573005 1.15499997
vt 0.975000024 6.03030109
vt 0.976544976 6.03030109
vt 0.975000024 6.04530001
vt -0.975000024 6.72030115
vt -0.976544976 6.72030115
vt -0.975000024 6.70529985
vt 0.975000024 3.08030009
vt 0.976544976 3.08030009
vt 0.975000024 3.09530091
vt -0.975000024 0.870301008
vt -0.976544976 0.870301008
vt -0.975000024 0.855301023
vt -0.975000024 9.77030087
vt -0.976544976 9.77030087
vt -0.975000024 9.75529957
vt 0.975000024 9.08030033
vt 0.976544976 9.08030033
vt 0.975000024 9.09530067
vt -0.975000024 3.77029991
vt -0.976544976 3.77029991
vt -0.975000024 3.755301
vt 0.949999988 0.975000024
vt 0.949999988 0.976544976
vt 0.932500005 0.975000024
vt 0.932500005 0.975000024
vt 0.949999988 0.976544976
vt -0.949999988 0.976544976
vt 0.932500005 0.975000024
vt -0.949999988 0.976544976
vt -0.932500005 0.975000024
vt -0.932500005 0.975000024
vt -0.949999988 0.976544976
vt -0.949999988 0.975000024
vt 0.949999988 0.976544976
vt 0.949999988 0.979044974
vt -0.949999988 0.976544976
vt -0.976544976 6.75505495
vt -0.979044974 6.75324011
vt -0.979044974 6.75324011
vt -0.949999988 0.976544976
vt 0.949999988 0.979044974
vt -0.949999988 0.979044974
vt 0.949999988 6.75324011
vt -0.949999988 6.75324011
vt -0.935000002 6.75029993
vt 0.949999988 6.75324011
vt -0.935000002 6.75029993
vt 0.949999988 6.75029993
vt -0.949999988 6.75029993
vt -0.935000002 6.75029993
vt -0.949999988 6.75324011
vt -0.975000024 3.08030009
vt -0.975000024 3.09530091
vt -0.976544976 3.08030009
vt -0.976544976 3.08030009
vt -0.975000024 3.09530091
vt -0.975000024 3.755301
vt 0.930000007 0.880300999
vt -0.930000007 0.880300999
vt 0.930000007 0.870301008
vt 0.930000007 0.870301008
vt -0.930000007 0.880300999
vt -0.930000007 0.870301008
vt -0.975000024 0.180300996
vt -0.975000024 0.200007007
vt -0.97793901 0.180300996
vt -0.97793901 0.180300996
vt -0.975000024 0.200007007
vt -0.97793901 0.870301008
vt -0.979044974 0.180300996
vt -0.979044974 0.870301008
vt -0.979044974 0.180300996
vt 0.979044974 0.180300996
vt 0.979044974 0.870301008
vt 0.976544976 0.870301008
vt 0.979044974 0.180300996
vt 0.976544976 0.870301008
vt 0.976544976 0.180300996
vt 0.976544976 0.180300996
vt 0.976544976 0.870301008
vt 0.975000024 0.195300996
vt -0.975000024 0.870301008
vt -0.97793901 0.870301008
vt -0.975000024 0.200007007
vt -0.930000007 6.02029991
vt 0.930000007 6.02029991
vt -0.930000007 6.03030109
vt -0.930000007 6.03030109
vt 0.930000007 6.02029991
vt 0.930000007 6.03030109
vt 0.930000007 6.72030115
vt 0.930000007 6.73029995
vt -0.930000007 6.72030115
vt -0.930000007 6.72030115
vt 0.930000007 6.73029995
vt -0.930000007 6.73029995
vt 0.930000007 9.78030014
vt -0.930000007 9.78030014
vt 0.930000007 9.77030087
vt 0.930000007 9.77030087
vt -0.930000007 9.78030014
vt -0.930000007 9.77030087
vt 0.975000024 3.08030009
vt 0.97793901 3.08030009
vt 0.975000024 3.10000706
vt 0.975000024 3.10000706
vt 0.97793901 3.08030009
vt 0.97793901 3.77029991
vt 0.975000024 3.10000706
vt 0.97793901 3.77029991
vt 0.975000024 3.77029991
vt -0.979044974 3.08030009
vt -0.976544976 3.08030009
vt -0.979044974 3.77029991
vt -0.979044974 3.77029991
vt -0.976544976 3.08030009
vt -0.976544976 3.08030009
vt -0.979044974 3.77029991
vt -0.976544976 3.08030009
vt -0.976544976 3.77029991
vt -0.976544976 3.77029991
vt -0.976544976 3.08030009
vt -0.975000024 3.755301
vt -0.442000002 -10.6802988
vt -0.442000002 -10.6852989
vt 0.448000014 -10.6802988
vt 0.448000014 -10.6802988
vt -0.442000002 -10.6852989
vt 0.448000014 -10.6852989
vt -0.930000007 0.870301008
vt 0.930000007 0.870301008
vt -0.930000007 0.880300999
vt -0.930000007 0.880300999
vt 0.930000007 0.870301008
vt 0.930000007 0.880300999
vt 0.975000024 0.870301008
vt 0.975000024 0.855301023
vt 0.976544976 0.870301008
vt 0.976544976 0.870301008
vt 0.975000024 0.855301023
vt 0.975000024 0.195300996
vt -0.930000007 0.180300996
vt -0.930000007 0.170301005
vt 0.930000007 0.180300996
vt 0.930000007 0.180300996
vt -0.930000007 0.170301005
vt 0.930000007 0.170301005
vt 0.949999988 0.975000024
vt 0.949999988 0.976544976
vt 0.932500005 0.975000024
vt 0.932500005 0.975000024
vt 0.949999988 0.976544976
vt -0.949999988 0.976544976
vt 0.932500005 0.975000024
vt -0.949999988 0.976544976
vt -0.932500005 0.975000024
vt -0.932500005 0.975000024
vt -0.949999988 0.976544976
vt -0.949999988 0.975000024
vt 0.949999988 0.976544976
vt 0.949999988 0.979044974
vt -0.949999988 0.976544976
vt -0.976544976 9.80505562
vt -0.979044974 9.80323887
vt -0.979044974 9.80323887
vt -0.949999988 0.976544976
vt 0.949999988 0.979044974
vt -0.949999988 0.979044974
vt 0.949999988 9.80323887
vt -0.949999988 9.80323887
vt -0.935000002 9.8003006
vt 0.949999988 9.80323887
vt -0.935000002 9.8003006
vt 0.949999988 9.8003006
vt -0.949999988 9.8003006
vt -0.935000002 9.8003006
vt -0.949999988 9.80323887
vt 0.949999988 3.80030107
vt 0.949999988 3.80323911
vt -0.935000002 3.80030107
vt -0.935000002 3.80030107
vt 0.949999988 3.80323911
vt -0.949999988 3.80323911
vt -0.935000002 3.80030107
vt -0.949999988 3.80323911
vt -0.949999988 3.80030107
vt -0.949999988 0.979044974
vt -0.949999988 0.976544976
vt 0.949999988 0.979044974
vt -0.979044974 3.80323911
vt -0.976544976 3.8050561
vt -0.976544976 3.8050561
vt 0.949999988 0.979044974
vt -0.949999988 0.976544976
vt 0.949999988 0.976544976
vt 0.949999988 0.976544976
vt -0.949999988 0.976544976
vt 0.932500005 0.975000024
vt 0.949999988 0.976544976
vt 0.932500005 0.975000024
vt 0.949999988 0.975000024
vt 0.932500005 0.975000024
vt -0.949999988 0.976544976
vt -0.932500005 0.975000024
vt -0.932500005 0.975000024
vt -0.949999988 0.976544976
vt -0.949999988 0.975000024
vt -0.975000024 9.77030087
vt -0.97793901 9.77030087
vt -0.975000024 9.1000061
vt -0.975000024 9.1000061
vt -0.97793901 9.77030087
vt -0.97793901 9.08030033
vt -0.975000024 9.1000061
vt -0.97793901 9.08030033
vt -0.975000024 9.08030033
vt 0.979044974 9.77030087
vt 0.976544976 9.77030087
vt 0.979044974 9.08030033
vt -0.979044974 9.08030033
vt -0.976544976 9.77030087
vt -0.976544976 9.77030087
vt 0.979044974 9.08030033
vt 0.976544976 9.77030087
vt 0.976544976 9.08030033
vt 0.976544976 9.08030033
vt 0.976544976 9.77030087
vt 0.975000024 9.09530067
vt 0.930000007 0.170301005
vt 0.930000007 0.180300996
vt -0.930000007 0.170301005
vt -0.930000007 0.170301005
vt 0.930000007 0.180300996
vt -0.930000007 0.180300996
vt -0.975000024 9.75529957
vt -0.976544976 9.08030033
vt -0.975000024 9.09530067
vt -0.975000024 9.09530067
vt -0.976544976 9.08030033
vt -0.975000024 9.08030033
vt -0.930000007 0.880300999
vt -0.930000007 0.870301008
vt 0.930000007 0.880300999
vt 0.930000007 0.880300999
vt -0.930000007 0.870301008
vt 0.930000007 0.870301008
vt 0.930000007 9.08030033
vt -0.930000007 9.08030033
vt 0.930000007 9.07030106
vt 0.930000007 9.07030106
vt -0.930000007 9.08030033
vt -0.930000007 9.07030106
vt -0.975000024 9.75529957
vt -0.976544976 9.77030087
vt -0.976544976 9.08030033
vt -0.976544976 9.08030033
vt -0.976544976 9.77030087
vt -0.979044974 9.77030087
vt -0.976544976 9.08030033
vt -0.979044974 9.77030087
vt -0.979044974 9.08030033
vt 0.97793901 9.08030033
vt 0.97793901 9.77030087
vt 0.975000024 9.1000061
vt 0.97793901 9.08030033
vt 0.975000024 9.1000061
vt 0.975000024 9.08030033
vt 0.975000024 9.77030087
vt 0.975000024 9.1000061
vt 0.97793901 9.77030087
vt 0.930000007 9.07030106
vt 0.930000007 9.08030033
vt -0.930000007 9.07030106
vt -0.930000007 9.07030106
vt 0.930000007 9.08030033
vt -0.930000007 9.08030033
vt -0.975000024 0.855301023
vt -0.976544976 0.180300996
vt -0.975000024 0.195300996
vt -0.975000024 0.195300996
vt -0.976544976 0.180300996
vt -0.975000024 0.180300996
vt -0.949999988 0.975000024
vt -0.932500005 0.975000024
vt -0.949999988 0.97793901
vt -0.949999988 0.97793901
vt -0.932500005 0.975000024
vt 0.949999988 0.97793901
vt -0.97793901 5.99625492
vt -0.97793901 5.99625492
vt -0.97793901 5.99625492
vt -0.949999988 5.99625492
vt 0.949999988 5.99625492
vt 0.949999988 5.99875498
vt -0.949999988 5.99625492
vt 0.949999988 5.99875498
vt -0.949999988 5.99875498
vt -0.949999988 5.99875498
vt 0.949999988 5.99875498
vt -0.935000002 6.00029993
vt -0.949999988 5.99875498
vt -0.935000002 6.00029993
vt -0.949999988 6.00029993
vt 0.949999988 6.00029993
vt -0.935000002 6.00029993
vt 0.949999988 5.99875498
vt -0.932500005 0.975000024
vt 0.932500005 0.975000024
vt 0.949999988 0.97793901
vt 0.949999988 0.97793901
vt 0.932500005 0.975000024
vt 0.949999988 0.975000024
vt 0.930000007 6.02029991
vt 0.930000007 6.03030109
vt -0.930000007 6.02029991
vt -0.930000007 6.02029991
vt 0.930000007 6.03030109
vt -0.930000007 6.03030109
vt 0.975000024 0.870301008
vt 0.975000024 0.200007007
vt 0.97793901 0.870301008
vt 0.97793901 0.870301008
vt 0.975000024 0.200007007
vt 0.97793901 0.180300996
vt -0.979044974 0.870301008
vt -0.979044974 0.180300996
vt -0.979044974 0.870301008
vt -0.979044974 0.870301008
vt -0.979044974 0.180300996
vt -0.976544976 0.180300996
vt -0.979044974 0.870301008
vt -0.976544976 0.180300996
vt -0.976544976 0.870301008
vt -0.976544976 0.870301008
vt -0.976544976 0.180300996
vt -0.975000024 0.855301023
vt 0.975000024 0.180300996
vt 0.97793901 0.180300996
vt 0.975000024 0.200007007
vt -0.949999988 0.975000024
vt -0.932500005 0.975000024
vt -0.949999988 0.97793901
vt -0.949999988 0.97793901
vt -0.932500005 0.975000024
vt 0.949999988 0.97793901
vt -0.97793901 9.04625511
vt -0.97793901 9.04625511
vt -0.97793901 9.04625511
vt -0.949999988 9.04625511
vt 0.949999988 9.04625511
vt 0.949999988 9.04875565
vt -0.949999988 9.04625511
vt 0.949999988 9.04875565
vt -0.949999988 9.04875565
vt -0.949999988 9.04875565
vt 0.949999988 9.04875565
vt -0.935000002 9.0503006
vt -0.949999988 9.04875565
vt -0.935000002 9.0503006
vt -0.949999988 9.0503006
vt 0.949999988 9.0503006
vt -0.935000002 9.0503006
vt 0.949999988 9.04875565
vt -0.932500005 0.975000024
vt 0.932500005 0.975000024
vt 0.949999988 0.97793901
vt 0.949999988 0.97793901
vt 0.932500005 0.975000024
vt 0.949999988 0.975000024
vt 0.975000024 3.09530091
vt 0.976544976 3.77029991
vt 0.975000024 3.755301
vt 0.975000024 3.755301
vt 0.976544976 3.77029991
vt 0.975000024 3.77029991
vt 0.930000007 0.870301008
vt 0.930000007 0.880300999
vt -0.930000007 0.870301008
vt -0.930000007 0.870301008
vt 0.930000007 0.880300999
vt -0.930000007 0.880300999
vt -0.975000024 3.08030009
vt -0.975000024 3.10000706
vt -0.97793901 3.08030009
vt -0.97793901 3.08030009
vt -0.975000024 3.10000706
vt -0.97793901 3.77029991
vt -0.979044974 3.08030009
vt -0.979044974 3.77029991
vt -0.979044974 3.08030009
vt 0.979044974 3.08030009
vt 0.979044974 3.77029991
vt 0.976544976 3.77029991
vt 0.979044974 3.08030009
vt 0.976544976 3.77029991
vt 0.976544976 3.08030009
vt 0.976544976 3.08030009
vt 0.976544976 3.77029991
vt 0.975000024 3.09530091
vt -0.975000024 3.77029991
vt -0.97793901 3.77029991
vt -0.975000024 3.10000706
vt 0.949999988 0.90030098
vt 0.949999988 0.903240025
vt -0.935000002 0.90030098
vt -0.935000002 0.90030098
vt 0.949999988 0.903240025
vt -0.949999988 0.903240025
vt -0.935000002 0.90030098
vt -0.949999988 0.903240025
vt -0.949999988 0.90030098
vt -0.949999988 0.979044974
vt -0.949999988 0.976544976
vt 0.949999988 0.979044974
vt -0.979044974 0.903240025
vt -0.976544976 0.905056
vt -0.976544976 0.905056
vt 0.949999988 0.979044974
vt -0.949999988 0.976544976
vt 0.949999988 0.976544976
vt 0.949999988 0.976544976
vt -0.949999988 0.976544976
vt 0.932500005 0.975000024
vt 0.949999988 0.976544976
vt 0.932500005 0.975000024
vt 0.949999988 0.975000024
vt 0.932500005 0.975000024
vt -0.949999988 0.976544976
vt -0.932500005 0.975000024
vt -0.932500005 0.975000024
vt -0.949999988 0.976544976
vt -0.949999988 0.975000024
vt -0.930000007 3.77029991
vt 0.930000007 3.77029991
vt -0.930000007 3.78030109
vt -0.930000007 3.78030109
vt 0.930000007 3.77029991
vt 0.930000007 3.78030109
vt -0.457428992 9.79559422
vt -0.447429001 9.79559422
vt -0.457428992 9.80530071
vt -0.457428992 9.80530071
vt -0.447429001 9.79559422
vt -0.447429001 9.80530071
vt 0.930000007 0.447429001
vt 0.930000007 0.457428992
vt -0.930000007 0.447429001
vt -0.930000007 0.447429001
vt 0.930000007 0.457428992
vt -0.930000007 0.457428992
vt -0.975000024 6.70529985
vt -0.976544976 6.03030109
vt -0.975000024 6.04530001
vt -0.975000024 6.04530001
vt -0.976544976 6.03030109
vt -0.975000024 6.03030109
vt 0.930000007 9.79559422
vt 0.930000007 9.80530071
vt -0.930000007 9.79559422
vt -0.930000007 9.79559422
vt 0.930000007 9.80530071
vt -0.930000007 9.80530071
vt 0.447429001 0.895594001
vt 0.457428992 0.895594001
vt 0.447429001 0.905300975
vt 0.447429001 0.905300975
vt 0.457428992 0.895594001
vt 0.457428992 0.905300975
vt 0.930000007 0.447429001
vt 0.930000007 0.457428992
vt -0.930000007 0.447429001
vt -0.930000007 0.447429001
vt 0.930000007 0.457428992
vt -0.930000007 0.457428992
vt -0.457428992 0.895594001
vt -0.447429001 0.895594001
vt -0.457428992 0.905300975
vt -0.457428992 0.905300975
vt -0.447429001 0.895594001
vt -0.447429001 0.905300975
vt 0.975000024 6.72030115
vt 0.975000024 6.05000687
vt 0.97793901 6.72030115
vt 0.97793901 6.72030115
vt 0.975000024 6.05000687
vt 0.97793901 6.03030109
vt -0.979044974 6.72030115
vt -0.979044974 6.03030109
vt -0.979044974 6.72030115
vt -0.979044974 6.72030115
vt -0.979044974 6.03030109
vt -0.976544976 6.03030109
vt -0.979044974 6.72030115
vt -0.976544976 6.03030109
vt -0.976544976 6.72030115
vt -0.976544976 6.72030115
vt -0.976544976 6.03030109
vt -0.975000024 6.70529985
vt 0.975000024 6.03030109
vt 0.97793901 6.03030109
vt 0.975000024 6.05000687
vt -0.930000007 0.905300975
vt -0.930000007 0.895594001
vt 0.930000007 0.905300975
vt 0.930000007 0.905300975
vt -0.930000007 0.895594001
vt 0.930000007 0.895594001
vt 0.930000007 9.04529953
vt 0.930000007 9.05500603
vt -0.930000007 9.04529953
vt -0.930000007 9.04529953
vt 0.930000007 9.05500603
vt -0.930000007 9.05500603
vt 0.975000024 6.04530001
vt 0.976544976 6.72030115
vt 0.975000024 6.70529985
vt 0.975000024 6.70529985
vt 0.976544976 6.72030115
vt 0.975000024 6.72030115
vt 0.457428992 9.04529953
vt 0.457428992 9.05500603
vt 0.447429001 9.04529953
vt 0.447429001 9.04529953
vt 0.457428992 9.05500603
vt 0.447429001 9.05500603
vt -0.930000007 0.457428992
vt -0.930000007 0.447429001
vt 0.930000007 0.457428992
vt 0.930000007 0.457428992
vt -0.930000007 0.447429001
vt 0.930000007 0.447429001
vt -0.930000007 9.05500603
vt -0.930000007 9.04529953
vt 0.930000007 9.05500603
vt 0.930000007 9.05500603
vt -0.930000007 9.04529953
vt 0.930000007 9.04529953
vt -0.457428992 0.145300999
vt -0.447429001 0.145300999
vt -0.457428992 0.155007005
vt -0.457428992 0.155007005
vt -0.447429001 0.145300999
vt -0.447429001 0.155007005
vt -0.930000007 0.155007005
vt -0.930000007 0.145300999
vt 0.930000007 0.155007005
vt 0.930000007 0.155007005
vt -0.930000007 0.145300999
vt 0.930000007 0.145300999
vt -0.975000024 6.03030109
vt -0.975000024 6.05000687
vt -0.97793901 6.03030109
vt -0.97793901 6.03030109
vt -0.975000024 6.05000687
vt -0.97793901 6.72030115
vt -0.979044974 6.03030109
vt -0.979044974 6.72030115
vt -0.979044974 6.03030109
vt 0.979044974 6.03030109
vt 0.979044974 6.72030115
vt 0.976544976 6.72030115
vt 0.979044974 6.03030109
vt 0.976544976 6.72030115
vt 0.976544976 6.03030109
vt 0.976544976 6.03030109
vt 0.976544976 6.72030115
vt 0.975000024 6.04530001
vt -0.975000024 6.72030115
vt -0.97793901 6.72030115
vt -0.975000024 6.05000687
vt 0.930000007 6.73029995
vt -0.930000007 6.73029995
vt 0.930000007 6.72030115
vt 0.930000007 6.72030115
vt -0.930000007 6.73029995
vt -0.930000007 6.72030115
vt 0.930000007 0.447429001
vt 0.930000007 0.457428992
vt -0.930000007 0.447429001
vt -0.930000007 0.447429001
vt 0.930000007 0.457428992
vt -0.930000007 0.457428992
vt 0.457428992 6.755301
vt 0.447429001 6.755301
vt 0.457428992 6.74559402
vt 0.457428992 6.74559402
vt 0.447429001 6.755301
vt 0.447429001 6.74559402
vt 0.930000007 6.74559402
vt 0.930000007 6.755301
vt -0.930000007 6.74559402
vt -0.930000007 6.74559402
vt 0.930000007 6.755301
vt -0.930000007 6.755301
vt 0.930000007 6.74559402
vt 0.930000007 6.755301
vt -0.930000007 6.74559402
vt -0.930000007 6.74559402
vt 0.930000007 6.755301
vt -0.930000007 6.755301
vt 0.930000007 0.447429001
vt 0.930000007 0.457428992
vt -0.930000007 0.447429001
vt -0.930000007 0.447429001
vt 0.930000007 0.457428992
vt -0.930000007 0.457428992
vt -0.447429001 6.00500679
vt -0.457428992 6.00500679
vt -0.447429001 5.99530077
vt -0.447429001 5.99530077
vt -0.457428992 6.00500679
vt -0.457428992 5.99530077
vt -0.930000007 6.00500679
vt -0.930000007 5.99530077
vt 0.930000007 6.00500679
vt 0.930000007 6.00500679
vt -0.930000007 5.99530077
vt 0.930000007 5.99530077
vt 0.457428992 5.99530077
vt 0.457428992 6.00500679
vt 0.447429001 5.99530077
vt 0.447429001 5.99530077
vt 0.457428992 6.00500679
vt 0.447429001 6.00500679
vt 0.949999988 3.05030107
vt -0.935000002 3.05030107
vt 0.949999988 3.04875493
vt 0.949999988 3.04875493
vt -0.935000002 3.05030107
vt -0.949999988 3.04875493
vt -0.979754984 3.04875493
vt -0.979754984 3.04875493
vt -0.979754984 3.04875493
vt 0.949999988 3.04875493
vt -0.949999988 3.04875493
vt -0.949999988 3.04625607
vt 0.949999988 3.04875493
vt -0.949999988 3.04625607
vt 0.949999988 3.04625607
vt 0.949999988 0.97793901
vt -0.949999988 0.97793901
vt -0.932500005 0.975000024
vt -0.97793901 3.04625607
vt -0.975000024 3.04530001
vt -0.97793901 3.04625607
vt 0.949999988 0.97793901
vt -0.932500005 0.975000024
vt 0.932500005 0.975000024
vt 0.949999988 0.97793901
vt 0.932500005 0.975000024
vt 0.949999988 0.975000024
vt -0.949999988 3.05030107
vt -0.949999988 3.04875493
vt -0.935000002 3.05030107
vt -0.949999988 0.975000024
vt -0.932500005 0.975000024
vt -0.949999988 0.97793901
vt 0.457428992 3.80530095
vt 0.447429001 3.80530095
vt 0.457428992 3.79559398
vt 0.457428992 3.79559398
vt 0.447429001 3.80530095
vt 0.447429001 3.79559398
vt 0.930000007 3.79559398
vt 0.930000007 3.80530095
vt -0.930000007 3.79559398
vt -0.930000007 3.79559398
vt 0.930000007 3.80530095
vt -0.930000007 3.80530095
vt -0.457428992 3.79559398
vt -0.447429001 3.79559398
vt -0.457428992 3.80530095
vt -0.457428992 3.80530095
vt -0.447429001 3.79559398
vt -0.447429001 3.80530095
vt -0.930000007 0.457428992
vt -0.930000007 0.447429001
vt 0.930000007 0.457428992
vt 0.930000007 0.457428992
vt -0.930000007 0.447429001
vt 0.930000007 0.447429001
vt -0.930000007 3.0703001
vt 0.930000007 3.0703001
vt -0.930000007 3.08030009
vt -0.930000007 3.08030009
vt 0.930000007 3.0703001
vt 0.930000007 3.08030009
vt 0.373573005 1.17499995
vt 0.364006996 1.17499995
vt 0.364006996 1.15499997
vt -1.15499997 -2.85064793
vt -1.17499995 -2.85064793
vt -1.17499995 -2.85064793
vt 0.364006996 1.15499997
vt 0.364006996 1.17499995
vt 0.359494001 1.15499997
vt 0.359494001 1.15499997
vt 0.364006996 1.17499995
vt 0.359494001 1.17499995
vt 0.359494001 1.15499997
vt 0.359494001 1.17499995
vt 0.354548991 1.15499997
vt 0.354548991 1.15499997
vt 0.359494001 1.17499995
vt 0.354548991 1.17499995
vt 0.354548991 1.15499997
vt 0.354548991 1.17499995
vt 0.345761001 1.15499997
vt 0.345761001 1.15499997
vt 0.354548991 1.17499995
vt 0.345761001 1.17499995
vt 0.345761001 1.15499997
vt 0.345761001 1.17499995
vt 0.345306009 1.15499997
vt 0.345306009 1.15499997
vt 0.345761001 1.17499995
vt 0.345306009 1.17499995
vt 0.345306009 1.15499997
vt 0.345306009 1.17499995
vt 0.336383998 1.15499997
vt 0.336383998 1.15499997
vt 0.345306009 1.17499995
vt 0.336383998 1.17499995
vt 0.336383998 1.15499997
vt 0.336383998 1.17499995
vt 0.332713991 1.15499997
vt 0.332713991 1.15499997
vt 0.336383998 1.17499995
vt 0.332713991 1.17499995
vt 0.332713991 1.15499997
vt 0.332713991 1.17499995
vt 0.327883005 1.15499997
vt 0.327883005 1.15499997
vt 0.332713991 1.17499995
vt 0.327883005 1.17499995
vt 0.327883005 1.15499997
vt 0.327883005 1.17499995
vt 0.320672005 1.15499997
vt 0.320672005 1.15499997
vt 0.327883005 1.17499995
vt 0.320672005 1.17499995
vt 0.320672005 1.15499997
vt 0.320672005 1.17499995
vt 0.319900006 1.15499997
vt 0.319900006 1.15499997
vt 0.320672005 1.17499995
vt 0.319900006 1.17499995
vt 0.319900006 1.15499997
vt 0.319900006 1.17499995
vt 0.312525004 1.15499997
vt 0.312525004 1.15499997
vt 0.319900006 1.17499995
vt 0.312525004 1.17499995
vt 0.312525004 1.15499997
vt 0.312525004 1.17499995
vt 0.309933007 1.15499997
vt 0.309933007 1.15499997
vt 0.312525004 1.17499995
vt 0.309933007 1.17499995
vt -1.15499997 -2.87649798
vt -1.17499995 -2.87649798
vt -1.15499997 -2.88087201
vt -1.15499997 -2.88087201
vt -1.17499995 -2.87649798
vt -1.17499995 -2.88087201
vt -1.15499997 -2.88087201
vt -1.17499995 -2.88087201
vt -1.15499997 -2.88723707
vt -1.15499997 -2.88723707
vt -1.17499995 -2.88087201
vt -1.17499995 -2.88723707
vt -1.15499997 -2.88723707
vt -1.17499995 -2.88723707
vt -1.15499997 -2.88840699
vt -1.15499997 -2.88840699
vt -1.17499995 -2.88723707
vt -1.17499995 -2.88840699
vt -1.15499997 -2.88840699
vt -1.17499995 -2.88840699
vt -1.15499997 -2.89652801
vt -1.15499997 -2.89652801
vt -1.17499995 -2.88840699
vt -1.17499995 -2.89652801
vt -1.15499997 -2.89652801
vt -1.17499995 -2.89652801
vt -1.15499997 -2.89927793
vt -1.15499997 -2.89927793
vt -1.17499995 -2.89652801
vt -1.17499995 -2.89927793
vt -1.15499997 -2.89927793
vt -1.17499995 -2.89927793
vt -1.15499997 -2.90514302
vt -1.15499997 -2.90514302
vt -1.17499995 -2.89927793
vt -1.17499995 -2.90514302
vt -1.15499997 -2.90514302
vt -1.17499995 -2.90514302
vt -1.15499997 -2.9123261
vt -1.15499997 -2.9123261
vt -1.17499995 -2.90514302
vt -1.17499995 -2.9123261
vt -1.15499997 -2.9123261
vt -1.17499995 -2.9123261
vt -1.15499997 -2.91415501
vt -1.15499997 -2.91415501
vt -1.17499995 -2.9123261
vt -1.17499995 -2.91415501
vt -1.15499997 -2.91415501
vt -1.17499995 -2.91415501
vt -1.15499997 -2.92346191
vt -1.15499997 -2.92346191
vt -1.17499995 -2.91415501
vt -1.17499995 -2.92346191
vt -1.15499997 -2.92346191
vt -1.17499995 -2.92346191
vt -1.15499997 -2.92605901
vt -1.15499997 -2.92605901
vt -1.17499995 -2.92346191
vt -1.17499995 -2.92605901
vt -1.15499997 -2.92605901
vt -1.17499995 -2.92605901
vt -1.15499997 -2.93295693
vt -1.15499997 -2.93295693
vt -1.17499995 -2.92605901
vt -1.17499995 -2.93295693
vt -1.15499997 -2.93295693
vt -1.17499995 -2.93295693
vt -1.15499997 -2.9401381
vt -1.15499997 -2.9401381
vt -1.17499995 -2.93295693
vt -1.17499995 -2.9401381
vt -1.15499997 -2.9401381
vt -1.17499995 -2.9401381
vt -1.15499997 -2.94253302
vt -1.15499997 -2.94253302
vt -1.17499995 -2.9401381
vt -1.17499995 -2.94253302
vt -1.15499997 -2.94253302
vt -1.17499995 -2.94253302
vt -1.15499997 -2.95208311
vt -1.15499997 -2.95208311
vt -1.17499995 -2.94253302
vt -1.17499995 -2.95208311
vt -1.15499997 -2.95208311
vt -1.17499995 -2.95208311
vt -1.15499997 -2.95421696
vt -1.15499997 -2.95421696
vt -1.17499995 -2.95208311
vt -1.17499995 -2.95421696
vt -1.15499997 -2.95421696
vt -1.17499995 -2.95421696
vt -1.15499997 -2.96149707
vt -1.15499997 -2.96149707
vt -1.17499995 -2.95421696
vt -1.17499995 -2.96149707
vt -1.15499997 -2.96149707
vt -1.17499995 -2.96149707
vt -1.15499997 -2.96794891
vt -1.15499997 -2.96794891
vt -1.17499995 -2.96149707
vt -1.17499995 -2.96794891
vt -1.15499997 -2.96794891
vt -1.17499995 -2.96794891
vt -1.15499997 -2.97066903
vt -1.15499997 -2.97066903
vt -1.17499995 -2.96794891
vt -1.17499995 -2.97066903
vt -1.15499997 -2.97066903
vt -1.17499995 -2.97066903
vt -1.15499997 -2.97949505
vt -1.15499997 -2.97949505
vt -1.17499995 -2.97066903
vt -1.17499995 -2.97949505
vt -1.15499997 -2.97949505
vt -1.17499995 -2.97949505
vt -1.15499997 -2.98099709
vt -1.15499997 -2.98099709
vt -1.17499995 -2.97949505
vt -1.17499995 -2.98099709
vt -1.15499997 -2.98099709
vt -1.17499995 -2.98099709
vt -1.15499997 -2.98787594
vt -1.15499997 -2.98787594
vt -1.17499995 -2.98099709
vt -1.17499995 -2.98787594
vt -1.15499997 -2.98787594
vt -1.17499995 -2.98787594
vt -1.15499997 -2.99303794
vt -1.15499997 -2.99303794
vt -1.17499995 -2.98787594
vt -1.17499995 -2.99303794
vt -1.15499997 -2.99303794
vt -1.17499995 -2.99303794
vt -1.15499997 -2.9957149
vt -1.15499997 -2.9957149
vt -1.17499995 -2.99303794
vt -1.17499995 -2.9957149
vt -1.15499997 -2.9957149
vt -1.17499995 -2.9957149
vt -1.15499997 -3.00292492
vt -1.15499997 -3.00292492
vt -1.17499995 -2.9957149
vt -1.17499995 -3.00292492
vt -1.15499997 -3.00292492
vt -1.17499995 -3.00292492
vt -1.15499997 -3.00377703
vt -1.15499997 -3.00377703
vt -1.17499995 -3.00292492
vt -1.17499995 -3.00377703
vt -0.309933007 1.15499997
vt -0.309933007 1.17499995
vt -0.316130996 1.15499997
vt -0.316130996 1.15499997
vt -0.309933007 1.17499995
vt -0.316130996 1.17499995
vt -0.316130996 1.15499997
vt -0.316130996 1.17499995
vt -0.320672005 1.15499997
vt -0.320672005 1.15499997
vt -0.316130996 1.17499995
vt -0.320672005 1.17499995
vt -0.320672005 1.15499997
vt -0.320672005 1.17499995
vt -0.323821008 1.15499997
vt -0.323821008 1.15499997
vt -0.320672005 1.17499995
vt -0.323821008 1.17499995
vt -0.323821008 1.15499997
vt -0.323821008 1.17499995
vt -0.332075 1.15499997
vt -0.332075 1.15499997
vt -0.323821008 1.17499995
vt -0.332075 1.17499995
vt -0.332075 1.15499997
vt -0.332075 1.17499995
vt -0.332713991 1.15499997
vt -0.332713991 1.15499997
vt -0.332075 1.17499995
vt -0.332713991 1.17499995
vt -0.332713991 1.15499997
vt -0.332713991 1.17499995
vt -0.340799004 1.15499997
vt -0.340799004 1.15499997
vt -0.332713991 1.17499995
vt -0.340799004 1.17499995
vt -0.340799004 1.15499997
vt -0.340799004 1.17499995
vt -0.345761001 1.15499997
vt -0.345761001 1.15499997
vt -0.340799004 1.17499995
vt -0.345761001 1.17499995
vt -0.345761001 1.15499997
vt -0.345761001 1.17499995
vt -0.349893987 1.15499997
vt -0.349893987 1.15499997
vt -0.345761001 1.17499995
vt -0.349893987 1.17499995
vt -0.349893987 1.15499997
vt -0.349893987 1.17499995
vt -0.359257013 1.15499997
vt -0.359257013 1.15499997
vt -0.349893987 1.17499995
vt -0.359257013 1.17499995
vt -0.359257013 1.15499997
vt -0.359257013 1.17499995
vt -0.359494001 1.15499997
vt -0.359494001 1.15499997
vt -0.359257013 1.17499995
vt -0.359494001 1.17499995
vt -0.359494001 1.15499997
vt -0.359494001 1.17499995
vt -0.368782997 1.15499997
vt -0.368782997 1.15499997
vt -0.359494001 1.17499995
vt -0.368782997 1.17499995
vt -0.368782997 1.15499997
vt -0.368782997 1.17499995
vt -0.373573005 1.15499997
vt -0.373573005 1.15499997
vt -0.368782997 1.17499995
vt -0.373573005 1.17499995
vt -0.373573005 1.15499997
vt -0.373573005 1.17499995
vt -0.378363013 1.15499997
vt -0.378363013 1.15499997
vt -0.373573005 1.17499995
vt -0.378363013 1.17499995
vt -0.378363013 1.15499997
vt -0.378363013 1.17499995
vt -0.38765201 1.15499997
vt -0.38765201 1.15499997
vt -0.378363013 1.17499995
vt -0.38765201 1.17499995
vt -0.38765201 1.15499997
vt -0.38765201 1.17499995
vt -0.387888998 1.15499997
vt -0.387888998 1.15499997
vt -0.38765201 1.17499995
vt -0.387888998 1.17499995
vt -0.387888998 1.15499997
vt -0.387888998 1.17499995
vt -0.397251993 1.15499997
vt -0.397251993 1.15499997
vt -0.387888998 1.17499995
vt -0.397251993 1.17499995
vt -0.397251993 1.15499997
vt -0.397251993 1.17499995
vt -0.401385009 1.15499997
vt -0.401385009 1.15499997
vt -0.397251993 1.17499995
vt -0.401385009 1.17499995
vt -0.401385009 1.15499997
vt -0.401385009 1.17499995
vt -0.406347007 1.15499997
vt -0.406347007 1.15499997
vt -0.401385009 1.17499995
vt -0.406347007 1.17499995
vt -0.406347007 1.15499997
vt -0.406347007 1.17499995
vt -0.414431989 1.15499997
vt -0.414431989 1.15499997
vt -0.406347007 1.17499995
vt -0.414431989 1.17499995
vt -0.414431989 1.15499997
vt -0.414431989 1.17499995
vt -0.415071011 1.15499997
vt -0.415071011 1.15499997
vt -0.414431989 1.17499995
vt -0.415071011 1.17499995
vt -0.415071011 1.15499997
vt -0.415071011 1.17499995
vt -0.423325002 1.15499997
vt -0.423325002 1.15499997
vt -0.415071011 1.17499995
vt -0.423325002 1.17499995
vt -0.423325002 1.15499997
vt -0.423325002 1.17499995
vt -0.426474005 1.15499997
vt -0.426474005 1.15499997
vt -0.423325002 1.17499995
vt -0.426474005 1.17499995
vt -0.426474005 1.15499997
vt -0.426474005 1.17499995
vt -0.431015015 1.15499997
vt -0.431015015 1.15499997
vt -0.426474005 1.17499995
vt -0.431015015 1.17499995
vt -0.431015015 1.15499997
vt -0.431015015 1.17499995
vt -0.437213004 1.15499997
vt -0.437213004 1.15499997
vt -0.431015015 1.17499995
vt -0.437213004 1.17499995
vt 1.15499997 -3.00377703
vt 1.17499995 -3.00377703
vt 1.15499997 -3.00292492
vt 1.15499997 -3.00292492
vt 1.17499995 -3.00377703
vt 1.17499995 -3.00292492
vt 1.15499997 -3.00292492
vt 1.17499995 -3.00292492
vt 1.15499997 -2.9957149
vt 1.15499997 -2.9957149
vt 1.17499995 -3.00292492
vt 1.17499995 -2.9957149
vt 1.15499997 -2.9957149
vt 1.17499995 -2.9957149
vt 1.15499997 -2.99303794
vt 1.15499997 -2.99303794
vt 1.17499995 -2.9957149
vt 1.17499995 -2.99303794
vt 1.15499997 -2.99303794
vt 1.17499995 -2.99303794
vt 1.15499997 -2.98787594
vt 1.15499997 -2.98787594
vt 1.17499995 -2.99303794
vt 1.17499995 -2.98787594
vt 1.15499997 -2.98787594
vt 1.17499995 -2.98787594
vt 1.15499997 -2.98099709
vt 1.15499997 -2.98099709
vt 1.17499995 -2.98787594
vt 1.17499995 -2.98099709
vt 1.15499997 -2.98099709
vt 1.17499995 -2.98099709
vt 1.15499997 -2.97949505
vt 1.15499997 -2.97949505
vt 1.17499995 -2.98099709
vt 1.17499995 -2.97949505
vt 1.15499997 -2.97949505
vt 1.17499995 -2.97949505
vt 1.15499997 -2.97066903
vt 1.15499997 -2.97066903
vt 1.17499995 -2.97949505
vt 1.17499995 -2.97066903
vt 1.15499997 -2.97066903
vt 1.17499995 -2.97066903
vt 1.15499997 -2.96794891
vt 1.15499997 -2.96794891
vt 1.17499995 -2.97066903
vt 1.17499995 -2.96794891
vt 1.15499997 -2.96794891
vt 1.17499995 -2.96794891
vt 1.15499997 -2.96149707
vt 1.15499997 -2.96149707
vt 1.17499995 -2.96794891
vt 1.17499995 -2.96149707
vt 1.15499997 -2.96149707
vt 1.17499995 -2.96149707
vt 1.15499997 -2.95421696
vt 1.15499997 -2.95421696
vt 1.17499995 -2.96149707
vt 1.17499995 -2.95421696
vt 1.15499997 -2.95421696
vt 1.17499995 -2.95421696
vt 1.15499997 -2.95208311
vt 1.15499997 -2.95208311
vt 1.17499995 -2.95421696
vt 1.17499995 -2.95208311
vt 1.15499997 -2.95208311
vt 1.17499995 -2.95208311
vt 1.15499997 -2.94253302
vt 1.15499997 -2.94253302
vt 1.17499995 -2.95208311
vt 1.17499995 -2.94253302
vt 1.15499997 -2.94253302
vt 1.17499995 -2.94253302
vt 1.15499997 -2.9401381
vt 1.15499997 -2.9401381
vt 1.17499995 -2.94253302
vt 1.17499995 -2.9401381
vt 1.15499997 -2.9401381
vt 1.17499995 -2.9401381
vt 1.15499997 -2.93295693
vt 1.15499997 -2.93295693
vt 1.17499995 -2.9401381
vt 1.17499995 -2.93295693
vt 1.15499997 -2.93295693
vt 1.17499995 -2.93295693
vt 1.15499997 -2.92605901
vt 1.15499997 -2.92605901
vt 1.17499995 -2.93295693
vt 1.17499995 -2.92605901
vt 1.15499997 -2.92605901
vt 1.17499995 -2.92605901
vt 1.15499997 -2.92346191
vt 1.15499997 -2.92346191
vt 1.17499995 -2.92605901
vt 1.17499995 -2.92346191
vt 1.15499997 -2.92346191
vt 1.17499995 -2.92346191
vt 1.15499997 -2.91415501
vt 1.15499997 -2.91415501
vt 1.17499995 -2.92346191
vt 1.17499995 -2.91415501
vt 1.15499997 -2.91415501
vt 1.17499995 -2.91415501
vt 1.15499997 -2.9123261
vt 1.15499997 -2.9123261
vt 1.17499995 -2.91415501
vt 1.17499995 -2.9123261
vt 1.15499997 -2.9123261
vt 1.17499995 -2.9123261
vt 1.15499997 -2.90514302
vt 1.15499997 -2.90514302
vt 1.17499995 -2.9123261
vt 1.17499995 -2.90514302
vt 1.15499997 -2.90514302
vt 1.17499995 -2.90514302
vt 1.15499997 -2.89927793
vt 1.15499997 -2.89927793
vt 1.17499995 -2.90514302
vt 1.17499995 -2.89927793
vt 1.15499997 -2.89927793
vt 1.17499995 -2.89927793
vt 1.15499997 -2.89652801
vt 1.15499997 -2.89652801
vt 1.17499995 -2.89927793
vt 1.17499995 -2.89652801
vt 1.15499997 -2.89652801
vt 1.17499995 -2.89652801
vt 1.15499997 -2.88840699
vt 1.15499997 -2.88840699
vt 1.17499995 -2.89652801
vt 1.17499995 -2.88840699
vt 1.15499997 -2.88840699
vt 1.17499995 -2.88840699
vt 1.15499997 -2.88723707
vt 1.15499997 -2.88723707
vt 1.17499995 -2.88840699
vt 1.17499995 -2.88723707
vt 1.15499997 -2.88723707
vt 1.17499995 -2.88723707
vt 1.15499997 -2.88087201
vt 1.15499997 -2.88087201
vt 1.17499995 -2.88723707
vt 1.17499995 -2.88087201
vt 1.15499997 -2.88087201
vt 1.17499995 -2.88087201
vt 1.15499997 -2.87649798
vt 1.15499997 -2.87649798
vt 1.17499995 -2.88087201
vt 1.17499995 -2.87649798
vt 0.437213004 1.15499997
vt 0.437213004 1.17499995
vt 0.434621006 1.15499997
vt 0.434621006 1.15499997
vt 0.437213004 1.17499995
vt 0.434621006 1.17499995
vt 0.434621006 1.15499997
vt 0.434621006 1.17499995
vt 0.427246004 1.15499997
vt 0.427246004 1.15499997
vt 0.434621006 1.17499995
vt 0.427246004 1.17499995
vt 0.427246004 1.15499997
vt 0.427246004 1.17499995
vt 0.426474005 1.15499997
vt 0.426474005 1.15499997
vt 0.427246004 1.17499995
vt 0.426474005 1.17499995
vt 0.426474005 1.15499997
vt 0.426474005 1.17499995
vt 0.419263005 1.15499997
vt 0.419263005 1.15499997
vt 0.426474005 1.17499995
vt 0.419263005 1.17499995
vt 0.419263005 1.15499997
vt 0.419263005 1.17499995
vt 0.414431989 1.15499997
vt 0.414431989 1.15499997
vt 0.419263005 1.17499995
vt 0.414431989 1.17499995
vt 0.414431989 1.15499997
vt 0.414431989 1.17499995
vt 0.410762012 1.15499997
vt 0.410762012 1.15499997
vt 0.414431989 1.17499995
vt 0.410762012 1.17499995
vt 0.410762012 1.15499997
vt 0.410762012 1.17499995
vt 0.401840001 1.15499997
vt 0.401840001 1.15499997
vt 0.410762012 1.17499995
vt 0.401840001 1.17499995
vt 0.401840001 1.15499997
vt 0.401840001 1.17499995
vt 0.401385009 1.15499997
vt 0.401385009 1.15499997
vt 0.401840001 1.17499995
vt 0.401385009 1.17499995
vt 0.401385009 1.15499997
vt 0.401385009 1.17499995
vt 0.39259699 1.15499997
vt 0.39259699 1.15499997
vt 0.401385009 1.17499995
vt 0.39259699 1.17499995
vt 0.39259699 1.15499997
vt 0.39259699 1.17499995
vt 0.38765201 1.15499997
vt 0.38765201 1.15499997
vt 0.39259699 1.17499995
vt 0.38765201 1.17499995
vt 0.38765201 1.15499997
vt 0.38765201 1.17499995
vt 0.383139014 1.15499997
vt 0.383139014 1.15499997
vt 0.38765201 1.17499995
vt 0.383139014 1.17499995
vt 0.383139014 1.15499997
vt 0.383139014 1.17499995
vt 0.373573005 1.15499997
vt -0.930000007 0.457428992
vt -0.930000007 0.447429001
vt 0.930000007 0.457428992
vt 0.930000007 0.457428992
vt -0.930000007 0.447429001
vt 0.930000007 0.447429001
vt 0.447429001 3.05500698
vt 0.447429001 3.04530001
vt 0.457428992 3.05500698
vt 0.457428992 3.05500698
vt 0.447429001 3.04530001
vt 0.457428992 3.04530001
vt -0.930000007 3.05500698
vt -0.930000007 3.04530001
vt 0.930000007 3.05500698
vt 0.930000007 3.05500698
vt -0.930000007 3.04530001
vt 0.930000007 3.04530001
vt -0.930000007 3.08030009
vt -0.930000007 3.0703001
vt 0.930000007 3.08030009
vt 0.930000007 3.08030009
vt -0.930000007 3.0703001
vt 0.930000007 3.0703001
vt 0.930000007 3.77029991
vt 0.930000007 3.78030109
vt -0.930000007 3.77029991
vt -0.930000007 3.77029991
vt 0.930000007 3.78030109
vt -0.930000007 3.78030109
vt 0.949999988 0.150300995
vt -0.935000002 0.150300995
vt 0.949999988 0.148755997
vt 0.949999988 0.148755997
vt -0.935000002 0.150300995
vt -0.949999988 0.148755997
vt -0.979754984 0.148755997
vt -0.979754984 0.148755997
vt -0.979754984 0.148755997
vt 0.949999988 0.148755997
vt -0.949999988 0.148755997
vt -0.949999988 0.146256
vt 0.949999988 0.148755997
vt -0.949999988 0.146256
vt 0.949999988 0.146256
vt 0.949999988 0.97793901
vt -0.949999988 0.97793901
vt -0.932500005 0.975000024
vt -0.97793901 0.146256
vt -0.975000024 0.145300999
vt -0.97793901 0.146256
vt 0.949999988 0.97793901
vt -0.932500005 0.975000024
vt 0.932500005 0.975000024
vt 0.949999988 0.97793901
vt 0.932500005 0.975000024
vt 0.949999988 0.975000024
vt -0.949999988 0.150300995
vt -0.949999988 0.148755997
vt -0.935000002 0.150300995
vt -0.949999988 0.975000024
vt -0.932500005 0.975000024
vt -0.949999988 0.97793901
vt 0.930000007 3.78030109
vt -0.930000007 3.78030109
vt 0.930000007 3.77029991
vt 0.930000007 3.77029991
vt -0.930000007 3.78030109
vt -0.930000007 3.77029991
vt 0.930000007 3.0703001
vt 0.930000007 3.08030009
vt -0.930000007 3.0703001
vt -0.930000007 3.0703001
vt 0.930000007 3.08030009
vt -0.930000007 3.08030009
vt 0.930000007 0.180300996
vt -0.930000007 0.180300996
vt 0.930000007 0.170301005
vt 0.930000007 0.170301005
vt -0.930000007 0.180300996
vt -0.930000007 0.170301005
vt 0.930000007 6.73029995
vt -0.930000007 6.73029995
vt 0.930000007 6.72030115
vt 0.930000007 6.72030115
vt -0.930000007 6.73029995
vt -0.930000007 6.72030115
vt 0.930000007 9.78030014
vt -0.930000007 9.78030014
vt 0.930000007 9.77030087
vt 0.930000007 9.77030087
vt -0.930000007 9.78030014
vt -0.930000007 9.77030087
vt -0.930000007 9.78030014
vt -0.930000007 9.77030087
vt 0.930000007 9.78030014
vt 0.930000007 9.78030014
vt -0.930000007 9.77030087
vt 0.930000007 9.77030087
vt -0.930000007 6.73029995
vt -0.930000007 6.72030115
vt 0.930000007 6.73029995
vt 0.930000007 6.73029995
vt -0.930000007 6.72030115
vt 0.930000007 6.72030115
vt 0.930000007 3.08030009
vt -0.930000007 3.08030009
vt 0.930000007 3.0703001
vt 0.930000007 3.0703001
vt -0.930000007 3.08030009
vt -0.930000007 3.0703001
vt 0.975000024 9.09530067
vt 0.976544976 9.77030087
vt 0.975000024 9.75529957
vt 0.975000024 9.75529957
vt 0.976544976 9.77030087
vt 0.975000024 9.77030087
vt 0.930000007 9.79559422
vt 0.930000007 9.80530071
vt -0.930000007 9.79559422
vt -0.930000007 9.79559422
vt 0.930000007 9.80530071
vt -0.930000007 9.80530071
vt 0.447429001 9.79559422
vt 0.457428992 9.79559422
vt 0.447429001 9.80530071
vt 0.447429001 9.80530071
vt 0.457428992 9.79559422
vt 0.457428992 9.80530071
vt 0.930000007 0.895594001
vt 0.930000007 0.905300975
vt -0.930000007 0.895594001
vt -0.930000007 0.895594001
vt 0.930000007 0.905300975
vt -0.930000007 0.905300975
vt -0.457428992 9.04529953
vt -0.447429001 9.04529953
vt -0.457428992 9.05500603
vt -0.457428992 9.05500603
vt -0.447429001 9.04529953
vt -0.447429001 9.05500603
vt 0.457428992 0.145300999
vt 0.457428992 0.155007005
vt 0.447429001 0.145300999
vt 0.447429001 0.145300999
vt 0.457428992 0.155007005
vt 0.447429001 0.155007005
vt 0.930000007 0.145300999
vt 0.930000007 0.155007005
vt -0.930000007 0.145300999
vt -0.930000007 0.145300999
vt 0.930000007 0.155007005
vt -0.930000007 0.155007005
vt -0.457428992 6.74559402
vt -0.447429001 6.74559402
vt -0.457428992 6.755301
vt -0.457428992 6.755301
vt -0.447429001 6.74559402
vt -0.447429001 6.755301
vt -0.930000007 0.457428992
vt -0.930000007 0.447429001
vt 0.930000007 0.457428992
vt 0.930000007 0.457428992
vt -0.930000007 0.447429001
vt 0.930000007 0.447429001
vt 0.930000007 5.99530077
vt 0.930000007 6.00500679
vt -0.930000007 5.99530077
vt -0.930000007 5.99530077
vt 0.930000007 6.00500679
vt -0.930000007 6.00500679
vt -0.930000007 3.80530095
vt -0.930000007 3.79559398
vt 0.930000007 3.80530095
vt 0.930000007 3.80530095
vt -0.930000007 3.79559398
vt 0.930000007 3.79559398
vt -0.930000007 3.05500698
vt -0.930000007 3.04530001
vt 0.930000007 3.05500698
vt 0.930000007 3.05500698
vt -0.930000007 3.04530001
vt 0.930000007 3.04530001
vt 0.442000002 -10.6802988
vt -0.448000014 -10.6802988
vt 0.442000002 -10.6852989
vt 0.442000002 -10.6852989
vt -0.448000014 -10.6802988
vt -0.448000014 -10.6852989
vt 0.930000007 6.03030109
vt -0.930000007 6.03030109
vt 0.930000007 6.02029991
vt 0.930000007 6.02029991
vt -0.930000007 6.03030109
vt -0.930000007 6.02029991
vt 0.930000007 6.02029991
vt 0.930000007 6.03030109
vt -0.930000007 6.02029991
vt -0.930000007 6.02029991
vt 0.930000007 6.03030109
vt -0.930000007 6.03030109
vt 0.930000007 3.77029991
vt 0.930000007 3.78030109
vt -0.930000007 3.77029991
vt -0.930000007 3.77029991
vt 0.930000007 3.78030109
vt -0.930000007 3.78030109
vt -0.930000007 9.08030033
vt -0.930000007 9.07030106
vt 0.930000007 9.08030033
vt 0.930000007 9.08030033
vt -0.930000007 9.07030106
vt 0.930000007 9.07030106
vt 0.930000007 0.180300996
vt -0.930000007 0.180300996
vt 0.930000007 0.170301005
vt 0.930000007 0.170301005
vt -0.930000007 0.180300996
vt -0.930000007 0.170301005
vt 0.930000007 9.77030087
vt 0.930000007 9.78030014
vt -0.930000007 9.77030087
vt -0.930000007 9.77030087
vt 0.930000007 9.78030014
vt -0.930000007 9.78030014
vt 0.930000007 9.08030033
vt -0.930000007 9.08030033
vt 0.930000007 9.07030106
vt 0.930000007 9.07030106
vt -0.930000007 9.08030033
vt -0.930000007 9.07030106
vt -0.447429001 3.05500698
vt -0.457428992 3.05500698
vt -0.447429001 3.04530001
vt -0.447429001 3.04530001
vt -0.457428992 3.05500698
vt -0.457428992 3.04530001
vt -0.451700002 10.6803007
vt 0.438300014 10.6803007
vt -0.451700002 10.6853008
vt -0.451700002 10.6853008
vt 0.438300014 10.6803007
vt 0.438300014 10.6853008
vt 0.451700002 10.6803007
vt 0.451700002 10.6853008
vt -0.438300014 10.6803007
vt -0.438300014 10.6803007
vt 0.451700002 10.6853008
vt -0.438300014 10.6853008
f 1/1 2/2 3/3
f 4/4 5/5 6/6
f 6/7 7/8 4/9
f 8/10 9/11 10/12
f 11/13 12/14 13/15
f 14/16 15/17 16/18
f 17/19 18/20 19/21
f 20/22 21/23 22/24
f 23/25 24/26 25/27
f 26/28 27/29 28/30
f 29/31 30/32 31/33
f 31/34 30/35 32/36
f 31/37 32/38 33/39
f 33/40 32/41 34/42
f 30/43 35/44 32/45
f 32/46 35/47 35/48
f 32/49 35/50 36/51
f 36/52 35/53 37/54
f 36/55 37/56 38/57
f 39/58 37/59 35/60
f 40/61 41/62 42/63
f 42/64 41/65 28/66
f 43/67 44/68 45/69
f 45/70 44/71 46/72
f 47/73 48/74 49/75
f 49/76 48/77 50/78
f 49/79 50/80 49/81
f 49/82 50/83 51/84
f 49/85 51/86 2/87
f 2/88 51/89 3/90
f 52/91 50/92 48/93
f 53/94 54/95 55/96
f 55/97 54/98 56/99
f 57/100 58/101 59/102
f 59/103 58/104 60/105
f 61/106 62/107 63/108
f 63/109 62/110 64/111
f 65/112 66/113 67/114
f 67/115 66/116 68/117
f 67/118 68/119 69/120
f 66/121 42/122 68/123
f 68/124 42/125 42/126
f 68/127 42/128 27/129
f 27/130 42/131 28/132
f 70/133 71/134 72/135
f 72/136 71/137 73/138
f 74/139 75/140 76/141
f 76/142 75/143 77/144
f 78/145 79/146 51/147
f 51/148 79/149 3/150
f 80/151 81/152 82/153
f 82/154 81/155 83/156
f 84/157 85/158 86/159
f 86/160 85/161 87/162
f 86/163 87/164 88/165
f 88/166 87/167 89/168
f 85/169 90/170 87/171
f 87/172 90/173 90/174
f 87/175 90/176 91/177
f 91/178 90/179 92/180
f 91/181 92/182 93/183
f 94/184 92/185 90/186
f 95/187 96/188 97/189
f 97/190 96/191 98/192
f 97/193 98/194 99/195
f 96/196 100/197 98/198
f 98/199 100/200 100/201
f 98/202 100/203 101/204
f 101/205 100/206 102/207
f 101/208 102/209 103/210
f 102/211 100/212 104/213
f 104/214 100/215 105/216
f 106/217 107/218 108/219
f 108/220 107/221 109/222
f 108/223 109/224 110/225
f 107/226 111/227 109/228
f 109/229 111/230 111/231
f 109/232 111/233 24/234
f 24/235 111/236 25/237
f 112/238 113/239 114/240
f 114/241 113/242 115/243
f 22/244 116/245 117/246
f 117/247 116/248 118/249
f 119/250 120/251 121/252
f 121/253 120/254 122/255
f 123/256 124/257 125/258
f 125/259 124/260 126/261
f 22/262 21/263 116/264
f 116/265 21/266 127/267
f 116/268 127/269 128/270
f 128/271 127/272 129/273
f 128/274 129/275 130/276
f 131/277 129/278 127/279
f 132/280 133/281 134/282
f 134/283 133/284 135/285
f 19/286 136/287 137/288
f 137/289 136/290 138/291
f 139/292 140/293 141/294
f 141/295 140/296 142/297
f 141/298 142/299 141/300
f 141/301 142/302 143/303
f 141/304 143/305 144/306
f 144/307 143/308 145/309
f 144/310 145/311 146/312
f 147/313 145/314 143/315
f 140/316 148/317 142/318
f 142/319 148/320 149/321
f 150/322 151/323 152/324
f 152/325 151/326 153/327
f 154/328 155/329 156/330
f 156/331 155/332 157/333
f 156/334 157/335 156/336
f 156/337 157/338 136/339
f 156/340 136/341 18/342
f 18/343 136/344 19/345
f 158/346 157/347 155/348
f 159/349 160/350 161/351
f 161/352 160/353 162/354
f 161/355 162/356 161/357
f 161/358 162/359 163/360
f 161/361 163/362 164/363
f 164/364 163/365 165/366
f 164/367 165/368 166/369
f 167/370 165/371 163/372
f 160/373 168/374 162/375
f 162/376 168/377 169/378
f 16/379 170/380 171/381
f 171/382 170/383 172/384
f 173/385 174/386 175/387
f 175/388 174/389 176/390
f 177/391 178/392 179/393
f 179/394 178/395 180/396
f 179/397 180/398 179/399
f 179/400 180/401 170/402
f 179/403 170/404 15/405
f 15/406 170/407 16/408
f 181/409 180/410 178/411
f 182/412 183/413 184/414
f 184/415 183/416 185/417
f 184/418 185/419 186/420
f 183/421 187/422 185/423
f 185/424 187/425 187/426
f 185/427 187/428 188/429
f 188/430 187/431 189/432
f 188/433 189/434 190/435
f 189/436 187/437 191/438
f 191/439 187/440 192/441
f 193/442 194/443 195/444
f 195/445 194/446 196/447
f 197/448 198/449 199/450
f 199/451 198/452 200/453
f 198/454 197/455 201/456
f 201/457 197/458 202/459
f 13/460 203/461 204/462
f 204/463 203/464 205/465
f 201/466 206/467 198/468
f 198/469 206/470 200/471
f 207/472 208/473 209/474
f 209/475 208/476 210/477
f 211/478 212/479 207/480
f 207/481 212/482 208/483
f 212/484 211/485 213/486
f 213/487 211/488 214/489
f 215/490 216/491 217/492
f 217/493 216/494 218/495
f 217/496 218/497 217/498
f 217/499 218/500 203/501
f 217/502 203/503 12/504
f 12/505 203/506 13/507
f 219/508 218/509 216/510
f 214/511 211/512 209/513
f 209/514 211/515 207/516
f 220/517 221/518 222/519
f 222/520 221/521 223/522
f 10/523 224/524 225/525
f 225/526 224/527 226/528
f 222/529 223/530 227/531
f 227/532 223/533 228/534
f 221/535 229/536 223/537
f 223/538 229/539 228/540
f 229/541 230/542 228/543
f 228/544 230/545 227/546
f 231/547 232/548 233/549
f 233/550 232/551 234/552
f 235/553 236/554 233/555
f 233/556 236/557 231/558
f 237/559 238/560 239/561
f 239/562 238/563 240/564
f 239/565 240/566 239/567
f 239/568 240/569 224/570
f 239/571 224/572 9/573
f 9/574 224/575 10/576
f 241/577 240/578 238/579
f 242/580 243/581 244/582
f 244/583 243/584 245/585
f 246/586 235/587 234/588
f 234/589 235/590 233/591
f 247/592 248/593 249/594
f 249/595 248/596 250/597
f 250/598 248/599 251/600
f 251/601 248/602 252/603
f 253/604 254/605 249/606
f 249/607 254/608 247/609
f 251/610 253/611 250/612
f 250/613 253/614 249/615
f 255/616 256/617 257/618
f 257/619 256/620 258/621
f 255/622 257/623 259/624
f 259/625 257/626 260/627
f 261/628 262/629 260/630
f 260/631 262/632 259/633
f 263/634 264/635 265/636
f 265/637 264/638 266/639
f 265/640 266/641 265/642
f 265/643 266/644 267/645
f 265/646 267/647 268/648
f 268/649 267/650 269/651
f 268/652 269/653 268/654
f 268/655 269/656 270/657
f 268/658 270/659 271/660
f 272/661 266/662 264/663
f 273/664 269/665 267/666
f 274/667 275/668 276/669
f 276/670 275/671 277/672
f 277/673 275/674 278/675
f 278/676 275/677 279/678
f 280/679 278/680 281/681
f 281/682 278/683 279/684
f 276/685 277/686 280/687
f 280/688 277/689 278/690
f 282/691 283/692 284/693
f 284/694 283/695 285/696
f 6/697 286/698 7/699
f 7/700 286/701 286/702
f 7/703 286/704 287/705
f 287/706 286/707 288/708
f 287/709 288/710 289/711
f 289/712 288/713 290/714
f 289/715 290/716 291/717
f 291/718 290/719 292/720
f 291/721 292/722 293/723
f 293/724 292/725 294/726
f 293/727 294/728 295/729
f 295/730 294/731 296/732
f 295/733 296/734 297/735
f 297/736 296/737 298/738
f 297/739 298/740 299/741
f 299/742 298/743 300/744
f 299/745 300/746 301/747
f 301/748 300/749 302/750
f 301/751 302/752 303/753
f 303/754 302/755 304/756
f 303/757 304/758 305/759
f 305/760 304/761 306/762
f 305/763 306/764 307/765
f 307/766 306/767 308/768
f 307/769 308/770 309/771
f 309/772 308/773 310/774
f 309/775 310/776 311/777
f 311/778 310/779 312/780
f 311/781 312/782 313/783
f 313/784 312/785 314/786
f 313/787 314/788 315/789
f 315/790 314/791 316/792
f 315/793 316/794 317/795
f 317/796 316/797 318/798
f 317/799 318/800 319/801
f 319/802 318/803 320/804
f 319/805 320/806 321/807
f 321/808 320/809 322/810
f 321/811 322/812 323/813
f 323/814 322/815 324/816
f 323/817 324/818 325/819
f 325/820 324/821 326/822
f 325/823 326/824 327/825
f 327/826 326/827 328/828
f 327/829 328/830 329/831
f 329/832 328/833 330/834
f 329/835 330/836 331/837
f 331/838 330/839 332/840
f 331/841 332/842 333/843
f 333/844 332/845 334/846
f 333/847 334/848 335/849
f 335/850 334/851 336/852
f 335/853 336/854 337/855
f 337/856 336/857 338/858
f 337/859 338/860 339/861
f 339/862 338/863 340/864
f 339/865 340/866 341/867
f 341/868 340/869 342/870
f 341/871 342/872 343/873
f 343/874 342/875 344/876
f 343/877 344/878 345/879
f 345/880 344/881 346/882
f 345/883 346/884 347/885
f 347/886 346/887 348/888
f 347/889 348/890 349/891
f 349/892 348/893 350/894
f 349/895 350/896 351/897
f 351/898 350/899 352/900
f 351/901 352/902 353/903
f 353/904 352/905 354/906
f 353/907 354/908 355/909
f 355/910 354/911 356/912
f 355/913 356/914 357/915
f 357/916 356/917 358/918
f 357/919 358/920 359/921
f 359/922 358/923 360/924
f 359/925 360/926 361/927
f 361/928 360/929 362/930
f 361/931 362/932 363/933
f 363/934 362/935 364/936
f 363/937 364/938 365/939
f 365/940 364/941 366/942
f 365/943 366/944 367/945
f 367/946 366/947 368/948
f 367/949 368/950 369/951
f 369/952 368/953 370/954
f 369/955 370/956 371/957
f 371/958 370/959 372/960
f 371/961 372/962 373/963
f 373/964 372/965 374/966
f 373/967 374/968 375/969
f 375/970 374/971 376/972
f 375/973 376/974 377/975
f 377/976 376/977 378/978
f 377/979 378/980 379/981
f 379/982 378/983 380/984
f 379/985 380/986 381/987
f 381/988 380/989 382/990
f 381/991 382/992 383/993
f 383/994 382/995 384/996
f 383/997 384/998 385/999
f 385/1000 384/1001 386/1002
f 385/1003 386/1004 387/1005
f 387/1006 386/1007 388/1008
f 387/1009 388/1010 389/1011
f 389/1012 388/1013 390/1014
f 389/1015 390/1016 391/1017
f 391/1018 390/1019 392/1020
f 391/1021 392/1022 393/1023
f 393/1024 392/1025 394/1026
f 393/1027 394/1028 395/1029
f 395/1030 394/1031 396/1032
f 395/1033 396/1034 397/1035
f 397/1036 396/1037 398/1038
f 397/1039 398/1040 399/1041
f 399/1042 398/1043 400/1044
f 399/1045 400/1046 401/1047
f 401/1048 400/1049 402/1050
f 401/1051 402/1052 403/1053
f 403/1054 402/1055 404/1056
f 403/1057 404/1058 405/1059
f 405/1060 404/1061 406/1062
f 405/1063 406/1064 407/1065
f 407/1066 406/1067 408/1068
f 407/1069 408/1070 409/1071
f 409/1072 408/1073 410/1074
f 409/1075 410/1076 411/1077
f 411/1078 410/1079 412/1080
f 411/1081 412/1082 413/1083
f 413/1084 412/1085 414/1086
f 413/1087 414/1088 415/1089
f 415/1090 414/1091 416/1092
f 415/1093 416/1094 417/1095
f 417/1096 416/1097 418/1098
f 417/1099 418/1100 419/1101
f 419/1102 418/1103 420/1104
f 419/1105 420/1106 421/1107
f 421/1108 420/1109 422/1110
f 421/1111 422/1112 423/1113
f 423/1114 422/1115 424/1116
f 423/1117 424/1118 425/1119
f 425/1120 424/1121 426/1122
f 425/1123 426/1124 427/1125
f 427/1126 426/1127 428/1128
f 427/1129 428/1130 429/1131
f 429/1132 428/1133 430/1134
f 429/1135 430/1136 431/1137
f 431/1138 430/1139 432/1140
f 431/1141 432/1142 433/1143
f 433/1144 432/1145 434/1146
f 433/1147 434/1148 435/1149
f 435/1150 434/1151 436/1152
f 435/1153 436/1154 437/1155
f 437/1156 436/1157 438/1158
f 437/1159 438/1160 439/1161
f 439/1162 438/1163 440/1164
f 439/1165 440/1166 441/1167
f 441/1168 440/1169 442/1170
f 441/1171 442/1172 443/1173
f 443/1174 442/1175 444/1176
f 443/1177 444/1178 445/1179
f 445/1180 444/1181 446/1182
f 445/1183 446/1184 447/1185
f 447/1186 446/1187 448/1188
f 447/1189 448/1190 449/1191
f 449/1192 448/1193 450/1194
f 449/1195 450/1196 451/1197
f 451/1198 450/1199 452/1200
f 451/1201 452/1202 453/1203
f 453/1204 452/1205 454/1206
f 453/1207 454/1208 455/1209
f 455/1210 454/1211 456/1212
f 455/1213 456/1214 457/1215
f 457/1216 456/1217 458/1218
f 457/1219 458/1220 459/1221
f 459/1222 458/1223 460/1224
f 459/1225 460/1226 461/1227
f 461/1228 460/1229 462/1230
f 461/1231 462/1232 463/1233
f 463/1234 462/1235 464/1236
f 463/1237 464/1238 465/1239
f 465/1240 464/1241 466/1242
f 465/1243 466/1244 467/1245
f 467/1246 466/1247 468/1248
f 467/1249 468/1250 469/1251
f 469/1252 468/1253 470/1254
f 469/1255 470/1256 471/1257
f 471/1258 470/1259 472/1260
f 471/1261 472/1262 473/1263
f 473/1264 472/1265 474/1266
f 473/1267 474/1268 475/1269
f 475/1270 474/1271 476/1272
f 475/1273 476/1274 477/1275
f 477/1276 476/1277 5/1278
f 477/1279 5/1280 4/1281
f 478/1282 479/1283 480/1284
f 480/1285 479/1286 481/1287
f 481/1288 482/1289 480/1290
f 480/1291 482/1292 483/1293
f 480/1294 483/1295 478/1296
f 478/1297 483/1298 484/1299
f 485/1300 486/1301 487/1302
f 487/1303 486/1304 488/1305
f 489/1306 490/1307 491/1308
f 491/1309 490/1310 492/1311
f 493/1312 494/1313 495/1314
f 495/1315 494/1316 496/1317
f 495/1318 496/1319 495/1320
f 495/1321 496/1322 497/1323
f 495/1324 497/1325 498/1326
f 498/1327 497/1328 499/1329
f 498/1330 499/1331 498/1332
f 498/1333 499/1334 500/1335
f 498/1336 500/1337 501/1338
f 502/1339 496/1340 494/1341
f 503/1342 499/1343 497/1344
f 504/1345 505/1346 506/1347
f 506/1348 505/1349 507/1350
f 508/1351 509/1352 510/1353
f 510/1354 509/1355 511/1356
f 512/1357 513/1358 514/1359
f 514/1360 513/1361 515/1362
f 516/1363 517/1364 518/1365
f 518/1366 517/1367 519/1368
f 520/1369 521/1370 522/1371
f 522/1372 521/1373 523/1374
f 524/1375 525/1376 526/1377
f 526/1378 525/1379 527/1380
f 528/1381 529/1382 530/1383
f 530/1384 529/1385 531/1386
f 532/1387 533/1388 534/1389
f 534/1390 533/1391 535/1392
f 25/1393 111/1394 536/1395
f 536/1396 111/1397 537/1398
f 197/1399 199/1400 202/1401
f 202/1402 199/1403 538/1404
f 201/1405 202/1406 206/1407
f 206/1408 202/1409 538/1410
f 212/1411 213/1412 208/1413
f 208/1414 213/1415 210/1416
f 220/1417 230/1418 221/1419
f 221/1420 230/1421 229/1422
f 236/1423 235/1424 539/1425
f 539/1426 235/1427 246/1428
f 539/1429 246/1430 232/1431
f 232/1432 246/1433 234/1434
f 253/1435 251/1436 254/1437
f 254/1438 251/1439 252/1440
f 256/1441 255/1442 262/1443
f 262/1444 255/1445 259/1446
f 258/1447 256/1448 261/1449
f 261/1450 256/1451 262/1452
f 274/1453 276/1454 281/1455
f 281/1456 276/1457 280/1458
f 479/1459 540/1460 481/1461
f 481/1462 540/1463 482/1464
f 541/1465 542/1466 543/1467
f 543/1468 542/1469 544/1470
f 545/1471 546/1472 547/1473
f 547/1474 546/1475 548/1476
f 549/1477 550/1478 551/1479
f 551/1480 550/1481 552/1482
f 553/1483 554/1484 555/1485
f 555/1486 554/1487 556/1488
f 557/1489 558/1490 559/1491
f 559/1492 558/1493 560/1494
f 561/1495 562/1496 563/1497
f 563/1498 562/1499 564/1500
f 565/1501 566/1502 567/1503
f 567/1504 566/1505 568/1506
f 569/1507 570/1508 571/1509
f 571/1510 570/1511 572/1512
f 479/1513 478/1514 540/1515
f 540/1516 478/1517 484/1518
f 573/1519 574/1520 575/1521
f 575/1522 574/1523 576/1524
f 577/1525 578/1526 579/1527
f 579/1528 578/1529 580/1530
