# Exported from USD for MuJoCo with source material subsets
v -15.5275513 -1.72063113 2.11120474
v -15.5315375 -1.72369171 2.11120474
v -15.5229069 -1.71870649 2.11120474
v -15.5345948 -1.72767687 2.11120474
v -15.5179281 -1.71805013 2.11120474
v -15.5365178 -1.73232306 2.11120474
v -15.5129416 -1.71870542 2.11120474
v -15.5371727 -1.73729981 2.11120474
v -15.5083026 -1.7206266 2.11120474
v -15.5365152 -1.74228687 2.11120474
v -15.5043133 -1.72368563 2.11120474
v -15.5345915 -1.74692786 2.11120474
v -15.5012539 -1.72767187 2.11120474
v -15.531532 -1.75091392 2.11120474
v -15.4993301 -1.7323128 2.11120474
v -15.5275429 -1.75397307 2.11120474
v -15.4986727 -1.73729981 2.11120474
v -15.5229038 -1.75589413 2.11120474
v -15.4993275 -1.74227661 2.11120474
v -15.5179173 -1.75654948 2.11120474
v -15.5012506 -1.7469228 2.11120474
v -15.5129384 -1.75589312 2.11120474
v -15.5043078 -1.75090796 2.11120474
v -15.508294 -1.75396848 2.11120474
v -15.4986727 -1.73729981 2.05620473
v -15.4993301 -1.7323128 2.05620473
v -15.5012539 -1.72767187 2.05620473
v -15.5043133 -1.72368563 2.05620473
v -15.5083026 -1.7206266 2.05620473
v -15.5129416 -1.71870542 2.05620473
v -15.5179281 -1.71805013 2.05620473
v -15.5229069 -1.71870649 2.05620473
v -15.5275513 -1.72063113 2.05620473
v -15.5315375 -1.72369171 2.05620473
v -15.5345948 -1.72767687 2.05620473
v -15.5365178 -1.73232306 2.05620473
v -15.5371727 -1.73729981 2.05620473
v -15.4993275 -1.74227661 2.05620473
v -15.5012506 -1.7469228 2.05620473
v -15.5043078 -1.75090796 2.05620473
v -15.508294 -1.75396848 2.05620473
v -15.5129384 -1.75589312 2.05620473
v -15.5179173 -1.75654948 2.05620473
v -15.5229038 -1.75589413 2.05620473
v -15.5275429 -1.75397307 2.05620473
v -15.531532 -1.75091392 2.05620473
v -15.5345915 -1.74692786 2.05620473
v -15.5365152 -1.74228687 2.05620473
vt -0.26284501 -0.295253009
vt -0.259220988 -0.292470992
vt -0.267066985 -0.297003001
vt -0.267066985 -0.297003001
vt -0.259220988 -0.292470992
vt -0.25644201 -0.288848013
vt -0.267066985 -0.297003001
vt -0.25644201 -0.288848013
vt -0.271593004 -0.297598988
vt -0.271593004 -0.297598988
vt -0.25644201 -0.288848013
vt -0.254693002 -0.28462401
vt -0.271593004 -0.297598988
vt -0.254693002 -0.28462401
vt -0.276125997 -0.297004014
vt -0.276125997 -0.297004014
vt -0.254693002 -0.28462401
vt -0.254097998 -0.280099988
vt -0.276125997 -0.297004014
vt -0.254097998 -0.280099988
vt -0.280344009 -0.295257002
vt -0.280344009 -0.295257002
vt -0.254097998 -0.280099988
vt -0.254696012 -0.275566012
vt -0.280344009 -0.295257002
vt -0.254696012 -0.275566012
vt -0.283969998 -0.292475998
vt -0.283969998 -0.292475998
vt -0.254696012 -0.275566012
vt -0.256444991 -0.271346986
vt -0.283969998 -0.292475998
vt -0.256444991 -0.271346986
vt -0.286751986 -0.288852006
vt -0.286751986 -0.288852006
vt -0.256444991 -0.271346986
vt -0.259225994 -0.267722994
vt -0.286751986 -0.288852006
vt -0.259225994 -0.267722994
vt -0.288500011 -0.284633011
vt -0.288500011 -0.284633011
vt -0.259225994 -0.267722994
vt -0.262852013 -0.26494199
vt -0.288500011 -0.284633011
vt -0.262852013 -0.26494199
vt -0.289097995 -0.280099988
vt -0.289097995 -0.280099988
vt -0.262852013 -0.26494199
vt -0.267069995 -0.263195992
vt -0.289097995 -0.280099988
vt -0.267069995 -0.263195992
vt -0.288502991 -0.275575012
vt -0.288502991 -0.275575012
vt -0.267069995 -0.263195992
vt -0.271602988 -0.262600005
vt -0.288502991 -0.275575012
vt -0.271602988 -0.262600005
vt -0.286754996 -0.271351993
vt -0.286754996 -0.271351993
vt -0.271602988 -0.262600005
vt -0.276129007 -0.263197005
vt -0.286754996 -0.271351993
vt -0.276129007 -0.263197005
vt -0.283975005 -0.267729014
vt -0.283975005 -0.267729014
vt -0.276129007 -0.263197005
vt -0.280351013 -0.264946014
vt 1.86609697 -0.280099988
vt 1.86609697 -0.284633011
vt 1.916098 -0.280099988
vt -1.916098 -0.280099988
vt -1.86609697 -0.284633011
vt -1.86609697 -0.284633011
vt 1.916098 -0.280099988
vt 1.86609697 -0.284633011
vt 1.916098 -0.284633011
vt 1.916098 -0.284633011
vt 1.86609697 -0.284633011
vt 1.86609697 -0.288852006
vt 1.916098 -0.284633011
vt 1.86609697 -0.288852006
vt 1.916098 -0.288852006
vt 1.916098 -0.288852006
vt 1.86609697 -0.288852006
vt 1.86609697 -0.292475998
vt 1.916098 -0.288852006
vt 1.86609697 -0.292475998
vt 1.916098 -0.292475998
vt -0.283969998 1.916098
vt -0.283969998 1.86609697
vt -0.280344009 1.86609697
vt -0.283969998 1.916098
vt -0.280344009 1.86609697
vt -0.280344009 1.916098
vt -0.280344009 1.916098
vt -0.280344009 1.86609697
vt -0.276125997 1.86609697
vt -0.280344009 1.916098
vt -0.276125997 1.86609697
vt -0.276125997 1.916098
vt -0.276125997 1.916098
vt -0.276125997 1.86609697
vt -0.271593004 1.86609697
vt -0.276125997 1.916098
vt -0.271593004 1.86609697
vt -0.271593004 1.916098
vt -0.271593004 1.916098
vt -0.271593004 1.86609697
vt -0.267066985 1.86609697
vt -0.271593004 1.916098
vt -0.267066985 1.86609697
vt -0.267066985 1.916098
vt -0.267066985 1.916098
vt -0.267066985 1.86609697
vt -0.26284501 1.86609697
vt -0.267066985 1.916098
vt -0.26284501 1.86609697
vt -0.26284501 1.916098
vt -0.26284501 1.916098
vt -0.26284501 1.86609697
vt -0.259220988 1.86609697
vt -0.26284501 1.916098
vt -0.259220988 1.86609697
vt -0.259220988 1.916098
vt -1.916098 -0.292470992
vt -1.86609697 -0.292470992
vt -1.86609697 -0.288848013
vt -1.916098 -0.292470992
vt -1.86609697 -0.288848013
vt -1.916098 -0.288848013
vt -1.916098 -0.288848013
vt -1.86609697 -0.288848013
vt -1.86609697 -0.28462401
vt -1.916098 -0.288848013
vt -1.86609697 -0.28462401
vt -1.916098 -0.28462401
vt -1.916098 -0.28462401
vt -1.86609697 -0.28462401
vt -1.86609697 -0.280099988
vt -1.916098 -0.28462401
vt -1.86609697 -0.280099988
vt -1.916098 -0.280099988
vt 1.916098 -0.280099988
vt 1.916098 -0.275575012
vt 1.86609697 -0.280099988
vt -1.86609697 -0.280099988
vt -1.916098 -0.275575012
vt -1.916098 -0.275575012
vt 1.86609697 -0.280099988
vt 1.916098 -0.275575012
vt 1.86609697 -0.275575012
vt 1.86609697 -0.275575012
vt 1.916098 -0.275575012
vt 1.916098 -0.271351993
vt 1.86609697 -0.275575012
vt 1.916098 -0.271351993
vt 1.86609697 -0.271351993
vt 1.86609697 -0.271351993
vt 1.916098 -0.271351993
vt 1.916098 -0.267729014
vt 1.86609697 -0.271351993
vt 1.916098 -0.267729014
vt 1.86609697 -0.267729014
vt 0.283975005 1.86609697
vt 0.283975005 1.916098
vt 0.280351013 1.916098
vt 0.283975005 1.86609697
vt 0.280351013 1.916098
vt 0.280351013 1.86609697
vt 0.280351013 1.86609697
vt 0.280351013 1.916098
vt 0.276129007 1.916098
vt 0.280351013 1.86609697
vt 0.276129007 1.916098
vt 0.276129007 1.86609697
vt 0.276129007 1.86609697
vt 0.276129007 1.916098
vt 0.271602988 1.916098
vt 0.276129007 1.86609697
vt 0.271602988 1.916098
vt 0.271602988 1.86609697
vt 0.271602988 1.86609697
vt 0.271602988 1.916098
vt 0.267069995 1.916098
vt 0.271602988 1.86609697
vt 0.267069995 1.916098
vt 0.267069995 1.86609697
vt 0.267069995 1.86609697
vt 0.267069995 1.916098
vt 0.262852013 1.916098
vt 0.267069995 1.86609697
vt 0.262852013 1.916098
vt 0.262852013 1.86609697
vt 0.262852013 1.86609697
vt 0.262852013 1.916098
vt 0.259225994 1.916098
vt 0.262852013 1.86609697
vt 0.259225994 1.916098
vt 0.259225994 1.86609697
vt -1.86609697 -0.267722994
vt -1.916098 -0.267722994
vt -1.916098 -0.271346986
vt -1.86609697 -0.267722994
vt -1.916098 -0.271346986
vt -1.86609697 -0.271346986
vt -1.86609697 -0.271346986
vt -1.916098 -0.271346986
vt -1.916098 -0.275566012
vt -1.86609697 -0.271346986
vt -1.916098 -0.275566012
vt -1.86609697 -0.275566012
vt -1.86609697 -0.275566012
vt -1.916098 -0.275566012
vt -1.916098 -0.280099988
vt -1.86609697 -0.275566012
vt -1.916098 -0.280099988
vt -1.86609697 -0.280099988
f 1/1 2/2 3/3
f 3/4 2/5 4/6
f 3/7 4/8 5/9
f 5/10 4/11 6/12
f 5/13 6/14 7/15
f 7/16 6/17 8/18
f 7/19 8/20 9/21
f 9/22 8/23 10/24
f 9/25 10/26 11/27
f 11/28 10/29 12/30
f 11/31 12/32 13/33
f 13/34 12/35 14/36
f 13/37 14/38 15/39
f 15/40 14/41 16/42
f 15/43 16/44 17/45
f 17/46 16/47 18/48
f 17/49 18/50 19/51
f 19/52 18/53 20/54
f 19/55 20/56 21/57
f 21/58 20/59 22/60
f 21/61 22/62 23/63
f 23/64 22/65 24/66
f 25/67 26/68 17/69
f 17/70 26/71 26/72
f 17/73 26/74 15/75
f 15/76 26/77 27/78
f 15/79 27/80 13/81
f 13/82 27/83 28/84
f 13/85 28/86 11/87
f 11/88 28/89 29/90
f 11/91 29/92 9/93
f 9/94 29/95 30/96
f 9/97 30/98 7/99
f 7/100 30/101 31/102
f 7/103 31/104 5/105
f 5/106 31/107 32/108
f 5/109 32/110 3/111
f 3/112 32/113 33/114
f 3/115 33/116 1/117
f 1/118 33/119 34/120
f 1/121 34/122 2/123
f 2/124 34/125 35/126
f 2/127 35/128 4/129
f 4/130 35/131 36/132
f 4/133 36/134 6/135
f 6/136 36/137 37/138
f 6/139 37/140 8/141
f 17/142 19/143 25/144
f 25/145 19/146 19/147
f 25/148 19/149 38/150
f 38/151 19/152 21/153
f 38/154 21/155 39/156
f 39/157 21/158 23/159
f 39/160 23/161 40/162
f 40/163 23/164 24/165
f 40/166 24/167 41/168
f 41/169 24/170 22/171
f 41/172 22/173 42/174
f 42/175 22/176 20/177
f 42/178 20/179 43/180
f 43/181 20/182 18/183
f 43/184 18/185 44/186
f 44/187 18/188 16/189
f 44/190 16/191 45/192
f 45/193 16/194 14/195
f 45/196 14/197 46/198
f 46/199 14/200 12/201
f 46/202 12/203 47/204
f 47/205 12/206 10/207
f 47/208 10/209 48/210
f 48/211 10/212 8/213
f 48/214 8/215 37/216
