# Exported from USD for MuJoCo with source material subsets
v -11.574328 0.395289818 0.434890324
v -11.590828 0.395289341 0.434890324
v -11.574328 0.39488248 0.440057034
v -11.590828 0.394827405 0.440392429
v -11.574328 0.393671552 0.44509601
v -11.590828 0.39345471 0.445740336
v -11.574328 0.391686717 0.449882919
v -11.590828 0.391209642 0.450784618
v -11.574328 0.388977328 0.454299862
v -11.590828 0.388154784 0.455383772
v -11.574328 0.385610024 0.458237881
v -11.590828 0.384375969 0.45940935
v -11.574328 0.38166813 0.461600119
v -11.590828 0.379978934 0.462748581
v -11.574328 0.377248922 0.464303905
v -11.590828 0.37508742 0.465307707
v -11.574328 0.372459451 0.46628266
v -11.590828 0.36983625 0.467015797
v -11.574328 0.367435971 0.467486495
v -11.6018281 0.36983625 0.467015797
v -11.6018281 0.364825169 0.467792684
v -11.574328 0.362289826 0.46788835
v -11.6018281 0.359754363 0.467792684
v -11.574328 0.357098976 0.467478448
v -11.6018281 0.354743281 0.467015797
v -11.590828 0.354743281 0.467015797
v -11.574328 0.352066675 0.466265673
v -11.590828 0.349492828 0.465307886
v -11.574328 0.347286264 0.464281196
v -11.590828 0.344600359 0.462748581
v -11.574328 0.342875043 0.461573774
v -11.590828 0.340203205 0.45940935
v -11.574328 0.338941852 0.458210224
v -11.590828 0.336424509 0.455383772
v -11.574328 0.335583249 0.454273337
v -11.590828 0.333369652 0.450784499
v -11.574328 0.332881251 0.44986015
v -11.590828 0.331124345 0.445740217
v -11.574328 0.330902616 0.445079142
v -11.590828 0.32975165 0.44039225
v -11.574328 0.329695741 0.44005149
v -11.590828 0.329289833 0.434890324
v -11.574328 0.329289833 0.434890324
v -11.574328 0.329697052 0.429723555
v -11.590828 0.329739848 0.429458672
v -11.574328 0.33090798 0.424684578
v -11.590828 0.331077853 0.424175197
v -11.574328 0.332892815 0.41989761
v -11.590828 0.333267251 0.419184023
v -11.574328 0.335602323 0.415480787
v -11.590828 0.336248318 0.414621288
v -11.574328 0.338969508 0.411542648
v -11.590828 0.339939633 0.410611385
v -11.574328 0.342911402 0.40818035
v -11.590828 0.344240585 0.407263869
v -11.574328 0.347330609 0.405476624
v -11.590828 0.34903411 0.404669816
v -11.574328 0.352120081 0.403497869
v -11.590828 0.354188958 0.402900213
v -11.574328 0.357143441 0.402294034
v -11.590828 0.359564701 0.402003163
v -11.574328 0.362289826 0.401892239
v -11.590828 0.36501495 0.402003223
v -11.574328 0.367480556 0.40230214
v -11.590828 0.370390931 0.402900273
v -11.574328 0.372512857 0.403514797
v -11.590828 0.375545779 0.404670114
v -11.574328 0.377293149 0.405499274
v -11.590828 0.380339066 0.407264108
v -11.574328 0.38170437 0.408206696
v -11.590828 0.384640018 0.410611683
v -11.574328 0.38563768 0.411570365
v -11.590828 0.388331333 0.414621526
v -11.574328 0.388996402 0.415507073
v -11.590828 0.391312281 0.419184262
v -11.574328 0.391698161 0.419920379
v -11.590828 0.393501559 0.424175614
v -11.574328 0.393677035 0.424701387
v -11.590828 0.394838968 0.429454023
v -11.574328 0.394883672 0.429729039
vt 0.392174989 -0.676449001
vt 0.392174989 -0.691448987
vt 0.396872014 -0.676449001
vt 0.396872014 -0.676449001
vt 0.392174989 -0.691448987
vt 0.397177011 -0.691448987
vt 0.396872014 -0.676449001
vt 0.397177011 -0.691448987
vt 0.401452988 -0.676449001
vt 0.401452988 -0.676449001
vt 0.397177011 -0.691448987
vt 0.402038008 -0.691448987
vt 0.401452988 -0.676449001
vt 0.402038008 -0.691448987
vt 0.405804008 -0.676449001
vt 0.405804008 -0.676449001
vt 0.402038008 -0.691448987
vt 0.406623989 -0.691448987
vt 0.405804008 -0.676449001
vt 0.406623989 -0.691448987
vt 0.40981999 -0.676449001
vt 0.40981999 -0.676449001
vt 0.406623989 -0.691448987
vt 0.410804987 -0.691448987
vt 0.40981999 -0.676449001
vt 0.410804987 -0.691448987
vt 0.413399994 -0.676449001
vt 0.413399994 -0.676449001
vt 0.410804987 -0.691448987
vt 0.41446501 -0.691448987
vt 0.0446659997 -0.676449001
vt 0.0457880013 -0.691448987
vt 0.0482489988 -0.676449001
vt 0.0482489988 -0.676449001
vt 0.0457880013 -0.691448987
vt 0.0497849993 -0.691448987
vt 0.0482489988 -0.676449001
vt 0.0497849993 -0.691448987
vt 0.0522670001 -0.676449001
vt 0.0522670001 -0.676449001
vt 0.0497849993 -0.691448987
vt 0.0542320013 -0.691448987
vt 0.0522670001 -0.676449001
vt 0.0542320013 -0.691448987
vt 0.0566210002 -0.676449001
vt 0.0566210002 -0.676449001
vt 0.0542320013 -0.691448987
vt 0.0590060018 -0.691448987
vt 0.0566210002 -0.676449001
vt 0.0590060018 -0.691448987
vt 0.0611880012 -0.676449001
vt 0.0611880012 -0.676449001
vt 0.0590060018 -0.691448987
vt 0.0590060018 -0.701448977
vt -0.421806991 -0.676449001
vt -0.421380013 -0.701448977
vt -0.421806991 -0.676449001
vt 0.0611880012 -0.676449001
vt 0.0590060018 -0.701448977
vt 0.0635609999 -0.701448977
vt 0.0611880012 -0.676449001
vt 0.0635609999 -0.701448977
vt 0.065866001 -0.676449001
vt 0.065866001 -0.676449001
vt 0.0635609999 -0.701448977
vt 0.068171002 -0.701448977
vt 0.065866001 -0.676449001
vt 0.068171002 -0.701448977
vt 0.0705849975 -0.676449001
vt 0.0705849975 -0.676449001
vt 0.068171002 -0.701448977
vt 0.0727270022 -0.701448977
vt -0.421799988 -0.676449001
vt -0.421380013 -0.701448977
vt -0.421799988 -0.676449001
vt 0.0705849975 -0.676449001
vt 0.0727270022 -0.701448977
vt 0.0727270022 -0.691448987
vt 0.0705849975 -0.676449001
vt 0.0727270022 -0.691448987
vt 0.0751599967 -0.676449001
vt 0.0751599967 -0.676449001
vt 0.0727270022 -0.691448987
vt 0.0775000006 -0.691448987
vt 0.0751599967 -0.676449001
vt 0.0775000006 -0.691448987
vt 0.0795060024 -0.676449001
vt 0.0795060024 -0.676449001
vt 0.0775000006 -0.691448987
vt 0.0819469988 -0.691448987
vt 0.0795060024 -0.676449001
vt 0.0819469988 -0.691448987
vt 0.0835160017 -0.676449001
vt 0.0835160017 -0.676449001
vt 0.0819469988 -0.691448987
vt 0.0859450027 -0.691448987
vt 0.0835160017 -0.676449001
vt 0.0859450027 -0.691448987
vt 0.0870909989 -0.676449001
vt -0.41337499 -0.676449001
vt -0.41446501 -0.691448987
vt -0.410804987 -0.691448987
vt -0.41337499 -0.676449001
vt -0.410804987 -0.691448987
vt -0.409796 -0.676449001
vt -0.409796 -0.676449001
vt -0.410804987 -0.691448987
vt -0.406623989 -0.691448987
vt -0.409796 -0.676449001
vt -0.406623989 -0.691448987
vt -0.405784011 -0.676449001
vt -0.405784011 -0.676449001
vt -0.406623989 -0.691448987
vt -0.402038008 -0.691448987
vt -0.405784011 -0.676449001
vt -0.402038008 -0.691448987
vt -0.401437014 -0.676449001
vt -0.401437014 -0.676449001
vt -0.402038008 -0.691448987
vt -0.397175997 -0.691448987
vt -0.401437014 -0.676449001
vt -0.397175997 -0.691448987
vt -0.396867007 -0.676449001
vt -0.396867007 -0.676449001
vt -0.397175997 -0.691448987
vt -0.392174989 -0.691448987
vt -0.396867007 -0.676449001
vt -0.392174989 -0.691448987
vt -0.392174989 -0.676449001
vt -0.392174989 -0.676449001
vt -0.392174989 -0.691448987
vt -0.38747701 -0.676449001
vt -0.38747701 -0.676449001
vt -0.392174989 -0.691448987
vt -0.387237012 -0.691448987
vt -0.38747701 -0.676449001
vt -0.387237012 -0.691448987
vt -0.38289699 -0.676449001
vt -0.38289699 -0.676449001
vt -0.387237012 -0.691448987
vt -0.382434011 -0.691448987
vt -0.38289699 -0.676449001
vt -0.382434011 -0.691448987
vt -0.378544986 -0.676449001
vt -0.378544986 -0.676449001
vt -0.382434011 -0.691448987
vt -0.377896011 -0.691448987
vt -0.378544986 -0.676449001
vt -0.377896011 -0.691448987
vt -0.374529988 -0.676449001
vt -0.374529988 -0.676449001
vt -0.377896011 -0.691448987
vt -0.373748004 -0.691448987
vt -0.374529988 -0.676449001
vt -0.373748004 -0.691448987
vt -0.370949 -0.676449001
vt -0.370949 -0.676449001
vt -0.373748004 -0.691448987
vt -0.370103002 -0.691448987
vt -0.0870660022 -0.676449001
vt -0.0861840025 -0.691448987
vt -0.0834830031 -0.676449001
vt -0.0834830031 -0.676449001
vt -0.0861840025 -0.691448987
vt -0.0822739974 -0.691448987
vt -0.0834830031 -0.676449001
vt -0.0822739974 -0.691448987
vt -0.0794650018 -0.676449001
vt -0.0794650018 -0.676449001
vt -0.0822739974 -0.691448987
vt -0.0779170021 -0.691448987
vt -0.0794650018 -0.676449001
vt -0.0779170021 -0.691448987
vt -0.0751110017 -0.676449001
vt -0.0751110017 -0.676449001
vt -0.0779170021 -0.691448987
vt -0.0732299984 -0.691448987
vt -0.0751110017 -0.676449001
vt -0.0732299984 -0.691448987
vt -0.0705450028 -0.676449001
vt -0.0705450028 -0.676449001
vt -0.0732299984 -0.691448987
vt -0.0683429986 -0.691448987
vt -0.0705450028 -0.676449001
vt -0.0683429986 -0.691448987
vt -0.065866001 -0.676449001
vt -0.065866001 -0.676449001
vt -0.0683429986 -0.691448987
vt -0.0633890033 -0.691448987
vt -0.065866001 -0.676449001
vt -0.0633890033 -0.691448987
vt -0.0611470006 -0.676449001
vt -0.0611470006 -0.676449001
vt -0.0633890033 -0.691448987
vt -0.0585010014 -0.691448987
vt -0.0611470006 -0.676449001
vt -0.0585010014 -0.691448987
vt -0.0565720014 -0.676449001
vt -0.0565720014 -0.676449001
vt -0.0585010014 -0.691448987
vt -0.0538149998 -0.691448987
vt -0.0565720014 -0.676449001
vt -0.0538149998 -0.691448987
vt -0.0522270016 -0.676449001
vt -0.0522270016 -0.676449001
vt -0.0538149998 -0.691448987
vt -0.0494580008 -0.691448987
vt -0.0522270016 -0.676449001
vt -0.0494580008 -0.691448987
vt -0.0482160002 -0.676449001
vt -0.0482160002 -0.676449001
vt -0.0494580008 -0.691448987
vt -0.0455479994 -0.691448987
vt -0.0482160002 -0.676449001
vt -0.0455479994 -0.691448987
vt -0.0446409993 -0.676449001
vt 0.370974988 -0.676449001
vt 0.370103002 -0.691448987
vt 0.373748004 -0.691448987
vt 0.370974988 -0.676449001
vt 0.373748004 -0.691448987
vt 0.374554008 -0.676449001
vt 0.374554008 -0.676449001
vt 0.373748004 -0.691448987
vt 0.377896011 -0.691448987
vt 0.374554008 -0.676449001
vt 0.377896011 -0.691448987
vt 0.378565997 -0.676449001
vt 0.378565997 -0.676449001
vt 0.377896011 -0.691448987
vt 0.382434011 -0.691448987
vt 0.378565997 -0.676449001
vt 0.382434011 -0.691448987
vt 0.38291201 -0.676449001
vt 0.38291201 -0.676449001
vt 0.382434011 -0.691448987
vt 0.387232989 -0.691448987
vt 0.38291201 -0.676449001
vt 0.387232989 -0.691448987
vt 0.387483001 -0.676449001
vt 0.387483001 -0.676449001
vt 0.387232989 -0.691448987
vt 0.392174989 -0.691448987
vt 0.387483001 -0.676449001
vt 0.392174989 -0.691448987
vt 0.392174989 -0.676449001
f 1/1 2/2 3/3
f 3/4 2/5 4/6
f 3/7 4/8 5/9
f 5/10 4/11 6/12
f 5/13 6/14 7/15
f 7/16 6/17 8/18
f 7/19 8/20 9/21
f 9/22 8/23 10/24
f 9/25 10/26 11/27
f 11/28 10/29 12/30
f 11/31 12/32 13/33
f 13/34 12/35 14/36
f 13/37 14/38 15/39
f 15/40 14/41 16/42
f 15/43 16/44 17/45
f 17/46 16/47 18/48
f 17/49 18/50 19/51
f 19/52 18/53 20/54
f 19/55 20/56 19/57
f 19/58 20/59 21/60
f 19/61 21/62 22/63
f 22/64 21/65 23/66
f 22/67 23/68 24/69
f 24/70 23/71 25/72
f 24/73 25/74 24/75
f 24/76 25/77 26/78
f 24/79 26/80 27/81
f 27/82 26/83 28/84
f 27/85 28/86 29/87
f 29/88 28/89 30/90
f 29/91 30/92 31/93
f 31/94 30/95 32/96
f 31/97 32/98 33/99
f 33/100 32/101 34/102
f 33/103 34/104 35/105
f 35/106 34/107 36/108
f 35/109 36/110 37/111
f 37/112 36/113 38/114
f 37/115 38/116 39/117
f 39/118 38/119 40/120
f 39/121 40/122 41/123
f 41/124 40/125 42/126
f 41/127 42/128 43/129
f 43/130 42/131 44/132
f 44/133 42/134 45/135
f 44/136 45/137 46/138
f 46/139 45/140 47/141
f 46/142 47/143 48/144
f 48/145 47/146 49/147
f 48/148 49/149 50/150
f 50/151 49/152 51/153
f 50/154 51/155 52/156
f 52/157 51/158 53/159
f 52/160 53/161 54/162
f 54/163 53/164 55/165
f 54/166 55/167 56/168
f 56/169 55/170 57/171
f 56/172 57/173 58/174
f 58/175 57/176 59/177
f 58/178 59/179 60/180
f 60/181 59/182 61/183
f 60/184 61/185 62/186
f 62/187 61/188 63/189
f 62/190 63/191 64/192
f 64/193 63/194 65/195
f 64/196 65/197 66/198
f 66/199 65/200 67/201
f 66/202 67/203 68/204
f 68/205 67/206 69/207
f 68/208 69/209 70/210
f 70/211 69/212 71/213
f 70/214 71/215 72/216
f 72/217 71/218 73/219
f 72/220 73/221 74/222
f 74/223 73/224 75/225
f 74/226 75/227 76/228
f 76/229 75/230 77/231
f 76/232 77/233 78/234
f 78/235 77/236 79/237
f 78/238 79/239 80/240
f 80/241 79/242 2/243
f 80/244 2/245 1/246
