# Exported from USD for MuJoCo with source material subsets
v 10.395627 2.61691155 0.830000293
v 10.395627 2.57691158 0.830000293
v 10.355627 2.61691155 0.830000293
v 10.355627 2.57691158 0.830000293
v 10.1356271 2.57691158 0.880000246
v 10.1356271 2.61691155 0.880000246
v 10.1356268 2.57691158 1.74999977
v 10.1356268 2.61691155 1.74999977
v 10.0956269 2.57691135 1.74999977
v 10.0956271 2.57691135 0.880000246
v 10.0956269 2.61691131 1.74999977
v 10.3256256 3.98191132 1.565
v 10.3256256 3.94191135 1.565
v 10.3606256 3.98191132 1.565
v 10.3606256 3.94191135 1.565
v 10.3256258 3.98191132 0.815000308
v 10.3606258 3.98191132 0.815000308
v 10.3256258 3.94191135 0.815000308
v 10.3606258 3.94191135 0.815000308
v 8.62562755 2.71191014 1.6599994
v 8.62562755 2.66191019 1.6599994
v 8.66562751 2.71191014 1.6599994
v 8.66562763 2.66191019 1.6599994
v 8.62562766 2.71191014 0.859999788
v 8.66562775 2.71191014 0.859999788
v 8.62562766 2.66191019 0.859999788
v 8.66562775 2.66191019 0.859999788
v 10.0956271 2.61691131 0.880000246
v 10.325626 3.85691132 0.562885416
v 10.3206259 3.85691132 0.562885416
v 10.325626 3.86309113 0.561906588
v 10.3206259 3.86309113 0.561906588
v 10.325626 3.86866726 0.559065711
v 10.3206259 3.86866726 0.559065711
v 10.325626 3.87309136 0.55464108
v 10.3206259 3.87309136 0.55464108
v 10.325626 3.87593235 0.549065721
v 10.3206259 3.87593235 0.549065721
v 10.325626 3.8769113 0.542885435
v 10.3206259 3.8769113 0.542885435
v 10.3256263 3.3769113 0.780000281
v 10.3256263 3.37789024 0.786180687
v 10.3206263 3.3769113 0.780000281
v 10.3206263 3.37789024 0.786180687
v 10.3256263 3.38073124 0.791756046
v 10.3206263 3.38073124 0.791756046
v 10.3256263 3.38515581 0.796180677
v 10.3206263 3.38515581 0.796180677
v 10.3256263 3.39073099 0.799021494
v 10.3206263 3.39073099 0.799021494
v 10.3256263 3.39691128 0.800000381
v 10.3206263 3.39691128 0.800000381
v 10.3206264 3.3769113 0.745537829
v 10.3206264 3.37790407 0.739314806
v 10.3256264 3.3769113 0.745537829
v 10.3256264 3.37790407 0.739314806
v 10.3206264 3.38078369 0.733709645
v 10.3256264 3.38078369 0.733709645
v 10.3206264 3.38526453 0.729278755
v 10.3256264 3.38526453 0.729278755
v 10.3206264 3.3909017 0.726462018
v 10.3256264 3.3909017 0.726462018
v 10.3206263 3.39713539 0.725539041
v 10.3256263 3.39713539 0.725539041
v 10.3206259 3.83135714 0.567698729
v 10.3206259 3.83527197 0.56507529
v 10.325626 3.83135714 0.567698729
v 10.325626 3.83527197 0.56507529
v 10.3206259 3.83969177 0.563440573
v 10.325626 3.83969177 0.563440573
v 10.3206259 3.84437145 0.562885416
v 10.325626 3.84437145 0.562885416
v 10.3956268 2.57691158 1.58
v 10.3956268 2.61691155 1.58
v 10.3556268 2.57691158 1.58
v 10.3556268 2.61691155 1.58
vt 0.882502019 0.742498994
vt 0.882502019 0.782499015
vt 0.842501998 0.742498994
vt 0.842501998 0.742498994
vt 0.882502019 0.782499015
vt 0.842501998 0.782499015
vt 0.879999995 0.782499015
vt 0.879999995 0.742498994
vt 1.75 0.782499015
vt 1.75 0.782499015
vt 0.879999995 0.742498994
vt 1.75 0.742498994
vt 0.622502029 1.75
vt 0.582502007 1.75
vt 0.622502029 0.879999995
vt 0.622502029 0.879999995
vt 0.582502007 1.75
vt 0.582502007 0.879999995
vt -0.622502029 0.782499015
vt -0.622502029 0.742498994
vt -0.582502007 0.782499015
vt -0.582502007 0.782499015
vt -0.622502029 0.742498994
vt -0.582502007 0.742498994
vt -0.812502027 -0.622501016
vt -0.812502027 -0.582500994
vt -0.847501993 -0.622501016
vt -0.847501993 -0.622501016
vt -0.812502027 -0.582500994
vt -0.847501993 -0.582500994
vt -0.812502027 1.56500006
vt -0.847501993 1.56500006
vt -0.812502027 0.814999998
vt -0.812502027 0.814999998
vt -0.847501993 1.56500006
vt -0.847501993 0.814999998
vt -0.814999998 -0.622501016
vt -0.814999998 -0.582500994
vt -1.56500006 -0.622501016
vt -1.56500006 -0.622501016
vt -0.814999998 -0.582500994
vt -1.56500006 -0.582500994
vt 0.812502027 -0.582500994
vt 0.812502027 -0.622501016
vt 0.847501993 -0.582500994
vt 0.847501993 -0.582500994
vt 0.812502027 -0.622501016
vt 0.847501993 -0.622501016
vt 0.812502027 0.814999998
vt 0.847501993 0.814999998
vt 0.812502027 1.56500006
vt 0.812502027 1.56500006
vt 0.847501993 0.814999998
vt 0.847501993 1.56500006
vt 1.56500006 -0.622501016
vt 1.56500006 -0.582500994
vt 0.814999998 -0.622501016
vt 0.814999998 -0.622501016
vt 1.56500006 -0.582500994
vt 0.814999998 -0.582500994
vt 0.887498021 0.647499025
vt 0.887498021 0.697498977
vt 0.847498 0.647499025
vt 0.847498 0.647499025
vt 0.887498021 0.697498977
vt 0.847498 0.697498977
vt 0.887498021 1.65999997
vt 0.847498 1.65999997
vt 0.887498021 0.860000014
vt 0.887498021 0.860000014
vt 0.847498 1.65999997
vt 0.847498 0.860000014
vt -0.860000014 0.647499025
vt -0.860000014 0.697498977
vt -1.65999997 0.647499025
vt -1.65999997 0.647499025
vt -0.860000014 0.697498977
vt -1.65999997 0.697498977
vt -0.887498021 0.697498977
vt -0.887498021 0.647499025
vt -0.847498 0.697498977
vt -0.847498 0.697498977
vt -0.887498021 0.647499025
vt -0.847498 0.647499025
vt -0.887498021 0.860000014
vt -0.847498 0.860000014
vt -0.887498021 1.65999997
vt -0.887498021 1.65999997
vt -0.847498 0.860000014
vt -0.847498 1.65999997
vt 1.65999997 0.647499025
vt 1.65999997 0.697498977
vt 0.860000014 0.647499025
vt 0.860000014 0.647499025
vt 1.65999997 0.697498977
vt 0.860000014 0.697498977
vt 0.622502029 0.742498994
vt 0.622502029 0.782499015
vt 0.582502007 0.742498994
vt 0.582502007 0.742498994
vt 0.622502029 0.782499015
vt 0.582502007 0.782499015
vt -0.622502029 0.879999995
vt -0.582502007 0.879999995
vt -0.622502029 1.75
vt -0.622502029 1.75
vt -0.582502007 0.879999995
vt -0.582502007 1.75
vt 0.812502027 -0.497500986
vt 0.807501972 -0.497500986
vt 0.812502027 -0.503681004
vt 0.812502027 -0.503681004
vt 0.807501972 -0.497500986
vt 0.807501972 -0.503681004
vt 0.812502027 -0.503681004
vt 0.807501972 -0.503681004
vt 0.812502027 -0.509257019
vt 0.812502027 -0.509257019
vt 0.807501972 -0.503681004
vt 0.807501972 -0.509257019
vt 0.812502027 0.559064984
vt 0.807501972 0.559064984
vt 0.812502027 0.554641008
vt 0.812502027 0.554641008
vt 0.807501972 0.559064984
vt 0.807501972 0.554641008
vt 0.812502027 0.554641008
vt 0.807501972 0.554641008
vt 0.812502027 0.549064994
vt 0.812502027 0.549064994
vt 0.807501972 0.554641008
vt 0.807501972 0.549064994
vt 0.812502027 0.549064994
vt 0.807501972 0.549064994
vt 0.812502027 0.542885005
vt 0.812502027 0.542885005
vt 0.807501972 0.549064994
vt 0.807501972 0.542885005
vt 0.812502027 0.779999971
vt 0.812502027 0.786180019
vt 0.807501972 0.779999971
vt -0.779999971 -0.0175010003
vt -0.786180019 -0.0184799992
vt -0.786180019 -0.0184799992
vt 0.807501972 0.779999971
vt 0.812502027 0.786180019
vt 0.807501972 0.786180019
vt 0.807501972 0.786180019
vt 0.812502027 0.786180019
vt 0.812502027 0.791755974
vt 0.807501972 0.786180019
vt 0.812502027 0.791755974
vt 0.807501972 0.791755974
vt 0.807501972 0.791755974
vt 0.812502027 0.791755974
vt 0.812502027 0.79618001
vt 0.807501972 0.791755974
vt 0.812502027 0.79618001
vt 0.807501972 0.79618001
vt -0.807501972 -0.0257450007
vt -0.812502027 -0.0257450007
vt -0.812502027 -0.0313210003
vt -0.807501972 -0.0257450007
vt -0.812502027 -0.0313210003
vt -0.807501972 -0.0313210003
vt -0.807501972 -0.0313210003
vt -0.812502027 -0.0313210003
vt -0.812502027 -0.0375009999
vt -0.807501972 -0.0313210003
vt -0.812502027 -0.0375009999
vt -0.807501972 -0.0375009999
vt 0.807501972 0.745536983
vt 0.807501972 0.73931402
vt 0.812502027 0.745536983
vt -0.745536983 -0.0175010003
vt -0.73931402 -0.0184940007
vt -0.73931402 -0.0184940007
vt 0.812502027 0.745536983
vt 0.807501972 0.73931402
vt 0.812502027 0.73931402
vt 0.812502027 0.73931402
vt 0.807501972 0.73931402
vt 0.807501972 0.733708978
vt 0.812502027 0.73931402
vt 0.807501972 0.733708978
vt 0.812502027 0.733708978
vt 0.812502027 -0.021373
vt 0.807501972 -0.021373
vt 0.807501972 -0.0258540008
vt 0.812502027 -0.021373
vt 0.807501972 -0.0258540008
vt 0.812502027 -0.0258540008
vt 0.812502027 -0.0258540008
vt 0.807501972 -0.0258540008
vt 0.807501972 -0.0314910002
vt 0.812502027 -0.0258540008
vt 0.807501972 -0.0314910002
vt 0.812502027 -0.0314910002
vt 0.812502027 -0.0314910002
vt 0.807501972 -0.0314910002
vt 0.807501972 -0.0377250016
vt 0.812502027 -0.0314910002
vt 0.807501972 -0.0377250016
vt 0.812502027 -0.0377250016
vt 0.807501972 -0.471947014
vt 0.807501972 -0.475861996
vt 0.812502027 -0.471947014
vt -0.567698002 -0.471947014
vt -0.56507498 -0.475861996
vt -0.56507498 -0.475861996
vt 0.812502027 -0.471947014
vt 0.807501972 -0.475861996
vt 0.812502027 -0.475861996
vt 0.812502027 -0.475861996
vt 0.807501972 -0.475861996
vt 0.807501972 -0.480282009
vt 0.812502027 -0.475861996
vt 0.807501972 -0.480282009
vt 0.812502027 -0.480282009
vt 0.812502027 -0.480282009
vt 0.807501972 -0.480282009
vt 0.807501972 -0.484961003
vt 0.812502027 -0.480282009
vt 0.807501972 -0.484961003
vt 0.812502027 -0.484961003
vt -1.75 0.782499015
vt -1.75 0.742498994
vt -0.879999995 0.782499015
vt -0.879999995 0.782499015
vt -1.75 0.742498994
vt -0.879999995 0.742498994
vt -0.882502019 0.782499015
vt -0.882502019 0.742498994
vt -0.842501998 0.782499015
vt -0.842501998 0.782499015
vt -0.882502019 0.742498994
vt -0.842501998 0.742498994
vt 0.842501998 0.829999983
vt 0.882502019 0.829999983
vt 0.842501998 1.58000004
vt 0.842501998 1.58000004
vt 0.882502019 0.829999983
vt 0.882502019 1.58000004
vt -1.58000004 0.782499015
vt -1.58000004 0.742498994
vt -0.829999983 0.782499015
vt -0.829999983 0.782499015
vt -1.58000004 0.742498994
vt -0.829999983 0.742498994
vt -0.842501998 1.58000004
vt -0.882502019 1.58000004
vt -0.842501998 0.829999983
vt -0.842501998 0.829999983
vt -0.882502019 1.58000004
vt -0.882502019 0.829999983
vt 1.58000004 0.742498994
vt 1.58000004 0.782499015
vt 0.829999983 0.742498994
vt 0.829999983 0.742498994
vt 1.58000004 0.782499015
vt 0.829999983 0.782499015
f 1/1 2/2 3/3
f 3/4 2/5 4/6
f 5/7 6/8 7/9
f 7/10 6/11 8/12
f 7/13 9/14 5/15
f 5/16 9/17 10/18
f 7/19 8/20 9/21
f 9/22 8/23 11/24
f 12/25 13/26 14/27
f 14/28 13/29 15/30
f 12/31 14/32 16/33
f 16/34 14/35 17/36
f 16/37 18/38 12/39
f 12/40 18/41 13/42
f 18/43 16/44 19/45
f 19/46 16/47 17/48
f 18/49 19/50 13/51
f 13/52 19/53 15/54
f 14/55 15/56 17/57
f 17/58 15/59 19/60
f 20/61 21/62 22/63
f 22/64 21/65 23/66
f 20/67 22/68 24/69
f 24/70 22/71 25/72
f 24/73 26/74 20/75
f 20/76 26/77 21/78
f 26/79 24/80 27/81
f 27/82 24/83 25/84
f 26/85 27/86 21/87
f 21/88 27/89 23/90
f 22/91 23/92 25/93
f 25/94 23/95 27/96
f 6/97 5/98 28/99
f 28/100 5/101 10/102
f 6/103 28/104 8/105
f 8/106 28/107 11/108
f 29/109 30/110 31/111
f 31/112 30/113 32/114
f 31/115 32/116 33/117
f 33/118 32/119 34/120
f 33/121 34/122 35/123
f 35/124 34/125 36/126
f 35/127 36/128 37/129
f 37/130 36/131 38/132
f 37/133 38/134 39/135
f 39/136 38/137 40/138
f 41/139 42/140 43/141
f 43/142 42/143 42/144
f 43/145 42/146 44/147
f 44/148 42/149 45/150
f 44/151 45/152 46/153
f 46/154 45/155 47/156
f 46/157 47/158 48/159
f 48/160 47/161 49/162
f 48/163 49/164 50/165
f 50/166 49/167 51/168
f 50/169 51/170 52/171
f 53/172 54/173 55/174
f 55/175 54/176 54/177
f 55/178 54/179 56/180
f 56/181 54/182 57/183
f 56/184 57/185 58/186
f 58/187 57/188 59/189
f 58/190 59/191 60/192
f 60/193 59/194 61/195
f 60/196 61/197 62/198
f 62/199 61/200 63/201
f 62/202 63/203 64/204
f 65/205 66/206 67/207
f 67/208 66/209 66/210
f 67/211 66/212 68/213
f 68/214 66/215 69/216
f 68/217 69/218 70/219
f 70/220 69/221 71/222
f 70/223 71/224 72/225
f 9/226 11/227 10/228
f 10/229 11/230 28/231
f 73/232 74/233 75/234
f 75/235 74/236 76/237
f 4/238 2/239 75/240
f 75/241 2/242 73/243
f 75/244 76/245 4/246
f 4/247 76/248 3/249
f 76/250 74/251 3/252
f 3/253 74/254 1/255
f 74/256 73/257 1/258
f 1/259 73/260 2/261
