# Exported from USD for MuJoCo with source material subsets
v 19.4735799 7.2865687 0.0273926527
v 19.4735799 7.2865687 0.531742823
v 19.5567004 7.2865687 0.531742823
v 19.5567004 7.2865687 0.0273926527
v 19.5567004 7.24800862 0.0659527452
v 19.5567004 7.24800862 0.493182731
v 19.5567004 6.87182761 0.493182731
v 19.5567004 6.87182761 0.0659527452
v 19.2668449 7.31214033 0.0126665504
v 19.2668449 6.80769592 0.0126665504
v 19.2668449 6.80773925 0.0126914949
v 19.2668449 6.9332675 0.0273926527
v 19.2668449 7.18656873 0.0273926527
v 19.2668449 7.31209699 0.0126914949
v 19.4735799 7.31214033 0.0126665504
v 19.4735799 6.80769592 0.0126665504
v 19.5567004 6.83326751 0.531742823
v 19.4735798 6.83326751 0.531742823
v 19.5567004 7.31214033 0.0126665504
v 19.5567004 6.80769592 0.0126665504
v 19.5567004 6.83326751 0.0273926527
v 19.4735799 6.83326751 0.0273926527
v 19.4504912 6.88849993 0.52215564
v 19.3116339 6.89009472 0.455486682
v 19.3116013 6.89005938 0.455473122
v 19.3668449 6.83326751 0.487422873
v 19.3668449 6.83326751 0.0273926527
v 19.3668449 7.2865687 0.0273926527
v 19.2668449 6.93326751 0.445899499
v 19.2668449 7.18656872 0.445899499
v 19.3072939 7.22829483 0.455486682
v 19.3072612 7.2268835 0.455473122
v 19.4504912 7.23191769 0.52215564
v 19.3668449 7.2865687 0.487422873
v 19.5567004 6.86219416 0.502816182
v 19.5567004 7.25764207 0.502816182
v 19.5567004 7.25764207 0.0563192637
v 19.5567004 6.86219416 0.0563192637
vt 0.5 0.125
vt 0.625 0.125
vt 0.625 0.25
vt 0.5 0.125
vt 0.625 0.25
vt 0.5 0.25
vt 0.50955689 0.271266222
vt 0.61544311 0.271266222
vt 0.61544317 0.478733778
vt 0.50955689 0.271266222
vt 0.61544317 0.478733778
vt 0.50955689 0.478733778
vt 0.375 1
vt 0.375 0.75
vt 0.375211805 0.75
vt 0.375211805 0.75
vt 0.5 0.805150986
vt 0.5 0.944849014
vt 0.5 0.944849014
vt 0.375211805 1
vt 0.375 1
vt 0.375211805 0.75
vt 0.5 0.944849014
vt 0.375 1
vt 0.125 0.625
vt 0.37500003 0.625
vt 0.375 0.75
vt 0.125 0.625
vt 0.375 0.75
vt 0.125 0.75
vt 0.625 0.5
vt 0.875 0.5
vt 0.875 0.625
vt 0.625 0.5
vt 0.875 0.625
vt 0.625 0.625
vt 0.125 0.5
vt 0.375 0.5
vt 0.37500003 0.625
vt 0.125 0.5
vt 0.37500003 0.625
vt 0.125 0.625
vt 0.5 0.5
vt 0.625 0.5
vt 0.625 0.625
vt 0.5 0.5
vt 0.625 0.625
vt 0.5 0.625
vt 0.625 0.625
vt 0.638787746 0.638960302
vt 0.638787746 0.736039698
vt 0.638787746 0.736039698
vt 0.638768256 0.736059487
vt 0.625 0.689536095
vt 0.638787746 0.736039698
vt 0.625 0.689536095
vt 0.625 0.625
vt 0.5 0.625
vt 0.625 0.625
vt 0.625 0.689536095
vt 0.5 0.625
vt 0.625 0.689536095
vt 0.5 0.689536095
vt 0.375 0.5
vt 0.5 0.5
vt 0.5 0.625
vt 0.375 0.5
vt 0.5 0.625
vt 0.37500003 0.625
vt 0.375 0.125
vt 0.375 0
vt 0.375211835 0
vt 0.375211835 0
vt 0.5 0.0604639053
vt 0.5 0.125
vt 0.375211835 0
vt 0.5 0.125
vt 0.375 0.125
vt 0.5 0.805150986
vt 0.625 0.805150986
vt 0.625 0.944849014
vt 0.5 0.805150986
vt 0.625 0.944849014
vt 0.5 0.944849074
vt 0.375 0.25
vt 0.5 0.25
vt 0.5 0.5
vt 0.375 0.25
vt 0.5 0.5
vt 0.375 0.5
vt 0.375 0.125
vt 0.5 0.125
vt 0.5 0.25
vt 0.375 0.125
vt 0.5 0.25
vt 0.375 0.25
vt 0.638768196 0.736059427
vt 0.638787746 0.736039698
vt 0.861212254 0.736039758
vt 0.861231744 0.736059546
vt 0.819849014 0.75
vt 0.680150986 0.75
vt 0.638768196 0.736059427
vt 0.861212254 0.736039758
vt 0.861231744 0.736059546
vt 0.861231744 0.736059546
vt 0.680150986 0.75
vt 0.638768196 0.736059427
vt 0.861212254 0.736039758
vt 0.861212254 0.638960242
vt 0.875 0.625
vt 0.875 0.625
vt 0.875 0.689536095
vt 0.861231744 0.736059546
vt 0.861212254 0.736039758
vt 0.875 0.625
vt 0.861231744 0.736059546
vt 0.861212254 0.638960242
vt 0.638787746 0.638960302
vt 0.625 0.625
vt 0.861212254 0.638960242
vt 0.625 0.625
vt 0.875 0.625
vt 0.617830694 0.484046698
vt 0.617830694 0.265953302
vt 0.625 0.25
vt 0.617830694 0.484046698
vt 0.625 0.25
vt 0.625 0.5
vt 0.617830694 0.265953302
vt 0.507169247 0.265953302
vt 0.5 0.25
vt 0.617830694 0.265953302
vt 0.5 0.25
vt 0.625 0.25
vt 0.507169247 0.484046638
vt 0.617830694 0.484046698
vt 0.625 0.5
vt 0.507169247 0.484046638
vt 0.625 0.5
vt 0.5 0.5
vt 0.507169247 0.265953302
vt 0.507169247 0.484046638
vt 0.5 0.5
vt 0.507169247 0.265953302
vt 0.5 0.5
vt 0.5 0.25
vt 0.5 0
vt 0.5 0.0604639053
vt 0.375211835 0
vt 0.625 1
vt 0.625 0.944849014
vt 0.625 0.986231804
vt 0.5 0.944849074
vt 0.625 0.944849014
vt 0.625 1
vt 0.5 0.944849074
vt 0.625 1
vt 0.5 1
vt 0.5 0.0604639053
vt 0.625 0.0604639053
vt 0.625 0.125
vt 0.5 0.0604639053
vt 0.625 0.125
vt 0.5 0.125
vt 0.5 0.689536095
vt 0.5 0.75
vt 0.375211805 0.75
vt 0.625 0.805150986
vt 0.625 0.75
vt 0.625 0.763768256
vt 0.625 0.805150986
vt 0.5 0.805150986
vt 0.5 0.689536095
vt 0.625 0.805150986
vt 0.5 0.689536095
vt 0.625 0.689536095
vt 0.375 0.75
vt 0.37500003 0.625
vt 0.5 0.625
vt 0.5 0.625
vt 0.5 0.689536095
vt 0.375211835 0.75
vt 0.5 0.625
vt 0.375211835 0.75
vt 0.375 0.75
f 1/1 2/2 3/3
f 1/4 3/5 4/6
f 5/7 6/8 7/9
f 5/10 7/11 8/12
f 9/13 10/14 11/15
f 11/16 12/17 13/18
f 13/19 14/20 9/21
f 11/22 13/23 9/24
f 15/25 16/26 10/27
f 15/28 10/29 9/30
f 17/31 3/32 2/33
f 17/34 2/35 18/36
f 19/37 20/38 16/39
f 19/40 16/41 15/42
f 21/43 17/44 18/45
f 21/46 18/47 22/48
f 18/49 23/50 24/51
f 24/52 25/53 26/54
f 24/55 26/56 18/57
f 22/58 18/59 26/60
f 22/61 26/62 27/63
f 20/64 21/65 22/66
f 20/67 22/68 16/69
f 15/70 9/71 14/72
f 14/73 28/74 1/75
f 14/76 1/77 15/78
f 12/79 29/80 30/81
f 12/82 30/83 13/84
f 19/85 4/86 21/87
f 19/88 21/89 20/90
f 15/91 1/92 4/93
f 15/94 4/95 19/96
f 25/97 24/98 31/99
f 32/100 30/101 29/102
f 25/103 31/104 32/105
f 32/106 29/107 25/108
f 31/109 33/110 2/111
f 2/112 34/113 32/114
f 31/115 2/116 32/117
f 33/118 23/119 18/120
f 33/121 18/122 2/123
f 35/124 36/125 3/126
f 35/127 3/128 17/129
f 36/130 37/131 4/132
f 36/133 4/134 3/135
f 38/136 35/137 17/138
f 38/139 17/140 21/141
f 37/142 38/143 21/144
f 37/145 21/146 4/147
f 13/148 28/149 14/150
f 34/151 30/152 32/153
f 13/154 30/155 34/156
f 13/157 34/158 28/159
f 28/160 34/161 2/162
f 28/163 2/164 1/165
f 27/166 12/167 11/168
f 29/169 26/170 25/171
f 29/172 12/173 27/174
f 29/175 27/176 26/177
f 10/178 16/179 22/180
f 22/181 27/182 11/183
f 22/184 11/185 10/186
