# Exported from USD for MuJoCo with source material subsets
v 10.469765 -5.02253138 0.530001056
v 10.4986014 -5.02253138 0.530001056
v 10.4986017 -5.02253138 0.0300013542
v 10.4986014 -5.89253078 0.530001056
v 11.3597645 -5.92253099 0.530001473
v 11.3597645 -5.89253078 0.530001473
v 10.4986017 -5.89253078 0.0300013542
v 11.5279432 -5.02253138 0.780001414
v 11.5279432 -5.89253078 0.780001414
v 11.557943 -5.02253138 0.780001473
v 11.5279434 -5.02253138 0.0300018311
v 11.5579434 -5.02253138 1.74045563e-06
v 11.3597644 -5.89253078 0.780001354
v 11.3597644 -5.92253099 0.780001354
v 11.557943 -5.92253099 0.780001473
v 10.4686017 -5.02253138 1.26361847e-06
v 10.469765 -5.92253099 0.530001056
v 10.4686017 -5.92253099 1.26361847e-06
v 10.4686013 -5.92253099 0.780000877
v 10.4686013 -5.02253138 0.780000877
v 10.4697649 -5.02253138 0.780000877
v 10.4697649 -5.92253099 0.780000877
v 11.557943 -4.10253201 0.780001473
v 11.5279432 -4.10253201 0.780001414
v 11.5279434 -4.10253201 0.0300018311
v 11.5279432 -3.20253216 0.780001414
v 11.557943 -3.20253216 0.780001473
v 11.5279434 -3.20253216 0.0300018311
v 11.5579434 -3.20253216 1.74045563e-06
v 10.4686017 -3.20253216 1.26361847e-06
v 10.4986017 -3.20253216 0.0300013542
v 10.4986017 -4.10253201 0.0300013542
v 10.4686017 -4.10253201 1.26361847e-06
v 10.469765 -3.20253216 0.530001056
v 10.4986014 -3.20253216 0.530001056
v 10.4986014 -4.10253201 0.530001056
v 10.469765 -4.10253201 0.530001056
v 10.4686013 -4.10253201 0.780000877
v 10.4697649 -4.10253201 0.780000877
v 10.4686013 -3.20253216 0.780000877
v 10.4697649 -3.20253216 0.780000877
v 10.157944 -3.19253217 1.14440918e-06
v 10.157944 -2.29253279 1.14440918e-06
v 10.3579439 -3.19253217 1.26361847e-06
v 10.3579439 -2.29253279 1.26361847e-06
v 10.3579439 -2.2825328 1.26361847e-06
v 10.4547652 -1.38253321 1.26361847e-06
v 10.157944 -1.38253321 1.14440918e-06
v 10.1579433 -2.2825328 1.50000049
v 10.3579432 -2.2825328 1.50000061
v 10.1579433 -1.38253321 1.50000049
v 10.4547645 -1.38253321 1.50000061
v 10.3579432 -2.29253279 1.50000061
v 10.4547645 -5.92253099 1.50000061
v 10.1579433 -3.19253217 1.50000049
v 10.3579432 -3.19253217 1.50000061
v 10.3579432 -3.20253216 1.50000061
v 10.3579439 -3.20253216 1.26361847e-06
v 10.3579439 -4.10253201 1.26361847e-06
v 10.157944 -3.20253216 1.14440918e-06
v 10.157944 -4.10253201 1.14440918e-06
v 10.1579433 -3.20253216 1.50000049
v 10.1579433 -4.10253201 1.50000049
v 10.3579432 -4.10253201 1.50000061
v 10.3579437 -4.112532 0.449896646
v 10.3579432 -4.112532 1.50000061
v 10.3579439 -4.112532 1.26361847e-06
v 10.3579437 -4.112532 0.429896545
v 10.3579439 -4.56117474 1.26361847e-06
v 10.157944 -4.112532 1.14440918e-06
v 10.157944 -4.56117474 1.14440918e-06
v 10.3579439 -4.57117473 1.26361847e-06
v 10.3579437 -4.56117474 0.429896545
v 10.3579437 -4.57117473 0.429896545
v 10.3579437 -4.57117473 0.449896646
v 10.3579437 -4.56117474 0.449896646
v 10.3579437 -4.56117474 0.460001063
v 10.1579438 -4.56117474 0.449896646
v 10.1579438 -4.56117474 0.460001004
v 10.1579438 -4.112532 0.449896646
v 10.1579433 -4.112532 1.50000049
v 10.1579433 -5.01253115 1.50000049
v 10.3579437 -4.57117473 0.460001063
v 10.1579438 -4.57117473 0.460001004
v 10.3579432 -5.01253115 1.50000061
v 10.1579438 -5.01253115 0.449896646
v 10.1579438 -4.57117473 0.449896646
v 10.3579437 -5.01253115 0.449896646
v 10.3579437 -5.01253115 0.429896545
v 10.3579437 -5.02253138 0.449896646
v 10.3579432 -5.02253138 1.50000061
v 10.157944 -5.01253115 1.14440918e-06
v 10.157944 -4.57117473 1.14440918e-06
v 10.3579439 -5.01253115 1.26361847e-06
v 10.3579439 -5.02253138 1.26361847e-06
v 10.3579437 -5.02253138 0.429896545
v 10.4547652 -5.92253099 1.26361847e-06
v 10.3579439 -5.47388826 1.26361847e-06
v 10.157944 -5.02253138 1.14440918e-06
v 10.157944 -5.47388826 1.14440918e-06
v 10.3579439 -5.48388801 1.26361847e-06
v 10.3579437 -5.47388826 0.429896545
v 10.3579437 -5.47388826 0.449896646
v 10.3579437 -5.48388801 0.429896545
v 10.157944 -5.92253099 1.14440918e-06
v 10.157944 -5.48388801 1.14440918e-06
v 10.1579438 -5.92253099 0.429896545
v 10.3579437 -5.92253099 0.429896545
v 10.3579437 -5.92253099 0.449896646
v 10.3579437 -5.48388801 0.449896646
v 10.1579433 -5.92253099 1.50000049
v 10.1579433 -5.02253138 1.50000049
v 10.1579438 -5.02253138 0.449896646
v 10.1579438 -5.47388826 0.449896646
v 10.1579438 -5.47388826 0.464001012
v 10.3579437 -5.47388826 0.464001012
v 10.1579438 -5.48388801 0.464001012
v 10.3579437 -5.48388801 0.464001012
v 10.1579438 -5.48388801 0.449896646
v 10.1579438 -5.92253099 0.449896646
v 11.557943 -5.01253115 0.780001473
v 11.5279432 -5.01253115 0.780001414
v 11.5279434 -5.01253115 0.0300018311
v 11.5279432 -4.112532 0.780001414
v 11.557943 -4.112532 0.780001473
v 11.5279434 -4.112532 0.0300018311
v 11.5579434 -4.112532 1.74045563e-06
v 10.4686017 -4.112532 1.26361847e-06
v 10.4986017 -4.112532 0.0300013542
v 10.4986017 -5.01253115 0.0300013542
v 10.4686017 -5.01253115 1.26361847e-06
v 10.4986014 -5.01253115 0.530001056
v 10.469765 -5.01253115 0.530001056
v 10.4986014 -4.112532 0.530001056
v 10.469765 -4.112532 0.530001056
v 10.4686013 -4.112532 0.780000877
v 10.4697649 -4.112532 0.780000877
v 10.4697649 -5.01253115 0.780000877
v 10.4686013 -5.01253115 0.780000877
v 10.4686017 -2.29253279 1.26361847e-06
v 10.4686017 -2.29253279 0.0300013542
v 11.5279434 -2.29253279 0.0300018311
v 10.4686017 -3.19253217 0.0300013542
v 10.4686017 -3.19253217 1.26361847e-06
v 11.5279434 -3.19253217 0.0300018311
v 11.557943 -3.19253217 0.780001473
v 11.5279432 -3.19253217 0.780001414
v 11.557943 -2.29253279 0.780001473
v 11.5279432 -2.29253279 0.780001414
v 11.557943 -1.38253321 0.780001473
v 11.557943 -2.2825328 0.780001473
v 11.5579434 -1.38253321 1.74045563e-06
v 11.5579434 -2.2825328 1.74045563e-06
v 11.5579434 -2.29253279 1.74045563e-06
v 11.5579434 -3.19253217 1.74045563e-06
v 11.5579434 -5.92253099 1.74045563e-06
v 11.5579434 -5.01253115 1.74045563e-06
v 10.4686017 -5.01253115 0.0200012445
v 10.4686017 -5.92253099 0.0200012445
v 11.5579434 -5.92253099 0.0200018406
v 11.5579434 -5.01253115 0.0200018406
v 10.1579438 -5.48388801 0.429896545
v 10.1579438 -5.47388826 0.429896545
v 10.1579438 -5.02253138 0.429896545
v 10.1579438 -5.01253115 0.429896545
v 10.1579438 -4.57117473 0.429896545
v 10.1579438 -4.112532 0.429896545
v 10.1579438 -4.56117474 0.429896545
v 10.1579433 -2.29253279 1.50000049
v 9.85794422 -2.29253279 1.14440918e-06
v 9.85794422 -3.19253217 1.14440918e-06
v 9.85794344 -2.29253279 1.50000037
v 9.85794344 -3.19253217 1.50000037
v 10.157944 -2.2825328 1.14440918e-06
v 9.85794344 -2.2825328 1.50000037
v 9.85794344 -1.38253321 1.50000037
v 9.85794422 -1.38253321 1.14440918e-06
v 9.85794422 -2.2825328 1.14440918e-06
v 11.5579434 -4.10253201 1.74045563e-06
v 11.5279434 -5.89253078 0.0300018311
v 10.4686013 -1.38253321 0.780000877
v 10.4686013 -1.41253321 0.780000877
v 11.5279432 -1.41253321 0.780001414
v 11.5279432 -2.2825328 0.780001414
v 10.4686017 -1.38253321 1.26361847e-06
v 10.4686017 -2.2825328 1.26361847e-06
v 11.5279434 -2.2825328 0.0300018311
v 10.4686017 -2.2825328 0.0300013542
v 10.4686017 -1.41253321 0.0300013542
v 11.5279434 -1.41253321 0.0300018311
vt -0.529999971 0.245679006
vt -0.529999971 0.216841996
vt -0.0299999993 0.216841996
vt -1.37499797 0.216841996
vt -1.37499797 0.245679006
vt -2.24499798 0.216841996
vt -2.24499798 0.216841996
vt -2.27499795 -0.644321024
vt -2.24499798 -0.644321024
vt -0.529999971 0.216841996
vt -0.529999971 -0.644321024
vt -0.0299999993 0.216841996
vt -1.37499797 -0.8125
vt -2.24499798 -0.8125
vt -1.37499797 -0.842499971
vt -0.779999971 -0.8125
vt -0.779999971 -0.842499971
vt -0.0299999993 -0.8125
vt -0.0299999993 -0.8125
vt -0.779999971 -0.842499971
vt 0 -0.842499971
vt -0.0299999993 -0.8125
vt 0 -0.842499971
vt -0.0299999993 0.216841996
vt -0.529999971 -0.644321024
vt -0.779999971 -0.644321024
vt -0.779999971 -0.8125
vt -2.24499798 -0.644321024
vt -2.27499795 -0.644321024
vt -2.24499798 -0.8125
vt 0.779999971 -0.644321024
vt 0.529999971 -0.644321024
vt 0.779999971 -0.842499971
vt 0 -0.842499971
vt 0 0.246841997
vt -0.0299999993 0.216841996
vt -0.0299999993 0.216841996
vt 0 0.246841997
vt -0.529999971 0.245679006
vt 0.529999971 -0.644321024
vt 0.529999971 0.245679006
vt 0 0.246841997
vt 0 0.246841997
vt 0.529999971 0.245679006
vt 0.779999971 0.246841997
vt 0 0.246841997
vt -0.779999971 0.246841997
vt -0.529999971 0.245679006
vt -0.779999971 0.246841997
vt -0.779999971 0.245679006
vt -0.529999971 0.245679006
vt 0.779999971 0.245679006
vt 0.779999971 0.246841997
vt 0.529999971 0.245679006
vt 0.779999971 -0.842499971
vt 0.779999971 -0.8125
vt 0.0299999993 -0.8125
vt -0.779999971 -0.8125
vt -0.779999971 -0.842499971
vt -0.0299999993 -0.8125
vt -0.779999971 -0.842499971
vt 0 -0.842499971
vt -0.0299999993 -0.8125
vt 0 -0.842499971
vt 0 0.246841997
vt -0.0299999993 0.216841996
vt 0 -0.842499971
vt -0.0299999993 0.216841996
vt -0.0299999993 -0.8125
vt 0.0299999993 -0.8125
vt 0.0299999993 0.216841996
vt 0 0.246841997
vt -0.0299999993 0.216841996
vt 0 0.246841997
vt -0.529999971 0.245679006
vt -0.0299999993 0.216841996
vt -0.529999971 0.245679006
vt -0.529999971 0.216841996
vt 0.529999971 0.216841996
vt 0.529999971 0.245679006
vt 0.0299999993 0.216841996
vt 0.0299999993 0.216841996
vt 0.529999971 0.245679006
vt 0 0.246841997
vt 0 0.246841997
vt 0.529999971 0.245679006
vt 0.779999971 0.246841997
vt 0.529999971 0.245679006
vt 0.779999971 0.245679006
vt 0.779999971 0.246841997
vt 0 0.246841997
vt -0.779999971 0.246841997
vt -0.529999971 0.245679006
vt -0.779999971 0.246841997
vt -0.779999971 0.245679006
vt -0.529999971 0.245679006
vt -0.45500201 0.557500005
vt -1.35500205 0.557500005
vt -0.45500201 0.357499987
vt -1.35500205 0.557500005
vt -1.35500205 0.357499987
vt -0.45500201 0.357499987
vt -1.35500205 0.357499987
vt -1.36500096 0.357499987
vt -2.26500201 0.260679007
vt -1.35500205 0.357499987
vt -2.26500201 0.260679007
vt -0.45500201 0.357499987
vt -1.36500096 0.357499987
vt -2.26500201 0.557500005
vt -2.26500201 0.260679007
vt 1.36500096 0.557500005
vt 1.36500096 0.357499987
vt 2.26500201 0.557500005
vt 2.26500201 0.557500005
vt 1.36500096 0.357499987
vt 2.26500201 0.260679007
vt 1.36500096 0.357499987
vt 1.35500205 0.357499987
vt 2.26500201 0.260679007
vt 2.26500201 0.260679007
vt 1.35500205 0.357499987
vt -2.27499795 0.260679007
vt 1.35500205 0.357499987
vt 0.45500201 0.557500005
vt 0.45500201 0.357499987
vt 1.35500205 0.357499987
vt 0.45500201 0.357499987
vt -2.27499795 0.260679007
vt 0.45500201 0.357499987
vt 0.44500199 0.357499987
vt -2.27499795 0.260679007
vt -0.45500201 0.357499987
vt -2.26500201 0.260679007
vt -0.44500199 0.357499987
vt -0.44500199 0.357499987
vt -2.26500201 0.260679007
vt 0.454997987 0.357499987
vt -0.44500199 0.357499987
vt 0.454997987 0.357499987
vt -0.44500199 0.557500005
vt -0.44500199 0.557500005
vt 0.454997987 0.357499987
vt 0.454997987 0.557500005
vt 0.44500199 0.557500005
vt -0.454997987 0.557500005
vt 0.44500199 0.357499987
vt -0.454997987 0.557500005
vt -0.454997987 0.357499987
vt 0.44500199 0.357499987
vt 0.44500199 0.357499987
vt -0.454997987 0.357499987
vt -2.27499795 0.260679007
vt 0.454997987 1.5
vt 0.454997987 0
vt 0.464998007 0.449896008
vt 0.454997987 1.5
vt 0.464998007 0.449896008
vt 0.464998007 1.5
vt -0.454997987 0.357499987
vt -0.464998007 0.357499987
vt -2.27499795 0.260679007
vt 0.454997987 0.357499987
vt -2.26500201 0.260679007
vt 0.464998007 0.357499987
vt 0.454997987 0
vt 0.464998007 0
vt 0.464998007 0.429895997
vt 0.454997987 0
vt 0.464998007 0.429895997
vt 0.464998007 0.449896008
vt 0.464998007 0.357499987
vt -2.26500201 0.260679007
vt 0.913641989 0.357499987
vt 0.464998007 0.357499987
vt 0.913641989 0.357499987
vt 0.464998007 0.557500005
vt 0.464998007 0.557500005
vt 0.913641989 0.357499987
vt 0.913641989 0.557500005
vt 0.913641989 0.357499987
vt -2.26500201 0.260679007
vt 0.92364198 0.357499987
vt 0.913641989 0
vt 0.92364198 0
vt 0.913641989 0.429895997
vt 0.913641989 0.429895997
vt 0.92364198 0
vt 0.92364198 0.429895997
vt 0.913641989 0.429895997
vt 0.92364198 0.429895997
vt 0.92364198 0.449896008
vt 0.913641989 0.429895997
vt 0.92364198 0.449896008
vt 0.464998007 0.429895997
vt 0.464998007 0.429895997
vt 0.92364198 0.449896008
vt 0.913641989 0.449896008
vt 0.464998007 0.429895997
vt 0.913641989 0.449896008
vt 0.464998007 0.449896008
vt 0.913641989 0.449896008
vt 0.92364198 0.449896008
vt 0.913641989 0.460000008
vt 0.913641989 0.449896008
vt 0.913641989 0.460000008
vt 0.464998007 0.449896008
vt -0.464998007 0.557500005
vt -1.36499798 0.557500005
vt -0.464998007 0.357499987
vt 0.913641989 0.460000008
vt 0.92364198 0.449896008
vt 0.92364198 0.460000008
vt 0.913641989 0.460000008
vt 0.92364198 0.460000008
vt 1.36499798 1.5
vt -0.464998007 0.357499987
vt -1.36499798 0.557500005
vt -1.36499798 0.357499987
vt -0.464998007 0.357499987
vt -1.36499798 0.357499987
vt -2.27499795 0.260679007
vt 1.36499798 1.5
vt 0.92364198 0.460000008
vt 1.36499798 0.449896008
vt 0.92364198 0.460000008
vt 0.92364198 0.449896008
vt 1.36499798 0.449896008
vt 0.92364198 0.449896008
vt 0.92364198 0.429895997
vt 1.36499798 0.449896008
vt 1.36499798 0.449896008
vt 0.92364198 0.429895997
vt 1.36499798 0.429895997
vt 1.36499798 0.449896008
vt 1.37499797 0.449896008
vt 1.36499798 1.5
vt 1.36499798 1.5
vt 1.37499797 0.449896008
vt 1.37499797 1.5
vt -1.36499798 0.357499987
vt -1.37499797 0.357499987
vt -2.27499795 0.260679007
vt 1.36499798 0.557500005
vt 0.92364198 0.557500005
vt 1.36499798 0.357499987
vt 0.92364198 0.557500005
vt 0.92364198 0.357499987
vt 1.36499798 0.357499987
vt 0.92364198 0.357499987
vt -2.26500201 0.260679007
vt 1.36499798 0.357499987
vt 1.36499798 0.357499987
vt -2.26500201 0.260679007
vt 1.37499797 0.357499987
vt 1.36499798 0
vt 1.37499797 0
vt 1.36499798 0.429895997
vt 1.36499798 0.429895997
vt 1.37499797 0
vt 1.37499797 0.429895997
vt -2.26500201 0.260679007
vt 2.27499795 0.260679007
vt 1.82635498 0.357499987
vt -2.26500201 0.260679007
vt 1.82635498 0.357499987
vt 1.37499797 0.357499987
vt 1.37499797 0.357499987
vt 1.82635498 0.357499987
vt 1.37499797 0.557500005
vt 1.37499797 0.557500005
vt 1.82635498 0.357499987
vt 1.82635498 0.557500005
vt 1.82635498 0.357499987
vt 2.27499795 0.260679007
vt 1.83635497 0.357499987
vt 1.82635498 0
vt 1.83635497 0
vt 1.82635498 0.429895997
vt 1.37499797 0.429895997
vt 1.82635498 0.429895997
vt 1.82635498 0.449896008
vt 1.37499797 0.429895997
vt 1.82635498 0.449896008
vt 1.37499797 0.449896008
vt 1.82635498 0.429895997
vt 1.83635497 0
vt 1.83635497 0.429895997
vt 1.83635497 0.357499987
vt 2.27499795 0.260679007
vt 2.27499795 0.557500005
vt 1.83635497 0.357499987
vt 2.27499795 0.557500005
vt 1.83635497 0.557500005
vt 0.429895997 0.557500005
vt 0 0.557500005
vt 0.429895997 0.357499987
vt 0 0.557500005
vt 0 0.260679007
vt 0.429895997 0.357499987
vt 0.429895997 0.357499987
vt 0 0.260679007
vt 0.449896008 0.357499987
vt 2.27499795 0.429895997
vt 2.27499795 0.449896008
vt 1.83635497 0.429895997
vt 1.83635497 0.429895997
vt 2.27499795 0.449896008
vt 1.83635497 0.449896008
vt -2.27499795 0.260679007
vt -1.37499797 0.357499987
vt -2.27499795 0.557500005
vt -1.37499797 0.357499987
vt -1.37499797 0.557500005
vt -2.27499795 0.557500005
vt 1.37499797 0.449896008
vt 1.82635498 0.449896008
vt 1.82635498 0.463999987
vt 1.82635498 0.449896008
vt 1.83635497 0.449896008
vt 1.82635498 0.463999987
vt 1.82635498 0.463999987
vt 1.83635497 0.463999987
vt 2.27499795 1.5
vt 1.82635498 0.463999987
vt 1.83635497 0.449896008
vt 1.83635497 0.463999987
vt 1.83635497 0.449896008
vt 2.27499795 0.449896008
vt 1.83635497 0.463999987
vt 1.83635497 0.463999987
vt 2.27499795 0.449896008
vt 2.27499795 1.5
vt 0.449896008 0.557500005
vt 0.449896008 0.357499987
vt 1.5 0.557500005
vt 0.779999971 -0.842499971
vt 0.779999971 -0.8125
vt 0.0299999993 -0.8125
vt -0.779999971 -0.8125
vt -0.779999971 -0.842499971
vt -0.0299999993 -0.8125
vt -0.779999971 -0.842499971
vt 0 -0.842499971
vt -0.0299999993 -0.8125
vt 0 -0.842499971
vt 0 0.246841997
vt -0.0299999993 0.216841996
vt 0 -0.842499971
vt -0.0299999993 0.216841996
vt -0.0299999993 -0.8125
vt 0.0299999993 -0.8125
vt 0.0299999993 0.216841996
vt 0 0.246841997
vt 0.0299999993 0.216841996
vt 0.529999971 0.216841996
vt 0.529999971 0.245679006
vt 0.0299999993 0.216841996
vt 0.529999971 0.245679006
vt 0 0.246841997
vt -0.529999971 0.216841996
vt -0.0299999993 0.216841996
vt -0.529999971 0.245679006
vt -0.0299999993 0.216841996
vt 0 0.246841997
vt -0.529999971 0.245679006
vt -0.529999971 0.245679006
vt 0 0.246841997
vt -0.779999971 0.246841997
vt -0.529999971 0.245679006
vt -0.779999971 0.246841997
vt -0.779999971 0.245679006
vt 0.779999971 0.245679006
vt 0.779999971 0.246841997
vt 0.529999971 0.245679006
vt 0.529999971 0.245679006
vt 0.779999971 0.246841997
vt 0 0.246841997
vt 0 0.246841997
vt -0.0299999993 0.246841997
vt -0.0299999993 -0.8125
vt 0.0299999993 0.246841997
vt 0 0.246841997
vt 0.0299999993 -0.8125
vt 0.779999971 -0.842499971
vt 0.779999971 -0.8125
vt 0.0299999993 -0.8125
vt -0.779999971 -0.842499971
vt -0.0299999993 -0.8125
vt -0.779999971 -0.8125
vt -1.37499797 0.529999971
vt -2.24499798 0.529999971
vt -1.37499797 0.0299999993
vt -1.37499797 0.0299999993
vt -2.24499798 0.529999971
vt -2.24499798 0.0299999993
vt 2.26500201 0.779999971
vt 1.36500096 0.779999971
vt 2.26500201 0
vt 2.26500201 0
vt 1.36500096 0.779999971
vt 1.36500096 0
vt -1.35500205 0.0299999993
vt -0.45500201 0.0299999993
vt -1.35500205 0.779999971
vt -1.35500205 0.779999971
vt -0.45500201 0.0299999993
vt -0.45500201 0.779999971
vt 1.35500205 -0.8125
vt 0.45500201 -0.8125
vt 1.35500205 -0.842499971
vt 1.35500205 -0.842499971
vt 0.45500201 -0.8125
vt 0.45500201 -0.842499971
vt 1.35500205 0.779999971
vt 0.45500201 0.779999971
vt 1.35500205 0
vt 1.35500205 0
vt 0.45500201 0.779999971
vt 0.45500201 0
vt -0.779999971 -0.842499971
vt 0 -0.842499971
vt -0.0299999993 -0.8125
vt -0.0299999993 -0.8125
vt 0 -0.842499971
vt 0 0.246841997
vt 0.779999971 -0.842499971
vt 0.0299999993 -0.8125
vt 0 -0.842499971
vt 0 -0.842499971
vt 0.0299999993 -0.8125
vt 0 0.246841997
vt -1.35500205 -0.842499971
vt -0.45500201 -0.842499971
vt -1.35500205 0.246841997
vt -1.35500205 0.246841997
vt -0.45500201 -0.842499971
vt -0.45500201 0.246841997
vt 0.45500201 -0.8125
vt 1.35500205 -0.8125
vt 0.45500201 0.246841997
vt 0.45500201 0.246841997
vt 1.35500205 -0.8125
vt 1.35500205 0.246841997
vt -0.45500201 0.0299999993
vt -1.35500205 0.0299999993
vt -0.45500201 0
vt -0.45500201 0
vt -1.35500205 0.0299999993
vt -1.35500205 0
vt 2.27499795 0.246841997
vt 1.36499798 0.246841997
vt 2.27499795 -0.842499971
vt 0 -0.842499971
vt 0 0.246841997
vt 0 0.246841997
vt 2.27499795 -0.842499971
vt 1.36499798 0.246841997
vt 1.36499798 -0.842499971
vt 1.36499798 -0.842499971
vt 1.36499798 0.246841997
vt 0.464998007 0.246841997
vt 1.36499798 -0.842499971
vt 0.464998007 0.246841997
vt 0.464998007 -0.842499971
vt 1.36499798 0
vt 2.27499795 0
vt 1.36499798 0.0199999996
vt 1.36499798 0.0199999996
vt 2.27499795 0
vt 2.27499795 0.0199999996
vt 0 0.246841997
vt 0 -0.842499971
vt 0.0199999996 0.246841997
vt 0.0199999996 0.246841997
vt 0 -0.842499971
vt 0.0199999996 -0.842499971
vt -2.27499795 0.246841997
vt -2.27499795 -0.842499971
vt -1.36499798 0.246841997
vt -1.36499798 0.246841997
vt -2.27499795 -0.842499971
vt -1.36499798 -0.842499971
vt -0.0199999996 0.246841997
vt -0.0199999996 -0.842499971
vt 0 0.246841997
vt 0 0.246841997
vt -0.0199999996 -0.842499971
vt 0 -0.842499971
vt -2.27499795 0
vt -1.36499798 0
vt -2.27499795 0.0199999996
vt -2.27499795 0.0199999996
vt -1.36499798 0
vt -1.36499798 0.0199999996
vt 1.36499798 0
vt 1.36499798 0.779999971
vt 0.464998007 0
vt 0.464998007 0
vt 1.36499798 0.779999971
vt 0.464998007 0.779999971
vt -1.36499798 0.779999971
vt -1.36499798 0.529999971
vt -0.464998007 0.779999971
vt -0.464998007 0.779999971
vt -1.36499798 0.529999971
vt -0.464998007 0.529999971
vt -1.36499798 0.245679006
vt -0.464998007 0.245679006
vt -1.36499798 0.246841997
vt -1.36499798 0.246841997
vt -0.464998007 0.245679006
vt -0.464998007 0.246841997
vt -0.464998007 0.245679006
vt -1.36499798 0.245679006
vt -0.464998007 0.216841996
vt -0.464998007 0.216841996
vt -1.36499798 0.245679006
vt -1.36499798 0.216841996
vt -0.464998007 0.529999971
vt -1.36499798 0.529999971
vt -0.464998007 0.0299999993
vt -0.464998007 0.0299999993
vt -1.36499798 0.529999971
vt -1.36499798 0.0299999993
vt 0 0.246841997
vt 0 -0.842499971
vt 0.0299999993 -0.8125
vt 0.0299999993 -0.8125
vt 0 -0.842499971
vt 0.779999971 -0.842499971
vt -1.36499798 -0.8125
vt -0.464998007 -0.8125
vt -1.36499798 0.216841996
vt -1.36499798 0.216841996
vt -0.464998007 -0.8125
vt -0.464998007 0.216841996
vt -0.464998007 0
vt -0.464998007 0.779999971
vt -1.36499798 0
vt -1.36499798 0
vt -0.464998007 0.779999971
vt -1.36499798 0.779999971
vt 0.464998007 0.0299999993
vt 1.36499798 0.0299999993
vt 0.464998007 0.779999971
vt 0.464998007 0.779999971
vt 1.36499798 0.0299999993
vt 1.36499798 0.779999971
vt -0.464998007 -0.8125
vt -1.36499798 -0.8125
vt -0.464998007 -0.842499971
vt -0.464998007 -0.842499971
vt -1.36499798 -0.8125
vt -1.36499798 -0.842499971
vt 2.27499795 0.557500005
vt 1.83635497 0.557500005
vt 2.27499795 0.357499987
vt 2.27499795 0.357499987
vt 1.83635497 0.557500005
vt 1.83635497 0.357499987
vt -0.463999987 0.557500005
vt -0.463999987 0.357499987
vt -0.449896008 0.557500005
vt -0.449896008 0.557500005
vt -0.463999987 0.357499987
vt -0.449896008 0.357499987
vt 1.83635497 0.357499987
vt 1.83635497 0.557500005
vt 1.82635498 0.357499987
vt 1.82635498 0.357499987
vt 1.83635497 0.557500005
vt 1.82635498 0.557500005
vt 0.463999987 0.357499987
vt 0.463999987 0.557500005
vt 0.449896008 0.357499987
vt 0.449896008 0.357499987
vt 0.463999987 0.557500005
vt 0.449896008 0.557500005
vt 1.82635498 0.557500005
vt 1.37499797 0.557500005
vt 1.82635498 0.357499987
vt 1.82635498 0.357499987
vt 1.37499797 0.557500005
vt 1.37499797 0.357499987
vt 2.27499795 1.5
vt 1.37499797 1.5
vt 1.82635498 0.463999987
vt 1.82635498 0.463999987
vt 1.37499797 1.5
vt 1.37499797 0.449896008
vt -0.449896008 0.557500005
vt -1.5 0.557500005
vt -0.449896008 0.357499987
vt -0.449896008 0.357499987
vt -1.5 0.557500005
vt -1.5 0.357499987
vt 1.5 0.557500005
vt 0.449896008 0.357499987
vt 1.5 0.260679007
vt 1.5 0.260679007
vt 0.449896008 0.357499987
vt 0 0.260679007
vt -2.27499795 0.357499987
vt -1.83635497 0.357499987
vt -2.27499795 0.557500005
vt -2.27499795 0.557500005
vt -1.83635497 0.357499987
vt -1.83635497 0.557500005
vt 2.27499795 0.429895997
vt 1.83635497 0.429895997
vt 2.27499795 0
vt 2.27499795 0
vt 1.83635497 0.429895997
vt 1.83635497 0
vt -0.429895997 0.557500005
vt -0.429895997 0.357499987
vt 0 0.557500005
vt 0 0.557500005
vt -0.429895997 0.357499987
vt 0 0.357499987
vt 1.82635498 0.449896008
vt 1.82635498 0.429895997
vt 1.83635497 0.449896008
vt 1.83635497 0.449896008
vt 1.82635498 0.429895997
vt 1.83635497 0.429895997
vt -1.82635498 0.357499987
vt -1.37499797 0.357499987
vt -1.82635498 0.557500005
vt -1.82635498 0.557500005
vt -1.37499797 0.357499987
vt -1.37499797 0.557500005
vt 0.429895997 0.357499987
vt 0.429895997 0.557500005
vt 0 0.357499987
vt 0 0.357499987
vt 0.429895997 0.557500005
vt 0 0.557500005
vt 1.82635498 0.429895997
vt 1.37499797 0.429895997
vt 1.82635498 0
vt 1.82635498 0
vt 1.37499797 0.429895997
vt 1.37499797 0
vt -0.429895997 0.357499987
vt 0 0.357499987
vt -0.429895997 0.557500005
vt -0.429895997 0.557500005
vt 0 0.357499987
vt 0 0.557500005
vt 1.37499797 0.429895997
vt 1.37499797 0.449896008
vt 1.36499798 0.429895997
vt 1.36499798 0.429895997
vt 1.37499797 0.449896008
vt 1.36499798 0.449896008
vt 0 0.357499987
vt 0.429895997 0.357499987
vt 0 0.557500005
vt 0 0.557500005
vt 0.429895997 0.357499987
vt 0.429895997 0.557500005
vt 1.36499798 0
vt 1.36499798 0.429895997
vt 0.92364198 0
vt 0.92364198 0
vt 1.36499798 0.429895997
vt 0.92364198 0.429895997
vt -1.36499798 0.557500005
vt -1.36499798 0.357499987
vt -0.92364198 0.557500005
vt -0.92364198 0.557500005
vt -1.36499798 0.357499987
vt -0.92364198 0.357499987
vt 0 0.557500005
vt -0.429895997 0.557500005
vt 0 0.357499987
vt 0 0.357499987
vt -0.429895997 0.557500005
vt -0.429895997 0.357499987
vt 0.449896008 0.357499987
vt 1.5 0.357499987
vt 0.449896008 0.557500005
vt 0.449896008 0.557500005
vt 1.5 0.357499987
vt 1.5 0.557500005
vt 1.36499798 0.357499987
vt 1.36499798 0.557500005
vt 0.92364198 0.357499987
vt 0.92364198 0.357499987
vt 1.36499798 0.557500005
vt 0.92364198 0.557500005
vt -0.449896008 0.557500005
vt -0.460000008 0.557500005
vt -0.449896008 0.357499987
vt -0.449896008 0.357499987
vt -0.460000008 0.557500005
vt -0.460000008 0.357499987
vt 0.92364198 0.557500005
vt 0.913641989 0.557500005
vt 0.92364198 0.357499987
vt 0.92364198 0.357499987
vt 0.913641989 0.557500005
vt 0.913641989 0.357499987
vt 1.36499798 1.5
vt 0.464998007 1.5
vt 0.913641989 0.460000008
vt 0.913641989 0.460000008
vt 0.464998007 1.5
vt 0.464998007 0.449896008
vt -1.5 0.557500005
vt -1.5 0.357499987
vt -0.449896008 0.557500005
vt -0.449896008 0.557500005
vt -1.5 0.357499987
vt -0.449896008 0.357499987
vt 0.460000008 0.557500005
vt 0.449896008 0.557500005
vt 0.460000008 0.357499987
vt 0.460000008 0.357499987
vt 0.449896008 0.557500005
vt 0.449896008 0.357499987
vt 0.464998007 0.557500005
vt 0.464998007 0.357499987
vt 0.913641989 0.557500005
vt 0.913641989 0.557500005
vt 0.464998007 0.357499987
vt 0.913641989 0.357499987
vt -0.464998007 0.357499987
vt -0.464998007 0.557500005
vt -0.913641989 0.357499987
vt -0.913641989 0.357499987
vt -0.464998007 0.557500005
vt -0.913641989 0.557500005
vt 0.913641989 0.429895997
vt 0.464998007 0.429895997
vt 0.913641989 0
vt 0.913641989 0
vt 0.464998007 0.429895997
vt 0.464998007 0
vt 0.429895997 0.557500005
vt 0 0.557500005
vt 0.429895997 0.357499987
vt 0.429895997 0.357499987
vt 0 0.557500005
vt 0 0.357499987
vt -0.429895997 0.357499987
vt 0 0.357499987
vt -0.429895997 0.557500005
vt -0.429895997 0.557500005
vt 0 0.357499987
vt 0 0.557500005
vt -0.45500201 1.5
vt -1.35500205 1.5
vt -0.45500201 0
vt -0.45500201 0
vt -1.35500205 1.5
vt -1.35500205 0
vt 0.45500201 0
vt 1.35500205 0
vt 0.45500201 1.5
vt 0.45500201 1.5
vt 1.35500205 0
vt 1.35500205 1.5
vt -1.35500205 0.557500005
vt -0.45500201 0.557500005
vt -1.35500205 0.857500017
vt -1.35500205 0.857500017
vt -0.45500201 0.557500005
vt -0.45500201 0.857500017
vt 0 0.557500005
vt 0 0.857500017
vt -1.5 0.557500005
vt -1.5 0.557500005
vt 0 0.857500017
vt -1.5 0.857500017
vt -1.35500205 0
vt -0.45500201 0
vt -1.35500205 1.5
vt -1.35500205 1.5
vt -0.45500201 0
vt -0.45500201 1.5
vt 0 0.857500017
vt 0 0.557500005
vt 1.5 0.857500017
vt -1.5 0.857500017
vt 0 0.557500005
vt 0 0.557500005
vt 1.5 0.857500017
vt 0 0.557500005
vt 1.5 0.557500005
vt 1.5 0.557500005
vt 0 0.557500005
vt 0 0.357499987
vt 1.5 0.557500005
vt 0 0.357499987
vt 1.5 0.357499987
vt 0.45500201 0.857500017
vt 0.45500201 0.557500005
vt 1.35500205 0.857500017
vt -1.5 0.857500017
vt -1.5 0.557500005
vt -1.5 0.557500005
vt 1.35500205 0.857500017
vt 0.45500201 0.557500005
vt 1.35500205 0.557500005
vt 1.35500205 0.557500005
vt 0.45500201 0.557500005
vt 1.35500205 0.357499987
vt 1.5 0.357499987
vt 1.5 0.557500005
vt 0 0.357499987
vt 0 0.357499987
vt 1.5 0.557500005
vt 0 0.557500005
vt 0.454997987 1.5
vt -0.44500199 1.5
vt 0.454997987 0
vt 0.454997987 0
vt -0.44500199 1.5
vt -0.44500199 0
vt -1.5 0.557500005
vt -1.5 0.357499987
vt 0 0.557500005
vt 0 0.557500005
vt -1.5 0.357499987
vt 0 0.357499987
vt -0.44500199 0
vt -0.44500199 1.5
vt -0.45500201 0
vt -0.45500201 0
vt -0.44500199 1.5
vt -0.45500201 1.5
vt 2.26500201 0
vt 2.26500201 1.5
vt -2.27499795 0
vt -2.27499795 0
vt 2.26500201 1.5
vt -2.27499795 1.5
vt -1.5 0.260679007
vt 0 0.260679007
vt -1.5 0.557500005
vt -1.5 0.557500005
vt 0 0.260679007
vt 0 0.557500005
vt -1.36500096 1.5
vt -2.26500201 1.5
vt -1.36500096 0
vt -1.36500096 0
vt -2.26500201 1.5
vt -2.26500201 0
vt 1.36500096 0
vt 2.26500201 0
vt 1.36500096 1.5
vt 1.36500096 1.5
vt 2.26500201 0
vt 2.26500201 1.5
vt 1.36500096 0.557500005
vt 2.26500201 0.557500005
vt 1.36500096 0.857500017
vt 1.36500096 0.857500017
vt 2.26500201 0.557500005
vt 2.26500201 0.857500017
vt 0 0.557500005
vt 0 0.857500017
vt -1.5 0.557500005
vt -1.5 0.557500005
vt 0 0.857500017
vt -1.5 0.857500017
vt -2.26500201 0.857500017
vt -2.26500201 0.557500005
vt -1.36500096 0.857500017
vt 0 0.857500017
vt 0 0.557500005
vt 0 0.557500005
vt -1.36500096 0.857500017
vt -2.26500201 0.557500005
vt -1.36500096 0.557500005
vt -1.36500096 0.557500005
vt -2.26500201 0.557500005
vt -1.36500096 0.357499987
vt -2.26500201 0
vt -1.36500096 0
vt -2.26500201 1.5
vt -2.26500201 1.5
vt -1.36500096 0
vt -1.36500096 1.5
vt 0 0.857500017
vt 0 0.557500005
vt 1.5 0.857500017
vt -1.5 0.857500017
vt 0 0.557500005
vt 0 0.557500005
vt 1.5 0.857500017
vt 0 0.557500005
vt 1.5 0.557500005
vt 1.5 0.557500005
vt 0 0.557500005
vt 0 0.357499987
vt 1.5 0.557500005
vt 0 0.357499987
vt 1.5 0.357499987
vt -1.36500096 1.5
vt -1.36500096 0
vt -1.35500205 1.5
vt -1.35500205 1.5
vt -1.36500096 0
vt -1.35500205 0
vt 0 0.357499987
vt 0 0.557500005
vt -1.5 0.357499987
vt -1.5 0.357499987
vt 0 0.557500005
vt -1.5 0.557500005
vt 0.44500199 0.779999971
vt -0.454997987 0.779999971
vt 0.44500199 0.529999971
vt 0.44500199 0.529999971
vt -0.454997987 0.779999971
vt -0.454997987 0.529999971
vt 0.44500199 0.245679006
vt 0.44500199 0.246841997
vt -0.454997987 0.245679006
vt -0.454997987 0.245679006
vt 0.44500199 0.246841997
vt -0.454997987 0.246841997
vt -0.44500199 0.779999971
vt -0.44500199 0
vt 0.454997987 0.779999971
vt 0.454997987 0.779999971
vt -0.44500199 0
vt 0.454997987 0
vt -0.454997987 0.529999971
vt -0.454997987 0.0299999993
vt 0.44500199 0.529999971
vt 0.44500199 0.529999971
vt -0.454997987 0.0299999993
vt 0.44500199 0.0299999993
vt -0.454997987 0.216841996
vt 0.44500199 0.216841996
vt -0.454997987 0.245679006
vt -0.454997987 0.245679006
vt 0.44500199 0.216841996
vt 0.44500199 0.245679006
vt -0.454997987 -0.8125
vt 0.44500199 -0.8125
vt -0.454997987 0.216841996
vt -0.454997987 0.216841996
vt 0.44500199 -0.8125
vt 0.44500199 0.216841996
vt -0.44500199 -0.842499971
vt 0.454997987 -0.842499971
vt -0.44500199 0.246841997
vt -0.44500199 0.246841997
vt 0.454997987 -0.842499971
vt 0.454997987 0.246841997
vt 0 0.246841997
vt 0 -0.842499971
vt 0.0299999993 -0.8125
vt 0.0299999993 -0.8125
vt 0 -0.842499971
vt 0.779999971 -0.842499971
vt -0.454997987 0
vt 0.44500199 0
vt -0.454997987 0.779999971
vt -0.454997987 0.779999971
vt 0.44500199 0
vt 0.44500199 0.779999971
vt -0.44500199 0.0299999993
vt 0.454997987 0.0299999993
vt -0.44500199 0.779999971
vt -0.44500199 0.779999971
vt 0.454997987 0.0299999993
vt 0.454997987 0.779999971
vt 0.44500199 -0.8125
vt -0.454997987 -0.8125
vt 0.44500199 -0.842499971
vt 0.44500199 -0.842499971
vt -0.454997987 -0.8125
vt -0.454997987 -0.842499971
vt -2.27499795 0.779999971
vt -2.27499795 0.529999971
vt -1.37499797 0.779999971
vt -1.37499797 0.779999971
vt -2.27499795 0.529999971
vt -1.37499797 0.529999971
vt -2.27499795 0.245679006
vt -1.37499797 0.245679006
vt -2.27499795 0.246841997
vt -2.27499795 0.246841997
vt -1.37499797 0.245679006
vt -1.37499797 0.246841997
vt 1.37499797 0.779999971
vt 1.37499797 0
vt 2.27499795 0.779999971
vt 2.27499795 0.779999971
vt 1.37499797 0
vt 2.27499795 0
vt 2.27499795 0.246841997
vt 1.37499797 0.246841997
vt 2.27499795 -0.842499971
vt 2.27499795 -0.842499971
vt 1.37499797 0.246841997
vt 1.37499797 -0.842499971
vt 0 0.246841997
vt 0 -0.842499971
vt 0.529999971 -0.644321024
vt 0.529999971 -0.644321024
vt 0 -0.842499971
vt 0.779999971 -0.842499971
vt -2.27499795 0
vt -1.37499797 0
vt -2.27499795 0.779999971
vt -2.27499795 0.779999971
vt -1.37499797 0
vt -1.37499797 0.779999971
vt -2.27499795 -0.644321024
vt -2.27499795 -0.842499971
vt -2.24499798 -0.8125
vt -2.24499798 -0.8125
vt -2.27499795 -0.842499971
vt -1.37499797 -0.842499971
vt 2.27499795 0.779999971
vt 2.24499798 0.779999971
vt 2.27499795 0.529999971
vt 2.27499795 0.529999971
vt 2.24499798 0.779999971
vt 2.24499798 0.529999971
vt 1.37499797 0.0299999993
vt 2.24499798 0.0299999993
vt 1.37499797 0.779999971
vt 1.37499797 0.779999971
vt 2.24499798 0.0299999993
vt 2.24499798 0.779999971
vt -0.779999971 -0.8125
vt -0.0299999993 -0.8125
vt -0.529999971 -0.644321024
vt -0.529999971 -0.644321024
vt -0.0299999993 -0.8125
vt -0.0299999993 0.216841996
vt -1.37499797 0.216841996
vt -2.24499798 0.216841996
vt -1.37499797 -0.8125
vt -1.37499797 -0.8125
vt -2.24499798 0.216841996
vt -2.24499798 -0.8125
vt -2.27499795 -0.644321024
vt -2.24499798 0.216841996
vt -2.27499795 0.245679006
vt -2.27499795 0.245679006
vt -2.24499798 0.216841996
vt -1.37499797 0.245679006
vt 2.26500201 0.246841997
vt 2.23500204 0.246841997
vt 2.23500204 -0.8125
vt 1.36500096 -0.8125
vt 1.36500096 -0.842499971
vt 2.23500204 -0.8125
vt 2.26500201 0.246841997
vt 2.23500204 -0.8125
vt 2.26500201 -0.842499971
vt 2.26500201 -0.842499971
vt 2.23500204 -0.8125
vt 1.36500096 -0.842499971
vt 0 0.246841997
vt -0.779999971 0.246841997
vt 0 -0.842499971
vt 0 -0.842499971
vt -0.779999971 0.246841997
vt -0.779999971 -0.842499971
vt 0 0.246841997
vt 0.0299999993 -0.8125
vt 0.0299999993 0.246841997
vt 0.0299999993 -0.8125
vt 0.779999971 -0.842499971
vt 0.779999971 -0.8125
vt 0.779999971 -0.842499971
vt 0.0299999993 -0.8125
vt 0 -0.842499971
vt 0 -0.842499971
vt 0.0299999993 -0.8125
vt 0 0.246841997
vt -2.26500201 -0.842499971
vt -1.36500096 -0.842499971
vt -2.26500201 0.246841997
vt -2.26500201 0.246841997
vt -1.36500096 -0.842499971
vt -1.36500096 0.246841997
vt -2.26500201 0.779999971
vt -2.23500204 0.0299999993
vt -2.23500204 0.779999971
vt -1.36500096 0
vt -1.36500096 0.0299999993
vt -2.23500204 0.0299999993
vt -2.26500201 0.779999971
vt -2.26500201 0
vt -2.23500204 0.0299999993
vt -2.23500204 0.0299999993
vt -2.26500201 0
vt -1.36500096 0
vt -2.23500204 0.0299999993
vt -1.36500096 0.0299999993
vt -2.23500204 0.779999971
vt -2.23500204 0.779999971
vt -1.36500096 0.0299999993
vt -1.36500096 0.779999971
vt 0.779999971 0.246841997
vt 0.0299999993 0.246841997
vt 0.779999971 -0.8125
vt 0.779999971 -0.8125
vt 0.0299999993 0.246841997
vt 0.0299999993 -0.8125
vt 1.36500096 -0.8125
vt 2.23500204 -0.8125
vt 1.36500096 0.246841997
vt 1.36500096 0.246841997
vt 2.23500204 -0.8125
vt 2.23500204 0.246841997
f 1/1 2/2 3/3
f 2/4 1/5 4/6
f 4/7 5/8 6/9
f 4/10 6/11 7/12
f 8/13 9/14 10/15
f 8/16 10/17 11/18
f 11/19 10/20 12/21
f 11/22 12/23 3/24
f 6/25 13/26 9/27
f 13/28 14/29 9/30
f 14/31 5/32 15/33
f 12/34 16/35 3/36
f 3/37 16/38 1/39
f 5/40 17/41 18/42
f 18/43 17/44 19/45
f 16/46 20/47 1/48
f 20/49 21/50 1/51
f 22/52 19/53 17/54
f 23/55 24/56 25/57
f 26/58 27/59 28/60
f 27/61 29/62 28/63
f 29/64 30/65 31/66
f 29/67 31/68 28/69
f 25/70 32/71 33/72
f 31/73 30/74 34/75
f 31/76 34/77 35/78
f 36/79 37/80 32/81
f 32/82 37/83 33/84
f 33/85 37/86 38/87
f 37/88 39/89 38/90
f 30/91 40/92 34/93
f 40/94 41/95 34/96
f 42/97 43/98 44/99
f 43/100 45/101 44/102
f 45/103 46/104 47/105
f 45/106 47/107 44/108
f 46/109 48/110 47/111
f 49/112 50/113 51/114
f 51/115 50/116 52/117
f 50/118 53/119 52/120
f 52/121 53/122 54/123
f 53/124 55/125 56/126
f 53/127 56/128 54/129
f 56/130 57/131 54/132
f 44/133 47/134 58/135
f 58/136 47/137 59/138
f 58/139 59/140 60/141
f 60/142 59/143 61/144
f 62/145 63/146 57/147
f 63/148 64/149 57/150
f 57/151 64/152 54/153
f 64/154 59/155 65/156
f 64/157 65/158 66/159
f 64/160 66/161 54/162
f 59/163 47/164 67/165
f 59/166 67/167 68/168
f 59/169 68/170 65/171
f 67/172 47/173 69/174
f 67/175 69/176 70/177
f 70/178 69/179 71/180
f 69/181 47/182 72/183
f 69/184 72/185 73/186
f 73/187 72/188 74/189
f 73/190 74/191 75/192
f 73/193 75/194 68/195
f 68/196 75/197 76/198
f 68/199 76/200 65/201
f 76/202 75/203 77/204
f 78/205 79/206 80/207
f 81/208 82/209 66/210
f 77/211 75/212 83/213
f 79/214 84/215 82/216
f 66/217 82/218 85/219
f 66/220 85/221 54/222
f 82/223 84/224 86/225
f 84/226 87/227 86/228
f 75/229 74/230 88/231
f 88/232 74/233 89/234
f 88/235 90/236 85/237
f 85/238 90/239 91/240
f 85/241 91/242 54/243
f 92/244 93/245 94/246
f 93/247 72/248 94/249
f 72/250 47/251 94/252
f 94/253 47/254 95/255
f 94/256 95/257 89/258
f 89/259 95/260 96/261
f 47/262 97/263 98/264
f 47/265 98/266 95/267
f 95/268 98/269 99/270
f 99/271 98/272 100/273
f 98/274 97/275 101/276
f 98/277 101/278 102/279
f 96/280 102/281 103/282
f 96/283 103/284 90/285
f 102/286 101/287 104/288
f 101/289 97/290 105/291
f 101/292 105/293 106/294
f 107/295 105/296 108/297
f 105/298 97/299 108/300
f 108/301 97/302 109/303
f 108/304 109/305 104/306
f 104/307 109/308 110/309
f 54/310 91/311 111/312
f 91/313 112/314 111/315
f 113/316 114/317 115/318
f 103/319 110/320 116/321
f 115/322 117/323 111/324
f 116/325 110/326 118/327
f 119/328 120/329 117/330
f 117/331 120/332 111/333
f 120/334 109/335 111/336
f 121/337 122/338 123/339
f 124/340 125/341 126/342
f 125/343 127/344 126/345
f 127/346 128/347 129/348
f 127/349 129/350 126/351
f 123/352 130/353 131/354
f 130/355 132/356 133/357
f 130/358 133/359 131/360
f 134/361 129/362 135/363
f 129/364 128/365 135/366
f 135/367 128/368 136/369
f 135/370 136/371 137/372
f 138/373 139/374 133/375
f 133/376 139/377 131/378
f 140/379 141/380 142/381
f 143/382 144/383 145/384
f 146/385 147/386 145/387
f 148/388 142/389 149/390
f 2/391 4/392 3/393
f 3/394 4/395 7/396
f 150/397 151/398 152/399
f 152/400 151/401 153/402
f 142/403 145/404 149/405
f 149/406 145/407 147/408
f 149/409 147/410 148/411
f 148/412 147/413 146/414
f 148/415 146/416 154/417
f 154/418 146/419 155/420
f 148/421 154/422 142/423
f 142/424 154/425 140/426
f 146/427 145/428 155/429
f 155/430 145/431 144/432
f 154/433 155/434 140/435
f 140/436 155/437 144/438
f 145/439 142/440 143/441
f 143/442 142/443 141/444
f 143/445 141/446 144/447
f 144/448 141/449 140/450
f 18/451 131/452 156/453
f 156/454 131/455 131/456
f 156/457 131/458 157/459
f 157/460 131/461 128/462
f 157/463 128/464 127/465
f 131/466 18/467 158/468
f 158/469 18/470 159/471
f 18/472 156/473 159/474
f 159/475 156/476 160/477
f 159/478 160/479 158/480
f 158/481 160/482 161/483
f 158/484 161/485 131/486
f 131/487 161/488 157/489
f 156/490 157/491 160/492
f 160/493 157/494 161/495
f 131/496 139/497 128/498
f 128/499 139/500 136/501
f 138/502 133/503 137/504
f 137/505 133/506 135/507
f 138/508 137/509 139/510
f 139/511 137/512 136/513
f 135/514 133/515 134/516
f 134/517 133/518 132/519
f 134/520 132/521 129/522
f 129/523 132/524 130/525
f 131/526 157/527 123/528
f 123/529 157/530 121/531
f 123/532 126/533 130/534
f 130/535 126/536 129/537
f 127/538 125/539 157/540
f 157/541 125/542 121/543
f 126/544 123/545 124/546
f 124/547 123/548 122/549
f 124/550 122/551 125/552
f 125/553 122/554 121/555
f 120/556 119/557 109/558
f 109/559 119/560 110/561
f 117/562 118/563 119/564
f 119/565 118/566 110/567
f 118/568 117/569 116/570
f 116/571 117/572 115/573
f 116/574 115/575 103/576
f 103/577 115/578 114/579
f 114/580 113/581 103/582
f 103/583 113/584 90/585
f 111/586 112/587 115/588
f 115/589 112/590 113/591
f 113/592 112/593 90/594
f 90/595 112/596 91/597
f 111/598 109/599 54/600
f 54/601 109/602 97/603
f 108/604 104/605 107/606
f 107/607 104/608 162/609
f 107/610 162/611 105/612
f 105/613 162/614 106/615
f 162/616 104/617 106/618
f 106/619 104/620 101/621
f 103/622 102/623 110/624
f 110/625 102/626 104/627
f 102/628 96/629 163/630
f 163/631 96/632 164/633
f 102/634 163/635 98/636
f 98/637 163/638 100/639
f 163/640 164/641 100/642
f 100/643 164/644 99/645
f 96/646 95/647 164/648
f 164/649 95/650 99/651
f 96/652 90/653 89/654
f 89/655 90/656 88/657
f 94/658 89/659 92/660
f 92/661 89/662 165/663
f 92/664 165/665 93/666
f 93/667 165/668 166/669
f 165/670 89/671 166/672
f 166/673 89/674 74/675
f 93/676 166/677 72/678
f 72/679 166/680 74/681
f 88/682 85/683 86/684
f 86/685 85/686 82/687
f 88/688 86/689 75/690
f 75/691 86/692 87/693
f 87/694 84/695 75/696
f 75/697 84/698 83/699
f 84/700 79/701 83/702
f 83/703 79/704 77/705
f 82/706 81/707 79/708
f 79/709 81/710 80/711
f 81/712 66/713 80/714
f 80/715 66/716 65/717
f 79/718 78/719 77/720
f 77/721 78/722 76/723
f 80/724 65/725 78/726
f 78/727 65/728 76/729
f 68/730 167/731 73/732
f 73/733 167/734 168/735
f 168/736 167/737 71/738
f 71/739 167/740 70/741
f 168/742 71/743 73/744
f 73/745 71/746 69/747
f 68/748 67/749 167/750
f 167/751 67/752 70/753
f 55/754 169/755 42/756
f 42/757 169/758 43/759
f 42/760 43/761 55/762
f 55/763 43/764 169/765
f 43/766 42/767 170/768
f 170/769 42/770 171/771
f 43/772 170/773 169/774
f 169/775 170/776 172/777
f 170/778 171/779 172/780
f 172/781 171/782 173/783
f 171/784 42/785 173/786
f 173/787 42/788 42/789
f 173/790 42/791 55/792
f 55/793 42/794 44/795
f 55/796 44/797 56/798
f 173/799 55/800 172/801
f 172/802 55/803 55/804
f 172/805 55/806 169/807
f 169/808 55/809 53/810
f 64/811 63/812 59/813
f 59/814 63/815 61/816
f 63/817 62/818 61/819
f 61/820 62/821 60/822
f 62/823 57/824 60/825
f 60/826 57/827 58/828
f 58/829 57/830 44/831
f 44/832 57/833 56/834
f 47/835 52/836 97/837
f 97/838 52/839 54/840
f 52/841 47/842 51/843
f 51/844 47/845 48/846
f 49/847 51/848 174/849
f 174/850 51/851 48/852
f 174/853 48/854 49/855
f 49/856 48/857 51/858
f 49/859 51/860 175/861
f 175/862 51/863 176/864
f 48/865 177/866 51/867
f 51/868 177/869 176/870
f 177/871 48/872 178/873
f 178/874 48/875 48/876
f 178/877 48/878 174/879
f 174/880 48/881 46/882
f 177/883 178/884 176/885
f 176/886 178/887 175/888
f 178/889 174/890 175/891
f 175/892 174/893 174/894
f 175/895 174/896 49/897
f 49/898 174/899 46/900
f 49/901 46/902 50/903
f 50/904 46/905 53/906
f 53/907 46/908 45/909
f 45/910 43/911 53/912
f 53/913 43/914 169/915
f 41/916 39/917 34/918
f 34/919 39/920 37/921
f 41/922 40/923 39/924
f 39/925 40/926 38/927
f 40/928 30/929 38/930
f 38/931 30/932 33/933
f 36/934 32/935 35/936
f 35/937 32/938 31/939
f 36/940 35/941 37/942
f 37/943 35/944 34/945
f 25/946 28/947 32/948
f 32/949 28/950 31/951
f 29/952 179/953 30/954
f 30/955 179/956 33/957
f 33/958 179/959 25/960
f 25/961 179/962 23/963
f 179/964 29/965 23/966
f 23/967 29/968 27/969
f 28/970 25/971 26/972
f 26/973 25/974 24/975
f 26/976 24/977 27/978
f 27/979 24/980 23/981
f 22/982 17/983 21/984
f 21/985 17/986 1/987
f 22/988 21/989 19/990
f 19/991 21/992 20/993
f 20/994 16/995 19/996
f 19/997 16/998 18/999
f 18/1000 16/1001 156/1002
f 156/1003 16/1004 12/1005
f 18/1006 156/1007 5/1008
f 5/1009 156/1010 15/1011
f 156/1012 12/1013 15/1014
f 15/1015 12/1016 10/1017
f 14/1018 15/1019 9/1020
f 9/1021 15/1022 10/1023
f 14/1024 13/1025 5/1026
f 5/1027 13/1028 6/1029
f 11/1030 180/1031 8/1032
f 8/1033 180/1034 9/1035
f 9/1036 180/1037 6/1038
f 6/1039 180/1040 7/1041
f 3/1042 7/1043 11/1044
f 11/1045 7/1046 180/1047
f 5/1048 4/1049 17/1050
f 17/1051 4/1052 1/1053
f 181/1054 182/1055 183/1056
f 184/1057 151/1058 183/1059
f 181/1060 183/1061 150/1062
f 150/1063 183/1064 151/1065
f 185/1066 181/1067 152/1068
f 152/1069 181/1070 150/1071
f 186/1072 187/1073 188/1074
f 187/1075 151/1076 184/1077
f 151/1078 187/1079 153/1080
f 153/1081 187/1082 186/1083
f 152/1084 153/1085 185/1086
f 185/1087 153/1088 186/1089
f 181/1090 189/1091 182/1092
f 186/1093 188/1094 189/1095
f 181/1096 185/1097 189/1098
f 189/1099 185/1100 186/1101
f 190/1102 187/1103 183/1104
f 183/1105 187/1106 184/1107
f 182/1108 189/1109 183/1110
f 183/1111 189/1112 190/1113
f 187/1114 190/1115 188/1116
f 188/1117 190/1118 189/1119
