# Exported from USD for MuJoCo with source material subsets
v -14.9464251 2.01212447 1.44341044
v -14.9470799 2.01710098 1.44339971
v -14.9473338 2.01212447 1.49840289
v -14.9479911 2.01711148 1.49839213
v -14.9490026 2.02174705 1.44336783
v -14.9499146 2.02175229 1.49836027
v -14.9520595 2.02573245 1.4433173
v -14.9529737 2.02573841 1.49830973
v -14.9560452 2.02879303 1.44325151
v -14.9569623 2.02879732 1.49824395
v -14.9606889 2.03071755 1.44317473
v -14.9616007 2.0307185 1.49816727
v -14.965667 2.03137391 1.44309256
v -14.9665866 2.03137391 1.49808475
v -14.9706529 2.0307185 1.44301018
v -14.9715647 2.03071755 1.49800261
v -14.9752913 2.02879732 1.44293352
v -14.9762085 2.02879303 1.49792584
v -14.9792799 2.02573841 1.44286772
v -14.9801941 2.02573245 1.49786004
v -14.982339 2.02175229 1.44281706
v -14.983251 2.02174705 1.49780949
v -14.9842625 2.01711148 1.4427852
v -14.9851738 2.01710098 1.49777775
v -14.9849198 2.01212447 1.44277445
v -14.9858285 2.01212447 1.497767
v -14.984265 2.00714749 1.4427852
v -14.9851712 2.00713723 1.49777787
v -14.9823423 2.00250118 1.44281706
v -14.9832477 2.00249618 1.49780949
v -14.9792854 1.99851602 1.44286748
v -14.9801886 1.99851006 1.49786016
v -14.9752998 1.99545568 1.44293327
v -14.9762 1.99545091 1.49792596
v -14.970656 1.99353069 1.44301018
v -14.9715615 1.99352973 1.49800261
v -14.9656779 1.99287456 1.44309233
v -14.9665757 1.99287456 1.49808499
v -14.960692 1.99352973 1.44317473
v -14.9615976 1.99353069 1.49816727
v -14.9560536 1.99545091 1.4432514
v -14.9569538 1.99545568 1.49824407
v -14.952065 1.99851006 1.44331718
v -14.9529682 1.99851602 1.49830987
v -14.9490059 2.00249618 1.44336783
v -14.9499113 2.00250118 1.49836027
v -14.9470825 2.00713723 1.44339957
v -14.9479886 2.00714749 1.49839213
vt 1.30900896 -0.253282011
vt 1.30900002 -0.257806003
vt 1.35900199 -0.253282011
vt -1.35900199 -0.253282011
vt -1.30900002 -0.257806003
vt -1.30900002 -0.257806003
vt 1.35900199 -0.253282011
vt 1.30900002 -0.257806003
vt 1.35899305 -0.257815003
vt 1.35899305 -0.257815003
vt 1.30900002 -0.257806003
vt 1.30897105 -0.262030005
vt 1.35899305 -0.257815003
vt 1.30897105 -0.262030005
vt 1.35896397 -0.262033999
vt 1.35896397 -0.262033999
vt 1.30897105 -0.262030005
vt 1.30892503 -0.265653014
vt 1.35896397 -0.262033999
vt 1.30892503 -0.265653014
vt 1.35891795 -0.265657991
vt -0.420646995 1.35891795
vt -0.421478003 1.30892503
vt -0.417854011 1.30886495
vt -0.420646995 1.35891795
vt -0.417854011 1.30886495
vt -0.417021006 1.35885799
vt -0.417021006 1.35885799
vt -0.417854011 1.30886495
vt -0.413632989 1.30879498
vt -0.417021006 1.35885799
vt -0.413632989 1.30879498
vt -0.412804008 1.35878801
vt -0.412804008 1.35878801
vt -0.413632989 1.30879498
vt -0.409107 1.30871999
vt -0.412804008 1.35878801
vt -0.409107 1.30871999
vt -0.408271015 1.35871303
vt -0.408271015 1.35871303
vt -0.409107 1.30871999
vt -0.40457499 1.30864501
vt -0.408271015 1.35871303
vt -0.40457499 1.30864501
vt -0.403746009 1.358639
vt -0.403746009 1.358639
vt -0.40457499 1.30864501
vt -0.400357991 1.30857599
vt -0.403746009 1.358639
vt -0.400357991 1.30857599
vt -0.399524003 1.35856903
vt -0.399524003 1.35856903
vt -0.400357991 1.30857599
vt -0.396732002 1.30851603
vt -0.399524003 1.35856903
vt -0.396732002 1.30851603
vt -0.395900995 1.35850894
vt -1.35850894 -0.265653014
vt -1.30851603 -0.265657991
vt -1.30847001 -0.262033999
vt -1.35850894 -0.265653014
vt -1.30847001 -0.262033999
vt -1.35846305 -0.262030005
vt -1.35846305 -0.262030005
vt -1.30847001 -0.262033999
vt -1.30844104 -0.257815003
vt -1.35846305 -0.262030005
vt -1.30844104 -0.257815003
vt -1.35843396 -0.257806003
vt -1.35843396 -0.257806003
vt -1.30844104 -0.257815003
vt -1.30843103 -0.253282011
vt -1.35843396 -0.257806003
vt -1.30843103 -0.253282011
vt -1.35842395 -0.253282011
vt -1.30843103 -0.253282011
vt -1.30844104 -0.248757005
vt -1.35842395 -0.253282011
vt -1.35842395 -0.253282011
vt -1.30844104 -0.248757005
vt -1.30844104 -0.248757005
vt -1.35842395 -0.253282011
vt -1.30844104 -0.248757005
vt -1.35843396 -0.248748004
vt -1.35843396 -0.248748004
vt -1.30844104 -0.248757005
vt -1.30847001 -0.244533002
vt -1.35843396 -0.248748004
vt -1.30847001 -0.244533002
vt -1.35846305 -0.244528994
vt -1.35846305 -0.244528994
vt -1.30847001 -0.244533002
vt -1.30851603 -0.240909994
vt -1.35846305 -0.244528994
vt -1.30851603 -0.240909994
vt -1.35850894 -0.240905002
vt 0.395906001 1.35850894
vt 0.396726996 1.30851603
vt 0.400350004 1.30857599
vt 0.395906001 1.35850894
vt 0.400350004 1.30857599
vt 0.39953199 1.35856903
vt 0.39953199 1.35856903
vt 0.400350004 1.30857599
vt 0.40457201 1.30864501
vt 0.39953199 1.35856903
vt 0.40457201 1.30864501
vt 0.403748989 1.358639
vt 0.403748989 1.358639
vt 0.40457201 1.30864501
vt 0.409096986 1.30871999
vt 0.403748989 1.358639
vt 0.409096986 1.30871999
vt 0.408280998 1.35871398
vt 0.408280998 1.35871398
vt 0.409096986 1.30871999
vt 0.413630009 1.30879498
vt 0.408280998 1.35871398
vt 0.413630009 1.30879498
vt 0.412806988 1.35878801
vt 0.412806988 1.35878801
vt 0.413630009 1.30879498
vt 0.417847008 1.30886495
vt 0.412806988 1.35878801
vt 0.417847008 1.30886495
vt 0.41702801 1.35885799
vt 0.41702801 1.35885799
vt 0.417847008 1.30886495
vt 0.421472996 1.30892503
vt 0.41702801 1.35885799
vt 0.421472996 1.30892503
vt 0.420652002 1.35891795
vt 1.35891795 -0.240909994
vt 1.30892503 -0.240905002
vt 1.30897105 -0.244528994
vt 1.35891795 -0.240909994
vt 1.30897105 -0.244528994
vt 1.35896397 -0.244533002
vt 1.35896397 -0.244533002
vt 1.30897105 -0.244528994
vt 1.30899894 -0.248748004
vt 1.35896397 -0.244533002
vt 1.30899894 -0.248748004
vt 1.35899305 -0.248757005
vt 1.35899305 -0.248757005
vt 1.30899894 -0.248748004
vt 1.30900896 -0.253282011
vt 1.35899305 -0.248757005
vt 1.30900896 -0.253282011
vt 1.35900199 -0.253282011
f 1/1 2/2 3/3
f 3/4 2/5 2/6
f 3/7 2/8 4/9
f 4/10 2/11 5/12
f 4/13 5/14 6/15
f 6/16 5/17 7/18
f 6/19 7/20 8/21
f 8/22 7/23 9/24
f 8/25 9/26 10/27
f 10/28 9/29 11/30
f 10/31 11/32 12/33
f 12/34 11/35 13/36
f 12/37 13/38 14/39
f 14/40 13/41 15/42
f 14/43 15/44 16/45
f 16/46 15/47 17/48
f 16/49 17/50 18/51
f 18/52 17/53 19/54
f 18/55 19/56 20/57
f 20/58 19/59 21/60
f 20/61 21/62 22/63
f 22/64 21/65 23/66
f 22/67 23/68 24/69
f 24/70 23/71 25/72
f 24/73 25/74 26/75
f 25/76 27/77 26/78
f 26/79 27/80 27/81
f 26/82 27/83 28/84
f 28/85 27/86 29/87
f 28/88 29/89 30/90
f 30/91 29/92 31/93
f 30/94 31/95 32/96
f 32/97 31/98 33/99
f 32/100 33/101 34/102
f 34/103 33/104 35/105
f 34/106 35/107 36/108
f 36/109 35/110 37/111
f 36/112 37/113 38/114
f 38/115 37/116 39/117
f 38/118 39/119 40/120
f 40/121 39/122 41/123
f 40/124 41/125 42/126
f 42/127 41/128 43/129
f 42/130 43/131 44/132
f 44/133 43/134 45/135
f 44/136 45/137 46/138
f 46/139 45/140 47/141
f 46/142 47/143 48/144
f 48/145 47/146 1/147
f 48/148 1/149 3/150
