# Exported from USD for MuJoCo with source material subsets
v 6.67612591 0.630040347 1.20500049
v 6.79612591 0.630040347 1.08500049
v 6.67612609 1.28004008 1.20500049
v 6.79612609 1.28004008 1.08500049
v 6.79612609 1.28004008 1.04500037
v 5.70612636 1.28004056 1.04500012
v 5.70612633 1.28004056 1.20000025
v 5.70112639 1.28004056 0.970000178
v 5.58612638 1.28004056 0.970000118
v 5.70112633 1.28004056 1.20000025
v 5.58612626 1.28004056 1.20500024
v 5.70612615 0.630040705 1.04500012
v 6.79612591 0.630040347 1.04500037
v 5.70112621 0.630040705 0.970000178
v 5.70112612 0.630040705 1.20000025
v 5.5861262 0.630040705 0.970000118
v 5.58612608 0.630040705 1.20500024
v 5.70612612 0.630040705 1.20000025
vt 1.20500004 -2.42515111
vt 1.08500004 -2.42515111
vt 1.20500004 -3.42515111
vt 1.20500004 -3.42515111
vt 1.08500004 -2.42515111
vt 1.08500004 -3.42515111
vt -0.643287003 1.04499996
vt 0.446713001 1.04499996
vt -0.643287003 1.08500004
vt -0.643287003 1.08500004
vt 0.446713001 1.04499996
vt -0.523286998 1.20500004
vt 0.446713001 1.04499996
vt 0.446713001 1.20000005
vt -0.523286998 1.20500004
vt 0.451712996 0.970000029
vt 0.566712976 0.970000029
vt 0.451712996 1.20000005
vt 0.566712976 0.970000029
vt 0.566712976 1.20500004
vt 0.451712996 1.20000005
vt 0.451712996 1.20000005
vt 0.566712976 1.20500004
vt 0.446713001 1.20000005
vt 0.446713001 1.20000005
vt 0.566712976 1.20500004
vt -0.523286998 1.20500004
vt 0.643287003 1.08500004
vt 0.523286998 1.20500004
vt -0.446713001 1.04499996
vt 0.643287003 1.08500004
vt -0.446713001 1.04499996
vt 0.643287003 1.04499996
vt -0.451712996 0.970000029
vt -0.451712996 1.20000005
vt -0.566712976 0.970000029
vt -0.566712976 0.970000029
vt -0.451712996 1.20000005
vt -0.566712976 1.20500004
vt -0.451712996 1.20000005
vt -0.446713001 1.20000005
vt -0.566712976 1.20500004
vt -0.446713001 1.04499996
vt 0.523286998 1.20500004
vt -0.446713001 1.20000005
vt -0.446713001 1.20000005
vt 0.523286998 1.20500004
vt -0.566712976 1.20500004
vt 0.566712976 -3.42515111
vt 0.566712976 -2.42515111
vt -0.523286998 -3.42515111
vt -0.523286998 -3.42515111
vt 0.566712976 -2.42515111
vt -0.523286998 -2.42515111
f 1/1 2/2 3/3
f 3/4 2/5 4/6
f 5/7 6/8 4/9
f 4/10 6/11 3/12
f 6/13 7/14 3/15
f 8/16 9/17 10/18
f 9/19 11/20 10/21
f 10/22 11/23 7/24
f 7/25 11/26 3/27
f 2/28 1/29 12/30
f 2/31 12/32 13/33
f 14/34 15/35 16/36
f 16/37 15/38 17/39
f 15/40 18/41 17/42
f 12/43 1/44 18/45
f 18/46 1/47 17/48
f 11/49 17/50 3/51
f 3/52 17/53 1/54
