# Exported from USD for MuJoCo with source material subsets
v -5.71819249 -7.58165575 1.3630983
v -5.71819246 -7.5625155 1.21789824
v -5.71819246 -7.58165575 1.21789824
v -5.71819225 -7.07774616 1.00867833
v -5.98879221 -7.07774568 1.02319823
v -5.71819225 -7.07774616 1.02319829
v -5.71819243 -7.57736564 1.0198983
v -5.71819225 -7.08104587 1.0198983
v -5.71819243 -7.58066583 1.02319829
v -5.98879239 -7.58066536 1.02319823
v -5.7181924 -7.58066583 1.00867833
v -5.99209234 -7.58066536 1.00867827
v -5.9920924 -7.58066536 1.04629814
v -5.99209234 -7.58033586 1.00867827
v -5.7181924 -7.58033586 1.00867833
v -5.7181924 -7.57736564 1.00867833
v -5.7181924 -7.57703567 0.957198346
v -5.7181924 -7.57703567 1.00867833
v -5.99209234 -7.57736564 1.00867827
v -5.99209234 -7.57736564 1.01989825
v -5.99209222 -7.08104587 1.01989825
v -5.98879239 -7.58066536 1.04629814
v -5.99209222 -7.07774568 1.04629814
v -5.98879221 -7.07774568 1.04629814
v -5.99209222 -7.07774568 1.00867827
v -5.99209222 -7.07807565 1.00867827
v -5.99209222 -7.08104587 1.00867827
v -5.71819225 -7.08137584 1.00867833
v -5.71819225 -7.08137584 0.957198346
v -5.71819225 -7.08104587 1.00867833
v -5.71819225 -7.07807565 1.00867833
v -5.99209222 -7.07576538 1.04629814
v -5.98879221 -7.07576538 1.02319823
v -5.98879221 -7.07576538 1.04629814
v -5.98879209 -6.5728457 1.04629814
v -5.98879203 -6.5728457 1.02319823
v -5.99209205 -6.5728457 1.04629814
v -5.7181921 -6.5728457 1.02319829
v -5.7181921 -6.5728457 1.00867833
v -5.99209205 -6.5728457 1.00867827
v -5.99209205 -6.57317615 1.00867827
v -5.99209205 -6.57614589 1.01989825
v -5.99209205 -6.57614589 1.00867827
v -5.7181921 -6.57647586 1.00867833
v -5.7181921 -6.57647586 0.957198346
v -5.7181921 -6.57614589 1.00867833
v -5.7181921 -6.57317615 1.00867833
v -5.7181921 -6.57614589 1.0198983
v -5.99209222 -7.07246614 1.01989825
v -5.71819225 -7.07576538 1.02319829
v -5.71819225 -7.07246614 1.0198983
v -5.71819225 -7.07576538 1.00867833
v -5.99209222 -7.07576538 1.00867827
v -5.99209222 -7.07543541 1.00867827
v -5.99209222 -7.07246614 1.00867827
v -5.71819225 -7.07213569 1.00867833
v -5.71819225 -7.07246614 1.00867833
v -5.71819225 -7.07213569 0.957198346
v -5.71819225 -7.07543588 1.00867833
v -6.21979222 -7.58165575 0.637098247
v -6.21979192 -6.57185579 0.637098247
v -5.757792 -6.61145616 0.637098426
v -5.73042935 -7.57971788 0.637098426
v -5.71819231 -7.58165575 0.637098426
v -5.73042932 -7.57971788 0.465498382
v -5.7181921 -7.08665586 0.465498382
v -5.71819225 -7.56185604 0.465498382
v -5.71819225 -7.58165575 0.465498382
v -5.75779224 -7.54205585 0.465498382
v -5.75779194 -6.61145616 0.465498382
v -5.7181921 -7.06685615 0.465498382
v -5.71819231 -7.56185604 0.656898374
v -5.67859227 -7.56185604 0.465498382
v -5.67859227 -7.58165575 0.465498382
v -5.6785925 -7.58165575 1.3630983
v -5.6785925 -7.56185604 1.3630983
v -5.71819231 -7.58165575 0.656898374
v -5.71819192 -6.59165598 0.465498382
v -5.73042906 -6.57379413 0.637098426
v -5.71819201 -6.57185579 0.637098426
v -6.21979192 -6.57185579 0.656898254
v -6.21979222 -7.58165575 0.656898254
v -5.71819201 -6.57185579 0.656898374
v -5.67859194 -6.57185579 0.465498382
v -5.71819192 -6.57185579 0.465498382
v -5.67859197 -6.59165598 0.465498382
v -5.67859221 -6.59165598 1.3630983
v -5.71819201 -6.59165598 0.656898374
v -5.71819216 -7.06685615 0.656898374
v -5.67859209 -7.06685615 0.465498382
v -5.71819216 -6.57185579 1.16839824
v -5.67859221 -6.57185579 1.3630983
v -5.71819216 -6.59099603 1.16839824
v -5.71819219 -6.59165598 1.3630983
v -5.67859221 -6.59165598 1.38289824
v -5.67859236 -7.06685615 1.3630983
v -5.71819216 -7.08665586 0.656898374
v -5.71819234 -7.06685615 1.3630983
v -5.67859236 -7.08665586 1.3630983
v -5.67859209 -7.08665586 0.465498382
v -5.71819237 -7.08665586 1.3630983
v -5.71819219 -6.59165598 1.38289824
v -5.6785925 -7.56185604 1.38289824
v -5.71819249 -7.56185604 1.3630983
v -5.71819249 -7.56185604 1.38289824
v -5.71819246 -7.58165575 1.16839824
v -5.71819246 -7.5625155 1.16839824
v -5.757792 -6.64445615 0.637098426
v -5.79079199 -6.61145616 0.637098426
v -5.942592 -6.64445615 0.637098307
v -6.22738943 -7.56185556 1.43979191
v -6.22738943 -7.58165575 1.43979191
v -6.17867872 -7.56185556 1.43979191
v -5.71819219 -6.57185579 1.3630983
v -5.71819216 -6.59099603 1.21789824
v -5.71819216 -6.57185579 1.21789824
v -6.04082629 -7.5625155 1.41999188
v -6.04082629 -7.5625155 1.42741899
v -6.10561273 -7.58165575 1.41999188
v -6.10561273 -7.5625155 1.41999188
v -6.15887872 -7.56185556 1.41999188
v -6.06062636 -7.56185556 1.41999188
v -6.04082605 -6.59099603 1.41999188
v -6.04082629 -7.58165575 1.42741899
v -6.05987868 -7.58231521 1.43979191
v -6.05987868 -7.58165575 1.43979191
v -6.13610199 -7.58231521 1.43979191
v -6.13610199 -7.58165575 1.43979191
v -6.04082629 -7.58165575 1.43979191
v -6.06062636 -7.56185556 1.43979191
v -6.04082605 -6.59099603 1.42741899
v -6.04082605 -6.57185579 1.43979191
v -6.060626 -6.59165598 1.43979191
v -6.04082605 -6.57185579 1.42741899
v -6.05987838 -6.57185579 1.43979191
v -6.10561231 -6.59099556 1.41999188
v -6.060626 -6.59165598 1.41999188
v -6.15887842 -6.59165598 1.41999188
v -6.10561231 -6.57185579 1.41999188
v -6.05987838 -6.57119585 1.43979191
v -6.13610169 -6.57119585 1.43979191
v -6.13610169 -6.57185579 1.43979191
v -6.17867837 -6.59165598 1.41999188
v -6.22738907 -6.57185579 1.41999188
v -6.15887842 -6.59165598 1.43979191
v -6.15887872 -7.56185556 1.43979191
v -6.22738907 -6.57185579 1.43979191
v -6.17867837 -6.59165598 1.43979191
v -6.22738907 -6.59165598 1.43979191
v -6.22738907 -6.59165598 1.41999188
v -6.17867872 -7.56185556 1.41999188
v -6.22738943 -7.58165575 1.41999188
v -6.22738943 -7.56185556 1.41999188
v -5.79079226 -7.54205585 0.637098426
v -5.94259224 -7.50905586 0.637098307
v -5.9095923 -7.54205585 0.637098307
v -5.90959212 -7.54205585 0.0463983956
v -5.94259206 -7.50905586 0.0463983956
v -5.79079211 -7.54205585 0.0463985148
v -5.75779212 -7.50905586 0.0463985148
v -5.75779227 -7.50905586 0.637098426
v -5.72479209 -7.50905586 0.0133985225
v -6.18679199 -7.50905586 0.0463983956
v -5.75779212 -7.54205585 0.0463985148
v -6.18679205 -7.54205585 0.0463983956
v -5.72479212 -7.54205585 0.0133985225
v -6.21979198 -7.50905586 0.00349831017
v -5.72479209 -7.50905586 0.00349854858
v -6.21979198 -7.54205585 0.00349831017
v -5.72479212 -7.54205585 0.00349854858
v -5.909592 -6.61145616 0.637098307
v -5.90959183 -6.61145616 0.0463983956
v -5.79079181 -6.61145616 0.0463985148
v -5.94259182 -6.64445615 0.0463983956
v -5.75779182 -6.64445615 0.0463985148
v -6.18679175 -6.61145568 0.0463983956
v -6.18679175 -6.64445568 0.0463983956
v -5.75779182 -6.61145616 0.0463985148
v -5.75789544 -6.64254118 0.637098426
v -5.75789529 -6.64254118 0.0463985148
v -5.76001436 -6.6349361 0.0463985148
v -5.76001451 -6.6349361 0.637098426
v -5.76615632 -6.62524295 0.0463985148
v -5.7661565 -6.62524295 0.637098426
v -5.77525759 -6.61702657 0.0463985148
v -5.77525777 -6.61702657 0.637098426
v -5.7838732 -6.61267639 0.637098426
v -5.78387305 -6.61267639 0.0463985148
v -5.94137159 -6.63753677 0.0463983956
v -5.94137177 -6.63753677 0.637098307
v -5.93702159 -6.62892128 0.637098307
v -5.93702141 -6.62892128 0.0463983956
v -5.92880443 -6.61982036 0.637098307
v -5.92880431 -6.61982036 0.0463983956
v -5.91911158 -6.61367822 0.0463983956
v -5.9191117 -6.61367822 0.637098307
v -5.91150686 -6.61155963 0.0463983956
v -5.91150698 -6.61155963 0.637098307
v -6.21979198 -7.54205585 0.0133984032
v -6.21979198 -7.50905586 0.0133984032
v -5.91911206 -7.53983284 0.637098307
v -5.91150734 -7.5419519 0.637098307
v -5.92880479 -7.53369117 0.637098307
v -5.93702188 -7.52458978 0.637098307
v -5.94137213 -7.51597477 0.637098307
v -5.91911188 -7.53983284 0.0463983956
v -5.92880461 -7.53369117 0.0463983956
v -5.91150716 -7.5419519 0.0463983956
v -5.9370217 -7.52458978 0.0463983956
v -5.94137189 -7.51597477 0.0463983956
v -5.75789574 -7.51097084 0.637098426
v -5.78387347 -7.54083562 0.637098426
v -5.77525807 -7.53648544 0.637098426
v -5.76615679 -7.52826858 0.637098426
v -5.76001477 -7.51857591 0.637098426
v -5.75789559 -7.51097084 0.0463985148
v -5.76001463 -7.51857591 0.0463985148
v -5.76615659 -7.52826858 0.0463985148
v -5.77525789 -7.53648544 0.0463985148
v -5.78387332 -7.54083562 0.0463985148
v -5.71819216 -6.57119585 1.16839824
v -5.71819216 -6.57119585 1.21789824
v -5.71819246 -7.58231617 1.16839824
v -5.71819246 -7.58231617 1.21789824
v -5.730429 -6.57379413 0.465498382
v -5.74146825 -6.5794189 0.465498382
v -5.750229 -6.58817983 0.465498382
v -5.75585377 -6.59921861 0.465498382
v -5.74146828 -6.5794189 0.637098426
v -5.75022906 -6.58817983 0.637098426
v -5.75585383 -6.59921861 0.637098426
v -5.74146858 -7.57409311 0.637098426
v -5.74146855 -7.57409311 0.465498382
v -5.75022939 -7.56533218 0.637098426
v -5.75022933 -7.56533218 0.465498382
v -5.75585413 -7.55429292 0.637098426
v -5.75585407 -7.55429292 0.465498382
v -5.75779227 -7.54205585 0.637098426
v -5.71819225 -7.07543588 0.957198346
v -5.7181921 -6.57317615 0.957198346
v -5.71819225 -7.07807565 0.957198346
v -5.7181924 -7.58033586 0.957198346
v -6.21979174 -6.61145568 0.00349831017
v -5.72479183 -6.61145616 0.00349854858
v -6.21979174 -6.64445568 0.00349831017
v -5.72479183 -6.64445615 0.00349854858
v -5.72479183 -6.64445615 0.0133985225
v -6.21979174 -6.64445568 0.0133984032
v -6.21979174 -6.61145568 0.0133984032
v -5.72479183 -6.61145616 0.0133985225
vt -1.23599994 0.458999991
vt -1.10399997 0.441599995
vt -1.10399997 0.458999991
vt 0 0.913800001
vt 0.246000007 0.926999986
vt 0 0.926999986
vt 0.926999986 0.000899999985
vt 0.924000025 0.4551
vt 0.924000025 0.00389999989
vt 0 0.926999986
vt -0.246000007 0.926999986
vt 0 0.913800001
vt -0.913800001 0.458099991
vt -0.948000014 0.458099991
vt -0.913800001 0.457800001
vt 0.913800001 0.457800001
vt 0.913800001 0.4551
vt 0.924000025 0.4551
vt 0.866999984 0.45480001
vt 0.913800001 0.45480001
vt 0.913800001 0.4551
vt -0.913800001 0.4551
vt -0.913800001 0.457800001
vt -0.924000025 0.4551
vt -0.913800001 0.457800001
vt -0.948000014 0.458099991
vt -0.924000025 0.4551
vt -0.924000025 0.4551
vt -0.948000014 0.458099991
vt -0.924000025 0.00389999989
vt -0.248999998 0.948000014
vt -0.246000007 0.926999986
vt -0.246000007 0.948000014
vt -0.948000014 0.458099991
vt -0.948000014 0.000899999985
vt -0.924000025 0.00389999989
vt 0.246000007 0.948000014
vt 0.246000007 0.926999986
vt 0.248999998 0.948000014
vt -0.913800001 0.000899999985
vt -0.913800001 0.00120000006
vt -0.948000014 0.000899999985
vt -0.948000014 0.000899999985
vt -0.913800001 0.00120000006
vt -0.924000025 0.00389999989
vt -0.913800001 0.00120000006
vt -0.913800001 0.00389999989
vt -0.924000025 0.00389999989
vt 0.913800001 0.00419999985
vt 0.866999984 0.00419999985
vt 0.913800001 0.00389999989
vt 0.913800001 0.00120000006
vt 0.924000025 0.00389999989
vt 0.913800001 0.00389999989
vt -0.248999998 0.948000014
vt -0.246000007 0.926999986
vt -0.246000007 0.948000014
vt 0.246000007 0.948000014
vt 0.246000007 0.926999986
vt 0.248999998 0.948000014
vt 0.246000007 0.926999986
vt 0 0.926999986
vt 0 0.913800001
vt -0.913800001 -0.458099991
vt -0.913800001 -0.457800001
vt -0.948000014 -0.458099991
vt -0.948000014 -0.458099991
vt -0.913800001 -0.457800001
vt -0.924000025 -0.4551
vt -0.948000014 -0.458099991
vt -0.924000025 -0.4551
vt -0.948000014 -0.000899999985
vt -0.913800001 -0.457800001
vt -0.913800001 -0.4551
vt -0.924000025 -0.4551
vt 0.913800001 -0.45480001
vt 0.866999984 -0.45480001
vt 0.913800001 -0.4551
vt 0.913800001 -0.457800001
vt 0.924000025 -0.4551
vt 0.913800001 -0.4551
vt -0.924000025 -0.4551
vt -0.924000025 -0.00389999989
vt -0.948000014 -0.000899999985
vt 0.924000025 -0.4551
vt 0.926999986 -0.000899999985
vt 0.924000025 -0.00389999989
vt 0 0.926999986
vt -0.246000007 0.926999986
vt 0 0.913800001
vt -0.913800001 -0.000899999985
vt -0.948000014 -0.000899999985
vt -0.913800001 -0.00120000006
vt -0.948000014 -0.000899999985
vt -0.924000025 -0.00389999989
vt -0.913800001 -0.00120000006
vt -0.913800001 -0.00120000006
vt -0.924000025 -0.00389999989
vt -0.913800001 -0.00389999989
vt 0.913800001 -0.00419999985
vt 0.913800001 -0.00389999989
vt 0.866999984 -0.00419999985
vt 0.913800001 -0.00120000006
vt 0.913800001 -0.00389999989
vt 0.924000025 -0.00389999989
vt -0.456 0.458999991
vt -0.456 -0.458999991
vt -0.0359999985 -0.423000008
vt -0.0111250002 0.457237989
vt 0 0.458999991
vt -0.456 0.458999991
vt -0.0111250002 0.457237989
vt 0 0.00899999961
vt 0 0.441000015
vt -0.0111250002 0.457237989
vt 0 0.441000015
vt 0 0.458999991
vt -0.0359999985 0.423000008
vt -0.0359999985 -0.423000008
vt 0 -0.00899999961
vt 0 0.419999987
vt 0 0.593999982
vt -0.0359999985 0.419999987
vt 0 0.441000015
vt 0.0359999985 0.441000015
vt 0 0.458999991
vt 0 0.458999991
vt 0.0359999985 0.441000015
vt 0.0359999985 0.458999991
vt 0 0.419999987
vt 0.0359999985 0.419999987
vt 0 0.575999975
vt 0.419999987 0.458999991
vt 0.419999987 0.441000015
vt 1.23599994 0.458999991
vt 0.0359999985 0.419999987
vt 0.0359999985 1.23599994
vt 0 0.575999975
vt -0.0359999985 0.419999987
vt 0 0.593999982
vt -0.0359999985 1.23599994
vt 0.419999987 0.441000015
vt 1.23599994 0.441000015
vt 1.23599994 0.458999991
vt 0 0.575999975
vt 0.0359999985 1.23599994
vt 0 0.593999982
vt 0 0.575999975
vt 0 0.593999982
vt -0.456 0.575999975
vt -0.0359999985 -0.423000008
vt 0 -0.441000015
vt 0 -0.00899999961
vt -0.0111250002 -0.457237989
vt -0.456 -0.458999991
vt 0 -0.458999991
vt 0.456 0.575999975
vt 0.456 0.593999982
vt 0 0.575999975
vt -0.456 0.575999975
vt 0 0.593999982
vt -0.456 0.593999982
vt 0.456 0.593999982
vt 0 0.593999982
vt 0 0.575999975
vt 0 0.575999975
vt 0 0.593999982
vt -0.0359999985 0.419999987
vt 0 0.575999975
vt -0.0359999985 0.419999987
vt 0 0.419999987
vt 0 -0.458999991
vt 0.0359999985 -0.458999991
vt 0.0359999985 -0.441000015
vt 0 -0.458999991
vt 0.0359999985 -0.441000015
vt 0 -0.441000015
vt 0.419999987 -0.441000015
vt 0.419999987 -0.458999991
vt 1.23599994 -0.441000015
vt 0.0359999985 0.419999987
vt 0.0359999985 1.23599994
vt 0 0.593999982
vt 0.0359999985 0.419999987
vt 0 0.593999982
vt 0 0.419999987
vt 0 0.419999987
vt 0 0.593999982
vt -0.0359999985 0.419999987
vt 0 -0.00899999961
vt 0.0359999985 -0.00899999961
vt 0 0.00899999961
vt -0.0359999985 0.419999987
vt 0 0.593999982
vt 0 1.05900002
vt -0.0359999985 0.419999987
vt 0 1.05900002
vt -0.0359999985 1.23599994
vt -0.593999982 -0.458999991
vt -1.05900002 -0.441599995
vt -1.05900002 -0.458999991
vt 0 0.593999982
vt 0.0359999985 1.23599994
vt 0 1.23599994
vt 1.23599994 -0.441000015
vt 1.25399995 -0.441000015
vt 1.23599994 -0.00899999961
vt -0.593999982 -0.00899999961
vt -0.593999982 0.00899999961
vt -1.23599994 -0.00899999961
vt 0 0.593999982
vt 0 1.23599994
vt -0.0359999985 1.23599994
vt 0 0.593999982
vt -0.0359999985 1.23599994
vt -0.0359999985 0.419999987
vt 1.23599994 -0.00899999961
vt 1.25399995 -0.441000015
vt 1.23599994 0.00899999961
vt 1.23599994 -0.00899999961
vt 1.23599994 0.00899999961
vt 0.419999987 -0.00899999961
vt 0.419999987 -0.00899999961
vt 1.23599994 0.00899999961
vt 0.419999987 0.00899999961
vt 0.0359999985 -0.00899999961
vt 0.0359999985 0.00899999961
vt 0 0.00899999961
vt 0.0359999985 0.419999987
vt 0.0359999985 1.23599994
vt 0 0.593999982
vt 0.0359999985 0.419999987
vt 0 0.593999982
vt 0 0.419999987
vt 0 0.593999982
vt 0.0359999985 1.23599994
vt 0 1.23599994
vt -0.593999982 0.00899999961
vt -1.23599994 0.00899999961
vt -1.23599994 -0.00899999961
vt -1.23599994 -0.00899999961
vt -1.23599994 0.00899999961
vt -1.25399995 -0.441000015
vt -1.23599994 -0.00899999961
vt -1.25399995 -0.441000015
vt -1.23599994 -0.441000015
vt 1.23599994 0.00899999961
vt 1.25399995 -0.441000015
vt 1.25399995 0.441000015
vt 1.23599994 0.00899999961
vt 1.25399995 0.441000015
vt 1.23599994 0.441000015
vt -1.23599994 0.00899999961
vt -1.23599994 0.441000015
vt -1.25399995 0.441000015
vt -1.23599994 0.00899999961
vt -1.25399995 0.441000015
vt -1.25399995 -0.441000015
vt -0.0359999985 1.23599994
vt 0 0.593999982
vt 0 1.23599994
vt 1.23599994 0.441000015
vt 1.25399995 0.441000015
vt 1.23599994 0.458999991
vt -0.593999982 0.458999991
vt -1.05900002 0.458999991
vt -1.05900002 0.441599995
vt -1.23599994 0.441000015
vt -1.05900002 0.441599995
vt -1.10399997 0.441599995
vt -1.23599994 0.441000015
vt -1.10399997 0.441599995
vt -1.23599994 0.458999991
vt -1.23599994 0.441000015
vt -1.23599994 0.458999991
vt -1.25399995 0.441000015
vt 0.0359999985 -0.393000007
vt 0.0659999996 -0.423000008
vt 0.203999996 -0.393000007
vt 0.462906003 0.441000015
vt 0.462906003 0.458999991
vt 0.418624014 0.441000015
vt 0 1.23599994
vt 0 1.10399997
vt 0.0359999985 1.23599994
vt -1.25399995 -0.441000015
vt -1.23599994 -0.458999991
vt -1.23599994 -0.441000015
vt -1.23599994 -0.441000015
vt -1.23599994 -0.458999991
vt -1.10399997 -0.441599995
vt -1.23599994 -0.441000015
vt -1.10399997 -0.441599995
vt -1.05900002 -0.441599995
vt 0 1.23599994
vt -0.0359999985 1.23599994
vt 0 1.10399997
vt -1.23599994 -0.458999991
vt -1.10399997 -0.458999991
vt -1.10399997 -0.441599995
vt -0.0359999985 1.23599994
vt 0 1.05900002
vt 0 1.10399997
vt 0 1.10399997
vt 0 1.05900002
vt 0.293303013 1.28772199
vt 0 1.10399997
vt 0.293303013 1.28772199
vt 0.293303013 1.29447401
vt 0 0.441599995
vt 0.293303013 0.441599995
vt 0 0.458999991
vt 0 0.441599995
vt -0.352200001 0.458999991
vt -0.352200001 0.441599995
vt 0 1.05900002
vt 0.352200001 1.28772199
vt 0.293303013 1.28772199
vt -0.352200001 0.441599995
vt -0.352200001 0.458999991
vt -0.400624007 0.441000015
vt -0.352200001 0.441599995
vt -0.400624007 0.441000015
vt -0.311304003 0.441000015
vt 1.28772199 0.441599995
vt 1.28772199 -0.441599995
vt 1.29447401 0.441599995
vt 0 0.458999991
vt 0.293303013 0.441599995
vt 0.293303013 0.458999991
vt 0.310624003 0.459600002
vt 0.293303013 0.458999991
vt 0.310624003 0.458999991
vt 0.310624003 0.459600002
vt 0.310624003 0.458999991
vt 0.379918009 0.459600002
vt 0.379918009 0.459600002
vt 0.310624003 0.458999991
vt 0.379918009 0.458999991
vt -0.379918009 0.459600002
vt -0.379918009 0.458999991
vt -0.352200001 0.458999991
vt 1.29447401 0.458999991
vt 1.29447401 0.441599995
vt 1.305722 0.458999991
vt -0.293303013 1.29447401
vt -0.293303013 1.305722
vt -0.310624003 1.305722
vt 0.310624003 0.458999991
vt 0.293303013 0.458999991
vt 0.311304003 0.441000015
vt 0.310624003 0.458999991
vt 0.311304003 0.441000015
vt 0.379918009 0.458999991
vt 1.29447401 0.441599995
vt 1.28772199 -0.441599995
vt 1.29447401 -0.441599995
vt 1.29447401 0.441599995
vt 1.29447401 -0.441599995
vt 1.305722 0.458999991
vt 1.305722 0.458999991
vt 1.29447401 -0.441599995
vt 1.305722 -0.458999991
vt 0.293303013 0.458999991
vt 0.311304003 -0.441000015
vt 0.311304003 0.441000015
vt 1.305722 -0.458999991
vt 1.29447401 -0.441599995
vt 1.29447401 -0.458999991
vt 0.293303013 1.305722
vt 0.293303013 1.29447401
vt 0.310624003 1.305722
vt -0.293303013 1.29447401
vt -0.293303013 1.28772199
vt 0 1.10399997
vt 0.293303013 -0.441599995
vt 0 -0.441599995
vt 0.293303013 -0.458999991
vt 0 1.10399997
vt -0.293303013 1.28772199
vt 0 1.05900002
vt 0 1.05900002
vt -0.293303013 1.28772199
vt -0.352200001 1.28772199
vt 0 -0.441599995
vt -0.352200001 -0.441599995
vt 0 -0.458999991
vt -0.293303013 -0.441599995
vt -0.311304003 0.441000015
vt -0.311304003 -0.441000015
vt -0.293303013 -0.441599995
vt -0.311304003 -0.441000015
vt -0.352200001 -0.441599995
vt -0.352200001 -0.441599995
vt -0.311304003 -0.441000015
vt -0.400624007 -0.441000015
vt -0.352200001 -0.441599995
vt -0.400624007 -0.441000015
vt -0.352200001 -0.458999991
vt -0.352200001 -0.441599995
vt -0.352200001 -0.458999991
vt 0 -0.458999991
vt 0.293303013 -0.458999991
vt 0.310624003 -0.459600002
vt 0.310624003 -0.458999991
vt 0.310624003 -0.459600002
vt 0.379918009 -0.459600002
vt 0.310624003 -0.458999991
vt -0.379918009 -0.459600002
vt -0.352200001 -0.458999991
vt -0.379918009 -0.458999991
vt 0.379918009 -0.459600002
vt 0.379918009 -0.458999991
vt 0.310624003 -0.458999991
vt 0.310624003 -0.458999991
vt 0.379918009 -0.458999991
vt 0.311304003 -0.441000015
vt -0.352200001 -0.458999991
vt -0.400624007 -0.441000015
vt -0.418624014 -0.441000015
vt -0.352200001 -0.458999991
vt -0.418624014 -0.441000015
vt -0.462906003 -0.458999991
vt 0.311304003 -0.441000015
vt 0.379918009 -0.458999991
vt 0.400624007 -0.441000015
vt 0.311304003 0.441000015
vt 0.400624007 0.441000015
vt 0.379918009 0.458999991
vt 0.379918009 -0.458999991
vt 0.462906003 -0.458999991
vt 0.418624014 -0.441000015
vt 0.379918009 -0.458999991
vt 0.418624014 -0.441000015
vt 0.400624007 -0.441000015
vt 0.462906003 -0.458999991
vt 0.462906003 -0.441000015
vt 0.418624014 -0.441000015
vt -0.462906003 -0.458999991
vt -0.418624014 -0.441000015
vt -0.462906003 -0.441000015
vt 0.418624014 -0.441000015
vt 0.418624014 0.441000015
vt 0.400624007 0.441000015
vt 0.418624014 -0.441000015
vt 0.400624007 0.441000015
vt 0.400624007 -0.441000015
vt 0.400624007 0.441000015
vt 0.418624014 0.441000015
vt 0.462906003 0.458999991
vt 0.400624007 0.441000015
vt 0.462906003 0.458999991
vt 0.379918009 0.458999991
vt -0.418624014 -0.441000015
vt -0.400624007 -0.441000015
vt -0.418624014 0.441000015
vt -0.400624007 -0.441000015
vt -0.400624007 0.441000015
vt -0.418624014 0.441000015
vt -0.400624007 0.441000015
vt -0.352200001 0.458999991
vt -0.418624014 0.441000015
vt -0.352200001 0.458999991
vt -0.462906003 0.458999991
vt -0.418624014 0.441000015
vt -0.462906003 0.458999991
vt -0.462906003 0.441000015
vt -0.418624014 0.441000015
vt 0.0659999996 0.423000008
vt 0.203999996 0.393000007
vt 0.173999995 0.423000008
vt -0.173999995 0.423000008
vt -0.203999996 0.393000007
vt -0.0659999996 0.423000008
vt -0.0659999996 0.423000008
vt -0.203999996 0.393000007
vt -0.0359999985 0.393000007
vt 0.0659999996 0.423000008
vt 0.0359999985 0.393000007
vt 0.203999996 0.393000007
vt 0.0359999985 0.0390000008
vt 0.00600000005 0.00899999961
vt 0.425999999 0.0390000008
vt -0.0359999985 0.0390000008
vt -0.425999999 0.0390000008
vt -0.00600000005 0.00899999961
vt 0.456 0
vt 0.00600000005 0.00899999961
vt 0.00600000005 0
vt -0.456 0
vt -0.00600000005 0
vt -0.00600000005 0.00899999961
vt 0.0659999996 -0.423000008
vt 0.173999995 -0.423000008
vt 0.203999996 -0.393000007
vt -0.173999995 -0.423000008
vt -0.0659999996 -0.423000008
vt -0.203999996 -0.393000007
vt -0.203999996 -0.393000007
vt -0.0659999996 -0.423000008
vt -0.0359999985 -0.393000007
vt 0.425999999 -0.423000008
vt 0.425999999 -0.393000007
vt 0.0359999985 -0.423000008
vt 0.0359999985 -0.423000008
vt 0.425999999 -0.393000007
vt 0.0359999985 -0.393000007
vt 0.575999975 -0.393000007
vt 0.0390000008 -0.393000007
vt 0.575999975 -0.394740999
vt 0.575999975 -0.394740999
vt 0.0390000008 -0.393000007
vt 0.0390000008 -0.394740999
vt -0.575999975 -0.394740999
vt -0.0390000008 -0.394740999
vt -0.575999975 -0.394740999
vt 0.575999975 -0.394740999
vt 0.0390000008 -0.394740999
vt 0.0390000008 -0.401654005
vt 0.575999975 -0.394740999
vt 0.0390000008 -0.401654005
vt 0.575999975 -0.401654005
vt 0.575999975 -0.401654005
vt 0.0390000008 -0.401654005
vt 0.0390000008 -0.410465986
vt 0.575999975 -0.401654005
vt 0.0390000008 -0.410465986
vt 0.575999975 -0.410465986
vt 0.0436040014 0.575999975
vt 0.0436040014 0.0390000008
vt 0.0518780015 0.0390000008
vt 0.0436040014 0.575999975
vt 0.0518780015 0.0390000008
vt 0.0518780015 0.575999975
vt -0.575999975 -0.417935997
vt -0.0390000008 -0.417935997
vt -0.0390000008 -0.417935997
vt 0.0518780015 0.575999975
vt 0.0518780015 0.0390000008
vt 0.0597099997 0.575999975
vt 0.0597099997 0.575999975
vt 0.0518780015 0.0390000008
vt 0.0597099997 0.0390000008
vt 0.0597099997 0.575999975
vt 0.0597099997 0.0390000008
vt 0.0659999996 0.575999975
vt 0.0659999996 0.575999975
vt 0.0597099997 0.0390000008
vt 0.0659999996 0.0390000008
vt 0.0359999985 -0.393000007
vt 0.0360939987 -0.394740999
vt 0.0659999996 -0.423000008
vt -0.575999975 -0.423000008
vt -0.575999975 -0.394740999
vt -0.575999975 -0.394740999
vt 0.0659999996 -0.423000008
vt 0.0360939987 -0.394740999
vt 0.0597099997 -0.421891004
vt -0.575999975 -0.421891004
vt -0.575999975 -0.394740999
vt -0.575999975 -0.394740999
vt 0.0597099997 -0.421891004
vt 0.0360939987 -0.394740999
vt 0.0518780015 -0.417935997
vt -0.575999975 -0.417935997
vt -0.575999975 -0.394740999
vt -0.575999975 -0.394740999
vt 0.0518780015 -0.417935997
vt 0.0360939987 -0.394740999
vt 0.0436040014 -0.410465986
vt 0.0436040014 -0.410465986
vt 0.0360939987 -0.394740999
vt 0.0380199999 -0.401654005
vt -0.0380199999 -0.401654005
vt -0.0360939987 -0.394740999
vt -0.0436040014 -0.410465986
vt -0.0390000008 -0.410465986
vt -0.0390000008 -0.394740999
vt -0.0390000008 -0.394740999
vt -0.0436040014 -0.410465986
vt -0.0360939987 -0.394740999
vt -0.0518780015 -0.417935997
vt -0.0390000008 -0.417935997
vt -0.0390000008 -0.394740999
vt -0.0390000008 -0.394740999
vt -0.0518780015 -0.417935997
vt -0.0360939987 -0.394740999
vt -0.0597099997 -0.421891004
vt -0.0390000008 -0.421891004
vt -0.0390000008 -0.394740999
vt -0.0390000008 -0.394740999
vt -0.0597099997 -0.421891004
vt -0.0360939987 -0.394740999
vt -0.0659999996 -0.423000008
vt -0.0659999996 -0.423000008
vt -0.0360939987 -0.394740999
vt -0.0359999985 -0.393000007
vt -0.0390000008 -0.393000007
vt -0.575999975 -0.393000007
vt -0.0390000008 -0.399289995
vt -0.0390000008 -0.399289995
vt -0.575999975 -0.393000007
vt -0.575999975 -0.399289995
vt -0.0390000008 -0.399289995
vt -0.575999975 -0.399289995
vt -0.0390000008 -0.399289995
vt -0.0390000008 -0.399289995
vt -0.575999975 -0.399289995
vt -0.575999975 -0.407121986
vt -0.0390000008 -0.399289995
vt -0.575999975 -0.407121986
vt -0.0390000008 -0.407121986
vt -0.0390000008 -0.407121986
vt -0.575999975 -0.407121986
vt -0.575999975 -0.415396005
vt -0.0390000008 -0.407121986
vt -0.575999975 -0.415396005
vt -0.0390000008 -0.415396005
vt -0.0390000008 -0.415396005
vt -0.575999975 -0.415396005
vt -0.575999975 -0.415396005
vt 0.191466004 0.0390000008
vt 0.191466004 0.575999975
vt 0.182653993 0.0390000008
vt 0.182653993 0.0390000008
vt 0.191466004 0.575999975
vt 0.182653993 0.575999975
vt 0.182653993 0.0390000008
vt 0.182653993 0.575999975
vt 0.175741002 0.0390000008
vt 0.175741002 0.0390000008
vt 0.182653993 0.575999975
vt 0.175741002 0.575999975
vt -0.0390000008 -0.422906011
vt -0.575999975 -0.422906011
vt -0.0390000008 -0.422906011
vt 0.175741002 0.0390000008
vt 0.175741002 0.575999975
vt 0.173999995 0.575999975
vt 0.175741002 0.0390000008
vt 0.173999995 0.575999975
vt 0.173999995 0.0390000008
vt -0.203999996 0.0390000008
vt -0.0359999985 0.0390000008
vt -0.203999996 0.575999975
vt -0.203999996 0.575999975
vt -0.0359999985 0.0390000008
vt -0.0359999985 0.575999975
vt -0.173999995 -0.423000008
vt -0.203999996 -0.393000007
vt -0.175741002 -0.422906011
vt -0.175741002 -0.422906011
vt -0.203999996 -0.393000007
vt -0.202891007 -0.399289995
vt -0.0390000008 -0.422906011
vt -0.0390000008 -0.399289995
vt -0.0390000008 -0.422906011
vt -0.175741002 -0.422906011
vt -0.202891007 -0.399289995
vt -0.198936 -0.407121986
vt -0.0390000008 -0.422906011
vt -0.0390000008 -0.407121986
vt -0.0390000008 -0.422906011
vt -0.175741002 -0.422906011
vt -0.198936 -0.407121986
vt -0.191466004 -0.415396005
vt -0.175741002 -0.422906011
vt -0.191466004 -0.415396005
vt -0.182653993 -0.420980006
vt 0.0659999996 0.0390000008
vt 0.173999995 0.0390000008
vt 0.0659999996 0.575999975
vt 0.0659999996 0.575999975
vt 0.173999995 0.0390000008
vt 0.173999995 0.575999975
vt 0.173999995 -0.423000008
vt 0.175741002 -0.422906011
vt 0.203999996 -0.393000007
vt -0.575999975 -0.393000007
vt -0.575999975 -0.422906011
vt -0.575999975 -0.422906011
vt 0.203999996 -0.393000007
vt 0.175741002 -0.422906011
vt 0.202891007 -0.399289995
vt -0.575999975 -0.399289995
vt -0.575999975 -0.422906011
vt -0.575999975 -0.422906011
vt 0.202891007 -0.399289995
vt 0.175741002 -0.422906011
vt 0.198936 -0.407121986
vt -0.575999975 -0.407121986
vt -0.575999975 -0.422906011
vt -0.575999975 -0.422906011
vt 0.198936 -0.407121986
vt 0.175741002 -0.422906011
vt 0.191466004 -0.415396005
vt 0.191466004 -0.415396005
vt 0.175741002 -0.422906011
vt 0.182653993 -0.420980006
vt 0.00899999961 0.423000008
vt 0 0.423000008
vt 0.00899999961 0.393000007
vt 0.00899999961 0.393000007
vt 0 0.423000008
vt 0 0.393000007
vt -0.00600000005 0.423000008
vt -0.456 0.423000008
vt -0.00600000005 0.393000007
vt -0.00600000005 0.393000007
vt -0.456 0.423000008
vt -0.456 0.393000007
vt -0.456 0
vt -0.00600000005 0.00899999961
vt -0.456 0.00899999961
vt -0.456 0.00899999961
vt -0.00600000005 0.00899999961
vt -0.425999999 0.0390000008
vt 0 0.423000008
vt -0.00899999961 0.423000008
vt 0 0.393000007
vt 0 0.393000007
vt -0.00899999961 0.423000008
vt -0.00899999961 0.393000007
vt 0.456 0
vt 0.456 0.00899999961
vt 0.00600000005 0.00899999961
vt 0.00600000005 0.00899999961
vt 0.456 0.00899999961
vt 0.425999999 0.0390000008
vt -0.00899999961 0.423000008
vt -0.0390000008 0.423000008
vt -0.00899999961 0.393000007
vt -0.00899999961 0.393000007
vt -0.0390000008 0.423000008
vt -0.0390000008 0.393000007
vt 0.00899999961 0.423000008
vt 0.00899999961 0.393000007
vt 0.0390000008 0.423000008
vt 0.0390000008 0.423000008
vt 0.00899999961 0.393000007
vt 0.0390000008 0.393000007
vt 0.425999999 0.393000007
vt 0.425999999 0.423000008
vt 0.0359999985 0.393000007
vt 0.0359999985 0.393000007
vt 0.425999999 0.423000008
vt 0.0359999985 0.423000008
vt 0.182653993 0.420980006
vt 0.175741002 0.422906011
vt 0.191466004 0.415396005
vt -0.575999975 0.415396005
vt -0.575999975 0.422906011
vt -0.575999975 0.422906011
vt 0.191466004 0.415396005
vt 0.175741002 0.422906011
vt 0.198936 0.407121986
vt -0.575999975 0.407121986
vt -0.575999975 0.422906011
vt -0.575999975 0.422906011
vt 0.198936 0.407121986
vt 0.175741002 0.422906011
vt 0.202891007 0.399289995
vt -0.575999975 0.399289995
vt -0.575999975 0.422906011
vt -0.575999975 0.422906011
vt 0.202891007 0.399289995
vt 0.175741002 0.422906011
vt 0.203999996 0.393000007
vt 0.203999996 0.393000007
vt 0.175741002 0.422906011
vt 0.173999995 0.423000008
vt -0.182653993 0.420980006
vt -0.191466004 0.415396005
vt -0.175741002 0.422906011
vt -0.175741002 0.422906011
vt -0.191466004 0.415396005
vt -0.198936 0.407121986
vt -0.0390000008 0.422906011
vt -0.0390000008 0.407121986
vt -0.0390000008 0.422906011
vt -0.175741002 0.422906011
vt -0.198936 0.407121986
vt -0.202891007 0.399289995
vt -0.0390000008 0.422906011
vt -0.0390000008 0.399289995
vt -0.0390000008 0.422906011
vt -0.175741002 0.422906011
vt -0.202891007 0.399289995
vt -0.203999996 0.393000007
vt -0.175741002 0.422906011
vt -0.203999996 0.393000007
vt -0.173999995 0.423000008
vt -0.0390000008 0.393000007
vt -0.0390000008 0.399289995
vt -0.575999975 0.393000007
vt -0.575999975 0.393000007
vt -0.0390000008 0.399289995
vt -0.0390000008 0.399289995
vt -0.575999975 0.393000007
vt -0.0390000008 0.399289995
vt -0.575999975 0.399289995
vt -0.575999975 0.399289995
vt -0.0390000008 0.399289995
vt -0.0390000008 0.399289995
vt -0.575999975 0.399289995
vt -0.0390000008 0.399289995
vt -0.575999975 0.407121986
vt -0.575999975 0.407121986
vt -0.0390000008 0.399289995
vt -0.0390000008 0.407121986
vt -0.575999975 0.407121986
vt -0.0390000008 0.407121986
vt -0.575999975 0.415396005
vt -0.575999975 0.415396005
vt -0.0390000008 0.407121986
vt -0.0390000008 0.415396005
vt -0.575999975 0.415396005
vt -0.0390000008 0.415396005
vt -0.575999975 0.415396005
vt -0.191466004 0.575999975
vt -0.191466004 0.0390000008
vt -0.182653993 0.0390000008
vt -0.191466004 0.575999975
vt -0.182653993 0.0390000008
vt -0.182653993 0.575999975
vt -0.182653993 0.575999975
vt -0.182653993 0.0390000008
vt -0.175741002 0.0390000008
vt -0.182653993 0.575999975
vt -0.175741002 0.0390000008
vt -0.175741002 0.575999975
vt -0.575999975 0.422906011
vt -0.0390000008 0.422906011
vt -0.0390000008 0.422906011
vt -0.175741002 0.575999975
vt -0.175741002 0.0390000008
vt -0.173999995 0.575999975
vt -0.173999995 0.575999975
vt -0.175741002 0.0390000008
vt -0.173999995 0.0390000008
vt 0.203999996 0.575999975
vt 0.0359999985 0.575999975
vt 0.203999996 0.0390000008
vt 0.203999996 0.0390000008
vt 0.0359999985 0.575999975
vt 0.0359999985 0.0390000008
vt 0.0359999985 0.393000007
vt 0.0659999996 0.423000008
vt 0.0360939987 0.394740999
vt 0.0360939987 0.394740999
vt 0.0659999996 0.423000008
vt 0.0597099997 0.421891004
vt -0.575999975 0.394740999
vt -0.575999975 0.421891004
vt -0.575999975 0.394740999
vt 0.0360939987 0.394740999
vt 0.0597099997 0.421891004
vt 0.0518780015 0.417935997
vt -0.575999975 0.394740999
vt -0.575999975 0.417935997
vt -0.575999975 0.394740999
vt 0.0360939987 0.394740999
vt 0.0518780015 0.417935997
vt 0.0436040014 0.410465986
vt 0.0360939987 0.394740999
vt 0.0436040014 0.410465986
vt 0.0380199999 0.401654005
vt 0.575999975 0.393000007
vt 0.575999975 0.394740999
vt 0.0390000008 0.393000007
vt -0.0390000008 0.393000007
vt -0.575999975 0.394740999
vt -0.575999975 0.394740999
vt 0.0390000008 0.393000007
vt 0.575999975 0.394740999
vt 0.0390000008 0.394740999
vt -0.0390000008 0.394740999
vt -0.575999975 0.394740999
vt -0.575999975 0.394740999
vt 0.0390000008 0.394740999
vt 0.575999975 0.394740999
vt 0.0390000008 0.401654005
vt 0.0390000008 0.401654005
vt 0.575999975 0.394740999
vt 0.575999975 0.401654005
vt -0.0390000008 0.401654005
vt -0.575999975 0.401654005
vt -0.0390000008 0.401654005
vt 0.0390000008 0.401654005
vt 0.575999975 0.401654005
vt 0.575999975 0.410465986
vt 0.0390000008 0.401654005
vt 0.575999975 0.410465986
vt 0.0390000008 0.410465986
vt -0.0390000008 0.410465986
vt -0.575999975 0.410465986
vt -0.575999975 0.410465986
vt -0.0436040014 0.0390000008
vt -0.0436040014 0.575999975
vt -0.0518780015 0.0390000008
vt -0.0518780015 0.0390000008
vt -0.0436040014 0.575999975
vt -0.0518780015 0.575999975
vt -0.0390000008 0.417935997
vt -0.575999975 0.417935997
vt -0.0390000008 0.417935997
vt -0.0518780015 0.0390000008
vt -0.0518780015 0.575999975
vt -0.0597099997 0.575999975
vt -0.0518780015 0.0390000008
vt -0.0597099997 0.575999975
vt -0.0597099997 0.0390000008
vt -0.0597099997 0.0390000008
vt -0.0597099997 0.575999975
vt -0.0659999996 0.575999975
vt -0.0597099997 0.0390000008
vt -0.0659999996 0.575999975
vt -0.0659999996 0.0390000008
vt -0.0380199999 0.401654005
vt -0.0436040014 0.410465986
vt -0.0360939987 0.394740999
vt -0.0360939987 0.394740999
vt -0.0436040014 0.410465986
vt -0.0518780015 0.417935997
vt -0.0390000008 0.394740999
vt -0.0390000008 0.417935997
vt -0.0390000008 0.394740999
vt -0.0360939987 0.394740999
vt -0.0518780015 0.417935997
vt -0.0597099997 0.421891004
vt -0.0390000008 0.394740999
vt -0.0390000008 0.421891004
vt -0.0390000008 0.394740999
vt -0.0360939987 0.394740999
vt -0.0597099997 0.421891004
vt -0.0659999996 0.423000008
vt -0.0360939987 0.394740999
vt -0.0659999996 0.423000008
vt -0.0359999985 0.393000007
vt -0.0659999996 0.0390000008
vt -0.0659999996 0.575999975
vt -0.173999995 0.0390000008
vt -0.173999995 0.0390000008
vt -0.0659999996 0.575999975
vt -0.173999995 0.575999975
vt 0.462906003 1.305722
vt 0.418624014 1.305722
vt 0.462906003 1.28772199
vt 0.462906003 1.28772199
vt 0.418624014 1.305722
vt 0.418624014 1.28772199
vt -1.305722 0.441000015
vt -1.28772199 0.441000015
vt -1.305722 0.458999991
vt -1.305722 0.458999991
vt -1.28772199 0.441000015
vt -1.28772199 0.458999991
vt -0.352200001 1.28772199
vt -0.379918009 1.305722
vt -0.462906003 1.28772199
vt -0.462906003 1.28772199
vt -0.379918009 1.305722
vt -0.462906003 1.305722
vt -1.28772199 0.441000015
vt -1.305722 0.441000015
vt -1.28772199 -0.441000015
vt -1.28772199 -0.441000015
vt -1.305722 0.441000015
vt -1.305722 -0.441000015
vt 1.28772199 -0.441000015
vt 1.305722 -0.441000015
vt 1.28772199 0.441000015
vt 1.28772199 0.441000015
vt 1.305722 -0.441000015
vt 1.305722 0.441000015
vt -0.418624014 1.305722
vt -0.462906003 1.305722
vt -0.418624014 1.28772199
vt -0.418624014 1.28772199
vt -0.462906003 1.305722
vt -0.462906003 1.28772199
vt -1.28772199 -0.441000015
vt -1.305722 -0.441000015
vt -1.28772199 -0.458999991
vt -1.28772199 -0.458999991
vt -1.305722 -0.441000015
vt -1.305722 -0.458999991
vt 0.462906003 1.305722
vt 0.379918009 1.305722
vt 0.462906003 1.28772199
vt 0.462906003 1.28772199
vt 0.379918009 1.305722
vt 0.352200001 1.28772199
vt 0.400624007 1.28772199
vt 0.400624007 1.305722
vt 0.311304003 1.28772199
vt 0.311304003 1.28772199
vt 0.400624007 1.305722
vt 0.311304003 1.305722
vt -0.400624007 1.305722
vt -0.400624007 1.28772199
vt -0.311304003 1.305722
vt -0.311304003 1.305722
vt -0.400624007 1.28772199
vt -0.311304003 1.28772199
vt -1.305722 -0.441000015
vt -1.28772199 -0.441000015
vt -1.305722 0.441000015
vt -1.305722 0.441000015
vt -1.28772199 -0.441000015
vt -1.28772199 0.441000015
vt -0.379918009 -0.459600002
vt 0 -0.459600002
vt -0.352200001 -0.458999991
vt -0.352200001 -0.458999991
vt 0 -0.459600002
vt 0 -0.458999991
vt 0.379918009 1.305722
vt 0.310624003 1.305722
vt 0 1.05900002
vt 0 1.05900002
vt 0.310624003 1.305722
vt 0 1.10399997
vt 0.310624003 -0.459600002
vt 0.293303013 -0.458999991
vt 0 -0.459600002
vt -1.10399997 -0.459600002
vt -1.29447401 -0.458999991
vt -1.29447401 -0.458999991
vt 0 -0.459600002
vt 0.293303013 -0.458999991
vt 0 -0.458999991
vt 0 -0.458999991
vt 0.293303013 -0.458999991
vt 0 -0.441599995
vt 1.10399997 -0.459600002
vt 1.10399997 -0.458999991
vt 1.05900002 -0.459600002
vt 1.05900002 -0.459600002
vt 1.10399997 -0.458999991
vt 1.05900002 -0.458999991
vt 0.310624003 -0.458999991
vt 0.311304003 -0.441000015
vt 0.293303013 -0.458999991
vt 0.293303013 -0.458999991
vt 0.311304003 -0.441000015
vt 0.293303013 0.458999991
vt -0.379918009 0.459600002
vt -0.352200001 0.458999991
vt 0 0.459600002
vt -1.05900002 0.459600002
vt -1.28772199 0.458999991
vt -1.28772199 0.458999991
vt 0 0.459600002
vt -0.352200001 0.458999991
vt 0 0.458999991
vt 0 0.458999991
vt -0.352200001 0.458999991
vt 0 0.441599995
vt -0.379918009 1.305722
vt 0 1.05900002
vt -0.310624003 1.305722
vt -0.310624003 1.305722
vt 0 1.05900002
vt 0 1.10399997
vt 0.310624003 0.459600002
vt 0 0.459600002
vt 0.293303013 0.458999991
vt 0.293303013 0.458999991
vt 0 0.459600002
vt 0 0.458999991
vt 1.10399997 0.459600002
vt 1.05900002 0.459600002
vt 1.10399997 0.458999991
vt 1.10399997 0.458999991
vt 1.05900002 0.459600002
vt 1.05900002 0.458999991
vt -0.293303013 -0.441599995
vt -0.293303013 0.441599995
vt -0.311304003 0.441000015
vt -0.311304003 0.441000015
vt -0.293303013 0.441599995
vt -0.352200001 0.441599995
vt 0 1.23599994
vt 0 1.25399995
vt -0.0359999985 1.23599994
vt -0.0359999985 1.23599994
vt 0 1.25399995
vt -0.0359999985 1.25399995
vt 0.0359999985 1.23599994
vt 0.0359999985 1.25399995
vt 0 1.23599994
vt 0 1.23599994
vt 0.0359999985 1.25399995
vt 0 1.25399995
vt 0 -0.441000015
vt 0 0.441000015
vt -0.0359999985 -0.441000015
vt -0.0359999985 -0.441000015
vt 0 0.441000015
vt -0.0359999985 0.441000015
vt 0 0.593999982
vt 0.0359999985 1.23599994
vt 0 1.05900002
vt 0 1.05900002
vt 0.0359999985 1.23599994
vt 0 1.10399997
vt -1.23599994 0.441000015
vt -0.593999982 0.441000015
vt -1.05900002 0.441599995
vt -1.05900002 0.441599995
vt -0.593999982 0.441000015
vt -0.593999982 0.458999991
vt 0 0.441000015
vt 0 0.00899999961
vt 0.0359999985 0.441000015
vt 0.0359999985 0.441000015
vt 0 0.00899999961
vt 0.0359999985 0.00899999961
vt 0.593999982 0.00899999961
vt 0.593999982 0.441000015
vt 0.419999987 0.00899999961
vt 0.419999987 0.00899999961
vt 0.593999982 0.441000015
vt 0.419999987 0.441000015
vt 0 -0.00899999961
vt 0 -0.441000015
vt 0.0359999985 -0.00899999961
vt 0.0359999985 -0.00899999961
vt 0 -0.441000015
vt 0.0359999985 -0.441000015
vt 1.25399995 -0.441000015
vt 1.23599994 -0.441000015
vt 1.23599994 -0.458999991
vt 1.23599994 -0.458999991
vt 1.23599994 -0.441000015
vt 0.419999987 -0.458999991
vt -1.23599994 -0.441000015
vt -1.05900002 -0.441599995
vt -0.593999982 -0.441000015
vt -0.593999982 -0.441000015
vt -1.05900002 -0.441599995
vt -0.593999982 -0.458999991
vt 0.419999987 -0.00899999961
vt 0.419999987 -0.441000015
vt 0.593999982 -0.00899999961
vt 0.593999982 -0.00899999961
vt 0.419999987 -0.441000015
vt 0.593999982 -0.441000015
vt -0.593999982 0.458999991
vt -0.593999982 -0.458999991
vt -0.575999975 0.458999991
vt -0.575999975 0.458999991
vt -0.593999982 -0.458999991
vt -0.575999975 -0.458999991
vt 0 -0.458999991
vt 0 -0.441000015
vt -0.0111250002 -0.457237989
vt -0.419999987 -0.457237989
vt -0.419999987 -0.441000015
vt -0.419999987 -0.441000015
vt -0.0111250002 -0.457237989
vt 0 -0.441000015
vt -0.0211599991 -0.452125013
vt -0.419999987 -0.452125013
vt -0.419999987 -0.441000015
vt -0.419999987 -0.441000015
vt -0.0211599991 -0.452125013
vt 0 -0.441000015
vt -0.0291249994 -0.444160014
vt -0.419999987 -0.444160014
vt -0.419999987 -0.441000015
vt -0.419999987 -0.441000015
vt -0.0291249994 -0.444160014
vt 0 -0.441000015
vt -0.0342379995 -0.434125006
vt -0.0342379995 -0.434125006
vt 0 -0.441000015
vt -0.0359999985 -0.423000008
vt 0 0.419999987
vt 0.0111250002 0.419999987
vt 0 0.575999975
vt -0.575999975 -0.458999991
vt -0.419999987 -0.457237989
vt -0.419999987 -0.457237989
vt 0 0.575999975
vt 0.0111250002 0.419999987
vt 0.0111250002 0.575999975
vt 0.0111250002 0.575999975
vt 0.0111250002 0.419999987
vt 0.0211599991 0.419999987
vt 0.0111250002 0.575999975
vt 0.0211599991 0.419999987
vt 0.0211599991 0.575999975
vt 0.0211599991 0.575999975
vt 0.0211599991 0.419999987
vt 0.0291249994 0.419999987
vt 0.0211599991 0.575999975
vt 0.0291249994 0.419999987
vt 0.0291249994 0.575999975
vt -0.575999975 -0.444160014
vt -0.419999987 -0.444160014
vt -0.419999987 -0.434125006
vt -0.575999975 -0.444160014
vt -0.419999987 -0.434125006
vt -0.575999975 -0.434125006
vt -0.575999975 -0.434125006
vt -0.419999987 -0.434125006
vt -0.419999987 -0.423000008
vt -0.575999975 -0.434125006
vt -0.419999987 -0.423000008
vt -0.575999975 -0.423000008
vt -0.0111250002 -0.457237989
vt -0.0211599991 -0.452125013
vt -0.456 -0.458999991
vt -0.456 -0.458999991
vt -0.0211599991 -0.452125013
vt -0.0291249994 -0.444160014
vt -0.575999975 -0.458999991
vt -0.575999975 -0.444160014
vt -0.575999975 -0.458999991
vt -0.456 -0.458999991
vt -0.0291249994 -0.444160014
vt -0.0342379995 -0.434125006
vt -0.456 -0.458999991
vt -0.0342379995 -0.434125006
vt -0.0359999985 -0.423000008
vt 0 -0.00899999961
vt 0 0.00899999961
vt -0.0359999985 0.423000008
vt -0.0359999985 0.423000008
vt 0 0.00899999961
vt -0.0111250002 0.457237989
vt 0 0.575999975
vt -0.0111250002 0.575999975
vt 0 0.419999987
vt -0.419999987 0.458999991
vt -0.575999975 0.457237989
vt -0.575999975 0.457237989
vt 0 0.419999987
vt -0.0111250002 0.575999975
vt -0.0111250002 0.419999987
vt -0.0111250002 0.419999987
vt -0.0111250002 0.575999975
vt -0.0211599991 0.575999975
vt -0.0111250002 0.419999987
vt -0.0211599991 0.575999975
vt -0.0211599991 0.419999987
vt -0.0211599991 0.419999987
vt -0.0211599991 0.575999975
vt -0.0291249994 0.575999975
vt -0.0211599991 0.419999987
vt -0.0291249994 0.575999975
vt -0.0291249994 0.419999987
vt -0.419999987 0.444160014
vt -0.575999975 0.444160014
vt -0.575999975 0.434125006
vt -0.419999987 0.444160014
vt -0.575999975 0.434125006
vt -0.419999987 0.434125006
vt -0.419999987 0.434125006
vt -0.575999975 0.434125006
vt -0.575999975 0.423000008
vt -0.419999987 0.434125006
vt -0.575999975 0.423000008
vt -0.419999987 0.423000008
vt -0.0111250002 0.457237989
vt -0.456 0.458999991
vt -0.0211599991 0.452125013
vt -0.575999975 0.452125013
vt -0.575999975 0.458999991
vt -0.575999975 0.458999991
vt -0.0211599991 0.452125013
vt -0.456 0.458999991
vt -0.0291249994 0.444160014
vt -0.575999975 0.444160014
vt -0.575999975 0.458999991
vt -0.575999975 0.458999991
vt -0.0291249994 0.444160014
vt -0.456 0.458999991
vt -0.0342379995 0.434125006
vt -0.575999975 0.434125006
vt -0.575999975 0.458999991
vt -0.575999975 0.458999991
vt -0.0342379995 0.434125006
vt -0.456 0.458999991
vt -0.0359999985 0.423000008
vt -0.0359999985 0.423000008
vt -0.456 0.458999991
vt -0.0359999985 -0.423000008
vt -0.0111250002 0.457237989
vt -0.0211599991 0.452125013
vt -0.0359999985 0.423000008
vt -0.419999987 0.423000008
vt -0.419999987 0.452125013
vt -0.419999987 0.452125013
vt -0.0359999985 0.423000008
vt -0.0211599991 0.452125013
vt -0.0342379995 0.434125006
vt -0.0342379995 0.434125006
vt -0.0211599991 0.452125013
vt -0.0291249994 0.444160014
vt -0.575999975 0.423000008
vt -0.575999975 -0.423000008
vt -0.419999987 0.423000008
vt -0.419999987 0.423000008
vt -0.575999975 -0.423000008
vt -0.419999987 -0.423000008
vt 0.248999998 0.924000025
vt 0 0.924000025
vt 0.248999998 0.913800001
vt 0.248999998 0.913800001
vt 0 0.924000025
vt 0 0.913800001
vt 0.913800001 -0.00120000006
vt 0.866999984 -0.00120000006
vt 0.913800001 -0.00389999989
vt 0.913800001 -0.00389999989
vt 0.866999984 -0.00120000006
vt 0.866999984 -0.00419999985
vt -0.248999998 -0.00120000006
vt 0 -0.00120000006
vt -0.248999998 -0.000899999985
vt -0.248999998 -0.000899999985
vt 0 -0.00120000006
vt 0 -0.000899999985
vt 0.913800001 -0.00120000006
vt 0.924000025 -0.00389999989
vt 0.913800001 -0.000899999985
vt 0.913800001 -0.000899999985
vt 0.924000025 -0.00389999989
vt 0.926999986 -0.000899999985
vt 0 0.913800001
vt -0.246000007 0.926999986
vt -0.248999998 0.913800001
vt -0.248999998 0.913800001
vt -0.246000007 0.926999986
vt -0.248999998 0.948000014
vt 0 -0.00389999989
vt -0.248999998 -0.00389999989
vt 0 -0.4551
vt 0 -0.4551
vt -0.248999998 -0.00389999989
vt -0.248999998 -0.4551
vt 0 0.924000025
vt -0.248999998 0.924000025
vt 0 0.913800001
vt 0 0.913800001
vt -0.248999998 0.924000025
vt -0.248999998 0.913800001
vt 0.913800001 -0.457800001
vt 0.913800001 -0.4551
vt 0.866999984 -0.457800001
vt 0.866999984 -0.457800001
vt 0.913800001 -0.4551
vt 0.866999984 -0.45480001
vt 0.926999986 -0.000899999985
vt 0.924000025 -0.4551
vt 0.926999986 -0.458099991
vt -0.926999986 -0.458099991
vt -0.924000025 -0.4551
vt -0.924000025 -0.4551
vt 0.926999986 -0.458099991
vt 0.924000025 -0.4551
vt 0.913800001 -0.458099991
vt 0.913800001 -0.458099991
vt 0.924000025 -0.4551
vt 0.913800001 -0.457800001
vt 0 -0.000899999985
vt 0 -0.458099991
vt 0.246000007 -0.000899999985
vt 0.246000007 -0.000899999985
vt 0 -0.458099991
vt 0.246000007 -0.458099991
vt -0.248999998 -0.457800001
vt -0.248999998 -0.458099991
vt 0 -0.457800001
vt 0 -0.457800001
vt -0.248999998 -0.458099991
vt 0 -0.458099991
vt 0.248999998 0.948000014
vt 0.246000007 0.926999986
vt 0.248999998 0.913800001
vt 0.248999998 0.913800001
vt 0.246000007 0.926999986
vt 0 0.913800001
vt 0.926999986 -0.458099991
vt 0.948000014 -0.458099991
vt 0.926999986 -0.000899999985
vt 0.926999986 -0.000899999985
vt 0.948000014 -0.458099991
vt 0.948000014 -0.000899999985
vt 0.248999998 -0.000899999985
vt 0.246000007 -0.000899999985
vt 0.248999998 -0.458099991
vt 0.248999998 -0.458099991
vt 0.246000007 -0.000899999985
vt 0.246000007 -0.458099991
vt 0 0.924000025
vt -0.248999998 0.924000025
vt 0 0.913800001
vt 0 0.913800001
vt -0.248999998 0.924000025
vt -0.248999998 0.913800001
vt 0.913800001 0.00120000006
vt 0.913800001 0.00389999989
vt 0.866999984 0.00120000006
vt 0.866999984 0.00120000006
vt 0.913800001 0.00389999989
vt 0.866999984 0.00419999985
vt 0 0.00120000006
vt -0.248999998 0.00120000006
vt 0 0.000899999985
vt 0 0.000899999985
vt -0.248999998 0.00120000006
vt -0.248999998 0.000899999985
vt 0.913800001 0.00120000006
vt 0.913800001 0.000899999985
vt 0.924000025 0.00389999989
vt 0.924000025 0.00389999989
vt 0.913800001 0.000899999985
vt 0.926999986 0.000899999985
vt 0.248999998 0.948000014
vt 0.246000007 0.926999986
vt 0.248999998 0.913800001
vt 0.248999998 0.913800001
vt 0.246000007 0.926999986
vt 0 0.913800001
vt 0.926999986 0.000899999985
vt 0.948000014 0.000899999985
vt 0.926999986 0.458099991
vt 0.926999986 0.458099991
vt 0.948000014 0.000899999985
vt 0.948000014 0.458099991
vt 0.246000007 0.000899999985
vt 0.248999998 0.000899999985
vt 0.246000007 0.458099991
vt 0.246000007 0.458099991
vt 0.248999998 0.000899999985
vt 0.248999998 0.458099991
vt -0.248999998 0.00389999989
vt 0 0.00389999989
vt -0.248999998 0.4551
vt -0.248999998 0.4551
vt 0 0.00389999989
vt 0 0.4551
vt 0.248999998 0.924000025
vt 0 0.924000025
vt 0.248999998 0.913800001
vt 0.248999998 0.913800001
vt 0 0.924000025
vt 0 0.913800001
vt 0.866999984 0.45480001
vt 0.913800001 0.4551
vt 0.866999984 0.457800001
vt 0.866999984 0.457800001
vt 0.913800001 0.4551
vt 0.913800001 0.457800001
vt -0.248999998 0.948000014
vt -0.248999998 0.913800001
vt -0.246000007 0.926999986
vt -0.246000007 0.926999986
vt -0.248999998 0.913800001
vt 0 0.913800001
vt 0.913800001 0.457800001
vt 0.924000025 0.4551
vt 0.913800001 0.458099991
vt -0.913800001 0.458099991
vt -0.924000025 0.4551
vt -0.924000025 0.4551
vt 0.913800001 0.458099991
vt 0.924000025 0.4551
vt 0.926999986 0.458099991
vt 0.926999986 0.458099991
vt 0.924000025 0.4551
vt 0.926999986 0.000899999985
vt 0 0.457800001
vt 0 0.458099991
vt -0.248999998 0.457800001
vt -0.248999998 0.457800001
vt 0 0.458099991
vt -0.248999998 0.458099991
vt 0 0.458099991
vt 0 0.000899999985
vt 0.246000007 0.458099991
vt 0.246000007 0.458099991
vt 0 0.000899999985
vt 0.246000007 0.000899999985
vt -0.456 -0.423000008
vt -0.00600000005 -0.423000008
vt -0.456 -0.393000007
vt -0.456 -0.393000007
vt -0.00600000005 -0.423000008
vt -0.00600000005 -0.393000007
vt -0.0359999985 0.0390000008
vt -0.425999999 0.0390000008
vt -0.00600000005 0.00899999961
vt -0.456 0
vt -0.00600000005 0
vt -0.00600000005 0.00899999961
vt -0.425999999 0.0390000008
vt -0.456 0.00899999961
vt -0.00600000005 0.00899999961
vt -0.00600000005 0.00899999961
vt -0.456 0.00899999961
vt -0.456 0
vt 0 -0.393000007
vt -0.00899999961 -0.393000007
vt 0 -0.423000008
vt 0 -0.423000008
vt -0.00899999961 -0.393000007
vt -0.00899999961 -0.423000008
vt 0.00899999961 -0.393000007
vt 0 -0.393000007
vt 0.00899999961 -0.423000008
vt 0.00899999961 -0.423000008
vt 0 -0.393000007
vt 0 -0.423000008
vt 0.0390000008 -0.423000008
vt 0.0390000008 -0.393000007
vt 0.00899999961 -0.423000008
vt 0.00899999961 -0.423000008
vt 0.0390000008 -0.393000007
vt 0.00899999961 -0.393000007
vt -0.0390000008 -0.393000007
vt -0.0390000008 -0.423000008
vt -0.00899999961 -0.393000007
vt -0.00899999961 -0.393000007
vt -0.0390000008 -0.423000008
vt -0.00899999961 -0.423000008
vt 0.0359999985 0.0390000008
vt 0.00600000005 0.00899999961
vt 0.425999999 0.0390000008
vt 0.456 0
vt 0.00600000005 0.00899999961
vt 0.00600000005 0
vt 0.456 0
vt 0.456 0.00899999961
vt 0.00600000005 0.00899999961
vt 0.00600000005 0.00899999961
vt 0.456 0.00899999961
vt 0.425999999 0.0390000008
f 1/1 2/2 3/3
f 4/4 5/5 6/6
f 6/7 7/8 8/9
f 9/10 10/11 11/12
f 12/13 13/14 14/15
f 15/16 16/17 7/18
f 17/19 18/20 16/21
f 19/22 14/23 20/24
f 14/25 13/26 20/27
f 20/28 13/29 21/30
f 13/31 10/32 22/33
f 13/34 23/35 21/36
f 24/37 5/38 23/39
f 25/40 26/41 23/42
f 23/43 26/44 21/45
f 26/46 27/47 21/48
f 28/49 29/50 30/51
f 31/52 8/53 30/54
f 32/55 33/56 34/57
f 35/58 36/59 37/60
f 36/61 38/62 39/63
f 40/64 41/65 37/66
f 37/67 41/68 42/69
f 37/70 42/71 32/72
f 41/73 43/74 42/75
f 44/76 45/77 46/78
f 47/79 48/80 46/81
f 42/82 49/83 32/84
f 48/85 50/86 51/87
f 50/88 33/89 52/90
f 53/91 32/92 54/93
f 32/94 49/95 54/96
f 54/97 49/98 55/99
f 56/100 57/101 58/102
f 59/103 57/104 51/105
f 60/106 61/107 62/108
f 63/109 64/110 60/111
f 65/112 66/113 67/114
f 65/115 67/116 68/117
f 69/118 70/119 71/120
f 67/121 72/122 73/123
f 67/124 73/125 68/126
f 68/127 73/128 74/129
f 68/130 74/131 64/132
f 74/133 73/134 75/135
f 74/136 75/137 64/138
f 73/139 72/140 76/141
f 73/142 76/143 75/144
f 64/145 75/146 77/147
f 64/148 77/149 60/150
f 70/151 78/152 71/153
f 79/154 61/155 80/156
f 61/157 81/158 80/159
f 60/160 77/161 82/162
f 81/163 83/164 80/165
f 80/166 83/167 84/168
f 80/169 84/170 85/171
f 85/172 84/173 86/174
f 85/175 86/176 78/177
f 86/178 84/179 87/180
f 86/181 87/182 88/183
f 86/184 88/185 78/186
f 71/187 89/188 90/189
f 71/190 90/191 66/192
f 84/193 83/194 91/195
f 84/196 91/197 92/198
f 83/199 93/200 91/201
f 88/202 87/203 94/204
f 87/205 95/206 96/207
f 89/208 97/209 98/210
f 89/211 98/212 96/213
f 89/214 96/215 90/216
f 96/217 95/218 99/219
f 96/220 99/221 90/222
f 90/223 99/224 100/225
f 90/226 100/227 66/228
f 100/229 99/230 97/231
f 100/232 97/233 66/234
f 97/235 99/236 101/237
f 97/238 101/239 98/240
f 98/241 101/242 102/243
f 98/244 102/245 94/246
f 99/247 95/248 103/249
f 99/250 103/251 76/252
f 101/253 104/254 105/255
f 101/256 105/257 102/258
f 76/259 72/260 104/261
f 76/262 103/263 75/264
f 77/265 106/266 107/267
f 104/268 107/269 2/270
f 104/271 2/272 1/273
f 104/274 1/275 105/276
f 108/277 109/278 110/279
f 111/280 112/281 113/282
f 1/283 3/284 75/285
f 102/286 114/287 94/288
f 94/289 114/290 115/291
f 94/292 115/293 93/294
f 114/295 92/296 116/297
f 114/298 116/299 115/300
f 92/301 91/302 116/303
f 2/304 107/305 117/306
f 2/307 117/308 118/309
f 2/310 118/311 3/312
f 107/313 119/314 120/315
f 107/316 120/317 117/318
f 120/319 119/320 121/321
f 120/322 121/323 122/324
f 117/325 123/326 118/327
f 3/328 118/329 124/330
f 125/331 124/332 126/333
f 125/334 126/335 127/336
f 127/337 126/338 128/339
f 127/340 128/341 119/342
f 124/343 118/344 129/345
f 124/346 129/347 126/348
f 126/349 129/350 130/351
f 126/352 130/353 128/354
f 118/355 123/356 131/357
f 118/358 131/359 129/360
f 129/361 131/362 132/363
f 129/364 133/365 130/366
f 132/367 131/368 134/369
f 132/370 134/371 135/372
f 131/373 123/374 115/375
f 131/376 115/377 134/378
f 115/379 123/380 93/381
f 93/382 123/383 136/384
f 93/385 136/386 91/387
f 123/388 122/389 137/390
f 123/391 137/392 136/393
f 136/394 137/395 138/396
f 136/397 138/398 139/399
f 136/400 139/401 91/402
f 134/403 140/404 135/405
f 140/406 141/407 135/408
f 141/409 139/410 142/411
f 141/412 142/413 135/414
f 135/415 142/416 133/417
f 139/418 138/419 143/420
f 139/421 143/422 144/423
f 133/424 142/425 145/426
f 130/427 146/428 128/429
f 142/430 147/431 148/432
f 142/433 148/434 145/435
f 147/436 149/437 148/438
f 144/439 143/440 150/441
f 148/442 113/443 146/444
f 148/445 146/446 145/447
f 146/448 113/449 112/450
f 146/451 112/452 128/453
f 143/454 138/455 151/456
f 138/457 121/458 151/459
f 121/460 119/461 151/462
f 119/463 152/464 151/465
f 152/466 153/467 151/468
f 154/469 155/470 156/471
f 157/472 158/473 159/474
f 159/475 158/476 160/477
f 154/478 161/479 155/480
f 160/481 162/482 163/483
f 164/484 165/485 166/486
f 167/487 162/488 168/489
f 169/490 170/491 166/492
f 109/493 171/494 110/495
f 172/496 173/497 174/498
f 174/499 173/500 175/501
f 176/502 177/503 178/504
f 178/505 177/506 175/507
f 108/508 175/509 179/510
f 179/511 175/512 180/513
f 179/514 180/515 179/516
f 179/517 180/518 181/519
f 179/520 181/521 182/522
f 182/523 181/524 183/525
f 182/526 183/527 184/528
f 184/529 183/530 185/531
f 184/532 185/533 186/534
f 186/535 185/536 185/537
f 186/538 185/539 187/540
f 187/541 185/542 188/543
f 187/544 188/545 109/546
f 109/547 188/548 173/549
f 108/550 179/551 109/552
f 109/553 179/554 179/555
f 109/556 179/557 187/558
f 187/559 179/560 179/561
f 187/562 179/563 186/564
f 186/565 179/566 179/567
f 186/568 179/569 184/570
f 184/571 179/572 182/573
f 181/574 180/575 183/576
f 183/577 180/578 180/579
f 183/580 180/581 185/582
f 185/583 180/584 180/585
f 185/586 180/587 188/588
f 188/589 180/590 180/591
f 188/592 180/593 173/594
f 173/595 180/596 175/597
f 174/598 110/599 189/600
f 189/601 110/602 190/603
f 189/604 190/605 189/606
f 189/607 190/608 191/609
f 189/610 191/611 192/612
f 192/613 191/614 193/615
f 192/616 193/617 194/618
f 194/619 193/620 193/621
f 194/622 193/623 195/624
f 195/625 193/626 196/627
f 195/628 196/629 197/630
f 197/631 196/632 198/633
f 197/634 198/635 197/636
f 197/637 198/638 171/639
f 197/640 171/641 172/642
f 174/643 175/644 110/645
f 110/646 175/647 108/648
f 172/649 174/650 197/651
f 197/652 174/653 189/654
f 197/655 189/656 197/657
f 197/658 189/659 192/660
f 197/661 192/662 197/663
f 197/664 192/665 194/666
f 197/667 194/668 195/669
f 173/670 172/671 109/672
f 109/673 172/674 171/675
f 171/676 198/677 110/678
f 110/679 198/680 198/681
f 110/682 198/683 190/684
f 190/685 198/686 198/687
f 190/688 198/689 191/690
f 191/691 198/692 198/693
f 191/694 198/695 193/696
f 193/697 198/698 196/699
f 166/700 170/701 162/702
f 162/703 170/704 168/705
f 170/706 169/707 168/708
f 168/709 169/710 167/711
f 169/712 166/713 199/714
f 199/715 166/716 165/717
f 169/718 199/719 167/720
f 167/721 199/722 200/723
f 167/724 200/725 162/726
f 162/727 200/728 163/729
f 199/730 165/731 200/732
f 200/733 165/734 163/735
f 166/736 162/737 164/738
f 164/739 162/740 160/741
f 163/742 165/743 160/744
f 160/745 165/746 164/747
f 201/748 202/749 203/750
f 203/751 202/752 202/753
f 203/754 202/755 204/756
f 204/757 202/758 202/759
f 204/760 202/761 205/762
f 205/763 202/764 202/765
f 205/766 202/767 155/768
f 155/769 202/770 156/771
f 206/772 207/773 208/774
f 208/775 207/776 209/777
f 208/778 209/779 208/780
f 208/781 209/782 210/783
f 208/784 210/785 208/786
f 208/787 210/788 158/789
f 208/790 158/791 157/792
f 158/793 210/794 155/795
f 155/796 210/797 210/798
f 155/799 210/800 205/801
f 205/802 210/803 210/804
f 205/805 210/806 204/807
f 204/808 210/809 209/810
f 204/811 209/812 203/813
f 203/814 209/815 207/816
f 203/817 207/818 203/819
f 203/820 207/821 206/822
f 203/823 206/824 201/825
f 201/826 206/827 208/828
f 201/829 208/830 202/831
f 202/832 208/833 208/834
f 202/835 208/836 156/837
f 156/838 208/839 157/840
f 155/841 161/842 158/843
f 158/844 161/845 160/846
f 161/847 154/848 211/849
f 211/850 154/851 212/852
f 211/853 212/854 211/855
f 211/856 212/857 213/858
f 211/859 213/860 211/861
f 211/862 213/863 214/864
f 211/865 214/866 215/867
f 161/868 211/869 160/870
f 160/871 211/872 211/873
f 160/874 211/875 216/876
f 216/877 211/878 211/879
f 216/880 211/881 217/882
f 217/883 211/884 215/885
f 217/886 215/887 217/888
f 217/889 215/890 214/891
f 217/892 214/893 218/894
f 218/895 214/896 214/897
f 218/898 214/899 219/900
f 219/901 214/902 213/903
f 219/904 213/905 219/906
f 219/907 213/908 212/909
f 219/910 212/911 220/912
f 220/913 212/914 154/915
f 220/916 154/917 159/918
f 217/919 218/920 216/921
f 216/922 218/923 219/924
f 216/925 219/926 216/927
f 216/928 219/929 220/930
f 216/931 220/932 216/933
f 216/934 220/935 159/936
f 216/937 159/938 160/939
f 159/940 154/941 157/942
f 157/943 154/944 156/945
f 111/946 113/947 153/948
f 153/949 113/950 151/951
f 111/952 153/953 112/954
f 112/955 153/956 152/957
f 119/958 128/959 152/960
f 152/961 128/962 112/963
f 151/964 113/965 143/966
f 143/967 113/968 148/969
f 138/970 145/971 121/972
f 121/973 145/974 146/975
f 148/976 149/977 143/978
f 143/979 149/980 150/981
f 150/982 149/983 144/984
f 144/985 149/986 147/987
f 147/988 142/989 144/990
f 144/991 142/992 139/993
f 121/994 146/995 122/996
f 122/997 146/998 130/999
f 145/1000 138/1001 133/1002
f 133/1003 138/1004 137/1005
f 133/1006 137/1007 130/1008
f 130/1009 137/1010 122/1011
f 141/1012 221/1013 139/1014
f 139/1015 221/1016 91/1017
f 141/1018 140/1019 221/1020
f 221/1021 140/1022 222/1023
f 140/1024 134/1025 222/1026
f 222/1027 134/1028 134/1029
f 222/1030 134/1031 116/1032
f 116/1033 134/1034 115/1035
f 222/1036 116/1037 221/1038
f 221/1039 116/1040 91/1041
f 135/1042 133/1043 132/1044
f 132/1045 133/1046 129/1047
f 127/1048 119/1049 223/1050
f 223/1051 119/1052 119/1053
f 223/1054 119/1055 106/1056
f 106/1057 119/1058 107/1059
f 127/1060 223/1061 125/1062
f 125/1063 223/1064 224/1065
f 125/1066 224/1067 124/1068
f 124/1069 224/1070 3/1071
f 224/1072 223/1073 3/1074
f 3/1075 223/1076 106/1077
f 123/1078 117/1079 122/1080
f 122/1081 117/1082 120/1083
f 114/1084 102/1085 92/1086
f 92/1087 102/1088 95/1089
f 75/1090 103/1091 1/1092
f 1/1093 103/1094 105/1095
f 102/1096 105/1097 95/1098
f 95/1099 105/1100 103/1101
f 77/1102 75/1103 106/1104
f 106/1105 75/1106 3/1107
f 104/1108 72/1109 107/1110
f 107/1111 72/1112 77/1113
f 104/1114 101/1115 76/1116
f 76/1117 101/1118 99/1119
f 97/1120 72/1121 66/1122
f 66/1123 72/1124 67/1125
f 98/1126 94/1127 96/1128
f 96/1129 94/1130 87/1131
f 95/1132 87/1133 92/1134
f 92/1135 87/1136 84/1137
f 94/1138 93/1139 88/1140
f 88/1141 93/1142 83/1143
f 71/1144 78/1145 89/1146
f 89/1147 78/1148 88/1149
f 82/1150 81/1151 60/1152
f 60/1153 81/1154 61/1155
f 85/1156 78/1157 225/1158
f 225/1159 78/1160 78/1161
f 225/1162 78/1163 226/1164
f 226/1165 78/1166 78/1167
f 226/1168 78/1169 227/1170
f 227/1171 78/1172 78/1173
f 227/1174 78/1175 228/1176
f 228/1177 78/1178 70/1179
f 85/1180 225/1181 80/1182
f 80/1183 225/1184 225/1185
f 80/1186 225/1187 79/1188
f 79/1189 225/1190 226/1191
f 79/1192 226/1193 229/1194
f 229/1195 226/1196 227/1197
f 229/1198 227/1199 230/1200
f 230/1201 227/1202 228/1203
f 230/1204 228/1205 231/1206
f 231/1207 228/1208 70/1209
f 231/1210 70/1211 62/1212
f 79/1213 229/1214 61/1215
f 61/1216 229/1217 230/1218
f 61/1219 230/1220 61/1221
f 61/1222 230/1223 231/1224
f 61/1225 231/1226 62/1227
f 71/1228 66/1229 69/1230
f 69/1231 66/1232 65/1233
f 64/1234 63/1235 68/1236
f 68/1237 63/1238 63/1239
f 68/1240 63/1241 65/1242
f 65/1243 63/1244 232/1245
f 65/1246 232/1247 233/1248
f 233/1249 232/1250 234/1251
f 233/1252 234/1253 235/1254
f 235/1255 234/1256 236/1257
f 235/1258 236/1259 237/1260
f 237/1261 236/1262 238/1263
f 237/1264 238/1265 69/1266
f 63/1267 60/1268 232/1269
f 232/1270 60/1271 60/1272
f 232/1273 60/1274 234/1275
f 234/1276 60/1277 60/1278
f 234/1279 60/1280 236/1281
f 236/1282 60/1283 60/1284
f 236/1285 60/1286 238/1287
f 238/1288 60/1289 62/1290
f 65/1291 233/1292 69/1293
f 69/1294 233/1295 233/1296
f 69/1297 233/1298 237/1299
f 237/1300 233/1301 235/1302
f 238/1303 62/1304 69/1305
f 69/1306 62/1307 70/1308
f 49/1309 51/1310 55/1311
f 55/1312 51/1313 57/1314
f 59/1315 239/1316 57/1317
f 57/1318 239/1319 58/1320
f 54/1321 59/1322 53/1323
f 53/1324 59/1325 52/1326
f 59/1327 51/1328 52/1329
f 52/1330 51/1331 50/1332
f 52/1333 33/1334 53/1335
f 53/1336 33/1337 32/1338
f 51/1339 49/1340 48/1341
f 48/1342 49/1343 42/1344
f 48/1345 42/1346 46/1347
f 46/1348 42/1349 43/1350
f 47/1351 46/1352 240/1353
f 240/1354 46/1355 45/1356
f 50/1357 48/1358 38/1359
f 38/1360 48/1361 48/1362
f 38/1363 48/1364 39/1365
f 39/1366 48/1367 47/1368
f 50/1369 38/1370 33/1371
f 33/1372 38/1373 36/1374
f 41/1375 40/1376 47/1377
f 47/1378 40/1379 39/1380
f 37/1381 36/1382 40/1383
f 40/1384 36/1385 39/1386
f 36/1387 35/1388 33/1389
f 33/1390 35/1391 34/1392
f 32/1393 34/1394 37/1395
f 37/1396 34/1397 35/1398
f 8/1399 21/1400 30/1401
f 30/1402 21/1403 27/1404
f 31/1405 30/1406 241/1407
f 241/1408 30/1409 29/1410
f 31/1411 26/1412 4/1413
f 4/1414 26/1415 25/1416
f 31/1417 4/1418 8/1419
f 8/1420 4/1421 6/1422
f 23/1423 5/1424 25/1425
f 25/1426 5/1427 4/1428
f 5/1429 24/1430 10/1431
f 10/1432 24/1433 22/1434
f 24/1435 23/1436 22/1437
f 22/1438 23/1439 13/1440
f 21/1441 8/1442 20/1443
f 20/1444 8/1445 7/1446
f 20/1447 7/1448 19/1449
f 19/1450 7/1451 16/1452
f 17/1453 16/1454 242/1455
f 242/1456 16/1457 15/1458
f 13/1459 12/1460 10/1461
f 10/1462 12/1463 11/1464
f 15/1465 7/1466 11/1467
f 11/1468 7/1469 7/1470
f 11/1471 7/1472 9/1473
f 9/1474 7/1475 6/1476
f 15/1477 11/1478 14/1479
f 14/1480 11/1481 12/1482
f 9/1483 6/1484 10/1485
f 10/1486 6/1487 5/1488
f 243/1489 244/1490 245/1491
f 245/1492 244/1493 246/1494
f 175/1495 177/1496 247/1497
f 245/1498 246/1499 247/1500
f 177/1501 248/1502 247/1503
f 247/1504 248/1505 245/1506
f 245/1507 248/1508 243/1509
f 243/1510 248/1511 249/1512
f 247/1513 246/1514 250/1515
f 250/1516 246/1517 244/1518
f 178/1519 175/1520 250/1521
f 250/1522 175/1523 247/1524
f 177/1525 176/1526 248/1527
f 248/1528 176/1529 249/1530
f 178/1531 250/1532 176/1533
f 243/1534 250/1535 244/1536
f 243/1537 249/1538 250/1539
f 250/1540 249/1541 176/1542
