# Exported from USD for MuJoCo with source material subsets
v -5.5223992 2.05125069 0.991649458
v -5.61416421 2.05125093 0.914649451
v -5.4381642 2.05125069 0.991649518
v -5.43816415 2.05125069 0.826649511
v -5.61416415 2.05125093 0.771649474
v -5.13446564 2.05125045 0.826649571
v -4.73416415 2.05125021 0.771649713
v -5.11246565 2.05125045 0.826649571
v -5.10696566 2.05125045 0.826649571
v -5.08496565 2.05125045 0.826649571
v -5.08496568 2.05125045 0.991649577
v -5.10696569 2.05125045 0.991649577
v -4.91016415 2.05125045 0.82664963
v -4.73416415 2.05125021 0.91464969
v -4.91016421 2.05125045 0.991649637
v -4.8259292 2.05125045 0.991649697
v -5.11246568 2.05125045 0.991649577
v -5.13446567 2.05125045 0.991649577
v -5.09761208 2.51418399 0.991649577
v -5.10696536 2.54625058 0.991649577
v -5.09789062 2.52993392 0.991649577
v -5.08496538 2.54625058 0.991649577
v -5.09211421 2.52993392 0.991649577
v -5.09239277 2.51418399 0.991649577
v -5.09761235 2.08331704 0.991649577
v -5.09789095 2.0675671 0.991649577
v -5.09211451 2.0675671 0.991649577
v -5.09239304 2.08331704 0.991649577
v -5.11246538 2.54625058 0.991649577
v -5.12120041 2.08331704 0.991649577
v -5.12130845 2.06785798 0.991649577
v -5.12718013 2.06785798 0.991649577
v -5.12653485 2.08331704 0.991649577
v -5.12120015 2.51418399 0.991649577
v -5.12130815 2.52964329 0.991649577
v -5.13446537 2.54625058 0.991649577
v -5.12717983 2.52964329 0.991649577
v -5.12653458 2.51418399 0.991649577
vt -0.901499987 -0.117596
vt -0.831499994 -0.201019004
vt -0.901499987 -0.0410190001
vt -0.901499987 -0.0410190001
vt -0.831499994 -0.201019004
vt -0.831499994 -0.201019004
vt -0.901499987 -0.0410190001
vt -0.831499994 -0.201019004
vt -0.75150001 -0.0410190001
vt -0.75150001 -0.0410190001
vt -0.831499994 -0.201019004
vt -0.701499999 -0.201019004
vt -0.75150001 -0.0410190001
vt -0.701499999 -0.201019004
vt -0.75150001 0.235071003
vt -0.75150001 0.235071003
vt -0.701499999 -0.201019004
vt -0.701499999 0.598981023
vt -0.75150001 0.235071003
vt -0.701499999 0.598981023
vt -0.75150001 0.255071014
vt -0.75150001 0.255071014
vt -0.701499999 0.598981023
vt -0.701499999 0.598981023
vt -0.75150001 0.255071014
vt -0.701499999 0.598981023
vt -0.75150001 0.260071009
vt -0.75150001 0.260071009
vt -0.701499999 0.598981023
vt -0.75150001 0.28007099
vt -0.75150001 0.260071009
vt -0.75150001 0.28007099
vt -0.75150001 0.260071009
vt -0.75150001 0.260071009
vt -0.75150001 0.28007099
vt -0.901499987 0.28007099
vt -0.75150001 0.260071009
vt -0.901499987 0.28007099
vt -0.901499987 0.260071009
vt -0.75150001 0.28007099
vt -0.701499999 0.598981023
vt -0.75150001 0.438980997
vt -0.75150001 0.438980997
vt -0.701499999 0.598981023
vt -0.831499994 0.598981023
vt -0.75150001 0.438980997
vt -0.831499994 0.598981023
vt -0.901499987 0.438980997
vt -0.901499987 0.438980997
vt -0.831499994 0.598981023
vt -0.901499987 0.515559018
vt -0.75150001 0.255071014
vt -0.901499987 0.255071014
vt -0.75150001 0.235071003
vt -0.75150001 0.235071003
vt -0.901499987 0.255071014
vt -0.901499987 0.235071003
vt 0.925000012 0.260071009
vt 0.504152 0.268573999
vt 0.474999994 0.260071009
vt 0.474999994 0.260071009
vt 0.504152 0.268573999
vt 0.489834011 0.268321007
vt 0.474999994 0.260071009
vt 0.489834011 0.268321007
vt 0.474999994 0.28007099
vt 0.474999994 0.28007099
vt 0.489834011 0.268321007
vt 0.489834011 0.273571998
vt 0.474999994 0.28007099
vt 0.489834011 0.273571998
vt 0.504152 0.273319006
vt 0.504152 0.273319006
vt 0.489834011 0.273571998
vt 0.504152 0.268573999
vt 0.504152 0.273319006
vt 0.504152 0.268573999
vt 0.895848989 0.268573999
vt 0.895848989 0.268573999
vt 0.504152 0.268573999
vt 0.925000012 0.260071009
vt 0.895848989 0.268573999
vt 0.925000012 0.260071009
vt 0.910166979 0.268321007
vt 0.910166979 0.268321007
vt 0.925000012 0.260071009
vt 0.925000012 0.28007099
vt 0.910166979 0.268321007
vt 0.925000012 0.28007099
vt 0.910166979 0.273571998
vt 0.910166979 0.273571998
vt 0.925000012 0.28007099
vt 0.895848989 0.273319006
vt 0.910166979 0.273571998
vt 0.895848989 0.273319006
vt 0.910166979 0.268321007
vt -0.901499987 0.268321007
vt -0.901499987 0.273319006
vt -0.901499987 0.273319006
vt 0.910166979 0.268321007
vt 0.895848989 0.273319006
vt 0.895848989 0.268573999
vt -0.901499987 0.268573999
vt -0.901499987 0.273319006
vt -0.901499987 0.273319006
vt 0.895848989 0.268573999
vt 0.895848989 0.273319006
vt 0.504152 0.273319006
vt -0.901499987 0.273319006
vt -0.901499987 0.273319006
vt -0.901499987 0.273319006
vt 0.504152 0.273319006
vt 0.895848989 0.273319006
vt 0.474999994 0.28007099
vt 0.474999994 0.28007099
vt 0.895848989 0.273319006
vt 0.925000012 0.28007099
vt 0.489834011 0.268321007
vt 0.504152 0.268573999
vt 0.489834011 0.273571998
vt 0.474999994 0.255071014
vt 0.895848989 0.247130007
vt 0.925000012 0.255071014
vt 0.925000012 0.255071014
vt 0.895848989 0.247130007
vt 0.90990299 0.247032002
vt 0.925000012 0.255071014
vt 0.90990299 0.247032002
vt 0.925000012 0.235071003
vt 0.925000012 0.235071003
vt 0.90990299 0.247032002
vt 0.90990299 0.241694003
vt 0.925000012 0.235071003
vt 0.90990299 0.241694003
vt 0.895848989 0.242281005
vt 0.895848989 0.242281005
vt 0.90990299 0.241694003
vt 0.90990299 0.247032002
vt -0.901499987 0.242281005
vt -0.901499987 0.247032002
vt -0.901499987 0.242281005
vt 0.895848989 0.242281005
vt 0.90990299 0.247032002
vt 0.895848989 0.247130007
vt 0.895848989 0.242281005
vt 0.895848989 0.247130007
vt 0.504152 0.247130007
vt 0.504152 0.247130007
vt 0.895848989 0.247130007
vt 0.474999994 0.255071014
vt 0.504152 0.247130007
vt 0.474999994 0.255071014
vt 0.490098 0.247032002
vt 0.490098 0.247032002
vt 0.474999994 0.255071014
vt 0.474999994 0.235071003
vt 0.490098 0.247032002
vt 0.474999994 0.235071003
vt 0.490098 0.241694003
vt 0.490098 0.241694003
vt 0.474999994 0.235071003
vt 0.504152 0.242281005
vt 0.490098 0.241694003
vt 0.504152 0.242281005
vt 0.490098 0.247032002
vt -0.901499987 0.247032002
vt -0.901499987 0.242281005
vt -0.901499987 0.242281005
vt 0.490098 0.247032002
vt 0.504152 0.242281005
vt 0.504152 0.247130007
vt -0.901499987 0.247130007
vt -0.901499987 0.242281005
vt -0.901499987 0.242281005
vt 0.504152 0.247130007
vt 0.504152 0.242281005
vt 0.895848989 0.242281005
vt -0.901499987 0.242281005
vt -0.901499987 0.242281005
vt -0.901499987 0.242281005
vt 0.895848989 0.242281005
vt 0.504152 0.242281005
vt 0.925000012 0.235071003
vt 0.925000012 0.235071003
vt 0.504152 0.242281005
vt 0.474999994 0.235071003
f 1/1 2/2 3/3
f 3/4 2/5 2/6
f 3/7 2/8 4/9
f 4/10 2/11 5/12
f 4/13 5/14 6/15
f 6/16 5/17 7/18
f 6/19 7/20 8/21
f 8/22 7/23 7/24
f 8/25 7/26 9/27
f 9/28 7/29 10/30
f 9/31 10/32 9/33
f 9/34 10/35 11/36
f 9/37 11/38 12/39
f 10/40 7/41 13/42
f 13/43 7/44 14/45
f 13/46 14/47 15/48
f 15/49 14/50 16/51
f 8/52 17/53 6/54
f 6/55 17/56 18/57
f 12/58 19/59 20/60
f 20/61 19/62 21/63
f 20/64 21/65 22/66
f 22/67 21/68 23/69
f 22/70 23/71 24/72
f 24/73 23/74 19/75
f 24/76 19/77 25/78
f 25/79 19/80 12/81
f 25/82 12/83 26/84
f 26/85 12/86 11/87
f 26/88 11/89 27/90
f 27/91 11/92 28/93
f 27/94 28/95 26/96
f 26/97 28/98 28/99
f 26/100 28/101 25/102
f 25/103 28/104 28/105
f 25/106 28/107 24/108
f 24/109 28/110 28/111
f 24/112 28/113 22/114
f 22/115 28/116 11/117
f 21/118 19/119 23/120
f 29/121 30/122 17/123
f 17/124 30/125 31/126
f 17/127 31/128 18/129
f 18/130 31/131 32/132
f 18/133 32/134 33/135
f 33/136 32/137 31/138
f 33/139 31/140 33/141
f 33/142 31/143 30/144
f 33/145 30/146 34/147
f 34/148 30/149 29/150
f 34/151 29/152 35/153
f 35/154 29/155 36/156
f 35/157 36/158 37/159
f 37/160 36/161 38/162
f 37/163 38/164 35/165
f 35/166 38/167 38/168
f 35/169 38/170 34/171
f 34/172 38/173 38/174
f 34/175 38/176 33/177
f 33/178 38/179 38/180
f 33/181 38/182 18/183
f 18/184 38/185 36/186
