# Exported from USD for MuJoCo with source material subsets
v 19.5217607 5.0401693 0.761248794
v 19.5394383 5.04749162 0.761248794
v 19.5467607 5.06516929 0.761248794
v 19.5394383 5.08284695 0.761248794
v 19.5217607 5.09016929 0.761248794
v 19.504083 5.08284695 0.761248794
v 19.4967606 5.06516929 0.761248794
v 19.504083 5.04749162 0.761248794
v 19.5444199 5.08782856 0.518923235
v 19.5538057 5.06516929 0.518923235
v 19.5444199 5.04251002 0.518923235
v 19.5217607 5.03312421 0.518923235
v 19.4991014 5.04251002 0.518923235
v 19.4897156 5.06516929 0.518923235
v 19.4991014 5.08782856 0.518923235
v 19.5217607 5.09721435 0.518923235
v 19.5394383 5.08284695 0.601728079
v 19.5467607 5.06516929 0.601728079
v 19.5217607 5.09016929 0.601728079
v 19.504083 5.08284695 0.601728079
v 19.4967606 5.06516929 0.601728079
v 19.504083 5.04749162 0.601728079
v 19.5217607 5.0401693 0.601728079
v 19.5394383 5.04749162 0.601728079
vt 0.49000001 0.25
vt 0.419705629 0.419705629
vt 0.25 0.49000001
vt 0.25 0.49000001
vt 0.0802943707 0.419705629
vt 0.0100000054 0.25
vt 0.0100000054 0.25
vt 0.0802943707 0.0802943707
vt 0.25 0.00999999046
vt 0.25 0.00999999046
vt 0.419705629 0.0802943707
vt 0.49000001 0.25
vt 0.49000001 0.25
vt 0.25 0.49000001
vt 0.0100000054 0.25
vt 0.0100000054 0.25
vt 0.25 0.00999999046
vt 0.49000001 0.25
vt 0.580294371 0.419705629
vt 0.75 0.49000001
vt 0.919705629 0.419705629
vt 0.919705629 0.419705629
vt 0.99000001 0.25
vt 0.919705629 0.0802943707
vt 0.919705629 0.0802943707
vt 0.75 0.00999999046
vt 0.580294371 0.0802943707
vt 0.580294371 0.0802943707
vt 0.50999999 0.25
vt 0.580294371 0.419705629
vt 0.580294371 0.419705629
vt 0.919705629 0.419705629
vt 0.919705629 0.0802943707
vt 0.919705629 0.0802943707
vt 0.580294371 0.0802943707
vt 0.580294371 0.419705629
vt 0.125 0.5
vt 0.125 0.75
vt 0 0.75
vt 0.125 0.5
vt 0 0.75
vt 0 0.5
vt 0.25 0.5
vt 0.25 0.75
vt 0.125 0.75
vt 0.25 0.5
vt 0.125 0.75
vt 0.125 0.5
vt 0.375 0.5
vt 0.375 0.75
vt 0.25 0.75
vt 0.375 0.5
vt 0.25 0.75
vt 0.25 0.5
vt 0.5 0.5
vt 0.5 0.75
vt 0.375 0.75
vt 0.5 0.5
vt 0.375 0.75
vt 0.375 0.5
vt 0.625 0.5
vt 0.625 0.75
vt 0.5 0.75
vt 0.625 0.5
vt 0.5 0.75
vt 0.5 0.5
vt 0.75 0.5
vt 0.75 0.75
vt 0.625 0.75
vt 0.75 0.5
vt 0.625 0.75
vt 0.625 0.5
vt 0.875 0.5
vt 0.875 0.75
vt 0.75 0.75
vt 0.875 0.5
vt 0.75 0.75
vt 0.75 0.5
vt 1 0.5
vt 1 0.75
vt 0.875 0.75
vt 1 0.5
vt 0.875 0.75
vt 0.875 0.5
f 1/1 2/2 3/3
f 3/4 4/5 5/6
f 5/7 6/8 7/9
f 7/10 8/11 1/12
f 1/13 3/14 5/15
f 5/16 7/17 1/18
f 9/19 10/20 11/21
f 11/22 12/23 13/24
f 13/25 14/26 15/27
f 15/28 16/29 9/30
f 9/31 11/32 13/33
f 13/34 15/35 9/36
f 9/37 17/38 18/39
f 9/40 18/41 10/42
f 16/43 19/44 17/45
f 16/46 17/47 9/48
f 15/49 20/50 19/51
f 15/52 19/53 16/54
f 14/55 21/56 20/57
f 14/58 20/59 15/60
f 13/61 22/62 21/63
f 13/64 21/65 14/66
f 12/67 23/68 22/69
f 12/70 22/71 13/72
f 11/73 24/74 23/75
f 11/76 23/77 12/78
f 10/79 18/80 24/81
f 10/82 24/83 11/84
