# Exported from USD for MuJoCo with source material subsets
v 4.61833843 -7.71934551 0.670368195
v 5.12553825 -7.71934551 0.670368493
v 5.12393829 -7.71714538 0.670368493
v 4.61993846 -7.71714538 0.670368195
v 5.12393829 -6.80414623 0.670368493
v 5.12553825 -6.80194563 0.670368493
v 4.61993846 -6.80414623 0.670368195
v 4.61833843 -6.80194563 0.670368195
v 5.11113819 -6.7997455 0.7423684
v 5.11387434 -6.7997455 0.7418257
v 5.11113819 -6.67874569 0.7423684
v 5.12713798 -6.84374565 1.15636853
v 5.12553802 -6.80194563 1.15636853
v 5.12553802 -6.84374565 1.15636853
v 5.12713846 -7.67754549 0.148368478
v 5.12553849 -7.71934551 0.148368478
v 5.12553849 -7.67754549 0.148368478
v 5.12553802 -7.67754549 1.15636853
v 5.12553802 -7.71934551 1.15636853
v 5.12713798 -7.67754549 1.15636853
v 5.09513798 -7.72154611 1.15636853
v 5.09513798 -7.71934551 1.15636853
v 5.09513846 -7.72154611 0.148368478
v 5.09513846 -7.71934551 0.148368478
v 5.09513846 -6.7997455 0.148368478
v 5.12553849 -6.80194563 0.148368478
v 5.09513846 -6.80194563 0.148368478
v 5.09513798 -6.80194563 1.15636853
v 5.09513798 -6.7997455 1.15636853
v 5.12713846 -6.84374565 0.148368478
v 5.12553849 -6.84374565 0.148368478
v 5.12393799 -7.71714538 1.15636853
v 4.61833819 -7.71934551 1.15636829
v 4.6199381 -7.71714538 1.15636829
v 4.61833819 -7.71934551 1.12036815
v 4.6199381 -7.71714538 1.12036815
v 5.12553802 -7.71934551 1.12036841
v 5.12393799 -6.80414623 1.15636853
v 4.6199381 -6.80414623 1.15636829
v 4.61833819 -6.80194563 1.15636829
v 4.6199381 -6.80414623 1.12036815
v 4.61833819 -6.80194563 1.12036815
v 5.12393799 -6.80414623 1.12036841
v 4.61993858 -7.64014572 0.112368345
v 4.67593857 -7.64014572 0.112368345
v 4.61993858 -7.71714538 0.112368345
v 4.67593857 -7.71714538 0.112368345
v 4.64873811 -7.71934551 1.15636829
v 4.64873811 -7.72154611 1.15636829
v 4.61673817 -7.72154611 1.15636829
v 4.61673817 -6.7997455 1.15636829
v 4.64873811 -6.7997455 1.15636829
v 4.64873811 -6.80194563 1.15636829
v 4.61833855 -6.80194563 0.148368359
v 4.61673864 -6.7997455 0.148368359
v 4.64873859 -6.7997455 0.148368359
v 4.64873859 -6.80194563 0.148368359
v 4.61833819 -6.80194563 1.08436829
v 4.61993834 -6.80414623 1.08436829
v 4.61833819 -7.71934551 1.08436829
v 4.61993834 -7.71714538 1.08436829
v 4.61833843 -6.80194563 0.598368287
v 4.61993846 -6.80414623 0.598368287
v 4.61833843 -7.71934551 0.598368287
v 4.61993846 -7.71714538 0.598368287
v 4.61993846 -6.80414623 0.634368181
v 4.61833843 -6.80194563 0.634368181
v 4.61833843 -7.71934551 0.634368181
v 4.61993846 -7.71714538 0.634368181
v 5.12553802 -6.80194563 1.12036841
v 5.12393799 -7.71714538 1.12036841
v 4.64873859 -7.71934551 0.148368359
v 4.64873859 -7.72154611 0.148368359
v 5.12713846 -6.7997455 0.148368478
v 5.12713798 -6.7997455 1.15636853
v 5.12713846 -7.72154611 0.148368478
v 5.12713798 -7.72154611 1.15636853
v 5.10974904 -6.68065542 0.742231727
v 5.10842153 -6.68248171 0.741833687
v 5.1084021 -6.7997455 0.7418257
v 5.10713818 -6.68424553 0.741162658
v 5.10602483 -6.68577665 0.740290046
v 5.10599592 -6.7997455 0.740262866
v 5.10500988 -6.68717235 0.739153564
v 5.10420998 -6.68827194 0.737868428
v 5.10420998 -6.7997455 0.737868428
v 5.10362061 -6.68908256 0.736446679
v 5.10325971 -6.68957847 0.734931171
v 5.10325971 -6.7997455 0.734931171
v 5.10313817 -6.68974537 0.733368397
v 5.10313817 -6.7997455 0.733368397
v 5.10325971 -6.7997455 0.731805623
v 5.10325971 -6.68957847 0.731805623
v 5.10420998 -6.7997455 0.728868484
v 5.10362061 -6.68908256 0.730290294
v 5.10420998 -6.68827194 0.728868484
v 5.10599592 -6.7997455 0.726473987
v 5.10500988 -6.68717235 0.727583408
v 5.10599592 -6.68581671 0.726473987
v 5.1084021 -6.7997455 0.724911213
v 5.10716429 -6.68420976 0.725557387
v 5.1084021 -6.68250746 0.724911213
v 5.11113819 -6.7997455 0.724368453
v 5.10975941 -6.68064159 0.7245031
v 5.11113819 -6.67874569 0.724368453
v 5.11387434 -6.67874569 0.724911213
v 5.11387434 -6.7997455 0.724911213
v 5.11628052 -6.67874569 0.726473987
v 5.11628052 -6.7997455 0.726473987
v 5.11806645 -6.67874569 0.728868484
v 5.11806645 -6.7997455 0.728868484
v 5.11901667 -6.67874569 0.731805623
v 5.11901667 -6.7997455 0.731805623
v 5.11901667 -6.67874569 0.734931171
v 5.11901667 -6.7997455 0.734931171
v 5.11806645 -6.67874569 0.737868428
v 5.11806645 -6.7997455 0.737868428
v 5.11628052 -6.67874569 0.740262866
v 5.11628052 -6.7997455 0.740262866
v 5.11387434 -6.67874569 0.7418257
v 5.11113819 -6.67683548 0.742231727
v 4.63412746 -6.68065542 0.742231429
v 4.63545498 -6.68248171 0.741833448
v 4.63673827 -6.68424553 0.741162419
v 4.63785168 -6.68577665 0.740289807
v 4.63886675 -6.68717235 0.739153326
v 4.63966652 -6.68827194 0.73786813
v 4.64025589 -6.68908256 0.736446381
v 4.64061674 -6.68957847 0.734930992
v 4.64073833 -6.68974537 0.733368158
v 4.64061674 -6.68957847 0.731805384
v 4.64025589 -6.68908256 0.730290055
v 4.63966652 -6.68827194 0.728868186
v 4.63886675 -6.68717235 0.72758311
v 4.63788065 -6.68581671 0.726473749
v 4.63671228 -6.68420976 0.725557089
v 4.63547441 -6.68250746 0.724910975
v 4.63411709 -6.68064159 0.724502861
v 4.63273832 -6.67683548 0.724505007
v 4.63273832 -6.67874569 0.724368215
v 4.63273832 -6.67874569 0.742368162
v 4.63273832 -6.67683548 0.742231429
v 4.63273832 -6.67534679 0.741927743
v 5.11113819 -6.67498344 0.7418257
v 4.63273832 -6.67324537 0.741162419
v 5.11113819 -6.67324537 0.741162658
v 4.63273832 -6.67228025 0.740649343
v 5.11113819 -6.67167515 0.740262866
v 4.63273832 -6.6703195 0.739153326
v 5.11113819 -6.6703195 0.739153564
v 4.63273832 -6.66984648 0.738658249
v 5.11113819 -6.66921943 0.737868428
v 4.63273832 -6.66840929 0.736446381
v 5.11113819 -6.66840929 0.736446679
v 4.63273832 -6.66828436 0.736149371
v 5.11113819 -6.6679129 0.734931171
v 4.63273832 -6.66774553 0.733368158
v 5.11113819 -6.66774553 0.733368397
v 4.63273832 -6.66828436 0.730587065
v 5.11113819 -6.6679129 0.731805623
v 4.63273832 -6.66840929 0.730290055
v 5.11113819 -6.66840929 0.730290294
v 4.63273832 -6.66984648 0.728078187
v 5.11113819 -6.66921943 0.728868484
v 4.63273832 -6.6703195 0.72758311
v 5.11113819 -6.6703195 0.727583408
v 5.11113819 -6.67167515 0.726473987
v 4.63273832 -6.67228025 0.726087034
v 5.11113819 -6.67324537 0.725574195
v 4.63273832 -6.67324537 0.725574017
v 5.11113819 -6.67498344 0.724911213
v 4.63273832 -6.67534679 0.724808693
v 5.11113819 -6.67683548 0.724505246
v 4.61833855 -7.71934551 0.148368359
v 4.61673864 -7.72154611 0.148368359
v 4.63026615 -6.67874569 0.724808693
v 4.63273832 -6.7997455 0.724368215
v 4.63000211 -6.7997455 0.724910975
v 4.63000211 -6.67874569 0.724910975
v 4.62803599 -6.67874569 0.726087034
v 4.62759599 -6.7997455 0.726473749
v 4.62759599 -6.67874569 0.726473749
v 4.62626609 -6.67874569 0.728078187
v 4.62581011 -6.7997455 0.728868186
v 4.62581011 -6.67874569 0.728868186
v 4.6251299 -6.67874569 0.730587065
v 4.62485989 -6.7997455 0.731805384
v 4.62485989 -6.67874569 0.731805384
v 4.6247383 -6.67874569 0.733368158
v 4.62485989 -6.7997455 0.734930992
v 4.62485989 -6.67874569 0.734930992
v 4.6251299 -6.67874569 0.736149371
v 4.62581011 -6.7997455 0.73786813
v 4.62581011 -6.67874569 0.73786813
v 4.62626609 -6.67874569 0.738658249
v 4.62759599 -6.7997455 0.740262628
v 4.62759599 -6.67874569 0.740262628
v 4.62803599 -6.67874569 0.740649343
v 4.63000211 -6.7997455 0.741825461
v 4.63000211 -6.67874569 0.741825461
v 4.63026615 -6.67874569 0.741927743
v 4.63273832 -6.7997455 0.742368162
v 4.63547441 -6.7997455 0.741825461
v 4.63788065 -6.7997455 0.740262628
v 4.63966652 -6.7997455 0.73786813
v 4.64061674 -6.7997455 0.734930992
v 4.64061674 -6.7997455 0.731805384
v 4.63966652 -6.7997455 0.728868186
v 4.63788065 -6.7997455 0.726473749
v 4.63547441 -6.7997455 0.724910975
v 4.67593857 -7.71714538 0.148368359
v 4.67593857 -7.64014572 0.148368359
v 4.61993858 -7.71714538 0.148368359
v 4.61993858 -7.64014572 0.148368359
v 5.12553825 -7.71934551 0.634368479
v 5.12393829 -6.80414623 0.634368479
v 5.12553825 -6.80194563 0.634368479
v 5.12393829 -7.71714538 0.634368479
vt -0.518651009 0.253600001
vt -0.518651009 -0.253600001
vt -0.516451001 -0.252000004
vt -0.518651009 0.253600001
vt -0.516451001 -0.252000004
vt -0.516451001 0.252000004
vt -0.516451001 -0.252000004
vt -0.518651009 -0.253600001
vt 0.396548986 -0.252000004
vt -0.518651009 -0.253600001
vt 0.398748994 -0.253600001
vt 0.396548986 -0.252000004
vt 0.396548986 -0.252000004
vt 0.398748994 -0.253600001
vt 0.396548986 0.252000004
vt 0.398748994 -0.253600001
vt 0.398748994 0.253600001
vt 0.396548986 0.252000004
vt 0.400949001 -0.239199996
vt 0.400949001 -0.241935998
vt 0.521948993 -0.239199996
vt 0.356949002 -0.255199999
vt 0.398748994 -0.253600001
vt 0.356949002 -0.253600001
vt 0.476850986 -0.255199999
vt 0.518651009 -0.253600001
vt 0.476850986 -0.253600001
vt -0.476850986 -0.253600001
vt -0.518651009 -0.253600001
vt -0.476850986 -0.255199999
vt -0.520851016 -0.223199993
vt -0.518651009 -0.253600001
vt -0.518651009 -0.223199993
vt 0.520851016 -0.223199993
vt 0.518651009 -0.223199993
vt 0.518651009 -0.253600001
vt -0.400949001 -0.223199993
vt -0.398748994 -0.253600001
vt -0.398748994 -0.223199993
vt 0.398748994 -0.223199993
vt 0.398748994 -0.253600001
vt 0.400949001 -0.223199993
vt -0.356949002 -0.255199999
vt -0.356949002 -0.253600001
vt -0.398748994 -0.253600001
vt -0.516451001 -0.252000004
vt -0.518651009 0.253600001
vt -0.518651009 -0.253600001
vt -0.518651009 0.253600001
vt -0.516451001 -0.252000004
vt -0.516451001 0.252000004
vt 0.518651009 0.253600001
vt 0.516451001 0.252000004
vt 0.518651009 -0.253600001
vt -0.516451001 -0.252000004
vt -0.518651009 -0.253600001
vt 0.396548986 -0.252000004
vt -0.518651009 -0.253600001
vt 0.398748994 -0.253600001
vt 0.396548986 -0.252000004
vt 0.396548986 -0.252000004
vt 0.398748994 -0.253600001
vt 0.396548986 0.252000004
vt 0.398748994 -0.253600001
vt 0.398748994 0.253600001
vt 0.396548986 0.252000004
vt -0.396548986 0.252000004
vt -0.398748994 0.253600001
vt -0.396548986 -0.252000004
vt 0.439451009 0.252000004
vt 0.439451009 0.195999995
vt 0.516451001 0.252000004
vt 0.516451001 0.252000004
vt 0.439451009 0.195999995
vt 0.516451001 0.195999995
vt -0.518651009 0.223199993
vt -0.518651009 0.253600001
vt -0.520851016 0.223199993
vt -0.520851016 0.223199993
vt -0.518651009 0.253600001
vt -0.520851016 0.255199999
vt 0.400949001 0.255199999
vt 0.398748994 0.253600001
vt 0.400949001 0.223199993
vt 0.400949001 0.223199993
vt 0.398748994 0.253600001
vt 0.398748994 0.223199993
vt -0.398748994 1.15636802
vt -0.400949001 1.15636802
vt -0.398748994 0.148368001
vt -0.398748994 0.148368001
vt -0.400949001 1.15636802
vt -0.400949001 0.148368001
vt -1.15636802 0.255199999
vt -1.15636802 0.223199993
vt -0.148368001 0.255199999
vt -0.148368001 0.255199999
vt -1.15636802 0.223199993
vt -0.148368001 0.223199993
vt -0.400949001 0.255199999
vt -0.400949001 0.223199993
vt -0.398748994 0.253600001
vt -0.398748994 0.253600001
vt -0.400949001 0.223199993
vt -0.398748994 0.223199993
vt 0.148368001 0.253600001
vt 0.148368001 0.223199993
vt 1.15636802 0.253600001
vt 1.15636802 0.253600001
vt 0.148368001 0.223199993
vt 1.15636802 0.223199993
vt 0.400949001 1.15636802
vt 0.398748994 1.15636802
vt 0.400949001 0.148368001
vt 0.400949001 0.148368001
vt 0.398748994 1.15636802
vt 0.398748994 0.148368001
vt -0.398748994 0.253600001
vt -0.396548986 0.252000004
vt 0.518651009 0.253600001
vt 0.518651009 0.253600001
vt -0.396548986 0.252000004
vt 0.516451001 0.252000004
vt 0.396548986 1.08436799
vt 0.398748994 1.08436799
vt 0.396548986 1.120368
vt 0.396548986 1.120368
vt 0.398748994 1.08436799
vt 0.398748994 1.120368
vt -0.398748994 1.08436799
vt 0.518651009 1.08436799
vt -0.398748994 1.120368
vt -0.398748994 1.120368
vt 0.518651009 1.08436799
vt 0.518651009 1.120368
vt 0.398748994 0.253600001
vt -0.518651009 0.253600001
vt 0.396548986 0.252000004
vt 0.396548986 0.252000004
vt -0.518651009 0.253600001
vt -0.516451001 0.252000004
vt 0.396548986 1.120368
vt -0.516451001 1.120368
vt 0.396548986 1.08436799
vt 0.396548986 1.08436799
vt -0.516451001 1.120368
vt -0.516451001 1.08436799
vt -0.518651009 1.08436799
vt -0.516451001 1.08436799
vt -0.518651009 1.120368
vt -0.518651009 1.120368
vt -0.516451001 1.08436799
vt -0.516451001 1.120368
vt -0.398748994 0.253600001
vt -0.396548986 0.252000004
vt 0.518651009 0.253600001
vt 0.518651009 0.253600001
vt -0.396548986 0.252000004
vt 0.516451001 0.252000004
vt 0.396548986 0.598367989
vt 0.398748994 0.598367989
vt 0.396548986 0.634368002
vt 0.396548986 0.634368002
vt 0.398748994 0.598367989
vt 0.398748994 0.634368002
vt -0.398748994 0.598367989
vt 0.518651009 0.598367989
vt -0.398748994 0.634368002
vt -0.398748994 0.634368002
vt 0.518651009 0.598367989
vt 0.518651009 0.634368002
vt 0.398748994 0.253600001
vt -0.518651009 0.253600001
vt 0.396548986 0.252000004
vt 0.396548986 0.252000004
vt -0.518651009 0.253600001
vt -0.516451001 0.252000004
vt 0.396548986 0.634368002
vt -0.516451001 0.634368002
vt 0.396548986 0.598367989
vt 0.396548986 0.598367989
vt -0.516451001 0.634368002
vt -0.516451001 0.598367989
vt -0.518651009 0.598367989
vt -0.516451001 0.598367989
vt -0.518651009 0.634368002
vt -0.518651009 0.634368002
vt -0.516451001 0.598367989
vt -0.516451001 0.634368002
vt 1.120368 0.252000004
vt 1.120368 -0.252000004
vt 1.15636802 0.252000004
vt 1.15636802 0.252000004
vt 1.120368 -0.252000004
vt 1.15636802 -0.252000004
vt -0.396548986 1.15636802
vt -0.398748994 1.15636802
vt -0.396548986 1.120368
vt -0.396548986 1.120368
vt -0.398748994 1.15636802
vt -0.398748994 1.120368
vt -1.15636802 0.253600001
vt -1.15636802 -0.253600001
vt -1.120368 0.253600001
vt -1.120368 0.253600001
vt -1.15636802 -0.253600001
vt -1.120368 -0.253600001
vt -0.398748994 0.253600001
vt -0.398748994 -0.253600001
vt -0.396548986 -0.252000004
vt -0.396548986 -0.252000004
vt -0.398748994 -0.253600001
vt 0.518651009 -0.253600001
vt 0.398748994 1.15636802
vt -0.518651009 1.15636802
vt 0.398748994 1.120368
vt 0.398748994 1.120368
vt -0.518651009 1.15636802
vt -0.518651009 1.120368
vt -0.396548986 -0.252000004
vt 0.518651009 -0.253600001
vt 0.516451001 -0.252000004
vt 0.516451001 -0.252000004
vt 0.518651009 -0.253600001
vt 0.516451001 0.252000004
vt -0.396548986 1.120368
vt 0.516451001 1.120368
vt -0.396548986 1.15636802
vt -0.396548986 1.15636802
vt 0.516451001 1.120368
vt 0.516451001 1.15636802
vt -1.120368 -0.252000004
vt -1.120368 0.252000004
vt -1.15636802 -0.252000004
vt -1.15636802 -0.252000004
vt -1.120368 0.252000004
vt -1.15636802 0.252000004
vt 0.516451001 1.120368
vt 0.518651009 1.120368
vt 0.516451001 1.15636802
vt 0.516451001 1.15636802
vt 0.518651009 1.120368
vt 0.518651009 1.15636802
vt 1.15636802 -0.253600001
vt 1.15636802 0.253600001
vt 1.120368 -0.253600001
vt 1.120368 -0.253600001
vt 1.15636802 0.253600001
vt 1.120368 0.253600001
vt -0.398748994 0.148368001
vt -0.356949002 0.148368001
vt -0.398748994 1.15636802
vt -0.398748994 1.15636802
vt -0.356949002 0.148368001
vt -0.356949002 1.15636802
vt 0.148368001 -0.253600001
vt 0.148368001 -0.255199999
vt 1.15636802 -0.253600001
vt 1.15636802 -0.253600001
vt 0.148368001 -0.255199999
vt 1.15636802 -0.255199999
vt -0.518651009 1.15636802
vt -0.520851016 1.15636802
vt -0.518651009 0.148368001
vt -0.518651009 0.148368001
vt -0.520851016 1.15636802
vt -0.520851016 0.148368001
vt -0.356949002 -0.255199999
vt -0.398748994 -0.253600001
vt -0.400949001 -0.255199999
vt -0.400949001 -0.255199999
vt -0.398748994 -0.253600001
vt -0.400949001 -0.223199993
vt 0.356949002 0.148368001
vt 0.400949001 0.148368001
vt 0.356949002 1.15636802
vt 0.356949002 1.15636802
vt 0.400949001 0.148368001
vt 0.400949001 1.15636802
vt 0.356949002 -0.255199999
vt 0.400949001 -0.255199999
vt 0.398748994 -0.253600001
vt 0.398748994 -0.253600001
vt 0.400949001 -0.255199999
vt 0.400949001 -0.223199993
vt -0.148368001 -0.255199999
vt -0.148368001 -0.223199993
vt -1.15636802 -0.255199999
vt -1.15636802 -0.255199999
vt -0.148368001 -0.223199993
vt -1.15636802 -0.223199993
vt 1.15636802 -0.253600001
vt 1.15636802 -0.223199993
vt 0.148368001 -0.253600001
vt 0.148368001 -0.253600001
vt 1.15636802 -0.223199993
vt 0.148368001 -0.223199993
vt -0.400949001 0.148368001
vt -0.398748994 0.148368001
vt -0.400949001 1.15636802
vt -0.400949001 1.15636802
vt -0.398748994 0.148368001
vt -0.398748994 1.15636802
vt -0.148368001 -0.253600001
vt -0.148368001 -0.223199993
vt -1.15636802 -0.253600001
vt -1.15636802 -0.253600001
vt -0.148368001 -0.223199993
vt -1.15636802 -0.223199993
vt 0.518651009 0.148368001
vt 0.520851016 0.148368001
vt 0.518651009 1.15636802
vt 0.518651009 1.15636802
vt 0.520851016 0.148368001
vt 0.520851016 1.15636802
vt 0.520851016 -0.223199993
vt 0.518651009 -0.253600001
vt 0.520851016 -0.255199999
vt 0.520851016 -0.255199999
vt 0.518651009 -0.253600001
vt 0.476850986 -0.255199999
vt 0.148368001 -0.223199993
vt 0.148368001 -0.255199999
vt 1.15636802 -0.223199993
vt 1.15636802 -0.223199993
vt 0.148368001 -0.255199999
vt 1.15636802 -0.255199999
vt -0.520851016 -0.223199993
vt -0.520851016 -0.255199999
vt -0.518651009 -0.253600001
vt -0.518651009 -0.253600001
vt -0.520851016 -0.255199999
vt -0.476850986 -0.255199999
vt -0.520851016 0.148368001
vt -0.476850986 0.148368001
vt -0.520851016 1.15636802
vt -0.520851016 1.15636802
vt -0.476850986 0.148368001
vt -0.476850986 1.15636802
vt 0.518651009 1.15636802
vt 0.476850986 1.15636802
vt 0.518651009 0.148368001
vt 0.518651009 0.148368001
vt 0.476850986 1.15636802
vt 0.476850986 0.148368001
vt -0.148368001 -0.255199999
vt -0.148368001 -0.253600001
vt -1.15636802 -0.255199999
vt -1.15636802 -0.255199999
vt -0.148368001 -0.253600001
vt -1.15636802 -0.253600001
vt 0.521948993 -0.239199996
vt 0.520038009 -0.237810999
vt 0.400949001 -0.239199996
vt 0.400949001 -0.239199996
vt 0.520038009 -0.237810999
vt 0.518212974 -0.236482993
vt 0.400949001 -0.239199996
vt 0.518212974 -0.236482993
vt 0.400949001 -0.236463994
vt 0.400949001 -0.236463994
vt 0.518212974 -0.236482993
vt 0.516448975 -0.235200003
vt -0.741824985 -0.236463994
vt -0.741162002 -0.235200003
vt -0.741824985 -0.236463994
vt 0.400949001 -0.236463994
vt 0.516448975 -0.235200003
vt 0.514918029 -0.234087005
vt 0.400949001 -0.236463994
vt 0.514918029 -0.234087005
vt 0.400949001 -0.234057993
vt -0.400949001 0.740261972
vt -0.514918029 0.740289986
vt -0.513522029 0.739153028
vt -0.740261972 -0.234057993
vt -0.739153028 -0.233071998
vt -0.740261972 -0.234057993
vt -0.400949001 0.740261972
vt -0.513522029 0.739153028
vt -0.512422025 0.737868011
vt -0.400949001 0.740261972
vt -0.512422025 0.737868011
vt -0.400949001 0.737868011
vt -0.400949001 0.737868011
vt -0.512422025 0.737868011
vt -0.511611998 0.736446023
vt -0.737868011 -0.232271999
vt -0.736446023 -0.231683001
vt -0.737868011 -0.232271999
vt -0.400949001 0.737868011
vt -0.511611998 0.736446023
vt -0.511116028 0.734930992
vt -0.400949001 0.737868011
vt -0.511116028 0.734930992
vt -0.400949001 0.734930992
vt -0.400949001 0.734930992
vt -0.511116028 0.734930992
vt -0.510949016 0.73336798
vt -0.400949001 0.734930992
vt -0.510949016 0.73336798
vt -0.400949001 0.73336798
vt -0.73336798 -0.231199995
vt -0.73336798 -0.231199995
vt -0.73336798 -0.231199995
vt -0.400949001 0.73336798
vt -0.510949016 0.73336798
vt -0.400949001 0.731805027
vt -0.400949001 0.731805027
vt -0.510949016 0.73336798
vt -0.511116028 0.731805027
vt -0.400949001 0.731805027
vt -0.511116028 0.731805027
vt -0.400949001 0.728868008
vt -0.400949001 0.728868008
vt -0.511116028 0.731805027
vt -0.511611998 0.730289996
vt -0.728868008 -0.232271999
vt -0.730289996 -0.231683001
vt -0.728868008 -0.232271999
vt -0.400949001 0.728868008
vt -0.511611998 0.730289996
vt -0.512422025 0.728868008
vt -0.400949001 0.728868008
vt -0.512422025 0.728868008
vt -0.400949001 0.726473987
vt -0.400949001 0.726473987
vt -0.512422025 0.728868008
vt -0.513522029 0.727582991
vt -0.726473987 -0.234057993
vt -0.727582991 -0.233071998
vt -0.726473987 -0.234057993
vt -0.400949001 0.726473987
vt -0.513522029 0.727582991
vt -0.514877975 0.726473987
vt -0.400949001 -0.234057993
vt -0.514877975 -0.234057993
vt -0.400949001 -0.236463994
vt -0.400949001 -0.236463994
vt -0.514877975 -0.234057993
vt -0.516484022 -0.235226005
vt -0.724910975 -0.236463994
vt -0.725557029 -0.235226005
vt -0.724910975 -0.236463994
vt -0.400949001 -0.236463994
vt -0.516484022 -0.235226005
vt -0.518185973 -0.236463994
vt -0.400949001 -0.236463994
vt -0.518185973 -0.236463994
vt -0.400949001 -0.239199996
vt -0.400949001 -0.239199996
vt -0.518185973 -0.236463994
vt -0.520053029 -0.237820998
vt -0.724367976 -0.239199996
vt -0.724502981 -0.237820998
vt -0.724367976 -0.239199996
vt -0.400949001 -0.239199996
vt -0.520053029 -0.237820998
vt -0.521948993 -0.239199996
vt -0.724367976 -0.239199996
vt -0.724367976 -0.239199996
vt -0.724367976 -0.239199996
vt -0.400949001 -0.239199996
vt -0.521948993 -0.239199996
vt -0.521948993 -0.241935998
vt -0.400949001 -0.239199996
vt -0.521948993 -0.241935998
vt -0.400949001 -0.241935998
vt -0.400949001 -0.241935998
vt -0.521948993 -0.241935998
vt -0.521948993 -0.244341999
vt -0.400949001 -0.241935998
vt -0.521948993 -0.244341999
vt -0.400949001 -0.244341999
vt 0.400949001 0.726473987
vt 0.521948993 0.726473987
vt 0.521948993 0.728868008
vt 0.400949001 0.726473987
vt 0.521948993 0.728868008
vt 0.400949001 0.728868008
vt 0.400949001 0.728868008
vt 0.521948993 0.728868008
vt 0.521948993 0.731805027
vt 0.400949001 0.728868008
vt 0.521948993 0.731805027
vt 0.400949001 0.731805027
vt 0.400949001 0.731805027
vt 0.521948993 0.731805027
vt 0.521948993 0.734930992
vt 0.400949001 0.731805027
vt 0.521948993 0.734930992
vt 0.400949001 0.734930992
vt 0.400949001 0.734930992
vt 0.521948993 0.734930992
vt 0.521948993 0.737868011
vt 0.400949001 0.734930992
vt 0.521948993 0.737868011
vt 0.400949001 0.737868011
vt 0.400949001 0.737868011
vt 0.521948993 0.737868011
vt 0.521948993 0.740261972
vt 0.400949001 0.737868011
vt 0.521948993 0.740261972
vt 0.400949001 0.740261972
vt 0.400949001 -0.244341999
vt 0.521948993 -0.244341999
vt 0.521948993 -0.241935998
vt 0.400949001 -0.244341999
vt 0.521948993 -0.241935998
vt 0.400949001 -0.241935998
vt 0.400949001 -0.241935998
vt 0.521948993 -0.241935998
vt 0.521948993 -0.239199996
vt 0.521948993 -0.239199996
vt 0.523859024 -0.239199996
vt 0.520038009 -0.237810999
vt 0.520038009 -0.237810999
vt 0.523859024 -0.239199996
vt 0.520038009 0.237810999
vt 0.520038009 -0.237810999
vt 0.520038009 0.237810999
vt 0.518212974 -0.236482993
vt 0.518212974 -0.236482993
vt 0.520038009 0.237810999
vt 0.518212974 0.236482993
vt 0.518212974 -0.236482993
vt 0.518212974 0.236482993
vt 0.516448975 -0.235200003
vt 0.516448975 -0.235200003
vt 0.518212974 0.236482993
vt 0.516448975 0.235200003
vt 0.516448975 -0.235200003
vt 0.516448975 0.235200003
vt 0.514918029 -0.234087005
vt 0.514918029 -0.234087005
vt 0.516448975 0.235200003
vt 0.514918029 0.234087005
vt 0.514918029 -0.234087005
vt 0.514918029 0.234087005
vt 0.513522029 -0.233071998
vt 0.513522029 -0.233071998
vt 0.514918029 0.234087005
vt 0.513522029 0.233071998
vt 0.739153028 -0.233071998
vt 0.739153028 0.233071998
vt 0.737868011 -0.232271999
vt 0.737868011 -0.232271999
vt 0.739153028 0.233071998
vt 0.737868011 0.232271999
vt 0.737868011 -0.232271999
vt 0.737868011 0.232271999
vt 0.736446023 -0.231683001
vt 0.736446023 -0.231683001
vt 0.737868011 0.232271999
vt 0.736446023 0.231682003
vt 0.736446023 -0.231683001
vt 0.736446023 0.231682003
vt 0.734930992 -0.231322005
vt 0.734930992 -0.231322005
vt 0.736446023 0.231682003
vt 0.734930992 0.231321007
vt 0.734930992 -0.231322005
vt 0.734930992 0.231321007
vt 0.73336798 -0.231199995
vt 0.73336798 -0.231199995
vt 0.734930992 0.231321007
vt 0.73336798 0.231199995
vt 0.73336798 -0.231199995
vt 0.73336798 0.231199995
vt 0.731805027 -0.231322005
vt 0.731805027 -0.231322005
vt 0.73336798 0.231199995
vt 0.731805027 0.231321007
vt 0.731805027 -0.231322005
vt 0.731805027 0.231321007
vt 0.730289996 -0.231683001
vt 0.730289996 -0.231683001
vt 0.731805027 0.231321007
vt 0.730289996 0.231682003
vt 0.730289996 -0.231683001
vt 0.730289996 0.231682003
vt 0.728868008 -0.232271999
vt 0.728868008 -0.232271999
vt 0.730289996 0.231682003
vt 0.728868008 0.232271999
vt 0.728868008 -0.232271999
vt 0.728868008 0.232271999
vt 0.727582991 -0.233071998
vt 0.727582991 -0.233071998
vt 0.728868008 0.232271999
vt 0.727582991 0.233071998
vt -0.513522029 -0.233071998
vt -0.513522029 0.233071998
vt -0.514877975 -0.234057993
vt -0.514877975 -0.234057993
vt -0.513522029 0.233071998
vt -0.514877975 0.234057993
vt -0.514877975 -0.234057993
vt -0.514877975 0.234057993
vt -0.516484022 -0.235226005
vt -0.516484022 -0.235226005
vt -0.514877975 0.234057993
vt -0.516484022 0.235226005
vt -0.516484022 -0.235226005
vt -0.516484022 0.235226005
vt -0.518185973 -0.236463994
vt -0.518185973 -0.236463994
vt -0.516484022 0.235226005
vt -0.518185973 0.236463994
vt -0.518185973 -0.236463994
vt -0.518185973 0.236463994
vt -0.520053029 -0.237820998
vt -0.520053029 -0.237820998
vt -0.518185973 0.236463994
vt -0.520053029 0.237820998
vt -0.520053029 -0.237820998
vt -0.520053029 0.237820998
vt -0.523859024 0.239199996
vt -0.523859024 0.239199996
vt -0.520053029 0.237820998
vt -0.521948993 0.239199996
vt 0.520038009 0.237810999
vt 0.523859024 -0.239199996
vt 0.521948993 0.239199996
vt -0.742367983 0.239199996
vt -0.742231011 -0.239199996
vt -0.742231011 -0.239199996
vt 0.521948993 0.239199996
vt 0.523859024 -0.239199996
vt 0.523859024 0.239199996
vt -0.742231011 0.239199996
vt -0.742231011 -0.239199996
vt -0.742231011 -0.239199996
vt 0.523859024 0.239199996
vt 0.523859024 -0.239199996
vt 0.525348008 0.239199996
vt 0.525348008 0.239199996
vt 0.523859024 -0.239199996
vt 0.525711 -0.239199996
vt 0.525348008 0.239199996
vt 0.525711 -0.239199996
vt 0.527449012 0.239199996
vt 0.527449012 0.239199996
vt 0.525711 -0.239199996
vt 0.527449012 -0.239199996
vt 0.527449012 0.239199996
vt 0.527449012 -0.239199996
vt 0.528414011 0.239199996
vt 0.528414011 0.239199996
vt 0.527449012 -0.239199996
vt 0.529018998 -0.239199996
vt 0.528414011 0.239199996
vt 0.529018998 -0.239199996
vt 0.530375004 0.239199996
vt 0.530375004 0.239199996
vt 0.529018998 -0.239199996
vt 0.530375004 -0.239199996
vt -0.739153028 0.239199996
vt -0.739153028 -0.239199996
vt -0.738658011 0.239199996
vt -0.738658011 0.239199996
vt -0.739153028 -0.239199996
vt -0.737868011 -0.239199996
vt -0.738658011 0.239199996
vt -0.737868011 -0.239199996
vt -0.736446023 0.239199996
vt -0.736446023 0.239199996
vt -0.737868011 -0.239199996
vt -0.736446023 -0.239199996
vt -0.736446023 0.239199996
vt -0.736446023 -0.239199996
vt -0.736149013 0.239199996
vt -0.736149013 0.239199996
vt -0.736446023 -0.239199996
vt -0.734930992 -0.239199996
vt -0.736149013 0.239199996
vt -0.734930992 -0.239199996
vt -0.73336798 0.239199996
vt -0.73336798 0.239199996
vt -0.734930992 -0.239199996
vt -0.73336798 -0.239199996
vt -0.73336798 0.239199996
vt -0.73336798 -0.239199996
vt -0.730587006 0.239199996
vt -0.730587006 0.239199996
vt -0.73336798 -0.239199996
vt -0.731805027 -0.239199996
vt -0.730587006 0.239199996
vt -0.731805027 -0.239199996
vt -0.730289996 0.239199996
vt -0.730289996 0.239199996
vt -0.731805027 -0.239199996
vt -0.730289996 -0.239199996
vt -0.730289996 0.239199996
vt -0.730289996 -0.239199996
vt -0.728078008 0.239199996
vt -0.728078008 0.239199996
vt -0.730289996 -0.239199996
vt -0.728868008 -0.239199996
vt -0.728078008 0.239199996
vt -0.728868008 -0.239199996
vt -0.727582991 0.239199996
vt -0.727582991 0.239199996
vt -0.728868008 -0.239199996
vt -0.727582991 -0.239199996
vt -0.727582991 0.239199996
vt -0.727582991 -0.239199996
vt -0.727582991 0.239199996
vt -0.530375004 0.239199996
vt -0.530375004 -0.239199996
vt -0.529018998 -0.239199996
vt -0.530375004 0.239199996
vt -0.529018998 -0.239199996
vt -0.528414011 0.239199996
vt -0.528414011 0.239199996
vt -0.529018998 -0.239199996
vt -0.527449012 -0.239199996
vt -0.528414011 0.239199996
vt -0.527449012 -0.239199996
vt -0.527449012 0.239199996
vt -0.527449012 0.239199996
vt -0.527449012 -0.239199996
vt -0.525711 -0.239199996
vt -0.527449012 0.239199996
vt -0.525711 -0.239199996
vt -0.525348008 0.239199996
vt -0.525348008 0.239199996
vt -0.525711 -0.239199996
vt -0.523859024 -0.239199996
vt -0.525348008 0.239199996
vt -0.523859024 -0.239199996
vt -0.523859024 0.239199996
vt -0.724505007 0.239199996
vt -0.724505007 -0.239199996
vt -0.724505007 -0.239199996
vt -0.523859024 0.239199996
vt -0.523859024 -0.239199996
vt -0.520053029 -0.237820998
vt -0.520053029 -0.237820998
vt -0.523859024 -0.239199996
vt -0.521948993 -0.239199996
vt -0.148368001 0.223199993
vt -0.148368001 0.253600001
vt -1.15636802 0.223199993
vt -1.15636802 0.223199993
vt -0.148368001 0.253600001
vt -1.15636802 0.253600001
vt 0.520851016 0.255199999
vt 0.518651009 0.253600001
vt 0.520851016 0.223199993
vt 0.520851016 0.223199993
vt 0.518651009 0.253600001
vt 0.518651009 0.223199993
vt 0.520851016 1.15636802
vt 0.518651009 1.15636802
vt 0.520851016 0.148368001
vt 0.520851016 0.148368001
vt 0.518651009 1.15636802
vt 0.518651009 0.148368001
vt -0.521948993 0.241671994
vt -0.521948993 0.239199996
vt -0.400949001 0.239199996
vt -0.400949001 0.239199996
vt -0.521948993 0.239199996
vt -0.520053029 0.237820998
vt -0.400949001 0.239199996
vt -0.520053029 0.237820998
vt -0.518185973 0.236463994
vt -0.400949001 0.239199996
vt -0.400949001 0.241935998
vt -0.521948993 0.241671994
vt -0.724807978 0.241671994
vt -0.724910975 0.241935998
vt -0.724910975 0.241935998
vt -0.521948993 0.241671994
vt -0.400949001 0.241935998
vt -0.521948993 0.241935998
vt -0.724910975 0.241935998
vt -0.724910975 0.241935998
vt -0.724910975 0.241935998
vt -0.521948993 0.241935998
vt -0.400949001 0.241935998
vt -0.521948993 0.243901998
vt -0.521948993 0.243901998
vt -0.400949001 0.241935998
vt -0.400949001 0.244341999
vt -0.521948993 0.243901998
vt -0.400949001 0.244341999
vt -0.521948993 0.244341999
vt -0.726473987 0.244341999
vt -0.726473987 0.244341999
vt -0.726473987 0.244341999
vt -0.521948993 0.726473987
vt -0.400949001 0.726473987
vt -0.521948993 0.728078008
vt -0.521948993 0.728078008
vt -0.400949001 0.726473987
vt -0.400949001 0.728868008
vt -0.521948993 0.728078008
vt -0.400949001 0.728868008
vt -0.521948993 0.728868008
vt -0.728868008 0.246127993
vt -0.728868008 0.246127993
vt -0.728868008 0.246127993
vt -0.521948993 0.728868008
vt -0.400949001 0.728868008
vt -0.521948993 0.730587006
vt -0.521948993 0.730587006
vt -0.400949001 0.728868008
vt -0.400949001 0.731805027
vt -0.521948993 0.730587006
vt -0.400949001 0.731805027
vt -0.521948993 0.731805027
vt -0.731805027 0.247078001
vt -0.731805027 0.247078001
vt -0.731805027 0.247078001
vt -0.521948993 0.731805027
vt -0.400949001 0.731805027
vt -0.521948993 0.73336798
vt -0.521948993 0.73336798
vt -0.400949001 0.731805027
vt -0.400949001 0.734930992
vt -0.521948993 0.73336798
vt -0.400949001 0.734930992
vt -0.521948993 0.734930992
vt -0.734930992 0.247078001
vt -0.734930992 0.247078001
vt -0.734930992 0.247078001
vt -0.521948993 0.734930992
vt -0.400949001 0.734930992
vt -0.521948993 0.736149013
vt -0.521948993 0.736149013
vt -0.400949001 0.734930992
vt -0.400949001 0.737868011
vt -0.521948993 0.736149013
vt -0.400949001 0.737868011
vt -0.521948993 0.737868011
vt -0.737868011 0.246127993
vt -0.737868011 0.246127993
vt -0.737868011 0.246127993
vt -0.521948993 0.737868011
vt -0.400949001 0.737868011
vt -0.521948993 0.738658011
vt -0.521948993 0.738658011
vt -0.400949001 0.737868011
vt -0.400949001 0.740261972
vt -0.521948993 0.738658011
vt -0.400949001 0.740261972
vt -0.521948993 0.740261972
vt -0.740261972 0.244341999
vt -0.740261972 0.244341999
vt -0.740261972 0.244341999
vt 0.521948993 0.244341999
vt 0.400949001 0.244341999
vt 0.521948993 0.243901998
vt 0.521948993 0.243901998
vt 0.400949001 0.244341999
vt 0.400949001 0.241935998
vt 0.521948993 0.243901998
vt 0.400949001 0.241935998
vt 0.521948993 0.241935998
vt -0.741824985 0.241935998
vt -0.741824985 0.241935998
vt -0.741824985 0.241935998
vt 0.521948993 0.241935998
vt 0.400949001 0.241935998
vt 0.521948993 0.241671994
vt 0.521948993 0.241671994
vt 0.400949001 0.241935998
vt 0.400949001 0.239199996
vt 0.521948993 0.241671994
vt 0.400949001 0.239199996
vt 0.521948993 0.239199996
vt -0.742367983 0.239199996
vt -0.742367983 0.239199996
vt -0.742367983 0.239199996
vt 0.521948993 0.239199996
vt 0.400949001 0.239199996
vt 0.520038009 0.237810999
vt -0.742231011 0.237810999
vt -0.742367983 0.239199996
vt -0.742367983 0.239199996
vt 0.520038009 0.237810999
vt 0.400949001 0.239199996
vt 0.518212974 0.236482993
vt 0.518212974 0.236482993
vt 0.400949001 0.239199996
vt 0.400949001 0.236463994
vt 0.518212974 0.236482993
vt 0.400949001 0.236463994
vt 0.516448975 0.235200003
vt -0.741162002 0.235200003
vt -0.741824985 0.236463994
vt -0.741824985 0.236463994
vt 0.516448975 0.235200003
vt 0.400949001 0.236463994
vt 0.514918029 0.234087005
vt 0.514918029 0.234087005
vt 0.400949001 0.236463994
vt 0.400949001 0.234057993
vt 0.514918029 0.740289986
vt 0.400949001 0.740261972
vt 0.513522029 0.739153028
vt -0.739153028 0.233071998
vt -0.740261972 0.234057993
vt -0.740261972 0.234057993
vt 0.513522029 0.739153028
vt 0.400949001 0.740261972
vt 0.512422025 0.737868011
vt 0.512422025 0.737868011
vt 0.400949001 0.740261972
vt 0.400949001 0.737868011
vt 0.512422025 0.737868011
vt 0.400949001 0.737868011
vt 0.511611998 0.736446023
vt -0.736446023 0.231682003
vt -0.737868011 0.232271999
vt -0.737868011 0.232271999
vt 0.511611998 0.736446023
vt 0.400949001 0.737868011
vt 0.511116028 0.734930992
vt 0.511116028 0.734930992
vt 0.400949001 0.737868011
vt 0.400949001 0.734930992
vt 0.511116028 0.734930992
vt 0.400949001 0.734930992
vt 0.510949016 0.73336798
vt 0.510949016 0.73336798
vt 0.400949001 0.734930992
vt 0.400949001 0.731805027
vt 0.510949016 0.73336798
vt 0.400949001 0.731805027
vt 0.511116028 0.731805027
vt 0.511116028 0.731805027
vt 0.400949001 0.731805027
vt 0.400949001 0.728868008
vt 0.511116028 0.731805027
vt 0.400949001 0.728868008
vt 0.511611998 0.730289996
vt -0.730289996 0.231682003
vt -0.728868008 0.232271999
vt -0.728868008 0.232271999
vt 0.511611998 0.730289996
vt 0.400949001 0.728868008
vt 0.512422025 0.728868008
vt 0.512422025 0.728868008
vt 0.400949001 0.728868008
vt 0.400949001 0.726473987
vt 0.512422025 0.728868008
vt 0.400949001 0.726473987
vt 0.513522029 0.727582991
vt -0.727582991 0.233071998
vt -0.726473987 0.234057993
vt -0.726473987 0.234057993
vt 0.513522029 0.727582991
vt 0.400949001 0.726473987
vt 0.514877975 0.726473987
vt -0.514877975 0.234057993
vt -0.400949001 0.234057993
vt -0.400949001 0.236463994
vt -0.514877975 0.234057993
vt -0.400949001 0.236463994
vt -0.516484022 0.235226005
vt -0.725557029 0.235226005
vt -0.724910975 0.236463994
vt -0.724910975 0.236463994
vt -0.516484022 0.235226005
vt -0.400949001 0.236463994
vt -0.518185973 0.236463994
vt -0.518185973 0.236463994
vt -0.400949001 0.236463994
vt -0.400949001 0.239199996
vt 1.15636802 0.223199993
vt 1.15636802 0.255199999
vt 0.148368001 0.223199993
vt 0.148368001 0.223199993
vt 1.15636802 0.255199999
vt 0.148368001 0.255199999
vt -0.516451001 0.112368003
vt -0.439451009 0.112368003
vt -0.516451001 0.148368001
vt -0.516451001 0.148368001
vt -0.439451009 0.112368003
vt -0.439451009 0.148368001
vt 0.148368001 0.195999995
vt 0.148368001 0.252000004
vt 0.112368003 0.195999995
vt 0.112368003 0.195999995
vt 0.148368001 0.252000004
vt 0.112368003 0.252000004
vt 0.516451001 0.148368001
vt 0.439451009 0.148368001
vt 0.516451001 0.112368003
vt 0.516451001 0.112368003
vt 0.439451009 0.148368001
vt 0.439451009 0.112368003
vt -0.148368001 0.252000004
vt -0.148368001 0.195999995
vt -0.112368003 0.252000004
vt -0.112368003 0.252000004
vt -0.148368001 0.195999995
vt -0.112368003 0.195999995
vt 0.518651009 0.253600001
vt 0.516451001 0.252000004
vt 0.518651009 -0.253600001
vt -0.396548986 0.252000004
vt -0.398748994 0.253600001
vt -0.396548986 -0.252000004
vt -0.398748994 0.253600001
vt -0.398748994 -0.253600001
vt -0.396548986 -0.252000004
vt -0.396548986 -0.252000004
vt -0.398748994 -0.253600001
vt 0.518651009 -0.253600001
vt 0.516451001 0.252000004
vt 0.516451001 -0.252000004
vt 0.518651009 -0.253600001
vt 0.518651009 -0.253600001
vt 0.516451001 -0.252000004
vt -0.396548986 -0.252000004
vt 0.516451001 0.634368002
vt 0.518651009 0.634368002
vt 0.516451001 0.670368016
vt 0.516451001 0.670368016
vt 0.518651009 0.634368002
vt 0.518651009 0.670368016
vt -0.634368002 -0.252000004
vt -0.634368002 0.252000004
vt -0.670368016 -0.252000004
vt -0.670368016 -0.252000004
vt -0.634368002 0.252000004
vt -0.670368016 0.252000004
vt -0.396548986 0.634368002
vt 0.516451001 0.634368002
vt -0.396548986 0.670368016
vt -0.396548986 0.670368016
vt 0.516451001 0.634368002
vt 0.516451001 0.670368016
vt 0.634368002 0.252000004
vt 0.634368002 -0.252000004
vt 0.670368016 0.252000004
vt 0.670368016 0.252000004
vt 0.634368002 -0.252000004
vt 0.670368016 -0.252000004
vt -0.396548986 0.670368016
vt -0.398748994 0.670368016
vt -0.396548986 0.634368002
vt -0.396548986 0.634368002
vt -0.398748994 0.670368016
vt -0.398748994 0.634368002
vt -0.670368016 0.253600001
vt -0.670368016 -0.253600001
vt -0.634368002 0.253600001
vt -0.634368002 0.253600001
vt -0.670368016 -0.253600001
vt -0.634368002 -0.253600001
vt 0.398748994 0.670368016
vt -0.518651009 0.670368016
vt 0.398748994 0.634368002
vt 0.398748994 0.634368002
vt -0.518651009 0.670368016
vt -0.518651009 0.634368002
vt 0.634368002 0.253600001
vt 0.634368002 -0.253600001
vt 0.670368016 0.253600001
vt 0.670368016 0.253600001
vt 0.634368002 -0.253600001
vt 0.670368016 -0.253600001
f 1/1 2/2 3/3
f 1/4 3/5 4/6
f 3/7 2/8 5/9
f 2/10 6/11 5/12
f 5/13 6/14 7/15
f 6/16 8/17 7/18
f 9/19 10/20 11/21
f 12/22 13/23 14/24
f 15/25 16/26 17/27
f 18/28 19/29 20/30
f 21/31 19/32 22/33
f 23/34 24/35 16/36
f 25/37 26/38 27/39
f 28/40 13/41 29/42
f 30/43 31/44 26/45
f 32/46 33/47 19/48
f 33/49 32/50 34/51
f 35/52 36/53 37/54
f 32/55 19/56 38/57
f 19/58 13/59 38/60
f 38/61 13/62 39/63
f 13/64 40/65 39/66
f 41/67 42/68 43/69
f 44/70 45/71 46/72
f 46/73 45/74 47/75
f 48/76 33/77 49/78
f 49/79 33/80 50/81
f 51/82 40/83 52/84
f 52/85 40/86 53/87
f 40/88 51/89 54/90
f 54/91 51/92 55/93
f 51/94 52/95 55/96
f 55/97 52/98 56/99
f 55/100 56/101 54/102
f 54/103 56/104 57/105
f 54/106 57/107 40/108
f 40/109 57/110 53/111
f 52/112 53/113 56/114
f 56/115 53/116 57/117
f 58/118 59/119 60/120
f 60/121 59/122 61/123
f 59/124 58/125 41/126
f 41/127 58/128 42/129
f 58/130 60/131 42/132
f 42/133 60/134 35/135
f 42/136 35/137 41/138
f 41/139 35/140 36/141
f 41/142 36/143 59/144
f 59/145 36/146 61/147
f 60/148 61/149 35/150
f 35/151 61/152 36/153
f 62/154 63/155 64/156
f 64/157 63/158 65/159
f 63/160 62/161 66/162
f 66/163 62/164 67/165
f 62/166 64/167 67/168
f 67/169 64/170 68/171
f 67/172 68/173 66/174
f 66/175 68/176 69/177
f 66/178 69/179 63/180
f 63/181 69/182 65/183
f 64/184 65/185 68/186
f 68/187 65/188 69/189
f 41/190 43/191 39/192
f 39/193 43/194 38/195
f 39/196 40/197 41/198
f 41/199 40/200 42/201
f 40/202 13/203 42/204
f 42/205 13/206 70/207
f 42/208 70/209 43/210
f 43/211 70/212 37/213
f 13/214 19/215 70/216
f 70/217 19/218 37/219
f 43/220 37/221 71/222
f 71/223 37/224 36/225
f 43/226 71/227 38/228
f 38/229 71/230 32/231
f 71/232 36/233 32/234
f 32/235 36/236 34/237
f 36/238 35/239 34/240
f 34/241 35/242 33/243
f 19/244 33/245 37/246
f 37/247 33/248 35/249
f 26/250 31/251 13/252
f 13/253 31/254 14/255
f 31/256 30/257 14/258
f 14/259 30/260 12/261
f 48/262 49/263 72/264
f 72/265 49/266 73/267
f 30/268 26/269 74/270
f 74/271 26/272 25/273
f 30/274 74/275 12/276
f 12/277 74/278 75/279
f 12/280 75/281 13/282
f 13/283 75/284 29/285
f 74/286 25/287 75/288
f 75/289 25/290 29/291
f 13/292 28/293 26/294
f 26/295 28/296 27/297
f 25/298 27/299 29/300
f 29/301 27/302 28/303
f 16/304 24/305 19/306
f 19/307 24/308 22/309
f 24/310 23/311 22/312
f 22/313 23/314 21/315
f 23/316 16/317 76/318
f 76/319 16/320 15/321
f 23/322 76/323 21/324
f 21/325 76/326 77/327
f 21/328 77/329 19/330
f 19/331 77/332 20/333
f 76/334 15/335 77/336
f 77/337 15/338 20/339
f 19/340 18/341 16/342
f 16/343 18/344 17/345
f 15/346 17/347 20/348
f 20/349 17/350 18/351
f 11/352 78/353 9/354
f 9/355 78/356 79/357
f 9/358 79/359 80/360
f 80/361 79/362 81/363
f 80/364 81/365 80/366
f 80/367 81/368 82/369
f 80/370 82/371 83/372
f 83/373 82/374 84/375
f 83/376 84/377 83/378
f 83/379 84/380 85/381
f 83/382 85/383 86/384
f 86/385 85/386 87/387
f 86/388 87/389 86/390
f 86/391 87/392 88/393
f 86/394 88/395 89/396
f 89/397 88/398 90/399
f 89/400 90/401 91/402
f 91/403 90/404 90/405
f 91/406 90/407 92/408
f 92/409 90/410 93/411
f 92/412 93/413 94/414
f 94/415 93/416 95/417
f 94/418 95/419 94/420
f 94/421 95/422 96/423
f 94/424 96/425 97/426
f 97/427 96/428 98/429
f 97/430 98/431 97/432
f 97/433 98/434 99/435
f 97/436 99/437 100/438
f 100/439 99/440 101/441
f 100/442 101/443 100/444
f 100/445 101/446 102/447
f 100/448 102/449 103/450
f 103/451 102/452 104/453
f 103/454 104/455 103/456
f 103/457 104/458 105/459
f 103/460 105/461 103/462
f 103/463 105/464 106/465
f 103/466 106/467 107/468
f 107/469 106/470 108/471
f 107/472 108/473 109/474
f 109/475 108/476 110/477
f 109/478 110/479 111/480
f 111/481 110/482 112/483
f 111/484 112/485 113/486
f 113/487 112/488 114/489
f 113/490 114/491 115/492
f 115/493 114/494 116/495
f 115/496 116/497 117/498
f 117/499 116/500 118/501
f 117/502 118/503 119/504
f 119/505 118/506 120/507
f 119/508 120/509 10/510
f 10/511 120/512 11/513
f 11/514 121/515 78/516
f 78/517 121/518 122/519
f 78/520 122/521 79/522
f 79/523 122/524 123/525
f 79/526 123/527 81/528
f 81/529 123/530 124/531
f 81/532 124/533 82/534
f 82/535 124/536 125/537
f 82/538 125/539 84/540
f 84/541 125/542 126/543
f 84/544 126/545 85/546
f 85/547 126/548 127/549
f 85/550 127/551 87/552
f 87/553 127/554 128/555
f 87/556 128/557 88/558
f 88/559 128/560 129/561
f 88/562 129/563 90/564
f 90/565 129/566 130/567
f 90/568 130/569 93/570
f 93/571 130/572 131/573
f 93/574 131/575 95/576
f 95/577 131/578 132/579
f 95/580 132/581 96/582
f 96/583 132/584 133/585
f 96/586 133/587 98/588
f 98/589 133/590 134/591
f 98/592 134/593 99/594
f 99/595 134/596 135/597
f 99/598 135/599 101/600
f 101/601 135/602 136/603
f 101/604 136/605 102/606
f 102/607 136/608 137/609
f 102/610 137/611 104/612
f 104/613 137/614 138/615
f 104/616 138/617 139/618
f 139/619 138/620 140/621
f 122/622 121/623 141/624
f 141/625 121/626 121/627
f 141/628 121/629 142/630
f 142/631 121/632 121/633
f 142/634 121/635 143/636
f 143/637 121/638 144/639
f 143/640 144/641 145/642
f 145/643 144/644 146/645
f 145/646 146/647 147/648
f 147/649 146/650 148/651
f 147/652 148/653 149/654
f 149/655 148/656 150/657
f 149/658 150/659 151/660
f 151/661 150/662 152/663
f 151/664 152/665 153/666
f 153/667 152/668 154/669
f 153/670 154/671 155/672
f 155/673 154/674 156/675
f 155/676 156/677 157/678
f 157/679 156/680 158/681
f 157/682 158/683 159/684
f 159/685 158/686 160/687
f 159/688 160/689 161/690
f 161/691 160/692 162/693
f 161/694 162/695 163/696
f 163/697 162/698 164/699
f 163/700 164/701 165/702
f 165/703 164/704 166/705
f 165/706 166/707 165/708
f 165/709 166/710 167/711
f 165/712 167/713 168/714
f 168/715 167/716 169/717
f 168/718 169/719 170/720
f 170/721 169/722 171/723
f 170/724 171/725 172/726
f 172/727 171/728 173/729
f 172/730 173/731 139/732
f 139/733 173/734 173/735
f 139/736 173/737 104/738
f 104/739 173/740 105/741
f 72/742 174/743 48/744
f 48/745 174/746 33/747
f 175/748 174/749 73/750
f 73/751 174/752 72/753
f 50/754 33/755 175/756
f 175/757 33/758 174/759
f 176/760 140/761 177/762
f 177/763 140/764 138/765
f 177/766 138/767 137/768
f 177/769 178/770 176/771
f 176/772 178/773 178/774
f 176/775 178/776 179/777
f 179/778 178/779 178/780
f 179/781 178/782 180/783
f 180/784 178/785 181/786
f 180/787 181/788 182/789
f 182/790 181/791 181/792
f 182/793 181/794 183/795
f 183/796 181/797 184/798
f 183/799 184/800 185/801
f 185/802 184/803 184/804
f 185/805 184/806 186/807
f 186/808 184/809 187/810
f 186/811 187/812 188/813
f 188/814 187/815 187/816
f 188/817 187/818 189/819
f 189/820 187/821 190/822
f 189/823 190/824 191/825
f 191/826 190/827 190/828
f 191/829 190/830 192/831
f 192/832 190/833 193/834
f 192/835 193/836 194/837
f 194/838 193/839 193/840
f 194/841 193/842 195/843
f 195/844 193/845 196/846
f 195/847 196/848 197/849
f 197/850 196/851 196/852
f 197/853 196/854 198/855
f 198/856 196/857 199/858
f 198/859 199/860 200/861
f 200/862 199/863 199/864
f 200/865 199/866 201/867
f 201/868 199/869 202/870
f 201/871 202/872 141/873
f 141/874 202/875 202/876
f 141/877 202/878 122/879
f 122/880 202/881 202/882
f 122/883 202/884 123/885
f 123/886 202/887 203/888
f 123/889 203/890 124/891
f 124/892 203/893 203/894
f 124/895 203/896 125/897
f 125/898 203/899 204/900
f 125/901 204/902 126/903
f 126/904 204/905 204/906
f 126/907 204/908 127/909
f 127/910 204/911 205/912
f 127/913 205/914 128/915
f 128/916 205/917 205/918
f 128/919 205/920 129/921
f 129/922 205/923 206/924
f 129/925 206/926 130/927
f 130/928 206/929 207/930
f 130/931 207/932 131/933
f 131/934 207/935 208/936
f 131/937 208/938 132/939
f 132/940 208/941 208/942
f 132/943 208/944 133/945
f 133/946 208/947 209/948
f 133/949 209/950 134/951
f 134/952 209/953 209/954
f 134/955 209/956 135/957
f 135/958 209/959 210/960
f 135/961 210/962 136/963
f 136/964 210/965 210/966
f 136/967 210/968 137/969
f 137/970 210/971 177/972
f 49/973 50/974 73/975
f 73/976 50/977 175/978
f 47/979 45/980 211/981
f 211/982 45/983 212/984
f 211/985 213/986 47/987
f 47/988 213/989 46/990
f 213/991 214/992 46/993
f 46/994 214/995 44/996
f 214/997 212/998 44/999
f 44/1000 212/1001 45/1002
f 68/1003 69/1004 215/1005
f 66/1006 67/1007 216/1008
f 67/1009 217/1010 216/1011
f 216/1012 217/1013 215/1014
f 69/1015 218/1016 215/1017
f 215/1018 218/1019 216/1020
f 69/1021 68/1022 4/1023
f 4/1024 68/1025 1/1026
f 218/1027 69/1028 3/1029
f 3/1030 69/1031 4/1032
f 216/1033 218/1034 5/1035
f 5/1036 218/1037 3/1038
f 66/1039 216/1040 7/1041
f 7/1042 216/1043 5/1044
f 7/1045 8/1046 66/1047
f 66/1048 8/1049 67/1050
f 8/1051 6/1052 67/1053
f 67/1054 6/1055 217/1056
f 6/1057 2/1058 217/1059
f 217/1060 2/1061 215/1062
f 68/1063 215/1064 1/1065
f 1/1066 215/1067 2/1068
