# Exported from USD for MuJoCo with source material subsets
v 1.38614423 -7.76168161 1.42671499
v 1.3861537 -7.77076631 1.43293364
v 1.3861537 -7.76194769 1.42635796
v 1.38606871 -7.77156311 1.4318648
v 1.08239842 -7.74117571 1.45421318
v 1.08239842 -7.78062969 1.40130413
v 1.01639844 -7.74117571 1.45421318
v 1.01639844 -7.78062969 1.40130413
v 1.38606871 -7.76274448 1.4252891
v 1.38569362 -7.77260357 1.43046964
v 1.38569362 -7.76378494 1.42389397
v 1.3850298 -7.77359062 1.42914543
v 1.3850298 -7.76477247 1.42256964
v 1.38409639 -7.77449709 1.42793009
v 1.38409639 -7.76567846 1.4213543
v 1.38292015 -7.77529579 1.4268587
v 1.38292015 -7.76647764 1.420283
v 1.38153494 -7.77596479 1.4259621
v 1.38153494 -7.76714664 1.41938639
v 1.37998075 -7.77648359 1.42526603
v 1.37998075 -7.76766544 1.41869048
v 1.3783021 -7.77683788 1.42479057
v 1.3783021 -7.76802021 1.41821501
v 1.37654734 -7.77701813 1.42454938
v 1.37654734 -7.7681995 1.41797367
v 1.37476701 -7.77701813 1.42454938
v 1.37476701 -7.7681995 1.41797367
v 1.37301231 -7.77683788 1.42479057
v 1.37301231 -7.76802021 1.41821501
v 1.37133372 -7.77648359 1.42526603
v 1.37133372 -7.76766544 1.41869048
v 1.36977947 -7.77596479 1.4259621
v 1.36977947 -7.76714664 1.41938639
v 1.36839426 -7.77529579 1.4268587
v 1.36839426 -7.76647764 1.420283
v 1.36721802 -7.77449709 1.42793009
v 1.36721802 -7.76567846 1.4213543
v 1.36628462 -7.77359062 1.42914543
v 1.36628462 -7.76477247 1.42256964
v 1.3656208 -7.77260357 1.43046964
v 1.3656208 -7.76378494 1.42389397
v 1.36524571 -7.77156311 1.4318648
v 1.36524571 -7.76274448 1.4252891
v 1.36517019 -7.77049976 1.4332907
v 1.36517019 -7.76168161 1.42671499
v 1.36539633 -7.76944357 1.43470646
v 1.36539633 -7.76062589 1.42813066
v 1.36591769 -7.76842647 1.4360711
v 1.36591769 -7.7596088 1.4294954
v 1.36671913 -7.76747614 1.43734539
v 1.36671913 -7.75865751 1.43076981
v 1.36777777 -7.76662021 1.43849284
v 1.36777777 -7.75780206 1.43191717
v 1.36906315 -7.7658835 1.43948052
v 1.36906315 -7.75706583 1.43290482
v 1.37053812 -7.76528793 1.4402797
v 1.37053812 -7.75646978 1.43370391
v 1.37216038 -7.76484972 1.44086761
v 1.37216038 -7.75603109 1.43429179
v 1.37388331 -7.76458174 1.44122709
v 1.37388331 -7.75576311 1.43465153
v 1.37565721 -7.76449114 1.4413482
v 1.37565721 -7.75567251 1.4347725
v 1.3774311 -7.76458174 1.44122709
v 1.3774311 -7.75576311 1.43465153
v 1.37915403 -7.76484972 1.44086761
v 1.37915403 -7.75603109 1.43429179
v 1.38077635 -7.76528793 1.4402797
v 1.38077635 -7.75646978 1.43370391
v 1.38225133 -7.7658835 1.43948052
v 1.38225133 -7.75706583 1.43290482
v 1.38353664 -7.76662021 1.43849284
v 1.38353664 -7.75780206 1.43191717
v 1.38459528 -7.76747614 1.43734539
v 1.38459528 -7.75865751 1.43076981
v 1.38539679 -7.76842647 1.4360711
v 1.38539679 -7.7596088 1.4294954
v 1.38591809 -7.76944357 1.43470646
v 1.38591809 -7.76062589 1.42813066
v 1.38614423 -7.77049976 1.4332907
v 1.07728089 -7.78265243 1.44459466
v 1.07707763 -7.76300722 1.4341375
v 1.07707763 -7.78064352 1.44728888
v 1.07618005 -7.76037889 1.43766204
v 1.07618005 -7.77801567 1.45081339
v 1.07458884 -7.75787121 1.44102544
v 1.07458884 -7.77550751 1.45417679
v 1.0723452 -7.75554758 1.44414068
v 1.0723452 -7.77318388 1.45729203
v 1.06950731 -7.75347 1.44692717
v 1.06950731 -7.77110678 1.46007843
v 1.06614853 -7.7516914 1.44931231
v 1.06614853 -7.7693277 1.4624638
v 1.062356 -7.75025755 1.45123503
v 1.06235594 -7.76789385 1.46438641
v 1.0582279 -7.74920612 1.45264507
v 1.05822784 -7.76684242 1.4657963
v 1.05387104 -7.74856478 1.45350579
v 1.05387098 -7.7662006 1.46665717
v 1.04939843 -7.74834877 1.45379535
v 1.04939837 -7.76598459 1.46694673
v 1.04492576 -7.74856478 1.45350579
v 1.04492576 -7.7662006 1.46665717
v 1.04056884 -7.74920612 1.45264507
v 1.04056884 -7.76684242 1.4657963
v 1.0364408 -7.75025755 1.45123503
v 1.03644074 -7.76789385 1.46438641
v 1.03264821 -7.7516914 1.44931231
v 1.03264821 -7.7693277 1.4624638
v 1.02928943 -7.75347 1.44692717
v 1.02928943 -7.77110678 1.46007843
v 1.02645153 -7.75554758 1.44414068
v 1.02645153 -7.77318388 1.45729203
v 1.02420796 -7.75787121 1.44102544
v 1.02420796 -7.77550751 1.45417679
v 1.02261681 -7.76037889 1.43766204
v 1.02261681 -7.77801519 1.45081339
v 1.02171922 -7.76300722 1.4341375
v 1.02171922 -7.78064352 1.44728888
v 1.02153856 -7.76568752 1.43054313
v 1.02153856 -7.78332382 1.44369451
v 1.02207941 -7.76835066 1.42697222
v 1.02207941 -7.78598648 1.44012371
v 1.02332789 -7.77092653 1.42351714
v 1.02332789 -7.78856283 1.43666849
v 1.02525145 -7.77335029 1.42026714
v 1.02525145 -7.79098659 1.43341864
v 1.02780051 -7.77555757 1.41730679
v 1.02780051 -7.79319435 1.43045817
v 1.03090895 -7.7774921 1.41471256
v 1.03090889 -7.79512888 1.42786393
v 1.03449614 -7.77910381 1.41255144
v 1.03449608 -7.79674011 1.42570279
v 1.03846932 -7.78035074 1.4108798
v 1.03846932 -7.79798656 1.42403106
v 1.04272563 -7.78119951 1.40974066
v 1.04272557 -7.79883581 1.42289213
v 1.04715479 -7.78163009 1.40916363
v 1.04715479 -7.79926639 1.42231501
v 1.05164195 -7.78163009 1.40916363
v 1.05164195 -7.79926639 1.42231501
v 1.05607111 -7.78119951 1.40974066
v 1.05607105 -7.79883676 1.42289213
v 1.06032742 -7.78035074 1.4108798
v 1.06032742 -7.79798656 1.42403106
v 1.0643006 -7.77910381 1.41255144
v 1.0643006 -7.79674011 1.42570279
v 1.06788791 -7.7774921 1.41471256
v 1.06788791 -7.79512888 1.42786393
v 1.07099635 -7.77555757 1.41730679
v 1.07099629 -7.79319435 1.43045817
v 1.07354528 -7.77335029 1.42026714
v 1.07354528 -7.79098659 1.43341864
v 1.07546896 -7.77092653 1.42351714
v 1.07546896 -7.78856283 1.43666849
v 1.07671744 -7.76835066 1.42697222
v 1.07671744 -7.78598648 1.44012371
v 1.07725836 -7.76568752 1.43054313
v 1.07725836 -7.78332382 1.44369451
v 1.07728089 -7.76501613 1.43144316
v 1.37565721 -7.77076631 1.43293364
v 1.04939843 -7.78265243 1.44459466
v 1.04939843 -7.76501613 1.43144316
v 1.37565721 -7.76194769 1.42635796
v 1.08239842 -7.785039 1.40459198
v 1.08239842 -7.74558502 1.457501
v 1.01639844 -7.785039 1.40459198
v 1.01639844 -7.74558502 1.457501
vt 1.29383004 0.372949988
vt 1.29948401 0.381208986
vt 1.29350603 0.373192012
vt 1.29350603 0.373192012
vt 1.29948401 0.381208986
vt 1.29851198 0.381933004
vt -0.344999999 1.31882906
vt -0.344999999 1.27073002
vt -0.284999996 1.31882906
vt -0.284999996 1.31882906
vt -0.344999999 1.27073002
vt -0.284999996 1.27073002
vt 1.29350603 0.373192012
vt 1.29851198 0.381933004
vt 1.29253399 0.373917013
vt 1.29253399 0.373917013
vt 1.29851198 0.381933004
vt 1.29724395 0.382878989
vt 1.29253399 0.373917013
vt 1.29724395 0.382878989
vt 1.29126596 0.374862999
vt 1.29126596 0.374862999
vt 1.29724395 0.382878989
vt 1.29604006 0.383776993
vt 1.29126596 0.374862999
vt 1.29604006 0.383776993
vt 1.29006195 0.375759989
vt 1.29006195 0.375759989
vt 1.29604006 0.383776993
vt 1.29493499 0.384600997
vt 1.29006195 0.375759989
vt 1.29493499 0.384600997
vt 1.288957 0.376583993
vt 1.288957 0.376583993
vt 1.29493499 0.384600997
vt 1.29396105 0.385327011
vt 1.288957 0.376583993
vt 1.29396105 0.385327011
vt 1.28798294 0.377310008
vt 1.28798294 0.377310008
vt 1.29396105 0.385327011
vt 1.29314601 0.385935009
vt 1.28798294 0.377310008
vt 1.29314601 0.385935009
vt 1.28716803 0.377918005
vt 0.616943002 0.377918005
vt 0.616943002 0.385935009
vt 0.615530014 0.386406988
vt 0.616943002 0.377918005
vt 0.615530014 0.386406988
vt 0.615530014 0.378390014
vt 0.615530014 0.378390014
vt 0.615530014 0.386406988
vt 0.614004016 0.386729002
vt 0.615530014 0.378390014
vt 0.614004016 0.386729002
vt 0.614004016 0.378713012
vt 0.614004016 0.378713012
vt 0.614004016 0.386729002
vt 0.612407982 0.386891991
vt 0.614004016 0.378713012
vt 0.612407982 0.386891991
vt 0.612407982 0.378876001
vt 0.612407982 0.378876001
vt 0.612407982 0.386891991
vt 0.610790014 0.386891991
vt 0.612407982 0.378876001
vt 0.610790014 0.386891991
vt 0.610790014 0.378876001
vt 0.610790014 0.378876001
vt 0.610790014 0.386891991
vt 0.609194994 0.386729002
vt 0.610790014 0.378876001
vt 0.609194994 0.386729002
vt 0.609194994 0.378713012
vt 0.609194994 0.378713012
vt 0.609194994 0.386729002
vt 0.607668996 0.386406988
vt 0.609194994 0.378713012
vt 0.607668996 0.386406988
vt 0.607668996 0.378390014
vt 0.607668996 0.378390014
vt 0.607668996 0.386406988
vt 0.606256008 0.385935009
vt 0.607668996 0.378390014
vt 0.606256008 0.385935009
vt 0.606256008 0.377918005
vt -1.28716803 0.377918005
vt -1.29314601 0.385935009
vt -1.29396105 0.385327011
vt -1.28716803 0.377918005
vt -1.29396105 0.385327011
vt -1.28798294 0.377310008
vt -1.28798294 0.377310008
vt -1.29396105 0.385327011
vt -1.29493499 0.384600997
vt -1.28798294 0.377310008
vt -1.29493499 0.384600997
vt -1.288957 0.376583993
vt -1.288957 0.376583993
vt -1.29493499 0.384600997
vt -1.29604006 0.383776993
vt -1.288957 0.376583993
vt -1.29604006 0.383776993
vt -1.29006195 0.375759989
vt -1.29006195 0.375759989
vt -1.29604006 0.383776993
vt -1.29724395 0.382878989
vt -1.29006195 0.375759989
vt -1.29724395 0.382878989
vt -1.29126596 0.374862999
vt -1.29126596 0.374862999
vt -1.29724395 0.382878989
vt -1.29851198 0.381933004
vt -1.29126596 0.374862999
vt -1.29851198 0.381933004
vt -1.29253399 0.373917013
vt -1.29253399 0.373917013
vt -1.29851198 0.381933004
vt -1.29980803 0.380966991
vt -1.29253399 0.373917013
vt -1.29980803 0.380966991
vt -1.29383004 0.372949988
vt -1.29383004 0.372949988
vt -1.29980803 0.380966991
vt -1.30109501 0.380006999
vt -1.29383004 0.372949988
vt -1.30109501 0.380006999
vt -1.29511702 0.371991009
vt -1.29511702 0.371991009
vt -1.30109501 0.380006999
vt -1.30233598 0.379081994
vt -1.29511702 0.371991009
vt -1.30233598 0.379081994
vt -1.29635799 0.371064991
vt -1.29635799 0.371064991
vt -1.30233598 0.379081994
vt -1.30349398 0.378217995
vt -1.29635799 0.371064991
vt -1.30349398 0.378217995
vt -1.29751694 0.370200992
vt -1.29751694 0.370200992
vt -1.30349398 0.378217995
vt -1.30453801 0.377440006
vt -1.29751694 0.370200992
vt -1.30453801 0.377440006
vt -1.29856002 0.369423985
vt -1.29856002 0.369423985
vt -1.30453801 0.377440006
vt -1.30543494 0.376771003
vt -1.29856002 0.369423985
vt -1.30543494 0.376771003
vt -1.29945695 0.368753999
vt -0.605603993 0.368753999
vt -0.605603993 0.376771003
vt -0.606944978 0.376228988
vt -0.605603993 0.368753999
vt -0.606944978 0.376228988
vt -0.606944978 0.368212014
vt -0.606944978 0.368212014
vt -0.606944978 0.376228988
vt -0.608420014 0.375829995
vt -0.606944978 0.368212014
vt -0.608420014 0.375829995
vt -0.608420014 0.367814004
vt -0.608420014 0.367814004
vt -0.608420014 0.375829995
vt -0.609986007 0.375586987
vt -0.608420014 0.367814004
vt -0.609986007 0.375586987
vt -0.609986007 0.367570013
vt -0.609986007 0.367570013
vt -0.609986007 0.375586987
vt -0.611599028 0.375503987
vt -0.609986007 0.367570013
vt -0.611599028 0.375503987
vt -0.611599028 0.367487997
vt -0.611599028 0.367487997
vt -0.611599028 0.375503987
vt -0.613211989 0.375586987
vt -0.611599028 0.367487997
vt -0.613211989 0.375586987
vt -0.613211989 0.367570013
vt -0.613211989 0.367570013
vt -0.613211989 0.375586987
vt -0.614777982 0.375829995
vt -0.613211989 0.367570013
vt -0.614777982 0.375829995
vt -0.614777982 0.367814004
vt -0.614777982 0.367814004
vt -0.614777982 0.375829995
vt -0.616253018 0.376228988
vt -0.614777982 0.367814004
vt -0.616253018 0.376228988
vt -0.616253018 0.368212014
vt -0.616253018 0.368212014
vt -0.616253018 0.376228988
vt -0.617594004 0.376771003
vt -0.616253018 0.368212014
vt -0.617594004 0.376771003
vt -0.617594004 0.368753999
vt 1.29945695 0.368753999
vt 1.30543494 0.376771003
vt 1.30453801 0.377440006
vt 1.29945695 0.368753999
vt 1.30453801 0.377440006
vt 1.29856002 0.369423985
vt 1.29856002 0.369423985
vt 1.30453801 0.377440006
vt 1.30349398 0.378217995
vt 1.29856002 0.369423985
vt 1.30349398 0.378217995
vt 1.29751694 0.370200992
vt 1.29751694 0.370200992
vt 1.30349398 0.378217995
vt 1.30233598 0.379081994
vt 1.29751694 0.370200992
vt 1.30233598 0.379081994
vt 1.29635799 0.371064991
vt 1.29635799 0.371064991
vt 1.30233598 0.379081994
vt 1.30109501 0.380006999
vt 1.29635799 0.371064991
vt 1.30109501 0.380006999
vt 1.29511702 0.371991009
vt 1.29511702 0.371991009
vt 1.30109501 0.380006999
vt 1.29980803 0.380966991
vt 1.29511702 0.371991009
vt 1.29980803 0.380966991
vt 1.29383004 0.372949988
vt 1.29383004 0.372949988
vt 1.29980803 0.380966991
vt 1.29948401 0.381208986
vt 1.31008506 0.39201501
vt 1.300578 0.374155998
vt 1.31253397 0.390188992
vt 1.31253397 0.390188992
vt 1.300578 0.374155998
vt 1.30378199 0.371766001
vt 1.31253397 0.390188992
vt 1.30378199 0.371766001
vt 1.31573796 0.387798995
vt 1.31573796 0.387798995
vt 1.30378199 0.371766001
vt 1.30683994 0.369486004
vt 1.31573796 0.387798995
vt 1.30683994 0.369486004
vt 1.31879604 0.385518998
vt 1.31879604 0.385518998
vt 1.30683994 0.369486004
vt 1.309672 0.367374003
vt 1.31879604 0.385518998
vt 1.309672 0.367374003
vt 1.32162797 0.383406997
vt 1.32162797 0.383406997
vt 1.309672 0.367374003
vt 1.31220496 0.365485013
vt 1.32162797 0.383406997
vt 1.31220496 0.365485013
vt 1.32416105 0.381518006
vt 1.32416105 0.381518006
vt 1.31220496 0.365485013
vt 1.31437302 0.363867998
vt 1.32416105 0.381518006
vt 1.31437302 0.363867998
vt 1.32632899 0.379900992
vt -0.330228001 0.379900992
vt -0.330228001 0.363867998
vt -0.326779991 0.362565011
vt -0.330228001 0.379900992
vt -0.326779991 0.362565011
vt -0.326779991 0.378598005
vt -0.326779991 0.378598005
vt -0.326779991 0.362565011
vt -0.323027015 0.361609012
vt -0.326779991 0.378598005
vt -0.323027015 0.361609012
vt -0.323027015 0.377642006
vt -0.323027015 0.377642006
vt -0.323027015 0.361609012
vt -0.319065988 0.361025989
vt -0.323027015 0.377642006
vt -0.319065988 0.361025989
vt -0.319065988 0.377059013
vt -0.319065988 0.377059013
vt -0.319065988 0.361025989
vt -0.314999998 0.360828996
vt -0.319065988 0.377059013
vt -0.314999998 0.360828996
vt -0.314999998 0.376861989
vt -0.314999998 0.376861989
vt -0.314999998 0.360828996
vt -0.310934007 0.361025989
vt -0.314999998 0.376861989
vt -0.310934007 0.361025989
vt -0.310934007 0.377059013
vt -0.310934007 0.377059013
vt -0.310934007 0.361025989
vt -0.30697301 0.361609012
vt -0.310934007 0.377059013
vt -0.30697301 0.361609012
vt -0.30697301 0.377642006
vt -0.30697301 0.377642006
vt -0.30697301 0.361609012
vt -0.303220004 0.362565011
vt -0.30697301 0.377642006
vt -0.303220004 0.362565011
vt -0.303220004 0.378598005
vt -0.303220004 0.378598005
vt -0.303220004 0.362565011
vt -0.299773008 0.363867998
vt -0.303220004 0.378598005
vt -0.299773008 0.363867998
vt -0.299773008 0.379900992
vt -1.32632899 0.379900992
vt -1.31437302 0.363867998
vt -1.31220496 0.365485013
vt -1.32632899 0.379900992
vt -1.31220496 0.365485013
vt -1.32416105 0.381518006
vt -1.32416105 0.381518006
vt -1.31220496 0.365485013
vt -1.309672 0.367374003
vt -1.32416105 0.381518006
vt -1.309672 0.367374003
vt -1.32162797 0.383406997
vt -1.32162797 0.383406997
vt -1.309672 0.367374003
vt -1.30683994 0.369486004
vt -1.32162797 0.383406997
vt -1.30683994 0.369486004
vt -1.31879604 0.385518998
vt -1.31879604 0.385518998
vt -1.30683994 0.369486004
vt -1.30378199 0.371766001
vt -1.31879604 0.385518998
vt -1.30378199 0.371766001
vt -1.31573796 0.387798995
vt -1.31573796 0.387798995
vt -1.30378199 0.371766001
vt -1.300578 0.374155998
vt -1.31573796 0.387798995
vt -1.300578 0.374155998
vt -1.31253397 0.390188992
vt -1.31253397 0.390188992
vt -1.300578 0.374155998
vt -1.29731095 0.37659201
vt -1.31253397 0.390188992
vt -1.29731095 0.37659201
vt -1.30926597 0.392625004
vt -1.30926597 0.392625004
vt -1.29731095 0.37659201
vt -1.29406404 0.379013002
vt -1.30926597 0.392625004
vt -1.29406404 0.379013002
vt -1.30602002 0.395045996
vt -1.30602002 0.395045996
vt -1.29406404 0.379013002
vt -1.290923 0.381354988
vt -1.30602002 0.395045996
vt -1.290923 0.381354988
vt -1.30287898 0.397388011
vt -1.30287898 0.397388011
vt -1.290923 0.381354988
vt -1.28796899 0.383558005
vt -1.30287898 0.397388011
vt -1.28796899 0.383558005
vt -1.29992497 0.399590999
vt -1.29992497 0.399590999
vt -1.28796899 0.383558005
vt -1.28527796 0.385565013
vt -1.29992497 0.399590999
vt -1.28527796 0.385565013
vt -1.29723299 0.401598006
vt -1.29723299 0.401598006
vt -1.28527796 0.385565013
vt -1.28291905 0.387324005
vt -1.29723299 0.401598006
vt -1.28291905 0.387324005
vt -1.29487503 0.403356999
vt 0.298191994 0.403356999
vt 0.298191994 0.387324005
vt 0.301452994 0.388788998
vt 0.298191994 0.403356999
vt 0.301452994 0.388788998
vt 0.301452994 0.404821992
vt 0.301452994 0.404821992
vt 0.301452994 0.388788998
vt 0.305065006 0.389921993
vt 0.301452994 0.404821992
vt 0.305065006 0.389921993
vt 0.305065006 0.405954987
vt 0.305065006 0.405954987
vt 0.305065006 0.389921993
vt 0.308934003 0.390693992
vt 0.305065006 0.405954987
vt 0.308934003 0.390693992
vt 0.308934003 0.406726986
vt 0.308934003 0.406726986
vt 0.308934003 0.390693992
vt 0.312961012 0.391084999
vt 0.308934003 0.406726986
vt 0.312961012 0.391084999
vt 0.312961012 0.407119006
vt 0.312961012 0.407119006
vt 0.312961012 0.391084999
vt 0.317039996 0.391084999
vt 0.312961012 0.407119006
vt 0.317039996 0.391084999
vt 0.317039996 0.407119006
vt 0.317039996 0.407119006
vt 0.317039996 0.391084999
vt 0.321065992 0.390693992
vt 0.317039996 0.407119006
vt 0.321065992 0.390693992
vt 0.321065992 0.406726986
vt 0.321065992 0.406726986
vt 0.321065992 0.390693992
vt 0.324936002 0.389921993
vt 0.321065992 0.406726986
vt 0.324936002 0.389921993
vt 0.324936002 0.405954987
vt 0.324936002 0.405954987
vt 0.324936002 0.389921993
vt 0.328548014 0.388788998
vt 0.324936002 0.405954987
vt 0.328548014 0.388788998
vt 0.328548014 0.404821992
vt 0.328548014 0.404821992
vt 0.328548014 0.388788998
vt 0.331809014 0.387324005
vt 0.328548014 0.404821992
vt 0.331809014 0.387324005
vt 0.331809014 0.403356999
vt 1.29487503 0.403356999
vt 1.28291905 0.387324005
vt 1.28527796 0.385565013
vt 1.29487503 0.403356999
vt 1.28527796 0.385565013
vt 1.29723299 0.401598006
vt 1.29723299 0.401598006
vt 1.28527796 0.385565013
vt 1.28796899 0.383558005
vt 1.29723299 0.401598006
vt 1.28796899 0.383558005
vt 1.29992497 0.399590999
vt 1.29992497 0.399590999
vt 1.28796899 0.383558005
vt 1.290923 0.381354988
vt 1.29992497 0.399590999
vt 1.290923 0.381354988
vt 1.30287898 0.397388011
vt 1.30287898 0.397388011
vt 1.290923 0.381354988
vt 1.29406404 0.379013002
vt 1.30287898 0.397388011
vt 1.29406404 0.379013002
vt 1.30602002 0.395045996
vt 1.30602002 0.395045996
vt 1.29406404 0.379013002
vt 1.29731095 0.37659201
vt 1.30602002 0.395045996
vt 1.29731095 0.37659201
vt 1.30926597 0.392625004
vt 1.30926597 0.392625004
vt 1.29731095 0.37659201
vt 1.31008506 0.39201501
vt 1.300578 0.374155998
vt 1.31008506 0.39201501
vt 1.29812896 0.375981987
vt 1.29812896 0.375981987
vt 1.31008506 0.39201501
vt 1.29731095 0.37659201
vt 0.620723009 1.29724395
vt 0.621064007 1.29851198
vt 0.611599028 1.29948401
vt 0.611599028 1.29948401
vt 0.621064007 1.29851198
vt 0.621141016 1.29948401
vt -1.29948401 0.381208986
vt -1.29948401 0.381208986
vt -1.29948401 0.381208986
vt 0.611599028 1.29948401
vt 0.621141016 1.29948401
vt 0.621133029 1.29980803
vt -1.29948401 0.381208986
vt -1.29980803 0.380966991
vt -1.29948401 0.381208986
vt 0.611599028 1.29948401
vt 0.621133029 1.29980803
vt 0.620926976 1.30109501
vt -1.29948401 0.381208986
vt -1.30109501 0.380006999
vt -1.29948401 0.381208986
vt 0.611599028 1.29948401
vt 0.620926976 1.30109501
vt 0.620453 1.30233598
vt -1.29948401 0.381208986
vt -1.30233598 0.379081994
vt -1.29948401 0.381208986
vt 0.611599028 1.29948401
vt 0.620453 1.30233598
vt 0.619724989 1.30349398
vt -1.29948401 0.381208986
vt -1.30349398 0.378217995
vt -1.29948401 0.381208986
vt 0.611599028 1.29948401
vt 0.619724989 1.30349398
vt 0.618762016 1.30453801
vt -1.29948401 0.381208986
vt -1.30453801 0.377440006
vt -1.29948401 0.381208986
vt 0.611599028 1.29948401
vt 0.618762016 1.30453801
vt 0.617594004 1.30543494
vt -1.29948401 0.381208986
vt -1.30543494 0.376771003
vt -1.29948401 0.381208986
vt 0.611599028 1.29948401
vt 0.617594004 1.30543494
vt 0.616253018 1.306162
vt -1.29948401 0.381208986
vt -1.306162 0.376228988
vt -1.29948401 0.381208986
vt 0.611599028 1.29948401
vt 0.616253018 1.306162
vt 0.614777982 1.30669606
vt -1.29948401 0.381208986
vt -1.30669606 0.375829995
vt -1.29948401 0.381208986
vt 0.611599028 1.29948401
vt 0.614777982 1.30669606
vt 0.613211989 1.30702305
vt -1.29948401 0.381208986
vt -1.30702305 0.375586987
vt -1.29948401 0.381208986
vt 0.611599028 1.29948401
vt 0.613211989 1.30702305
vt 0.611599028 1.30713296
vt -1.29948401 0.381208986
vt -1.30713296 0.375503987
vt -1.29948401 0.381208986
vt 0.611599028 1.29948401
vt 0.611599028 1.30713296
vt 0.609986007 1.30702305
vt -1.29948401 0.381208986
vt -1.30702305 0.375586987
vt -1.29948401 0.381208986
vt 0.611599028 1.29948401
vt 0.609986007 1.30702305
vt 0.608420014 1.30669606
vt -1.29948401 0.381208986
vt -1.30669606 0.375829995
vt -1.29948401 0.381208986
vt 0.611599028 1.29948401
vt 0.608420014 1.30669606
vt 0.606944978 1.306162
vt -1.29948401 0.381208986
vt -1.306162 0.376228988
vt -1.29948401 0.381208986
vt 0.611599028 1.29948401
vt 0.606944978 1.306162
vt 0.605603993 1.30543494
vt -1.29948401 0.381208986
vt -1.30543494 0.376771003
vt -1.29948401 0.381208986
vt 0.611599028 1.29948401
vt 0.605603993 1.30543494
vt 0.60443598 1.30453801
vt -1.29948401 0.381208986
vt -1.30453801 0.377440006
vt -1.29948401 0.381208986
vt 0.611599028 1.29948401
vt 0.60443598 1.30453801
vt 0.603474021 1.30349398
vt -1.29948401 0.381208986
vt -1.30349398 0.378217995
vt -1.29948401 0.381208986
vt 0.611599028 1.29948401
vt 0.603474021 1.30349398
vt 0.602744997 1.30233598
vt -1.29948401 0.381208986
vt -1.30233598 0.379081994
vt -1.29948401 0.381208986
vt 0.611599028 1.29948401
vt 0.602744997 1.30233598
vt 0.60227102 1.30109501
vt -1.29948401 0.381208986
vt -1.30109501 0.380006999
vt -1.29948401 0.381208986
vt 0.611599028 1.29948401
vt 0.60227102 1.30109501
vt 0.602065027 1.29980803
vt -1.29948401 0.381208986
vt -1.29980803 0.380966991
vt -1.29948401 0.381208986
vt 0.611599028 1.29948401
vt 0.602065027 1.29980803
vt 0.602133989 1.29851198
vt -1.29948401 0.381208986
vt -1.29851198 0.381933004
vt -1.29948401 0.381208986
vt 0.611599028 1.29948401
vt 0.602133989 1.29851198
vt 0.602474988 1.29724395
vt -1.29948401 0.381208986
vt -1.29724395 0.382878989
vt -1.29948401 0.381208986
vt 0.611599028 1.29948401
vt 0.602474988 1.29724395
vt 0.603079021 1.29604006
vt -1.29948401 0.381208986
vt -1.29604006 0.383776993
vt -1.29948401 0.381208986
vt 0.611599028 1.29948401
vt 0.603079021 1.29604006
vt 0.603927016 1.29493499
vt -1.29948401 0.381208986
vt -1.29493499 0.384600997
vt -1.29948401 0.381208986
vt 0.611599028 1.29948401
vt 0.603927016 1.29493499
vt 0.604996026 1.29396105
vt -1.29948401 0.381208986
vt -1.29396105 0.385327011
vt -1.29948401 0.381208986
vt 0.611599028 1.29948401
vt 0.604996026 1.29396105
vt 0.606256008 1.29314601
vt -1.29948401 0.381208986
vt -1.29314601 0.385935009
vt -1.29948401 0.381208986
vt 0.611599028 1.29948401
vt 0.606256008 1.29314601
vt 0.607668996 1.29251301
vt -1.29948401 0.381208986
vt -1.29251301 0.386406988
vt -1.29948401 0.381208986
vt 0.611599028 1.29948401
vt 0.607668996 1.29251301
vt 0.609194994 1.292081
vt -1.29948401 0.381208986
vt -1.292081 0.386729002
vt -1.29948401 0.381208986
vt 0.611599028 1.29948401
vt 0.609194994 1.292081
vt 0.610790014 1.29186201
vt -1.29948401 0.381208986
vt -1.29186201 0.386891991
vt -1.29948401 0.381208986
vt 0.611599028 1.29948401
vt 0.610790014 1.29186201
vt 0.612407982 1.29186201
vt -1.29948401 0.381208986
vt -1.29186201 0.386891991
vt -1.29948401 0.381208986
vt 0.611599028 1.29948401
vt 0.612407982 1.29186201
vt 0.614004016 1.292081
vt -1.29948401 0.381208986
vt -1.292081 0.386729002
vt -1.29948401 0.381208986
vt 0.611599028 1.29948401
vt 0.614004016 1.292081
vt 0.615530014 1.29251301
vt -1.29948401 0.381208986
vt -1.29251301 0.386406988
vt -1.29948401 0.381208986
vt 0.611599028 1.29948401
vt 0.615530014 1.29251301
vt 0.616943002 1.29314601
vt -1.29948401 0.381208986
vt -1.29314601 0.385935009
vt -1.29948401 0.381208986
vt 0.611599028 1.29948401
vt 0.616943002 1.29314601
vt 0.618201971 1.29396105
vt -1.29948401 0.381208986
vt -1.29396105 0.385327011
vt -1.29948401 0.381208986
vt 0.611599028 1.29948401
vt 0.618201971 1.29396105
vt 0.61927098 1.29493499
vt -1.29948401 0.381208986
vt -1.29493499 0.384600997
vt -1.29948401 0.381208986
vt 0.611599028 1.29948401
vt 0.61927098 1.29493499
vt 0.620119989 1.29604006
vt 0.611599028 1.29948401
vt 0.620119989 1.29604006
vt 0.620723009 1.29724395
vt 0.340326995 1.30926597
vt 0.340348005 1.31008506
vt 0.314999998 1.31008506
vt 0.314999998 1.31008506
vt 0.340348005 1.31008506
vt 0.340162992 1.31253397
vt -1.31008506 0.39201501
vt -1.31253397 0.390188992
vt -1.31008506 0.39201501
vt 0.314999998 1.31008506
vt 0.340162992 1.31253397
vt 0.339347005 1.31573796
vt -1.31008506 0.39201501
vt -1.31573796 0.387798995
vt -1.31008506 0.39201501
vt 0.314999998 1.31008506
vt 0.339347005 1.31573796
vt 0.337900996 1.31879604
vt -1.31008506 0.39201501
vt -1.31879604 0.385518998
vt -1.31008506 0.39201501
vt 0.314999998 1.31008506
vt 0.337900996 1.31879604
vt 0.335860997 1.32162797
vt -1.31008506 0.39201501
vt -1.32162797 0.383406997
vt -1.31008506 0.39201501
vt 0.314999998 1.31008506
vt 0.335860997 1.32162797
vt 0.33328101 1.32416105
vt -1.31008506 0.39201501
vt -1.32416105 0.381518006
vt -1.31008506 0.39201501
vt 0.314999998 1.31008506
vt 0.33328101 1.32416105
vt 0.330228001 1.32632899
vt -1.31008506 0.39201501
vt -1.32632899 0.379900992
vt -1.31008506 0.39201501
vt 0.314999998 1.31008506
vt 0.330228001 1.32632899
vt 0.326779991 1.32807696
vt -1.31008506 0.39201501
vt -1.32807696 0.378598005
vt -1.31008506 0.39201501
vt 0.314999998 1.31008506
vt 0.326779991 1.32807696
vt 0.323027015 1.32935905
vt -1.31008506 0.39201501
vt -1.32935905 0.377642006
vt -1.31008506 0.39201501
vt 0.314999998 1.31008506
vt 0.323027015 1.32935905
vt 0.319065988 1.33014202
vt -1.31008506 0.39201501
vt -1.33014202 0.377059013
vt -1.31008506 0.39201501
vt 0.314999998 1.31008506
vt 0.319065988 1.33014202
vt 0.314999998 1.330405
vt -1.31008506 0.39201501
vt -1.330405 0.376861989
vt -1.31008506 0.39201501
vt 0.314999998 1.31008506
vt 0.314999998 1.330405
vt 0.310934007 1.33014202
vt -1.31008506 0.39201501
vt -1.33014202 0.377059013
vt -1.31008506 0.39201501
vt 0.314999998 1.31008506
vt 0.310934007 1.33014202
vt 0.30697301 1.32935905
vt -1.31008506 0.39201501
vt -1.32935905 0.377642006
vt -1.31008506 0.39201501
vt 0.314999998 1.31008506
vt 0.30697301 1.32935905
vt 0.303220004 1.32807696
vt -1.31008506 0.39201501
vt -1.32807696 0.378598005
vt -1.31008506 0.39201501
vt 0.314999998 1.31008506
vt 0.303220004 1.32807696
vt 0.299773008 1.32632899
vt -1.31008506 0.39201501
vt -1.32632899 0.379900992
vt -1.31008506 0.39201501
vt 0.314999998 1.31008506
vt 0.299773008 1.32632899
vt 0.296719015 1.32416105
vt -1.31008506 0.39201501
vt -1.32416105 0.381518006
vt -1.31008506 0.39201501
vt 0.314999998 1.31008506
vt 0.296719015 1.32416105
vt 0.294138998 1.32162797
vt -1.31008506 0.39201501
vt -1.32162797 0.383406997
vt -1.31008506 0.39201501
vt 0.314999998 1.31008506
vt 0.294138998 1.32162797
vt 0.292100012 1.31879604
vt -1.31008506 0.39201501
vt -1.31879604 0.385518998
vt -1.31008506 0.39201501
vt 0.314999998 1.31008506
vt 0.292100012 1.31879604
vt 0.29065299 1.31573796
vt -1.31008506 0.39201501
vt -1.31573796 0.387798995
vt -1.31008506 0.39201501
vt 0.314999998 1.31008506
vt 0.29065299 1.31573796
vt 0.289837003 1.31253397
vt -1.31008506 0.39201501
vt -1.31253397 0.390188992
vt -1.31008506 0.39201501
vt 0.314999998 1.31008506
vt 0.289837003 1.31253397
vt 0.289673001 1.30926597
vt -1.31008506 0.39201501
vt -1.30926597 0.392625004
vt -1.31008506 0.39201501
vt 0.314999998 1.31008506
vt 0.289673001 1.30926597
vt 0.290165007 1.30602002
vt -1.31008506 0.39201501
vt -1.30602002 0.395045996
vt -1.31008506 0.39201501
vt 0.314999998 1.31008506
vt 0.290165007 1.30602002
vt 0.291299999 1.30287898
vt -1.31008506 0.39201501
vt -1.30287898 0.397388011
vt -1.31008506 0.39201501
vt 0.314999998 1.31008506
vt 0.291299999 1.30287898
vt 0.293047994 1.29992497
vt -1.31008506 0.39201501
vt -1.29992497 0.399590999
vt -1.31008506 0.39201501
vt 0.314999998 1.31008506
vt 0.293047994 1.29992497
vt 0.295365989 1.29723299
vt -1.31008506 0.39201501
vt -1.29723299 0.401598006
vt -1.31008506 0.39201501
vt 0.314999998 1.31008506
vt 0.295365989 1.29723299
vt 0.298191994 1.29487503
vt -1.31008506 0.39201501
vt -1.29487503 0.403356999
vt -1.31008506 0.39201501
vt 0.314999998 1.31008506
vt 0.298191994 1.29487503
vt 0.301452994 1.29290998
vt -1.31008506 0.39201501
vt -1.29290998 0.404821992
vt -1.31008506 0.39201501
vt 0.314999998 1.31008506
vt 0.301452994 1.29290998
vt 0.305065006 1.29139102
vt -1.31008506 0.39201501
vt -1.29139102 0.405954987
vt -1.31008506 0.39201501
vt 0.314999998 1.31008506
vt 0.305065006 1.29139102
vt 0.308934003 1.29035497
vt -1.31008506 0.39201501
vt -1.29035497 0.406726986
vt -1.31008506 0.39201501
vt 0.314999998 1.31008506
vt 0.308934003 1.29035497
vt 0.312961012 1.28983104
vt -1.31008506 0.39201501
vt -1.28983104 0.407119006
vt -1.31008506 0.39201501
vt 0.314999998 1.31008506
vt 0.312961012 1.28983104
vt 0.317039996 1.28983104
vt -1.31008506 0.39201501
vt -1.28983104 0.407119006
vt -1.31008506 0.39201501
vt 0.314999998 1.31008506
vt 0.317039996 1.28983104
vt 0.321065992 1.29035497
vt -1.31008506 0.39201501
vt -1.29035497 0.406726986
vt -1.31008506 0.39201501
vt 0.314999998 1.31008506
vt 0.321065992 1.29035497
vt 0.324936002 1.29139102
vt -1.31008506 0.39201501
vt -1.29139102 0.405954987
vt -1.31008506 0.39201501
vt 0.314999998 1.31008506
vt 0.324936002 1.29139102
vt 0.328548014 1.29290998
vt -1.31008506 0.39201501
vt -1.29290998 0.404821992
vt -1.31008506 0.39201501
vt 0.314999998 1.31008506
vt 0.328548014 1.29290998
vt 0.331809014 1.29487503
vt -1.31008506 0.39201501
vt -1.29487503 0.403356999
vt -1.31008506 0.39201501
vt 0.314999998 1.31008506
vt 0.331809014 1.29487503
vt 0.33463499 1.29723299
vt -1.31008506 0.39201501
vt -1.29723299 0.401598006
vt -1.31008506 0.39201501
vt 0.314999998 1.31008506
vt 0.33463499 1.29723299
vt 0.336952001 1.29992497
vt -1.31008506 0.39201501
vt -1.29992497 0.399590999
vt -1.31008506 0.39201501
vt 0.314999998 1.31008506
vt 0.336952001 1.29992497
vt 0.33870101 1.30287898
vt -1.31008506 0.39201501
vt -1.30287898 0.397388011
vt -1.31008506 0.39201501
vt 0.314999998 1.31008506
vt 0.33870101 1.30287898
vt 0.339836001 1.30602002
vt 0.314999998 1.31008506
vt 0.339836001 1.30602002
vt 0.340326995 1.30926597
vt -0.340348005 1.29812896
vt -0.340326995 1.29731095
vt -0.314999998 1.29812896
vt -0.314999998 1.29812896
vt -0.340326995 1.29731095
vt -0.339836001 1.29406404
vt -1.29812896 0.375981987
vt -1.29406404 0.379013002
vt -1.29812896 0.375981987
vt -0.314999998 1.29812896
vt -0.339836001 1.29406404
vt -0.33870101 1.290923
vt -1.29812896 0.375981987
vt -1.290923 0.381354988
vt -1.29812896 0.375981987
vt -0.314999998 1.29812896
vt -0.33870101 1.290923
vt -0.336952001 1.28796899
vt -1.29812896 0.375981987
vt -1.28796899 0.383558005
vt -1.29812896 0.375981987
vt -0.314999998 1.29812896
vt -0.336952001 1.28796899
vt -0.33463499 1.28527796
vt -1.29812896 0.375981987
vt -1.28527796 0.385565013
vt -1.29812896 0.375981987
vt -0.314999998 1.29812896
vt -0.33463499 1.28527796
vt -0.331809014 1.28291905
vt -1.29812896 0.375981987
vt -1.28291905 0.387324005
vt -1.29812896 0.375981987
vt -0.314999998 1.29812896
vt -0.331809014 1.28291905
vt -0.328548014 1.28095496
vt -1.29812896 0.375981987
vt -1.28095496 0.388788998
vt -1.29812896 0.375981987
vt -0.314999998 1.29812896
vt -0.328548014 1.28095496
vt -0.324936002 1.27943504
vt -1.29812896 0.375981987
vt -1.27943504 0.389921993
vt -1.29812896 0.375981987
vt -0.314999998 1.29812896
vt -0.324936002 1.27943504
vt -0.321065992 1.27839899
vt -1.29812896 0.375981987
vt -1.27839899 0.390693992
vt -1.29812896 0.375981987
vt -0.314999998 1.29812896
vt -0.321065992 1.27839899
vt -0.317039996 1.27787495
vt -1.29812896 0.375981987
vt -1.27787495 0.391084999
vt -1.29812896 0.375981987
vt -0.314999998 1.29812896
vt -0.317039996 1.27787495
vt -0.312961012 1.27787495
vt -1.29812896 0.375981987
vt -1.27787495 0.391084999
vt -1.29812896 0.375981987
vt -0.314999998 1.29812896
vt -0.312961012 1.27787495
vt -0.308934003 1.27839899
vt -1.29812896 0.375981987
vt -1.27839899 0.390693992
vt -1.29812896 0.375981987
vt -0.314999998 1.29812896
vt -0.308934003 1.27839899
vt -0.305065006 1.27943504
vt -1.29812896 0.375981987
vt -1.27943504 0.389921993
vt -1.29812896 0.375981987
vt -0.314999998 1.29812896
vt -0.305065006 1.27943504
vt -0.301452994 1.28095496
vt -1.29812896 0.375981987
vt -1.28095496 0.388788998
vt -1.29812896 0.375981987
vt -0.314999998 1.29812896
vt -0.301452994 1.28095496
vt -0.298191994 1.28291905
vt -1.29812896 0.375981987
vt -1.28291905 0.387324005
vt -1.29812896 0.375981987
vt -0.314999998 1.29812896
vt -0.298191994 1.28291905
vt -0.295365989 1.28527796
vt -1.29812896 0.375981987
vt -1.28527796 0.385565013
vt -1.29812896 0.375981987
vt -0.314999998 1.29812896
vt -0.295365989 1.28527796
vt -0.293047994 1.28796899
vt -1.29812896 0.375981987
vt -1.28796899 0.383558005
vt -1.29812896 0.375981987
vt -0.314999998 1.29812896
vt -0.293047994 1.28796899
vt -0.291299999 1.290923
vt -1.29812896 0.375981987
vt -1.290923 0.381354988
vt -1.29812896 0.375981987
vt -0.314999998 1.29812896
vt -0.291299999 1.290923
vt -0.290165007 1.29406404
vt -1.29812896 0.375981987
vt -1.29406404 0.379013002
vt -1.29812896 0.375981987
vt -0.314999998 1.29812896
vt -0.290165007 1.29406404
vt -0.289673001 1.29731095
vt -1.29812896 0.375981987
vt -1.29731095 0.37659201
vt -1.29812896 0.375981987
vt -0.314999998 1.29812896
vt -0.289673001 1.29731095
vt -0.289837003 1.300578
vt -1.29812896 0.375981987
vt -1.300578 0.374155998
vt -1.29812896 0.375981987
vt -0.314999998 1.29812896
vt -0.289837003 1.300578
vt -0.29065299 1.30378199
vt -1.29812896 0.375981987
vt -1.30378199 0.371766001
vt -1.29812896 0.375981987
vt -0.314999998 1.29812896
vt -0.29065299 1.30378199
vt -0.292100012 1.30683994
vt -1.29812896 0.375981987
vt -1.30683994 0.369486004
vt -1.29812896 0.375981987
vt -0.314999998 1.29812896
vt -0.292100012 1.30683994
vt -0.294138998 1.309672
vt -1.29812896 0.375981987
vt -1.309672 0.367374003
vt -1.29812896 0.375981987
vt -0.314999998 1.29812896
vt -0.294138998 1.309672
vt -0.296719015 1.31220496
vt -1.29812896 0.375981987
vt -1.31220496 0.365485013
vt -1.29812896 0.375981987
vt -0.314999998 1.29812896
vt -0.296719015 1.31220496
vt -0.299773008 1.31437302
vt -1.29812896 0.375981987
vt -1.31437302 0.363867998
vt -1.29812896 0.375981987
vt -0.314999998 1.29812896
vt -0.299773008 1.31437302
vt -0.303220004 1.31612098
vt -1.29812896 0.375981987
vt -1.31612098 0.362565011
vt -1.29812896 0.375981987
vt -0.314999998 1.29812896
vt -0.303220004 1.31612098
vt -0.30697301 1.31740296
vt -1.29812896 0.375981987
vt -1.31740296 0.361609012
vt -1.29812896 0.375981987
vt -0.314999998 1.29812896
vt -0.30697301 1.31740296
vt -0.310934007 1.31818604
vt -1.29812896 0.375981987
vt -1.31818604 0.361025989
vt -1.29812896 0.375981987
vt -0.314999998 1.29812896
vt -0.310934007 1.31818604
vt -0.314999998 1.31844902
vt -1.29812896 0.375981987
vt -1.31844902 0.360828996
vt -1.29812896 0.375981987
vt -0.314999998 1.29812896
vt -0.314999998 1.31844902
vt -0.319065988 1.31818604
vt -1.29812896 0.375981987
vt -1.31818604 0.361025989
vt -1.29812896 0.375981987
vt -0.314999998 1.29812896
vt -0.319065988 1.31818604
vt -0.323027015 1.31740296
vt -1.29812896 0.375981987
vt -1.31740296 0.361609012
vt -1.29812896 0.375981987
vt -0.314999998 1.29812896
vt -0.323027015 1.31740296
vt -0.326779991 1.31612098
vt -1.29812896 0.375981987
vt -1.31612098 0.362565011
vt -1.29812896 0.375981987
vt -0.314999998 1.29812896
vt -0.326779991 1.31612098
vt -0.330228001 1.31437302
vt -1.29812896 0.375981987
vt -1.31437302 0.363867998
vt -1.29812896 0.375981987
vt -0.314999998 1.29812896
vt -0.330228001 1.31437302
vt -0.33328101 1.31220496
vt -1.29812896 0.375981987
vt -1.31220496 0.365485013
vt -1.29812896 0.375981987
vt -0.314999998 1.29812896
vt -0.33328101 1.31220496
vt -0.335860997 1.309672
vt -1.29812896 0.375981987
vt -1.309672 0.367374003
vt -1.29812896 0.375981987
vt -0.314999998 1.29812896
vt -0.335860997 1.309672
vt -0.337900996 1.30683994
vt -1.29812896 0.375981987
vt -1.30683994 0.369486004
vt -1.29812896 0.375981987
vt -0.314999998 1.29812896
vt -0.337900996 1.30683994
vt -0.339347005 1.30378199
vt -1.29812896 0.375981987
vt -1.30378199 0.371766001
vt -1.29812896 0.375981987
vt -0.314999998 1.29812896
vt -0.339347005 1.30378199
vt -0.340162992 1.300578
vt -0.314999998 1.29812896
vt -0.340162992 1.300578
vt -0.340348005 1.29812896
vt -0.621064007 1.29253399
vt -0.620723009 1.29126596
vt -0.611599028 1.29350603
vt -0.611599028 1.29350603
vt -0.620723009 1.29126596
vt -0.620119989 1.29006195
vt -1.29350603 0.373192012
vt -1.29006195 0.375759989
vt -1.29350603 0.373192012
vt -0.611599028 1.29350603
vt -0.620119989 1.29006195
vt -0.61927098 1.288957
vt -1.29350603 0.373192012
vt -1.288957 0.376583993
vt -1.29350603 0.373192012
vt -0.611599028 1.29350603
vt -0.61927098 1.288957
vt -0.618201971 1.28798294
vt -1.29350603 0.373192012
vt -1.28798294 0.377310008
vt -1.29350603 0.373192012
vt -0.611599028 1.29350603
vt -0.618201971 1.28798294
vt -0.616943002 1.28716803
vt -1.29350603 0.373192012
vt -1.28716803 0.377918005
vt -1.29350603 0.373192012
vt -0.611599028 1.29350603
vt -0.616943002 1.28716803
vt -0.615530014 1.28653502
vt -1.29350603 0.373192012
vt -1.28653502 0.378390014
vt -1.29350603 0.373192012
vt -0.611599028 1.29350603
vt -0.615530014 1.28653502
vt -0.614004016 1.28610301
vt -1.29350603 0.373192012
vt -1.28610301 0.378713012
vt -1.29350603 0.373192012
vt -0.611599028 1.29350603
vt -0.614004016 1.28610301
vt -0.612407982 1.28588402
vt -1.29350603 0.373192012
vt -1.28588402 0.378876001
vt -1.29350603 0.373192012
vt -0.611599028 1.29350603
vt -0.612407982 1.28588402
vt -0.610790014 1.28588402
vt -1.29350603 0.373192012
vt -1.28588402 0.378876001
vt -1.29350603 0.373192012
vt -0.611599028 1.29350603
vt -0.610790014 1.28588402
vt -0.609194994 1.28610301
vt -1.29350603 0.373192012
vt -1.28610301 0.378713012
vt -1.29350603 0.373192012
vt -0.611599028 1.29350603
vt -0.609194994 1.28610301
vt -0.607668996 1.28653502
vt -1.29350603 0.373192012
vt -1.28653502 0.378390014
vt -1.29350603 0.373192012
vt -0.611599028 1.29350603
vt -0.607668996 1.28653502
vt -0.606256008 1.28716803
vt -1.29350603 0.373192012
vt -1.28716803 0.377918005
vt -1.29350603 0.373192012
vt -0.611599028 1.29350603
vt -0.606256008 1.28716803
vt -0.604996026 1.28798294
vt -1.29350603 0.373192012
vt -1.28798294 0.377310008
vt -1.29350603 0.373192012
vt -0.611599028 1.29350603
vt -0.604996026 1.28798294
vt -0.603927016 1.288957
vt -1.29350603 0.373192012
vt -1.288957 0.376583993
vt -1.29350603 0.373192012
vt -0.611599028 1.29350603
vt -0.603927016 1.288957
vt -0.603079021 1.29006195
vt -1.29350603 0.373192012
vt -1.29006195 0.375759989
vt -1.29350603 0.373192012
vt -0.611599028 1.29350603
vt -0.603079021 1.29006195
vt -0.602474988 1.29126596
vt -1.29350603 0.373192012
vt -1.29126596 0.374862999
vt -1.29350603 0.373192012
vt -0.611599028 1.29350603
vt -0.602474988 1.29126596
vt -0.602133989 1.29253399
vt -1.29350603 0.373192012
vt -1.29253399 0.373917013
vt -1.29350603 0.373192012
vt -0.611599028 1.29350603
vt -0.602133989 1.29253399
vt -0.602065027 1.29383004
vt -1.29350603 0.373192012
vt -1.29383004 0.372949988
vt -1.29350603 0.373192012
vt -0.611599028 1.29350603
vt -0.602065027 1.29383004
vt -0.60227102 1.29511702
vt -1.29350603 0.373192012
vt -1.29511702 0.371991009
vt -1.29350603 0.373192012
vt -0.611599028 1.29350603
vt -0.60227102 1.29511702
vt -0.602744997 1.29635799
vt -1.29350603 0.373192012
vt -1.29635799 0.371064991
vt -1.29350603 0.373192012
vt -0.611599028 1.29350603
vt -0.602744997 1.29635799
vt -0.603474021 1.29751694
vt -1.29350603 0.373192012
vt -1.29751694 0.370200992
vt -1.29350603 0.373192012
vt -0.611599028 1.29350603
vt -0.603474021 1.29751694
vt -0.60443598 1.29856002
vt -1.29350603 0.373192012
vt -1.29856002 0.369423985
vt -1.29350603 0.373192012
vt -0.611599028 1.29350603
vt -0.60443598 1.29856002
vt -0.605603993 1.29945695
vt -1.29350603 0.373192012
vt -1.29945695 0.368753999
vt -1.29350603 0.373192012
vt -0.611599028 1.29350603
vt -0.605603993 1.29945695
vt -0.606944978 1.30018401
vt -1.29350603 0.373192012
vt -1.30018401 0.368212014
vt -1.29350603 0.373192012
vt -0.611599028 1.29350603
vt -0.606944978 1.30018401
vt -0.608420014 1.30071795
vt -1.29350603 0.373192012
vt -1.30071795 0.367814004
vt -1.29350603 0.373192012
vt -0.611599028 1.29350603
vt -0.608420014 1.30071795
vt -0.609986007 1.30104494
vt -1.29350603 0.373192012
vt -1.30104494 0.367570013
vt -1.29350603 0.373192012
vt -0.611599028 1.29350603
vt -0.609986007 1.30104494
vt -0.611599028 1.30115497
vt -1.29350603 0.373192012
vt -1.30115497 0.367487997
vt -1.29350603 0.373192012
vt -0.611599028 1.29350603
vt -0.611599028 1.30115497
vt -0.613211989 1.30104494
vt -1.29350603 0.373192012
vt -1.30104494 0.367570013
vt -1.29350603 0.373192012
vt -0.611599028 1.29350603
vt -0.613211989 1.30104494
vt -0.614777982 1.30071795
vt -1.29350603 0.373192012
vt -1.30071795 0.367814004
vt -1.29350603 0.373192012
vt -0.611599028 1.29350603
vt -0.614777982 1.30071795
vt -0.616253018 1.30018401
vt -1.29350603 0.373192012
vt -1.30018401 0.368212014
vt -1.29350603 0.373192012
vt -0.611599028 1.29350603
vt -0.616253018 1.30018401
vt -0.617594004 1.29945695
vt -1.29350603 0.373192012
vt -1.29945695 0.368753999
vt -1.29350603 0.373192012
vt -0.611599028 1.29350603
vt -0.617594004 1.29945695
vt -0.618762016 1.29856002
vt -1.29350603 0.373192012
vt -1.29856002 0.369423985
vt -1.29350603 0.373192012
vt -0.611599028 1.29350603
vt -0.618762016 1.29856002
vt -0.619724989 1.29751694
vt -1.29350603 0.373192012
vt -1.29751694 0.370200992
vt -1.29350603 0.373192012
vt -0.611599028 1.29350603
vt -0.619724989 1.29751694
vt -0.620453 1.29635799
vt -1.29350603 0.373192012
vt -1.29635799 0.371064991
vt -1.29350603 0.373192012
vt -0.611599028 1.29350603
vt -0.620453 1.29635799
vt -0.620926976 1.29511702
vt -1.29350603 0.373192012
vt -1.29511702 0.371991009
vt -1.29350603 0.373192012
vt -0.611599028 1.29350603
vt -0.620926976 1.29511702
vt -0.621133029 1.29383004
vt -1.29350603 0.373192012
vt -1.29383004 0.372949988
vt -1.29350603 0.373192012
vt -0.611599028 1.29350603
vt -0.621133029 1.29383004
vt -0.621141016 1.29350603
vt -0.611599028 1.29350603
vt -0.621141016 1.29350603
vt -0.621064007 1.29253399
vt 0.344999999 1.27371895
vt 0.344999999 1.32181799
vt 0.284999996 1.27371895
vt 0.284999996 1.27371895
vt 0.344999999 1.32181799
vt 0.284999996 1.32181799
vt 0.344999999 0.394185007
vt 0.284999996 0.394185007
vt 0.344999999 0.390175998
vt 0.344999999 0.390175998
vt 0.284999996 0.394185007
vt 0.284999996 0.390175998
vt -1.27371895 0.394185007
vt -1.32181799 0.358316988
vt -1.27073002 0.390175998
vt -1.27073002 0.390175998
vt -1.32181799 0.358316988
vt -1.31882906 0.354308993
vt -0.284999996 0.358316988
vt -0.344999999 0.358316988
vt -0.284999996 0.354308993
vt -0.284999996 0.354308993
vt -0.344999999 0.358316988
vt -0.344999999 0.354308993
vt 1.27371895 0.394185007
vt 1.27073002 0.390175998
vt 1.32181799 0.358316988
vt 1.32181799 0.358316988
vt 1.27073002 0.390175998
vt 1.31882906 0.354308993
f 1/1 2/2 3/3
f 3/4 2/5 4/6
f 5/7 6/8 7/9
f 7/10 6/11 8/12
f 3/13 4/14 9/15
f 9/16 4/17 10/18
f 9/19 10/20 11/21
f 11/22 10/23 12/24
f 11/25 12/26 13/27
f 13/28 12/29 14/30
f 13/31 14/32 15/33
f 15/34 14/35 16/36
f 15/37 16/38 17/39
f 17/40 16/41 18/42
f 17/43 18/44 19/45
f 19/46 18/47 20/48
f 19/49 20/50 21/51
f 21/52 20/53 22/54
f 21/55 22/56 23/57
f 23/58 22/59 24/60
f 23/61 24/62 25/63
f 25/64 24/65 26/66
f 25/67 26/68 27/69
f 27/70 26/71 28/72
f 27/73 28/74 29/75
f 29/76 28/77 30/78
f 29/79 30/80 31/81
f 31/82 30/83 32/84
f 31/85 32/86 33/87
f 33/88 32/89 34/90
f 33/91 34/92 35/93
f 35/94 34/95 36/96
f 35/97 36/98 37/99
f 37/100 36/101 38/102
f 37/103 38/104 39/105
f 39/106 38/107 40/108
f 39/109 40/110 41/111
f 41/112 40/113 42/114
f 41/115 42/116 43/117
f 43/118 42/119 44/120
f 43/121 44/122 45/123
f 45/124 44/125 46/126
f 45/127 46/128 47/129
f 47/130 46/131 48/132
f 47/133 48/134 49/135
f 49/136 48/137 50/138
f 49/139 50/140 51/141
f 51/142 50/143 52/144
f 51/145 52/146 53/147
f 53/148 52/149 54/150
f 53/151 54/152 55/153
f 55/154 54/155 56/156
f 55/157 56/158 57/159
f 57/160 56/161 58/162
f 57/163 58/164 59/165
f 59/166 58/167 60/168
f 59/169 60/170 61/171
f 61/172 60/173 62/174
f 61/175 62/176 63/177
f 63/178 62/179 64/180
f 63/181 64/182 65/183
f 65/184 64/185 66/186
f 65/187 66/188 67/189
f 67/190 66/191 68/192
f 67/193 68/194 69/195
f 69/196 68/197 70/198
f 69/199 70/200 71/201
f 71/202 70/203 72/204
f 71/205 72/206 73/207
f 73/208 72/209 74/210
f 73/211 74/212 75/213
f 75/214 74/215 76/216
f 75/217 76/218 77/219
f 77/220 76/221 78/222
f 77/223 78/224 79/225
f 79/226 78/227 80/228
f 79/229 80/230 1/231
f 1/232 80/233 2/234
f 81/235 82/236 83/237
f 83/238 82/239 84/240
f 83/241 84/242 85/243
f 85/244 84/245 86/246
f 85/247 86/248 87/249
f 87/250 86/251 88/252
f 87/253 88/254 89/255
f 89/256 88/257 90/258
f 89/259 90/260 91/261
f 91/262 90/263 92/264
f 91/265 92/266 93/267
f 93/268 92/269 94/270
f 93/271 94/272 95/273
f 95/274 94/275 96/276
f 95/277 96/278 97/279
f 97/280 96/281 98/282
f 97/283 98/284 99/285
f 99/286 98/287 100/288
f 99/289 100/290 101/291
f 101/292 100/293 102/294
f 101/295 102/296 103/297
f 103/298 102/299 104/300
f 103/301 104/302 105/303
f 105/304 104/305 106/306
f 105/307 106/308 107/309
f 107/310 106/311 108/312
f 107/313 108/314 109/315
f 109/316 108/317 110/318
f 109/319 110/320 111/321
f 111/322 110/323 112/324
f 111/325 112/326 113/327
f 113/328 112/329 114/330
f 113/331 114/332 115/333
f 115/334 114/335 116/336
f 115/337 116/338 117/339
f 117/340 116/341 118/342
f 117/343 118/344 119/345
f 119/346 118/347 120/348
f 119/349 120/350 121/351
f 121/352 120/353 122/354
f 121/355 122/356 123/357
f 123/358 122/359 124/360
f 123/361 124/362 125/363
f 125/364 124/365 126/366
f 125/367 126/368 127/369
f 127/370 126/371 128/372
f 127/373 128/374 129/375
f 129/376 128/377 130/378
f 129/379 130/380 131/381
f 131/382 130/383 132/384
f 131/385 132/386 133/387
f 133/388 132/389 134/390
f 133/391 134/392 135/393
f 135/394 134/395 136/396
f 135/397 136/398 137/399
f 137/400 136/401 138/402
f 137/403 138/404 139/405
f 139/406 138/407 140/408
f 139/409 140/410 141/411
f 141/412 140/413 142/414
f 141/415 142/416 143/417
f 143/418 142/419 144/420
f 143/421 144/422 145/423
f 145/424 144/425 146/426
f 145/427 146/428 147/429
f 147/430 146/431 148/432
f 147/433 148/434 149/435
f 149/436 148/437 150/438
f 149/439 150/440 151/441
f 151/442 150/443 152/444
f 151/445 152/446 153/447
f 153/448 152/449 154/450
f 153/451 154/452 155/453
f 155/454 154/455 156/456
f 155/457 156/458 157/459
f 157/460 156/461 158/462
f 157/463 158/464 159/465
f 159/466 158/467 81/468
f 82/469 81/470 160/471
f 160/472 81/473 158/474
f 10/475 4/476 161/477
f 161/478 4/479 2/480
f 161/481 2/482 161/483
f 161/484 2/485 80/486
f 161/487 80/488 161/489
f 161/490 80/491 78/492
f 161/493 78/494 161/495
f 161/496 78/497 76/498
f 161/499 76/500 161/501
f 161/502 76/503 74/504
f 161/505 74/506 161/507
f 161/508 74/509 72/510
f 161/511 72/512 161/513
f 161/514 72/515 70/516
f 161/517 70/518 161/519
f 161/520 70/521 68/522
f 161/523 68/524 161/525
f 161/526 68/527 66/528
f 161/529 66/530 161/531
f 161/532 66/533 64/534
f 161/535 64/536 161/537
f 161/538 64/539 62/540
f 161/541 62/542 161/543
f 161/544 62/545 60/546
f 161/547 60/548 161/549
f 161/550 60/551 58/552
f 161/553 58/554 161/555
f 161/556 58/557 56/558
f 161/559 56/560 161/561
f 161/562 56/563 54/564
f 161/565 54/566 161/567
f 161/568 54/569 52/570
f 161/571 52/572 161/573
f 161/574 52/575 50/576
f 161/577 50/578 161/579
f 161/580 50/581 48/582
f 161/583 48/584 161/585
f 161/586 48/587 46/588
f 161/589 46/590 161/591
f 161/592 46/593 44/594
f 161/595 44/596 161/597
f 161/598 44/599 42/600
f 161/601 42/602 161/603
f 161/604 42/605 40/606
f 161/607 40/608 161/609
f 161/610 40/611 38/612
f 161/613 38/614 161/615
f 161/616 38/617 36/618
f 161/619 36/620 161/621
f 161/622 36/623 34/624
f 161/625 34/626 161/627
f 161/628 34/629 32/630
f 161/631 32/632 161/633
f 161/634 32/635 30/636
f 161/637 30/638 161/639
f 161/640 30/641 28/642
f 161/643 28/644 161/645
f 161/646 28/647 26/648
f 161/649 26/650 161/651
f 161/652 26/653 24/654
f 161/655 24/656 161/657
f 161/658 24/659 22/660
f 161/661 22/662 161/663
f 161/664 22/665 20/666
f 161/667 20/668 161/669
f 161/670 20/671 18/672
f 161/673 18/674 161/675
f 161/676 18/677 16/678
f 161/679 16/680 161/681
f 161/682 16/683 14/684
f 161/685 14/686 161/687
f 161/688 14/689 12/690
f 161/691 12/692 10/693
f 159/694 81/695 162/696
f 162/697 81/698 83/699
f 162/700 83/701 162/702
f 162/703 83/704 85/705
f 162/706 85/707 162/708
f 162/709 85/710 87/711
f 162/712 87/713 162/714
f 162/715 87/716 89/717
f 162/718 89/719 162/720
f 162/721 89/722 91/723
f 162/724 91/725 162/726
f 162/727 91/728 93/729
f 162/730 93/731 162/732
f 162/733 93/734 95/735
f 162/736 95/737 162/738
f 162/739 95/740 97/741
f 162/742 97/743 162/744
f 162/745 97/746 99/747
f 162/748 99/749 162/750
f 162/751 99/752 101/753
f 162/754 101/755 162/756
f 162/757 101/758 103/759
f 162/760 103/761 162/762
f 162/763 103/764 105/765
f 162/766 105/767 162/768
f 162/769 105/770 107/771
f 162/772 107/773 162/774
f 162/775 107/776 109/777
f 162/778 109/779 162/780
f 162/781 109/782 111/783
f 162/784 111/785 162/786
f 162/787 111/788 113/789
f 162/790 113/791 162/792
f 162/793 113/794 115/795
f 162/796 115/797 162/798
f 162/799 115/800 117/801
f 162/802 117/803 162/804
f 162/805 117/806 119/807
f 162/808 119/809 162/810
f 162/811 119/812 121/813
f 162/814 121/815 162/816
f 162/817 121/818 123/819
f 162/820 123/821 162/822
f 162/823 123/824 125/825
f 162/826 125/827 162/828
f 162/829 125/830 127/831
f 162/832 127/833 162/834
f 162/835 127/836 129/837
f 162/838 129/839 162/840
f 162/841 129/842 131/843
f 162/844 131/845 162/846
f 162/847 131/848 133/849
f 162/850 133/851 162/852
f 162/853 133/854 135/855
f 162/856 135/857 162/858
f 162/859 135/860 137/861
f 162/862 137/863 162/864
f 162/865 137/866 139/867
f 162/868 139/869 162/870
f 162/871 139/872 141/873
f 162/874 141/875 162/876
f 162/877 141/878 143/879
f 162/880 143/881 162/882
f 162/883 143/884 145/885
f 162/886 145/887 162/888
f 162/889 145/890 147/891
f 162/892 147/893 162/894
f 162/895 147/896 149/897
f 162/898 149/899 162/900
f 162/901 149/902 151/903
f 162/904 151/905 162/906
f 162/907 151/908 153/909
f 162/910 153/911 162/912
f 162/913 153/914 155/915
f 162/916 155/917 162/918
f 162/919 155/920 157/921
f 162/922 157/923 159/924
f 160/925 158/926 163/927
f 163/928 158/929 156/930
f 163/931 156/932 163/933
f 163/934 156/935 154/936
f 163/937 154/938 163/939
f 163/940 154/941 152/942
f 163/943 152/944 163/945
f 163/946 152/947 150/948
f 163/949 150/950 163/951
f 163/952 150/953 148/954
f 163/955 148/956 163/957
f 163/958 148/959 146/960
f 163/961 146/962 163/963
f 163/964 146/965 144/966
f 163/967 144/968 163/969
f 163/970 144/971 142/972
f 163/973 142/974 163/975
f 163/976 142/977 140/978
f 163/979 140/980 163/981
f 163/982 140/983 138/984
f 163/985 138/986 163/987
f 163/988 138/989 136/990
f 163/991 136/992 163/993
f 163/994 136/995 134/996
f 163/997 134/998 163/999
f 163/1000 134/1001 132/1002
f 163/1003 132/1004 163/1005
f 163/1006 132/1007 130/1008
f 163/1009 130/1010 163/1011
f 163/1012 130/1013 128/1014
f 163/1015 128/1016 163/1017
f 163/1018 128/1019 126/1020
f 163/1021 126/1022 163/1023
f 163/1024 126/1025 124/1026
f 163/1027 124/1028 163/1029
f 163/1030 124/1031 122/1032
f 163/1033 122/1034 163/1035
f 163/1036 122/1037 120/1038
f 163/1039 120/1040 163/1041
f 163/1042 120/1043 118/1044
f 163/1045 118/1046 163/1047
f 163/1048 118/1049 116/1050
f 163/1051 116/1052 163/1053
f 163/1054 116/1055 114/1056
f 163/1057 114/1058 163/1059
f 163/1060 114/1061 112/1062
f 163/1063 112/1064 163/1065
f 163/1066 112/1067 110/1068
f 163/1069 110/1070 163/1071
f 163/1072 110/1073 108/1074
f 163/1075 108/1076 163/1077
f 163/1078 108/1079 106/1080
f 163/1081 106/1082 163/1083
f 163/1084 106/1085 104/1086
f 163/1087 104/1088 163/1089
f 163/1090 104/1091 102/1092
f 163/1093 102/1094 163/1095
f 163/1096 102/1097 100/1098
f 163/1099 100/1100 163/1101
f 163/1102 100/1103 98/1104
f 163/1105 98/1106 163/1107
f 163/1108 98/1109 96/1110
f 163/1111 96/1112 163/1113
f 163/1114 96/1115 94/1116
f 163/1117 94/1118 163/1119
f 163/1120 94/1121 92/1122
f 163/1123 92/1124 163/1125
f 163/1126 92/1127 90/1128
f 163/1129 90/1130 163/1131
f 163/1132 90/1133 88/1134
f 163/1135 88/1136 163/1137
f 163/1138 88/1139 86/1140
f 163/1141 86/1142 163/1143
f 163/1144 86/1145 84/1146
f 163/1147 84/1148 163/1149
f 163/1150 84/1151 82/1152
f 163/1153 82/1154 160/1155
f 9/1156 11/1157 164/1158
f 164/1159 11/1160 13/1161
f 164/1162 13/1163 164/1164
f 164/1165 13/1166 15/1167
f 164/1168 15/1169 164/1170
f 164/1171 15/1172 17/1173
f 164/1174 17/1175 164/1176
f 164/1177 17/1178 19/1179
f 164/1180 19/1181 164/1182
f 164/1183 19/1184 21/1185
f 164/1186 21/1187 164/1188
f 164/1189 21/1190 23/1191
f 164/1192 23/1193 164/1194
f 164/1195 23/1196 25/1197
f 164/1198 25/1199 164/1200
f 164/1201 25/1202 27/1203
f 164/1204 27/1205 164/1206
f 164/1207 27/1208 29/1209
f 164/1210 29/1211 164/1212
f 164/1213 29/1214 31/1215
f 164/1216 31/1217 164/1218
f 164/1219 31/1220 33/1221
f 164/1222 33/1223 164/1224
f 164/1225 33/1226 35/1227
f 164/1228 35/1229 164/1230
f 164/1231 35/1232 37/1233
f 164/1234 37/1235 164/1236
f 164/1237 37/1238 39/1239
f 164/1240 39/1241 164/1242
f 164/1243 39/1244 41/1245
f 164/1246 41/1247 164/1248
f 164/1249 41/1250 43/1251
f 164/1252 43/1253 164/1254
f 164/1255 43/1256 45/1257
f 164/1258 45/1259 164/1260
f 164/1261 45/1262 47/1263
f 164/1264 47/1265 164/1266
f 164/1267 47/1268 49/1269
f 164/1270 49/1271 164/1272
f 164/1273 49/1274 51/1275
f 164/1276 51/1277 164/1278
f 164/1279 51/1280 53/1281
f 164/1282 53/1283 164/1284
f 164/1285 53/1286 55/1287
f 164/1288 55/1289 164/1290
f 164/1291 55/1292 57/1293
f 164/1294 57/1295 164/1296
f 164/1297 57/1298 59/1299
f 164/1300 59/1301 164/1302
f 164/1303 59/1304 61/1305
f 164/1306 61/1307 164/1308
f 164/1309 61/1310 63/1311
f 164/1312 63/1313 164/1314
f 164/1315 63/1316 65/1317
f 164/1318 65/1319 164/1320
f 164/1321 65/1322 67/1323
f 164/1324 67/1325 164/1326
f 164/1327 67/1328 69/1329
f 164/1330 69/1331 164/1332
f 164/1333 69/1334 71/1335
f 164/1336 71/1337 164/1338
f 164/1339 71/1340 73/1341
f 164/1342 73/1343 164/1344
f 164/1345 73/1346 75/1347
f 164/1348 75/1349 164/1350
f 164/1351 75/1352 77/1353
f 164/1354 77/1355 164/1356
f 164/1357 77/1358 79/1359
f 164/1360 79/1361 164/1362
f 164/1363 79/1364 1/1365
f 164/1366 1/1367 164/1368
f 164/1369 1/1370 3/1371
f 164/1372 3/1373 9/1374
f 165/1375 166/1376 167/1377
f 167/1378 166/1379 168/1380
f 165/1381 167/1382 6/1383
f 6/1384 167/1385 8/1386
f 167/1387 168/1388 8/1389
f 8/1390 168/1391 7/1392
f 168/1393 166/1394 7/1395
f 7/1396 166/1397 5/1398
f 165/1399 6/1400 166/1401
f 166/1402 6/1403 5/1404
