# Exported from USD for MuJoCo with source material subsets
v -11.469024 -1.34782889 0.953404391
v -11.469024 -1.34320953 0.955317313
v -11.469024 -1.35180118 0.950358206
v -11.469024 -1.35484775 0.946388954
v -11.469024 -1.33824413 0.955969835
v -11.469024 -1.35676332 0.941767687
v -11.469024 -1.33328643 0.95531627
v -11.469024 -1.35741796 0.936801726
v -11.469024 -1.3286617 0.953399831
v -11.469024 -1.35676589 0.931846047
v -11.469024 -1.32469236 0.950352276
v -11.469024 -1.35485109 0.927219594
v -11.469024 -1.32164805 0.946383947
v -11.469024 -1.35180672 0.923251206
v -11.469024 -1.31973319 0.941757495
v -11.469024 -1.34783741 0.92020365
v -11.469024 -1.31908106 0.936801726
v -11.469024 -1.34321268 0.918287272
v -11.469024 -1.31973576 0.931835854
v -11.469024 -1.33825492 0.917633647
v -11.469024 -1.32165136 0.927214587
v -11.469024 -1.33328955 0.918286169
v -11.469024 -1.32469787 0.923245335
v -11.469024 -1.32867016 0.920199091
vt -0.863551021 0.296815991
vt -0.865289986 0.292616993
vt -0.860782027 0.30042699
vt -0.860782027 0.30042699
vt -0.865289986 0.292616993
vt -0.865289986 0.292616993
vt -0.860782027 0.30042699
vt -0.865289986 0.292616993
vt -0.857173026 0.303196996
vt -0.857173026 0.303196996
vt -0.865289986 0.292616993
vt -0.865882993 0.288103014
vt -0.857173026 0.303196996
vt -0.865882993 0.288103014
vt -0.852971971 0.304937989
vt -0.852971971 0.304937989
vt -0.865882993 0.288103014
vt -0.865288973 0.283596009
vt -0.852971971 0.304937989
vt -0.865288973 0.283596009
vt -0.848457992 0.305532992
vt -0.848457992 0.305532992
vt -0.865288973 0.283596009
vt -0.863547027 0.279390991
vt -0.848457992 0.305532992
vt -0.863547027 0.279390991
vt -0.843952 0.304940999
vt -0.843952 0.304940999
vt -0.863547027 0.279390991
vt -0.860776007 0.275783002
vt -0.843952 0.304940999
vt -0.860776007 0.275783002
vt -0.839747012 0.303200006
vt -0.839747012 0.303200006
vt -0.860776007 0.275783002
vt -0.857168972 0.273014992
vt -0.839747012 0.303200006
vt -0.857168972 0.273014992
vt -0.836139023 0.300431997
vt -0.836139023 0.300431997
vt -0.857168972 0.273014992
vt -0.852962971 0.271275014
vt -0.836139023 0.300431997
vt -0.852962971 0.271275014
vt -0.833368003 0.296824008
vt -0.833368003 0.296824008
vt -0.852962971 0.271275014
vt -0.848457992 0.270682007
vt -0.833368003 0.296824008
vt -0.848457992 0.270682007
vt -0.831625998 0.292620003
vt -0.831625998 0.292620003
vt -0.848457992 0.270682007
vt -0.843943 0.27127701
vt -0.831625998 0.292620003
vt -0.843943 0.27127701
vt -0.831031978 0.288112998
vt -0.831031978 0.288112998
vt -0.843943 0.27127701
vt -0.839742005 0.273018003
vt -0.831031978 0.288112998
vt -0.839742005 0.273018003
vt -0.831624985 0.283598989
vt -0.831624985 0.283598989
vt -0.839742005 0.273018003
vt -0.836134017 0.275788009
vt -0.831624985 0.283598989
vt -0.836134017 0.275788009
vt -0.83336401 0.279399008
f 1/1 2/2 3/3
f 3/4 2/5 2/6
f 3/7 2/8 4/9
f 4/10 2/11 5/12
f 4/13 5/14 6/15
f 6/16 5/17 7/18
f 6/19 7/20 8/21
f 8/22 7/23 9/24
f 8/25 9/26 10/27
f 10/28 9/29 11/30
f 10/31 11/32 12/33
f 12/34 11/35 13/36
f 12/37 13/38 14/39
f 14/40 13/41 15/42
f 14/43 15/44 16/45
f 16/46 15/47 17/48
f 16/49 17/50 18/51
f 18/52 17/53 19/54
f 18/55 19/56 20/57
f 20/58 19/59 21/60
f 20/61 21/62 22/63
f 22/64 21/65 23/66
f 22/67 23/68 24/69
