# Exported from USD for MuJoCo with source material subsets
v -14.5678804 -4.09868199 0.537894124
v -16.1680856 -4.09868151 0.537893707
v -14.5678804 -4.09737999 1.2623571
v -16.1680857 -4.09737951 1.26235686
v -16.3854839 -5.28707582 1.26669463
v -16.3854839 -5.28645689 1.61108916
v -16.3854836 -4.55547411 1.26537993
v -16.3854837 -4.55485517 1.60977435
v -14.567881 -5.74518902 1.25961052
v -16.1680862 -5.74518854 1.25961027
v -14.5678809 -5.74648077 0.540855283
v -16.1680861 -5.74647981 0.540854985
v -14.3504832 -5.2870763 1.26669511
v -14.350483 -4.55547482 1.26538041
v -14.3504834 -5.28645737 1.61108964
v -14.3504831 -4.55485589 1.60977482
vt -0.729645014 0.76195401
vt 0.725085974 0.76195401
vt -0.729645014 1.41580498
vt -0.729645014 1.41580498
vt 0.725085974 0.76195401
vt 0.725085974 1.41580498
vt 0.48417899 1.28810096
vt 0.521722019 1.59892797
vt -0.176115006 1.36785305
vt -0.176115006 1.36785305
vt 0.521722019 1.59892797
vt -0.138572007 1.67867994
vt 0.729645014 1.23102605
vt -0.725085974 1.23102605
vt 0.729645014 0.582325995
vt 0.729645014 0.582325995
vt -0.725085974 1.23102605
vt -0.725085974 0.582325995
vt -0.48417899 1.28810096
vt 0.176115006 1.36785305
vt -0.521722019 1.59892797
vt -0.521722019 1.59892797
vt 0.176115006 1.36785305
vt 0.138572007 1.67867994
f 1/1 2/2 3/3
f 3/4 2/5 4/6
f 5/7 6/8 7/9
f 7/10 6/11 8/12
f 9/13 10/14 11/15
f 11/16 10/17 12/18
f 13/19 14/20 15/21
f 15/22 14/23 16/24
