# Exported from USD for MuJoCo with source material subsets
v -10.2232551 -3.99870129 0.859481001
v -10.2232551 -3.9984047 1.02448087
v -11.1032554 -3.99870082 0.859480882
v -11.1032555 -3.99840423 1.02448064
v -11.4895897 -2.81163438 0.399476821
v -11.502685 -2.81163438 0.399476821
v -11.4895899 -3.40563389 0.400544221
v -11.5026852 -3.40563389 0.400544221
v -11.4895897 -2.81166252 0.383888418
v -11.4895899 -3.40566202 0.384955877
v -9.8769745 -3.39762588 0.396902436
v -9.86388132 -3.3978202 0.396768982
v -9.86817739 -2.80369242 0.395487064
v -9.85508416 -2.80388673 0.39535349
v -9.877134 -3.39766069 0.381314928
v -9.86833683 -2.80372723 0.379899615
v -11.1032549 -2.21662565 1.02127873
v -10.2232546 -2.21662601 1.02127897
v -11.1032549 -2.21692224 0.856278861
v -10.2232545 -2.21692248 0.856279099
vt 0.40227899 0.862487018
vt 0.40227899 1.01140404
vt -0.397720993 0.862487018
vt -0.397720993 0.862487018
vt 0.40227899 1.01140404
vt -0.397720993 1.01140404
vt -0.748933971 0.208425999
vt -0.760838985 0.208425999
vt -0.748933971 -0.327677995
vt -0.748933971 -0.327677995
vt -0.760838985 0.208425999
vt -0.760838985 -0.327677995
vt 0.210124999 0.564668
vt 0.208425999 0.57873702
vt -0.325978994 0.499915987
vt -0.325978994 0.499915987
vt 0.208425999 0.57873702
vt -0.327677995 0.513984978
vt 0.717079997 -0.320048988
vt 0.728981972 -0.320208997
vt 0.725076973 0.216033995
vt 0.725076973 0.216033995
vt 0.728981972 -0.320208997
vt 0.736980021 0.215873003
vt 0.318356007 0.497516006
vt 0.320048988 0.511584997
vt -0.217727005 0.561946988
vt -0.217727005 0.561946988
vt 0.320048988 0.511584997
vt -0.216033995 0.576016009
vt 0.397720993 1.20563698
vt -0.40227899 1.20563698
vt 0.397720993 1.05671895
vt 0.397720993 1.05671895
vt -0.40227899 1.20563698
vt -0.40227899 1.05671895
f 1/1 2/2 3/3
f 3/4 2/5 4/6
f 5/7 6/8 7/9
f 7/10 6/11 8/12
f 9/13 5/14 10/15
f 10/16 5/17 7/18
f 11/19 12/20 13/21
f 13/22 12/23 14/24
f 15/25 11/26 16/27
f 16/28 11/29 13/30
f 17/31 18/32 19/33
f 19/34 18/35 20/36
