# Exported from USD for MuJoCo with source material subsets
v -16.6228756 -5.54982454 1.14741118
v -16.6237008 -5.54611046 1.14402422
v -16.6205612 -5.56277353 1.12881498
v -16.6243429 -5.54322178 1.13987211
v -16.6247699 -5.54130537 1.13516069
v -16.6249589 -5.54046375 1.13013981
v -16.624901 -5.54073269 1.12504716
v -16.6245995 -5.54210216 1.12014177
v -16.6240691 -5.54450018 1.11567729
v -16.6233361 -5.54781181 1.11186613
v -16.6224381 -5.55186636 1.10890666
v -16.6214201 -5.55645878 1.10694694
v -16.6203315 -5.56136925 1.10608147
v -16.6192293 -5.56633789 1.1063571
v -16.6181675 -5.57112247 1.10775822
v -16.6171977 -5.5754903 1.11021867
v -14.1140129 -4.28901941 1.13537981
v -14.1130412 -4.29340369 1.13297526
v -14.1153229 -4.2806688 1.11422795
v -14.1122096 -4.2971595 1.12962895
v -14.1115594 -4.30009753 1.12550639
v -14.1111254 -4.3020621 1.12082609
v -14.1109279 -4.30296237 1.11580998
v -14.110977 -4.30275041 1.11071269
v -14.1112702 -4.30143768 1.10579814
v -14.1117931 -4.29908735 1.10130034
v -14.1125192 -4.29582054 1.09745256
v -14.1134118 -4.29180199 1.09444841
v -14.1144279 -4.28722483 1.09243217
v -14.1155139 -4.28233082 1.09151115
v -14.1166165 -4.27735907 1.09172905
v -14.1176825 -4.27255089 1.09307646
v -14.1201557 -4.29206569 1.13950407
v -14.1191886 -4.29643018 1.13722282
v -14.1183287 -4.30031163 1.13415922
v -14.1176059 -4.30357749 1.13041716
v -14.1170441 -4.30611736 1.1261237
v -14.116663 -4.30784423 1.12142485
v -14.1164755 -4.30869896 1.11648015
v -14.116488 -4.30865199 1.11145756
v -14.1167001 -4.30770451 1.10652787
v -14.1171047 -4.30588919 1.10186296
v -14.1176874 -4.30326921 1.09762211
v -14.1184289 -4.29993302 1.09394609
v -14.1193036 -4.29599435 1.09096012
v -14.1202823 -4.29158646 1.08876603
v -14.1213315 -4.28685886 1.08743852
v -14.1224154 -4.28197271 1.08702336
v -14.1234975 -4.27709371 1.0875352
v -14.1245404 -4.27238852 1.08895744
v -14.1677143 -4.29843027 1.12927971
v -14.1667734 -4.30267674 1.12669279
v -14.1660519 -4.30593592 1.12288847
v -14.1656205 -4.30788857 1.11823832
v -14.1655216 -4.30834324 1.11319731
v -14.165765 -4.30725462 1.10825908
v -14.1663271 -4.30472953 1.10390666
v -14.1671523 -4.30101401 1.10056681
v -14.1681606 -4.29647285 1.09856645
v -14.1692526 -4.29154999 1.0981021
v -14.1703219 -4.28672773 1.09921891
v -14.1211989 -4.28736026 1.14092619
v -14.1150787 -4.28421146 1.13672722
v -14.1222809 -4.2824815 1.14143815
v -14.1161815 -4.27923948 1.13694499
v -14.1233649 -4.27759511 1.14102287
v -14.1172672 -4.27434546 1.13602409
v -14.124414 -4.27286751 1.13969548
v -14.1182834 -4.26976854 1.13400798
v -14.1253925 -4.26845962 1.13750126
v -14.119176 -4.26575 1.13100371
v -14.1262675 -4.26452095 1.13451542
v -14.127009 -4.261185 1.1308394
v -14.1199023 -4.26248295 1.12715593
v -14.1275917 -4.25856501 1.12659843
v -14.1204252 -4.26013285 1.12265813
v -14.1279963 -4.25674969 1.12193351
v -14.1207184 -4.25881988 1.11774345
v -14.1282085 -4.25580198 1.11700407
v -14.1207675 -4.25860793 1.11264616
v -14.1282209 -4.25575501 1.11198137
v -14.1280331 -4.25660974 1.10703667
v -14.1205696 -4.25950796 1.10763017
v -14.127652 -4.25833685 1.10233769
v -14.120136 -4.26147253 1.10294975
v -14.1270905 -4.26087648 1.09804436
v -14.1194858 -4.2644108 1.09882721
v -14.1263673 -4.26414282 1.09430229
v -14.1186539 -4.26816661 1.09548126
v -14.1255076 -4.26802379 1.09123869
v -14.1687834 -4.29360802 1.13039665
v -14.1698754 -4.28868491 1.12993205
v -14.1708835 -4.28414375 1.12793181
v -14.1717089 -4.28042871 1.12459208
v -14.1722709 -4.27790338 1.12023967
v -14.1725141 -4.276815 1.11530131
v -14.1724154 -4.27726967 1.11026042
v -14.1719842 -4.27922231 1.10561027
v -14.1712626 -4.2824815 1.10180571
v -16.6163722 -5.57920391 1.11360551
v -16.6157299 -5.58209259 1.11775773
v -16.6153031 -5.58400852 1.12246904
v -16.6151141 -5.58485109 1.12748991
v -16.6151718 -5.58458168 1.13258256
v -16.6154738 -5.58321268 1.13748796
v -16.6160038 -5.58081466 1.14195244
v -16.6167367 -5.57750303 1.14576347
v -16.6176352 -5.57344801 1.14872307
v -16.618653 -5.56885559 1.15068278
v -16.6197419 -5.56394512 1.15154814
v -16.6208439 -5.55897648 1.15127263
v -16.6219059 -5.55419189 1.14987151
v -16.6101438 -5.5765484 1.10659233
v -16.6093169 -5.58027155 1.10985454
v -16.6086331 -5.58334667 1.11376201
v -16.6081164 -5.58566839 1.11818193
v -16.6077838 -5.58715803 1.12296403
v -16.6076476 -5.58776504 1.12794597
v -16.6077114 -5.5874675 1.13295842
v -16.6079739 -5.58627636 1.13783073
v -16.6084258 -5.58422977 1.14239714
v -16.6090518 -5.5814007 1.14649858
v -16.6098301 -5.57788498 1.1499954
v -16.6107346 -5.57380277 1.15277141
v -16.6117343 -5.56929142 1.15473247
v -16.6127958 -5.56450493 1.1558112
v -16.6138825 -5.55960542 1.15597111
v -16.6149577 -5.55475981 1.15520573
v -16.6159845 -5.55013258 1.15354069
v -16.6169282 -5.54588157 1.15103215
v -16.5648487 -5.5599826 1.11557914
v -16.5640624 -5.56352121 1.11911039
v -16.5635503 -5.56582243 1.12358928
v -16.5633625 -5.56665975 1.1285778
v -16.5635178 -5.56595117 1.13358794
v -16.5640006 -5.56376631 1.13812919
v -16.5647641 -5.56031782 1.14175688
v -16.5657334 -5.55594284 1.14411552
v -16.5668137 -5.55107052 1.1449738
v -16.5678993 -5.54617817 1.14424785
v -16.5688838 -5.54174454 1.14200822
v -16.6110877 -5.5722974 1.10408366
v -16.6121146 -5.56767113 1.10241887
v -16.6131896 -5.56282503 1.1016535
v -16.6142765 -5.55792553 1.10181315
v -16.6153378 -5.55313904 1.10289213
v -16.6163376 -5.54862768 1.10485307
v -16.6172422 -5.54454548 1.1076292
v -16.6180204 -5.54103023 1.1111259
v -16.6186464 -5.53820068 1.11522746
v -16.6190982 -5.53615457 1.11979374
v -16.6193609 -5.53496296 1.12466618
v -16.6194248 -5.53466541 1.12967863
v -16.6192881 -5.53527242 1.13466045
v -16.6189557 -5.53676206 1.13944267
v -16.6184391 -5.53908378 1.14386259
v -16.6177553 -5.54215938 1.14776994
v -16.5658332 -5.55554849 1.1133394
v -16.5669188 -5.55065615 1.11261345
v -16.5679991 -5.5457843 1.11347185
v -16.5689684 -5.5414098 1.11583049
v -16.5697319 -5.53796083 1.11945805
v -16.5702147 -5.53577596 1.12399943
v -16.57037 -5.53506738 1.12900956
v -16.5701822 -5.53590471 1.13399797
v -16.5696701 -5.53820593 1.13847685
vt 0.70806998 1.15139902
vt 0.704343021 1.148754
vt 0.717697024 1.13318598
vt 0.717697024 1.13318598
vt 0.704343021 1.148754
vt 0.701277971 1.14532602
vt 0.717697024 1.13318598
vt 0.701277971 1.14532602
vt 0.717697024 1.13318598
vt 0.717697024 1.13318598
vt 0.701277971 1.14532602
vt 0.699028015 1.14128697
vt 0.717697024 1.13318598
vt 0.699028015 1.14128697
vt 0.717697024 1.13318598
vt 0.717697024 1.13318598
vt 0.699028015 1.14128697
vt 0.697712004 1.13685
vt 0.717697024 1.13318598
vt 0.697712004 1.13685
vt 0.717697024 1.13318598
vt 0.717697024 1.13318598
vt 0.697712004 1.13685
vt 0.697391987 1.13222504
vt 0.717697024 1.13318598
vt 0.697391987 1.13222504
vt 0.717697024 1.13318598
vt 0.717697024 1.13318598
vt 0.697391987 1.13222504
vt 0.69808501 1.12764704
vt 0.717697024 1.13318598
vt 0.69808501 1.12764704
vt 0.717697024 1.13318598
vt 0.717697024 1.13318598
vt 0.69808501 1.12764704
vt 0.699754 1.123353
vt 0.717697024 1.13318598
vt 0.699754 1.123353
vt 0.717697024 1.13318598
vt 0.717697024 1.13318598
vt 0.699754 1.123353
vt 0.702320993 1.11954796
vt 0.717697024 1.13318598
vt 0.702320993 1.11954796
vt 0.717697024 1.13318598
vt 0.717697024 1.13318598
vt 0.702320993 1.11954796
vt 0.705651999 1.11642897
vt 0.717697024 1.13318598
vt 0.705651999 1.11642897
vt 0.717697024 1.13318598
vt 0.717697024 1.13318598
vt 0.705651999 1.11642897
vt 0.709578991 1.11415303
vt 0.717697024 1.13318598
vt 0.709578991 1.11415303
vt 0.717697024 1.13318598
vt 0.717697024 1.13318598
vt 0.709578991 1.11415303
vt 0.71391499 1.11282802
vt 0.717697024 1.13318598
vt 0.71391499 1.11282802
vt 0.717697024 1.13318598
vt 0.717697024 1.13318598
vt 0.71391499 1.11282802
vt 0.718428016 1.11252701
vt 0.717697024 1.13318598
vt 0.718428016 1.11252701
vt 0.717697024 1.13318598
vt 0.717697024 1.13318598
vt 0.718428016 1.11252701
vt 0.722900987 1.11326301
vt 0.717697024 1.13318598
vt 0.722900987 1.11326301
vt 0.727114022 1.11499906
vt 0.430929005 1.28002799
vt 0.427239001 1.27737296
vt 0.440804005 1.26186502
vt 0.440804005 1.26186502
vt 0.427239001 1.27737296
vt 0.424219996 1.27393794
vt -0.440804005 1.26186502
vt -0.424219996 1.27393794
vt -0.440804005 1.26186502
vt 0.440804005 1.26186502
vt 0.424219996 1.27393794
vt 0.422024995 1.26989305
vt -0.440804005 1.26186502
vt -0.422024995 1.26989305
vt -0.440804005 1.26186502
vt 0.440804005 1.26186502
vt 0.422024995 1.26989305
vt 0.420769989 1.26545203
vt -0.440804005 1.26186502
vt -0.420769989 1.26545203
vt -0.440804005 1.26186502
vt 0.440804005 1.26186502
vt 0.420769989 1.26545203
vt 0.420511991 1.26082695
vt -0.440804005 1.26186502
vt -0.420511991 1.26082695
vt -0.440804005 1.26186502
vt 0.440804005 1.26186502
vt 0.420511991 1.26082695
vt 0.421267986 1.25625098
vt -0.440804005 1.26186502
vt -0.421267986 1.25625098
vt -0.440804005 1.26186502
vt 0.440804005 1.26186502
vt 0.421267986 1.25625098
vt 0.422996014 1.25196099
vt -0.440804005 1.26186502
vt -0.422996014 1.25196099
vt -0.440804005 1.26186502
vt 0.440804005 1.26186502
vt 0.422996014 1.25196099
vt 0.425613999 1.24816298
vt -0.440804005 1.26186502
vt -0.425613999 1.24816298
vt -0.440804005 1.26186502
vt 0.440804005 1.26186502
vt 0.425613999 1.24816298
vt 0.42898801 1.24505198
vt -0.440804005 1.26186502
vt -0.42898801 1.24505198
vt -0.440804005 1.26186502
vt 0.440804005 1.26186502
vt 0.42898801 1.24505198
vt 0.432945997 1.24278605
vt -0.440804005 1.26186502
vt -0.432945997 1.24278605
vt -0.440804005 1.26186502
vt 0.440804005 1.26186502
vt 0.432945997 1.24278605
vt 0.437299013 1.24147296
vt -0.440804005 1.26186502
vt -0.437299013 1.24147296
vt -0.440804005 1.26186502
vt 0.440804005 1.26186502
vt 0.437299013 1.24147296
vt 0.441816986 1.241184
vt -0.440804005 1.26186502
vt -0.441816986 1.241184
vt -0.440804005 1.26186502
vt 0.440804005 1.26186502
vt 0.441816986 1.241184
vt 0.446278989 1.24193001
vt 0.440804005 1.26186502
vt 0.446278989 1.24193001
vt 0.450468987 1.24367797
vt 1.13666701 0.427724004
vt 1.13754702 0.424037993
vt 1.14225197 0.430929005
vt -0.430929005 1.28002799
vt -0.424037993 1.28087103
vt -0.424037993 1.28087103
vt 1.14225197 0.430929005
vt 1.13754702 0.424037993
vt 1.14313495 0.427239001
vt 0.427239001 1.27737296
vt 0.424037993 1.28087103
vt 0.420875013 1.27767706
vt 0.427239001 1.27737296
vt 0.420875013 1.27767706
vt 0.424219996 1.27393794
vt 0.424219996 1.27393794
vt 0.420875013 1.27767706
vt 0.418341011 1.27393901
vt 0.424219996 1.27393794
vt 0.418341011 1.27393901
vt 0.422024995 1.26989305
vt 0.422024995 1.26989305
vt 0.418341011 1.27393901
vt 0.416525006 1.26978397
vt 0.422024995 1.26989305
vt 0.416525006 1.26978397
vt 0.420769989 1.26545203
vt 0.420769989 1.26545203
vt 0.416525006 1.26978397
vt 0.415486008 1.26535296
vt 0.420769989 1.26545203
vt 0.415486008 1.26535296
vt 0.420511991 1.26082695
vt 0.420511991 1.26082695
vt 0.415486008 1.26535296
vt 0.415262014 1.26079702
vt -0.420511991 1.26082695
vt -0.415262014 1.26079702
vt -0.420511991 1.26082695
vt 0.420511991 1.26082695
vt 0.415262014 1.26079702
vt 0.415859997 1.25627005
vt 0.420511991 1.26082695
vt 0.415859997 1.25627005
vt 0.421267986 1.25625098
vt 0.421267986 1.25625098
vt 0.415859997 1.25627005
vt 0.417259991 1.25192702
vt 0.421267986 1.25625098
vt 0.417259991 1.25192702
vt 0.422996014 1.25196099
vt 0.422996014 1.25196099
vt 0.417259991 1.25192702
vt 0.419414997 1.24791801
vt 0.422996014 1.25196099
vt 0.419414997 1.24791801
vt 0.425613999 1.24816298
vt 0.425613999 1.24816298
vt 0.419414997 1.24791801
vt 0.422248006 1.24438095
vt 0.425613999 1.24816298
vt 0.422248006 1.24438095
vt 0.42898801 1.24505198
vt 0.42898801 1.24505198
vt 0.422248006 1.24438095
vt 0.425664991 1.24143302
vt -0.42898801 1.24505198
vt -0.425664991 1.24143302
vt -0.42898801 1.24505198
vt -1.14361 0.42898801
vt -1.138237 0.425664991
vt -1.13744199 0.429549009
vt -1.14361 0.42898801
vt -1.13744199 0.429549009
vt -1.14279795 0.432945997
vt -1.14279795 0.432945997
vt -1.13744199 0.429549009
vt -1.13655198 0.433768988
vt -1.14279795 0.432945997
vt -1.13655198 0.433768988
vt -1.14187503 0.437299013
vt -1.14187503 0.437299013
vt -1.13655198 0.433768988
vt -1.13559902 0.438181996
vt -1.14187503 0.437299013
vt -1.13559902 0.438181996
vt -1.14088702 0.441816986
vt -1.14088702 0.441816986
vt -1.13559902 0.438181996
vt -1.13461304 0.442636997
vt -1.14088702 0.441816986
vt -1.13461304 0.442636997
vt -1.13988495 0.446278989
vt -1.13988495 0.446278989
vt -1.13461304 0.442636997
vt -1.13363004 0.44698301
vt -1.13988495 0.446278989
vt -1.13363004 0.44698301
vt -1.13891602 0.450468987
vt -1.13891602 0.450468987
vt -1.13363004 0.44698301
vt -1.13268101 0.451070994
vt 1.13666701 0.427724004
vt 1.09343302 0.423112005
vt 1.13754702 0.424037993
vt 1.13754702 0.424037993
vt 1.09343302 0.423112005
vt 1.09428799 0.419566005
vt 1.13754702 1.28087103
vt 1.09428799 1.27067804
vt 1.13832796 1.27767706
vt -0.420875013 1.27767706
vt -0.419566005 1.27067804
vt -0.419566005 1.27067804
vt 1.13832796 1.27767706
vt 1.09428799 1.27067804
vt 1.13898599 1.27393901
vt 1.13898599 1.27393901
vt 1.09428799 1.27067804
vt 1.094944 1.26688504
vt 1.13898599 1.27393901
vt 1.094944 1.26688504
vt 1.13949597 1.26978397
vt 1.13949597 1.26978397
vt 1.094944 1.26688504
vt 1.09533596 1.26247299
vt 1.13949597 1.26978397
vt 1.09533596 1.26247299
vt 1.13984299 1.26535296
vt -0.415486008 1.26535296
vt -0.415798992 1.26247299
vt -0.415798992 1.26247299
vt 1.13984299 1.26535296
vt 1.09533596 1.26247299
vt 1.14001298 1.26079702
vt 1.14001298 1.26079702
vt 1.09533596 1.26247299
vt 1.09542596 1.25787401
vt 1.14001298 1.26079702
vt 1.09542596 1.25787401
vt 1.14000201 1.25627005
vt -0.415859997 1.25627005
vt -0.415946007 1.25787401
vt -0.415946007 1.25787401
vt 1.14000201 1.25627005
vt 1.09542596 1.25787401
vt 1.13980901 1.25192702
vt 1.13980901 1.25192702
vt 1.09542596 1.25787401
vt 1.095204 1.25353801
vt 1.13980901 1.25192702
vt 1.095204 1.25353801
vt 1.13944101 1.24791801
vt 1.13944101 1.24791801
vt 1.095204 1.25353801
vt 1.09469402 1.24988997
vt 1.13944101 1.24791801
vt 1.09469402 1.24988997
vt 1.13891101 1.24438095
vt -0.422248006 1.24438095
vt -0.420235008 1.24988997
vt -0.420235008 1.24988997
vt -1.13891101 0.422248006
vt -1.09469402 0.420235008
vt -1.138237 0.425664991
vt -1.138237 0.425664991
vt -1.09469402 0.420235008
vt -1.093943 0.42395699
vt -1.138237 0.425664991
vt -1.093943 0.42395699
vt -1.13744199 0.429549009
vt -0.429549009 1.23917496
vt -0.42395699 1.24728799
vt -0.42395699 1.24728799
vt -1.13744199 0.429549009
vt -1.093943 0.42395699
vt -1.13655198 0.433768988
vt -1.13655198 0.433768988
vt -1.093943 0.42395699
vt -1.093027 0.428276002
vt -1.13655198 0.433768988
vt -1.093027 0.428276002
vt -1.13559902 0.438181996
vt -1.13559902 0.438181996
vt -1.093027 0.428276002
vt -1.09203398 0.432769001
vt -1.13559902 0.438181996
vt -1.09203398 0.432769001
vt -1.13461304 0.442636997
vt -0.442636997 1.23717403
vt -0.432769001 1.24611104
vt -0.432769001 1.24611104
vt -1.13461304 0.442636997
vt -1.09203398 0.432769001
vt -1.13363004 0.44698301
vt -1.13363004 0.44698301
vt -1.09203398 0.432769001
vt -1.09106195 0.436996996
vt -1.13363004 0.44698301
vt -1.09106195 0.436996996
vt -1.13268101 0.451070994
vt 1.13666701 0.427724004
vt 1.14225197 0.430929005
vt 1.13571894 0.431811988
vt 1.13571894 0.431811988
vt 1.14225197 0.430929005
vt 1.14128304 0.43511799
vt 1.13571894 0.431811988
vt 1.14128304 0.43511799
vt 1.13473594 0.436158001
vt 1.13473594 0.436158001
vt 1.14128304 0.43511799
vt 1.14028096 0.439579993
vt 1.13473594 0.436158001
vt 1.14028096 0.439579993
vt 1.13374996 0.440613002
vt 1.13374996 0.440613002
vt 1.14028096 0.439579993
vt 1.13929296 0.444097996
vt 1.13374996 0.440613002
vt 1.13929296 0.444097996
vt 1.13279605 0.445024997
vt 1.13279605 0.445024997
vt 1.13929296 0.444097996
vt 1.13837004 0.448451012
vt 1.13279605 0.445024997
vt 1.13837004 0.448451012
vt 1.13190699 0.449245989
vt 1.13190699 0.449245989
vt 1.13837004 0.448451012
vt 1.13755798 0.452410012
vt 1.13190699 0.449245989
vt 1.13755798 0.452410012
vt 1.13111198 0.453130007
vt -0.453130007 1.28195798
vt -0.452410012 1.27865303
vt -0.452410012 1.27865303
vt 1.13111198 0.453130007
vt 1.13755798 0.452410012
vt 1.13043702 0.456546992
vt -1.13043702 1.27901006
vt -1.13755798 1.27865303
vt -1.13689804 1.27554297
vt -1.13043702 1.27901006
vt -1.13689804 1.27554297
vt -1.12990797 1.275473
vt -1.12990797 1.275473
vt -1.13689804 1.27554297
vt -1.13642299 1.27174401
vt -1.12990797 1.275473
vt -1.13642299 1.27174401
vt -1.12953997 1.27146494
vt -1.12953997 1.27146494
vt -1.13642299 1.27174401
vt -1.13615596 1.26745498
vt -1.12953997 1.27146494
vt -1.13615596 1.26745498
vt -1.12934697 1.26712096
vt -1.12934697 1.26712096
vt -1.13615596 1.26745498
vt -1.13611102 1.26287901
vt -1.12934697 1.26712096
vt -1.13611102 1.26287901
vt -1.129336 1.26259506
vt -0.463533014 1.26259506
vt -0.460884988 1.26287901
vt -0.460884988 1.26287901
vt -1.129336 1.26259506
vt -1.13611102 1.26287901
vt -1.12950599 1.25803804
vt -1.12950599 1.25803804
vt -1.13611102 1.26287901
vt -1.13629103 1.25825298
vt -1.12950599 1.25803804
vt -1.13629103 1.25825298
vt -1.12985301 1.25360703
vt -1.12985301 1.25360703
vt -1.13629103 1.25825298
vt -1.13668597 1.25381303
vt -1.12985301 1.25360703
vt -1.13668597 1.25381303
vt -1.13036299 1.24945199
vt -1.13036299 1.24945199
vt -1.13668597 1.25381303
vt -1.13727701 1.24976802
vt -1.13036299 1.24945199
vt -1.13727701 1.24976802
vt -1.13102102 1.24571395
vt -1.13102102 1.24571395
vt -1.13727701 1.24976802
vt -1.13803303 1.246333
vt -1.13102102 1.24571395
vt -1.13803303 1.246333
vt -1.13180196 1.24251997
vt -1.13180196 0.454757005
vt -1.13803303 0.454158992
vt -1.13891602 0.450468987
vt -1.13180196 0.454757005
vt -1.13891602 0.450468987
vt -1.13268101 0.451070994
vt 1.13666701 0.427724004
vt 1.13571894 0.431811988
vt 1.09343302 0.423112005
vt -0.423112005 1.27348197
vt -0.431811988 1.28521597
vt -0.431811988 1.28521597
vt 1.09343302 0.423112005
vt 1.13571894 0.431811988
vt 1.09246099 0.427340001
vt 1.09246099 0.427340001
vt 1.13571894 0.431811988
vt 1.13473594 0.436158001
vt -0.427340001 1.27502406
vt -0.436158001 1.28621805
vt -0.427340001 1.27502406
vt 1.09246099 0.427340001
vt 1.13473594 0.436158001
vt 1.13374996 0.440613002
vt 1.09246099 0.427340001
vt 1.13374996 0.440613002
vt 1.09146798 0.431832999
vt 1.09146798 0.431832999
vt 1.13374996 0.440613002
vt 1.13279605 0.445024997
vt 1.09146798 0.431832999
vt 1.13279605 0.445024997
vt 1.09055102 0.436152011
vt 1.09055102 0.436152011
vt 1.13279605 0.445024997
vt 1.13190699 0.449245989
vt -0.436152011 1.27384698
vt -0.449245989 1.284217
vt -0.436152011 1.27384698
vt 1.09055102 0.436152011
vt 1.13190699 0.449245989
vt 1.13111198 0.453130007
vt 1.09055102 0.436152011
vt 1.13111198 0.453130007
vt 1.08980095 0.439873993
vt 1.08980095 0.439873993
vt 1.13111198 0.453130007
vt 1.13043702 0.456546992
vt -0.439873993 1.27124405
vt -0.456546992 1.27901006
vt -0.439873993 1.27124405
vt -1.08980095 1.27124405
vt -1.13043702 1.27901006
vt -1.12990797 1.275473
vt -1.08980095 1.27124405
vt -1.12990797 1.275473
vt -1.08929002 1.26759601
vt -1.08929002 1.26759601
vt -1.12990797 1.275473
vt -1.12953997 1.27146494
vt -1.08929002 1.26759601
vt -1.12953997 1.27146494
vt -1.08906901 1.26326001
vt -1.08906901 1.26326001
vt -1.12953997 1.27146494
vt -1.12934697 1.26712096
vt -0.444162995 1.26326001
vt -0.462935001 1.26712096
vt -0.444162995 1.26326001
vt -1.08906901 1.26326001
vt -1.12934697 1.26712096
vt -1.129336 1.26259506
vt -1.08906901 1.26326001
vt -1.129336 1.26259506
vt -1.08915901 1.25866199
vt -1.08915901 1.25866199
vt -1.129336 1.26259506
vt -1.12950599 1.25803804
vt -0.444310009 1.25866199
vt -0.463308007 1.25803804
vt -0.444310009 1.25866199
vt -1.08915901 1.25866199
vt -1.12950599 1.25803804
vt -1.12985301 1.25360703
vt -1.08915901 1.25866199
vt -1.12985301 1.25360703
vt -1.08955097 1.25424898
vt -1.08955097 1.25424898
vt -1.12985301 1.25360703
vt -1.13036299 1.24945199
vt -1.08955097 1.25424898
vt -1.13036299 1.24945199
vt -1.09020698 1.25045598
vt -1.09020698 1.25045598
vt -1.13036299 1.24945199
vt -1.13102102 1.24571395
vt -0.440542996 1.25045598
vt -0.457920015 1.24571395
vt -0.440542996 1.25045598
vt -1.09020698 0.440542996
vt -1.13102102 0.457920015
vt -1.13180196 0.454757005
vt -1.09020698 0.440542996
vt -1.13180196 0.454757005
vt -1.09106195 0.436996996
vt -1.09106195 0.436996996
vt -1.13180196 0.454757005
vt -1.13268101 0.451070994
vt 0.430929005 1.28002799
vt 0.440804005 1.26186502
vt 0.43511799 1.281775
vt -0.43511799 1.281775
vt -0.440804005 1.26186502
vt -0.440804005 1.26186502
vt 0.43511799 1.281775
vt 0.440804005 1.26186502
vt 0.439579993 1.28252196
vt -0.439579993 1.28252196
vt -0.440804005 1.26186502
vt -0.440804005 1.26186502
vt 0.439579993 1.28252196
vt 0.440804005 1.26186502
vt 0.444097996 1.28223205
vt -0.444097996 1.28223205
vt -0.440804005 1.26186502
vt -0.440804005 1.26186502
vt 0.444097996 1.28223205
vt 0.440804005 1.26186502
vt 0.448451012 1.28092003
vt -0.448451012 1.28092003
vt -0.440804005 1.26186502
vt -0.440804005 1.26186502
vt 0.448451012 1.28092003
vt 0.440804005 1.26186502
vt 0.452410012 1.27865303
vt -0.452410012 1.27865303
vt -0.440804005 1.26186502
vt -0.440804005 1.26186502
vt 0.452410012 1.27865303
vt 0.440804005 1.26186502
vt 0.45578301 1.27554297
vt -0.45578301 1.27554297
vt -0.440804005 1.26186502
vt -0.440804005 1.26186502
vt 0.45578301 1.27554297
vt 0.440804005 1.26186502
vt 0.458402008 1.27174401
vt -0.458402008 1.27174401
vt -0.440804005 1.26186502
vt -0.440804005 1.26186502
vt 0.458402008 1.27174401
vt 0.440804005 1.26186502
vt 0.460130006 1.26745498
vt -0.460130006 1.26745498
vt -0.440804005 1.26186502
vt -0.440804005 1.26186502
vt 0.460130006 1.26745498
vt 0.440804005 1.26186502
vt 0.460884988 1.26287901
vt -0.460884988 1.26287901
vt -0.440804005 1.26186502
vt -0.440804005 1.26186502
vt 0.460884988 1.26287901
vt 0.440804005 1.26186502
vt 0.460628003 1.25825298
vt -0.460628003 1.25825298
vt -0.440804005 1.26186502
vt -0.440804005 1.26186502
vt 0.460628003 1.25825298
vt 0.440804005 1.26186502
vt 0.459372997 1.25381303
vt -0.459372997 1.25381303
vt -0.440804005 1.26186502
vt -0.440804005 1.26186502
vt 0.459372997 1.25381303
vt 0.440804005 1.26186502
vt 0.457177997 1.24976802
vt -0.457177997 1.24976802
vt -0.440804005 1.26186502
vt -0.440804005 1.26186502
vt 0.457177997 1.24976802
vt 0.440804005 1.26186502
vt 0.454158992 1.246333
vt 0.454158992 1.246333
vt 0.440804005 1.26186502
vt 0.450468987 1.24367797
vt 0.727114022 1.11499906
vt 0.730840027 1.11764503
vt 0.717697024 1.13318598
vt 0.717697024 1.13318598
vt 0.730840027 1.11764503
vt 0.733905017 1.12107205
vt 0.717697024 1.13318598
vt 0.733905017 1.12107205
vt 0.717697024 1.13318598
vt 0.717697024 1.13318598
vt 0.733905017 1.12107205
vt 0.736155987 1.12511098
vt 0.717697024 1.13318598
vt 0.736155987 1.12511098
vt 0.717697024 1.13318598
vt 0.717697024 1.13318598
vt 0.736155987 1.12511098
vt 0.737470984 1.12954795
vt 0.717697024 1.13318598
vt 0.737470984 1.12954795
vt 0.717697024 1.13318598
vt 0.717697024 1.13318598
vt 0.737470984 1.12954795
vt 0.737792015 1.13417304
vt 0.717697024 1.13318598
vt 0.737792015 1.13417304
vt 0.717697024 1.13318598
vt 0.717697024 1.13318598
vt 0.737792015 1.13417304
vt 0.737098992 1.13875103
vt 0.717697024 1.13318598
vt 0.737098992 1.13875103
vt 0.717697024 1.13318598
vt 0.717697024 1.13318598
vt 0.737098992 1.13875103
vt 0.735428989 1.14304495
vt 0.717697024 1.13318598
vt 0.735428989 1.14304495
vt 0.717697024 1.13318598
vt 0.717697024 1.13318598
vt 0.735428989 1.14304495
vt 0.732863009 1.14684999
vt 0.717697024 1.13318598
vt 0.732863009 1.14684999
vt 0.717697024 1.13318598
vt 0.717697024 1.13318598
vt 0.732863009 1.14684999
vt 0.72953099 1.14996898
vt 0.717697024 1.13318598
vt 0.72953099 1.14996898
vt 0.717697024 1.13318598
vt 0.717697024 1.13318598
vt 0.72953099 1.14996898
vt 0.725603998 1.152246
vt 0.717697024 1.13318598
vt 0.725603998 1.152246
vt 0.717697024 1.13318598
vt 0.717697024 1.13318598
vt 0.725603998 1.152246
vt 0.721269011 1.15357006
vt 0.717697024 1.13318598
vt 0.721269011 1.15357006
vt 0.717697024 1.13318598
vt 0.717697024 1.13318598
vt 0.721269011 1.15357006
vt 0.716754973 1.15387106
vt 0.717697024 1.13318598
vt 0.716754973 1.15387106
vt 0.717697024 1.13318598
vt 0.717697024 1.13318598
vt 0.716754973 1.15387106
vt 0.712283015 1.15313601
vt 0.717697024 1.13318598
vt 0.712283015 1.15313601
vt 0.70806998 1.15139902
vt 1.12695706 -0.727667987
vt 1.12620497 -0.731387973
vt 1.13336897 -0.727114022
vt 0.727114022 1.11499906
vt 0.731387973 1.11414194
vt 0.731387973 1.11414194
vt 1.13336897 -0.727114022
vt 1.12620497 -0.731387973
vt 1.13261902 -0.730840027
vt -1.13261902 1.11764503
vt -1.12620497 1.11414194
vt -1.12558401 1.11732805
vt -1.13261902 1.11764503
vt -1.12558401 1.11732805
vt -1.13203502 1.12107205
vt -1.13203502 1.12107205
vt -1.12558401 1.11732805
vt -1.12511396 1.12105894
vt -1.13203502 1.12107205
vt -1.12511396 1.12105894
vt -1.13164699 1.12511098
vt -1.13164699 1.12511098
vt -1.12511396 1.12105894
vt -1.12481201 1.12520897
vt -1.13164699 1.12511098
vt -1.12481201 1.12520897
vt -1.13147497 1.12954795
vt -1.13147497 1.12954795
vt -1.12481201 1.12520897
vt -1.12468803 1.129637
vt -1.13147497 1.12954795
vt -1.12468803 1.129637
vt -1.13152802 1.13417304
vt -1.13152802 1.13417304
vt -1.12468803 1.129637
vt -1.12474597 1.13419294
vt 0.737792015 1.13417304
vt 0.740436971 1.13419294
vt 0.737792015 1.13417304
vt -1.13152802 1.13417304
vt -1.12474597 1.13419294
vt -1.12498403 1.13872099
vt -1.13152802 1.13417304
vt -1.12498403 1.13872099
vt -1.13180196 1.13875103
vt -1.13180196 1.13875103
vt -1.12498403 1.13872099
vt -1.12539506 1.14306796
vt -1.13180196 1.13875103
vt -1.12539506 1.14306796
vt -1.13228405 1.14304495
vt -1.13228405 1.14304495
vt -1.12539506 1.14306796
vt -1.12596405 1.14708197
vt -1.13228405 1.14304495
vt -1.12596405 1.14708197
vt -1.13294995 1.14684999
vt -1.13294995 1.14684999
vt -1.12596405 1.14708197
vt -1.12667203 1.15062594
vt -1.13294995 1.14684999
vt -1.12667203 1.15062594
vt -1.13376701 1.14996898
vt -1.13376701 1.14996898
vt -1.12667203 1.15062594
vt -1.12749398 1.15358305
vt 0.72953099 1.14996898
vt 0.730298996 1.15358305
vt 0.72953099 1.14996898
vt -1.13376701 -0.72953099
vt -1.12749398 -0.730298996
vt -1.12840295 -0.726445019
vt -1.13376701 -0.72953099
vt -1.12840295 -0.726445019
vt -1.13469195 -0.725603998
vt -1.13469195 -0.725603998
vt -1.12840295 -0.726445019
vt -1.12936795 -0.722244978
vt -1.13469195 -0.725603998
vt -1.12936795 -0.722244978
vt -1.13568199 -0.721269011
vt -1.13568199 -0.721269011
vt -1.12936795 -0.722244978
vt -1.13035595 -0.717841983
vt -1.13568199 -0.721269011
vt -1.13035595 -0.717841983
vt -1.13668394 -0.716754973
vt -1.13668394 -0.716754973
vt -1.13035595 -0.717841983
vt -1.13133299 -0.713384986
vt -1.13668394 -0.716754973
vt -1.13133299 -0.713384986
vt -1.13765001 -0.712283015
vt -1.13765001 -0.712283015
vt -1.13133299 -0.713384986
vt -1.132267 -0.709025979
vt -1.13765001 -0.712283015
vt -1.132267 -0.709025979
vt -1.13853097 -0.70806998
vt -1.13853097 -0.70806998
vt -1.132267 -0.709025979
vt -1.13312399 -0.70491302
vt 1.12695706 -0.727667987
vt 1.08578002 -0.713714004
vt 1.12620497 -0.731387973
vt 1.12620497 -0.731387973
vt 1.08578002 -0.713714004
vt 1.08506501 -0.717297018
vt 1.12620497 -0.731387973
vt 1.08506501 -0.717297018
vt 1.12558401 -0.734595001
vt 0.734595001 1.11732805
vt 0.717297018 1.12434697
vt 0.717297018 1.12434697
vt -1.12558401 1.11732805
vt -1.08506501 1.12434697
vt -1.12511396 1.12105894
vt -1.12511396 1.12105894
vt -1.08506501 1.12434697
vt -1.08459902 1.12813401
vt -1.12511396 1.12105894
vt -1.08459902 1.12813401
vt -1.12481201 1.12520897
vt -1.12481201 1.12520897
vt -1.08459902 1.12813401
vt -1.08442795 1.13254201
vt -1.12481201 1.12520897
vt -1.08442795 1.13254201
vt -1.12468803 1.129637
vt 0.740150988 1.129637
vt 0.721176982 1.13254201
vt 0.721176982 1.13254201
vt -1.12468803 1.129637
vt -1.08442795 1.13254201
vt -1.12474597 1.13419294
vt -1.12474597 1.13419294
vt -1.08442795 1.13254201
vt -1.08457005 1.13714194
vt -1.12474597 1.13419294
vt -1.08457005 1.13714194
vt -1.12498403 1.13872099
vt 0.739901006 1.13872099
vt 0.721091986 1.13714194
vt 0.721091986 1.13714194
vt -1.12498403 1.13872099
vt -1.08457005 1.13714194
vt -1.12539506 1.14306796
vt -1.12539506 1.14306796
vt -1.08457005 1.13714194
vt -1.08500898 1.14148104
vt -1.12539506 1.14306796
vt -1.08500898 1.14148104
vt -1.12596405 1.14708197
vt -1.12596405 1.14708197
vt -1.08500898 1.14148104
vt -1.08570302 1.145136
vt -1.12596405 1.14708197
vt -1.08570302 1.145136
vt -1.12667203 1.15062594
vt 0.733676016 1.15062594
vt 0.716911972 1.145136
vt 0.716911972 1.145136
vt -1.12667203 -0.733676016
vt -1.08570302 -0.716911972
vt -1.12749398 -0.730298996
vt -1.12749398 -0.730298996
vt -1.08570302 -0.716911972
vt -1.08658397 -0.71322602
vt -1.12749398 -0.730298996
vt -1.08658397 -0.71322602
vt -1.12840295 -0.726445019
vt 0.726445019 1.15585101
vt 0.71322602 1.14774799
vt 0.71322602 1.14774799
vt -1.12840295 -0.726445019
vt -1.08658397 -0.71322602
vt -1.12936795 -0.722244978
vt -1.12936795 -0.722244978
vt -1.08658397 -0.71322602
vt -1.08756602 -0.708925009
vt -1.12936795 -0.722244978
vt -1.08756602 -0.708925009
vt -1.13035595 -0.717841983
vt -1.13035595 -0.717841983
vt -1.08756602 -0.708925009
vt -1.08855295 -0.704429984
vt -1.13035595 -0.717841983
vt -1.08855295 -0.704429984
vt -1.13133299 -0.713384986
vt 0.713384986 1.15788603
vt 0.704429984 1.14894795
vt 0.704429984 1.14894795
vt -1.13133299 -0.713384986
vt -1.08855295 -0.704429984
vt -1.132267 -0.709025979
vt -1.132267 -0.709025979
vt -1.08855295 -0.704429984
vt -1.08944798 -0.700181007
vt -1.132267 -0.709025979
vt -1.08944798 -0.700181007
vt -1.13312399 -0.70491302
vt 1.12695706 -0.727667987
vt 1.13336897 -0.727114022
vt 1.12781501 -0.723555028
vt 1.12781501 -0.723555028
vt 1.13336897 -0.727114022
vt 1.134251 -0.722900987
vt 1.12781501 -0.723555028
vt 1.134251 -0.722900987
vt 1.12874901 -0.719196022
vt 1.12874901 -0.719196022
vt 1.134251 -0.722900987
vt 1.135216 -0.718428016
vt 1.12874901 -0.719196022
vt 1.135216 -0.718428016
vt 1.12972605 -0.714739025
vt 1.12972605 -0.714739025
vt 1.135216 -0.718428016
vt 1.13621795 -0.71391499
vt 1.12972605 -0.714739025
vt 1.13621795 -0.71391499
vt 1.13071406 -0.710335016
vt 1.13071406 -0.710335016
vt 1.13621795 -0.71391499
vt 1.13720798 -0.709578991
vt 1.13071406 -0.710335016
vt 1.13720798 -0.709578991
vt 1.13167906 -0.706134975
vt 1.13167906 -0.706134975
vt 1.13720798 -0.709578991
vt 1.138134 -0.705651999
vt 1.13167906 -0.706134975
vt 1.138134 -0.705651999
vt 1.13258803 -0.702282012
vt 0.702282012 1.11312997
vt 0.705651999 1.11642897
vt 0.705651999 1.11642897
vt 1.13258803 -0.702282012
vt 1.138134 -0.705651999
vt 1.13340998 -0.698904991
vt 0.698904991 1.11608601
vt 0.705651999 1.11642897
vt 0.702320993 1.11954796
vt 0.698904991 1.11608601
vt 0.702320993 1.11954796
vt 0.696120024 1.11962998
vt 0.696120024 1.11962998
vt 0.702320993 1.11954796
vt 0.699754 1.123353
vt 0.696120024 1.11962998
vt 0.699754 1.123353
vt 0.694020987 1.12364399
vt 0.694020987 1.12364399
vt 0.699754 1.123353
vt 0.69808501 1.12764704
vt 0.694020987 1.12364399
vt 0.69808501 1.12764704
vt 0.692678988 1.12799096
vt 0.692678988 1.12799096
vt 0.69808501 1.12764704
vt 0.697391987 1.13222504
vt 0.692678988 1.12799096
vt 0.697391987 1.13222504
vt 0.692143023 1.13251901
vt 0.692143023 1.13251901
vt 0.697391987 1.13222504
vt 0.697391987 1.13222504
vt 0.692143023 1.13251901
vt 0.697391987 1.13222504
vt 0.692430019 1.13707495
vt 0.692430019 1.13707495
vt 0.697391987 1.13222504
vt 0.697712004 1.13685
vt 0.692430019 1.13707495
vt 0.697712004 1.13685
vt 0.693527997 1.14150298
vt 0.693527997 1.14150298
vt 0.697712004 1.13685
vt 0.699028015 1.14128697
vt 0.693527997 1.14150298
vt 0.699028015 1.14128697
vt 0.695402026 1.14565396
vt 0.695402026 1.14565396
vt 0.699028015 1.14128697
vt 0.701277971 1.14532602
vt 0.695402026 1.14565396
vt 0.701277971 1.14532602
vt 0.697986007 1.14938498
vt 0.697986007 1.14938498
vt 0.701277971 1.14532602
vt 0.704343021 1.148754
vt 0.697986007 1.14938498
vt 0.704343021 1.148754
vt 0.701192021 1.15257096
vt 0.701192021 1.15257096
vt 0.704343021 1.148754
vt 0.70806998 1.15139902
vt -1.13387597 -0.701192021
vt -1.13853097 -0.70806998
vt -1.13312399 -0.70491302
vt 1.12695706 -0.727667987
vt 1.12781501 -0.723555028
vt 1.08578002 -0.713714004
vt 0.713714004 1.12155199
vt 0.723555028 1.10981703
vt 0.723555028 1.10981703
vt 1.08578002 -0.713714004
vt 1.12781501 -0.723555028
vt 1.08667505 -0.709465027
vt 1.08667505 -0.709465027
vt 1.12781501 -0.723555028
vt 1.12874901 -0.719196022
vt 0.709465027 1.12002206
vt 0.719196022 1.10882604
vt 0.709465027 1.12002206
vt 1.08667505 -0.709465027
vt 1.12874901 -0.719196022
vt 1.12972605 -0.714739025
vt 1.08667505 -0.709465027
vt 1.12972605 -0.714739025
vt 1.08766103 -0.704970002
vt 1.08766103 -0.704970002
vt 1.12972605 -0.714739025
vt 1.13071406 -0.710335016
vt 1.08766103 -0.704970002
vt 1.13071406 -0.710335016
vt 1.08864403 -0.700668991
vt 1.08864403 -0.700668991
vt 1.13071406 -0.710335016
vt 1.13167906 -0.706134975
vt 0.700668991 1.12122095
vt 0.706134975 1.11086094
vt 0.700668991 1.12122095
vt 1.08864403 -0.700668991
vt 1.13167906 -0.706134975
vt 1.13258803 -0.702282012
vt 1.08864403 -0.700668991
vt 1.13258803 -0.702282012
vt 1.08952498 -0.69698298
vt 1.08952498 -0.69698298
vt 1.13258803 -0.702282012
vt 1.13340998 -0.698904991
vt 0.69698298 1.12383401
vt 0.698904991 1.11608601
vt 0.69698298 1.12383401
vt 1.08952498 1.12383401
vt 1.13340998 1.11608601
vt 1.13411701 1.11962998
vt 1.08952498 1.12383401
vt 1.13411701 1.11962998
vt 1.09021902 1.12748802
vt 1.09021902 1.12748802
vt 1.13411701 1.11962998
vt 1.13468599 1.12364399
vt 1.09021902 1.12748802
vt 1.13468599 1.12364399
vt 1.09065795 1.13182795
vt 1.09065795 1.13182795
vt 1.13468599 1.12364399
vt 1.13509703 1.12799096
vt 0.692803025 1.13182795
vt 0.692678988 1.12799096
vt 0.692803025 1.13182795
vt 1.09065795 1.13182795
vt 1.13509703 1.12799096
vt 1.13533604 1.13251901
vt 1.09065795 1.13182795
vt 1.13533604 1.13251901
vt 1.09079897 1.13642704
vt 1.09079897 1.13642704
vt 1.13533604 1.13251901
vt 1.13539398 1.13707495
vt 0.692718029 1.13642704
vt 0.692430019 1.13707495
vt 0.692718029 1.13642704
vt 1.09079897 1.13642704
vt 1.13539398 1.13707495
vt 1.13527 1.14150298
vt 1.09079897 1.13642704
vt 1.13527 1.14150298
vt 1.09062803 1.140836
vt 1.09062803 1.140836
vt 1.13527 1.14150298
vt 1.13496804 1.14565396
vt 1.09062803 1.140836
vt 1.13496804 1.14565396
vt 1.09016299 1.14462304
vt 1.09016299 1.14462304
vt 1.13496804 1.14565396
vt 1.134498 1.14938498
vt 0.69659698 1.14462304
vt 0.697986007 1.14938498
vt 0.69659698 1.14462304
vt 1.09016299 1.14462304
vt 1.134498 1.14938498
vt 1.13387597 1.15257096
vt -1.09016299 -0.69659698
vt -1.13387597 -0.701192021
vt -1.08944798 -0.700181007
vt -1.08944798 -0.700181007
vt -1.13387597 -0.701192021
vt -1.13312399 -0.70491302
f 1/1 2/2 3/3
f 3/4 2/5 4/6
f 3/7 4/8 3/9
f 3/10 4/11 5/12
f 3/13 5/14 3/15
f 3/16 5/17 6/18
f 3/19 6/20 3/21
f 3/22 6/23 7/24
f 3/25 7/26 3/27
f 3/28 7/29 8/30
f 3/31 8/32 3/33
f 3/34 8/35 9/36
f 3/37 9/38 3/39
f 3/40 9/41 10/42
f 3/43 10/44 3/45
f 3/46 10/47 11/48
f 3/49 11/50 3/51
f 3/52 11/53 12/54
f 3/55 12/56 3/57
f 3/58 12/59 13/60
f 3/61 13/62 3/63
f 3/64 13/65 14/66
f 3/67 14/68 3/69
f 3/70 14/71 15/72
f 3/73 15/74 16/75
f 17/76 18/77 19/78
f 19/79 18/80 20/81
f 19/82 20/83 19/84
f 19/85 20/86 21/87
f 19/88 21/89 19/90
f 19/91 21/92 22/93
f 19/94 22/95 19/96
f 19/97 22/98 23/99
f 19/100 23/101 19/102
f 19/103 23/104 24/105
f 19/106 24/107 19/108
f 19/109 24/110 25/111
f 19/112 25/113 19/114
f 19/115 25/116 26/117
f 19/118 26/119 19/120
f 19/121 26/122 27/123
f 19/124 27/125 19/126
f 19/127 27/128 28/129
f 19/130 28/131 19/132
f 19/133 28/134 29/135
f 19/136 29/137 19/138
f 19/139 29/140 30/141
f 19/142 30/143 19/144
f 19/145 30/146 31/147
f 19/148 31/149 32/150
f 33/151 34/152 17/153
f 17/154 34/155 34/156
f 17/157 34/158 18/159
f 18/160 34/161 35/162
f 18/163 35/164 20/165
f 20/166 35/167 36/168
f 20/169 36/170 21/171
f 21/172 36/173 37/174
f 21/175 37/176 22/177
f 22/178 37/179 38/180
f 22/181 38/182 23/183
f 23/184 38/185 39/186
f 23/187 39/188 23/189
f 23/190 39/191 40/192
f 23/193 40/194 24/195
f 24/196 40/197 41/198
f 24/199 41/200 25/201
f 25/202 41/203 42/204
f 25/205 42/206 26/207
f 26/208 42/209 43/210
f 26/211 43/212 27/213
f 27/214 43/215 44/216
f 27/217 44/218 27/219
f 27/220 44/221 45/222
f 27/223 45/224 28/225
f 28/226 45/227 46/228
f 28/229 46/230 29/231
f 29/232 46/233 47/234
f 29/235 47/236 30/237
f 30/238 47/239 48/240
f 30/241 48/242 31/243
f 31/244 48/245 49/246
f 31/247 49/248 32/249
f 32/250 49/251 50/252
f 33/253 51/254 34/255
f 34/256 51/257 52/258
f 34/259 52/260 35/261
f 35/262 52/263 52/264
f 35/265 52/266 36/267
f 36/268 52/269 53/270
f 36/271 53/272 37/273
f 37/274 53/275 54/276
f 37/277 54/278 38/279
f 38/280 54/281 54/282
f 38/283 54/284 39/285
f 39/286 54/287 55/288
f 39/289 55/290 40/291
f 40/292 55/293 55/294
f 40/295 55/296 41/297
f 41/298 55/299 56/300
f 41/301 56/302 42/303
f 42/304 56/305 57/306
f 42/307 57/308 43/309
f 43/310 57/311 57/312
f 43/313 57/314 44/315
f 44/316 57/317 58/318
f 44/319 58/320 45/321
f 45/322 58/323 58/324
f 45/325 58/326 46/327
f 46/328 58/329 59/330
f 46/331 59/332 47/333
f 47/334 59/335 60/336
f 47/337 60/338 48/339
f 48/340 60/341 60/342
f 48/343 60/344 49/345
f 49/346 60/347 61/348
f 49/349 61/350 50/351
f 33/352 17/353 62/354
f 62/355 17/356 63/357
f 62/358 63/359 64/360
f 64/361 63/362 65/363
f 64/364 65/365 66/366
f 66/367 65/368 67/369
f 66/370 67/371 68/372
f 68/373 67/374 69/375
f 68/376 69/377 70/378
f 70/379 69/380 71/381
f 70/382 71/383 72/384
f 72/385 71/386 71/387
f 72/388 71/389 73/390
f 73/391 71/392 74/393
f 73/394 74/395 75/396
f 75/397 74/398 76/399
f 75/400 76/401 77/402
f 77/403 76/404 78/405
f 77/406 78/407 79/408
f 79/409 78/410 80/411
f 79/412 80/413 81/414
f 81/415 80/416 80/417
f 81/418 80/419 82/420
f 82/421 80/422 83/423
f 82/424 83/425 84/426
f 84/427 83/428 85/429
f 84/430 85/431 86/432
f 86/433 85/434 87/435
f 86/436 87/437 88/438
f 88/439 87/440 89/441
f 88/442 89/443 90/444
f 90/445 89/446 32/447
f 90/448 32/449 50/450
f 33/451 62/452 51/453
f 51/454 62/455 62/456
f 51/457 62/458 91/459
f 91/460 62/461 64/462
f 91/463 64/464 91/465
f 91/466 64/467 66/468
f 91/469 66/470 92/471
f 92/472 66/473 68/474
f 92/475 68/476 93/477
f 93/478 68/479 70/480
f 93/481 70/482 93/483
f 93/484 70/485 72/486
f 93/487 72/488 94/489
f 94/490 72/491 73/492
f 94/493 73/494 94/495
f 94/496 73/497 75/498
f 94/499 75/500 95/501
f 95/502 75/503 77/504
f 95/505 77/506 96/507
f 96/508 77/509 79/510
f 96/511 79/512 96/513
f 96/514 79/515 81/516
f 96/517 81/518 97/519
f 97/520 81/521 82/522
f 97/523 82/524 97/525
f 97/526 82/527 84/528
f 97/529 84/530 98/531
f 98/532 84/533 86/534
f 98/535 86/536 99/537
f 99/538 86/539 88/540
f 99/541 88/542 99/543
f 99/544 88/545 90/546
f 99/547 90/548 61/549
f 61/550 90/551 50/552
f 17/553 19/554 63/555
f 63/556 19/557 19/558
f 63/559 19/560 65/561
f 65/562 19/563 19/564
f 65/565 19/566 67/567
f 67/568 19/569 19/570
f 67/571 19/572 69/573
f 69/574 19/575 19/576
f 69/577 19/578 71/579
f 71/580 19/581 19/582
f 71/583 19/584 74/585
f 74/586 19/587 19/588
f 74/589 19/590 76/591
f 76/592 19/593 19/594
f 76/595 19/596 78/597
f 78/598 19/599 19/600
f 78/601 19/602 80/603
f 80/604 19/605 19/606
f 80/607 19/608 83/609
f 83/610 19/611 19/612
f 83/613 19/614 85/615
f 85/616 19/617 19/618
f 85/619 19/620 87/621
f 87/622 19/623 19/624
f 87/625 19/626 89/627
f 89/628 19/629 32/630
f 16/631 100/632 3/633
f 3/634 100/635 101/636
f 3/637 101/638 3/639
f 3/640 101/641 102/642
f 3/643 102/644 3/645
f 3/646 102/647 103/648
f 3/649 103/650 3/651
f 3/652 103/653 104/654
f 3/655 104/656 3/657
f 3/658 104/659 105/660
f 3/661 105/662 3/663
f 3/664 105/665 106/666
f 3/667 106/668 3/669
f 3/670 106/671 107/672
f 3/673 107/674 3/675
f 3/676 107/677 108/678
f 3/679 108/680 3/681
f 3/682 108/683 109/684
f 3/685 109/686 3/687
f 3/688 109/689 110/690
f 3/691 110/692 3/693
f 3/694 110/695 111/696
f 3/697 111/698 3/699
f 3/700 111/701 112/702
f 3/703 112/704 1/705
f 113/706 114/707 16/708
f 16/709 114/710 114/711
f 16/712 114/713 100/714
f 100/715 114/716 115/717
f 100/718 115/719 101/720
f 101/721 115/722 116/723
f 101/724 116/725 102/726
f 102/727 116/728 117/729
f 102/730 117/731 103/732
f 103/733 117/734 118/735
f 103/736 118/737 104/738
f 104/739 118/740 119/741
f 104/742 119/743 104/744
f 104/745 119/746 120/747
f 104/748 120/749 105/750
f 105/751 120/752 121/753
f 105/754 121/755 106/756
f 106/757 121/758 122/759
f 106/760 122/761 107/762
f 107/763 122/764 123/765
f 107/766 123/767 108/768
f 108/769 123/770 124/771
f 108/772 124/773 108/774
f 108/775 124/776 125/777
f 108/778 125/779 109/780
f 109/781 125/782 126/783
f 109/784 126/785 110/786
f 110/787 126/788 127/789
f 110/790 127/791 111/792
f 111/793 127/794 128/795
f 111/796 128/797 112/798
f 112/799 128/800 129/801
f 112/802 129/803 1/804
f 1/805 129/806 130/807
f 113/808 131/809 114/810
f 114/811 131/812 132/813
f 114/814 132/815 115/816
f 115/817 132/818 132/819
f 115/820 132/821 116/822
f 116/823 132/824 133/825
f 116/826 133/827 117/828
f 117/829 133/830 134/831
f 117/832 134/833 118/834
f 118/835 134/836 134/837
f 118/838 134/839 119/840
f 119/841 134/842 135/843
f 119/844 135/845 120/846
f 120/847 135/848 135/849
f 120/850 135/851 121/852
f 121/853 135/854 136/855
f 121/856 136/857 122/858
f 122/859 136/860 137/861
f 122/862 137/863 123/864
f 123/865 137/866 137/867
f 123/868 137/869 124/870
f 124/871 137/872 138/873
f 124/874 138/875 125/876
f 125/877 138/878 138/879
f 125/880 138/881 126/882
f 126/883 138/884 139/885
f 126/886 139/887 127/888
f 127/889 139/890 140/891
f 127/892 140/893 128/894
f 128/895 140/896 140/897
f 128/898 140/899 129/900
f 129/901 140/902 141/903
f 129/904 141/905 130/906
f 113/907 16/908 142/909
f 142/910 16/911 15/912
f 142/913 15/914 143/915
f 143/916 15/917 14/918
f 143/919 14/920 144/921
f 144/922 14/923 13/924
f 144/925 13/926 145/927
f 145/928 13/929 12/930
f 145/931 12/932 146/933
f 146/934 12/935 11/936
f 146/937 11/938 147/939
f 147/940 11/941 11/942
f 147/943 11/944 148/945
f 148/946 11/947 10/948
f 148/949 10/950 149/951
f 149/952 10/953 9/954
f 149/955 9/956 150/957
f 150/958 9/959 8/960
f 150/961 8/962 151/963
f 151/964 8/965 7/966
f 151/967 7/968 152/969
f 152/970 7/971 7/972
f 152/973 7/974 153/975
f 153/976 7/977 6/978
f 153/979 6/980 154/981
f 154/982 6/983 5/984
f 154/985 5/986 155/987
f 155/988 5/989 4/990
f 155/991 4/992 156/993
f 156/994 4/995 2/996
f 156/997 2/998 157/999
f 157/1000 2/1001 1/1002
f 157/1003 1/1004 130/1005
f 113/1006 142/1007 131/1008
f 131/1009 142/1010 142/1011
f 131/1012 142/1013 158/1014
f 158/1015 142/1016 143/1017
f 158/1018 143/1019 158/1020
f 158/1021 143/1022 144/1023
f 158/1024 144/1025 159/1026
f 159/1027 144/1028 145/1029
f 159/1030 145/1031 160/1032
f 160/1033 145/1034 146/1035
f 160/1036 146/1037 160/1038
f 160/1039 146/1040 147/1041
f 160/1042 147/1043 161/1044
f 161/1045 147/1046 148/1047
f 161/1048 148/1049 161/1050
f 161/1051 148/1052 149/1053
f 161/1054 149/1055 162/1056
f 162/1057 149/1058 150/1059
f 162/1060 150/1061 163/1062
f 163/1063 150/1064 151/1065
f 163/1066 151/1067 163/1068
f 163/1069 151/1070 152/1071
f 163/1072 152/1073 164/1074
f 164/1075 152/1076 153/1077
f 164/1078 153/1079 164/1080
f 164/1081 153/1082 154/1083
f 164/1084 154/1085 165/1086
f 165/1087 154/1088 155/1089
f 165/1090 155/1091 166/1092
f 166/1093 155/1094 156/1095
f 166/1096 156/1097 166/1098
f 166/1099 156/1100 157/1101
f 166/1102 157/1103 141/1104
f 141/1105 157/1106 130/1107
