# Exported from USD for MuJoCo with source material subsets
v -5.5548719 -5.3035729 1.11300456
v -4.44717083 -5.3035729 1.11300493
v -5.5548719 -5.31457258 1.11300456
v -4.41527078 -5.31457306 1.11300493
v -4.4383708 -5.3035729 1.11300493
v -4.41527078 -5.3035729 1.11300493
v -5.95527104 -5.28047252 1.98514825
v -5.95527104 -5.30357242 1.98514825
v -5.95417109 -5.28047252 1.98514825
v -5.93217108 -5.30247284 1.98514825
v -5.92337111 -5.30247284 1.98514825
v -5.95417109 -5.27167249 1.98514825
v -4.447171 -5.30247379 1.98514872
v -4.44717059 -4.58967329 1.98514872
v -4.43837062 -4.58967329 1.98514872
v -4.43837103 -5.30247379 1.98514872
v -4.41527066 -4.58857346 1.98514872
v -4.41527108 -5.3035729 1.98514872
v -4.43837103 -5.3035729 1.98514872
v -5.93217108 -5.30357242 1.98514825
v -4.43837062 -4.58857346 1.98514872
v -5.92337111 -5.30357242 1.98514825
v -4.447171 -5.3035729 1.98514872
v -4.47027108 -5.3035729 1.93014872
v -4.47027078 -5.3035729 1.1156823
v -5.55487214 -5.30346323 1.93014836
v -5.5548719 -5.30346323 1.11568193
v -5.90027079 -5.30357242 1.11568181
v -5.90027109 -5.30357242 1.93014824
v -5.95527062 -4.61167241 1.98514825
v -5.95417068 -4.61167241 1.98514825
v -5.95527062 -4.58857251 1.98514825
v -5.93217066 -4.58967233 1.98514825
v -5.93217066 -4.58857251 1.98514825
v -5.92337069 -4.58967233 1.98514825
v -5.95417068 -4.62047244 1.98514825
v -5.95527104 -5.27167249 1.98514825
v -5.95527062 -4.62047244 1.98514825
v -4.44717059 -4.58857346 1.98514872
v -5.92337069 -4.58857251 1.98514825
v -5.55487214 -5.3035729 1.97367739
v -5.55487214 -5.31457258 1.97367739
v -4.447171 -5.3035729 1.97367781
v -4.41527108 -5.31457306 1.97367781
v -4.43837103 -5.3035729 1.97367781
v -4.41527108 -5.3035729 1.97367781
v -5.55487214 -5.3035729 1.95324832
v -5.55487214 -5.3035729 1.96204841
v -4.47063241 -5.3035729 1.95324867
v -4.47063241 -5.3035729 1.96204876
v -5.24923687 -5.31457258 1.38750493
v -4.56607858 -5.31457306 1.38750505
v -4.56607869 -5.31457306 1.81708109
v -5.24923699 -5.31457258 1.81708103
v -4.7693167 -4.5886829 1.92959868
v -4.76931653 -4.5886829 1.11623222
v -5.58691199 -4.58868266 1.92959845
v -5.58662254 -4.58868266 1.11623198
v -4.47027043 -4.58868337 1.1156823
v -5.90027037 -4.58868266 1.11568181
v -5.6089612 -4.58868266 1.11623198
v -5.61776118 -4.58868266 1.11623198
v -5.64162255 -4.58868266 1.11623198
v -5.90027061 -4.58868266 1.93014824
v -5.64191203 -4.58868266 1.92959845
v -5.61776142 -4.58868266 1.92959845
v -5.60896144 -4.58868266 1.92959845
v -4.47027067 -4.58868337 1.93014872
v -4.74621669 -4.5886829 1.92959868
v -4.73741678 -4.5886829 1.92959868
v -4.7143167 -4.5886829 1.92959868
v -4.71431652 -4.5886829 1.11623222
v -4.73741648 -4.5886829 1.11623222
v -4.74621645 -4.5886829 1.11623222
v -5.95516035 -4.69626666 0.586562866
v -5.95516035 -4.7019825 0.583262855
v -5.95516041 -4.64357257 1.07178521
v -5.95516083 -5.24857212 1.07178521
v -5.95516047 -5.24857212 0.0711481515
v -5.95516035 -4.7019825 0.574833507
v -5.9552525 -4.64357257 0.0711481515
v -5.95516035 -4.69626666 0.571533496
v -5.95516035 -4.68349839 0.571533496
v -5.95516035 -4.67778254 0.574833507
v -5.95516035 -4.67778254 0.583262855
v -5.95516035 -4.68349839 0.586562866
v -5.95516065 -4.8322742 1.61184856
v -5.95516083 -5.08045984 1.61184856
v -5.95527098 -5.24857212 1.93014824
v -5.95527074 -5.24857212 1.1267852
v -5.95516083 -5.08045984 1.44251213
v -5.95516065 -4.8322742 1.44251213
v -5.95527038 -4.64357257 1.1267852
v -5.95516059 -4.68349839 1.56153351
v -5.95516059 -4.67778254 1.56483343
v -5.95527062 -4.64357257 1.93014824
v -5.95516059 -4.67778254 1.57326286
v -5.95516059 -4.68349839 1.57656279
v -5.95516059 -4.69626666 1.57656279
v -5.95516059 -4.7019825 1.57326286
v -5.95516059 -4.7019825 1.56483343
v -5.95516059 -4.69626666 1.56153351
vt -0.174767002 -0.309549987
vt -0.174767002 0.697450995
vt -0.184766993 -0.309549987
vt -1.00864196 -0.309549987
vt -1.00864196 0.697450995
vt -1.00864196 0.697450995
vt -0.184766993 -0.309549987
vt -0.174767002 0.697450995
vt -0.184766993 0.72645098
vt -0.184766993 0.72645098
vt -0.174767002 0.697450995
vt -0.174767002 0.705451012
vt -0.184766993 0.72645098
vt -0.174767002 0.705451012
vt -0.174767002 0.72645098
vt 0.153767005 -0.673548996
vt 0.174767002 -0.673548996
vt 0.153767005 -0.672549009
vt 0.153767005 -0.672549009
vt 0.174767002 -0.673548996
vt 0.173767 -0.652549028
vt -1.80149996 -0.672549009
vt -1.80149996 -0.652549028
vt -1.80149996 -0.672549009
vt 0.153767005 -0.672549009
vt 0.173767 -0.652549028
vt 0.173767 -0.644549012
vt 0.153767005 -0.672549009
vt 0.173767 -0.644549012
vt 0.145767003 -0.672549009
vt 0.145767003 -0.672549009
vt 0.173767 -0.644549012
vt 0.173767 0.697450995
vt 0.145767003 -0.672549009
vt 0.173767 0.697450995
vt -0.474233001 0.697450995
vt -1.80149996 0.697450995
vt -1.80149996 0.697450995
vt -1.80149996 0.697450995
vt -0.474233001 0.697450995
vt 0.173767 0.697450995
vt -0.474233001 0.705451012
vt -0.474233001 0.705451012
vt 0.173767 0.697450995
vt 0.173767 0.705451012
vt -0.474233001 0.705451012
vt 0.173767 0.705451012
vt -0.475232989 0.72645098
vt -1.80149996 0.72645098
vt -1.80149996 0.705451012
vt -1.80149996 0.705451012
vt -0.475232989 0.72645098
vt 0.173767 0.705451012
vt 0.174767002 0.72645098
vt 0.174767002 0.72645098
vt 0.173767 0.705451012
vt 0.174767002 0.705451012
vt 0.174767002 -0.652549028
vt 0.173767 -0.652549028
vt 0.174767002 -0.673548996
vt -0.475232989 0.705451012
vt -0.474233001 0.705451012
vt -0.475232989 0.72645098
vt 0.173767 -0.644549012
vt 0.174767002 -0.644549012
vt 0.173767 0.697450995
vt 0.173767 0.697450995
vt 0.174767002 -0.644549012
vt 0.174767002 0.697450995
vt 1.75150001 0.676451027
vt 1.01107597 0.676451027
vt 1.75150001 -0.309549987
vt 1.75150001 -0.309549987
vt 1.01107597 0.676451027
vt 1.01107597 -0.309549987
vt -1.01107597 -0.623548985
vt -1.01107597 -0.309549987
vt -1.75150001 -0.623548985
vt -1.75150001 -0.623548985
vt -1.01107597 -0.309549987
vt -1.01107597 -0.309549987
vt -1.75150001 -0.623548985
vt -1.01107597 -0.309549987
vt -1.75150001 -0.309549987
vt -1.75150001 -0.309549987
vt -1.01107597 -0.309549987
vt -1.01107597 0.676451027
vt -1.75150001 -0.309549987
vt -1.01107597 0.676451027
vt -1.75150001 0.676451027
vt -0.454232991 -0.673548996
vt -0.454232991 -0.672549009
vt -0.475232989 -0.673548996
vt -0.475232989 -0.673548996
vt -0.454232991 -0.672549009
vt -0.474233001 -0.652549028
vt -0.475232989 -0.673548996
vt -0.474233001 -0.652549028
vt -0.475232989 -0.652549028
vt -0.474233001 -0.652549028
vt -0.454232991 -0.672549009
vt -0.474233001 -0.644549012
vt -0.474233001 -0.644549012
vt -0.454232991 -0.672549009
vt -0.446233004 -0.672549009
vt -0.474233001 -0.644549012
vt -0.446233004 -0.672549009
vt -0.474233001 0.697450995
vt -1.80149996 0.697450995
vt -1.80149996 -0.672549009
vt -1.80149996 -0.672549009
vt -0.474233001 0.697450995
vt -0.446233004 -0.672549009
vt 0.145767003 -0.672549009
vt -1.80149996 -0.672549009
vt -1.80149996 -0.672549009
vt -1.80149996 -0.672549009
vt 0.145767003 -0.672549009
vt -0.446233004 -0.672549009
vt 0.145767003 -0.673548996
vt 0.145767003 -0.673548996
vt -0.446233004 -0.672549009
vt -0.446233004 -0.673548996
vt -0.474233001 0.697450995
vt -0.475232989 0.697450995
vt -0.474233001 -0.644549012
vt -0.474233001 -0.644549012
vt -0.475232989 0.697450995
vt -0.475232989 -0.644549012
vt 0.174767002 -0.309549987
vt 0.184766993 -0.309549987
vt 0.174767002 0.697450995
vt 0.174767002 0.697450995
vt 0.184766993 -0.309549987
vt 0.184766993 0.72645098
vt 0.174767002 0.697450995
vt 0.184766993 0.72645098
vt 0.174767002 0.705451012
vt 0.174767002 0.705451012
vt 0.184766993 0.72645098
vt 0.174767002 0.72645098
vt 1.00864196 0.697450995
vt 1.79107201 0.697450995
vt 1.00864196 0.705451012
vt 1.00864196 0.705451012
vt 1.79107201 0.697450995
vt 1.79107201 0.705451012
vt 0.174767002 1.00864196
vt 0.184766993 1.00864196
vt 0.174667001 1.01107597
vt -1.01107597 -0.309549987
vt -1.00864196 -0.309549987
vt -1.00864196 -0.309549987
vt 0.174667001 1.01107597
vt 0.184766993 1.00864196
vt 0.174667001 1.75150001
vt 0.174667001 1.75150001
vt 0.184766993 1.00864196
vt 0.184766993 1.79107201
vt 0.174667001 1.75150001
vt 0.184766993 1.79107201
vt 0.174767002 1.77250004
vt -1.77250004 -0.309549987
vt -1.79107201 -0.309549987
vt -1.79107201 -0.309549987
vt 0.174767002 1.77250004
vt 0.184766993 1.79107201
vt 0.174767002 1.78050005
vt 0.174767002 1.78050005
vt 0.184766993 1.79107201
vt 0.174767002 1.79107201
vt 1.77250004 -0.309549987
vt 1.78050005 -0.309549987
vt 1.77250004 0.67612201
vt 1.77250004 0.67612201
vt 1.78050005 -0.309549987
vt 1.78050005 0.67612201
vt -1.79107201 -0.309549987
vt -1.00864196 -0.309549987
vt -1.25818801 -0.0317000002
vt -1.25818801 -0.0317000002
vt -1.00864196 -0.309549987
vt -1.00864196 0.72645098
vt -1.25818801 -0.0317000002
vt -1.00864196 0.72645098
vt -1.25818801 0.589353025
vt -1.25818801 0.589353025
vt -1.00864196 0.72645098
vt -1.79107201 0.72645098
vt -1.25818801 0.589353025
vt -1.79107201 0.72645098
vt -1.64871097 0.589353025
vt -1.64871097 0.589353025
vt -1.79107201 0.72645098
vt -1.79107201 0.72645098
vt -1.64871097 0.589353025
vt -1.79107201 0.72645098
vt -1.64871097 -0.0317000002
vt -1.64871097 -0.0317000002
vt -1.79107201 0.72645098
vt -1.79107201 -0.309549987
vt -1.64871097 -0.0317000002
vt -1.79107201 -0.309549987
vt -1.25818801 -0.0317000002
vt 1.75100005 0.404590994
vt 1.01157606 0.404590994
vt 1.75100005 -0.338678002
vt -1.75100005 -0.338678002
vt -1.01157606 0.404590994
vt -1.01157606 0.404590994
vt 1.75100005 -0.338678002
vt 1.01157606 0.404590994
vt 1.01157606 -0.338414997
vt 1.01157606 -0.338414997
vt 1.01157606 0.404590994
vt 1.01107597 0.676451027
vt -1.01157606 -0.338414997
vt -1.01107597 0.676451027
vt -1.01157606 -0.338414997
vt 1.01157606 -0.338414997
vt 1.01107597 0.676451027
vt 1.01107597 -0.623548985
vt 1.01157606 -0.338414997
vt 1.01107597 -0.623548985
vt 1.01157606 -0.358723015
vt -1.01157606 -0.358723015
vt -1.01107597 -0.623548985
vt -1.01107597 -0.623548985
vt 1.01157606 -0.358723015
vt 1.01107597 -0.623548985
vt 1.01157606 -0.366723001
vt -1.01157606 -0.366723001
vt -1.01107597 -0.623548985
vt -1.01107597 -0.623548985
vt 1.01157606 -0.366723001
vt 1.01107597 -0.623548985
vt 1.01157606 -0.388415009
vt 1.01157606 -0.388415009
vt 1.01107597 -0.623548985
vt 1.75150001 -0.623548985
vt 1.01157606 -0.388415009
vt 1.75150001 -0.623548985
vt 1.75100005 -0.388678014
vt -1.75100005 -0.388678014
vt -1.75150001 -0.623548985
vt -1.75150001 -0.623548985
vt 1.75100005 -0.388678014
vt 1.75150001 -0.623548985
vt 1.75100005 -0.366723001
vt -1.75100005 -0.366723001
vt -1.75150001 -0.623548985
vt -1.75150001 -0.623548985
vt 1.75100005 -0.366723001
vt 1.75150001 -0.623548985
vt 1.75100005 -0.358723015
vt -1.75100005 -0.358723015
vt -1.75150001 -0.623548985
vt -1.75150001 -0.623548985
vt 1.75100005 -0.358723015
vt 1.75150001 -0.623548985
vt 1.75100005 -0.338678002
vt 1.75100005 -0.338678002
vt 1.75150001 -0.623548985
vt 1.75150001 0.676451027
vt 1.75100005 -0.338678002
vt 1.75150001 0.676451027
vt 1.75100005 0.404590994
vt -1.75100005 0.404590994
vt -1.75150001 0.676451027
vt -1.75150001 0.676451027
vt 1.75100005 0.404590994
vt 1.75150001 0.676451027
vt 1.75100005 0.425590992
vt -1.75100005 0.425590992
vt -1.75150001 0.676451027
vt -1.75150001 0.676451027
vt 1.75100005 0.425590992
vt 1.75150001 0.676451027
vt 1.75100005 0.433591008
vt -1.75100005 0.433591008
vt -1.75150001 0.676451027
vt -1.75150001 0.676451027
vt 1.75100005 0.433591008
vt 1.75150001 0.676451027
vt 1.75100005 0.454591006
vt 1.75100005 0.454591006
vt 1.75150001 0.676451027
vt 1.01107597 0.676451027
vt 1.75100005 0.454591006
vt 1.01107597 0.676451027
vt 1.01157606 0.454591006
vt -1.01157606 0.454591006
vt -1.01107597 0.676451027
vt -1.01107597 0.676451027
vt 1.01157606 0.454591006
vt 1.01107597 0.676451027
vt 1.01157606 0.433591008
vt -1.01157606 0.433591008
vt -1.01107597 0.676451027
vt -1.01107597 0.676451027
vt 1.01157606 0.433591008
vt 1.01107597 0.676451027
vt 1.01157606 0.425590992
vt 1.01157606 0.425590992
vt 1.01107597 0.676451027
vt 1.01157606 0.404590994
vt -0.377328992 0.53005898
vt -0.372132987 0.527059019
vt -0.425233006 0.971170008
vt -0.971170008 -0.67344898
vt -0.527059019 -0.67344898
vt -0.527059019 -0.67344898
vt -0.425233006 0.971170008
vt -0.372132987 0.527059019
vt 0.124766998 0.971170008
vt -0.971170008 -0.67344898
vt -0.527059019 -0.67344898
vt -0.527059019 -0.67344898
vt 0.124766998 0.971170008
vt -0.372132987 0.527059019
vt 0.124766998 0.0615000017
vt 0.124766998 0.0615000017
vt -0.372132987 0.527059019
vt -0.372132987 0.519396007
vt 0.124766998 0.0615000017
vt -0.372132987 0.519396007
vt -0.425233006 0.0615000017
vt -0.425233006 0.0615000017
vt -0.372132987 0.519396007
vt -0.377328992 0.516395986
vt -0.0615000017 -0.673533022
vt -0.516395986 -0.67344898
vt -0.0615000017 -0.673533022
vt -0.425233006 0.0615000017
vt -0.377328992 0.516395986
vt -0.388936996 0.516395986
vt -0.0615000017 -0.673533022
vt -0.516395986 -0.67344898
vt -0.0615000017 -0.673533022
vt -0.425233006 0.0615000017
vt -0.388936996 0.516395986
vt -0.394133002 0.519396007
vt -0.425233006 0.0615000017
vt -0.394133002 0.519396007
vt -0.425233006 0.971170008
vt -0.425233006 0.971170008
vt -0.394133002 0.519396007
vt -0.394133002 0.527059019
vt -0.971170008 -0.67344898
vt -0.527059019 -0.67344898
vt -0.971170008 -0.67344898
vt -0.425233006 0.971170008
vt -0.394133002 0.527059019
vt -0.388936996 0.53005898
vt -0.425233006 0.971170008
vt -0.388936996 0.53005898
vt -0.377328992 0.53005898
vt -0.253686011 1.46213698
vt -0.0280629992 1.46213698
vt 0.124766998 1.75150001
vt -1.75150001 -0.673548996
vt -1.46213698 -0.67344898
vt -1.46213698 -0.67344898
vt 0.124766998 1.75150001
vt -0.0280629992 1.46213698
vt 0.124766998 1.02117002
vt 0.124766998 1.02117002
vt -0.0280629992 1.46213698
vt -0.0280629992 1.30819499
vt -1.02117002 -0.673548996
vt -1.30819499 -0.67344898
vt -1.02117002 -0.673548996
vt 0.124766998 1.02117002
vt -0.0280629992 1.30819499
vt -0.253686011 1.30819499
vt 0.124766998 1.02117002
vt -0.253686011 1.30819499
vt -0.425233006 1.02117002
vt -0.425233006 1.02117002
vt -0.253686011 1.30819499
vt -0.388936996 1.41639602
vt -1.02117002 -0.673548996
vt -1.41639602 -0.67344898
vt -1.02117002 -0.673548996
vt -0.425233006 1.02117002
vt -0.388936996 1.41639602
vt -0.394133002 1.41939604
vt -0.425233006 1.02117002
vt -0.394133002 1.41939604
vt -0.425233006 1.75150001
vt -0.425233006 1.75150001
vt -0.394133002 1.41939604
vt -0.394133002 1.42705905
vt -1.75150001 -0.673548996
vt -1.42705905 -0.67344898
vt -1.75150001 -0.673548996
vt -0.425233006 1.75150001
vt -0.394133002 1.42705905
vt -0.388936996 1.43005896
vt -1.75150001 -0.673548996
vt -1.43005896 -0.67344898
vt -1.75150001 -0.673548996
vt -0.425233006 1.75150001
vt -0.388936996 1.43005896
vt -0.377328992 1.43005896
vt -0.425233006 1.75150001
vt -0.377328992 1.43005896
vt -0.253686011 1.46213698
vt -0.253686011 1.46213698
vt -0.377328992 1.43005896
vt -0.372132987 1.42705905
vt -1.46213698 -0.67344898
vt -1.42705905 -0.67344898
vt -1.46213698 -0.67344898
vt -0.253686011 1.46213698
vt -0.372132987 1.42705905
vt -0.372132987 1.41939604
vt -0.253686011 1.46213698
vt -0.372132987 1.41939604
vt -0.253686011 1.30819499
vt -0.253686011 1.30819499
vt -0.372132987 1.41939604
vt -0.377328992 1.41639602
vt -0.253686011 1.30819499
vt -0.377328992 1.41639602
vt -0.388936996 1.41639602
vt 0.124766998 1.75150001
vt -0.425233006 1.75150001
vt -0.253686011 1.46213698
f 1/1 2/2 3/3
f 3/4 2/5 2/6
f 3/7 2/8 4/9
f 4/10 2/11 5/12
f 4/13 5/14 6/15
f 7/16 8/17 9/18
f 9/19 8/20 10/21
f 9/22 10/23 9/24
f 9/25 10/26 11/27
f 9/28 11/29 12/30
f 12/31 11/32 13/33
f 12/34 13/35 14/36
f 14/37 13/38 13/39
f 14/40 13/41 15/42
f 15/43 13/44 16/45
f 15/46 16/47 17/48
f 17/49 16/50 16/51
f 17/52 16/53 18/54
f 18/55 16/56 19/57
f 20/58 10/59 8/60
f 21/61 15/62 17/63
f 11/64 22/65 13/66
f 13/67 22/68 23/69
f 24/70 25/71 26/72
f 26/73 25/74 27/75
f 28/76 27/77 29/78
f 29/79 27/80 27/81
f 29/82 27/83 26/84
f 26/85 27/86 25/87
f 26/88 25/89 24/90
f 30/91 31/92 32/93
f 32/94 31/95 33/96
f 32/97 33/98 34/99
f 33/100 31/101 35/102
f 35/103 31/104 36/105
f 35/106 36/107 14/108
f 14/109 36/110 36/111
f 14/112 36/113 12/114
f 12/115 36/116 36/117
f 12/118 36/119 37/120
f 37/121 36/122 38/123
f 14/124 39/125 35/126
f 35/127 39/128 40/129
f 41/130 42/131 43/132
f 43/133 42/134 44/135
f 43/136 44/137 45/138
f 45/139 44/140 46/141
f 2/142 43/143 5/144
f 5/145 43/146 45/147
f 1/148 3/149 27/150
f 27/151 3/152 3/153
f 27/154 3/155 26/156
f 26/157 3/158 42/159
f 26/160 42/161 47/162
f 47/163 42/164 42/165
f 47/166 42/167 48/168
f 48/169 42/170 41/171
f 47/172 48/173 49/174
f 49/175 48/176 50/177
f 42/178 3/179 51/180
f 51/181 3/182 4/183
f 51/184 4/185 52/186
f 52/187 4/188 44/189
f 52/190 44/191 53/192
f 53/193 44/194 44/195
f 53/196 44/197 54/198
f 54/199 44/200 42/201
f 54/202 42/203 51/204
f 55/205 56/206 57/207
f 57/208 56/209 56/210
f 57/211 56/212 58/213
f 58/214 56/215 59/216
f 58/217 59/218 58/219
f 58/220 59/221 60/222
f 58/223 60/224 61/225
f 61/226 60/227 60/228
f 61/229 60/230 62/231
f 62/232 60/233 60/234
f 62/235 60/236 63/237
f 63/238 60/239 64/240
f 63/241 64/242 65/243
f 65/244 64/245 64/246
f 65/247 64/248 66/249
f 66/250 64/251 64/252
f 66/253 64/254 67/255
f 67/256 64/257 64/258
f 67/259 64/260 57/261
f 57/262 64/263 68/264
f 57/265 68/266 55/267
f 55/268 68/269 68/270
f 55/271 68/272 69/273
f 69/274 68/275 68/276
f 69/277 68/278 70/279
f 70/280 68/281 68/282
f 70/283 68/284 71/285
f 71/286 68/287 59/288
f 71/289 59/290 72/291
f 72/292 59/293 59/294
f 72/295 59/296 73/297
f 73/298 59/299 59/300
f 73/301 59/302 74/303
f 74/304 59/305 56/306
f 75/307 76/308 77/309
f 77/310 76/311 76/312
f 77/313 76/314 78/315
f 78/316 76/317 76/318
f 78/319 76/320 79/321
f 79/322 76/323 80/324
f 79/325 80/326 81/327
f 81/328 80/329 82/330
f 81/331 82/332 81/333
f 81/334 82/335 83/336
f 81/337 83/338 81/339
f 81/340 83/341 84/342
f 81/343 84/344 77/345
f 77/346 84/347 85/348
f 77/349 85/350 77/351
f 77/352 85/353 86/354
f 77/355 86/356 75/357
f 87/358 88/359 89/360
f 89/361 88/362 88/363
f 89/364 88/365 90/366
f 90/367 88/368 91/369
f 90/370 91/371 90/372
f 90/373 91/374 92/375
f 90/376 92/377 93/378
f 93/379 92/380 94/381
f 93/382 94/383 93/384
f 93/385 94/386 95/387
f 93/388 95/389 96/390
f 96/391 95/392 97/393
f 96/394 97/395 96/396
f 96/397 97/398 98/399
f 96/400 98/401 96/402
f 96/403 98/404 99/405
f 96/406 99/407 87/408
f 87/409 99/410 100/411
f 87/412 100/413 87/414
f 87/415 100/416 101/417
f 87/418 101/419 92/420
f 92/421 101/422 102/423
f 92/424 102/425 94/426
f 89/427 96/428 87/429
