# Exported from USD for MuJoCo with source material subsets
v -15.9141435 1.93493121 0.602700407
v -15.9142304 1.93597692 0.60795855
v -15.9163432 1.93493121 0.602664107
v -15.9164301 1.93597692 0.607922131
v -15.9143041 1.93895643 0.612419242
v -15.9165038 1.93895643 0.612382883
v -15.9143534 1.9434182 0.615401501
v -15.9165531 1.9434182 0.615365202
v -15.9143707 1.94867724 0.616448337
v -15.9165704 1.94867724 0.616411978
v -15.9143534 1.9539408 0.615402693
v -15.9165531 1.9539408 0.615366394
v -15.9143042 1.95840209 0.612423414
v -15.9165039 1.95840209 0.612387115
v -15.9142305 1.9613828 0.607965225
v -15.9164302 1.9613828 0.607928807
v -15.9141435 1.96243113 0.602700407
v -15.9163432 1.96243113 0.602664107
v -15.9161826 1.95840591 0.592945332
v -15.9161333 1.95394438 0.589963073
v -15.9162563 1.9613859 0.597406084
v -15.916116 1.9486851 0.588916177
v -15.9161333 1.9434213 0.589961881
v -15.9161826 1.93896025 0.5929411
v -15.9162562 1.93597978 0.597399468
v -15.9140566 1.9613859 0.597442383
v -15.9139829 1.95840591 0.59298169
v -15.9139336 1.95394438 0.589999372
v -15.9139164 1.9486851 0.588952595
v -15.9139336 1.9434213 0.589998299
v -15.9139829 1.93896025 0.592977399
v -15.9140565 1.93597978 0.597435826
vt -0.453144014 0.544727981
vt -0.45322299 0.549507976
vt -0.455143988 0.54469502
vt -0.54469502 -0.183106005
vt -0.549507976 -0.184055999
vt -0.549507976 -0.184055999
vt -0.455143988 0.54469502
vt -0.45322299 0.549507976
vt -0.455222994 0.549475014
vt -0.455222994 0.549475014
vt -0.45322299 0.549507976
vt -0.453289986 0.553562999
vt -0.455222994 0.549475014
vt -0.453289986 0.553562999
vt -0.45528999 0.553529978
vt 0.45528999 -0.186765
vt 0.453289986 -0.186765
vt 0.453334987 -0.190821007
vt 0.45528999 -0.186765
vt 0.453334987 -0.190821007
vt 0.455334991 -0.190821007
vt 0.455334991 -0.190821007
vt 0.453334987 -0.190821007
vt 0.453350991 -0.195602
vt 0.455334991 -0.190821007
vt 0.453350991 -0.195602
vt 0.455350012 -0.195602
vt 0.455350012 -0.195602
vt 0.453350991 -0.195602
vt 0.453334987 -0.200387001
vt 0.455350012 -0.195602
vt 0.453334987 -0.200387001
vt 0.455334991 -0.200387001
vt 0.455334991 -0.200387001
vt 0.453334987 -0.200387001
vt 0.453289986 -0.204442993
vt 0.455334991 -0.200387001
vt 0.453289986 -0.204442993
vt 0.45528999 -0.204442993
vt 0.45528999 0.553533971
vt 0.453289986 0.553566992
vt 0.45322299 0.549513996
vt 0.45528999 0.553533971
vt 0.45322299 0.549513996
vt 0.455222994 0.549480975
vt 0.455222994 0.549480975
vt 0.45322299 0.549513996
vt 0.453144014 0.544727981
vt 0.455222994 0.549480975
vt 0.453144014 0.544727981
vt 0.455143988 0.54469502
vt -0.535860002 -0.204447001
vt -0.533147991 -0.200389996
vt -0.539915025 -0.207155004
vt -0.539915025 -0.207155004
vt -0.533147991 -0.200389996
vt -0.532196999 -0.195609003
vt -0.539915025 -0.207155004
vt -0.532196999 -0.195609003
vt -0.54469502 -0.208105996
vt -0.54469502 -0.208105996
vt -0.532196999 -0.195609003
vt -0.533146977 -0.190824002
vt -0.54469502 -0.208105996
vt -0.533146977 -0.190824002
vt -0.549480975 -0.207153007
vt -0.549480975 -0.207153007
vt -0.533146977 -0.190824002
vt -0.535856009 -0.186768994
vt -0.549480975 -0.207153007
vt -0.535856009 -0.186768994
vt -0.553533971 -0.204442993
vt -0.553533971 -0.204442993
vt -0.535856009 -0.186768994
vt -0.539909005 -0.184058994
vt -0.553533971 -0.204442993
vt -0.539909005 -0.184058994
vt -0.556241989 -0.200387001
vt -0.556241989 -0.200387001
vt -0.539909005 -0.184058994
vt -0.54469502 -0.183106005
vt -0.556241989 -0.200387001
vt -0.54469502 -0.183106005
vt -0.557192981 -0.195602
vt -0.557192981 -0.195602
vt -0.54469502 -0.183106005
vt -0.549475014 -0.184055999
vt -0.557192981 -0.195602
vt -0.549475014 -0.184055999
vt -0.556240976 -0.190821007
vt -0.556240976 -0.190821007
vt -0.549475014 -0.184055999
vt -0.553529978 -0.186765
vt 0.453144014 0.544727981
vt 0.453065008 0.539947987
vt 0.455143988 0.54469502
vt -0.54469502 -0.208105996
vt -0.539947987 -0.207155004
vt -0.539947987 -0.207155004
vt 0.455143988 0.54469502
vt 0.453065008 0.539947987
vt 0.455065012 0.539915025
vt 0.455065012 0.539915025
vt 0.453065008 0.539947987
vt 0.452998012 0.535893023
vt 0.455065012 0.539915025
vt 0.452998012 0.535893023
vt 0.454997987 0.535860002
vt -0.454997987 -0.204447001
vt -0.452998012 -0.204447001
vt -0.452953011 -0.200389996
vt -0.454997987 -0.204447001
vt -0.452953011 -0.200389996
vt -0.454953015 -0.200389996
vt -0.454953015 -0.200389996
vt -0.452953011 -0.200389996
vt -0.45293799 -0.195609003
vt -0.454953015 -0.200389996
vt -0.45293799 -0.195609003
vt -0.454937011 -0.195609003
vt -0.454937011 -0.195609003
vt -0.45293799 -0.195609003
vt -0.452953011 -0.190824002
vt -0.454937011 -0.195609003
vt -0.452953011 -0.190824002
vt -0.454953015 -0.190824002
vt -0.454953015 -0.190824002
vt -0.452953011 -0.190824002
vt -0.452998012 -0.186768994
vt -0.454953015 -0.190824002
vt -0.452998012 -0.186768994
vt -0.454997987 -0.186768994
vt -0.454997987 0.535856009
vt -0.452998012 0.53588903
vt -0.453065008 0.539942026
vt -0.454997987 0.535856009
vt -0.453065008 0.539942026
vt -0.455065012 0.539909005
vt -0.455065012 0.539909005
vt -0.453065008 0.539942026
vt -0.453144014 0.544727981
vt -0.455065012 0.539909005
vt -0.453144014 0.544727981
vt -0.455143988 0.54469502
f 1/1 2/2 3/3
f 3/4 2/5 2/6
f 3/7 2/8 4/9
f 4/10 2/11 5/12
f 4/13 5/14 6/15
f 6/16 5/17 7/18
f 6/19 7/20 8/21
f 8/22 7/23 9/24
f 8/25 9/26 10/27
f 10/28 9/29 11/30
f 10/31 11/32 12/33
f 12/34 11/35 13/36
f 12/37 13/38 14/39
f 14/40 13/41 15/42
f 14/43 15/44 16/45
f 16/46 15/47 17/48
f 16/49 17/50 18/51
f 19/52 20/53 21/54
f 21/55 20/56 22/57
f 21/58 22/59 18/60
f 18/61 22/62 23/63
f 18/64 23/65 16/66
f 16/67 23/68 24/69
f 16/70 24/71 14/72
f 14/73 24/74 25/75
f 14/76 25/77 12/78
f 12/79 25/80 3/81
f 12/82 3/83 10/84
f 10/85 3/86 4/87
f 10/88 4/89 8/90
f 8/91 4/92 6/93
f 17/94 26/95 18/96
f 18/97 26/98 26/99
f 18/100 26/101 21/102
f 21/103 26/104 27/105
f 21/106 27/107 19/108
f 19/109 27/110 28/111
f 19/112 28/113 20/114
f 20/115 28/116 29/117
f 20/118 29/119 22/120
f 22/121 29/122 30/123
f 22/124 30/125 23/126
f 23/127 30/128 31/129
f 23/130 31/131 24/132
f 24/133 31/134 32/135
f 24/136 32/137 25/138
f 25/139 32/140 1/141
f 25/142 1/143 3/144
